<?xml version="1.0" encoding="utf-8"?>
<!-- Generator: Adobe Illustrator 23.0.0, SVG Export Plug-In . SVG Version: 6.00 Build 0)  -->
<svg version="1.1" id="Layer_1" xmlns="http://www.w3.org/2000/svg" xmlns:xlink="http://www.w3.org/1999/xlink" x="0px" y="0px"
	 viewBox="0 0 32 32" style="enable-background:new 0 0 32 32;" xml:space="preserve">
<style type="text/css">
	.st0{opacity:0.2;enable-background:new    ;}
	.st1{fill:#34A046;}
	.st2{opacity:0.2;fill:#FFFFFF;enable-background:new    ;}
	.st3{fill:#F75049;}
</style>
<path class="st0" d="M29.9,15L29.9,15c0-0.3-0.1-0.6-0.1-0.8l0,0C29.8,14.5,29.8,14.8,29.9,15z"/>
<path class="st0" d="M30,15.9c0-0.1,0-0.3,0-0.4c0,0,0,0,0-0.1c0-0.1,0-0.1,0-0.1c0,0,0,0.1,0,0.1C29.9,15.5,29.9,15.7,30,15.9z"/>
<path class="st0" d="M2,16.5v0.1C2,16.6,2,16.5,2,16.5C2,16.5,2,16.5,2,16.5z"/>
<path class="st1" d="M2,16.5v0.1C2,16.6,2,16.5,2,16.5c0-0.1,0-0.3,0-0.5C2,16.2,2,16.3,2,16.5z"/>
<path class="st1" d="M29.9,15L29.9,15c0-0.3-0.1-0.6-0.1-0.8l0,0C29.8,14.5,29.8,14.8,29.9,15z"/>
<path class="st1" d="M30,15.9c0-0.1,0-0.3,0-0.4c0,0,0,0,0-0.1c0-0.1,0-0.1,0-0.1c0,0,0,0.1,0,0.1C29.9,15.5,29.9,15.7,30,15.9z"/>
<path class="st2" d="M29.9,15L29.9,15c0-0.3-0.1-0.6-0.1-0.8l0,0C29.8,14.5,29.8,14.8,29.9,15z"/>
<path class="st2" d="M30,15.9c0-0.1,0-0.3,0-0.4c0,0,0,0,0-0.1c0-0.1,0-0.1,0-0.1c0,0,0,0.1,0,0.1C29.9,15.5,29.9,15.7,30,15.9z"/>
<path class="st2" d="M23.7,12.2l-0.5-1c-0.2,0.2-0.4,0.3-0.6,0.5c-0.7,0.7-1.4,1.3-2.1,1.9l0.3,0.5l2.3-1.3c0,0,0,0,0,0l0.4-0.2
	l0.4-0.3L23.7,12.2z M27.5,8c-1.6-2.3-3.8-4.1-6.5-5.1C20.9,3,20.8,3,20.7,3.1c0,0-0.2,0.1-0.6,0.3c-0.6,0.4-1,0.5-1.1,0.6
	c-0.4,0.3-0.8,0.5-0.9,1c-0.2,0.4-0.1,0.7-0.4,1c-0.2,0.2-0.5,0.3-0.6,0.3c-1,0.3-2.2,2-2.4,2.2c-0.7,0.9-2.8,3.2-8.6,8.4
	C14,8.6,16.3,6,16.4,5.8l0,0c0-0.1,0.3-0.7,0-0.9c-0.1-0.1-0.4,0-0.5-0.2c0,0-0.1-0.1,0-0.3C16,4,16.7,3.9,16.6,3.8
	c0-0.1-0.1-0.1-0.3-0.2c-0.5-0.2-0.5-0.3-0.7-0.4c-0.4-0.1-0.8,0.1-1.1,0.3c-0.3,0.2-0.5,0.4-0.6,0.3c-0.1-0.1,0.1-0.3,0-0.5
	c-0.1-0.2-0.4-0.1-0.5-0.1c-0.6,0-0.9,0.5-1,0.4c-0.1-0.1,0-0.3-0.1-0.5C12,2.9,11.8,3,11.6,2.8c0,0,0,0,0,0C6,4.6,2,9.8,2,16
	c0,0.2,0,0.3,0,0.5v0.1c0,0,0-0.1,0-0.1c0,0.2,0,0.3,0,0.5c0,2.6,0.7,5.1,2,7.2c0.6,0.4,1.1,0.8,1.1,1.3c0,0.1,0,0.2,0,0.3
	c0.5,0.6,1,1.1,1.5,1.6c0.3,0.1,0.4,0.4,0.8,0.4c0.6,0,0.8-0.7,1.3-0.6C9,27.2,9,27.5,9.4,27.6c0.3,0.1,0.7,0,0.9,0
	c1.7-1.8,4.4-4.5,7.6-7.9c1.7-1.8,2.6-2.8,3.4-3.6l-0.4,0.3c-0.4,0.2-0.8,0.2-1.1-0.1c-1.2,1-2.4,2-3.6,2.8c1-1,2.2-2.1,3.3-3.2
	L18.9,15l-0.1,0c0,0,0,0,0,0c-1.3,1.1-2.6,2.1-3.9,3.1c0.7-0.7,1.4-1.4,2.1-2.1l-4.8,2.8c-0.5,0.3-1.1,0.1-1.4-0.4l-0.7-1.3
	l-4.7,2.7C5,20.1,4.4,20,4.1,19.5v0C3.9,19,4,18.4,4.5,18.1l5.5-3.2c0.3-0.2,0.7-0.2,1,0c1.5-1.8,3.1-3.6,5.1-5.4
	c1.8-1.8,3.6-3.3,5.3-4.6c-1.2,1.2-2.5,2.4-3.7,3.6c-2.3,2.2-4.4,4.4-6.5,6.6c0.1,0.1,0.2,0.2,0.2,0.3l0.7,1.3l6.6-3.8c0,0,0,0,0,0
	c0.5-0.3,1.1-0.1,1.4,0.4l0,0.1c0.3-0.2,0.5-0.5,0.8-0.7c0.7-0.6,1.3-1.1,2-1.7l-0.8-1.4l0,0C22,9.3,22,9.1,22,8.9
	C22,8.4,22.4,8,22.9,8h3.8c0.3,0.3,0.5,0.6,0.8,1h0.6C27.9,8.7,27.7,8.3,27.5,8z M19.5,8.8c-1.9,2.1-3.8,3.9-5.6,5.6
	c1-1.5,2.3-3.1,4-4.8c1.4-1.4,2.7-2.5,3.9-3.4C21.1,7,20.3,7.9,19.5,8.8z"/>
<path class="st2" d="M27.4,21.6c-0.8,0.7-1.5,1.4-2.3,2c-0.3,0.2-0.6,0.4-0.8,0.6c1.7-1.7,3.5-3.4,5.5-5.1c0,0.1,0,0.2-0.1,0.3
	C29,20.2,28.2,20.9,27.4,21.6z"/>
<path class="st3" d="M29.8,19.2c0,0.1,0,0.2-0.1,0.3c-0.8,0.7-1.5,1.5-2.4,2.2c-0.8,0.7-1.5,1.4-2.3,2c-0.3,0.2-0.6,0.4-0.8,0.6
	C26,22.6,27.8,20.9,29.8,19.2z"/>
<path class="st3" d="M29.8,19.2c0,0.1,0,0.2-0.1,0.3c-0.8,0.7-1.5,1.5-2.4,2.2c-0.8,0.7-1.5,1.4-2.3,2c-0.3,0.2-0.6,0.4-0.8,0.6
	C26,22.6,27.8,20.9,29.8,19.2z"/>
<path class="st3" d="M29.8,19.2c0,0.1,0,0.2-0.1,0.3c-0.8,0.7-1.5,1.5-2.4,2.2c-0.8,0.7-1.5,1.4-2.3,2c-0.3,0.2-0.6,0.4-0.8,0.6
	C26,22.6,27.8,20.9,29.8,19.2z"/>
<path class="st3" d="M29.8,19.2c0,0.1,0,0.2-0.1,0.3c-0.8,0.7-1.5,1.5-2.4,2.2c-0.8,0.7-1.5,1.4-2.3,2c-0.3,0.2-0.6,0.4-0.8,0.6
	C26,22.6,27.8,20.9,29.8,19.2z"/>
<path class="st3" d="M29.8,19.2c0,0.1,0,0.2-0.1,0.3c-0.8,0.7-1.5,1.5-2.4,2.2c-0.8,0.7-1.5,1.4-2.3,2c-0.3,0.2-0.6,0.4-0.8,0.6
	C26,22.6,27.8,20.9,29.8,19.2z"/>
<path class="st3" d="M29.8,19.2c0,0.1,0,0.2-0.1,0.3c-0.8,0.7-1.5,1.5-2.4,2.2c-0.8,0.7-1.5,1.4-2.3,2c-0.3,0.2-0.6,0.4-0.8,0.6
	C26,22.6,27.8,20.9,29.8,19.2z"/>
<path class="st3" d="M29.8,19.2c0,0.1,0,0.2-0.1,0.3c-0.8,0.7-1.5,1.5-2.4,2.2c-0.8,0.7-1.5,1.4-2.3,2c-0.3,0.2-0.6,0.4-0.8,0.6
	C26,22.6,27.8,20.9,29.8,19.2z"/>
<path class="st3" d="M29.8,19.2c0,0.1,0,0.2-0.1,0.3c-0.8,0.7-1.5,1.5-2.4,2.2c-0.8,0.7-1.5,1.4-2.3,2c-0.3,0.2-0.6,0.4-0.8,0.6
	C26,22.6,27.8,20.9,29.8,19.2z"/>
<path class="st3" d="M29.8,19.2c0,0.1,0,0.2-0.1,0.3c-0.8,0.7-1.5,1.5-2.4,2.2c-0.8,0.7-1.5,1.4-2.3,2c-0.3,0.2-0.6,0.4-0.8,0.6
	C26,22.6,27.8,20.9,29.8,19.2z"/>
<path class="st3" d="M29.8,19.2c0,0.1,0,0.2-0.1,0.3c-0.8,0.7-1.5,1.5-2.4,2.2c-0.8,0.7-1.5,1.4-2.3,2c-0.3,0.2-0.6,0.4-0.8,0.6
	C26,22.6,27.8,20.9,29.8,19.2z"/>
<path class="st3" d="M11,15c-0.4,0.5-0.9,1.1-1.3,1.6c0.5-0.5,0.9-1,1.4-1.5C11.1,15,11.1,15,11,15z M11,15
	c-0.4,0.5-0.9,1.1-1.3,1.6c0.5-0.5,0.9-1,1.4-1.5C11.1,15,11.1,15,11,15z M23.7,12.2l-0.5-1c-0.2,0.2-0.4,0.3-0.6,0.5
	c-0.7,0.7-1.4,1.3-2.1,1.9l0.3,0.5l2.3-1.3c0,0,0,0,0,0l0.4-0.2l0.4-0.3L23.7,12.2z M22.9,10.8l0.2,0.4c1.1-1,2.1-2,3.1-3
	C25.2,9,24.1,9.9,22.9,10.8z M27.5,8c-1.6-2.3-3.8-4.1-6.5-5.1C20.9,3,20.8,3,20.7,3.1c0,0-0.2,0.1-0.6,0.3c-0.6,0.4-1,0.5-1.1,0.6
	c-0.4,0.3-0.8,0.5-0.9,1c-0.2,0.4-0.1,0.7-0.4,1c-0.2,0.2-0.5,0.3-0.6,0.3c-1,0.3-2.2,2-2.4,2.2c-0.7,0.9-2.8,3.2-8.6,8.4
	C14,8.6,16.3,6,16.4,5.8l0,0c0-0.1,0.3-0.7,0-0.9c-0.1-0.1-0.4,0-0.5-0.2c0,0-0.1-0.1,0-0.3C16,4,16.7,3.9,16.6,3.8
	c0-0.1-0.1-0.1-0.3-0.2c-0.5-0.2-0.5-0.3-0.7-0.4c-0.4-0.1-0.8,0.1-1.1,0.3c-0.3,0.2-0.5,0.4-0.6,0.3c-0.1-0.1,0.1-0.3,0-0.5
	c-0.1-0.2-0.4-0.1-0.5-0.1c-0.6,0-0.9,0.5-1,0.4c-0.1-0.1,0-0.3-0.1-0.5C12,2.9,11.8,3,11.6,2.8c0,0,0,0,0,0C6,4.6,2,9.8,2,16
	c0,0.2,0,0.3,0,0.5c0,0.2,0,0.3,0,0.5c0,2.6,0.7,5.1,2,7.2c0.6,0.4,1.1,0.8,1.1,1.3c0,0.1,0,0.2,0,0.3c0.5,0.6,1,1.1,1.5,1.6
	c0.3,0.1,0.4,0.4,0.8,0.4c0.6,0,0.8-0.7,1.3-0.6C9,27.2,9,27.5,9.4,27.6c0.3,0.1,0.7,0,0.9,0c1.7-1.8,4.4-4.5,7.6-7.9
	c1.7-1.8,2.6-2.8,3.4-3.6l-0.4,0.3c-0.4,0.2-0.8,0.2-1.1-0.1c-1.2,1-2.4,2-3.6,2.8c1-1,2.2-2.1,3.3-3.2L18.9,15l-0.1,0c0,0,0,0,0,0
	c-1.3,1.1-2.6,2.1-3.9,3.1c0.7-0.7,1.4-1.4,2.1-2.1l-4.8,2.8c-0.5,0.3-1.1,0.1-1.4-0.4l-0.7-1.3l-4.7,2.7C5,20.1,4.4,20,4.1,19.5v0
	C3.9,19,4,18.4,4.5,18.1l5.5-3.2c0.3-0.2,0.7-0.2,1,0c1.5-1.8,3.1-3.6,5.1-5.4c1.8-1.8,3.6-3.3,5.3-4.6c-1.2,1.2-2.5,2.4-3.7,3.6
	c-2.3,2.2-4.4,4.4-6.5,6.6c0.1,0.1,0.2,0.2,0.2,0.3l0.7,1.3l6.6-3.8c0,0,0,0,0,0c0.5-0.3,1.1-0.1,1.4,0.4l0,0.1
	c0.3-0.2,0.5-0.5,0.8-0.7c0.7-0.6,1.3-1.1,2-1.7l-0.8-1.4l0,0C22,9.3,22,9.1,22,8.9C22,8.4,22.4,8,22.9,8h3.8c0.3,0.3,0.5,0.6,0.8,1
	h0.6C27.9,8.7,27.7,8.3,27.5,8z M19.5,8.8c-1.9,2.1-3.8,3.9-5.6,5.6c1-1.5,2.3-3.1,4-4.8c1.4-1.4,2.7-2.5,3.9-3.4
	C21.1,7,20.3,7.9,19.5,8.8z M11,15c-0.4,0.5-0.9,1.1-1.3,1.6c0.5-0.5,0.9-1,1.4-1.5C11.1,15,11.1,15,11,15z M11,15
	c-0.4,0.5-0.9,1.1-1.3,1.6c0.5-0.5,0.9-1,1.4-1.5C11.1,15,11.1,15,11,15z M11,15c-0.4,0.5-0.9,1.1-1.3,1.6c0.5-0.5,0.9-1,1.4-1.5
	C11.1,15,11.1,15,11,15z"/>
<path class="st3" d="M29.9,15.4c0,0,0-0.1,0-0.1C29.9,15.3,29.9,15.3,29.9,15.4C29.9,15.4,29.9,15.5,29.9,15.4c0,0.2,0,0.4,0,0.5
	C29.9,15.7,29.9,15.5,29.9,15.4z M29.7,14.2L29.7,14.2c0.1,0.3,0.1,0.6,0.1,0.9l0,0C29.8,14.8,29.8,14.5,29.7,14.2z M24.3,24.3
	c0.3-0.2,0.6-0.4,0.8-0.6c0.7-0.6,1.5-1.3,2.3-2c0.8-0.8,1.6-1.5,2.4-2.2c0-0.1,0-0.2,0.1-0.3C27.8,20.9,26,22.6,24.3,24.3z"/>
<path class="st3" d="M30,16.5c0,0.2,0,0.3,0,0.5v0c-1.5,1-3,2.2-4.6,3.5c-2.8,2.4-5,4.7-6.8,6.8c2.7-2.3,5.3-4.6,8-7
	c1.1-1,2.3-2,3.4-3c0,0.6-0.1,1.1-0.1,1.6c-1.3,1-2.7,2.2-4,3.3c-2.2,1.9-4.2,3.8-6,5.6c1.8-1.3,3.5-2.8,5.4-4.3
	c1.5-1.1,3-2.4,4.5-3.7c-1.4,6.3-7,11-13.7,11c-0.4,0-0.8,0-1.2,0c-0.1-0.2-0.5,0-0.7-0.3c-0.2-0.2-0.1-0.5-0.4-0.8
	c-0.1-0.1-0.2-0.1-0.3-0.2c-0.2-0.2-0.1-0.4-0.2-0.7c-0.1-0.4-0.4-0.6-0.5-0.7c-0.4-0.3-0.9,0.2-1.3,0c-0.1-0.1-0.3-0.3-0.3-0.8
	c2.7-2.6,6.8-6.5,11.7-11.2c0.7-0.7,1.4-1.4,2.1-2l0.4,0.6c-2.9,2.7-5.5,5.4-7.7,8c2.7-2.5,5.3-5,8-7.5l0.5,0.8
	c-1.4,1.3-2.8,2.6-4,3.8c1.4-1.1,2.8-2.2,4.3-3.4c0.3,0.4,0.8,0.5,1.2,0.2c0.1-0.1,0.3-0.2,0.3-0.3l1.4-2.4l0.3-0.6
	c0-0.1,0-0.2-0.1-0.3c0,0,0,0,0,0c0,0.1,0.1,0.2,0.1,0.3l0.2-0.3c0,0.1,0.1,0.3,0.1,0.4c0,0.1,0,0.3,0.1,0.4l0.1,1
	c0,0-0.1,0.1-0.1,0.1c0-0.3-0.1-0.6-0.1-0.9l0,0c0.1,0.3,0.1,0.6,0.1,0.9c-1.1,0.9-2.2,1.9-3.3,2.9c-3,2.6-5.8,5.2-8.3,7.8
	c3.1-2.7,6.4-5.4,9.6-8.4c0.7-0.6,1.4-1.3,2.1-1.9c0,0,0,0,0,0.1c0,0.1,0,0.3,0,0.4c0-0.2,0-0.3,0-0.5c0,0,0,0,0.1-0.1
	c0,0.2,0,0.5,0,0.7C30,16.2,30,16.3,30,16.5z"/>
<path class="st3" d="M11.2,15.1c-0.5,0.5-0.9,1-1.4,1.5c0.4-0.5,0.8-1,1.3-1.6C11.1,15,11.1,15,11.2,15.1z"/>
<path class="st3" d="M26.3,8.2c-1,1-2,2-3.1,3l-0.2-0.4C24.1,9.9,25.2,9,26.3,8.2z"/>
<path class="st3" d="M23.8,12.3l-0.4,0.3L23,12.8c0.2-0.2,0.5-0.4,0.7-0.6L23.8,12.3z"/>
<path class="st3" d="M29.9,15.4C29.9,15.4,29.9,15.4,29.9,15.4c0,0,0-0.1,0-0.1C29.9,15.3,29.9,15.3,29.9,15.4z"/>
<path class="st3" d="M29.8,19.2c0,0.1,0,0.2-0.1,0.3c-0.8,0.7-1.5,1.5-2.4,2.2c-0.8,0.7-1.5,1.4-2.3,2c-0.3,0.2-0.6,0.4-0.8,0.6
	C26,22.6,27.8,20.9,29.8,19.2z"/>
<path class="st3" d="M29.8,19.2c0,0.1,0,0.2-0.1,0.3c-0.8,0.7-1.5,1.5-2.4,2.2c-0.8,0.7-1.5,1.4-2.3,2c-0.3,0.2-0.6,0.4-0.8,0.6
	C26,22.6,27.8,20.9,29.8,19.2z"/>
<path class="st3" d="M29.8,19.2c0,0.1,0,0.2-0.1,0.3c-0.8,0.7-1.5,1.5-2.4,2.2c-0.8,0.7-1.5,1.4-2.3,2c-0.3,0.2-0.6,0.4-0.8,0.6
	C26,22.6,27.8,20.9,29.8,19.2z"/>
<path class="st3" d="M29.8,19.2c0,0.1,0,0.2-0.1,0.3c-0.8,0.7-1.5,1.5-2.4,2.2c-0.8,0.7-1.5,1.4-2.3,2c-0.3,0.2-0.6,0.4-0.8,0.6
	C26,22.6,27.8,20.9,29.8,19.2z"/>
<path class="st3" d="M29.8,19.2c0,0.1,0,0.2-0.1,0.3c-0.8,0.7-1.5,1.5-2.4,2.2c-0.8,0.7-1.5,1.4-2.3,2c-0.3,0.2-0.6,0.4-0.8,0.6
	C26,22.6,27.8,20.9,29.8,19.2z"/>
<path class="st3" d="M29.8,19.2c0,0.1,0,0.2-0.1,0.3c-0.8,0.7-1.5,1.5-2.4,2.2c-0.8,0.7-1.5,1.4-2.3,2c-0.3,0.2-0.6,0.4-0.8,0.6
	C26,22.6,27.8,20.9,29.8,19.2z"/>
<path class="st3" d="M29.8,19.2c0,0.1,0,0.2-0.1,0.3c-0.8,0.7-1.5,1.5-2.4,2.2c-0.8,0.7-1.5,1.4-2.3,2c-0.3,0.2-0.6,0.4-0.8,0.6
	C26,22.6,27.8,20.9,29.8,19.2z"/>
<path class="st3" d="M29.8,19.2c0,0.1,0,0.2-0.1,0.3c-0.8,0.7-1.5,1.5-2.4,2.2c-0.8,0.7-1.5,1.4-2.3,2c-0.3,0.2-0.6,0.4-0.8,0.6
	C26,22.6,27.8,20.9,29.8,19.2z"/>
<path class="st3" d="M29.8,19.2c0,0.1,0,0.2-0.1,0.3c-0.8,0.7-1.5,1.5-2.4,2.2c-0.8,0.7-1.5,1.4-2.3,2c-0.3,0.2-0.6,0.4-0.8,0.6
	C26,22.6,27.8,20.9,29.8,19.2z"/>
<path class="st3" d="M29.8,19.2c0,0.1,0,0.2-0.1,0.3c-0.8,0.7-1.5,1.5-2.4,2.2c-0.8,0.7-1.5,1.4-2.3,2c-0.3,0.2-0.6,0.4-0.8,0.6
	C26,22.6,27.8,20.9,29.8,19.2z"/>
</svg>
