<?xml version="1.0" encoding="utf-8"?>
<!-- Generator: Adobe Illustrator 23.0.0, SVG Export Plug-In . SVG Version: 6.00 Build 0)  -->
<svg version="1.1" id="Layer_1" xmlns="http://www.w3.org/2000/svg" xmlns:xlink="http://www.w3.org/1999/xlink" x="0px" y="0px"
	 viewBox="0 0 16 16" style="enable-background:new 0 0 16 16;" xml:space="preserve">
<style type="text/css">
	.st0{clip-path:url(#SVGID_2_);fill-rule:evenodd;clip-rule:evenodd;fill:#F75049;}
</style>
<g>
	<defs>
		<path id="SVGID_1_" d="M21.3,5.9c-0.1-0.1-0.3,0-0.6-0.2c-0.2-0.2-0.2-0.3-0.3-0.4c-0.4-0.2-1.3,0.5-1.3,0.5c0,0,0.4-0.3,0.7-0.7
			c0.2-0.2,0.6-0.7,0.5-1c-0.1-0.2-0.3-0.2-0.3-0.3c0-0.3,0.5-0.4,0.4-0.7c0-0.2-0.2-0.3-0.3-0.3c-0.3-0.1-0.8,0.2-0.8,0.2
			c0,0,0.3-0.2,0.4-0.5c0-0.1,0.2-0.3,0.1-0.5c-0.1-0.1-0.3-0.1-0.4-0.1c-0.1,0-0.2,0.1-0.2,0c0,0,0-0.1,0-0.2
			c0-0.2-0.3-0.3-0.6-0.3c-0.5,0-0.9,0.5-1,0.4c-0.1-0.1,0.5-0.5,0.4-0.9c0-0.1-0.2-0.3-0.4-0.3c-0.3,0-0.4,0.3-0.5,0.3
			c-0.1-0.1,0.1-0.7-0.1-0.9c-0.1-0.1-0.3,0.1-0.6,0C16.4,0,16.4,0,16.3-0.1C16-0.2,15.5,0.3,15,0.8c-0.2,0.2-0.6,0.5-1.1,0.8
			c0.3-0.3,0.5-0.6,0.7-0.7c0.4-0.4,0.6-0.6,0.6-0.9c0-0.1,0-0.4-0.2-0.4c-0.2-0.1-0.4,0.2-1.1,0.6c-0.2,0.1-0.3,0.2-0.4,0.3
			c0,0,0.3-0.4,0.2-0.7c0,0-0.1-0.2-0.2-0.3c-0.4-0.3-1.1-0.2-1.2-0.2c-0.9,0.2-1.1,0.8-2.1,1.3c0,0-0.1,0.1-0.3,0.2
			C9.4,1,9.2,1.1,9.1,1.2C8.9,1.4,8.7,1.5,8.6,1.8C8.4,2,8.5,2.2,8.3,2.3C8.2,2.5,8,2.5,8,2.5C7.4,2.7,6.7,3.7,6.6,3.9
			C6.2,4.4,4.9,5.8,1.4,8.9c4.7-5,6.2-6.6,6.2-6.7c0,0,0,0,0,0c0-0.1,0.2-0.4,0-0.6c-0.1-0.1-0.2,0-0.3-0.1c0,0,0-0.1,0-0.1
			c0-0.2,0.4-0.2,0.4-0.3c0,0-0.1-0.1-0.2-0.1C7.2,0.8,7.2,0.7,7.1,0.7C6.8,0.6,6.6,0.8,6.4,0.8C6.2,1,6.1,1.1,6,1.1
			c0,0,0-0.2,0-0.3C6,0.7,5.8,0.7,5.7,0.7C5.4,0.7,5.2,1,5.1,0.9C5,0.9,5.1,0.8,5,0.6C4.9,0.5,4.8,0.5,4.7,0.4
			C4.5,0.3,4.6,0.2,4.4-0.1C4.3-0.2,4.2-0.4,4-0.5c-0.2-0.1-0.3,0-0.5-0.1C3.2-0.6,3.2-0.8,2.9-0.8c-0.2,0-0.3,0-0.4,0.1
			C2.2-0.6,2.2-0.4,2.1-0.4c-0.2,0-0.2-0.2-0.5-0.2c-0.1,0-0.2,0-0.3,0c-0.1,0.1,0,0.4-0.1,0.5C1.1-0.1,1-0.1,0.9-0.1
			C0.8-0.2,0.8-0.3,0.8-0.3C0.6-0.5-0.4-0.3-0.7,0.3c0,0.1-0.1,0.2-0.2,0.3c-0.2,0.1-0.3,0-0.5,0c-0.3,0-0.5,0.2-1.1,1
			c0,0-0.1,0.1-0.6,0.6c-0.9,1-1,1.1-1.1,1.4c0,0.5,0,0.7,0,0.7c0,0.1,0.1,0.3,0,0.4c-0.1,0.1-0.1,0-0.2,0.1c-0.1,0.1,0.1,0.4,0,0.8
			c0,0,0,0,0,0.3c-0.1,0.5-0.1,0.6,0,0.7C-4.1,6.6-4,6.6-3.9,6.6c0.2,0,0.3-0.1,0.4-0.1C-3.2,6-2.8,5.6-2.4,5.1
			c-0.2,0.3-0.3,0.6-0.4,0.7C-3,6.1-3.2,6.3-3.4,6.6c0,0.1-0.1,0.2-0.2,0.4c-0.1,0.2-0.2,0.5-0.1,0.8c0,0.1,0.1,0.2,0.1,0.3
			c0,0.2,0,0.3,0,0.4c0,0.1,0.1,0.1,0.2,0.1c0.1,0.1,0,0.3,0,0.6c0,0.2,0.1,0.1,0.1,0.3c0.1,0.3-0.1,0.4,0,0.7c0,0.1,0,0.2,0.1,0.3
			c0.1,0.1,0.4-0.1,0.6,0c0.2,0.1,0.1,0.3,0.3,0.4c0.1,0,0.2-0.1,0.4,0c0,0,0.3,0,0.3,0.1c0,0.1-0.1,0.3-0.3,0.4
			c-0.4,0.2-0.8-0.1-0.9,0c0,0.1,0.1,0.2,0.2,0.3c1,0.9,1,1,1.3,1.2c0.3,0.2,0.3,0.1,0.7,0.3c0.5,0.3,1.1,0.6,1.1,1
			c0,0.2-0.2,0.3-0.1,0.6c0,0.2,0.1,0.5,0.3,0.6c0.2,0.1,0.3-0.1,0.6-0.1c0.3,0,0.3,0.2,0.6,0.3c0.4,0,0.5-0.4,0.8-0.4
			c0.2,0,0.2,0.2,0.4,0.3c0.2,0.1,0.4,0,0.5,0c1-1.1,2.6-2.7,4.6-4.8c1.6-1.7,2.1-2.2,3-3.1C14.1,5,16.8,3.1,17,3.2
			c0.1,0.1-1.2,1.3-5.5,5.4c-3,2.8-5.4,5.2-7.1,6.8c0,0.3,0.1,0.5,0.2,0.5c0.2,0.1,0.5-0.2,0.8,0c0.1,0.1,0.3,0.2,0.3,0.4
			c0,0.2,0,0.3,0.1,0.4c0.1,0.1,0.1,0,0.2,0.1c0.2,0.2,0.1,0.3,0.3,0.5c0.2,0.1,0.4,0,0.4,0.2c0,0.1,0,0.1,0,0.3
			c0,0.1,0.2,0.1,0.2,0.3c0,0.2-0.3,0.3-0.3,0.6c0,0.2,0.1,0.2,0.1,0.5c0,0.5-0.6,0.6-0.5,0.9c0,0.2,0.2,0.4,0.4,0.5
			c0.3,0,0.5-0.4,0.8-0.4c0.4,0,0.6,0.6,0.9,0.5c0.3,0,0.3-0.4,0.6-0.4c0.2,0,0.3,0.1,0.4,0c0.1-0.1,0.1-0.2,0.3-0.3
			c0.1,0,0.1,0,0.2,0c0.2,0,0.6-0.4,0.7-0.8c0.1-0.4,0-0.5,0.2-0.8c0.1-0.2,0.3-0.3,0.4-0.4c0.5-0.4,1.2-1,1.8-1.6
			c0.8-0.8,0.9-1.1,1.5-1.4c0.1,0,0.3-0.1,0.5-0.3c0.3-0.3,0.4-0.6,0.6-0.8c0.4-0.8,0.8-0.8,1.7-2c0-0.1,0.2-0.3,0.2-0.4
			c-0.1-0.1-1.2,1.1-1.4,1c-0.1-0.1-0.1-0.2-0.1-0.2c0.1-0.6,0.8-0.8,1.9-1.7c0.3-0.2,0.2-0.2,0.5-0.5c0.8-0.7,1.7-1.3,2-1.7
			C20,8,20.1,7.7,20.1,7.7c0-0.1,0-0.1,0.1-0.2c0.1-0.3,0.2-0.4,0.7-0.9C21.3,6.1,21.4,6,21.3,5.9z M4.4,5.2C4.1,5.6,3.7,5.8,3.4,6
			c0.2-0.3,0.4-0.6,0.8-0.9C4.4,5,4.5,4.9,4.7,4.8C4.6,4.9,4.5,5,4.4,5.2z M4.2,3.9c0.5-0.5,1-1,1.4-1.4C5.2,3,4.8,3.5,4.3,4
			C4,4.4,3.7,4.6,3.4,4.9C3.6,4.6,3.9,4.3,4.2,3.9z M-1.4,3.9C-1.3,3.7-1.2,3.5-1,3.3c0.1-0.1,0.2-0.2,0.2-0.2
			c0,0.1-0.1,0.2-0.2,0.3C-1.1,3.6-1.2,3.8-1.4,3.9z M-0.6,12.1c-0.1,0.1-0.2,0.2-0.3,0.2c0,0,0-0.2,0.1-0.3
			c0.1-0.1,0.3-0.2,0.3-0.2C-0.4,11.8-0.5,11.9-0.6,12.1z M-0.9,7.4c0.3-0.4,0.7-0.8,1-1.2c0,0.1,0,0.2,0,0.3
			C-0.2,6.8-0.5,7.1-0.9,7.4z M0.9,13.4c0,0-0.2-0.2-0.5-0.6c-0.1-0.1-0.2-0.2-0.2-0.3c0-0.1,0.1-0.1,0.2-0.2
			c0.1-0.1,0.3-0.2,0.4-0.5c0,0.2-0.1,0.3-0.1,0.4c0,0.1-0.1,0.2-0.1,0.3c0,0.1,0.1,0,0.1,0.1c0.1,0.1,0,0.2,0,0.3
			C0.7,13.2,0.9,13.4,0.9,13.4z M0.8,2.1C0.8,1.9,1,1.7,1.2,1.5c0.1-0.1,0.2-0.2,0.2-0.2c0,0.1-0.1,0.2-0.2,0.3
			C1.1,1.8,0.9,2,0.8,2.1z M3.6,8.7c1-1.3,2.3-2.8,3.8-4.2c1.1-1.1,2.2-2,3.2-2.8C9.8,2.4,9.1,3.1,8.3,3.9C6.7,5.5,5.1,7.1,3.6,8.7z
			 M8.5,4.5c0.8-0.8,1.6-1.5,2.4-2C10.4,3,10,3.5,9.5,4C8.3,5.3,7.2,6.4,6.1,7.4C6.7,6.5,7.5,5.5,8.5,4.5z M10.3,6.3
			c1.1-0.9,2.2-1.8,3.2-2.6c-0.7,0.7-1.4,1.4-2.2,2.1C9.7,7.3,8.2,8.5,6.7,9.7C7.8,8.6,9,7.4,10.3,6.3z M12,6.4
			c-1.6,1.4-3.1,2.7-4.6,3.8C8.5,9.2,9.7,8,11,6.9c1.1-0.9,2.2-1.8,3.2-2.6C13.5,5,12.8,5.7,12,6.4z M17.8,4.9
			c-0.7,0.7-1.4,1.4-2.2,2.1c-1.6,1.4-3.1,2.7-4.6,3.8c1.1-1.1,2.3-2.2,3.6-3.4C15.7,6.5,16.7,5.7,17.8,4.9z M8.3,12.6
			c1.4-1.7,3.1-3.5,5.1-5.3c0.9-0.8,1.8-1.5,2.6-2.2c-1,1-1.9,1.9-2.9,2.9C11.5,9.6,9.9,11.1,8.3,12.6z M8.7,14.3
			c1.6-1.5,3.2-3.1,5-4.7c1.4-1.3,2.8-2.4,4.2-3.5c-1.1,1.1-2.3,2.1-3.4,3.2C12.5,11,10.6,12.7,8.7,14.3z M8.9,15.3
			c1.1-1.3,2.5-2.7,4.1-4.1c1.4-1.2,2.7-2.2,4-3c-1.1,1-2.2,1.9-3.3,2.9C12.1,12.5,10.5,13.9,8.9,15.3z M17,9.6
			c-1.2,1.1-2.4,2.1-3.6,3c0.2-0.2,0.4-0.4,0.6-0.6c0.8-0.7,1.5-1.4,2.2-2.1c-0.1,0.1-0.2,0.1-0.3,0.2c-0.1,0-0.1,0.1-0.2,0.2
			c-1.3,1.1-2.4,2.2-3.5,3.3c-0.9,0.8-1.8,1.5-2.7,2.1c1.1-1.1,2.3-2.2,3.6-3.4c1-0.9,2-1.7,2.9-2.4c1-0.9,2.1-1.7,3-2.5
			C18.5,8.1,17.8,8.8,17,9.6z"/>
	</defs>
	<clipPath id="SVGID_2_">
		<use xlink:href="#SVGID_1_"  style="overflow:visible;"/>
	</clipPath>
	<path class="st0" d="M6.1,16L0,2.4L5.1,0l4,9.3l4.8-2.3l2.2,4.4"/>
</g>
</svg>
