<?xml version="1.0" encoding="utf-8"?>
<!-- Generator: Adobe Illustrator 23.0.0, SVG Export Plug-In . SVG Version: 6.00 Build 0)  -->
<svg version="1.1" id="Layer_1" xmlns="http://www.w3.org/2000/svg" xmlns:xlink="http://www.w3.org/1999/xlink" x="0px" y="0px"
	 viewBox="0 0 16 16" style="enable-background:new 0 0 16 16;" xml:space="preserve">
<style type="text/css">
	.st0{clip-path:url(#SVGID_2_);fill:#F75049;}
</style>
<g>
	<defs>
		<path id="SVGID_1_" d="M21.4,5.9c-0.1-0.1-0.3,0-0.6-0.2c-0.2-0.2-0.2-0.3-0.3-0.4c-0.4-0.2-1.3,0.5-1.3,0.5c0,0,0.4-0.3,0.7-0.7
			c0.2-0.2,0.6-0.7,0.5-1c-0.1-0.2-0.3-0.2-0.3-0.3c0-0.3,0.5-0.4,0.4-0.7c0-0.2-0.2-0.3-0.3-0.3c-0.3-0.1-0.8,0.2-0.8,0.2
			c0,0,0.3-0.2,0.4-0.5c0-0.1,0.2-0.3,0.1-0.5c-0.1-0.1-0.3-0.1-0.4-0.1c-0.1,0-0.2,0.1-0.2,0c0,0,0-0.1,0-0.2
			c0-0.2-0.3-0.3-0.6-0.3c-0.5,0-0.9,0.5-1,0.4c-0.1-0.1,0.5-0.5,0.4-0.9c0-0.1-0.2-0.3-0.4-0.3c-0.3,0-0.4,0.3-0.5,0.3
			c-0.1-0.1,0.1-0.7-0.1-0.9C17,0,16.9,0.1,16.6,0c-0.2-0.1-0.2-0.1-0.3-0.2C16-0.3,15.6,0.3,15,0.8c-0.2,0.2-0.6,0.5-1.1,0.8
			c0.3-0.3,0.5-0.6,0.7-0.7c0.4-0.4,0.6-0.6,0.6-0.9c0-0.1,0-0.4-0.2-0.4c-0.2-0.1-0.4,0.2-1.1,0.6c-0.2,0.1-0.3,0.2-0.4,0.3
			c0,0,0.3-0.4,0.2-0.7c0,0-0.1-0.2-0.2-0.3c-0.4-0.3-1.1-0.2-1.2-0.2c-0.9,0.2-1.1,0.8-2.1,1.3c0,0-0.1,0.1-0.3,0.2
			C9.5,0.9,9.3,1.1,9.2,1.1C8.9,1.3,8.7,1.4,8.6,1.7C8.5,1.9,8.5,2.1,8.4,2.3C8.3,2.4,8.1,2.5,8,2.5C7.4,2.6,6.7,3.7,6.6,3.8
			C6.2,4.3,4.9,5.7,1.4,8.9c4.7-5,6.2-6.6,6.2-6.7c0,0,0,0,0,0c0-0.1,0.2-0.4,0-0.6c-0.1-0.1-0.2,0-0.3-0.1c0,0,0-0.1,0-0.1
			C7.4,1.1,7.8,1,7.8,1c0,0-0.1-0.1-0.2-0.1C7.3,0.7,7.3,0.7,7.1,0.6C6.9,0.6,6.7,0.7,6.5,0.8C6.3,0.9,6.2,1,6.1,1c0,0,0-0.2,0-0.3
			C6,0.6,5.8,0.6,5.8,0.6c-0.3,0-0.5,0.3-0.6,0.2c-0.1,0,0-0.2-0.1-0.3C5,0.4,4.9,0.5,4.7,0.4C4.5,0.2,4.6,0.1,4.4-0.2
			C4.3-0.3,4.2-0.4,4-0.5c-0.2-0.1-0.3,0-0.5-0.1C3.2-0.6,3.2-0.8,3-0.8c-0.2,0-0.3,0-0.4,0.1C2.3-0.6,2.3-0.5,2.1-0.5
			c-0.2,0-0.2-0.2-0.5-0.2c-0.1,0-0.2,0-0.3,0c-0.1,0.1,0,0.4-0.1,0.5C1.1-0.1,1-0.1,0.9-0.2C0.9-0.2,0.9-0.3,0.8-0.4
			C0.6-0.6-0.3-0.3-0.6,0.2c0,0.1-0.1,0.2-0.2,0.3c-0.2,0.1-0.3,0-0.5,0c-0.3,0-0.5,0.2-1.1,1c0,0-0.1,0.1-0.6,0.6
			c-0.9,1-1,1.1-1.1,1.4c0,0.5,0,0.7,0,0.7c0,0.1,0.1,0.3,0,0.4C-4,4.7-4,4.7-4.1,4.7C-4.2,4.9-4,5.1-4,5.5c0,0,0,0,0,0.3
			c-0.1,0.5-0.1,0.6,0,0.7C-4.1,6.5-4,6.5-3.9,6.5c0.2,0,0.3-0.1,0.4-0.1C-3.1,6-2.8,5.5-2.4,5.1c-0.2,0.3-0.3,0.6-0.4,0.7
			C-3,6-3.1,6.2-3.3,6.5c0,0.1-0.1,0.2-0.2,0.4c-0.1,0.2-0.2,0.5-0.1,0.8c0,0.1,0.1,0.2,0.1,0.3c0,0.2,0,0.3,0,0.4
			c0,0.1,0.1,0.1,0.2,0.1c0.1,0.1,0,0.3,0,0.6c0,0.2,0.1,0.1,0.1,0.3c0.1,0.3-0.1,0.4,0,0.7c0,0.1,0,0.2,0.1,0.3
			c0.1,0.1,0.4-0.1,0.6,0c0.2,0.1,0.1,0.3,0.3,0.4c0.1,0,0.2-0.1,0.4,0c0,0,0.3,0,0.3,0.1c0,0.1-0.1,0.3-0.3,0.4
			c-0.4,0.2-0.8-0.1-0.9,0c0,0.1,0.1,0.2,0.2,0.3c1,0.9,1,1,1.3,1.2c0.3,0.2,0.3,0.1,0.7,0.3c0.5,0.3,1.1,0.6,1.1,1
			c0,0.2-0.2,0.3-0.1,0.6c0,0.2,0.1,0.5,0.3,0.6c0.2,0.1,0.3-0.1,0.6-0.1c0.3,0,0.3,0.2,0.6,0.3c0.4,0,0.5-0.4,0.8-0.4
			c0.2,0,0.2,0.2,0.4,0.3c0.2,0.1,0.4,0,0.5,0c1-1.1,2.6-2.7,4.6-4.8c1.6-1.7,2.1-2.2,3-3.1C14.1,5,16.9,3,17,3.1
			c0.1,0.1-1.2,1.3-5.5,5.4c-3,2.8-5.4,5.2-7.1,6.8c0,0.3,0.1,0.5,0.2,0.5c0.2,0.1,0.5-0.2,0.8,0c0.1,0.1,0.3,0.2,0.3,0.4
			c0,0.2,0,0.3,0.1,0.4c0.1,0.1,0.1,0,0.2,0.1c0.2,0.2,0.1,0.3,0.3,0.5c0.2,0.1,0.4,0,0.4,0.2c0,0.1,0,0.1,0,0.3
			c0,0.1,0.2,0.1,0.2,0.3c0,0.2-0.3,0.3-0.3,0.6c0,0.2,0.1,0.2,0.1,0.5c0,0.5-0.6,0.6-0.5,0.9c0,0.2,0.2,0.4,0.4,0.5
			c0.3,0,0.5-0.4,0.8-0.4c0.4,0,0.6,0.6,0.9,0.5c0.3,0,0.3-0.4,0.6-0.4c0.2,0,0.3,0.1,0.4,0c0.1-0.1,0.1-0.2,0.3-0.3
			c0.1,0,0.1,0,0.2,0c0.2,0,0.6-0.4,0.7-0.8c0.1-0.4,0-0.5,0.2-0.8c0.1-0.2,0.3-0.3,0.4-0.4c0.5-0.4,1.2-1,1.8-1.6
			c0.8-0.8,0.9-1.1,1.5-1.4c0.1,0,0.3-0.1,0.5-0.3c0.3-0.3,0.4-0.6,0.6-0.8c0.4-0.8,0.8-0.8,1.7-2c0-0.1,0.2-0.3,0.2-0.4
			c-0.1-0.1-1.2,1.1-1.4,1c-0.1-0.1-0.1-0.2-0.1-0.2c0.1-0.6,0.8-0.8,1.9-1.7c0.3-0.2,0.2-0.2,0.5-0.5c0.8-0.7,1.7-1.3,2-1.7
			c0.1-0.3,0.2-0.6,0.2-0.6c0-0.1,0-0.1,0.1-0.2c0.1-0.3,0.2-0.4,0.7-0.9C21.4,6.1,21.4,6,21.4,5.9z M4.4,5.1C4.1,5.5,3.8,5.8,3.5,6
			C3.7,5.7,3.9,5.4,4.3,5c0.1-0.1,0.3-0.2,0.4-0.3C4.6,4.8,4.5,5,4.4,5.1z M4.2,3.9c0.5-0.5,1-1,1.4-1.4C5.3,3,4.8,3.5,4.3,4
			C4,4.3,3.7,4.6,3.4,4.8C3.6,4.5,3.9,4.2,4.2,3.9z M-1.4,3.8c0.1-0.2,0.2-0.4,0.4-0.6C-0.8,3.1-0.8,3.1-0.7,3
			c0,0.1-0.1,0.2-0.2,0.3C-1,3.5-1.2,3.7-1.4,3.8z M-0.5,12c-0.1,0.1-0.2,0.2-0.3,0.2c0,0,0-0.2,0.1-0.3c0.1-0.1,0.3-0.2,0.3-0.2
			C-0.4,11.7-0.4,11.9-0.5,12z M-0.8,7.3c0.3-0.4,0.7-0.8,1-1.2c0,0.1,0,0.2,0,0.3C-0.2,6.7-0.5,7-0.8,7.3z M0.9,13.4
			c0,0-0.2-0.2-0.5-0.6c-0.1-0.1-0.2-0.2-0.2-0.3c0-0.1,0.1-0.1,0.2-0.2c0.1-0.1,0.3-0.2,0.4-0.5c0,0.2-0.1,0.3-0.1,0.4
			c0,0.1-0.1,0.2-0.1,0.3c0,0.1,0.1,0,0.1,0.1c0.1,0.1,0,0.2,0,0.3C0.8,13.2,0.9,13.3,0.9,13.4z M0.8,2.1C0.9,1.9,1,1.6,1.2,1.4
			c0.1-0.1,0.2-0.2,0.2-0.2c0,0.1-0.1,0.2-0.2,0.3C1.1,1.7,1,1.9,0.8,2.1z M3.6,8.7c1-1.3,2.3-2.8,3.8-4.2c1.1-1.1,2.2-2,3.2-2.8
			C9.9,2.3,9.1,3.1,8.4,3.8C6.7,5.4,5.1,7.1,3.6,8.7z M8.5,4.4c0.8-0.8,1.6-1.5,2.4-2C10.5,2.9,10,3.4,9.5,4
			C8.4,5.2,7.2,6.3,6.1,7.3C6.7,6.5,7.5,5.5,8.5,4.4z M10.4,6.2c1.1-0.9,2.2-1.8,3.2-2.6c-0.7,0.7-1.4,1.4-2.2,2.1
			C9.8,7.2,8.2,8.5,6.7,9.6C7.8,8.5,9,7.4,10.4,6.2z M12.1,6.4c-1.6,1.4-3.1,2.7-4.6,3.8C8.6,9.1,9.8,8,11.1,6.8
			c1.1-0.9,2.2-1.8,3.2-2.6C13.6,4.9,12.9,5.6,12.1,6.4z M17.8,4.8c-0.7,0.7-1.4,1.4-2.2,2.1C14,8.4,12.5,9.7,11,10.8
			c1.1-1.1,2.3-2.2,3.6-3.4C15.7,6.5,16.8,5.6,17.8,4.8z M8.3,12.6c1.4-1.7,3.1-3.5,5.1-5.3c0.9-0.8,1.8-1.5,2.6-2.2
			c-1,1-1.9,1.9-2.9,2.9C11.6,9.5,10,11,8.3,12.6z M8.7,14.2c1.6-1.5,3.2-3.1,5-4.7c1.4-1.3,2.8-2.4,4.2-3.5
			c-1.1,1.1-2.3,2.1-3.4,3.2C12.5,10.9,10.6,12.6,8.7,14.2z M9,15.2c1.1-1.3,2.5-2.7,4.1-4.1c1.4-1.2,2.7-2.2,4-3
			c-1.1,1-2.2,1.9-3.3,2.9C12.2,12.4,10.6,13.8,9,15.2z M17,9.5c-1.2,1.1-2.4,2.1-3.6,3c0.2-0.2,0.4-0.4,0.6-0.6
			c0.8-0.7,1.5-1.4,2.2-2.1C16.2,9.9,16.1,9.9,16,10c-0.1,0-0.1,0.1-0.2,0.2c-1.3,1.1-2.4,2.2-3.5,3.3c-0.9,0.8-1.8,1.5-2.7,2.1
			c1.1-1.1,2.3-2.2,3.6-3.4c1-0.9,2-1.7,2.9-2.4c1-0.9,2.1-1.7,3-2.5C18.6,8.1,17.8,8.8,17,9.5z"/>
	</defs>
	<clipPath id="SVGID_2_">
		<use xlink:href="#SVGID_1_"  style="overflow:visible;"/>
	</clipPath>
	<path class="st0" d="M14.7,15.6c-0.1,0-0.3-0.1-0.4-0.2c-0.2-0.2-0.6-1-0.9-1.7c-0.2-0.4-0.5-1.4-0.5-1.5c0,0,0.2-0.2,0.5-0.3
		l0.5-0.3l0.1,0.1c0.3,0.3,1.2,1.6,1.7,2.5c0.2,0.4,0.2,0.4,0.2,0.6c0,0.2-0.1,0.3-0.2,0.5C15.3,15.5,15,15.7,14.7,15.6L14.7,15.6z"
		/>
	<path class="st0" d="M0.4,15.4c0,0,0.2-0.7,0.3-1.5C0.9,13.1,1,12.5,1,12.5c0,0,1.6,1.1,1.6,1.1c0,0-0.4,0.4-1,0.8
		C0.3,15.4,0.3,15.4,0.4,15.4z"/>
	<path class="st0" d="M2,12.6c-0.4-0.3-0.8-0.6-0.8-0.6c0,0,3.7-6.3,3.7-6.3c0,0,1.6,1,1.7,1.1c0,0-3.8,6.3-3.8,6.3
		C2.8,13.2,2.4,12.9,2,12.6z"/>
	<path class="st0" d="M12.1,11c-0.3-0.5-0.5-0.9-0.5-0.9c0.1,0,1.2-0.7,1.2-0.7c0,0,1,1.9,0.9,1.9c-0.1,0.1-1,0.6-1,0.6
		C12.6,11.9,12.4,11.5,12.1,11L12.1,11z"/>
	<path class="st0" d="M0,10.9c0-0.1,0-0.8,0-1.5l0-1.4l1.5,0c0.8,0,1.5,0,1.6,0c0,0-0.4,0.7-0.9,1.5L1.3,11H0.7H0L0,10.9z"/>
	<path class="st0" d="M4.6,11c0,0,0.4-0.7,0.9-1.5l0.9-1.5h1.7h1.7l0.9,1.5c0.5,0.8,0.9,1.5,0.9,1.5l0,0.1H8.1C6.2,11,4.6,11,4.6,11
		L4.6,11z"/>
	<path class="st0" d="M13.7,10.3c-0.2-0.4-0.5-1.1-0.7-1.5l-0.4-0.9h1.1c0.6,0,1.4,0,1.8,0l0.6,0v1.5V11h-1h-1L13.7,10.3L13.7,10.3z
		"/>
	<path class="st0" d="M11.1,9.3c-0.7-1.1-1.4-2.3-2.2-4C8.3,4,7.6,2.7,7.4,2C7,1,6.9,0.4,7.1,0.4c0.4-0.1,1.1,0.7,2.1,2.4
		c0.8,1.3,2,3.6,3,5.5c0.2,0.3,0.4,0.7,0.4,0.8l0.1,0.1L12,9.5c-0.3,0.2-0.6,0.3-0.6,0.3C11.4,9.8,11.3,9.6,11.1,9.3L11.1,9.3z"/>
	<path class="st0" d="M5.9,6L5.1,5.5l0.1-0.1c0-0.1,0.3-0.4,0.5-0.8c0.2-0.4,0.4-0.7,0.4-0.7c0,0,0.4,0.2,0.8,0.5L7.7,5L7.6,5.2
		C7.5,5.3,7.3,5.7,7.2,6C7,6.3,6.8,6.5,6.8,6.5C6.8,6.6,6.6,6.5,5.9,6L5.9,6z"/>
	<path class="st0" d="M7,4.3C6.6,4,6.2,3.7,6.2,3.7c0-0.1,0.4-0.4,0.5-0.5c0.3-0.1,0.8,0.1,1,0.4C8,3.8,8,4,8,4.2
		c0,0.2-0.2,0.6-0.2,0.6C7.8,4.8,7.4,4.5,7,4.3L7,4.3z"/>
</g>
</svg>
