<?xml version="1.0" encoding="utf-8"?>
<!-- Generator: Adobe Illustrator 23.0.0, SVG Export Plug-In . SVG Version: 6.00 Build 0)  -->
<svg version="1.1" id="Layer_1" xmlns="http://www.w3.org/2000/svg" xmlns:xlink="http://www.w3.org/1999/xlink" x="0px" y="0px"
	 viewBox="0 0 16 16" style="enable-background:new 0 0 16 16;" xml:space="preserve">
<style type="text/css">
	.st0{clip-path:url(#SVGID_2_);}
	.st1{fill:none;stroke:#F75049;stroke-miterlimit:10;}
</style>
<g>
	<defs>
		<path id="SVGID_1_" d="M18.5,6.1c-0.1-0.1-0.3,0-0.5-0.2c-0.2-0.2-0.1-0.3-0.3-0.4c-0.3-0.2-1.2,0.5-1.2,0.4c0,0,0.3-0.3,0.6-0.6
			c0.2-0.2,0.6-0.6,0.5-0.9c-0.1-0.2-0.3-0.2-0.3-0.3c0-0.2,0.4-0.4,0.4-0.7c0-0.1-0.1-0.3-0.3-0.3c-0.3-0.1-0.7,0.2-0.7,0.2
			c0,0,0.2-0.2,0.4-0.4c0-0.1,0.2-0.3,0.1-0.4c-0.1-0.1-0.2-0.1-0.3-0.1c-0.1,0-0.2,0.1-0.2,0c0,0,0-0.1,0-0.1
			c0-0.2-0.3-0.2-0.5-0.3c-0.5,0-0.9,0.4-0.9,0.4c-0.1-0.1,0.4-0.5,0.3-0.8c0-0.1-0.2-0.2-0.3-0.2c-0.2,0-0.4,0.3-0.4,0.2
			c-0.1-0.1,0.1-0.6-0.1-0.8c-0.1-0.1-0.3,0.1-0.5,0C14,0.7,14,0.7,13.9,0.6c-0.3-0.1-0.7,0.4-1.2,0.8c-0.2,0.2-0.6,0.5-1,0.7
			c0.2-0.3,0.4-0.5,0.6-0.7c0.4-0.4,0.6-0.6,0.6-0.8c0-0.1,0-0.3-0.2-0.4c-0.2-0.1-0.3,0.2-1,0.6C11.6,1,11.5,1,11.4,1.1
			c0,0,0.3-0.3,0.2-0.6c0,0-0.1-0.1-0.2-0.2c-0.4-0.3-1-0.2-1.1-0.1c-0.8,0.2-1,0.7-1.9,1.2c0,0-0.1,0.1-0.3,0.2
			C7.7,1.6,7.5,1.7,7.4,1.8C7.2,1.9,7,2.1,6.9,2.3c-0.1,0.2,0,0.4-0.2,0.5C6.6,3,6.5,3,6.4,3C5.9,3.1,5.2,4.1,5.1,4.2
			C4.8,4.7,3.6,5.9,0.4,8.8C4.7,4.3,6,2.8,6.1,2.7c0,0,0,0,0,0c0-0.1,0.1-0.4,0-0.5C6,2.1,5.9,2.2,5.8,2.1c0,0,0-0.1,0-0.1
			c0-0.2,0.4-0.2,0.4-0.3c0,0-0.1,0-0.2-0.1C5.7,1.4,5.7,1.4,5.6,1.3C5.4,1.3,5.2,1.4,5,1.5C4.8,1.6,4.7,1.7,4.7,1.7
			c0,0,0-0.2,0-0.2C4.6,1.3,4.4,1.3,4.4,1.3c-0.3,0-0.5,0.3-0.6,0.2c-0.1,0,0-0.1-0.1-0.3C3.7,1.2,3.5,1.2,3.4,1.1
			C3.2,1,3.3,0.8,3.1,0.6C3.1,0.5,3,0.4,2.8,0.3c-0.2-0.1-0.3,0-0.5,0C2.1,0.2,2.1,0,1.9,0C1.7,0,1.6,0,1.5,0.1
			C1.2,0.2,1.2,0.4,1.1,0.4c-0.2,0-0.2-0.2-0.5-0.2c-0.1,0-0.2,0-0.3,0c-0.1,0.1,0,0.3-0.1,0.4c-0.1,0.1-0.2,0-0.2,0
			c-0.1-0.1-0.1-0.1-0.1-0.2c-0.2-0.2-1,0-1.3,0.6c0,0.1-0.1,0.2-0.2,0.3c-0.1,0.1-0.3,0-0.4,0c-0.3,0-0.4,0.2-1,0.9
			c0,0-0.1,0.1-0.5,0.6c-0.8,0.9-0.9,1-1,1.3c0,0.5,0,0.6,0,0.6c0,0.1,0.1,0.2,0,0.3C-4.4,5-4.5,5-4.5,5c-0.1,0.1,0.1,0.3,0,0.7
			c0,0,0,0,0,0.2c-0.1,0.5-0.1,0.6,0,0.6c0.1,0.1,0.1,0.1,0.2,0.1c0.2,0,0.3-0.1,0.3-0.1c0.3-0.4,0.7-0.8,1-1.2
			C-3.1,5.6-3.3,5.8-3.4,6c-0.2,0.2-0.3,0.4-0.4,0.6C-3.9,6.7-3.9,6.8-4,7C-4,7.2-4.1,7.4-4,7.7c0,0.1,0.1,0.1,0.1,0.3
			c0,0.2,0,0.3,0,0.4c0,0.1,0.1,0,0.1,0.1c0.1,0.1,0,0.3,0,0.5c0,0.1,0.1,0.1,0.1,0.3c0.1,0.2-0.1,0.3,0,0.6c0,0.1,0,0.2,0.1,0.2
			c0.1,0.1,0.3-0.1,0.5,0c0.2,0.1,0.1,0.3,0.3,0.3c0.1,0,0.2,0,0.4,0c0,0,0.3,0,0.3,0.1c0,0.1-0.1,0.2-0.2,0.3
			c-0.3,0.2-0.7-0.1-0.8,0c0,0.1,0.1,0.2,0.2,0.3C-2,12-2,12.1-1.7,12.2c0.3,0.2,0.2,0.1,0.6,0.3c0.5,0.3,1,0.5,1,0.9
			c0,0.2-0.1,0.2-0.1,0.5c0,0.2,0.1,0.5,0.3,0.6c0.2,0.1,0.3-0.1,0.5-0.1c0.3,0,0.3,0.2,0.5,0.2c0.3,0,0.5-0.4,0.7-0.3
			c0.2,0,0.2,0.2,0.4,0.2c0.2,0.1,0.4,0,0.5,0c0.9-1,2.4-2.5,4.2-4.3c1.5-1.6,1.9-2,2.7-2.8c2.4-2.3,4.9-4,5-3.9
			c0.1,0.1-1.1,1.1-5,4.8c-2.7,2.6-4.9,4.7-6.4,6.1c0,0.3,0.1,0.4,0.2,0.5c0.2,0.1,0.4-0.2,0.7,0c0.1,0.1,0.2,0.2,0.3,0.4
			c0,0.1,0,0.3,0.1,0.4c0.1,0.1,0.1,0,0.2,0.1c0.2,0.2,0.1,0.3,0.2,0.4c0.1,0.1,0.3,0,0.4,0.2c0,0.1,0,0.1,0,0.2
			c0,0.1,0.1,0.1,0.2,0.2c0,0.2-0.2,0.3-0.3,0.5c0,0.2,0.1,0.2,0.1,0.4c0,0.4-0.5,0.5-0.5,0.8c0,0.2,0.2,0.4,0.4,0.4
			c0.3,0,0.4-0.4,0.8-0.4c0.4,0,0.5,0.5,0.8,0.5c0.2,0,0.3-0.3,0.5-0.3c0.2,0,0.3,0.1,0.4,0c0.1-0.1,0.1-0.2,0.2-0.2
			c0.1,0,0.1,0,0.2,0c0.2,0,0.5-0.4,0.6-0.7c0.1-0.3,0-0.4,0.2-0.7C8.8,17.1,8.9,17,9,16.9c0.5-0.4,1.1-0.9,1.6-1.4
			c0.7-0.7,0.8-1,1.3-1.2c0.1,0,0.2-0.1,0.4-0.3c0.3-0.3,0.4-0.5,0.5-0.7c0.4-0.7,0.8-0.7,1.5-1.8c0-0.1,0.2-0.3,0.2-0.3
			c-0.1-0.1-1.1,1-1.3,0.9c-0.1,0-0.1-0.2,0-0.2c0.1-0.5,0.7-0.7,1.7-1.5c0.2-0.2,0.2-0.2,0.4-0.4c0.7-0.7,1.6-1.2,1.8-1.6
			c0.1-0.2,0.2-0.5,0.2-0.5c0-0.1,0-0.1,0-0.2c0.1-0.2,0.2-0.3,0.6-0.8C18.4,6.3,18.5,6.1,18.5,6.1z M3.2,5.4C2.9,5.7,2.6,6,2.3,6.2
			C2.5,5.9,2.7,5.6,3,5.3C3.2,5.2,3.3,5.1,3.4,5C3.3,5.1,3.3,5.3,3.2,5.4z M3,4.3C3.4,3.8,3.8,3.4,4.2,3C3.9,3.4,3.5,3.9,3.1,4.3
			C2.8,4.6,2.5,4.9,2.2,5.1C2.5,4.9,2.7,4.6,3,4.3z M-2.1,4.2C-2,4.1-1.9,3.9-1.7,3.7c0.1-0.1,0.1-0.1,0.2-0.2
			c0,0.1-0.1,0.2-0.1,0.2C-1.8,3.9-1.9,4.1-2.1,4.2z M-1.3,11.6c-0.1,0.1-0.2,0.2-0.2,0.2c0,0,0-0.2,0.1-0.3
			c0.1-0.1,0.2-0.2,0.3-0.2C-1.2,11.4-1.2,11.5-1.3,11.6z M-1.6,7.4C-1.3,7-1,6.7-0.7,6.3c0,0.1,0,0.2,0,0.3C-1,6.9-1.3,7.1-1.6,7.4
			z M0,12.8c0,0-0.1-0.2-0.5-0.5c-0.1-0.1-0.2-0.2-0.1-0.3c0-0.1,0.1-0.1,0.2-0.2c0.1-0.1,0.3-0.2,0.4-0.4c0,0.2-0.1,0.3-0.1,0.4
			c0,0.1-0.1,0.2-0.1,0.2c0,0,0.1,0,0.1,0.1c0,0.1,0,0.1,0,0.2C-0.1,12.6,0,12.8,0,12.8z M-0.1,2.6C0,2.5,0.1,2.3,0.3,2.1
			C0.4,2,0.4,1.9,0.5,1.9c0,0.1-0.1,0.2-0.1,0.2C0.2,2.3,0,2.5-0.1,2.6z M2.4,8.6c0.9-1.2,2.1-2.5,3.5-3.8c1-1,1.9-1.8,2.9-2.5
			c-0.7,0.6-1.3,1.3-2,1.9C5.2,5.7,3.8,7.1,2.4,8.6z M6.9,4.8C7.6,4,8.3,3.4,9,2.9C8.6,3.4,8.2,3.9,7.8,4.3c-1,1.1-2.1,2.1-3.1,3.1
			C5.2,6.6,5.9,5.7,6.9,4.8z M8.5,6.4c1-0.9,2-1.6,2.9-2.4c-0.6,0.6-1.3,1.3-2,1.9C8,7.3,6.6,8.4,5.2,9.4C6.2,8.4,7.3,7.4,8.5,6.4z
			 M10,6.5C8.6,7.8,7.2,9,5.9,10c1-1,2.1-2,3.3-3c1-0.9,2-1.6,2.9-2.4C11.4,5.2,10.8,5.8,10,6.5z M15.2,5.1c-0.6,0.6-1.3,1.3-2,1.9
			c-1.4,1.3-2.8,2.5-4.2,3.5c1-1,2.1-2,3.3-3C13.3,6.6,14.3,5.8,15.2,5.1z M6.7,12.1C8,10.6,9.5,9,11.3,7.3c0.8-0.7,1.6-1.4,2.4-2
			c-0.9,0.9-1.7,1.8-2.6,2.6C9.6,9.3,8.1,10.7,6.7,12.1z M7,13.6c1.4-1.4,2.9-2.8,4.5-4.2c1.3-1.1,2.5-2.2,3.8-3.2
			c-1,1-2,1.9-3.1,2.9C10.5,10.6,8.7,12.1,7,13.6z M7.2,14.5c1-1.2,2.2-2.4,3.7-3.7c1.3-1.1,2.5-2,3.6-2.7c-1,0.9-2,1.7-2.9,2.6
			C10.2,12,8.7,13.2,7.2,14.5z M14.5,9.3c-1.1,1-2.2,1.9-3.2,2.7c0.2-0.2,0.4-0.3,0.6-0.5c0.7-0.7,1.4-1.3,2-1.9
			c-0.1,0.1-0.2,0.1-0.3,0.2c-0.1,0-0.1,0.1-0.2,0.1c-1.2,1-2.2,2-3.2,2.9c-0.8,0.7-1.6,1.3-2.4,1.9c1-1,2.1-2,3.3-3
			c0.9-0.8,1.8-1.5,2.6-2.2c0.9-0.8,1.9-1.5,2.7-2.2C15.9,8,15.2,8.7,14.5,9.3z"/>
	</defs>
	<clipPath id="SVGID_2_">
		<use xlink:href="#SVGID_1_"  style="overflow:visible;"/>
	</clipPath>
	<g transform="translate(-192,-180)" class="st0">
		<ellipse class="st1" cx="200" cy="183.5" rx="6.5" ry="2.5"/>
		<path class="st1" d="M193.5,183.4v9.1"/>
		<path class="st1" d="M206.5,186.5c0,0.9-1.2,1.7-3.2,2.2s-4.5,0.4-6.5,0s-3.2-1.3-3.2-2.2"/>
		<path class="st1" d="M206.5,189.5c0,0.9-1.2,1.7-3.2,2.2s-4.5,0.4-6.5,0s-3.2-1.3-3.2-2.2"/>
		<path class="st1" d="M206.5,192.5c0,0.9-1.2,1.7-3.2,2.2s-4.5,0.4-6.5,0s-3.2-1.3-3.2-2.2"/>
		<path class="st1" d="M206.5,183.4v9.1"/>
	</g>
</g>
</svg>
