<?xml version="1.0" encoding="utf-8"?>
<!-- Generator: Adobe Illustrator 23.0.0, SVG Export Plug-In . SVG Version: 6.00 Build 0)  -->
<svg version="1.1" id="Layer_1" xmlns="http://www.w3.org/2000/svg" xmlns:xlink="http://www.w3.org/1999/xlink" x="0px" y="0px"
	 viewBox="0 0 16 16" style="enable-background:new 0 0 16 16;" xml:space="preserve">
<style type="text/css">
	.st0{clip-path:url(#SVGID_2_);fill:#F75049;}
</style>
<g>
	<defs>
		<path id="SVGID_1_" d="M23.6,3.5c-0.1-0.2-0.4,0-0.7-0.3c-0.3-0.2-0.2-0.4-0.4-0.5C22.1,2.4,21,3.3,21,3.3c0,0,0.4-0.3,0.9-0.8
			c0.3-0.3,0.8-0.8,0.6-1.2c-0.1-0.2-0.3-0.2-0.4-0.4c-0.1-0.3,0.6-0.5,0.5-0.9c0-0.2-0.2-0.3-0.4-0.4c-0.4-0.2-0.9,0.3-0.9,0.2
			c0,0,0.3-0.2,0.5-0.6c0-0.1,0.2-0.4,0.1-0.6c-0.1-0.1-0.3-0.1-0.4-0.1c-0.1,0-0.2,0.1-0.3,0.1c0,0,0-0.1,0-0.2
			c0-0.2-0.4-0.3-0.7-0.4c-0.6-0.1-1.1,0.6-1.2,0.5c-0.1-0.1,0.6-0.6,0.4-1c-0.1-0.2-0.3-0.3-0.4-0.3c-0.3,0-0.5,0.4-0.6,0.3
			c-0.2-0.1,0.1-0.8-0.1-1c-0.2-0.1-0.4,0.1-0.7,0c-0.2-0.1-0.2-0.2-0.3-0.2c-0.4-0.1-0.9,0.5-1.6,1.1c-0.3,0.2-0.7,0.6-1.3,1
			C15-2,15.3-2.3,15.5-2.5C16-3,16.2-3.2,16.2-3.6c0-0.2,0-0.4-0.2-0.5c-0.2-0.1-0.5,0.2-1.2,0.7c-0.2,0.1-0.4,0.2-0.5,0.3
			c0,0,0.4-0.4,0.2-0.8c0,0-0.1-0.2-0.2-0.3c-0.5-0.4-1.3-0.2-1.4-0.2c-1,0.2-1.3,1-2.5,1.6c0,0-0.2,0.1-0.4,0.2
			C9.5-2.3,9.2-2.2,9.1-2.1C8.8-1.9,8.6-1.7,8.4-1.4C8.3-1.1,8.4-0.9,8.2-0.7C8-0.6,7.8-0.5,7.8-0.5C7.1-0.3,6.2,0.9,6.1,1.1
			c-0.5,0.7-2,2.3-6.2,6c5.6-5.9,7.3-7.8,7.4-8c0,0,0,0,0,0c0-0.1,0.2-0.5,0-0.7C7.3-1.6,7.1-1.6,7-1.7c0,0-0.1-0.1,0-0.2
			c0-0.2,0.5-0.3,0.5-0.4c0,0-0.1-0.1-0.2-0.1C6.9-2.6,6.9-2.7,6.7-2.7C6.4-2.8,6.1-2.6,5.9-2.5C5.7-2.4,5.5-2.2,5.5-2.3
			c-0.1,0,0.1-0.2,0-0.3C5.4-2.7,5.2-2.7,5.1-2.7c-0.4,0-0.6,0.3-0.7,0.3c-0.1-0.1,0-0.2-0.1-0.4C4.2-2.9,4-2.9,3.8-3
			C3.6-3.2,3.7-3.3,3.5-3.7C3.4-3.8,3.2-4,3-4C2.7-4.1,2.7-4,2.4-4.1C2.1-4.2,2.1-4.4,1.8-4.4c-0.2,0-0.3,0-0.5,0.1C1-4.2,1-4,0.8-4
			C0.5-4,0.5-4.2,0.1-4.3c-0.1,0-0.3,0-0.3,0c-0.1,0.1,0,0.4-0.1,0.6c-0.1,0.1-0.2,0.1-0.3,0c-0.1-0.1-0.1-0.2-0.2-0.2
			C-1-4.1-2.1-3.8-2.5-3.2c-0.1,0.1-0.1,0.3-0.3,0.4c-0.2,0.1-0.3,0-0.5,0c-0.3,0-0.6,0.3-1.3,1.1c0,0-0.1,0.2-0.7,0.7
			c-1,1.2-1.2,1.3-1.2,1.7c0,0.6,0.1,0.9,0.1,0.9c0,0.1,0.1,0.3,0,0.4c-0.1,0.1-0.1,0-0.2,0.1c-0.1,0.2,0.1,0.4,0,0.9
			c0,0,0,0-0.1,0.3c-0.1,0.6-0.1,0.8,0,0.8c0.1,0.1,0.2,0.1,0.3,0.1c0.2,0,0.4-0.1,0.4-0.1C-5.5,3.6-5,3.1-4.6,2.6
			c-0.2,0.4-0.4,0.7-0.5,0.9c-0.2,0.3-0.4,0.5-0.6,0.8c-0.1,0.1-0.1,0.2-0.2,0.4C-5.9,5-6.1,5.3-5.9,5.6C-5.9,5.7-5.8,5.8-5.8,6
			c0,0.2-0.1,0.3,0,0.5c0.1,0.1,0.1,0.1,0.2,0.1c0.1,0.2,0,0.4,0,0.7c0,0.2,0.1,0.1,0.1,0.3c0.1,0.3-0.1,0.4,0,0.8
			c0,0.2,0,0.3,0.1,0.3c0.2,0.1,0.4-0.1,0.7,0.1c0.2,0.1,0.1,0.4,0.4,0.4c0.1,0,0.2-0.1,0.5,0c0,0,0.3,0,0.4,0.2
			c0,0.1-0.1,0.3-0.3,0.4c-0.4,0.2-1-0.1-1,0c0,0.1,0.1,0.3,0.3,0.4c1.2,1.1,1.2,1.2,1.6,1.4c0.4,0.2,0.3,0.1,0.8,0.4
			c0.6,0.4,1.3,0.7,1.3,1.2c0,0.3-0.2,0.3-0.2,0.7c0,0.3,0.1,0.7,0.4,0.7c0.2,0.1,0.4-0.1,0.7-0.1c0.4,0,0.4,0.3,0.7,0.3
			c0.4,0,0.6-0.5,1-0.4c0.2,0,0.2,0.2,0.5,0.3c0.2,0.1,0.5,0,0.6,0C4.1,13.4,6,11.5,8.3,9c1.9-2,2.4-2.6,3.5-3.6
			c3.1-3,6.4-5.3,6.5-5.1c0.1,0.1-1.4,1.5-6.5,6.3c-3.5,3.4-6.4,6.1-8.4,8c0,0.4,0.1,0.5,0.2,0.6c0.3,0.2,0.6-0.2,0.9,0
			c0.1,0.1,0.3,0.3,0.4,0.5C5,16,5,16.1,5.1,16.2c0.1,0.1,0.1,0,0.2,0.1c0.2,0.2,0.1,0.4,0.3,0.6c0.2,0.2,0.4,0.1,0.5,0.2
			c0,0.1-0.1,0.2,0,0.3c0,0.2,0.2,0.2,0.2,0.3c0.1,0.2-0.3,0.3-0.4,0.7C5.9,18.7,6,18.7,6,19c0,0.5-0.7,0.7-0.6,1.1
			c0,0.3,0.3,0.5,0.5,0.6c0.4,0.1,0.5-0.5,1-0.5c0.5,0,0.7,0.7,1.1,0.6c0.3,0,0.4-0.4,0.7-0.4c0.2,0,0.4,0.1,0.5,0
			c0.1-0.1,0.1-0.3,0.3-0.3c0.1,0,0.1,0,0.2,0c0.3,0,0.7-0.5,0.8-0.9c0.1-0.4,0-0.6,0.2-0.9c0.1-0.3,0.3-0.4,0.4-0.5
			c0.7-0.5,1.4-1.2,2.1-1.9c1-0.9,1.1-1.3,1.7-1.6c0.1,0,0.3-0.2,0.6-0.4c0.4-0.3,0.5-0.7,0.7-1c0.5-0.9,1-1,2-2.4
			c0-0.1,0.3-0.4,0.2-0.4c-0.1-0.1-1.4,1.3-1.7,1.1c-0.1-0.1-0.1-0.2-0.1-0.3c0.1-0.7,1-0.9,2.2-2c0.3-0.3,0.2-0.2,0.6-0.6
			c1-0.9,2-1.5,2.3-2.1C22,6,22.1,5.6,22.1,5.6c0-0.1,0-0.2,0.1-0.2c0.1-0.3,0.3-0.4,0.8-1C23.6,3.8,23.6,3.6,23.6,3.5z M3.5,2.6
			c-0.4,0.5-0.8,0.8-1.1,1c0.2-0.3,0.5-0.7,0.9-1.1c0.2-0.2,0.4-0.3,0.5-0.4C3.8,2.3,3.6,2.5,3.5,2.6z M3.2,1.2
			C3.8,0.5,4.4,0,4.9-0.5C4.5,0.1,4,0.7,3.4,1.3C3,1.6,2.7,2,2.3,2.3C2.6,1.9,2.9,1.5,3.2,1.2z M-3.3,1.1c0.1-0.2,0.3-0.5,0.5-0.7
			c0.1-0.1,0.2-0.2,0.3-0.3c-0.1,0.1-0.1,0.2-0.2,0.3C-2.9,0.7-3.2,1-3.3,1.1z M-2.3,10.8C-2.5,10.9-2.6,11-2.7,11
			c0-0.1,0-0.2,0.1-0.4c0.1-0.2,0.3-0.2,0.4-0.2C-2.2,10.5-2.2,10.6-2.3,10.8z M-2.7,5.3C-2.3,4.8-2,4.3-1.6,3.8c0,0.1,0,0.2,0,0.4
			C-1.9,4.5-2.3,4.9-2.7,5.3z M-0.7,12.4c-0.1,0-0.2-0.2-0.6-0.7c-0.1-0.1-0.2-0.2-0.2-0.3c0-0.1,0.1-0.1,0.3-0.2
			c0.1-0.1,0.3-0.2,0.5-0.5c0,0.2-0.1,0.4-0.1,0.5c-0.1,0.1-0.1,0.2-0.1,0.3c0,0.1,0.1,0,0.2,0.1c0.1,0.1,0,0.2,0,0.3
			C-0.8,12.1-0.6,12.4-0.7,12.4z M-0.8-1c0.1-0.2,0.3-0.5,0.5-0.7C-0.2-1.8-0.1-1.9,0-2C0-1.9-0.1-1.8-0.2-1.7
			C-0.4-1.4-0.6-1.2-0.8-1z M2.5,6.8c1.2-1.6,2.7-3.3,4.5-5c1.3-1.3,2.6-2.3,3.8-3.3C10-0.7,9.1,0.2,8.2,1.1C6.2,3,4.3,4.9,2.5,6.8z
			 M8.4,1.8c1-1,1.9-1.8,2.8-2.4C10.6,0,10.1,0.6,9.5,1.2c-1.3,1.5-2.7,2.8-4,4C6.2,4.2,7.2,3,8.4,1.8z M10.5,3.9
			c1.3-1.1,2.6-2.2,3.8-3.1c-0.8,0.8-1.7,1.7-2.6,2.5C9.8,5.1,8,6.6,6.3,7.9C7.6,6.6,9,5.3,10.5,3.9z M12.6,4.1
			c-1.9,1.7-3.7,3.2-5.5,4.5c1.3-1.3,2.7-2.6,4.3-4c1.3-1.1,2.6-2.2,3.8-3.1C14.4,2.4,13.5,3.2,12.6,4.1z M19.4,2.2
			c-0.8,0.8-1.7,1.7-2.6,2.5C14.9,6.5,13,8,11.3,9.3c1.3-1.3,2.7-2.6,4.3-4C16.9,4.2,18.1,3.2,19.4,2.2z M8.1,11.4
			c1.7-2,3.7-4.1,6.1-6.2c1.1-0.9,2.1-1.8,3.1-2.6C16.2,3.7,15,4.8,13.9,6C12,7.8,10,9.6,8.1,11.4z M8.6,13.4c1.9-1.8,3.8-3.7,6-5.6
			c1.7-1.5,3.3-2.9,4.9-4.2c-1.3,1.3-2.7,2.5-4.1,3.8C13.1,9.5,10.8,11.5,8.6,13.4z M8.9,14.6c1.3-1.5,2.9-3.2,4.9-4.9
			c1.6-1.4,3.2-2.6,4.7-3.5c-1.3,1.1-2.6,2.3-3.9,3.4C12.7,11.2,10.8,12.9,8.9,14.6z M18.4,7.8c-1.4,1.3-2.8,2.5-4.2,3.6
			c0.3-0.2,0.5-0.5,0.8-0.7c0.9-0.9,1.8-1.7,2.6-2.5c-0.1,0.1-0.2,0.2-0.3,0.3c-0.1,0.1-0.1,0.1-0.2,0.2c-1.5,1.3-2.9,2.6-4.2,3.9
			c-1.1,0.9-2.1,1.8-3.2,2.5c1.3-1.3,2.7-2.6,4.3-4c1.2-1,2.3-2,3.5-2.8c1.2-1.1,2.4-2,3.6-2.9C20.2,6.1,19.4,6.9,18.4,7.8z"/>
	</defs>
	<clipPath id="SVGID_2_">
		<use xlink:href="#SVGID_1_"  style="overflow:visible;"/>
	</clipPath>
	<path class="st0" d="M8.5,0C7,4.8,6.3,3.5,3.1,1.2C5,6,4.7,5.2,1,4.9C4.2,7.3,3.6,8.2,0,10c3.8,0,5.1-0.3,3.4,3.3
		c3.4-1.7,3-1.8,4,2.7c1.7-4.5,1.6-4,5.1-1.9c-1.3-3.6-1.4-3.7,3-2.8c-3.7-3.1-2.9-3.4,0.5-5.5c-4.8,0.2-4.3-0.2-2.9-4.1
		C9.2,4.7,9.5,3.8,8.5,0"/>
</g>
</svg>
