<?xml version="1.0" encoding="utf-8"?>
<!-- Generator: Adobe Illustrator 23.0.0, SVG Export Plug-In . SVG Version: 6.00 Build 0)  -->
<svg version="1.1" id="Layer_1" xmlns="http://www.w3.org/2000/svg" xmlns:xlink="http://www.w3.org/1999/xlink" x="0px" y="0px"
	 viewBox="0 0 16 16" style="enable-background:new 0 0 16 16;" xml:space="preserve">
<style type="text/css">
	.st0{clip-path:url(#SVGID_2_);fill:#F75049;}
</style>
<g>
	<defs>
		<path id="SVGID_1_" d="M23.8,5.8c-0.1-0.2-0.4,0-0.6-0.3c-0.2-0.2-0.2-0.4-0.3-0.5c-0.4-0.3-1.4,0.6-1.5,0.5c0,0,0.4-0.3,0.8-0.7
			c0.3-0.3,0.7-0.8,0.6-1.1c-0.1-0.2-0.3-0.2-0.3-0.4c0-0.3,0.5-0.5,0.5-0.8c0-0.2-0.2-0.3-0.3-0.4c-0.4-0.1-0.9,0.3-0.9,0.2
			c0,0,0.3-0.2,0.5-0.5c0-0.1,0.2-0.4,0.1-0.5c-0.1-0.1-0.3-0.1-0.4-0.1c-0.1,0-0.2,0.1-0.3,0.1c0,0,0-0.1,0-0.2
			c0-0.2-0.4-0.3-0.6-0.3c-0.6-0.1-1.1,0.5-1.1,0.5c-0.1-0.1,0.6-0.6,0.4-1c-0.1-0.2-0.2-0.3-0.4-0.3c-0.3,0-0.4,0.3-0.6,0.3
			c-0.2-0.1,0.1-0.8-0.1-1c-0.1-0.1-0.3,0.1-0.6,0c-0.2-0.1-0.2-0.2-0.3-0.2c-0.3-0.1-0.8,0.5-1.5,1c-0.3,0.2-0.7,0.6-1.3,0.9
			c0.3-0.4,0.5-0.6,0.7-0.8c0.5-0.5,0.7-0.7,0.7-1c0-0.1,0-0.4-0.2-0.5c-0.2-0.1-0.4,0.2-1.2,0.7c-0.2,0.1-0.4,0.2-0.5,0.3
			c0,0,0.3-0.4,0.2-0.8c0,0-0.1-0.2-0.2-0.3c-0.5-0.4-1.3-0.2-1.4-0.2c-1,0.2-1.2,0.9-2.4,1.5c0,0-0.2,0.1-0.4,0.2
			c-0.4,0.2-0.7,0.4-0.8,0.4C9.8,0.6,9.6,0.8,9.4,1.1C9.3,1.4,9.4,1.6,9.2,1.8C9.1,1.9,8.9,1.9,8.8,2C8.1,2.1,7.3,3.3,7.2,3.4
			C6.8,4.1,5.3,5.6,1.4,9.1c5.3-5.6,6.9-7.4,7-7.5c0,0,0,0,0,0c0-0.1,0.2-0.5,0-0.6c-0.1-0.1-0.3,0-0.3-0.2c0,0,0-0.1,0-0.2
			c0-0.2,0.5-0.3,0.5-0.4c0,0-0.1-0.1-0.2-0.1C8,0,8-0.1,7.8-0.1C7.5-0.2,7.3,0,7.1,0.1C6.8,0.2,6.7,0.3,6.6,0.3c-0.1,0,0-0.2,0-0.3
			C6.5-0.1,6.4-0.1,6.3-0.1c-0.4,0-0.6,0.3-0.7,0.2c-0.1,0,0-0.2-0.1-0.3C5.4-0.3,5.3-0.3,5.1-0.4C4.9-0.6,5-0.7,4.7-1
			C4.7-1.1,4.5-1.3,4.3-1.4C4-1.5,4-1.4,3.7-1.4C3.4-1.5,3.4-1.7,3.2-1.8c-0.2,0-0.3,0-0.5,0.1C2.4-1.5,2.4-1.3,2.2-1.3
			C2-1.3,1.9-1.5,1.6-1.6c-0.1,0-0.2,0-0.3,0C1.1-1.4,1.3-1.1,1.2-1C1.1-1,1-1,0.9-1C0.8-1.1,0.8-1.2,0.7-1.2
			C0.5-1.5-0.5-1.2-0.9-0.5C-0.9-0.4-1-0.3-1.1-0.2c-0.2,0.1-0.3,0-0.5,0c-0.3,0-0.5,0.3-1.2,1.1c0,0-0.1,0.2-0.6,0.7
			c-1,1.1-1.2,1.3-1.2,1.6C-4.7,3.7-4.6,4-4.6,4c0,0.1,0.1,0.3,0,0.4c-0.1,0.1-0.1,0-0.2,0.1c-0.1,0.1,0.1,0.4,0,0.9
			c0,0,0,0-0.1,0.3c-0.1,0.6-0.1,0.7,0,0.8c0.1,0.1,0.2,0.1,0.3,0.1c0.2,0,0.3-0.1,0.4-0.1c0.4-0.5,0.8-1,1.3-1.5
			C-3,5.2-3.2,5.5-3.3,5.7c-0.2,0.3-0.4,0.4-0.5,0.8C-3.9,6.6-4,6.7-4.1,6.9c-0.1,0.3-0.2,0.6-0.1,0.9C-4.1,7.9-4,7.9-4,8.1
			c0,0.2-0.1,0.3,0,0.4c0.1,0.1,0.1,0.1,0.2,0.1c0.1,0.2,0,0.3,0,0.6c0,0.2,0.1,0.1,0.1,0.3c0.1,0.3-0.1,0.4,0,0.8
			c0,0.2,0,0.2,0.1,0.3c0.2,0.1,0.4-0.1,0.6,0.1c0.2,0.1,0.1,0.4,0.3,0.4c0.1,0,0.2-0.1,0.4,0c0,0,0.3,0,0.4,0.2
			c0,0.1-0.1,0.3-0.3,0.4c-0.4,0.2-0.9-0.1-1,0c0,0.1,0.1,0.2,0.2,0.3c1.1,1.1,1.1,1.1,1.5,1.3c0.4,0.2,0.3,0.1,0.8,0.4
			c0.6,0.3,1.2,0.7,1.2,1.1c0,0.3-0.2,0.3-0.2,0.7c0,0.2,0.1,0.6,0.4,0.7c0.2,0.1,0.3-0.1,0.7-0.1c0.4,0,0.4,0.3,0.7,0.3
			c0.4,0,0.6-0.5,0.9-0.4c0.2,0,0.2,0.2,0.4,0.3c0.2,0.1,0.4,0,0.6,0c1.2-1.2,3-3,5.2-5.4c1.8-1.9,2.3-2.5,3.3-3.4
			c3-2.8,6-5,6.2-4.8c0.1,0.1-1.3,1.4-6.1,6c-3.3,3.2-6.1,5.8-7.9,7.6c0,0.4,0.1,0.5,0.2,0.6c0.2,0.1,0.5-0.2,0.8,0
			c0.1,0.1,0.3,0.2,0.4,0.5c0,0.2,0,0.3,0.1,0.4c0.1,0.1,0.1,0,0.2,0.1c0.2,0.2,0.1,0.4,0.3,0.5c0.2,0.2,0.4,0,0.5,0.2
			c0,0.1-0.1,0.2,0,0.3c0,0.2,0.2,0.2,0.2,0.3c0,0.2-0.3,0.3-0.4,0.7c-0.1,0.2,0.1,0.3,0.1,0.5c0,0.5-0.6,0.6-0.6,1.1
			c0,0.2,0.3,0.5,0.5,0.5C7.4,22,7.6,21.5,8,21.5c0.5,0,0.6,0.7,1,0.6c0.3,0,0.3-0.4,0.7-0.4c0.2,0,0.3,0.1,0.5,0
			c0.1-0.1,0.1-0.3,0.3-0.3c0.1,0,0.1,0,0.2,0c0.3,0,0.6-0.4,0.8-0.9c0.1-0.4,0-0.6,0.2-0.9c0.1-0.2,0.3-0.4,0.4-0.4
			c0.6-0.4,1.3-1.1,2-1.8c0.9-0.9,1-1.2,1.6-1.5c0.1,0,0.3-0.1,0.5-0.4c0.4-0.3,0.5-0.6,0.6-0.9c0.5-0.9,0.9-0.9,1.9-2.3
			c0-0.1,0.2-0.4,0.2-0.4c-0.1-0.1-1.3,1.3-1.6,1.1c-0.1-0.1-0.1-0.2-0.1-0.3c0.1-0.7,0.9-0.9,2.1-1.9c0.3-0.3,0.2-0.2,0.6-0.5
			c0.9-0.8,1.9-1.4,2.2-2c0.2-0.3,0.3-0.6,0.3-0.6c0-0.1,0-0.2,0.1-0.2c0.1-0.3,0.3-0.4,0.8-1C23.7,6,23.8,5.9,23.8,5.8z M4.8,4.9
			c-0.4,0.4-0.7,0.7-1,1c0.2-0.3,0.5-0.7,0.9-1.1c0.2-0.1,0.3-0.3,0.5-0.4C5,4.6,4.9,4.8,4.8,4.9z M4.5,3.5C5.1,3,5.6,2.4,6.1,2
			C5.7,2.5,5.2,3.1,4.7,3.6C4.3,4,4,4.3,3.6,4.6C3.9,4.3,4.2,3.9,4.5,3.5z M-1.7,3.5C-1.6,3.3-1.4,3-1.2,2.8C-1.1,2.7-1,2.6-0.9,2.6
			C-1,2.7-1.1,2.8-1.1,2.9C-1.3,3.1-1.5,3.3-1.7,3.5z M-0.8,12.6C-0.9,12.8-1,12.8-1,12.8c0,0,0-0.2,0.1-0.3
			c0.1-0.2,0.3-0.2,0.3-0.2C-0.6,12.3-0.6,12.5-0.8,12.6z M-1.1,7.4C-0.8,7-0.4,6.5,0,6.1c0,0.1,0,0.2,0,0.3
			C-0.4,6.7-0.7,7.1-1.1,7.4z M0.8,14.2c0,0-0.2-0.2-0.6-0.7c-0.1-0.1-0.2-0.2-0.2-0.3c0-0.1,0.1-0.1,0.2-0.2
			c0.1-0.1,0.3-0.2,0.5-0.5c0,0.2-0.1,0.4-0.1,0.5c-0.1,0.1-0.1,0.2-0.1,0.3c0,0.1,0.1,0,0.1,0.1c0.1,0.1,0,0.2,0,0.3
			C0.7,13.9,0.9,14.1,0.8,14.2z M0.7,1.5C0.8,1.3,1,1,1.2,0.8c0.1-0.1,0.2-0.2,0.3-0.2C1.4,0.7,1.4,0.8,1.3,0.9
			C1.1,1.1,0.9,1.4,0.7,1.5z M3.9,8.9C5,7.4,6.5,5.8,8.1,4.1C9.4,3,10.6,1.9,11.7,1C10.9,1.8,10,2.6,9.2,3.4
			C7.3,5.3,5.6,7.1,3.9,8.9z M9.4,4.2c0.9-0.9,1.8-1.7,2.6-2.3c-0.5,0.6-1,1.2-1.5,1.7C9.2,5,7.9,6.3,6.7,7.4
			C7.4,6.4,8.2,5.3,9.4,4.2z M11.4,6.2c1.2-1.1,2.4-2,3.6-2.9c-0.8,0.8-1.6,1.6-2.5,2.4c-1.8,1.6-3.5,3-5.2,4.3
			C8.6,8.7,10,7.4,11.4,6.2z M13.3,6.3c-1.8,1.6-3.5,3-5.2,4.3c1.2-1.2,2.6-2.5,4.1-3.8c1.2-1.1,2.4-2,3.6-2.9
			C15,4.7,14.2,5.5,13.3,6.3z M19.8,4.6C19,5.4,18.2,6.2,17.3,7c-1.8,1.6-3.5,3-5.2,4.3c1.2-1.2,2.6-2.5,4.1-3.8
			C17.4,6.4,18.6,5.5,19.8,4.6z M9.1,13.3c1.6-1.9,3.5-3.9,5.7-5.9c1-0.9,2-1.7,2.9-2.5c-1.1,1.1-2.1,2.2-3.2,3.3
			C12.8,9.8,11,11.5,9.1,13.3z M9.6,15.1c1.8-1.7,3.6-3.5,5.6-5.3c1.6-1.4,3.1-2.7,4.7-4c-1.2,1.2-2.5,2.4-3.8,3.6
			C13.9,11.4,11.7,13.3,9.6,15.1z M9.9,16.2c1.2-1.4,2.7-3,4.6-4.6c1.6-1.3,3.1-2.4,4.4-3.3c-1.2,1.1-2.4,2.1-3.6,3.2
			C13.5,13.1,11.7,14.6,9.9,16.2z M18.9,9.8c-1.3,1.2-2.7,2.4-4,3.4c0.2-0.2,0.5-0.4,0.7-0.6c0.9-0.8,1.7-1.6,2.5-2.4
			c-0.1,0.1-0.2,0.2-0.3,0.3c-0.1,0.1-0.1,0.1-0.2,0.2c-1.4,1.2-2.7,2.5-3.9,3.7c-1,0.9-2,1.7-3,2.4c1.2-1.2,2.6-2.5,4.1-3.8
			c1.1-1,2.2-1.9,3.3-2.7c1.2-1,2.3-1.9,3.4-2.8C20.6,8.2,19.8,9,18.9,9.8z"/>
	</defs>
	<clipPath id="SVGID_2_">
		<use xlink:href="#SVGID_1_"  style="overflow:visible;"/>
	</clipPath>
	<path class="st0" d="M5.8,11.5V16h4.5v-4.5H5.8z M6.4,12.2h3.2v3.2H6.4V12.2z"/>
	<path class="st0" d="M0,5.8v4.5h4.5V5.8H0z M0.6,6.4h3.2v3.2H0.6V6.4z"/>
	<path class="st0" d="M5.8,0v4.5h4.5V0H5.8z M6.4,0.6h3.2v3.2H6.4V0.6z"/>
	<path class="st0" d="M5.8,5.8v4.5h4.5V5.8H5.8z"/>
	<path class="st0" d="M11.5,5.8v4.5H16V5.8H11.5z M12.2,6.4h3.2v3.2h-3.2V6.4z"/>
	<path class="st0" d="M11.5,11.5V16H16v-4.5H11.5z"/>
	<path class="st0" d="M0,11.5V16h4.5v-4.5H0z"/>
	<path class="st0" d="M0,0v4.5h4.5V0H0z"/>
</g>
</svg>
