<?xml version="1.0" encoding="utf-8"?>
<!-- Generator: Adobe Illustrator 23.0.0, SVG Export Plug-In . SVG Version: 6.00 Build 0)  -->
<svg version="1.1" id="Layer_1" xmlns="http://www.w3.org/2000/svg" xmlns:xlink="http://www.w3.org/1999/xlink" x="0px" y="0px"
	 viewBox="0 0 16 16" style="enable-background:new 0 0 16 16;" xml:space="preserve">
<style type="text/css">
	.st0{clip-path:url(#SVGID_2_);fill:#F75049;}
</style>
<g>
	<defs>
		<path id="SVGID_1_" d="M31.4,0.3c-0.1-0.3-0.6-0.1-1.1-0.4c-0.4-0.3-0.3-0.6-0.6-0.8C29-1.4,27.3,0,27.3,0c0-0.1,0.7-0.5,1.3-1.2
			c0.4-0.5,1.2-1.3,1-1.9c-0.1-0.4-0.5-0.3-0.6-0.6c-0.1-0.5,0.9-0.8,0.8-1.4c0-0.3-0.3-0.5-0.6-0.6c-0.6-0.2-1.4,0.5-1.5,0.4
			c0-0.1,0.5-0.3,0.8-0.9c0.1-0.1,0.3-0.6,0.1-0.9c-0.1-0.2-0.5-0.2-0.7-0.1c-0.2,0.1-0.3,0.2-0.4,0.1c-0.1-0.1,0-0.2-0.1-0.3
			c-0.1-0.3-0.6-0.5-1-0.6c-1-0.1-1.8,0.9-1.9,0.8c-0.1-0.1,0.9-1,0.7-1.6c-0.1-0.3-0.4-0.5-0.7-0.5c-0.5,0-0.7,0.6-0.9,0.5
			c-0.3-0.1,0.2-1.3-0.2-1.6c-0.2-0.2-0.6,0.2-1.1,0c-0.3-0.1-0.3-0.3-0.5-0.3c-0.6-0.2-1.4,0.8-2.4,1.7c-0.4,0.4-1.1,0.9-2.1,1.5
			c0.5-0.6,0.9-1.1,1.2-1.4c0.8-0.8,1.2-1.2,1.2-1.7c0-0.2,0-0.7-0.3-0.8c-0.3-0.1-0.7,0.3-2,1.2c-0.3,0.2-0.6,0.4-0.8,0.5
			c0.1-0.1,0.6-0.7,0.4-1.3c0-0.1-0.1-0.3-0.4-0.5c-0.8-0.6-2.1-0.3-2.3-0.3c-1.6,0.4-2,1.5-4,2.5c0,0-0.3,0.1-0.6,0.3
			C9.1-8.9,8.7-8.7,8.6-8.6C8.1-8.2,7.7-8,7.5-7.5C7.3-7,7.4-6.7,7.1-6.4C6.8-6.1,6.5-6.1,6.4-6C5.3-5.8,4-3.8,3.8-3.6
			C3-2.5,0.6,0-6,5.9C2.9-3.4,5.6-6.4,5.7-6.7c0,0,0,0,0,0c0-0.1,0.3-0.8,0.1-1C5.6-7.8,5.3-7.8,5.2-8c0,0-0.1-0.1-0.1-0.3
			c0.1-0.4,0.8-0.5,0.8-0.6C5.9-9,5.8-9,5.6-9.1C5-9.3,5-9.4,4.7-9.5C4.3-9.6,3.9-9.4,3.5-9.2C3.1-9,2.9-8.7,2.8-8.8
			C2.7-8.9,2.9-9.1,2.8-9.3C2.6-9.5,2.3-9.5,2.2-9.5c-0.6,0-1,0.5-1.2,0.4c-0.1-0.1,0-0.3-0.1-0.6C0.7-9.9,0.5-9.8,0.2-10
			c-0.3-0.3-0.2-0.5-0.6-1c-0.1-0.2-0.4-0.5-0.8-0.6c-0.4-0.2-0.5,0.1-1-0.1c-0.5-0.2-0.5-0.5-0.9-0.5c-0.3,0-0.5,0.1-0.8,0.2
			c-0.6,0.3-0.6,0.6-0.9,0.6c-0.3,0-0.4-0.3-1-0.5c-0.2,0-0.4-0.1-0.5,0c-0.2,0.2,0.1,0.7-0.2,0.9c-0.1,0.1-0.4,0.1-0.5,0
			C-7-11.1-7-11.3-7.1-11.4c-0.4-0.4-2.1,0.1-2.6,1.2c-0.1,0.2-0.2,0.4-0.4,0.6c-0.3,0.2-0.5,0-0.9,0c-0.5,0-0.9,0.4-2,1.8
			c0,0-0.2,0.3-1,1.2c-1.6,1.9-2,2.1-2,2.7c0,1,0.1,1.3,0.1,1.3c0.1,0.2,0.2,0.5,0,0.7c-0.1,0.1-0.2,0.1-0.3,0.2
			c-0.2,0.2,0.1,0.7,0.1,1.4c0,0,0,0-0.1,0.5c-0.2,1-0.2,1.2-0.1,1.3c0.1,0.1,0.3,0.1,0.5,0.1c0.3,0,0.6-0.1,0.7-0.2
			c0.7-0.8,1.4-1.7,2.1-2.5c-0.3,0.6-0.6,1.1-0.8,1.4c-0.3,0.4-0.6,0.7-0.9,1.3c-0.1,0.2-0.2,0.4-0.3,0.7c-0.1,0.4-0.4,1-0.1,1.4
			c0.1,0.2,0.2,0.3,0.3,0.6c0.1,0.3-0.1,0.5,0.1,0.7c0.1,0.2,0.2,0.1,0.3,0.2c0.2,0.3,0,0.6,0.1,1.1c0.1,0.3,0.2,0.2,0.2,0.5
			c0.1,0.5-0.1,0.7,0,1.3c0,0.3,0.1,0.4,0.2,0.5c0.3,0.2,0.7-0.1,1,0.1c0.3,0.2,0.2,0.6,0.6,0.7c0.2,0.1,0.3-0.1,0.7-0.1
			c0.1,0,0.5,0,0.6,0.3c0.1,0.2-0.2,0.5-0.5,0.7c-0.7,0.4-1.5-0.1-1.6,0.1c-0.1,0.1,0.2,0.4,0.4,0.6c1.9,1.8,1.9,1.9,2.5,2.2
			c0.6,0.4,0.5,0.2,1.3,0.6c1,0.6,2,1.1,2,1.9c0,0.4-0.3,0.5-0.3,1.1c0,0.4,0.2,1,0.6,1.2c0.4,0.1,0.6-0.2,1.1-0.2
			c0.6,0.1,0.6,0.5,1.1,0.5c0.7,0,1-0.8,1.5-0.7c0.3,0.1,0.3,0.4,0.7,0.5c0.4,0.1,0.7,0.1,1-0.1c2-2,4.9-5.1,8.6-8.9
			c3-3.2,3.9-4.1,5.5-5.7C17.8-1.4,23-5.1,23.2-4.8c0.2,0.2-2.2,2.4-10.3,10C7.4,10.5,2.8,14.9-0.3,17.9c0,0.6,0.2,0.8,0.3,0.9
			c0.4,0.2,0.9-0.3,1.4,0c0.2,0.1,0.5,0.4,0.6,0.8c0.1,0.3,0,0.5,0.2,0.7c0.1,0.1,0.2,0.1,0.4,0.2c0.3,0.3,0.2,0.6,0.5,0.9
			c0.3,0.3,0.7,0.1,0.8,0.3c0.1,0.2-0.1,0.3,0,0.5c0.1,0.3,0.3,0.3,0.3,0.5c0.1,0.3-0.5,0.5-0.6,1.1c-0.1,0.4,0.1,0.5,0.1,0.9
			c-0.1,0.9-1,1.1-1,1.8c0,0.4,0.4,0.8,0.8,0.9c0.6,0.1,0.9-0.8,1.6-0.8c0.8,0,1.1,1.1,1.7,1c0.5-0.1,0.6-0.7,1.1-0.7
			c0.4,0,0.6,0.2,0.8,0.1c0.2-0.1,0.2-0.4,0.5-0.5c0.1,0,0.2,0,0.3,0c0.5,0,1-0.7,1.3-1.5c0.2-0.7,0-0.9,0.3-1.5
			c0.2-0.4,0.5-0.6,0.7-0.7c1-0.7,2.2-1.9,3.4-3c1.5-1.5,1.7-2.1,2.7-2.6c0.2-0.1,0.5-0.2,0.9-0.6c0.6-0.5,0.8-1.1,1-1.5
			c0.8-1.5,1.6-1.5,3.1-3.8c0.1-0.1,0.4-0.6,0.3-0.7c-0.2-0.2-2.2,2.1-2.7,1.8c-0.1-0.1-0.1-0.3-0.1-0.5c0.1-1.1,1.6-1.5,3.5-3.2
			c0.5-0.4,0.3-0.4,0.9-0.9c1.5-1.4,3.2-2.4,3.7-3.3c0.3-0.5,0.4-1.1,0.4-1.1c0.1-0.2,0.1-0.3,0.1-0.3c0.2-0.5,0.4-0.7,1.3-1.6
			C31.3,0.7,31.4,0.5,31.4,0.3z M-0.3-1.1c-0.6,0.7-1.2,1.2-1.7,1.6C-1.8,0-1.3-0.7-0.6-1.3C-0.3-1.5,0-1.7,0.2-1.9
			C0.1-1.6-0.1-1.4-0.3-1.1z M-0.7-3.4C0.2-4.4,1-5.3,1.9-6C1.2-5.1,0.5-4.2-0.5-3.3c-0.6,0.6-1.2,1.1-1.7,1.6
			C-1.8-2.2-1.3-2.8-0.7-3.4z M-11.1-3.5c0.2-0.3,0.4-0.8,0.8-1.2c0.1-0.2,0.3-0.3,0.4-0.4c-0.1,0.2-0.2,0.3-0.3,0.5
			C-10.5-4.1-10.8-3.7-11.1-3.5z M-9.5,11.7c-0.2,0.2-0.4,0.3-0.5,0.4c0-0.1,0-0.3,0.2-0.6c0.2-0.3,0.5-0.3,0.6-0.3
			C-9.3,11.3-9.4,11.5-9.5,11.7z M-10.1,3.1c0.6-0.7,1.2-1.5,1.8-2.2c0,0.2,0.1,0.4,0.1,0.6C-8.9,1.9-9.5,2.5-10.1,3.1z M-6.9,14.3
			c-0.1,0.1-0.3-0.4-1-1.1C-8,13-8.2,12.8-8.2,12.7c0-0.2,0.2-0.2,0.4-0.3c0.2-0.1,0.5-0.4,0.8-0.8c0,0.4-0.1,0.6-0.2,0.8
			c-0.1,0.2-0.2,0.3-0.2,0.5c0.1,0.1,0.2,0.1,0.2,0.2c0.1,0.1,0,0.3,0,0.5C-7.1,13.9-6.8,14.3-6.9,14.3z M-7.1-6.8
			C-6.9-7.2-6.7-7.6-6.3-8C-6.1-8.1-6-8.3-5.8-8.4C-5.9-8.2-6-8.1-6.1-7.9C-6.4-7.4-6.8-7.1-7.1-6.8z M-1.8,5.5
			c2-2.5,4.3-5.2,7.1-7.9c2-2,4-3.7,5.9-5.2C9.9-6.3,8.5-5,7.1-3.6C4-0.5,1,2.5-1.8,5.5z M7.4-2.4c1.5-1.5,3-2.8,4.4-3.8
			c-0.8,1-1.7,1.9-2.6,2.9C7.1-0.9,5,1.2,2.9,3.1C4,1.4,5.5-0.5,7.4-2.4z M10.8,1c2-1.8,4.1-3.4,6-4.9c-1.3,1.3-2.7,2.7-4.2,4
			C9.7,2.8,6.8,5.2,4,7.3C6.1,5.2,8.3,3.1,10.8,1z M14,1.2C11,3.9,8.1,6.3,5.4,8.4c2.1-2.1,4.3-4.2,6.8-6.3c2-1.8,4.1-3.4,6-4.9
			C16.8-1.5,15.4-0.1,14,1.2z M24.7-1.7c-1.3,1.3-2.7,2.7-4.2,4C17.6,5,14.7,7.4,12,9.5c2.1-2,4.3-4.2,6.8-6.3
			C20.8,1.4,22.8-0.2,24.7-1.7z M7,12.8c2.7-3.2,5.9-6.5,9.6-9.9c1.7-1.5,3.3-2.9,4.9-4.2c-1.8,1.8-3.6,3.6-5.4,5.5
			C13,7.1,10,9.9,7,12.8z M7.7,15.9c2.9-2.9,6.1-5.8,9.4-8.8c2.6-2.3,5.3-4.5,7.8-6.6c-2.1,2-4.2,4-6.4,6
			C14.9,9.7,11.2,12.9,7.7,15.9z M8.2,17.7c2-2.4,4.6-5,7.7-7.7c2.6-2.2,5.1-4,7.4-5.5c-2,1.8-4,3.6-6.1,5.3
			C14.2,12.5,11.2,15.1,8.2,17.7z M23.2,7.1c-2.2,2.1-4.5,3.9-6.6,5.7c0.4-0.4,0.8-0.7,1.2-1.1c1.5-1.4,2.9-2.7,4.2-4
			c-0.2,0.1-0.4,0.3-0.5,0.4c-0.1,0.1-0.2,0.2-0.3,0.3c-2.4,2.1-4.6,4.1-6.6,6.1c-1.7,1.4-3.4,2.8-5,4c2.1-2,4.3-4.2,6.8-6.3
			c1.9-1.6,3.7-3.1,5.5-4.5c1.9-1.7,3.8-3.2,5.7-4.6C26.1,4.4,24.7,5.7,23.2,7.1z"/>
	</defs>
	<clipPath id="SVGID_2_">
		<use xlink:href="#SVGID_1_"  style="overflow:visible;"/>
	</clipPath>
	<path class="st0" d="M2,12v3c0,0,4.6,0.9,6.7-5c0.1,0,3.3,0,3.3,0V7H9.6c0,0,1-3,3.4-3l0-3c0,0-3.8-0.9-6.2,5.5C4.6,12.9,2,12,2,12
		z"/>
</g>
</svg>
