<?xml version="1.0" encoding="utf-8"?>
<!-- Generator: Adobe Illustrator 23.0.0, SVG Export Plug-In . SVG Version: 6.00 Build 0)  -->
<svg version="1.1" id="Layer_1" xmlns="http://www.w3.org/2000/svg" xmlns:xlink="http://www.w3.org/1999/xlink" x="0px" y="0px"
	 viewBox="0 0 16 16" style="enable-background:new 0 0 16 16;" xml:space="preserve">
<style type="text/css">
	.st0{fill-rule:evenodd;clip-rule:evenodd;fill:#F75049;}
</style>
<path class="st0" d="M8.4,0C8.2,0.2,8.1,0.3,8,0.5c-0.1,0.3,0,0.4-0.2,0.6C7.7,1.2,7.5,1.2,7.4,1.3C6.8,1.4,6.1,2.4,6,2.6
	C5.7,3.1,4.6,4.2,2,6.5c0.2,1.8,1.3,4.3,2.6,6.3c0.1,0.1,0.1,0.2,0.2,0.3c1.1-1.1,2.5-2.4,4.1-3.9C8.6,9.3,8.3,9.3,8,9.3
	c0,0-0.1,0-0.1,0C6.1,9.3,4.7,7.8,4.7,6c0-0.1,0-0.2,0-0.3C4.1,6.3,3.6,6.9,3,7.4c0.5-0.7,1.1-1.3,1.7-2C5,4.1,6,3,7.3,2.7
	c0,0,0,0,0,0C8.3,1.9,9.2,1.1,10,0.4C9.3,1.1,8.5,1.8,7.8,2.6c0,0-0.1,0.1-0.1,0.1c0.1,0,0.2,0,0.3,0c0.2,0,0.3,0,0.5,0
	c0.6-0.6,1.3-1.1,1.8-1.5c-0.4,0.5-0.9,1-1.4,1.6c0,0,0,0,0,0c0.8,0.2,1.5,0.7,1.9,1.4c0.7-0.6,1.4-1.2,2.1-1.7
	C11.8,1.1,10.2,0.1,8.4,0z M7.1,0.4C7,0.3,6.8,0.3,6.8,0.2c0,0,0,0,0-0.1C4,0.7,2,3.1,2,6c0,0.1,0,0.2,0,0.4c3.8-4,5-5.3,5-5.4v0
	C7.1,0.9,7.2,0.5,7.1,0.4z M3.8,3.9C3.5,4.3,3.2,4.5,2.9,4.8c0.2-0.3,0.4-0.6,0.8-1C3.8,3.7,4,3.6,4.1,3.5C4,3.6,3.9,3.8,3.8,3.9z
	 M3.7,2.8C3.4,3.1,3.1,3.4,2.8,3.6C3,3.3,3.3,3,3.6,2.7c0.5-0.5,1-1,1.4-1.4C4.7,1.8,4.2,2.3,3.7,2.8z M9.1,14.4
	c0.9-0.7,1.8-1.4,2.7-2.1c0,0,0,0,0,0c0.2-0.3,0.3-0.5,0.5-0.8C11.1,12.4,10,13.4,9.1,14.4z M12.5,9.9c-1.7,1.4-3,2.8-4.1,4.1
	c1.5-1.3,3-2.6,4.6-4c0.1-0.3,0.2-0.5,0.3-0.8C13,9.4,12.7,9.7,12.5,9.9z M13.8,4.5c0-0.2-0.1-0.5-0.2-0.7c-0.7,0.6-1.5,1.2-2.3,2
	c0,0.1,0,0.1,0,0.2c0,0.4-0.1,0.7-0.2,1.1C12.2,6,13.1,5.2,13.8,4.5z M13.1,8.3c-1.8,1.6-3.5,3.2-5,4.7c1.8-1.5,3.7-3.1,5.5-4.8
	c0-0.1,0.1-0.3,0.1-0.4C13.5,7.9,13.3,8.1,13.1,8.3z M13.9,5.1c-0.4,0.3-0.7,0.6-1.1,1c-2,1.8-3.7,3.6-5.1,5.3
	c1.6-1.5,3.2-3.1,4.9-4.6C13,6.3,13.5,5.8,14,5.4C14,5.3,14,5.2,13.9,5.1z M10.4,9.6c1.2-0.9,2.3-1.8,3.6-2.9c0-0.1,0-0.3,0-0.4
	C12.7,7.4,11.5,8.5,10.4,9.6z M13.3,3.3C13.2,3,13,2.7,12.9,2.5c-0.6,0.6-1.3,1.3-2,1.9C11,4.6,11.1,4.8,11.2,5
	c0,0.1,0.1,0.2,0.1,0.3c0.1-0.1,0.1-0.1,0.2-0.2C12.1,4.5,12.8,3.9,13.3,3.3C13.4,3.3,13.3,3.3,13.3,3.3z"/>
</svg>
