<?xml version="1.0" encoding="utf-8"?>
<!-- Generator: Adobe Illustrator 23.0.0, SVG Export Plug-In . SVG Version: 6.00 Build 0)  -->
<svg version="1.1" id="Layer_1" xmlns="http://www.w3.org/2000/svg" xmlns:xlink="http://www.w3.org/1999/xlink" x="0px" y="0px"
	 viewBox="0 0 16 16" style="enable-background:new 0 0 16 16;" xml:space="preserve">
<style type="text/css">
	.st0{clip-path:url(#SVGID_2_);}
	.st1{fill:#F75049;}
</style>
<g>
	<defs>
		<path id="SVGID_1_" d="M24.8,5.9c-0.1-0.2-0.4,0-0.7-0.3c-0.2-0.2-0.2-0.4-0.3-0.5c-0.4-0.3-1.5,0.6-1.5,0.5c0,0,0.4-0.3,0.8-0.8
			c0.3-0.3,0.7-0.8,0.6-1.1c-0.1-0.2-0.3-0.2-0.3-0.4c0-0.3,0.5-0.5,0.5-0.8c0-0.2-0.2-0.3-0.3-0.4c-0.4-0.1-0.9,0.3-0.9,0.2
			c0,0,0.3-0.2,0.5-0.6c0-0.1,0.2-0.4,0.1-0.5c-0.1-0.1-0.3-0.1-0.4-0.1c-0.1,0-0.2,0.1-0.3,0.1c0,0,0-0.1,0-0.2
			c0-0.2-0.4-0.3-0.6-0.3c-0.6-0.1-1.1,0.5-1.1,0.5c-0.1-0.1,0.6-0.6,0.4-1C21,0.1,20.8,0,20.6,0c-0.3,0-0.5,0.4-0.6,0.3
			c-0.2-0.1,0.1-0.8-0.1-1c-0.1-0.1-0.3,0.1-0.6,0c-0.2-0.1-0.2-0.2-0.3-0.2c-0.3-0.1-0.9,0.5-1.5,1c-0.3,0.2-0.7,0.6-1.3,0.9
			c0.3-0.4,0.6-0.7,0.7-0.9c0.5-0.5,0.7-0.7,0.7-1.1c0-0.1,0-0.4-0.2-0.5c-0.2-0.1-0.4,0.2-1.2,0.7c-0.2,0.1-0.4,0.2-0.5,0.3
			c0,0,0.4-0.4,0.2-0.8c0,0-0.1-0.2-0.2-0.3c-0.5-0.4-1.3-0.2-1.4-0.2c-1,0.2-1.2,0.9-2.4,1.5c0,0-0.2,0.1-0.4,0.2
			c-0.5,0.2-0.7,0.4-0.8,0.4c-0.3,0.2-0.5,0.4-0.7,0.7c-0.1,0.3-0.1,0.5-0.2,0.7C9.8,2,9.6,2,9.6,2.1C8.9,2.2,8.1,3.4,7.9,3.6
			C7.5,4.2,6,5.7,2,9.3c5.4-5.7,7-7.5,7.1-7.6c0,0,0,0,0,0c0-0.1,0.2-0.5,0-0.6C9.1,1,8.9,1,8.8,0.9c0,0-0.1-0.1,0-0.2
			c0-0.2,0.5-0.3,0.5-0.4c0,0-0.1-0.1-0.2-0.1C8.7,0.1,8.7,0,8.5,0C8.3-0.1,8,0,7.8,0.1C7.6,0.3,7.4,0.4,7.4,0.4c-0.1,0,0-0.2,0-0.3
			C7.3,0,7.1,0,7,0C6.6,0,6.4,0.3,6.3,0.2C6.2,0.2,6.3,0,6.2-0.1C6.1-0.3,6-0.2,5.8-0.3C5.6-0.5,5.7-0.6,5.4-1
			C5.4-1.1,5.2-1.2,5-1.3c-0.3-0.1-0.3,0-0.6-0.1C4.1-1.5,4.1-1.7,3.8-1.7c-0.2,0-0.3,0-0.5,0.1C3-1.4,3-1.3,2.8-1.3
			c-0.2,0-0.3-0.2-0.6-0.3c-0.1,0-0.2,0-0.3,0C1.8-1.4,2-1.1,1.8-1C1.7-0.9,1.6-0.9,1.5-1C1.4-1,1.4-1.1,1.3-1.2
			C1.1-1.4,0.1-1.1-0.3-0.5c-0.1,0.1-0.1,0.3-0.3,0.3c-0.2,0.1-0.3,0-0.5,0c-0.3,0-0.5,0.3-1.2,1.1c0,0-0.1,0.2-0.6,0.7
			c-1,1.1-1.2,1.3-1.2,1.6c0,0.6,0.1,0.8,0.1,0.8c0,0.1,0.1,0.3,0,0.4c-0.1,0.1-0.1,0-0.2,0.1c-0.1,0.1,0.1,0.4,0,0.9
			c0,0,0,0-0.1,0.3c-0.1,0.6-0.1,0.7,0,0.8C-4.2,6.7-4.1,6.7-4,6.7c0.2,0,0.3-0.1,0.4-0.1C-3.2,6-2.7,5.5-2.3,5
			c-0.2,0.4-0.4,0.6-0.5,0.8C-3,6.1-3.1,6.3-3.3,6.7c-0.1,0.1-0.1,0.2-0.2,0.4c-0.1,0.3-0.2,0.6-0.1,0.9C-3.5,8-3.5,8.1-3.4,8.3
			c0,0.2-0.1,0.3,0,0.4c0.1,0.1,0.1,0.1,0.2,0.1c0.1,0.2,0,0.3,0,0.7c0,0.2,0.1,0.1,0.1,0.3c0.1,0.3-0.1,0.4,0,0.8
			c0,0.2,0,0.2,0.1,0.3c0.2,0.1,0.4-0.1,0.6,0.1c0.2,0.1,0.1,0.4,0.3,0.4c0.1,0,0.2-0.1,0.4,0c0,0,0.3,0,0.4,0.2
			c0,0.1-0.1,0.3-0.3,0.4c-0.4,0.2-0.9-0.1-1,0c0,0.1,0.1,0.2,0.2,0.3c1.1,1.1,1.1,1.1,1.5,1.4c0.4,0.2,0.3,0.1,0.8,0.4
			c0.6,0.3,1.2,0.7,1.2,1.2c0,0.3-0.2,0.3-0.2,0.7c0,0.2,0.1,0.6,0.4,0.7c0.2,0.1,0.3-0.1,0.7-0.1c0.4,0,0.4,0.3,0.7,0.3
			c0.4,0,0.6-0.5,0.9-0.4c0.2,0,0.2,0.2,0.4,0.3c0.2,0.1,0.5,0,0.6,0c1.2-1.2,3-3.1,5.2-5.4c1.9-2,2.3-2.5,3.4-3.5
			c3-2.9,6.1-5.1,6.3-4.9c0.1,0.1-1.3,1.4-6.2,6.1c-3.4,3.2-6.2,5.9-8.1,7.7c0,0.4,0.1,0.5,0.2,0.6c0.2,0.1,0.6-0.2,0.9,0
			c0.1,0.1,0.3,0.2,0.4,0.5c0.1,0.2,0,0.3,0.1,0.5c0.1,0.1,0.1,0,0.2,0.1c0.2,0.2,0.1,0.4,0.3,0.5C7.7,19,7.9,18.9,8,19
			c0,0.1-0.1,0.2,0,0.3c0,0.2,0.2,0.2,0.2,0.3c0.1,0.2-0.3,0.3-0.4,0.7c-0.1,0.2,0.1,0.3,0.1,0.5c0,0.5-0.6,0.7-0.6,1.1
			c0,0.3,0.3,0.5,0.5,0.5c0.4,0.1,0.5-0.5,0.9-0.5c0.5,0,0.7,0.7,1.1,0.6c0.3,0,0.3-0.4,0.7-0.4c0.2,0,0.3,0.1,0.5,0
			c0.1-0.1,0.1-0.3,0.3-0.3c0.1,0,0.1,0,0.2,0c0.3,0,0.6-0.4,0.8-0.9c0.1-0.4,0-0.6,0.2-0.9c0.1-0.2,0.3-0.4,0.4-0.4
			c0.6-0.4,1.4-1.1,2.1-1.8c0.9-0.9,1-1.2,1.7-1.6c0.1,0,0.3-0.1,0.5-0.4c0.4-0.3,0.5-0.6,0.6-0.9c0.5-0.9,1-0.9,1.9-2.3
			c0-0.1,0.3-0.4,0.2-0.4c-0.1-0.1-1.3,1.3-1.6,1.1c-0.1-0.1-0.1-0.2-0.1-0.3c0.1-0.7,0.9-0.9,2.2-1.9c0.3-0.3,0.2-0.2,0.6-0.5
			c0.9-0.8,2-1.5,2.2-2C23.3,8.3,23.4,8,23.4,8c0-0.1,0-0.2,0.1-0.2c0.1-0.3,0.3-0.4,0.8-1C24.7,6.2,24.8,6,24.8,5.9z M5.5,5.1
			c-0.4,0.4-0.7,0.8-1.1,1C4.6,5.7,4.9,5.3,5.3,5c0.2-0.1,0.3-0.3,0.5-0.4C5.7,4.8,5.6,4.9,5.5,5.1z M5.2,3.7
			c0.5-0.6,1.1-1.1,1.6-1.6C6.4,2.6,5.9,3.2,5.4,3.8C5,4.1,4.6,4.5,4.3,4.8C4.6,4.4,4.9,4,5.2,3.7z M-1.1,3.6
			C-1,3.4-0.9,3.2-0.6,2.9c0.1-0.1,0.2-0.2,0.3-0.2C-0.4,2.8-0.5,2.9-0.5,3C-0.7,3.3-0.9,3.5-1.1,3.6z M-0.2,12.9
			c-0.1,0.1-0.2,0.2-0.3,0.2c0,0,0-0.2,0.1-0.3c0.1-0.2,0.3-0.2,0.3-0.2C0,12.6,0,12.8-0.2,12.9z M-0.5,7.6c0.4-0.5,0.7-0.9,1.1-1.4
			c0,0.1,0,0.2,0,0.3C0.2,6.9-0.1,7.3-0.5,7.6z M1.4,14.5c0,0-0.2-0.2-0.6-0.7c-0.1-0.1-0.2-0.2-0.2-0.3c0-0.1,0.1-0.1,0.2-0.2
			c0.1-0.1,0.3-0.2,0.5-0.5c0,0.2-0.1,0.4-0.1,0.5c-0.1,0.1-0.1,0.2-0.1,0.3c0,0.1,0.1,0,0.1,0.1c0.1,0.1,0,0.2,0,0.3
			C1.3,14.2,1.5,14.4,1.4,14.5z M1.3,1.6c0.1-0.2,0.3-0.5,0.5-0.7C1.9,0.8,2,0.7,2.1,0.6C2,0.7,2,0.8,1.9,0.9
			C1.7,1.2,1.5,1.4,1.3,1.6z M4.5,9.1c1.2-1.5,2.6-3.2,4.3-4.8c1.2-1.2,2.5-2.3,3.6-3.2c-0.8,0.8-1.7,1.6-2.5,2.4
			C8.1,5.4,6.3,7.3,4.5,9.1z M10.1,4.3C11.1,3.4,12,2.6,12.8,2c-0.5,0.6-1,1.2-1.6,1.8C10,5.2,8.7,6.4,7.4,7.6
			C8.1,6.6,9,5.5,10.1,4.3z M12.2,6.3c1.2-1.1,2.5-2.1,3.7-3c-0.8,0.8-1.6,1.6-2.5,2.4c-1.8,1.6-3.5,3.1-5.2,4.4
			C9.3,8.9,10.7,7.6,12.2,6.3z M14.2,6.5c-1.8,1.6-3.5,3.1-5.2,4.4C10.2,9.6,11.5,8.3,13,7c1.2-1.1,2.5-2.1,3.7-3
			C15.9,4.8,15,5.7,14.2,6.5z M20.7,4.7c-0.8,0.8-1.6,1.6-2.5,2.4c-1.8,1.6-3.5,3.1-5.2,4.4c1.2-1.2,2.6-2.5,4.1-3.8
			C18.3,6.6,19.5,5.6,20.7,4.7z M9.9,13.5c1.6-1.9,3.6-4,5.8-6c1-0.9,2-1.8,3-2.5c-1.1,1.1-2.2,2.2-3.3,3.3
			C13.6,10.1,11.7,11.8,9.9,13.5z M10.3,15.4c1.8-1.8,3.7-3.5,5.7-5.4c1.6-1.4,3.2-2.8,4.8-4c-1.3,1.2-2.6,2.4-3.9,3.6
			C14.7,11.7,12.5,13.6,10.3,15.4z M10.6,16.5c1.2-1.5,2.8-3.1,4.7-4.7c1.6-1.3,3.1-2.5,4.5-3.4c-1.2,1.1-2.5,2.2-3.7,3.3
			C14.3,13.4,12.5,15,10.6,16.5z M19.8,10.1c-1.4,1.3-2.7,2.4-4,3.4c0.2-0.2,0.5-0.4,0.7-0.7c0.9-0.8,1.7-1.6,2.5-2.4
			c-0.1,0.1-0.2,0.2-0.3,0.3c-0.1,0.1-0.1,0.1-0.2,0.2c-1.5,1.3-2.8,2.5-4,3.7c-1,0.9-2.1,1.7-3,2.4c1.2-1.2,2.6-2.5,4.1-3.8
			c1.1-1,2.2-1.9,3.3-2.7c1.2-1,2.3-1.9,3.5-2.8C21.5,8.4,20.7,9.2,19.8,10.1z"/>
	</defs>
	<clipPath id="SVGID_2_">
		<use xlink:href="#SVGID_1_"  style="overflow:visible;"/>
	</clipPath>
	<g transform="translate(-993 27)" class="st0">
		<path class="st1" d="M1001-26c-0.5,0-1,0.1-1.5,0.3c-0.5,0.2-0.9,0.5-1.2,0.8l0,0l0,0c-0.3,0.4-0.6,0.8-0.8,1.3
			c-0.2,0.5-0.3,1.1-0.3,1.6c0,0.6,0.1,1.1,0.3,1.6c0.2,0.5,0.4,0.9,0.8,1.3l0,0l0,0c0.3,0.4,0.7,0.6,1.2,0.8l0,0l0,0
			c0.5,0.2,1,0.3,1.5,0.3s1-0.1,1.5-0.3v0c0.5-0.2,0.9-0.5,1.2-0.8c0.3-0.4,0.6-0.8,0.8-1.3c0.2-0.5,0.3-1,0.3-1.6h0
			c0-0.6-0.1-1.1-0.3-1.6c-0.2-0.5-0.4-0.9-0.8-1.3c-0.3-0.4-0.7-0.6-1.2-0.8C1002-25.9,1001.5-26,1001-26z M1001-25
			c0.4,0,0.8,0.1,1.1,0.2l0,0l0,0c0.3,0.1,0.6,0.3,0.8,0.6v0c0.2,0.3,0.4,0.6,0.6,0.9v0c0.1,0.4,0.2,0.8,0.2,1.2v0
			c0,0.5-0.1,0.9-0.2,1.3v0c-0.1,0.3-0.3,0.7-0.6,0.9l0,0v0c-0.2,0.3-0.5,0.5-0.8,0.6c-0.3,0.1-0.7,0.2-1.1,0.2
			c-0.4,0-0.8-0.1-1.1-0.2h0c-0.3-0.1-0.6-0.3-0.8-0.6l0-0.1l0,0c-0.2-0.3-0.4-0.6-0.5-0.9c-0.1-0.4-0.2-0.8-0.2-1.3
			c0-0.5,0.1-0.9,0.2-1.3l0,0v0c0.1-0.4,0.3-0.7,0.6-0.9l0,0c0.2-0.3,0.5-0.4,0.8-0.6l0,0l0,0C1000.2-24.9,1000.6-25,1001-25z
			 M1008-11h-1c0-0.9-0.1-1.3-0.2-1.8c-0.2-0.5-0.4-0.9-0.8-1.2c-0.8-0.6-2.1-0.9-4.9-0.9s-4.2,0.3-5,0.9c-0.4,0.3-0.7,0.7-0.8,1.2
			c-0.2,0.5-0.2,1-0.2,1.8l-1,0c0-0.9,0.1-1.4,0.3-2.1c0.2-0.7,0.6-1.3,1.2-1.7c1.2-0.9,2.7-1.1,5.6-1.1s4.4,0.3,5.5,1.1
			c0.6,0.4,1,1,1.2,1.7C1007.9-12.4,1008-11.9,1008-11L1008-11z"/>
	</g>
</g>
</svg>
