<?xml version="1.0" encoding="utf-8"?>
<!-- Generator: Adobe Illustrator 23.0.0, SVG Export Plug-In . SVG Version: 6.00 Build 0)  -->
<svg version="1.1" id="Layer_1" xmlns="http://www.w3.org/2000/svg" xmlns:xlink="http://www.w3.org/1999/xlink" x="0px" y="0px"
	 viewBox="0 0 16 16" style="enable-background:new 0 0 16 16;" xml:space="preserve">
<style type="text/css">
	.st0{clip-path:url(#SVGID_2_);fill:#F75049;}
</style>
<g>
	<defs>
		<path id="SVGID_1_" d="M20.6,4.3c-0.1-0.1-0.3,0-0.6-0.2c-0.2-0.2-0.2-0.3-0.3-0.4c-0.4-0.2-1.3,0.5-1.3,0.5c0,0,0.4-0.3,0.7-0.7
			c0.2-0.2,0.6-0.7,0.5-1c-0.1-0.2-0.3-0.2-0.3-0.3c0-0.3,0.5-0.4,0.4-0.7c0-0.2-0.2-0.3-0.3-0.3c-0.3-0.1-0.8,0.2-0.8,0.2
			c0,0,0.3-0.2,0.4-0.5c0-0.1,0.2-0.3,0.1-0.5c-0.1-0.1-0.3-0.1-0.4-0.1c-0.1,0-0.2,0.1-0.2,0c0,0,0-0.1,0-0.2
			c0-0.2-0.3-0.3-0.6-0.3c-0.5,0-0.9,0.5-1,0.4c-0.1-0.1,0.5-0.5,0.4-0.9c0-0.1-0.2-0.3-0.4-0.3c-0.3,0-0.4,0.3-0.5,0.3
			c-0.1-0.1,0.1-0.7-0.1-0.9c-0.1-0.1-0.3,0.1-0.6,0c-0.2-0.1-0.2-0.1-0.3-0.2c-0.3-0.1-0.8,0.4-1.3,0.9C14-0.6,13.6-0.3,13.1,0
			c0.3-0.3,0.5-0.6,0.7-0.7c0.4-0.4,0.6-0.6,0.6-0.9c0-0.1,0-0.4-0.2-0.4c-0.2-0.1-0.4,0.2-1.1,0.6c-0.2,0.1-0.3,0.2-0.4,0.3
			c0,0,0.3-0.4,0.2-0.7c0,0-0.1-0.2-0.2-0.3c-0.4-0.3-1.1-0.2-1.2-0.2C10.7-2.2,10.5-1.6,9.4-1c0,0-0.1,0.1-0.3,0.2
			C8.7-0.6,8.5-0.5,8.4-0.5C8.1-0.3,7.9-0.2,7.8,0.1C7.7,0.4,7.8,0.5,7.6,0.7C7.5,0.8,7.3,0.9,7.3,0.9C6.7,1,5.9,2.1,5.8,2.2
			C5.4,2.8,4.1,4.1,0.6,7.3c4.7-5,6.2-6.6,6.2-6.7c0,0,0,0,0,0c0-0.1,0.2-0.4,0-0.6C6.8-0.1,6.7,0,6.6-0.2c0,0,0-0.1,0-0.1
			C6.6-0.5,7-0.5,7-0.6c0,0-0.1-0.1-0.2-0.1C6.5-0.8,6.5-0.9,6.4-1C6.1-1,5.9-0.9,5.7-0.8C5.5-0.7,5.4-0.6,5.3-0.6c0,0,0-0.2,0-0.3
			C5.2-1,5.1-1,5-1c-0.3,0-0.5,0.3-0.6,0.2c-0.1,0,0-0.2-0.1-0.3C4.2-1.2,4.1-1.1,3.9-1.2C3.8-1.4,3.8-1.5,3.6-1.8
			C3.6-1.9,3.4-2,3.2-2.1C3-2.2,2.9-2.1,2.7-2.2C2.5-2.2,2.5-2.4,2.2-2.4c-0.2,0-0.3,0-0.4,0.1C1.5-2.2,1.5-2.1,1.3-2
			C1.2-2,1.1-2.2,0.8-2.3c-0.1,0-0.2,0-0.3,0c-0.1,0.1,0,0.4-0.1,0.5c-0.1,0.1-0.2,0.1-0.3,0C0.1-1.8,0.1-1.9,0-2
			c-0.2-0.2-1.1,0.1-1.4,0.6c0,0.1-0.1,0.2-0.2,0.3c-0.2,0.1-0.3,0-0.5,0c-0.3,0-0.5,0.2-1.1,1c0,0-0.1,0.1-0.6,0.6
			c-0.9,1-1,1.1-1.1,1.4c0,0.5,0,0.7,0,0.7c0,0.1,0.1,0.3,0,0.4c-0.1,0.1-0.1,0-0.2,0.1c-0.1,0.1,0.1,0.4,0,0.8c0,0,0,0,0,0.3
			C-5,4.7-5,4.8-4.9,4.9c0.1,0.1,0.2,0.1,0.3,0.1c0.2,0,0.3-0.1,0.4-0.1c0.4-0.5,0.8-0.9,1.1-1.4C-3.3,3.8-3.5,4-3.6,4.2
			c-0.2,0.2-0.3,0.4-0.5,0.7c0,0.1-0.1,0.2-0.2,0.4C-4.3,5.5-4.4,5.8-4.3,6c0,0.1,0.1,0.2,0.1,0.3c0,0.2,0,0.3,0,0.4
			C-4.1,6.8-4,6.8-4,6.9c0.1,0.1,0,0.3,0,0.6c0,0.2,0.1,0.1,0.1,0.3c0.1,0.3-0.1,0.4,0,0.7c0,0.1,0,0.2,0.1,0.3
			c0.1,0.1,0.4-0.1,0.6,0C-3,8.8-3.1,9.1-2.9,9.1c0.1,0,0.2-0.1,0.4,0c0,0,0.3,0,0.3,0.1c0,0.1-0.1,0.3-0.3,0.4
			c-0.4,0.2-0.8-0.1-0.9,0c0,0.1,0.1,0.2,0.2,0.3c1,0.9,1,1,1.3,1.2c0.3,0.2,0.3,0.1,0.7,0.3c0.5,0.3,1.1,0.6,1.1,1
			c0,0.2-0.2,0.3-0.1,0.6c0,0.2,0.1,0.5,0.3,0.6c0.2,0.1,0.3-0.1,0.6-0.1c0.3,0,0.3,0.2,0.6,0.3c0.4,0,0.5-0.4,0.8-0.4
			c0.2,0,0.2,0.2,0.4,0.3c0.2,0.1,0.4,0,0.5,0c1-1.1,2.6-2.7,4.6-4.8c1.6-1.7,2.1-2.2,3-3.1c2.6-2.5,5.4-4.5,5.5-4.3
			c0.1,0.1-1.2,1.3-5.5,5.4c-3,2.8-5.4,5.2-7.1,6.8c0,0.3,0.1,0.5,0.2,0.5c0.2,0.1,0.5-0.2,0.8,0c0.1,0.1,0.3,0.2,0.3,0.4
			c0,0.2,0,0.3,0.1,0.4c0.1,0.1,0.1,0,0.2,0.1c0.2,0.2,0.1,0.3,0.3,0.5c0.2,0.1,0.4,0,0.4,0.2c0,0.1,0,0.1,0,0.3
			c0,0.1,0.2,0.1,0.2,0.3c0,0.2-0.3,0.3-0.3,0.6c0,0.2,0.1,0.2,0.1,0.5c0,0.5-0.6,0.6-0.5,0.9c0,0.2,0.2,0.4,0.4,0.5
			c0.3,0,0.5-0.4,0.8-0.4c0.4,0,0.6,0.6,0.9,0.5c0.3,0,0.3-0.4,0.6-0.4c0.2,0,0.3,0.1,0.4,0c0.1-0.1,0.1-0.2,0.3-0.3
			c0.1,0,0.1,0,0.2,0c0.2,0,0.6-0.4,0.7-0.8c0.1-0.4,0-0.5,0.2-0.8c0.1-0.2,0.3-0.3,0.4-0.4c0.5-0.4,1.2-1,1.8-1.6
			c0.8-0.8,0.9-1.1,1.5-1.4c0.1,0,0.3-0.1,0.5-0.3c0.3-0.3,0.4-0.6,0.6-0.8c0.4-0.8,0.8-0.8,1.7-2c0-0.1,0.2-0.3,0.2-0.4
			c-0.1-0.1-1.2,1.1-1.4,1c-0.1-0.1-0.1-0.2-0.1-0.2c0.1-0.6,0.8-0.8,1.9-1.7c0.3-0.2,0.2-0.2,0.5-0.5c0.8-0.7,1.7-1.3,2-1.7
			c0.1-0.3,0.2-0.6,0.2-0.6c0-0.1,0-0.1,0.1-0.2c0.1-0.3,0.2-0.4,0.7-0.9C20.6,4.5,20.7,4.4,20.6,4.3z M3.7,3.5
			C3.3,3.9,3,4.2,2.7,4.4c0.2-0.3,0.4-0.6,0.8-0.9C3.7,3.3,3.8,3.2,4,3.1C3.9,3.2,3.8,3.4,3.7,3.5z M3.4,2.3c0.5-0.5,1-1,1.4-1.4
			c-0.3,0.5-0.8,1-1.3,1.5C3.3,2.7,2.9,3,2.6,3.2C2.9,2.9,3.1,2.6,3.4,2.3z M-2.1,2.3C-2,2.1-1.9,1.8-1.7,1.6
			c0.1-0.1,0.2-0.2,0.2-0.2c0,0.1-0.1,0.2-0.2,0.3C-1.8,1.9-2,2.1-2.1,2.3z M-1.3,10.4c-0.1,0.1-0.2,0.2-0.3,0.2c0,0,0-0.2,0.1-0.3
			c0.1-0.1,0.3-0.2,0.3-0.2C-1.2,10.2-1.2,10.3-1.3,10.4z M-1.6,5.7C-1.3,5.4-1,5-0.6,4.6c0,0.1,0,0.2,0,0.3
			C-0.9,5.1-1.3,5.5-1.6,5.7z M0.1,11.8c0,0-0.2-0.2-0.5-0.6c-0.1-0.1-0.2-0.2-0.2-0.3c0-0.1,0.1-0.1,0.2-0.2
			c0.1-0.1,0.3-0.2,0.4-0.5c0,0.2-0.1,0.3-0.1,0.4c0,0.1-0.1,0.2-0.1,0.3C-0.1,11,0,11,0,11c0.1,0.1,0,0.2,0,0.3
			C0,11.6,0.2,11.7,0.1,11.8z M0,0.5c0.1-0.2,0.2-0.4,0.4-0.6c0.1-0.1,0.2-0.2,0.2-0.2c0,0.1-0.1,0.2-0.2,0.3C0.4,0.1,0.2,0.3,0,0.5
			z M2.8,7.1c1-1.3,2.3-2.8,3.8-4.2c1.1-1.1,2.2-2,3.2-2.8C9.1,0.7,8.4,1.5,7.6,2.2C6,3.8,4.4,5.5,2.8,7.1z M7.8,2.8
			c0.8-0.8,1.6-1.5,2.4-2c-0.4,0.5-0.9,1-1.4,1.6C7.6,3.6,6.5,4.7,5.4,5.7C6,4.9,6.7,3.9,7.8,2.8z M9.6,4.6c1.1-0.9,2.2-1.8,3.2-2.6
			c-0.7,0.7-1.4,1.4-2.2,2.1C9,5.6,7.5,6.9,6,8C7.1,6.9,8.3,5.8,9.6,4.6z M11.3,4.8C9.7,6.2,8.2,7.5,6.7,8.6C7.8,7.5,9,6.4,10.3,5.2
			c1.1-0.9,2.2-1.8,3.2-2.6C12.8,3.3,12.1,4,11.3,4.8z M17.1,3.2c-0.7,0.7-1.4,1.4-2.2,2.1c-1.6,1.4-3.1,2.7-4.6,3.8
			c1.1-1.1,2.3-2.2,3.6-3.4C14.9,4.9,16,4,17.1,3.2z M7.6,11c1.4-1.7,3.1-3.5,5.1-5.3c0.9-0.8,1.8-1.5,2.6-2.2c-1,1-1.9,1.9-2.9,2.9
			C10.8,7.9,9.2,9.4,7.6,11z M7.9,12.6c1.6-1.5,3.2-3.1,5-4.7c1.4-1.3,2.8-2.4,4.2-3.5c-1.1,1.1-2.3,2.1-3.4,3.2
			C11.8,9.3,9.8,11,7.9,12.6z M8.2,13.6c1.1-1.3,2.5-2.7,4.1-4.1c1.4-1.2,2.7-2.2,4-3c-1.1,1-2.2,1.9-3.3,2.9
			C11.4,10.8,9.8,12.2,8.2,13.6z M16.3,7.9c-1.2,1.1-2.4,2.1-3.6,3c0.2-0.2,0.4-0.4,0.6-0.6c0.8-0.7,1.5-1.4,2.2-2.1
			c-0.1,0.1-0.2,0.1-0.3,0.2c-0.1,0-0.1,0.1-0.2,0.2c-1.3,1.1-2.4,2.2-3.5,3.3c-0.9,0.8-1.8,1.5-2.7,2.1c1.1-1.1,2.3-2.2,3.6-3.4
			c1-0.9,2-1.7,2.9-2.4c1-0.9,2.1-1.7,3-2.5C17.8,6.5,17,7.2,16.3,7.9z"/>
	</defs>
	<clipPath id="SVGID_2_">
		<use xlink:href="#SVGID_1_"  style="overflow:visible;"/>
	</clipPath>
	<path class="st0" d="M11.1,9.8L11.1,9.8l-0.7,2h1.4L11.1,9.8z M11.1,9.8L11.1,9.8l-0.7,2h1.4L11.1,9.8z M15,6.2H9.8V1
		c0-0.6-0.5-1-1-1H1C0.5,0,0,0.5,0,1v7.8c0,0.6,0.5,1,1,1h1.4v1.8l1.8,1.8h1.8V15c0,0.6,0.5,1,1,1H15c0.6,0,1-0.5,1-1V7.2
		C16,6.6,15.5,6.2,15,6.2z M6.2,11.7H4.3V9.8h1.8V11.7z M6.6,6.4C6.3,6.2,6.1,6.1,5.9,5.9c0.5-0.6,1-1.2,1.4-1.9
		c0-0.1,0.1-0.2,0.1-0.3H8V2.5H5.5V1.8H4.3v0.6H1.8v1.2h1.3C3,3.8,2.9,3.9,2.8,4c-0.1,0.2-0.1,0.3,0,0.5c0,0,0.2,0.4,0.7,1
		C3.6,5.7,3.8,5.8,3.9,6C3.1,6.6,2.3,6.9,2.3,6.9C2.1,7,1.9,7.1,1.9,7.4s0,0.5,0.2,0.6c0.2,0.1,0.4,0.2,0.6,0.1c0,0,1-0.4,2.2-1.3
		C5.2,7,5.6,7.2,6,7.5c0,0,0.1,0.1,0.2,0.1v1.1H3.7L3.4,8.3L3.1,8.6H1.2V1.2h7.4v4.9H7.2C7,6.2,6.7,6.2,6.6,6.4z M4.9,5.2
		C4.7,5,4.6,4.9,4.4,4.7C4,4.3,3.9,4,3.9,4C3.9,3.9,3.7,3.8,3.6,3.7H6C5.7,4.2,5.3,4.7,4.9,5.2z M12.5,13.9l-0.4-1.2h-2l-0.4,1.2
		H8.3l2.1-5.7h1.3l2.1,5.7H12.5z M11.1,9.8l-0.7,2h1.4L11.1,9.8L11.1,9.8z"/>
	<polygon class="st0" points="11.8,11.8 10.4,11.8 11.1,9.8 11.1,9.8 	"/>
	<polygon class="st0" points="11.8,11.8 10.4,11.8 11.1,9.8 11.1,9.8 	"/>
</g>
</svg>
