<?xml version="1.0" encoding="utf-8"?>
<!-- Generator: Adobe Illustrator 23.0.0, SVG Export Plug-In . SVG Version: 6.00 Build 0)  -->
<svg version="1.1" id="Layer_1" xmlns="http://www.w3.org/2000/svg" xmlns:xlink="http://www.w3.org/1999/xlink" x="0px" y="0px"
	 viewBox="0 0 16 16" style="enable-background:new 0 0 16 16;" xml:space="preserve">
<style type="text/css">
	.st0{fill:#F75049;}
	.st1{clip-path:url(#SVGID_2_);fill:#F75049;}
</style>
<polygon class="st0" points="4,5 5,5 5,6 6,6 6,7 5,7 5,8 4,8 4,7 3,7 3,6 4,6 "/>
<path class="st0" d="M10.5,6C10.8,6,11,6.2,11,6.5C11,6.8,10.8,7,10.5,7c-0.1,0-0.3-0.1-0.4-0.1C10,6.8,10,6.7,10,6.5
	C10,6.2,10.2,6,10.5,6z"/>
<g>
	<defs>
		<path id="SVGID_1_" d="M20.8,5.6c-0.1-0.1-0.3,0-0.6-0.2C20,5.2,20,5,19.9,5c-0.4-0.2-1.3,0.5-1.3,0.5c0,0,0.4-0.3,0.7-0.7
			c0.2-0.2,0.6-0.7,0.5-1c-0.1-0.2-0.3-0.2-0.3-0.3C19.5,3.2,20,3,20,2.7c0-0.2-0.2-0.3-0.3-0.3c-0.3-0.1-0.8,0.2-0.8,0.2
			c0,0,0.3-0.2,0.4-0.5c0-0.1,0.2-0.3,0.1-0.5c-0.1-0.1-0.3-0.1-0.4-0.1c-0.1,0-0.2,0.1-0.2,0c0,0,0-0.1,0-0.2
			c0-0.2-0.3-0.3-0.6-0.3c-0.5,0-0.9,0.5-1,0.4c-0.1-0.1,0.5-0.5,0.4-0.9c0-0.1-0.2-0.3-0.4-0.3c-0.3,0-0.4,0.3-0.5,0.3
			c-0.1-0.1,0.1-0.7-0.1-0.9c-0.1-0.1-0.3,0.1-0.6,0c-0.2-0.1-0.2-0.1-0.3-0.2c-0.3-0.1-0.8,0.4-1.3,0.9c-0.2,0.2-0.6,0.5-1.1,0.8
			c0.3-0.3,0.5-0.6,0.7-0.7c0.4-0.4,0.6-0.6,0.6-0.9c0-0.1,0-0.4-0.2-0.4c-0.2-0.1-0.4,0.2-1.1,0.6C13.1-0.1,13,0,12.9,0.1
			c0,0,0.3-0.4,0.2-0.7c0,0-0.1-0.2-0.2-0.3c-0.4-0.3-1.1-0.2-1.2-0.2c-0.9,0.2-1.1,0.8-2.1,1.3c0,0-0.1,0.1-0.3,0.2
			C8.8,0.7,8.6,0.8,8.6,0.9C8.3,1,8.1,1.2,8,1.4C7.9,1.7,7.9,1.9,7.8,2C7.6,2.2,7.5,2.2,7.4,2.2C6.8,2.4,6.1,3.4,6,3.5
			C5.6,4.1,4.3,5.4,0.8,8.6C5.5,3.6,7,2,7,1.9c0,0,0,0,0,0c0-0.1,0.2-0.4,0-0.6C7,1.3,6.8,1.3,6.8,1.2c0,0,0-0.1,0-0.1
			c0-0.2,0.4-0.2,0.4-0.3c0,0-0.1-0.1-0.2-0.1C6.7,0.5,6.7,0.4,6.5,0.4C6.3,0.3,6,0.4,5.9,0.5C5.7,0.6,5.5,0.8,5.5,0.7
			c0,0,0-0.2,0-0.3C5.4,0.4,5.2,0.4,5.2,0.4c-0.3,0-0.5,0.3-0.6,0.2c-0.1,0,0-0.2-0.1-0.3C4.4,0.2,4.2,0.2,4.1,0.1
			C3.9,0,4-0.2,3.8-0.4C3.7-0.5,3.6-0.7,3.4-0.8c-0.2-0.1-0.3,0-0.5-0.1C2.6-0.9,2.6-1.1,2.4-1.1C2.2-1.1,2.1-1.1,2-1
			C1.7-0.9,1.7-0.7,1.5-0.7C1.3-0.7,1.3-0.9,1-1c-0.1,0-0.2,0-0.3,0c-0.1,0.1,0,0.4-0.1,0.5c-0.1,0.1-0.2,0.1-0.3,0
			C0.2-0.5,0.2-0.6,0.2-0.7C0-0.9-0.9-0.6-1.2,0c0,0.1-0.1,0.2-0.2,0.3c-0.2,0.1-0.3,0-0.5,0c-0.3,0-0.5,0.2-1.1,1
			c0,0-0.1,0.1-0.6,0.6c-0.9,1-1,1.1-1.1,1.4c0,0.5,0,0.7,0,0.7c0,0.1,0.1,0.3,0,0.4c-0.1,0.1-0.1,0-0.2,0.1c-0.1,0.1,0.1,0.4,0,0.8
			c0,0,0,0,0,0.3c-0.1,0.5-0.1,0.6,0,0.7c0.1,0.1,0.2,0.1,0.3,0.1c0.2,0,0.3-0.1,0.4-0.1C-3.8,5.7-3.4,5.3-3,4.8
			c-0.2,0.3-0.3,0.6-0.4,0.7c-0.2,0.2-0.3,0.4-0.5,0.7C-4,6.3-4,6.5-4.1,6.6c-0.1,0.2-0.2,0.5-0.1,0.8C-4.1,7.5-4,7.5-4,7.7
			c0,0.2,0,0.3,0,0.4c0,0.1,0.1,0.1,0.2,0.1c0.1,0.1,0,0.3,0,0.6c0,0.2,0.1,0.1,0.1,0.3c0.1,0.3-0.1,0.4,0,0.7c0,0.1,0,0.2,0.1,0.3
			c0.1,0.1,0.4-0.1,0.6,0c0.2,0.1,0.1,0.3,0.3,0.4c0.1,0,0.2-0.1,0.4,0c0,0,0.3,0,0.3,0.1c0,0.1-0.1,0.3-0.3,0.4
			c-0.4,0.2-0.8-0.1-0.9,0c0,0.1,0.1,0.2,0.2,0.3c1,0.9,1,1,1.3,1.2c0.3,0.2,0.3,0.1,0.7,0.3c0.5,0.3,1.1,0.6,1.1,1
			C0.2,14,0,14.1,0,14.4c0,0.2,0.1,0.5,0.3,0.6c0.2,0.1,0.3-0.1,0.6-0.1c0.3,0,0.3,0.2,0.6,0.3c0.4,0,0.5-0.4,0.8-0.4
			c0.2,0,0.2,0.2,0.4,0.3c0.2,0.1,0.4,0,0.5,0c1-1.1,2.6-2.7,4.6-4.8c1.6-1.7,2.1-2.2,3-3.1c2.6-2.5,5.4-4.5,5.5-4.3
			c0.1,0.1-1.2,1.3-5.5,5.4c-3,2.8-5.4,5.2-7.1,6.8c0,0.3,0.1,0.5,0.2,0.5c0.2,0.1,0.5-0.2,0.8,0C4.8,15.6,5,15.7,5.1,16
			c0,0.2,0,0.3,0.1,0.4c0.1,0.1,0.1,0,0.2,0.1c0.2,0.2,0.1,0.3,0.3,0.5C5.8,17.1,6,17,6,17.1c0,0.1,0,0.1,0,0.3
			c0,0.1,0.2,0.1,0.2,0.3c0,0.2-0.3,0.3-0.3,0.6c0,0.2,0.1,0.2,0.1,0.5c0,0.5-0.6,0.6-0.5,0.9c0,0.2,0.2,0.4,0.4,0.5
			c0.3,0,0.5-0.4,0.8-0.4c0.4,0,0.6,0.6,0.9,0.5c0.3,0,0.3-0.4,0.6-0.4c0.2,0,0.3,0.1,0.4,0c0.1-0.1,0.1-0.2,0.3-0.3
			c0.1,0,0.1,0,0.2,0c0.2,0,0.6-0.4,0.7-0.8c0.1-0.4,0-0.5,0.2-0.8c0.1-0.2,0.3-0.3,0.4-0.4c0.5-0.4,1.2-1,1.8-1.6
			c0.8-0.8,0.9-1.1,1.5-1.4c0.1,0,0.3-0.1,0.5-0.3c0.3-0.3,0.4-0.6,0.6-0.8c0.4-0.8,0.8-0.8,1.7-2c0-0.1,0.2-0.3,0.2-0.4
			c-0.1-0.1-1.2,1.1-1.4,1c-0.1-0.1-0.1-0.2-0.1-0.2c0.1-0.6,0.8-0.8,1.9-1.7c0.3-0.2,0.2-0.2,0.5-0.5c0.8-0.7,1.7-1.3,2-1.7
			c0.1-0.3,0.2-0.6,0.2-0.6c0-0.1,0-0.1,0.1-0.2c0.1-0.3,0.2-0.4,0.7-0.9C20.7,5.8,20.8,5.7,20.8,5.6z M3.8,4.8
			C3.5,5.2,3.2,5.5,2.9,5.7C3,5.4,3.3,5.1,3.7,4.8C3.8,4.6,4,4.5,4.1,4.5C4,4.6,3.9,4.7,3.8,4.8z M3.6,3.6c0.5-0.5,1-1,1.4-1.4
			c-0.3,0.5-0.8,1-1.3,1.5C3.4,4,3.1,4.3,2.8,4.6C3,4.3,3.3,4,3.6,3.6z M-2,3.6C-1.9,3.4-1.8,3.2-1.5,3c0.1-0.1,0.2-0.2,0.2-0.2
			c0,0.1-0.1,0.2-0.2,0.3C-1.6,3.3-1.8,3.4-2,3.6z M-1.1,11.7c-0.1,0.1-0.2,0.2-0.3,0.2c0,0,0-0.2,0.1-0.3c0.1-0.1,0.3-0.2,0.3-0.2
			C-1,11.5-1,11.6-1.1,11.7z M-1.5,7.1c0.3-0.4,0.7-0.8,1-1.2c0,0.1,0,0.2,0,0.3C-0.8,6.5-1.1,6.8-1.5,7.1z M0.3,13.1
			c0,0-0.2-0.2-0.5-0.6c-0.1-0.1-0.2-0.2-0.2-0.3c0-0.1,0.1-0.1,0.2-0.2c0.1-0.1,0.3-0.2,0.4-0.5c0,0.2-0.1,0.3-0.1,0.4
			c0,0.1-0.1,0.2-0.1,0.3c0,0.1,0.1,0,0.1,0.1c0.1,0.1,0,0.2,0,0.3C0.1,12.9,0.3,13.1,0.3,13.1z M0.2,1.8c0.1-0.2,0.2-0.4,0.4-0.6
			C0.7,1.1,0.8,1,0.9,1c0,0.1-0.1,0.2-0.2,0.3C0.5,1.5,0.3,1.7,0.2,1.8z M3,8.4c1-1.3,2.3-2.8,3.8-4.2C7.9,3.1,9,2.2,10,1.4
			C9.3,2.1,8.5,2.8,7.8,3.5C6.1,5.2,4.5,6.8,3,8.4z M7.9,4.2c0.8-0.8,1.6-1.5,2.4-2c-0.4,0.5-0.9,1-1.4,1.6C7.8,4.9,6.6,6.1,5.5,7.1
			C6.1,6.2,6.9,5.2,7.9,4.2z M9.7,6C10.8,5,11.9,4.1,13,3.3c-0.7,0.7-1.4,1.4-2.2,2.1C9.2,6.9,7.6,8.2,6.1,9.3
			C7.2,8.2,8.4,7.1,9.7,6z M11.4,6.1C9.9,7.5,8.3,8.8,6.8,9.9c1.1-1.1,2.3-2.2,3.6-3.4c1.1-0.9,2.2-1.8,3.2-2.6
			C13,4.7,12.2,5.4,11.4,6.1z M17.2,4.5C16.5,5.3,15.8,6,15,6.7c-1.6,1.4-3.1,2.7-4.6,3.8c1.1-1.1,2.3-2.2,3.6-3.4
			C15.1,6.2,16.2,5.3,17.2,4.5z M7.7,12.3c1.4-1.7,3.1-3.5,5.1-5.3c0.9-0.8,1.8-1.5,2.6-2.2c-1,1-1.9,1.9-2.9,2.9
			C11,9.2,9.3,10.8,7.7,12.3z M8.1,13.9c1.6-1.5,3.2-3.1,5-4.7c1.4-1.3,2.8-2.4,4.2-3.5c-1.1,1.1-2.3,2.1-3.4,3.2
			C11.9,10.7,10,12.3,8.1,13.9z M8.3,14.9c1.1-1.3,2.5-2.7,4.1-4.1c1.4-1.2,2.7-2.2,4-3c-1.1,1-2.2,1.9-3.3,2.9
			C11.6,12.1,10,13.5,8.3,14.9z M16.4,9.2c-1.2,1.1-2.4,2.1-3.6,3c0.2-0.2,0.4-0.4,0.6-0.6c0.8-0.7,1.5-1.4,2.2-2.1
			c-0.1,0.1-0.2,0.1-0.3,0.2c-0.1,0-0.1,0.1-0.2,0.2c-1.3,1.1-2.4,2.2-3.5,3.3c-0.9,0.8-1.8,1.5-2.7,2.1c1.1-1.1,2.3-2.2,3.6-3.4
			c1-0.9,2-1.7,2.9-2.4c1-0.9,2.1-1.7,3-2.5C17.9,7.8,17.2,8.5,16.4,9.2z"/>
	</defs>
	<clipPath id="SVGID_2_">
		<use xlink:href="#SVGID_1_"  style="overflow:visible;"/>
	</clipPath>
	<path class="st1" d="M3.8,2C3.5,2,3.2,2.1,3,2.2c-1,0.5-2,2.3-2.5,4.7c-0.4,2-0.6,4.7-0.3,5.7C0.4,13.6,0.8,14,1.5,14
		c1,0,2.4-1.2,3.2-2.7C5.3,10.4,6.7,10,8,10c1.3,0,2.7,0.4,3.3,1.2c0.8,1.6,2.1,2.7,3.2,2.7c0.7,0,1.1-0.4,1.3-1.3
		c0.3-1.1,0.1-3.8-0.3-5.7C15,4.6,14.1,2.8,13,2.2c-0.6-0.3-1-0.3-1.5,0C11,2.6,9.9,3,8,3C6.1,3,5,2.6,4.4,2.2C4.2,2.1,4,2,3.8,2
		L3.8,2z"/>
	<path class="st1" d="M11.5,5C11.7,5,12,5.2,12,5.5C12,5.8,11.7,6,11.5,6c-0.1,0-0.3-0.1-0.4-0.1C11,5.8,11,5.7,11,5.5
		C11,5.2,11.2,5,11.5,5z"/>
	<path class="st1" d="M12.5,6C12.7,6,13,6.2,13,6.5C13,6.8,12.7,7,12.5,7c-0.1,0-0.3-0.1-0.4-0.1C12,6.8,12,6.7,12,6.5
		C12,6.2,12.2,6,12.5,6z"/>
	<path class="st1" d="M11.5,7C11.7,7,12,7.2,12,7.5C12,7.8,11.7,8,11.5,8c-0.1,0-0.3-0.1-0.4-0.1C11,7.8,11,7.7,11,7.5
		C11,7.2,11.2,7,11.5,7z"/>
</g>
</svg>
