<?xml version="1.0" encoding="utf-8"?>
<!-- Generator: Adobe Illustrator 23.0.0, SVG Export Plug-In . SVG Version: 6.00 Build 0)  -->
<svg version="1.1" id="Layer_1" xmlns="http://www.w3.org/2000/svg" xmlns:xlink="http://www.w3.org/1999/xlink" x="0px" y="0px"
	 viewBox="0 0 16 16" style="enable-background:new 0 0 16 16;" xml:space="preserve">
<style type="text/css">
	.st0{clip-path:url(#SVGID_2_);fill:#F75049;}
</style>
<g>
	<defs>
		<path id="SVGID_1_" d="M24.8,5c-0.1-0.1-0.3,0-0.6-0.2C24,4.6,24.1,4.4,24,4.3c-0.4-0.2-1.3,0.5-1.3,0.5c0,0,0.4-0.3,0.7-0.7
			c0.2-0.2,0.6-0.7,0.5-1C23.8,3,23.6,3,23.6,2.8c0-0.3,0.5-0.4,0.4-0.7c0-0.2-0.2-0.3-0.3-0.3C23.4,1.6,23,2,22.9,1.9
			c0,0,0.3-0.2,0.4-0.5c0-0.1,0.2-0.3,0.1-0.5c-0.1-0.1-0.3-0.1-0.4-0.1c-0.1,0-0.2,0.1-0.2,0c0,0,0-0.1,0-0.2
			c0-0.2-0.3-0.3-0.6-0.3c-0.5,0-0.9,0.5-1,0.4c-0.1-0.1,0.5-0.5,0.4-0.9c0-0.1-0.2-0.3-0.4-0.3c-0.3,0-0.4,0.3-0.5,0.3
			c-0.1-0.1,0.1-0.7-0.1-0.9c-0.1-0.1-0.3,0.1-0.6,0C19.9-0.9,19.9-1,19.8-1c-0.3-0.1-0.8,0.4-1.3,0.9c-0.2,0.2-0.6,0.5-1.1,0.8
			c0.3-0.3,0.5-0.6,0.7-0.7c0.4-0.4,0.6-0.6,0.6-0.9c0-0.1,0-0.4-0.2-0.4c-0.2-0.1-0.4,0.2-1.1,0.6c-0.2,0.1-0.3,0.2-0.4,0.3
			c0,0,0.3-0.4,0.2-0.7c0,0-0.1-0.2-0.2-0.3c-0.4-0.3-1.1-0.2-1.2-0.2c-0.9,0.2-1.1,0.8-2.1,1.3c0,0-0.1,0.1-0.3,0.2
			c-0.4,0.2-0.6,0.3-0.7,0.4c-0.3,0.2-0.5,0.3-0.6,0.6c-0.1,0.3-0.1,0.4-0.2,0.6c-0.1,0.1-0.3,0.2-0.4,0.2c-0.6,0.2-1.3,1.2-1.4,1.3
			C9.7,3.5,8.4,4.8,4.9,8c4.7-5,6.2-6.6,6.2-6.7c0,0,0,0,0,0c0-0.1,0.2-0.4,0-0.6c-0.1-0.1-0.2,0-0.3-0.1c0,0,0-0.1,0-0.1
			c0-0.2,0.4-0.2,0.4-0.3C11.2,0,11.1,0,11,0c-0.3-0.1-0.3-0.2-0.4-0.2c-0.2-0.1-0.5,0.1-0.7,0.2C9.7,0,9.6,0.1,9.5,0.1
			c0,0,0-0.2,0-0.3C9.5-0.3,9.3-0.2,9.2-0.2C8.9-0.2,8.7,0,8.6,0c-0.1,0,0-0.2-0.1-0.3C8.4-0.5,8.3-0.4,8.2-0.5
			C8-0.7,8.1-0.8,7.9-1.1C7.8-1.2,7.7-1.3,7.5-1.4c-0.2-0.1-0.3,0-0.5-0.1C6.7-1.5,6.7-1.7,6.4-1.7c-0.2,0-0.3,0-0.4,0.1
			C5.7-1.5,5.7-1.3,5.6-1.3C5.4-1.3,5.3-1.5,5-1.6c-0.1,0-0.2,0-0.3,0c-0.1,0.1,0,0.4-0.1,0.5C4.6-1,4.5-1,4.4-1.1
			C4.3-1.1,4.3-1.2,4.3-1.3C4.1-1.5,3.1-1.2,2.8-0.6c0,0.1-0.1,0.2-0.2,0.3c-0.2,0.1-0.3,0-0.5,0c-0.3,0-0.5,0.2-1.1,1
			c0,0-0.1,0.1-0.6,0.6c-0.9,1-1,1.1-1.1,1.4c0,0.5,0,0.7,0,0.7c0,0.1,0.1,0.3,0,0.4c-0.1,0.1-0.1,0-0.2,0.1c-0.1,0.1,0.1,0.4,0,0.8
			c0,0,0,0,0,0.3c-0.1,0.5-0.1,0.6,0,0.7c0.1,0.1,0.2,0.1,0.3,0.1c0.2,0,0.3-0.1,0.4-0.1c0.4-0.5,0.8-0.9,1.1-1.4
			C0.9,4.5,0.7,4.7,0.6,4.9C0.5,5.1,0.3,5.3,0.1,5.6C0.1,5.7,0,5.8,0,6c-0.1,0.2-0.2,0.5-0.1,0.8C0,6.9,0,6.9,0.1,7.1
			c0,0.2,0,0.3,0,0.4c0,0.1,0.1,0.1,0.2,0.1c0.1,0.1,0,0.3,0,0.6c0,0.2,0.1,0.1,0.1,0.3c0.1,0.3-0.1,0.4,0,0.7c0,0.1,0,0.2,0.1,0.3
			c0.1,0.1,0.4-0.1,0.6,0c0.2,0.1,0.1,0.3,0.3,0.4c0.1,0,0.2-0.1,0.4,0c0,0,0.3,0,0.3,0.1c0,0.1-0.1,0.3-0.3,0.4
			c-0.4,0.2-0.8-0.1-0.9,0c0,0.1,0.1,0.2,0.2,0.3c1,0.9,1,1,1.3,1.2c0.3,0.2,0.3,0.1,0.7,0.3c0.5,0.3,1.1,0.6,1.1,1
			c0,0.2-0.2,0.3-0.1,0.6c0,0.2,0.1,0.5,0.3,0.6c0.2,0.1,0.3-0.1,0.6-0.1c0.3,0,0.3,0.2,0.6,0.3c0.4,0,0.5-0.4,0.8-0.4
			c0.2,0,0.2,0.2,0.4,0.3c0.2,0.1,0.4,0,0.5,0c1-1.1,2.6-2.7,4.6-4.8c1.6-1.7,2.1-2.2,3-3.1c2.6-2.5,5.4-4.5,5.5-4.3
			c0.1,0.1-1.2,1.3-5.5,5.4c-3,2.8-5.4,5.2-7.1,6.8c0,0.3,0.1,0.5,0.2,0.5c0.2,0.1,0.5-0.2,0.8,0c0.1,0.1,0.3,0.2,0.3,0.4
			c0,0.2,0,0.3,0.1,0.4c0.1,0.1,0.1,0,0.2,0.1c0.2,0.2,0.1,0.3,0.3,0.5c0.2,0.1,0.4,0,0.4,0.2c0,0.1,0,0.1,0,0.3
			c0,0.1,0.2,0.1,0.2,0.3c0,0.2-0.3,0.3-0.3,0.6c0,0.2,0.1,0.2,0.1,0.5c0,0.5-0.6,0.6-0.5,0.9c0,0.2,0.2,0.4,0.4,0.5
			c0.3,0,0.5-0.4,0.8-0.4c0.4,0,0.6,0.6,0.9,0.5c0.3,0,0.3-0.4,0.6-0.4c0.2,0,0.3,0.1,0.4,0c0.1-0.1,0.1-0.2,0.3-0.3
			c0.1,0,0.1,0,0.2,0c0.2,0,0.6-0.4,0.7-0.8c0.1-0.4,0-0.5,0.2-0.8c0.1-0.2,0.3-0.3,0.4-0.4c0.5-0.4,1.2-1,1.8-1.6
			c0.8-0.8,0.9-1.1,1.5-1.4c0.1,0,0.3-0.1,0.5-0.3c0.3-0.3,0.4-0.6,0.6-0.8c0.4-0.8,0.8-0.8,1.7-2c0-0.1,0.2-0.3,0.2-0.4
			c-0.1-0.1-1.2,1.1-1.4,1C19,11.4,19,11.3,19,11.2c0.1-0.6,0.8-0.8,1.9-1.7c0.3-0.2,0.2-0.2,0.5-0.5c0.8-0.7,1.7-1.3,2-1.7
			c0.1-0.3,0.2-0.6,0.2-0.6c0-0.1,0-0.1,0.1-0.2c0.1-0.3,0.2-0.4,0.7-0.9C24.8,5.2,24.9,5.1,24.8,5z M7.9,4.2
			C7.6,4.6,7.2,4.9,6.9,5.1c0.2-0.3,0.4-0.6,0.8-0.9C7.9,4,8,3.9,8.2,3.8C8.1,4,8,4.1,7.9,4.2z M7.7,3c0.5-0.5,1-1,1.4-1.4
			c-0.3,0.5-0.8,1-1.3,1.5C7.5,3.4,7.2,3.7,6.9,4C7.1,3.6,7.4,3.3,7.7,3z M2.1,3c0.1-0.2,0.2-0.4,0.4-0.6c0.1-0.1,0.2-0.2,0.2-0.2
			c0,0.1-0.1,0.2-0.2,0.3C2.4,2.6,2.3,2.8,2.1,3z M2.9,11.1c-0.1,0.1-0.2,0.2-0.3,0.2c0,0,0-0.2,0.1-0.3c0.1-0.1,0.3-0.2,0.3-0.2
			C3.1,10.9,3,11,2.9,11.1z M2.6,6.5c0.3-0.4,0.7-0.8,1-1.2c0,0.1,0,0.2,0,0.3C3.3,5.9,3,6.2,2.6,6.5z M4.4,12.5
			c0,0-0.2-0.2-0.5-0.6c-0.1-0.1-0.2-0.2-0.2-0.3c0-0.1,0.1-0.1,0.2-0.2C4,11.4,4.2,11.2,4.3,11c0,0.2-0.1,0.3-0.1,0.4
			c0,0.1-0.1,0.2-0.1,0.3c0,0.1,0.1,0,0.1,0.1c0.1,0.1,0,0.2,0,0.3C4.2,12.3,4.4,12.5,4.4,12.5z M4.3,1.2C4.3,1,4.5,0.8,4.7,0.5
			c0.1-0.1,0.2-0.2,0.2-0.2c0,0.1-0.1,0.2-0.2,0.3C4.6,0.9,4.4,1,4.3,1.2z M7.1,7.8c1-1.3,2.3-2.8,3.8-4.2c1.1-1.1,2.2-2,3.2-2.8
			c-0.7,0.7-1.5,1.4-2.2,2.2C10.2,4.5,8.6,6.2,7.1,7.8z M12,3.5c0.8-0.8,1.6-1.5,2.4-2c-0.4,0.5-0.9,1-1.4,1.6
			c-1.1,1.2-2.3,2.4-3.4,3.4C10.2,5.6,11,4.6,12,3.5z M13.8,5.3C14.9,4.4,16,3.5,17,2.7c-0.7,0.7-1.4,1.4-2.2,2.1
			c-1.6,1.4-3.1,2.7-4.6,3.8C11.3,7.6,12.5,6.5,13.8,5.3z M15.5,5.5c-1.6,1.4-3.1,2.7-4.6,3.8c1.1-1.1,2.3-2.2,3.6-3.4
			c1.1-0.9,2.2-1.8,3.2-2.6C17,4,16.3,4.7,15.5,5.5z M21.3,3.9c-0.7,0.7-1.4,1.4-2.2,2.1c-1.6,1.4-3.1,2.7-4.6,3.8
			c1.1-1.1,2.3-2.2,3.6-3.4C19.2,5.6,20.2,4.7,21.3,3.9z M11.8,11.7c1.4-1.7,3.1-3.5,5.1-5.3c0.9-0.8,1.8-1.5,2.6-2.2
			c-1,1-1.9,1.9-2.9,2.9C15,8.6,13.4,10.1,11.8,11.7z M12.2,13.3c1.6-1.5,3.2-3.1,5-4.7c1.4-1.3,2.8-2.4,4.2-3.5
			c-1.1,1.1-2.3,2.1-3.4,3.2C16,10,14.1,11.7,12.2,13.3z M12.4,14.3c1.1-1.3,2.5-2.7,4.1-4.1c1.4-1.2,2.7-2.2,4-3
			c-1.1,1-2.2,1.9-3.3,2.9C15.6,11.5,14,12.9,12.4,14.3z M20.5,8.6c-1.2,1.1-2.4,2.1-3.6,3c0.2-0.2,0.4-0.4,0.6-0.6
			c0.8-0.7,1.5-1.4,2.2-2.1c-0.1,0.1-0.2,0.1-0.3,0.2c-0.1,0-0.1,0.1-0.2,0.2c-1.3,1.1-2.4,2.2-3.5,3.3c-0.9,0.8-1.8,1.5-2.7,2.1
			c1.1-1.1,2.3-2.2,3.6-3.4c1-0.9,2-1.7,2.9-2.4c1-0.9,2.1-1.7,3-2.5C22,7.2,21.3,7.9,20.5,8.6z"/>
	</defs>
	<clipPath id="SVGID_2_">
		<use xlink:href="#SVGID_1_"  style="overflow:visible;"/>
	</clipPath>
	<path class="st0" d="M3.4,4.6H2.9V3.8C3,3.6,3.1,3.5,3.3,3.3c0,0,0.1-0.1,0.1-0.1V4.6z"/>
	<path class="st0" d="M2.4,8h1v1.4c0,0-0.1-0.1-0.1-0.1C3.1,9.1,3,8.9,2.9,8.8V8.6H2.7C2.6,8.4,2.5,8.2,2.4,8z"/>
	<path class="st0" d="M2.3,5.1v2.3H4V5.1H2.3z M3.4,6.9H2.9V5.7h0.6V6.9z"/>
	<path class="st0" d="M4.9,2.3C4.6,2.4,4.3,2.5,4,2.7v1.8h1.7V2.3H4.9z M5.1,4H4.6V2.9h0.6V4z"/>
	<path class="st0" d="M4,8v1.8c0.3,0.2,0.6,0.3,0.9,0.4h0.8V8H4z M5.1,9.7H4.6V8.6h0.6V9.7z"/>
	<polygon class="st0" points="5.7,5.1 5.7,7.4 5.1,7.4 5.1,5.7 4.6,5.7 4.6,5.1 	"/>
	<polygon class="st0" points="6.9,2.9 6.3,2.9 6.3,2.3 7.4,2.3 7.4,4.6 6.9,4.6 	"/>
	<polygon class="st0" points="6.3,8 7.4,8 7.4,10.3 6.9,10.3 6.9,8.6 6.3,8.6 	"/>
	<path class="st0" d="M6.3,5.1v2.3H8V5.1H6.3z M7.4,6.9H6.9V5.7h0.6V6.9z"/>
	<path class="st0" d="M9.3,3.3c0.2,0.2,0.3,0.3,0.4,0.5v0.7H8V2.4c0.3,0.1,0.5,0.3,0.8,0.4H8.6V4h0.6V3.2C9.2,3.2,9.2,3.3,9.3,3.3z"
		/>
	<path class="st0" d="M8,8h1.7v0.7C9.6,8.9,9.4,9.1,9.3,9.3c0,0-0.1,0.1-0.1,0.1V8.6H8.6v1.1h0.2C8.5,9.9,8.3,10,8,10.2V8z"/>
	<polygon class="st0" points="8.6,5.1 9.7,5.1 9.7,7.4 9.2,7.4 9.2,5.7 8.6,5.7 	"/>
	<path class="st0" d="M15.6,13.5l-3.9-3.9c1.5-2.4,1.2-5.7-0.9-7.8C9.5,0.6,7.9,0,6.3,0S3.1,0.6,1.8,1.8c-2.5,2.4-2.5,6.5,0,8.9
		c2.1,2.1,5.3,2.3,7.7,0.9l4,4c0.5,0.5,1.5,0.5,2,0C16.2,15,16.1,14.1,15.6,13.5z M9.5,9.5c-1.8,1.8-4.7,1.8-6.5,0
		c-1.8-1.8-1.8-4.7,0-6.5C4,2.2,5.1,1.7,6.3,1.7c1.2,0,2.3,0.4,3.2,1.3C11.3,4.8,11.3,7.7,9.5,9.5z"/>
	<path class="st0" d="M3.4,4.6H2.9V3.8C3,3.6,3.1,3.5,3.3,3.3c0,0,0.1-0.1,0.1-0.1V4.6z"/>
	<path class="st0" d="M2.4,8h1v1.4c0,0-0.1-0.1-0.1-0.1C3.1,9.1,3,8.9,2.9,8.8V8.6H2.7C2.6,8.4,2.5,8.2,2.4,8z"/>
	<path class="st0" d="M2.3,5.1v2.3H4V5.1H2.3z M3.4,6.9H2.9V5.7h0.6V6.9z"/>
	<path class="st0" d="M4.9,2.3C4.6,2.4,4.3,2.5,4,2.7v1.8h1.7V2.3H4.9z M5.1,4H4.6V2.9h0.6V4z"/>
	<path class="st0" d="M4,8v1.8c0.3,0.2,0.6,0.3,0.9,0.4h0.8V8H4z M5.1,9.7H4.6V8.6h0.6V9.7z"/>
	<polygon class="st0" points="5.7,5.1 5.7,7.4 5.1,7.4 5.1,5.7 4.6,5.7 4.6,5.1 	"/>
	<polygon class="st0" points="6.9,2.9 6.3,2.9 6.3,2.3 7.4,2.3 7.4,4.6 6.9,4.6 	"/>
	<polygon class="st0" points="6.3,8 7.4,8 7.4,10.3 6.9,10.3 6.9,8.6 6.3,8.6 	"/>
	<path class="st0" d="M6.3,5.1v2.3H8V5.1H6.3z M7.4,6.9H6.9V5.7h0.6V6.9z"/>
	<path class="st0" d="M9.7,4.6H8V2.4c0.3,0.1,0.5,0.3,0.8,0.4H8.6V4h0.6V3.2c0,0,0.1,0.1,0.1,0.1c0.2,0.2,0.3,0.3,0.4,0.5V4.6z"/>
	<path class="st0" d="M8,8h1.7v0.7C9.6,8.9,9.4,9.1,9.3,9.3c0,0-0.1,0.1-0.1,0.1V8.6H8.6v1.1h0.2C8.5,9.9,8.3,10,8,10.2V8z"/>
	<polygon class="st0" points="9.7,5.1 9.7,7.4 9.2,7.4 9.2,5.7 8.6,5.7 8.6,5.1 	"/>
	<path class="st0" d="M4.9,2.3C4.6,2.4,4.3,2.5,4,2.7v1.8h1.7V2.3H4.9z M5.1,4H4.6V2.9h0.6V4z"/>
	<polygon class="st0" points="7.4,2.3 7.4,4.6 6.9,4.6 6.9,2.9 6.3,2.9 6.3,2.3 	"/>
	<path class="st0" d="M9.7,3.8v0.7H8V2.4c0.3,0.1,0.5,0.3,0.8,0.4H8.6V4h0.6V3.2c0,0,0.1,0.1,0.1,0.1C9.4,3.5,9.6,3.6,9.7,3.8z"/>
	<path class="st0" d="M3.4,3.2v1.4H2.9V3.8C3,3.6,3.1,3.5,3.3,3.3C3.3,3.3,3.4,3.2,3.4,3.2z"/>
	<path class="st0" d="M2.3,5.1v2.3H4V5.1H2.3z M3.4,6.9H2.9V5.7h0.6V6.9z"/>
	<polygon class="st0" points="5.7,5.1 5.7,7.4 5.1,7.4 5.1,5.7 4.6,5.7 4.6,5.1 	"/>
	<path class="st0" d="M6.3,5.1v2.3H8V5.1H6.3z M7.4,6.9H6.9V5.7h0.6V6.9z"/>
	<polygon class="st0" points="9.7,5.1 9.7,7.4 9.2,7.4 9.2,5.7 8.6,5.7 8.6,5.1 	"/>
	<path class="st0" d="M3.4,8v1.4c0,0-0.1-0.1-0.1-0.1C3.1,9.1,3,8.9,2.9,8.8V8.6H2.7C2.6,8.4,2.5,8.2,2.4,8H3.4z"/>
	<path class="st0" d="M4,8v1.8c0.3,0.2,0.6,0.3,0.9,0.4h0.8V8H4z M5.1,9.7H4.6V8.6h0.6V9.7z"/>
	<polygon class="st0" points="7.4,8 7.4,10.3 6.9,10.3 6.9,8.6 6.3,8.6 6.3,8 	"/>
	<path class="st0" d="M9.7,8v0.7C9.6,8.9,9.4,9.1,9.3,9.3c0,0-0.1,0.1-0.1,0.1V8.6H8.6v1.1h0.2C8.5,9.9,8.3,10,8,10.2V8H9.7z"/>
</g>
</svg>
