<?xml version="1.0" encoding="utf-8"?>
<!-- Generator: Adobe Illustrator 23.0.0, SVG Export Plug-In . SVG Version: 6.00 Build 0)  -->
<svg version="1.1" id="Layer_1" xmlns="http://www.w3.org/2000/svg" xmlns:xlink="http://www.w3.org/1999/xlink" x="0px" y="0px"
	 viewBox="0 0 16 16" style="enable-background:new 0 0 16 16;" xml:space="preserve">
<style type="text/css">
	.st0{clip-path:url(#SVGID_2_);}
	.st1{fill:#F75049;}
</style>
<g>
	<defs>
		<path id="SVGID_1_" d="M21.7,4.7c-0.1-0.1-0.3,0-0.6-0.2C20.9,4.3,21,4.1,20.8,4c-0.4-0.2-1.3,0.5-1.3,0.5c0,0,0.4-0.3,0.7-0.7
			c0.2-0.2,0.6-0.7,0.5-1c-0.1-0.2-0.3-0.2-0.3-0.3c0-0.3,0.5-0.4,0.4-0.7c0-0.2-0.2-0.3-0.3-0.3c-0.3-0.1-0.8,0.2-0.8,0.2
			c0,0,0.3-0.2,0.4-0.5c0-0.1,0.2-0.3,0.1-0.5c-0.1-0.1-0.3-0.1-0.4-0.1c-0.1,0-0.2,0.1-0.2,0c0,0,0-0.1,0-0.2
			c0-0.2-0.3-0.3-0.6-0.3c-0.5,0-0.9,0.5-1,0.4C18,0.5,18.6,0,18.5-0.3c0-0.1-0.2-0.3-0.4-0.3c-0.3,0-0.4,0.3-0.5,0.3
			c-0.1-0.1,0.1-0.7-0.1-0.9c-0.1-0.1-0.3,0.1-0.6,0c-0.2-0.1-0.2-0.1-0.3-0.2c-0.3-0.1-0.8,0.4-1.3,0.9c-0.2,0.2-0.6,0.5-1.1,0.8
			c0.3-0.3,0.5-0.6,0.7-0.7c0.4-0.4,0.6-0.6,0.6-0.9c0-0.1,0-0.4-0.2-0.4c-0.2-0.1-0.4,0.2-1.1,0.6C14.1-1,14-0.9,13.9-0.9
			c0,0,0.3-0.4,0.2-0.7c0,0-0.1-0.2-0.2-0.3C13.5-2.2,12.8-2,12.7-2c-0.9,0.2-1.1,0.8-2.1,1.3c0,0-0.1,0.1-0.3,0.2
			C9.8-0.3,9.6-0.2,9.5-0.1C9.3,0.1,9.1,0.2,8.9,0.5C8.8,0.7,8.9,0.9,8.7,1.1C8.6,1.2,8.4,1.2,8.4,1.2C7.8,1.4,7,2.4,6.9,2.6
			C6.6,3.1,5.2,4.5,1.7,7.6c4.7-5,6.2-6.6,6.2-6.7c0,0,0,0,0,0c0-0.1,0.2-0.4,0-0.6c-0.1-0.1-0.2,0-0.3-0.1c0,0,0-0.1,0-0.1
			c0-0.2,0.4-0.2,0.4-0.3c0,0-0.1-0.1-0.2-0.1C7.6-0.5,7.6-0.6,7.5-0.6C7.2-0.7,7-0.5,6.8-0.4C6.6-0.3,6.5-0.2,6.4-0.2
			c0,0,0-0.2,0-0.3C6.3-0.6,6.2-0.6,6.1-0.6c-0.3,0-0.5,0.3-0.6,0.2c-0.1,0,0-0.2-0.1-0.3C5.3-0.8,5.2-0.8,5-0.9
			C4.9-1,4.9-1.1,4.7-1.4C4.7-1.5,4.5-1.7,4.3-1.7c-0.2-0.1-0.3,0-0.5-0.1C3.6-1.9,3.6-2,3.3-2.1C3.2-2.1,3-2,2.9-2
			C2.6-1.8,2.6-1.7,2.5-1.7c-0.2,0-0.2-0.2-0.5-0.2c-0.1,0-0.2,0-0.3,0c-0.1,0.1,0,0.4-0.1,0.5c-0.1,0.1-0.2,0.1-0.3,0
			C1.2-1.5,1.2-1.6,1.1-1.6C1-1.8,0-1.6-0.3-1c0,0.1-0.1,0.2-0.2,0.3c-0.2,0.1-0.3,0-0.5,0c-0.3,0-0.5,0.2-1.1,1
			c0,0-0.1,0.1-0.6,0.6c-0.9,1-1,1.1-1.1,1.4c0,0.5,0,0.7,0,0.7c0,0.1,0.1,0.3,0,0.4c-0.1,0.1-0.1,0-0.2,0.1c-0.1,0.1,0.1,0.4,0,0.8
			c0,0,0,0,0,0.3c-0.1,0.5-0.1,0.6,0,0.7c0.1,0.1,0.2,0.1,0.3,0.1c0.2,0,0.3-0.1,0.4-0.1c0.4-0.5,0.8-0.9,1.1-1.4
			c-0.2,0.3-0.3,0.6-0.4,0.7C-2.7,4.8-2.8,5-3,5.3c0,0.1-0.1,0.2-0.2,0.4c-0.1,0.2-0.2,0.5-0.1,0.8c0,0.1,0.1,0.2,0.1,0.3
			c0,0.2,0,0.3,0,0.4c0,0.1,0.1,0.1,0.2,0.1c0.1,0.1,0,0.3,0,0.6c0,0.2,0.1,0.1,0.1,0.3c0.1,0.3-0.1,0.4,0,0.7c0,0.1,0,0.2,0.1,0.3
			c0.1,0.1,0.4-0.1,0.6,0C-1.9,9.2-2,9.4-1.8,9.5c0.1,0,0.2-0.1,0.4,0c0,0,0.3,0,0.3,0.1c0,0.1-0.1,0.3-0.3,0.4
			c-0.4,0.2-0.8-0.1-0.9,0c0,0.1,0.1,0.2,0.2,0.3c1,0.9,1,1,1.3,1.2c0.3,0.2,0.3,0.1,0.7,0.3c0.5,0.3,1.1,0.6,1.1,1
			c0,0.2-0.2,0.3-0.1,0.6C1,13.6,1.1,14,1.3,14c0.2,0.1,0.3-0.1,0.6-0.1c0.3,0,0.3,0.2,0.6,0.3c0.4,0,0.5-0.4,0.8-0.4
			c0.2,0,0.2,0.2,0.4,0.3c0.2,0.1,0.4,0,0.5,0c1-1.1,2.6-2.7,4.6-4.8c1.6-1.7,2.1-2.2,3-3.1c2.6-2.5,5.4-4.5,5.5-4.3
			c0.1,0.1-1.2,1.3-5.5,5.4c-3,2.8-5.4,5.2-7.1,6.8c0,0.3,0.1,0.5,0.2,0.5c0.2,0.1,0.5-0.2,0.8,0C5.8,14.6,6,14.8,6,15
			c0,0.2,0,0.3,0.1,0.4c0.1,0.1,0.1,0,0.2,0.1c0.2,0.2,0.1,0.3,0.3,0.5c0.2,0.1,0.4,0,0.4,0.2c0,0.1,0,0.1,0,0.3
			c0,0.1,0.2,0.1,0.2,0.3c0,0.2-0.3,0.3-0.3,0.6c0,0.2,0.1,0.2,0.1,0.5c0,0.5-0.6,0.6-0.5,0.9c0,0.2,0.2,0.4,0.4,0.5
			c0.3,0,0.5-0.4,0.8-0.4c0.4,0,0.6,0.6,0.9,0.5c0.3,0,0.3-0.4,0.6-0.4c0.2,0,0.3,0.1,0.4,0c0.1-0.1,0.1-0.2,0.3-0.3
			c0.1,0,0.1,0,0.2,0c0.2,0,0.6-0.4,0.7-0.8c0.1-0.4,0-0.5,0.2-0.8c0.1-0.2,0.3-0.3,0.4-0.4c0.5-0.4,1.2-1,1.8-1.6
			c0.8-0.8,0.9-1.1,1.5-1.4c0.1,0,0.3-0.1,0.5-0.3c0.3-0.3,0.4-0.6,0.6-0.8c0.4-0.8,0.8-0.8,1.7-2c0-0.1,0.2-0.3,0.2-0.4
			c-0.1-0.1-1.2,1.1-1.4,1c-0.1-0.1-0.1-0.2-0.1-0.2c0.1-0.6,0.8-0.8,1.9-1.7C18.1,9,18,9,18.3,8.7C19.1,8,20,7.4,20.3,7
			c0.1-0.3,0.2-0.6,0.2-0.6c0-0.1,0-0.1,0.1-0.2c0.1-0.3,0.2-0.4,0.7-0.9C21.7,4.9,21.8,4.7,21.7,4.7z M4.8,3.9
			C4.5,4.3,4.1,4.5,3.8,4.8C4,4.5,4.2,4.1,4.6,3.8c0.1-0.1,0.3-0.2,0.4-0.3C5,3.6,4.9,3.7,4.8,3.9z M4.5,2.7c0.5-0.5,1-1,1.4-1.4
			c-0.3,0.5-0.8,1-1.3,1.5C4.4,3.1,4,3.4,3.7,3.6C4,3.3,4.2,3,4.5,2.7z M-1,2.6C-0.9,2.4-0.8,2.2-0.6,2c0.1-0.1,0.2-0.2,0.2-0.2
			C-0.4,1.9-0.4,2-0.5,2C-0.7,2.3-0.9,2.5-1,2.6z M-0.2,10.8c-0.1,0.1-0.2,0.2-0.3,0.2c0,0,0-0.2,0.1-0.3c0.1-0.1,0.3-0.2,0.3-0.2
			C-0.1,10.5-0.1,10.6-0.2,10.8z M-0.5,6.1c0.3-0.4,0.7-0.8,1-1.2c0,0.1,0,0.2,0,0.3C0.2,5.5-0.2,5.8-0.5,6.1z M1.2,12.1
			c0,0-0.2-0.2-0.5-0.6c-0.1-0.1-0.2-0.2-0.2-0.3c0-0.1,0.1-0.1,0.2-0.2c0.1-0.1,0.3-0.2,0.4-0.5c0,0.2-0.1,0.3-0.1,0.4
			C1,11.2,1,11.2,1,11.3c0,0.1,0.1,0,0.1,0.1c0.1,0.1,0,0.2,0,0.3C1.1,11.9,1.3,12.1,1.2,12.1z M1.1,0.8c0.1-0.2,0.2-0.4,0.4-0.6
			C1.7,0.1,1.7,0.1,1.8,0c0,0.1-0.1,0.2-0.2,0.3C1.5,0.5,1.3,0.7,1.1,0.8z M4,7.4c1-1.3,2.3-2.8,3.8-4.2c1.1-1.1,2.2-2,3.2-2.8
			c-0.7,0.7-1.5,1.4-2.2,2.2C7.1,4.2,5.5,5.8,4,7.4z M8.9,3.2c0.8-0.8,1.6-1.5,2.4-2c-0.4,0.5-0.9,1-1.4,1.6C8.7,4,7.6,5.1,6.5,6.1
			C7.1,5.2,7.9,4.2,8.9,3.2z M10.7,5c1.1-0.9,2.2-1.8,3.2-2.6c-0.7,0.7-1.4,1.4-2.2,2.1C10.1,6,8.6,7.2,7.1,8.4
			C8.2,7.3,9.4,6.1,10.7,5z M12.4,5.1C10.8,6.6,9.3,7.8,7.8,9c1.1-1.1,2.3-2.2,3.6-3.4c1.1-0.9,2.2-1.8,3.2-2.6
			C13.9,3.7,13.2,4.4,12.4,5.1z M18.2,3.6c-0.7,0.7-1.4,1.4-2.2,2.1c-1.6,1.4-3.1,2.7-4.6,3.8c1.1-1.1,2.3-2.2,3.6-3.4
			C16,5.2,17.1,4.4,18.2,3.6z M8.7,11.3c1.4-1.7,3.1-3.5,5.1-5.3c0.9-0.8,1.8-1.5,2.6-2.2c-1,1-1.9,1.9-2.9,2.9
			C11.9,8.3,10.3,9.8,8.7,11.3z M9,13c1.6-1.5,3.2-3.1,5-4.7c1.4-1.3,2.8-2.4,4.2-3.5c-1.1,1.1-2.3,2.1-3.4,3.2
			C12.9,9.7,10.9,11.4,9,13z M9.3,14c1.1-1.3,2.5-2.7,4.1-4.1c1.4-1.2,2.7-2.2,4-3c-1.1,1-2.2,1.9-3.3,2.9
			C12.5,11.2,10.9,12.6,9.3,14z M17.4,8.3c-1.2,1.1-2.4,2.1-3.6,3c0.2-0.2,0.4-0.4,0.6-0.6c0.8-0.7,1.5-1.4,2.2-2.1
			c-0.1,0.1-0.2,0.1-0.3,0.2c-0.1,0-0.1,0.1-0.2,0.2c-1.3,1.1-2.4,2.2-3.5,3.3c-0.9,0.8-1.8,1.5-2.7,2.1c1.1-1.1,2.3-2.2,3.6-3.4
			c1-0.9,2-1.7,2.9-2.4c1-0.9,2.1-1.7,3-2.5C18.9,6.8,18.1,7.5,17.4,8.3z"/>
	</defs>
	<clipPath id="SVGID_2_">
		<use xlink:href="#SVGID_1_"  style="overflow:visible;"/>
	</clipPath>
	<g class="st0">
		<path class="st1" d="M13.7,6.5c-0.1-0.5-0.3-1-0.6-1.4c0.7-0.8,1.1-1.5,1-1.6l-1.5-1.5c-0.1-0.1-0.8,0.3-1.6,1
			C10.5,2.7,10,2.5,9.5,2.3C9.4,1.3,9.3,0.5,9.1,0.5H6.9c-0.2,0-0.3,0.7-0.5,1.8C6,2.5,5.5,2.7,5.1,2.9c-0.8-0.7-1.5-1.1-1.6-1
			L1.9,3.5c-0.1,0.1,0.3,0.8,1,1.6C2.7,5.5,2.5,6,2.3,6.5C1.3,6.6,0.5,6.7,0.5,6.9v2.1c0,0.2,0.7,0.3,1.8,0.5c0.1,0.5,0.3,1,0.6,1.4
			c-0.7,0.8-1.1,1.5-1,1.6l1.5,1.5c0.1,0.1,0.8-0.3,1.6-1c0.5,0.3,0.9,0.5,1.4,0.6c0.1,1.1,0.3,1.8,0.5,1.8h2.1
			c0.2,0,0.3-0.7,0.5-1.8c0.5-0.1,1-0.3,1.4-0.6c0.8,0.7,1.5,1.1,1.6,1l1.5-1.5c0.1-0.1-0.3-0.8-1-1.6c0.3-0.4,0.5-0.9,0.6-1.4
			c1.1-0.1,1.8-0.3,1.8-0.5V6.9C15.5,6.7,14.8,6.6,13.7,6.5z M8,10.7c-1.5,0-2.7-1.2-2.7-2.7c0-0.7,0.3-1.4,0.8-1.9
			C6.6,5.6,7.3,5.3,8,5.3c1.5,0,2.7,1.2,2.7,2.7S9.5,10.7,8,10.7z"/>
	</g>
</g>
</svg>
