<?xml version="1.0" encoding="utf-8"?>
<!-- Generator: Adobe Illustrator 23.0.0, SVG Export Plug-In . SVG Version: 6.00 Build 0)  -->
<svg version="1.1" id="Layer_1" xmlns="http://www.w3.org/2000/svg" xmlns:xlink="http://www.w3.org/1999/xlink" x="0px" y="0px"
	 viewBox="0 0 16 16" style="enable-background:new 0 0 16 16;" xml:space="preserve">
<style type="text/css">
	.st0{clip-path:url(#SVGID_2_);}
	.st1{fill:#F75049;}
</style>
<g>
	<defs>
		<path id="SVGID_1_" d="M22.9,6.9c-0.1-0.1-0.3,0-0.6-0.2c-0.2-0.2-0.2-0.3-0.3-0.4c-0.4-0.2-1.3,0.5-1.3,0.5c0,0,0.4-0.3,0.7-0.7
			c0.2-0.2,0.6-0.7,0.5-1c-0.1-0.2-0.3-0.2-0.3-0.3c0-0.3,0.5-0.4,0.4-0.7c0-0.2-0.2-0.3-0.3-0.3C21.4,3.5,21,3.9,21,3.8
			c0,0,0.3-0.2,0.4-0.5c0-0.1,0.2-0.3,0.1-0.5c-0.1-0.1-0.3-0.1-0.4-0.1c-0.1,0-0.2,0.1-0.2,0c0,0,0-0.1,0-0.2
			c0-0.2-0.3-0.3-0.6-0.3c-0.5,0-0.9,0.5-1,0.4c-0.1-0.1,0.5-0.5,0.4-0.9c0-0.1-0.2-0.3-0.4-0.3c-0.3,0-0.4,0.3-0.5,0.3
			c-0.1-0.1,0.1-0.7-0.1-0.9c-0.1-0.1-0.3,0.1-0.6,0c-0.2-0.1-0.2-0.1-0.3-0.2c-0.3-0.1-0.8,0.4-1.3,0.9c-0.2,0.2-0.6,0.5-1.1,0.8
			C15.6,2.3,15.9,2,16,1.8c0.4-0.4,0.6-0.6,0.6-0.9c0-0.1,0-0.4-0.2-0.4c-0.2-0.1-0.4,0.2-1.1,0.6c-0.2,0.1-0.3,0.2-0.4,0.3
			c0,0,0.3-0.4,0.2-0.7c0,0-0.1-0.2-0.2-0.3c-0.4-0.3-1.1-0.2-1.2-0.2c-0.9,0.2-1.1,0.8-2.1,1.3c0,0-0.1,0.1-0.3,0.2
			C11,2,10.8,2.1,10.7,2.1c-0.3,0.2-0.5,0.3-0.6,0.6C10,3,10,3.1,9.9,3.3C9.7,3.4,9.6,3.5,9.5,3.5C8.9,3.6,8.2,4.7,8.1,4.8
			C7.7,5.4,6.4,6.7,2.9,9.9c4.7-5,6.2-6.6,6.2-6.7c0,0,0,0,0,0c0-0.1,0.2-0.4,0-0.6c-0.1-0.1-0.2,0-0.3-0.1c0,0,0-0.1,0-0.1
			c0-0.2,0.4-0.2,0.4-0.3c0,0-0.1-0.1-0.2-0.1C8.8,1.8,8.8,1.7,8.6,1.6C8.4,1.6,8.1,1.7,8,1.8C7.8,1.9,7.6,2.1,7.6,2
			c0,0,0-0.2,0-0.3C7.5,1.6,7.3,1.7,7.3,1.7c-0.3,0-0.5,0.3-0.6,0.2c-0.1,0,0-0.2-0.1-0.3C6.5,1.4,6.4,1.5,6.2,1.4
			C6,1.2,6.1,1.1,5.9,0.8C5.8,0.7,5.7,0.6,5.5,0.5C5.3,0.4,5.2,0.5,5,0.5C4.7,0.4,4.7,0.2,4.5,0.2c-0.2,0-0.3,0-0.4,0.1
			C3.8,0.4,3.8,0.6,3.6,0.6c-0.2,0-0.2-0.2-0.5-0.2c-0.1,0-0.2,0-0.3,0c-0.1,0.1,0,0.4-0.1,0.5c-0.1,0.1-0.2,0.1-0.3,0
			C2.3,0.8,2.4,0.7,2.3,0.6C2.1,0.4,1.2,0.7,0.9,1.3c0,0.1-0.1,0.2-0.2,0.3c-0.2,0.1-0.3,0-0.5,0c-0.3,0-0.5,0.2-1.1,1
			c0,0-0.1,0.1-0.6,0.6c-0.9,1-1,1.1-1.1,1.4c0,0.5,0,0.7,0,0.7c0,0.1,0.1,0.3,0,0.4c-0.1,0.1-0.1,0-0.2,0.1c-0.1,0.1,0.1,0.4,0,0.8
			c0,0,0,0,0,0.3c-0.1,0.5-0.1,0.6,0,0.7c0.1,0.1,0.2,0.1,0.3,0.1c0.2,0,0.3-0.1,0.4-0.1C-1.7,7-1.3,6.5-0.9,6.1
			c-0.2,0.3-0.3,0.6-0.4,0.7C-1.5,7-1.6,7.2-1.8,7.5c0,0.1-0.1,0.2-0.2,0.4C-2,8.1-2.2,8.4-2,8.7C-2,8.8-1.9,8.8-1.9,9
			c0,0.2,0,0.3,0,0.4c0,0.1,0.1,0.1,0.2,0.1c0.1,0.1,0,0.3,0,0.6c0,0.2,0.1,0.1,0.1,0.3c0.1,0.3-0.1,0.4,0,0.7c0,0.1,0,0.2,0.1,0.3
			c0.1,0.1,0.4-0.1,0.6,0c0.2,0.1,0.1,0.3,0.3,0.4c0.1,0,0.2-0.1,0.4,0c0,0,0.3,0,0.3,0.1c0,0.1-0.1,0.3-0.3,0.4
			c-0.4,0.2-0.8-0.1-0.9,0c0,0.1,0.1,0.2,0.2,0.3c1,0.9,1,1,1.3,1.2c0.3,0.2,0.3,0.1,0.7,0.3c0.5,0.3,1.1,0.6,1.1,1
			c0,0.2-0.2,0.3-0.1,0.6c0,0.2,0.1,0.5,0.3,0.6c0.2,0.1,0.3-0.1,0.6-0.1c0.3,0,0.3,0.2,0.6,0.3c0.4,0,0.5-0.4,0.8-0.4
			c0.2,0,0.2,0.2,0.4,0.3c0.2,0.1,0.4,0,0.5,0c1-1.1,2.6-2.7,4.6-4.8c1.6-1.7,2.1-2.2,3-3.1C15.6,6,18.4,4,18.5,4.2
			c0.1,0.1-1.2,1.3-5.5,5.4c-3,2.8-5.4,5.2-7.1,6.8c0,0.3,0.1,0.5,0.2,0.5c0.2,0.1,0.5-0.2,0.8,0c0.1,0.1,0.3,0.2,0.3,0.4
			c0,0.2,0,0.3,0.1,0.4c0.1,0.1,0.1,0,0.2,0.1c0.2,0.2,0.1,0.3,0.3,0.5c0.2,0.1,0.4,0,0.4,0.2c0,0.1,0,0.1,0,0.3
			c0,0.1,0.2,0.1,0.2,0.3c0,0.2-0.3,0.3-0.3,0.6c0,0.2,0.1,0.2,0.1,0.5c0,0.5-0.6,0.6-0.5,0.9c0,0.2,0.2,0.4,0.4,0.5
			c0.3,0,0.5-0.4,0.8-0.4c0.4,0,0.6,0.6,0.9,0.5c0.3,0,0.3-0.4,0.6-0.4c0.2,0,0.3,0.1,0.4,0c0.1-0.1,0.1-0.2,0.3-0.3
			c0.1,0,0.1,0,0.2,0c0.2,0,0.6-0.4,0.7-0.8c0.1-0.4,0-0.5,0.2-0.8c0.1-0.2,0.3-0.3,0.4-0.4c0.5-0.4,1.2-1,1.8-1.6
			c0.8-0.8,0.9-1.1,1.5-1.4c0.1,0,0.3-0.1,0.5-0.3c0.3-0.3,0.4-0.6,0.6-0.8c0.4-0.8,0.8-0.8,1.7-2c0-0.1,0.2-0.3,0.2-0.4
			c-0.1-0.1-1.2,1.1-1.4,1c-0.1-0.1-0.1-0.2-0.1-0.2c0.1-0.6,0.8-0.8,1.9-1.7c0.3-0.2,0.2-0.2,0.5-0.5c0.8-0.7,1.7-1.3,2-1.7
			c0.1-0.3,0.2-0.6,0.2-0.6c0-0.1,0-0.1,0.1-0.2c0.1-0.3,0.2-0.4,0.7-0.9C22.9,7.1,22.9,7,22.9,6.9z M5.9,6.1C5.6,6.5,5.3,6.8,5,7
			c0.2-0.3,0.4-0.6,0.8-0.9c0.1-0.1,0.3-0.2,0.4-0.3C6.1,5.9,6,6,5.9,6.1z M5.7,4.9c0.5-0.5,1-1,1.4-1.4C6.8,4,6.3,4.5,5.8,5
			C5.5,5.3,5.2,5.6,4.9,5.9C5.1,5.5,5.4,5.2,5.7,4.9z M0.1,4.9c0.1-0.2,0.2-0.4,0.4-0.6C0.7,4.2,0.7,4.1,0.8,4
			c0,0.1-0.1,0.2-0.2,0.3C0.5,4.5,0.3,4.7,0.1,4.9z M1,13c-0.1,0.1-0.2,0.2-0.3,0.2c0,0,0-0.2,0.1-0.3c0.1-0.1,0.3-0.2,0.3-0.2
			C1.1,12.8,1.1,12.9,1,13z M0.7,8.4C1,8,1.3,7.6,1.6,7.2c0,0.1,0,0.2,0,0.3C1.3,7.8,1,8.1,0.7,8.4z M2.4,14.4c0,0-0.2-0.2-0.5-0.6
			c-0.1-0.1-0.2-0.2-0.2-0.3c0-0.1,0.1-0.1,0.2-0.2c0.1-0.1,0.3-0.2,0.4-0.5c0,0.2-0.1,0.3-0.1,0.4c0,0.1-0.1,0.2-0.1,0.3
			c0,0.1,0.1,0,0.1,0.1c0.1,0.1,0,0.2,0,0.3C2.3,14.2,2.4,14.4,2.4,14.4z M2.3,3.1c0.1-0.2,0.2-0.4,0.4-0.6C2.8,2.4,2.9,2.3,3,2.2
			c0,0.1-0.1,0.2-0.2,0.3C2.6,2.8,2.5,2.9,2.3,3.1z M5.1,9.7c1-1.3,2.3-2.8,3.8-4.2c1.1-1.1,2.2-2,3.2-2.8c-0.7,0.7-1.5,1.4-2.2,2.2
			C8.2,6.4,6.6,8.1,5.1,9.7z M10,5.5c0.8-0.8,1.6-1.5,2.4-2c-0.4,0.5-0.9,1-1.4,1.6C9.9,6.2,8.7,7.3,7.6,8.4C8.2,7.5,9,6.5,10,5.5z
			 M11.9,7.2C13,6.3,14,5.4,15.1,4.6c-0.7,0.7-1.4,1.4-2.2,2.1c-1.6,1.4-3.1,2.7-4.6,3.8C9.3,9.5,10.5,8.4,11.9,7.2z M13.6,7.4
			C12,8.8,10.4,10.1,9,11.2c1.1-1.1,2.3-2.2,3.6-3.4c1.1-0.9,2.2-1.8,3.2-2.6C15.1,5.9,14.3,6.7,13.6,7.4z M19.3,5.8
			c-0.7,0.7-1.4,1.4-2.2,2.1c-1.6,1.4-3.1,2.7-4.6,3.8c1.1-1.1,2.3-2.2,3.6-3.4C17.2,7.5,18.3,6.6,19.3,5.8z M9.8,13.6
			c1.4-1.7,3.1-3.5,5.1-5.3c0.9-0.8,1.8-1.5,2.6-2.2c-1,1-1.9,1.9-2.9,2.9C13.1,10.5,11.4,12.1,9.8,13.6z M10.2,15.2
			c1.6-1.5,3.2-3.1,5-4.7c1.4-1.3,2.8-2.4,4.2-3.5C18.3,8,17.2,9.1,16,10.2C14,11.9,12.1,13.6,10.2,15.2z M10.5,16.2
			c1.1-1.3,2.5-2.7,4.1-4.1c1.4-1.2,2.7-2.2,4-3c-1.1,1-2.2,1.9-3.3,2.9C13.7,13.4,12.1,14.8,10.5,16.2z M18.5,10.5
			c-1.2,1.1-2.4,2.1-3.6,3c0.2-0.2,0.4-0.4,0.6-0.6c0.8-0.7,1.5-1.4,2.2-2.1c-0.1,0.1-0.2,0.1-0.3,0.2c-0.1,0-0.1,0.1-0.2,0.2
			c-1.3,1.1-2.4,2.2-3.5,3.3c-0.9,0.8-1.8,1.5-2.7,2.1c1.1-1.1,2.3-2.2,3.6-3.4c1-0.9,2-1.7,2.9-2.4c1-0.9,2.1-1.7,3-2.5
			C20,9.1,19.3,9.8,18.5,10.5z"/>
	</defs>
	<clipPath id="SVGID_2_">
		<use xlink:href="#SVGID_1_"  style="overflow:visible;"/>
	</clipPath>
	<g transform="translate(-532 -32)" class="st0">
		<path class="st1" d="M533,34v13h1v-1h1v1h11v-1h1v1h1V34h-1v1h-1v-1h-11v1h-1v-1H533z M536,35h9v5h-9V35z M534,36h1v1h-1V36z
			 M546,36h1v1h-1V36z M534,38h1v1h-1V38z M546,38h1v1h-1V38z M534,40h1v1h-1V40z M546,40h1v1h-1V40z M536,41h9v5h-9V41z M534,42h1
			v1h-1V42z M546,42h1v1h-1V42z M534,44h1v1h-1V44z M546,44h1v1h-1V44z"/>
	</g>
</g>
</svg>
