<?xml version="1.0" encoding="utf-8"?>
<!-- Generator: Adobe Illustrator 23.0.0, SVG Export Plug-In . SVG Version: 6.00 Build 0)  -->
<svg version="1.1" id="Layer_1" xmlns="http://www.w3.org/2000/svg" xmlns:xlink="http://www.w3.org/1999/xlink" x="0px" y="0px"
	 viewBox="0 0 16 16" style="enable-background:new 0 0 16 16;" xml:space="preserve">
<style type="text/css">
	.st0{clip-path:url(#SVGID_2_);}
	.st1{fill:#F75049;}
</style>
<g>
	<defs>
		<path id="SVGID_1_" d="M20.8,6c-0.1-0.1-0.3,0-0.6-0.2C20,5.6,20.1,5.5,20,5.4c-0.4-0.2-1.2,0.5-1.3,0.5c0,0,0.4-0.3,0.7-0.7
			c0.2-0.2,0.6-0.7,0.5-1C19.8,4,19.6,4,19.6,3.9c0-0.3,0.5-0.4,0.4-0.7c0-0.2-0.2-0.3-0.3-0.3C19.4,2.6,19,3,19,3
			c0,0,0.3-0.2,0.4-0.5c0-0.1,0.2-0.3,0.1-0.5c-0.1-0.1-0.3-0.1-0.4-0.1c-0.1,0-0.2,0.1-0.2,0c0,0,0-0.1,0-0.2
			c0-0.2-0.3-0.3-0.5-0.3c-0.5,0-0.9,0.5-1,0.4c-0.1-0.1,0.5-0.5,0.4-0.9c0-0.1-0.2-0.3-0.4-0.3c-0.2,0-0.4,0.3-0.5,0.3
			c-0.1-0.1,0.1-0.7-0.1-0.9c-0.1-0.1-0.3,0.1-0.6,0C16,0.1,16,0.1,15.9,0c-0.3-0.1-0.7,0.4-1.3,0.9c-0.2,0.2-0.6,0.5-1.1,0.8
			C13.8,1.4,14,1.2,14.1,1c0.4-0.4,0.6-0.6,0.6-0.9c0-0.1,0-0.4-0.2-0.4c-0.2-0.1-0.4,0.2-1,0.6c-0.2,0.1-0.3,0.2-0.4,0.3
			c0,0,0.3-0.4,0.2-0.7c0,0-0.1-0.2-0.2-0.3c-0.4-0.3-1.1-0.2-1.2-0.2c-0.8,0.2-1.1,0.8-2.1,1.3c0,0-0.1,0.1-0.3,0.2
			C9.2,1.1,9,1.2,8.9,1.3C8.7,1.5,8.5,1.6,8.4,1.9C8.2,2.1,8.3,2.3,8.1,2.5C8,2.6,7.9,2.6,7.8,2.6C7.2,2.8,6.5,3.8,6.4,4
			C6,4.5,4.8,5.9,1.3,9c4.6-5,6-6.6,6.1-6.7c0,0,0,0,0,0c0-0.1,0.2-0.4,0-0.6c-0.1-0.1-0.2,0-0.3-0.1c0,0,0-0.1,0-0.1
			c0-0.2,0.4-0.2,0.4-0.3c0,0-0.1-0.1-0.2-0.1C7.1,0.9,7.1,0.8,6.9,0.8C6.7,0.7,6.5,0.9,6.3,1C6.1,1.1,6,1.2,5.9,1.2
			c0,0,0-0.2,0-0.3C5.8,0.8,5.7,0.8,5.6,0.8C5.3,0.8,5.1,1.1,5,1C4.9,1,5,0.9,4.9,0.7C4.8,0.6,4.7,0.6,4.6,0.5
			C4.4,0.4,4.5,0.3,4.3,0C4.2-0.1,4.1-0.3,3.9-0.3c-0.2-0.1-0.3,0-0.5-0.1C3.1-0.5,3.1-0.6,2.9-0.7c-0.2,0-0.3,0-0.4,0.1
			C2.2-0.4,2.2-0.3,2-0.3c-0.2,0-0.2-0.2-0.5-0.2c-0.1,0-0.2,0-0.3,0C1.1-0.4,1.3-0.1,1.2,0C1.1,0,1,0,0.9,0
			C0.8-0.1,0.8-0.2,0.8-0.2C0.6-0.4-0.3-0.2-0.6,0.4c0,0.1-0.1,0.2-0.2,0.3c-0.2,0.1-0.3,0-0.4,0c-0.3,0-0.5,0.2-1.1,1
			c0,0-0.1,0.1-0.5,0.6c-0.9,1-1,1.1-1,1.4c0,0.5,0,0.7,0,0.7c0,0.1,0.1,0.3,0,0.4C-3.9,4.9-4,4.8-4,4.9C-4.1,5-3.9,5.3-4,5.7
			c0,0,0,0,0,0.3c-0.1,0.5-0.1,0.6,0,0.7C-4,6.7-3.9,6.7-3.8,6.7c0.2,0,0.3-0.1,0.3-0.1c0.4-0.5,0.7-0.9,1.1-1.4
			C-2.5,5.6-2.7,5.8-2.8,6c-0.2,0.2-0.3,0.4-0.5,0.7c0,0.1-0.1,0.2-0.2,0.4c-0.1,0.2-0.2,0.5-0.1,0.8c0,0.1,0.1,0.2,0.1,0.3
			c0,0.2,0,0.3,0,0.4c0,0.1,0.1,0.1,0.2,0.1c0.1,0.1,0,0.3,0,0.6C-3.1,9.4-3,9.3-3,9.5c0.1,0.3-0.1,0.4,0,0.7c0,0.1,0,0.2,0.1,0.3
			c0.1,0.1,0.3-0.1,0.5,0c0.2,0.1,0.1,0.3,0.3,0.4c0.1,0,0.2-0.1,0.4,0c0,0,0.3,0,0.3,0.1c0,0.1-0.1,0.3-0.3,0.4
			c-0.4,0.2-0.8-0.1-0.8,0c0,0.1,0.1,0.2,0.2,0.3c1,0.9,1,1,1.3,1.2c0.3,0.2,0.3,0.1,0.7,0.3c0.5,0.3,1,0.6,1.1,1
			c0,0.2-0.2,0.3-0.1,0.6c0,0.2,0.1,0.5,0.3,0.6c0.2,0.1,0.3-0.1,0.6-0.1c0.3,0,0.3,0.2,0.6,0.3c0.4,0,0.5-0.4,0.8-0.4
			c0.2,0,0.2,0.2,0.4,0.3c0.2,0.1,0.4,0,0.5,0c1-1.1,2.6-2.7,4.5-4.8c1.6-1.7,2-2.2,2.9-3.1c2.6-2.5,5.3-4.5,5.4-4.3
			c0.1,0.1-1.2,1.3-5.3,5.4c-2.9,2.8-5.3,5.2-6.9,6.8c0,0.3,0.1,0.5,0.2,0.5c0.2,0.1,0.5-0.2,0.7,0c0.1,0.1,0.3,0.2,0.3,0.4
			c0,0.2,0,0.3,0.1,0.4c0.1,0.1,0.1,0,0.2,0.1C6,17.1,5.9,17.2,6,17.4c0.2,0.1,0.4,0,0.4,0.2c0,0.1,0,0.1,0,0.3
			c0,0.1,0.2,0.1,0.2,0.3c0,0.2-0.3,0.3-0.3,0.6c0,0.2,0.1,0.2,0.1,0.5c0,0.5-0.5,0.6-0.5,0.9c0,0.2,0.2,0.4,0.4,0.5
			c0.3,0,0.4-0.4,0.8-0.4c0.4,0,0.6,0.6,0.9,0.5c0.3,0,0.3-0.4,0.6-0.4c0.2,0,0.3,0.1,0.4,0c0.1-0.1,0.1-0.2,0.3-0.3
			c0.1,0,0.1,0,0.2,0c0.2,0,0.5-0.4,0.7-0.8c0.1-0.4,0-0.5,0.2-0.8c0.1-0.2,0.3-0.3,0.4-0.4c0.5-0.4,1.2-1,1.8-1.6
			c0.8-0.8,0.9-1.1,1.4-1.4c0.1,0,0.3-0.1,0.5-0.3c0.3-0.3,0.4-0.6,0.5-0.8c0.4-0.8,0.8-0.8,1.6-2c0-0.1,0.2-0.3,0.2-0.4
			c-0.1-0.1-1.1,1.1-1.4,1c-0.1-0.1-0.1-0.2-0.1-0.2c0.1-0.6,0.8-0.8,1.8-1.7c0.3-0.2,0.2-0.2,0.5-0.5c0.8-0.7,1.7-1.3,1.9-1.7
			c0.1-0.3,0.2-0.6,0.2-0.6c0-0.1,0-0.1,0.1-0.2c0.1-0.3,0.2-0.4,0.7-0.9C20.8,6.2,20.8,6.1,20.8,6z M4.3,5.3C4,5.7,3.7,5.9,3.4,6.1
			c0.2-0.3,0.4-0.6,0.8-0.9C4.3,5.1,4.4,5,4.6,4.9C4.5,5,4.4,5.1,4.3,5.3z M4.1,4.1c0.5-0.5,0.9-1,1.4-1.4c-0.3,0.5-0.7,1-1.2,1.5
			C3.9,4.5,3.6,4.8,3.3,5C3.5,4.7,3.8,4.4,4.1,4.1z M-1.3,4c0.1-0.2,0.2-0.4,0.4-0.6c0.1-0.1,0.2-0.2,0.2-0.2c0,0.1-0.1,0.2-0.2,0.3
			C-1,3.7-1.2,3.9-1.3,4z M-0.5,12.2c-0.1,0.1-0.2,0.2-0.3,0.2c0,0,0-0.2,0.1-0.3c0.1-0.1,0.3-0.2,0.3-0.2
			C-0.4,11.9-0.4,12-0.5,12.2z M-0.8,7.5c0.3-0.4,0.6-0.8,1-1.2c0,0.1,0,0.2,0,0.3C-0.2,6.9-0.5,7.2-0.8,7.5z M0.8,13.5
			c0,0-0.2-0.2-0.5-0.6c-0.1-0.1-0.2-0.2-0.2-0.3c0-0.1,0.1-0.1,0.2-0.2c0.1-0.1,0.3-0.2,0.4-0.5c0,0.2-0.1,0.3-0.1,0.4
			c0,0.1-0.1,0.2-0.1,0.3c0,0.1,0.1,0,0.1,0.1c0.1,0.1,0,0.2,0,0.3C0.7,13.3,0.9,13.5,0.8,13.5z M0.8,2.2C0.8,2,1,1.8,1.2,1.6
			c0.1-0.1,0.2-0.2,0.2-0.2c0,0.1-0.1,0.2-0.2,0.3C1.1,1.9,0.9,2.1,0.8,2.2z M3.5,8.8c1-1.3,2.3-2.8,3.7-4.2c1.1-1.1,2.1-2,3.1-2.8
			C9.6,2.5,8.9,3.2,8.1,4C6.5,5.6,5,7.2,3.5,8.8z M8.3,4.6c0.8-0.8,1.6-1.5,2.3-2c-0.4,0.5-0.9,1-1.3,1.6C8.1,5.4,7,6.5,6,7.5
			C6.5,6.6,7.3,5.6,8.3,4.6z M10.1,6.4c1.1-0.9,2.1-1.8,3.1-2.6c-0.7,0.7-1.4,1.4-2.2,2.1C9.5,7.4,8,8.6,6.5,9.8
			C7.6,8.7,8.8,7.5,10.1,6.4z M11.7,6.5c-1.5,1.4-3,2.7-4.5,3.8C8.3,9.3,9.5,8.1,10.8,7c1.1-0.9,2.1-1.8,3.1-2.6
			C13.2,5.1,12.5,5.8,11.7,6.5z M17.3,5c-0.7,0.7-1.4,1.4-2.2,2.1c-1.5,1.4-3,2.7-4.5,3.8c1.1-1.1,2.2-2.2,3.5-3.4
			C15.3,6.6,16.3,5.8,17.3,5z M8.1,12.7c1.4-1.7,3.1-3.5,5-5.3c0.9-0.8,1.7-1.5,2.6-2.2c-0.9,1-1.9,1.9-2.8,2.9
			C11.3,9.7,9.7,11.2,8.1,12.7z M8.5,14.4c1.5-1.5,3.2-3.1,4.9-4.7c1.4-1.3,2.7-2.4,4.1-3.5c-1.1,1.1-2.2,2.1-3.3,3.2
			C12.2,11.1,10.3,12.8,8.5,14.4z M8.7,15.4c1.1-1.3,2.4-2.7,4-4.1c1.4-1.2,2.7-2.2,3.9-3c-1.1,1-2.1,1.9-3.2,2.9
			C11.8,12.6,10.3,14,8.7,15.4z M16.6,9.7c-1.2,1.1-2.3,2.1-3.5,3c0.2-0.2,0.4-0.4,0.6-0.6c0.8-0.7,1.5-1.4,2.2-2.1
			c-0.1,0.1-0.2,0.1-0.3,0.2c-0.1,0-0.1,0.1-0.2,0.2c-1.2,1.1-2.4,2.2-3.4,3.3c-0.9,0.8-1.8,1.5-2.6,2.1c1.1-1.1,2.2-2.2,3.5-3.4
			c1-0.9,1.9-1.7,2.8-2.4c1-0.9,2-1.7,3-2.5C18.1,8.2,17.3,8.9,16.6,9.7z"/>
	</defs>
	<clipPath id="SVGID_2_">
		<use xlink:href="#SVGID_1_"  style="overflow:visible;"/>
	</clipPath>
	<g class="st0">
		<path class="st1" d="M3.5,2.3c-0.9,0-2,0.1-3.1,0.3V14H3V9.9c0,0,5.2,0.5,5.3-3.4C8.3,6.5,9,2.3,3.5,2.3z M3.8,4.3
			c1.6,0,2,0.6,2.1,1.7C5.9,8.3,3,7.7,3,7.7V4.4C3.3,4.4,3.6,4.3,3.8,4.3z M11.9,5.3c-0.6,0-1.3,0.2-1.8,0.5C9,6.5,8.9,8,9.4,9
			c0.7,1.1,2.1,1.2,3.1,2c0.5,0.3,0.2,1.2-0.3,1.2c-1.1,0.2-2.1-0.2-3.1-0.7v1.5c-0.1,0.5,0.4,0.5,0.7,0.6c1.1,0.3,2.4,0.3,3.5,0
			c1-0.3,1.7-1.3,1.7-2.4c0-0.3-0.1-0.6-0.1-0.8c-0.4-1.1-1.6-1.5-2.5-1.9c-0.6-0.2-1.5-0.9-0.7-1.4c0.9-0.3,1.8,0.1,2.6,0.5
			l0.6-1.4c0.2-0.4-0.7-0.4-1-0.6C13.2,5.4,12.5,5.3,11.9,5.3z"/>
	</g>
</g>
</svg>
