<?xml version="1.0" encoding="utf-8"?>
<!-- Generator: Adobe Illustrator 23.0.0, SVG Export Plug-In . SVG Version: 6.00 Build 0)  -->
<svg version="1.1" id="Layer_1" xmlns="http://www.w3.org/2000/svg" xmlns:xlink="http://www.w3.org/1999/xlink" x="0px" y="0px"
	 viewBox="0 0 16 16" style="enable-background:new 0 0 16 16;" xml:space="preserve">
<style type="text/css">
	.st0{fill-rule:evenodd;clip-rule:evenodd;fill:#F75049;}
	.st1{fill:#F75049;}
</style>
<path class="st0" d="M7.1,1L4.7,2.3C4.4,2.6,4.1,3,3.7,3.3C3.4,3.6,3.1,3.9,2.8,4.2c0.2-0.3,0.5-0.6,0.8-1c0.3-0.3,0.5-0.6,0.8-0.8
	L1.2,4.1v3.7c1-1.1,1.9-2,2.6-2.8L3.5,4.8C3.3,5,3.1,5.2,2.9,5.3C3,5.1,3.1,4.9,3.3,4.7L2.7,4.4l3.4-1.8C6.8,1.8,7,1.5,7,1.5
	c0,0,0,0,0,0C7.1,1.4,7.2,1.1,7.1,1z M10.3,1.8C10,2,9.8,2.3,9.6,2.5l2.3,1.2c0.3-0.2,0.5-0.4,0.8-0.7L10.3,1.8z M9.6,1.4
	C9.3,1.6,9.1,1.9,8.8,2.1l0.6,0.3C9.7,2.2,10,2,10.3,1.8L9.6,1.4z M12.8,3.1c-0.2,0.2-0.5,0.5-0.7,0.7l0.7,0.4
	c0.3-0.2,0.5-0.4,0.8-0.6L12.8,3.1z M8.3,0.7C8.1,0.8,8,0.9,8,1c-0.1,0.3,0,0.4-0.2,0.6C7.7,1.8,7.5,1.8,7.4,1.8
	C7.2,1.8,7,2,6.8,2.2l1.1-0.6L8.7,2C9,1.8,9.3,1.6,9.5,1.4L8.3,0.7z M12.8,6.6c-2,1.8-3.7,3.6-5.1,5.3c1.6-1.5,3.2-3.1,4.9-4.6
	l2-2.1V5.1C14,5.5,13.4,6.1,12.8,6.6z M14,6.8c-1.3,1.2-2.5,2.3-3.6,3.4c1.4-1,2.8-2.2,4.3-3.5V6.2C14.4,6.4,14.2,6.6,14,6.8z
	 M13.1,8.8c-1.8,1.6-3.5,3.2-5,4.7c1.9-1.6,3.8-3.3,5.8-5.1c0.3-0.2,0.5-0.4,0.7-0.7V7.5C14.1,8,13.6,8.4,13.1,8.8z M12.5,10.4
	c-1.7,1.4-3,2.8-4.1,4.1c1.6-1.4,3.2-2.8,4.8-4.2c0.5-0.4,1-0.9,1.5-1.3V8.7C13.9,9.2,13.2,9.8,12.5,10.4z"/>
<path class="st1" d="M12.8,3.1c-0.2,0.2-0.5,0.5-0.7,0.7l0.7,0.4c0.3-0.2,0.5-0.4,0.8-0.6L12.8,3.1z M10.3,1.8C10,2,9.8,2.3,9.6,2.5
	l2.3,1.2c0.3-0.2,0.5-0.4,0.8-0.7L10.3,1.8z M9.6,1.4C9.3,1.6,9.1,1.9,8.8,2.1l0.6,0.3C9.7,2.2,10,2,10.3,1.8L9.6,1.4z M8.3,0.7
	C8.1,0.8,8,0.9,8,1c-0.1,0.3,0,0.4-0.2,0.6C7.7,1.8,7.5,1.8,7.4,1.8C7.2,1.8,7,2,6.8,2.2l1.1-0.6L8.7,2C9,1.8,9.3,1.6,9.5,1.4
	L8.3,0.7z M7.1,1L4.7,2.3C4.4,2.6,4.1,3,3.7,3.3C3.4,3.6,3.1,3.9,2.8,4.2c0.2-0.3,0.5-0.6,0.8-1c0.3-0.3,0.5-0.6,0.8-0.8L1.2,4.1
	v3.7c1-1.1,1.9-2,2.6-2.8L3.5,4.8C3.3,5,3.1,5.2,2.9,5.3C3,5.1,3.1,4.9,3.3,4.7L2.7,4.4l3.4-1.8C6.8,1.8,7,1.5,7,1.5c0,0,0,0,0,0
	C7.1,1.4,7.2,1.1,7.1,1z"/>
<path class="st1" d="M14.6,9.9v0.3c-0.4,0.3-0.7,0.7-1.1,1.1c-0.2,0.2-0.4,0.4-0.6,0.6c0.6-0.5,1.2-0.9,1.8-1.4v1.5l-5.4,2.9l-0.1,0
	c1.1-1.1,2.3-2.2,3.5-3.3C13.3,11,14,10.4,14.6,9.9z"/>
<path class="st1" d="M14.6,4.1v0.2c-0.8,0.8-2.1,2-3.7,3.5c-2.5,2.4-4.6,4.4-6.2,5.9l-0.4-0.2l-3.1-1.7v-4c1.2-1.1,2.2-2,2.9-2.7
	L5,5.7C4.3,6.5,3.6,7.2,3,8c0.7-0.8,1.4-1.5,2.2-2.3l0.7,0.4C5.8,6.3,5.7,6.5,5.5,6.7C5.7,6.5,5.9,6.4,6,6.2l1.9,1
	C7.3,7.8,6.7,8.4,6.1,8.9C7,8.2,8,7.5,8.9,6.7l2.6-1.4c-0.3,0.3-0.7,0.6-1,0.9C9.2,7.3,8,8.4,6.8,9.5c1.5-1.1,3-2.4,4.6-3.8
	c0.3-0.3,0.6-0.6,0.9-0.9l0.8-0.4l-0.2-0.1c0.2-0.2,0.5-0.5,0.7-0.7h0l0.6,0.3L14.6,4.1z"/>
</svg>
