<?xml version="1.0" encoding="utf-8"?>
<!-- Generator: Adobe Illustrator 23.0.0, SVG Export Plug-In . SVG Version: 6.00 Build 0)  -->
<svg version="1.1" id="Layer_1" xmlns="http://www.w3.org/2000/svg" xmlns:xlink="http://www.w3.org/1999/xlink" x="0px" y="0px"
	 viewBox="0 0 16 16" style="enable-background:new 0 0 16 16;" xml:space="preserve">
<style type="text/css">
	.st0{clip-path:url(#SVGID_2_);fill:#F75049;}
</style>
<g>
	<defs>
		<path id="SVGID_1_" d="M22.9,5.7c-0.1-0.2-0.4,0-0.6-0.3C22,5.3,22.1,5.1,21.9,5c-0.4-0.3-1.4,0.6-1.5,0.5c0,0,0.4-0.3,0.8-0.7
			C21.5,4.5,22,4,21.8,3.6c-0.1-0.2-0.3-0.2-0.3-0.4C21.5,3,22,2.8,22,2.4c0-0.2-0.2-0.3-0.3-0.4c-0.4-0.1-0.9,0.3-0.9,0.2
			c0,0,0.3-0.2,0.5-0.5c0-0.1,0.2-0.4,0.1-0.5c-0.1-0.1-0.3-0.1-0.4-0.1c-0.1,0-0.2,0.1-0.3,0.1c0,0,0-0.1,0-0.2
			c0-0.2-0.4-0.3-0.6-0.3c-0.6-0.1-1.1,0.5-1.1,0.5c-0.1-0.1,0.6-0.6,0.4-1C19.2,0,19-0.2,18.8-0.2c-0.3,0-0.4,0.3-0.6,0.3
			c-0.2-0.1,0.1-0.8-0.1-1c-0.1-0.1-0.3,0.1-0.6,0c-0.2-0.1-0.2-0.2-0.3-0.2c-0.3-0.1-0.8,0.5-1.5,1c-0.3,0.2-0.7,0.6-1.3,0.9
			C14.8,0.5,15,0.2,15.2,0c0.5-0.5,0.7-0.7,0.7-1c0-0.1,0-0.4-0.2-0.5c-0.2-0.1-0.4,0.2-1.2,0.7c-0.2,0.1-0.4,0.2-0.5,0.3
			c0,0,0.3-0.4,0.2-0.8c0,0-0.1-0.2-0.2-0.3c-0.5-0.4-1.3-0.2-1.4-0.2c-1,0.2-1.2,0.9-2.4,1.5c0,0-0.2,0.1-0.4,0.2
			C9.5,0.2,9.3,0.3,9.2,0.4C8.9,0.6,8.7,0.7,8.5,1C8.4,1.3,8.5,1.5,8.3,1.7C8.2,1.8,8,1.9,7.9,1.9C7.2,2.1,6.4,3.2,6.3,3.4
			C5.9,4,4.4,5.5,0.5,9.1c5.3-5.6,6.9-7.4,7-7.5c0,0,0,0,0,0c0-0.1,0.2-0.5,0-0.6c-0.1-0.1-0.3,0-0.3-0.2c0,0,0-0.1,0-0.2
			c0-0.2,0.5-0.3,0.5-0.4c0,0-0.1-0.1-0.2-0.1C7.1,0,7.1-0.1,6.9-0.2C6.6-0.3,6.4-0.1,6.2,0C5.9,0.1,5.8,0.3,5.7,0.2
			c-0.1,0,0-0.2,0-0.3C5.6-0.2,5.4-0.2,5.4-0.2C5-0.1,4.8,0.2,4.7,0.1c-0.1,0,0-0.2-0.1-0.3C4.5-0.4,4.3-0.4,4.2-0.5
			C4-0.6,4.1-0.8,3.8-1.1C3.8-1.2,3.6-1.4,3.4-1.5c-0.3-0.1-0.3,0-0.6-0.1C2.5-1.6,2.5-1.8,2.2-1.8c-0.2,0-0.3,0-0.5,0.1
			C1.5-1.6,1.4-1.4,1.3-1.4C1.1-1.4,1-1.6,0.7-1.7c-0.1,0-0.2,0-0.3,0c-0.1,0.1,0,0.4-0.1,0.5C0.2-1,0-1-0.1-1.1
			c-0.1-0.1-0.1-0.2-0.2-0.2c-0.2-0.2-1.3,0.1-1.6,0.7C-1.9-0.5-1.9-0.4-2-0.3c-0.2,0.1-0.3,0-0.5,0c-0.3,0-0.5,0.3-1.2,1.1
			c0,0-0.1,0.2-0.6,0.7c-1,1.1-1.2,1.3-1.2,1.6c0,0.6,0.1,0.8,0.1,0.8c0,0.1,0.1,0.3,0,0.4c-0.1,0.1-0.1,0-0.2,0.1
			c-0.1,0.1,0.1,0.4,0,0.9c0,0,0,0-0.1,0.3c-0.1,0.6-0.1,0.7,0,0.8c0.1,0.1,0.2,0.1,0.3,0.1c0.2,0,0.3-0.1,0.4-0.1
			c0.4-0.5,0.9-1,1.3-1.5C-4,5.2-4.2,5.4-4.3,5.6c-0.2,0.3-0.4,0.4-0.5,0.8C-4.9,6.5-4.9,6.7-5,6.8c-0.1,0.3-0.2,0.6-0.1,0.9
			C-5,7.8-5,7.9-4.9,8c0,0.2-0.1,0.3,0,0.4c0.1,0.1,0.1,0.1,0.2,0.1c0.1,0.2,0,0.3,0,0.6c0,0.2,0.1,0.1,0.1,0.3
			c0.1,0.3-0.1,0.4,0,0.8c0,0.2,0,0.2,0.1,0.3c0.2,0.1,0.4-0.1,0.6,0.1c0.2,0.1,0.1,0.4,0.3,0.4c0.1,0,0.2-0.1,0.4,0
			c0,0,0.3,0,0.4,0.2c0,0.1-0.1,0.3-0.3,0.4c-0.4,0.2-0.9-0.1-1,0c0,0.1,0.1,0.2,0.2,0.3c1.1,1.1,1.1,1.1,1.5,1.3
			c0.4,0.2,0.3,0.1,0.8,0.4c0.6,0.3,1.2,0.7,1.2,1.1c0,0.3-0.2,0.3-0.2,0.7c0,0.2,0.1,0.6,0.4,0.7c0.2,0.1,0.3-0.1,0.7-0.1
			c0.4,0,0.4,0.3,0.7,0.3c0.4,0,0.6-0.5,0.9-0.4c0.2,0,0.2,0.2,0.4,0.3c0.2,0.1,0.4,0,0.6,0c1.2-1.2,3-3.1,5.2-5.4
			c1.8-1.9,2.3-2.5,3.3-3.5c3-2.8,6.1-5,6.2-4.8c0.1,0.1-1.3,1.4-6.2,6c-3.4,3.2-6.1,5.8-8,7.6c0,0.4,0.1,0.5,0.2,0.6
			c0.2,0.1,0.5-0.2,0.8,0c0.1,0.1,0.3,0.2,0.4,0.5c0,0.2,0,0.3,0.1,0.4c0.1,0.1,0.1,0,0.2,0.1c0.2,0.2,0.1,0.4,0.3,0.5
			c0.2,0.2,0.4,0,0.5,0.2c0,0.1-0.1,0.2,0,0.3c0,0.2,0.2,0.2,0.2,0.3c0,0.2-0.3,0.3-0.4,0.7c-0.1,0.2,0.1,0.3,0.1,0.5
			c0,0.5-0.6,0.7-0.6,1.1c0,0.2,0.3,0.5,0.5,0.5c0.4,0.1,0.5-0.5,0.9-0.5c0.5,0,0.6,0.7,1,0.6c0.3,0,0.3-0.4,0.7-0.4
			c0.2,0,0.3,0.1,0.5,0c0.1-0.1,0.1-0.3,0.3-0.3c0.1,0,0.1,0,0.2,0c0.3,0,0.6-0.4,0.8-0.9c0.1-0.4,0-0.6,0.2-0.9
			c0.1-0.2,0.3-0.4,0.4-0.4c0.6-0.4,1.3-1.1,2-1.8c0.9-0.9,1-1.2,1.6-1.6c0.1,0,0.3-0.1,0.5-0.4c0.4-0.3,0.5-0.6,0.6-0.9
			c0.5-0.9,0.9-0.9,1.9-2.3c0-0.1,0.2-0.4,0.2-0.4c-0.1-0.1-1.3,1.3-1.6,1.1c-0.1-0.1-0.1-0.2-0.1-0.3c0.1-0.7,0.9-0.9,2.1-1.9
			c0.3-0.3,0.2-0.2,0.6-0.5c0.9-0.8,1.9-1.4,2.2-2c0.2-0.3,0.3-0.6,0.3-0.6c0-0.1,0-0.2,0.1-0.2c0.1-0.3,0.3-0.4,0.8-1
			C22.9,5.9,22.9,5.8,22.9,5.7z M3.9,4.9c-0.4,0.4-0.7,0.7-1,1C3,5.5,3.3,5.1,3.7,4.8C3.9,4.6,4,4.5,4.2,4.4C4.1,4.6,4,4.7,3.9,4.9z
			 M3.6,3.5c0.5-0.6,1.1-1.1,1.6-1.6C4.8,2.4,4.3,3,3.8,3.6c-0.4,0.4-0.7,0.7-1,1C3,4.2,3.3,3.8,3.6,3.5z M-2.6,3.4
			C-2.5,3.2-2.4,3-2.2,2.7C-2.1,2.6-2,2.6-1.9,2.5C-1.9,2.6-2,2.7-2.1,2.8C-2.3,3.1-2.5,3.3-2.6,3.4z M-1.7,12.6
			c-0.1,0.1-0.2,0.2-0.3,0.2c0,0,0-0.2,0.1-0.3c0.1-0.2,0.3-0.2,0.3-0.2C-1.6,12.3-1.6,12.5-1.7,12.6z M-2.1,7.4
			C-1.7,6.9-1.3,6.5-1,6c0,0.1,0,0.2,0,0.3C-1.3,6.7-1.7,7-2.1,7.4z M-0.1,14.1c0,0-0.2-0.2-0.6-0.7c-0.1-0.1-0.2-0.2-0.2-0.3
			c0-0.1,0.1-0.1,0.2-0.2c0.1-0.1,0.3-0.2,0.5-0.5c0,0.2-0.1,0.4-0.1,0.5c-0.1,0.1-0.1,0.2-0.1,0.3c0,0.1,0.1,0,0.1,0.1
			c0.1,0.1,0,0.2,0,0.3C-0.3,13.9-0.1,14.1-0.1,14.1z M-0.2,1.4C-0.1,1.2,0,1,0.3,0.7c0.1-0.1,0.2-0.2,0.3-0.2
			C0.5,0.6,0.4,0.7,0.4,0.8C0.2,1.1,0,1.3-0.2,1.4z M2.9,8.8c1.2-1.5,2.6-3.1,4.3-4.8C8.5,2.9,9.7,1.9,10.8,1
			C10,1.7,9.1,2.6,8.3,3.4C6.4,5.2,4.6,7,2.9,8.8z M8.5,4.1c0.9-0.9,1.8-1.7,2.7-2.3c-0.5,0.6-1,1.2-1.5,1.8C8.3,5,7,6.2,5.8,7.4
			C6.4,6.4,7.3,5.2,8.5,4.1z M10.5,6.1c1.2-1.1,2.4-2,3.6-2.9c-0.8,0.8-1.6,1.6-2.5,2.4c-1.8,1.6-3.5,3-5.2,4.3
			C7.7,8.7,9,7.4,10.5,6.1z M12.4,6.3c-1.8,1.6-3.5,3-5.2,4.3c1.2-1.2,2.6-2.5,4.1-3.8c1.2-1.1,2.4-2,3.6-2.9
			C14.2,4.6,13.3,5.4,12.4,6.3z M18.9,4.5c-0.8,0.8-1.6,1.6-2.5,2.4c-1.8,1.6-3.5,3-5.2,4.3c1.2-1.2,2.6-2.5,4.1-3.8
			C16.5,6.4,17.7,5.4,18.9,4.5z M8.2,13.2c1.6-1.9,3.5-3.9,5.8-5.9c1-0.9,2-1.7,2.9-2.5c-1.1,1.1-2.2,2.2-3.2,3.3
			C11.9,9.8,10.1,11.5,8.2,13.2z M8.7,15.1c1.8-1.7,3.6-3.5,5.7-5.3c1.6-1.4,3.2-2.7,4.7-4c-1.2,1.2-2.5,2.4-3.9,3.6
			C13,11.4,10.8,13.3,8.7,15.1z M9,16.2c1.2-1.4,2.8-3,4.6-4.6c1.6-1.3,3.1-2.4,4.5-3.3c-1.2,1.1-2.4,2.1-3.7,3.2
			C12.6,13,10.8,14.6,9,16.2z M18,9.8c-1.4,1.2-2.7,2.4-4,3.4c0.2-0.2,0.5-0.4,0.7-0.7c0.9-0.8,1.7-1.6,2.5-2.4
			c-0.1,0.1-0.2,0.2-0.3,0.3c-0.1,0.1-0.1,0.1-0.2,0.2c-1.4,1.2-2.7,2.5-4,3.7c-1,0.9-2,1.7-3,2.4c1.2-1.2,2.6-2.5,4.1-3.8
			c1.1-1,2.2-1.9,3.3-2.7c1.2-1,2.3-1.9,3.4-2.8C19.7,8.2,18.9,9,18,9.8z"/>
	</defs>
	<clipPath id="SVGID_2_">
		<use xlink:href="#SVGID_1_"  style="overflow:visible;"/>
	</clipPath>
	<path class="st0" d="M8,0C7.9,0,7.8,0,7.7,0.1L0.6,4.4C0.4,4.5,0.3,4.8,0.3,5.1c0.1,0.3,0.3,0.5,0.6,0.5h14.2
		c0.3,0,0.6-0.3,0.6-0.6c0-0.3-0.1-0.5-0.4-0.6l-7-4.3C8.2,0,8.1,0,8,0z"/>
	<path class="st0" d="M8,2.1c0.7,0,1.3,0.6,1.3,1.3c0,0.7-0.6,1.3-1.3,1.3c-0.7,0-1.3-0.6-1.3-1.3C6.7,2.7,7.3,2.1,8,2.1L8,2.1z"/>
	<path class="st0" d="M0.9,6.2v0.6c0,0.3,0.3,0.6,0.6,0.6v4.9h1.8V7.4C3.7,7.4,4,7.1,4,6.8V6.2H0.9z"/>
	<path class="st0" d="M4.6,6.2v0.6c0,0.3,0.3,0.6,0.6,0.6v4.9h1.8V7.4c0.3,0,0.6-0.3,0.6-0.6V6.2H4.6z"/>
	<path class="st0" d="M8.3,6.2v0.6c0,0.3,0.3,0.6,0.6,0.6v4.9h1.8V7.4c0.3,0,0.6-0.3,0.6-0.6V6.2H8.3z"/>
	<path class="st0" d="M12,6.2v0.6c0,0.3,0.3,0.6,0.6,0.6v4.9h1.8V7.4c0.3,0,0.6-0.3,0.6-0.6V6.2H12z"/>
	<path class="st0" d="M1.5,12.9v1.2H0.9c-0.3,0-0.6,0.3-0.6,0.6v0.6c0,0.3,0.3,0.6,0.6,0.6h14.2c0.3,0,0.6-0.3,0.6-0.6v-0.6
		c0-0.3-0.3-0.6-0.6-0.6h-0.6v-1.2H1.5z"/>
</g>
</svg>
