<?xml version="1.0" encoding="utf-8"?>
<!-- Generator: Adobe Illustrator 23.0.0, SVG Export Plug-In . SVG Version: 6.00 Build 0)  -->
<svg version="1.1" id="Layer_1" xmlns="http://www.w3.org/2000/svg" xmlns:xlink="http://www.w3.org/1999/xlink" x="0px" y="0px"
	 viewBox="0 0 16 16" style="enable-background:new 0 0 16 16;" xml:space="preserve">
<style type="text/css">
	.st0{clip-path:url(#SVGID_2_);}
	.st1{enable-background:new    ;}
	.st2{fill:#F75049;}
</style>
<g>
	<defs>
		<path id="SVGID_1_" d="M22.2,5.6c-0.1-0.2-0.4,0-0.7-0.3c-0.3-0.2-0.2-0.4-0.4-0.5c-0.5-0.3-1.5,0.6-1.5,0.6c0,0,0.4-0.3,0.9-0.8
			c0.3-0.3,0.8-0.8,0.6-1.2C21,3.1,20.8,3.2,20.7,3c-0.1-0.3,0.6-0.5,0.5-0.9c0-0.2-0.2-0.3-0.4-0.4C20.5,1.5,20,2,20,1.9
			c0,0,0.3-0.2,0.5-0.6c0-0.1,0.2-0.4,0.1-0.6c-0.1-0.1-0.3-0.1-0.4-0.1c-0.1,0-0.2,0.1-0.3,0.1c0,0,0-0.1,0-0.2
			c0-0.2-0.4-0.3-0.7-0.4c-0.6-0.1-1.1,0.6-1.2,0.5c-0.1-0.1,0.6-0.6,0.4-1c-0.1-0.2-0.3-0.3-0.4-0.3c-0.3,0-0.5,0.4-0.6,0.3
			c-0.2-0.1,0.1-0.8-0.1-1c-0.2-0.1-0.4,0.1-0.7,0c-0.2-0.1-0.2-0.2-0.3-0.2c-0.4-0.1-0.9,0.5-1.6,1.1c-0.3,0.2-0.7,0.6-1.3,1
			c0.3-0.4,0.6-0.7,0.8-0.9c0.5-0.5,0.7-0.7,0.7-1.1c0-0.2,0-0.4-0.2-0.5c-0.2-0.1-0.5,0.2-1.3,0.7C13.2-1.2,13-1.1,12.9-1
			c0,0,0.4-0.4,0.2-0.8c0,0-0.1-0.2-0.2-0.3c-0.5-0.4-1.3-0.2-1.4-0.2c-1,0.2-1.3,1-2.5,1.6c0,0-0.2,0.1-0.4,0.2
			C8-0.3,7.8-0.2,7.7-0.1C7.4,0.1,7.2,0.3,7,0.6C6.9,0.9,6.9,1.1,6.8,1.3C6.6,1.5,6.4,1.5,6.3,1.5C5.6,1.7,4.8,2.9,4.6,3.1
			c-0.5,0.7-2,2.3-6.2,6c5.6-5.9,7.4-7.8,7.4-8c0,0,0,0,0,0c0-0.1,0.2-0.5,0-0.7c-0.1-0.1-0.3,0-0.4-0.2c0,0-0.1-0.1,0-0.2
			C5.6-0.1,6-0.2,6-0.3c0,0-0.1-0.1-0.2-0.1C5.4-0.5,5.4-0.6,5.3-0.7C5-0.7,4.7-0.6,4.5-0.5C4.2-0.3,4.1-0.2,4-0.2
			C4-0.3,4.1-0.4,4-0.6C3.9-0.7,3.7-0.7,3.6-0.7C3.2-0.6,3-0.3,2.9-0.4c-0.1-0.1,0-0.2-0.1-0.4C2.7-0.9,2.6-0.9,2.4-1
			C2.2-1.2,2.3-1.3,2-1.6C1.9-1.7,1.8-1.9,1.5-2C1.3-2.1,1.2-2,0.9-2.1C0.6-2.2,0.6-2.4,0.3-2.4c-0.2,0-0.3,0-0.5,0.1
			C-0.5-2.1-0.5-2-0.7-2c-0.2,0-0.3-0.2-0.6-0.3c-0.1,0-0.3,0-0.3,0c-0.1,0.1,0,0.4-0.1,0.6c-0.1,0.1-0.2,0.1-0.3,0
			c-0.1-0.1-0.1-0.2-0.2-0.2c-0.2-0.2-1.4,0.1-1.7,0.7C-4-1-4.1-0.9-4.2-0.8c-0.2,0.1-0.3,0-0.5,0c-0.3,0-0.6,0.3-1.3,1.1
			c0,0-0.1,0.2-0.7,0.7C-7.8,2.3-8,2.4-8,2.8c0,0.6,0.1,0.9,0.1,0.9c0,0.1,0.1,0.3,0,0.4C-8,4.2-8,4.1-8.1,4.2C-8.2,4.4-8,4.6-8,5.1
			c0,0,0,0-0.1,0.3c-0.1,0.6-0.1,0.8,0,0.8C-8.1,6.4-8,6.4-7.8,6.4c0.2,0,0.4-0.1,0.4-0.1C-7,5.7-6.5,5.1-6.1,4.6
			C-6.3,5-6.4,5.3-6.6,5.5C-6.8,5.8-7,6-7.2,6.3c-0.1,0.1-0.1,0.2-0.2,0.4C-7.4,7-7.6,7.4-7.4,7.7C-7.4,7.8-7.3,7.9-7.3,8
			c0,0.2-0.1,0.3,0,0.5C-7.2,8.6-7.1,8.6-7,8.6c0.1,0.2,0,0.4,0,0.7c0,0.2,0.1,0.1,0.1,0.3c0.1,0.3-0.1,0.4,0,0.8
			c0,0.2,0,0.3,0.1,0.3c0.2,0.1,0.4-0.1,0.7,0.1c0.2,0.1,0.1,0.4,0.4,0.4c0.1,0,0.2-0.1,0.5,0c0,0,0.4,0,0.4,0.2
			c0,0.1-0.1,0.3-0.3,0.4c-0.4,0.2-1-0.1-1,0c0,0.1,0.1,0.3,0.3,0.4c1.2,1.1,1.2,1.2,1.6,1.4c0.4,0.2,0.3,0.1,0.8,0.4
			c0.6,0.4,1.3,0.7,1.3,1.2c0,0.3-0.2,0.3-0.2,0.7c0,0.3,0.1,0.7,0.4,0.8c0.2,0.1,0.4-0.1,0.7-0.1c0.4,0,0.4,0.3,0.7,0.3
			c0.4,0,0.6-0.5,1-0.4c0.2,0,0.2,0.2,0.5,0.3c0.2,0.1,0.5,0,0.6,0c1.2-1.3,3.2-3.2,5.5-5.7c1.9-2,2.5-2.6,3.5-3.7
			c3.1-3,6.4-5.3,6.6-5.1c0.1,0.1-1.4,1.5-6.5,6.4c-3.6,3.4-6.5,6.2-8.4,8.1c0,0.4,0.1,0.5,0.2,0.6c0.3,0.2,0.6-0.2,0.9,0
			c0.1,0.1,0.3,0.3,0.4,0.5c0.1,0.2,0,0.3,0.1,0.5c0.1,0.1,0.1,0,0.2,0.1C4.1,18.7,4,18.9,4.2,19c0.2,0.2,0.5,0.1,0.5,0.2
			c0,0.1-0.1,0.2,0,0.3c0,0.2,0.2,0.2,0.2,0.3c0.1,0.2-0.3,0.3-0.4,0.7c-0.1,0.2,0.1,0.3,0.1,0.6c0,0.6-0.7,0.7-0.6,1.1
			c0,0.3,0.3,0.5,0.5,0.6c0.4,0.1,0.5-0.5,1-0.5c0.5,0,0.7,0.7,1.1,0.6c0.3,0,0.4-0.4,0.7-0.4c0.2,0,0.4,0.1,0.5,0
			c0.1-0.1,0.1-0.3,0.3-0.3c0.1,0,0.1,0,0.2,0c0.3,0,0.7-0.5,0.8-0.9c0.1-0.4,0-0.6,0.2-0.9c0.1-0.3,0.3-0.4,0.4-0.5
			c0.7-0.5,1.4-1.2,2.1-1.9c1-0.9,1.1-1.3,1.7-1.6c0.1,0,0.3-0.2,0.6-0.4c0.4-0.3,0.5-0.7,0.7-1c0.5-0.9,1-1,2-2.4
			c0-0.1,0.3-0.4,0.2-0.4c-0.1-0.1-1.4,1.4-1.7,1.1c-0.1-0.1-0.1-0.2-0.1-0.3c0.1-0.7,1-0.9,2.3-2c0.3-0.3,0.2-0.2,0.6-0.6
			c1-0.9,2-1.5,2.3-2.1c0.2-0.3,0.3-0.7,0.3-0.7c0-0.1,0-0.2,0.1-0.2c0.1-0.3,0.3-0.4,0.8-1C22.2,5.8,22.3,5.7,22.2,5.6z M2,4.7
			c-0.4,0.5-0.8,0.8-1.1,1C1.1,5.4,1.4,5,1.9,4.6c0.2-0.2,0.4-0.3,0.5-0.4C2.3,4.3,2.2,4.5,2,4.7z M1.8,3.2C2.3,2.6,2.9,2,3.4,1.6
			C3,2.1,2.5,2.7,1.9,3.3C1.6,3.7,1.2,4,0.8,4.3C1.1,4,1.4,3.6,1.8,3.2z M-4.8,3.2c0.1-0.2,0.3-0.5,0.5-0.7C-4.2,2.3-4.1,2.2-4,2.2
			c-0.1,0.1-0.1,0.2-0.2,0.3C-4.4,2.8-4.6,3-4.8,3.2z M-3.8,12.9C-4,13-4.1,13.1-4.1,13.1c0-0.1,0-0.2,0.1-0.4
			c0.1-0.2,0.3-0.2,0.4-0.2C-3.7,12.6-3.7,12.7-3.8,12.9z M-4.2,7.3c0.4-0.5,0.8-0.9,1.2-1.4C-3,6-3,6.1-3,6.3
			C-3.4,6.6-3.8,7-4.2,7.3z M-2.2,14.5c-0.1,0-0.2-0.2-0.6-0.7C-2.9,13.7-3,13.6-3,13.4c0-0.1,0.1-0.1,0.3-0.2
			c0.1-0.1,0.3-0.2,0.5-0.5c0,0.2-0.1,0.4-0.1,0.5c-0.1,0.1-0.1,0.2-0.1,0.3c0,0.1,0.1,0,0.2,0.1c0.1,0.1,0,0.2,0,0.3
			C-2.3,14.2-2.1,14.5-2.2,14.5z M-2.3,1C-2.2,0.8-2,0.5-1.8,0.3C-1.7,0.2-1.6,0.1-1.5,0c-0.1,0.1-0.1,0.2-0.2,0.3
			C-1.9,0.7-2.1,0.9-2.3,1z M1.1,8.9c1.2-1.6,2.8-3.3,4.6-5c1.3-1.3,2.6-2.4,3.8-3.3C8.5,1.4,7.6,2.2,6.8,3.1C4.8,5,2.9,7,1.1,8.9z
			 M6.9,3.9c1-1,1.9-1.8,2.8-2.4C9.2,2.1,8.7,2.7,8.1,3.3c-1.4,1.5-2.7,2.8-4,4C4.8,6.3,5.7,5.1,6.9,3.9z M9.1,6
			c1.3-1.1,2.6-2.2,3.8-3.1c-0.8,0.8-1.7,1.7-2.7,2.6C8.4,7.1,6.6,8.7,4.8,10C6.1,8.7,7.5,7.4,9.1,6z M11.1,6.1
			c-1.9,1.7-3.7,3.2-5.5,4.6C7,9.4,8.4,8.1,10,6.7c1.3-1.1,2.6-2.2,3.8-3.1C13,4.4,12.1,5.3,11.1,6.1z M18,4.3
			c-0.8,0.8-1.7,1.7-2.7,2.6c-1.9,1.7-3.7,3.2-5.5,4.6c1.3-1.3,2.7-2.6,4.3-4C15.5,6.3,16.7,5.3,18,4.3z M6.7,13.5
			c1.7-2,3.7-4.2,6.1-6.3c1.1-1,2.1-1.8,3.1-2.7c-1.1,1.2-2.3,2.3-3.4,3.5C10.6,9.9,8.6,11.7,6.7,13.5z M7.1,15.5
			c1.9-1.8,3.9-3.7,6-5.6c1.7-1.5,3.3-2.9,5-4.2c-1.3,1.3-2.7,2.5-4.1,3.8C11.7,11.6,9.4,13.6,7.1,15.5z M7.4,16.7
			c1.3-1.5,2.9-3.2,4.9-4.9c1.7-1.4,3.3-2.6,4.7-3.5c-1.3,1.1-2.6,2.3-3.9,3.4C11.3,13.3,9.4,15,7.4,16.7z M17,9.9
			c-1.4,1.3-2.9,2.5-4.2,3.6c0.3-0.2,0.5-0.5,0.8-0.7c0.9-0.9,1.8-1.7,2.7-2.6c-0.1,0.1-0.2,0.2-0.3,0.3c-0.1,0.1-0.1,0.1-0.2,0.2
			c-1.5,1.3-2.9,2.6-4.2,3.9c-1.1,0.9-2.1,1.8-3.2,2.5c1.3-1.3,2.7-2.6,4.3-4c1.2-1,2.3-2,3.5-2.9c1.2-1.1,2.4-2,3.6-2.9
			C18.9,8.2,18,9,17,9.9z"/>
	</defs>
	<clipPath id="SVGID_2_">
		<use xlink:href="#SVGID_1_"  style="overflow:visible;"/>
	</clipPath>
	<g transform="translate(0,-292.76665)" class="st0">
		<g transform="matrix(0.01653646,0,0,0.01653646,-0.72840135,292.15062)" class="st1">
			<path class="st2" d="M357.8,599.4c29.5-57.8,63-122.9,89.8-188.2l0,0l10.6-25.8c-35-133.3-56-240.3-37.3-309.4l0,0
				c5.1-18,25.9-29,48.3-29l0,0l13.6,0.2h2.5c30.6-0.5,45,38.4,46.6,53.5l0,0c2.7,25.2-9,67.8-9,67.8l0,0c0-17.2,0.7-45-10.2-69l0,0
				c-12.6-27.8-24.7-44.4-35.6-47l0,0c-5.5,3.7-10.8,11.2-12.6,25.8l0,0c-3.8,20.4-4.9,46.1-4.9,59.4l0,0
				c0,46.9,9.2,108.8,27.4,172.6l0,0c3.4-9.9,6.4-19.4,8.8-28.3l0,0c3.7-14,27.4-106.9,27.4-106.9l0,0c0,0-6,123.7-14.3,161.1l0,0
				c-1.8,7.9-3.8,15.7-5.8,23.7l0,0c29.9,83.6,78.1,158.2,135.6,211.9l0,0c22.7,21.2,51.3,38.3,78.4,53.9l0,0
				c59.2-8.5,113.7-12.5,159.2-11.9l0,0c60.3,0.8,104.6,9.7,122.5,27.4l0,0c8.8,8.6,12.3,19,13.4,30.6l0,0
				c0.3,4.5-1.9,15.1-2.6,17.8l0,0c0.6-3.2,0.6-19.1-47.8-34.6l0,0c-38.1-12.2-109.5-11.8-195.2-2.7l0,0
				c99.1,48.5,195.6,72.5,226.2,58.1l0,0c7.5-3.6,16.5-16.1,16.5-16.1l0,0c0,0-5.4,24.5-9.3,30.6l0,0c-4.9,6.7-14.6,13.9-23.8,16.3
				l0,0c-48.3,12.9-174-16.9-283.6-79.6l0,0c-122.5,18-257,51.4-364.8,86.7l0,0C222.1,933.9,142.5,1019.2,77.7,986.7l0,0l-23.8-12
				c-9.7-5.5-11.2-19-8.9-30l0,0c7.6-37,53.9-92.6,147-148.2l0,0c10-6.1,54.7-29.7,54.7-29.7l0,0c0,0-33,32-40.8,38.3l0,0
				C131.5,866,76.7,942.6,78,972.3l0,0l0.3,2.6C141.4,965.9,236.1,837.5,357.8,599.4 M396.3,619.1c-20.3,38.3-40.2,73.8-58.5,106.4
				l0,0c101.5-42.5,210.7-69.7,314.6-89l0,0c-14-9.6-27.5-19.9-40.3-30.7l0,0c-57.2-48.5-100.9-108.9-132.5-172.5l0,0
				C459.5,487.3,435.7,544.7,396.3,619.1"/>
		</g>
	</g>
</g>
</svg>
