<?xml version="1.0" encoding="utf-8"?>
<!-- Generator: Adobe Illustrator 23.0.0, SVG Export Plug-In . SVG Version: 6.00 Build 0)  -->
<svg version="1.1" id="Layer_1" xmlns="http://www.w3.org/2000/svg" xmlns:xlink="http://www.w3.org/1999/xlink" x="0px" y="0px"
	 viewBox="0 0 16 16" style="enable-background:new 0 0 16 16;" xml:space="preserve">
<style type="text/css">
	.st0{clip-path:url(#SVGID_2_);fill:#F75049;}
	.st1{clip-path:url(#SVGID_2_);fill-rule:evenodd;clip-rule:evenodd;fill:#F75049;}
</style>
<g>
	<defs>
		<path id="SVGID_1_" d="M18.4,4.9c-0.1-0.1-0.3,0-0.6-0.2c-0.2-0.2-0.2-0.3-0.3-0.4c-0.4-0.2-1.3,0.5-1.3,0.5c0,0,0.4-0.3,0.7-0.7
			c0.2-0.2,0.6-0.7,0.5-1c-0.1-0.2-0.3-0.2-0.3-0.3c0-0.3,0.5-0.4,0.4-0.7c0-0.2-0.2-0.3-0.3-0.3c-0.3-0.1-0.8,0.2-0.8,0.2
			c0,0,0.3-0.2,0.4-0.5c0-0.1,0.2-0.3,0.1-0.5c-0.1-0.1-0.3-0.1-0.4-0.1c-0.1,0-0.2,0.1-0.2,0c0,0,0-0.1,0-0.2
			c0-0.2-0.3-0.3-0.6-0.3c-0.5,0-0.9,0.5-1,0.4c-0.1-0.1,0.5-0.5,0.4-0.9c0-0.1-0.2-0.3-0.4-0.3c-0.3,0-0.4,0.3-0.5,0.3
			c-0.1-0.1,0.1-0.7-0.1-0.9c-0.1-0.1-0.3,0.1-0.6,0c-0.2-0.1-0.2-0.1-0.3-0.2C13-1.3,12.6-0.7,12-0.2c-0.2,0.2-0.6,0.5-1.1,0.8
			c0.3-0.3,0.5-0.6,0.7-0.7c0.4-0.4,0.6-0.6,0.6-0.9c0-0.1,0-0.4-0.2-0.4c-0.2-0.1-0.4,0.2-1.1,0.6c-0.2,0.1-0.3,0.2-0.4,0.3
			c0,0,0.3-0.4,0.2-0.7c0,0-0.1-0.2-0.2-0.3c-0.4-0.3-1.1-0.2-1.2-0.2C8.5-1.5,8.2-0.9,7.2-0.4c0,0-0.1,0.1-0.3,0.2
			C6.5,0,6.3,0.1,6.2,0.1C5.9,0.3,5.7,0.5,5.6,0.7C5.5,1,5.5,1.1,5.4,1.3C5.2,1.4,5.1,1.5,5,1.5C4.4,1.6,3.7,2.7,3.6,2.8
			C3.2,3.4,1.9,4.7-1.6,7.9c4.7-5,6.2-6.6,6.2-6.7c0,0,0,0,0,0c0-0.1,0.2-0.4,0-0.6c-0.1-0.1-0.2,0-0.3-0.1c0,0,0-0.1,0-0.1
			c0-0.2,0.4-0.2,0.4-0.3c0,0-0.1-0.1-0.2-0.1C4.3-0.2,4.3-0.3,4.1-0.4C3.9-0.4,3.6-0.3,3.5-0.2C3.3-0.1,3.1,0.1,3.1,0
			c0,0,0-0.2,0-0.3C3-0.4,2.8-0.3,2.8-0.3c-0.3,0-0.5,0.3-0.6,0.2c-0.1,0,0-0.2-0.1-0.3C2-0.6,1.9-0.5,1.7-0.6
			C1.5-0.8,1.6-0.9,1.4-1.2C1.3-1.3,1.2-1.4,1-1.5c-0.2-0.1-0.3,0-0.5-0.1C0.2-1.6,0.2-1.8,0-1.8c-0.2,0-0.3,0-0.4,0.1
			c-0.3,0.1-0.3,0.3-0.5,0.3c-0.2,0-0.2-0.2-0.5-0.2c-0.1,0-0.2,0-0.3,0c-0.1,0.1,0,0.4-0.1,0.5c-0.1,0.1-0.2,0.1-0.3,0
			c-0.1-0.1-0.1-0.1-0.1-0.2c-0.2-0.2-1.1,0.1-1.4,0.6c0,0.1-0.1,0.2-0.2,0.3c-0.2,0.1-0.3,0-0.5,0c-0.3,0-0.5,0.2-1.1,1
			c0,0-0.1,0.1-0.6,0.6c-0.9,1-1,1.1-1.1,1.4c0,0.5,0,0.7,0,0.7c0,0.1,0.1,0.3,0,0.4C-7,3.7-7,3.7-7.1,3.7c-0.1,0.1,0.1,0.4,0,0.8
			c0,0,0,0,0,0.3c-0.1,0.5-0.1,0.6,0,0.7C-7.1,5.6-7,5.6-6.9,5.6c0.2,0,0.3-0.1,0.4-0.1C-6.2,5-5.8,4.5-5.4,4.1
			c-0.2,0.3-0.3,0.6-0.4,0.7C-6,5-6.1,5.2-6.3,5.5c0,0.1-0.1,0.2-0.2,0.4c-0.1,0.2-0.2,0.5-0.1,0.8c0,0.1,0.1,0.2,0.1,0.3
			c0,0.2,0,0.3,0,0.4c0,0.1,0.1,0.1,0.2,0.1c0.1,0.1,0,0.3,0,0.6c0,0.2,0.1,0.1,0.1,0.3C-6,8.6-6.1,8.7-6.1,9c0,0.1,0,0.2,0.1,0.3
			c0.1,0.1,0.4-0.1,0.6,0c0.2,0.1,0.1,0.3,0.3,0.4c0.1,0,0.2-0.1,0.4,0c0,0,0.3,0,0.3,0.1c0,0.1-0.1,0.3-0.3,0.4
			c-0.4,0.2-0.8-0.1-0.9,0c0,0.1,0.1,0.2,0.2,0.3c1,0.9,1,1,1.3,1.2c0.3,0.2,0.3,0.1,0.7,0.3c0.5,0.3,1.1,0.6,1.1,1
			c0,0.2-0.2,0.3-0.1,0.6c0,0.2,0.1,0.5,0.3,0.6c0.2,0.1,0.3-0.1,0.6-0.1c0.3,0,0.3,0.2,0.6,0.3c0.4,0,0.5-0.4,0.8-0.4
			c0.2,0,0.2,0.2,0.4,0.3c0.2,0.1,0.4,0,0.5,0c1-1.1,2.6-2.7,4.6-4.8c1.6-1.7,2.1-2.2,3-3.1C11.1,4,13.9,2,14,2.2
			c0.1,0.1-1.2,1.3-5.5,5.4c-3,2.8-5.4,5.2-7.1,6.8c0,0.3,0.1,0.5,0.2,0.5c0.2,0.1,0.5-0.2,0.8,0c0.1,0.1,0.3,0.2,0.3,0.4
			c0,0.2,0,0.3,0.1,0.4c0.1,0.1,0.1,0,0.2,0.1c0.2,0.2,0.1,0.3,0.3,0.5c0.2,0.1,0.4,0,0.4,0.2c0,0.1,0,0.1,0,0.3
			c0,0.1,0.2,0.1,0.2,0.3c0,0.2-0.3,0.3-0.3,0.6c0,0.2,0.1,0.2,0.1,0.5c0,0.5-0.6,0.6-0.5,0.9c0,0.2,0.2,0.4,0.4,0.5
			c0.3,0,0.5-0.4,0.8-0.4c0.4,0,0.6,0.6,0.9,0.5c0.3,0,0.3-0.4,0.6-0.4c0.2,0,0.3,0.1,0.4,0c0.1-0.1,0.1-0.2,0.3-0.3
			c0.1,0,0.1,0,0.2,0c0.2,0,0.6-0.4,0.7-0.8c0.1-0.4,0-0.5,0.2-0.8c0.1-0.2,0.3-0.3,0.4-0.4c0.5-0.4,1.2-1,1.8-1.6
			c0.8-0.8,0.9-1.1,1.5-1.4c0.1,0,0.3-0.1,0.5-0.3c0.3-0.3,0.4-0.6,0.6-0.8c0.4-0.8,0.8-0.8,1.7-2c0-0.1,0.2-0.3,0.2-0.4
			c-0.1-0.1-1.2,1.1-1.4,1c-0.1-0.1-0.1-0.2-0.1-0.2c0.1-0.6,0.8-0.8,1.9-1.7C14.7,9.2,14.6,9.3,15,9c0.8-0.7,1.7-1.3,2-1.7
			c0.1-0.3,0.2-0.6,0.2-0.6c0-0.1,0-0.1,0.1-0.2c0.1-0.3,0.2-0.4,0.7-0.9C18.4,5.1,18.4,5,18.4,4.9z M1.4,4.1C1.1,4.5,0.8,4.8,0.5,5
			c0.2-0.3,0.4-0.6,0.8-0.9c0.1-0.1,0.3-0.2,0.4-0.3C1.6,3.9,1.5,4,1.4,4.1z M1.2,2.9c0.5-0.5,1-1,1.4-1.4C2.3,2,1.8,2.5,1.3,3
			C1,3.3,0.7,3.6,0.4,3.9C0.6,3.5,0.9,3.2,1.2,2.9z M-4.4,2.9c0.1-0.2,0.2-0.4,0.4-0.6C-3.8,2.2-3.8,2.1-3.7,2
			c0,0.1-0.1,0.2-0.2,0.3C-4,2.5-4.2,2.7-4.4,2.9z M-3.5,11c-0.1,0.1-0.2,0.2-0.3,0.2c0,0,0-0.2,0.1-0.3c0.1-0.1,0.3-0.2,0.3-0.2
			C-3.4,10.8-3.4,10.9-3.5,11z M-3.8,6.4c0.3-0.4,0.7-0.8,1-1.2c0,0.1,0,0.2,0,0.3C-3.2,5.8-3.5,6.1-3.8,6.4z M-2.1,12.4
			c0,0-0.2-0.2-0.5-0.6c-0.1-0.1-0.2-0.2-0.2-0.3c0-0.1,0.1-0.1,0.2-0.2c0.1-0.1,0.3-0.2,0.4-0.5c0,0.2-0.1,0.3-0.1,0.4
			c0,0.1-0.1,0.2-0.1,0.3c0,0.1,0.1,0,0.1,0.1c0.1,0.1,0,0.2,0,0.3C-2.2,12.2-2.1,12.4-2.1,12.4z M-2.2,1.1C-2.1,0.9-2,0.7-1.8,0.5
			c0.1-0.1,0.2-0.2,0.2-0.2c0,0.1-0.1,0.2-0.2,0.3C-1.9,0.8-2,0.9-2.2,1.1z M0.6,7.7c1-1.3,2.3-2.8,3.8-4.2c1.1-1.1,2.2-2,3.2-2.8
			C6.9,1.4,6.1,2.1,5.4,2.8C3.7,4.4,2.1,6.1,0.6,7.7z M5.5,3.5c0.8-0.8,1.6-1.5,2.4-2C7.4,1.9,7,2.5,6.5,3C5.4,4.2,4.2,5.3,3.1,6.4
			C3.7,5.5,4.5,4.5,5.5,3.5z M7.4,5.2c1.1-0.9,2.2-1.8,3.2-2.6C9.9,3.3,9.1,4.1,8.3,4.8C6.8,6.2,5.2,7.5,3.7,8.6
			C4.8,7.5,6,6.4,7.4,5.2z M9.1,5.4C7.5,6.8,5.9,8.1,4.5,9.2C5.6,8.1,6.8,7,8.1,5.8c1.1-0.9,2.2-1.8,3.2-2.6
			C10.6,3.9,9.8,4.7,9.1,5.4z M14.8,3.8c-0.7,0.7-1.4,1.4-2.2,2.1C11,7.4,9.5,8.7,8,9.8c1.1-1.1,2.3-2.2,3.6-3.4
			C12.7,5.5,13.8,4.6,14.8,3.8z M5.3,11.6c1.4-1.7,3.1-3.5,5.1-5.3c0.9-0.8,1.8-1.5,2.6-2.2c-1,1-1.9,1.9-2.9,2.9
			C8.6,8.5,6.9,10.1,5.3,11.6z M5.7,13.2c1.6-1.5,3.2-3.1,5-4.7c1.4-1.3,2.8-2.4,4.2-3.5c-1.1,1.1-2.3,2.1-3.4,3.2
			C9.5,9.9,7.6,11.6,5.7,13.2z M6,14.2c1.1-1.3,2.5-2.7,4.1-4.1c1.4-1.2,2.7-2.2,4-3c-1.1,1-2.2,1.9-3.3,2.9
			C9.2,11.4,7.6,12.8,6,14.2z M14,8.5c-1.2,1.1-2.4,2.1-3.6,3c0.2-0.2,0.4-0.4,0.6-0.6c0.8-0.7,1.5-1.4,2.2-2.1
			C13.2,8.9,13.1,9,13,9c-0.1,0-0.1,0.1-0.2,0.2c-1.3,1.1-2.4,2.2-3.5,3.3c-0.9,0.8-1.8,1.5-2.7,2.1c1.1-1.1,2.3-2.2,3.6-3.4
			c1-0.9,2-1.7,2.9-2.4c1-0.9,2.1-1.7,3-2.5C15.5,7.1,14.8,7.8,14,8.5z"/>
	</defs>
	<clipPath id="SVGID_2_">
		<use xlink:href="#SVGID_1_"  style="overflow:visible;"/>
	</clipPath>
	<path class="st0" d="M1.8,8.2l2.8-3.6L3.7,3.4L0,8.2L3.8,13l1-1.1L1.8,8.2z"/>
	<path class="st1" d="M8.8,5h1.6l-3.2,6.4c0,0-1.3,0-1.6,0C5.6,11.4,8.8,5,8.8,5z"/>
	<path class="st0" d="M14.2,8.1l-2.8-3.5l0.9-1.2L16,8.1L12.2,13l-1-1.1L14.2,8.1z"/>
</g>
</svg>
