<?xml version="1.0" encoding="utf-8"?>
<!-- Generator: Adobe Illustrator 23.0.0, SVG Export Plug-In . SVG Version: 6.00 Build 0)  -->
<svg version="1.1" id="Layer_1" xmlns="http://www.w3.org/2000/svg" xmlns:xlink="http://www.w3.org/1999/xlink" x="0px" y="0px"
	 viewBox="0 0 16 16" style="enable-background:new 0 0 16 16;" xml:space="preserve">
<style type="text/css">
	.st0{clip-path:url(#SVGID_2_);}
	.st1{fill:#F75049;}
</style>
<g>
	<defs>
		<path id="SVGID_1_" d="M30.1,3.5c-0.1-0.2-0.5,0-0.8-0.3c-0.3-0.2-0.2-0.5-0.4-0.6c-0.6-0.4-1.9,0.7-1.9,0.7c0,0,0.5-0.4,1.1-1
			c0.3-0.4,0.9-1,0.8-1.5c-0.1-0.3-0.4-0.2-0.5-0.5c-0.1-0.4,0.7-0.6,0.7-1.1c0-0.2-0.2-0.4-0.4-0.5C28-1.5,27.3-0.9,27.3-1
			c0,0,0.4-0.3,0.6-0.7c0-0.1,0.3-0.5,0.1-0.7c-0.1-0.1-0.4-0.1-0.6-0.1c-0.2,0-0.3,0.1-0.3,0.1c-0.1,0,0-0.1,0-0.2
			c0-0.3-0.5-0.4-0.8-0.4c-0.8-0.1-1.4,0.7-1.5,0.6c-0.1-0.1,0.7-0.8,0.5-1.3C25.2-4,25-4.2,24.8-4.2c-0.4,0-0.6,0.5-0.7,0.4
			c-0.2-0.1,0.2-1-0.2-1.3c-0.2-0.1-0.4,0.1-0.8,0c-0.2-0.1-0.2-0.2-0.4-0.3c-0.5-0.2-1.1,0.6-1.9,1.3c-0.3,0.3-0.9,0.7-1.7,1.2
			c0.4-0.5,0.7-0.8,1-1.1c0.6-0.7,0.9-0.9,0.9-1.4c0-0.2,0-0.5-0.2-0.6C20.5-6,20.1-5.6,19.2-5c-0.3,0.2-0.5,0.3-0.6,0.4
			c0-0.1,0.5-0.5,0.3-1c0-0.1-0.1-0.2-0.3-0.4c-0.6-0.5-1.6-0.3-1.8-0.2c-1.3,0.3-1.6,1.2-3.1,1.9c0,0-0.2,0.1-0.5,0.3
			c-0.6,0.3-0.9,0.5-1,0.6c-0.4,0.3-0.7,0.5-0.8,0.9C11.2-2.2,11.2-2,11-1.7c-0.2,0.2-0.4,0.3-0.5,0.3C9.6-1.2,8.5,0.3,8.4,0.5
			C7.8,1.3,5.9,3.3,0.8,7.9c7-7.3,9.1-9.6,9.2-9.9c0,0,0,0,0,0c0-0.1,0.2-0.6,0-0.8C9.8-2.9,9.6-2.8,9.5-3c0,0-0.1-0.1,0-0.2
			c0.1-0.3,0.6-0.4,0.6-0.5c0-0.1-0.1-0.1-0.3-0.1C9.4-4,9.4-4.1,9.2-4.2c-0.3-0.1-0.7,0.1-1,0.2C7.9-3.8,7.7-3.6,7.6-3.6
			C7.6-3.7,7.7-3.9,7.6-4C7.5-4.2,7.3-4.2,7.2-4.2c-0.5,0-0.8,0.4-0.9,0.3c-0.1-0.1,0-0.2-0.1-0.4C6-4.5,5.8-4.4,5.6-4.6
			C5.3-4.8,5.5-5,5.2-5.4C5.1-5.5,4.9-5.7,4.6-5.9C4.2-6,4.2-5.8,3.8-5.9C3.4-6,3.4-6.3,3.1-6.3c-0.2,0-0.4,0.1-0.6,0.1
			C2.1-6,2-5.8,1.8-5.8C1.5-5.7,1.5-6,1-6.1c-0.1,0-0.3-0.1-0.4,0c-0.2,0.2,0,0.5-0.1,0.7c-0.1,0.1-0.3,0.1-0.4,0
			C-0.1-5.5,0-5.6-0.1-5.7C-0.4-6-1.8-5.6-2.2-4.8c-0.1,0.1-0.1,0.3-0.3,0.4c-0.2,0.1-0.4,0-0.7,0c-0.4,0-0.7,0.3-1.6,1.4
			c0,0-0.2,0.2-0.8,0.9c-1.3,1.5-1.5,1.6-1.5,2.1c0,0.8,0.1,1.1,0.1,1.1c0,0.2,0.1,0.4,0,0.5c-0.1,0.1-0.2,0.1-0.2,0.1
			C-7.5,2-7.2,2.4-7.2,3c0,0,0,0-0.1,0.4c-0.1,0.8-0.2,0.9-0.1,1C-7.3,4.5-7.1,4.5-7,4.5c0.3,0,0.4-0.1,0.5-0.2
			c0.6-0.7,1.1-1.3,1.7-2C-5,2.8-5.3,3.2-5.4,3.4c-0.2,0.3-0.5,0.6-0.7,1C-6.2,4.6-6.3,4.8-6.4,5c-0.1,0.3-0.3,0.8-0.1,1.1
			c0.1,0.1,0.2,0.2,0.2,0.4c0,0.3-0.1,0.4,0,0.6C-6.2,7.2-6.1,7.2-6,7.3c0.2,0.2,0,0.4,0,0.8c0,0.2,0.1,0.2,0.2,0.4
			c0.1,0.4-0.1,0.6,0,1c0,0.2,0,0.3,0.1,0.4c0.2,0.2,0.5-0.1,0.8,0.1c0.3,0.1,0.2,0.5,0.4,0.6c0.2,0.1,0.3-0.1,0.6-0.1
			c0.1,0,0.4,0,0.5,0.2c0.1,0.2-0.2,0.4-0.4,0.5c-0.5,0.3-1.2-0.1-1.3,0.1c-0.1,0.1,0.2,0.3,0.3,0.4c1.5,1.4,1.5,1.5,1.9,1.8
			c0.5,0.3,0.4,0.1,1,0.5c0.8,0.4,1.6,0.9,1.6,1.5c0,0.3-0.2,0.4-0.2,0.9c0,0.3,0.1,0.8,0.5,0.9c0.3,0.1,0.4-0.2,0.9-0.1
			c0.5,0,0.5,0.4,0.9,0.4c0.5,0,0.8-0.6,1.2-0.5c0.2,0.1,0.3,0.3,0.6,0.4c0.3,0.1,0.6,0,0.8,0c1.5-1.6,3.9-4,6.8-7
			c2.4-2.5,3-3.2,4.4-4.5c3.9-3.7,7.9-6.5,8.1-6.3c0.1,0.1-1.7,1.9-8.1,7.9c-4.4,4.2-8,7.6-10.4,9.9c0,0.5,0.1,0.7,0.2,0.7
			c0.3,0.2,0.7-0.3,1.1,0c0.1,0.1,0.4,0.3,0.5,0.6c0.1,0.2,0,0.4,0.2,0.6c0.1,0.1,0.2,0.1,0.3,0.2c0.3,0.2,0.2,0.5,0.4,0.7
			c0.2,0.2,0.6,0.1,0.6,0.3c0.1,0.1-0.1,0.2,0,0.4c0,0.2,0.2,0.2,0.3,0.4c0.1,0.3-0.4,0.4-0.5,0.9c-0.1,0.3,0.1,0.4,0.1,0.7
			c0,0.7-0.8,0.9-0.8,1.4c0,0.3,0.3,0.7,0.7,0.7c0.5,0.1,0.7-0.6,1.2-0.6c0.6,0,0.8,0.9,1.4,0.8c0.4-0.1,0.4-0.5,0.9-0.5
			c0.3,0,0.4,0.2,0.6,0.1c0.2-0.1,0.2-0.3,0.4-0.4c0.1,0,0.2,0,0.3,0c0.4,0,0.8-0.6,1-1.2c0.2-0.5,0-0.7,0.3-1.1
			c0.2-0.3,0.4-0.5,0.5-0.6c0.8-0.6,1.7-1.5,2.6-2.3c1.2-1.1,1.3-1.6,2.1-2c0.1-0.1,0.4-0.2,0.7-0.5c0.5-0.4,0.6-0.8,0.8-1.2
			c0.6-1.2,1.2-1.2,2.5-3c0.1-0.1,0.3-0.5,0.3-0.5c-0.1-0.1-1.7,1.7-2.1,1.4c-0.1-0.1-0.1-0.3-0.1-0.4c0.1-0.9,1.2-1.2,2.8-2.5
			c0.4-0.3,0.3-0.3,0.7-0.7c1.2-1.1,2.5-1.9,2.9-2.6c0.2-0.4,0.3-0.8,0.3-0.8c0-0.1,0-0.2,0.1-0.3c0.1-0.4,0.3-0.5,1-1.3
			C30.1,3.8,30.1,3.6,30.1,3.5z M5.2,2.4C4.7,3,4.3,3.4,3.8,3.7C4.1,3.3,4.4,2.8,5,2.3c0.2-0.2,0.4-0.3,0.6-0.5
			C5.5,2,5.4,2.2,5.2,2.4z M4.9,0.6c0.7-0.8,1.4-1.5,2.1-2C6.4-0.7,5.8,0,5.1,0.7C4.6,1.2,4.1,1.6,3.7,2C4.1,1.5,4.4,1.1,4.9,0.6z
			 M-3.3,0.5C-3.2,0.3-3-0.1-2.7-0.4c0.1-0.1,0.2-0.2,0.3-0.3c-0.1,0.1-0.1,0.3-0.2,0.4C-2.8,0.1-3.1,0.3-3.3,0.5z M-2.1,12.5
			c-0.1,0.2-0.3,0.2-0.4,0.3c0-0.1,0-0.3,0.1-0.4c0.2-0.2,0.4-0.3,0.4-0.3C-1.9,12.1-1.9,12.3-2.1,12.5z M-2.5,5.7
			c0.5-0.6,1-1.2,1.4-1.8c0,0.1,0,0.3,0.1,0.4C-1.5,4.8-2,5.2-2.5,5.7z M0,14.5c-0.1,0-0.2-0.3-0.8-0.9C-0.9,13.5-1,13.4-1,13.2
			c0-0.1,0.2-0.2,0.3-0.3c0.2-0.1,0.4-0.3,0.6-0.7c0,0.3-0.1,0.5-0.2,0.6c-0.1,0.1-0.2,0.3-0.1,0.4c0,0.1,0.1,0.1,0.2,0.1
			c0.1,0.1,0,0.2,0,0.4C-0.2,14.2,0.1,14.5,0,14.5z M-0.1-2.1C0-2.3,0.2-2.7,0.5-3c0.1-0.1,0.2-0.2,0.3-0.3C0.8-3.2,0.7-3,0.6-2.9
			C0.4-2.5,0.1-2.3-0.1-2.1z M4,7.6c1.5-2,3.4-4.1,5.6-6.2c1.6-1.6,3.2-2.9,4.7-4.1c-1.1,1-2.2,2.1-3.3,3.2C8.6,2.9,6.2,5.3,4,7.6z
			 M11.2,1.4c1.2-1.2,2.4-2.2,3.5-3c-0.6,0.8-1.3,1.5-2,2.3c-1.7,1.8-3.3,3.5-5,5C8.6,4.4,9.7,2.9,11.2,1.4z M13.9,4
			c1.6-1.4,3.2-2.7,4.7-3.8c-1,1-2.1,2.1-3.3,3.2C13,5.5,10.8,7.3,8.6,9C10.2,7.4,12,5.7,13.9,4z M16.4,4.2c-2.3,2.1-4.6,4-6.8,5.6
			C11.3,8.2,13,6.6,15,4.9c1.6-1.4,3.2-2.7,4.7-3.8C18.6,2.1,17.6,3.2,16.4,4.2z M24.9,2c-1,1-2.1,2.1-3.3,3.2
			c-2.3,2.1-4.6,4-6.8,5.6c1.6-1.6,3.4-3.3,5.3-4.9C21.7,4.4,23.3,3.1,24.9,2z M10.9,13.3c2.1-2.5,4.6-5.1,7.5-7.7
			c1.3-1.2,2.6-2.3,3.8-3.3c-1.4,1.4-2.8,2.9-4.2,4.3C15.7,8.8,13.3,11.1,10.9,13.3z M11.5,15.7c2.3-2.3,4.8-4.6,7.4-6.9
			C20.9,7,23,5.3,25,3.6c-1.6,1.6-3.3,3.1-5,4.7C17.1,10.9,14.3,13.4,11.5,15.7z M11.9,17.2c1.6-1.9,3.6-4,6-6c2-1.7,4-3.2,5.8-4.3
			c-1.6,1.4-3.2,2.8-4.8,4.2C16.6,13.1,14.2,15.2,11.9,17.2z M23.7,8.8c-1.8,1.6-3.5,3.1-5.2,4.4c0.3-0.3,0.6-0.6,0.9-0.9
			c1.2-1.1,2.2-2.1,3.3-3.2c-0.1,0.1-0.3,0.2-0.4,0.3c-0.1,0.1-0.2,0.1-0.3,0.2c-1.9,1.6-3.6,3.2-5.2,4.8c-1.3,1.1-2.6,2.2-3.9,3.1
			c1.6-1.6,3.4-3.3,5.3-4.9c1.5-1.3,2.9-2.4,4.3-3.5c1.5-1.3,3-2.5,4.5-3.6C25.9,6.7,24.8,7.8,23.7,8.8z"/>
	</defs>
	<clipPath id="SVGID_2_">
		<use xlink:href="#SVGID_1_"  style="overflow:visible;"/>
	</clipPath>
	<g class="st0">
		<path class="st1" d="M5.1,6.4c0.2,0.4,0.2,0.8,0,1.2C4.9,8,4.5,8,4.1,8c0-0.6,0-1.2,0-1.9c0.1,0,0.3,0,0.4,0
			C4.7,6.1,5,6.2,5.1,6.4z"/>
		<path class="st1" d="M8.6,0.1C5.9,0.6,3.2,1.3,0.5,1.7v12.4c2.7,0.5,5.4,1.1,8.1,1.6h0.8V0.1H8.6z M5.4,8.8C5,9,4.5,9,4.1,9v2.2
			c-0.4,0-0.7-0.1-1.1-0.1c0-2,0-3.9,0-5.8C3.5,5.2,4,5,4.5,5c0.5,0,1,0.1,1.5,0.5C6.8,6.5,6.6,8.2,5.4,8.8z"/>
		<path class="st1" d="M5.2,7.6C4.9,8,4.5,8,4.1,8c0-0.6,0-1.2,0-1.9c0.1,0,0.3,0,0.4,0c0.2,0,0.5,0.1,0.6,0.3
			C5.3,6.8,5.3,7.2,5.2,7.6z"/>
		<path class="st1" d="M5.2,7.6C4.9,8,4.5,8,4.1,8c0-0.6,0-1.2,0-1.9c0.1,0,0.3,0,0.4,0c0.2,0,0.5,0.1,0.6,0.3
			C5.3,6.8,5.3,7.2,5.2,7.6z"/>
		<path class="st1" d="M9.9,2.4v1.8C10.2,4.2,10.5,4,10.8,4v2.5h2.5c-0.1,0.8-0.4,1.5-1.1,1.9c-0.7,0.4-1.5,0.4-2.2,0.2
			c0,0.4,0,1.1,0,1.5h4.5v0.6H9.9v1.1h4.5v0.6H9.9V14h5.6V2.4H9.9z M11.3,6V3.7c1.2,0.1,2.2,1.1,2.3,2.3H11.3z"/>
	</g>
</g>
</svg>
