<?xml version="1.0" encoding="utf-8"?>
<!-- Generator: Adobe Illustrator 23.0.0, SVG Export Plug-In . SVG Version: 6.00 Build 0)  -->
<svg version="1.1" id="Layer_1" xmlns="http://www.w3.org/2000/svg" xmlns:xlink="http://www.w3.org/1999/xlink" x="0px" y="0px"
	 viewBox="0 0 16 16" style="enable-background:new 0 0 16 16;" xml:space="preserve">
<style type="text/css">
	.st0{clip-path:url(#SVGID_2_);fill:#F75049;}
</style>
<g>
	<defs>
		<path id="SVGID_1_" d="M21.3,5.9c-0.1-0.1-0.3,0-0.6-0.2c-0.2-0.2-0.2-0.3-0.3-0.4C20,5,19.2,5.7,19.1,5.7c0,0,0.4-0.3,0.7-0.7
			c0.2-0.2,0.6-0.7,0.5-1c-0.1-0.2-0.3-0.2-0.3-0.3c0-0.3,0.5-0.4,0.4-0.7c0-0.2-0.2-0.3-0.3-0.3c-0.3-0.1-0.8,0.2-0.8,0.2
			c0,0,0.3-0.2,0.4-0.5c0-0.1,0.2-0.3,0.1-0.5c-0.1-0.1-0.3-0.1-0.4-0.1c-0.1,0-0.2,0.1-0.2,0c0,0,0-0.1,0-0.2
			c0-0.2-0.3-0.3-0.6-0.3c-0.5,0-0.9,0.5-1,0.4c-0.1-0.1,0.5-0.5,0.4-0.9c0-0.1-0.2-0.3-0.4-0.3c-0.3,0-0.4,0.3-0.5,0.3
			c-0.1-0.1,0.1-0.7-0.1-0.9c-0.1-0.1-0.3,0.1-0.6,0c-0.2-0.1-0.2-0.1-0.3-0.2c-0.3-0.1-0.8,0.4-1.3,0.9c-0.2,0.2-0.6,0.5-1.1,0.8
			c0.3-0.3,0.5-0.6,0.7-0.7c0.4-0.4,0.6-0.6,0.6-0.9c0-0.1,0-0.4-0.2-0.4c-0.2-0.1-0.4,0.2-1.1,0.6c-0.2,0.1-0.3,0.2-0.4,0.3
			c0,0,0.3-0.4,0.2-0.7c0,0-0.1-0.2-0.2-0.3c-0.4-0.3-1.1-0.2-1.2-0.2c-0.9,0.2-1.1,0.8-2.1,1.3c0,0-0.1,0.1-0.3,0.2
			C9.4,1,9.2,1.1,9.1,1.1C8.8,1.3,8.6,1.4,8.5,1.7C8.4,2,8.5,2.1,8.3,2.3C8.2,2.4,8,2.5,8,2.5C7.4,2.6,6.6,3.7,6.5,3.8
			C6.1,4.4,4.8,5.7,1.3,8.9c4.7-5,6.2-6.6,6.2-6.7c0,0,0,0,0,0c0-0.1,0.2-0.4,0-0.6c-0.1-0.1-0.2,0-0.3-0.1c0,0,0-0.1,0-0.1
			c0-0.2,0.4-0.2,0.4-0.3c0,0-0.1-0.1-0.2-0.1C7.2,0.8,7.2,0.7,7.1,0.6C6.8,0.6,6.6,0.7,6.4,0.8C6.2,0.9,6.1,1,6,1c0,0,0-0.2,0-0.3
			C5.9,0.6,5.8,0.6,5.7,0.7c-0.3,0-0.5,0.3-0.6,0.2C5,0.8,5.1,0.7,5,0.6C4.9,0.4,4.8,0.5,4.6,0.4C4.5,0.2,4.5,0.1,4.3-0.2
			C4.3-0.3,4.1-0.4,3.9-0.5c-0.2-0.1-0.3,0-0.5-0.1C3.2-0.6,3.1-0.8,2.9-0.8c-0.2,0-0.3,0-0.4,0.1C2.2-0.6,2.2-0.4,2-0.4
			c-0.2,0-0.2-0.2-0.5-0.2c-0.1,0-0.2,0-0.3,0c-0.1,0.1,0,0.4-0.1,0.5c-0.1,0.1-0.2,0.1-0.3,0C0.8-0.2,0.8-0.3,0.7-0.4
			C0.5-0.6-0.4-0.3-0.7,0.2c0,0.1-0.1,0.2-0.2,0.3c-0.2,0.1-0.3,0-0.5,0c-0.3,0-0.5,0.2-1.1,1c0,0-0.1,0.1-0.6,0.6
			c-0.9,1-1,1.1-1.1,1.4c0,0.5,0,0.7,0,0.7c0,0.1,0.1,0.3,0,0.4c-0.1,0.1-0.1,0-0.2,0.1c-0.1,0.1,0.1,0.4,0,0.8c0,0,0,0,0,0.3
			c-0.1,0.5-0.1,0.6,0,0.7C-4.1,6.6-4.1,6.5-4,6.5c0.2,0,0.3-0.1,0.4-0.1C-3.2,6-2.8,5.5-2.5,5.1c-0.2,0.3-0.3,0.6-0.4,0.7
			C-3.1,6-3.2,6.2-3.4,6.5c0,0.1-0.1,0.2-0.2,0.4c-0.1,0.2-0.2,0.5-0.1,0.8c0,0.1,0.1,0.2,0.1,0.3c0,0.2,0,0.3,0,0.4
			c0,0.1,0.1,0.1,0.2,0.1c0.1,0.1,0,0.3,0,0.6c0,0.2,0.1,0.1,0.1,0.3c0.1,0.3-0.1,0.4,0,0.7c0,0.1,0,0.2,0.1,0.3
			c0.1,0.1,0.4-0.1,0.6,0c0.2,0.1,0.1,0.3,0.3,0.4c0.1,0,0.2-0.1,0.4,0c0,0,0.3,0,0.3,0.1c0,0.1-0.1,0.3-0.3,0.4
			c-0.4,0.2-0.8-0.1-0.9,0c0,0.1,0.1,0.2,0.2,0.3c1,0.9,1,1,1.3,1.2c0.3,0.2,0.3,0.1,0.7,0.3c0.5,0.3,1.1,0.6,1.1,1
			c0,0.2-0.2,0.3-0.1,0.6c0,0.2,0.1,0.5,0.3,0.6c0.2,0.1,0.3-0.1,0.6-0.1c0.3,0,0.3,0.2,0.6,0.3c0.4,0,0.5-0.4,0.8-0.4
			c0.2,0,0.2,0.2,0.4,0.3c0.2,0.1,0.4,0,0.5,0c1-1.1,2.6-2.7,4.6-4.8c1.6-1.7,2.1-2.2,3-3.1C14.1,5,16.8,3,16.9,3.2
			c0.1,0.1-1.2,1.3-5.5,5.4c-3,2.8-5.4,5.2-7.1,6.8c0,0.3,0.1,0.5,0.2,0.5c0.2,0.1,0.5-0.2,0.8,0c0.1,0.1,0.3,0.2,0.3,0.4
			c0,0.2,0,0.3,0.1,0.4c0.1,0.1,0.1,0,0.2,0.1c0.2,0.2,0.1,0.3,0.3,0.5c0.2,0.1,0.4,0,0.4,0.2c0,0.1,0,0.1,0,0.3
			c0,0.1,0.2,0.1,0.2,0.3c0,0.2-0.3,0.3-0.3,0.6c0,0.2,0.1,0.2,0.1,0.5c0,0.5-0.6,0.6-0.5,0.9c0,0.2,0.2,0.4,0.4,0.5
			c0.3,0,0.5-0.4,0.8-0.4c0.4,0,0.6,0.6,0.9,0.5c0.3,0,0.3-0.4,0.6-0.4c0.2,0,0.3,0.1,0.4,0c0.1-0.1,0.1-0.2,0.3-0.3
			c0.1,0,0.1,0,0.2,0c0.2,0,0.6-0.4,0.7-0.8c0.1-0.4,0-0.5,0.2-0.8c0.1-0.2,0.3-0.3,0.4-0.4c0.5-0.4,1.2-1,1.8-1.6
			c0.8-0.8,0.9-1.1,1.5-1.4c0.1,0,0.3-0.1,0.5-0.3c0.3-0.3,0.4-0.6,0.6-0.8c0.4-0.8,0.8-0.8,1.7-2c0-0.1,0.2-0.3,0.2-0.4
			c-0.1-0.1-1.2,1.1-1.4,1c-0.1-0.1-0.1-0.2-0.1-0.2c0.1-0.6,0.8-0.8,1.9-1.7c0.3-0.2,0.2-0.2,0.5-0.5c0.8-0.7,1.7-1.3,2-1.7
			C20,8,20.1,7.7,20.1,7.7c0-0.1,0-0.1,0.1-0.2c0.1-0.3,0.2-0.4,0.7-0.9C21.3,6.1,21.3,6,21.3,5.9z M4.4,5.1C4,5.5,3.7,5.8,3.4,6
			C3.6,5.7,3.8,5.4,4.2,5c0.1-0.1,0.3-0.2,0.4-0.3C4.6,4.9,4.5,5,4.4,5.1z M4.1,3.9c0.5-0.5,1-1,1.4-1.4C5.2,3,4.8,3.5,4.3,4
			C3.9,4.3,3.6,4.6,3.3,4.9C3.6,4.5,3.8,4.2,4.1,3.9z M-1.4,3.9C-1.3,3.7-1.2,3.4-1,3.2C-0.9,3.1-0.8,3.1-0.8,3
			c0,0.1-0.1,0.2-0.2,0.3C-1.1,3.5-1.3,3.7-1.4,3.9z M-0.6,12c-0.1,0.1-0.2,0.2-0.3,0.2c0,0,0-0.2,0.1-0.3c0.1-0.1,0.3-0.2,0.3-0.2
			C-0.5,11.8-0.5,11.9-0.6,12z M-0.9,7.4c0.3-0.4,0.7-0.8,1-1.2c0,0.1,0,0.2,0,0.3C-0.2,6.8-0.6,7.1-0.9,7.4z M0.8,13.4
			c0,0-0.2-0.2-0.5-0.6c-0.1-0.1-0.2-0.2-0.2-0.3c0-0.1,0.1-0.1,0.2-0.2c0.1-0.1,0.3-0.2,0.4-0.5c0,0.2-0.1,0.3-0.1,0.4
			c0,0.1-0.1,0.2-0.1,0.3c0,0.1,0.1,0,0.1,0.1c0.1,0.1,0,0.2,0,0.3C0.7,13.2,0.9,13.4,0.8,13.4z M0.7,2.1C0.8,1.9,1,1.7,1.2,1.4
			c0.1-0.1,0.2-0.2,0.2-0.2c0,0.1-0.1,0.2-0.2,0.3C1.1,1.8,0.9,1.9,0.7,2.1z M3.5,8.7c1-1.3,2.3-2.8,3.8-4.2c1.1-1.1,2.2-2,3.2-2.8
			C9.8,2.4,9.1,3.1,8.3,3.8C6.6,5.4,5.1,7.1,3.5,8.7z M8.5,4.4c0.8-0.8,1.6-1.5,2.4-2c-0.4,0.5-0.9,1-1.4,1.6
			C8.3,5.2,7.2,6.3,6.1,7.4C6.7,6.5,7.4,5.5,8.5,4.4z M10.3,6.2c1.1-0.9,2.2-1.8,3.2-2.6c-0.7,0.7-1.4,1.4-2.2,2.1
			C9.7,7.2,8.2,8.5,6.7,9.6C7.8,8.5,9,7.4,10.3,6.2z M12,6.4c-1.6,1.4-3.1,2.7-4.6,3.8C8.5,9.1,9.7,8,11,6.8
			c1.1-0.9,2.2-1.8,3.2-2.6C13.5,4.9,12.8,5.6,12,6.4z M17.7,4.8C17,5.5,16.3,6.2,15.5,7c-1.6,1.4-3.1,2.7-4.6,3.8
			c1.1-1.1,2.3-2.2,3.6-3.4C15.6,6.5,16.7,5.6,17.7,4.8z M8.3,12.6c1.4-1.7,3.1-3.5,5.1-5.3c0.9-0.8,1.8-1.5,2.6-2.2
			C15,6,14.1,7,13.1,8C11.5,9.5,9.9,11,8.3,12.6z M8.6,14.2c1.6-1.5,3.2-3.1,5-4.7c1.4-1.3,2.8-2.4,4.2-3.5
			c-1.1,1.1-2.3,2.1-3.4,3.2C12.5,10.9,10.5,12.6,8.6,14.2z M8.9,15.2c1.1-1.3,2.5-2.7,4.1-4.1c1.4-1.2,2.7-2.2,4-3
			c-1.1,1-2.2,1.9-3.3,2.9C12.1,12.4,10.5,13.8,8.9,15.2z M16.9,9.5c-1.2,1.1-2.4,2.1-3.6,3c0.2-0.2,0.4-0.4,0.6-0.6
			c0.8-0.7,1.5-1.4,2.2-2.1C16.2,9.9,16.1,10,16,10c-0.1,0-0.1,0.1-0.2,0.2c-1.3,1.1-2.4,2.2-3.5,3.3c-0.9,0.8-1.8,1.5-2.7,2.1
			c1.1-1.1,2.3-2.2,3.6-3.4c1-0.9,2-1.7,2.9-2.4c1-0.9,2.1-1.7,3-2.5C18.5,8.1,17.7,8.8,16.9,9.5z"/>
	</defs>
	<clipPath id="SVGID_2_">
		<use xlink:href="#SVGID_1_"  style="overflow:visible;"/>
	</clipPath>
	<path class="st0" d="M5.8,8.2l1.5,0l0-5.7l1.7,0"/>
	<path class="st0" d="M5.8,8.1l1.5,0l0,5.7l1.7,0"/>
	<path class="st0" d="M1,6.6h4.9v3.1H1V6.6z"/>
	<path class="st0" d="M9.1,0.8H14v3.1H9.1V0.8z"/>
	<path class="st0" d="M9,12.4h4.9v3.1H9V12.4z"/>
</g>
</svg>
