<?xml version="1.0" encoding="utf-8"?>
<!-- Generator: Adobe Illustrator 23.0.0, SVG Export Plug-In . SVG Version: 6.00 Build 0)  -->
<svg version="1.1" id="Layer_1" xmlns="http://www.w3.org/2000/svg" xmlns:xlink="http://www.w3.org/1999/xlink" x="0px" y="0px"
	 viewBox="0 0 16 16" style="enable-background:new 0 0 16 16;" xml:space="preserve">
<style type="text/css">
	.st0{clip-path:url(#SVGID_2_);fill-rule:evenodd;clip-rule:evenodd;fill:#F75049;}
</style>
<g>
	<defs>
		<path id="SVGID_1_" d="M23.1,5.5c-0.1-0.1-0.3,0-0.6-0.2c-0.2-0.2-0.2-0.3-0.3-0.4c-0.4-0.2-1.3,0.5-1.3,0.5c0,0,0.4-0.3,0.7-0.7
			c0.2-0.2,0.6-0.7,0.5-1c-0.1-0.2-0.3-0.2-0.3-0.3c0-0.3,0.5-0.4,0.4-0.7c0-0.2-0.2-0.3-0.3-0.3c-0.3-0.1-0.8,0.2-0.8,0.2
			c0,0,0.3-0.2,0.4-0.5c0-0.1,0.2-0.3,0.1-0.5c-0.1-0.1-0.3-0.1-0.4-0.1c-0.1,0-0.2,0.1-0.2,0c0,0,0-0.1,0-0.2C21,1.2,20.7,1,20.5,1
			c-0.5,0-0.9,0.5-1,0.4c-0.1-0.1,0.5-0.5,0.4-0.9c0-0.1-0.2-0.3-0.4-0.3c-0.3,0-0.4,0.3-0.5,0.3c-0.1-0.1,0.1-0.7-0.1-0.9
			c-0.1-0.1-0.3,0.1-0.6,0c-0.2-0.1-0.2-0.1-0.3-0.2c-0.3-0.1-0.8,0.4-1.3,0.9c-0.2,0.2-0.6,0.5-1.1,0.8c0.3-0.3,0.5-0.6,0.7-0.7
			c0.4-0.4,0.6-0.6,0.6-0.9c0-0.1,0-0.4-0.2-0.4c-0.2-0.1-0.4,0.2-1.1,0.6c-0.2,0.1-0.3,0.2-0.4,0.3c0,0,0.3-0.4,0.2-0.7
			c0,0-0.1-0.2-0.2-0.3c-0.4-0.3-1.1-0.2-1.2-0.2c-0.9,0.2-1.1,0.8-2.1,1.3c0,0-0.1,0.1-0.3,0.2c-0.4,0.2-0.6,0.3-0.7,0.4
			c-0.3,0.2-0.5,0.3-0.6,0.6c-0.1,0.3-0.1,0.4-0.2,0.6C9.9,2.1,9.8,2.1,9.7,2.1C9.1,2.3,8.4,3.3,8.3,3.4C7.9,4,6.6,5.3,3.1,8.5
			c4.7-5,6.2-6.6,6.2-6.7c0,0,0,0,0,0c0-0.1,0.2-0.4,0-0.6c-0.1-0.1-0.2,0-0.3-0.1c0,0,0-0.1,0-0.1c0-0.2,0.4-0.2,0.4-0.3
			c0,0-0.1-0.1-0.2-0.1C9,0.4,9,0.3,8.8,0.3C8.6,0.2,8.3,0.3,8.2,0.4C8,0.6,7.8,0.7,7.8,0.6c0,0,0-0.2,0-0.3
			C7.7,0.3,7.5,0.3,7.5,0.3c-0.3,0-0.5,0.3-0.6,0.2c-0.1,0,0-0.2-0.1-0.3C6.7,0.1,6.5,0.1,6.4,0C6.2-0.1,6.3-0.3,6.1-0.5
			C6-0.6,5.9-0.8,5.7-0.9c-0.2-0.1-0.3,0-0.5-0.1C4.9-1,4.9-1.2,4.7-1.2c-0.2,0-0.3,0-0.4,0.1C4-1,4-0.8,3.8-0.8
			C3.6-0.8,3.6-1,3.3-1c-0.1,0-0.2,0-0.3,0C2.9-0.9,3-0.7,2.9-0.5c-0.1,0.1-0.2,0.1-0.3,0C2.5-0.6,2.6-0.7,2.5-0.7
			C2.3-0.9,1.4-0.7,1.1-0.1C1,0,1,0.1,0.9,0.2c-0.2,0.1-0.3,0-0.5,0c-0.3,0-0.5,0.2-1.1,1c0,0-0.1,0.1-0.6,0.6c-0.9,1-1,1.1-1.1,1.4
			c0,0.5,0,0.7,0,0.7c0,0.1,0.1,0.3,0,0.4c-0.1,0.1-0.1,0-0.2,0.1c-0.1,0.1,0.1,0.4,0,0.8c0,0,0,0,0,0.3c-0.1,0.5-0.1,0.6,0,0.7
			c0.1,0.1,0.2,0.1,0.3,0.1c0.2,0,0.3-0.1,0.4-0.1c0.4-0.5,0.8-0.9,1.1-1.4C-0.9,5-1,5.3-1.1,5.4c-0.2,0.2-0.3,0.4-0.5,0.7
			c0,0.1-0.1,0.2-0.2,0.4C-1.9,6.8-2,7-1.8,7.3c0,0.1,0.1,0.2,0.1,0.3c0,0.2,0,0.3,0,0.4c0,0.1,0.1,0.1,0.2,0.1c0.1,0.1,0,0.3,0,0.6
			c0,0.2,0.1,0.1,0.1,0.3c0.1,0.3-0.1,0.4,0,0.7c0,0.1,0,0.2,0.1,0.3c0.1,0.1,0.4-0.1,0.6,0c0.2,0.1,0.1,0.3,0.3,0.4
			c0.1,0,0.2-0.1,0.4,0c0,0,0.3,0,0.3,0.1c0,0.1-0.1,0.3-0.3,0.4c-0.4,0.2-0.8-0.1-0.9,0c0,0.1,0.1,0.2,0.2,0.3c1,0.9,1,1,1.3,1.2
			c0.3,0.2,0.3,0.1,0.7,0.3c0.5,0.3,1.1,0.6,1.1,1c0,0.2-0.2,0.3-0.1,0.6c0,0.2,0.1,0.5,0.3,0.6C2.9,15,3,14.8,3.3,14.8
			c0.3,0,0.3,0.2,0.6,0.3c0.4,0,0.5-0.4,0.8-0.4c0.2,0,0.2,0.2,0.4,0.3c0.2,0.1,0.4,0,0.5,0c1-1.1,2.6-2.7,4.6-4.8
			c1.6-1.7,2.1-2.2,3-3.1c2.6-2.5,5.4-4.5,5.5-4.3c0.1,0.1-1.2,1.3-5.5,5.4c-3,2.8-5.4,5.2-7.1,6.8c0,0.3,0.1,0.5,0.2,0.5
			c0.2,0.1,0.5-0.2,0.8,0c0.1,0.1,0.3,0.2,0.3,0.4c0,0.2,0,0.3,0.1,0.4c0.1,0.1,0.1,0,0.2,0.1c0.2,0.2,0.1,0.3,0.3,0.5
			c0.2,0.1,0.4,0,0.4,0.2c0,0.1,0,0.1,0,0.3c0,0.1,0.2,0.1,0.2,0.3c0,0.2-0.3,0.3-0.3,0.6c0,0.2,0.1,0.2,0.1,0.5
			c0,0.5-0.6,0.6-0.5,0.9c0,0.2,0.2,0.4,0.4,0.5c0.3,0,0.5-0.4,0.8-0.4c0.4,0,0.6,0.6,0.9,0.5c0.3,0,0.3-0.4,0.6-0.4
			c0.2,0,0.3,0.1,0.4,0c0.1-0.1,0.1-0.2,0.3-0.3c0.1,0,0.1,0,0.2,0c0.2,0,0.6-0.4,0.7-0.8c0.1-0.4,0-0.5,0.2-0.8
			c0.1-0.2,0.3-0.3,0.4-0.4c0.5-0.4,1.2-1,1.8-1.6c0.8-0.8,0.9-1.1,1.5-1.4c0.1,0,0.3-0.1,0.5-0.3c0.3-0.3,0.4-0.6,0.6-0.8
			c0.4-0.8,0.8-0.8,1.7-2c0-0.1,0.2-0.3,0.2-0.4c-0.1-0.1-1.2,1.1-1.4,1c-0.1-0.1-0.1-0.2-0.1-0.2c0.1-0.6,0.8-0.8,1.9-1.7
			c0.3-0.2,0.2-0.2,0.5-0.5c0.8-0.7,1.7-1.3,2-1.7c0.1-0.3,0.2-0.6,0.2-0.6c0-0.1,0-0.1,0.1-0.2c0.1-0.3,0.2-0.4,0.7-0.9
			C23.1,5.7,23.1,5.6,23.1,5.5z M6.1,4.8C5.8,5.1,5.5,5.4,5.2,5.6C5.3,5.4,5.6,5,6,4.7c0.1-0.1,0.3-0.2,0.4-0.3
			C6.3,4.5,6.2,4.6,6.1,4.8z M5.9,3.5c0.5-0.5,1-1,1.4-1.4C6.9,2.6,6.5,3.1,6,3.6C5.7,3.9,5.4,4.2,5.1,4.5C5.3,4.2,5.6,3.9,5.9,3.5z
			 M0.3,3.5c0.1-0.2,0.2-0.4,0.4-0.6C0.8,2.8,0.9,2.7,1,2.7c0,0.1-0.1,0.2-0.2,0.3C0.7,3.2,0.5,3.4,0.3,3.5z M1.2,11.6
			c-0.1,0.1-0.2,0.2-0.3,0.2c0,0,0-0.2,0.1-0.3c0.1-0.1,0.3-0.2,0.3-0.2C1.3,11.4,1.3,11.5,1.2,11.6z M0.9,7c0.3-0.4,0.7-0.8,1-1.2
			c0,0.1,0,0.2,0,0.3C1.5,6.4,1.2,6.7,0.9,7z M2.6,13c0,0-0.2-0.2-0.5-0.6c-0.1-0.1-0.2-0.2-0.2-0.3C1.9,12.1,2,12,2.1,12
			c0.1-0.1,0.3-0.2,0.4-0.5c0,0.2-0.1,0.3-0.1,0.4c0,0.1-0.1,0.2-0.1,0.3c0,0.1,0.1,0,0.1,0.1c0.1,0.1,0,0.2,0,0.3
			C2.5,12.8,2.6,13,2.6,13z M2.5,1.7c0.1-0.2,0.2-0.4,0.4-0.6C3,1,3.1,0.9,3.2,0.9C3.1,1,3.1,1,3,1.1C2.8,1.4,2.6,1.6,2.5,1.7z
			 M5.3,8.3c1-1.3,2.3-2.8,3.8-4.2c1.1-1.1,2.2-2,3.2-2.8c-0.7,0.7-1.5,1.4-2.2,2.2C8.4,5.1,6.8,6.7,5.3,8.3z M10.2,4.1
			c0.8-0.8,1.6-1.5,2.4-2c-0.4,0.5-0.9,1-1.4,1.6C10.1,4.8,8.9,6,7.8,7C8.4,6.1,9.2,5.1,10.2,4.1z M12,5.9c1.1-0.9,2.2-1.8,3.2-2.6
			C14.6,4,13.8,4.7,13,5.4c-1.6,1.4-3.1,2.7-4.6,3.8C9.5,8.1,10.7,7,12,5.9z M13.8,6c-1.6,1.4-3.1,2.7-4.6,3.8
			c1.1-1.1,2.3-2.2,3.6-3.4c1.1-0.9,2.2-1.8,3.2-2.6C15.3,4.6,14.5,5.3,13.8,6z M19.5,4.5c-0.7,0.7-1.4,1.4-2.2,2.1
			c-1.6,1.4-3.1,2.7-4.6,3.8c1.1-1.1,2.3-2.2,3.6-3.4C17.4,6.1,18.5,5.3,19.5,4.5z M10,12.2c1.4-1.7,3.1-3.5,5.1-5.3
			c0.9-0.8,1.8-1.5,2.6-2.2c-1,1-1.9,1.9-2.9,2.9C13.3,9.2,11.6,10.7,10,12.2z M10.4,13.8c1.6-1.5,3.2-3.1,5-4.7
			c1.4-1.3,2.8-2.4,4.2-3.5c-1.1,1.1-2.3,2.1-3.4,3.2C14.2,10.6,12.3,12.2,10.4,13.8z M10.6,14.9c1.1-1.3,2.5-2.7,4.1-4.1
			c1.4-1.2,2.7-2.2,4-3c-1.1,1-2.2,1.9-3.3,2.9C13.9,12,12.3,13.4,10.6,14.9z M18.7,9.1c-1.2,1.1-2.4,2.1-3.6,3
			c0.2-0.2,0.4-0.4,0.6-0.6c0.8-0.7,1.5-1.4,2.2-2.1c-0.1,0.1-0.2,0.1-0.3,0.2c-0.1,0-0.1,0.1-0.2,0.2c-1.3,1.1-2.4,2.2-3.5,3.3
			c-0.9,0.8-1.8,1.5-2.7,2.1c1.1-1.1,2.3-2.2,3.6-3.4c1-0.9,2-1.7,2.9-2.4c1-0.9,2.1-1.7,3-2.5C20.2,7.7,19.5,8.4,18.7,9.1z"/>
	</defs>
	<clipPath id="SVGID_2_">
		<use xlink:href="#SVGID_1_"  style="overflow:visible;"/>
	</clipPath>
	<polygon class="st0" points="0,5.1 0.4,6.4 2.6,5.5 4.6,13.3 5.9,13.3 7.2,3.9 14.7,3.9 14.7,5.3 15.9,5.3 16,2.7 6.1,2.7 5.1,9.9 
		3.6,3.8 	"/>
	<polygon class="st0" points="11.2,10.5 12.9,12.4 13.3,12.9 14.3,12 13.9,11.6 12,9.5 13.9,7.5 14.3,7 13.3,6.1 12.9,6.6 11.2,8.6 
		9.4,6.6 9,6.1 8,7 8.5,7.5 10.3,9.5 8.5,11.6 8,12 9,12.9 9.4,12.4 	"/>
</g>
</svg>
