<?xml version="1.0" encoding="utf-8"?>
<!-- Generator: Adobe Illustrator 23.0.0, SVG Export Plug-In . SVG Version: 6.00 Build 0)  -->
<svg version="1.1" id="Layer_1" xmlns="http://www.w3.org/2000/svg" xmlns:xlink="http://www.w3.org/1999/xlink" x="0px" y="0px"
	 viewBox="0 0 16 16" style="enable-background:new 0 0 16 16;" xml:space="preserve">
<style type="text/css">
	.st0{clip-path:url(#SVGID_2_);}
	.st1{fill:#F75049;}
</style>
<g>
	<defs>
		<path id="SVGID_1_" d="M25.2,5.3c-0.1-0.2-0.4,0-0.7-0.3c-0.3-0.2-0.2-0.4-0.4-0.6c-0.5-0.3-1.6,0.6-1.6,0.6c0,0,0.5-0.4,0.9-0.8
			C23.6,3.9,24.1,3.4,24,3c-0.1-0.2-0.4-0.2-0.4-0.4c-0.1-0.3,0.6-0.5,0.6-0.9c0-0.2-0.2-0.4-0.4-0.4c-0.4-0.2-1,0.3-1,0.3
			c0,0,0.3-0.2,0.5-0.6c0-0.1,0.2-0.4,0.1-0.6c-0.1-0.1-0.3-0.1-0.5-0.1c-0.2,0-0.2,0.1-0.3,0.1c0,0,0-0.1,0-0.2
			c0-0.2-0.4-0.3-0.7-0.4c-0.7-0.1-1.2,0.6-1.3,0.5C20.5,0.1,21.2-0.5,21-1c-0.1-0.2-0.3-0.3-0.5-0.3c-0.3,0-0.5,0.4-0.6,0.3
			c-0.2-0.1,0.1-0.9-0.1-1.1c-0.2-0.1-0.4,0.1-0.7,0c-0.2-0.1-0.2-0.2-0.3-0.2c-0.4-0.2-1,0.5-1.7,1.2c-0.3,0.3-0.8,0.6-1.4,1
			c0.3-0.4,0.6-0.7,0.8-0.9c0.5-0.6,0.8-0.8,0.8-1.2c0-0.2,0-0.5-0.2-0.6c-0.2-0.1-0.5,0.2-1.3,0.8c-0.2,0.2-0.4,0.3-0.5,0.3
			c0,0,0.4-0.5,0.2-0.9c0,0-0.1-0.2-0.2-0.3c-0.5-0.4-1.4-0.2-1.5-0.2c-1.1,0.3-1.4,1-2.7,1.7c0,0-0.2,0.1-0.4,0.2
			c-0.5,0.3-0.8,0.4-0.9,0.5C9.4-0.5,9.1-0.3,9,0C8.8,0.3,8.9,0.6,8.7,0.8C8.5,0.9,8.3,1,8.2,1C7.5,1.2,6.6,2.5,6.4,2.7
			C5.9,3.4,4.3,5.1-0.1,9.1c6-6.3,7.8-8.3,7.9-8.5c0,0,0,0,0,0c0-0.1,0.2-0.5,0-0.7c-0.1-0.1-0.3,0-0.4-0.2c0,0-0.1-0.1,0-0.2
			c0-0.3,0.5-0.3,0.5-0.4C7.9-1,7.8-1,7.7-1C7.3-1.2,7.3-1.3,7.1-1.3C6.8-1.4,6.5-1.2,6.3-1.1C6-1,5.9-0.8,5.8-0.9
			c-0.1,0,0.1-0.2,0-0.3C5.7-1.3,5.5-1.3,5.4-1.3C4.9-1.3,4.7-1,4.6-1c-0.1-0.1,0-0.2-0.1-0.4C4.4-1.6,4.2-1.5,4-1.7
			C3.8-1.8,3.9-2,3.6-2.4C3.6-2.5,3.4-2.7,3.1-2.8c-0.3-0.1-0.4,0-0.7-0.1C2.2-2.9,2.1-3.2,1.9-3.2c-0.2,0-0.4,0-0.5,0.1
			C1-2.9,1-2.7,0.8-2.7C0.5-2.7,0.5-2.9,0.1-3C0-3-0.2-3.1-0.3-3c-0.2,0.1,0,0.5-0.1,0.6c-0.1,0.1-0.2,0.1-0.3,0
			c-0.1-0.1-0.1-0.2-0.2-0.3c-0.2-0.3-1.4,0.1-1.8,0.8C-2.8-1.7-2.8-1.5-3-1.4c-0.2,0.1-0.4,0-0.6,0c-0.4,0-0.6,0.3-1.4,1.2
			c0,0-0.2,0.2-0.7,0.8C-6.7,1.8-7,2-7,2.4C-7,3-6.9,3.3-6.9,3.3c0,0.1,0.1,0.3,0,0.5C-7,3.8-7,3.8-7.1,3.9c-0.2,0.2,0.1,0.5,0,1
			c0,0,0,0-0.1,0.3C-7.2,5.9-7.3,6-7.2,6.1C-7.1,6.2-7,6.2-6.8,6.2C-6.6,6.1-6.5,6-6.4,6c0.5-0.6,1-1.1,1.4-1.7
			C-5.2,4.7-5.4,5-5.5,5.2c-0.2,0.3-0.4,0.5-0.6,0.9c-0.1,0.1-0.1,0.3-0.2,0.5c-0.1,0.3-0.2,0.7-0.1,1c0.1,0.1,0.1,0.2,0.2,0.4
			c0,0.2-0.1,0.4,0,0.5C-6.1,8.5-6.1,8.5-6,8.6C-5.9,8.8-6,9-6,9.3c0,0.2,0.1,0.2,0.2,0.4c0.1,0.3-0.1,0.5,0,0.9
			c0,0.2,0,0.3,0.1,0.3c0.2,0.2,0.5-0.1,0.7,0.1c0.2,0.1,0.2,0.4,0.4,0.5c0.2,0.1,0.2-0.1,0.5-0.1c0,0,0.4,0,0.4,0.2
			c0,0.1-0.1,0.3-0.3,0.4c-0.5,0.2-1-0.1-1.1,0.1c0,0.1,0.2,0.3,0.3,0.4c1.3,1.2,1.3,1.3,1.7,1.5c0.4,0.2,0.3,0.1,0.9,0.4
			c0.7,0.4,1.4,0.8,1.4,1.3c0,0.3-0.2,0.3-0.2,0.7c0,0.3,0.1,0.7,0.4,0.8c0.2,0.1,0.4-0.2,0.8-0.1c0.4,0,0.4,0.3,0.7,0.3
			c0.5,0,0.6-0.5,1-0.4c0.2,0,0.2,0.2,0.5,0.3c0.2,0.1,0.5,0,0.7,0c1.3-1.3,3.4-3.4,5.8-6.1c2.1-2.2,2.6-2.8,3.8-3.9
			c3.3-3.2,6.8-5.6,7-5.5c0.1,0.1-1.5,1.6-7,6.8c-3.8,3.6-6.9,6.6-9,8.6c0,0.4,0.1,0.6,0.2,0.6c0.3,0.2,0.6-0.2,1,0
			c0.1,0.1,0.3,0.3,0.4,0.6c0.1,0.2,0,0.4,0.1,0.5c0.1,0.1,0.1,0,0.2,0.1c0.2,0.2,0.1,0.4,0.3,0.6c0.2,0.2,0.5,0.1,0.6,0.2
			c0,0.1-0.1,0.2,0,0.3c0,0.2,0.2,0.2,0.2,0.3c0.1,0.2-0.3,0.4-0.4,0.7c-0.1,0.3,0.1,0.3,0.1,0.6c0,0.6-0.7,0.7-0.7,1.2
			c0,0.3,0.3,0.6,0.6,0.6c0.4,0.1,0.6-0.5,1.1-0.5c0.5,0,0.7,0.8,1.2,0.7c0.3-0.1,0.4-0.5,0.8-0.5c0.2,0,0.4,0.1,0.5,0
			c0.2-0.1,0.2-0.3,0.3-0.3c0.1,0,0.2,0,0.2,0c0.3,0,0.7-0.5,0.9-1c0.2-0.5,0-0.6,0.2-1c0.2-0.3,0.4-0.4,0.5-0.5
			c0.7-0.5,1.5-1.3,2.3-2c1-1,1.1-1.4,1.8-1.7c0.1-0.1,0.3-0.2,0.6-0.4c0.4-0.4,0.5-0.7,0.7-1c0.5-1,1.1-1,2.1-2.6
			c0-0.1,0.3-0.4,0.2-0.5c-0.1-0.1-1.5,1.4-1.8,1.2c-0.1-0.1-0.1-0.2-0.1-0.3c0.1-0.7,1.1-1,2.4-2.2c0.3-0.3,0.2-0.2,0.6-0.6
			c1-0.9,2.2-1.6,2.5-2.2c0.2-0.3,0.3-0.7,0.3-0.7c0-0.1,0-0.2,0.1-0.2C23.8,7,24,6.9,24.5,6.3C25.1,5.6,25.2,5.4,25.2,5.3z
			 M3.7,4.3C3.3,4.8,2.9,5.2,2.5,5.4c0.2-0.3,0.5-0.8,1-1.2C3.7,4.1,3.9,4,4,3.8C3.9,4,3.8,4.2,3.7,4.3z M3.4,2.8
			C4,2.1,4.6,1.5,5.2,1c-0.4,0.6-1,1.2-1.6,1.9C3.2,3.3,2.8,3.7,2.4,4C2.7,3.6,3,3.2,3.4,2.8z M-3.6,2.7c0.1-0.2,0.3-0.5,0.5-0.8
			C-3,1.8-2.9,1.8-2.8,1.7C-2.9,1.8-2.9,1.9-3,2C-3.2,2.3-3.4,2.6-3.6,2.7z M-2.6,13.1c-0.1,0.2-0.3,0.2-0.3,0.2
			c0-0.1,0-0.2,0.1-0.4c0.1-0.2,0.3-0.2,0.4-0.2C-2.4,12.8-2.5,12.9-2.6,13.1z M-3,7.2c0.4-0.5,0.8-1,1.2-1.5c0,0.1,0,0.2,0,0.4
			C-2.1,6.4-2.6,6.8-3,7.2z M-0.8,14.8c-0.1,0-0.2-0.3-0.7-0.7c-0.1-0.1-0.2-0.2-0.2-0.4c0-0.1,0.2-0.2,0.3-0.2
			c0.2-0.1,0.4-0.3,0.5-0.6c0,0.2-0.1,0.4-0.1,0.5c-0.1,0.1-0.2,0.2-0.1,0.3c0,0.1,0.1,0,0.2,0.1c0.1,0.1,0,0.2,0,0.3
			C-1,14.5-0.7,14.8-0.8,14.8z M-0.9,0.5C-0.8,0.3-0.6,0-0.4-0.3c0.1-0.1,0.2-0.2,0.3-0.3c-0.1,0.1-0.1,0.2-0.2,0.3
			C-0.5,0.1-0.7,0.3-0.9,0.5z M2.6,8.8C4,7.2,5.6,5.3,7.5,3.5c1.4-1.3,2.7-2.5,4-3.5c-0.9,0.9-1.9,1.8-2.8,2.7
			C6.6,4.7,4.6,6.8,2.6,8.8z M8.9,3.5c1-1,2.1-1.9,3-2.6c-0.6,0.7-1.1,1.3-1.7,2c-1.4,1.6-2.9,3-4.3,4.3C6.6,6.1,7.6,4.8,8.9,3.5z
			 M11.2,5.8c1.4-1.2,2.7-2.3,4.1-3.3c-0.9,0.9-1.8,1.8-2.8,2.7c-2,1.8-4,3.4-5.8,4.9C8,8.6,9.5,7.2,11.2,5.8z M13.4,5.9
			c-2,1.8-4,3.4-5.8,4.9c1.4-1.4,2.9-2.8,4.6-4.3c1.4-1.2,2.8-2.3,4.1-3.3C15.3,4.1,14.3,5,13.4,5.9z M20.6,4
			c-0.9,0.9-1.8,1.8-2.8,2.7c-2,1.8-3.9,3.4-5.8,4.9c1.4-1.4,2.9-2.8,4.6-4.3C18,6.1,19.3,5,20.6,4z M8.6,13.8
			c1.8-2.2,4-4.4,6.5-6.7c1.1-1,2.2-2,3.3-2.8C17.2,5.5,16,6.7,14.8,8C12.7,9.9,10.7,11.8,8.6,13.8z M9.1,15.9c2-2,4.1-3.9,6.4-6
			c1.8-1.6,3.6-3.1,5.3-4.5c-1.4,1.3-2.9,2.7-4.3,4C14,11.7,11.5,13.8,9.1,15.9z M9.4,17.1c1.4-1.6,3.1-3.4,5.2-5.2
			c1.8-1.5,3.5-2.7,5-3.7c-1.4,1.2-2.7,2.4-4.1,3.6C13.5,13.6,11.5,15.4,9.4,17.1z M19.6,9.9c-1.5,1.4-3,2.7-4.5,3.8
			c0.3-0.2,0.5-0.5,0.8-0.7c1-0.9,1.9-1.8,2.8-2.7c-0.1,0.1-0.2,0.2-0.4,0.3c-0.1,0.1-0.2,0.1-0.2,0.2c-1.6,1.4-3.1,2.8-4.5,4.1
			c-1.2,1-2.3,1.9-3.4,2.7c1.4-1.4,2.9-2.8,4.6-4.3c1.3-1.1,2.5-2.1,3.7-3c1.3-1.1,2.6-2.2,3.8-3.1C21.6,8.1,20.6,9,19.6,9.9z"/>
	</defs>
	<clipPath id="SVGID_2_">
		<use xlink:href="#SVGID_1_"  style="overflow:visible;"/>
	</clipPath>
	<g class="st0">
		<path class="st1" d="M0,0.6v14.9h16V0.6H0z M5.7,14.3H1.1v-3.4h4.6V14.3z M5.7,9.7H1.1V6.3h4.6V9.7z M5.7,5.1H1.1V1.7h4.6V5.1z
			 M14.9,14.3h-8v-3.4h8V14.3z M14.9,9.7h-8V6.3h8V9.7z M14.9,5.1h-8V1.7h8V5.1z"/>
	</g>
</g>
</svg>
