<?xml version="1.0" encoding="utf-8"?>
<!-- Generator: Adobe Illustrator 23.0.0, SVG Export Plug-In . SVG Version: 6.00 Build 0)  -->
<svg version="1.1" id="Layer_1" xmlns="http://www.w3.org/2000/svg" xmlns:xlink="http://www.w3.org/1999/xlink" x="0px" y="0px"
	 viewBox="0 0 16 16" style="enable-background:new 0 0 16 16;" xml:space="preserve">
<style type="text/css">
	.st0{clip-path:url(#SVGID_2_);fill-rule:evenodd;clip-rule:evenodd;fill:#F75049;}
</style>
<g>
	<defs>
		<path id="SVGID_1_" d="M23.2,6.2c-0.1-0.1-0.3,0-0.6-0.2c-0.2-0.2-0.2-0.3-0.3-0.4c-0.4-0.2-1.3,0.5-1.3,0.5c0,0,0.4-0.3,0.7-0.7
			c0.2-0.2,0.6-0.7,0.5-1C22.2,4.2,22,4.2,22,4.1c0-0.3,0.5-0.4,0.4-0.7c0-0.2-0.2-0.3-0.3-0.3c-0.3-0.1-0.8,0.2-0.8,0.2
			c0,0,0.3-0.2,0.4-0.5c0-0.1,0.2-0.3,0.1-0.5c-0.1-0.1-0.3-0.1-0.4-0.1c-0.1,0-0.2,0.1-0.2,0c0,0,0-0.1,0-0.2
			c0-0.2-0.3-0.3-0.6-0.3c-0.5,0-0.9,0.5-1,0.4c-0.1-0.1,0.5-0.5,0.4-0.9c0-0.1-0.2-0.3-0.4-0.3c-0.3,0-0.4,0.3-0.5,0.3
			C19,1.2,19.2,0.6,19,0.4c-0.1-0.1-0.3,0.1-0.6,0c-0.2-0.1-0.2-0.1-0.3-0.2c-0.3-0.1-0.8,0.4-1.3,0.9c-0.2,0.2-0.6,0.5-1.1,0.8
			c0.3-0.3,0.5-0.6,0.7-0.7C16.8,0.7,17,0.6,17,0.3c0-0.1,0-0.4-0.2-0.4c-0.2-0.1-0.4,0.2-1.1,0.6c-0.2,0.1-0.3,0.2-0.4,0.3
			c0,0,0.3-0.4,0.2-0.7c0,0-0.1-0.2-0.2-0.3c-0.4-0.3-1.1-0.2-1.2-0.2c-0.9,0.2-1.1,0.8-2.1,1.3c0,0-0.1,0.1-0.3,0.2
			c-0.4,0.2-0.6,0.3-0.7,0.4c-0.3,0.2-0.5,0.3-0.6,0.6c-0.1,0.3-0.1,0.4-0.2,0.6c-0.1,0.1-0.3,0.2-0.4,0.2C9.3,3,8.6,4,8.5,4.2
			C8.1,4.7,6.8,6.1,3.3,9.2c4.7-5,6.2-6.6,6.2-6.7c0,0,0,0,0,0c0-0.1,0.2-0.4,0-0.6c-0.1-0.1-0.2,0-0.3-0.1c0,0,0-0.1,0-0.1
			c0-0.2,0.4-0.2,0.4-0.3c0,0-0.1-0.1-0.2-0.1C9.1,1.1,9.1,1,9,1C8.7,0.9,8.5,1.1,8.3,1.2C8.1,1.3,8,1.4,7.9,1.4c0,0,0-0.2,0-0.3
			C7.9,1,7.7,1,7.6,1C7.3,1,7.1,1.3,7,1.2c-0.1,0,0-0.2-0.1-0.3C6.8,0.8,6.7,0.8,6.6,0.7C6.4,0.6,6.5,0.5,6.3,0.2
			C6.2,0.1,6.1-0.1,5.8-0.1c-0.2-0.1-0.3,0-0.5-0.1C5.1-0.3,5.1-0.4,4.8-0.5c-0.2,0-0.3,0-0.4,0.1C4.1-0.2,4.1-0.1,4-0.1
			c-0.2,0-0.2-0.2-0.5-0.2c-0.1,0-0.2,0-0.3,0C3-0.2,3.2,0.1,3.1,0.2C3,0.2,2.9,0.2,2.8,0.2C2.7,0.1,2.7,0,2.7,0
			C2.5-0.2,1.5,0,1.2,0.6c0,0.1-0.1,0.2-0.2,0.3c-0.2,0.1-0.3,0-0.5,0c-0.3,0-0.5,0.2-1.1,1c0,0-0.1,0.1-0.6,0.6
			c-0.9,1-1,1.1-1.1,1.4c0,0.5,0,0.7,0,0.7c0,0.1,0.1,0.3,0,0.4c-0.1,0.1-0.1,0-0.2,0.1c-0.1,0.1,0.1,0.4,0,0.8c0,0,0,0,0,0.3
			c-0.1,0.5-0.1,0.6,0,0.7C-2.2,6.9-2.1,6.9-2,6.9c0.2,0,0.3-0.1,0.4-0.1c0.4-0.5,0.8-0.9,1.1-1.4C-0.7,5.8-0.9,6-1,6.2
			c-0.2,0.2-0.3,0.4-0.5,0.7c0,0.1-0.1,0.2-0.2,0.4C-1.7,7.5-1.8,7.7-1.7,8c0,0.1,0.1,0.2,0.1,0.3c0,0.2,0,0.3,0,0.4
			c0,0.1,0.1,0.1,0.2,0.1c0.1,0.1,0,0.3,0,0.6c0,0.2,0.1,0.1,0.1,0.3c0.1,0.3-0.1,0.4,0,0.7c0,0.1,0,0.2,0.1,0.3
			c0.1,0.1,0.4-0.1,0.6,0c0.2,0.1,0.1,0.3,0.3,0.4c0.1,0,0.2-0.1,0.4,0c0,0,0.3,0,0.3,0.1c0,0.1-0.1,0.3-0.3,0.4
			c-0.4,0.2-0.8-0.1-0.9,0c0,0.1,0.1,0.2,0.2,0.3c1,0.9,1,1,1.3,1.2c0.3,0.2,0.3,0.1,0.7,0.3c0.5,0.3,1.1,0.6,1.1,1
			c0,0.2-0.2,0.3-0.1,0.6c0,0.2,0.1,0.5,0.3,0.6c0.2,0.1,0.3-0.1,0.6-0.1c0.3,0,0.3,0.2,0.6,0.3c0.4,0,0.5-0.4,0.8-0.4
			c0.2,0,0.2,0.2,0.4,0.3c0.2,0.1,0.4,0,0.5,0c1-1.1,2.6-2.7,4.6-4.8c1.6-1.7,2.1-2.2,3-3.1c2.6-2.5,5.4-4.5,5.5-4.3
			c0.1,0.1-1.2,1.3-5.5,5.4c-3,2.8-5.4,5.2-7.1,6.8c0,0.3,0.1,0.5,0.2,0.5c0.2,0.1,0.5-0.2,0.8,0c0.1,0.1,0.3,0.2,0.3,0.4
			c0,0.2,0,0.3,0.1,0.4c0.1,0.1,0.1,0,0.2,0.1c0.2,0.2,0.1,0.3,0.3,0.5c0.2,0.1,0.4,0,0.4,0.2c0,0.1,0,0.1,0,0.3
			c0,0.1,0.2,0.1,0.2,0.3c0,0.2-0.3,0.3-0.3,0.6c0,0.2,0.1,0.2,0.1,0.5c0,0.5-0.6,0.6-0.5,0.9c0,0.2,0.2,0.4,0.4,0.5
			c0.3,0,0.5-0.4,0.8-0.4c0.4,0,0.6,0.6,0.9,0.5c0.3,0,0.3-0.4,0.6-0.4c0.2,0,0.3,0.1,0.4,0c0.1-0.1,0.1-0.2,0.3-0.3
			c0.1,0,0.1,0,0.2,0c0.2,0,0.6-0.4,0.7-0.8c0.1-0.4,0-0.5,0.2-0.8c0.1-0.2,0.3-0.3,0.4-0.4c0.5-0.4,1.2-1,1.8-1.6
			c0.8-0.8,0.9-1.1,1.5-1.4c0.1,0,0.3-0.1,0.5-0.3c0.3-0.3,0.4-0.6,0.6-0.8c0.4-0.8,0.8-0.8,1.7-2c0-0.1,0.2-0.3,0.2-0.4
			c-0.1-0.1-1.2,1.1-1.4,1c-0.1-0.1-0.1-0.2-0.1-0.2c0.1-0.6,0.8-0.8,1.9-1.7c0.3-0.2,0.2-0.2,0.5-0.5c0.8-0.7,1.7-1.3,2-1.7
			C21.9,8.3,22,8,22,8c0-0.1,0-0.1,0.1-0.2c0.1-0.3,0.2-0.4,0.7-0.9C23.2,6.4,23.3,6.3,23.2,6.2z M6.3,5.5C6,5.9,5.6,6.1,5.3,6.3
			c0.2-0.3,0.4-0.6,0.8-0.9c0.1-0.1,0.3-0.2,0.4-0.3C6.5,5.2,6.4,5.3,6.3,5.5z M6,4.3c0.5-0.5,1-1,1.4-1.4c-0.3,0.5-0.8,1-1.3,1.5
			C5.9,4.7,5.6,4.9,5.3,5.2C5.5,4.9,5.8,4.6,6,4.3z M0.5,4.2C0.6,4,0.7,3.8,0.9,3.6C1,3.5,1.1,3.4,1.2,3.4c0,0.1-0.1,0.2-0.2,0.3
			C0.8,3.9,0.7,4.1,0.5,4.2z M1.3,12.4c-0.1,0.1-0.2,0.2-0.3,0.2c0,0,0-0.2,0.1-0.3c0.1-0.1,0.3-0.2,0.3-0.2
			C1.5,12.1,1.4,12.2,1.3,12.4z M1,7.7c0.3-0.4,0.7-0.8,1-1.2c0,0.1,0,0.2,0,0.3C1.7,7.1,1.4,7.4,1,7.7z M2.7,13.7
			c0,0-0.2-0.2-0.5-0.6C2.1,13,2.1,13,2.1,12.9c0-0.1,0.1-0.1,0.2-0.2c0.1-0.1,0.3-0.2,0.4-0.5c0,0.2-0.1,0.3-0.1,0.4
			c0,0.1-0.1,0.2-0.1,0.3c0,0.1,0.1,0,0.1,0.1c0.1,0.1,0,0.2,0,0.3C2.6,13.5,2.8,13.7,2.7,13.7z M2.7,2.4C2.7,2.2,2.9,2,3.1,1.8
			c0.1-0.1,0.2-0.2,0.2-0.2c0,0.1-0.1,0.2-0.2,0.3C3,2.1,2.8,2.3,2.7,2.4z M5.5,9c1-1.3,2.3-2.8,3.8-4.2c1.1-1.1,2.2-2,3.2-2.8
			c-0.7,0.7-1.5,1.4-2.2,2.2C8.6,5.8,7,7.4,5.5,9z M10.4,4.8c0.8-0.8,1.6-1.5,2.4-2c-0.4,0.5-0.9,1-1.4,1.6C10.2,5.6,9.1,6.7,8,7.7
			C8.6,6.8,9.4,5.8,10.4,4.8z M12.2,6.6c1.1-0.9,2.2-1.8,3.2-2.6c-0.7,0.7-1.4,1.4-2.2,2.1c-1.6,1.4-3.1,2.7-4.6,3.8
			C9.7,8.9,10.9,7.7,12.2,6.6z M13.9,6.7c-1.6,1.4-3.1,2.7-4.6,3.8c1.1-1.1,2.3-2.2,3.6-3.4c1.1-0.9,2.2-1.8,3.2-2.6
			C15.4,5.3,14.7,6,13.9,6.7z M19.7,5.2c-0.7,0.7-1.4,1.4-2.2,2.1c-1.6,1.4-3.1,2.7-4.6,3.8c1.1-1.1,2.3-2.2,3.6-3.4
			C17.6,6.8,18.6,6,19.7,5.2z M10.2,12.9c1.4-1.7,3.1-3.5,5.1-5.3c0.9-0.8,1.8-1.5,2.6-2.2c-1,1-1.9,1.9-2.9,2.9
			C13.4,9.9,11.8,11.4,10.2,12.9z M10.6,14.6c1.6-1.5,3.2-3.1,5-4.7c1.4-1.3,2.8-2.4,4.2-3.5c-1.1,1.1-2.3,2.1-3.4,3.2
			C14.4,11.3,12.5,13,10.6,14.6z M10.8,15.6c1.1-1.3,2.5-2.7,4.1-4.1c1.4-1.2,2.7-2.2,4-3c-1.1,1-2.2,1.9-3.3,2.9
			C14,12.8,12.4,14.2,10.8,15.6z M18.9,9.9c-1.2,1.1-2.4,2.1-3.6,3c0.2-0.2,0.4-0.4,0.6-0.6c0.8-0.7,1.5-1.4,2.2-2.1
			c-0.1,0.1-0.2,0.1-0.3,0.2c-0.1,0-0.1,0.1-0.2,0.2c-1.3,1.1-2.4,2.2-3.5,3.3c-0.9,0.8-1.8,1.5-2.7,2.1c1.1-1.1,2.3-2.2,3.6-3.4
			c1-0.9,2-1.7,2.9-2.4c1-0.9,2.1-1.7,3-2.5C20.4,8.4,19.7,9.1,18.9,9.9z"/>
	</defs>
	<clipPath id="SVGID_2_">
		<use xlink:href="#SVGID_1_"  style="overflow:visible;"/>
	</clipPath>
	<path class="st0" d="M10.3,1.9c0,0.9-0.8,1.7-1.7,1.7S7,2.9,7,1.9C7,1,7.7,0.3,8.6,0.3S10.3,1,10.3,1.9L10.3,1.9L10.3,1.9L10.3,1.9
		L10.3,1.9L10.3,1.9L10.3,1.9L10.3,1.9z"/>
	<path class="st0" d="M6.8,6c0,0.9-0.8,1.7-1.7,1.7S3.4,6.9,3.4,6c0-0.9,0.8-1.7,1.7-1.7S6.8,5,6.8,6L6.8,6L6.8,6L6.8,6L6.8,6L6.8,6
		L6.8,6L6.8,6z"/>
	<path class="st0" d="M3.4,10c0,0.9-0.8,1.7-1.7,1.7C0.8,11.7,0,11,0,10c0-0.9,0.8-1.7,1.7-1.7C2.6,8.3,3.4,9.1,3.4,10L3.4,10
		L3.4,10L3.4,10L3.4,10L3.4,10L3.4,10z"/>
	<path class="st0" d="M8.9,10c0,0.9-0.8,1.7-1.7,1.7c-0.9,0-1.7-0.8-1.7-1.7c0-0.9,0.8-1.7,1.7-1.7C8.1,8.3,8.9,9.1,8.9,10L8.9,10
		L8.9,10L8.9,10L8.9,10L8.9,10z"/>
	<path class="st0" d="M12.5,6c0,0.9-0.8,1.7-1.7,1.7C9.9,7.7,9.2,6.9,9.2,6c0-0.9,0.8-1.7,1.7-1.7C11.8,4.3,12.5,5,12.5,6L12.5,6
		L12.5,6L12.5,6L12.5,6z"/>
	<path class="st0" d="M14.4,10c0,0.9-0.8,1.7-1.7,1.7C11.8,11.7,11,11,11,10c0-0.9,0.8-1.7,1.7-1.7C13.7,8.3,14.4,9.1,14.4,10
		L14.4,10L14.4,10L14.4,10z"/>
	<path class="st0" d="M16,14.1c0,0.9-0.8,1.7-1.7,1.7c-0.9,0-1.7-0.8-1.7-1.7c0-0.9,0.8-1.7,1.7-1.7C15.2,12.4,16,13.1,16,14.1
		L16,14.1L16,14.1z"/>
	<path class="st0" d="M10.9,14.1c0,0.9-0.8,1.7-1.7,1.7c-0.9,0-1.7-0.8-1.7-1.7c0-0.9,0.8-1.7,1.7-1.7
		C10.1,12.4,10.9,13.1,10.9,14.1L10.9,14.1z"/>
	<circle class="st0" cx="4.1" cy="14.1" r="1.7"/>
</g>
</svg>
