<?xml version="1.0" encoding="utf-8"?>
<!-- Generator: Adobe Illustrator 23.0.0, SVG Export Plug-In . SVG Version: 6.00 Build 0)  -->
<svg version="1.1" id="Layer_1" xmlns="http://www.w3.org/2000/svg" xmlns:xlink="http://www.w3.org/1999/xlink" x="0px" y="0px"
	 viewBox="0 0 16 16" style="enable-background:new 0 0 16 16;" xml:space="preserve">
<style type="text/css">
	.st0{clip-path:url(#SVGID_2_);}
	.st1{fill:#F75049;}
</style>
<g>
	<defs>
		<path id="SVGID_1_" d="M20.5,5.5c-0.1-0.1-0.3,0-0.6-0.2c-0.2-0.2-0.2-0.3-0.3-0.4c-0.4-0.2-1.3,0.5-1.3,0.5c0,0,0.4-0.3,0.7-0.7
			c0.2-0.2,0.6-0.7,0.5-1c-0.1-0.2-0.3-0.2-0.3-0.3c0-0.3,0.5-0.4,0.4-0.7c0-0.2-0.2-0.3-0.3-0.3c-0.3-0.1-0.8,0.2-0.8,0.2
			c0,0,0.3-0.2,0.4-0.5c0-0.1,0.2-0.3,0.1-0.5c-0.1-0.1-0.3-0.1-0.4-0.1c-0.1,0-0.2,0.1-0.2,0c0,0,0-0.1,0-0.2
			c0-0.2-0.3-0.3-0.6-0.3c-0.5,0-0.9,0.5-1,0.4c-0.1-0.1,0.5-0.5,0.4-0.9c0-0.1-0.2-0.3-0.4-0.3c-0.3,0-0.4,0.3-0.5,0.3
			c-0.1-0.1,0.1-0.7-0.1-0.9c-0.1-0.1-0.3,0.1-0.6,0c-0.2-0.1-0.2-0.1-0.3-0.2c-0.3-0.1-0.8,0.4-1.3,0.9c-0.2,0.2-0.6,0.5-1.1,0.8
			c0.3-0.3,0.5-0.6,0.7-0.7c0.4-0.4,0.6-0.6,0.6-0.9c0-0.1,0-0.4-0.2-0.4c-0.2-0.1-0.4,0.2-1.1,0.6c-0.2,0.1-0.3,0.2-0.4,0.3
			c0,0,0.3-0.4,0.2-0.7c0,0-0.1-0.2-0.2-0.3c-0.4-0.3-1.1-0.2-1.2-0.2c-0.9,0.2-1.1,0.8-2.1,1.3c0,0-0.1,0.1-0.3,0.2
			C8.6,0.6,8.4,0.7,8.3,0.7C8,0.9,7.8,1.1,7.7,1.3C7.6,1.6,7.7,1.7,7.5,1.9C7.4,2,7.2,2.1,7.1,2.1C6.6,2.2,5.8,3.3,5.7,3.4
			C5.3,4,4,5.3,0.5,8.5c4.7-5,6.2-6.6,6.2-6.7c0,0,0,0,0,0c0-0.1,0.2-0.4,0-0.6c-0.1-0.1-0.2,0-0.3-0.1c0,0,0-0.1,0-0.1
			c0-0.2,0.4-0.2,0.4-0.3c0,0-0.1-0.1-0.2-0.1C6.4,0.4,6.4,0.3,6.3,0.2C6,0.2,5.8,0.3,5.6,0.4C5.4,0.5,5.3,0.7,5.2,0.6
			c0,0,0-0.2,0-0.3C5.1,0.2,5,0.3,4.9,0.3c-0.3,0-0.5,0.3-0.6,0.2c-0.1,0,0-0.2-0.1-0.3C4.1,0,4,0.1,3.8,0C3.6-0.2,3.7-0.3,3.5-0.6
			C3.5-0.7,3.3-0.8,3.1-0.9C2.9-1,2.8-0.9,2.6-0.9C2.3-1,2.3-1.2,2.1-1.2c-0.2,0-0.3,0-0.4,0.1C1.4-1,1.4-0.8,1.2-0.8
			C1-0.8,1-1,0.7-1.1c-0.1,0-0.2,0-0.3,0c-0.1,0.1,0,0.4-0.1,0.5c-0.1,0.1-0.2,0.1-0.3,0C0-0.6,0-0.7-0.1-0.8
			C-0.3-1-1.2-0.7-1.5-0.1c0,0.1-0.1,0.2-0.2,0.3c-0.2,0.1-0.3,0-0.5,0c-0.3,0-0.5,0.2-1.1,1c0,0-0.1,0.1-0.6,0.6
			c-0.9,1-1,1.1-1.1,1.4c0,0.5,0,0.7,0,0.7c0,0.1,0.1,0.3,0,0.4c-0.1,0.1-0.1,0-0.2,0.1c-0.1,0.1,0.1,0.4,0,0.8c0,0,0,0,0,0.3
			C-5.1,5.9-5.1,6-5,6.1C-5,6.2-4.9,6.2-4.8,6.2c0.2,0,0.3-0.1,0.4-0.1C-4,5.6-3.6,5.1-3.3,4.7C-3.4,5-3.6,5.2-3.7,5.4
			C-3.9,5.6-4,5.8-4.2,6.1c0,0.1-0.1,0.2-0.2,0.4C-4.4,6.7-4.5,7-4.4,7.3c0,0.1,0.1,0.2,0.1,0.3c0,0.2,0,0.3,0,0.4
			C-4.2,8-4.1,8-4.1,8.1c0.1,0.1,0,0.3,0,0.6C-4,8.8-4,8.8-3.9,8.9C-3.9,9.2-4,9.3-4,9.6c0,0.1,0,0.2,0.1,0.3c0.1,0.1,0.4-0.1,0.6,0
			c0.2,0.1,0.1,0.3,0.3,0.4c0.1,0,0.2-0.1,0.4,0c0,0,0.3,0,0.3,0.1c0,0.1-0.1,0.3-0.3,0.4c-0.4,0.2-0.8-0.1-0.9,0
			c0,0.1,0.1,0.2,0.2,0.3c1,0.9,1,1,1.3,1.2c0.3,0.2,0.3,0.1,0.7,0.3c0.5,0.3,1.1,0.6,1.1,1c0,0.2-0.2,0.3-0.1,0.6
			c0,0.2,0.1,0.5,0.3,0.6c0.2,0.1,0.3-0.1,0.6-0.1C1,14.8,1,15,1.3,15c0.4,0,0.5-0.4,0.8-0.4c0.2,0,0.2,0.2,0.4,0.3
			c0.2,0.1,0.4,0,0.5,0c1-1.1,2.6-2.7,4.6-4.8c1.6-1.7,2.1-2.2,3-3.1c2.6-2.5,5.4-4.5,5.5-4.3c0.1,0.1-1.2,1.3-5.5,5.4
			c-3,2.8-5.4,5.2-7.1,6.8c0,0.3,0.1,0.5,0.2,0.5c0.2,0.1,0.5-0.2,0.8,0c0.1,0.1,0.3,0.2,0.3,0.4c0,0.2,0,0.3,0.1,0.4
			c0.1,0.1,0.1,0,0.2,0.1c0.2,0.2,0.1,0.3,0.3,0.5c0.2,0.1,0.4,0,0.4,0.2c0,0.1,0,0.1,0,0.3c0,0.1,0.2,0.1,0.2,0.3
			c0,0.2-0.3,0.3-0.3,0.6c0,0.2,0.1,0.2,0.1,0.5c0,0.5-0.6,0.6-0.5,0.9c0,0.2,0.2,0.4,0.4,0.5c0.3,0,0.5-0.4,0.8-0.4
			c0.4,0,0.6,0.6,0.9,0.5c0.3,0,0.3-0.4,0.6-0.4c0.2,0,0.3,0.1,0.4,0c0.1-0.1,0.1-0.2,0.3-0.3c0.1,0,0.1,0,0.2,0
			c0.2,0,0.6-0.4,0.7-0.8c0.1-0.4,0-0.5,0.2-0.8c0.1-0.2,0.3-0.3,0.4-0.4c0.5-0.4,1.2-1,1.8-1.6c0.8-0.8,0.9-1.1,1.5-1.4
			c0.1,0,0.3-0.1,0.5-0.3c0.3-0.3,0.4-0.6,0.6-0.8c0.4-0.8,0.8-0.8,1.7-2c0-0.1,0.2-0.3,0.2-0.4c-0.1-0.1-1.2,1.1-1.4,1
			c-0.1-0.1-0.1-0.2-0.1-0.2c0.1-0.6,0.8-0.8,1.9-1.7c0.3-0.2,0.2-0.2,0.5-0.5c0.8-0.7,1.7-1.3,2-1.7c0.1-0.3,0.2-0.6,0.2-0.6
			c0-0.1,0-0.1,0.1-0.2c0.1-0.3,0.2-0.4,0.7-0.9C20.5,5.7,20.5,5.6,20.5,5.5z M3.5,4.7C3.2,5.1,2.9,5.4,2.6,5.6C2.8,5.3,3,5,3.4,4.6
			c0.1-0.1,0.3-0.2,0.4-0.3C3.8,4.5,3.7,4.6,3.5,4.7z M3.3,3.5c0.5-0.5,1-1,1.4-1.4C4.4,2.6,4,3.1,3.5,3.6C3.1,3.9,2.8,4.2,2.5,4.5
			C2.8,4.1,3,3.8,3.3,3.5z M-2.2,3.5C-2.1,3.3-2,3-1.8,2.8c0.1-0.1,0.2-0.2,0.2-0.2c0,0.1-0.1,0.2-0.2,0.3C-1.9,3.1-2.1,3.3-2.2,3.5
			z M-1.4,11.6c-0.1,0.1-0.2,0.2-0.3,0.2c0,0,0-0.2,0.1-0.3c0.1-0.1,0.3-0.2,0.3-0.2C-1.3,11.4-1.3,11.5-1.4,11.6z M-1.7,7
			c0.3-0.4,0.7-0.8,1-1.2c0,0.1,0,0.2,0,0.3C-1,6.4-1.4,6.7-1.7,7z M0,13c0,0-0.2-0.2-0.5-0.6c-0.1-0.1-0.2-0.2-0.2-0.3
			c0-0.1,0.1-0.1,0.2-0.2c0.1-0.1,0.3-0.2,0.4-0.5c0,0.2-0.1,0.3-0.1,0.4c0,0.1-0.1,0.2-0.1,0.3c0,0.1,0.1,0,0.1,0.1
			c0.1,0.1,0,0.2,0,0.3C-0.1,12.8,0.1,13,0,13z M-0.1,1.7C0,1.5,0.1,1.3,0.4,1.1C0.4,1,0.5,0.9,0.6,0.8c0,0.1-0.1,0.2-0.2,0.3
			C0.3,1.4,0.1,1.5-0.1,1.7z M2.7,8.3C3.8,6.9,5,5.5,6.6,4c1.1-1.1,2.2-2,3.2-2.8C9,2,8.3,2.7,7.5,3.4C5.8,5,4.2,6.7,2.7,8.3z
			 M7.7,4C8.5,3.2,9.3,2.6,10,2c-0.4,0.5-0.9,1-1.4,1.6C7.5,4.8,6.4,5.9,5.3,7C5.9,6.1,6.6,5.1,7.7,4z M9.5,5.8
			c1.1-0.9,2.2-1.8,3.2-2.6c-0.7,0.7-1.4,1.4-2.2,2.1C8.9,6.8,7.3,8.1,5.9,9.2C7,8.1,8.2,7,9.5,5.8z M11.2,6
			C9.6,7.4,8.1,8.7,6.6,9.8c1.1-1.1,2.3-2.2,3.6-3.4c1.1-0.9,2.2-1.8,3.2-2.6C12.7,4.5,12,5.2,11.2,6z M16.9,4.4
			c-0.7,0.7-1.4,1.4-2.2,2.1c-1.6,1.4-3.1,2.7-4.6,3.8c1.1-1.1,2.3-2.2,3.6-3.4C14.8,6.1,15.9,5.2,16.9,4.4z M7.5,12.2
			c1.4-1.7,3.1-3.5,5.1-5.3c0.9-0.8,1.8-1.5,2.6-2.2c-1,1-1.9,1.9-2.9,2.9C10.7,9.1,9.1,10.7,7.5,12.2z M7.8,13.8
			c1.6-1.5,3.2-3.1,5-4.7c1.4-1.3,2.8-2.4,4.2-3.5c-1.1,1.1-2.3,2.1-3.4,3.2C11.7,10.5,9.7,12.2,7.8,13.8z M8.1,14.8
			c1.1-1.3,2.5-2.7,4.1-4.1c1.4-1.2,2.7-2.2,4-3c-1.1,1-2.2,1.9-3.3,2.9C11.3,12,9.7,13.4,8.1,14.8z M16.1,9.1
			c-1.2,1.1-2.4,2.1-3.6,3c0.2-0.2,0.4-0.4,0.6-0.6c0.8-0.7,1.5-1.4,2.2-2.1c-0.1,0.1-0.2,0.1-0.3,0.2c-0.1,0-0.1,0.1-0.2,0.2
			c-1.3,1.1-2.4,2.2-3.5,3.3c-0.9,0.8-1.8,1.5-2.7,2.1c1.1-1.1,2.3-2.2,3.6-3.4c1-0.9,2-1.7,2.9-2.4c1-0.9,2.1-1.7,3-2.5
			C17.7,7.7,16.9,8.4,16.1,9.1z"/>
	</defs>
	<clipPath id="SVGID_2_">
		<use xlink:href="#SVGID_1_"  style="overflow:visible;"/>
	</clipPath>
	<g transform="translate(-472,-180)" class="st0">
		<path class="st1" d="M473,180v16h9h0.8l4.3-4.3V191v-11H473z M474,181h12v10h-4v4h-8V181z"/>
	</g>
</g>
</svg>
