<?xml version="1.0" encoding="utf-8"?>
<!-- Generator: Adobe Illustrator 23.0.0, SVG Export Plug-In . SVG Version: 6.00 Build 0)  -->
<svg version="1.1" id="Layer_1" xmlns="http://www.w3.org/2000/svg" xmlns:xlink="http://www.w3.org/1999/xlink" x="0px" y="0px"
	 viewBox="0 0 16 16" style="enable-background:new 0 0 16 16;" xml:space="preserve">
<style type="text/css">
	.st0{fill:#CBA6F7;}
	.st1{fill:#F75049;}
</style>
<path class="st0" d="M5.2,7.4C5,7.8,4.6,7.7,4.2,7.8c0-0.5,0-1,0-1.5c0,0,0.1-0.1,0.1-0.2c0.1,0,0.2,0,0.2,0c0.2,0,0.4,0,0.6,0.3
	c0,0,0,0.1,0,0.1v0c0,0.1-0.1,0.1-0.1,0.2c0.1,0,0.1-0.1,0.1-0.1C5.3,6.8,5.3,7.1,5.2,7.4z"/>
<path class="st1" d="M13.1,5.3v0.7c0.2-0.2,0.4-0.4,0.7-0.6V4.6C13.6,4.8,13.4,5,13.1,5.3z M13.1,6.3v0.8c0.1-0.1,0.3-0.3,0.4-0.4
	c0.1-0.1,0.2-0.1,0.2-0.2V5.6C13.6,5.8,13.3,6,13.1,6.3z M13.5,8.4c-0.1,0.1-0.2,0.2-0.3,0.3v0.8c0.2-0.2,0.5-0.4,0.7-0.5V8.1
	C13.7,8.2,13.6,8.3,13.5,8.4z M13.8,10.1V9.3c-0.2,0.2-0.5,0.4-0.7,0.6v0.8C13.4,10.5,13.6,10.3,13.8,10.1L13.8,10.1z M13.1,7.5v0.9
	c0.2-0.2,0.4-0.4,0.7-0.6V6.9C13.6,7.1,13.4,7.3,13.1,7.5z M12.3,3.2c-0.4,0.4-0.7,0.7-1.1,1.1h1.1c0.3-0.2,0.6-0.4,0.8-0.6
	C12.8,3.5,12.5,3.3,12.3,3.2z M13.7,4c-0.2-0.1-0.4-0.2-0.5-0.3c-0.2,0.2-0.4,0.4-0.6,0.6h0.7v0.1C13.3,4.2,13.5,4.1,13.7,4z
	 M12,7.5h0.2V7.3C12.1,7.3,12,7.4,12,7.5z M14,10.1c-0.3,0.3-0.6,0.5-0.9,0.8v0.2c0.4-0.3,0.7-0.7,1.1-1H14z M12,12L12,12L12,12
	C12.1,11.9,12.1,12,12,12z M11.5,11.3c-0.3,0.2-0.5,0.5-0.8,0.7h0.9c0.2-0.1,0.3-0.3,0.5-0.4v-0.3H11.5z M11.4,9h0.8V8.3
	C11.9,8.6,11.6,8.8,11.4,9z M12,7.5h0.2V7.3C12.1,7.3,12,7.4,12,7.5z M13.5,8.4c-0.1,0.1-0.2,0.2-0.3,0.3v0.8
	c0.2-0.2,0.5-0.4,0.7-0.5V8.1C13.7,8.2,13.6,8.3,13.5,8.4z M13.8,10.1V9.3c-0.2,0.2-0.5,0.4-0.7,0.6v0.8
	C13.4,10.5,13.6,10.3,13.8,10.1L13.8,10.1z M13.1,5.3v0.7c0.2-0.2,0.4-0.4,0.7-0.6V4.6C13.6,4.8,13.4,5,13.1,5.3z M13.1,6.3v0.8
	c0.1-0.1,0.3-0.3,0.4-0.4c0.1-0.1,0.2-0.1,0.2-0.2V5.6C13.6,5.8,13.3,6,13.1,6.3z M12.3,3.2c-0.4,0.4-0.7,0.7-1.1,1.1h1.1
	c0.3-0.2,0.6-0.4,0.8-0.6C12.8,3.5,12.5,3.3,12.3,3.2z M13.7,4c-0.2-0.1-0.4-0.2-0.5-0.3c-0.2,0.2-0.4,0.4-0.6,0.6h0.7v0.1
	C13.3,4.2,13.5,4.1,13.7,4z M14,10.1c-0.3,0.3-0.6,0.5-0.9,0.8v0.2c0.4-0.3,0.7-0.7,1.1-1H14z M13.1,7.5v0.9
	c0.2-0.2,0.4-0.4,0.7-0.6V6.9C13.6,7.1,13.4,7.3,13.1,7.5z M11.4,9h0.8V8.3C11.9,8.6,11.6,8.8,11.4,9z M12,7.5h0.2V7.3
	C12.1,7.3,12,7.4,12,7.5z M10.8,7.5h0.6c0.2-0.2,0.4-0.4,0.7-0.6V6.2C11.7,6.6,11.3,7,10.8,7.5z M12,12L12,12L12,12
	C12.1,11.9,12.1,12,12,12z M11.5,11.3c-0.3,0.2-0.5,0.5-0.8,0.7h0.9c0.2-0.1,0.3-0.3,0.5-0.4v-0.3H11.5z M13.1,5.3v0.7
	c0.2-0.2,0.4-0.4,0.7-0.6V4.6C13.6,4.8,13.4,5,13.1,5.3z M13.1,6.3v0.8c0.1-0.1,0.3-0.3,0.4-0.4c0.1-0.1,0.2-0.1,0.2-0.2V5.6
	C13.6,5.8,13.3,6,13.1,6.3z M13.5,8.4c-0.1,0.1-0.2,0.2-0.3,0.3v0.8c0.2-0.2,0.5-0.4,0.7-0.5V8.1C13.7,8.2,13.6,8.3,13.5,8.4z
	 M13.8,10.1V9.3c-0.2,0.2-0.5,0.4-0.7,0.6v0.8C13.4,10.5,13.6,10.3,13.8,10.1L13.8,10.1z M13.1,7.5v0.9c0.2-0.2,0.4-0.4,0.7-0.6V6.9
	C13.6,7.1,13.4,7.3,13.1,7.5z M12.3,3.2c-0.4,0.4-0.7,0.7-1.1,1.1h1.1c0.3-0.2,0.6-0.4,0.8-0.6C12.8,3.5,12.5,3.3,12.3,3.2z M13.7,4
	c-0.2-0.1-0.4-0.2-0.5-0.3c-0.2,0.2-0.4,0.4-0.6,0.6h0.7v0.1C13.3,4.2,13.5,4.1,13.7,4z M14,10.1c-0.3,0.3-0.6,0.5-0.9,0.8v0.2
	c0.4-0.3,0.7-0.7,1.1-1H14z M11.4,9h0.8V8.3C11.9,8.6,11.6,8.8,11.4,9z M12,7.5h0.2V7.3C12.1,7.3,12,7.4,12,7.5z M12,12L12,12L12,12
	C12.1,11.9,12.1,12,12,12z M11.5,11.3c-0.3,0.2-0.5,0.5-0.8,0.7h0.9c0.2-0.1,0.3-0.3,0.5-0.4v-0.3H11.5z M13.1,5.3v0.7
	c0.2-0.2,0.4-0.4,0.7-0.6V4.6C13.6,4.8,13.4,5,13.1,5.3z M13.1,6.3v0.8c0.1-0.1,0.3-0.3,0.4-0.4c0.1-0.1,0.2-0.1,0.2-0.2V5.6
	C13.6,5.8,13.3,6,13.1,6.3z M13.5,8.4c-0.1,0.1-0.2,0.2-0.3,0.3v0.8c0.2-0.2,0.5-0.4,0.7-0.5V8.1C13.7,8.2,13.6,8.3,13.5,8.4z
	 M13.8,10.1V9.3c-0.2,0.2-0.5,0.4-0.7,0.6v0.8C13.4,10.5,13.6,10.3,13.8,10.1L13.8,10.1z M13.1,7.5v0.9c0.2-0.2,0.4-0.4,0.7-0.6V6.9
	C13.6,7.1,13.4,7.3,13.1,7.5z M12.3,3.2c-0.4,0.4-0.7,0.7-1.1,1.1h1.1c0.3-0.2,0.6-0.4,0.8-0.6C12.8,3.5,12.5,3.3,12.3,3.2z M13.7,4
	c-0.2-0.1-0.4-0.2-0.5-0.3c-0.2,0.2-0.4,0.4-0.6,0.6h0.7v0.1C13.3,4.2,13.5,4.1,13.7,4z M14,10.1c-0.3,0.3-0.6,0.5-0.9,0.8v0.2
	c0.4-0.3,0.7-0.7,1.1-1H14z M11.4,9h0.8V8.3C11.9,8.6,11.6,8.8,11.4,9z M12,7.5h0.2V7.3C12.1,7.3,12,7.4,12,7.5z M12,12L12,12L12,12
	C12.1,11.9,12.1,12,12,12z M11.5,11.3c-0.3,0.2-0.5,0.5-0.8,0.7h0.9c0.2-0.1,0.3-0.3,0.5-0.4v-0.3H11.5z M13.1,5.3v0.7
	c0.2-0.2,0.4-0.4,0.7-0.6V4.6C13.6,4.8,13.4,5,13.1,5.3z M13.1,6.3v0.8c0.1-0.1,0.3-0.3,0.4-0.4c0.1-0.1,0.2-0.1,0.2-0.2V5.6
	C13.6,5.8,13.3,6,13.1,6.3z M13.5,8.4c-0.1,0.1-0.2,0.2-0.3,0.3v0.8c0.2-0.2,0.5-0.4,0.7-0.5V8.1C13.7,8.2,13.6,8.3,13.5,8.4z
	 M13.8,10.1V9.3c-0.2,0.2-0.5,0.4-0.7,0.6v0.8C13.4,10.5,13.6,10.3,13.8,10.1L13.8,10.1z M13.1,7.5v0.9c0.2-0.2,0.4-0.4,0.7-0.6V6.9
	C13.6,7.1,13.4,7.3,13.1,7.5z M12.3,3.2c-0.4,0.4-0.7,0.7-1.1,1.1h1.1c0.3-0.2,0.6-0.4,0.8-0.6C12.8,3.5,12.5,3.3,12.3,3.2z M13.7,4
	c-0.2-0.1-0.4-0.2-0.5-0.3c-0.2,0.2-0.4,0.4-0.6,0.6h0.7v0.1C13.3,4.2,13.5,4.1,13.7,4z M14,10.1c-0.3,0.3-0.6,0.5-0.9,0.8v0.2
	c0.4-0.3,0.7-0.7,1.1-1H14z M11.4,9h0.8V8.3C11.9,8.6,11.6,8.8,11.4,9z M12,7.5h0.2V7.3C12.1,7.3,12,7.4,12,7.5z M12,12L12,12L12,12
	C12.1,11.9,12.1,12,12,12z M11.5,11.3c-0.3,0.2-0.5,0.5-0.8,0.7h0.9c0.2-0.1,0.3-0.3,0.5-0.4v-0.3H11.5z M8.3,0.7
	c-0.2,0-0.4,0.1-0.6,0.1c0,0-0.1,0.1-0.1,0.1c-0.1,0.3,0,0.4-0.2,0.6C7.2,1.7,7,1.7,7,1.8C6.4,1.9,5.7,2.9,5.6,3.1
	c-0.2,0.3-0.8,1-2,2.1c0.3,0,0.7-0.1,1.1-0.1c0.1,0,0.3,0,0.4,0c0.4-0.5,0.9-0.9,1.4-1.4c1-1,1.9-1.8,2.9-2.5V0.7H8.3z M13.1,5.3
	v0.7c0.2-0.2,0.4-0.4,0.7-0.6V4.6C13.6,4.8,13.4,5,13.1,5.3z M13.1,6.3v0.8c0.1-0.1,0.3-0.3,0.4-0.4c0.1-0.1,0.2-0.1,0.2-0.2V5.6
	C13.6,5.8,13.3,6,13.1,6.3z M13.5,8.4c-0.1,0.1-0.2,0.2-0.3,0.3v0.8c0.2-0.2,0.5-0.4,0.7-0.5V8.1C13.7,8.2,13.6,8.3,13.5,8.4z
	 M13.8,10.1V9.3c-0.2,0.2-0.5,0.4-0.7,0.6v0.8C13.4,10.5,13.6,10.3,13.8,10.1L13.8,10.1z M13.1,7.5v0.9c0.2-0.2,0.4-0.4,0.7-0.6V6.9
	C13.6,7.1,13.4,7.3,13.1,7.5z M12.3,3.2c-0.4,0.4-0.7,0.7-1.1,1.1h1.1c0.3-0.2,0.6-0.4,0.8-0.6C12.8,3.5,12.5,3.3,12.3,3.2z M13.7,4
	c-0.2-0.1-0.4-0.2-0.5-0.3c-0.2,0.2-0.4,0.4-0.6,0.6h0.7v0.1C13.3,4.2,13.5,4.1,13.7,4z M14,10.1c-0.3,0.3-0.6,0.5-0.9,0.8v0.2
	c0.4-0.3,0.7-0.7,1.1-1H14z M11.4,9h0.8V8.3C11.9,8.6,11.6,8.8,11.4,9z M12,7.5h0.2V7.3C12.1,7.3,12,7.4,12,7.5z M12,12L12,12L12,12
	C12.1,11.9,12.1,12,12,12z M11.5,11.3c-0.3,0.2-0.5,0.5-0.8,0.7h0.9c0.2-0.1,0.3-0.3,0.5-0.4v-0.3H11.5z M13.1,5.3v0.7
	c0.2-0.2,0.4-0.4,0.7-0.6V4.6C13.6,4.8,13.4,5,13.1,5.3z M13.1,6.3v0.8c0.1-0.1,0.3-0.3,0.4-0.4c0.1-0.1,0.2-0.1,0.2-0.2V5.6
	C13.6,5.8,13.3,6,13.1,6.3z M13.5,8.4c-0.1,0.1-0.2,0.2-0.3,0.3v0.8c0.2-0.2,0.5-0.4,0.7-0.5V8.1C13.7,8.2,13.6,8.3,13.5,8.4z
	 M13.8,10.1V9.3c-0.2,0.2-0.5,0.4-0.7,0.6v0.8C13.4,10.5,13.6,10.3,13.8,10.1L13.8,10.1z M13.1,7.5v0.9c0.2-0.2,0.4-0.4,0.7-0.6V6.9
	C13.6,7.1,13.4,7.3,13.1,7.5z M12.3,3.2c-0.4,0.4-0.7,0.7-1.1,1.1h1.1c0.3-0.2,0.6-0.4,0.8-0.6C12.8,3.5,12.5,3.3,12.3,3.2z M13.7,4
	c-0.2-0.1-0.4-0.2-0.5-0.3c-0.2,0.2-0.4,0.4-0.6,0.6h0.7v0.1C13.3,4.2,13.5,4.1,13.7,4z M14,10.1c-0.3,0.3-0.6,0.5-0.9,0.8v0.2
	c0.4-0.3,0.7-0.7,1.1-1H14z M11.4,9h0.8V8.3C11.9,8.6,11.6,8.8,11.4,9z M12,7.5h0.2V7.3C12.1,7.3,12,7.4,12,7.5z M12,12L12,12L12,12
	C12.1,11.9,12.1,12,12,12z M11.5,11.3c-0.3,0.2-0.5,0.5-0.8,0.7h0.9c0.2-0.1,0.3-0.3,0.5-0.4v-0.3H11.5z M13.1,5.3v0.7
	c0.2-0.2,0.4-0.4,0.7-0.6V4.6C13.6,4.8,13.4,5,13.1,5.3z M13.1,6.3v0.8c0.1-0.1,0.3-0.3,0.4-0.4c0.1-0.1,0.2-0.1,0.2-0.2V5.6
	C13.6,5.8,13.3,6,13.1,6.3z M13.5,8.4c-0.1,0.1-0.2,0.2-0.3,0.3v0.8c0.2-0.2,0.5-0.4,0.7-0.5V8.1C13.7,8.2,13.6,8.3,13.5,8.4z
	 M14,10.1c-0.3,0.3-0.6,0.5-0.9,0.8v0.2c0.4-0.3,0.7-0.7,1.1-1H14z M13.8,10.1V9.3c-0.2,0.2-0.5,0.4-0.7,0.6v0.8
	C13.4,10.5,13.6,10.3,13.8,10.1L13.8,10.1z M13.1,7.5v0.9c0.2-0.2,0.4-0.4,0.7-0.6V6.9C13.6,7.1,13.4,7.3,13.1,7.5z M12.3,3.2
	c-0.4,0.4-0.7,0.7-1.1,1.1h1.1c0.3-0.2,0.6-0.4,0.8-0.6C12.8,3.5,12.5,3.3,12.3,3.2z M13.7,4c-0.2-0.1-0.4-0.2-0.5-0.3
	c-0.2,0.2-0.4,0.4-0.6,0.6h0.7v0.1C13.3,4.2,13.5,4.1,13.7,4z M11.4,9h0.8V8.3C11.9,8.6,11.6,8.8,11.4,9z M12,7.5h0.2V7.3
	C12.1,7.3,12,7.4,12,7.5z M12,12L12,12L12,12C12.1,11.9,12.1,12,12,12z M11.5,11.3c-0.3,0.2-0.5,0.5-0.8,0.7h0.9
	c0.2-0.1,0.3-0.3,0.5-0.4v-0.3H11.5z M13.1,5.3v0.7c0.2-0.2,0.4-0.4,0.7-0.6V4.6C13.6,4.8,13.4,5,13.1,5.3z M13.1,6.3v0.8
	c0.1-0.1,0.3-0.3,0.4-0.4c0.1-0.1,0.2-0.1,0.2-0.2V5.6C13.6,5.8,13.3,6,13.1,6.3z M13.5,8.4c-0.1,0.1-0.2,0.2-0.3,0.3v0.8
	c0.2-0.2,0.5-0.4,0.7-0.5V8.1C13.7,8.2,13.6,8.3,13.5,8.4z M14,10.1c-0.3,0.3-0.6,0.5-0.9,0.8v0.2c0.4-0.3,0.7-0.7,1.1-1H14z
	 M13.8,10.1V9.3c-0.2,0.2-0.5,0.4-0.7,0.6v0.8C13.4,10.5,13.6,10.3,13.8,10.1L13.8,10.1z M13.1,7.5v0.9c0.2-0.2,0.4-0.4,0.7-0.6V6.9
	C13.6,7.1,13.4,7.3,13.1,7.5z M12.3,3.2c-0.4,0.4-0.7,0.7-1.1,1.1h1.1c0.3-0.2,0.6-0.4,0.8-0.6C12.8,3.5,12.5,3.3,12.3,3.2z M13.7,4
	c-0.2-0.1-0.4-0.2-0.5-0.3c-0.2,0.2-0.4,0.4-0.6,0.6h0.7v0.1C13.3,4.2,13.5,4.1,13.7,4z M11.4,9h0.8V8.3C11.9,8.6,11.6,8.8,11.4,9z
	 M12,7.5h0.2V7.3C12.1,7.3,12,7.4,12,7.5z M12,12L12,12L12,12C12.1,11.9,12.1,12,12,12z M11.5,11.3c-0.3,0.2-0.5,0.5-0.8,0.7h0.9
	c0.2-0.1,0.3-0.3,0.5-0.4v-0.3H11.5z M12,7.5h0.2V7.3C12.1,7.3,12,7.4,12,7.5z M10.8,7.5h0.6c0.2-0.2,0.4-0.4,0.7-0.6V6.2
	C11.7,6.6,11.3,7,10.8,7.5z M11,8.3c-0.2,0.2-0.5,0.5-0.7,0.7h0.8c0.2-0.2,0.5-0.5,0.7-0.7H11z M11.4,9h0.8V8.3
	C11.9,8.6,11.6,8.8,11.4,9z M13.1,5.3v0.7c0.2-0.2,0.4-0.4,0.7-0.6V4.6C13.6,4.8,13.4,5,13.1,5.3z M15.5,2.6c0-0.2,0-0.3-0.1-0.5
	c-0.3-0.4-0.8-0.2-1.3-0.3c-1.1,0-2.1-0.1-3.2,0.1c-0.8,0.2-0.5,1.2-0.5,1.8H9.3V2.4C9,2.7,8.8,2.9,8.5,3.2C7.7,4.1,6.9,4.9,6.1,5.7
	C6.7,6.6,6.5,8,5.4,8.5C5.1,8.7,4.6,8.7,4.2,8.7c0,0.7,0,1.3,0,2c-0.3,0-0.7-0.1-1-0.1c0-1.1,0-2.2,0-3.3C3,7.5,2.8,7.7,2.6,7.9
	C2.8,7.7,3,7.4,3.2,7.2V5.5C2.5,6.2,1.6,7,0.5,8v5.8c0.9,0.2,1.8,0.3,2.7,0.5c1-1.1,2.5-2.6,4.3-4.5c0.8-0.9,1.4-1.4,1.8-1.9V7.5
	h0.5C10,7.2,10.2,7,10.5,6.7c0.6-0.5,1.1-1,1.7-1.5V5.1h-0.5c-0.2,0.2-0.4,0.4-0.6,0.5C9.5,7.1,7.9,8.3,6.4,9.5
	C7.5,8.4,8.7,7.2,10,6.1c0.4-0.3,0.8-0.7,1.2-1h-1C8.7,6.5,7.2,7.8,5.7,8.9C6.8,7.8,8,6.6,9.3,5.5c0.2-0.1,0.3-0.3,0.5-0.4H9.3V4.3
	h1.5c0.5-0.4,0.9-0.8,1.4-1.1c-0.4-0.2-0.7-0.4-1-0.7c0.5,0,0.9,0,1.4,0c0.8,0,1.6,0,2.3,0V3C15.2,2.8,15.3,2.7,15.5,2.6z M15,3.5v2
	c0.2-0.1,0.3-0.3,0.5-0.4c0-0.7,0-1.4,0-2.1C15.4,3.1,15.2,3.3,15,3.5z M13.1,6.3v0.8c0.1-0.1,0.3-0.3,0.4-0.4
	c0.1-0.1,0.2-0.1,0.2-0.2V5.6C13.6,5.8,13.3,6,13.1,6.3z M13.5,8.4c-0.1,0.1-0.2,0.2-0.3,0.3v0.8c0.2-0.2,0.5-0.4,0.7-0.5V8.1
	C13.7,8.2,13.6,8.3,13.5,8.4z M10.8,10.5c0.2-0.2,0.5-0.4,0.7-0.7h-1.3c-0.1,0.1-0.2,0.2-0.3,0.3c0.1-0.1,0.2-0.2,0.3-0.3H9.4
	c-0.7,0.7-1.4,1.3-2.2,2c0.6-0.7,1.3-1.5,2-2.2V9h0.6c0.2-0.2,0.4-0.5,0.7-0.7H9.9c-2.6,2.5-4.8,4.6-6.4,6.1
	c1.5,0.3,3.1,0.5,4.6,0.8h1v-0.8c-0.2,0.2-0.4,0.3-0.6,0.5c0.2-0.2,0.4-0.4,0.6-0.6v-0.7H10c0.2-0.2,0.3-0.3,0.5-0.5h-1l-1.7,1.5
	c0.4-0.5,0.9-1,1.3-1.5v-0.9c-0.5,0.5-1.1,0.9-1.6,1.4c0.7-0.7,1.5-1.4,2.2-2.1H9.3v-0.8H10.8z M15,9.7v0.5h-0.6
	c-0.4,0.4-0.9,0.7-1.3,1.1V13H11c-0.2,0.2-0.4,0.3-0.6,0.5c0.8,0,1.6,0,2.5,0c0.3,0,0.8,0,1-0.4c0.1-0.8,0-1.5,0-2.3
	c0.4,0,0.8,0,1.1,0c0.2-0.1,0.3-0.2,0.5-0.4c0-0.2,0-0.4,0-0.6V9.2C15.3,9.4,15.2,9.5,15,9.7z M15,7v1.1c0.2-0.1,0.3-0.2,0.5-0.3
	V6.5C15.3,6.7,15.2,6.8,15,7z M15,5.8v1c0.2-0.1,0.3-0.3,0.5-0.4v-1C15.3,5.5,15.2,5.7,15,5.8z M15.5,7.8C15.3,8,15.2,8.2,15,8.3v1
	c0.1,0,0.1-0.1,0.2-0.1c0.1-0.1,0.2-0.2,0.3-0.3C15.5,8.5,15.5,8.2,15.5,7.8z M15,9.3C15,9.3,15,9.3,15,9.3L15,9.3
	c0.1,0,0.2-0.1,0.3-0.2C15.2,9.1,15.1,9.2,15,9.3z M14,10.1c-0.3,0.3-0.6,0.5-0.9,0.8v0.2c0.4-0.3,0.7-0.7,1.1-1H14z M13.8,10.1V9.3
	c-0.2,0.2-0.5,0.4-0.7,0.6v0.8C13.4,10.5,13.6,10.3,13.8,10.1L13.8,10.1z M13.1,7.5v0.9c0.2-0.2,0.4-0.4,0.7-0.6V6.9
	C13.6,7.1,13.4,7.3,13.1,7.5z M10.2,11.3c-0.3,0.2-0.5,0.5-0.8,0.7h0.9c0.2-0.2,0.5-0.5,0.7-0.7H10.2z M12,12L12,12L12,12
	C12.1,11.9,12.1,12,12,12z M11.5,11.3c-0.3,0.2-0.5,0.5-0.8,0.7h0.9c0.2-0.1,0.3-0.3,0.5-0.4v-0.3H11.5z M11.9,9.8
	c-0.3,0.2-0.5,0.5-0.8,0.7h0.8c0,0,0.1-0.1,0.1-0.1c0,0,0.1,0,0.1-0.1V9.8H11.9z M12.3,3.2c-0.4,0.4-0.7,0.7-1.1,1.1h1.1
	c0.3-0.2,0.6-0.4,0.8-0.6C12.8,3.5,12.5,3.3,12.3,3.2z M13.7,4c-0.2-0.1-0.4-0.2-0.5-0.3c-0.2,0.2-0.4,0.4-0.6,0.6h0.7v0.1
	C13.3,4.2,13.5,4.1,13.7,4z M12,12L12,12L12,12C12.1,11.9,12.1,12,12,12z M11.5,11.3c-0.3,0.2-0.5,0.5-0.8,0.7h0.9
	c0.2-0.1,0.3-0.3,0.5-0.4v-0.3H11.5z M12,7.5h0.2V7.3C12.1,7.3,12,7.4,12,7.5z M11.4,9h0.8V8.3C11.9,8.6,11.6,8.8,11.4,9z M13.1,5.3
	v0.7c0.2-0.2,0.4-0.4,0.7-0.6V4.6C13.6,4.8,13.4,5,13.1,5.3z M13.1,6.3v0.8c0.1-0.1,0.3-0.3,0.4-0.4c0.1-0.1,0.2-0.1,0.2-0.2V5.6
	C13.6,5.8,13.3,6,13.1,6.3z M13.5,8.4c-0.1,0.1-0.2,0.2-0.3,0.3v0.8c0.2-0.2,0.5-0.4,0.7-0.5V8.1C13.7,8.2,13.6,8.3,13.5,8.4z
	 M14,10.1c-0.3,0.3-0.6,0.5-0.9,0.8v0.2c0.4-0.3,0.7-0.7,1.1-1H14z M13.8,10.1V9.3c-0.2,0.2-0.5,0.4-0.7,0.6v0.8
	C13.4,10.5,13.6,10.3,13.8,10.1L13.8,10.1z M13.1,7.5v0.9c0.2-0.2,0.4-0.4,0.7-0.6V6.9C13.6,7.1,13.4,7.3,13.1,7.5z M12.3,3.2
	c-0.4,0.4-0.7,0.7-1.1,1.1h1.1c0.3-0.2,0.6-0.4,0.8-0.6C12.8,3.5,12.5,3.3,12.3,3.2z M13.7,4c-0.2-0.1-0.4-0.2-0.5-0.3
	c-0.2,0.2-0.4,0.4-0.6,0.6h0.7v0.1C13.3,4.2,13.5,4.1,13.7,4z M12,12L12,12L12,12C12.1,11.9,12.1,12,12,12z M11.5,11.3
	c-0.3,0.2-0.5,0.5-0.8,0.7h0.9c0.2-0.1,0.3-0.3,0.5-0.4v-0.3H11.5z M12,7.5h0.2V7.3C12.1,7.3,12,7.4,12,7.5z M11.4,9h0.8V8.3
	C11.9,8.6,11.6,8.8,11.4,9z M14,10.1c-0.3,0.3-0.6,0.5-0.9,0.8v0.2c0.4-0.3,0.7-0.7,1.1-1H14z M13.1,5.3v0.7
	c0.2-0.2,0.4-0.4,0.7-0.6V4.6C13.6,4.8,13.4,5,13.1,5.3z M13.1,6.3v0.8c0.1-0.1,0.3-0.3,0.4-0.4c0.1-0.1,0.2-0.1,0.2-0.2V5.6
	C13.6,5.8,13.3,6,13.1,6.3z M13.5,8.4c-0.1,0.1-0.2,0.2-0.3,0.3v0.8c0.2-0.2,0.5-0.4,0.7-0.5V8.1C13.7,8.2,13.6,8.3,13.5,8.4z
	 M13.8,10.1V9.3c-0.2,0.2-0.5,0.4-0.7,0.6v0.8C13.4,10.5,13.6,10.3,13.8,10.1L13.8,10.1z M13.1,7.5v0.9c0.2-0.2,0.4-0.4,0.7-0.6V6.9
	C13.6,7.1,13.4,7.3,13.1,7.5z M12.3,3.2c-0.4,0.4-0.7,0.7-1.1,1.1h1.1c0.3-0.2,0.6-0.4,0.8-0.6C12.8,3.5,12.5,3.3,12.3,3.2z M13.7,4
	c-0.2-0.1-0.4-0.2-0.5-0.3c-0.2,0.2-0.4,0.4-0.6,0.6h0.7v0.1C13.3,4.2,13.5,4.1,13.7,4z M12,12L12,12L12,12C12.1,11.9,12.1,12,12,12
	z M11.5,11.3c-0.3,0.2-0.5,0.5-0.8,0.7h0.9c0.2-0.1,0.3-0.3,0.5-0.4v-0.3H11.5z M12,7.5h0.2V7.3C12.1,7.3,12,7.4,12,7.5z M11.4,9
	h0.8V8.3C11.9,8.6,11.6,8.8,11.4,9z M14,10.1c-0.3,0.3-0.6,0.5-0.9,0.8v0.2c0.4-0.3,0.7-0.7,1.1-1H14z M13.1,5.3v0.7
	c0.2-0.2,0.4-0.4,0.7-0.6V4.6C13.6,4.8,13.4,5,13.1,5.3z M13.1,6.3v0.8c0.1-0.1,0.3-0.3,0.4-0.4c0.1-0.1,0.2-0.1,0.2-0.2V5.6
	C13.6,5.8,13.3,6,13.1,6.3z M13.5,8.4c-0.1,0.1-0.2,0.2-0.3,0.3v0.8c0.2-0.2,0.5-0.4,0.7-0.5V8.1C13.7,8.2,13.6,8.3,13.5,8.4z
	 M13.8,10.1V9.3c-0.2,0.2-0.5,0.4-0.7,0.6v0.8C13.4,10.5,13.6,10.3,13.8,10.1L13.8,10.1z M13.1,7.5v0.9c0.2-0.2,0.4-0.4,0.7-0.6V6.9
	C13.6,7.1,13.4,7.3,13.1,7.5z M12.3,3.2c-0.4,0.4-0.7,0.7-1.1,1.1h1.1c0.3-0.2,0.6-0.4,0.8-0.6C12.8,3.5,12.5,3.3,12.3,3.2z M13.7,4
	c-0.2-0.1-0.4-0.2-0.5-0.3c-0.2,0.2-0.4,0.4-0.6,0.6h0.7v0.1C13.3,4.2,13.5,4.1,13.7,4z M7.3,3.1C6.7,3.8,6,4.5,5.3,5.1
	c0.2,0,0.5,0.2,0.7,0.3c0.4-0.6,1-1.2,1.5-1.8c0.6-0.6,1.2-1.1,1.8-1.6V1.2C8.6,1.8,8,2.4,7.3,3.1z M12,12L12,12L12,12
	C12.1,11.9,12.1,12,12,12z M11.5,11.3c-0.3,0.2-0.5,0.5-0.8,0.7h0.9c0.2-0.1,0.3-0.3,0.5-0.4v-0.3H11.5z M12,7.5h0.2V7.3
	C12.1,7.3,12,7.4,12,7.5z M11.4,9h0.8V8.3C11.9,8.6,11.6,8.8,11.4,9z M14,10.1c-0.3,0.3-0.6,0.5-0.9,0.8v0.2c0.4-0.3,0.7-0.7,1.1-1
	H14z M13.1,5.3v0.7c0.2-0.2,0.4-0.4,0.7-0.6V4.6C13.6,4.8,13.4,5,13.1,5.3z M13.1,6.3v0.8c0.1-0.1,0.3-0.3,0.4-0.4
	c0.1-0.1,0.2-0.1,0.2-0.2V5.6C13.6,5.8,13.3,6,13.1,6.3z M13.5,8.4c-0.1,0.1-0.2,0.2-0.3,0.3v0.8c0.2-0.2,0.5-0.4,0.7-0.5V8.1
	C13.7,8.2,13.6,8.3,13.5,8.4z M13.8,10.1V9.3c-0.2,0.2-0.5,0.4-0.7,0.6v0.8C13.4,10.5,13.6,10.3,13.8,10.1L13.8,10.1z M13.1,7.5v0.9
	c0.2-0.2,0.4-0.4,0.7-0.6V6.9C13.6,7.1,13.4,7.3,13.1,7.5z M12.3,3.2c-0.4,0.4-0.7,0.7-1.1,1.1h1.1c0.3-0.2,0.6-0.4,0.8-0.6
	C12.8,3.5,12.5,3.3,12.3,3.2z M13.7,4c-0.2-0.1-0.4-0.2-0.5-0.3c-0.2,0.2-0.4,0.4-0.6,0.6h0.7v0.1C13.3,4.2,13.5,4.1,13.7,4z M12,12
	L12,12L12,12C12.1,11.9,12.1,12,12,12z M11.5,11.3c-0.3,0.2-0.5,0.5-0.8,0.7h0.9c0.2-0.1,0.3-0.3,0.5-0.4v-0.3H11.5z M12,7.5h0.2
	V7.3C12.1,7.3,12,7.4,12,7.5z M11.4,9h0.8V8.3C11.9,8.6,11.6,8.8,11.4,9z M14,10.1c-0.3,0.3-0.6,0.5-0.9,0.8v0.2
	c0.4-0.3,0.7-0.7,1.1-1H14z M13.1,5.3v0.7c0.2-0.2,0.4-0.4,0.7-0.6V4.6C13.6,4.8,13.4,5,13.1,5.3z M13.1,6.3v0.8
	c0.1-0.1,0.3-0.3,0.4-0.4c0.1-0.1,0.2-0.1,0.2-0.2V5.6C13.6,5.8,13.3,6,13.1,6.3z M13.5,8.4c-0.1,0.1-0.2,0.2-0.3,0.3v0.8
	c0.2-0.2,0.5-0.4,0.7-0.5V8.1C13.7,8.2,13.6,8.3,13.5,8.4z M13.8,10.1V9.3c-0.2,0.2-0.5,0.4-0.7,0.6v0.8
	C13.4,10.5,13.6,10.3,13.8,10.1L13.8,10.1z M13.1,7.5v0.9c0.2-0.2,0.4-0.4,0.7-0.6V6.9C13.6,7.1,13.4,7.3,13.1,7.5z M12.3,3.2
	c-0.4,0.4-0.7,0.7-1.1,1.1h1.1c0.3-0.2,0.6-0.4,0.8-0.6C12.8,3.5,12.5,3.3,12.3,3.2z M13.7,4c-0.2-0.1-0.4-0.2-0.5-0.3
	c-0.2,0.2-0.4,0.4-0.6,0.6h0.7v0.1C13.3,4.2,13.5,4.1,13.7,4z M0.5,2.1V8c4.6-4.9,6-6.4,6.1-6.6c0,0,0.1-0.2,0.1-0.4v0
	C4.6,1.3,2.6,1.7,0.5,2.1z M3.4,4.4C3.1,4.8,2.7,5,2.5,5.3c0.2-0.3,0.4-0.6,0.8-1C3.4,4.2,3.5,4.1,3.7,4C3.6,4.1,3.5,4.3,3.4,4.4z
	 M3.3,3.2C3,3.6,2.7,3.8,2.4,4.1c0.2-0.3,0.5-0.6,0.8-1c0.5-0.5,1-1,1.4-1.4C4.2,2.2,3.8,2.7,3.3,3.2z M12,12L12,12L12,12
	C12.1,11.9,12.1,12,12,12z M11.5,11.3c-0.3,0.2-0.5,0.5-0.8,0.7h0.9c0.2-0.1,0.3-0.3,0.5-0.4v-0.3H11.5z M12,7.5h0.2V7.3
	C12.1,7.3,12,7.4,12,7.5z M11.4,9h0.8V8.3C11.9,8.6,11.6,8.8,11.4,9z M14,10.1c-0.3,0.3-0.6,0.5-0.9,0.8v0.2c0.4-0.3,0.7-0.7,1.1-1
	H14z M13.1,5.3v0.7c0.2-0.2,0.4-0.4,0.7-0.6V4.6C13.6,4.8,13.4,5,13.1,5.3z M13.1,6.3v0.8c0.1-0.1,0.3-0.3,0.4-0.4
	c0.1-0.1,0.2-0.1,0.2-0.2V5.6C13.6,5.8,13.3,6,13.1,6.3z M13.5,8.4c-0.1,0.1-0.2,0.2-0.3,0.3v0.8c0.2-0.2,0.5-0.4,0.7-0.5V8.1
	C13.7,8.2,13.6,8.3,13.5,8.4z M13.8,10.1V9.3c-0.2,0.2-0.5,0.4-0.7,0.6v0.8C13.4,10.5,13.6,10.3,13.8,10.1L13.8,10.1z M13.1,7.5v0.9
	c0.2-0.2,0.4-0.4,0.7-0.6V6.9C13.6,7.1,13.4,7.3,13.1,7.5z M12.3,3.2c-0.4,0.4-0.7,0.7-1.1,1.1h1.1c0.3-0.2,0.6-0.4,0.8-0.6
	C12.8,3.5,12.5,3.3,12.3,3.2z M13.7,4c-0.2-0.1-0.4-0.2-0.5-0.3c-0.2,0.2-0.4,0.4-0.6,0.6h0.7v0.1C13.3,4.2,13.5,4.1,13.7,4z M12,12
	L12,12L12,12C12.1,11.9,12.1,12,12,12z M11.5,11.3c-0.3,0.2-0.5,0.5-0.8,0.7h0.9c0.2-0.1,0.3-0.3,0.5-0.4v-0.3H11.5z M11.4,9h0.8
	V8.3C11.9,8.6,11.6,8.8,11.4,9z M14,10.1c-0.3,0.3-0.6,0.5-0.9,0.8v0.2c0.4-0.3,0.7-0.7,1.1-1H14z M13.1,5.3v0.7
	c0.2-0.2,0.4-0.4,0.7-0.6V4.6C13.6,4.8,13.4,5,13.1,5.3z M13.1,6.3v0.8c0.1-0.1,0.3-0.3,0.4-0.4c0.1-0.1,0.2-0.1,0.2-0.2V5.6
	C13.6,5.8,13.3,6,13.1,6.3z M13.5,8.4c-0.1,0.1-0.2,0.2-0.3,0.3v0.8c0.2-0.2,0.5-0.4,0.7-0.5V8.1C13.7,8.2,13.6,8.3,13.5,8.4z
	 M13.8,10.1V9.3c-0.2,0.2-0.5,0.4-0.7,0.6v0.8C13.4,10.5,13.6,10.3,13.8,10.1L13.8,10.1z M13.1,7.5v0.9c0.2-0.2,0.4-0.4,0.7-0.6V6.9
	C13.6,7.1,13.4,7.3,13.1,7.5z M12.3,3.2c-0.4,0.4-0.7,0.7-1.1,1.1h1.1c0.3-0.2,0.6-0.4,0.8-0.6C12.8,3.5,12.5,3.3,12.3,3.2z M13.7,4
	c-0.2-0.1-0.4-0.2-0.5-0.3c-0.2,0.2-0.4,0.4-0.6,0.6h0.7v0.1C13.3,4.2,13.5,4.1,13.7,4z M12,12L12,12L12,12C12.1,11.9,12.1,12,12,12
	z M11.5,11.3c-0.3,0.2-0.5,0.5-0.8,0.7h0.9c0.2-0.1,0.3-0.3,0.5-0.4v-0.3H11.5z M11.4,9h0.8V8.3C11.9,8.6,11.6,8.8,11.4,9z M14,10.1
	c-0.3,0.3-0.6,0.5-0.9,0.8v0.2c0.4-0.3,0.7-0.7,1.1-1H14z M13.1,5.3v0.7c0.2-0.2,0.4-0.4,0.7-0.6V4.6C13.6,4.8,13.4,5,13.1,5.3z
	 M13.1,6.3v0.8c0.1-0.1,0.3-0.3,0.4-0.4c0.1-0.1,0.2-0.1,0.2-0.2V5.6C13.6,5.8,13.3,6,13.1,6.3z M13.5,8.4c-0.1,0.1-0.2,0.2-0.3,0.3
	v0.8c0.2-0.2,0.5-0.4,0.7-0.5V8.1C13.7,8.2,13.6,8.3,13.5,8.4z M13.8,10.1V9.3c-0.2,0.2-0.5,0.4-0.7,0.6v0.8
	C13.4,10.5,13.6,10.3,13.8,10.1L13.8,10.1z M13.1,7.5v0.9c0.2-0.2,0.4-0.4,0.7-0.6V6.9C13.6,7.1,13.4,7.3,13.1,7.5z M12.3,3.2
	c-0.4,0.4-0.7,0.7-1.1,1.1h1.1c0.3-0.2,0.6-0.4,0.8-0.6C12.8,3.5,12.5,3.3,12.3,3.2z M13.7,4c-0.2-0.1-0.4-0.2-0.5-0.3
	c-0.2,0.2-0.4,0.4-0.6,0.6h0.7v0.1C13.3,4.2,13.5,4.1,13.7,4z"/>
<path class="st0" d="M5.2,7.4C5,7.8,4.6,7.7,4.2,7.8c0-0.5,0-1,0-1.5c0,0,0.1-0.1,0.1-0.2c0.1,0,0.2,0,0.2,0c0.2,0,0.4,0,0.6,0.3
	c0,0,0,0.1,0,0.1v0c0,0.1-0.1,0.1-0.1,0.2c0.1,0,0.1-0.1,0.1-0.1C5.3,6.8,5.3,7.1,5.2,7.4z"/>
<path class="st1" d="M5.2,7.4C5,7.8,4.6,7.7,4.2,7.8c0-0.5,0-1,0-1.5c0,0,0.1-0.1,0.1-0.2c0.1,0,0.2,0,0.2,0c0.2,0,0.4,0,0.6,0.3
	c0,0,0,0.1,0,0.1v0c0,0.1-0.1,0.1-0.1,0.2c0.1,0,0.1-0.1,0.1-0.1C5.3,6.8,5.3,7.1,5.2,7.4z"/>
</svg>
