<?xml version="1.0" encoding="utf-8"?>
<!-- Generator: Adobe Illustrator 23.0.0, SVG Export Plug-In . SVG Version: 6.00 Build 0)  -->
<svg version="1.1" id="Layer_1" xmlns="http://www.w3.org/2000/svg" xmlns:xlink="http://www.w3.org/1999/xlink" x="0px" y="0px"
	 viewBox="0 0 16 16" style="enable-background:new 0 0 16 16;" xml:space="preserve">
<style type="text/css">
	.st0{clip-path:url(#SVGID_2_);fill:#F75049;}
</style>
<g>
	<defs>
		<path id="SVGID_1_" d="M22.4,4.2c-0.1-0.1-0.3,0-0.6-0.2c-0.2-0.2-0.2-0.3-0.3-0.4c-0.4-0.2-1.3,0.5-1.3,0.5c0,0,0.4-0.3,0.7-0.7
			c0.2-0.2,0.6-0.7,0.5-1c-0.1-0.2-0.3-0.2-0.3-0.3c0-0.3,0.5-0.4,0.4-0.7c0-0.2-0.2-0.3-0.3-0.3c-0.3-0.1-0.8,0.2-0.8,0.2
			c0,0,0.3-0.2,0.4-0.5c0-0.1,0.2-0.3,0.1-0.5c-0.1-0.1-0.3-0.1-0.4-0.1c-0.1,0-0.2,0.1-0.2,0c0,0,0-0.1,0-0.2
			c0-0.2-0.3-0.3-0.6-0.3c-0.5,0-0.9,0.5-1,0.4c-0.1-0.1,0.5-0.5,0.4-0.9c0-0.1-0.2-0.3-0.4-0.3c-0.3,0-0.4,0.3-0.5,0.3
			c-0.1-0.1,0.1-0.7-0.1-0.9c-0.1-0.1-0.3,0.1-0.6,0c-0.2-0.1-0.2-0.1-0.3-0.2C17-1.9,16.6-1.4,16-0.9c-0.2,0.2-0.6,0.5-1.1,0.8
			c0.3-0.3,0.5-0.6,0.7-0.7c0.4-0.4,0.6-0.6,0.6-0.9c0-0.1,0-0.4-0.2-0.4c-0.2-0.1-0.4,0.2-1.1,0.6c-0.2,0.1-0.3,0.2-0.4,0.3
			c0,0,0.3-0.4,0.2-0.7c0,0-0.1-0.2-0.2-0.3c-0.4-0.3-1.1-0.2-1.2-0.2c-0.9,0.2-1.1,0.8-2.1,1.3c0,0-0.1,0.1-0.3,0.2
			c-0.4,0.2-0.6,0.3-0.7,0.4C9.9-0.4,9.7-0.2,9.6,0C9.5,0.3,9.5,0.5,9.4,0.6C9.2,0.8,9.1,0.8,9,0.8C8.4,1,7.7,2,7.6,2.1
			C7.2,2.7,5.9,4,2.4,7.2c4.7-5,6.2-6.6,6.2-6.7c0,0,0,0,0,0c0-0.1,0.2-0.4,0-0.6c-0.1-0.1-0.2,0-0.3-0.1c0,0,0-0.1,0-0.1
			c0-0.2,0.4-0.2,0.4-0.3c0,0-0.1-0.1-0.2-0.1C8.3-0.9,8.3-1,8.1-1C7.9-1.1,7.6-1,7.5-0.9C7.3-0.8,7.1-0.6,7.1-0.7c0,0,0-0.2,0-0.3
			C7-1,6.8-1,6.8-1C6.4-1,6.2-0.7,6.1-0.8c-0.1,0,0-0.2-0.1-0.3C6-1.2,5.8-1.2,5.7-1.3C5.5-1.4,5.6-1.6,5.4-1.8
			C5.3-1.9,5.2-2.1,5-2.2c-0.2-0.1-0.3,0-0.5-0.1C4.2-2.3,4.2-2.5,4-2.5c-0.2,0-0.3,0-0.4,0.1C3.3-2.3,3.3-2.1,3.1-2.1
			c-0.2,0-0.2-0.2-0.5-0.2c-0.1,0-0.2,0-0.3,0C2.2-2.2,2.3-2,2.2-1.8C2.1-1.8,2-1.8,1.9-1.8C1.8-1.9,1.9-2,1.8-2
			C1.6-2.2,0.7-2,0.4-1.4c0,0.1-0.1,0.2-0.2,0.3C0-1-0.1-1.1-0.3-1.1c-0.3,0-0.5,0.2-1.1,1c0,0-0.1,0.1-0.6,0.6
			c-0.9,1-1,1.1-1.1,1.4c0,0.5,0,0.7,0,0.7c0,0.1,0.1,0.3,0,0.4C-3,3.1-3,3-3.1,3.1c-0.1,0.1,0.1,0.4,0,0.8c0,0,0,0,0,0.3
			c-0.1,0.5-0.1,0.6,0,0.7C-3.1,4.9-3,4.9-2.9,4.9c0.2,0,0.3-0.1,0.4-0.1c0.4-0.5,0.8-0.9,1.1-1.4C-1.6,3.7-1.7,4-1.8,4.1
			C-2,4.4-2.2,4.5-2.3,4.9c0,0.1-0.1,0.2-0.2,0.4C-2.5,5.5-2.7,5.7-2.5,6c0,0.1,0.1,0.2,0.1,0.3c0,0.2,0,0.3,0,0.4
			c0,0.1,0.1,0.1,0.2,0.1c0.1,0.1,0,0.3,0,0.6c0,0.2,0.1,0.1,0.1,0.3C-2,7.9-2.1,8-2.1,8.4c0,0.1,0,0.2,0.1,0.3
			c0.1,0.1,0.4-0.1,0.6,0C-1.3,8.8-1.3,9-1.1,9.1C-1,9.1-1,9-0.7,9c0,0,0.3,0,0.3,0.1c0,0.1-0.1,0.3-0.3,0.4c-0.4,0.2-0.8-0.1-0.9,0
			c0,0.1,0.1,0.2,0.2,0.3c1,0.9,1,1,1.3,1.2c0.3,0.2,0.3,0.1,0.7,0.3c0.5,0.3,1.1,0.6,1.1,1c0,0.2-0.2,0.3-0.1,0.6
			c0,0.2,0.1,0.5,0.3,0.6c0.2,0.1,0.3-0.1,0.6-0.1c0.3,0,0.3,0.2,0.6,0.3c0.4,0,0.5-0.4,0.8-0.4c0.2,0,0.2,0.2,0.4,0.3
			c0.2,0.1,0.4,0,0.5,0c1-1.1,2.6-2.7,4.6-4.8c1.6-1.7,2.1-2.2,3-3.1c2.6-2.5,5.4-4.5,5.5-4.3c0.1,0.1-1.2,1.3-5.5,5.4
			c-3,2.8-5.4,5.2-7.1,6.8c0,0.3,0.1,0.5,0.2,0.5c0.2,0.1,0.5-0.2,0.8,0c0.1,0.1,0.3,0.2,0.3,0.4c0,0.2,0,0.3,0.1,0.4
			C6.8,15,6.9,15,7,15.1c0.2,0.2,0.1,0.3,0.3,0.5c0.2,0.1,0.4,0,0.4,0.2c0,0.1,0,0.1,0,0.3c0,0.1,0.2,0.1,0.2,0.3
			c0,0.2-0.3,0.3-0.3,0.6c0,0.2,0.1,0.2,0.1,0.5c0,0.5-0.6,0.6-0.5,0.9c0,0.2,0.2,0.4,0.4,0.5c0.3,0,0.5-0.4,0.8-0.4
			c0.4,0,0.6,0.6,0.9,0.5c0.3,0,0.3-0.4,0.6-0.4c0.2,0,0.3,0.1,0.4,0c0.1-0.1,0.1-0.2,0.3-0.3c0.1,0,0.1,0,0.2,0
			c0.2,0,0.6-0.4,0.7-0.8c0.1-0.4,0-0.5,0.2-0.8c0.1-0.2,0.3-0.3,0.4-0.4c0.5-0.4,1.2-1,1.8-1.6c0.8-0.8,0.9-1.1,1.5-1.4
			c0.1,0,0.3-0.1,0.5-0.3c0.3-0.3,0.4-0.6,0.6-0.8c0.4-0.8,0.8-0.8,1.7-2c0-0.1,0.2-0.3,0.2-0.4c-0.1-0.1-1.2,1.1-1.4,1
			c-0.1-0.1-0.1-0.2-0.1-0.2c0.1-0.6,0.8-0.8,1.9-1.7c0.3-0.2,0.2-0.2,0.5-0.5c0.8-0.7,1.7-1.3,2-1.7C21.1,6.3,21.1,6,21.1,6
			c0-0.1,0-0.1,0.1-0.2c0.1-0.3,0.2-0.4,0.7-0.9C22.4,4.4,22.4,4.3,22.4,4.2z M5.4,3.5C5.1,3.8,4.8,4.1,4.5,4.3
			c0.2-0.3,0.4-0.6,0.8-0.9c0.1-0.1,0.3-0.2,0.4-0.3C5.6,3.2,5.5,3.3,5.4,3.5z M5.2,2.2c0.5-0.5,1-1,1.4-1.4c-0.3,0.5-0.8,1-1.3,1.5
			C5,2.6,4.7,2.9,4.4,3.2C4.6,2.9,4.9,2.6,5.2,2.2z M-0.4,2.2C-0.3,2-0.1,1.8,0.1,1.6c0.1-0.1,0.2-0.2,0.2-0.2
			c0,0.1-0.1,0.2-0.2,0.3C0,1.9-0.2,2.1-0.4,2.2z M0.5,10.3c-0.1,0.1-0.2,0.2-0.3,0.2c0,0,0-0.2,0.1-0.3C0.4,10.1,0.6,10,0.6,10
			C0.6,10.1,0.6,10.2,0.5,10.3z M0.2,5.7c0.3-0.4,0.7-0.8,1-1.2c0,0.1,0,0.2,0,0.3C0.8,5.1,0.5,5.4,0.2,5.7z M1.9,11.7
			c0,0-0.2-0.2-0.5-0.6c-0.1-0.1-0.2-0.2-0.2-0.3c0-0.1,0.1-0.1,0.2-0.2c0.1-0.1,0.3-0.2,0.4-0.5c0,0.2-0.1,0.3-0.1,0.4
			c0,0.1-0.1,0.2-0.1,0.3c0,0.1,0.1,0,0.1,0.1c0.1,0.1,0,0.2,0,0.3C1.8,11.5,1.9,11.7,1.9,11.7z M1.8,0.4C1.9,0.2,2,0,2.2-0.2
			c0.1-0.1,0.2-0.2,0.2-0.2c0,0.1-0.1,0.2-0.2,0.3C2.1,0.1,1.9,0.3,1.8,0.4z M4.6,7c1-1.3,2.3-2.8,3.8-4.2c1.1-1.1,2.2-2,3.2-2.8
			c-0.7,0.7-1.5,1.4-2.2,2.2C7.7,3.8,6.1,5.4,4.6,7z M9.5,2.8c0.8-0.8,1.6-1.5,2.4-2c-0.4,0.5-0.9,1-1.4,1.6
			C9.4,3.5,8.2,4.7,7.1,5.7C7.7,4.8,8.5,3.8,9.5,2.8z M11.4,4.6c1.1-0.9,2.2-1.8,3.2-2.6c-0.7,0.7-1.4,1.4-2.2,2.1
			c-1.6,1.4-3.1,2.7-4.6,3.8C8.8,6.8,10,5.7,11.4,4.6z M13.1,4.7c-1.6,1.4-3.1,2.7-4.6,3.8c1.1-1.1,2.3-2.2,3.6-3.4
			c1.1-0.9,2.2-1.8,3.2-2.6C14.6,3.3,13.8,4,13.1,4.7z M18.8,3.2c-0.7,0.7-1.4,1.4-2.2,2.1C15,6.7,13.5,8,12,9.1
			c1.1-1.1,2.3-2.2,3.6-3.4C16.7,4.8,17.8,4,18.8,3.2z M9.3,10.9c1.4-1.7,3.1-3.5,5.1-5.3c0.9-0.8,1.8-1.5,2.6-2.2
			c-1,1-1.9,1.9-2.9,2.9C12.6,7.9,10.9,9.4,9.3,10.9z M9.7,12.5c1.6-1.5,3.2-3.1,5-4.7c1.4-1.3,2.8-2.4,4.2-3.5
			c-1.1,1.1-2.3,2.1-3.4,3.2C13.5,9.3,11.6,10.9,9.7,12.5z M10,13.6c1.1-1.3,2.5-2.7,4.1-4.1c1.4-1.2,2.7-2.2,4-3
			c-1.1,1-2.2,1.9-3.3,2.9C13.2,10.7,11.6,12.1,10,13.6z M18,7.8c-1.2,1.1-2.4,2.1-3.6,3c0.2-0.2,0.4-0.4,0.6-0.6
			c0.8-0.7,1.5-1.4,2.2-2.1c-0.1,0.1-0.2,0.1-0.3,0.2c-0.1,0-0.1,0.1-0.2,0.2c-1.3,1.1-2.4,2.2-3.5,3.3c-0.9,0.8-1.8,1.5-2.7,2.1
			c1.1-1.1,2.3-2.2,3.6-3.4c1-0.9,2-1.7,2.9-2.4c1-0.9,2.1-1.7,3-2.5C19.5,6.4,18.8,7.1,18,7.8z"/>
	</defs>
	<clipPath id="SVGID_2_">
		<use xlink:href="#SVGID_1_"  style="overflow:visible;"/>
	</clipPath>
	<path class="st0" d="M9.1,16H7v-1.6l0,0c-0.8-0.2-1.5-0.5-2.1-1.1l0,0l0,0c-0.6-0.5-1-1.2-1.3-2l0,0l2-0.7l0,0
		c0.3,0.6,0.6,1.1,1.1,1.4l0,0l0,0c0.4,0.4,1,0.5,1.5,0.5l0,0l0,0c0.6,0,1.1-0.2,1.4-0.5l0,0l0,0c0.4-0.3,0.5-0.7,0.5-1.3l0,0l0,0
		c0-0.3-0.1-0.5-0.2-0.8l0,0l0,0C9.8,9.7,9.6,9.5,9.4,9.3l0,0l0,0C9.1,9.1,8.8,9,8.6,8.9l0,0l0,0C8.4,8.8,8,8.6,7.6,8.5l0,0l0,0
		c-0.4-0.2-0.8-0.3-1-0.4l0,0l0,0C6.4,8,6.1,7.8,5.7,7.6l0,0l0,0C5.3,7.3,5,7.1,4.8,6.9l0,0l0,0C4.6,6.7,4.5,6.4,4.3,6l0,0l0,0
		C4.2,5.6,4.1,5.2,4.1,4.7l0,0l0,0c0-0.8,0.3-1.5,0.8-2.1l0,0l0,0C5.4,2,6.1,1.6,7,1.5l0,0V0h2.1v1.5l0,0c0.7,0.2,1.3,0.5,1.8,0.9
		l0,0l0,0c0.5,0.5,0.8,1,1,1.7l0,0l-2,0.7l0,0c-0.4-0.9-1-1.3-2-1.3l0,0l0,0C7.4,3.4,7,3.5,6.7,3.8l0,0l0,0C6.5,4,6.3,4.3,6.3,4.7
		l0,0l0,0c0,0.2,0,0.4,0.1,0.5l0,0l0,0c0.1,0.2,0.2,0.3,0.3,0.4l0,0l0,0C6.9,5.7,7,5.8,7.3,6l0,0l0,0c0.2,0.1,0.4,0.2,0.6,0.3l0,0
		l0,0C8,6.3,8.3,6.4,8.6,6.5l0,0l0,0C9,6.7,9.3,6.8,9.5,6.9l0,0l0,0C9.7,7,10,7.1,10.3,7.3l0,0l0,0c0.4,0.2,0.6,0.4,0.8,0.6l0,0l0,0
		c0.2,0.2,0.4,0.4,0.6,0.7l0,0l0,0c0.2,0.3,0.4,0.6,0.5,0.9l0,0l0,0c0.1,0.4,0.1,0.8,0.1,1.2l0,0l0,0c0,1-0.3,1.9-0.9,2.5l0,0l0,0
		c-0.6,0.7-1.4,1.1-2.3,1.2l0,0V16z"/>
</g>
</svg>
