<?xml version="1.0" encoding="utf-8"?>
<!-- Generator: Adobe Illustrator 23.0.0, SVG Export Plug-In . SVG Version: 6.00 Build 0)  -->
<svg version="1.1" id="Layer_1" xmlns="http://www.w3.org/2000/svg" xmlns:xlink="http://www.w3.org/1999/xlink" x="0px" y="0px"
	 viewBox="0 0 16 16" style="enable-background:new 0 0 16 16;" xml:space="preserve">
<style type="text/css">
	.st0{clip-path:url(#SVGID_2_);}
	.st1{fill-rule:evenodd;clip-rule:evenodd;fill:#F75049;}
	.st2{clip-path:url(#SVGID_2_);fill-rule:evenodd;clip-rule:evenodd;fill:#F75049;}
</style>
<g>
	<defs>
		<path id="SVGID_1_" d="M20.7,4.9c-0.1-0.1-0.3,0-0.6-0.2c-0.2-0.2-0.2-0.3-0.3-0.4c-0.4-0.2-1.3,0.5-1.3,0.5c0,0,0.4-0.3,0.7-0.7
			c0.2-0.2,0.6-0.7,0.5-1c-0.1-0.2-0.3-0.2-0.3-0.3c0-0.3,0.5-0.4,0.4-0.7c0-0.2-0.2-0.3-0.3-0.3c-0.3-0.1-0.8,0.2-0.8,0.2
			c0,0,0.3-0.2,0.4-0.5c0-0.1,0.2-0.3,0.1-0.5c-0.1-0.1-0.3-0.1-0.4-0.1c-0.1,0-0.2,0.1-0.2,0c0,0,0-0.1,0-0.2
			c0-0.2-0.3-0.3-0.6-0.3c-0.5,0-0.9,0.5-1,0.4c-0.1-0.1,0.5-0.5,0.4-0.9c0-0.1-0.2-0.3-0.4-0.3c-0.3,0-0.4,0.3-0.5,0.3
			c-0.1-0.1,0.1-0.7-0.1-0.9c-0.1-0.1-0.3,0.1-0.6,0c-0.2-0.1-0.2-0.1-0.3-0.2c-0.3-0.1-0.8,0.4-1.3,0.9c-0.2,0.2-0.6,0.5-1.1,0.8
			c0.3-0.3,0.5-0.6,0.7-0.7c0.4-0.4,0.6-0.6,0.6-0.9c0-0.1,0-0.4-0.2-0.4c-0.2-0.1-0.4,0.2-1.1,0.6c-0.2,0.1-0.3,0.2-0.4,0.3
			c0,0,0.3-0.4,0.2-0.7c0,0-0.1-0.2-0.2-0.3c-0.4-0.3-1.1-0.2-1.2-0.2C10.8-1.6,10.6-1,9.5-0.4c0,0-0.1,0.1-0.3,0.2
			C8.8-0.1,8.6,0,8.5,0.1C8.2,0.3,8,0.4,7.9,0.7C7.8,0.9,7.9,1.1,7.7,1.3C7.6,1.4,7.4,1.5,7.3,1.5C6.8,1.6,6,2.7,5.9,2.8
			C5.5,3.3,4.2,4.7,0.7,7.9c4.7-5,6.2-6.6,6.2-6.7c0,0,0,0,0,0c0-0.1,0.2-0.4,0-0.6c-0.1-0.1-0.2,0-0.3-0.1c0,0,0-0.1,0-0.1
			C6.7,0.1,7.1,0,7.1,0c0,0-0.1-0.1-0.2-0.1C6.6-0.3,6.6-0.3,6.4-0.4C6.2-0.4,6-0.3,5.8-0.2C5.6-0.1,5.5,0,5.4,0c0,0,0-0.2,0-0.3
			C5.3-0.4,5.1-0.4,5.1-0.4c-0.3,0-0.5,0.3-0.6,0.2c-0.1,0,0-0.2-0.1-0.3C4.3-0.6,4.2-0.5,4-0.6C3.8-0.8,3.9-0.9,3.7-1.2
			C3.6-1.3,3.5-1.4,3.3-1.5C3.1-1.6,3-1.5,2.8-1.6C2.5-1.7,2.5-1.8,2.3-1.8c-0.2,0-0.3,0-0.4,0.1C1.6-1.6,1.6-1.5,1.4-1.5
			c-0.2,0-0.2-0.2-0.5-0.2c-0.1,0-0.2,0-0.3,0c-0.1,0.1,0,0.4-0.1,0.5c-0.1,0.1-0.2,0.1-0.3,0C0.2-1.2,0.2-1.3,0.1-1.4
			C-0.1-1.6-1-1.3-1.3-0.8c0,0.1-0.1,0.2-0.2,0.3c-0.2,0.1-0.3,0-0.5,0c-0.3,0-0.5,0.2-1.1,1c0,0-0.1,0.1-0.6,0.6
			c-0.9,1-1,1.1-1.1,1.4c0,0.5,0,0.7,0,0.7c0,0.1,0.1,0.3,0,0.4c-0.1,0.1-0.1,0-0.2,0.1c-0.1,0.1,0.1,0.4,0,0.8c0,0,0,0,0,0.3
			c-0.1,0.5-0.1,0.6,0,0.7c0.1,0.1,0.2,0.1,0.3,0.1c0.2,0,0.3-0.1,0.4-0.1C-3.8,5-3.5,4.5-3.1,4.1c-0.2,0.3-0.3,0.6-0.4,0.7
			C-3.7,5-3.8,5.2-4,5.5c0,0.1-0.1,0.2-0.2,0.4c-0.1,0.2-0.2,0.5-0.1,0.8c0,0.1,0.1,0.2,0.1,0.3c0,0.2,0,0.3,0,0.4
			C-4,7.4-4,7.4-3.9,7.5c0.1,0.1,0,0.3,0,0.6c0,0.2,0.1,0.1,0.1,0.3c0.1,0.3-0.1,0.4,0,0.7c0,0.1,0,0.2,0.1,0.3
			c0.1,0.1,0.4-0.1,0.6,0C-2.9,9.4-3,9.7-2.8,9.7c0.1,0,0.2-0.1,0.4,0c0,0,0.3,0,0.3,0.1c0,0.1-0.1,0.3-0.3,0.4
			c-0.4,0.2-0.8-0.1-0.9,0c0,0.1,0.1,0.2,0.2,0.3c1,0.9,1,1,1.3,1.2c0.3,0.2,0.3,0.1,0.7,0.3c0.5,0.3,1.1,0.6,1.1,1
			c0,0.2-0.2,0.3-0.1,0.6c0,0.2,0.1,0.5,0.3,0.6c0.2,0.1,0.3-0.1,0.6-0.1c0.3,0,0.3,0.2,0.6,0.3c0.4,0,0.5-0.4,0.8-0.4
			c0.2,0,0.2,0.2,0.4,0.3c0.2,0.1,0.4,0,0.5,0c1-1.1,2.6-2.7,4.6-4.8c1.6-1.7,2.1-2.2,3-3.1c2.6-2.5,5.4-4.5,5.5-4.3
			c0.1,0.1-1.2,1.3-5.5,5.4c-3,2.8-5.4,5.2-7.1,6.8c0,0.3,0.1,0.5,0.2,0.5c0.2,0.1,0.5-0.2,0.8,0C4.8,14.8,4.9,15,5,15.2
			c0,0.2,0,0.3,0.1,0.4c0.1,0.1,0.1,0,0.2,0.1c0.2,0.2,0.1,0.3,0.3,0.5c0.2,0.1,0.4,0,0.4,0.2c0,0.1,0,0.1,0,0.3
			c0,0.1,0.2,0.1,0.2,0.3c0,0.2-0.3,0.3-0.3,0.6c0,0.2,0.1,0.2,0.1,0.5c0,0.5-0.6,0.6-0.5,0.9c0,0.2,0.2,0.4,0.4,0.5
			c0.3,0,0.5-0.4,0.8-0.4c0.4,0,0.6,0.6,0.9,0.5c0.3,0,0.3-0.4,0.6-0.4c0.2,0,0.3,0.1,0.4,0c0.1-0.1,0.1-0.2,0.3-0.3
			c0.1,0,0.1,0,0.2,0c0.2,0,0.6-0.4,0.7-0.8c0.1-0.4,0-0.5,0.2-0.8c0.1-0.2,0.3-0.3,0.4-0.4c0.5-0.4,1.2-1,1.8-1.6
			c0.8-0.8,0.9-1.1,1.5-1.4c0.1,0,0.3-0.1,0.5-0.3c0.3-0.3,0.4-0.6,0.6-0.8c0.4-0.8,0.8-0.8,1.7-2c0-0.1,0.2-0.3,0.2-0.4
			c-0.1-0.1-1.2,1.1-1.4,1c-0.1-0.1-0.1-0.2-0.1-0.2c0.1-0.6,0.8-0.8,1.9-1.7C17.1,9.2,17,9.2,17.3,9c0.8-0.7,1.7-1.3,2-1.7
			c0.1-0.3,0.2-0.6,0.2-0.6c0-0.1,0-0.1,0.1-0.2c0.1-0.3,0.2-0.4,0.7-0.9C20.7,5.1,20.7,5,20.7,4.9z M3.7,4.1C3.4,4.5,3.1,4.8,2.8,5
			C3,4.7,3.2,4.3,3.6,4C3.7,3.9,3.9,3.8,4,3.7C3.9,3.8,3.9,4,3.7,4.1z M3.5,2.9c0.5-0.5,1-1,1.4-1.4C4.6,2,4.2,2.5,3.7,3
			C3.3,3.3,3,3.6,2.7,3.8C3,3.5,3.2,3.2,3.5,2.9z M-2,2.8C-2,2.7-1.8,2.4-1.6,2.2C-1.5,2.1-1.4,2.1-1.4,2c0,0.1-0.1,0.2-0.2,0.3
			C-1.7,2.5-1.9,2.7-2,2.8z M-1.2,11c-0.1,0.1-0.2,0.2-0.3,0.2c0,0,0-0.2,0.1-0.3c0.1-0.1,0.3-0.2,0.3-0.2
			C-1.1,10.7-1.1,10.9-1.2,11z M-1.5,6.3c0.3-0.4,0.7-0.8,1-1.2c0,0.1,0,0.2,0,0.3C-0.8,5.7-1.2,6-1.5,6.3z M0.2,12.4
			c0,0-0.2-0.2-0.5-0.6c-0.1-0.1-0.2-0.2-0.2-0.3c0-0.1,0.1-0.1,0.2-0.2c0.1-0.1,0.3-0.2,0.4-0.5c0,0.2-0.1,0.3-0.1,0.4
			C0,11.4,0,11.5,0,11.5c0,0.1,0.1,0,0.1,0.1c0.1,0.1,0,0.2,0,0.3C0.1,12.2,0.3,12.3,0.2,12.4z M0.1,1.1c0.1-0.2,0.2-0.4,0.4-0.6
			c0.1-0.1,0.2-0.2,0.2-0.2c0,0.1-0.1,0.2-0.2,0.3C0.5,0.7,0.3,0.9,0.1,1.1z M2.9,7.7c1-1.3,2.3-2.8,3.8-4.2c1.1-1.1,2.2-2,3.2-2.8
			C9.2,1.3,8.4,2.1,7.7,2.8C6,4.4,4.4,6.1,2.9,7.7z M7.8,3.4c0.8-0.8,1.6-1.5,2.4-2C9.8,1.9,9.3,2.4,8.8,3C7.7,4.2,6.6,5.3,5.4,6.3
			C6,5.5,6.8,4.5,7.8,3.4z M9.7,5.2c1.1-0.9,2.2-1.8,3.2-2.6c-0.7,0.7-1.4,1.4-2.2,2.1C9.1,6.2,7.5,7.5,6.1,8.6
			C7.2,7.5,8.4,6.4,9.7,5.2z M11.4,5.3C9.8,6.8,8.3,8.1,6.8,9.2C7.9,8.1,9.1,7,10.4,5.8c1.1-0.9,2.2-1.8,3.2-2.6
			C12.9,3.9,12.2,4.6,11.4,5.3z M17.1,3.8c-0.7,0.7-1.4,1.4-2.2,2.1c-1.6,1.4-3.1,2.7-4.6,3.8c1.1-1.1,2.3-2.2,3.6-3.4
			C15,5.5,16.1,4.6,17.1,3.8z M7.6,11.6c1.4-1.7,3.1-3.5,5.1-5.3c0.9-0.8,1.8-1.5,2.6-2.2c-1,1-1.9,1.9-2.9,2.9
			C10.9,8.5,9.3,10,7.6,11.6z M8,13.2c1.6-1.5,3.2-3.1,5-4.7c1.4-1.3,2.8-2.4,4.2-3.5C16.1,6,15,7.1,13.8,8.1
			C11.9,9.9,9.9,11.6,8,13.2z M8.3,14.2c1.1-1.3,2.5-2.7,4.1-4.1c1.4-1.2,2.7-2.2,4-3c-1.1,1-2.2,1.9-3.3,2.9
			C11.5,11.4,9.9,12.8,8.3,14.2z M16.3,8.5c-1.2,1.1-2.4,2.1-3.6,3c0.2-0.2,0.4-0.4,0.6-0.6c0.8-0.7,1.5-1.4,2.2-2.1
			c-0.1,0.1-0.2,0.1-0.3,0.2c-0.1,0-0.1,0.1-0.2,0.2c-1.3,1.1-2.4,2.2-3.5,3.3c-0.9,0.8-1.8,1.5-2.7,2.1c1.1-1.1,2.3-2.2,3.6-3.4
			c1-0.9,2-1.7,2.9-2.4c1-0.9,2.1-1.7,3-2.5C17.9,7.1,17.1,7.8,16.3,8.5z"/>
	</defs>
	<clipPath id="SVGID_2_">
		<use xlink:href="#SVGID_1_"  style="overflow:visible;"/>
	</clipPath>
	<g class="st0">
		<path class="st1" d="M7.2,3.1C7.2,3,7.2,3,7.2,3.1C7.1,3,7,3,7,2.9C6.9,2.9,6.7,2.8,6.5,2.8c-0.1,0-0.3-0.1-0.5-0.1
			c0,0-0.1,0-0.2,0c-0.2,0-0.5,0.1-0.7,0.2C5.1,2.9,5,3,5,3.1c0,0.2,0,0.5,0.1,0.8C5.3,4.2,5.6,4.5,6,4.6c0.3,0,0.5-0.1,0.6-0.2
			C6.8,4.3,6.9,4.1,7,4c0.1-0.3,0.2-0.5,0.2-0.6c0,0,0,0,0,0v0C7.3,3.2,7.3,3.2,7.2,3.1C7.2,3.1,7.2,3.1,7.2,3.1z"/>
		<path class="st1" d="M6.6,3.7C6.5,3.9,6.4,4,6.3,4C6.3,4.1,6.2,4.2,6.1,4.1c-0.2,0-0.3-0.2-0.4-0.4C5.6,3.5,5.6,3.4,5.5,3.3
			c0.2-0.1,0.4-0.1,0.6-0.1c0.1,0,0.2,0,0.3,0c0.1,0,0.2,0.1,0.3,0.1C6.7,3.4,6.7,3.5,6.6,3.7z"/>
	</g>
	<path class="st2" d="M10.7,2.9c-0.3-0.1-0.5-0.2-0.7-0.2H9.8c-0.2,0-0.3,0-0.5,0.1C9.1,2.8,9,2.9,8.8,2.9C8.8,3,8.8,3,8.7,3
		c0,0,0,0-0.1,0.1c0,0,0,0,0,0.1c0,0,0,0.1,0,0.1c0,0,0,0,0,0c0,0,0,0,0,0.1c0,0.1,0.1,0.4,0.2,0.6C8.9,4.1,9,4.3,9.2,4.4
		c0.2,0.1,0.4,0.2,0.6,0.2c0.4-0.1,0.7-0.4,0.8-0.7c0.1-0.3,0.1-0.6,0.1-0.8C10.8,3,10.7,2.9,10.7,2.9z"/>
	<path class="st2" d="M10.2,3.7C10.1,3.9,10,4.1,9.8,4.1c-0.1,0-0.2,0-0.3-0.1S9.3,3.9,9.3,3.7C9.1,3.5,9.1,3.4,9.1,3.3
		c0.1,0,0.2-0.1,0.3-0.1c0.1,0,0.2,0,0.3,0c0.2,0,0.4,0,0.6,0.1C10.3,3.4,10.3,3.5,10.2,3.7z"/>
	<path class="st2" d="M15.1,0.6c0,0-0.5-0.1-1.1-0.1c-0.6,0-1.3,0.2-2,0.7c-0.1-0.2-0.3-0.3-0.5-0.4c-0.3-0.2-0.6-0.3-0.9-0.3
		c-0.5,0-0.9,0.1-1.3,0.2C9,0.8,8.6,0.9,7.9,0.9c-0.7,0-1.1-0.1-1.5-0.2C6,0.6,5.7,0.5,5.2,0.5c-0.3,0-0.6,0.1-0.9,0.3
		C4.1,0.9,3.9,1,3.8,1.2c-0.7-0.5-1.4-0.6-2-0.7c-0.7,0-1.1,0.1-1.1,0.1L0.5,0.7l0.1,0.2c0,0,0.2,0.8,0.7,1.5c0.2,0.4,0.5,0.7,0.9,1
		c0.3,0.2,0.8,0.4,1.2,0.3c0,0.4,0.1,0.7,0.1,1C3.7,5.5,3.9,6.1,4,6.4c-0.1,0.3-0.3,0.7-0.4,1c-0.5,1.3-0.9,2.8-0.7,3.8
		c0.2,0.9,0.5,1.6,1.1,2.2c-0.1,0.5-0.1,0.8,0,1.2c0.1,0.3,0.4,0.6,0.8,0.7c0.7,0.3,1.8,0.1,3.1-0.3c1.4,0.4,2.4,0.6,3.1,0.3
		c0.4-0.1,0.6-0.4,0.8-0.7c0.1-0.3,0.1-0.7,0-1.2c0.6-0.5,1-1.3,1.1-2.2c0.2-1-0.2-2.5-0.7-3.8c-0.1-0.4-0.3-0.7-0.4-1
		c0.1-0.3,0.3-1,0.4-1.7c0.1-0.3,0.1-0.7,0.2-1c0.5,0.1,0.9-0.1,1.2-0.3c0.4-0.3,0.7-0.6,0.9-1c0.5-0.7,0.7-1.5,0.7-1.5l0.1-0.2
		L15.1,0.6z M3.3,3.2C3,3.3,2.7,3.2,2.4,3C2.1,2.8,1.9,2.4,1.7,2.1C1.3,1.6,1.2,1.2,1.1,1C1.3,1,1.5,1,1.8,1c0.5,0,1.1,0.1,1.7,0.6
		C3.4,2,3.3,2.6,3.3,3.2z M11.4,14.5c-0.1,0.2-0.2,0.4-0.5,0.5C10.3,15.1,9.3,15,8,14.6l-0.1,0l-0.1,0C6.5,15,5.5,15.1,5,14.9
		c-0.3-0.1-0.4-0.2-0.5-0.5c-0.1-0.2-0.1-0.4,0-0.7c0.2,0.1,0.4,0.3,0.7,0.3c0.2,0.1,0.5,0.1,0.8,0.1c0.3,0,0.6-0.1,0.9-0.2
		c0.5-0.1,0.9-0.3,1-0.3c0.1,0,0.5,0.2,1,0.3c0.3,0.1,0.6,0.2,0.9,0.2c0.3,0,0.6,0,0.8-0.1c0.3-0.1,0.5-0.2,0.7-0.3
		C11.5,14.1,11.4,14.3,11.4,14.5z M11.8,4.6c-0.1,0.4-0.2,0.8-0.3,1.1c-0.2-0.4-0.3-0.6-0.3-0.6C11.3,5,11.2,5,11.1,5
		c-0.1,0-0.2,0.1-0.2,0.2c0,0,0,0.1,0,0.1c0,0,0.2,0.5,0.5,1.1c0,0,0,0.1,0,0.1l0.1,0c0.1,0.3,0.3,0.7,0.4,1.1
		c0.4,1.3,0.8,2.8,0.6,3.6c-0.2,1.2-0.8,2-1.9,2.5c-0.1,0-0.4,0.1-0.6,0c-0.3,0-0.6-0.1-0.9-0.2c-0.5-0.1-0.8-0.3-0.9-0.3v-2.9
		c0.1-0.1,0.6-0.3,1.2-0.9c0,0.1,0.1,0.2,0.3,0.2c0.1,0,0.2-0.1,0.3-0.2C9.9,9.3,10,9.3,10,9.1c0.1-0.2,0.2-0.5,0.2-0.7
		c0.1-0.5,0.2-1,0.2-1l0,0c0-0.1-0.1-0.2-0.2-0.3c-0.1,0-0.2,0.1-0.3,0.2c-0.3,1.9-1.7,2.6-2,2.7C7.6,9.9,6.3,9.2,6,7.3
		c0-0.1-0.1-0.2-0.3-0.2c-0.1,0-0.2,0.1-0.2,0.3c0,0,0,0,0,0s0,0.5,0.1,1c0,0.3,0.1,0.5,0.2,0.7c0,0.1,0.1,0.2,0.1,0.3
		C6,9.5,6.1,9.6,6.3,9.6c0.1,0,0.2,0,0.3-0.1c0.6,0.6,1,0.9,1.2,0.9v2.9c-0.1,0-0.4,0.1-0.9,0.3c-0.3,0.1-0.6,0.1-0.9,0.2
		c-0.3,0-0.5,0-0.6,0c-1.2-0.5-1.7-1.2-1.9-2.5C3.2,10.4,3.6,8.9,4,7.6c0.1-0.4,0.3-0.8,0.4-1.1l0.1,0c0,0,0-0.1,0-0.1
		c0.3-0.7,0.5-1.1,0.5-1.1C5,5.2,4.9,5.1,4.8,5c0,0-0.1,0-0.1,0C4.6,5,4.6,5,4.5,5.1c0,0-0.1,0.2-0.3,0.6C4.2,5.4,4.1,5,4,4.6
		c-0.2-1-0.3-2.3,0-2.9c0.1-0.2,0.3-0.4,0.5-0.5C4.8,1,5,1,5.2,1C5.6,1,5.9,1,6.3,1.1c0.4,0.1,0.9,0.2,1.6,0.2
		c0.7,0,1.2-0.1,1.6-0.2C9.9,1,10.2,1,10.7,1c0.2,0,0.4,0.1,0.7,0.2c0.2,0.1,0.4,0.3,0.5,0.5C12.1,2.3,12,3.6,11.8,4.6z M14.2,2.1
		C14,2.4,13.7,2.8,13.4,3c-0.3,0.2-0.6,0.3-0.9,0.3c0-0.6,0-1.2-0.2-1.6C12.9,1.1,13.5,1,14,1c0.3,0,0.6,0,0.7,0.1
		C14.6,1.2,14.5,1.6,14.2,2.1z"/>
	<g class="st0">
		<path class="st1" d="M7.2,3.1C7.2,3,7.2,3,7.2,3.1C7.1,3,7,3,7,2.9C6.9,2.9,6.7,2.8,6.5,2.8c-0.1,0-0.3-0.1-0.5-0.1
			c0,0-0.1,0-0.2,0c-0.2,0-0.5,0.1-0.7,0.2C5.1,2.9,5,3,5,3.1c0,0.2,0,0.5,0.1,0.8C5.3,4.2,5.6,4.5,6,4.6c0.3,0,0.5-0.1,0.6-0.2
			C6.8,4.3,6.9,4.1,7,4c0.1-0.3,0.2-0.5,0.2-0.6c0,0,0,0,0,0v0C7.3,3.2,7.3,3.2,7.2,3.1C7.2,3.1,7.2,3.1,7.2,3.1z"/>
		<path class="st1" d="M6.6,3.7C6.5,3.9,6.4,4,6.3,4C6.3,4.1,6.2,4.2,6.1,4.1c-0.2,0-0.3-0.2-0.4-0.4C5.6,3.5,5.6,3.4,5.5,3.3
			c0.2-0.1,0.4-0.1,0.6-0.1c0.1,0,0.2,0,0.3,0c0.1,0,0.2,0.1,0.3,0.1C6.7,3.4,6.7,3.5,6.6,3.7z"/>
	</g>
	<path class="st2" d="M10.7,2.9c-0.3-0.1-0.5-0.2-0.7-0.2H9.8c-0.2,0-0.3,0-0.5,0.1C9.1,2.8,9,2.9,8.8,2.9C8.8,3,8.8,3,8.7,3
		c0,0,0,0-0.1,0.1c0,0,0,0,0,0.1c0,0,0,0.1,0,0.1c0,0,0,0,0,0c0,0,0,0,0,0.1c0,0.1,0.1,0.4,0.2,0.6C8.9,4.1,9,4.3,9.2,4.4
		c0.2,0.1,0.4,0.2,0.6,0.2c0.4-0.1,0.7-0.4,0.8-0.7c0.1-0.3,0.1-0.6,0.1-0.8C10.8,3,10.7,2.9,10.7,2.9z"/>
	<path class="st2" d="M10.2,3.7C10.1,3.9,10,4.1,9.8,4.1c-0.1,0-0.2,0-0.3-0.1S9.3,3.9,9.3,3.7C9.1,3.5,9.1,3.4,9.1,3.3
		c0.1,0,0.2-0.1,0.3-0.1c0.1,0,0.2,0,0.3,0c0.2,0,0.4,0,0.6,0.1C10.3,3.4,10.3,3.5,10.2,3.7z"/>
	<g class="st0">
		<path class="st1" d="M7.2,3.1C7.2,3,7.2,3,7.2,3.1C7.1,3,7,3,7,2.9C6.9,2.9,6.7,2.8,6.5,2.8c-0.1,0-0.3-0.1-0.5-0.1
			c0,0-0.1,0-0.2,0c-0.2,0-0.5,0.1-0.7,0.2C5.1,2.9,5,3,5,3.1c0,0.2,0,0.5,0.1,0.8C5.3,4.2,5.6,4.5,6,4.6c0.3,0,0.5-0.1,0.6-0.2
			C6.8,4.3,6.9,4.1,7,4c0.1-0.3,0.2-0.5,0.2-0.6c0,0,0,0,0,0v0C7.3,3.2,7.3,3.2,7.2,3.1C7.2,3.1,7.2,3.1,7.2,3.1z"/>
		<path class="st1" d="M6.6,3.7C6.5,3.9,6.4,4,6.3,4C6.3,4.1,6.2,4.2,6.1,4.1c-0.2,0-0.3-0.2-0.4-0.4C5.6,3.5,5.6,3.4,5.5,3.3
			c0.2-0.1,0.4-0.1,0.6-0.1c0.1,0,0.2,0,0.3,0c0.1,0,0.2,0.1,0.3,0.1C6.7,3.4,6.7,3.5,6.6,3.7z"/>
	</g>
	<path class="st2" d="M10.7,2.9c-0.3-0.1-0.5-0.2-0.7-0.2H9.8c-0.2,0-0.3,0-0.5,0.1C9.1,2.8,9,2.9,8.8,2.9C8.8,3,8.8,3,8.7,3
		c0,0,0,0-0.1,0.1c0,0,0,0,0,0.1c0,0,0,0.1,0,0.1c0,0,0,0,0,0c0,0,0,0,0,0.1c0,0.1,0.1,0.4,0.2,0.6C8.9,4.1,9,4.3,9.2,4.4
		c0.2,0.1,0.4,0.2,0.6,0.2c0.4-0.1,0.7-0.4,0.8-0.7c0.1-0.3,0.1-0.6,0.1-0.8C10.8,3,10.7,2.9,10.7,2.9z"/>
	<path class="st2" d="M10.2,3.7C10.1,3.9,10,4.1,9.8,4.1c-0.1,0-0.2,0-0.3-0.1S9.3,3.9,9.3,3.7C9.1,3.5,9.1,3.4,9.1,3.3
		c0.1,0,0.2-0.1,0.3-0.1c0.1,0,0.2,0,0.3,0c0.2,0,0.4,0,0.6,0.1C10.3,3.4,10.3,3.5,10.2,3.7z"/>
</g>
</svg>
