<?xml version="1.0" encoding="utf-8"?>
<!-- Generator: Adobe Illustrator 23.0.0, SVG Export Plug-In . SVG Version: 6.00 Build 0)  -->
<svg version="1.1" id="Layer_1" xmlns="http://www.w3.org/2000/svg" xmlns:xlink="http://www.w3.org/1999/xlink" x="0px" y="0px"
	 viewBox="0 0 16 16" style="enable-background:new 0 0 16 16;" xml:space="preserve">
<style type="text/css">
	.st0{clip-path:url(#SVGID_2_);fill:#F75049;}
</style>
<g>
	<defs>
		<path id="SVGID_1_" d="M24,4.2c-0.1-0.2-0.4,0-0.7-0.3c-0.3-0.2-0.2-0.4-0.4-0.5C22.5,3.1,21.4,4,21.4,4c0,0,0.4-0.3,0.9-0.8
			C22.5,2.9,23,2.4,22.8,2c-0.1-0.2-0.3-0.2-0.4-0.4C22.4,1.3,23,1.1,23,0.7c0-0.2-0.2-0.4-0.4-0.4c-0.4-0.2-0.9,0.3-1,0.2
			c0,0,0.3-0.2,0.5-0.6c0-0.1,0.2-0.4,0.1-0.6c-0.1-0.1-0.3-0.1-0.5-0.1c-0.1,0-0.2,0.1-0.3,0.1c0,0,0-0.1,0-0.2
			c0-0.2-0.4-0.3-0.7-0.4c-0.6-0.1-1.1,0.6-1.2,0.5c-0.1-0.1,0.6-0.6,0.4-1.1c-0.1-0.2-0.3-0.3-0.4-0.3c-0.3,0-0.5,0.4-0.6,0.3
			c-0.2-0.1,0.1-0.9-0.1-1c-0.2-0.1-0.4,0.1-0.7,0C18-2.9,18-3,17.9-3c-0.4-0.1-0.9,0.5-1.6,1.1c-0.3,0.3-0.7,0.6-1.4,1
			c0.3-0.4,0.6-0.7,0.8-0.9c0.5-0.5,0.7-0.7,0.8-1.1c0-0.2,0-0.4-0.2-0.5c-0.2-0.1-0.5,0.2-1.3,0.7c-0.2,0.1-0.4,0.3-0.5,0.3
			c0,0,0.4-0.4,0.2-0.8c0,0-0.1-0.2-0.2-0.3C14-4,13.2-3.8,13.1-3.8c-1,0.3-1.3,1-2.6,1.6c0,0-0.2,0.1-0.4,0.2
			C9.7-1.7,9.4-1.6,9.3-1.5C9-1.3,8.8-1.1,8.6-0.8C8.5-0.5,8.6-0.3,8.4-0.1C8.2,0.1,8,0.1,7.9,0.1C7.2,0.3,6.4,1.6,6.3,1.7
			C5.8,2.4,4.2,4,0,7.8c5.7-6,7.4-7.9,7.5-8.1c0,0,0,0,0,0c0-0.1,0.2-0.5,0-0.7C7.4-1,7.3-1,7.2-1.1c0,0-0.1-0.1,0-0.2
			c0-0.2,0.5-0.3,0.5-0.4c0,0-0.1-0.1-0.2-0.1C7.1-1.9,7.1-2,6.9-2.1C6.6-2.2,6.3-2,6.1-1.9C5.8-1.7,5.7-1.6,5.6-1.6
			c-0.1,0,0.1-0.2,0-0.3C5.5-2.1,5.3-2.1,5.2-2.1C4.8-2,4.6-1.7,4.5-1.8C4.4-1.9,4.5-2,4.4-2.2C4.3-2.3,4.1-2.3,4-2.4
			C3.7-2.6,3.8-2.7,3.6-3C3.5-3.2,3.4-3.3,3.1-3.4c-0.3-0.1-0.3,0-0.6-0.1C2.2-3.6,2.2-3.8,1.9-3.8c-0.2,0-0.3,0-0.5,0.1
			C1.1-3.6,1.1-3.4,0.9-3.4c-0.2,0-0.3-0.2-0.6-0.3c-0.1,0-0.3,0-0.3,0c-0.1,0.1,0,0.4-0.1,0.6C-0.3-3-0.5-3-0.5-3.1
			c-0.1-0.1-0.1-0.2-0.2-0.2c-0.2-0.2-1.4,0.1-1.7,0.8c-0.1,0.1-0.1,0.3-0.3,0.4c-0.2,0.1-0.3,0-0.6,0c-0.3,0-0.6,0.3-1.3,1.2
			c0,0-0.2,0.2-0.7,0.8c-1,1.2-1.3,1.3-1.3,1.7c0,0.6,0.1,0.9,0.1,0.9c0,0.1,0.1,0.3,0,0.4c-0.1,0.1-0.1,0-0.2,0.1
			c-0.1,0.2,0.1,0.4,0,0.9c0,0,0,0-0.1,0.3c-0.1,0.6-0.1,0.8,0,0.9C-6.6,5-6.4,5-6.3,5C-6.1,5-6,4.9-5.9,4.9C-5.5,4.3-5,3.8-4.5,3.2
			c-0.2,0.4-0.4,0.7-0.5,0.9C-5.3,4.4-5.4,4.6-5.6,5c-0.1,0.1-0.1,0.2-0.2,0.4C-5.9,5.7-6.1,6-5.9,6.3c0.1,0.1,0.1,0.2,0.2,0.4
			c0,0.2-0.1,0.3,0,0.5c0.1,0.1,0.1,0.1,0.2,0.2c0.1,0.2,0,0.4,0,0.7c0,0.2,0.1,0.1,0.1,0.3c0.1,0.3-0.1,0.5,0,0.9
			c0,0.2,0,0.3,0.1,0.3c0.2,0.2,0.4-0.1,0.7,0.1C-4.4,9.7-4.4,10-4.2,10c0.1,0,0.2-0.1,0.5,0c0,0,0.4,0,0.4,0.2
			c0,0.1-0.1,0.3-0.3,0.4c-0.4,0.2-1-0.1-1,0c0,0.1,0.1,0.3,0.3,0.4c1.2,1.1,1.2,1.2,1.6,1.4c0.4,0.2,0.3,0.1,0.8,0.4
			c0.6,0.4,1.3,0.7,1.3,1.2c0,0.3-0.2,0.3-0.2,0.7c0,0.3,0.1,0.7,0.4,0.8c0.2,0.1,0.4-0.1,0.7-0.1c0.4,0,0.4,0.3,0.7,0.3
			c0.4,0,0.6-0.5,1-0.4c0.2,0,0.2,0.2,0.5,0.3c0.2,0.1,0.5,0,0.6,0c1.3-1.3,3.2-3.3,5.5-5.7c2-2.1,2.5-2.7,3.6-3.7
			c3.2-3,6.5-5.3,6.6-5.2c0.1,0.1-1.4,1.5-6.6,6.4c-3.6,3.4-6.5,6.2-8.5,8.1c0,0.4,0.1,0.5,0.2,0.6c0.3,0.2,0.6-0.2,0.9,0
			c0.1,0.1,0.3,0.3,0.4,0.5c0.1,0.2,0,0.3,0.1,0.5c0.1,0.1,0.1,0,0.2,0.1c0.2,0.2,0.1,0.4,0.3,0.6C6,18,6.3,17.8,6.3,18
			c0,0.1-0.1,0.2,0,0.3c0,0.2,0.2,0.2,0.2,0.3c0.1,0.2-0.3,0.3-0.4,0.7c-0.1,0.3,0.1,0.3,0.1,0.6c0,0.6-0.7,0.7-0.7,1.1
			c0,0.3,0.3,0.5,0.5,0.6c0.4,0.1,0.6-0.5,1-0.5c0.5,0,0.7,0.7,1.1,0.6c0.3,0,0.4-0.4,0.7-0.4c0.2,0,0.4,0.1,0.5,0
			C9.6,21.2,9.5,21,9.7,21c0.1,0,0.1,0,0.2,0c0.3,0,0.7-0.5,0.8-1c0.1-0.4,0-0.6,0.2-0.9c0.1-0.3,0.3-0.4,0.4-0.5
			c0.7-0.5,1.4-1.2,2.2-1.9c1-0.9,1.1-1.3,1.8-1.7c0.1,0,0.3-0.2,0.6-0.4c0.4-0.3,0.5-0.7,0.7-1c0.5-0.9,1-1,2-2.4
			c0-0.1,0.3-0.4,0.2-0.4c-0.1-0.1-1.4,1.4-1.7,1.2C17,12,17,11.8,17,11.7c0.1-0.7,1-0.9,2.3-2c0.3-0.3,0.2-0.2,0.6-0.6
			c1-0.9,2.1-1.5,2.3-2.1c0.2-0.3,0.3-0.7,0.3-0.7c0-0.1,0-0.2,0.1-0.2c0.1-0.3,0.3-0.4,0.8-1C23.9,4.5,24,4.3,24,4.2z M3.6,3.3
			c-0.4,0.5-0.8,0.8-1.1,1C2.7,4,3,3.6,3.5,3.2C3.6,3.1,3.8,2.9,4,2.8C3.9,3,3.8,3.1,3.6,3.3z M3.4,1.8C3.9,1.2,4.5,0.6,5,0.2
			C4.6,0.7,4.1,1.3,3.5,1.9C3.1,2.3,2.8,2.7,2.4,3C2.7,2.6,3,2.2,3.4,1.8z M-3.3,1.8C-3.2,1.6-3,1.3-2.8,1c0.1-0.1,0.2-0.2,0.3-0.3
			C-2.6,0.9-2.6,1-2.7,1.1C-2.9,1.4-3.1,1.6-3.3,1.8z M-2.3,11.6c-0.1,0.1-0.3,0.2-0.3,0.2c0-0.1,0-0.2,0.1-0.4
			c0.1-0.2,0.3-0.2,0.4-0.2C-2.1,11.3-2.2,11.4-2.3,11.6z M-2.7,6c0.4-0.5,0.8-1,1.2-1.4c0,0.1,0,0.2,0,0.4C-1.9,5.3-2.3,5.6-2.7,6z
			 M-0.6,13.2c-0.1,0-0.2-0.2-0.6-0.7c-0.1-0.1-0.2-0.2-0.2-0.3c0-0.1,0.1-0.1,0.3-0.2c0.1-0.1,0.3-0.2,0.5-0.5
			c0,0.2-0.1,0.4-0.1,0.5c-0.1,0.1-0.1,0.2-0.1,0.3c0,0.1,0.1,0,0.2,0.1c0.1,0.1,0,0.2,0,0.3C-0.8,13-0.6,13.2-0.6,13.2z M-0.7-0.4
			c0.1-0.2,0.3-0.5,0.5-0.8C-0.1-1.2,0-1.3,0.1-1.4C0-1.3,0-1.2-0.1-1C-0.3-0.7-0.5-0.5-0.7-0.4z M2.7,7.6C3.9,6,5.4,4.2,7.2,2.5
			C8.5,1.2,9.8,0.1,11-0.9C10.2,0,9.3,0.8,8.4,1.7C6.4,3.7,4.5,5.6,2.7,7.6z M8.6,2.5c1-1,2-1.8,2.8-2.4c-0.5,0.6-1.1,1.2-1.6,1.9
			C8.4,3.4,7,4.8,5.7,6C6.4,4.9,7.3,3.7,8.6,2.5z M10.7,4.6c1.3-1.1,2.6-2.2,3.9-3.1c-0.8,0.8-1.7,1.7-2.7,2.6
			C10,5.8,8.2,7.3,6.4,8.7C7.7,7.4,9.2,6,10.7,4.6z M12.8,4.8C10.9,6.5,9,8,7.3,9.4c1.3-1.3,2.8-2.7,4.3-4c1.3-1.1,2.6-2.2,3.9-3.1
			C14.6,3.1,13.7,3.9,12.8,4.8z M19.7,2.9C18.9,3.8,18,4.6,17,5.5c-1.9,1.7-3.7,3.3-5.5,4.6c1.3-1.3,2.8-2.7,4.3-4
			C17.2,4.9,18.4,3.9,19.7,2.9z M8.3,12.2c1.7-2,3.8-4.2,6.1-6.3c1.1-1,2.1-1.8,3.1-2.7c-1.1,1.2-2.3,2.3-3.5,3.5
			C12.2,8.6,10.3,10.4,8.3,12.2z M8.8,14.2c1.9-1.8,3.9-3.7,6-5.6c1.7-1.5,3.4-2.9,5-4.3c-1.3,1.3-2.7,2.5-4.1,3.8
			C13.4,10.3,11,12.3,8.8,14.2z M9.1,15.4c1.3-1.5,2.9-3.2,4.9-4.9c1.7-1.4,3.3-2.6,4.8-3.5c-1.3,1.1-2.6,2.3-3.9,3.4
			C12.9,12,11,13.7,9.1,15.4z M18.7,8.6c-1.4,1.3-2.9,2.5-4.3,3.6c0.3-0.2,0.5-0.5,0.8-0.7c0.9-0.9,1.8-1.7,2.7-2.6
			c-0.1,0.1-0.2,0.2-0.4,0.3c-0.1,0.1-0.1,0.1-0.2,0.2c-1.5,1.3-2.9,2.6-4.2,3.9c-1.1,0.9-2.2,1.8-3.2,2.6c1.3-1.3,2.8-2.7,4.3-4
			c1.2-1,2.4-2,3.5-2.9c1.2-1.1,2.5-2.1,3.6-3C20.6,6.8,19.7,7.7,18.7,8.6z"/>
	</defs>
	<clipPath id="SVGID_2_">
		<use xlink:href="#SVGID_1_"  style="overflow:visible;"/>
	</clipPath>
	<path class="st0" d="M1.9,6.7L1,7.8l1.4,0.8V2.7h11.2v5.9L15,7.8l-0.9-1.1V2.4c0-0.2-0.1-0.3-0.3-0.3h-3.2l-1-1.3
		C9.5,0.6,9.3,0.4,9,0.3C8.8,0.1,8.6,0.1,8.3,0C8.2,0,8.1,0,8,0c0,0-0.1,0-0.1,0C7.6,0,7.3,0.1,7,0.3c0,0-0.1,0-0.1,0.1
		c-0.1,0-0.1,0.1-0.2,0.1C6.6,0.5,6.5,0.6,6.4,0.7c0,0-0.1,0.1-0.1,0.1l-1,1.3H2.1C2,2.1,1.9,2.3,1.9,2.4V6.7L1.9,6.7z"/>
	<polygon class="st0" points="15.2,8.4 8.6,12 15.2,15.6 	"/>
	<polygon class="st0" points="7.4,12 0.8,8.4 0.8,15.6 	"/>
	<polygon class="st0" points="8,12.4 1.4,16 14.6,16 	"/>
	<path class="st0" d="M4.4,4.4h7.2c0.1,0,0.2-0.1,0.2-0.2s-0.1-0.2-0.2-0.2H4.4c-0.1,0-0.2,0.1-0.2,0.2S4.2,4.4,4.4,4.4z M4.4,6h7.2
		c0.1,0,0.2-0.1,0.2-0.2c0-0.1-0.1-0.2-0.2-0.2H4.4c-0.1,0-0.2,0.1-0.2,0.2C4.1,5.9,4.2,6,4.4,6z M4.4,7.6h7.2
		c0.1,0,0.2-0.1,0.2-0.2s-0.1-0.2-0.2-0.2H4.4c-0.1,0-0.2,0.1-0.2,0.2S4.2,7.6,4.4,7.6z M4.4,9.2h7.2c0.1,0,0.2-0.1,0.2-0.2
		s-0.1-0.2-0.2-0.2H4.4c-0.1,0-0.2,0.1-0.2,0.2S4.2,9.2,4.4,9.2z"/>
</g>
</svg>
