<?xml version="1.0" encoding="utf-8"?>
<!-- Generator: Adobe Illustrator 23.0.0, SVG Export Plug-In . SVG Version: 6.00 Build 0)  -->
<svg version="1.1" id="Layer_1" xmlns="http://www.w3.org/2000/svg" xmlns:xlink="http://www.w3.org/1999/xlink" x="0px" y="0px"
	 viewBox="0 0 16 16" style="enable-background:new 0 0 16 16;" xml:space="preserve">
<style type="text/css">
	.st0{clip-path:url(#SVGID_2_);fill-rule:evenodd;clip-rule:evenodd;fill:#F75049;}
</style>
<g>
	<defs>
		<path id="SVGID_1_" d="M22.1,5.8c-0.1-0.1-0.3,0-0.6-0.2c-0.2-0.2-0.2-0.3-0.3-0.4c-0.4-0.2-1.3,0.5-1.3,0.5c0,0,0.4-0.3,0.7-0.7
			c0.2-0.2,0.6-0.7,0.5-1c-0.1-0.2-0.3-0.2-0.3-0.3c0-0.3,0.5-0.4,0.4-0.7c0-0.2-0.2-0.3-0.3-0.3c-0.3-0.1-0.8,0.2-0.8,0.2
			c0,0,0.3-0.2,0.4-0.5c0-0.1,0.2-0.3,0.1-0.5c-0.1-0.1-0.3-0.1-0.4-0.1c-0.1,0-0.2,0.1-0.2,0c0,0,0-0.1,0-0.2
			c0-0.2-0.3-0.3-0.6-0.3c-0.5,0-0.9,0.5-1,0.4c-0.1-0.1,0.5-0.5,0.4-0.9c0-0.1-0.2-0.3-0.4-0.3c-0.3,0-0.4,0.3-0.5,0.3
			c-0.1-0.1,0.1-0.7-0.1-0.9c-0.1-0.1-0.3,0.1-0.6,0c-0.2-0.1-0.2-0.1-0.3-0.2c-0.3-0.1-0.8,0.4-1.3,0.9c-0.2,0.2-0.6,0.5-1.1,0.8
			c0.3-0.3,0.5-0.6,0.7-0.7c0.4-0.4,0.6-0.6,0.6-0.9c0-0.1,0-0.4-0.2-0.4c-0.2-0.1-0.4,0.2-1.1,0.6c-0.2,0.1-0.3,0.2-0.4,0.3
			c0,0,0.3-0.4,0.2-0.7c0,0-0.1-0.2-0.2-0.3C13.8-1,13.1-0.9,13-0.9c-0.9,0.2-1.1,0.8-2.1,1.3c0,0-0.1,0.1-0.3,0.2
			C10.2,0.9,10,1,9.9,1C9.6,1.2,9.4,1.3,9.3,1.6C9.2,1.9,9.2,2,9.1,2.2C9,2.3,8.8,2.4,8.7,2.4C8.1,2.5,7.4,3.6,7.3,3.7
			C6.9,4.3,5.6,5.6,2.1,8.8c4.7-5,6.2-6.6,6.2-6.7c0,0,0,0,0,0c0-0.1,0.2-0.4,0-0.6c-0.1-0.1-0.2,0-0.3-0.1c0,0,0-0.1,0-0.1
			C8.1,1,8.5,1,8.5,0.9c0,0-0.1-0.1-0.2-0.1C8,0.7,8,0.6,7.8,0.5C7.6,0.5,7.4,0.6,7.2,0.7C7,0.8,6.9,0.9,6.8,0.9c0,0,0-0.2,0-0.3
			C6.7,0.5,6.5,0.5,6.5,0.5C6.1,0.6,6,0.8,5.9,0.8c-0.1,0,0-0.2-0.1-0.3C5.7,0.3,5.6,0.4,5.4,0.3C5.2,0.1,5.3,0,5.1-0.3
			C5-0.4,4.9-0.5,4.7-0.6c-0.2-0.1-0.3,0-0.5-0.1C3.9-0.7,3.9-0.9,3.7-0.9c-0.2,0-0.3,0-0.4,0.1C3-0.7,3-0.6,2.8-0.5
			c-0.2,0-0.2-0.2-0.5-0.2c-0.1,0-0.2,0-0.3,0C1.9-0.7,2-0.4,1.9-0.3c-0.1,0.1-0.2,0.1-0.3,0C1.6-0.3,1.6-0.4,1.5-0.5
			C1.3-0.7,0.4-0.4,0.1,0.1C0,0.2,0,0.4-0.1,0.4c-0.2,0.1-0.3,0-0.5,0c-0.3,0-0.5,0.2-1.1,1c0,0-0.1,0.1-0.6,0.6
			c-0.9,1-1,1.1-1.1,1.4c0,0.5,0,0.7,0,0.7c0,0.1,0.1,0.3,0,0.4c-0.1,0.1-0.1,0-0.2,0.1c-0.1,0.1,0.1,0.4,0,0.8c0,0,0,0,0,0.3
			c-0.1,0.5-0.1,0.6,0,0.7c0.1,0.1,0.2,0.1,0.3,0.1c0.2,0,0.3-0.1,0.4-0.1C-2.4,5.9-2.1,5.4-1.7,5C-1.8,5.3-2,5.5-2.1,5.7
			c-0.2,0.2-0.3,0.4-0.5,0.7c0,0.1-0.1,0.2-0.2,0.4C-2.8,7-2.9,7.3-2.8,7.5c0,0.1,0.1,0.2,0.1,0.3c0,0.2,0,0.3,0,0.4
			c0,0.1,0.1,0.1,0.2,0.1c0.1,0.1,0,0.3,0,0.6c0,0.2,0.1,0.1,0.1,0.3c0.1,0.3-0.1,0.4,0,0.7c0,0.1,0,0.2,0.1,0.3
			c0.1,0.1,0.4-0.1,0.6,0c0.2,0.1,0.1,0.3,0.3,0.4c0.1,0,0.2-0.1,0.4,0c0,0,0.3,0,0.3,0.1c0,0.1-0.1,0.3-0.3,0.4
			c-0.4,0.2-0.8-0.1-0.9,0c0,0.1,0.1,0.2,0.2,0.3c1,0.9,1,1,1.3,1.2c0.3,0.2,0.3,0.1,0.7,0.3c0.5,0.3,1.1,0.6,1.1,1
			c0,0.2-0.2,0.3-0.1,0.6c0,0.2,0.1,0.5,0.3,0.6C1.9,15.2,2,15,2.3,15.1c0.3,0,0.3,0.2,0.6,0.3c0.4,0,0.5-0.4,0.8-0.4
			c0.2,0,0.2,0.2,0.4,0.3c0.2,0.1,0.4,0,0.5,0c1-1.1,2.6-2.7,4.6-4.8c1.6-1.7,2.1-2.2,3-3.1c2.6-2.5,5.4-4.5,5.5-4.3
			c0.1,0.1-1.2,1.3-5.5,5.4c-3,2.8-5.4,5.2-7.1,6.8c0,0.3,0.1,0.5,0.2,0.5c0.2,0.1,0.5-0.2,0.8,0c0.1,0.1,0.3,0.2,0.3,0.4
			c0,0.2,0,0.3,0.1,0.4c0.1,0.1,0.1,0,0.2,0.1c0.2,0.2,0.1,0.3,0.3,0.5c0.2,0.1,0.4,0,0.4,0.2c0,0.1,0,0.1,0,0.3
			c0,0.1,0.2,0.1,0.2,0.3c0,0.2-0.3,0.3-0.3,0.6c0,0.2,0.1,0.2,0.1,0.5c0,0.5-0.6,0.6-0.5,0.9c0,0.2,0.2,0.4,0.4,0.5
			c0.3,0,0.5-0.4,0.8-0.4c0.4,0,0.6,0.6,0.9,0.5c0.3,0,0.3-0.4,0.6-0.4c0.2,0,0.3,0.1,0.4,0c0.1-0.1,0.1-0.2,0.3-0.3
			c0.1,0,0.1,0,0.2,0c0.2,0,0.6-0.4,0.7-0.8c0.1-0.4,0-0.5,0.2-0.8c0.1-0.2,0.3-0.3,0.4-0.4c0.5-0.4,1.2-1,1.8-1.6
			c0.8-0.8,0.9-1.1,1.5-1.4c0.1,0,0.3-0.1,0.5-0.3c0.3-0.3,0.4-0.6,0.6-0.8c0.4-0.8,0.8-0.8,1.7-2c0-0.1,0.2-0.3,0.2-0.4
			c-0.1-0.1-1.2,1.1-1.4,1c-0.1-0.1-0.1-0.2-0.1-0.2c0.1-0.6,0.8-0.8,1.9-1.7c0.3-0.2,0.2-0.2,0.5-0.5c0.8-0.7,1.7-1.3,2-1.7
			c0.1-0.3,0.2-0.6,0.2-0.6c0-0.1,0-0.1,0.1-0.2C21,7.1,21.1,7,21.6,6.5C22.1,6,22.1,5.9,22.1,5.8z M5.1,5C4.8,5.4,4.5,5.7,4.2,5.9
			C4.4,5.6,4.6,5.3,5,4.9c0.1-0.1,0.3-0.2,0.4-0.3C5.3,4.7,5.2,4.9,5.1,5z M4.9,3.8c0.5-0.5,1-1,1.4-1.4C6,2.9,5.5,3.4,5,3.9
			C4.7,4.2,4.4,4.5,4.1,4.7C4.3,4.4,4.6,4.1,4.9,3.8z M-0.7,3.8c0.1-0.2,0.2-0.4,0.4-0.6C-0.1,3-0.1,3,0,2.9C0,3-0.1,3.1-0.1,3.2
			C-0.3,3.4-0.5,3.6-0.7,3.8z M0.2,11.9C0.1,12,0,12.1-0.1,12.1c0,0,0-0.2,0.1-0.3c0.1-0.1,0.3-0.2,0.3-0.2
			C0.3,11.7,0.3,11.8,0.2,11.9z M-0.1,7.2c0.3-0.4,0.7-0.8,1-1.2c0,0.1,0,0.2,0,0.3C0.5,6.6,0.2,7-0.1,7.2z M1.6,13.3
			c0,0-0.2-0.2-0.5-0.6c-0.1-0.1-0.2-0.2-0.2-0.3c0-0.1,0.1-0.1,0.2-0.2c0.1-0.1,0.3-0.2,0.4-0.5c0,0.2-0.1,0.3-0.1,0.4
			c0,0.1-0.1,0.2-0.1,0.3c0,0.1,0.1,0,0.1,0.1c0.1,0.1,0,0.2,0,0.3C1.5,13.1,1.6,13.2,1.6,13.3z M1.5,2c0.1-0.2,0.2-0.4,0.4-0.6
			C2,1.3,2.1,1.2,2.2,1.1c0,0.1-0.1,0.2-0.2,0.3C1.8,1.6,1.7,1.8,1.5,2z M4.3,8.6c1-1.3,2.3-2.8,3.8-4.2c1.1-1.1,2.2-2,3.2-2.8
			C10.6,2.2,9.8,3,9.1,3.7C7.4,5.3,5.8,7,4.3,8.6z M9.2,4.3c0.8-0.8,1.6-1.5,2.4-2c-0.4,0.5-0.9,1-1.4,1.6C9.1,5.1,7.9,6.2,6.8,7.2
			C7.4,6.4,8.2,5.4,9.2,4.3z M11.1,6.1c1.1-0.9,2.2-1.8,3.2-2.6c-0.7,0.7-1.4,1.4-2.2,2.1c-1.6,1.4-3.1,2.7-4.6,3.8
			C8.5,8.4,9.8,7.3,11.1,6.1z M12.8,6.3C11.2,7.7,9.6,9,8.2,10.1c1.1-1.1,2.3-2.2,3.6-3.4C12.9,5.8,14,4.9,15,4.1
			C14.3,4.8,13.6,5.5,12.8,6.3z M18.5,4.7c-0.7,0.7-1.4,1.4-2.2,2.1c-1.6,1.4-3.1,2.7-4.6,3.8c1.1-1.1,2.3-2.2,3.6-3.4
			C16.4,6.4,17.5,5.5,18.5,4.7z M9,12.5c1.4-1.7,3.1-3.5,5.1-5.3C15,6.4,15.9,5.6,16.8,5c-1,1-1.9,1.9-2.9,2.9
			C12.3,9.4,10.7,10.9,9,12.5z M9.4,14.1c1.6-1.5,3.2-3.1,5-4.7c1.4-1.3,2.8-2.4,4.2-3.5C17.5,6.9,16.4,8,15.2,9
			C13.2,10.8,11.3,12.5,9.4,14.1z M9.7,15.1c1.1-1.3,2.5-2.7,4.1-4.1c1.4-1.2,2.7-2.2,4-3c-1.1,1-2.2,1.9-3.3,2.9
			C12.9,12.3,11.3,13.7,9.7,15.1z M17.7,9.4c-1.2,1.1-2.4,2.1-3.6,3c0.2-0.2,0.4-0.4,0.6-0.6c0.8-0.7,1.5-1.4,2.2-2.1
			c-0.1,0.1-0.2,0.1-0.3,0.2c-0.1,0-0.1,0.1-0.2,0.2c-1.3,1.1-2.4,2.2-3.5,3.3c-0.9,0.8-1.8,1.5-2.7,2.1c1.1-1.1,2.3-2.2,3.6-3.4
			c1-0.9,2-1.7,2.9-2.4C18,8.8,19,8,20,7.3C19.3,8,18.5,8.7,17.7,9.4z"/>
	</defs>
	<clipPath id="SVGID_2_">
		<use xlink:href="#SVGID_1_"  style="overflow:visible;"/>
	</clipPath>
	<polygon class="st0" points="0,5.1 0.4,6.4 2.6,5.5 4.6,13.3 5.9,13.3 7.2,3.9 14.7,3.9 14.7,5.3 15.9,5.3 16,2.7 6.1,2.7 5.1,9.9 
		3.6,3.8 	"/>
	<polygon class="st0" points="11.2,10.5 12.9,12.4 13.3,12.9 14.3,12 13.9,11.6 12,9.5 13.9,7.5 14.3,7 13.3,6.1 12.9,6.6 11.2,8.6 
		9.4,6.6 9,6.1 8,7 8.5,7.5 10.3,9.5 8.5,11.6 8,12 9,12.9 9.4,12.4 	"/>
</g>
</svg>
