<?xml version="1.0" encoding="utf-8"?>
<!-- Generator: Adobe Illustrator 23.0.0, SVG Export Plug-In . SVG Version: 6.00 Build 0)  -->
<svg version="1.1" id="Layer_1" xmlns="http://www.w3.org/2000/svg" xmlns:xlink="http://www.w3.org/1999/xlink" x="0px" y="0px"
	 viewBox="0 0 16 16" style="enable-background:new 0 0 16 16;" xml:space="preserve">
<style type="text/css">
	.st0{clip-path:url(#SVGID_2_);}
	.st1{fill-rule:evenodd;clip-rule:evenodd;fill:#F75049;}
</style>
<g>
	<defs>
		<path id="SVGID_1_" d="M22,5.2c-0.1-0.2-0.4,0-0.7-0.3c-0.3-0.2-0.2-0.4-0.4-0.5c-0.5-0.3-1.5,0.6-1.6,0.6c0,0,0.4-0.3,0.9-0.8
			c0.3-0.3,0.8-0.8,0.6-1.2c-0.1-0.2-0.3-0.2-0.4-0.4c-0.1-0.3,0.6-0.5,0.5-0.9c0-0.2-0.2-0.4-0.4-0.4c-0.4-0.2-0.9,0.3-1,0.3
			c0,0,0.3-0.2,0.5-0.6c0-0.1,0.2-0.4,0.1-0.6c-0.1-0.1-0.3-0.1-0.5-0.1c-0.1,0-0.2,0.1-0.3,0.1c0,0,0-0.1,0-0.2
			c0-0.2-0.4-0.3-0.7-0.4c-0.6-0.1-1.2,0.6-1.2,0.5c-0.1-0.1,0.6-0.6,0.4-1.1C18-1,17.8-1.2,17.6-1.2c-0.3,0-0.5,0.4-0.6,0.3
			c-0.2-0.1,0.1-0.9-0.1-1c-0.2-0.1-0.4,0.1-0.7,0C16-2,16-2.1,15.9-2.1C15.5-2.3,15-1.6,14.3-1C14-0.8,13.6-0.4,13,0
			c0.3-0.4,0.6-0.7,0.8-0.9c0.5-0.5,0.8-0.8,0.8-1.1c0-0.2,0-0.4-0.2-0.5c-0.2-0.1-0.5,0.2-1.3,0.8c-0.2,0.1-0.4,0.3-0.5,0.3
			c0,0,0.4-0.4,0.2-0.8c0,0-0.1-0.2-0.2-0.3c-0.5-0.4-1.4-0.2-1.5-0.2c-1,0.3-1.3,1-2.6,1.6c0,0-0.2,0.1-0.4,0.2
			C7.6-0.8,7.4-0.7,7.2-0.6C6.9-0.4,6.7-0.2,6.6,0.1C6.4,0.4,6.5,0.6,6.3,0.8C6.1,1,5.9,1,5.9,1C5.2,1.2,4.3,2.5,4.1,2.6
			C3.7,3.3,2.1,4.9-2.2,8.8c5.7-6,7.5-8,7.6-8.1c0,0,0,0,0,0c0-0.1,0.2-0.5,0-0.7c-0.1-0.1-0.3,0-0.4-0.2c0,0-0.1-0.1,0-0.2
			c0-0.2,0.5-0.3,0.5-0.4c0,0-0.1-0.1-0.2-0.1C5-1,5-1.1,4.8-1.2C4.5-1.3,4.2-1.1,4-1C3.7-0.9,3.6-0.7,3.5-0.7c-0.1,0,0.1-0.2,0-0.3
			C3.4-1.2,3.2-1.2,3.1-1.2c-0.4,0-0.6,0.3-0.8,0.3C2.3-1,2.4-1.1,2.3-1.3C2.2-1.4,2-1.4,1.8-1.5C1.6-1.7,1.7-1.8,1.5-2.2
			C1.4-2.3,1.2-2.5,1-2.6c-0.3-0.1-0.3,0-0.6-0.1C0-2.7,0-2.9-0.2-3c-0.2,0-0.3,0-0.5,0.1c-0.4,0.2-0.4,0.4-0.6,0.4
			c-0.2,0-0.3-0.2-0.6-0.3c-0.1,0-0.3,0-0.3,0c-0.1,0.1,0,0.4-0.1,0.6c-0.1,0.1-0.2,0.1-0.3,0c-0.1-0.1-0.1-0.2-0.2-0.3
			c-0.2-0.2-1.4,0.1-1.7,0.8c-0.1,0.1-0.1,0.3-0.3,0.4c-0.2,0.1-0.4,0-0.6,0C-5.8-1.3-6-1-6.7-0.1c0,0-0.2,0.2-0.7,0.8
			C-8.5,1.8-8.7,2-8.7,2.3c0,0.6,0.1,0.9,0.1,0.9c0,0.1,0.1,0.3,0,0.4c-0.1,0.1-0.1,0-0.2,0.1c-0.1,0.2,0.1,0.4,0,0.9
			c0,0,0,0-0.1,0.3c-0.1,0.6-0.1,0.8,0,0.9C-8.8,6-8.7,6-8.6,6c0.2,0,0.4-0.1,0.4-0.1c0.5-0.5,0.9-1.1,1.4-1.6
			c-0.2,0.4-0.4,0.7-0.5,0.9c-0.2,0.3-0.4,0.5-0.6,0.9C-7.9,6-8,6.2-8,6.4C-8.1,6.7-8.3,7-8.1,7.3C-8.1,7.4-8,7.5-8,7.7
			c0,0.2-0.1,0.3,0,0.5c0.1,0.1,0.1,0.1,0.2,0.2c0.1,0.2,0,0.4,0,0.7c0,0.2,0.1,0.1,0.1,0.3c0.1,0.3-0.1,0.5,0,0.9
			c0,0.2,0,0.3,0.1,0.3c0.2,0.2,0.4-0.1,0.7,0.1c0.2,0.1,0.1,0.4,0.4,0.5C-6.3,11.1-6.2,11-6,11c0,0,0.4,0,0.4,0.2
			c0,0.1-0.1,0.3-0.3,0.4c-0.4,0.2-1-0.1-1,0c0,0.1,0.1,0.3,0.3,0.4c1.2,1.1,1.2,1.2,1.6,1.4c0.4,0.2,0.3,0.1,0.8,0.4
			c0.6,0.4,1.3,0.7,1.3,1.2c0,0.3-0.2,0.3-0.2,0.7c0,0.3,0.1,0.7,0.4,0.8c0.2,0.1,0.4-0.2,0.7-0.1c0.4,0,0.4,0.3,0.7,0.3
			c0.4,0,0.6-0.5,1-0.4c0.2,0,0.2,0.2,0.5,0.3c0.2,0.1,0.5,0,0.6,0c1.3-1.3,3.2-3.3,5.6-5.8C8.4,8.7,9,8.1,10,7.1
			c3.2-3,6.5-5.4,6.7-5.2c0.1,0.1-1.4,1.5-6.6,6.5c-3.6,3.4-6.6,6.3-8.6,8.2c0,0.4,0.1,0.5,0.2,0.6c0.3,0.2,0.6-0.2,0.9,0
			c0.1,0.1,0.3,0.3,0.4,0.5c0.1,0.2,0,0.3,0.1,0.5c0.1,0.1,0.1,0,0.2,0.1c0.2,0.2,0.1,0.4,0.3,0.6c0.2,0.2,0.5,0.1,0.5,0.2
			c0,0.1-0.1,0.2,0,0.3c0,0.2,0.2,0.2,0.2,0.3C4.5,19.9,4.1,20,4,20.4c-0.1,0.3,0.1,0.3,0.1,0.6c0,0.6-0.7,0.7-0.7,1.1
			c0,0.3,0.3,0.5,0.5,0.6c0.4,0.1,0.6-0.5,1-0.5c0.5,0,0.7,0.7,1.1,0.7c0.3-0.1,0.4-0.4,0.7-0.5c0.2,0,0.4,0.1,0.5,0
			c0.2-0.1,0.1-0.3,0.3-0.3c0.1,0,0.1,0,0.2,0c0.3,0,0.7-0.5,0.8-1c0.1-0.4,0-0.6,0.2-0.9c0.1-0.3,0.3-0.4,0.4-0.5
			c0.7-0.5,1.4-1.2,2.2-1.9c1-0.9,1.1-1.3,1.8-1.7c0.1-0.1,0.3-0.2,0.6-0.4c0.4-0.3,0.5-0.7,0.7-1c0.5-1,1-1,2-2.5
			c0-0.1,0.3-0.4,0.2-0.4c-0.1-0.1-1.4,1.4-1.7,1.2C15,13,15,12.8,15,12.7c0.1-0.7,1-0.9,2.3-2.1c0.3-0.3,0.2-0.2,0.6-0.6
			c1-0.9,2.1-1.6,2.4-2.1c0.2-0.3,0.3-0.7,0.3-0.7c0-0.1,0-0.2,0.1-0.2c0.1-0.3,0.3-0.5,0.8-1C22,5.4,22.1,5.3,22,5.2z M1.5,4.2
			C1.1,4.7,0.7,5,0.4,5.3c0.2-0.3,0.5-0.8,1-1.1C1.5,4,1.7,3.9,1.9,3.8C1.8,3.9,1.6,4.1,1.5,4.2z M1.2,2.8c0.6-0.6,1.2-1.2,1.7-1.7
			C2.5,1.6,2,2.2,1.4,2.9C1,3.2,0.6,3.6,0.3,3.9C0.6,3.5,0.9,3.2,1.2,2.8z M-5.5,2.7C-5.4,2.5-5.2,2.2-5,1.9
			c0.1-0.1,0.2-0.2,0.3-0.3C-4.7,1.8-4.8,1.9-4.9,2C-5.1,2.3-5.3,2.5-5.5,2.7z M-4.5,12.6c-0.1,0.1-0.3,0.2-0.3,0.2
			c0-0.1,0-0.2,0.1-0.4c0.1-0.2,0.3-0.2,0.4-0.2C-4.3,12.3-4.4,12.4-4.5,12.6z M-4.9,6.9c0.4-0.5,0.8-1,1.2-1.4c0,0.1,0,0.2,0,0.4
			C-4,6.2-4.5,6.6-4.9,6.9z M-2.8,14.2c-0.1,0-0.2-0.2-0.6-0.7c-0.1-0.1-0.2-0.2-0.2-0.3c0-0.1,0.1-0.1,0.3-0.2
			c0.1-0.1,0.3-0.2,0.5-0.5c0,0.2-0.1,0.4-0.1,0.5C-3,13-3.1,13.1-3,13.2c0,0.1,0.1,0,0.2,0.1c0.1,0.1,0,0.2,0,0.3
			C-2.9,14-2.7,14.2-2.8,14.2z M-2.9,0.5C-2.8,0.3-2.6,0-2.4-0.2c0.1-0.1,0.2-0.2,0.3-0.3c-0.1,0.1-0.1,0.2-0.2,0.3
			C-2.5,0.2-2.7,0.4-2.9,0.5z M0.5,8.5c1.3-1.6,2.8-3.4,4.6-5.1C6.5,2.1,7.8,1,9,0C8.1,0.9,7.2,1.8,6.3,2.6C4.3,4.6,2.4,6.6,0.5,8.5
			z M6.5,3.4c1-1,2-1.8,2.9-2.5C8.8,1.6,8.3,2.2,7.7,2.8C6.3,4.3,4.9,5.7,3.6,6.9C4.3,5.9,5.2,4.7,6.5,3.4z M8.7,5.6
			c1.3-1.1,2.6-2.2,3.9-3.2C11.7,3.3,10.8,4.1,9.9,5C8,6.8,6.1,8.3,4.3,9.7C5.6,8.3,7.1,7,8.7,5.6z M10.8,5.7C8.8,7.5,7,9,5.2,10.4
			C6.5,9.1,8,7.7,9.6,6.3c1.3-1.1,2.6-2.2,3.9-3.2C12.6,4,11.7,4.9,10.8,5.7z M17.7,3.9C16.9,4.7,16,5.6,15,6.5
			c-1.9,1.7-3.8,3.3-5.6,4.6c1.3-1.3,2.8-2.7,4.4-4.1C15.2,5.9,16.5,4.8,17.7,3.9z M6.2,13.3C8,11.2,10,9,12.4,6.9
			c1.1-1,2.1-1.9,3.2-2.7c-1.2,1.2-2.3,2.4-3.5,3.5C10.2,9.6,8.2,11.4,6.2,13.3z M6.7,15.2c1.9-1.9,3.9-3.8,6.1-5.7
			c1.7-1.5,3.4-2.9,5.1-4.3c-1.3,1.3-2.7,2.6-4.2,3.9C11.3,11.3,9,13.3,6.7,15.2z M7,16.5c1.3-1.5,3-3.3,5-5
			c1.7-1.4,3.3-2.6,4.8-3.6c-1.3,1.2-2.6,2.3-3.9,3.5C10.9,13.1,8.9,14.8,7,16.5z M16.8,9.5c-1.5,1.3-2.9,2.6-4.3,3.7
			c0.3-0.2,0.5-0.5,0.8-0.7c1-0.9,1.9-1.7,2.7-2.6c-0.1,0.1-0.2,0.2-0.4,0.3c-0.1,0.1-0.1,0.1-0.2,0.2c-1.5,1.3-3,2.7-4.3,4
			c-1.1,0.9-2.2,1.8-3.2,2.6c1.3-1.3,2.8-2.7,4.4-4.1c1.2-1,2.4-2,3.5-2.9c1.3-1.1,2.5-2.1,3.7-3C18.6,7.8,17.7,8.7,16.8,9.5z"/>
	</defs>
	<clipPath id="SVGID_2_">
		<use xlink:href="#SVGID_1_"  style="overflow:visible;"/>
	</clipPath>
	<g transform="translate(-270,-160)" class="st0">
		<path class="st1" d="M279.5,160c0.7,2.6-2.4,3.4-3.5,5.1c-0.7,1.1,0.4,2.3,1.9,3.7c-0.6-1.3-2.6-2.5,0-4.6
			C281.2,161.7,279.5,160,279.5,160L279.5,160z M281.5,163.3c0,0-5.5,1.4-2.9,4.4c0.8,0.9-0.2,1.7-0.2,1.7s2-1,1.1-2.3
			C278.7,165.9,278,165.3,281.5,163.3L281.5,163.3z M282.5,168.7c-0.2,0-0.4,0-0.6,0.1c-0.2,0.1-0.3,0.2-0.3,0.2s0.1,0,0.3-0.1
			c1-0.2,2.4,1.3-0.6,2.9c0,0-0.1,0.1-0.1,0.1C284.8,170.9,284,168.6,282.5,168.7L282.5,168.7z M276,168.8c-0.2,0-1.3,0-2.5,0.6
			c-1.6,0.8,4.1,1.2,7,0.4c0.3-0.2,0.7-0.4,0.7-0.4s-1.2,0.2-2.4,0.3c-1.5,0.1-3.1,0.1-3.8,0C273.2,169.5,276.1,168.8,276,168.8
			C276.1,168.8,276.1,168.8,276,168.8L276,168.8z M275.4,170.6c-2.7,0.9,1.5,1.9,5.3,0.8c-0.4-0.1-0.7-0.4-0.7-0.4
			c-1.9,0.4-2.9,0.3-4.3,0.2C274.7,171.1,275.4,170.6,275.4,170.6z M275.8,172.4c-2.5,0.7,1.5,2.1,4.6,0.8c-0.5-0.2-0.9-0.4-0.9-0.4
			c-1.4,0.3-2,0.3-3.3,0.1C275.2,172.7,275.8,172.4,275.8,172.4L275.8,172.4z M274.1,173.5c-1.1,0-3.3,1-1.3,1.3
			c6.4,1,11.6-0.5,10-1.2c0,0,0.5,0.4-0.5,0.7c-1.8,0.5-7.5,0.7-9.1,0c-0.6-0.2,0.5-0.6,0.8-0.7c0.4-0.1,0.6-0.1,0.6-0.1
			C274.5,173.6,274.3,173.5,274.1,173.5L274.1,173.5z M283.8,174.5c0,0-0.2,0.5-2.4,0.9c-2.5,0.5-5.5,0.4-7.3,0.1
			c0,0,0.4,0.3,2.3,0.4C279.3,176.1,283.7,175.8,283.8,174.5L283.8,174.5z"/>
	</g>
</g>
</svg>
