<?xml version="1.0" encoding="utf-8"?>
<!-- Generator: Adobe Illustrator 23.0.0, SVG Export Plug-In . SVG Version: 6.00 Build 0)  -->
<svg version="1.1" id="Layer_1" xmlns="http://www.w3.org/2000/svg" xmlns:xlink="http://www.w3.org/1999/xlink" x="0px" y="0px"
	 viewBox="0 0 16 16" style="enable-background:new 0 0 16 16;" xml:space="preserve">
<style type="text/css">
	.st0{fill:#F75049;}
	.st1{clip-path:url(#SVGID_2_);fill:#F75049;}
</style>
<path class="st0" d="M14.2,1.7c-0.2,0-0.4,0-0.5,0.1c-0.2,0-0.3,0.1-0.4,0.2c-0.1,0.1-0.2,0.2-0.3,0.4c-0.1,0.2-0.1,0.4-0.1,0.6
	c0,0.2,0,0.5,0.1,0.6C13,3.9,13.1,4,13.2,4.1c0.1,0.1,0.3,0.2,0.4,0.2c0.2,0,0.3,0.1,0.5,0.1c0.2,0,0.4,0,0.5-0.1
	c0.2,0,0.3-0.1,0.4-0.2c0.1-0.1,0.2-0.2,0.3-0.4c0.1-0.2,0.1-0.4,0.1-0.6c0-0.3,0-0.5-0.1-0.6c-0.1-0.2-0.2-0.3-0.3-0.4
	c-0.1-0.1-0.3-0.2-0.4-0.2C14.5,1.8,14.4,1.7,14.2,1.7z"/>
<rect x="12.8" y="5.5" class="st0" width="2.7" height="9.5"/>
<g>
	<defs>
		<path id="SVGID_1_" d="M21.7,6.8c-0.1-0.1-0.3,0-0.6-0.2c-0.2-0.2-0.2-0.4-0.3-0.5c-0.4-0.3-1.3,0.5-1.3,0.5c0,0,0.4-0.3,0.7-0.7
			c0.2-0.3,0.7-0.7,0.5-1c-0.1-0.2-0.3-0.2-0.3-0.3c0-0.3,0.5-0.4,0.5-0.8c0-0.2-0.2-0.3-0.3-0.4c-0.4-0.1-0.8,0.3-0.8,0.2
			c0,0,0.3-0.2,0.4-0.5c0-0.1,0.2-0.3,0.1-0.5c-0.1-0.1-0.3-0.1-0.4-0.1c-0.1,0-0.2,0.1-0.2,0.1c0,0,0-0.1,0-0.2
			c0-0.2-0.4-0.3-0.6-0.3c-0.5-0.1-1,0.5-1,0.4c-0.1-0.1,0.5-0.6,0.4-0.9c-0.1-0.2-0.2-0.3-0.4-0.3c-0.3,0-0.4,0.3-0.5,0.3
			c-0.1-0.1,0.1-0.7-0.1-0.9c-0.1-0.1-0.3,0.1-0.6,0c-0.2-0.1-0.2-0.1-0.3-0.2c-0.3-0.1-0.8,0.4-1.4,1c-0.2,0.2-0.6,0.5-1.2,0.8
			c0.3-0.3,0.5-0.6,0.7-0.8c0.4-0.5,0.6-0.6,0.7-1c0-0.1,0-0.4-0.2-0.5C14.9,0,14.7,0.3,14,0.7C13.8,0.9,13.7,1,13.6,1
			c0,0,0.3-0.4,0.2-0.7c0,0-0.1-0.2-0.2-0.3c-0.4-0.4-1.2-0.2-1.3-0.2c-0.9,0.2-1.1,0.8-2.2,1.4c0,0-0.1,0.1-0.3,0.2
			C9.3,1.6,9.1,1.7,9,1.8C8.8,2,8.6,2.1,8.5,2.4C8.3,2.7,8.4,2.8,8.2,3C8.1,3.2,7.9,3.2,7.9,3.2C7.2,3.4,6.5,4.5,6.4,4.6
			C6,5.2,4.6,6.6,1,9.8c4.9-5.2,6.4-6.8,6.5-7c0,0,0,0,0,0c0-0.1,0.2-0.4,0-0.6c-0.1-0.1-0.2,0-0.3-0.2c0,0,0-0.1,0-0.2
			c0-0.2,0.4-0.3,0.4-0.3c0,0-0.1-0.1-0.2-0.1C7.1,1.4,7.1,1.3,6.9,1.3C6.7,1.2,6.4,1.4,6.3,1.5C6,1.6,5.9,1.7,5.9,1.7
			c-0.1,0,0-0.2,0-0.3C5.8,1.3,5.6,1.3,5.5,1.3C5.2,1.3,5,1.6,4.9,1.5c-0.1,0,0-0.2-0.1-0.3C4.7,1.1,4.6,1.1,4.4,1
			C4.2,0.9,4.3,0.7,4.1,0.5C4,0.4,3.9,0.2,3.7,0.1C3.4,0,3.4,0.1,3.1,0.1C2.9,0,2.9-0.2,2.6-0.2c-0.2,0-0.3,0-0.4,0.1
			C1.9,0,1.9,0.2,1.7,0.2C1.5,0.2,1.5,0,1.2-0.1c-0.1,0-0.2,0-0.3,0c-0.1,0.1,0,0.4-0.1,0.5c-0.1,0.1-0.2,0.1-0.3,0
			C0.4,0.4,0.4,0.3,0.4,0.2C0.2,0-0.8,0.3-1.1,0.9c0,0.1-0.1,0.2-0.2,0.3c-0.2,0.1-0.3,0-0.5,0c-0.3,0-0.5,0.2-1.1,1
			c0,0-0.1,0.1-0.6,0.7c-0.9,1-1.1,1.2-1.1,1.5c0,0.5,0,0.7,0,0.7c0,0.1,0.1,0.3,0,0.4c-0.1,0.1-0.1,0-0.2,0.1
			c-0.1,0.1,0.1,0.4,0,0.8c0,0,0,0-0.1,0.3c-0.1,0.6-0.1,0.7,0,0.7c0.1,0.1,0.2,0.1,0.3,0.1c0.2,0,0.3-0.1,0.4-0.1
			C-3.7,6.8-3.3,6.4-3,5.9c-0.2,0.3-0.3,0.6-0.5,0.8c-0.2,0.2-0.3,0.4-0.5,0.7C-4,7.5-4,7.6-4.1,7.8C-4.1,8-4.3,8.3-4.1,8.6
			C-4.1,8.7-4,8.7-4,8.9C-4,9.1-4,9.2-4,9.3c0.1,0.1,0.1,0.1,0.2,0.1c0.1,0.1,0,0.3,0,0.6c0,0.2,0.1,0.1,0.1,0.3
			c0.1,0.3-0.1,0.4,0,0.7c0,0.2,0,0.2,0.1,0.3c0.2,0.1,0.4-0.1,0.6,0.1c0.2,0.1,0.1,0.3,0.3,0.4c0.1,0,0.2-0.1,0.4,0
			c0,0,0.3,0,0.3,0.1c0,0.1-0.1,0.3-0.3,0.4c-0.4,0.2-0.8-0.1-0.9,0c0,0.1,0.1,0.2,0.2,0.3c1,1,1,1,1.4,1.2c0.3,0.2,0.3,0.1,0.7,0.3
			c0.5,0.3,1.1,0.6,1.1,1.1c0,0.2-0.2,0.3-0.2,0.6c0,0.2,0.1,0.6,0.3,0.7c0.2,0.1,0.3-0.1,0.6-0.1c0.3,0,0.3,0.3,0.6,0.3
			c0.4,0,0.5-0.4,0.8-0.4c0.2,0,0.2,0.2,0.4,0.3c0.2,0.1,0.4,0,0.6,0c1.1-1.1,2.7-2.8,4.8-5c1.7-1.8,2.1-2.3,3.1-3.2
			c2.7-2.6,5.6-4.6,5.7-4.5c0.1,0.1-1.2,1.3-5.7,5.6c-3.1,2.9-5.6,5.4-7.4,7c0,0.3,0.1,0.5,0.2,0.5c0.2,0.1,0.5-0.2,0.8,0
			c0.1,0.1,0.3,0.2,0.3,0.5c0,0.2,0,0.3,0.1,0.4c0.1,0.1,0.1,0,0.2,0.1c0.2,0.2,0.1,0.4,0.3,0.5c0.2,0.1,0.4,0,0.5,0.2
			c0,0.1-0.1,0.1,0,0.3c0,0.1,0.2,0.1,0.2,0.3c0,0.2-0.3,0.3-0.4,0.6c-0.1,0.2,0.1,0.3,0.1,0.5c0,0.5-0.6,0.6-0.6,1
			c0,0.2,0.2,0.5,0.5,0.5c0.4,0,0.5-0.4,0.9-0.4c0.4,0,0.6,0.6,1,0.6c0.3,0,0.3-0.4,0.6-0.4c0.2,0,0.3,0.1,0.4,0
			c0.1-0.1,0.1-0.2,0.3-0.3c0.1,0,0.1,0,0.2,0c0.3,0,0.6-0.4,0.7-0.8c0.1-0.4,0-0.5,0.2-0.8c0.1-0.2,0.3-0.3,0.4-0.4
			c0.6-0.4,1.2-1,1.9-1.6c0.9-0.8,0.9-1.1,1.5-1.4c0.1,0,0.3-0.1,0.5-0.3c0.3-0.3,0.4-0.6,0.6-0.9c0.4-0.8,0.9-0.8,1.7-2.1
			c0-0.1,0.2-0.3,0.2-0.4c-0.1-0.1-1.2,1.2-1.5,1c-0.1-0.1-0.1-0.2-0.1-0.3c0.1-0.6,0.9-0.8,2-1.8c0.3-0.2,0.2-0.2,0.5-0.5
			c0.9-0.8,1.8-1.3,2-1.8c0.1-0.3,0.2-0.6,0.2-0.6c0-0.1,0-0.1,0.1-0.2c0.1-0.3,0.2-0.4,0.7-0.9C21.7,7,21.8,6.8,21.7,6.8z M4.1,6
			c-0.3,0.4-0.7,0.7-1,0.9c0.2-0.3,0.4-0.6,0.8-1c0.2-0.1,0.3-0.2,0.5-0.3C4.3,5.7,4.2,5.8,4.1,6z M3.9,4.7c0.5-0.6,1-1,1.5-1.4
			C5,3.7,4.5,4.2,4,4.8c-0.3,0.3-0.7,0.6-1,0.9C3.3,5.4,3.6,5,3.9,4.7z M-1.9,4.6C-1.8,4.5-1.6,4.2-1.4,4c0.1-0.1,0.2-0.2,0.2-0.2
			c0,0.1-0.1,0.2-0.2,0.3C-1.5,4.3-1.7,4.5-1.9,4.6z M-1,13.1c-0.1,0.1-0.2,0.2-0.3,0.2c0,0,0-0.2,0.1-0.3c0.1-0.2,0.3-0.2,0.3-0.2
			C-0.9,12.8-0.9,13-1,13.1z M-1.3,8.3C-1,7.9-0.7,7.4-0.3,7c0,0.1,0,0.2,0,0.3C-0.6,7.6-1,8-1.3,8.3z M0.5,14.5
			c0,0-0.2-0.2-0.5-0.6c-0.1-0.1-0.2-0.2-0.2-0.3c0-0.1,0.1-0.1,0.2-0.2c0.1-0.1,0.3-0.2,0.4-0.5c0,0.2-0.1,0.3-0.1,0.4
			c-0.1,0.1-0.1,0.2-0.1,0.3c0,0.1,0.1,0,0.1,0.1c0.1,0.1,0,0.2,0,0.3C0.3,14.3,0.5,14.5,0.5,14.5z M0.4,2.8
			c0.1-0.2,0.2-0.4,0.4-0.7C0.9,2.1,1,2,1.1,1.9C1,2,1,2.1,0.9,2.2C0.7,2.5,0.5,2.7,0.4,2.8z M3.3,9.6c1.1-1.4,2.4-2.9,4-4.4
			c1.1-1.1,2.2-2.1,3.3-2.9C9.8,3.1,9,3.8,8.2,4.6C6.5,6.3,4.8,8,3.3,9.6z M8.4,5.2c0.9-0.9,1.7-1.6,2.4-2.1
			c-0.5,0.5-0.9,1.1-1.4,1.6C8.2,6,7,7.2,5.9,8.3C6.5,7.4,7.3,6.3,8.4,5.2z M10.3,7.1c1.1-1,2.3-1.9,3.3-2.7
			c-0.7,0.7-1.5,1.5-2.3,2.2c-1.6,1.5-3.2,2.8-4.8,4C7.7,9.5,8.9,8.3,10.3,7.1z M12,7.2c-1.6,1.5-3.2,2.8-4.8,4
			c1.1-1.1,2.4-2.3,3.8-3.5c1.1-1,2.3-1.9,3.3-2.7C13.6,5.8,12.9,6.5,12,7.2z M18,5.6c-0.7,0.7-1.5,1.5-2.3,2.2
			c-1.6,1.5-3.2,2.8-4.8,4c1.1-1.1,2.4-2.3,3.8-3.5C15.8,7.4,16.9,6.5,18,5.6z M8.2,13.7c1.5-1.8,3.3-3.6,5.3-5.5
			c0.9-0.8,1.8-1.6,2.7-2.3c-1,1-2,2-3,3C11.5,10.5,9.9,12.1,8.2,13.7z M8.6,15.4c1.6-1.6,3.4-3.2,5.2-4.9c1.5-1.3,2.9-2.5,4.3-3.7
			C17,7.9,15.8,9,14.6,10.1C12.5,12,10.5,13.7,8.6,15.4z M8.8,16.4c1.1-1.3,2.5-2.8,4.3-4.3c1.4-1.2,2.8-2.2,4.1-3.1
			c-1.1,1-2.2,2-3.4,3C12.2,13.5,10.5,15,8.8,16.4z M17.2,10.5c-1.2,1.1-2.5,2.2-3.7,3.1c0.2-0.2,0.4-0.4,0.7-0.6
			c0.8-0.7,1.6-1.5,2.3-2.2c-0.1,0.1-0.2,0.2-0.3,0.2c-0.1,0.1-0.1,0.1-0.2,0.2c-1.3,1.1-2.5,2.3-3.7,3.4c-0.9,0.8-1.9,1.5-2.8,2.2
			c1.1-1.1,2.4-2.3,3.8-3.5c1-0.9,2-1.7,3-2.5c1.1-0.9,2.1-1.8,3.1-2.6C18.8,9,18,9.8,17.2,10.5z"/>
	</defs>
	<clipPath id="SVGID_2_">
		<use xlink:href="#SVGID_1_"  style="overflow:visible;"/>
	</clipPath>
	<polygon class="st1" points="4.5,2.8 0.5,15 3.1,15 4.2,11.8 8,11.8 9,15 11.6,15 7.6,2.8 	"/>
	<path class="st1" d="M6.1,4.5c0,0.2,0.1,0.4,0.1,0.7C6.3,5.5,6.3,5.8,6.4,6c0.1,0.3,0.1,0.5,0.2,0.7C6.7,7,6.7,7.2,6.8,7.3l0.8,2.4
		h-3l0.8-2.4c0-0.1,0-0.2,0.1-0.3c0-0.1,0.1-0.3,0.1-0.4c0-0.2,0.1-0.3,0.1-0.5c0.1-0.2,0.1-0.4,0.1-0.6C5.9,5.3,5.9,5.1,6,4.9
		C6,4.8,6,4.6,6.1,4.5L6.1,4.5z"/>
</g>
</svg>
