<?xml version="1.0" encoding="utf-8"?>
<!-- Generator: Adobe Illustrator 23.0.0, SVG Export Plug-In . SVG Version: 6.00 Build 0)  -->
<svg version="1.1" id="Layer_1" xmlns="http://www.w3.org/2000/svg" xmlns:xlink="http://www.w3.org/1999/xlink" x="0px" y="0px"
	 viewBox="0 0 16 16" style="enable-background:new 0 0 16 16;" xml:space="preserve">
<style type="text/css">
	.st0{clip-path:url(#SVGID_2_);fill-rule:evenodd;clip-rule:evenodd;fill:#F75049;}
</style>
<g>
	<defs>
		<path id="SVGID_1_" d="M22.2,6c-0.1-0.1-0.3,0-0.6-0.2c-0.2-0.2-0.2-0.3-0.3-0.4C20.9,5.1,20,5.9,20,5.8c0,0,0.4-0.3,0.7-0.7
			c0.2-0.2,0.6-0.7,0.5-1C21.2,4,21,4,21,3.8c0-0.3,0.5-0.4,0.4-0.7c0-0.2-0.2-0.3-0.3-0.3C20.8,2.6,20.3,3,20.3,3
			c0,0,0.3-0.2,0.4-0.5c0-0.1,0.2-0.3,0.1-0.5c-0.1-0.1-0.3-0.1-0.4-0.1c-0.1,0-0.2,0.1-0.2,0c0,0,0-0.1,0-0.2
			c0-0.2-0.3-0.3-0.6-0.3c-0.5,0-0.9,0.5-1,0.4c-0.1-0.1,0.5-0.5,0.4-0.9c0-0.1-0.2-0.3-0.4-0.3c-0.3,0-0.4,0.3-0.5,0.3
			C17.9,1,18.2,0.3,18,0.2c-0.1-0.1-0.3,0.1-0.6,0C17.3,0.1,17.2,0,17.1,0c-0.3-0.1-0.8,0.4-1.3,0.9c-0.2,0.2-0.6,0.5-1.1,0.8
			C15,1.4,15.2,1.2,15.4,1C15.8,0.5,16,0.4,16,0c0-0.1,0-0.4-0.2-0.4c-0.2-0.1-0.4,0.2-1.1,0.6c-0.2,0.1-0.3,0.2-0.4,0.3
			c0,0,0.3-0.4,0.2-0.7c0,0-0.1-0.2-0.2-0.3c-0.4-0.3-1.1-0.2-1.2-0.2c-0.9,0.2-1.1,0.8-2.1,1.3c0,0-0.1,0.1-0.3,0.2
			c-0.4,0.2-0.6,0.3-0.7,0.4C9.7,1.4,9.5,1.6,9.4,1.8C9.3,2.1,9.4,2.3,9.2,2.4C9.1,2.6,8.9,2.6,8.9,2.6C8.3,2.8,7.5,3.8,7.4,3.9
			C7,4.5,5.7,5.8,2.2,9C7,4,8.4,2.4,8.5,2.3c0,0,0,0,0,0c0-0.1,0.2-0.4,0-0.6c-0.1-0.1-0.2,0-0.3-0.1c0,0,0-0.1,0-0.1
			c0-0.2,0.4-0.2,0.4-0.3c0,0-0.1-0.1-0.2-0.1C8.1,0.9,8.1,0.8,8,0.8C7.7,0.7,7.5,0.8,7.3,0.9C7.1,1,7,1.2,6.9,1.1c0,0,0-0.2,0-0.3
			C6.8,0.8,6.7,0.8,6.6,0.8C6.2,0.8,6.1,1.1,6,1C5.9,1,6,0.8,5.9,0.7C5.8,0.6,5.7,0.6,5.5,0.5C5.3,0.4,5.4,0.2,5.2,0
			C5.2-0.1,5-0.3,4.8-0.4c-0.2-0.1-0.3,0-0.5-0.1C4-0.5,4-0.7,3.8-0.7c-0.2,0-0.3,0-0.4,0.1C3.1-0.5,3.1-0.3,2.9-0.3
			c-0.2,0-0.2-0.2-0.5-0.2c-0.1,0-0.2,0-0.3,0C2-0.4,2.2-0.2,2,0C2,0,1.8,0,1.8,0C1.7-0.1,1.7-0.2,1.6-0.2C1.4-0.4,0.5-0.2,0.2,0.4
			c0,0.1-0.1,0.2-0.2,0.3c-0.2,0.1-0.3,0-0.5,0c-0.3,0-0.5,0.2-1.1,1c0,0-0.1,0.1-0.6,0.6c-0.9,1-1,1.1-1.1,1.4c0,0.5,0,0.7,0,0.7
			c0,0.1,0.1,0.3,0,0.4c-0.1,0.1-0.1,0-0.2,0.1c-0.1,0.1,0.1,0.4,0,0.8c0,0,0,0,0,0.3c-0.1,0.5-0.1,0.6,0,0.7
			c0.1,0.1,0.2,0.1,0.3,0.1c0.2,0,0.3-0.1,0.4-0.1c0.4-0.5,0.8-0.9,1.1-1.4C-1.7,5.5-1.9,5.8-2,5.9c-0.2,0.2-0.3,0.4-0.5,0.7
			c0,0.1-0.1,0.2-0.2,0.4c-0.1,0.2-0.2,0.5-0.1,0.8c0,0.1,0.1,0.2,0.1,0.3c0,0.2,0,0.3,0,0.4c0,0.1,0.1,0.1,0.2,0.1
			c0.1,0.1,0,0.3,0,0.6c0,0.2,0.1,0.1,0.1,0.3c0.1,0.3-0.1,0.4,0,0.7c0,0.1,0,0.2,0.1,0.3c0.1,0.1,0.4-0.1,0.6,0
			c0.2,0.1,0.1,0.3,0.3,0.4c0.1,0,0.2-0.1,0.4,0c0,0,0.3,0,0.3,0.1c0,0.1-0.1,0.3-0.3,0.4c-0.4,0.2-0.8-0.1-0.9,0
			c0,0.1,0.1,0.2,0.2,0.3c1,0.9,1,1,1.3,1.2C0.2,13,0.1,13,0.5,13.2c0.5,0.3,1.1,0.6,1.1,1c0,0.2-0.2,0.3-0.1,0.6
			c0,0.2,0.1,0.5,0.3,0.6c0.2,0.1,0.3-0.1,0.6-0.1c0.3,0,0.3,0.2,0.6,0.3c0.4,0,0.5-0.4,0.8-0.4c0.2,0,0.2,0.2,0.4,0.3
			c0.2,0.1,0.4,0,0.5,0c1-1.1,2.6-2.7,4.6-4.8c1.6-1.7,2.1-2.2,3-3.1c2.6-2.5,5.4-4.5,5.5-4.3c0.1,0.1-1.2,1.3-5.5,5.4
			c-3,2.8-5.4,5.2-7.1,6.8c0,0.3,0.1,0.5,0.2,0.5c0.2,0.1,0.5-0.2,0.8,0c0.1,0.1,0.3,0.2,0.3,0.4c0,0.2,0,0.3,0.1,0.4
			c0.1,0.1,0.1,0,0.2,0.1C7,17,6.9,17.2,7.1,17.3c0.2,0.1,0.4,0,0.4,0.2c0,0.1,0,0.1,0,0.3c0,0.1,0.2,0.1,0.2,0.3
			c0,0.2-0.3,0.3-0.3,0.6c0,0.2,0.1,0.2,0.1,0.5c0,0.5-0.6,0.6-0.5,0.9c0,0.2,0.2,0.4,0.4,0.5c0.3,0,0.5-0.4,0.8-0.4
			c0.4,0,0.6,0.6,0.9,0.5c0.3,0,0.3-0.4,0.6-0.4c0.2,0,0.3,0.1,0.4,0c0.1-0.1,0.1-0.2,0.3-0.3c0.1,0,0.1,0,0.2,0
			c0.2,0,0.6-0.4,0.7-0.8c0.1-0.4,0-0.5,0.2-0.8c0.1-0.2,0.3-0.3,0.4-0.4c0.5-0.4,1.2-1,1.8-1.6c0.8-0.8,0.9-1.1,1.5-1.4
			c0.1,0,0.3-0.1,0.5-0.3c0.3-0.3,0.4-0.6,0.6-0.8c0.4-0.8,0.8-0.8,1.7-2c0-0.1,0.2-0.3,0.2-0.4c-0.1-0.1-1.2,1.1-1.4,1
			c-0.1-0.1-0.1-0.2-0.1-0.2c0.1-0.6,0.8-0.8,1.9-1.7c0.3-0.2,0.2-0.2,0.5-0.5c0.8-0.7,1.7-1.3,2-1.7C20.9,8.1,21,7.8,21,7.8
			c0-0.1,0-0.1,0.1-0.2c0.1-0.3,0.2-0.4,0.7-0.9C22.2,6.2,22.2,6.1,22.2,6z M5.2,5.3C4.9,5.6,4.6,5.9,4.3,6.1
			c0.2-0.3,0.4-0.6,0.8-0.9c0.1-0.1,0.3-0.2,0.4-0.3C5.5,5,5.4,5.1,5.2,5.3z M5,4c0.5-0.5,1-1,1.4-1.4c-0.3,0.5-0.8,1-1.3,1.5
			C4.8,4.4,4.5,4.7,4.2,5C4.5,4.7,4.7,4.4,5,4z M-0.5,4c0.1-0.2,0.2-0.4,0.4-0.6C0,3.3,0.1,3.2,0.1,3.2C0.1,3.2,0,3.3,0,3.4
			C-0.2,3.7-0.4,3.9-0.5,4z M0.3,12.1c-0.1,0.1-0.2,0.2-0.3,0.2c0,0,0-0.2,0.1-0.3c0.1-0.1,0.3-0.2,0.3-0.2
			C0.4,11.9,0.4,12,0.3,12.1z M0,7.5c0.3-0.4,0.7-0.8,1-1.2c0,0.1,0,0.2,0,0.3C0.7,6.9,0.3,7.2,0,7.5z M1.7,13.5
			c0,0-0.2-0.2-0.5-0.6C1.1,12.8,1,12.7,1,12.6c0-0.1,0.1-0.1,0.2-0.2c0.1-0.1,0.3-0.2,0.4-0.5c0,0.2-0.1,0.3-0.1,0.4
			c0,0.1-0.1,0.2-0.1,0.3c0,0.1,0.1,0,0.1,0.1c0.1,0.1,0,0.2,0,0.3C1.6,13.3,1.8,13.5,1.7,13.5z M1.6,2.2C1.7,2,1.8,1.8,2.1,1.6
			c0.1-0.1,0.2-0.2,0.2-0.2c0,0.1-0.1,0.2-0.2,0.3C2,1.9,1.8,2.1,1.6,2.2z M4.4,8.8c1-1.3,2.3-2.8,3.8-4.2c1.1-1.1,2.2-2,3.2-2.8
			C10.7,2.5,10,3.2,9.2,3.9C7.5,5.6,5.9,7.2,4.4,8.8z M9.4,4.6c0.8-0.8,1.6-1.5,2.4-2c-0.4,0.5-0.9,1-1.4,1.6C9.2,5.3,8.1,6.5,7,7.5
			C7.6,6.6,8.3,5.6,9.4,4.6z M11.2,6.4c1.1-0.9,2.2-1.8,3.2-2.6c-0.7,0.7-1.4,1.4-2.2,2.1c-1.6,1.4-3.1,2.7-4.6,3.8
			C8.7,8.6,9.9,7.5,11.2,6.4z M12.9,6.5c-1.6,1.4-3.1,2.7-4.6,3.8c1.1-1.1,2.3-2.2,3.6-3.4C13,6,14.1,5.2,15.1,4.4
			C14.4,5.1,13.7,5.8,12.9,6.5z M18.6,5c-0.7,0.7-1.4,1.4-2.2,2.1c-1.6,1.4-3.1,2.7-4.6,3.8c1.1-1.1,2.3-2.2,3.6-3.4
			C16.5,6.6,17.6,5.8,18.6,5z M9.2,12.7c1.4-1.7,3.1-3.5,5.1-5.3c0.9-0.8,1.8-1.5,2.6-2.2c-1,1-1.9,1.9-2.9,2.9
			C12.4,9.7,10.8,11.2,9.2,12.7z M9.5,14.3c1.6-1.5,3.2-3.1,5-4.7c1.4-1.3,2.8-2.4,4.2-3.5c-1.1,1.1-2.3,2.1-3.4,3.2
			C13.4,11.1,11.4,12.7,9.5,14.3z M9.8,15.4c1.1-1.3,2.5-2.7,4.1-4.1c1.4-1.2,2.7-2.2,4-3c-1.1,1-2.2,1.9-3.3,2.9
			C13,12.5,11.4,13.9,9.8,15.4z M17.8,9.6c-1.2,1.1-2.4,2.1-3.6,3c0.2-0.2,0.4-0.4,0.6-0.6c0.8-0.7,1.5-1.4,2.2-2.1
			c-0.1,0.1-0.2,0.1-0.3,0.2c-0.1,0-0.1,0.1-0.2,0.2c-1.3,1.1-2.4,2.2-3.5,3.3c-0.9,0.8-1.8,1.5-2.7,2.1c1.1-1.1,2.3-2.2,3.6-3.4
			c1-0.9,2-1.7,2.9-2.4c1-0.9,2.1-1.7,3-2.5C19.4,8.2,18.6,8.9,17.8,9.6z"/>
	</defs>
	<clipPath id="SVGID_2_">
		<use xlink:href="#SVGID_1_"  style="overflow:visible;"/>
	</clipPath>
	<path class="st0" d="M1.9,14.1C1.1,12.2,0,10.5,0,7.3C0,4,2.8,1.9,5,1.9c2.7,0,5,2.3,5.2,4.1c0.1,1.7-0.5,4.2-3.6,4.1
		c-1.5,0-3-1.3-3-3.2c0-2.1,2.6-2.3,3.2-1.7C7,5.4,7,5.8,6.8,5.8C5.4,5.3,4.5,6.2,4.6,7.1c0.1,1.2,0.8,1.9,2.1,2
		C8.5,9.2,9.1,7.4,9,6.6C9,5.7,8.2,3.9,5.8,3.6C4.6,3.4,3.7,3.8,3,4.4C2.3,5.1,1.9,5.8,1.8,6.9C1.8,8.1,2,8.8,2.7,10.3
		c0.3,0.6,1,1.7,1.5,2.8L1.9,14.1z"/>
	<path class="st0" d="M14.1,1.9C14.9,3.8,16,5.6,16,8.7c0,3.3-2.8,5.4-5,5.4c-2.7,0-5-2.3-5.2-4.1C5.7,8.3,6.3,5.8,9.4,5.8
		c1.5,0,3,1.3,3,3.2c0,2.1-2.6,2.3-3.2,1.7c-0.3-0.2-0.2-0.6,0-0.5c1.4,0.5,2.3-0.4,2.2-1.3c-0.1-1.2-0.8-1.9-2.1-2
		C7.5,6.8,6.9,8.6,7,9.4c0.1,0.9,0.8,2.7,3.3,3.1c1.1,0.2,2.1-0.2,2.8-0.9c0.7-0.7,1.1-1.4,1.1-2.5c0.1-1.2-0.2-1.9-0.9-3.4
		c-0.3-0.6-1-1.7-1.5-2.8L14.1,1.9z"/>
	<path class="st0" d="M5,1.9C2.8,1.9,0,4,0,7.3c0,3.2,1.1,4.9,1.9,6.8l2.4-1c-0.2-0.4-0.4-0.8-0.7-1.2H3.1v-0.9
		c-0.1-0.2-0.2-0.4-0.3-0.6C2,8.8,1.8,8.1,1.8,6.9C1.9,5.8,2.3,5.1,3,4.4c0.7-0.7,1.6-1,2.8-0.9c1.1,0.2,1.9,0.7,2.4,1.2h0.5v0.7
		C8.9,5.9,9,6.3,9,6.6C9,7,8.9,7.5,8.7,8v1.7c1.3-0.8,1.6-2.4,1.5-3.6C10,4.2,7.7,1.9,5,1.9L5,1.9z"/>
</g>
</svg>
