<?xml version="1.0" encoding="utf-8"?>
<!-- Generator: Adobe Illustrator 23.0.0, SVG Export Plug-In . SVG Version: 6.00 Build 0)  -->
<svg version="1.1" id="Layer_1" xmlns="http://www.w3.org/2000/svg" xmlns:xlink="http://www.w3.org/1999/xlink" x="0px" y="0px"
	 viewBox="0 0 16 16" style="enable-background:new 0 0 16 16;" xml:space="preserve">
<style type="text/css">
	.st0{fill:#F75049;}
</style>
<g transform="translate(-472,-180)">
	<path class="st0" d="M480.2,185c-0.3,0.3-0.7,0.7-1,1h0.6c0.4-0.3,0.7-0.7,1.1-1H480.2z M476,187v1h0.1c0.4-0.4,0.7-0.7,0.9-1H476z
		 M479.2,187c-0.4,0.3-0.7,0.7-1.1,1h0.8c0.3-0.3,0.7-0.7,1-1H479.2z M480.3,187c-0.4,0.3-0.8,0.7-1.3,1h1.2
		c0.3-0.3,0.6-0.5,0.9-0.8l0.2-0.2H480.3z M481.7,187c-0.4,0.3-0.7,0.7-1.1,1h0.8c0.4-0.4,0.9-0.7,1.3-1H481.7z M483.4,187.7
		l-0.2,0.1c0,0-0.1,0.1-0.2,0.1h0.1c0.2-0.2,0.3-0.3,0.5-0.5C483.6,187.6,483.5,187.6,483.4,187.7z M483.1,187
		c-0.4,0.3-0.8,0.7-1.1,1h1c0.2-0.2,0.4-0.3,0.6-0.5c0.1-0.1,0.3-0.2,0.4-0.4V187H483.1z M483.5,188h0.5v-0.5
		C483.8,187.7,483.7,187.8,483.5,188z M478.1,187c-0.4,0.3-0.7,0.7-1,1h0.7c0.3-0.3,0.6-0.7,1-1H478.1z M480.2,185
		c-0.3,0.3-0.7,0.7-1,1h0.6c0.4-0.3,0.7-0.7,1.1-1H480.2z M478.4,185c-0.4,0.3-0.8,0.7-1.2,1h0.8c0.3-0.3,0.5-0.5,0.8-0.8
		c0.1,0,0.1-0.1,0.2-0.2H478.4z M476,185v0.5c0.2-0.2,0.4-0.3,0.5-0.5H476z M477,185c-0.3,0.3-0.6,0.5-1,0.8v0.2h0.8
		c0.4-0.3,0.7-0.7,1.1-1H477z M482.6,185c-0.4,0.3-0.8,0.7-1.1,1h1c0.4-0.3,0.8-0.7,1.2-1H482.6z M483.8,185c-0.3,0.3-0.7,0.7-1.1,1
		h1.2v-1H483.8z M481.2,185c-0.2,0.2-0.4,0.5-0.7,0.7c-0.1,0.1-0.2,0.2-0.4,0.3h0.8c0.3-0.3,0.7-0.6,1-0.9c0,0,0.1-0.1,0.1-0.1
		H481.2z M480.2,185c-0.3,0.3-0.7,0.7-1,1h0.6c0.4-0.3,0.7-0.7,1.1-1H480.2z M479.2,183c-0.2,0.2-0.3,0.3-0.5,0.5
		c-0.2,0.2-0.4,0.4-0.6,0.5h1c0.4-0.3,0.8-0.7,1.2-1H479.2z M480.6,183c-0.4,0.3-0.7,0.7-1.1,1h0.6c0.4-0.4,0.8-0.7,1.2-1H480.6z
		 M482.3,183c-0.3,0.3-0.7,0.6-1.1,1h0.7c0.4-0.3,0.8-0.7,1.2-1H482.3z M483.2,183c-0.3,0.3-0.7,0.7-1,1h1.1
		c0.2-0.2,0.5-0.4,0.7-0.6V183H483.2z M483.7,184h0.3v-0.3C483.9,183.8,483.8,183.9,483.7,184z M476,183v1h1.7c0,0,0.1,0,0.1-0.1
		c0.4-0.3,0.7-0.6,1.1-0.9H476z M478.4,185c-0.4,0.3-0.8,0.7-1.2,1h0.8c0.3-0.3,0.5-0.5,0.8-0.8c0.1,0,0.1-0.1,0.2-0.2H478.4z
		 M480.2,185c-0.3,0.3-0.7,0.7-1,1h0.6c0.4-0.3,0.7-0.7,1.1-1H480.2z M479.2,183c-0.2,0.2-0.3,0.3-0.5,0.5c-0.2,0.2-0.4,0.4-0.6,0.5
		h1c0.4-0.3,0.8-0.7,1.2-1H479.2z M480.6,183c-0.4,0.3-0.7,0.7-1.1,1h0.6c0.4-0.4,0.8-0.7,1.2-1H480.6z M482.3,183
		c-0.3,0.3-0.7,0.6-1.1,1h0.7c0.4-0.3,0.8-0.7,1.2-1H482.3z M483.2,183c-0.3,0.3-0.7,0.7-1,1h1.1c0.2-0.2,0.5-0.4,0.7-0.6V183H483.2
		z M483.7,184h0.3v-0.3C483.9,183.8,483.8,183.9,483.7,184z M476,183v1h1.7c0,0,0.1,0,0.1-0.1c0.4-0.3,0.7-0.6,1.1-0.9H476z
		 M478.4,185c-0.4,0.3-0.8,0.7-1.2,1h0.8c0.3-0.3,0.5-0.5,0.8-0.8c0.1,0,0.1-0.1,0.2-0.2H478.4z M476,185v0.5
		c0.2-0.2,0.4-0.3,0.5-0.5H476z M477,185c-0.3,0.3-0.6,0.5-1,0.8v0.2h0.8c0.4-0.3,0.7-0.7,1.1-1H477z M482.6,185
		c-0.4,0.3-0.8,0.7-1.1,1h1c0.4-0.3,0.8-0.7,1.2-1H482.6z M483.8,185c-0.3,0.3-0.7,0.7-1.1,1h1.2v-1H483.8z M481.2,185
		c-0.2,0.2-0.4,0.5-0.7,0.7c-0.1,0.1-0.2,0.2-0.4,0.3h0.8c0.3-0.3,0.7-0.6,1-0.9c0,0,0.1-0.1,0.1-0.1H481.2z M480.2,185
		c-0.3,0.3-0.7,0.7-1,1h0.6c0.4-0.3,0.7-0.7,1.1-1H480.2z M480.2,185c-0.3,0.3-0.7,0.7-1,1h0.6c0.4-0.3,0.7-0.7,1.1-1H480.2z
		 M476,187v1h0.1c0.4-0.4,0.7-0.7,0.9-1H476z M479.2,187c-0.4,0.3-0.7,0.7-1.1,1h0.8c0.3-0.3,0.7-0.7,1-1H479.2z M480.3,187
		c-0.4,0.3-0.8,0.7-1.3,1h1.2c0.3-0.3,0.6-0.5,0.9-0.8l0.2-0.2H480.3z M481.7,187c-0.4,0.3-0.7,0.7-1.1,1h0.8c0.4-0.4,0.9-0.7,1.3-1
		H481.7z M483.4,187.7l-0.2,0.1c0,0-0.1,0.1-0.2,0.1h0.1c0.2-0.2,0.3-0.3,0.5-0.5C483.6,187.6,483.5,187.6,483.4,187.7z M483.1,187
		c-0.4,0.3-0.8,0.7-1.1,1h1c0.2-0.2,0.4-0.3,0.6-0.5c0.1-0.1,0.3-0.2,0.4-0.4V187H483.1z M483.5,188h0.5v-0.5
		C483.8,187.7,483.7,187.8,483.5,188z M478.1,187c-0.4,0.3-0.7,0.7-1,1h0.7c0.3-0.3,0.6-0.7,1-1H478.1z M476,187v1h0.1
		c0.4-0.4,0.7-0.7,0.9-1H476z M479.2,187c-0.4,0.3-0.7,0.7-1.1,1h0.8c0.3-0.3,0.7-0.7,1-1H479.2z M480.3,187c-0.4,0.3-0.8,0.7-1.3,1
		h1.2c0.3-0.3,0.6-0.5,0.9-0.8l0.2-0.2H480.3z M481.7,187c-0.4,0.3-0.7,0.7-1.1,1h0.8c0.4-0.4,0.9-0.7,1.3-1H481.7z M483.4,187.7
		l-0.2,0.1c0,0-0.1,0.1-0.2,0.1h0.1c0.2-0.2,0.3-0.3,0.5-0.5C483.6,187.6,483.5,187.6,483.4,187.7z M483.1,187
		c-0.4,0.3-0.8,0.7-1.1,1h1c0.2-0.2,0.4-0.3,0.6-0.5c0.1-0.1,0.3-0.2,0.4-0.4V187H483.1z M483.5,188h0.5v-0.5
		C483.8,187.7,483.7,187.8,483.5,188z M478.1,187c-0.4,0.3-0.7,0.7-1,1h0.7c0.3-0.3,0.6-0.7,1-1H478.1z M479.2,183
		c-0.2,0.2-0.3,0.3-0.5,0.5c-0.2,0.2-0.4,0.4-0.6,0.5h1c0.4-0.3,0.8-0.7,1.2-1H479.2z M480.6,183c-0.4,0.3-0.7,0.7-1.1,1h0.6
		c0.4-0.4,0.8-0.7,1.2-1H480.6z M482.3,183c-0.3,0.3-0.7,0.6-1.1,1h0.7c0.4-0.3,0.8-0.7,1.2-1H482.3z M483.2,183
		c-0.3,0.3-0.7,0.7-1,1h1.1c0.2-0.2,0.5-0.4,0.7-0.6V183H483.2z M483.7,184h0.3v-0.3C483.9,183.8,483.8,183.9,483.7,184z M476,183v1
		h1.7c0,0,0.1,0,0.1-0.1c0.4-0.3,0.7-0.6,1.1-0.9H476z M478.4,185c-0.4,0.3-0.8,0.7-1.2,1h0.8c0.3-0.3,0.5-0.5,0.8-0.8
		c0.1,0,0.1-0.1,0.2-0.2H478.4z M476,185v0.5c0.2-0.2,0.4-0.3,0.5-0.5H476z M477,185c-0.3,0.3-0.6,0.5-1,0.8v0.2h0.8
		c0.4-0.3,0.7-0.7,1.1-1H477z M482.6,185c-0.4,0.3-0.8,0.7-1.1,1h1c0.4-0.3,0.8-0.7,1.2-1H482.6z M483.8,185c-0.3,0.3-0.7,0.7-1.1,1
		h1.2v-1H483.8z M481.2,185c-0.2,0.2-0.4,0.5-0.7,0.7c-0.1,0.1-0.2,0.2-0.4,0.3h0.8c0.3-0.3,0.7-0.6,1-0.9c0,0,0.1-0.1,0.1-0.1
		H481.2z M480.2,185c-0.3,0.3-0.7,0.7-1,1h0.6c0.4-0.3,0.7-0.7,1.1-1H480.2z M479.2,183c-0.2,0.2-0.3,0.3-0.5,0.5
		c-0.2,0.2-0.4,0.4-0.6,0.5h1c0.4-0.3,0.8-0.7,1.2-1H479.2z M480.6,183c-0.4,0.3-0.7,0.7-1.1,1h0.6c0.4-0.4,0.8-0.7,1.2-1H480.6z
		 M482.3,183c-0.3,0.3-0.7,0.6-1.1,1h0.7c0.4-0.3,0.8-0.7,1.2-1H482.3z M483.2,183c-0.3,0.3-0.7,0.7-1,1h1.1
		c0.2-0.2,0.5-0.4,0.7-0.6V183H483.2z M483.7,184h0.3v-0.3C483.9,183.8,483.8,183.9,483.7,184z M476,183v1h1.7c0,0,0.1,0,0.1-0.1
		c0.4-0.3,0.7-0.6,1.1-0.9H476z M478.4,185c-0.4,0.3-0.8,0.7-1.2,1h0.8c0.3-0.3,0.5-0.5,0.8-0.8c0.1,0,0.1-0.1,0.2-0.2H478.4z
		 M476,185v0.5c0.2-0.2,0.4-0.3,0.5-0.5H476z M477,185c-0.3,0.3-0.6,0.5-1,0.8v0.2h0.8c0.4-0.3,0.7-0.7,1.1-1H477z M482.6,185
		c-0.4,0.3-0.8,0.7-1.1,1h1c0.4-0.3,0.8-0.7,1.2-1H482.6z M483.8,185c-0.3,0.3-0.7,0.7-1.1,1h1.2v-1H483.8z M481.2,185
		c-0.2,0.2-0.4,0.5-0.7,0.7c-0.1,0.1-0.2,0.2-0.4,0.3h0.8c0.3-0.3,0.7-0.6,1-0.9c0,0,0.1-0.1,0.1-0.1H481.2z M480.2,185
		c-0.3,0.3-0.7,0.7-1,1h0.6c0.4-0.3,0.7-0.7,1.1-1H480.2z M476,187v1h0.1c0.4-0.4,0.7-0.7,0.9-1H476z M479.2,187
		c-0.4,0.3-0.7,0.7-1.1,1h0.8c0.3-0.3,0.7-0.7,1-1H479.2z M480.3,187c-0.4,0.3-0.8,0.7-1.3,1h1.2c0.3-0.3,0.6-0.5,0.9-0.8l0.2-0.2
		H480.3z M481.7,187c-0.4,0.3-0.7,0.7-1.1,1h0.8c0.4-0.4,0.9-0.7,1.3-1H481.7z M483.4,187.7l-0.2,0.1c0,0-0.1,0.1-0.2,0.1h0.1
		c0.2-0.2,0.3-0.3,0.5-0.5C483.6,187.6,483.5,187.6,483.4,187.7z M483.1,187c-0.4,0.3-0.8,0.7-1.1,1h1c0.2-0.2,0.4-0.3,0.6-0.5
		c0.1-0.1,0.3-0.2,0.4-0.4V187H483.1z M483.5,188h0.5v-0.5C483.8,187.7,483.7,187.8,483.5,188z M478.1,187c-0.4,0.3-0.7,0.7-1,1h0.7
		c0.3-0.3,0.6-0.7,1-1H478.1z M476,187v1h0.1c0.4-0.4,0.7-0.7,0.9-1H476z M479.2,187c-0.4,0.3-0.7,0.7-1.1,1h0.8
		c0.3-0.3,0.7-0.7,1-1H479.2z M480.3,187c-0.4,0.3-0.8,0.7-1.3,1h1.2c0.3-0.3,0.6-0.5,0.9-0.8l0.2-0.2H480.3z M481.7,187
		c-0.4,0.3-0.7,0.7-1.1,1h0.8c0.4-0.4,0.9-0.7,1.3-1H481.7z M483.4,187.7l-0.2,0.1c0,0-0.1,0.1-0.2,0.1h0.1c0.2-0.2,0.3-0.3,0.5-0.5
		C483.6,187.6,483.5,187.6,483.4,187.7z M483.1,187c-0.4,0.3-0.8,0.7-1.1,1h1c0.2-0.2,0.4-0.3,0.6-0.5c0.1-0.1,0.3-0.2,0.4-0.4V187
		H483.1z M483.5,188h0.5v-0.5C483.8,187.7,483.7,187.8,483.5,188z M478.1,187c-0.4,0.3-0.7,0.7-1,1h0.7c0.3-0.3,0.6-0.7,1-1H478.1z
		 M479.2,183c-0.2,0.2-0.3,0.3-0.5,0.5c-0.2,0.2-0.4,0.4-0.6,0.5h1c0.4-0.3,0.8-0.7,1.2-1H479.2z M480.6,183c-0.4,0.3-0.7,0.7-1.1,1
		h0.6c0.4-0.4,0.8-0.7,1.2-1H480.6z M482.3,183c-0.3,0.3-0.7,0.6-1.1,1h0.7c0.4-0.3,0.8-0.7,1.2-1H482.3z M483.2,183
		c-0.3,0.3-0.7,0.7-1,1h1.1c0.2-0.2,0.5-0.4,0.7-0.6V183H483.2z M483.7,184h0.3v-0.3C483.9,183.8,483.8,183.9,483.7,184z M476,183v1
		h1.7c0,0,0.1,0,0.1-0.1c0.4-0.3,0.7-0.6,1.1-0.9H476z M478.4,185c-0.4,0.3-0.8,0.7-1.2,1h0.8c0.3-0.3,0.5-0.5,0.8-0.8
		c0.1,0,0.1-0.1,0.2-0.2H478.4z M476,185v0.5c0.2-0.2,0.4-0.3,0.5-0.5H476z M477,185c-0.3,0.3-0.6,0.5-1,0.8v0.2h0.8
		c0.4-0.3,0.7-0.7,1.1-1H477z M482.6,185c-0.4,0.3-0.8,0.7-1.1,1h1c0.4-0.3,0.8-0.7,1.2-1H482.6z M483.8,185c-0.3,0.3-0.7,0.7-1.1,1
		h1.2v-1H483.8z M481.2,185c-0.2,0.2-0.4,0.5-0.7,0.7c-0.1,0.1-0.2,0.2-0.4,0.3h0.8c0.3-0.3,0.7-0.6,1-0.9c0,0,0.1-0.1,0.1-0.1
		H481.2z M480.2,185c-0.3,0.3-0.7,0.7-1,1h0.6c0.4-0.3,0.7-0.7,1.1-1H480.2z M479.2,183c-0.2,0.2-0.3,0.3-0.5,0.5
		c-0.2,0.2-0.4,0.4-0.6,0.5h1c0.4-0.3,0.8-0.7,1.2-1H479.2z M480.6,183c-0.4,0.3-0.7,0.7-1.1,1h0.6c0.4-0.4,0.8-0.7,1.2-1H480.6z
		 M482.3,183c-0.3,0.3-0.7,0.6-1.1,1h0.7c0.4-0.3,0.8-0.7,1.2-1H482.3z M483.2,183c-0.3,0.3-0.7,0.7-1,1h1.1
		c0.2-0.2,0.5-0.4,0.7-0.6V183H483.2z M483.7,184h0.3v-0.3C483.9,183.8,483.8,183.9,483.7,184z M476,183v1h1.7c0,0,0.1,0,0.1-0.1
		c0.4-0.3,0.7-0.6,1.1-0.9H476z M478.4,185c-0.4,0.3-0.8,0.7-1.2,1h0.8c0.3-0.3,0.5-0.5,0.8-0.8c0.1,0,0.1-0.1,0.2-0.2H478.4z
		 M476,185v0.5c0.2-0.2,0.4-0.3,0.5-0.5H476z M477,185c-0.3,0.3-0.6,0.5-1,0.8v0.2h0.8c0.4-0.3,0.7-0.7,1.1-1H477z M482.6,185
		c-0.4,0.3-0.8,0.7-1.1,1h1c0.4-0.3,0.8-0.7,1.2-1H482.6z M483.8,185c-0.3,0.3-0.7,0.7-1.1,1h1.2v-1H483.8z M481.2,185
		c-0.2,0.2-0.4,0.5-0.7,0.7c-0.1,0.1-0.2,0.2-0.4,0.3h0.8c0.3-0.3,0.7-0.6,1-0.9c0,0,0.1-0.1,0.1-0.1H481.2z M480.2,185
		c-0.3,0.3-0.7,0.7-1,1h0.6c0.4-0.3,0.7-0.7,1.1-1H480.2z M476,187v1h0.1c0.4-0.4,0.7-0.7,0.9-1H476z M479.2,187
		c-0.4,0.3-0.7,0.7-1.1,1h0.8c0.3-0.3,0.7-0.7,1-1H479.2z M480.3,187c-0.4,0.3-0.8,0.7-1.3,1h1.2c0.3-0.3,0.6-0.5,0.9-0.8l0.2-0.2
		H480.3z M481.7,187c-0.4,0.3-0.7,0.7-1.1,1h0.8c0.4-0.4,0.9-0.7,1.3-1H481.7z M483.4,187.7l-0.2,0.1c0,0-0.1,0.1-0.2,0.1h0.1
		c0.2-0.2,0.3-0.3,0.5-0.5C483.6,187.6,483.5,187.6,483.4,187.7z M483.1,187c-0.4,0.3-0.8,0.7-1.1,1h1c0.2-0.2,0.4-0.3,0.6-0.5
		c0.1-0.1,0.3-0.2,0.4-0.4V187H483.1z M483.5,188h0.5v-0.5C483.8,187.7,483.7,187.8,483.5,188z M478.1,187c-0.4,0.3-0.7,0.7-1,1h0.7
		c0.3-0.3,0.6-0.7,1-1H478.1z M476,187v1h0.1c0.4-0.4,0.7-0.7,0.9-1H476z M479.2,187c-0.4,0.3-0.7,0.7-1.1,1h0.8
		c0.3-0.3,0.7-0.7,1-1H479.2z M480.3,187c-0.4,0.3-0.8,0.7-1.3,1h1.2c0.3-0.3,0.6-0.5,0.9-0.8l0.2-0.2H480.3z M481.7,187
		c-0.4,0.3-0.7,0.7-1.1,1h0.8c0.4-0.4,0.9-0.7,1.3-1H481.7z M483.4,187.7l-0.2,0.1c0,0-0.1,0.1-0.2,0.1h0.1c0.2-0.2,0.3-0.3,0.5-0.5
		C483.6,187.6,483.5,187.6,483.4,187.7z M483.1,187c-0.4,0.3-0.8,0.7-1.1,1h1c0.2-0.2,0.4-0.3,0.6-0.5c0.1-0.1,0.3-0.2,0.4-0.4V187
		H483.1z M483.5,188h0.5v-0.5C483.8,187.7,483.7,187.8,483.5,188z M478.1,187c-0.4,0.3-0.7,0.7-1,1h0.7c0.3-0.3,0.6-0.7,1-1H478.1z
		 M479.2,183c-0.2,0.2-0.3,0.3-0.5,0.5c-0.2,0.2-0.4,0.4-0.6,0.5h1c0.4-0.3,0.8-0.7,1.2-1H479.2z M480.6,183c-0.4,0.3-0.7,0.7-1.1,1
		h0.6c0.4-0.4,0.8-0.7,1.2-1H480.6z M482.3,183c-0.3,0.3-0.7,0.6-1.1,1h0.7c0.4-0.3,0.8-0.7,1.2-1H482.3z M483.2,183
		c-0.3,0.3-0.7,0.7-1,1h1.1c0.2-0.2,0.5-0.4,0.7-0.6V183H483.2z M483.7,184h0.3v-0.3C483.9,183.8,483.8,183.9,483.7,184z M476,183v1
		h1.7c0,0,0.1,0,0.1-0.1c0.4-0.3,0.7-0.6,1.1-0.9H476z M478.4,185c-0.4,0.3-0.8,0.7-1.2,1h0.8c0.3-0.3,0.5-0.5,0.8-0.8
		c0.1,0,0.1-0.1,0.2-0.2H478.4z M476,185v0.5c0.2-0.2,0.4-0.3,0.5-0.5H476z M477,185c-0.3,0.3-0.6,0.5-1,0.8v0.2h0.8
		c0.4-0.3,0.7-0.7,1.1-1H477z M482.6,185c-0.4,0.3-0.8,0.7-1.1,1h1c0.4-0.3,0.8-0.7,1.2-1H482.6z M483.8,185c-0.3,0.3-0.7,0.7-1.1,1
		h1.2v-1H483.8z M481.2,185c-0.2,0.2-0.4,0.5-0.7,0.7c-0.1,0.1-0.2,0.2-0.4,0.3h0.8c0.3-0.3,0.7-0.6,1-0.9c0,0,0.1-0.1,0.1-0.1
		H481.2z M480.2,185c-0.3,0.3-0.7,0.7-1,1h0.6c0.4-0.3,0.7-0.7,1.1-1H480.2z M479.2,183c-0.2,0.2-0.3,0.3-0.5,0.5
		c-0.2,0.2-0.4,0.4-0.6,0.5h1c0.4-0.3,0.8-0.7,1.2-1H479.2z M480.6,183c-0.4,0.3-0.7,0.7-1.1,1h0.6c0.4-0.4,0.8-0.7,1.2-1H480.6z
		 M482.3,183c-0.3,0.3-0.7,0.6-1.1,1h0.7c0.4-0.3,0.8-0.7,1.2-1H482.3z M483.2,183c-0.3,0.3-0.7,0.7-1,1h1.1
		c0.2-0.2,0.5-0.4,0.7-0.6V183H483.2z M483.7,184h0.3v-0.3C483.9,183.8,483.8,183.9,483.7,184z M476,183v1h1.7c0,0,0.1,0,0.1-0.1
		c0.4-0.3,0.7-0.6,1.1-0.9H476z M478.4,185c-0.4,0.3-0.8,0.7-1.2,1h0.8c0.3-0.3,0.5-0.5,0.8-0.8c0.1,0,0.1-0.1,0.2-0.2H478.4z
		 M476,185v0.5c0.2-0.2,0.4-0.3,0.5-0.5H476z M477,185c-0.3,0.3-0.6,0.5-1,0.8v0.2h0.8c0.4-0.3,0.7-0.7,1.1-1H477z M482.6,185
		c-0.4,0.3-0.8,0.7-1.1,1h1c0.4-0.3,0.8-0.7,1.2-1H482.6z M483.8,185c-0.3,0.3-0.7,0.7-1.1,1h1.2v-1H483.8z M481.2,185
		c-0.2,0.2-0.4,0.5-0.7,0.7c-0.1,0.1-0.2,0.2-0.4,0.3h0.8c0.3-0.3,0.7-0.6,1-0.9c0,0,0.1-0.1,0.1-0.1H481.2z M480.2,185
		c-0.3,0.3-0.7,0.7-1,1h0.6c0.4-0.3,0.7-0.7,1.1-1H480.2z M476,187v1h0.1c0.4-0.4,0.7-0.7,0.9-1H476z M479.2,187
		c-0.4,0.3-0.7,0.7-1.1,1h0.8c0.3-0.3,0.7-0.7,1-1H479.2z M480.3,187c-0.4,0.3-0.8,0.7-1.3,1h1.2c0.3-0.3,0.6-0.5,0.9-0.8l0.2-0.2
		H480.3z M481.7,187c-0.4,0.3-0.7,0.7-1.1,1h0.8c0.4-0.4,0.9-0.7,1.3-1H481.7z M483.4,187.7l-0.2,0.1c0,0-0.1,0.1-0.2,0.1h0.1
		c0.2-0.2,0.3-0.3,0.5-0.5C483.6,187.6,483.5,187.6,483.4,187.7z M483.1,187c-0.4,0.3-0.8,0.7-1.1,1h1c0.2-0.2,0.4-0.3,0.6-0.5
		c0.1-0.1,0.3-0.2,0.4-0.4V187H483.1z M483.5,188h0.5v-0.5C483.8,187.7,483.7,187.8,483.5,188z M478.1,187c-0.4,0.3-0.7,0.7-1,1h0.7
		c0.3-0.3,0.6-0.7,1-1H478.1z M476,187v1h0.1c0.4-0.4,0.7-0.7,0.9-1H476z M479.2,187c-0.4,0.3-0.7,0.7-1.1,1h0.8
		c0.3-0.3,0.7-0.7,1-1H479.2z M480.3,187c-0.4,0.3-0.8,0.7-1.3,1h1.2c0.3-0.3,0.6-0.5,0.9-0.8l0.2-0.2H480.3z M481.7,187
		c-0.4,0.3-0.7,0.7-1.1,1h0.8c0.4-0.4,0.9-0.7,1.3-1H481.7z M483.4,187.7l-0.2,0.1c0,0-0.1,0.1-0.2,0.1h0.1c0.2-0.2,0.3-0.3,0.5-0.5
		C483.6,187.6,483.5,187.6,483.4,187.7z M483.1,187c-0.4,0.3-0.8,0.7-1.1,1h1c0.2-0.2,0.4-0.3,0.6-0.5c0.1-0.1,0.3-0.2,0.4-0.4V187
		H483.1z M483.5,188h0.5v-0.5C483.8,187.7,483.7,187.8,483.5,188z M478.1,187c-0.4,0.3-0.7,0.7-1,1h0.7c0.3-0.3,0.6-0.7,1-1H478.1z
		 M479.2,183c-0.2,0.2-0.3,0.3-0.5,0.5c-0.2,0.2-0.4,0.4-0.6,0.5h1c0.4-0.3,0.8-0.7,1.2-1H479.2z M480.6,183c-0.4,0.3-0.7,0.7-1.1,1
		h0.6c0.4-0.4,0.8-0.7,1.2-1H480.6z M482.3,183c-0.3,0.3-0.7,0.6-1.1,1h0.7c0.4-0.3,0.8-0.7,1.2-1H482.3z M483.2,183
		c-0.3,0.3-0.7,0.7-1,1h1.1c0.2-0.2,0.5-0.4,0.7-0.6V183H483.2z M483.7,184h0.3v-0.3C483.9,183.8,483.8,183.9,483.7,184z M476,183v1
		h1.7c0,0,0.1,0,0.1-0.1c0.4-0.3,0.7-0.6,1.1-0.9H476z M478.4,185c-0.4,0.3-0.8,0.7-1.2,1h0.8c0.3-0.3,0.5-0.5,0.8-0.8
		c0.1,0,0.1-0.1,0.2-0.2H478.4z M476,185v0.5c0.2-0.2,0.4-0.3,0.5-0.5H476z M477,185c-0.3,0.3-0.6,0.5-1,0.8v0.2h0.8
		c0.4-0.3,0.7-0.7,1.1-1H477z M482.6,185c-0.4,0.3-0.8,0.7-1.1,1h1c0.4-0.3,0.8-0.7,1.2-1H482.6z M483.8,185c-0.3,0.3-0.7,0.7-1.1,1
		h1.2v-1H483.8z M481.2,185c-0.2,0.2-0.4,0.5-0.7,0.7c-0.1,0.1-0.2,0.2-0.4,0.3h0.8c0.3-0.3,0.7-0.6,1-0.9c0,0,0.1-0.1,0.1-0.1
		H481.2z M480.2,185c-0.3,0.3-0.7,0.7-1,1h0.6c0.4-0.3,0.7-0.7,1.1-1H480.2z M479.2,183c-0.2,0.2-0.3,0.3-0.5,0.5
		c-0.2,0.2-0.4,0.4-0.6,0.5h1c0.4-0.3,0.8-0.7,1.2-1H479.2z M480.6,183c-0.4,0.3-0.7,0.7-1.1,1h0.6c0.4-0.4,0.8-0.7,1.2-1H480.6z
		 M482.3,183c-0.3,0.3-0.7,0.6-1.1,1h0.7c0.4-0.3,0.8-0.7,1.2-1H482.3z M483.2,183c-0.3,0.3-0.7,0.7-1,1h1.1
		c0.2-0.2,0.5-0.4,0.7-0.6V183H483.2z M483.7,184h0.3v-0.3C483.9,183.8,483.8,183.9,483.7,184z M476,183v1h1.7c0,0,0.1,0,0.1-0.1
		c0.4-0.3,0.7-0.6,1.1-0.9H476z M478.4,185c-0.4,0.3-0.8,0.7-1.2,1h0.8c0.3-0.3,0.5-0.5,0.8-0.8c0.1,0,0.1-0.1,0.2-0.2H478.4z
		 M476,185v0.5c0.2-0.2,0.4-0.3,0.5-0.5H476z M477,185c-0.3,0.3-0.6,0.5-1,0.8v0.2h0.8c0.4-0.3,0.7-0.7,1.1-1H477z M482.6,185
		c-0.4,0.3-0.8,0.7-1.1,1h1c0.4-0.3,0.8-0.7,1.2-1H482.6z M483.8,185c-0.3,0.3-0.7,0.7-1.1,1h1.2v-1H483.8z M481.2,185
		c-0.2,0.2-0.4,0.5-0.7,0.7c-0.1,0.1-0.2,0.2-0.4,0.3h0.8c0.3-0.3,0.7-0.6,1-0.9c0,0,0.1-0.1,0.1-0.1H481.2z M480.2,185
		c-0.3,0.3-0.7,0.7-1,1h0.6c0.4-0.3,0.7-0.7,1.1-1H480.2z M476,187v1h0.1c0.4-0.4,0.7-0.7,0.9-1H476z M479.2,187
		c-0.4,0.3-0.7,0.7-1.1,1h0.8c0.3-0.3,0.7-0.7,1-1H479.2z M480.3,187c-0.4,0.3-0.8,0.7-1.3,1h1.2c0.3-0.3,0.6-0.5,0.9-0.8l0.2-0.2
		H480.3z M481.7,187c-0.4,0.3-0.7,0.7-1.1,1h0.8c0.4-0.4,0.9-0.7,1.3-1H481.7z M483.4,187.7l-0.2,0.1c0,0-0.1,0.1-0.2,0.1h0.1
		c0.2-0.2,0.3-0.3,0.5-0.5C483.6,187.6,483.5,187.6,483.4,187.7z M483.1,187c-0.4,0.3-0.8,0.7-1.1,1h1c0.2-0.2,0.4-0.3,0.6-0.5
		c0.1-0.1,0.3-0.2,0.4-0.4V187H483.1z M483.5,188h0.5v-0.5C483.8,187.7,483.7,187.8,483.5,188z M478.1,187c-0.4,0.3-0.7,0.7-1,1h0.7
		c0.3-0.3,0.6-0.7,1-1H478.1z M476,187v1h0.1c0.4-0.4,0.7-0.7,0.9-1H476z M479.2,187c-0.4,0.3-0.7,0.7-1.1,1h0.8
		c0.3-0.3,0.7-0.7,1-1H479.2z M480.3,187c-0.4,0.3-0.8,0.7-1.3,1h1.2c0.3-0.3,0.6-0.5,0.9-0.8l0.2-0.2H480.3z M481.7,187
		c-0.4,0.3-0.7,0.7-1.1,1h0.8c0.4-0.4,0.9-0.7,1.3-1H481.7z M483.4,187.7l-0.2,0.1c0,0-0.1,0.1-0.2,0.1h0.1c0.2-0.2,0.3-0.3,0.5-0.5
		C483.6,187.6,483.5,187.6,483.4,187.7z M483.1,187c-0.4,0.3-0.8,0.7-1.1,1h1c0.2-0.2,0.4-0.3,0.6-0.5c0.1-0.1,0.3-0.2,0.4-0.4V187
		H483.1z M483.5,188h0.5v-0.5C483.8,187.7,483.7,187.8,483.5,188z M478.1,187c-0.4,0.3-0.7,0.7-1,1h0.7c0.3-0.3,0.6-0.7,1-1H478.1z
		 M479.2,183c-0.2,0.2-0.3,0.3-0.5,0.5c-0.2,0.2-0.4,0.4-0.6,0.5h1c0.4-0.3,0.8-0.7,1.2-1H479.2z M480.6,183c-0.4,0.3-0.7,0.7-1.1,1
		h0.6c0.4-0.4,0.8-0.7,1.2-1H480.6z M482.3,183c-0.3,0.3-0.7,0.6-1.1,1h0.7c0.4-0.3,0.8-0.7,1.2-1H482.3z M483.2,183
		c-0.3,0.3-0.7,0.7-1,1h1.1c0.2-0.2,0.5-0.4,0.7-0.6V183H483.2z M483.7,184h0.3v-0.3C483.9,183.8,483.8,183.9,483.7,184z M476,183v1
		h1.7c0,0,0.1,0,0.1-0.1c0.4-0.3,0.7-0.6,1.1-0.9H476z M478.4,185c-0.4,0.3-0.8,0.7-1.2,1h0.8c0.3-0.3,0.5-0.5,0.8-0.8
		c0.1,0,0.1-0.1,0.2-0.2H478.4z M476,185v0.5c0.2-0.2,0.4-0.3,0.5-0.5H476z M477,185c-0.3,0.3-0.6,0.5-1,0.8v0.2h0.8
		c0.4-0.3,0.7-0.7,1.1-1H477z M482.6,185c-0.4,0.3-0.8,0.7-1.1,1h1c0.4-0.3,0.8-0.7,1.2-1H482.6z M483.8,185c-0.3,0.3-0.7,0.7-1.1,1
		h1.2v-1H483.8z M481.2,185c-0.2,0.2-0.4,0.5-0.7,0.7c-0.1,0.1-0.2,0.2-0.4,0.3h0.8c0.3-0.3,0.7-0.6,1-0.9c0,0,0.1-0.1,0.1-0.1
		H481.2z M480.2,185c-0.3,0.3-0.7,0.7-1,1h0.6c0.4-0.3,0.7-0.7,1.1-1H480.2z M479.2,183c-0.2,0.2-0.3,0.3-0.5,0.5
		c-0.2,0.2-0.4,0.4-0.6,0.5h1c0.4-0.3,0.8-0.7,1.2-1H479.2z M480.6,183c-0.4,0.3-0.7,0.7-1.1,1h0.6c0.4-0.4,0.8-0.7,1.2-1H480.6z
		 M482.3,183c-0.3,0.3-0.7,0.6-1.1,1h0.7c0.4-0.3,0.8-0.7,1.2-1H482.3z M483.2,183c-0.3,0.3-0.7,0.7-1,1h1.1
		c0.2-0.2,0.5-0.4,0.7-0.6V183H483.2z M483.7,184h0.3v-0.3C483.9,183.8,483.8,183.9,483.7,184z M476,183v1h1.7c0,0,0.1,0,0.1-0.1
		c0.4-0.3,0.7-0.6,1.1-0.9H476z M478.4,185c-0.4,0.3-0.8,0.7-1.2,1h0.8c0.3-0.3,0.5-0.5,0.8-0.8c0.1,0,0.1-0.1,0.2-0.2H478.4z
		 M476,185v0.5c0.2-0.2,0.4-0.3,0.5-0.5H476z M477,185c-0.3,0.3-0.6,0.5-1,0.8v0.2h0.8c0.4-0.3,0.7-0.7,1.1-1H477z M482.6,185
		c-0.4,0.3-0.8,0.7-1.1,1h1c0.4-0.3,0.8-0.7,1.2-1H482.6z M483.8,185c-0.3,0.3-0.7,0.7-1.1,1h1.2v-1H483.8z M481.2,185
		c-0.2,0.2-0.4,0.5-0.7,0.7c-0.1,0.1-0.2,0.2-0.4,0.3h0.8c0.3-0.3,0.7-0.6,1-0.9c0,0,0.1-0.1,0.1-0.1H481.2z M480.2,185
		c-0.3,0.3-0.7,0.7-1,1h0.6c0.4-0.3,0.7-0.7,1.1-1H480.2z M476,187v1h0.1c0.4-0.4,0.7-0.7,0.9-1H476z M479.2,187
		c-0.4,0.3-0.7,0.7-1.1,1h0.8c0.3-0.3,0.7-0.7,1-1H479.2z M480.3,187c-0.4,0.3-0.8,0.7-1.3,1h1.2c0.3-0.3,0.6-0.5,0.9-0.8l0.2-0.2
		H480.3z M481.7,187c-0.4,0.3-0.7,0.7-1.1,1h0.8c0.4-0.4,0.9-0.7,1.3-1H481.7z M483.4,187.7l-0.2,0.1c0,0-0.1,0.1-0.2,0.1h0.1
		c0.2-0.2,0.3-0.3,0.5-0.5C483.6,187.6,483.5,187.6,483.4,187.7z M483.1,187c-0.4,0.3-0.8,0.7-1.1,1h1c0.2-0.2,0.4-0.3,0.6-0.5
		c0.1-0.1,0.3-0.2,0.4-0.4V187H483.1z M483.5,188h0.5v-0.5C483.8,187.7,483.7,187.8,483.5,188z M478.1,187c-0.4,0.3-0.7,0.7-1,1h0.7
		c0.3-0.3,0.6-0.7,1-1H478.1z M476,187v1h0.1c0.4-0.4,0.7-0.7,0.9-1H476z M479.2,187c-0.4,0.3-0.7,0.7-1.1,1h0.8
		c0.3-0.3,0.7-0.7,1-1H479.2z M480.3,187c-0.4,0.3-0.8,0.7-1.3,1h1.2c0.3-0.3,0.6-0.5,0.9-0.8l0.2-0.2H480.3z M481.7,187
		c-0.4,0.3-0.7,0.7-1.1,1h0.8c0.4-0.4,0.9-0.7,1.3-1H481.7z M483.4,187.7l-0.2,0.1c0,0-0.1,0.1-0.2,0.1h0.1c0.2-0.2,0.3-0.3,0.5-0.5
		C483.6,187.6,483.5,187.6,483.4,187.7z M483.1,187c-0.4,0.3-0.8,0.7-1.1,1h1c0.2-0.2,0.4-0.3,0.6-0.5c0.1-0.1,0.3-0.2,0.4-0.4V187
		H483.1z M483.5,188h0.5v-0.5C483.8,187.7,483.7,187.8,483.5,188z M478.1,187c-0.4,0.3-0.7,0.7-1,1h0.7c0.3-0.3,0.6-0.7,1-1H478.1z
		 M479.2,183c-0.2,0.2-0.3,0.3-0.5,0.5c-0.2,0.2-0.4,0.4-0.6,0.5h1c0.4-0.3,0.8-0.7,1.2-1H479.2z M480.6,183c-0.4,0.3-0.7,0.7-1.1,1
		h0.6c0.4-0.4,0.8-0.7,1.2-1H480.6z M482.3,183c-0.3,0.3-0.7,0.6-1.1,1h0.7c0.4-0.3,0.8-0.7,1.2-1H482.3z M483.2,183
		c-0.3,0.3-0.7,0.7-1,1h1.1c0.2-0.2,0.5-0.4,0.7-0.6V183H483.2z M483.7,184h0.3v-0.3C483.9,183.8,483.8,183.9,483.7,184z M476,183v1
		h1.7c0,0,0.1,0,0.1-0.1c0.4-0.3,0.7-0.6,1.1-0.9H476z M478.4,185c-0.4,0.3-0.8,0.7-1.2,1h0.8c0.3-0.3,0.5-0.5,0.8-0.8
		c0.1,0,0.1-0.1,0.2-0.2H478.4z M476,185v0.5c0.2-0.2,0.4-0.3,0.5-0.5H476z M477,185c-0.3,0.3-0.6,0.5-1,0.8v0.2h0.8
		c0.4-0.3,0.7-0.7,1.1-1H477z M482.6,185c-0.4,0.3-0.8,0.7-1.1,1h1c0.4-0.3,0.8-0.7,1.2-1H482.6z M483.8,185c-0.3,0.3-0.7,0.7-1.1,1
		h1.2v-1H483.8z M481.2,185c-0.2,0.2-0.4,0.5-0.7,0.7c-0.1,0.1-0.2,0.2-0.4,0.3h0.8c0.3-0.3,0.7-0.6,1-0.9c0,0,0.1-0.1,0.1-0.1
		H481.2z M480.2,185c-0.3,0.3-0.7,0.7-1,1h0.6c0.4-0.3,0.7-0.7,1.1-1H480.2z M479.2,183c-0.2,0.2-0.3,0.3-0.5,0.5
		c-0.2,0.2-0.4,0.4-0.6,0.5h1c0.4-0.3,0.8-0.7,1.2-1H479.2z M480.6,183c-0.4,0.3-0.7,0.7-1.1,1h0.6c0.4-0.4,0.8-0.7,1.2-1H480.6z
		 M482.3,183c-0.3,0.3-0.7,0.6-1.1,1h0.7c0.4-0.3,0.8-0.7,1.2-1H482.3z M483.2,183c-0.3,0.3-0.7,0.7-1,1h1.1
		c0.2-0.2,0.5-0.4,0.7-0.6V183H483.2z M483.7,184h0.3v-0.3C483.9,183.8,483.8,183.9,483.7,184z M476,183v1h1.7c0,0,0.1,0,0.1-0.1
		c0.4-0.3,0.7-0.6,1.1-0.9H476z M478.4,185c-0.4,0.3-0.8,0.7-1.2,1h0.8c0.3-0.3,0.5-0.5,0.8-0.8c0.1,0,0.1-0.1,0.2-0.2H478.4z
		 M476,185v0.5c0.2-0.2,0.4-0.3,0.5-0.5H476z M477,185c-0.3,0.3-0.6,0.5-1,0.8v0.2h0.8c0.4-0.3,0.7-0.7,1.1-1H477z M482.6,185
		c-0.4,0.3-0.8,0.7-1.1,1h1c0.4-0.3,0.8-0.7,1.2-1H482.6z M483.8,185c-0.3,0.3-0.7,0.7-1.1,1h1.2v-1H483.8z M481.2,185
		c-0.2,0.2-0.4,0.5-0.7,0.7c-0.1,0.1-0.2,0.2-0.4,0.3h0.8c0.3-0.3,0.7-0.6,1-0.9c0,0,0.1-0.1,0.1-0.1H481.2z M480.2,185
		c-0.3,0.3-0.7,0.7-1,1h0.6c0.4-0.3,0.7-0.7,1.1-1H480.2z M479.2,187c-0.4,0.3-0.7,0.7-1.1,1h0.8c0.3-0.3,0.7-0.7,1-1H479.2z
		 M480.3,187c-0.4,0.3-0.8,0.7-1.3,1h1.2c0.3-0.3,0.6-0.5,0.9-0.8l0.2-0.2H480.3z M481.7,187c-0.4,0.3-0.7,0.7-1.1,1h0.8
		c0.4-0.4,0.9-0.7,1.3-1H481.7z M483.4,187.7l-0.2,0.1c0,0-0.1,0.1-0.2,0.1h0.1c0.2-0.2,0.3-0.3,0.5-0.5
		C483.6,187.6,483.5,187.6,483.4,187.7z M483.1,187c-0.4,0.3-0.8,0.7-1.1,1h1c0.2-0.2,0.4-0.3,0.6-0.5c0.1-0.1,0.3-0.2,0.4-0.4V187
		H483.1z M483.5,188h0.5v-0.5C483.8,187.7,483.7,187.8,483.5,188z M478.1,187c-0.4,0.3-0.7,0.7-1,1h0.7c0.3-0.3,0.6-0.7,1-1H478.1z
		 M476,187v1h0.1c0.4-0.4,0.7-0.7,0.9-1H476z M476,187v1h0.1c0.4-0.4,0.7-0.7,0.9-1H476z M478.4,185c-0.4,0.3-0.8,0.7-1.2,1h0.8
		c0.3-0.3,0.5-0.5,0.8-0.8c0.1,0,0.1-0.1,0.2-0.2H478.4z M476,185v0.5c0.2-0.2,0.4-0.3,0.5-0.5H476z M477,185
		c-0.3,0.3-0.6,0.5-1,0.8v0.2h0.8c0.4-0.3,0.7-0.7,1.1-1H477z M478.1,187c-0.4,0.3-0.7,0.7-1,1h0.7c0.3-0.3,0.6-0.7,1-1H478.1z
		 M479.2,187c-0.4,0.3-0.7,0.7-1.1,1h0.8c0.3-0.3,0.7-0.7,1-1H479.2z M480.3,187c-0.4,0.3-0.8,0.7-1.3,1h1.2
		c0.3-0.3,0.6-0.5,0.9-0.8l0.2-0.2H480.3z M481.7,187c-0.4,0.3-0.7,0.7-1.1,1h0.8c0.4-0.4,0.9-0.7,1.3-1H481.7z M483.4,187.7
		l-0.2,0.1c0,0-0.1,0.1-0.2,0.1h0.1c0.2-0.2,0.3-0.3,0.5-0.5C483.6,187.6,483.5,187.6,483.4,187.7z M483.1,187
		c-0.4,0.3-0.8,0.7-1.1,1h1c0.2-0.2,0.4-0.3,0.6-0.5c0.1-0.1,0.3-0.2,0.4-0.4V187H483.1z M483.5,188h0.5v-0.5
		C483.8,187.7,483.7,187.8,483.5,188z M479.2,183c-0.2,0.2-0.3,0.3-0.5,0.5c-0.2,0.2-0.4,0.4-0.6,0.5h1c0.4-0.3,0.8-0.7,1.2-1H479.2
		z M480.6,183c-0.4,0.3-0.7,0.7-1.1,1h0.6c0.4-0.4,0.8-0.7,1.2-1H480.6z M482.3,183c-0.3,0.3-0.7,0.6-1.1,1h0.7
		c0.4-0.3,0.8-0.7,1.2-1H482.3z M483.2,183c-0.3,0.3-0.7,0.7-1,1h1.1c0.2-0.2,0.5-0.4,0.7-0.6V183H483.2z M483.7,184h0.3v-0.3
		C483.9,183.8,483.8,183.9,483.7,184z M476,183v1h1.7c0,0,0.1,0,0.1-0.1c0.4-0.3,0.7-0.6,1.1-0.9H476z M482.6,185
		c-0.4,0.3-0.8,0.7-1.1,1h1c0.4-0.3,0.8-0.7,1.2-1H482.6z M483.8,185c-0.3,0.3-0.7,0.7-1.1,1h1.2v-1H483.8z M481.2,185
		c-0.2,0.2-0.4,0.5-0.7,0.7c-0.1,0.1-0.2,0.2-0.4,0.3h0.8c0.3-0.3,0.7-0.6,1-0.9c0,0,0.1-0.1,0.1-0.1H481.2z M480.2,185
		c-0.3,0.3-0.7,0.7-1,1h0.6c0.4-0.3,0.7-0.7,1.1-1H480.2z M479.2,183c-0.2,0.2-0.3,0.3-0.5,0.5c-0.2,0.2-0.4,0.4-0.6,0.5h1
		c0.4-0.3,0.8-0.7,1.2-1H479.2z M480.6,183c-0.4,0.3-0.7,0.7-1.1,1h0.6c0.4-0.4,0.8-0.7,1.2-1H480.6z M482.3,183
		c-0.3,0.3-0.7,0.6-1.1,1h0.7c0.4-0.3,0.8-0.7,1.2-1H482.3z M483.2,183c-0.3,0.3-0.7,0.7-1,1h1.1c0.2-0.2,0.5-0.4,0.7-0.6V183H483.2
		z M483.7,184h0.3v-0.3C483.9,183.8,483.8,183.9,483.7,184z M476,183v1h1.7c0,0,0.1,0,0.1-0.1c0.4-0.3,0.7-0.6,1.1-0.9H476z
		 M482.6,185c-0.4,0.3-0.8,0.7-1.1,1h1c0.4-0.3,0.8-0.7,1.2-1H482.6z M483.8,185c-0.3,0.3-0.7,0.7-1.1,1h1.2v-1H483.8z M481.2,185
		c-0.2,0.2-0.4,0.5-0.7,0.7c-0.1,0.1-0.2,0.2-0.4,0.3h0.8c0.3-0.3,0.7-0.6,1-0.9c0,0,0.1-0.1,0.1-0.1H481.2z M480.2,185
		c-0.3,0.3-0.7,0.7-1,1h0.6c0.4-0.3,0.7-0.7,1.1-1H480.2z M479.2,187c-0.4,0.3-0.7,0.7-1.1,1h0.8c0.3-0.3,0.7-0.7,1-1H479.2z
		 M480.3,187c-0.4,0.3-0.8,0.7-1.3,1h1.2c0.3-0.3,0.6-0.5,0.9-0.8l0.2-0.2H480.3z M481.7,187c-0.4,0.3-0.7,0.7-1.1,1h0.8
		c0.4-0.4,0.9-0.7,1.3-1H481.7z M483.4,187.7l-0.2,0.1c0,0-0.1,0.1-0.2,0.1h0.1c0.2-0.2,0.3-0.3,0.5-0.5
		C483.6,187.6,483.5,187.6,483.4,187.7z M483.1,187c-0.4,0.3-0.8,0.7-1.1,1h1c0.2-0.2,0.4-0.3,0.6-0.5c0.1-0.1,0.3-0.2,0.4-0.4V187
		H483.1z M483.5,188h0.5v-0.5C483.8,187.7,483.7,187.8,483.5,188z M478.4,185c-0.4,0.3-0.8,0.7-1.2,1h0.8c0.3-0.3,0.5-0.5,0.8-0.8
		c0.1,0,0.1-0.1,0.2-0.2H478.4z M478.1,187c-0.4,0.3-0.7,0.7-1,1h0.7c0.3-0.3,0.6-0.7,1-1H478.1z M476,185v0.5
		c0.2-0.2,0.4-0.3,0.5-0.5H476z M477,185c-0.3,0.3-0.6,0.5-1,0.8v0.2h0.8c0.4-0.3,0.7-0.7,1.1-1H477z M476,187v1h0.1
		c0.4-0.4,0.7-0.7,0.9-1H476z M476,185v0.5c0.2-0.2,0.4-0.3,0.5-0.5H476z M476,187v1h0.1c0.4-0.4,0.7-0.7,0.9-1H476z M477,185
		c-0.3,0.3-0.6,0.5-1,0.8v0.2h0.8c0.4-0.3,0.7-0.7,1.1-1H477z M478.1,187c-0.4,0.3-0.7,0.7-1,1h0.7c0.3-0.3,0.6-0.7,1-1H478.1z
		 M478.4,185c-0.4,0.3-0.8,0.7-1.2,1h0.8c0.3-0.3,0.5-0.5,0.8-0.8c0.1,0,0.1-0.1,0.2-0.2H478.4z M479.2,187c-0.4,0.3-0.7,0.7-1.1,1
		h0.8c0.3-0.3,0.7-0.7,1-1H479.2z M480.3,187c-0.4,0.3-0.8,0.7-1.3,1h1.2c0.3-0.3,0.6-0.5,0.9-0.8l0.2-0.2H480.3z M481.7,187
		c-0.4,0.3-0.7,0.7-1.1,1h0.8c0.4-0.4,0.9-0.7,1.3-1H481.7z M483.4,187.7l-0.2,0.1c0,0-0.1,0.1-0.2,0.1h0.1c0.2-0.2,0.3-0.3,0.5-0.5
		C483.6,187.6,483.5,187.6,483.4,187.7z M483.1,187c-0.4,0.3-0.8,0.7-1.1,1h1c0.2-0.2,0.4-0.3,0.6-0.5c0.1-0.1,0.3-0.2,0.4-0.4V187
		H483.1z M483.5,188h0.5v-0.5C483.8,187.7,483.7,187.8,483.5,188z M479.2,183c-0.2,0.2-0.3,0.3-0.5,0.5c-0.2,0.2-0.4,0.4-0.6,0.5h1
		c0.4-0.3,0.8-0.7,1.2-1H479.2z M480.6,183c-0.4,0.3-0.7,0.7-1.1,1h0.6c0.4-0.4,0.8-0.7,1.2-1H480.6z M482.3,183
		c-0.3,0.3-0.7,0.6-1.1,1h0.7c0.4-0.3,0.8-0.7,1.2-1H482.3z M483.2,183c-0.3,0.3-0.7,0.7-1,1h1.1c0.2-0.2,0.5-0.4,0.7-0.6V183H483.2
		z M483.7,184h0.3v-0.3C483.9,183.8,483.8,183.9,483.7,184z M476,183v1h1.7c0,0,0.1,0,0.1-0.1c0.4-0.3,0.7-0.6,1.1-0.9H476z
		 M482.6,185c-0.4,0.3-0.8,0.7-1.1,1h1c0.4-0.3,0.8-0.7,1.2-1H482.6z M483.8,185c-0.3,0.3-0.7,0.7-1.1,1h1.2v-1H483.8z M481.2,185
		c-0.2,0.2-0.4,0.5-0.7,0.7c-0.1,0.1-0.2,0.2-0.4,0.3h0.8c0.3-0.3,0.7-0.6,1-0.9c0,0,0.1-0.1,0.1-0.1H481.2z M480.2,185
		c-0.3,0.3-0.7,0.7-1,1h0.6c0.4-0.3,0.7-0.7,1.1-1H480.2z M479.2,183c-0.2,0.2-0.3,0.3-0.5,0.5c-0.2,0.2-0.4,0.4-0.6,0.5h1
		c0.4-0.3,0.8-0.7,1.2-1H479.2z M480.6,183c-0.4,0.3-0.7,0.7-1.1,1h0.6c0.4-0.4,0.8-0.7,1.2-1H480.6z M482.3,183
		c-0.3,0.3-0.7,0.6-1.1,1h0.7c0.4-0.3,0.8-0.7,1.2-1H482.3z M483.2,183c-0.3,0.3-0.7,0.7-1,1h1.1c0.2-0.2,0.5-0.4,0.7-0.6V183H483.2
		z M483.7,184h0.3v-0.3C483.9,183.8,483.8,183.9,483.7,184z M482.6,185c-0.4,0.3-0.8,0.7-1.1,1h1c0.4-0.3,0.8-0.7,1.2-1H482.6z
		 M483.8,185c-0.3,0.3-0.7,0.7-1.1,1h1.2v-1H483.8z M481.2,185c-0.2,0.2-0.4,0.5-0.7,0.7c-0.1,0.1-0.2,0.2-0.4,0.3h0.8
		c0.3-0.3,0.7-0.6,1-0.9c0,0,0.1-0.1,0.1-0.1H481.2z M480.2,185c-0.3,0.3-0.7,0.7-1,1h0.6c0.4-0.3,0.7-0.7,1.1-1H480.2z M479.2,187
		c-0.4,0.3-0.7,0.7-1.1,1h0.8c0.3-0.3,0.7-0.7,1-1H479.2z M480.3,187c-0.4,0.3-0.8,0.7-1.3,1h1.2c0.3-0.3,0.6-0.5,0.9-0.8l0.2-0.2
		H480.3z M481.7,187c-0.4,0.3-0.7,0.7-1.1,1h0.8c0.4-0.4,0.9-0.7,1.3-1H481.7z M483.4,187.7l-0.2,0.1c0,0-0.1,0.1-0.2,0.1h0.1
		c0.2-0.2,0.3-0.3,0.5-0.5C483.6,187.6,483.5,187.6,483.4,187.7z M483.1,187c-0.4,0.3-0.8,0.7-1.1,1h1c0.2-0.2,0.4-0.3,0.6-0.5
		c0.1-0.1,0.3-0.2,0.4-0.4V187H483.1z M483.5,188h0.5v-0.5C483.8,187.7,483.7,187.8,483.5,188z M478.4,185c-0.4,0.3-0.8,0.7-1.2,1
		h0.8c0.3-0.3,0.5-0.5,0.8-0.8c0.1,0,0.1-0.1,0.2-0.2H478.4z M476,183v1h1.7c0,0,0.1,0,0.1-0.1c0.4-0.3,0.7-0.6,1.1-0.9H476z
		 M478.1,187c-0.4,0.3-0.7,0.7-1,1h0.7c0.3-0.3,0.6-0.7,1-1H478.1z M477,185c-0.3,0.3-0.6,0.5-1,0.8v0.2h0.8c0.4-0.3,0.7-0.7,1.1-1
		H477z M476,187v1h0.1c0.4-0.4,0.7-0.7,0.9-1H476z M476,185v0.5c0.2-0.2,0.4-0.3,0.5-0.5H476z M476,185v0.5c0.2-0.2,0.4-0.3,0.5-0.5
		H476z M476,187v1h0.1c0.4-0.4,0.7-0.7,0.9-1H476z M477,185c-0.3,0.3-0.6,0.5-1,0.8v0.2h0.8c0.4-0.3,0.7-0.7,1.1-1H477z M478.1,187
		c-0.4,0.3-0.7,0.7-1,1h0.7c0.3-0.3,0.6-0.7,1-1H478.1z M476,183v1h1.7c0,0,0.1,0,0.1-0.1c0.4-0.3,0.7-0.6,1.1-0.9H476z M478.4,185
		c-0.4,0.3-0.8,0.7-1.2,1h0.8c0.3-0.3,0.5-0.5,0.8-0.8c0.1,0,0.1-0.1,0.2-0.2H478.4z M479.2,187c-0.4,0.3-0.7,0.7-1.1,1h0.8
		c0.3-0.3,0.7-0.7,1-1H479.2z M480.3,187c-0.4,0.3-0.8,0.7-1.3,1h1.2c0.3-0.3,0.6-0.5,0.9-0.8l0.2-0.2H480.3z M481.7,187
		c-0.4,0.3-0.7,0.7-1.1,1h0.8c0.4-0.4,0.9-0.7,1.3-1H481.7z M483.4,187.7l-0.2,0.1c0,0-0.1,0.1-0.2,0.1h0.1c0.2-0.2,0.3-0.3,0.5-0.5
		C483.6,187.6,483.5,187.6,483.4,187.7z M483.1,187c-0.4,0.3-0.8,0.7-1.1,1h1c0.2-0.2,0.4-0.3,0.6-0.5c0.1-0.1,0.3-0.2,0.4-0.4V187
		H483.1z M483.5,188h0.5v-0.5C483.8,187.7,483.7,187.8,483.5,188z M479.2,183c-0.2,0.2-0.3,0.3-0.5,0.5c-0.2,0.2-0.4,0.4-0.6,0.5h1
		c0.4-0.3,0.8-0.7,1.2-1H479.2z M480.6,183c-0.4,0.3-0.7,0.7-1.1,1h0.6c0.4-0.4,0.8-0.7,1.2-1H480.6z M482.3,183
		c-0.3,0.3-0.7,0.6-1.1,1h0.7c0.4-0.3,0.8-0.7,1.2-1H482.3z M483.2,183c-0.3,0.3-0.7,0.7-1,1h1.1c0.2-0.2,0.5-0.4,0.7-0.6V183H483.2
		z M483.7,184h0.3v-0.3C483.9,183.8,483.8,183.9,483.7,184z M482.6,185c-0.4,0.3-0.8,0.7-1.1,1h1c0.4-0.3,0.8-0.7,1.2-1H482.6z
		 M483.8,185c-0.3,0.3-0.7,0.7-1.1,1h1.2v-1H483.8z M481.2,185c-0.2,0.2-0.4,0.5-0.7,0.7c-0.1,0.1-0.2,0.2-0.4,0.3h0.8
		c0.3-0.3,0.7-0.6,1-0.9c0,0,0.1-0.1,0.1-0.1H481.2z M480.2,185c-0.3,0.3-0.7,0.7-1,1h0.6c0.4-0.3,0.7-0.7,1.1-1H480.2z M479.2,183
		c-0.2,0.2-0.3,0.3-0.5,0.5c-0.2,0.2-0.4,0.4-0.6,0.5h1c0.4-0.3,0.8-0.7,1.2-1H479.2z M480.6,183c-0.4,0.3-0.7,0.7-1.1,1h0.6
		c0.4-0.4,0.8-0.7,1.2-1H480.6z M482.3,183c-0.3,0.3-0.7,0.6-1.1,1h0.7c0.4-0.3,0.8-0.7,1.2-1H482.3z M483.2,183
		c-0.3,0.3-0.7,0.7-1,1h1.1c0.2-0.2,0.5-0.4,0.7-0.6V183H483.2z M483.7,184h0.3v-0.3C483.9,183.8,483.8,183.9,483.7,184z M482.6,185
		c-0.4,0.3-0.8,0.7-1.1,1h1c0.4-0.3,0.8-0.7,1.2-1H482.6z M483.8,185c-0.3,0.3-0.7,0.7-1.1,1h1.2v-1H483.8z M481.2,185
		c-0.2,0.2-0.4,0.5-0.7,0.7c-0.1,0.1-0.2,0.2-0.4,0.3h0.8c0.3-0.3,0.7-0.6,1-0.9c0,0,0.1-0.1,0.1-0.1H481.2z M480.2,185
		c-0.3,0.3-0.7,0.7-1,1h0.6c0.4-0.3,0.7-0.7,1.1-1H480.2z M479.2,187c-0.4,0.3-0.7,0.7-1.1,1h0.8c0.3-0.3,0.7-0.7,1-1H479.2z
		 M480.3,187c-0.4,0.3-0.8,0.7-1.3,1h1.2c0.3-0.3,0.6-0.5,0.9-0.8l0.2-0.2H480.3z M481.7,187c-0.4,0.3-0.7,0.7-1.1,1h0.8
		c0.4-0.4,0.9-0.7,1.3-1H481.7z M483.4,187.7l-0.2,0.1c0,0-0.1,0.1-0.2,0.1h0.1c0.2-0.2,0.3-0.3,0.5-0.5
		C483.6,187.6,483.5,187.6,483.4,187.7z M483.1,187c-0.4,0.3-0.8,0.7-1.1,1h1c0.2-0.2,0.4-0.3,0.6-0.5c0.1-0.1,0.3-0.2,0.4-0.4V187
		H483.1z M483.5,188h0.5v-0.5C483.8,187.7,483.7,187.8,483.5,188z M478.4,185c-0.4,0.3-0.8,0.7-1.2,1h0.8c0.3-0.3,0.5-0.5,0.8-0.8
		c0.1,0,0.1-0.1,0.2-0.2H478.4z M476,183v1h1.7c0,0,0.1,0,0.1-0.1c0.4-0.3,0.7-0.6,1.1-0.9H476z M478.1,187c-0.4,0.3-0.7,0.7-1,1
		h0.7c0.3-0.3,0.6-0.7,1-1H478.1z M477,185c-0.3,0.3-0.6,0.5-1,0.8v0.2h0.8c0.4-0.3,0.7-0.7,1.1-1H477z M476,187v1h0.1
		c0.4-0.4,0.7-0.7,0.9-1H476z M476,185v0.5c0.2-0.2,0.4-0.3,0.5-0.5H476z M476,185v0.5c0.2-0.2,0.4-0.3,0.5-0.5H476z M476,187v1h0.1
		c0.4-0.4,0.7-0.7,0.9-1H476z M477,185c-0.3,0.3-0.6,0.5-1,0.8v0.2h0.8c0.4-0.3,0.7-0.7,1.1-1H477z M478.1,187c-0.4,0.3-0.7,0.7-1,1
		h0.7c0.3-0.3,0.6-0.7,1-1H478.1z M476,183v1h1.7c0,0,0.1,0,0.1-0.1c0.4-0.3,0.7-0.6,1.1-0.9H476z M478.4,185
		c-0.4,0.3-0.8,0.7-1.2,1h0.8c0.3-0.3,0.5-0.5,0.8-0.8c0.1,0,0.1-0.1,0.2-0.2H478.4z M479.2,187c-0.4,0.3-0.7,0.7-1.1,1h0.8
		c0.3-0.3,0.7-0.7,1-1H479.2z M480.3,187c-0.4,0.3-0.8,0.7-1.3,1h1.2c0.3-0.3,0.6-0.5,0.9-0.8l0.2-0.2H480.3z M481.7,187
		c-0.4,0.3-0.7,0.7-1.1,1h0.8c0.4-0.4,0.9-0.7,1.3-1H481.7z M483.4,187.7l-0.2,0.1c0,0-0.1,0.1-0.2,0.1h0.1c0.2-0.2,0.3-0.3,0.5-0.5
		C483.6,187.6,483.5,187.6,483.4,187.7z M483.1,187c-0.4,0.3-0.8,0.7-1.1,1h1c0.2-0.2,0.4-0.3,0.6-0.5c0.1-0.1,0.3-0.2,0.4-0.4V187
		H483.1z M483.5,188h0.5v-0.5C483.8,187.7,483.7,187.8,483.5,188z M479.2,183c-0.2,0.2-0.3,0.3-0.5,0.5c-0.2,0.2-0.4,0.4-0.6,0.5h1
		c0.4-0.3,0.8-0.7,1.2-1H479.2z M480.6,183c-0.4,0.3-0.7,0.7-1.1,1h0.6c0.4-0.4,0.8-0.7,1.2-1H480.6z M482.3,183
		c-0.3,0.3-0.7,0.6-1.1,1h0.7c0.4-0.3,0.8-0.7,1.2-1H482.3z M483.2,183c-0.3,0.3-0.7,0.7-1,1h1.1c0.2-0.2,0.5-0.4,0.7-0.6V183H483.2
		z M483.7,184h0.3v-0.3C483.9,183.8,483.8,183.9,483.7,184z M482.6,185c-0.4,0.3-0.8,0.7-1.1,1h1c0.4-0.3,0.8-0.7,1.2-1H482.6z
		 M483.8,185c-0.3,0.3-0.7,0.7-1.1,1h1.2v-1H483.8z M481.2,185c-0.2,0.2-0.4,0.5-0.7,0.7c-0.1,0.1-0.2,0.2-0.4,0.3h0.8
		c0.3-0.3,0.7-0.6,1-0.9c0,0,0.1-0.1,0.1-0.1H481.2z M480.2,185c-0.3,0.3-0.7,0.7-1,1h0.6c0.4-0.3,0.7-0.7,1.1-1H480.2z M479.2,183
		c-0.2,0.2-0.3,0.3-0.5,0.5c-0.2,0.2-0.4,0.4-0.6,0.5h1c0.4-0.3,0.8-0.7,1.2-1H479.2z M480.6,183c-0.4,0.3-0.7,0.7-1.1,1h0.6
		c0.4-0.4,0.8-0.7,1.2-1H480.6z M482.3,183c-0.3,0.3-0.7,0.6-1.1,1h0.7c0.4-0.3,0.8-0.7,1.2-1H482.3z M483.2,183
		c-0.3,0.3-0.7,0.7-1,1h1.1c0.2-0.2,0.5-0.4,0.7-0.6V183H483.2z M483.7,184h0.3v-0.3C483.9,183.8,483.8,183.9,483.7,184z M482.6,185
		c-0.4,0.3-0.8,0.7-1.1,1h1c0.4-0.3,0.8-0.7,1.2-1H482.6z M483.8,185c-0.3,0.3-0.7,0.7-1.1,1h1.2v-1H483.8z M481.2,185
		c-0.2,0.2-0.4,0.5-0.7,0.7c-0.1,0.1-0.2,0.2-0.4,0.3h0.8c0.3-0.3,0.7-0.6,1-0.9c0,0,0.1-0.1,0.1-0.1H481.2z M479.2,187
		c-0.4,0.3-0.7,0.7-1.1,1h0.8c0.3-0.3,0.7-0.7,1-1H479.2z M480.3,187c-0.4,0.3-0.8,0.7-1.3,1h1.2c0.3-0.3,0.6-0.5,0.9-0.8l0.2-0.2
		H480.3z M481.7,187c-0.4,0.3-0.7,0.7-1.1,1h0.8c0.4-0.4,0.9-0.7,1.3-1H481.7z M483.4,187.7l-0.2,0.1c0,0-0.1,0.1-0.2,0.1h0.1
		c0.2-0.2,0.3-0.3,0.5-0.5C483.6,187.6,483.5,187.6,483.4,187.7z M483.1,187c-0.4,0.3-0.8,0.7-1.1,1h1c0.2-0.2,0.4-0.3,0.6-0.5
		c0.1-0.1,0.3-0.2,0.4-0.4V187H483.1z M483.5,188h0.5v-0.5C483.8,187.7,483.7,187.8,483.5,188z M480.2,185c-0.3,0.3-0.7,0.7-1,1h0.6
		c0.4-0.3,0.7-0.7,1.1-1H480.2z M478.4,185c-0.4,0.3-0.8,0.7-1.2,1h0.8c0.3-0.3,0.5-0.5,0.8-0.8c0.1,0,0.1-0.1,0.2-0.2H478.4z
		 M476,183v1h1.7c0,0,0.1,0,0.1-0.1c0.4-0.3,0.7-0.6,1.1-0.9H476z M478.1,187c-0.4,0.3-0.7,0.7-1,1h0.7c0.3-0.3,0.6-0.7,1-1H478.1z
		 M477,185c-0.3,0.3-0.6,0.5-1,0.8v0.2h0.8c0.4-0.3,0.7-0.7,1.1-1H477z M476,187v1h0.1c0.4-0.4,0.7-0.7,0.9-1H476z M476,185v0.5
		c0.2-0.2,0.4-0.3,0.5-0.5H476z M476,185v0.5c0.2-0.2,0.4-0.3,0.5-0.5H476z M476,187v1h0.1c0.4-0.4,0.7-0.7,0.9-1H476z M477,185
		c-0.3,0.3-0.6,0.5-1,0.8v0.2h0.8c0.4-0.3,0.7-0.7,1.1-1H477z M478.1,187c-0.4,0.3-0.7,0.7-1,1h0.7c0.3-0.3,0.6-0.7,1-1H478.1z
		 M476,183v1h1.7c0,0,0.1,0,0.1-0.1c0.4-0.3,0.7-0.6,1.1-0.9H476z M478.4,185c-0.4,0.3-0.8,0.7-1.2,1h0.8c0.3-0.3,0.5-0.5,0.8-0.8
		c0.1,0,0.1-0.1,0.2-0.2H478.4z M480.2,185c-0.3,0.3-0.7,0.7-1,1h0.6c0.4-0.3,0.7-0.7,1.1-1H480.2z M479.2,187
		c-0.4,0.3-0.7,0.7-1.1,1h0.8c0.3-0.3,0.7-0.7,1-1H479.2z M480.3,187c-0.4,0.3-0.8,0.7-1.3,1h1.2c0.3-0.3,0.6-0.5,0.9-0.8l0.2-0.2
		H480.3z M481.7,187c-0.4,0.3-0.7,0.7-1.1,1h0.8c0.4-0.4,0.9-0.7,1.3-1H481.7z M483.4,187.7l-0.2,0.1c0,0-0.1,0.1-0.2,0.1h0.1
		c0.2-0.2,0.3-0.3,0.5-0.5C483.6,187.6,483.5,187.6,483.4,187.7z M483.1,187c-0.4,0.3-0.8,0.7-1.1,1h1c0.2-0.2,0.4-0.3,0.6-0.5
		c0.1-0.1,0.3-0.2,0.4-0.4V187H483.1z M483.5,188h0.5v-0.5C483.8,187.7,483.7,187.8,483.5,188z M479.2,183c-0.2,0.2-0.3,0.3-0.5,0.5
		c-0.2,0.2-0.4,0.4-0.6,0.5h1c0.4-0.3,0.8-0.7,1.2-1H479.2z M480.6,183c-0.4,0.3-0.7,0.7-1.1,1h0.6c0.4-0.4,0.8-0.7,1.2-1H480.6z
		 M482.3,183c-0.3,0.3-0.7,0.6-1.1,1h0.7c0.4-0.3,0.8-0.7,1.2-1H482.3z M483.2,183c-0.3,0.3-0.7,0.7-1,1h1.1
		c0.2-0.2,0.5-0.4,0.7-0.6V183H483.2z M483.7,184h0.3v-0.3C483.9,183.8,483.8,183.9,483.7,184z M482.6,185c-0.4,0.3-0.8,0.7-1.1,1h1
		c0.4-0.3,0.8-0.7,1.2-1H482.6z M483.8,185c-0.3,0.3-0.7,0.7-1.1,1h1.2v-1H483.8z M481.2,185c-0.2,0.2-0.4,0.5-0.7,0.7
		c-0.1,0.1-0.2,0.2-0.4,0.3h0.8c0.3-0.3,0.7-0.6,1-0.9c0,0,0.1-0.1,0.1-0.1H481.2z M479.2,183c-0.2,0.2-0.3,0.3-0.5,0.5
		c-0.2,0.2-0.4,0.4-0.6,0.5h1c0.4-0.3,0.8-0.7,1.2-1H479.2z M480.6,183c-0.4,0.3-0.7,0.7-1.1,1h0.6c0.4-0.4,0.8-0.7,1.2-1H480.6z
		 M482.3,183c-0.3,0.3-0.7,0.6-1.1,1h0.7c0.4-0.3,0.8-0.7,1.2-1H482.3z M483.2,183c-0.3,0.3-0.7,0.7-1,1h1.1
		c0.2-0.2,0.5-0.4,0.7-0.6V183H483.2z M483.7,184h0.3v-0.3C483.9,183.8,483.8,183.9,483.7,184z M482.6,185c-0.4,0.3-0.8,0.7-1.1,1h1
		c0.4-0.3,0.8-0.7,1.2-1H482.6z M483.8,185c-0.3,0.3-0.7,0.7-1.1,1h1.2v-1H483.8z M479.2,187c-0.4,0.3-0.7,0.7-1.1,1h0.8
		c0.3-0.3,0.7-0.7,1-1H479.2z M480.3,187c-0.4,0.3-0.8,0.7-1.3,1h1.2c0.3-0.3,0.6-0.5,0.9-0.8l0.2-0.2H480.3z M481.7,187
		c-0.4,0.3-0.7,0.7-1.1,1h0.8c0.4-0.4,0.9-0.7,1.3-1H481.7z M483.4,187.7l-0.2,0.1c0,0-0.1,0.1-0.2,0.1h0.1c0.2-0.2,0.3-0.3,0.5-0.5
		C483.6,187.6,483.5,187.6,483.4,187.7z M483.1,187c-0.4,0.3-0.8,0.7-1.1,1h1c0.2-0.2,0.4-0.3,0.6-0.5c0.1-0.1,0.3-0.2,0.4-0.4V187
		H483.1z M483.5,188h0.5v-0.5C483.8,187.7,483.7,187.8,483.5,188z M481.2,185c-0.2,0.2-0.4,0.5-0.7,0.7c-0.1,0.1-0.2,0.2-0.4,0.3
		h0.8c0.3-0.3,0.7-0.6,1-0.9c0,0,0.1-0.1,0.1-0.1H481.2z M480.2,185c-0.3,0.3-0.7,0.7-1,1h0.6c0.4-0.3,0.7-0.7,1.1-1H480.2z
		 M478.4,185c-0.4,0.3-0.8,0.7-1.2,1h0.8c0.3-0.3,0.5-0.5,0.8-0.8c0.1,0,0.1-0.1,0.2-0.2H478.4z M476,183v1h1.7c0,0,0.1,0,0.1-0.1
		c0.4-0.3,0.7-0.6,1.1-0.9H476z M478.1,187c-0.4,0.3-0.7,0.7-1,1h0.7c0.3-0.3,0.6-0.7,1-1H478.1z M477,185c-0.3,0.3-0.6,0.5-1,0.8
		v0.2h0.8c0.4-0.3,0.7-0.7,1.1-1H477z M476,187v1h0.1c0.4-0.4,0.7-0.7,0.9-1H476z M476,185v0.5c0.2-0.2,0.4-0.3,0.5-0.5H476z
		 M476,185v0.5c0.2-0.2,0.4-0.3,0.5-0.5H476z M476,187v1h0.1c0.4-0.4,0.7-0.7,0.9-1H476z M477,185c-0.3,0.3-0.6,0.5-1,0.8v0.2h0.8
		c0.4-0.3,0.7-0.7,1.1-1H477z M478.1,187c-0.4,0.3-0.7,0.7-1,1h0.7c0.3-0.3,0.6-0.7,1-1H478.1z M476,183v1h1.7c0,0,0.1,0,0.1-0.1
		c0.4-0.3,0.7-0.6,1.1-0.9H476z M478.4,185c-0.4,0.3-0.8,0.7-1.2,1h0.8c0.3-0.3,0.5-0.5,0.8-0.8c0.1,0,0.1-0.1,0.2-0.2H478.4z
		 M480.2,185c-0.3,0.3-0.7,0.7-1,1h0.6c0.4-0.3,0.7-0.7,1.1-1H480.2z M481.2,185c-0.2,0.2-0.4,0.5-0.7,0.7c-0.1,0.1-0.2,0.2-0.4,0.3
		h0.8c0.3-0.3,0.7-0.6,1-0.9c0,0,0.1-0.1,0.1-0.1H481.2z M479.2,187c-0.4,0.3-0.7,0.7-1.1,1h0.8c0.3-0.3,0.7-0.7,1-1H479.2z
		 M480.3,187c-0.4,0.3-0.8,0.7-1.3,1h1.2c0.3-0.3,0.6-0.5,0.9-0.8l0.2-0.2H480.3z M481.7,187c-0.4,0.3-0.7,0.7-1.1,1h0.8
		c0.4-0.4,0.9-0.7,1.3-1H481.7z M483.4,187.7l-0.2,0.1c0,0-0.1,0.1-0.2,0.1h0.1c0.2-0.2,0.3-0.3,0.5-0.5
		C483.6,187.6,483.5,187.6,483.4,187.7z M483.1,187c-0.4,0.3-0.8,0.7-1.1,1h1c0.2-0.2,0.4-0.3,0.6-0.5c0.1-0.1,0.3-0.2,0.4-0.4V187
		H483.1z M483.5,188h0.5v-0.5C483.8,187.7,483.7,187.8,483.5,188z M479.2,183c-0.2,0.2-0.3,0.3-0.5,0.5c-0.2,0.2-0.4,0.4-0.6,0.5h1
		c0.4-0.3,0.8-0.7,1.2-1H479.2z M480.6,183c-0.4,0.3-0.7,0.7-1.1,1h0.6c0.4-0.4,0.8-0.7,1.2-1H480.6z M482.3,183
		c-0.3,0.3-0.7,0.6-1.1,1h0.7c0.4-0.3,0.8-0.7,1.2-1H482.3z M483.2,183c-0.3,0.3-0.7,0.7-1,1h1.1c0.2-0.2,0.5-0.4,0.7-0.6V183H483.2
		z M483.7,184h0.3v-0.3C483.9,183.8,483.8,183.9,483.7,184z M482.6,185c-0.4,0.3-0.8,0.7-1.1,1h1c0.4-0.3,0.8-0.7,1.2-1H482.6z
		 M483.8,185c-0.3,0.3-0.7,0.7-1.1,1h1.2v-1H483.8z M479.2,183c-0.2,0.2-0.3,0.3-0.5,0.5c-0.2,0.2-0.4,0.4-0.6,0.5h1
		c0.4-0.3,0.8-0.7,1.2-1H479.2z M480.6,183c-0.4,0.3-0.7,0.7-1.1,1h0.6c0.4-0.4,0.8-0.7,1.2-1H480.6z M482.3,183
		c-0.3,0.3-0.7,0.6-1.1,1h0.7c0.4-0.3,0.8-0.7,1.2-1H482.3z M483.2,183c-0.3,0.3-0.7,0.7-1,1h1.1c0.2-0.2,0.5-0.4,0.7-0.6V183H483.2
		z M483.7,184h0.3v-0.3C483.9,183.8,483.8,183.9,483.7,184z M482.6,185c-0.4,0.3-0.8,0.7-1.1,1h1c0.4-0.3,0.8-0.7,1.2-1H482.6z
		 M483.8,185c-0.3,0.3-0.7,0.7-1.1,1h1.2v-1H483.8z M479.2,187c-0.4,0.3-0.7,0.7-1.1,1h0.8c0.3-0.3,0.7-0.7,1-1H479.2z M480.3,187
		c-0.4,0.3-0.8,0.7-1.3,1h1.2c0.3-0.3,0.6-0.5,0.9-0.8l0.2-0.2H480.3z M481.7,187c-0.4,0.3-0.7,0.7-1.1,1h0.8c0.4-0.4,0.9-0.7,1.3-1
		H481.7z M483.4,187.7l-0.2,0.1c0,0-0.1,0.1-0.2,0.1h0.1c0.2-0.2,0.3-0.3,0.5-0.5C483.6,187.6,483.5,187.6,483.4,187.7z M483.1,187
		c-0.4,0.3-0.8,0.7-1.1,1h1c0.2-0.2,0.4-0.3,0.6-0.5c0.1-0.1,0.3-0.2,0.4-0.4V187H483.1z M483.5,188h0.5v-0.5
		C483.8,187.7,483.7,187.8,483.5,188z M481.2,185c-0.2,0.2-0.4,0.5-0.7,0.7c-0.1,0.1-0.2,0.2-0.4,0.3h0.8c0.3-0.3,0.7-0.6,1-0.9
		c0,0,0.1-0.1,0.1-0.1H481.2z M480.2,185c-0.3,0.3-0.7,0.7-1,1h0.6c0.4-0.3,0.7-0.7,1.1-1H480.2z M478.4,185c-0.4,0.3-0.8,0.7-1.2,1
		h0.8c0.3-0.3,0.5-0.5,0.8-0.8c0.1,0,0.1-0.1,0.2-0.2H478.4z M476,183v1h1.7c0,0,0.1,0,0.1-0.1c0.4-0.3,0.7-0.6,1.1-0.9H476z
		 M478.1,187c-0.4,0.3-0.7,0.7-1,1h0.7c0.3-0.3,0.6-0.7,1-1H478.1z M477,185c-0.3,0.3-0.6,0.5-1,0.8v0.2h0.8c0.4-0.3,0.7-0.7,1.1-1
		H477z M476,187v1h0.1c0.4-0.4,0.7-0.7,0.9-1H476z M476,185v0.5c0.2-0.2,0.4-0.3,0.5-0.5H476z M476,185v0.5c0.2-0.2,0.4-0.3,0.5-0.5
		H476z M476,187v1h0.1c0.4-0.4,0.7-0.7,0.9-1H476z M477,185c-0.3,0.3-0.6,0.5-1,0.8v0.2h0.8c0.4-0.3,0.7-0.7,1.1-1H477z M478.1,187
		c-0.4,0.3-0.7,0.7-1,1h0.7c0.3-0.3,0.6-0.7,1-1H478.1z M476,183v1h1.7c0,0,0.1,0,0.1-0.1c0.4-0.3,0.7-0.6,1.1-0.9H476z M478.4,185
		c-0.4,0.3-0.8,0.7-1.2,1h0.8c0.3-0.3,0.5-0.5,0.8-0.8c0.1,0,0.1-0.1,0.2-0.2H478.4z M480.2,185c-0.3,0.3-0.7,0.7-1,1h0.6
		c0.4-0.3,0.7-0.7,1.1-1H480.2z M481.2,185c-0.2,0.2-0.4,0.5-0.7,0.7c-0.1,0.1-0.2,0.2-0.4,0.3h0.8c0.3-0.3,0.7-0.6,1-0.9
		c0,0,0.1-0.1,0.1-0.1H481.2z M479.2,187c-0.4,0.3-0.7,0.7-1.1,1h0.8c0.3-0.3,0.7-0.7,1-1H479.2z M480.3,187c-0.4,0.3-0.8,0.7-1.3,1
		h1.2c0.3-0.3,0.6-0.5,0.9-0.8l0.2-0.2H480.3z M481.7,187c-0.4,0.3-0.7,0.7-1.1,1h0.8c0.4-0.4,0.9-0.7,1.3-1H481.7z M483.4,187.7
		l-0.2,0.1c0,0-0.1,0.1-0.2,0.1h0.1c0.2-0.2,0.3-0.3,0.5-0.5C483.6,187.6,483.5,187.6,483.4,187.7z M483.1,187
		c-0.4,0.3-0.8,0.7-1.1,1h1c0.2-0.2,0.4-0.3,0.6-0.5c0.1-0.1,0.3-0.2,0.4-0.4V187H483.1z M483.5,188h0.5v-0.5
		C483.8,187.7,483.7,187.8,483.5,188z M479.2,183c-0.2,0.2-0.3,0.3-0.5,0.5c-0.2,0.2-0.4,0.4-0.6,0.5h1c0.4-0.3,0.8-0.7,1.2-1H479.2
		z M480.6,183c-0.4,0.3-0.7,0.7-1.1,1h0.6c0.4-0.4,0.8-0.7,1.2-1H480.6z M482.3,183c-0.3,0.3-0.7,0.6-1.1,1h0.7
		c0.4-0.3,0.8-0.7,1.2-1H482.3z M483.2,183c-0.3,0.3-0.7,0.7-1,1h1.1c0.2-0.2,0.5-0.4,0.7-0.6V183H483.2z M483.7,184h0.3v-0.3
		C483.9,183.8,483.8,183.9,483.7,184z M482.6,185c-0.4,0.3-0.8,0.7-1.1,1h1c0.4-0.3,0.8-0.7,1.2-1H482.6z M483.8,185
		c-0.3,0.3-0.7,0.7-1.1,1h1.2v-1H483.8z M479.2,183c-0.2,0.2-0.3,0.3-0.5,0.5c-0.2,0.2-0.4,0.4-0.6,0.5h1c0.4-0.3,0.8-0.7,1.2-1
		H479.2z M480.6,183c-0.4,0.3-0.7,0.7-1.1,1h0.6c0.4-0.4,0.8-0.7,1.2-1H480.6z M482.3,183c-0.3,0.3-0.7,0.6-1.1,1h0.7
		c0.4-0.3,0.8-0.7,1.2-1H482.3z M483.2,183c-0.3,0.3-0.7,0.7-1,1h1.1c0.2-0.2,0.5-0.4,0.7-0.6V183H483.2z M483.7,184h0.3v-0.3
		C483.9,183.8,483.8,183.9,483.7,184z M482.6,185c-0.4,0.3-0.8,0.7-1.1,1h1c0.4-0.3,0.8-0.7,1.2-1H482.6z M483.8,185
		c-0.3,0.3-0.7,0.7-1.1,1h1.2v-1H483.8z M479.2,187c-0.4,0.3-0.7,0.7-1.1,1h0.8c0.3-0.3,0.7-0.7,1-1H479.2z M480.3,187
		c-0.4,0.3-0.8,0.7-1.3,1h1.2c0.3-0.3,0.6-0.5,0.9-0.8l0.2-0.2H480.3z M481.7,187c-0.4,0.3-0.7,0.7-1.1,1h0.8c0.4-0.4,0.9-0.7,1.3-1
		H481.7z M483.4,187.7l-0.2,0.1c0,0-0.1,0.1-0.2,0.1h0.1c0.2-0.2,0.3-0.3,0.5-0.5C483.6,187.6,483.5,187.6,483.4,187.7z M483.1,187
		c-0.4,0.3-0.8,0.7-1.1,1h1c0.2-0.2,0.4-0.3,0.6-0.5c0.1-0.1,0.3-0.2,0.4-0.4V187H483.1z M483.5,188h0.5v-0.5
		C483.8,187.7,483.7,187.8,483.5,188z M481.2,185c-0.2,0.2-0.4,0.5-0.7,0.7c-0.1,0.1-0.2,0.2-0.4,0.3h0.8c0.3-0.3,0.7-0.6,1-0.9
		c0,0,0.1-0.1,0.1-0.1H481.2z M480.2,185c-0.3,0.3-0.7,0.7-1,1h0.6c0.4-0.3,0.7-0.7,1.1-1H480.2z M478.4,185c-0.4,0.3-0.8,0.7-1.2,1
		h0.8c0.3-0.3,0.5-0.5,0.8-0.8c0.1,0,0.1-0.1,0.2-0.2H478.4z M476,183v1h1.7c0,0,0.1,0,0.1-0.1c0.4-0.3,0.7-0.6,1.1-0.9H476z
		 M478.1,187c-0.4,0.3-0.7,0.7-1,1h0.7c0.3-0.3,0.6-0.7,1-1H478.1z M477,185c-0.3,0.3-0.6,0.5-1,0.8v0.2h0.8c0.4-0.3,0.7-0.7,1.1-1
		H477z M476,187v1h0.1c0.4-0.4,0.7-0.7,0.9-1H476z M476,185v0.5c0.2-0.2,0.4-0.3,0.5-0.5H476z M476,185v0.5c0.2-0.2,0.4-0.3,0.5-0.5
		H476z M476,187v1h0.1c0.4-0.4,0.7-0.7,0.9-1H476z M477,185c-0.3,0.3-0.6,0.5-1,0.8v0.2h0.8c0.4-0.3,0.7-0.7,1.1-1H477z M478.1,187
		c-0.4,0.3-0.7,0.7-1,1h0.7c0.3-0.3,0.6-0.7,1-1H478.1z M476,183v1h1.7c0,0,0.1,0,0.1-0.1c0.4-0.3,0.7-0.6,1.1-0.9H476z M478.4,185
		c-0.4,0.3-0.8,0.7-1.2,1h0.8c0.3-0.3,0.5-0.5,0.8-0.8c0.1,0,0.1-0.1,0.2-0.2H478.4z M480.2,185c-0.3,0.3-0.7,0.7-1,1h0.6
		c0.4-0.3,0.7-0.7,1.1-1H480.2z M481.2,185c-0.2,0.2-0.4,0.5-0.7,0.7c-0.1,0.1-0.2,0.2-0.4,0.3h0.8c0.3-0.3,0.7-0.6,1-0.9
		c0,0,0.1-0.1,0.1-0.1H481.2z M479.2,187c-0.4,0.3-0.7,0.7-1.1,1h0.8c0.3-0.3,0.7-0.7,1-1H479.2z M480.3,187c-0.4,0.3-0.8,0.7-1.3,1
		h1.2c0.3-0.3,0.6-0.5,0.9-0.8l0.2-0.2H480.3z M481.7,187c-0.4,0.3-0.7,0.7-1.1,1h0.8c0.4-0.4,0.9-0.7,1.3-1H481.7z M483.4,187.7
		l-0.2,0.1c0,0-0.1,0.1-0.2,0.1h0.1c0.2-0.2,0.3-0.3,0.5-0.5C483.6,187.6,483.5,187.6,483.4,187.7z M483.1,187
		c-0.4,0.3-0.8,0.7-1.1,1h1c0.2-0.2,0.4-0.3,0.6-0.5c0.1-0.1,0.3-0.2,0.4-0.4V187H483.1z M483.5,188h0.5v-0.5
		C483.8,187.7,483.7,187.8,483.5,188z M479.2,183c-0.2,0.2-0.3,0.3-0.5,0.5c-0.2,0.2-0.4,0.4-0.6,0.5h1c0.4-0.3,0.8-0.7,1.2-1H479.2
		z M480.6,183c-0.4,0.3-0.7,0.7-1.1,1h0.6c0.4-0.4,0.8-0.7,1.2-1H480.6z M482.3,183c-0.3,0.3-0.7,0.6-1.1,1h0.7
		c0.4-0.3,0.8-0.7,1.2-1H482.3z M483.2,183c-0.3,0.3-0.7,0.7-1,1h1.1c0.2-0.2,0.5-0.4,0.7-0.6V183H483.2z M483.7,184h0.3v-0.3
		C483.9,183.8,483.8,183.9,483.7,184z M482.6,185c-0.4,0.3-0.8,0.7-1.1,1h1c0.4-0.3,0.8-0.7,1.2-1H482.6z M483.8,185
		c-0.3,0.3-0.7,0.7-1.1,1h1.2v-1H483.8z M479.2,183c-0.2,0.2-0.3,0.3-0.5,0.5c-0.2,0.2-0.4,0.4-0.6,0.5h1c0.4-0.3,0.8-0.7,1.2-1
		H479.2z M480.6,183c-0.4,0.3-0.7,0.7-1.1,1h0.6c0.4-0.4,0.8-0.7,1.2-1H480.6z M482.3,183c-0.3,0.3-0.7,0.6-1.1,1h0.7
		c0.4-0.3,0.8-0.7,1.2-1H482.3z M483.2,183c-0.3,0.3-0.7,0.7-1,1h1.1c0.2-0.2,0.5-0.4,0.7-0.6V183H483.2z M483.7,184h0.3v-0.3
		C483.9,183.8,483.8,183.9,483.7,184z M482.6,185c-0.4,0.3-0.8,0.7-1.1,1h1c0.4-0.3,0.8-0.7,1.2-1H482.6z M483.8,185
		c-0.3,0.3-0.7,0.7-1.1,1h1.2v-1H483.8z M479.2,187c-0.4,0.3-0.7,0.7-1.1,1h0.8c0.3-0.3,0.7-0.7,1-1H479.2z M480.3,187
		c-0.4,0.3-0.8,0.7-1.3,1h1.2c0.3-0.3,0.6-0.5,0.9-0.8l0.2-0.2H480.3z M481.7,187c-0.4,0.3-0.7,0.7-1.1,1h0.8c0.4-0.4,0.9-0.7,1.3-1
		H481.7z M483.4,187.7l-0.2,0.1c0,0-0.1,0.1-0.2,0.1h0.1c0.2-0.2,0.3-0.3,0.5-0.5C483.6,187.6,483.5,187.6,483.4,187.7z M483.1,187
		c-0.4,0.3-0.8,0.7-1.1,1h1c0.2-0.2,0.4-0.3,0.6-0.5c0.1-0.1,0.3-0.2,0.4-0.4V187H483.1z M483.5,188h0.5v-0.5
		C483.8,187.7,483.7,187.8,483.5,188z M481.2,185c-0.2,0.2-0.4,0.5-0.7,0.7c-0.1,0.1-0.2,0.2-0.4,0.3h0.8c0.3-0.3,0.7-0.6,1-0.9
		c0,0,0.1-0.1,0.1-0.1H481.2z M480.2,185c-0.3,0.3-0.7,0.7-1,1h0.6c0.4-0.3,0.7-0.7,1.1-1H480.2z M478.4,185c-0.4,0.3-0.8,0.7-1.2,1
		h0.8c0.3-0.3,0.5-0.5,0.8-0.8c0.1,0,0.1-0.1,0.2-0.2H478.4z M476,183v1h1.7c0,0,0.1,0,0.1-0.1c0.4-0.3,0.7-0.6,1.1-0.9H476z
		 M478.1,187c-0.4,0.3-0.7,0.7-1,1h0.7c0.3-0.3,0.6-0.7,1-1H478.1z M477,185c-0.3,0.3-0.6,0.5-1,0.8v0.2h0.8c0.4-0.3,0.7-0.7,1.1-1
		H477z M476,187v1h0.1c0.4-0.4,0.7-0.7,0.9-1H476z M476,185v0.5c0.2-0.2,0.4-0.3,0.5-0.5H476z M476,185v0.5c0.2-0.2,0.4-0.3,0.5-0.5
		H476z M476,187v1h0.1c0.4-0.4,0.7-0.7,0.9-1H476z M477,185c-0.3,0.3-0.6,0.5-1,0.8v0.2h0.8c0.4-0.3,0.7-0.7,1.1-1H477z M478.1,187
		c-0.4,0.3-0.7,0.7-1,1h0.7c0.3-0.3,0.6-0.7,1-1H478.1z M476,183v1h1.7c0,0,0.1,0,0.1-0.1c0.4-0.3,0.7-0.6,1.1-0.9H476z M478.4,185
		c-0.4,0.3-0.8,0.7-1.2,1h0.8c0.3-0.3,0.5-0.5,0.8-0.8c0.1,0,0.1-0.1,0.2-0.2H478.4z M480.2,185c-0.3,0.3-0.7,0.7-1,1h0.6
		c0.4-0.3,0.7-0.7,1.1-1H480.2z M481.2,185c-0.2,0.2-0.4,0.5-0.7,0.7c-0.1,0.1-0.2,0.2-0.4,0.3h0.8c0.3-0.3,0.7-0.6,1-0.9
		c0,0,0.1-0.1,0.1-0.1H481.2z M479.2,187c-0.4,0.3-0.7,0.7-1.1,1h0.8c0.3-0.3,0.7-0.7,1-1H479.2z M480.3,187c-0.4,0.3-0.8,0.7-1.3,1
		h1.2c0.3-0.3,0.6-0.5,0.9-0.8l0.2-0.2H480.3z M481.7,187c-0.4,0.3-0.7,0.7-1.1,1h0.8c0.4-0.4,0.9-0.7,1.3-1H481.7z M483.4,187.7
		l-0.2,0.1c0,0-0.1,0.1-0.2,0.1h0.1c0.2-0.2,0.3-0.3,0.5-0.5C483.6,187.6,483.5,187.6,483.4,187.7z M483.1,187
		c-0.4,0.3-0.8,0.7-1.1,1h1c0.2-0.2,0.4-0.3,0.6-0.5c0.1-0.1,0.3-0.2,0.4-0.4V187H483.1z M483.5,188h0.5v-0.5
		C483.8,187.7,483.7,187.8,483.5,188z M479.2,183c-0.2,0.2-0.3,0.3-0.5,0.5c-0.2,0.2-0.4,0.4-0.6,0.5h1c0.4-0.3,0.8-0.7,1.2-1H479.2
		z M480.6,183c-0.4,0.3-0.7,0.7-1.1,1h0.6c0.4-0.4,0.8-0.7,1.2-1H480.6z M482.3,183c-0.3,0.3-0.7,0.6-1.1,1h0.7
		c0.4-0.3,0.8-0.7,1.2-1H482.3z M483.2,183c-0.3,0.3-0.7,0.7-1,1h1.1c0.2-0.2,0.5-0.4,0.7-0.6V183H483.2z M483.7,184h0.3v-0.3
		C483.9,183.8,483.8,183.9,483.7,184z M482.6,185c-0.4,0.3-0.8,0.7-1.1,1h1c0.4-0.3,0.8-0.7,1.2-1H482.6z M483.8,185
		c-0.3,0.3-0.7,0.7-1.1,1h1.2v-1H483.8z M479.2,183c-0.2,0.2-0.3,0.3-0.5,0.5c-0.2,0.2-0.4,0.4-0.6,0.5h1c0.4-0.3,0.8-0.7,1.2-1
		H479.2z M480.6,183c-0.4,0.3-0.7,0.7-1.1,1h0.6c0.4-0.4,0.8-0.7,1.2-1H480.6z M482.3,183c-0.3,0.3-0.7,0.6-1.1,1h0.7
		c0.4-0.3,0.8-0.7,1.2-1H482.3z M483.2,183c-0.3,0.3-0.7,0.7-1,1h1.1c0.2-0.2,0.5-0.4,0.7-0.6V183H483.2z M483.7,184h0.3v-0.3
		C483.9,183.8,483.8,183.9,483.7,184z M482.6,185c-0.4,0.3-0.8,0.7-1.1,1h1c0.4-0.3,0.8-0.7,1.2-1H482.6z M483.8,185
		c-0.3,0.3-0.7,0.7-1.1,1h1.2v-1H483.8z M479.2,187c-0.4,0.3-0.7,0.7-1.1,1h0.8c0.3-0.3,0.7-0.7,1-1H479.2z M480.3,187
		c-0.4,0.3-0.8,0.7-1.3,1h1.2c0.3-0.3,0.6-0.5,0.9-0.8l0.2-0.2H480.3z M481.7,187c-0.4,0.3-0.7,0.7-1.1,1h0.8c0.4-0.4,0.9-0.7,1.3-1
		H481.7z M483.4,187.7l-0.2,0.1c0,0-0.1,0.1-0.2,0.1h0.1c0.2-0.2,0.3-0.3,0.5-0.5C483.6,187.6,483.5,187.6,483.4,187.7z M483.1,187
		c-0.4,0.3-0.8,0.7-1.1,1h1c0.2-0.2,0.4-0.3,0.6-0.5c0.1-0.1,0.3-0.2,0.4-0.4V187H483.1z M483.5,188h0.5v-0.5
		C483.8,187.7,483.7,187.8,483.5,188z M481.2,185c-0.2,0.2-0.4,0.5-0.7,0.7c-0.1,0.1-0.2,0.2-0.4,0.3h0.8c0.3-0.3,0.7-0.6,1-0.9
		c0,0,0.1-0.1,0.1-0.1H481.2z M480.2,185c-0.3,0.3-0.7,0.7-1,1h0.6c0.4-0.3,0.7-0.7,1.1-1H480.2z M478.4,185c-0.4,0.3-0.8,0.7-1.2,1
		h0.8c0.3-0.3,0.5-0.5,0.8-0.8c0.1,0,0.1-0.1,0.2-0.2H478.4z M476,183v1h1.7c0,0,0.1,0,0.1-0.1c0.4-0.3,0.7-0.6,1.1-0.9H476z
		 M478.1,187c-0.4,0.3-0.7,0.7-1,1h0.7c0.3-0.3,0.6-0.7,1-1H478.1z M477,185c-0.3,0.3-0.6,0.5-1,0.8v0.2h0.8c0.4-0.3,0.7-0.7,1.1-1
		H477z M476,187v1h0.1c0.4-0.4,0.7-0.7,0.9-1H476z M476,185v0.5c0.2-0.2,0.4-0.3,0.5-0.5H476z M474,183.3c-0.3,0.3-0.7,0.7-1,1v7
		c0.3-0.3,0.7-0.7,1-1v-5.6c-0.2,0.2-0.3,0.3-0.5,0.4c0.1-0.2,0.3-0.4,0.5-0.6V183.3z M473,182.6v1.4c0.3-0.4,0.6-0.7,1-1.1v-1.5
		C473.8,181.7,473.5,182.1,473,182.6z M482.6,185c-0.4,0.3-0.8,0.7-1.1,1h1c0.4-0.3,0.8-0.7,1.2-1H482.6z M483.8,185
		c-0.3,0.3-0.7,0.7-1.1,1h1.2v-1H483.8z M479.2,183c-0.2,0.2-0.3,0.3-0.5,0.5c-0.2,0.2-0.4,0.4-0.6,0.5h1c0.4-0.3,0.8-0.7,1.2-1
		H479.2z M480.6,183c-0.4,0.3-0.7,0.7-1.1,1h0.6c0.4-0.4,0.8-0.7,1.2-1H480.6z M482.3,183c-0.3,0.3-0.7,0.6-1.1,1h0.7
		c0.4-0.3,0.8-0.7,1.2-1H482.3z M483.2,183c-0.3,0.3-0.7,0.7-1,1h1.1c0.2-0.2,0.5-0.4,0.7-0.6V183H483.2z M483.7,184h0.3v-0.3
		C483.9,183.8,483.8,183.9,483.7,184z M481.2,185c-0.2,0.2-0.4,0.5-0.7,0.7c-0.1,0.1-0.2,0.2-0.4,0.3h0.8c0.3-0.3,0.7-0.6,1-0.9
		c0,0,0.1-0.1,0.1-0.1H481.2z M480.2,185c-0.3,0.3-0.7,0.7-1,1h0.6c0.4-0.3,0.7-0.7,1.1-1H480.2z M479.2,187c-0.4,0.3-0.7,0.7-1.1,1
		h0.8c0.3-0.3,0.7-0.7,1-1H479.2z M480.3,187c-0.4,0.3-0.8,0.7-1.3,1h1.2c0.3-0.3,0.6-0.5,0.9-0.8l0.2-0.2H480.3z M481.7,187
		c-0.4,0.3-0.7,0.7-1.1,1h0.8c0.4-0.4,0.9-0.7,1.3-1H481.7z M483.4,187.7l-0.2,0.1c0,0-0.1,0.1-0.2,0.1h0.1c0.2-0.2,0.3-0.3,0.5-0.5
		C483.6,187.6,483.5,187.6,483.4,187.7z M483.1,187c-0.4,0.3-0.8,0.7-1.1,1h1c0.2-0.2,0.4-0.3,0.6-0.5c0.1-0.1,0.3-0.2,0.4-0.4V187
		H483.1z M483.5,188h0.5v-0.5C483.8,187.7,483.7,187.8,483.5,188z M478.4,185c-0.4,0.3-0.8,0.7-1.2,1h0.8c0.3-0.3,0.5-0.5,0.8-0.8
		c0.1,0,0.1-0.1,0.2-0.2H478.4z M476,183v1h1.7c0,0,0.1,0,0.1-0.1c0.4-0.3,0.7-0.6,1.1-0.9H476z M478.1,187c-0.4,0.3-0.7,0.7-1,1
		h0.7c0.3-0.3,0.6-0.7,1-1H478.1z M477,185c-0.3,0.3-0.6,0.5-1,0.8v0.2h0.8c0.4-0.3,0.7-0.7,1.1-1H477z M476,187v1h0.1
		c0.4-0.4,0.7-0.7,0.9-1H476z M476,185v0.5c0.2-0.2,0.4-0.3,0.5-0.5H476z M476,185v0.5c0.2-0.2,0.4-0.3,0.5-0.5H476z M476,187v1h0.1
		c0.4-0.4,0.7-0.7,0.9-1H476z M477,185c-0.3,0.3-0.6,0.5-1,0.8v0.2h0.8c0.4-0.3,0.7-0.7,1.1-1H477z M478.1,187c-0.4,0.3-0.7,0.7-1,1
		h0.7c0.3-0.3,0.6-0.7,1-1H478.1z M476,183v1h1.7c0,0,0.1,0,0.1-0.1c0.4-0.3,0.7-0.6,1.1-0.9H476z M478.4,185
		c-0.4,0.3-0.8,0.7-1.2,1h0.8c0.3-0.3,0.5-0.5,0.8-0.8c0.1,0,0.1-0.1,0.2-0.2H478.4z M480.2,185c-0.3,0.3-0.7,0.7-1,1h0.6
		c0.4-0.3,0.7-0.7,1.1-1H480.2z M481.2,185c-0.2,0.2-0.4,0.5-0.7,0.7c-0.1,0.1-0.2,0.2-0.4,0.3h0.8c0.3-0.3,0.7-0.6,1-0.9
		c0,0,0.1-0.1,0.1-0.1H481.2z M479.2,187c-0.4,0.3-0.7,0.7-1.1,1h0.8c0.3-0.3,0.7-0.7,1-1H479.2z M480.3,187c-0.4,0.3-0.8,0.7-1.3,1
		h1.2c0.3-0.3,0.6-0.5,0.9-0.8l0.2-0.2H480.3z M481.7,187c-0.4,0.3-0.7,0.7-1.1,1h0.8c0.4-0.4,0.9-0.7,1.3-1H481.7z M483.4,187.7
		l-0.2,0.1c0,0-0.1,0.1-0.2,0.1h0.1c0.2-0.2,0.3-0.3,0.5-0.5C483.6,187.6,483.5,187.6,483.4,187.7z M483.1,187
		c-0.4,0.3-0.8,0.7-1.1,1h1c0.2-0.2,0.4-0.3,0.6-0.5c0.1-0.1,0.3-0.2,0.4-0.4V187H483.1z M483.5,188h0.5v-0.5
		C483.8,187.7,483.7,187.8,483.5,188z M482.6,185c-0.4,0.3-0.8,0.7-1.1,1h1c0.4-0.3,0.8-0.7,1.2-1H482.6z M483.8,185
		c-0.3,0.3-0.7,0.7-1.1,1h1.2v-1H483.8z M479.2,183c-0.2,0.2-0.3,0.3-0.5,0.5c-0.2,0.2-0.4,0.4-0.6,0.5h1c0.4-0.3,0.8-0.7,1.2-1
		H479.2z M480.6,183c-0.4,0.3-0.7,0.7-1.1,1h0.6c0.4-0.4,0.8-0.7,1.2-1H480.6z M482.3,183c-0.3,0.3-0.7,0.6-1.1,1h0.7
		c0.4-0.3,0.8-0.7,1.2-1H482.3z M483.2,183c-0.3,0.3-0.7,0.7-1,1h1.1c0.2-0.2,0.5-0.4,0.7-0.6V183H483.2z M483.7,184h0.3v-0.3
		C483.9,183.8,483.8,183.9,483.7,184z M482.6,185c-0.4,0.3-0.8,0.7-1.1,1h1c0.4-0.3,0.8-0.7,1.2-1H482.6z M483.8,185
		c-0.3,0.3-0.7,0.7-1.1,1h1.2v-1H483.8z M479.2,183c-0.2,0.2-0.3,0.3-0.5,0.5c-0.2,0.2-0.4,0.4-0.6,0.5h1c0.4-0.3,0.8-0.7,1.2-1
		H479.2z M480.6,183c-0.4,0.3-0.7,0.7-1.1,1h0.6c0.4-0.4,0.8-0.7,1.2-1H480.6z M482.3,183c-0.3,0.3-0.7,0.6-1.1,1h0.7
		c0.4-0.3,0.8-0.7,1.2-1H482.3z M483.2,183c-0.3,0.3-0.7,0.7-1,1h1.1c0.2-0.2,0.5-0.4,0.7-0.6V183H483.2z M483.7,184h0.3v-0.3
		C483.9,183.8,483.8,183.9,483.7,184z M479.2,187c-0.4,0.3-0.7,0.7-1.1,1h0.8c0.3-0.3,0.7-0.7,1-1H479.2z M480.3,187
		c-0.4,0.3-0.8,0.7-1.3,1h1.2c0.3-0.3,0.6-0.5,0.9-0.8l0.2-0.2H480.3z M481.7,187c-0.4,0.3-0.7,0.7-1.1,1h0.8c0.4-0.4,0.9-0.7,1.3-1
		H481.7z M483.4,187.7l-0.2,0.1c0,0-0.1,0.1-0.2,0.1h0.1c0.2-0.2,0.3-0.3,0.5-0.5C483.6,187.6,483.5,187.6,483.4,187.7z M483.1,187
		c-0.4,0.3-0.8,0.7-1.1,1h1c0.2-0.2,0.4-0.3,0.6-0.5c0.1-0.1,0.3-0.2,0.4-0.4V187H483.1z M483.5,188h0.5v-0.5
		C483.8,187.7,483.7,187.8,483.5,188z M481.2,185c-0.2,0.2-0.4,0.5-0.7,0.7c-0.1,0.1-0.2,0.2-0.4,0.3h0.8c0.3-0.3,0.7-0.6,1-0.9
		c0,0,0.1-0.1,0.1-0.1H481.2z M480.2,185c-0.3,0.3-0.7,0.7-1,1h0.6c0.4-0.3,0.7-0.7,1.1-1H480.2z M478.4,185c-0.4,0.3-0.8,0.7-1.2,1
		h0.8c0.3-0.3,0.5-0.5,0.8-0.8c0.1,0,0.1-0.1,0.2-0.2H478.4z M476,183v1h1.7c0,0,0.1,0,0.1-0.1c0.4-0.3,0.7-0.6,1.1-0.9H476z
		 M478.1,187c-0.4,0.3-0.7,0.7-1,1h0.7c0.3-0.3,0.6-0.7,1-1H478.1z M477,185c-0.3,0.3-0.6,0.5-1,0.8v0.2h0.8c0.4-0.3,0.7-0.7,1.1-1
		H477z M476,187v1h0.1c0.4-0.4,0.7-0.7,0.9-1H476z M476,185v0.5c0.2-0.2,0.4-0.3,0.5-0.5H476z M476,185v0.5c0.2-0.2,0.4-0.3,0.5-0.5
		H476z M476,187v1h0.1c0.4-0.4,0.7-0.7,0.9-1H476z M477,185c-0.3,0.3-0.6,0.5-1,0.8v0.2h0.8c0.4-0.3,0.7-0.7,1.1-1H477z M478.1,187
		c-0.4,0.3-0.7,0.7-1,1h0.7c0.3-0.3,0.6-0.7,1-1H478.1z M476,183v1h1.7c0,0,0.1,0,0.1-0.1c0.4-0.3,0.7-0.6,1.1-0.9H476z M478.4,185
		c-0.4,0.3-0.8,0.7-1.2,1h0.8c0.3-0.3,0.5-0.5,0.8-0.8c0.1,0,0.1-0.1,0.2-0.2H478.4z M480.2,185c-0.3,0.3-0.7,0.7-1,1h0.6
		c0.4-0.3,0.7-0.7,1.1-1H480.2z M481.2,185c-0.2,0.2-0.4,0.5-0.7,0.7c-0.1,0.1-0.2,0.2-0.4,0.3h0.8c0.3-0.3,0.7-0.6,1-0.9
		c0,0,0.1-0.1,0.1-0.1H481.2z M479.2,187c-0.4,0.3-0.7,0.7-1.1,1h0.8c0.3-0.3,0.7-0.7,1-1H479.2z M480.3,187c-0.4,0.3-0.8,0.7-1.3,1
		h1.2c0.3-0.3,0.6-0.5,0.9-0.8l0.2-0.2H480.3z M481.7,187c-0.4,0.3-0.7,0.7-1.1,1h0.8c0.4-0.4,0.9-0.7,1.3-1H481.7z M483.4,187.7
		l-0.2,0.1c0,0-0.1,0.1-0.2,0.1h0.1c0.2-0.2,0.3-0.3,0.5-0.5C483.6,187.6,483.5,187.6,483.4,187.7z M483.1,187
		c-0.4,0.3-0.8,0.7-1.1,1h1c0.2-0.2,0.4-0.3,0.6-0.5c0.1-0.1,0.3-0.2,0.4-0.4V187H483.1z M483.5,188h0.5v-0.5
		C483.8,187.7,483.7,187.8,483.5,188z M482.6,185c-0.4,0.3-0.8,0.7-1.1,1h1c0.4-0.3,0.8-0.7,1.2-1H482.6z M483.8,185
		c-0.3,0.3-0.7,0.7-1.1,1h1.2v-1H483.8z M479.2,183c-0.2,0.2-0.3,0.3-0.5,0.5c-0.2,0.2-0.4,0.4-0.6,0.5h1c0.4-0.3,0.8-0.7,1.2-1
		H479.2z M480.6,183c-0.4,0.3-0.7,0.7-1.1,1h0.6c0.4-0.4,0.8-0.7,1.2-1H480.6z M482.3,183c-0.3,0.3-0.7,0.6-1.1,1h0.7
		c0.4-0.3,0.8-0.7,1.2-1H482.3z M483.2,183c-0.3,0.3-0.7,0.7-1,1h1.1c0.2-0.2,0.5-0.4,0.7-0.6V183H483.2z M483.7,184h0.3v-0.3
		C483.9,183.8,483.8,183.9,483.7,184z M482.6,185c-0.4,0.3-0.8,0.7-1.1,1h1c0.4-0.3,0.8-0.7,1.2-1H482.6z M483.8,185
		c-0.3,0.3-0.7,0.7-1.1,1h1.2v-1H483.8z M479.2,183c-0.2,0.2-0.3,0.3-0.5,0.5c-0.2,0.2-0.4,0.4-0.6,0.5h1c0.4-0.3,0.8-0.7,1.2-1
		H479.2z M480.6,183c-0.4,0.3-0.7,0.7-1.1,1h0.6c0.4-0.4,0.8-0.7,1.2-1H480.6z M482.3,183c-0.3,0.3-0.7,0.6-1.1,1h0.7
		c0.4-0.3,0.8-0.7,1.2-1H482.3z M483.2,183c-0.3,0.3-0.7,0.7-1,1h1.1c0.2-0.2,0.5-0.4,0.7-0.6V183H483.2z M483.7,184h0.3v-0.3
		C483.9,183.8,483.8,183.9,483.7,184z M479.2,187c-0.4,0.3-0.7,0.7-1.1,1h0.8c0.3-0.3,0.7-0.7,1-1H479.2z M480.3,187
		c-0.4,0.3-0.8,0.7-1.3,1h1.2c0.3-0.3,0.6-0.5,0.9-0.8l0.2-0.2H480.3z M481.7,187c-0.4,0.3-0.7,0.7-1.1,1h0.8c0.4-0.4,0.9-0.7,1.3-1
		H481.7z M483.4,187.7l-0.2,0.1c0,0-0.1,0.1-0.2,0.1h0.1c0.2-0.2,0.3-0.3,0.5-0.5C483.6,187.6,483.5,187.6,483.4,187.7z M483.1,187
		c-0.4,0.3-0.8,0.7-1.1,1h1c0.2-0.2,0.4-0.3,0.6-0.5c0.1-0.1,0.3-0.2,0.4-0.4V187H483.1z M483.5,188h0.5v-0.5
		C483.8,187.7,483.7,187.8,483.5,188z M481.2,185c-0.2,0.2-0.4,0.5-0.7,0.7c-0.1,0.1-0.2,0.2-0.4,0.3h0.8c0.3-0.3,0.7-0.6,1-0.9
		c0,0,0.1-0.1,0.1-0.1H481.2z M480.2,185c-0.3,0.3-0.7,0.7-1,1h0.6c0.4-0.3,0.7-0.7,1.1-1H480.2z M478.4,185c-0.4,0.3-0.8,0.7-1.2,1
		h0.8c0.3-0.3,0.5-0.5,0.8-0.8c0.1,0,0.1-0.1,0.2-0.2H478.4z M476,183v1h1.7c0,0,0.1,0,0.1-0.1c0.4-0.3,0.7-0.6,1.1-0.9H476z
		 M478.1,187c-0.4,0.3-0.7,0.7-1,1h0.7c0.3-0.3,0.6-0.7,1-1H478.1z M477,185c-0.3,0.3-0.6,0.5-1,0.8v0.2h0.8c0.4-0.3,0.7-0.7,1.1-1
		H477z M476,187v1h0.1c0.4-0.4,0.7-0.7,0.9-1H476z M476,185v0.5c0.2-0.2,0.4-0.3,0.5-0.5H476z M476,185v0.5c0.2-0.2,0.4-0.3,0.5-0.5
		H476z M476,187v1h0.1c0.4-0.4,0.7-0.7,0.9-1H476z M477,185c-0.3,0.3-0.6,0.5-1,0.8v0.2h0.8c0.4-0.3,0.7-0.7,1.1-1H477z M478.1,187
		c-0.4,0.3-0.7,0.7-1,1h0.7c0.3-0.3,0.6-0.7,1-1H478.1z M476,183v1h1.7c0,0,0.1,0,0.1-0.1c0.4-0.3,0.7-0.6,1.1-0.9H476z M478.4,185
		c-0.4,0.3-0.8,0.7-1.2,1h0.8c0.3-0.3,0.5-0.5,0.8-0.8c0.1,0,0.1-0.1,0.2-0.2H478.4z M480.2,185c-0.3,0.3-0.7,0.7-1,1h0.6
		c0.4-0.3,0.7-0.7,1.1-1H480.2z M481.2,185c-0.2,0.2-0.4,0.5-0.7,0.7c-0.1,0.1-0.2,0.2-0.4,0.3h0.8c0.3-0.3,0.7-0.6,1-0.9
		c0,0,0.1-0.1,0.1-0.1H481.2z M479.2,187c-0.4,0.3-0.7,0.7-1.1,1h0.8c0.3-0.3,0.7-0.7,1-1H479.2z M480.3,187c-0.4,0.3-0.8,0.7-1.3,1
		h1.2c0.3-0.3,0.6-0.5,0.9-0.8l0.2-0.2H480.3z M481.7,187c-0.4,0.3-0.7,0.7-1.1,1h0.8c0.4-0.4,0.9-0.7,1.3-1H481.7z M483.4,187.7
		l-0.2,0.1c0,0-0.1,0.1-0.2,0.1h0.1c0.2-0.2,0.3-0.3,0.5-0.5C483.6,187.6,483.5,187.6,483.4,187.7z M483.1,187
		c-0.4,0.3-0.8,0.7-1.1,1h1c0.2-0.2,0.4-0.3,0.6-0.5c0.1-0.1,0.3-0.2,0.4-0.4V187H483.1z M483.5,188h0.5v-0.5
		C483.8,187.7,483.7,187.8,483.5,188z M482.6,185c-0.4,0.3-0.8,0.7-1.1,1h1c0.4-0.3,0.8-0.7,1.2-1H482.6z M483.8,185
		c-0.3,0.3-0.7,0.7-1.1,1h1.2v-1H483.8z M479.2,183c-0.2,0.2-0.3,0.3-0.5,0.5c-0.2,0.2-0.4,0.4-0.6,0.5h1c0.4-0.3,0.8-0.7,1.2-1
		H479.2z M480.6,183c-0.4,0.3-0.7,0.7-1.1,1h0.6c0.4-0.4,0.8-0.7,1.2-1H480.6z M482.3,183c-0.3,0.3-0.7,0.6-1.1,1h0.7
		c0.4-0.3,0.8-0.7,1.2-1H482.3z M483.2,183c-0.3,0.3-0.7,0.7-1,1h1.1c0.2-0.2,0.5-0.4,0.7-0.6V183H483.2z M483.7,184h0.3v-0.3
		C483.9,183.8,483.8,183.9,483.7,184z M482.6,185c-0.4,0.3-0.8,0.7-1.1,1h1c0.4-0.3,0.8-0.7,1.2-1H482.6z M483.8,185
		c-0.3,0.3-0.7,0.7-1.1,1h1.2v-1H483.8z M479.2,183c-0.2,0.2-0.3,0.3-0.5,0.5c-0.2,0.2-0.4,0.4-0.6,0.5h1c0.4-0.3,0.8-0.7,1.2-1
		H479.2z M480.6,183c-0.4,0.3-0.7,0.7-1.1,1h0.6c0.4-0.4,0.8-0.7,1.2-1H480.6z M482.3,183c-0.3,0.3-0.7,0.6-1.1,1h0.7
		c0.4-0.3,0.8-0.7,1.2-1H482.3z M483.2,183c-0.3,0.3-0.7,0.7-1,1h1.1c0.2-0.2,0.5-0.4,0.7-0.6V183H483.2z M483.7,184h0.3v-0.3
		C483.9,183.8,483.8,183.9,483.7,184z M479.2,187c-0.4,0.3-0.7,0.7-1.1,1h0.8c0.3-0.3,0.7-0.7,1-1H479.2z M480.3,187
		c-0.4,0.3-0.8,0.7-1.3,1h1.2c0.3-0.3,0.6-0.5,0.9-0.8l0.2-0.2H480.3z M481.7,187c-0.4,0.3-0.7,0.7-1.1,1h0.8c0.4-0.4,0.9-0.7,1.3-1
		H481.7z M483.4,187.7l-0.2,0.1c0,0-0.1,0.1-0.2,0.1h0.1c0.2-0.2,0.3-0.3,0.5-0.5C483.6,187.6,483.5,187.6,483.4,187.7z M483.1,187
		c-0.4,0.3-0.8,0.7-1.1,1h1c0.2-0.2,0.4-0.3,0.6-0.5c0.1-0.1,0.3-0.2,0.4-0.4V187H483.1z M483.5,188h0.5v-0.5
		C483.8,187.7,483.7,187.8,483.5,188z M481.2,185c-0.2,0.2-0.4,0.5-0.7,0.7c-0.1,0.1-0.2,0.2-0.4,0.3h0.8c0.3-0.3,0.7-0.6,1-0.9
		c0,0,0.1-0.1,0.1-0.1H481.2z M480.2,185c-0.3,0.3-0.7,0.7-1,1h0.6c0.4-0.3,0.7-0.7,1.1-1H480.2z M478.4,185c-0.4,0.3-0.8,0.7-1.2,1
		h0.8c0.3-0.3,0.5-0.5,0.8-0.8c0.1,0,0.1-0.1,0.2-0.2H478.4z M476,183v1h1.7c0,0,0.1,0,0.1-0.1c0.4-0.3,0.7-0.6,1.1-0.9H476z
		 M478.1,187c-0.4,0.3-0.7,0.7-1,1h0.7c0.3-0.3,0.6-0.7,1-1H478.1z M477,185c-0.3,0.3-0.6,0.5-1,0.8v0.2h0.8c0.4-0.3,0.7-0.7,1.1-1
		H477z M476,187v1h0.1c0.4-0.4,0.7-0.7,0.9-1H476z M476,185v0.5c0.2-0.2,0.4-0.3,0.5-0.5H476z M476,185v0.5c0.2-0.2,0.4-0.3,0.5-0.5
		H476z M476,187v1h0.1c0.4-0.4,0.7-0.7,0.9-1H476z M477,185c-0.3,0.3-0.6,0.5-1,0.8v0.2h0.8c0.4-0.3,0.7-0.7,1.1-1H477z M478.1,187
		c-0.4,0.3-0.7,0.7-1,1h0.7c0.3-0.3,0.6-0.7,1-1H478.1z M476,183v1h1.7c0,0,0.1,0,0.1-0.1c0.4-0.3,0.7-0.6,1.1-0.9H476z M478.4,185
		c-0.4,0.3-0.8,0.7-1.2,1h0.8c0.3-0.3,0.5-0.5,0.8-0.8c0.1,0,0.1-0.1,0.2-0.2H478.4z M480.2,185c-0.3,0.3-0.7,0.7-1,1h0.6
		c0.4-0.3,0.7-0.7,1.1-1H480.2z M481.2,185c-0.2,0.2-0.4,0.5-0.7,0.7c-0.1,0.1-0.2,0.2-0.4,0.3h0.8c0.3-0.3,0.7-0.6,1-0.9
		c0,0,0.1-0.1,0.1-0.1H481.2z M479.2,187c-0.4,0.3-0.7,0.7-1.1,1h0.8c0.3-0.3,0.7-0.7,1-1H479.2z M480.3,187c-0.4,0.3-0.8,0.7-1.3,1
		h1.2c0.3-0.3,0.6-0.5,0.9-0.8l0.2-0.2H480.3z M481.7,187c-0.4,0.3-0.7,0.7-1.1,1h0.8c0.4-0.4,0.9-0.7,1.3-1H481.7z M483.4,187.7
		l-0.2,0.1c0,0-0.1,0.1-0.2,0.1h0.1c0.2-0.2,0.3-0.3,0.5-0.5C483.6,187.6,483.5,187.6,483.4,187.7z M483.1,187
		c-0.4,0.3-0.8,0.7-1.1,1h1c0.2-0.2,0.4-0.3,0.6-0.5c0.1-0.1,0.3-0.2,0.4-0.4V187H483.1z M483.5,188h0.5v-0.5
		C483.8,187.7,483.7,187.8,483.5,188z M482.6,185c-0.4,0.3-0.8,0.7-1.1,1h1c0.4-0.3,0.8-0.7,1.2-1H482.6z M483.8,185
		c-0.3,0.3-0.7,0.7-1.1,1h1.2v-1H483.8z M479.2,183c-0.2,0.2-0.3,0.3-0.5,0.5c-0.2,0.2-0.4,0.4-0.6,0.5h1c0.4-0.3,0.8-0.7,1.2-1
		H479.2z M480.6,183c-0.4,0.3-0.7,0.7-1.1,1h0.6c0.4-0.4,0.8-0.7,1.2-1H480.6z M482.3,183c-0.3,0.3-0.7,0.6-1.1,1h0.7
		c0.4-0.3,0.8-0.7,1.2-1H482.3z M483.2,183c-0.3,0.3-0.7,0.7-1,1h1.1c0.2-0.2,0.5-0.4,0.7-0.6V183H483.2z M483.7,184h0.3v-0.3
		C483.9,183.8,483.8,183.9,483.7,184z M482.6,185c-0.4,0.3-0.8,0.7-1.1,1h1c0.4-0.3,0.8-0.7,1.2-1H482.6z M483.8,185
		c-0.3,0.3-0.7,0.7-1.1,1h1.2v-1H483.8z M479.2,183c-0.2,0.2-0.3,0.3-0.5,0.5c-0.2,0.2-0.4,0.4-0.6,0.5h1c0.4-0.3,0.8-0.7,1.2-1
		H479.2z M480.6,183c-0.4,0.3-0.7,0.7-1.1,1h0.6c0.4-0.4,0.8-0.7,1.2-1H480.6z M482.3,183c-0.3,0.3-0.7,0.6-1.1,1h0.7
		c0.4-0.3,0.8-0.7,1.2-1H482.3z M483.2,183c-0.3,0.3-0.7,0.7-1,1h1.1c0.2-0.2,0.5-0.4,0.7-0.6V183H483.2z M483.7,184h0.3v-0.3
		C483.9,183.8,483.8,183.9,483.7,184z M479.2,187c-0.4,0.3-0.7,0.7-1.1,1h0.8c0.3-0.3,0.7-0.7,1-1H479.2z M480.3,187
		c-0.4,0.3-0.8,0.7-1.3,1h1.2c0.3-0.3,0.6-0.5,0.9-0.8l0.2-0.2H480.3z M481.7,187c-0.4,0.3-0.7,0.7-1.1,1h0.8c0.4-0.4,0.9-0.7,1.3-1
		H481.7z M483.4,187.7l-0.2,0.1c0,0-0.1,0.1-0.2,0.1h0.1c0.2-0.2,0.3-0.3,0.5-0.5C483.6,187.6,483.5,187.6,483.4,187.7z M483.1,187
		c-0.4,0.3-0.8,0.7-1.1,1h1c0.2-0.2,0.4-0.3,0.6-0.5c0.1-0.1,0.3-0.2,0.4-0.4V187H483.1z M483.5,188h0.5v-0.5
		C483.8,187.7,483.7,187.8,483.5,188z M481.2,185c-0.2,0.2-0.4,0.5-0.7,0.7c-0.1,0.1-0.2,0.2-0.4,0.3h0.8c0.3-0.3,0.7-0.6,1-0.9
		c0,0,0.1-0.1,0.1-0.1H481.2z M480.2,185c-0.3,0.3-0.7,0.7-1,1h0.6c0.4-0.3,0.7-0.7,1.1-1H480.2z M478.4,185c-0.4,0.3-0.8,0.7-1.2,1
		h0.8c0.3-0.3,0.5-0.5,0.8-0.8c0.1,0,0.1-0.1,0.2-0.2H478.4z M476,183v1h1.7c0,0,0.1,0,0.1-0.1c0.4-0.3,0.7-0.6,1.1-0.9H476z
		 M478.1,187c-0.4,0.3-0.7,0.7-1,1h0.7c0.3-0.3,0.6-0.7,1-1H478.1z M477,185c-0.3,0.3-0.6,0.5-1,0.8v0.2h0.8c0.4-0.3,0.7-0.7,1.1-1
		H477z M476,187v1h0.1c0.4-0.4,0.7-0.7,0.9-1H476z M476,185v0.5c0.2-0.2,0.4-0.3,0.5-0.5H476z M476,185v0.5c0.2-0.2,0.4-0.3,0.5-0.5
		H476z M476,187v1h0.1c0.4-0.4,0.7-0.7,0.9-1H476z M477,185c-0.3,0.3-0.6,0.5-1,0.8v0.2h0.8c0.4-0.3,0.7-0.7,1.1-1H477z M478.1,187
		c-0.4,0.3-0.7,0.7-1,1h0.7c0.3-0.3,0.6-0.7,1-1H478.1z M476,183v1h1.7c0,0,0.1,0,0.1-0.1c0.4-0.3,0.7-0.6,1.1-0.9H476z M478.4,185
		c-0.4,0.3-0.8,0.7-1.2,1h0.8c0.3-0.3,0.5-0.5,0.8-0.8c0.1,0,0.1-0.1,0.2-0.2H478.4z M480.2,185c-0.3,0.3-0.7,0.7-1,1h0.6
		c0.4-0.3,0.7-0.7,1.1-1H480.2z M479.2,187c-0.4,0.3-0.7,0.7-1.1,1h0.8c0.3-0.3,0.7-0.7,1-1H479.2z M480.3,187
		c-0.4,0.3-0.8,0.7-1.3,1h1.2c0.3-0.3,0.6-0.5,0.9-0.8l0.2-0.2H480.3z M481.7,187c-0.4,0.3-0.7,0.7-1.1,1h0.8c0.4-0.4,0.9-0.7,1.3-1
		H481.7z M483.4,187.7l-0.2,0.1c0,0-0.1,0.1-0.2,0.1h0.1c0.2-0.2,0.3-0.3,0.5-0.5C483.6,187.6,483.5,187.6,483.4,187.7z M483.1,187
		c-0.4,0.3-0.8,0.7-1.1,1h1c0.2-0.2,0.4-0.3,0.6-0.5c0.1-0.1,0.3-0.2,0.4-0.4V187H483.1z M483.5,188h0.5v-0.5
		C483.8,187.7,483.7,187.8,483.5,188z M482.6,185c-0.4,0.3-0.8,0.7-1.1,1h1c0.4-0.3,0.8-0.7,1.2-1H482.6z M483.8,185
		c-0.3,0.3-0.7,0.7-1.1,1h1.2v-1H483.8z M481.2,185c-0.2,0.2-0.4,0.5-0.7,0.7c-0.1,0.1-0.2,0.2-0.4,0.3h0.8c0.3-0.3,0.7-0.6,1-0.9
		c0,0,0.1-0.1,0.1-0.1H481.2z M479.2,183c-0.2,0.2-0.3,0.3-0.5,0.5c-0.2,0.2-0.4,0.4-0.6,0.5h1c0.4-0.3,0.8-0.7,1.2-1H479.2z
		 M480.6,183c-0.4,0.3-0.7,0.7-1.1,1h0.6c0.4-0.4,0.8-0.7,1.2-1H480.6z M482.3,183c-0.3,0.3-0.7,0.6-1.1,1h0.7
		c0.4-0.3,0.8-0.7,1.2-1H482.3z M483.2,183c-0.3,0.3-0.7,0.7-1,1h1.1c0.2-0.2,0.5-0.4,0.7-0.6V183H483.2z M483.7,184h0.3v-0.3
		C483.9,183.8,483.8,183.9,483.7,184z M482.6,185c-0.4,0.3-0.8,0.7-1.1,1h1c0.4-0.3,0.8-0.7,1.2-1H482.6z M483.8,185
		c-0.3,0.3-0.7,0.7-1.1,1h1.2v-1H483.8z M481.2,185c-0.2,0.2-0.4,0.5-0.7,0.7c-0.1,0.1-0.2,0.2-0.4,0.3h0.8c0.3-0.3,0.7-0.6,1-0.9
		c0,0,0.1-0.1,0.1-0.1H481.2z M479.2,183c-0.2,0.2-0.3,0.3-0.5,0.5c-0.2,0.2-0.4,0.4-0.6,0.5h1c0.4-0.3,0.8-0.7,1.2-1H479.2z
		 M480.6,183c-0.4,0.3-0.7,0.7-1.1,1h0.6c0.4-0.4,0.8-0.7,1.2-1H480.6z M482.3,183c-0.3,0.3-0.7,0.6-1.1,1h0.7
		c0.4-0.3,0.8-0.7,1.2-1H482.3z M483.2,183c-0.3,0.3-0.7,0.7-1,1h1.1c0.2-0.2,0.5-0.4,0.7-0.6V183H483.2z M483.7,184h0.3v-0.3
		C483.9,183.8,483.8,183.9,483.7,184z M479.2,187c-0.4,0.3-0.7,0.7-1.1,1h0.8c0.3-0.3,0.7-0.7,1-1H479.2z M480.3,187
		c-0.4,0.3-0.8,0.7-1.3,1h1.2c0.3-0.3,0.6-0.5,0.9-0.8l0.2-0.2H480.3z M481.7,187c-0.4,0.3-0.7,0.7-1.1,1h0.8c0.4-0.4,0.9-0.7,1.3-1
		H481.7z M483.4,187.7l-0.2,0.1c0,0-0.1,0.1-0.2,0.1h0.1c0.2-0.2,0.3-0.3,0.5-0.5C483.6,187.6,483.5,187.6,483.4,187.7z M483.1,187
		c-0.4,0.3-0.8,0.7-1.1,1h1c0.2-0.2,0.4-0.3,0.6-0.5c0.1-0.1,0.3-0.2,0.4-0.4V187H483.1z M483.5,188h0.5v-0.5
		C483.8,187.7,483.7,187.8,483.5,188z M480.2,185c-0.3,0.3-0.7,0.7-1,1h0.6c0.4-0.3,0.7-0.7,1.1-1H480.2z M478.4,185
		c-0.4,0.3-0.8,0.7-1.2,1h0.8c0.3-0.3,0.5-0.5,0.8-0.8c0.1,0,0.1-0.1,0.2-0.2H478.4z M476,183v1h1.7c0,0,0.1,0,0.1-0.1
		c0.4-0.3,0.7-0.6,1.1-0.9H476z M478.1,187c-0.4,0.3-0.7,0.7-1,1h0.7c0.3-0.3,0.6-0.7,1-1H478.1z M477,185c-0.3,0.3-0.6,0.5-1,0.8
		v0.2h0.8c0.4-0.3,0.7-0.7,1.1-1H477z M476,187v1h0.1c0.4-0.4,0.7-0.7,0.9-1H476z M476,185v0.5c0.2-0.2,0.4-0.3,0.5-0.5H476z
		 M476,185v0.5c0.2-0.2,0.4-0.3,0.5-0.5H476z M476,187v1h0.1c0.4-0.4,0.7-0.7,0.9-1H476z M477,185c-0.3,0.3-0.6,0.5-1,0.8v0.2h0.8
		c0.4-0.3,0.7-0.7,1.1-1H477z M478.1,187c-0.4,0.3-0.7,0.7-1,1h0.7c0.3-0.3,0.6-0.7,1-1H478.1z M476,183v1h1.7c0,0,0.1,0,0.1-0.1
		c0.4-0.3,0.7-0.6,1.1-0.9H476z M478.4,185c-0.4,0.3-0.8,0.7-1.2,1h0.8c0.3-0.3,0.5-0.5,0.8-0.8c0.1,0,0.1-0.1,0.2-0.2H478.4z
		 M479.2,187c-0.4,0.3-0.7,0.7-1.1,1h0.8c0.3-0.3,0.7-0.7,1-1H479.2z M480.3,187c-0.4,0.3-0.8,0.7-1.3,1h1.2
		c0.3-0.3,0.6-0.5,0.9-0.8l0.2-0.2H480.3z M481.7,187c-0.4,0.3-0.7,0.7-1.1,1h0.8c0.4-0.4,0.9-0.7,1.3-1H481.7z M483.4,187.7
		l-0.2,0.1c0,0-0.1,0.1-0.2,0.1h0.1c0.2-0.2,0.3-0.3,0.5-0.5C483.6,187.6,483.5,187.6,483.4,187.7z M483.1,187
		c-0.4,0.3-0.8,0.7-1.1,1h1c0.2-0.2,0.4-0.3,0.6-0.5c0.1-0.1,0.3-0.2,0.4-0.4V187H483.1z M483.5,188h0.5v-0.5
		C483.8,187.7,483.7,187.8,483.5,188z M482.6,185c-0.4,0.3-0.8,0.7-1.1,1h1c0.4-0.3,0.8-0.7,1.2-1H482.6z M483.8,185
		c-0.3,0.3-0.7,0.7-1.1,1h1.2v-1H483.8z M481.2,185c-0.2,0.2-0.4,0.5-0.7,0.7c-0.1,0.1-0.2,0.2-0.4,0.3h0.8c0.3-0.3,0.7-0.6,1-0.9
		c0,0,0.1-0.1,0.1-0.1H481.2z M480.2,185c-0.3,0.3-0.7,0.7-1,1h0.6c0.4-0.3,0.7-0.7,1.1-1H480.2z M479.2,183
		c-0.2,0.2-0.3,0.3-0.5,0.5c-0.2,0.2-0.4,0.4-0.6,0.5h1c0.4-0.3,0.8-0.7,1.2-1H479.2z M480.6,183c-0.4,0.3-0.7,0.7-1.1,1h0.6
		c0.4-0.4,0.8-0.7,1.2-1H480.6z M482.3,183c-0.3,0.3-0.7,0.6-1.1,1h0.7c0.4-0.3,0.8-0.7,1.2-1H482.3z M483.2,183
		c-0.3,0.3-0.7,0.7-1,1h1.1c0.2-0.2,0.5-0.4,0.7-0.6V183H483.2z M483.7,184h0.3v-0.3C483.9,183.8,483.8,183.9,483.7,184z M482.6,185
		c-0.4,0.3-0.8,0.7-1.1,1h1c0.4-0.3,0.8-0.7,1.2-1H482.6z M483.8,185c-0.3,0.3-0.7,0.7-1.1,1h1.2v-1H483.8z M481.2,185
		c-0.2,0.2-0.4,0.5-0.7,0.7c-0.1,0.1-0.2,0.2-0.4,0.3h0.8c0.3-0.3,0.7-0.6,1-0.9c0,0,0.1-0.1,0.1-0.1H481.2z M480.2,185
		c-0.3,0.3-0.7,0.7-1,1h0.6c0.4-0.3,0.7-0.7,1.1-1H480.2z M479.2,183c-0.2,0.2-0.3,0.3-0.5,0.5c-0.2,0.2-0.4,0.4-0.6,0.5h1
		c0.4-0.3,0.8-0.7,1.2-1H479.2z M480.6,183c-0.4,0.3-0.7,0.7-1.1,1h0.6c0.4-0.4,0.8-0.7,1.2-1H480.6z M482.3,183
		c-0.3,0.3-0.7,0.6-1.1,1h0.7c0.4-0.3,0.8-0.7,1.2-1H482.3z M483.2,183c-0.3,0.3-0.7,0.7-1,1h1.1c0.2-0.2,0.5-0.4,0.7-0.6V183H483.2
		z M483.7,184h0.3v-0.3C483.9,183.8,483.8,183.9,483.7,184z M479.2,187c-0.4,0.3-0.7,0.7-1.1,1h0.8c0.3-0.3,0.7-0.7,1-1H479.2z
		 M480.3,187c-0.4,0.3-0.8,0.7-1.3,1h1.2c0.3-0.3,0.6-0.5,0.9-0.8l0.2-0.2H480.3z M481.7,187c-0.4,0.3-0.7,0.7-1.1,1h0.8
		c0.4-0.4,0.9-0.7,1.3-1H481.7z M483.4,187.7l-0.2,0.1c0,0-0.1,0.1-0.2,0.1h0.1c0.2-0.2,0.3-0.3,0.5-0.5
		C483.6,187.6,483.5,187.6,483.4,187.7z M483.1,187c-0.4,0.3-0.8,0.7-1.1,1h1c0.2-0.2,0.4-0.3,0.6-0.5c0.1-0.1,0.3-0.2,0.4-0.4V187
		H483.1z M483.5,188h0.5v-0.5C483.8,187.7,483.7,187.8,483.5,188z M478.4,185c-0.4,0.3-0.8,0.7-1.2,1h0.8c0.3-0.3,0.5-0.5,0.8-0.8
		c0.1,0,0.1-0.1,0.2-0.2H478.4z M476,183v1h1.7c0,0,0.1,0,0.1-0.1c0.4-0.3,0.7-0.6,1.1-0.9H476z M478.1,187c-0.4,0.3-0.7,0.7-1,1
		h0.7c0.3-0.3,0.6-0.7,1-1H478.1z M477,185c-0.3,0.3-0.6,0.5-1,0.8v0.2h0.8c0.4-0.3,0.7-0.7,1.1-1H477z M476,187v1h0.1
		c0.4-0.4,0.7-0.7,0.9-1H476z M476,185v0.5c0.2-0.2,0.4-0.3,0.5-0.5H476z M476,185v0.5c0.2-0.2,0.4-0.3,0.5-0.5H476z M476,187v1h0.1
		c0.4-0.4,0.7-0.7,0.9-1H476z M477,185c-0.3,0.3-0.6,0.5-1,0.8v0.2h0.8c0.4-0.3,0.7-0.7,1.1-1H477z M478.1,187c-0.4,0.3-0.7,0.7-1,1
		h0.7c0.3-0.3,0.6-0.7,1-1H478.1z M476,183v1h1.7c0,0,0.1,0,0.1-0.1c0.4-0.3,0.7-0.6,1.1-0.9H476z M478.4,185
		c-0.4,0.3-0.8,0.7-1.2,1h0.8c0.3-0.3,0.5-0.5,0.8-0.8c0.1,0,0.1-0.1,0.2-0.2H478.4z M479.2,187c-0.4,0.3-0.7,0.7-1.1,1h0.8
		c0.3-0.3,0.7-0.7,1-1H479.2z M480.3,187c-0.4,0.3-0.8,0.7-1.3,1h1.2c0.3-0.3,0.6-0.5,0.9-0.8l0.2-0.2H480.3z M481.7,187
		c-0.4,0.3-0.7,0.7-1.1,1h0.8c0.4-0.4,0.9-0.7,1.3-1H481.7z M483.4,187.7l-0.2,0.1c0,0-0.1,0.1-0.2,0.1h0.1c0.2-0.2,0.3-0.3,0.5-0.5
		C483.6,187.6,483.5,187.6,483.4,187.7z M483.1,187c-0.4,0.3-0.8,0.7-1.1,1h1c0.2-0.2,0.4-0.3,0.6-0.5c0.1-0.1,0.3-0.2,0.4-0.4V187
		H483.1z M483.5,188h0.5v-0.5C483.8,187.7,483.7,187.8,483.5,188z M482.6,185c-0.4,0.3-0.8,0.7-1.1,1h1c0.4-0.3,0.8-0.7,1.2-1H482.6
		z M483.8,185c-0.3,0.3-0.7,0.7-1.1,1h1.2v-1H483.8z M481.2,185c-0.2,0.2-0.4,0.5-0.7,0.7c-0.1,0.1-0.2,0.2-0.4,0.3h0.8
		c0.3-0.3,0.7-0.6,1-0.9c0,0,0.1-0.1,0.1-0.1H481.2z M480.2,185c-0.3,0.3-0.7,0.7-1,1h0.6c0.4-0.3,0.7-0.7,1.1-1H480.2z M479.2,183
		c-0.2,0.2-0.3,0.3-0.5,0.5c-0.2,0.2-0.4,0.4-0.6,0.5h1c0.4-0.3,0.8-0.7,1.2-1H479.2z M480.6,183c-0.4,0.3-0.7,0.7-1.1,1h0.6
		c0.4-0.4,0.8-0.7,1.2-1H480.6z M482.3,183c-0.3,0.3-0.7,0.6-1.1,1h0.7c0.4-0.3,0.8-0.7,1.2-1H482.3z M483.2,183
		c-0.3,0.3-0.7,0.7-1,1h1.1c0.2-0.2,0.5-0.4,0.7-0.6V183H483.2z M483.7,184h0.3v-0.3C483.9,183.8,483.8,183.9,483.7,184z M482.6,185
		c-0.4,0.3-0.8,0.7-1.1,1h1c0.4-0.3,0.8-0.7,1.2-1H482.6z M483.8,185c-0.3,0.3-0.7,0.7-1.1,1h1.2v-1H483.8z M481.2,185
		c-0.2,0.2-0.4,0.5-0.7,0.7c-0.1,0.1-0.2,0.2-0.4,0.3h0.8c0.3-0.3,0.7-0.6,1-0.9c0,0,0.1-0.1,0.1-0.1H481.2z M480.2,185
		c-0.3,0.3-0.7,0.7-1,1h0.6c0.4-0.3,0.7-0.7,1.1-1H480.2z M479.2,183c-0.2,0.2-0.3,0.3-0.5,0.5c-0.2,0.2-0.4,0.4-0.6,0.5h1
		c0.4-0.3,0.8-0.7,1.2-1H479.2z M480.6,183c-0.4,0.3-0.7,0.7-1.1,1h0.6c0.4-0.4,0.8-0.7,1.2-1H480.6z M482.3,183
		c-0.3,0.3-0.7,0.6-1.1,1h0.7c0.4-0.3,0.8-0.7,1.2-1H482.3z M483.2,183c-0.3,0.3-0.7,0.7-1,1h1.1c0.2-0.2,0.5-0.4,0.7-0.6V183H483.2
		z M483.7,184h0.3v-0.3C483.9,183.8,483.8,183.9,483.7,184z M479.2,187c-0.4,0.3-0.7,0.7-1.1,1h0.8c0.3-0.3,0.7-0.7,1-1H479.2z
		 M480.3,187c-0.4,0.3-0.8,0.7-1.3,1h1.2c0.3-0.3,0.6-0.5,0.9-0.8l0.2-0.2H480.3z M481.7,187c-0.4,0.3-0.7,0.7-1.1,1h0.8
		c0.4-0.4,0.9-0.7,1.3-1H481.7z M483.4,187.7l-0.2,0.1c0,0-0.1,0.1-0.2,0.1h0.1c0.2-0.2,0.3-0.3,0.5-0.5
		C483.6,187.6,483.5,187.6,483.4,187.7z M483.1,187c-0.4,0.3-0.8,0.7-1.1,1h1c0.2-0.2,0.4-0.3,0.6-0.5c0.1-0.1,0.3-0.2,0.4-0.4V187
		H483.1z M483.5,188h0.5v-0.5C483.8,187.7,483.7,187.8,483.5,188z M478.4,185c-0.4,0.3-0.8,0.7-1.2,1h0.8c0.3-0.3,0.5-0.5,0.8-0.8
		c0.1,0,0.1-0.1,0.2-0.2H478.4z M476,183v1h1.7c0,0,0.1,0,0.1-0.1c0.4-0.3,0.7-0.6,1.1-0.9H476z M478.1,187c-0.4,0.3-0.7,0.7-1,1
		h0.7c0.3-0.3,0.6-0.7,1-1H478.1z M477,185c-0.3,0.3-0.6,0.5-1,0.8v0.2h0.8c0.4-0.3,0.7-0.7,1.1-1H477z M476,187v1h0.1
		c0.4-0.4,0.7-0.7,0.9-1H476z M476,185v0.5c0.2-0.2,0.4-0.3,0.5-0.5H476z M476,185v0.5c0.2-0.2,0.4-0.3,0.5-0.5H476z M476,187v1h0.1
		c0.4-0.4,0.7-0.7,0.9-1H476z M477,185c-0.3,0.3-0.6,0.5-1,0.8v0.2h0.8c0.4-0.3,0.7-0.7,1.1-1H477z M478.1,187c-0.4,0.3-0.7,0.7-1,1
		h0.7c0.3-0.3,0.6-0.7,1-1H478.1z M478.4,185c-0.4,0.3-0.8,0.7-1.2,1h0.8c0.3-0.3,0.5-0.5,0.8-0.8c0.1,0,0.1-0.1,0.2-0.2H478.4z
		 M479.2,187c-0.4,0.3-0.7,0.7-1.1,1h0.8c0.3-0.3,0.7-0.7,1-1H479.2z M480.3,187c-0.4,0.3-0.8,0.7-1.3,1h1.2
		c0.3-0.3,0.6-0.5,0.9-0.8l0.2-0.2H480.3z M481.7,187c-0.4,0.3-0.7,0.7-1.1,1h0.8c0.4-0.4,0.9-0.7,1.3-1H481.7z M483.4,187.7
		l-0.2,0.1c0,0-0.1,0.1-0.2,0.1h0.1c0.2-0.2,0.3-0.3,0.5-0.5C483.6,187.6,483.5,187.6,483.4,187.7z M483.1,187
		c-0.4,0.3-0.8,0.7-1.1,1h1c0.2-0.2,0.4-0.3,0.6-0.5c0.1-0.1,0.3-0.2,0.4-0.4V187H483.1z M483.5,188h0.5v-0.5
		C483.8,187.7,483.7,187.8,483.5,188z M482.6,185c-0.4,0.3-0.8,0.7-1.1,1h1c0.4-0.3,0.8-0.7,1.2-1H482.6z M483.8,185
		c-0.3,0.3-0.7,0.7-1.1,1h1.2v-1H483.8z M481.2,185c-0.2,0.2-0.4,0.5-0.7,0.7c-0.1,0.1-0.2,0.2-0.4,0.3h0.8c0.3-0.3,0.7-0.6,1-0.9
		c0,0,0.1-0.1,0.1-0.1H481.2z M480.2,185c-0.3,0.3-0.7,0.7-1,1h0.6c0.4-0.3,0.7-0.7,1.1-1H480.2z M479.2,183
		c-0.2,0.2-0.3,0.3-0.5,0.5c-0.2,0.2-0.4,0.4-0.6,0.5h1c0.4-0.3,0.8-0.7,1.2-1H479.2z M480.6,183c-0.4,0.3-0.7,0.7-1.1,1h0.6
		c0.4-0.4,0.8-0.7,1.2-1H480.6z M482.3,183c-0.3,0.3-0.7,0.6-1.1,1h0.7c0.4-0.3,0.8-0.7,1.2-1H482.3z M483.2,183
		c-0.3,0.3-0.7,0.7-1,1h1.1c0.2-0.2,0.5-0.4,0.7-0.6V183H483.2z M483.7,184h0.3v-0.3C483.9,183.8,483.8,183.9,483.7,184z M476,183v1
		h1.7c0,0,0.1,0,0.1-0.1c0.4-0.3,0.7-0.6,1.1-0.9H476z M482.6,185c-0.4,0.3-0.8,0.7-1.1,1h1c0.4-0.3,0.8-0.7,1.2-1H482.6z
		 M483.8,185c-0.3,0.3-0.7,0.7-1.1,1h1.2v-1H483.8z M481.2,185c-0.2,0.2-0.4,0.5-0.7,0.7c-0.1,0.1-0.2,0.2-0.4,0.3h0.8
		c0.3-0.3,0.7-0.6,1-0.9c0,0,0.1-0.1,0.1-0.1H481.2z M480.2,185c-0.3,0.3-0.7,0.7-1,1h0.6c0.4-0.3,0.7-0.7,1.1-1H480.2z M479.2,183
		c-0.2,0.2-0.3,0.3-0.5,0.5c-0.2,0.2-0.4,0.4-0.6,0.5h1c0.4-0.3,0.8-0.7,1.2-1H479.2z M480.6,183c-0.4,0.3-0.7,0.7-1.1,1h0.6
		c0.4-0.4,0.8-0.7,1.2-1H480.6z M482.3,183c-0.3,0.3-0.7,0.6-1.1,1h0.7c0.4-0.3,0.8-0.7,1.2-1H482.3z M483.2,183
		c-0.3,0.3-0.7,0.7-1,1h1.1c0.2-0.2,0.5-0.4,0.7-0.6V183H483.2z M483.7,184h0.3v-0.3C483.9,183.8,483.8,183.9,483.7,184z M476,183v1
		h1.7c0,0,0.1,0,0.1-0.1c0.4-0.3,0.7-0.6,1.1-0.9H476z M479.2,187c-0.4,0.3-0.7,0.7-1.1,1h0.8c0.3-0.3,0.7-0.7,1-1H479.2z
		 M480.3,187c-0.4,0.3-0.8,0.7-1.3,1h1.2c0.3-0.3,0.6-0.5,0.9-0.8l0.2-0.2H480.3z M481.7,187c-0.4,0.3-0.7,0.7-1.1,1h0.8
		c0.4-0.4,0.9-0.7,1.3-1H481.7z M483.4,187.7l-0.2,0.1c0,0-0.1,0.1-0.2,0.1h0.1c0.2-0.2,0.3-0.3,0.5-0.5
		C483.6,187.6,483.5,187.6,483.4,187.7z M483.1,187c-0.4,0.3-0.8,0.7-1.1,1h1c0.2-0.2,0.4-0.3,0.6-0.5c0.1-0.1,0.3-0.2,0.4-0.4V187
		H483.1z M483.5,188h0.5v-0.5C483.8,187.7,483.7,187.8,483.5,188z M478.4,185c-0.4,0.3-0.8,0.7-1.2,1h0.8c0.3-0.3,0.5-0.5,0.8-0.8
		c0.1,0,0.1-0.1,0.2-0.2H478.4z M478.1,187c-0.4,0.3-0.7,0.7-1,1h0.7c0.3-0.3,0.6-0.7,1-1H478.1z M476,185v0.5
		c0.2-0.2,0.4-0.3,0.5-0.5H476z M477,185c-0.3,0.3-0.6,0.5-1,0.8v0.2h0.8c0.4-0.3,0.7-0.7,1.1-1H477z M476,187v1h0.1
		c0.4-0.4,0.7-0.7,0.9-1H476z M476,187v1h0.1c0.4-0.4,0.7-0.7,0.9-1H476z M478.4,185c-0.4,0.3-0.8,0.7-1.2,1h0.8
		c0.3-0.3,0.5-0.5,0.8-0.8c0.1,0,0.1-0.1,0.2-0.2H478.4z M476,185v0.5c0.2-0.2,0.4-0.3,0.5-0.5H476z M477,185
		c-0.3,0.3-0.6,0.5-1,0.8v0.2h0.8c0.4-0.3,0.7-0.7,1.1-1H477z M478.1,187c-0.4,0.3-0.7,0.7-1,1h0.7c0.3-0.3,0.6-0.7,1-1H478.1z
		 M479.2,187c-0.4,0.3-0.7,0.7-1.1,1h0.8c0.3-0.3,0.7-0.7,1-1H479.2z M480.3,187c-0.4,0.3-0.8,0.7-1.3,1h1.2
		c0.3-0.3,0.6-0.5,0.9-0.8l0.2-0.2H480.3z M481.7,187c-0.4,0.3-0.7,0.7-1.1,1h0.8c0.4-0.4,0.9-0.7,1.3-1H481.7z M483.4,187.7
		l-0.2,0.1c0,0-0.1,0.1-0.2,0.1h0.1c0.2-0.2,0.3-0.3,0.5-0.5C483.6,187.6,483.5,187.6,483.4,187.7z M483.1,187
		c-0.4,0.3-0.8,0.7-1.1,1h1c0.2-0.2,0.4-0.3,0.6-0.5c0.1-0.1,0.3-0.2,0.4-0.4V187H483.1z M483.5,188h0.5v-0.5
		C483.8,187.7,483.7,187.8,483.5,188z M482.6,185c-0.4,0.3-0.8,0.7-1.1,1h1c0.4-0.3,0.8-0.7,1.2-1H482.6z M483.8,185
		c-0.3,0.3-0.7,0.7-1.1,1h1.2v-1H483.8z M481.2,185c-0.2,0.2-0.4,0.5-0.7,0.7c-0.1,0.1-0.2,0.2-0.4,0.3h0.8c0.3-0.3,0.7-0.6,1-0.9
		c0,0,0.1-0.1,0.1-0.1H481.2z M480.2,185c-0.3,0.3-0.7,0.7-1,1h0.6c0.4-0.3,0.7-0.7,1.1-1H480.2z M479.2,183
		c-0.2,0.2-0.3,0.3-0.5,0.5c-0.2,0.2-0.4,0.4-0.6,0.5h1c0.4-0.3,0.8-0.7,1.2-1H479.2z M480.6,183c-0.4,0.3-0.7,0.7-1.1,1h0.6
		c0.4-0.4,0.8-0.7,1.2-1H480.6z M482.3,183c-0.3,0.3-0.7,0.6-1.1,1h0.7c0.4-0.3,0.8-0.7,1.2-1H482.3z M483.2,183
		c-0.3,0.3-0.7,0.7-1,1h1.1c0.2-0.2,0.5-0.4,0.7-0.6V183H483.2z M483.7,184h0.3v-0.3C483.9,183.8,483.8,183.9,483.7,184z M476,183v1
		h1.7c0,0,0.1,0,0.1-0.1c0.4-0.3,0.7-0.6,1.1-0.9H476z M478.4,185c-0.4,0.3-0.8,0.7-1.2,1h0.8c0.3-0.3,0.5-0.5,0.8-0.8
		c0.1,0,0.1-0.1,0.2-0.2H478.4z M476,185v0.5c0.2-0.2,0.4-0.3,0.5-0.5H476z M477,185c-0.3,0.3-0.6,0.5-1,0.8v0.2h0.8
		c0.4-0.3,0.7-0.7,1.1-1H477z M482.6,185c-0.4,0.3-0.8,0.7-1.1,1h1c0.4-0.3,0.8-0.7,1.2-1H482.6z M483.8,185c-0.3,0.3-0.7,0.7-1.1,1
		h1.2v-1H483.8z M481.2,185c-0.2,0.2-0.4,0.5-0.7,0.7c-0.1,0.1-0.2,0.2-0.4,0.3h0.8c0.3-0.3,0.7-0.6,1-0.9c0,0,0.1-0.1,0.1-0.1
		H481.2z M480.2,185c-0.3,0.3-0.7,0.7-1,1h0.6c0.4-0.3,0.7-0.7,1.1-1H480.2z M479.2,183c-0.2,0.2-0.3,0.3-0.5,0.5
		c-0.2,0.2-0.4,0.4-0.6,0.5h1c0.4-0.3,0.8-0.7,1.2-1H479.2z M480.6,183c-0.4,0.3-0.7,0.7-1.1,1h0.6c0.4-0.4,0.8-0.7,1.2-1H480.6z
		 M482.3,183c-0.3,0.3-0.7,0.6-1.1,1h0.7c0.4-0.3,0.8-0.7,1.2-1H482.3z M483.2,183c-0.3,0.3-0.7,0.7-1,1h1.1
		c0.2-0.2,0.5-0.4,0.7-0.6V183H483.2z M483.7,184h0.3v-0.3C483.9,183.8,483.8,183.9,483.7,184z M476,183v1h1.7c0,0,0.1,0,0.1-0.1
		c0.4-0.3,0.7-0.6,1.1-0.9H476z M479.2,187c-0.4,0.3-0.7,0.7-1.1,1h0.8c0.3-0.3,0.7-0.7,1-1H479.2z M480.3,187
		c-0.4,0.3-0.8,0.7-1.3,1h1.2c0.3-0.3,0.6-0.5,0.9-0.8l0.2-0.2H480.3z M481.7,187c-0.4,0.3-0.7,0.7-1.1,1h0.8c0.4-0.4,0.9-0.7,1.3-1
		H481.7z M483.4,187.7l-0.2,0.1c0,0-0.1,0.1-0.2,0.1h0.1c0.2-0.2,0.3-0.3,0.5-0.5C483.6,187.6,483.5,187.6,483.4,187.7z M483.1,187
		c-0.4,0.3-0.8,0.7-1.1,1h1c0.2-0.2,0.4-0.3,0.6-0.5c0.1-0.1,0.3-0.2,0.4-0.4V187H483.1z M483.5,188h0.5v-0.5
		C483.8,187.7,483.7,187.8,483.5,188z M478.1,187c-0.4,0.3-0.7,0.7-1,1h0.7c0.3-0.3,0.6-0.7,1-1H478.1z M476,187v1h0.1
		c0.4-0.4,0.7-0.7,0.9-1H476z M476,187v1h0.1c0.4-0.4,0.7-0.7,0.9-1H476z M479.2,187c-0.4,0.3-0.7,0.7-1.1,1h0.8
		c0.3-0.3,0.7-0.7,1-1H479.2z M480.3,187c-0.4,0.3-0.8,0.7-1.3,1h1.2c0.3-0.3,0.6-0.5,0.9-0.8l0.2-0.2H480.3z M481.7,187
		c-0.4,0.3-0.7,0.7-1.1,1h0.8c0.4-0.4,0.9-0.7,1.3-1H481.7z M483.4,187.7l-0.2,0.1c0,0-0.1,0.1-0.2,0.1h0.1c0.2-0.2,0.3-0.3,0.5-0.5
		C483.6,187.6,483.5,187.6,483.4,187.7z M483.1,187c-0.4,0.3-0.8,0.7-1.1,1h1c0.2-0.2,0.4-0.3,0.6-0.5c0.1-0.1,0.3-0.2,0.4-0.4V187
		H483.1z M483.5,188h0.5v-0.5C483.8,187.7,483.7,187.8,483.5,188z M478.1,187c-0.4,0.3-0.7,0.7-1,1h0.7c0.3-0.3,0.6-0.7,1-1H478.1z
		 M478.4,185c-0.4,0.3-0.8,0.7-1.2,1h0.8c0.3-0.3,0.5-0.5,0.8-0.8c0.1,0,0.1-0.1,0.2-0.2H478.4z M476,185v0.5
		c0.2-0.2,0.4-0.3,0.5-0.5H476z M477,185c-0.3,0.3-0.6,0.5-1,0.8v0.2h0.8c0.4-0.3,0.7-0.7,1.1-1H477z M482.6,185
		c-0.4,0.3-0.8,0.7-1.1,1h1c0.4-0.3,0.8-0.7,1.2-1H482.6z M483.8,185c-0.3,0.3-0.7,0.7-1.1,1h1.2v-1H483.8z M481.2,185
		c-0.2,0.2-0.4,0.5-0.7,0.7c-0.1,0.1-0.2,0.2-0.4,0.3h0.8c0.3-0.3,0.7-0.6,1-0.9c0,0,0.1-0.1,0.1-0.1H481.2z M480.2,185
		c-0.3,0.3-0.7,0.7-1,1h0.6c0.4-0.3,0.7-0.7,1.1-1H480.2z M479.2,183c-0.2,0.2-0.3,0.3-0.5,0.5c-0.2,0.2-0.4,0.4-0.6,0.5h1
		c0.4-0.3,0.8-0.7,1.2-1H479.2z M480.6,183c-0.4,0.3-0.7,0.7-1.1,1h0.6c0.4-0.4,0.8-0.7,1.2-1H480.6z M482.3,183
		c-0.3,0.3-0.7,0.6-1.1,1h0.7c0.4-0.3,0.8-0.7,1.2-1H482.3z M483.2,183c-0.3,0.3-0.7,0.7-1,1h1.1c0.2-0.2,0.5-0.4,0.7-0.6V183H483.2
		z M483.7,184h0.3v-0.3C483.9,183.8,483.8,183.9,483.7,184z M476,183v1h1.7c0,0,0.1,0,0.1-0.1c0.4-0.3,0.7-0.6,1.1-0.9H476z
		 M478.4,185c-0.4,0.3-0.8,0.7-1.2,1h0.8c0.3-0.3,0.5-0.5,0.8-0.8c0.1,0,0.1-0.1,0.2-0.2H478.4z M476,185v0.5
		c0.2-0.2,0.4-0.3,0.5-0.5H476z M477,185c-0.3,0.3-0.6,0.5-1,0.8v0.2h0.8c0.4-0.3,0.7-0.7,1.1-1H477z M482.6,185
		c-0.4,0.3-0.8,0.7-1.1,1h1c0.4-0.3,0.8-0.7,1.2-1H482.6z M483.8,185c-0.3,0.3-0.7,0.7-1.1,1h1.2v-1H483.8z M481.2,185
		c-0.2,0.2-0.4,0.5-0.7,0.7c-0.1,0.1-0.2,0.2-0.4,0.3h0.8c0.3-0.3,0.7-0.6,1-0.9c0,0,0.1-0.1,0.1-0.1H481.2z M480.2,185
		c-0.3,0.3-0.7,0.7-1,1h0.6c0.4-0.3,0.7-0.7,1.1-1H480.2z M479.2,183c-0.2,0.2-0.3,0.3-0.5,0.5c-0.2,0.2-0.4,0.4-0.6,0.5h1
		c0.4-0.3,0.8-0.7,1.2-1H479.2z M480.6,183c-0.4,0.3-0.7,0.7-1.1,1h0.6c0.4-0.4,0.8-0.7,1.2-1H480.6z M482.3,183
		c-0.3,0.3-0.7,0.6-1.1,1h0.7c0.4-0.3,0.8-0.7,1.2-1H482.3z M483.2,183c-0.3,0.3-0.7,0.7-1,1h1.1c0.2-0.2,0.5-0.4,0.7-0.6V183H483.2
		z M483.7,184h0.3v-0.3C483.9,183.8,483.8,183.9,483.7,184z M476,183v1h1.7c0,0,0.1,0,0.1-0.1c0.4-0.3,0.7-0.6,1.1-0.9H476z
		 M476,187v1h0.1c0.4-0.4,0.7-0.7,0.9-1H476z M479.2,187c-0.4,0.3-0.7,0.7-1.1,1h0.8c0.3-0.3,0.7-0.7,1-1H479.2z M480.3,187
		c-0.4,0.3-0.8,0.7-1.3,1h1.2c0.3-0.3,0.6-0.5,0.9-0.8l0.2-0.2H480.3z M481.7,187c-0.4,0.3-0.7,0.7-1.1,1h0.8c0.4-0.4,0.9-0.7,1.3-1
		H481.7z M483.4,187.7l-0.2,0.1c0,0-0.1,0.1-0.2,0.1h0.1c0.2-0.2,0.3-0.3,0.5-0.5C483.6,187.6,483.5,187.6,483.4,187.7z M483.1,187
		c-0.4,0.3-0.8,0.7-1.1,1h1c0.2-0.2,0.4-0.3,0.6-0.5c0.1-0.1,0.3-0.2,0.4-0.4V187H483.1z M483.5,188h0.5v-0.5
		C483.8,187.7,483.7,187.8,483.5,188z M478.1,187c-0.4,0.3-0.7,0.7-1,1h0.7c0.3-0.3,0.6-0.7,1-1H478.1z M476,187v1h0.1
		c0.4-0.4,0.7-0.7,0.9-1H476z M479.2,187c-0.4,0.3-0.7,0.7-1.1,1h0.8c0.3-0.3,0.7-0.7,1-1H479.2z M480.3,187c-0.4,0.3-0.8,0.7-1.3,1
		h1.2c0.3-0.3,0.6-0.5,0.9-0.8l0.2-0.2H480.3z M481.7,187c-0.4,0.3-0.7,0.7-1.1,1h0.8c0.4-0.4,0.9-0.7,1.3-1H481.7z M483.4,187.7
		l-0.2,0.1c0,0-0.1,0.1-0.2,0.1h0.1c0.2-0.2,0.3-0.3,0.5-0.5C483.6,187.6,483.5,187.6,483.4,187.7z M483.1,187
		c-0.4,0.3-0.8,0.7-1.1,1h1c0.2-0.2,0.4-0.3,0.6-0.5c0.1-0.1,0.3-0.2,0.4-0.4V187H483.1z M483.5,188h0.5v-0.5
		C483.8,187.7,483.7,187.8,483.5,188z M478.1,187c-0.4,0.3-0.7,0.7-1,1h0.7c0.3-0.3,0.6-0.7,1-1H478.1z M478.4,185
		c-0.4,0.3-0.8,0.7-1.2,1h0.8c0.3-0.3,0.5-0.5,0.8-0.8c0.1,0,0.1-0.1,0.2-0.2H478.4z M476,185v0.5c0.2-0.2,0.4-0.3,0.5-0.5H476z
		 M477,185c-0.3,0.3-0.6,0.5-1,0.8v0.2h0.8c0.4-0.3,0.7-0.7,1.1-1H477z M482.6,185c-0.4,0.3-0.8,0.7-1.1,1h1c0.4-0.3,0.8-0.7,1.2-1
		H482.6z M483.8,185c-0.3,0.3-0.7,0.7-1.1,1h1.2v-1H483.8z M481.2,185c-0.2,0.2-0.4,0.5-0.7,0.7c-0.1,0.1-0.2,0.2-0.4,0.3h0.8
		c0.3-0.3,0.7-0.6,1-0.9c0,0,0.1-0.1,0.1-0.1H481.2z M480.2,185c-0.3,0.3-0.7,0.7-1,1h0.6c0.4-0.3,0.7-0.7,1.1-1H480.2z M479.2,183
		c-0.2,0.2-0.3,0.3-0.5,0.5c-0.2,0.2-0.4,0.4-0.6,0.5h1c0.4-0.3,0.8-0.7,1.2-1H479.2z M480.6,183c-0.4,0.3-0.7,0.7-1.1,1h0.6
		c0.4-0.4,0.8-0.7,1.2-1H480.6z M482.3,183c-0.3,0.3-0.7,0.6-1.1,1h0.7c0.4-0.3,0.8-0.7,1.2-1H482.3z M483.2,183
		c-0.3,0.3-0.7,0.7-1,1h1.1c0.2-0.2,0.5-0.4,0.7-0.6V183H483.2z M483.7,184h0.3v-0.3C483.9,183.8,483.8,183.9,483.7,184z M476,183v1
		h1.7c0,0,0.1,0,0.1-0.1c0.4-0.3,0.7-0.6,1.1-0.9H476z M478.4,185c-0.4,0.3-0.8,0.7-1.2,1h0.8c0.3-0.3,0.5-0.5,0.8-0.8
		c0.1,0,0.1-0.1,0.2-0.2H478.4z M476,185v0.5c0.2-0.2,0.4-0.3,0.5-0.5H476z M477,185c-0.3,0.3-0.6,0.5-1,0.8v0.2h0.8
		c0.4-0.3,0.7-0.7,1.1-1H477z M482.6,185c-0.4,0.3-0.8,0.7-1.1,1h1c0.4-0.3,0.8-0.7,1.2-1H482.6z M483.8,185c-0.3,0.3-0.7,0.7-1.1,1
		h1.2v-1H483.8z M481.2,185c-0.2,0.2-0.4,0.5-0.7,0.7c-0.1,0.1-0.2,0.2-0.4,0.3h0.8c0.3-0.3,0.7-0.6,1-0.9c0,0,0.1-0.1,0.1-0.1
		H481.2z M480.2,185c-0.3,0.3-0.7,0.7-1,1h0.6c0.4-0.3,0.7-0.7,1.1-1H480.2z M479.2,183c-0.2,0.2-0.3,0.3-0.5,0.5
		c-0.2,0.2-0.4,0.4-0.6,0.5h1c0.4-0.3,0.8-0.7,1.2-1H479.2z M480.6,183c-0.4,0.3-0.7,0.7-1.1,1h0.6c0.4-0.4,0.8-0.7,1.2-1H480.6z
		 M482.3,183c-0.3,0.3-0.7,0.6-1.1,1h0.7c0.4-0.3,0.8-0.7,1.2-1H482.3z M483.2,183c-0.3,0.3-0.7,0.7-1,1h1.1
		c0.2-0.2,0.5-0.4,0.7-0.6V183H483.2z M483.7,184h0.3v-0.3C483.9,183.8,483.8,183.9,483.7,184z M476,183v1h1.7c0,0,0.1,0,0.1-0.1
		c0.4-0.3,0.7-0.6,1.1-0.9H476z M476,187v1h0.1c0.4-0.4,0.7-0.7,0.9-1H476z M479.2,187c-0.4,0.3-0.7,0.7-1.1,1h0.8
		c0.3-0.3,0.7-0.7,1-1H479.2z M480.3,187c-0.4,0.3-0.8,0.7-1.3,1h1.2c0.3-0.3,0.6-0.5,0.9-0.8l0.2-0.2H480.3z M481.7,187
		c-0.4,0.3-0.7,0.7-1.1,1h0.8c0.4-0.4,0.9-0.7,1.3-1H481.7z M483.4,187.7l-0.2,0.1c0,0-0.1,0.1-0.2,0.1h0.1c0.2-0.2,0.3-0.3,0.5-0.5
		C483.6,187.6,483.5,187.6,483.4,187.7z M483.1,187c-0.4,0.3-0.8,0.7-1.1,1h1c0.2-0.2,0.4-0.3,0.6-0.5c0.1-0.1,0.3-0.2,0.4-0.4V187
		H483.1z M483.5,188h0.5v-0.5C483.8,187.7,483.7,187.8,483.5,188z M478.1,187c-0.4,0.3-0.7,0.7-1,1h0.7c0.3-0.3,0.6-0.7,1-1H478.1z
		 M476,187v1h0.1c0.4-0.4,0.7-0.7,0.9-1H476z M479.2,187c-0.4,0.3-0.7,0.7-1.1,1h0.8c0.3-0.3,0.7-0.7,1-1H479.2z M480.3,187
		c-0.4,0.3-0.8,0.7-1.3,1h1.2c0.3-0.3,0.6-0.5,0.9-0.8l0.2-0.2H480.3z M481.7,187c-0.4,0.3-0.7,0.7-1.1,1h0.8c0.4-0.4,0.9-0.7,1.3-1
		H481.7z M483.4,187.7l-0.2,0.1c0,0-0.1,0.1-0.2,0.1h0.1c0.2-0.2,0.3-0.3,0.5-0.5C483.6,187.6,483.5,187.6,483.4,187.7z M483.1,187
		c-0.4,0.3-0.8,0.7-1.1,1h1c0.2-0.2,0.4-0.3,0.6-0.5c0.1-0.1,0.3-0.2,0.4-0.4V187H483.1z M483.5,188h0.5v-0.5
		C483.8,187.7,483.7,187.8,483.5,188z M478.1,187c-0.4,0.3-0.7,0.7-1,1h0.7c0.3-0.3,0.6-0.7,1-1H478.1z M478.4,185
		c-0.4,0.3-0.8,0.7-1.2,1h0.8c0.3-0.3,0.5-0.5,0.8-0.8c0.1,0,0.1-0.1,0.2-0.2H478.4z M476,185v0.5c0.2-0.2,0.4-0.3,0.5-0.5H476z
		 M477,185c-0.3,0.3-0.6,0.5-1,0.8v0.2h0.8c0.4-0.3,0.7-0.7,1.1-1H477z M482.6,185c-0.4,0.3-0.8,0.7-1.1,1h1c0.4-0.3,0.8-0.7,1.2-1
		H482.6z M483.8,185c-0.3,0.3-0.7,0.7-1.1,1h1.2v-1H483.8z M481.2,185c-0.2,0.2-0.4,0.5-0.7,0.7c-0.1,0.1-0.2,0.2-0.4,0.3h0.8
		c0.3-0.3,0.7-0.6,1-0.9c0,0,0.1-0.1,0.1-0.1H481.2z M480.2,185c-0.3,0.3-0.7,0.7-1,1h0.6c0.4-0.3,0.7-0.7,1.1-1H480.2z M479.2,183
		c-0.2,0.2-0.3,0.3-0.5,0.5c-0.2,0.2-0.4,0.4-0.6,0.5h1c0.4-0.3,0.8-0.7,1.2-1H479.2z M480.6,183c-0.4,0.3-0.7,0.7-1.1,1h0.6
		c0.4-0.4,0.8-0.7,1.2-1H480.6z M482.3,183c-0.3,0.3-0.7,0.6-1.1,1h0.7c0.4-0.3,0.8-0.7,1.2-1H482.3z M483.2,183
		c-0.3,0.3-0.7,0.7-1,1h1.1c0.2-0.2,0.5-0.4,0.7-0.6V183H483.2z M483.7,184h0.3v-0.3C483.9,183.8,483.8,183.9,483.7,184z M476,183v1
		h1.7c0,0,0.1,0,0.1-0.1c0.4-0.3,0.7-0.6,1.1-0.9H476z M478.4,185c-0.4,0.3-0.8,0.7-1.2,1h0.8c0.3-0.3,0.5-0.5,0.8-0.8
		c0.1,0,0.1-0.1,0.2-0.2H478.4z M476,185v0.5c0.2-0.2,0.4-0.3,0.5-0.5H476z M477,185c-0.3,0.3-0.6,0.5-1,0.8v0.2h0.8
		c0.4-0.3,0.7-0.7,1.1-1H477z M482.6,185c-0.4,0.3-0.8,0.7-1.1,1h1c0.4-0.3,0.8-0.7,1.2-1H482.6z M483.8,185c-0.3,0.3-0.7,0.7-1.1,1
		h1.2v-1H483.8z M481.2,185c-0.2,0.2-0.4,0.5-0.7,0.7c-0.1,0.1-0.2,0.2-0.4,0.3h0.8c0.3-0.3,0.7-0.6,1-0.9c0,0,0.1-0.1,0.1-0.1
		H481.2z M480.2,185c-0.3,0.3-0.7,0.7-1,1h0.6c0.4-0.3,0.7-0.7,1.1-1H480.2z M479.2,183c-0.2,0.2-0.3,0.3-0.5,0.5
		c-0.2,0.2-0.4,0.4-0.6,0.5h1c0.4-0.3,0.8-0.7,1.2-1H479.2z M480.6,183c-0.4,0.3-0.7,0.7-1.1,1h0.6c0.4-0.4,0.8-0.7,1.2-1H480.6z
		 M482.3,183c-0.3,0.3-0.7,0.6-1.1,1h0.7c0.4-0.3,0.8-0.7,1.2-1H482.3z M483.2,183c-0.3,0.3-0.7,0.7-1,1h1.1
		c0.2-0.2,0.5-0.4,0.7-0.6V183H483.2z M483.7,184h0.3v-0.3C483.9,183.8,483.8,183.9,483.7,184z M476,183v1h1.7c0,0,0.1,0,0.1-0.1
		c0.4-0.3,0.7-0.6,1.1-0.9H476z M476,187v1h0.1c0.4-0.4,0.7-0.7,0.9-1H476z M479.2,187c-0.4,0.3-0.7,0.7-1.1,1h0.8
		c0.3-0.3,0.7-0.7,1-1H479.2z M480.3,187c-0.4,0.3-0.8,0.7-1.3,1h1.2c0.3-0.3,0.6-0.5,0.9-0.8l0.2-0.2H480.3z M481.7,187
		c-0.4,0.3-0.7,0.7-1.1,1h0.8c0.4-0.4,0.9-0.7,1.3-1H481.7z M483.4,187.7l-0.2,0.1c0,0-0.1,0.1-0.2,0.1h0.1c0.2-0.2,0.3-0.3,0.5-0.5
		C483.6,187.6,483.5,187.6,483.4,187.7z M483.1,187c-0.4,0.3-0.8,0.7-1.1,1h1c0.2-0.2,0.4-0.3,0.6-0.5c0.1-0.1,0.3-0.2,0.4-0.4V187
		H483.1z M483.5,188h0.5v-0.5C483.8,187.7,483.7,187.8,483.5,188z M478.1,187c-0.4,0.3-0.7,0.7-1,1h0.7c0.3-0.3,0.6-0.7,1-1H478.1z
		 M476,187v1h0.1c0.4-0.4,0.7-0.7,0.9-1H476z M479.2,187c-0.4,0.3-0.7,0.7-1.1,1h0.8c0.3-0.3,0.7-0.7,1-1H479.2z M480.3,187
		c-0.4,0.3-0.8,0.7-1.3,1h1.2c0.3-0.3,0.6-0.5,0.9-0.8l0.2-0.2H480.3z M481.7,187c-0.4,0.3-0.7,0.7-1.1,1h0.8c0.4-0.4,0.9-0.7,1.3-1
		H481.7z M483.4,187.7l-0.2,0.1c0,0-0.1,0.1-0.2,0.1h0.1c0.2-0.2,0.3-0.3,0.5-0.5C483.6,187.6,483.5,187.6,483.4,187.7z M483.1,187
		c-0.4,0.3-0.8,0.7-1.1,1h1c0.2-0.2,0.4-0.3,0.6-0.5c0.1-0.1,0.3-0.2,0.4-0.4V187H483.1z M483.5,188h0.5v-0.5
		C483.8,187.7,483.7,187.8,483.5,188z M478.1,187c-0.4,0.3-0.7,0.7-1,1h0.7c0.3-0.3,0.6-0.7,1-1H478.1z M478.4,185
		c-0.4,0.3-0.8,0.7-1.2,1h0.8c0.3-0.3,0.5-0.5,0.8-0.8c0.1,0,0.1-0.1,0.2-0.2H478.4z M476,185v0.5c0.2-0.2,0.4-0.3,0.5-0.5H476z
		 M477,185c-0.3,0.3-0.6,0.5-1,0.8v0.2h0.8c0.4-0.3,0.7-0.7,1.1-1H477z M482.6,185c-0.4,0.3-0.8,0.7-1.1,1h1c0.4-0.3,0.8-0.7,1.2-1
		H482.6z M483.8,185c-0.3,0.3-0.7,0.7-1.1,1h1.2v-1H483.8z M481.2,185c-0.2,0.2-0.4,0.5-0.7,0.7c-0.1,0.1-0.2,0.2-0.4,0.3h0.8
		c0.3-0.3,0.7-0.6,1-0.9c0,0,0.1-0.1,0.1-0.1H481.2z M480.2,185c-0.3,0.3-0.7,0.7-1,1h0.6c0.4-0.3,0.7-0.7,1.1-1H480.2z M479.2,183
		c-0.2,0.2-0.3,0.3-0.5,0.5c-0.2,0.2-0.4,0.4-0.6,0.5h1c0.4-0.3,0.8-0.7,1.2-1H479.2z M480.6,183c-0.4,0.3-0.7,0.7-1.1,1h0.6
		c0.4-0.4,0.8-0.7,1.2-1H480.6z M482.3,183c-0.3,0.3-0.7,0.6-1.1,1h0.7c0.4-0.3,0.8-0.7,1.2-1H482.3z M483.2,183
		c-0.3,0.3-0.7,0.7-1,1h1.1c0.2-0.2,0.5-0.4,0.7-0.6V183H483.2z M483.7,184h0.3v-0.3C483.9,183.8,483.8,183.9,483.7,184z M476,183v1
		h1.7c0,0,0.1,0,0.1-0.1c0.4-0.3,0.7-0.6,1.1-0.9H476z M478.4,185c-0.4,0.3-0.8,0.7-1.2,1h0.8c0.3-0.3,0.5-0.5,0.8-0.8
		c0.1,0,0.1-0.1,0.2-0.2H478.4z M476,185v0.5c0.2-0.2,0.4-0.3,0.5-0.5H476z M477,185c-0.3,0.3-0.6,0.5-1,0.8v0.2h0.8
		c0.4-0.3,0.7-0.7,1.1-1H477z M482.6,185c-0.4,0.3-0.8,0.7-1.1,1h1c0.4-0.3,0.8-0.7,1.2-1H482.6z M483.8,185c-0.3,0.3-0.7,0.7-1.1,1
		h1.2v-1H483.8z M481.2,185c-0.2,0.2-0.4,0.5-0.7,0.7c-0.1,0.1-0.2,0.2-0.4,0.3h0.8c0.3-0.3,0.7-0.6,1-0.9c0,0,0.1-0.1,0.1-0.1
		H481.2z M480.2,185c-0.3,0.3-0.7,0.7-1,1h0.6c0.4-0.3,0.7-0.7,1.1-1H480.2z M479.2,183c-0.2,0.2-0.3,0.3-0.5,0.5
		c-0.2,0.2-0.4,0.4-0.6,0.5h1c0.4-0.3,0.8-0.7,1.2-1H479.2z M480.6,183c-0.4,0.3-0.7,0.7-1.1,1h0.6c0.4-0.4,0.8-0.7,1.2-1H480.6z
		 M482.3,183c-0.3,0.3-0.7,0.6-1.1,1h0.7c0.4-0.3,0.8-0.7,1.2-1H482.3z M483.2,183c-0.3,0.3-0.7,0.7-1,1h1.1
		c0.2-0.2,0.5-0.4,0.7-0.6V183H483.2z M483.7,184h0.3v-0.3C483.9,183.8,483.8,183.9,483.7,184z M476,183v1h1.7c0,0,0.1,0,0.1-0.1
		c0.4-0.3,0.7-0.6,1.1-0.9H476z M476,187v1h0.1c0.4-0.4,0.7-0.7,0.9-1H476z M479.2,187c-0.4,0.3-0.7,0.7-1.1,1h0.8
		c0.3-0.3,0.7-0.7,1-1H479.2z M480.3,187c-0.4,0.3-0.8,0.7-1.3,1h1.2c0.3-0.3,0.6-0.5,0.9-0.8l0.2-0.2H480.3z M481.7,187
		c-0.4,0.3-0.7,0.7-1.1,1h0.8c0.4-0.4,0.9-0.7,1.3-1H481.7z M483.4,187.7l-0.2,0.1c0,0-0.1,0.1-0.2,0.1h0.1c0.2-0.2,0.3-0.3,0.5-0.5
		C483.6,187.6,483.5,187.6,483.4,187.7z M483.1,187c-0.4,0.3-0.8,0.7-1.1,1h1c0.2-0.2,0.4-0.3,0.6-0.5c0.1-0.1,0.3-0.2,0.4-0.4V187
		H483.1z M483.5,188h0.5v-0.5C483.8,187.7,483.7,187.8,483.5,188z M478.1,187c-0.4,0.3-0.7,0.7-1,1h0.7c0.3-0.3,0.6-0.7,1-1H478.1z
		 M476,187v1h0.1c0.4-0.4,0.7-0.7,0.9-1H476z M479.2,187c-0.4,0.3-0.7,0.7-1.1,1h0.8c0.3-0.3,0.7-0.7,1-1H479.2z M480.3,187
		c-0.4,0.3-0.8,0.7-1.3,1h1.2c0.3-0.3,0.6-0.5,0.9-0.8l0.2-0.2H480.3z M481.7,187c-0.4,0.3-0.7,0.7-1.1,1h0.8c0.4-0.4,0.9-0.7,1.3-1
		H481.7z M483.4,187.7l-0.2,0.1c0,0-0.1,0.1-0.2,0.1h0.1c0.2-0.2,0.3-0.3,0.5-0.5C483.6,187.6,483.5,187.6,483.4,187.7z M483.1,187
		c-0.4,0.3-0.8,0.7-1.1,1h1c0.2-0.2,0.4-0.3,0.6-0.5c0.1-0.1,0.3-0.2,0.4-0.4V187H483.1z M483.5,188h0.5v-0.5
		C483.8,187.7,483.7,187.8,483.5,188z M478.1,187c-0.4,0.3-0.7,0.7-1,1h0.7c0.3-0.3,0.6-0.7,1-1H478.1z M478.4,185
		c-0.4,0.3-0.8,0.7-1.2,1h0.8c0.3-0.3,0.5-0.5,0.8-0.8c0.1,0,0.1-0.1,0.2-0.2H478.4z M476,185v0.5c0.2-0.2,0.4-0.3,0.5-0.5H476z
		 M477,185c-0.3,0.3-0.6,0.5-1,0.8v0.2h0.8c0.4-0.3,0.7-0.7,1.1-1H477z M482.6,185c-0.4,0.3-0.8,0.7-1.1,1h1c0.4-0.3,0.8-0.7,1.2-1
		H482.6z M483.8,185c-0.3,0.3-0.7,0.7-1.1,1h1.2v-1H483.8z M481.2,185c-0.2,0.2-0.4,0.5-0.7,0.7c-0.1,0.1-0.2,0.2-0.4,0.3h0.8
		c0.3-0.3,0.7-0.6,1-0.9c0,0,0.1-0.1,0.1-0.1H481.2z M480.2,185c-0.3,0.3-0.7,0.7-1,1h0.6c0.4-0.3,0.7-0.7,1.1-1H480.2z M479.2,183
		c-0.2,0.2-0.3,0.3-0.5,0.5c-0.2,0.2-0.4,0.4-0.6,0.5h1c0.4-0.3,0.8-0.7,1.2-1H479.2z M480.6,183c-0.4,0.3-0.7,0.7-1.1,1h0.6
		c0.4-0.4,0.8-0.7,1.2-1H480.6z M482.3,183c-0.3,0.3-0.7,0.6-1.1,1h0.7c0.4-0.3,0.8-0.7,1.2-1H482.3z M483.2,183
		c-0.3,0.3-0.7,0.7-1,1h1.1c0.2-0.2,0.5-0.4,0.7-0.6V183H483.2z M483.7,184h0.3v-0.3C483.9,183.8,483.8,183.9,483.7,184z M476,183v1
		h1.7c0,0,0.1,0,0.1-0.1c0.4-0.3,0.7-0.6,1.1-0.9H476z M478.4,185c-0.4,0.3-0.8,0.7-1.2,1h0.8c0.3-0.3,0.5-0.5,0.8-0.8
		c0.1,0,0.1-0.1,0.2-0.2H478.4z M476,185v0.5c0.2-0.2,0.4-0.3,0.5-0.5H476z M477,185c-0.3,0.3-0.6,0.5-1,0.8v0.2h0.8
		c0.4-0.3,0.7-0.7,1.1-1H477z M482.6,185c-0.4,0.3-0.8,0.7-1.1,1h1c0.4-0.3,0.8-0.7,1.2-1H482.6z M483.8,185c-0.3,0.3-0.7,0.7-1.1,1
		h1.2v-1H483.8z M481.2,185c-0.2,0.2-0.4,0.5-0.7,0.7c-0.1,0.1-0.2,0.2-0.4,0.3h0.8c0.3-0.3,0.7-0.6,1-0.9c0,0,0.1-0.1,0.1-0.1
		H481.2z M480.2,185c-0.3,0.3-0.7,0.7-1,1h0.6c0.4-0.3,0.7-0.7,1.1-1H480.2z M479.2,183c-0.2,0.2-0.3,0.3-0.5,0.5
		c-0.2,0.2-0.4,0.4-0.6,0.5h1c0.4-0.3,0.8-0.7,1.2-1H479.2z M480.6,183c-0.4,0.3-0.7,0.7-1.1,1h0.6c0.4-0.4,0.8-0.7,1.2-1H480.6z
		 M482.3,183c-0.3,0.3-0.7,0.6-1.1,1h0.7c0.4-0.3,0.8-0.7,1.2-1H482.3z M483.2,183c-0.3,0.3-0.7,0.7-1,1h1.1
		c0.2-0.2,0.5-0.4,0.7-0.6V183H483.2z M483.7,184h0.3v-0.3C483.9,183.8,483.8,183.9,483.7,184z M476,183v1h1.7c0,0,0.1,0,0.1-0.1
		c0.4-0.3,0.7-0.6,1.1-0.9H476z M476,187v1h0.1c0.4-0.4,0.7-0.7,0.9-1H476z M479.2,187c-0.4,0.3-0.7,0.7-1.1,1h0.8
		c0.3-0.3,0.7-0.7,1-1H479.2z M480.3,187c-0.4,0.3-0.8,0.7-1.3,1h1.2c0.3-0.3,0.6-0.5,0.9-0.8l0.2-0.2H480.3z M481.7,187
		c-0.4,0.3-0.7,0.7-1.1,1h0.8c0.4-0.4,0.9-0.7,1.3-1H481.7z M483.4,187.7l-0.2,0.1c0,0-0.1,0.1-0.2,0.1h0.1c0.2-0.2,0.3-0.3,0.5-0.5
		C483.6,187.6,483.5,187.6,483.4,187.7z M483.1,187c-0.4,0.3-0.8,0.7-1.1,1h1c0.2-0.2,0.4-0.3,0.6-0.5c0.1-0.1,0.3-0.2,0.4-0.4V187
		H483.1z M483.5,188h0.5v-0.5C483.8,187.7,483.7,187.8,483.5,188z M478.1,187c-0.4,0.3-0.7,0.7-1,1h0.7c0.3-0.3,0.6-0.7,1-1H478.1z
		 M476,187v1h0.1c0.4-0.4,0.7-0.7,0.9-1H476z M479.2,187c-0.4,0.3-0.7,0.7-1.1,1h0.8c0.3-0.3,0.7-0.7,1-1H479.2z M480.3,187
		c-0.4,0.3-0.8,0.7-1.3,1h1.2c0.3-0.3,0.6-0.5,0.9-0.8l0.2-0.2H480.3z M481.7,187c-0.4,0.3-0.7,0.7-1.1,1h0.8c0.4-0.4,0.9-0.7,1.3-1
		H481.7z M483.4,187.7l-0.2,0.1c0,0-0.1,0.1-0.2,0.1h0.1c0.2-0.2,0.3-0.3,0.5-0.5C483.6,187.6,483.5,187.6,483.4,187.7z M483.1,187
		c-0.4,0.3-0.8,0.7-1.1,1h1c0.2-0.2,0.4-0.3,0.6-0.5c0.1-0.1,0.3-0.2,0.4-0.4V187H483.1z M483.5,188h0.5v-0.5
		C483.8,187.7,483.7,187.8,483.5,188z M478.1,187c-0.4,0.3-0.7,0.7-1,1h0.7c0.3-0.3,0.6-0.7,1-1H478.1z M478.4,185
		c-0.4,0.3-0.8,0.7-1.2,1h0.8c0.3-0.3,0.5-0.5,0.8-0.8c0.1,0,0.1-0.1,0.2-0.2H478.4z M476,185v0.5c0.2-0.2,0.4-0.3,0.5-0.5H476z
		 M477,185c-0.3,0.3-0.6,0.5-1,0.8v0.2h0.8c0.4-0.3,0.7-0.7,1.1-1H477z M482.6,185c-0.4,0.3-0.8,0.7-1.1,1h1c0.4-0.3,0.8-0.7,1.2-1
		H482.6z M483.8,185c-0.3,0.3-0.7,0.7-1.1,1h1.2v-1H483.8z M481.2,185c-0.2,0.2-0.4,0.5-0.7,0.7c-0.1,0.1-0.2,0.2-0.4,0.3h0.8
		c0.3-0.3,0.7-0.6,1-0.9c0,0,0.1-0.1,0.1-0.1H481.2z M480.2,185c-0.3,0.3-0.7,0.7-1,1h0.6c0.4-0.3,0.7-0.7,1.1-1H480.2z M479.2,183
		c-0.2,0.2-0.3,0.3-0.5,0.5c-0.2,0.2-0.4,0.4-0.6,0.5h1c0.4-0.3,0.8-0.7,1.2-1H479.2z M480.6,183c-0.4,0.3-0.7,0.7-1.1,1h0.6
		c0.4-0.4,0.8-0.7,1.2-1H480.6z M482.3,183c-0.3,0.3-0.7,0.6-1.1,1h0.7c0.4-0.3,0.8-0.7,1.2-1H482.3z M483.2,183
		c-0.3,0.3-0.7,0.7-1,1h1.1c0.2-0.2,0.5-0.4,0.7-0.6V183H483.2z M483.7,184h0.3v-0.3C483.9,183.8,483.8,183.9,483.7,184z M476,183v1
		h1.7c0,0,0.1,0,0.1-0.1c0.4-0.3,0.7-0.6,1.1-0.9H476z M478.4,185c-0.4,0.3-0.8,0.7-1.2,1h0.8c0.3-0.3,0.5-0.5,0.8-0.8
		c0.1,0,0.1-0.1,0.2-0.2H478.4z M476,185v0.5c0.2-0.2,0.4-0.3,0.5-0.5H476z M477,185c-0.3,0.3-0.6,0.5-1,0.8v0.2h0.8
		c0.4-0.3,0.7-0.7,1.1-1H477z M482.6,185c-0.4,0.3-0.8,0.7-1.1,1h1c0.4-0.3,0.8-0.7,1.2-1H482.6z M483.8,185c-0.3,0.3-0.7,0.7-1.1,1
		h1.2v-1H483.8z M481.2,185c-0.2,0.2-0.4,0.5-0.7,0.7c-0.1,0.1-0.2,0.2-0.4,0.3h0.8c0.3-0.3,0.7-0.6,1-0.9c0,0,0.1-0.1,0.1-0.1
		H481.2z M480.2,185c-0.3,0.3-0.7,0.7-1,1h0.6c0.4-0.3,0.7-0.7,1.1-1H480.2z M479.2,183c-0.2,0.2-0.3,0.3-0.5,0.5
		c-0.2,0.2-0.4,0.4-0.6,0.5h1c0.4-0.3,0.8-0.7,1.2-1H479.2z M480.6,183c-0.4,0.3-0.7,0.7-1.1,1h0.6c0.4-0.4,0.8-0.7,1.2-1H480.6z
		 M482.3,183c-0.3,0.3-0.7,0.6-1.1,1h0.7c0.4-0.3,0.8-0.7,1.2-1H482.3z M483.2,183c-0.3,0.3-0.7,0.7-1,1h1.1
		c0.2-0.2,0.5-0.4,0.7-0.6V183H483.2z M483.7,184h0.3v-0.3C483.9,183.8,483.8,183.9,483.7,184z M476,183v1h1.7c0,0,0.1,0,0.1-0.1
		c0.4-0.3,0.7-0.6,1.1-0.9H476z M480.2,185c-0.3,0.3-0.7,0.7-1,1h0.6c0.4-0.3,0.7-0.7,1.1-1H480.2z M476,187v1h0.1
		c0.4-0.4,0.7-0.7,0.9-1H476z M479.2,187c-0.4,0.3-0.7,0.7-1.1,1h0.8c0.3-0.3,0.7-0.7,1-1H479.2z M480.3,187c-0.4,0.3-0.8,0.7-1.3,1
		h1.2c0.3-0.3,0.6-0.5,0.9-0.8l0.2-0.2H480.3z M481.7,187c-0.4,0.3-0.7,0.7-1.1,1h0.8c0.4-0.4,0.9-0.7,1.3-1H481.7z M483.4,187.7
		l-0.2,0.1c0,0-0.1,0.1-0.2,0.1h0.1c0.2-0.2,0.3-0.3,0.5-0.5C483.6,187.6,483.5,187.6,483.4,187.7z M483.1,187
		c-0.4,0.3-0.8,0.7-1.1,1h1c0.2-0.2,0.4-0.3,0.6-0.5c0.1-0.1,0.3-0.2,0.4-0.4V187H483.1z M483.5,188h0.5v-0.5
		C483.8,187.7,483.7,187.8,483.5,188z M478.1,187c-0.4,0.3-0.7,0.7-1,1h0.7c0.3-0.3,0.6-0.7,1-1H478.1z"/>
	<path class="st0" d="M475.4,180.2c0.1,0,0.2,0,0.4-0.2h1.4c-0.4,0.3-0.8,0.7-1.2,1h-1.6C474.7,180.7,475.1,180.3,475.4,180.2z"/>
	<path class="st0" d="M474,181c-0.3,0.3-0.6,0.7-1,1.1V180h1.9C474.8,180.2,474.5,180.5,474,181L474,181L474,181z"/>
	<path class="st0" d="M486.6,183.4c0,0,0.2-0.1,0.4-0.3v8.6l-4.3,4.3H473v-4.2c0.3-0.3,0.7-0.6,1-1v4.1h8v-2.7c0,0,0,0,0,0
		c0.3-0.3,0.4-0.6,0.5-0.8c0.1-0.2,0.2-0.4,0.3-0.5h3.1v-5.3c0.2-0.2,0.4-0.4,0.6-0.6c-0.2,0.2-0.4,0.3-0.6,0.5V181h-8.5
		c0.3-0.3,0.5-0.6,0.8-0.9c-0.4,0.3-0.7,0.6-1.1,0.9h-0.9c0.3-0.3,0.7-0.7,1-1h9.7v3C486.8,183.2,486.6,183.4,486.6,183.4z"/>
</g>
<path class="st0" d="M6.6,11.8C6.3,12,6,12.3,5.8,12.6l-0.3-0.2L3,14l1.5-2.4c0,0,0,0,0,0c0,0,0.1-0.1,0.1-0.1
	c0.4-0.3,0.8-0.7,1.2-1c0.3-0.3,0.6-0.5,0.9-0.8c0.1,0.1,0.1,0.1,0.1,0.2c0,0,0,0.1,0,0.1c0,0.1,0,0.1,0.1,0.2v0
	c-0.3,0.3-0.6,0.6-0.8,0.8c-0.3,0.3-0.6,0.7-0.9,1c-0.3,0.3-0.5,0.6-0.8,0.9c0.3-0.3,0.7-0.6,1-0.9c0.3-0.3,0.6-0.5,0.9-0.8
	C6.5,11,6.7,10.8,7,10.6c0,0.4-0.2,0.8-0.5,1L6.6,11.8z"/>
<path class="st0" d="M8,14l-2.1-1.4c0.3-0.2,0.6-0.4,0.8-0.7L8,14z"/>
<path class="st0" d="M4.4,11.5c-0.3-0.3-0.4-0.6-0.4-1c0-0.2,0.1-0.5,0.2-0.7l0,0c0.3-0.2,0.5-0.5,0.7-0.7C5.1,9,5.3,9,5.5,9
	c0.1,0,0.2,0,0.3,0c0,0,0,0,0.1,0c0.1,0,0.1,0,0.2,0.1c0.1,0,0.1,0,0.2,0.1c0,0,0.1,0,0.1,0v0c0,0,0,0,0,0c0,0,0.1,0,0.1,0.1
	c0,0,0,0,0,0c0,0,0.1,0,0.1,0.1c0,0,0,0,0,0c0,0,0,0,0.1,0.1C6.3,9.8,6,10,5.7,10.3c-0.4,0.3-0.7,0.7-1,1l0,0
	C4.6,11.4,4.5,11.5,4.4,11.5z"/>
</svg>
