<?xml version="1.0" encoding="utf-8"?>
<!-- Generator: Adobe Illustrator 23.0.0, SVG Export Plug-In . SVG Version: 6.00 Build 0)  -->
<svg version="1.1" id="Layer_1" xmlns="http://www.w3.org/2000/svg" xmlns:xlink="http://www.w3.org/1999/xlink" x="0px" y="0px"
	 viewBox="0 0 16 16" style="enable-background:new 0 0 16 16;" xml:space="preserve">
<style type="text/css">
	.st0{clip-path:url(#SVGID_2_);fill:#F75049;}
</style>
<g>
	<defs>
		<path id="SVGID_1_" d="M20.8,5c-0.1-0.1-0.3,0-0.6-0.2C20,4.6,20,4.5,19.9,4.4c-0.4-0.2-1.3,0.5-1.3,0.5c0,0,0.4-0.3,0.7-0.7
			c0.2-0.2,0.6-0.7,0.5-1C19.8,3,19.6,3,19.5,2.8c0-0.3,0.5-0.4,0.4-0.7c0-0.2-0.2-0.3-0.3-0.3C19.3,1.6,18.9,2,18.9,2
			c0,0,0.3-0.2,0.4-0.5c0-0.1,0.2-0.3,0.1-0.5c-0.1-0.1-0.3-0.1-0.4-0.1c-0.1,0-0.2,0.1-0.2,0c0,0,0-0.1,0-0.2
			c0-0.2-0.3-0.3-0.6-0.3c-0.5,0-0.9,0.5-1,0.4c-0.1-0.1,0.5-0.5,0.4-0.9c0-0.1-0.2-0.3-0.4-0.3c-0.3,0-0.4,0.3-0.5,0.3
			c-0.1-0.1,0.1-0.7-0.1-0.9c-0.1-0.1-0.3,0.1-0.6,0C15.8-0.9,15.8-1,15.7-1c-0.3-0.1-0.8,0.4-1.3,0.9c-0.2,0.2-0.6,0.5-1.1,0.8
			c0.3-0.3,0.5-0.6,0.7-0.7c0.4-0.4,0.6-0.6,0.6-0.9c0-0.1,0-0.4-0.2-0.4c-0.2-0.1-0.4,0.2-1.1,0.6c-0.2,0.1-0.3,0.2-0.4,0.3
			c0,0,0.3-0.4,0.2-0.7c0,0-0.1-0.2-0.2-0.3c-0.4-0.3-1.1-0.2-1.2-0.2c-0.9,0.2-1.1,0.8-2.1,1.3c0,0-0.1,0.1-0.3,0.2
			C8.9,0.1,8.7,0.2,8.6,0.3C8.3,0.4,8.1,0.6,8,0.8C7.9,1.1,7.9,1.3,7.8,1.4C7.6,1.6,7.5,1.6,7.4,1.6C6.8,1.8,6.1,2.8,6,2.9
			C5.6,3.5,4.3,4.8,0.8,8C5.5,3,7,1.4,7,1.3c0,0,0,0,0,0c0-0.1,0.2-0.4,0-0.6C7,0.7,6.8,0.7,6.8,0.6c0,0,0-0.1,0-0.1
			c0-0.2,0.4-0.2,0.4-0.3c0,0-0.1-0.1-0.2-0.1C6.7-0.1,6.7-0.2,6.5-0.2C6.3-0.3,6-0.2,5.9-0.1C5.7,0,5.5,0.2,5.5,0.1
			c0,0,0-0.2,0-0.3C5.4-0.2,5.2-0.2,5.2-0.2C4.8-0.2,4.6,0.1,4.5,0c-0.1,0,0-0.2-0.1-0.3C4.4-0.4,4.3-0.4,4.1-0.5
			C3.9-0.6,4-0.8,3.8-1C3.7-1.1,3.6-1.3,3.4-1.4c-0.2-0.1-0.3,0-0.5-0.1C2.6-1.5,2.6-1.7,2.4-1.7c-0.2,0-0.3,0-0.4,0.1
			C1.7-1.5,1.7-1.3,1.5-1.3C1.3-1.3,1.3-1.5,1-1.5c-0.1,0-0.2,0-0.3,0C0.6-1.4,0.7-1.2,0.6-1C0.5-1,0.4-1,0.3-1
			C0.2-1.1,0.3-1.2,0.2-1.2C0-1.4-0.9-1.2-1.2-0.6c0,0.1-0.1,0.2-0.2,0.3c-0.2,0.1-0.3,0-0.5,0c-0.3,0-0.5,0.2-1.1,1
			c0,0-0.1,0.1-0.6,0.6c-0.9,1-1,1.1-1.1,1.4c0,0.5,0,0.7,0,0.7c0,0.1,0.1,0.3,0,0.4c-0.1,0.1-0.1,0-0.2,0.1c-0.1,0.1,0.1,0.4,0,0.8
			c0,0,0,0,0,0.3c-0.1,0.5-0.1,0.6,0,0.7c0.1,0.1,0.2,0.1,0.3,0.1c0.2,0,0.3-0.1,0.4-0.1C-3.8,5.1-3.4,4.7-3,4.2
			c-0.2,0.3-0.3,0.6-0.4,0.7c-0.2,0.2-0.3,0.4-0.5,0.7C-4,5.8-4,5.9-4.1,6c-0.1,0.2-0.2,0.5-0.1,0.8C-4.1,6.9-4,6.9-4,7.1
			c0,0.2,0,0.3,0,0.4c0,0.1,0.1,0.1,0.2,0.1c0.1,0.1,0,0.3,0,0.6c0,0.2,0.1,0.1,0.1,0.3c0.1,0.3-0.1,0.4,0,0.7c0,0.1,0,0.2,0.1,0.3
			c0.1,0.1,0.4-0.1,0.6,0c0.2,0.1,0.1,0.3,0.3,0.4c0.1,0,0.2-0.1,0.4,0c0,0,0.3,0,0.3,0.1c0,0.1-0.1,0.3-0.3,0.4
			c-0.4,0.2-0.8-0.1-0.9,0c0,0.1,0.1,0.2,0.2,0.3c1,0.9,1,1,1.3,1.2c0.3,0.2,0.3,0.1,0.7,0.3c0.5,0.3,1.1,0.6,1.1,1
			c0,0.2-0.2,0.3-0.1,0.6c0,0.2,0.1,0.5,0.3,0.6c0.2,0.1,0.3-0.1,0.6-0.1c0.3,0,0.3,0.2,0.6,0.3c0.4,0,0.5-0.4,0.8-0.4
			c0.2,0,0.2,0.2,0.4,0.3c0.2,0.1,0.4,0,0.5,0c1-1.1,2.6-2.7,4.6-4.8c1.6-1.7,2.1-2.2,3-3.1c2.6-2.5,5.4-4.5,5.5-4.3
			c0.1,0.1-1.2,1.3-5.5,5.4c-3,2.8-5.4,5.2-7.1,6.8c0,0.3,0.1,0.5,0.2,0.5c0.2,0.1,0.5-0.2,0.8,0C4.8,15,5,15.1,5.1,15.4
			c0,0.2,0,0.3,0.1,0.4c0.1,0.1,0.1,0,0.2,0.1c0.2,0.2,0.1,0.3,0.3,0.5c0.2,0.1,0.4,0,0.4,0.2c0,0.1,0,0.1,0,0.3
			c0,0.1,0.2,0.1,0.2,0.3c0,0.2-0.3,0.3-0.3,0.6c0,0.2,0.1,0.2,0.1,0.5c0,0.5-0.6,0.6-0.5,0.9c0,0.2,0.2,0.4,0.4,0.5
			c0.3,0,0.5-0.4,0.8-0.4c0.4,0,0.6,0.6,0.9,0.5c0.3,0,0.3-0.4,0.6-0.4c0.2,0,0.3,0.1,0.4,0c0.1-0.1,0.1-0.2,0.3-0.3
			C9,19,9,19,9.1,19c0.2,0,0.6-0.4,0.7-0.8c0.1-0.4,0-0.5,0.2-0.8c0.1-0.2,0.3-0.3,0.4-0.4c0.5-0.4,1.2-1,1.8-1.6
			c0.8-0.8,0.9-1.1,1.5-1.4c0.1,0,0.3-0.1,0.5-0.3c0.3-0.3,0.4-0.6,0.6-0.8c0.4-0.8,0.8-0.8,1.7-2c0-0.1,0.2-0.3,0.2-0.4
			c-0.1-0.1-1.2,1.1-1.4,1c-0.1-0.1-0.1-0.2-0.1-0.2c0.1-0.6,0.8-0.8,1.9-1.7c0.3-0.2,0.2-0.2,0.5-0.5c0.8-0.7,1.7-1.3,2-1.7
			c0.1-0.3,0.2-0.6,0.2-0.6c0-0.1,0-0.1,0.1-0.2c0.1-0.3,0.2-0.4,0.7-0.9C20.8,5.2,20.8,5.1,20.8,5z M3.8,4.3
			C3.5,4.6,3.2,4.9,2.9,5.1C3,4.9,3.3,4.5,3.7,4.2C3.8,4.1,4,3.9,4.1,3.9C4,4,3.9,4.1,3.8,4.3z M3.6,3c0.5-0.5,1-1,1.4-1.4
			c-0.3,0.5-0.8,1-1.3,1.5C3.4,3.4,3.1,3.7,2.8,4C3,3.7,3.3,3.4,3.6,3z M-2,3c0.1-0.2,0.2-0.4,0.4-0.6c0.1-0.1,0.2-0.2,0.2-0.2
			c0,0.1-0.1,0.2-0.2,0.3C-1.6,2.7-1.8,2.9-2,3z M-1.1,11.1c-0.1,0.1-0.2,0.2-0.3,0.2c0,0,0-0.2,0.1-0.3c0.1-0.1,0.3-0.2,0.3-0.2
			C-1,10.9-1,11-1.1,11.1z M-1.4,6.5c0.3-0.4,0.7-0.8,1-1.2c0,0.1,0,0.2,0,0.3C-0.8,5.9-1.1,6.2-1.4,6.5z M0.3,12.5
			c0,0-0.2-0.2-0.5-0.6c-0.1-0.1-0.2-0.2-0.2-0.3c0-0.1,0.1-0.1,0.2-0.2C0,11.4,0.1,11.3,0.3,11c0,0.2-0.1,0.3-0.1,0.4
			c0,0.1-0.1,0.2-0.1,0.3c0,0.1,0.1,0,0.1,0.1c0.1,0.1,0,0.2,0,0.3C0.2,12.3,0.3,12.5,0.3,12.5z M0.2,1.2C0.3,1,0.4,0.8,0.6,0.6
			c0.1-0.1,0.2-0.2,0.2-0.2c0,0.1-0.1,0.2-0.2,0.3C0.5,0.9,0.4,1.1,0.2,1.2z M3,7.8c1-1.3,2.3-2.8,3.8-4.2C7.9,2.5,9,1.6,10,0.8
			C9.3,1.5,8.5,2.2,7.8,2.9C6.1,4.6,4.5,6.2,3,7.8z M7.9,3.6c0.8-0.8,1.6-1.5,2.4-2c-0.4,0.5-0.9,1-1.4,1.6C7.8,4.3,6.6,5.5,5.5,6.5
			C6.1,5.6,6.9,4.6,7.9,3.6z M9.8,5.4c1.1-0.9,2.2-1.8,3.2-2.6c-0.7,0.7-1.4,1.4-2.2,2.1C9.2,6.3,7.6,7.6,6.1,8.7
			C7.2,7.6,8.4,6.5,9.8,5.4z M11.5,5.5C9.9,6.9,8.3,8.2,6.9,9.3C8,8.2,9.2,7.1,10.5,6c1.1-0.9,2.2-1.8,3.2-2.6
			C13,4.1,12.2,4.8,11.5,5.5z M17.2,4c-0.7,0.7-1.4,1.4-2.2,2.1c-1.6,1.4-3.1,2.7-4.6,3.8c1.1-1.1,2.3-2.2,3.6-3.4
			C15.1,5.6,16.2,4.8,17.2,4z M7.7,11.7c1.4-1.7,3.1-3.5,5.1-5.3c0.9-0.8,1.8-1.5,2.6-2.2c-1,1-1.9,1.9-2.9,2.9
			C11,8.7,9.3,10.2,7.7,11.7z M8.1,13.3c1.6-1.5,3.2-3.1,5-4.7c1.4-1.3,2.8-2.4,4.2-3.5c-1.1,1.1-2.3,2.1-3.4,3.2
			C11.9,10.1,10,11.7,8.1,13.3z M8.4,14.4c1.1-1.3,2.5-2.7,4.1-4.1c1.4-1.2,2.7-2.2,4-3c-1.1,1-2.2,1.9-3.3,2.9
			C11.6,11.5,10,12.9,8.4,14.4z M16.4,8.6c-1.2,1.1-2.4,2.1-3.6,3c0.2-0.2,0.4-0.4,0.6-0.6c0.8-0.7,1.5-1.4,2.2-2.1
			c-0.1,0.1-0.2,0.1-0.3,0.2c-0.1,0-0.1,0.1-0.2,0.2c-1.3,1.1-2.4,2.2-3.5,3.3c-0.9,0.8-1.8,1.5-2.7,2.1c1.1-1.1,2.3-2.2,3.6-3.4
			c1-0.9,2-1.7,2.9-2.4c1-0.9,2.1-1.7,3-2.5C17.9,7.2,17.2,7.9,16.4,8.6z"/>
	</defs>
	<clipPath id="SVGID_2_">
		<use xlink:href="#SVGID_1_"  style="overflow:visible;"/>
	</clipPath>
	<path class="st0" d="M11.4,4.6c0.4,0.4,0.4,1,0,1.4l-5.3,5.3c-0.4,0.4-1,0.4-1.4,0l0,0c-0.4-0.4-0.4-1,0-1.4l5.3-5.3
		C10.3,4.3,11,4.3,11.4,4.6L11.4,4.6z"/>
	<path class="st0" d="M5.3,13.6c-0.8,0.8-2.1,0.8-2.8,0c-0.8-0.8-0.8-2.1,0-2.8L6.2,7C4.9,6.7,3.5,7,2.6,8L1.1,9.4
		c-1.5,1.5-1.5,3.9,0,5.4c1.5,1.5,3.9,1.5,5.4,0L8,13.4c1-1,1.3-2.4,1-3.6L5.3,13.6L5.3,13.6z"/>
	<path class="st0" d="M9.4,1.1L8,2.6c-1,1-1.3,2.4-1,3.6l3.8-3.8c0.8-0.8,2.1-0.8,2.8,0c0.8,0.8,0.8,2.1,0,2.8L9.8,9
		c1.3,0.3,2.6,0,3.6-1l1.4-1.4c1.5-1.5,1.5-3.9,0-5.4C13.4-0.4,10.9-0.4,9.4,1.1L9.4,1.1z"/>
</g>
</svg>
