<?xml version="1.0" encoding="utf-8"?>
<!-- Generator: Adobe Illustrator 23.0.0, SVG Export Plug-In . SVG Version: 6.00 Build 0)  -->
<svg version="1.1" id="Layer_1" xmlns="http://www.w3.org/2000/svg" xmlns:xlink="http://www.w3.org/1999/xlink" x="0px" y="0px"
	 viewBox="0 0 16 16" style="enable-background:new 0 0 16 16;" xml:space="preserve">
<style type="text/css">
	.st0{clip-path:url(#SVGID_2_);fill:#F75049;}
</style>
<g>
	<defs>
		<path id="SVGID_1_" d="M20.8,2.4c-0.1-0.2-0.4,0-0.7-0.3c-0.3-0.2-0.2-0.4-0.4-0.5c-0.5-0.3-1.5,0.6-1.6,0.6c0,0,0.4-0.3,0.9-0.8
			c0.3-0.3,0.8-0.8,0.6-1.2c-0.1-0.2-0.3-0.2-0.4-0.4c-0.1-0.3,0.6-0.5,0.5-0.9c0-0.2-0.2-0.4-0.4-0.4c-0.4-0.2-0.9,0.3-1,0.3
			c0,0,0.3-0.2,0.5-0.6c0-0.1,0.2-0.4,0.1-0.6c-0.1-0.1-0.3-0.1-0.5-0.1c-0.1,0-0.2,0.1-0.3,0.1c0,0,0-0.1,0-0.2
			c0-0.2-0.4-0.3-0.7-0.4c-0.6-0.1-1.1,0.6-1.2,0.5c-0.1-0.1,0.6-0.6,0.4-1.1C16.8-3.8,16.6-4,16.4-4c-0.3,0-0.5,0.4-0.6,0.3
			c-0.2-0.1,0.1-0.9-0.1-1c-0.2-0.1-0.4,0.1-0.7,0c-0.2-0.1-0.2-0.2-0.3-0.2c-0.4-0.1-0.9,0.5-1.6,1.1c-0.3,0.3-0.7,0.6-1.4,1
			c0.3-0.4,0.6-0.7,0.8-0.9c0.5-0.5,0.8-0.8,0.8-1.1c0-0.2,0-0.4-0.2-0.5c-0.2-0.1-0.5,0.2-1.3,0.8c-0.2,0.1-0.4,0.3-0.5,0.3
			c0,0,0.4-0.4,0.2-0.8c0,0-0.1-0.2-0.2-0.3C10.8-5.9,10-5.7,9.9-5.7c-1,0.3-1.3,1-2.6,1.6c0,0-0.2,0.1-0.4,0.2
			C6.4-3.6,6.1-3.5,6-3.4C5.7-3.2,5.5-3,5.3-2.7C5.2-2.4,5.3-2.2,5.1-2C4.9-1.8,4.7-1.8,4.7-1.8C3.9-1.6,3.1-0.3,2.9-0.2
			C2.5,0.5,0.9,2.1-3.3,6c5.7-6,7.5-7.9,7.5-8.1c0,0,0,0,0,0c0-0.1,0.2-0.5,0-0.7C4.1-2.9,4-2.9,3.9-3c0,0-0.1-0.1,0-0.2
			c0-0.2,0.5-0.3,0.5-0.4c0,0-0.1-0.1-0.2-0.1C3.8-3.9,3.8-4,3.6-4C3.3-4.1,3-3.9,2.8-3.8C2.5-3.7,2.4-3.5,2.3-3.6
			c-0.1,0,0.1-0.2,0-0.3C2.2-4,2-4,1.9-4C1.5-4,1.3-3.6,1.2-3.7c-0.1-0.1,0-0.2-0.1-0.4C1-4.2,0.8-4.2,0.6-4.3
			C0.4-4.5,0.5-4.6,0.3-5C0.2-5.1,0-5.3-0.2-5.4c-0.3-0.1-0.3,0-0.6-0.1c-0.3-0.1-0.3-0.3-0.6-0.3c-0.2,0-0.3,0-0.5,0.1
			c-0.4,0.2-0.4,0.4-0.6,0.4c-0.2,0-0.3-0.2-0.6-0.3c-0.1,0-0.3,0-0.3,0c-0.1,0.1,0,0.4-0.1,0.6c-0.1,0.1-0.2,0.1-0.3,0
			C-4-5-4-5.2-4.1-5.2c-0.2-0.2-1.4,0.1-1.7,0.8C-5.8-4.4-5.9-4.2-6-4.1c-0.2,0.1-0.4,0-0.6,0c-0.3,0-0.6,0.3-1.3,1.2
			c0,0-0.2,0.2-0.7,0.8C-9.6-1-9.9-0.8-9.9-0.5c0,0.6,0.1,0.9,0.1,0.9c0,0.1,0.1,0.3,0,0.4C-9.8,0.9-9.9,0.9-10,1
			c-0.1,0.2,0.1,0.4,0,0.9c0,0,0,0-0.1,0.3c-0.1,0.6-0.1,0.8,0,0.9c0.1,0.1,0.2,0.1,0.3,0.1C-9.5,3.1-9.4,3-9.3,3
			c0.5-0.5,0.9-1.1,1.4-1.6C-8.1,1.8-8.3,2-8.5,2.2C-8.7,2.5-8.8,2.7-9,3.1c-0.1,0.1-0.1,0.2-0.2,0.4c-0.1,0.3-0.2,0.6-0.1,0.9
			c0.1,0.1,0.1,0.2,0.2,0.4c0,0.2-0.1,0.3,0,0.5C-9,5.4-9,5.4-8.9,5.5c0.1,0.2,0,0.4,0,0.7c0,0.2,0.1,0.1,0.1,0.3
			c0.1,0.3-0.1,0.5,0,0.9c0,0.2,0,0.3,0.1,0.3C-8.5,7.8-8.2,7.6-8,7.7c0.2,0.1,0.1,0.4,0.4,0.5c0.1,0.1,0.2-0.1,0.5-0.1
			c0,0,0.4,0,0.4,0.2c0,0.1-0.1,0.3-0.3,0.4c-0.4,0.2-1-0.1-1,0c0,0.1,0.1,0.3,0.3,0.4c1.2,1.1,1.2,1.2,1.6,1.4
			c0.4,0.2,0.3,0.1,0.8,0.4c0.6,0.4,1.3,0.7,1.3,1.2c0,0.3-0.2,0.3-0.2,0.7c0,0.3,0.1,0.7,0.4,0.8c0.2,0.1,0.4-0.2,0.7-0.1
			c0.4,0,0.4,0.3,0.7,0.3c0.4,0,0.6-0.5,1-0.4c0.2,0,0.2,0.2,0.5,0.3c0.2,0.1,0.5,0,0.6,0c1.3-1.3,3.2-3.3,5.6-5.8
			c2-2.1,2.5-2.7,3.6-3.7c3.2-3,6.5-5.4,6.7-5.2c0.1,0.1-1.4,1.5-6.6,6.5C5.3,9,2.3,11.8,0.3,13.7c0,0.4,0.1,0.5,0.2,0.6
			c0.3,0.2,0.6-0.2,0.9,0c0.1,0.1,0.3,0.3,0.4,0.5c0.1,0.2,0,0.3,0.1,0.5c0.1,0.1,0.1,0,0.2,0.1c0.2,0.2,0.1,0.4,0.3,0.6
			c0.2,0.2,0.5,0.1,0.5,0.2c0,0.1-0.1,0.2,0,0.3c0,0.2,0.2,0.2,0.2,0.3c0.1,0.2-0.3,0.3-0.4,0.7c-0.1,0.3,0.1,0.3,0.1,0.6
			c0,0.6-0.7,0.7-0.7,1.1c0,0.3,0.3,0.5,0.5,0.6c0.4,0.1,0.6-0.5,1-0.5c0.5,0,0.7,0.7,1.1,0.7c0.3-0.1,0.4-0.4,0.7-0.5
			c0.2,0,0.4,0.1,0.5,0c0.2-0.1,0.1-0.3,0.3-0.3c0.1,0,0.1,0,0.2,0c0.3,0,0.7-0.5,0.8-1c0.1-0.4,0-0.6,0.2-0.9
			c0.1-0.3,0.3-0.4,0.4-0.5c0.7-0.5,1.4-1.2,2.2-1.9c1-0.9,1.1-1.3,1.8-1.7c0.1-0.1,0.3-0.2,0.6-0.4c0.4-0.3,0.5-0.7,0.7-1
			c0.5-0.9,1-1,2-2.5c0-0.1,0.3-0.4,0.2-0.4c-0.1-0.1-1.4,1.4-1.7,1.2c-0.1-0.1-0.1-0.2-0.1-0.3c0.1-0.7,1-0.9,2.3-2.1
			c0.3-0.3,0.2-0.2,0.6-0.6c1-0.9,2.1-1.6,2.4-2.1c0.2-0.3,0.3-0.7,0.3-0.7c0-0.1,0-0.2,0.1-0.2c0.1-0.3,0.3-0.5,0.8-1
			C20.8,2.6,20.8,2.4,20.8,2.4z M0.3,1.4c-0.4,0.5-0.8,0.8-1.1,1c0.2-0.3,0.5-0.8,1-1.1C0.3,1.2,0.5,1,0.7,0.9
			C0.6,1.1,0.4,1.3,0.3,1.4z M0-0.1c0.6-0.6,1.2-1.2,1.7-1.7C1.3-1.2,0.8-0.6,0.2,0c-0.4,0.4-0.8,0.7-1.1,1C-0.6,0.7-0.3,0.3,0-0.1z
			 M-6.7-0.1c0.1-0.2,0.3-0.5,0.5-0.8C-6.1-1-6-1.1-5.9-1.1C-5.9-1-6-0.9-6.1-0.8C-6.3-0.5-6.5-0.3-6.7-0.1z M-5.7,9.7
			C-5.8,9.9-5.9,9.9-6,10c0-0.1,0-0.2,0.1-0.4c0.1-0.2,0.3-0.2,0.4-0.2C-5.5,9.4-5.5,9.6-5.7,9.7z M-6.1,4.1c0.4-0.5,0.8-1,1.2-1.4
			c0,0.1,0,0.2,0,0.4C-5.2,3.4-5.6,3.8-6.1,4.1z M-4,11.4c-0.1,0-0.2-0.2-0.6-0.7c-0.1-0.1-0.2-0.2-0.2-0.3c0-0.1,0.1-0.1,0.3-0.2
			C-4.4,10-4.2,9.9-4,9.6c0,0.2-0.1,0.4-0.1,0.5c-0.1,0.1-0.1,0.2-0.1,0.3c0,0.1,0.1,0,0.2,0.1c0.1,0.1,0,0.2,0,0.3
			C-4.1,11.1-3.9,11.4-4,11.4z M-4.1-2.3C-4-2.5-3.8-2.8-3.5-3c0.1-0.1,0.2-0.2,0.3-0.3C-3.3-3.2-3.4-3.1-3.5-3
			C-3.7-2.7-3.9-2.4-4.1-2.3z M-0.7,5.7c1.3-1.6,2.8-3.4,4.6-5.1c1.3-1.3,2.6-2.4,3.8-3.4C6.9-1.9,6-1.1,5.1-0.2
			C3.1,1.8,1.2,3.8-0.7,5.7z M5.3,0.6c1-1,2-1.8,2.9-2.5C7.6-1.2,7-0.6,6.5,0C5.1,1.5,3.7,2.9,2.4,4.1C3.1,3.1,4,1.8,5.3,0.6z
			 M7.5,2.8c1.3-1.1,2.6-2.2,3.9-3.2c-0.8,0.9-1.7,1.7-2.7,2.6C6.8,3.9,4.9,5.5,3.1,6.8C4.4,5.5,5.9,4.1,7.5,2.8z M9.5,2.9
			C7.6,4.7,5.8,6.2,4,7.6c1.3-1.3,2.8-2.7,4.4-4.1c1.3-1.1,2.6-2.2,3.9-3.2C11.4,1.2,10.5,2.1,9.5,2.9z M16.5,1.1
			c-0.8,0.9-1.7,1.7-2.7,2.6C11.9,5.4,10,6.9,8.2,8.3C9.6,7,11,5.6,12.6,4.2C13.9,3.1,15.2,2,16.5,1.1z M5,10.4
			C6.8,8.4,8.8,6.2,11.2,4c1.1-1,2.1-1.9,3.2-2.7c-1.2,1.2-2.3,2.4-3.5,3.5C8.9,6.7,7,8.6,5,10.4z M5.5,12.4
			c1.9-1.9,3.9-3.8,6.1-5.7c1.7-1.5,3.4-2.9,5-4.3c-1.3,1.3-2.7,2.6-4.1,3.9C10.1,8.4,7.8,10.5,5.5,12.4z M5.8,13.6
			c1.3-1.5,3-3.3,5-5c1.7-1.4,3.3-2.6,4.8-3.6c-1.3,1.2-2.6,2.3-3.9,3.5C9.7,10.2,7.7,11.9,5.8,13.6z M15.5,6.7
			c-1.5,1.3-2.9,2.6-4.3,3.7c0.3-0.2,0.5-0.5,0.8-0.7c1-0.9,1.8-1.7,2.7-2.6c-0.1,0.1-0.2,0.2-0.4,0.3c-0.1,0.1-0.1,0.1-0.2,0.2
			c-1.5,1.3-3,2.7-4.3,3.9c-1.1,0.9-2.2,1.8-3.2,2.6C8,12.7,9.4,11.4,11,10c1.2-1,2.4-2,3.5-2.9C15.8,6,17,5,18.2,4.1
			C17.4,5,16.5,5.8,15.5,6.7z"/>
	</defs>
	<clipPath id="SVGID_2_">
		<use xlink:href="#SVGID_1_"  style="overflow:visible;"/>
	</clipPath>
	<path class="st0" d="M7.7,0C7.5,0,7.3,0.1,7.3,0.3v0.8c-0.6,0.2-1,0.8-1,1.5c0,0.9,0.8,1.6,1.7,1.6c1,0,1.7-0.7,1.7-1.6
		c0-0.7-0.4-1.2-1-1.5V0.3C8.7,0.1,8.5,0,8.4,0H7.7z"/>
	<path class="st0" d="M6,3.8L4.2,8.3h-2c-0.1,0-0.2,0-0.3,0.1C1.8,8.5,1.8,8.6,1.8,8.7C1.8,8.8,2,9,2.1,9h5.2v1
		c0,0.2,0.2,0.3,0.3,0.3h0.7c0.2,0,0.3-0.1,0.3-0.3V9h5.2c0.1,0,0.2-0.1,0.3-0.2c0.1-0.1,0.1-0.2,0-0.3c-0.1-0.1-0.2-0.2-0.3-0.2h-2
		L10,3.8c-0.4,0.6-1.1,1-1.8,1l1.5,3.5h-1v-1C8.7,7.2,8.5,7,8.4,7H7.7C7.5,7,7.3,7.2,7.3,7.4v1h-1l1.5-3.5C7,4.7,6.4,4.3,6,3.8z"/>
	<path class="st0" d="M3.7,9.6l-1.4,3.5c0,0.1,0,0.1,0,0.2l0.6,1.8v0.6c0,0.1,0.1,0.2,0.2,0.3C3.1,16,3.3,16,3.4,16
		c0.1-0.1,0.2-0.2,0.2-0.3v-0.6l2.3-5.5H3.7z"/>
	<path class="st0" d="M10.2,9.6l2.3,5.5v0.6c0,0.1,0.1,0.2,0.2,0.3c0.1,0.1,0.2,0.1,0.3,0c0.1-0.1,0.2-0.2,0.2-0.3v-0.6l0.6-1.8
		c0-0.1,0-0.1,0-0.2l-1.4-3.5H10.2z"/>
</g>
</svg>
