<?xml version="1.0" encoding="utf-8"?>
<!-- Generator: Adobe Illustrator 23.0.0, SVG Export Plug-In . SVG Version: 6.00 Build 0)  -->
<svg version="1.1" id="Layer_1" xmlns="http://www.w3.org/2000/svg" xmlns:xlink="http://www.w3.org/1999/xlink" x="0px" y="0px"
	 viewBox="0 0 16 16" style="enable-background:new 0 0 16 16;" xml:space="preserve">
<style type="text/css">
	.st0{clip-path:url(#SVGID_2_);}
	.st1{fill-rule:evenodd;clip-rule:evenodd;fill:#F75049;}
	.st2{clip-path:url(#SVGID_2_);fill-rule:evenodd;clip-rule:evenodd;fill:#F75049;}
</style>
<g>
	<defs>
		<path id="SVGID_1_" d="M21.4,5.3c-0.1-0.1-0.3,0-0.6-0.2c-0.2-0.2-0.2-0.4-0.3-0.5c-0.4-0.3-1.3,0.5-1.4,0.5c0,0,0.4-0.3,0.8-0.7
			c0.2-0.3,0.7-0.7,0.5-1.1c-0.1-0.2-0.3-0.2-0.3-0.4c0-0.3,0.5-0.4,0.5-0.8c0-0.2-0.2-0.3-0.3-0.4c-0.4-0.1-0.8,0.3-0.8,0.2
			c0,0,0.3-0.2,0.4-0.5c0-0.1,0.2-0.4,0.1-0.5C19.8,1,19.6,1,19.5,1c-0.1,0-0.2,0.1-0.2,0.1c0,0,0-0.1,0-0.2c0-0.2-0.4-0.3-0.6-0.3
			c-0.5-0.1-1,0.5-1.1,0.4c-0.1-0.1,0.5-0.6,0.4-0.9c-0.1-0.2-0.2-0.3-0.4-0.3c-0.3,0-0.4,0.3-0.5,0.3C16.9,0,17.2-0.7,17-0.8
			c-0.1-0.1-0.3,0.1-0.6,0C16.2-0.9,16.2-1,16.1-1c-0.3-0.1-0.8,0.4-1.4,1c-0.3,0.2-0.6,0.5-1.2,0.8C13.8,0.4,14,0.2,14.2,0
			c0.4-0.5,0.7-0.7,0.7-1c0-0.1,0-0.4-0.2-0.5c-0.2-0.1-0.4,0.2-1.1,0.7c-0.2,0.1-0.3,0.2-0.4,0.3c0,0,0.3-0.4,0.2-0.7
			c0,0-0.1-0.2-0.2-0.3c-0.4-0.4-1.2-0.2-1.3-0.2C11-1.5,10.8-0.8,9.7-0.3c0,0-0.1,0.1-0.3,0.2C8.9,0.1,8.7,0.2,8.6,0.3
			C8.3,0.5,8.1,0.6,8,0.9C7.9,1.2,7.9,1.3,7.8,1.5C7.6,1.7,7.5,1.7,7.4,1.7C6.8,1.9,6,3,5.9,3.1c-0.4,0.6-1.8,2-5.5,5.3
			c5-5.2,6.5-6.9,6.5-7c0,0,0,0,0,0c0-0.1,0.2-0.5,0-0.6c-0.1-0.1-0.2,0-0.3-0.2c0,0,0-0.1,0-0.2c0-0.2,0.4-0.3,0.4-0.4
			c0,0-0.1-0.1-0.2-0.1C6.6-0.1,6.6-0.2,6.5-0.2C6.2-0.3,6-0.1,5.8,0C5.6,0.1,5.4,0.2,5.4,0.2c-0.1,0,0-0.2,0-0.3
			C5.3-0.2,5.1-0.2,5-0.2C4.7-0.2,4.5,0.1,4.4,0c-0.1,0,0-0.2-0.1-0.3C4.2-0.4,4.1-0.4,3.9-0.5C3.7-0.6,3.8-0.8,3.6-1.1
			C3.5-1.2,3.4-1.3,3.2-1.4c-0.2-0.1-0.3,0-0.5-0.1C2.4-1.5,2.4-1.7,2.1-1.8c-0.2,0-0.3,0-0.4,0.1C1.4-1.5,1.4-1.3,1.2-1.3
			C1-1.3,1-1.5,0.6-1.6c-0.1,0-0.2,0-0.3,0c-0.1,0.1,0,0.4-0.1,0.5C0.2-1,0-1,0-1.1c-0.1-0.1-0.1-0.2-0.1-0.2
			c-0.2-0.2-1.2,0.1-1.5,0.7c0,0.1-0.1,0.2-0.2,0.3c-0.2,0.1-0.3,0-0.5,0c-0.3,0-0.5,0.3-1.1,1c0,0-0.1,0.2-0.6,0.7
			c-0.9,1-1.1,1.2-1.1,1.5c0,0.5,0,0.8,0,0.8c0,0.1,0.1,0.3,0,0.4c-0.1,0.1-0.1,0-0.2,0.1c-0.1,0.1,0.1,0.4,0,0.8c0,0,0,0-0.1,0.3
			c-0.1,0.6-0.1,0.7,0,0.7C-5.3,6-5.2,6-5.1,6c0.2,0,0.3-0.1,0.4-0.1c0.4-0.5,0.8-0.9,1.2-1.4C-3.7,4.8-3.9,5-4,5.2
			C-4.2,5.4-4.3,5.6-4.5,6c0,0.1-0.1,0.2-0.2,0.4c-0.1,0.2-0.2,0.5-0.1,0.8c0,0.1,0.1,0.2,0.1,0.3c0,0.2-0.1,0.3,0,0.4
			C-4.5,7.9-4.4,7.9-4.4,8c0.1,0.1,0,0.3,0,0.6c0,0.2,0.1,0.1,0.1,0.3c0.1,0.3-0.1,0.4,0,0.7c0,0.2,0,0.2,0.1,0.3
			C-4,10.1-3.8,9.9-3.6,10c0.2,0.1,0.1,0.3,0.3,0.4c0.1,0,0.2-0.1,0.4,0c0,0,0.3,0,0.4,0.1c0,0.1-0.1,0.3-0.3,0.4
			c-0.4,0.2-0.8-0.1-0.9,0c0,0.1,0.1,0.2,0.2,0.3c1,1,1,1,1.4,1.3c0.3,0.2,0.3,0.1,0.7,0.3c0.6,0.3,1.1,0.6,1.1,1.1
			c0,0.2-0.2,0.3-0.2,0.6c0,0.2,0.1,0.6,0.3,0.7C0.2,15.2,0.3,15,0.6,15c0.3,0,0.4,0.3,0.6,0.3c0.4,0,0.5-0.4,0.8-0.4
			c0.2,0,0.2,0.2,0.4,0.3c0.2,0.1,0.4,0,0.6,0c1.1-1.1,2.8-2.8,4.8-5C9.6,8.4,10.1,7.9,11,7c2.8-2.6,5.7-4.7,5.8-4.5
			c0.1,0.1-1.2,1.3-5.8,5.6c-3.1,3-5.7,5.4-7.4,7.1c0,0.4,0.1,0.5,0.2,0.5c0.2,0.1,0.5-0.2,0.8,0c0.1,0.1,0.3,0.2,0.3,0.5
			c0,0.2,0,0.3,0.1,0.4c0.1,0.1,0.1,0,0.2,0.1c0.2,0.2,0.1,0.4,0.3,0.5c0.2,0.1,0.4,0,0.5,0.2c0,0.1-0.1,0.1,0,0.3
			c0,0.1,0.2,0.1,0.2,0.3c0,0.2-0.3,0.3-0.4,0.6c-0.1,0.2,0.1,0.3,0.1,0.5c0,0.5-0.6,0.6-0.6,1c0,0.2,0.2,0.5,0.5,0.5
			c0.4,0,0.5-0.4,0.9-0.4c0.4,0,0.6,0.6,1,0.6c0.3,0,0.3-0.4,0.6-0.4c0.2,0,0.3,0.1,0.4,0C8.8,20.2,8.8,20,8.9,20c0.1,0,0.1,0,0.2,0
			c0.3,0,0.6-0.4,0.7-0.8c0.1-0.4,0-0.5,0.2-0.8c0.1-0.2,0.3-0.3,0.4-0.4c0.6-0.4,1.2-1.1,1.9-1.7c0.9-0.8,1-1.2,1.5-1.4
			c0.1,0,0.3-0.1,0.5-0.3c0.3-0.3,0.4-0.6,0.6-0.9c0.4-0.8,0.9-0.9,1.8-2.1c0-0.1,0.2-0.3,0.2-0.4c-0.1-0.1-1.2,1.2-1.5,1
			c-0.1-0.1-0.1-0.2-0.1-0.3c0.1-0.6,0.9-0.8,2-1.8c0.3-0.3,0.2-0.2,0.5-0.5c0.9-0.8,1.8-1.4,2.1-1.8c0.1-0.3,0.2-0.6,0.2-0.6
			c0-0.1,0-0.1,0.1-0.2c0.1-0.3,0.3-0.4,0.7-0.9C21.4,5.5,21.4,5.4,21.4,5.3z M3.6,4.5c-0.3,0.4-0.7,0.7-1,0.9
			c0.2-0.3,0.4-0.7,0.8-1c0.2-0.1,0.3-0.2,0.5-0.3C3.8,4.2,3.7,4.3,3.6,4.5z M3.4,3.2c0.5-0.6,1-1,1.5-1.5c-0.4,0.5-0.8,1-1.3,1.5
			c-0.3,0.3-0.7,0.6-1,0.9C2.8,3.9,3.1,3.5,3.4,3.2z M-2.4,3.2C-2.4,3-2.2,2.7-2,2.5c0.1-0.1,0.2-0.2,0.3-0.2c0,0.1-0.1,0.2-0.2,0.3
			C-2.1,2.8-2.3,3-2.4,3.2z M-1.6,11.7c-0.1,0.1-0.2,0.2-0.3,0.2c0,0,0-0.2,0.1-0.3c0.1-0.2,0.3-0.2,0.3-0.2
			C-1.4,11.4-1.5,11.6-1.6,11.7z M-1.9,6.8c0.3-0.4,0.7-0.8,1-1.3c0,0.1,0,0.2,0,0.3C-1.2,6.2-1.5,6.5-1.9,6.8z M-0.1,13.1
			c0,0-0.2-0.2-0.5-0.6c-0.1-0.1-0.2-0.2-0.2-0.3c0-0.1,0.1-0.1,0.2-0.2c0.1-0.1,0.3-0.2,0.4-0.5c0,0.2-0.1,0.3-0.1,0.4
			c-0.1,0.1-0.1,0.2-0.1,0.3c0,0.1,0.1,0,0.1,0.1c0.1,0.1,0,0.2,0,0.3C-0.2,12.9,0,13.1-0.1,13.1z M-0.2,1.3
			c0.1-0.2,0.2-0.4,0.5-0.7c0.1-0.1,0.2-0.2,0.3-0.2C0.5,0.5,0.4,0.6,0.4,0.7C0.2,1,0,1.2-0.2,1.3z M2.8,8.2c1.1-1.4,2.4-2.9,4-4.4
			C7.9,2.7,9,1.7,10.1,0.9C9.3,1.6,8.6,2.3,7.8,3.1C6,4.8,4.4,6.5,2.8,8.2z M7.9,3.8c0.9-0.9,1.7-1.6,2.5-2.1C9.9,2.2,9.5,2.7,9,3.3
			C7.8,4.6,6.6,5.8,5.4,6.8C6,5.9,6.9,4.9,7.9,3.8z M9.8,5.7c1.1-1,2.3-1.9,3.4-2.7c-0.7,0.7-1.5,1.5-2.3,2.3C9.2,6.7,7.6,8,6,9.2
			C7.2,8,8.5,6.9,9.8,5.7z M11.6,5.8c-1.6,1.5-3.3,2.8-4.8,4c1.2-1.2,2.4-2.3,3.8-3.5c1.1-1,2.3-1.9,3.4-2.8
			C13.2,4.3,12.5,5,11.6,5.8z M17.7,4.2c-0.7,0.7-1.5,1.5-2.3,2.3c-1.6,1.5-3.3,2.8-4.8,4c1.2-1.1,2.4-2.3,3.8-3.5
			C15.4,5.9,16.6,5,17.7,4.2z M7.7,12.3c1.5-1.8,3.3-3.7,5.4-5.5c0.9-0.8,1.8-1.6,2.7-2.3c-1,1-2,2-3,3.1
			C11.1,9.1,9.4,10.7,7.7,12.3z M8.1,14c1.6-1.6,3.4-3.3,5.3-4.9c1.5-1.3,2.9-2.6,4.4-3.7c-1.2,1.1-2.4,2.2-3.6,3.3
			C12.1,10.6,10.1,12.3,8.1,14z M8.4,15.1c1.1-1.3,2.6-2.8,4.3-4.3c1.5-1.2,2.9-2.3,4.2-3.1c-1.1,1-2.3,2-3.4,3
			C11.7,12.1,10.1,13.6,8.4,15.1z M16.8,9.1c-1.3,1.2-2.5,2.2-3.7,3.2c0.2-0.2,0.4-0.4,0.7-0.6c0.8-0.8,1.6-1.5,2.3-2.3
			c-0.1,0.1-0.2,0.2-0.3,0.2c-0.1,0.1-0.1,0.1-0.2,0.2c-1.3,1.2-2.6,2.3-3.7,3.4c-1,0.8-1.9,1.5-2.8,2.2c1.2-1.1,2.4-2.3,3.8-3.5
			C14,11,15,10.2,16,9.4c1.1-0.9,2.2-1.8,3.2-2.6C18.4,7.6,17.6,8.3,16.8,9.1z"/>
	</defs>
	<clipPath id="SVGID_2_">
		<use xlink:href="#SVGID_1_"  style="overflow:visible;"/>
	</clipPath>
	<g class="st0">
		<path class="st1" d="M8.4,2c0-1.1,0.9-2,2-2c1,0,1.7,0.7,1.7,1.7c0,1.1-0.9,2-2,2C9,3.6,8.4,3,8.4,2z M7,6.8
			c0.2-0.4,0-0.7-0.2-0.7c-0.9,0-2.1,2.1-2.5,2.1C4.1,8.2,4,8.1,4,7.9C4,7.5,5,6.4,5.4,6.1c1-0.9,2.2-1.6,3.7-1.6
			c1.1,0,2.2,0.6,1.3,3l-1.8,4.8c-0.1,0.4-0.4,1-0.4,1.4c0,0.2,0.1,0.3,0.3,0.3c0.7,0,2.1-2.1,2.4-2.1c0.1,0,0.3,0.1,0.3,0.4
			c0,0.7-2.9,3.7-5.3,3.7c-0.9,0-1.5-0.4-1.5-1.3c0-1.2,0.8-3.2,1-3.6L7,6.8z"/>
	</g>
	<path class="st2" d="M8.4,2c0-1.1,0.9-2,2-2c1,0,1.7,0.7,1.7,1.7c0,1.1-0.9,2-2,2C9,3.6,8.4,3,8.4,2z M7,6.8c0.2-0.4,0-0.7-0.2-0.7
		c-0.9,0-2.1,2.1-2.5,2.1C4.1,8.2,4,8.1,4,7.9C4,7.5,5,6.4,5.4,6.1c1-0.9,2.2-1.6,3.7-1.6c1.1,0,2.2,0.6,1.3,3l-1.8,4.8
		c-0.1,0.4-0.4,1-0.4,1.4c0,0.2,0.1,0.3,0.3,0.3c0.7,0,2.1-2.1,2.4-2.1c0.1,0,0.3,0.1,0.3,0.4c0,0.7-2.9,3.7-5.3,3.7
		c-0.9,0-1.5-0.4-1.5-1.3c0-1.2,0.8-3.2,1-3.6L7,6.8z"/>
</g>
</svg>
