<?xml version="1.0" encoding="utf-8"?>
<!-- Generator: Adobe Illustrator 23.0.0, SVG Export Plug-In . SVG Version: 6.00 Build 0)  -->
<svg version="1.1" id="Layer_1" xmlns="http://www.w3.org/2000/svg" xmlns:xlink="http://www.w3.org/1999/xlink" x="0px" y="0px"
	 viewBox="0 0 16 16" style="enable-background:new 0 0 16 16;" xml:space="preserve">
<style type="text/css">
	.st0{clip-path:url(#SVGID_2_);fill:#F75049;}
</style>
<g>
	<defs>
		<path id="SVGID_1_" d="M21.6,4.1c-0.1-0.1-0.3,0-0.6-0.2c-0.2-0.2-0.2-0.3-0.3-0.4c-0.4-0.2-1.3,0.5-1.3,0.5c0,0,0.4-0.3,0.7-0.7
			c0.2-0.2,0.6-0.7,0.5-1c-0.1-0.2-0.3-0.2-0.3-0.3c0-0.3,0.5-0.4,0.4-0.7c0-0.2-0.2-0.3-0.3-0.3c-0.3-0.1-0.8,0.2-0.8,0.2
			c0,0,0.3-0.2,0.4-0.5c0-0.1,0.2-0.3,0.1-0.5C20.1,0,19.9,0,19.8,0c-0.1,0-0.2,0.1-0.2,0c0,0,0-0.1,0-0.2c0-0.2-0.3-0.3-0.6-0.3
			c-0.5,0-0.9,0.5-1,0.4c-0.1-0.1,0.5-0.5,0.4-0.9c0-0.1-0.2-0.3-0.4-0.3c-0.3,0-0.4,0.3-0.5,0.3c-0.1-0.1,0.1-0.7-0.1-0.9
			c-0.1-0.1-0.3,0.1-0.6,0c-0.2-0.1-0.2-0.1-0.3-0.2C16.3-2,15.8-1.5,15.3-1c-0.2,0.2-0.6,0.5-1.1,0.8c0.3-0.3,0.5-0.6,0.7-0.7
			c0.4-0.4,0.6-0.6,0.6-0.9c0-0.1,0-0.4-0.2-0.4c-0.2-0.1-0.4,0.2-1.1,0.6c-0.2,0.1-0.3,0.2-0.4,0.3c0,0,0.3-0.4,0.2-0.7
			c0,0-0.1-0.2-0.2-0.3c-0.4-0.3-1.1-0.2-1.2-0.2c-0.9,0.2-1.1,0.8-2.1,1.3c0,0-0.1,0.1-0.3,0.2C9.7-0.8,9.5-0.7,9.4-0.6
			C9.2-0.5,9-0.3,8.8-0.1C8.7,0.2,8.8,0.4,8.6,0.5C8.5,0.7,8.3,0.7,8.3,0.7C7.7,0.9,7,1.9,6.9,2C6.5,2.6,5.2,3.9,1.7,7.1
			c4.7-5,6.2-6.6,6.2-6.7c0,0,0,0,0,0c0-0.1,0.2-0.4,0-0.6c-0.1-0.1-0.2,0-0.3-0.1c0,0,0-0.1,0-0.1C7.6-0.7,8-0.7,8-0.8
			c0,0-0.1-0.1-0.2-0.1C7.5-1,7.5-1.1,7.4-1.1C7.1-1.2,6.9-1.1,6.7-1C6.5-0.8,6.4-0.7,6.3-0.8c0,0,0-0.2,0-0.3
			C6.2-1.1,6.1-1.1,6-1.1c-0.3,0-0.5,0.3-0.6,0.2c-0.1,0,0-0.2-0.1-0.3C5.2-1.3,5.1-1.3,5-1.4C4.8-1.5,4.8-1.7,4.6-1.9
			C4.6-2,4.5-2.2,4.2-2.3C4-2.3,4-2.2,3.7-2.3C3.5-2.4,3.5-2.6,3.2-2.6c-0.2,0-0.3,0-0.4,0.1C2.5-2.4,2.5-2.2,2.4-2.2
			c-0.2,0-0.2-0.2-0.5-0.2c-0.1,0-0.2,0-0.3,0c-0.1,0.1,0,0.4-0.1,0.5c-0.1,0.1-0.2,0.1-0.3,0C1.1-2,1.1-2.1,1.1-2.1
			C0.9-2.3-0.1-2.1-0.4-1.5c0,0.1-0.1,0.2-0.2,0.3c-0.2,0.1-0.3,0-0.5,0c-0.3,0-0.5,0.2-1.1,1c0,0-0.1,0.1-0.6,0.6
			c-0.9,1-1,1.1-1.1,1.4c0,0.5,0,0.7,0,0.7c0,0.1,0.1,0.3,0,0.4C-3.7,3-3.8,2.9-3.8,3c-0.1,0.1,0.1,0.4,0,0.8c0,0,0,0,0,0.3
			c-0.1,0.5-0.1,0.6,0,0.7c0.1,0.1,0.2,0.1,0.3,0.1c0.2,0,0.3-0.1,0.4-0.1c0.4-0.5,0.8-0.9,1.1-1.4C-2.3,3.6-2.5,3.9-2.6,4
			c-0.2,0.2-0.3,0.4-0.5,0.7c0,0.1-0.1,0.2-0.2,0.4c-0.1,0.2-0.2,0.5-0.1,0.8C-3.2,6-3.2,6-3.1,6.2c0,0.2,0,0.3,0,0.4
			C-3.1,6.7-3,6.6-3,6.7c0.1,0.1,0,0.3,0,0.6c0,0.2,0.1,0.1,0.1,0.3c0.1,0.3-0.1,0.4,0,0.7c0,0.1,0,0.2,0.1,0.3
			c0.1,0.1,0.4-0.1,0.6,0C-2,8.7-2.1,8.9-1.9,9c0.1,0,0.2-0.1,0.4,0c0,0,0.3,0,0.3,0.1c0,0.1-0.1,0.3-0.3,0.4
			c-0.4,0.2-0.8-0.1-0.9,0c0,0.1,0.1,0.2,0.2,0.3c1,0.9,1,1,1.3,1.2c0.3,0.2,0.3,0.1,0.7,0.3c0.5,0.3,1.1,0.6,1.1,1
			c0,0.2-0.2,0.3-0.1,0.6c0,0.2,0.1,0.5,0.3,0.6c0.2,0.1,0.3-0.1,0.6-0.1c0.3,0,0.3,0.2,0.6,0.3c0.4,0,0.5-0.4,0.8-0.4
			c0.2,0,0.2,0.2,0.4,0.3c0.2,0.1,0.4,0,0.5,0c1-1.1,2.6-2.7,4.6-4.8c1.6-1.7,2.1-2.2,3-3.1c2.6-2.5,5.4-4.5,5.5-4.3
			c0.1,0.1-1.2,1.3-5.5,5.4c-3,2.8-5.4,5.2-7.1,6.8c0,0.3,0.1,0.5,0.2,0.5c0.2,0.1,0.5-0.2,0.8,0c0.1,0.1,0.3,0.2,0.3,0.4
			c0,0.2,0,0.3,0.1,0.4c0.1,0.1,0.1,0,0.2,0.1c0.2,0.2,0.1,0.3,0.3,0.5c0.2,0.1,0.4,0,0.4,0.2c0,0.1,0,0.1,0,0.3
			C6.9,16,7,16,7.1,16.1c0,0.2-0.3,0.3-0.3,0.6c0,0.2,0.1,0.2,0.1,0.5c0,0.5-0.6,0.6-0.5,0.9c0,0.2,0.2,0.4,0.4,0.5
			c0.3,0,0.5-0.4,0.8-0.4c0.4,0,0.6,0.6,0.9,0.5c0.3,0,0.3-0.4,0.6-0.4c0.2,0,0.3,0.1,0.4,0c0.1-0.1,0.1-0.2,0.3-0.3
			c0.1,0,0.1,0,0.2,0c0.2,0,0.6-0.4,0.7-0.8c0.1-0.4,0-0.5,0.2-0.8c0.1-0.2,0.3-0.3,0.4-0.4c0.5-0.4,1.2-1,1.8-1.6
			c0.8-0.8,0.9-1.1,1.5-1.4c0.1,0,0.3-0.1,0.5-0.3c0.3-0.3,0.4-0.6,0.6-0.8c0.4-0.8,0.8-0.8,1.7-2c0-0.1,0.2-0.3,0.2-0.4
			c-0.1-0.1-1.2,1.1-1.4,1c-0.1-0.1-0.1-0.2-0.1-0.2c0.1-0.6,0.8-0.8,1.9-1.7c0.3-0.2,0.2-0.2,0.5-0.5c0.8-0.7,1.7-1.3,2-1.7
			c0.1-0.3,0.2-0.6,0.2-0.6c0-0.1,0-0.1,0.1-0.2c0.1-0.3,0.2-0.4,0.7-0.9C21.6,4.3,21.7,4.2,21.6,4.1z M4.7,3.4C4.4,3.7,4,4,3.7,4.2
			C3.9,4,4.1,3.6,4.5,3.3C4.7,3.2,4.8,3.1,5,3C4.9,3.1,4.8,3.2,4.7,3.4z M4.4,2.1c0.5-0.5,1-1,1.4-1.4c-0.3,0.5-0.8,1-1.3,1.5
			C4.3,2.5,4,2.8,3.7,3.1C3.9,2.8,4.2,2.5,4.4,2.1z M-1.1,2.1C-1,1.9-0.9,1.7-0.7,1.5c0.1-0.1,0.2-0.2,0.2-0.2
			c0,0.1-0.1,0.2-0.2,0.3C-0.8,1.8-1,2-1.1,2.1z M-0.3,10.2c-0.1,0.1-0.2,0.2-0.3,0.2c0,0,0-0.2,0.1-0.3C-0.3,10-0.2,10-0.1,9.9
			C-0.1,10-0.2,10.1-0.3,10.2z M-0.6,5.6c0.3-0.4,0.7-0.8,1-1.2c0,0.1,0,0.2,0,0.3C0.1,5-0.3,5.3-0.6,5.6z M1.1,11.6
			c0,0-0.2-0.2-0.5-0.6c-0.1-0.1-0.2-0.2-0.2-0.3c0-0.1,0.1-0.1,0.2-0.2c0.1-0.1,0.3-0.2,0.4-0.5c0,0.2-0.1,0.3-0.1,0.4
			c0,0.1-0.1,0.2-0.1,0.3c0,0.1,0.1,0,0.1,0.1c0.1,0.1,0,0.2,0,0.3C1,11.4,1.2,11.6,1.1,11.6z M1,0.3c0.1-0.2,0.2-0.4,0.4-0.6
			c0.1-0.1,0.2-0.2,0.2-0.2c0,0.1-0.1,0.2-0.2,0.3C1.4,0,1.2,0.2,1,0.3z M3.9,6.9c1-1.3,2.3-2.8,3.8-4.2c1.1-1.1,2.2-2,3.2-2.8
			C10.1,0.6,9.4,1.3,8.6,2C7,3.7,5.4,5.3,3.9,6.9z M8.8,2.7c0.8-0.8,1.6-1.5,2.4-2c-0.4,0.5-0.9,1-1.4,1.6C8.6,3.5,7.5,4.6,6.4,5.6
			C7,4.7,7.8,3.7,8.8,2.7z M10.6,4.5c1.1-0.9,2.2-1.8,3.2-2.6c-0.7,0.7-1.4,1.4-2.2,2.1C10,5.4,8.5,6.7,7,7.8
			C8.1,6.7,9.3,5.6,10.6,4.5z M12.3,4.6C10.7,6,9.2,7.3,7.7,8.4c1.1-1.1,2.3-2.2,3.6-3.4c1.1-0.9,2.2-1.8,3.2-2.6
			C13.8,3.2,13.1,3.9,12.3,4.6z M18.1,3.1c-0.7,0.7-1.4,1.4-2.2,2.1c-1.6,1.4-3.1,2.7-4.6,3.8c1.1-1.1,2.3-2.2,3.6-3.4
			C15.9,4.7,17,3.9,18.1,3.1z M8.6,10.8c1.4-1.7,3.1-3.5,5.1-5.3c0.9-0.8,1.8-1.5,2.6-2.2c-1,1-1.9,1.9-2.9,2.9
			C11.8,7.8,10.2,9.3,8.6,10.8z M9,12.4c1.6-1.5,3.2-3.1,5-4.7c1.4-1.3,2.8-2.4,4.2-3.5c-1.1,1.1-2.3,2.1-3.4,3.2
			C12.8,9.2,10.9,10.8,9,12.4z M9.2,13.5c1.1-1.3,2.5-2.7,4.1-4.1c1.4-1.2,2.7-2.2,4-3c-1.1,1-2.2,1.9-3.3,2.9
			C12.4,10.7,10.8,12.1,9.2,13.5z M17.3,7.7c-1.2,1.1-2.4,2.1-3.6,3c0.2-0.2,0.4-0.4,0.6-0.6c0.8-0.7,1.5-1.4,2.2-2.1
			c-0.1,0.1-0.2,0.1-0.3,0.2c-0.1,0-0.1,0.1-0.2,0.2c-1.3,1.1-2.4,2.2-3.5,3.3c-0.9,0.8-1.8,1.5-2.7,2.1c1.1-1.1,2.3-2.2,3.6-3.4
			c1-0.9,2-1.7,2.9-2.4c1-0.9,2.1-1.7,3-2.5C18.8,6.3,18.1,7,17.3,7.7z"/>
	</defs>
	<clipPath id="SVGID_2_">
		<use xlink:href="#SVGID_1_"  style="overflow:visible;"/>
	</clipPath>
	<path class="st0" d="M13,3.2c0.5,0.1,1,0.4,1.3,0.8c0.2,0.2,0.5,0.6,0.5,0.7c0,0-0.9,0.7-1.5,1c0,0-0.1-0.1-0.2-0.2
		c-0.3-0.4-0.6-0.6-1-0.6c-0.6,0-1.1,0.3-1.1,0.9c0,0.2,0,0.3,0.1,0.4c0.1,0.3,0.4,0.5,1.2,0.8C14,7.6,14.7,8,15.1,8.7
		c0.5,0.7,0.6,1.8,0.2,2.6C15,12.2,14.1,12.8,13,13c-0.4,0.1-1.2,0.1-1.6,0c-0.9-0.2-1.7-0.6-2.2-1.1C9,11.6,8.6,11,8.6,11
		c0,0,0.1-0.1,0.2-0.1c0.1-0.1,0.5-0.3,0.8-0.5l0.6-0.4l0.1,0.2c0.2,0.3,0.6,0.7,0.8,0.8c0.7,0.4,1.6,0.3,2.1-0.1
		c0.2-0.2,0.3-0.4,0.3-0.6c0-0.2,0-0.4-0.2-0.5c-0.2-0.2-0.5-0.4-1.5-0.9c-1.1-0.5-1.6-0.8-2-1.2C9.6,7.4,9.4,6.9,9.3,6.6
		c-0.1-0.3-0.1-1.1,0-1.4c0.2-1.1,1-1.8,2.2-2C11.8,3.1,12.7,3.1,13,3.2L13,3.2z"/>
	<path class="st0" d="M8,4.1L8,5H6.6H5.3v4v4h-1h-1v-4V5H1.9H0.5V4.1c0-0.5,0-0.9,0-0.9c0,0,1.7,0,3.8,0l3.7,0L8,4.1z"/>
</g>
</svg>
