<?xml version="1.0" encoding="utf-8"?>
<!-- Generator: Adobe Illustrator 23.0.0, SVG Export Plug-In . SVG Version: 6.00 Build 0)  -->
<svg version="1.1" id="Layer_1" xmlns="http://www.w3.org/2000/svg" xmlns:xlink="http://www.w3.org/1999/xlink" x="0px" y="0px"
	 viewBox="0 0 16 16" style="enable-background:new 0 0 16 16;" xml:space="preserve">
<style type="text/css">
	.st0{clip-path:url(#SVGID_2_);}
	.st1{fill:#F75049;}
</style>
<g>
	<defs>
		<path id="SVGID_1_" d="M23.1,5.4c-0.1-0.2-0.4,0-0.7-0.3c-0.2-0.2-0.2-0.4-0.3-0.5c-0.4-0.3-1.5,0.6-1.5,0.5c0,0,0.4-0.3,0.8-0.8
			c0.3-0.3,0.7-0.8,0.6-1.2c-0.1-0.2-0.3-0.2-0.4-0.4c0-0.3,0.5-0.5,0.5-0.8c0-0.2-0.2-0.3-0.3-0.4c-0.4-0.1-0.9,0.3-0.9,0.2
			c0,0,0.3-0.2,0.5-0.6c0-0.1,0.2-0.4,0.1-0.5c-0.1-0.1-0.3-0.1-0.4-0.1c-0.1,0-0.2,0.1-0.3,0.1c0,0,0-0.1,0-0.2
			c0-0.2-0.4-0.3-0.6-0.3c-0.6-0.1-1.1,0.5-1.2,0.5c-0.1-0.1,0.6-0.6,0.4-1c-0.1-0.2-0.2-0.3-0.4-0.3c-0.3,0-0.5,0.4-0.6,0.3
			c-0.2-0.1,0.1-0.8-0.1-1c-0.2-0.1-0.3,0.1-0.6,0c-0.2-0.1-0.2-0.2-0.3-0.2c-0.4-0.1-0.9,0.5-1.5,1c-0.3,0.2-0.7,0.6-1.3,0.9
			c0.3-0.4,0.6-0.7,0.7-0.9c0.5-0.5,0.7-0.7,0.7-1.1c0-0.1,0-0.4-0.2-0.5c-0.2-0.1-0.4,0.2-1.2,0.7c-0.2,0.1-0.4,0.2-0.5,0.3
			c0,0,0.4-0.4,0.2-0.8c0,0-0.1-0.2-0.2-0.3c-0.5-0.4-1.3-0.2-1.4-0.2c-1,0.2-1.2,0.9-2.5,1.5c0,0-0.2,0.1-0.4,0.2
			C9.4-0.2,9.2-0.1,9.1,0C8.8,0.2,8.5,0.3,8.4,0.6C8.3,0.9,8.3,1.1,8.2,1.3C8,1.5,7.8,1.5,7.8,1.5C7.1,1.7,6.2,2.9,6.1,3
			c-0.5,0.6-2,2.2-6,5.8c5.4-5.7,7.1-7.5,7.2-7.7c0,0,0,0,0,0c0-0.1,0.2-0.5,0-0.6C7.3,0.4,7.1,0.5,7,0.3c0,0-0.1-0.1,0-0.2
			c0-0.2,0.5-0.3,0.5-0.4c0,0-0.1-0.1-0.2-0.1C6.9-0.5,6.9-0.6,6.7-0.6C6.5-0.7,6.2-0.5,6-0.4C5.7-0.3,5.6-0.1,5.5-0.2
			c-0.1,0,0-0.2,0-0.3C5.4-0.6,5.2-0.6,5.2-0.6c-0.4,0-0.6,0.3-0.7,0.3c-0.1-0.1,0-0.2-0.1-0.3C4.3-0.8,4.1-0.8,3.9-0.9
			C3.7-1.1,3.8-1.2,3.6-1.5C3.5-1.6,3.4-1.8,3.1-1.9C2.9-2,2.8-1.9,2.5-2C2.2-2.1,2.2-2.3,2-2.3c-0.2,0-0.3,0-0.5,0.1
			C1.2-2,1.2-1.8,1-1.8C0.8-1.8,0.7-2,0.4-2.1c-0.1,0-0.2,0-0.3,0c-0.1,0.1,0,0.4-0.1,0.6c-0.1,0.1-0.2,0.1-0.3,0
			c-0.1-0.1-0.1-0.2-0.2-0.2C-0.7-2-1.8-1.7-2.1-1.1c-0.1,0.1-0.1,0.3-0.3,0.3c-0.2,0.1-0.3,0-0.5,0c-0.3,0-0.5,0.3-1.3,1.1
			c0,0-0.1,0.2-0.6,0.7C-5.8,2.3-6,2.4-6,2.8C-6,3.3-6,3.6-6,3.6c0,0.1,0.1,0.3,0,0.4C-6,4.1-6.1,4-6.1,4.1c-0.1,0.1,0.1,0.4,0,0.9
			c0,0,0,0-0.1,0.3c-0.1,0.6-0.1,0.7,0,0.8C-6.1,6.2-6,6.2-5.9,6.2c0.2,0,0.3-0.1,0.4-0.1c0.4-0.5,0.9-1,1.3-1.6
			c-0.2,0.4-0.4,0.6-0.5,0.8C-4.9,5.6-5,5.8-5.2,6.1c-0.1,0.1-0.1,0.2-0.2,0.4c-0.1,0.3-0.2,0.6-0.1,0.9c0.1,0.1,0.1,0.2,0.2,0.3
			c0,0.2-0.1,0.3,0,0.5c0.1,0.1,0.1,0.1,0.2,0.1c0.1,0.2,0,0.3,0,0.7C-5.1,9.2-5,9.2-5,9.4c0.1,0.3-0.1,0.4,0,0.8
			c0,0.2,0,0.3,0.1,0.3c0.2,0.1,0.4-0.1,0.6,0.1c0.2,0.1,0.1,0.4,0.3,0.4c0.1,0,0.2-0.1,0.5,0c0,0,0.3,0,0.4,0.2
			c0,0.1-0.1,0.3-0.3,0.4c-0.4,0.2-0.9-0.1-1,0c0,0.1,0.1,0.2,0.3,0.3c1.1,1.1,1.1,1.1,1.5,1.4c0.4,0.2,0.3,0.1,0.8,0.4
			c0.6,0.3,1.2,0.7,1.3,1.2c0,0.3-0.2,0.3-0.2,0.7c0,0.3,0.1,0.6,0.4,0.7c0.2,0.1,0.3-0.1,0.7-0.1c0.4,0,0.4,0.3,0.7,0.3
			c0.4,0,0.6-0.5,0.9-0.4c0.2,0,0.2,0.2,0.5,0.3c0.2,0.1,0.5,0,0.6,0c1.2-1.2,3-3.1,5.3-5.5c1.9-2,2.4-2.5,3.4-3.5
			c3-2.9,6.2-5.1,6.3-4.9c0.1,0.1-1.4,1.5-6.3,6.1c-3.4,3.2-6.2,5.9-8.1,7.8c0,0.4,0.1,0.5,0.2,0.6c0.2,0.2,0.6-0.2,0.9,0
			C4.8,16.8,5,17,5.1,17.3c0.1,0.2,0,0.3,0.1,0.5c0.1,0.1,0.1,0,0.2,0.1c0.2,0.2,0.1,0.4,0.3,0.5c0.2,0.2,0.4,0.1,0.5,0.2
			c0,0.1-0.1,0.2,0,0.3c0,0.2,0.2,0.2,0.2,0.3c0.1,0.2-0.3,0.3-0.4,0.7c-0.1,0.2,0.1,0.3,0.1,0.5c0,0.5-0.6,0.7-0.6,1.1
			c0,0.3,0.3,0.5,0.5,0.5c0.4,0.1,0.5-0.5,1-0.5c0.5,0,0.7,0.7,1.1,0.6c0.3,0,0.3-0.4,0.7-0.4c0.2,0,0.3,0.1,0.5,0
			c0.1-0.1,0.1-0.3,0.3-0.3c0.1,0,0.1,0,0.2,0c0.3,0,0.6-0.4,0.8-0.9c0.1-0.4,0-0.6,0.2-0.9c0.1-0.2,0.3-0.4,0.4-0.4
			c0.6-0.5,1.4-1.2,2.1-1.8c0.9-0.9,1-1.3,1.7-1.6c0.1,0,0.3-0.2,0.5-0.4c0.4-0.3,0.5-0.7,0.6-0.9c0.5-0.9,1-0.9,1.9-2.3
			c0-0.1,0.3-0.4,0.2-0.4c-0.1-0.1-1.3,1.3-1.6,1.1c-0.1-0.1-0.1-0.2-0.1-0.3c0.1-0.7,1-0.9,2.2-2c0.3-0.3,0.2-0.2,0.6-0.5
			c0.9-0.8,2-1.5,2.2-2c0.2-0.3,0.3-0.6,0.3-0.6c0-0.1,0-0.2,0.1-0.2c0.1-0.3,0.3-0.4,0.8-1C23,5.7,23.1,5.5,23.1,5.4z M3.6,4.5
			C3.3,5,2.9,5.3,2.6,5.5C2.7,5.2,3,4.8,3.5,4.4C3.6,4.3,3.8,4.2,4,4.1C3.9,4.2,3.8,4.4,3.6,4.5z M3.4,3.1C3.9,2.5,4.5,2,5,1.6
			C4.6,2.1,4.1,2.7,3.5,3.2c-0.4,0.4-0.7,0.7-1.1,1C2.7,3.9,3,3.5,3.4,3.1z M-3,3.1c0.1-0.2,0.3-0.5,0.5-0.7
			c0.1-0.1,0.2-0.2,0.3-0.2c-0.1,0.1-0.1,0.2-0.2,0.3C-2.6,2.7-2.8,2.9-3,3.1z M-2,12.4c-0.1,0.1-0.2,0.2-0.3,0.2c0,0,0-0.2,0.1-0.3
			c0.1-0.2,0.3-0.2,0.3-0.2C-1.9,12.1-1.9,12.3-2,12.4z M-2.4,7.1C-2,6.6-1.7,6.2-1.3,5.7c0,0.1,0,0.2,0,0.3C-1.6,6.4-2,6.8-2.4,7.1
			z M-0.4,14c0,0-0.2-0.2-0.6-0.7c-0.1-0.1-0.2-0.2-0.2-0.3c0-0.1,0.1-0.1,0.3-0.2c0.1-0.1,0.3-0.2,0.5-0.5c0,0.2-0.1,0.4-0.1,0.5
			c-0.1,0.1-0.1,0.2-0.1,0.3c0,0.1,0.1,0,0.2,0.1c0.1,0.1,0,0.2,0,0.3C-0.6,13.8-0.4,14-0.4,14z M-0.5,1C-0.4,0.8-0.3,0.6,0,0.3
			c0.1-0.1,0.2-0.2,0.3-0.2C0.2,0.2,0.1,0.3,0.1,0.4C-0.1,0.7-0.3,0.9-0.5,1z M2.7,8.6c1.2-1.5,2.7-3.2,4.4-4.9
			c1.3-1.2,2.5-2.3,3.6-3.2C9.9,1.4,9,2.2,8.2,3C6.3,4.9,4.4,6.8,2.7,8.6z M8.3,3.8C9.3,2.8,10.2,2,11,1.4C10.5,2,10,2.6,9.5,3.2
			C8.2,4.6,6.9,5.9,5.6,7.1C6.3,6.1,7.2,4.9,8.3,3.8z M10.4,5.8c1.3-1.1,2.5-2.1,3.7-3c-0.8,0.8-1.7,1.6-2.6,2.5
			C9.8,6.9,8,8.4,6.3,9.7C7.5,8.4,8.9,7.1,10.4,5.8z M12.4,6c-1.8,1.7-3.6,3.1-5.3,4.4c1.3-1.3,2.6-2.6,4.1-3.9
			c1.3-1.1,2.5-2.1,3.7-3C14.1,4.3,13.3,5.1,12.4,6z M19,4.2c-0.8,0.8-1.7,1.6-2.6,2.5c-1.8,1.7-3.6,3.1-5.3,4.4
			c1.3-1.3,2.6-2.5,4.1-3.9C16.6,6.1,17.8,5.1,19,4.2z M8.1,13.1c1.7-1.9,3.6-4,5.9-6c1-0.9,2-1.8,3-2.6c-1.1,1.1-2.2,2.2-3.3,3.3
			C11.8,9.6,10,11.3,8.1,13.1z M8.5,15c1.8-1.8,3.7-3.6,5.8-5.4c1.6-1.4,3.2-2.8,4.8-4.1c-1.3,1.2-2.6,2.4-3.9,3.7
			C12.9,11.2,10.7,13.1,8.5,15z M8.8,16.1c1.3-1.5,2.8-3.1,4.7-4.7c1.6-1.4,3.1-2.5,4.5-3.4c-1.2,1.1-2.5,2.2-3.7,3.3
			C12.5,12.9,10.7,14.5,8.8,16.1z M18.1,9.6C16.7,10.8,15.3,12,14,13c0.2-0.2,0.5-0.4,0.7-0.7c0.9-0.8,1.8-1.6,2.6-2.5
			c-0.1,0.1-0.2,0.2-0.3,0.3c-0.1,0.1-0.1,0.1-0.2,0.2c-1.5,1.3-2.8,2.5-4,3.7c-1,0.9-2.1,1.7-3.1,2.5c1.3-1.3,2.6-2.5,4.1-3.9
			c1.1-1,2.3-1.9,3.3-2.7c1.2-1,2.4-2,3.5-2.8C19.8,7.9,19,8.7,18.1,9.6z"/>
	</defs>
	<clipPath id="SVGID_2_">
		<use xlink:href="#SVGID_1_"  style="overflow:visible;"/>
	</clipPath>
	<g transform="translate(0,-292.76665)" class="st0">
		<path class="st1" d="M0,295l6.5-0.9l0,6.3l-6.5,0L0,295z M6.5,301.2l0,6.3L0,306.6l0-5.4L6.5,301.2z M7.3,294l8.7-1.3v7.6
			l-8.7,0.1V294z M16,301.2l0,7.6l-8.7-1.2l0-6.4L16,301.2z"/>
	</g>
</g>
</svg>
