<?xml version="1.0" encoding="utf-8"?>
<!-- Generator: Adobe Illustrator 23.0.0, SVG Export Plug-In . SVG Version: 6.00 Build 0)  -->
<svg version="1.1" id="Layer_1" xmlns="http://www.w3.org/2000/svg" xmlns:xlink="http://www.w3.org/1999/xlink" x="0px" y="0px"
	 viewBox="0 0 16 16" style="enable-background:new 0 0 16 16;" xml:space="preserve">
<style type="text/css">
	.st0{clip-path:url(#SVGID_2_);fill:#F75049;}
</style>
<g>
	<defs>
		<path id="SVGID_1_" d="M22,6.5c-0.1-0.1-0.3,0-0.6-0.2c-0.2-0.2-0.2-0.3-0.3-0.4c-0.4-0.2-1.3,0.5-1.3,0.5c0,0,0.4-0.3,0.7-0.7
			c0.2-0.2,0.6-0.7,0.5-1c-0.1-0.2-0.3-0.2-0.3-0.3c0-0.3,0.5-0.4,0.4-0.7c0-0.2-0.2-0.3-0.3-0.3c-0.3-0.1-0.8,0.2-0.8,0.2
			c0,0,0.3-0.2,0.4-0.5c0-0.1,0.2-0.3,0.1-0.5c-0.1-0.1-0.3-0.1-0.4-0.1c-0.1,0-0.2,0.1-0.2,0c0,0,0-0.1,0-0.2
			c0-0.2-0.3-0.3-0.6-0.3c-0.5,0-0.9,0.5-1,0.4c-0.1-0.1,0.5-0.5,0.4-0.9c0-0.1-0.2-0.3-0.4-0.3c-0.3,0-0.4,0.3-0.5,0.3
			c-0.1-0.1,0.1-0.7-0.1-0.9c-0.1-0.1-0.3,0.1-0.6,0c-0.2-0.1-0.2-0.1-0.3-0.2c-0.3-0.1-0.8,0.4-1.3,0.9c-0.2,0.2-0.6,0.5-1.1,0.8
			c0.3-0.3,0.5-0.6,0.7-0.7c0.4-0.4,0.6-0.6,0.6-0.9c0-0.1,0-0.4-0.2-0.4c-0.2-0.1-0.4,0.2-1.1,0.6c-0.2,0.1-0.3,0.2-0.4,0.3
			c0,0,0.3-0.4,0.2-0.7c0,0-0.1-0.2-0.2-0.3c-0.4-0.3-1.1-0.2-1.2-0.2c-0.9,0.2-1.1,0.8-2.1,1.3c0,0-0.1,0.1-0.3,0.2
			c-0.4,0.2-0.6,0.3-0.7,0.4C9.5,1.9,9.3,2,9.2,2.3C9.1,2.6,9.2,2.7,9,2.9C8.9,3,8.7,3.1,8.7,3.1C8.1,3.2,7.3,4.3,7.2,4.4
			C6.8,5,5.5,6.3,2,9.5c4.7-5,6.2-6.6,6.2-6.7c0,0,0,0,0,0c0-0.1,0.2-0.4,0-0.6C8.2,2.1,8.1,2.2,8,2.1C8,2,8,2,8,1.9
			c0-0.2,0.4-0.2,0.4-0.3c0,0-0.1-0.1-0.2-0.1C7.9,1.4,7.9,1.3,7.8,1.2C7.5,1.2,7.3,1.3,7.1,1.4C6.9,1.5,6.8,1.6,6.7,1.6
			c0,0,0-0.2,0-0.3C6.6,1.2,6.5,1.2,6.4,1.3C6,1.3,5.9,1.5,5.8,1.5c-0.1,0,0-0.2-0.1-0.3C5.6,1,5.5,1.1,5.3,1C5.1,0.8,5.2,0.7,5,0.4
			C5,0.3,4.8,0.2,4.6,0.1C4.4,0,4.3,0.1,4.1,0C3.8,0,3.8-0.2,3.6-0.2c-0.2,0-0.3,0-0.4,0.1C2.9,0,2.9,0.2,2.7,0.2
			C2.6,0.2,2.5,0,2.2-0.1c-0.1,0-0.2,0-0.3,0C1.8,0.1,2,0.3,1.8,0.4c-0.1,0.1-0.2,0.1-0.3,0C1.5,0.4,1.5,0.3,1.4,0.2
			C1.2,0,0.3,0.3,0,0.8c0,0.1-0.1,0.2-0.2,0.3c-0.2,0.1-0.3,0-0.5,0c-0.3,0-0.5,0.2-1.1,1c0,0-0.1,0.1-0.6,0.6c-0.9,1-1,1.1-1.1,1.4
			c0,0.5,0,0.7,0,0.7c0,0.1,0.1,0.3,0,0.4c-0.1,0.1-0.1,0-0.2,0.1c-0.1,0.1,0.1,0.4,0,0.8c0,0,0,0,0,0.3c-0.1,0.5-0.1,0.6,0,0.7
			c0.1,0.1,0.2,0.1,0.3,0.1C-3.1,7.1-3,7.1-2.9,7c0.4-0.5,0.8-0.9,1.1-1.4C-1.9,6-2.1,6.2-2.2,6.4c-0.2,0.2-0.3,0.4-0.5,0.7
			c0,0.1-0.1,0.2-0.2,0.4C-2.9,7.7-3,8-2.9,8.2c0,0.1,0.1,0.2,0.1,0.3c0,0.2,0,0.3,0,0.4C-2.7,9-2.6,9-2.6,9.1c0.1,0.1,0,0.3,0,0.6
			c0,0.2,0.1,0.1,0.1,0.3c0.1,0.3-0.1,0.4,0,0.7c0,0.1,0,0.2,0.1,0.3c0.1,0.1,0.4-0.1,0.6,0c0.2,0.1,0.1,0.3,0.3,0.4
			c0.1,0,0.2-0.1,0.4,0c0,0,0.3,0,0.3,0.1c0,0.1-0.1,0.3-0.3,0.4c-0.4,0.2-0.8-0.1-0.9,0c0,0.1,0.1,0.2,0.2,0.3c1,0.9,1,1,1.3,1.2
			c0.3,0.2,0.3,0.1,0.7,0.3c0.5,0.3,1.1,0.6,1.1,1c0,0.2-0.2,0.3-0.1,0.6c0,0.2,0.1,0.5,0.3,0.6c0.2,0.1,0.3-0.1,0.6-0.1
			c0.3,0,0.3,0.2,0.6,0.3c0.4,0,0.5-0.4,0.8-0.4c0.2,0,0.2,0.2,0.4,0.3c0.2,0.1,0.4,0,0.5,0c1-1.1,2.6-2.7,4.6-4.8
			c1.6-1.7,2.1-2.2,3-3.1c2.6-2.5,5.4-4.5,5.5-4.3c0.1,0.1-1.2,1.3-5.5,5.4c-3,2.8-5.4,5.2-7.1,6.8c0,0.3,0.1,0.5,0.2,0.5
			c0.2,0.1,0.5-0.2,0.8,0c0.1,0.1,0.3,0.2,0.3,0.4c0,0.2,0,0.3,0.1,0.4c0.1,0.1,0.1,0,0.2,0.1c0.2,0.2,0.1,0.3,0.3,0.5
			c0.2,0.1,0.4,0,0.4,0.2c0,0.1,0,0.1,0,0.3c0,0.1,0.2,0.1,0.2,0.3c0,0.2-0.3,0.3-0.3,0.6c0,0.2,0.1,0.2,0.1,0.5
			c0,0.5-0.6,0.6-0.5,0.9c0,0.2,0.2,0.4,0.4,0.5c0.3,0,0.5-0.4,0.8-0.4c0.4,0,0.6,0.6,0.9,0.5c0.3,0,0.3-0.4,0.6-0.4
			c0.2,0,0.3,0.1,0.4,0c0.1-0.1,0.1-0.2,0.3-0.3c0.1,0,0.1,0,0.2,0c0.2,0,0.6-0.4,0.7-0.8c0.1-0.4,0-0.5,0.2-0.8
			c0.1-0.2,0.3-0.3,0.4-0.4c0.5-0.4,1.2-1,1.8-1.6c0.8-0.8,0.9-1.1,1.5-1.4c0.1,0,0.3-0.1,0.5-0.3c0.3-0.3,0.4-0.6,0.6-0.8
			c0.4-0.8,0.8-0.8,1.7-2c0-0.1,0.2-0.3,0.2-0.4c-0.1-0.1-1.2,1.1-1.4,1c-0.1-0.1-0.1-0.2-0.1-0.2c0.1-0.6,0.8-0.8,1.9-1.7
			c0.3-0.2,0.2-0.2,0.5-0.5c0.8-0.7,1.7-1.3,2-1.7c0.1-0.3,0.2-0.6,0.2-0.6c0-0.1,0-0.1,0.1-0.2c0.1-0.3,0.2-0.4,0.7-0.9
			C22,6.7,22,6.6,22,6.5z M5.1,5.7C4.7,6.1,4.4,6.4,4.1,6.6C4.3,6.3,4.5,6,4.9,5.6c0.1-0.1,0.3-0.2,0.4-0.3C5.3,5.5,5.2,5.6,5.1,5.7
			z M4.8,4.5c0.5-0.5,1-1,1.4-1.4C5.9,3.6,5.5,4.1,5,4.6C4.6,4.9,4.3,5.2,4,5.4C4.3,5.1,4.5,4.8,4.8,4.5z M-0.7,4.5
			C-0.6,4.3-0.5,4-0.3,3.8c0.1-0.1,0.2-0.2,0.2-0.2c0,0.1-0.1,0.2-0.2,0.3C-0.4,4.1-0.6,4.3-0.7,4.5z M0.1,12.6
			c-0.1,0.1-0.2,0.2-0.3,0.2c0,0,0-0.2,0.1-0.3c0.1-0.1,0.3-0.2,0.3-0.2C0.2,12.4,0.2,12.5,0.1,12.6z M-0.2,8c0.3-0.4,0.7-0.8,1-1.2
			c0,0.1,0,0.2,0,0.3C0.5,7.4,0.1,7.7-0.2,8z M1.5,14c0,0-0.2-0.2-0.5-0.6c-0.1-0.1-0.2-0.2-0.2-0.3C0.9,13,1,13,1.1,12.9
			c0.1-0.1,0.3-0.2,0.4-0.5c0,0.2-0.1,0.3-0.1,0.4c0,0.1-0.1,0.2-0.1,0.3c0,0.1,0.1,0,0.1,0.1c0.1,0.1,0,0.2,0,0.3
			C1.4,13.8,1.6,14,1.5,14z M1.4,2.7C1.5,2.5,1.6,2.3,1.9,2C1.9,2,2,1.9,2.1,1.8C2,1.9,2,2,1.9,2.1C1.8,2.4,1.6,2.5,1.4,2.7z
			 M4.2,9.3c1-1.3,2.3-2.8,3.8-4.2c1.1-1.1,2.2-2,3.2-2.8C10.5,3,9.8,3.7,9,4.4C7.3,6,5.8,7.7,4.2,9.3z M9.2,5
			c0.8-0.8,1.6-1.5,2.4-2c-0.4,0.5-0.9,1-1.4,1.6C9,5.8,7.9,6.9,6.8,8C7.4,7.1,8.1,6.1,9.2,5z M11,6.8c1.1-0.9,2.2-1.8,3.2-2.6
			c-0.7,0.7-1.4,1.4-2.2,2.1c-1.6,1.4-3.1,2.7-4.6,3.8C8.5,9.1,9.7,8,11,6.8z M12.7,7c-1.6,1.4-3.1,2.7-4.6,3.8
			c1.1-1.1,2.3-2.2,3.6-3.4c1.1-0.9,2.2-1.8,3.2-2.6C14.2,5.5,13.5,6.2,12.7,7z M18.4,5.4c-0.7,0.7-1.4,1.4-2.2,2.1
			c-1.6,1.4-3.1,2.7-4.6,3.8c1.1-1.1,2.3-2.2,3.6-3.4C16.3,7.1,17.4,6.2,18.4,5.4z M9,13.2c1.4-1.7,3.1-3.5,5.1-5.3
			c0.9-0.8,1.8-1.5,2.6-2.2c-1,1-1.9,1.9-2.9,2.9C12.2,10.1,10.6,11.6,9,13.2z M9.3,14.8c1.6-1.5,3.2-3.1,5-4.7
			c1.4-1.3,2.8-2.4,4.2-3.5c-1.1,1.1-2.3,2.1-3.4,3.2C13.2,11.5,11.2,13.2,9.3,14.8z M9.6,15.8c1.1-1.3,2.5-2.7,4.1-4.1
			c1.4-1.2,2.7-2.2,4-3c-1.1,1-2.2,1.9-3.3,2.9C12.8,13,11.2,14.4,9.6,15.8z M17.6,10.1c-1.2,1.1-2.4,2.1-3.6,3
			c0.2-0.2,0.4-0.4,0.6-0.6c0.8-0.7,1.5-1.4,2.2-2.1c-0.1,0.1-0.2,0.1-0.3,0.2c-0.1,0-0.1,0.1-0.2,0.2C15.2,11.9,14,13,13,14.1
			c-0.9,0.8-1.8,1.5-2.7,2.1c1.1-1.1,2.3-2.2,3.6-3.4c1-0.9,2-1.7,2.9-2.4c1-0.9,2.1-1.7,3-2.5C19.2,8.7,18.4,9.4,17.6,10.1z"/>
	</defs>
	<clipPath id="SVGID_2_">
		<use xlink:href="#SVGID_1_"  style="overflow:visible;"/>
	</clipPath>
	<path class="st0" d="M13.6,0H0c0,5.9,0,10.4,0,16h16V2.6C15.2,1.7,14.4,0.8,13.6,0z M4.3,0.6h7.4v4.9H4.3V0.6z M13.5,15.4H2.5V8
		h11.1V15.4z M8,4.9h2.5V1.2H8V4.9z"/>
	<rect x="8" y="1.2" class="st0" width="2.5" height="3.7"/>
	<rect x="8" y="1.2" class="st0" width="2.5" height="3.7"/>
</g>
</svg>
