<?xml version="1.0" encoding="utf-8"?>
<!-- Generator: Adobe Illustrator 23.0.0, SVG Export Plug-In . SVG Version: 6.00 Build 0)  -->
<svg version="1.1" id="Layer_1" xmlns="http://www.w3.org/2000/svg" xmlns:xlink="http://www.w3.org/1999/xlink" x="0px" y="0px"
	 viewBox="0 0 16 16" style="enable-background:new 0 0 16 16;" xml:space="preserve">
<style type="text/css">
	.st0{clip-path:url(#SVGID_2_);}
	.st1{fill:#F75049;}
</style>
<g>
	<defs>
		<path id="SVGID_1_" d="M23.1,4.9c-0.1-0.2-0.4,0-0.7-0.3c-0.2-0.2-0.2-0.4-0.3-0.5c-0.4-0.3-1.5,0.6-1.5,0.5c0,0,0.4-0.3,0.8-0.8
			c0.3-0.3,0.7-0.8,0.6-1.1c-0.1-0.2-0.3-0.2-0.4-0.4c0-0.3,0.5-0.5,0.5-0.8c0-0.2-0.2-0.3-0.3-0.4C21.5,1,21,1.4,21,1.4
			c0,0,0.3-0.2,0.5-0.6c0-0.1,0.2-0.4,0.1-0.5c-0.1-0.1-0.3-0.1-0.4-0.1c-0.1,0-0.2,0.1-0.3,0.1c0,0,0-0.1,0-0.2
			c0-0.2-0.4-0.3-0.6-0.3c-0.6-0.1-1.1,0.5-1.2,0.5c-0.1-0.1,0.6-0.6,0.4-1C19.4-1,19.2-1.1,19-1.1c-0.3,0-0.5,0.4-0.6,0.3
			c-0.2-0.1,0.1-0.8-0.1-1c-0.1-0.1-0.3,0.1-0.6,0C17.5-1.9,17.5-2,17.4-2c-0.4-0.1-0.9,0.5-1.5,1c-0.3,0.2-0.7,0.6-1.3,0.9
			c0.3-0.4,0.6-0.7,0.7-0.9C15.8-1.4,16-1.6,16-1.9c0-0.1,0-0.4-0.2-0.5c-0.2-0.1-0.4,0.2-1.2,0.7c-0.2,0.1-0.4,0.2-0.5,0.3
			c0,0,0.4-0.4,0.2-0.8c0,0-0.1-0.2-0.2-0.3c-0.5-0.4-1.3-0.2-1.4-0.2c-1,0.2-1.2,0.9-2.4,1.5c0,0-0.2,0.1-0.4,0.2
			C9.5-0.8,9.3-0.6,9.2-0.6C8.9-0.4,8.7-0.2,8.6,0.1C8.4,0.4,8.5,0.6,8.3,0.8C8.2,0.9,8,1,7.9,1C7.2,1.2,6.4,2.3,6.3,2.5
			C5.8,3.1,4.3,4.7,0.3,8.3c5.4-5.7,7.1-7.5,7.1-7.7c0,0,0,0,0,0c0-0.1,0.2-0.5,0-0.6c-0.1-0.1-0.3,0-0.3-0.2c0,0-0.1-0.1,0-0.2
			c0-0.2,0.5-0.3,0.5-0.4c0,0-0.1-0.1-0.2-0.1C7-1,7.1-1.1,6.9-1.1C6.6-1.2,6.3-1,6.1-0.9C5.9-0.8,5.8-0.7,5.7-0.7
			c-0.1,0,0-0.2,0-0.3C5.6-1.1,5.4-1.1,5.3-1.1c-0.4,0-0.6,0.3-0.7,0.2C4.5-0.9,4.6-1,4.5-1.2C4.4-1.3,4.3-1.3,4.1-1.4
			C3.9-1.6,4-1.7,3.8-2C3.7-2.1,3.5-2.3,3.3-2.4C3-2.5,3-2.4,2.7-2.5C2.4-2.6,2.4-2.8,2.2-2.8c-0.2,0-0.3,0-0.5,0.1
			C1.3-2.5,1.3-2.4,1.2-2.3c-0.2,0-0.3-0.2-0.6-0.3c-0.1,0-0.2,0-0.3,0c-0.1,0.1,0,0.4-0.1,0.5C0-2-0.1-2-0.2-2
			c-0.1-0.1-0.1-0.2-0.2-0.2C-0.6-2.5-1.6-2.2-2-1.6C-2-1.5-2.1-1.3-2.2-1.2c-0.2,0.1-0.3,0-0.5,0C-3.1-1.2-3.3-1-4-0.1
			c0,0-0.1,0.2-0.6,0.7c-1,1.1-1.2,1.3-1.2,1.6C-5.8,2.8-5.8,3-5.8,3c0,0.1,0.1,0.3,0,0.4c-0.1,0.1-0.1,0-0.2,0.1
			c-0.1,0.1,0.1,0.4,0,0.9c0,0,0,0-0.1,0.3C-6,5.4-6.1,5.5-6,5.6c0.1,0.1,0.2,0.1,0.3,0.1c0.2,0,0.3-0.1,0.4-0.1
			C-4.9,5-4.4,4.5-4,3.9c-0.2,0.4-0.4,0.6-0.5,0.8C-4.7,5-4.8,5.2-5,5.6C-5.1,5.7-5.2,5.8-5.2,6c-0.1,0.3-0.2,0.6-0.1,0.9
			C-5.2,7-5.2,7.1-5.1,7.2c0,0.2-0.1,0.3,0,0.4C-5,7.8-5,7.7-4.9,7.8c0.1,0.2,0,0.3,0,0.7c0,0.2,0.1,0.1,0.1,0.3
			c0.1,0.3-0.1,0.4,0,0.8c0,0.2,0,0.2,0.1,0.3C-4.5,10.1-4.3,9.8-4,10c0.2,0.1,0.1,0.4,0.3,0.4c0.1,0,0.2-0.1,0.4,0
			c0,0,0.3,0,0.4,0.2c0,0.1-0.1,0.3-0.3,0.4c-0.4,0.2-0.9-0.1-1,0c0,0.1,0.1,0.2,0.2,0.3c1.1,1.1,1.1,1.1,1.5,1.4
			c0.4,0.2,0.3,0.1,0.8,0.4c0.6,0.3,1.2,0.7,1.2,1.2c0,0.3-0.2,0.3-0.2,0.7c0,0.2,0.1,0.6,0.4,0.7c0.2,0.1,0.3-0.1,0.7-0.1
			c0.4,0,0.4,0.3,0.7,0.3c0.4,0,0.6-0.5,0.9-0.4c0.2,0,0.2,0.2,0.4,0.3c0.2,0.1,0.5,0,0.6,0c1.2-1.2,3-3.1,5.3-5.5
			c1.9-2,2.4-2.5,3.4-3.5c3-2.9,6.2-5.1,6.3-4.9c0.1,0.1-1.3,1.4-6.3,6.1c-3.4,3.2-6.2,5.9-8.1,7.7c0,0.4,0.1,0.5,0.2,0.6
			c0.2,0.1,0.6-0.2,0.9,0c0.1,0.1,0.3,0.2,0.4,0.5c0.1,0.2,0,0.3,0.1,0.5c0.1,0.1,0.1,0,0.2,0.1c0.2,0.2,0.1,0.4,0.3,0.5
			C6,17.9,6.3,17.8,6.3,18c0,0.1-0.1,0.2,0,0.3c0,0.2,0.2,0.2,0.2,0.3c0.1,0.2-0.3,0.3-0.4,0.7c-0.1,0.2,0.1,0.3,0.1,0.5
			c0,0.5-0.6,0.7-0.6,1.1c0,0.3,0.3,0.5,0.5,0.5c0.4,0.1,0.5-0.5,1-0.5c0.5,0,0.7,0.7,1.1,0.6c0.3,0,0.3-0.4,0.7-0.4
			c0.2,0,0.3,0.1,0.5,0c0.1-0.1,0.1-0.3,0.3-0.3c0.1,0,0.1,0,0.2,0c0.3,0,0.6-0.4,0.8-0.9c0.1-0.4,0-0.6,0.2-0.9
			c0.1-0.2,0.3-0.4,0.4-0.4c0.6-0.4,1.4-1.1,2.1-1.8c0.9-0.9,1-1.3,1.7-1.6c0.1,0,0.3-0.1,0.5-0.4c0.4-0.3,0.5-0.7,0.6-0.9
			c0.5-0.9,1-0.9,1.9-2.3c0-0.1,0.3-0.4,0.2-0.4c-0.1-0.1-1.3,1.3-1.6,1.1c-0.1-0.1-0.1-0.2-0.1-0.3c0.1-0.7,0.9-0.9,2.2-1.9
			c0.3-0.3,0.2-0.2,0.6-0.5c0.9-0.8,2-1.5,2.2-2c0.2-0.3,0.3-0.6,0.3-0.6c0-0.1,0-0.2,0.1-0.2c0.1-0.3,0.3-0.4,0.8-1
			C23.1,5.1,23.2,5,23.1,4.9z M3.8,4C3.4,4.4,3.1,4.8,2.7,5c0.2-0.3,0.5-0.7,0.9-1.1C3.8,3.8,4,3.6,4.1,3.5C4,3.7,3.9,3.8,3.8,4z
			 M3.5,2.6C4.1,2,4.6,1.5,5.1,1C4.7,1.6,4.3,2.1,3.7,2.7C3.3,3.1,3,3.4,2.6,3.7C2.9,3.3,3.2,3,3.5,2.6z M-2.8,2.6
			c0.1-0.2,0.3-0.5,0.5-0.7C-2.2,1.7-2.1,1.7-2,1.6c-0.1,0.1-0.1,0.2-0.2,0.3C-2.4,2.2-2.6,2.4-2.8,2.6z M-1.8,11.9
			C-2,12-2.1,12-2.1,12.1c0,0,0-0.2,0.1-0.3c0.1-0.2,0.3-0.2,0.3-0.2C-1.7,11.6-1.7,11.7-1.8,11.9z M-2.2,6.5
			c0.4-0.5,0.7-0.9,1.1-1.4c0,0.1,0,0.2,0,0.3C-1.4,5.9-1.8,6.2-2.2,6.5z M-0.2,13.4c0,0-0.2-0.2-0.6-0.7C-0.9,12.6-1,12.5-1,12.4
			c0-0.1,0.1-0.1,0.2-0.2c0.1-0.1,0.3-0.2,0.5-0.5c0,0.2-0.1,0.4-0.1,0.5c-0.1,0.1-0.1,0.2-0.1,0.3c0,0.1,0.1,0,0.1,0.1
			c0.1,0.1,0,0.2,0,0.3C-0.4,13.2-0.2,13.4-0.2,13.4z M-0.3,0.5C-0.2,0.3-0.1,0,0.1-0.2c0.1-0.1,0.2-0.2,0.3-0.2
			C0.4-0.3,0.3-0.2,0.2-0.1C0,0.2-0.2,0.4-0.3,0.5z M2.9,8.1c1.2-1.5,2.6-3.2,4.4-4.8C8.5,2,9.7,1,10.8,0C10,0.8,9.2,1.7,8.3,2.5
			C6.4,4.4,4.6,6.2,2.9,8.1z M8.5,3.2c0.9-0.9,1.9-1.7,2.7-2.3c-0.5,0.6-1,1.2-1.6,1.8C8.3,4.1,7,5.4,5.7,6.5
			C6.4,5.5,7.3,4.4,8.5,3.2z M10.6,5.3c1.2-1.1,2.5-2.1,3.7-3c-0.8,0.8-1.6,1.6-2.5,2.5C9.9,6.4,8.1,7.8,6.4,9.1
			C7.7,7.9,9.1,6.6,10.6,5.3z M12.5,5.4c-1.8,1.6-3.6,3.1-5.3,4.4C8.5,8.5,9.9,7.3,11.4,6c1.2-1.1,2.5-2.1,3.7-3
			C14.2,3.8,13.4,4.6,12.5,5.4z M19.1,3.6c-0.8,0.8-1.6,1.6-2.5,2.5c-1.8,1.6-3.6,3.1-5.3,4.4c1.3-1.2,2.6-2.5,4.1-3.8
			C16.7,5.6,17.9,4.6,19.1,3.6z M8.2,12.5c1.7-1.9,3.6-4,5.8-6c1-0.9,2-1.8,3-2.5C16,5,14.9,6.2,13.8,7.3C11.9,9,10.1,10.8,8.2,12.5
			z M8.7,14.4c1.8-1.8,3.7-3.6,5.8-5.4c1.6-1.4,3.2-2.8,4.8-4c-1.3,1.2-2.6,2.4-3.9,3.6C13.1,10.6,10.8,12.5,8.7,14.4z M9,15.5
			c1.2-1.5,2.8-3.1,4.7-4.7c1.6-1.4,3.1-2.5,4.5-3.4c-1.2,1.1-2.5,2.2-3.7,3.3C12.6,12.3,10.8,13.9,9,15.5z M18.2,9
			c-1.4,1.3-2.7,2.4-4.1,3.5c0.2-0.2,0.5-0.4,0.7-0.7c0.9-0.8,1.7-1.6,2.5-2.5c-0.1,0.1-0.2,0.2-0.3,0.3c-0.1,0.1-0.1,0.1-0.2,0.2
			c-1.5,1.3-2.8,2.5-4,3.7c-1,0.9-2.1,1.7-3.1,2.4c1.3-1.2,2.6-2.5,4.1-3.8c1.1-1,2.2-1.9,3.3-2.7c1.2-1,2.3-2,3.5-2.8
			C19.9,7.4,19.1,8.2,18.2,9z"/>
	</defs>
	<clipPath id="SVGID_2_">
		<use xlink:href="#SVGID_1_"  style="overflow:visible;"/>
	</clipPath>
	<g transform="translate(-272,-160)" class="st0">
		<path class="st1" d="M280,165c-1.7,0-3,1.3-3,3s1.3,3,3,3s3-1.3,3-3S281.7,165,280,165z M280,169.5c-0.8,0-1.5-0.7-1.5-1.5
			s0.7-1.5,1.5-1.5s1.5,0.7,1.5,1.5S280.8,169.5,280,169.5z"/>
		<path class="st1" d="M280,160c-4.4,0-8,3.6-8,8s3.6,8,8,8s8-3.6,8-8S284.4,160,280,160z M280,175c-3.9,0-7-3.1-7-7s3.1-7,7-7
			s7,3.1,7,7S283.9,175,280,175z"/>
	</g>
</g>
</svg>
