<?xml version="1.0" encoding="utf-8"?>
<!-- Generator: Adobe Illustrator 23.0.0, SVG Export Plug-In . SVG Version: 6.00 Build 0)  -->
<svg version="1.1" id="Layer_1" xmlns="http://www.w3.org/2000/svg" xmlns:xlink="http://www.w3.org/1999/xlink" x="0px" y="0px"
	 viewBox="0 0 16 16" style="enable-background:new 0 0 16 16;" xml:space="preserve">
<style type="text/css">
	.st0{clip-path:url(#SVGID_2_);fill:#F75049;}
</style>
<g>
	<defs>
		<path id="SVGID_1_" d="M21.6,5.2c-0.1-0.1-0.3,0-0.6-0.2c-0.2-0.2-0.2-0.3-0.3-0.4c-0.4-0.2-1.3,0.5-1.3,0.5c0,0,0.4-0.3,0.7-0.7
			c0.2-0.2,0.6-0.7,0.5-1c-0.1-0.2-0.3-0.2-0.3-0.3c0-0.3,0.5-0.4,0.4-0.7c0-0.2-0.2-0.3-0.3-0.3c-0.3-0.1-0.8,0.2-0.8,0.2
			c0,0,0.3-0.2,0.4-0.5c0-0.1,0.2-0.3,0.1-0.5c-0.1-0.1-0.3-0.1-0.4-0.1c-0.1,0-0.2,0.1-0.2,0c0,0,0-0.1,0-0.2
			c0-0.2-0.3-0.3-0.6-0.3c-0.5,0-0.9,0.5-1,0.4c-0.1-0.1,0.5-0.5,0.4-0.9C18.3,0.1,18.2,0,18,0c-0.3,0-0.4,0.3-0.5,0.3
			c-0.1-0.1,0.1-0.7-0.1-0.9c-0.1-0.1-0.3,0.1-0.6,0c-0.2-0.1-0.2-0.1-0.3-0.2c-0.3-0.1-0.8,0.4-1.3,0.9c-0.2,0.2-0.6,0.5-1.1,0.8
			c0.3-0.3,0.5-0.6,0.7-0.7c0.4-0.4,0.6-0.6,0.6-0.9c0-0.1,0-0.4-0.2-0.4c-0.2-0.1-0.4,0.2-1.1,0.6c-0.2,0.1-0.3,0.2-0.4,0.3
			c0,0,0.3-0.4,0.2-0.7c0,0-0.1-0.2-0.2-0.3c-0.4-0.3-1.1-0.2-1.2-0.2c-0.9,0.2-1.1,0.8-2.1,1.3c0,0-0.1,0.1-0.3,0.2
			C9.7,0.3,9.5,0.4,9.4,0.5C9.2,0.7,9,0.8,8.8,1.1C8.7,1.3,8.8,1.5,8.6,1.7C8.5,1.8,8.3,1.8,8.3,1.8C7.7,2,7,3,6.9,3.2
			C6.5,3.7,5.2,5.1,1.7,8.2c4.7-5,6.2-6.6,6.2-6.7c0,0,0,0,0,0c0-0.1,0.2-0.4,0-0.6c-0.1-0.1-0.2,0-0.3-0.1c0,0,0-0.1,0-0.1
			C7.6,0.5,8,0.4,8,0.3c0,0-0.1-0.1-0.2-0.1C7.5,0.1,7.5,0,7.4,0C7.1-0.1,6.9,0.1,6.7,0.2C6.5,0.3,6.4,0.4,6.3,0.4c0,0,0-0.2,0-0.3
			C6.2,0,6.1,0,6,0C5.7,0,5.5,0.3,5.4,0.2c-0.1,0,0-0.2-0.1-0.3C5.2-0.2,5.1-0.2,5-0.3C4.8-0.4,4.8-0.5,4.6-0.8
			C4.6-0.9,4.5-1.1,4.2-1.1C4-1.2,4-1.1,3.7-1.2C3.5-1.3,3.5-1.4,3.2-1.5c-0.2,0-0.3,0-0.4,0.1C2.5-1.2,2.5-1.1,2.4-1.1
			c-0.2,0-0.2-0.2-0.5-0.2c-0.1,0-0.2,0-0.3,0c-0.1,0.1,0,0.4-0.1,0.5c-0.1,0.1-0.2,0.1-0.3,0C1.1-0.9,1.1-1,1.1-1
			C0.9-1.2-0.1-1-0.4-0.4c0,0.1-0.1,0.2-0.2,0.3c-0.2,0.1-0.3,0-0.5,0c-0.3,0-0.5,0.2-1.1,1c0,0-0.1,0.1-0.6,0.6
			c-0.9,1-1,1.1-1.1,1.4c0,0.5,0,0.7,0,0.7c0,0.1,0.1,0.3,0,0.4c-0.1,0.1-0.1,0-0.2,0.1c-0.1,0.1,0.1,0.4,0,0.8c0,0,0,0,0,0.3
			c-0.1,0.5-0.1,0.6,0,0.7c0.1,0.1,0.2,0.1,0.3,0.1c0.2,0,0.3-0.1,0.4-0.1c0.4-0.5,0.8-0.9,1.1-1.4C-2.3,4.8-2.5,5-2.6,5.2
			c-0.2,0.2-0.3,0.4-0.5,0.7c0,0.1-0.1,0.2-0.2,0.4C-3.3,6.5-3.4,6.7-3.3,7c0,0.1,0.1,0.2,0.1,0.3c0,0.2,0,0.3,0,0.4
			C-3.1,7.8-3,7.7-3,7.8c0.1,0.1,0,0.3,0,0.6c0,0.2,0.1,0.1,0.1,0.3c0.1,0.3-0.1,0.4,0,0.7c0,0.1,0,0.2,0.1,0.3
			c0.1,0.1,0.4-0.1,0.6,0C-2,9.8-2.1,10-1.9,10.1c0.1,0,0.2-0.1,0.4,0c0,0,0.3,0,0.3,0.1c0,0.1-0.1,0.3-0.3,0.4
			c-0.4,0.2-0.8-0.1-0.9,0c0,0.1,0.1,0.2,0.2,0.3c1,0.9,1,1,1.3,1.2c0.3,0.2,0.3,0.1,0.7,0.3c0.5,0.3,1.1,0.6,1.1,1
			c0,0.2-0.2,0.3-0.1,0.6c0,0.2,0.1,0.5,0.3,0.6c0.2,0.1,0.3-0.1,0.6-0.1c0.3,0,0.3,0.2,0.6,0.3c0.4,0,0.5-0.4,0.8-0.4
			c0.2,0,0.2,0.2,0.4,0.3c0.2,0.1,0.4,0,0.5,0c1-1.1,2.6-2.7,4.6-4.8c1.6-1.7,2.1-2.2,3-3.1c2.6-2.5,5.4-4.5,5.5-4.3
			c0.1,0.1-1.2,1.3-5.5,5.4c-3,2.8-5.4,5.2-7.1,6.8c0,0.3,0.1,0.5,0.2,0.5c0.2,0.1,0.5-0.2,0.8,0c0.1,0.1,0.3,0.2,0.3,0.4
			c0,0.2,0,0.3,0.1,0.4c0.1,0.1,0.1,0,0.2,0.1c0.2,0.2,0.1,0.3,0.3,0.5c0.2,0.1,0.4,0,0.4,0.2c0,0.1,0,0.1,0,0.3
			c0,0.1,0.2,0.1,0.2,0.3c0,0.2-0.3,0.3-0.3,0.6c0,0.2,0.1,0.2,0.1,0.5c0,0.5-0.6,0.6-0.5,0.9c0,0.2,0.2,0.4,0.4,0.5
			c0.3,0,0.5-0.4,0.8-0.4c0.4,0,0.6,0.6,0.9,0.5c0.3,0,0.3-0.4,0.6-0.4c0.2,0,0.3,0.1,0.4,0c0.1-0.1,0.1-0.2,0.3-0.3
			c0.1,0,0.1,0,0.2,0c0.2,0,0.6-0.4,0.7-0.8c0.1-0.4,0-0.5,0.2-0.8c0.1-0.2,0.3-0.3,0.4-0.4c0.5-0.4,1.2-1,1.8-1.6
			c0.8-0.8,0.9-1.1,1.5-1.4c0.1,0,0.3-0.1,0.5-0.3c0.3-0.3,0.4-0.6,0.6-0.8c0.4-0.8,0.8-0.8,1.7-2c0-0.1,0.2-0.3,0.2-0.4
			c-0.1-0.1-1.2,1.1-1.4,1c-0.1-0.1-0.1-0.2-0.1-0.2c0.1-0.6,0.8-0.8,1.9-1.7c0.3-0.2,0.2-0.2,0.5-0.5c0.8-0.7,1.7-1.3,2-1.7
			C20.3,7.3,20.4,7,20.4,7c0-0.1,0-0.1,0.1-0.2c0.1-0.3,0.2-0.4,0.7-0.9C21.6,5.4,21.7,5.3,21.6,5.2z M4.7,4.5
			C4.4,4.9,4,5.1,3.7,5.3c0.2-0.3,0.4-0.6,0.8-0.9C4.7,4.3,4.8,4.2,5,4.1C4.9,4.2,4.8,4.3,4.7,4.5z M4.4,3.3c0.5-0.5,1-1,1.4-1.4
			c-0.3,0.5-0.8,1-1.3,1.5C4.3,3.7,4,3.9,3.7,4.2C3.9,3.9,4.2,3.6,4.4,3.3z M-1.1,3.2C-1,3-0.9,2.8-0.7,2.6c0.1-0.1,0.2-0.2,0.2-0.2
			c0,0.1-0.1,0.2-0.2,0.3C-0.8,2.9-1,3.1-1.1,3.2z M-0.3,11.4c-0.1,0.1-0.2,0.2-0.3,0.2c0,0,0-0.2,0.1-0.3c0.1-0.1,0.3-0.2,0.3-0.2
			C-0.1,11.1-0.2,11.2-0.3,11.4z M-0.6,6.7c0.3-0.4,0.7-0.8,1-1.2c0,0.1,0,0.2,0,0.3C0.1,6.1-0.3,6.4-0.6,6.7z M1.1,12.7
			c0,0-0.2-0.2-0.5-0.6c-0.1-0.1-0.2-0.2-0.2-0.3c0-0.1,0.1-0.1,0.2-0.2c0.1-0.1,0.3-0.2,0.4-0.5c0,0.2-0.1,0.3-0.1,0.4
			c0,0.1-0.1,0.2-0.1,0.3c0,0.1,0.1,0,0.1,0.1c0.1,0.1,0,0.2,0,0.3C1,12.5,1.2,12.7,1.1,12.7z M1,1.4C1.1,1.2,1.3,1,1.5,0.8
			c0.1-0.1,0.2-0.2,0.2-0.2c0,0.1-0.1,0.2-0.2,0.3C1.4,1.1,1.2,1.3,1,1.4z M3.9,8c1-1.3,2.3-2.8,3.8-4.2c1.1-1.1,2.2-2,3.2-2.8
			c-0.7,0.7-1.5,1.4-2.2,2.2C7,4.8,5.4,6.4,3.9,8z M8.8,3.8c0.8-0.8,1.6-1.5,2.4-2c-0.4,0.5-0.9,1-1.4,1.6C8.6,4.6,7.5,5.7,6.4,6.7
			C7,5.8,7.8,4.8,8.8,3.8z M10.6,5.6c1.1-0.9,2.2-1.8,3.2-2.6c-0.7,0.7-1.4,1.4-2.2,2.1C10,6.6,8.5,7.8,7,9
			C8.1,7.9,9.3,6.7,10.6,5.6z M12.3,5.7c-1.6,1.4-3.1,2.7-4.6,3.8c1.1-1.1,2.3-2.2,3.6-3.4c1.1-0.9,2.2-1.8,3.2-2.6
			C13.8,4.3,13.1,5,12.3,5.7z M18.1,4.2c-0.7,0.7-1.4,1.4-2.2,2.1c-1.6,1.4-3.1,2.7-4.6,3.8c1.1-1.1,2.3-2.2,3.6-3.4
			C15.9,5.8,17,5,18.1,4.2z M8.6,11.9c1.4-1.7,3.1-3.5,5.1-5.3c0.9-0.8,1.8-1.5,2.6-2.2c-1,1-1.9,1.9-2.9,2.9
			C11.8,8.9,10.2,10.4,8.6,11.9z M9,13.6c1.6-1.5,3.2-3.1,5-4.7c1.4-1.3,2.8-2.4,4.2-3.5c-1.1,1.1-2.3,2.1-3.4,3.2
			C12.8,10.3,10.9,12,9,13.6z M9.2,14.6c1.1-1.3,2.5-2.7,4.1-4.1c1.4-1.2,2.7-2.2,4-3c-1.1,1-2.2,1.9-3.3,2.9
			C12.4,11.8,10.8,13.2,9.2,14.6z M17.3,8.9c-1.2,1.1-2.4,2.1-3.6,3c0.2-0.2,0.4-0.4,0.6-0.6c0.8-0.7,1.5-1.4,2.2-2.1
			c-0.1,0.1-0.2,0.1-0.3,0.2c-0.1,0-0.1,0.1-0.2,0.2c-1.3,1.1-2.4,2.2-3.5,3.3c-0.9,0.8-1.8,1.5-2.7,2.1c1.1-1.1,2.3-2.2,3.6-3.4
			c1-0.9,2-1.7,2.9-2.4c1-0.9,2.1-1.7,3-2.5C18.8,7.4,18.1,8.1,17.3,8.9z"/>
	</defs>
	<clipPath id="SVGID_2_">
		<use xlink:href="#SVGID_1_"  style="overflow:visible;"/>
	</clipPath>
	<path class="st0" d="M3.4,12.8c0,0.6,0.2,1,0.5,1.3c0.3,0.3,0.8,0.4,1.4,0.4v1.2c-1,0-1.8-0.3-2.4-0.7c-0.6-0.5-0.9-1.2-0.9-2v-2.6
		c0-0.6-0.2-1-0.5-1.3C1.1,8.7,0.6,8.6,0,8.6V7.4c0.7,0,1.2-0.1,1.5-0.4C1.8,6.7,2,6.3,2,5.8V3.2c0-0.9,0.3-1.6,0.9-2.1
		c0.6-0.5,1.4-0.7,2.4-0.7v1.2C4,1.6,3.4,2.1,3.4,3.2v2.5c0,1.2-0.6,2-1.8,2.2v0.1C2.8,8.3,3.4,9,3.4,10.2L3.4,12.8"/>
	<path class="st0" d="M14.4,7.9c-1.2-0.2-1.8-0.9-1.8-2.2V3.2c0-1.1-0.6-1.7-1.9-1.7V0.3c1,0,1.8,0.2,2.4,0.7
		C13.7,1.6,14,2.3,14,3.2v2.6c0,0.6,0.2,1,0.5,1.2c0.3,0.3,0.8,0.4,1.5,0.4v1.2c-0.7,0-1.2,0.1-1.5,0.4C14.1,9.2,14,9.7,14,10.3v2.6
		c0,0.9-0.3,1.6-0.8,2c-0.6,0.5-1.3,0.7-2.4,0.8v-1.2c0.6,0,1.1-0.2,1.4-0.4c0.3-0.3,0.5-0.7,0.5-1.3v-2.5c0-0.6,0.2-1.1,0.5-1.5
		c0.3-0.3,0.8-0.6,1.4-0.7L14.4,7.9"/>
</g>
</svg>
