<?xml version="1.0" encoding="utf-8"?>
<!-- Generator: Adobe Illustrator 23.0.0, SVG Export Plug-In . SVG Version: 6.00 Build 0)  -->
<svg version="1.1" id="Layer_1" xmlns="http://www.w3.org/2000/svg" xmlns:xlink="http://www.w3.org/1999/xlink" x="0px" y="0px"
	 viewBox="0 0 16 16" style="enable-background:new 0 0 16 16;" xml:space="preserve">
<style type="text/css">
	.st0{fill:#CBA6F7;}
	.st1{fill:#F75049;}
</style>
<path class="st0" d="M14,9L14,9l0.3-0.2C14.2,8.9,14.1,8.9,14,9z M9,7.3l0.4,0.3C9.6,7.4,9.8,7.2,10,7V6.4C9.7,6.7,9.4,7,9,7.3z
	 M9.7,7.8L10,8V7.5C9.9,7.6,9.8,7.7,9.7,7.8z M9.6,5C9.4,5.2,9.2,5.3,9,5.5V6L8.1,6.7L7.9,6.5C7.6,6.7,7.4,6.9,7.1,7.1l0.5,0.5
	C8,7.1,8.4,6.7,8.9,6.2c0.4-0.3,0.7-0.7,1.1-1V4.6C9.8,4.7,9.7,4.8,9.6,5z M9,4.1v1c0.3-0.3,0.7-0.6,1-0.8V3.2
	C9.7,3.5,9.3,3.8,9,4.1z M9,7.3l0.4,0.3C9.6,7.4,9.8,7.2,10,7V6.4C9.7,6.7,9.4,7,9,7.3z M9.7,7.8L10,8V7.5C9.9,7.6,9.8,7.7,9.7,7.8z
	 M9.6,5C9.4,5.2,9.2,5.3,9,5.5V6L8.1,6.7L7.9,6.5C7.6,6.7,7.4,6.9,7.1,7.1l0.5,0.5C8,7.1,8.4,6.7,8.9,6.2c0.4-0.3,0.7-0.7,1.1-1V4.6
	C9.8,4.7,9.7,4.8,9.6,5z M7.2,5.8C6.8,6.1,6.4,6.4,6,6.7v1c0.5-0.5,1.1-1,1.6-1.5L7.2,5.8z M5.6,2c0,0-0.1,0.1-0.1,0.1
	C5.2,2.5,4.9,2.7,4.6,3h0.9l0.2-0.2C6,2.6,6.3,2.3,6.5,2H5.6z M14,9.4v1.2c0.3-0.2,0.6-0.4,1-0.7V8.5C14.7,8.8,14.3,9.1,14,9.4z
	 M7.2,5.8C6.8,6.1,6.4,6.4,6,6.7v1c0.5-0.5,1.1-1,1.6-1.5L7.2,5.8z M9,4.1v1c0.3-0.3,0.7-0.6,1-0.8V3.2C9.7,3.5,9.3,3.8,9,4.1z
	 M11.1,2L7,2C6.9,2.1,6.8,2.3,6.7,2.3C6.5,2.6,6.3,2.9,6,3.1v3.2C6.3,6,6.7,5.8,7,5.5V3h2v0.7C9.7,3.1,10.4,2.6,11.1,2z M13.5,2
	h-2.3c-0.3,0.3-0.7,0.7-1,1h2.5c0.5-0.4,0.9-0.7,1.3-0.9C13.8,2,13.6,2,13.5,2z M9.6,5C9.4,5.2,9.2,5.3,9,5.5V6L8.1,6.7L7.9,6.5
	C7.6,6.7,7.4,6.9,7.1,7.1l0.5,0.5C8,7.1,8.4,6.7,8.9,6.2c0.4-0.3,0.7-0.7,1.1-1V4.6C9.8,4.7,9.7,4.8,9.6,5z M9,7.3l0.4,0.3
	C9.6,7.4,9.8,7.2,10,7V6.4C9.7,6.7,9.4,7,9,7.3z M9.7,7.8L10,8V7.5C9.9,7.6,9.8,7.7,9.7,7.8z M14,5.2v1.1c0.3-0.3,0.7-0.6,1-0.8V4.2
	C14.7,4.5,14.3,4.8,14,5.2z M14,7.9v1.1c0,0,0.1-0.1,0.1-0.1c0.3-0.3,0.6-0.5,0.9-0.7V7C14.7,7.3,14.3,7.6,14,7.9z M14,6.5v1.2
	c0.3-0.2,0.7-0.5,1-0.7V5.5C14.7,5.8,14.3,6.1,14,6.5z M14.3,2.3c-0.2,0.2-0.5,0.5-0.8,0.8C13.8,3,14,3.3,14,3.5v1.3
	c0.3-0.3,0.7-0.5,1-0.8V3.5C15,3,14.7,2.5,14.3,2.3z M14,9L14,9l0.3-0.2C14.2,8.9,14.1,8.9,14,9z M14,11.5v0.6
	c0.2-0.2,0.5-0.6,0.9-1.1c0,0,0.1-0.1,0.1-0.2v-0.2C14.8,10.7,14.4,11.2,14,11.5z M8.1,13c-0.4,0.3-0.8,0.7-1.1,1h1.1
	c0.3-0.3,0.7-0.7,1.1-1H8.1z M6.6,13c-0.3,0.2-0.5,0.4-0.7,0.6c0.2-0.2,0.4-0.4,0.6-0.6H3c-0.3,0.3-0.7,0.6-1,0.9
	C2.2,14,2.3,14,2.5,14h4.3c0.3-0.3,0.6-0.7,0.9-1H6.6z M2,12.6V3.8c-0.3,0.3-0.6,0.6-1,1v7.7c0,0.5,0.3,1,0.7,1.2
	c0.2-0.2,0.5-0.5,0.7-0.8C2.2,13,2,12.8,2,12.6z M9.6,13c-0.4,0.3-0.8,0.7-1.2,1h4.1c0.3-0.3,0.4-0.6,0.5-0.8c0-0.1,0.1-0.1,0.1-0.2
	H9.6z M3.6,2c0,0.1-0.1,0.1-0.1,0.1C3.4,2.4,3.2,2.6,2.8,3h1.5l0.2-0.2C4.7,2.6,5,2.3,5.3,2H3.6z M2.5,2C1.7,2,1,2.7,1,3.5
	c0.2-0.1,0.3-0.2,0.4-0.3C1.3,3.3,1.2,3.5,1.1,3.6c0,0-0.1,0.1-0.1,0.1v0.6c0.9-1,1.6-1.7,2.2-2.3H2.5z M7.2,5.8
	C6.8,6.1,6.4,6.4,6,6.7v1c0.5-0.5,1.1-1,1.6-1.5L7.2,5.8z M9,7.3l0.4,0.3C9.6,7.4,9.8,7.2,10,7V6.4C9.7,6.7,9.4,7,9,7.3z M9.7,7.8
	L10,8V7.5C9.9,7.6,9.8,7.7,9.7,7.8z M9.6,5C9.4,5.2,9.2,5.3,9,5.5V6L8.1,6.7L7.9,6.5C7.6,6.7,7.4,6.9,7.1,7.1l0.5,0.5
	C8,7.1,8.4,6.7,8.9,6.2c0.4-0.3,0.7-0.7,1.1-1V4.6C9.8,4.7,9.7,4.8,9.6,5z M9,7.3l0.4,0.3C9.6,7.4,9.8,7.2,10,7V6.4
	C9.7,6.7,9.4,7,9,7.3z M9.7,7.8L10,8V7.5C9.9,7.6,9.8,7.7,9.7,7.8z M9.6,5C9.4,5.2,9.2,5.3,9,5.5V6L8.1,6.7L7.9,6.5
	C7.6,6.7,7.4,6.9,7.1,7.1l0.5,0.5C8,7.1,8.4,6.7,8.9,6.2c0.4-0.3,0.7-0.7,1.1-1V4.6C9.8,4.7,9.7,4.8,9.6,5z M9,4.1v1
	c0.3-0.3,0.7-0.6,1-0.8V3.2C9.7,3.5,9.3,3.8,9,4.1z M14,9L14,9l0.3-0.2C14.2,8.9,14.1,8.9,14,9z"/>
<path class="st1" d="M2.5,2C1.7,2,1,2.7,1,3.5c0.2-0.1,0.3-0.2,0.4-0.3C1.3,3.3,1.2,3.5,1.1,3.6c0,0-0.1,0.1-0.1,0.1v0.6
	c0.9-1,1.6-1.7,2.2-2.3H2.5z M7.2,5.8C6.8,6.1,6.4,6.4,6,6.7v1c0.5-0.5,1.1-1,1.6-1.5L7.2,5.8z M14,7.9v1.1c0,0,0.1-0.1,0.1-0.1
	c0.3-0.3,0.6-0.5,0.9-0.7V7C14.7,7.3,14.3,7.6,14,7.9z M7,14h1.1c0.3-0.3,0.7-0.7,1.1-1h-1C7.7,13.4,7.4,13.7,7,14z M14,7.7
	c0.3-0.2,0.7-0.5,1-0.7V5.5c-0.3,0.3-0.7,0.6-1,0.9V7.7z M14,6.2c0.3-0.3,0.7-0.6,1-0.8V4.2c-0.3,0.3-0.7,0.6-1,1V6.2z M14.3,2.3
	c-0.2,0.2-0.5,0.5-0.8,0.8C13.8,3,14,3.3,14,3.5v1.3c0.3-0.3,0.7-0.5,1-0.8V3.5C15,3,14.7,2.5,14.3,2.3z M10,8V7.5
	C9.9,7.6,9.8,7.7,9.7,7.8L10,8z M9.4,7.6C9.6,7.4,9.8,7.2,10,7V6.4C9.7,6.7,9.4,7,9,7.3L9.4,7.6z M5.8,13.7c0.2-0.2,0.4-0.4,0.6-0.6
	H3c-0.3,0.3-0.7,0.6-1,0.9C2.2,14,2.3,14,2.5,14h4.3c0.3-0.3,0.6-0.7,0.9-1H6.6C6.3,13.2,6.1,13.5,5.8,13.7z M15,10.6
	c-0.2,0.1-0.6,0.6-1,0.8v0.6c0.2-0.2,0.5-0.6,0.9-1.1c0,0,0.1-0.1,0.1-0.2C15,10.7,15.1,10.6,15,10.6C15.1,10.6,15,10.6,15,10.6z
	 M15,8.5c-0.3,0.3-0.7,0.6-1,0.9v1.2c0.3-0.2,0.6-0.4,1-0.7V8.5z M14,9L14,9l0.3-0.2C14.2,8.9,14.1,8.9,14,9z M8.4,14h4.1
	c0.3-0.3,0.4-0.6,0.5-0.8c0-0.1,0.1-0.1,0.1-0.2H9.6C9.2,13.4,8.8,13.7,8.4,14z M3.6,2c0,0.1-0.1,0.1-0.1,0.1C3.4,2.4,3.2,2.6,2.8,3
	C2.6,3.3,2.3,3.5,2,3.8c-0.3,0.3-0.6,0.6-1,1v1.8c0.3-0.4,0.7-0.8,1-1.2C2.7,4.6,3.5,3.8,4.3,3l0.2-0.2C4.7,2.6,5,2.3,5.3,2H3.6z
	 M2,12.6V5.7C1.7,6,1.3,6.4,1,6.7v5.8c0,0.5,0.3,1,0.7,1.2c0.2-0.2,0.5-0.5,0.7-0.8C2.2,13,2,12.8,2,12.6z M5.6,2
	c0,0-0.1,0.1-0.1,0.1C5.2,2.5,4.9,2.7,4.6,3h0.9l0.2-0.2C6,2.6,6.3,2.3,6.5,2H5.6z M7.2,5.8C6.8,6.1,6.4,6.4,6,6.7v1
	c0.5-0.5,1.1-1,1.6-1.5L7.2,5.8z M11.1,2L7,2C6.9,2.1,6.8,2.3,6.7,2.3C6.5,2.6,6.3,2.9,6,3.1v3.2C6.3,6,6.7,5.8,7,5.5V3h2v0.7
	C9.7,3.1,10.4,2.6,11.1,2z M13.5,2h-2.3c-0.3,0.3-0.7,0.7-1,1h1.3c0.2-0.1,0.4-0.3,0.5-0.4c-0.1,0.1-0.3,0.3-0.4,0.4h1
	c0.5-0.4,0.9-0.7,1.3-0.9C13.8,2,13.6,2,13.5,2z M9,5.5V6L8.1,6.7L7.9,6.5C7.6,6.7,7.4,6.9,7.1,7.1l0.5,0.5C8,7.1,8.4,6.7,8.9,6.2
	c0.4-0.3,0.7-0.7,1.1-1V4.6C9.8,4.7,9.7,4.8,9.6,5C9.4,5.2,9.2,5.3,9,5.5z M9,5.1c0.3-0.3,0.7-0.6,1-0.8V3.2C9.7,3.5,9.3,3.8,9,4.1
	V5.1z M7.2,5.8C6.8,6.1,6.4,6.4,6,6.7v1c0.5-0.5,1.1-1,1.6-1.5L7.2,5.8z"/>
</svg>
