<?xml version="1.0" encoding="utf-8"?>
<!-- Generator: Adobe Illustrator 23.0.0, SVG Export Plug-In . SVG Version: 6.00 Build 0)  -->
<svg version="1.1" id="Layer_1" xmlns="http://www.w3.org/2000/svg" xmlns:xlink="http://www.w3.org/1999/xlink" x="0px" y="0px"
	 viewBox="0 0 16 16" style="enable-background:new 0 0 16 16;" xml:space="preserve">
<style type="text/css">
	.st0{clip-path:url(#SVGID_2_);fill-rule:evenodd;clip-rule:evenodd;fill:#F75049;}
</style>
<g>
	<defs>
		<path id="SVGID_1_" d="M20.8,4.6c-0.1-0.1-0.3,0-0.6-0.2C20,4.2,20,4,19.9,3.9c-0.4-0.2-1.3,0.5-1.3,0.5c0,0,0.4-0.3,0.7-0.7
			c0.2-0.2,0.6-0.7,0.5-1c-0.1-0.2-0.3-0.2-0.3-0.3C19.5,2.1,20,2,20,1.7c0-0.2-0.2-0.3-0.3-0.3c-0.3-0.1-0.8,0.2-0.8,0.2
			c0,0,0.3-0.2,0.4-0.5c0-0.1,0.2-0.3,0.1-0.5c-0.1-0.1-0.3-0.1-0.4-0.1c-0.1,0-0.2,0.1-0.2,0c0,0,0-0.1,0-0.2
			c0-0.2-0.3-0.3-0.6-0.3c-0.5,0-0.9,0.5-1,0.4c-0.1-0.1,0.5-0.5,0.4-0.9c0-0.1-0.2-0.3-0.4-0.3c-0.3,0-0.4,0.3-0.5,0.3
			c-0.1-0.1,0.1-0.7-0.1-0.9c-0.1-0.1-0.3,0.1-0.6,0c-0.2-0.1-0.2-0.1-0.3-0.2C15.4-1.6,15-1,14.4-0.5c-0.2,0.2-0.6,0.5-1.1,0.8
			c0.3-0.3,0.5-0.6,0.7-0.7c0.4-0.4,0.6-0.6,0.6-0.9c0-0.1,0-0.4-0.2-0.4c-0.2-0.1-0.4,0.2-1.1,0.6C13.2-1.1,13-1,12.9-0.9
			c0,0,0.3-0.4,0.2-0.7c0,0-0.1-0.2-0.2-0.3c-0.4-0.3-1.1-0.2-1.2-0.2c-0.9,0.2-1.1,0.8-2.1,1.3c0,0-0.1,0.1-0.3,0.2
			C8.9-0.3,8.7-0.2,8.6-0.2C8.3,0,8.1,0.1,8,0.4C7.9,0.7,7.9,0.8,7.8,1C7.6,1.1,7.5,1.2,7.4,1.2C6.8,1.3,6.1,2.4,6,2.5
			C5.6,3.1,4.3,4.4,0.8,7.6C5.5,2.6,7,1,7,0.9c0,0,0,0,0,0c0-0.1,0.2-0.4,0-0.6C7,0.2,6.8,0.3,6.8,0.1c0,0,0-0.1,0-0.1
			c0-0.2,0.4-0.2,0.4-0.3c0,0-0.1-0.1-0.2-0.1C6.7-0.5,6.7-0.6,6.5-0.7C6.3-0.7,6-0.6,5.9-0.5C5.7-0.4,5.5-0.3,5.5-0.3
			c0,0,0-0.2,0-0.3C5.4-0.7,5.2-0.7,5.2-0.7c-0.3,0-0.5,0.3-0.6,0.2c-0.1,0,0-0.2-0.1-0.3C4.4-0.9,4.3-0.8,4.1-0.9
			C3.9-1.1,4-1.2,3.8-1.5C3.7-1.6,3.6-1.7,3.4-1.8c-0.2-0.1-0.3,0-0.5-0.1C2.6-1.9,2.6-2.1,2.4-2.1C2.2-2.2,2.1-2.1,2-2
			C1.7-1.9,1.7-1.7,1.5-1.7C1.3-1.7,1.3-1.9,1-2C0.9-2,0.8-2,0.7-2c-0.1,0.1,0,0.4-0.1,0.5c-0.1,0.1-0.2,0.1-0.3,0
			C0.2-1.5,0.3-1.6,0.2-1.7C0-1.9-0.9-1.6-1.2-1.1c0,0.1-0.1,0.2-0.2,0.3c-0.2,0.1-0.3,0-0.5,0c-0.3,0-0.5,0.2-1.1,1
			c0,0-0.1,0.1-0.6,0.6c-0.9,1-1,1.1-1.1,1.4c0,0.5,0,0.7,0,0.7c0,0.1,0.1,0.3,0,0.4c-0.1,0.1-0.1,0-0.2,0.1c-0.1,0.1,0.1,0.4,0,0.8
			c0,0,0,0,0,0.3c-0.1,0.5-0.1,0.6,0,0.7c0.1,0.1,0.2,0.1,0.3,0.1c0.2,0,0.3-0.1,0.4-0.1C-3.8,4.7-3.4,4.2-3,3.8
			c-0.2,0.3-0.3,0.6-0.4,0.7c-0.2,0.2-0.3,0.4-0.5,0.7C-4,5.3-4,5.4-4.1,5.6c-0.1,0.2-0.2,0.5-0.1,0.8C-4.1,6.4-4,6.5-4,6.6
			C-4,6.8-4,6.9-4,7c0,0.1,0.1,0.1,0.2,0.1c0.1,0.1,0,0.3,0,0.6c0,0.2,0.1,0.1,0.1,0.3c0.1,0.3-0.1,0.4,0,0.7c0,0.1,0,0.2,0.1,0.3
			C-3.4,9.1-3.2,8.9-3,9c0.2,0.1,0.1,0.3,0.3,0.4c0.1,0,0.2-0.1,0.4,0c0,0,0.3,0,0.3,0.1c0,0.1-0.1,0.3-0.3,0.4
			c-0.4,0.2-0.8-0.1-0.9,0c0,0.1,0.1,0.2,0.2,0.3c1,0.9,1,1,1.3,1.2c0.3,0.2,0.3,0.1,0.7,0.3c0.5,0.3,1.1,0.6,1.1,1
			C0.2,13,0,13,0.1,13.3c0,0.2,0.1,0.5,0.3,0.6c0.2,0.1,0.3-0.1,0.6-0.1c0.3,0,0.3,0.2,0.6,0.3c0.4,0,0.5-0.4,0.8-0.4
			c0.2,0,0.2,0.2,0.4,0.3c0.2,0.1,0.4,0,0.5,0c1-1.1,2.6-2.7,4.6-4.8c1.6-1.7,2.1-2.2,3-3.1c2.6-2.5,5.4-4.5,5.5-4.3
			c0.1,0.1-1.2,1.3-5.5,5.4c-3,2.8-5.4,5.2-7.1,6.8c0,0.3,0.1,0.5,0.2,0.5c0.2,0.1,0.5-0.2,0.8,0c0.1,0.1,0.3,0.2,0.3,0.4
			c0,0.2,0,0.3,0.1,0.4c0.1,0.1,0.1,0,0.2,0.1c0.2,0.2,0.1,0.3,0.3,0.5c0.2,0.1,0.4,0,0.4,0.2c0,0.1,0,0.1,0,0.3
			c0,0.1,0.2,0.1,0.2,0.3c0,0.2-0.3,0.3-0.3,0.6c0,0.2,0.1,0.2,0.1,0.5c0,0.5-0.6,0.6-0.5,0.9c0,0.2,0.2,0.4,0.4,0.5
			c0.3,0,0.5-0.4,0.8-0.4c0.4,0,0.6,0.6,0.9,0.5c0.3,0,0.3-0.4,0.6-0.4c0.2,0,0.3,0.1,0.4,0c0.1-0.1,0.1-0.2,0.3-0.3
			c0.1,0,0.1,0,0.2,0c0.2,0,0.6-0.4,0.7-0.8c0.1-0.4,0-0.5,0.2-0.8c0.1-0.2,0.3-0.3,0.4-0.4c0.5-0.4,1.2-1,1.8-1.6
			c0.8-0.8,0.9-1.1,1.5-1.4c0.1,0,0.3-0.1,0.5-0.3c0.3-0.3,0.4-0.6,0.6-0.8c0.4-0.8,0.8-0.8,1.7-2c0-0.1,0.2-0.3,0.2-0.4
			c-0.1-0.1-1.2,1.1-1.4,1C14.9,11,15,10.9,15,10.8c0.1-0.6,0.8-0.8,1.9-1.7c0.3-0.2,0.2-0.2,0.5-0.5c0.8-0.7,1.7-1.3,2-1.7
			c0.1-0.3,0.2-0.6,0.2-0.6c0-0.1,0-0.1,0.1-0.2c0.1-0.3,0.2-0.4,0.7-0.9C20.8,4.8,20.8,4.7,20.8,4.6z M3.8,3.8
			C3.5,4.2,3.2,4.5,2.9,4.7C3,4.4,3.3,4.1,3.7,3.7C3.8,3.6,4,3.5,4.1,3.4C4,3.6,3.9,3.7,3.8,3.8z M3.6,2.6c0.5-0.5,1-1,1.4-1.4
			c-0.3,0.5-0.8,1-1.3,1.5C3.4,3,3.1,3.3,2.8,3.5C3,3.2,3.3,2.9,3.6,2.6z M-2,2.6c0.1-0.2,0.2-0.4,0.4-0.6c0.1-0.1,0.2-0.2,0.2-0.2
			c0,0.1-0.1,0.2-0.2,0.3C-1.6,2.2-1.8,2.4-2,2.6z M-1.1,10.7c-0.1,0.1-0.2,0.2-0.3,0.2c0,0,0-0.2,0.1-0.3c0.1-0.1,0.3-0.2,0.3-0.2
			C-1,10.5-1,10.6-1.1,10.7z M-1.4,6.1c0.3-0.4,0.7-0.8,1-1.2c0,0.1,0,0.2,0,0.3C-0.8,5.5-1.1,5.8-1.4,6.1z M0.3,12.1
			c0,0-0.2-0.2-0.5-0.6c-0.1-0.1-0.2-0.2-0.2-0.3c0-0.1,0.1-0.1,0.2-0.2c0.1-0.1,0.3-0.2,0.4-0.5c0,0.2-0.1,0.3-0.1,0.4
			c0,0.1-0.1,0.2-0.1,0.3c0,0.1,0.1,0,0.1,0.1c0.1,0.1,0,0.2,0,0.3C0.2,11.9,0.3,12,0.3,12.1z M0.2,0.8c0.1-0.2,0.2-0.4,0.4-0.6
			C0.7,0.1,0.8,0,0.9-0.1c0,0.1-0.1,0.2-0.2,0.3C0.5,0.4,0.4,0.6,0.2,0.8z M3,7.4c1-1.3,2.3-2.8,3.8-4.2C7.9,2.1,9,1.2,10,0.4
			C9.3,1.1,8.5,1.8,7.8,2.5C6.1,4.1,4.5,5.8,3,7.4z M7.9,3.1c0.8-0.8,1.6-1.5,2.4-2c-0.4,0.5-0.9,1-1.4,1.6C7.8,3.9,6.6,5,5.5,6.1
			C6.1,5.2,6.9,4.2,7.9,3.1z M9.8,4.9C10.9,4,11.9,3.1,13,2.3c-0.7,0.7-1.4,1.4-2.2,2.1C9.2,5.9,7.6,7.2,6.1,8.3
			C7.2,7.2,8.4,6.1,9.8,4.9z M11.5,5.1C9.9,6.5,8.3,7.8,6.9,8.9C8,7.8,9.2,6.7,10.5,5.5c1.1-0.9,2.2-1.8,3.2-2.6
			C13,3.6,12.2,4.3,11.5,5.1z M17.2,3.5c-0.7,0.7-1.4,1.4-2.2,2.1c-1.6,1.4-3.1,2.7-4.6,3.8c1.1-1.1,2.3-2.2,3.6-3.4
			C15.1,5.2,16.2,4.3,17.2,3.5z M7.7,11.3c1.4-1.7,3.1-3.5,5.1-5.3c0.9-0.8,1.8-1.5,2.6-2.2c-1,1-1.9,1.9-2.9,2.9
			C11,8.2,9.3,9.7,7.7,11.3z M8.1,12.9c1.6-1.5,3.2-3.1,5-4.7c1.4-1.3,2.8-2.4,4.2-3.5c-1.1,1.1-2.3,2.1-3.4,3.2
			C11.9,9.6,10,11.3,8.1,12.9z M8.4,13.9c1.1-1.3,2.5-2.7,4.1-4.1c1.4-1.2,2.7-2.2,4-3c-1.1,1-2.2,1.9-3.3,2.9
			C11.6,11.1,10,12.5,8.4,13.9z M16.4,8.2c-1.2,1.1-2.4,2.1-3.6,3c0.2-0.2,0.4-0.4,0.6-0.6c0.8-0.7,1.5-1.4,2.2-2.1
			c-0.1,0.1-0.2,0.1-0.3,0.2c-0.1,0-0.1,0.1-0.2,0.2c-1.3,1.1-2.4,2.2-3.5,3.3c-0.9,0.8-1.8,1.5-2.7,2.1c1.1-1.1,2.3-2.2,3.6-3.4
			c1-0.9,2-1.7,2.9-2.4c1-0.9,2.1-1.7,3-2.5C17.9,6.8,17.2,7.5,16.4,8.2z"/>
	</defs>
	<clipPath id="SVGID_2_">
		<use xlink:href="#SVGID_1_"  style="overflow:visible;"/>
	</clipPath>
	<polygon class="st0" points="7.3,15 7.3,10.9 3.8,10.9 4.4,9.8 5.5,9.8 3.9,6.9 0.3,6.9 1.1,7.4 0,9.2 2.8,14.2 3.1,14.7 3.3,15 
		7.3,15 	"/>
	<polygon class="st0" points="13.9,5.8 10.6,7.7 12.4,10.8 11.1,10.8 10.6,9.8 8.9,12.7 10.7,15.9 10.7,15 12.8,15 15.7,10 
		15.9,9.6 16,9.4 13.9,5.8 	"/>
	<polygon class="st0" points="3,3.8 6.2,5.7 8,2.6 8.6,3.7 8,4.7 11.4,4.7 13.2,1.5 12.4,2 11.3,0.1 5,0.1 	"/>
</g>
</svg>
