<?xml version="1.0" encoding="utf-8"?>
<!-- Generator: Adobe Illustrator 23.0.0, SVG Export Plug-In . SVG Version: 6.00 Build 0)  -->
<svg version="1.1" id="Layer_1" xmlns="http://www.w3.org/2000/svg" xmlns:xlink="http://www.w3.org/1999/xlink" x="0px" y="0px"
	 viewBox="0 0 16 16" style="enable-background:new 0 0 16 16;" xml:space="preserve">
<style type="text/css">
	.st0{fill:#F75049;}
</style>
<path class="st0" d="M14.2,7.2c-0.1,0-0.1,0.1-0.2,0.1v0.1c0.2-0.2,0.3-0.3,0.5-0.5C14.4,7,14.3,7.1,14.2,7.2z M13.9,0.3
	C13.2,1,12.1,2,10.5,3.5l1-0.2c0.8-0.7,1.7-1.4,2.5-2.1V0.9C14,0.6,14,0.4,13.9,0.3z M5,8.7v1.2c0.3-0.4,0.7-0.8,1-1.1v-1
	C5.7,8.1,5.3,8.4,5,8.7z M13,5.4v1.1c0.3-0.3,0.7-0.5,1-0.7V4.5C13.7,4.8,13.3,5.1,13,5.4z M13.6,3.4C13.4,3.6,13.2,3.8,13,4v1.1
	c0.3-0.3,0.7-0.6,1-0.9V3C13.9,3.2,13.7,3.3,13.6,3.4z M12.1,3.2l0.4-0.1c0.3-0.1,0.5,0.1,0.5,0.3c0.4-0.3,0.7-0.6,1-0.9V1.3
	C13.4,1.9,12.7,2.6,12.1,3.2z M6,9C5.7,9.4,5.3,9.7,5,10v1.7c-0.4-0.3-0.9-0.5-1.5-0.5c-0.8,0-1.2,0.3-1.5,0.7
	c-0.3,0.4-0.4,0.9-0.4,1.2c0,0.5,0.2,0.9,0.5,1.3C2.5,14.7,3,15,3.8,15c0.8,0,1.4-0.2,1.8-0.7C5.8,14,5.9,13.6,6,13.1
	c-0.2,0.2-0.3,0.3-0.5,0.4C5.6,13.3,5.8,13.2,6,13c0,0,0,0,0-0.1c0-0.1,0-0.1,0-0.2c0-0.1,0-0.1,0-0.2v-0.9
	c-0.3,0.3-0.6,0.5-0.9,0.7C5.4,12,5.7,11.8,6,11.5V9z M13,6.9V8c0.3-0.3,0.7-0.5,1-0.8V6.1C13.7,6.3,13.3,6.7,13,6.9z M14.2,7.2
	c-0.1,0-0.1,0.1-0.2,0.1c0,0,0,0-0.1,0.1c-0.3,0.3-0.6,0.5-0.9,0.8v0.2c0.3-0.3,0.7-0.6,1-1c0.2-0.2,0.3-0.3,0.5-0.5
	C14.4,7,14.3,7.1,14.2,7.2z M14,10c-0.2,0.1-0.3,0.1-0.4,0.1c-0.1-0.1-0.1-0.2-0.1-0.3c0-0.3,0.2-0.5,0.4-0.7V7.7
	c-0.3,0.3-0.7,0.6-1,0.9v2c-0.4-0.3-0.9-0.5-1.5-0.5c-0.2,0-0.4,0-0.5,0.1h0c-0.1,0-0.2,0.1-0.3,0.1c-0.3,0.2-0.5,0.5-0.7,0.7
	c-0.2,0.3-0.3,0.7-0.3,1c0,0.5,0.2,0.9,0.5,1.3c0.2,0.2,0.5,0.4,0.8,0.5c0.3-0.3,0.5-0.5,0.8-0.7c0.1,0,0.3-0.2,0.6-0.4
	c0.4-0.3,0.5-0.7,0.7-1c0.3-0.5,0.5-0.8,0.9-1.1c0.3-0.3,0.7-0.7,1.2-1.4c0-0.1,0.3-0.4,0.2-0.5C15.3,8.8,14.5,9.7,14,10z M5.9,1.2
	C5.1,1.3,5,1.6,5,2.1v2.3c0.7-0.6,1.4-1.3,2.2-1.9c0.8-0.7,1.5-1.3,2.3-1.9L5.9,1.2z M13.1,0.1l-1.3,0.2C11,1.1,10.1,1.9,9.3,2.7
	C8.8,3.1,8.4,3.5,7.9,3.9l1-0.2C10.5,2.3,12,0.9,13.3,0C13.2,0,13.2,0.1,13.1,0.1z M5,6.3v1.4c0.4-0.4,0.7-0.8,1-1V5.5
	C5.7,5.8,5.3,6,5,6.3z M9.8,0.6C9.4,1,8.9,1.5,8.4,1.9C7.2,3,6.1,4,5,4.8V6c0.3-0.3,0.7-0.6,1-1C6.4,4.7,6.8,4.4,7.2,4
	C7.5,3.7,7.8,3.5,8,3.3c1.2-1.1,2.5-2,3.6-3L9.8,0.6z"/>
</svg>
