<?xml version="1.0" encoding="utf-8"?>
<!-- Generator: Adobe Illustrator 23.0.0, SVG Export Plug-In . SVG Version: 6.00 Build 0)  -->
<svg version="1.1" id="Layer_1" xmlns="http://www.w3.org/2000/svg" xmlns:xlink="http://www.w3.org/1999/xlink" x="0px" y="0px"
	 viewBox="0 0 16 16" style="enable-background:new 0 0 16 16;" xml:space="preserve">
<style type="text/css">
	.st0{fill-rule:evenodd;clip-rule:evenodd;fill:#F75049;}
</style>
<path class="st0" d="M13.7,10.7c-0.1,0.1-0.2,0.2-0.3,0.3c-0.1,0.1-0.3,0.2-0.4,0.3v0.2c0.4-0.4,0.8-0.8,1.2-1.2
	C14,10.5,13.9,10.6,13.7,10.7z M15,12.3v-2.2c-0.7,0.6-1.3,1.2-2,1.8v0.3c0,0.2-0.1,0.4-0.2,0.5c-0.1,0.1-0.3,0.2-0.5,0.2h-0.5
	c-0.8,0.7-1.6,1.4-2.5,2h3c0.9,0,1.7-0.4,2.2-1.1c-0.6,0.5-1.2,1-1.5,0.9c-0.1-0.1-0.1-0.3-0.1-0.4C13,13.6,13.8,13.2,15,12.3z
	 M11.2,13c-0.7,0.7-1.5,1.3-2.1,2h0.3c0.3-0.3,0.7-0.6,1-1c0.4-0.3,0.8-0.7,1.1-1H11.2z M9.1,13c-0.8,0.7-1.5,1.3-2.3,2h1.6
	c0.2-0.2,0.4-0.3,0.5-0.5c0.6-0.5,1.2-1,1.8-1.5H9.1z M13,9.6v1.5c0.3-0.3,0.7-0.5,1-0.8c0.3-0.3,0.7-0.6,1-0.9V7.9
	C14.3,8.5,13.7,9,13,9.6z M10.4,1c-0.7,0.7-1.3,1.3-2,2h1.2c0.9-0.8,1.8-1.4,2.5-2H10.4z M1,7.4V9c0.7-0.6,1.3-1.2,2-1.8V5.7
	C2.3,6.3,1.7,6.9,1,7.4z M1,12.8c0.1,0.4,0.2,0.8,0.5,1.1c0.5-0.5,1-1.1,1.5-1.7v-1.3C2.3,11.6,1.7,12.2,1,12.8z M6.8,13
	c-0.8,0.7-1.5,1.3-2.3,2h1.4c0.7-0.7,1.4-1.3,2.2-2H6.8z M3.7,13c-0.2,0-0.4-0.1-0.5-0.2c-0.1,0-0.1-0.1-0.1-0.2
	c-0.5,0.5-1,0.9-1.5,1.4c0.5,0.6,1.3,1,2.1,1h0.4c0.7-0.7,1.4-1.3,2.1-2H3.7z M1,9.4v1.9c0.8-0.9,1.5-1.6,2-2.1V7.8
	C2.3,8.4,1.7,8.9,1,9.4z M3.7,1C2.2,1,1,2.2,1,3.7v3.1C1.7,6.3,2.3,5.6,3,5V3.7c0-0.2,0.1-0.4,0.2-0.5C3.3,3.1,3.5,3,3.7,3h1.6
	C6.2,2.3,7,1.6,7.8,1H3.7z M8.2,1C7.5,1.7,6.8,2.3,6.1,3h1.8c0.9-0.7,1.7-1.4,2.5-2H8.2z M15,3.5c-0.6,0.6-1.3,1.2-2,1.9V7
	c0.7-0.6,1.3-1.1,2-1.7V3.7C15,3.7,15,3.6,15,3.5z M13.3,1.2c-0.5,0.5-1.2,1.1-1.9,1.8h0.9c0.1,0,0.3,0,0.4,0.1
	c0.4-0.3,0.7-0.6,1.1-0.9c-0.3,0.3-0.7,0.7-1,1l0,0C12.9,3.3,13,3.5,13,3.7v1c0.7-0.5,1.3-1.1,2-1.6v0C14.8,2.3,14.1,1.5,13.3,1.2z
	 M13,7.4v1.7c0.7-0.5,1.3-0.9,2-1.4V5.6C14.3,6.2,13.7,6.8,13,7.4z"/>
</svg>
