<?xml version="1.0" encoding="utf-8"?>
<!-- Generator: Adobe Illustrator 23.0.0, SVG Export Plug-In . SVG Version: 6.00 Build 0)  -->
<svg version="1.1" id="Layer_1" xmlns="http://www.w3.org/2000/svg" xmlns:xlink="http://www.w3.org/1999/xlink" x="0px" y="0px"
	 viewBox="0 0 16 16" style="enable-background:new 0 0 16 16;" xml:space="preserve">
<style type="text/css">
	.st0{clip-path:url(#SVGID_2_);}
	.st1{opacity:0.5;fill-rule:evenodd;clip-rule:evenodd;fill:#F75049;enable-background:new    ;}
	.st2{fill-rule:evenodd;clip-rule:evenodd;fill:#F75049;}
</style>
<g>
	<defs>
		<path id="SVGID_1_" d="M23.3,3.9c-0.1-0.2-0.4,0-0.7-0.3c-0.3-0.2-0.2-0.4-0.4-0.5c-0.5-0.3-1.6,0.6-1.6,0.6c0,0,0.5-0.3,0.9-0.8
			c0.3-0.3,0.8-0.9,0.6-1.2c-0.1-0.2-0.3-0.2-0.4-0.4c-0.1-0.3,0.6-0.5,0.5-0.9c0-0.2-0.2-0.4-0.4-0.4c-0.4-0.2-1,0.3-1,0.3
			c0,0,0.3-0.2,0.5-0.6c0-0.1,0.2-0.4,0.1-0.6c-0.1-0.1-0.3-0.1-0.5-0.1c-0.1,0-0.2,0.1-0.3,0.1c0,0,0-0.1,0-0.2
			c0-0.2-0.4-0.3-0.7-0.4c-0.6-0.1-1.2,0.6-1.2,0.5c-0.1-0.1,0.6-0.7,0.5-1.1c-0.1-0.2-0.3-0.3-0.5-0.3c-0.3,0-0.5,0.4-0.6,0.3
			c-0.2-0.1,0.1-0.9-0.1-1.1c-0.2-0.1-0.4,0.1-0.7,0c-0.2-0.1-0.2-0.2-0.3-0.2c-0.4-0.2-0.9,0.5-1.6,1.1c-0.3,0.3-0.8,0.6-1.4,1
			c0.3-0.4,0.6-0.7,0.8-0.9c0.5-0.5,0.8-0.8,0.8-1.1c0-0.2,0-0.5-0.2-0.5c-0.2-0.1-0.5,0.2-1.3,0.8c-0.2,0.1-0.4,0.3-0.5,0.3
			c0,0,0.4-0.4,0.2-0.9c0,0-0.1-0.2-0.2-0.3c-0.5-0.4-1.4-0.2-1.5-0.2c-1.1,0.3-1.3,1-2.6,1.6c0,0-0.2,0.1-0.4,0.2
			C8.7-2.2,8.4-2.1,8.3-2C8-1.8,7.7-1.6,7.6-1.3C7.5-1,7.5-0.8,7.3-0.6C7.2-0.4,7-0.3,6.9-0.3C6.2-0.1,5.3,1.1,5.2,1.3
			C4.7,2,3.1,3.6-1.2,7.5c5.8-6.1,7.6-8.1,7.7-8.2c0,0,0,0,0,0c0-0.1,0.2-0.5,0-0.7c-0.1-0.1-0.3,0-0.4-0.2c0,0-0.1-0.1,0-0.2
			c0-0.2,0.5-0.3,0.5-0.4c0,0-0.1-0.1-0.2-0.1C6-2.4,6-2.6,5.8-2.6C5.5-2.7,5.2-2.5,5-2.4C4.7-2.3,4.6-2.1,4.5-2.1
			c-0.1,0,0.1-0.2,0-0.3C4.4-2.6,4.2-2.6,4.1-2.6c-0.4,0-0.6,0.3-0.8,0.3c-0.1-0.1,0-0.2-0.1-0.4C3.2-2.8,3-2.8,2.8-2.9
			C2.6-3.1,2.7-3.3,2.4-3.6C2.4-3.7,2.2-3.9,2-4C1.7-4.1,1.6-4,1.3-4.1C1-4.2,1-4.4,0.7-4.4c-0.2,0-0.4,0-0.5,0.1
			c-0.4,0.2-0.4,0.4-0.6,0.4c-0.2,0-0.3-0.2-0.6-0.3c-0.1,0-0.3,0-0.3,0c-0.2,0.1,0,0.5-0.1,0.6c-0.1,0.1-0.2,0.1-0.3,0
			C-1.9-3.7-1.9-3.8-2-3.8c-0.2-0.2-1.4,0.1-1.7,0.8C-3.8-3-3.8-2.8-4-2.7c-0.2,0.1-0.4,0-0.6,0c-0.4,0-0.6,0.3-1.3,1.2
			c0,0-0.2,0.2-0.7,0.8C-7.6,0.5-7.8,0.6-7.8,1c0,0.6,0.1,0.9,0.1,0.9c0,0.1,0.1,0.3,0,0.4c-0.1,0.1-0.1,0-0.2,0.1
			c-0.1,0.2,0.1,0.4,0,0.9c0,0,0,0-0.1,0.3c-0.1,0.7-0.1,0.8,0,0.9C-8,4.7-7.8,4.7-7.7,4.7c0.2,0,0.4-0.1,0.4-0.1
			C-6.8,4-6.4,3.4-5.9,2.9c-0.2,0.4-0.4,0.7-0.5,0.9C-6.6,4-6.8,4.2-7,4.6c-0.1,0.1-0.1,0.3-0.2,0.4C-7.3,5.4-7.4,5.7-7.3,6
			c0.1,0.1,0.1,0.2,0.2,0.4c0,0.2-0.1,0.3,0,0.5C-7,7-7,6.9-6.9,7c0.1,0.2,0,0.4,0,0.7c0,0.2,0.1,0.1,0.2,0.3c0.1,0.3-0.1,0.5,0,0.9
			c0,0.2,0,0.3,0.1,0.3c0.2,0.2,0.4-0.1,0.7,0.1c0.2,0.1,0.2,0.4,0.4,0.5c0.1,0.1,0.2-0.1,0.5-0.1c0,0,0.4,0,0.4,0.2
			c0,0.1-0.1,0.3-0.3,0.4c-0.4,0.2-1-0.1-1.1,0c0,0.1,0.2,0.3,0.3,0.4c1.2,1.2,1.2,1.2,1.6,1.5c0.4,0.2,0.3,0.1,0.8,0.4
			C-2.7,13-2,13.4-2,13.9c0,0.3-0.2,0.3-0.2,0.7c0,0.3,0.1,0.7,0.4,0.8c0.2,0.1,0.4-0.2,0.7-0.1c0.4,0,0.4,0.3,0.7,0.3
			c0.5,0,0.6-0.5,1-0.4c0.2,0,0.2,0.2,0.5,0.3c0.2,0.1,0.5,0,0.7,0c1.3-1.3,3.3-3.3,5.7-5.9c2-2.1,2.5-2.7,3.6-3.8
			c3.2-3.1,6.6-5.5,6.8-5.3c0.1,0.1-1.5,1.6-6.7,6.6c-3.7,3.5-6.7,6.4-8.7,8.3c0,0.4,0.1,0.6,0.2,0.6c0.3,0.2,0.6-0.2,0.9,0
			c0.1,0.1,0.3,0.3,0.4,0.5c0.1,0.2,0,0.4,0.1,0.5c0.1,0.1,0.1,0,0.2,0.1c0.2,0.2,0.1,0.4,0.3,0.6c0.2,0.2,0.5,0.1,0.5,0.2
			c0,0.1-0.1,0.2,0,0.3c0,0.2,0.2,0.2,0.2,0.3c0.1,0.2-0.3,0.3-0.4,0.7c-0.1,0.3,0.1,0.3,0.1,0.6c0,0.6-0.7,0.7-0.7,1.2
			c0,0.3,0.3,0.5,0.5,0.6c0.4,0.1,0.6-0.5,1-0.5c0.5,0,0.7,0.7,1.1,0.7c0.3-0.1,0.4-0.4,0.7-0.5c0.2,0,0.4,0.1,0.5,0
			c0.2-0.1,0.1-0.3,0.3-0.3c0.1,0,0.1,0,0.2,0c0.3,0,0.7-0.5,0.8-1c0.1-0.5,0-0.6,0.2-1c0.2-0.3,0.4-0.4,0.5-0.5
			c0.7-0.5,1.5-1.2,2.2-1.9c1-1,1.1-1.3,1.8-1.7c0.1-0.1,0.3-0.2,0.6-0.4c0.4-0.3,0.5-0.7,0.7-1c0.5-1,1-1,2.1-2.5
			c0-0.1,0.3-0.4,0.2-0.4c-0.1-0.1-1.4,1.4-1.8,1.2c-0.1-0.1-0.1-0.2-0.1-0.3c0.1-0.7,1-1,2.3-2.1c0.3-0.3,0.2-0.2,0.6-0.6
			c1-0.9,2.1-1.6,2.4-2.1C21.7,6.4,21.8,6,21.8,6c0-0.1,0-0.2,0.1-0.2c0.1-0.3,0.3-0.5,0.8-1.1C23.3,4.1,23.3,4,23.3,3.9z M2.5,2.9
			C2.1,3.4,1.7,3.7,1.3,4c0.2-0.3,0.5-0.8,1-1.2c0.2-0.2,0.4-0.3,0.5-0.4C2.7,2.6,2.6,2.7,2.5,2.9z M2.2,1.4
			c0.6-0.7,1.2-1.2,1.7-1.7C3.5,0.3,3,0.9,2.4,1.5C2,1.9,1.6,2.3,1.2,2.6C1.5,2.2,1.8,1.8,2.2,1.4z M-4.6,1.4
			c0.1-0.2,0.3-0.5,0.5-0.8C-4,0.5-3.9,0.4-3.8,0.3C-3.9,0.4-3.9,0.5-4,0.6C-4.2,1-4.4,1.2-4.6,1.4z M-3.6,11.4
			c-0.1,0.2-0.3,0.2-0.3,0.2c0-0.1,0-0.2,0.1-0.4C-3.7,11-3.5,11-3.4,11C-3.4,11.1-3.5,11.2-3.6,11.4z M-4,5.7
			c0.4-0.5,0.8-1,1.2-1.5c0,0.1,0,0.2,0,0.4C-3.1,4.9-3.6,5.3-4,5.7z M-1.9,13c-0.1,0-0.2-0.2-0.6-0.7c-0.1-0.1-0.2-0.2-0.2-0.3
			c0-0.1,0.1-0.1,0.3-0.2c0.1-0.1,0.3-0.2,0.5-0.6c0,0.2-0.1,0.4-0.1,0.5c-0.1,0.1-0.1,0.2-0.1,0.3c0,0.1,0.1,0,0.2,0.1
			c0.1,0.1,0,0.2,0,0.3C-2,12.8-1.8,13-1.9,13z M-2-0.8c0.1-0.2,0.3-0.5,0.5-0.8c0.1-0.1,0.2-0.2,0.3-0.3c-0.1,0.1-0.1,0.2-0.2,0.3
			C-1.6-1.2-1.8-1-2-0.8z M1.5,7.3c1.3-1.6,2.8-3.4,4.7-5.2c1.3-1.3,2.7-2.4,3.9-3.4C9.2-0.5,8.3,0.4,7.3,1.3
			C5.3,3.3,3.3,5.3,1.5,7.3z M7.5,2.1c1-1,2-1.8,2.9-2.5C9.9,0.2,9.3,0.9,8.7,1.5C7.3,3,5.9,4.4,4.6,5.7C5.3,4.6,6.3,3.3,7.5,2.1z
			 M9.8,4.3c1.3-1.2,2.7-2.2,3.9-3.2c-0.9,0.9-1.8,1.8-2.7,2.6C9.1,5.5,7.1,7,5.3,8.4C6.7,7.1,8.2,5.7,9.8,4.3z M11.9,4.4
			C9.9,6.2,8,7.8,6.2,9.1C7.6,7.8,9,6.4,10.6,5c1.3-1.2,2.7-2.2,3.9-3.2C13.7,2.7,12.8,3.5,11.9,4.4z M18.9,2.5
			c-0.9,0.9-1.8,1.8-2.7,2.6c-1.9,1.8-3.8,3.3-5.7,4.7c1.3-1.3,2.8-2.7,4.4-4.1C16.3,4.6,17.6,3.5,18.9,2.5z M7.3,12.1
			c1.8-2.1,3.9-4.3,6.3-6.5c1.1-1,2.2-1.9,3.2-2.7c-1.2,1.2-2.4,2.4-3.5,3.6C11.3,8.3,9.3,10.2,7.3,12.1z M7.7,14.1
			c1.9-1.9,4-3.8,6.2-5.8c1.7-1.5,3.5-3,5.1-4.4c-1.4,1.3-2.8,2.6-4.2,3.9C12.4,10,10.1,12.1,7.7,14.1z M8,15.3c1.3-1.6,3-3.3,5-5.1
			c1.7-1.5,3.4-2.7,4.9-3.6c-1.3,1.2-2.7,2.3-4,3.5C12,11.9,10,13.6,8,15.3z M17.9,8.3c-1.5,1.4-2.9,2.6-4.4,3.7
			c0.3-0.2,0.5-0.5,0.8-0.7c1-0.9,1.9-1.8,2.7-2.6c-0.1,0.1-0.2,0.2-0.4,0.3c-0.1,0.1-0.1,0.1-0.2,0.2c-1.6,1.4-3,2.7-4.3,4
			c-1.1,0.9-2.2,1.8-3.3,2.6c1.3-1.3,2.8-2.7,4.4-4.1c1.2-1.1,2.4-2,3.6-2.9c1.3-1.1,2.5-2.1,3.7-3C19.8,6.5,18.9,7.4,17.9,8.3z"/>
	</defs>
	<clipPath id="SVGID_2_">
		<use xlink:href="#SVGID_1_"  style="overflow:visible;"/>
	</clipPath>
	<g transform="matrix(0.09375001,0,0,0.09375001,0.5,0.49999934)" class="st0">
		<path class="st1" d="M132.7,69.1c0,38.2-31.9,58.9-52.7,50c1.3-0.6,23.3-10.1,23.3-38.7c0-29.8-23-38.8-23.5-39
			c-1.6-0.5-3.1-1-4.7-1.3c-1.5-0.2-3-0.4-4.5-0.4c-21-1.1-42.9,17.8-42.9,51.5c0,59.1,41.1,67.8,51,68.7C43.8,159.5,0,131,0,80.1
			c0-46.2,38.9-80,79.8-80h0.4c3,0,6.2,0.4,9.6,1.2h0.3C106.1,5.9,132.7,23,132.7,69.1z"/>
		<path class="st2" d="M85.5,0.3c-1.8-0.1-3.5-0.2-5.3-0.2C81.5-0.1,83.3,0,85.5,0.3z"/>
		<path class="st2" d="M160,80c0,46.2-38.9,80-79.8,80h-0.6c-0.2,0-0.5-0.1-0.9-0.1c-8.9-1.6-33.4-9.1-33.7-67.8
			C44.7,57,54.6,39.7,70.6,39.7c1.5,0,3,0.2,4.5,0.4c1.6,0.3,3.1,0.7,4.7,1.3c0,0-23.4,9.3-23.4,38.8c0,29,22.1,38.4,23.5,38.9
			c35.4,48.2,70-13.5,70-50.7c-0.1-38.4-34.1-62-59.7-67.2h-0.3c-1.4-0.4-2.7-0.7-3.8-0.9C120,3.3,160,31.4,160,80z"/>
	</g>
</g>
</svg>
