<?xml version="1.0" encoding="utf-8"?>
<!-- Generator: Adobe Illustrator 23.0.0, SVG Export Plug-In . SVG Version: 6.00 Build 0)  -->
<svg version="1.1" id="Layer_1" xmlns="http://www.w3.org/2000/svg" xmlns:xlink="http://www.w3.org/1999/xlink" x="0px" y="0px"
	 viewBox="0 0 16 16" style="enable-background:new 0 0 16 16;" xml:space="preserve">
<style type="text/css">
	.st0{clip-path:url(#SVGID_2_);fill:#F75049;}
</style>
<g>
	<defs>
		<path id="SVGID_1_" d="M18.8,4.3c-0.1-0.1-0.3,0-0.5-0.2c-0.2-0.2-0.1-0.3-0.3-0.4c-0.3-0.2-1.1,0.5-1.2,0.4c0,0,0.3-0.3,0.6-0.6
			c0.2-0.2,0.6-0.6,0.5-0.9c-0.1-0.2-0.2-0.2-0.3-0.3c0-0.2,0.4-0.4,0.4-0.7c0-0.1-0.1-0.3-0.3-0.3c-0.3-0.1-0.7,0.2-0.7,0.2
			c0,0,0.2-0.2,0.4-0.4c0-0.1,0.2-0.3,0.1-0.4c-0.1-0.1-0.2-0.1-0.3-0.1c-0.1,0-0.2,0.1-0.2,0c0,0,0-0.1,0-0.1
			c0-0.2-0.3-0.2-0.5-0.3c-0.5,0-0.9,0.4-0.9,0.4c-0.1-0.1,0.4-0.5,0.3-0.8c0-0.1-0.2-0.2-0.3-0.2c-0.2,0-0.4,0.3-0.4,0.2
			C15-0.3,15.2-0.8,15-1c-0.1-0.1-0.3,0.1-0.5,0c-0.1-0.1-0.1-0.1-0.2-0.2c-0.3-0.1-0.7,0.4-1.2,0.8c-0.2,0.2-0.5,0.5-1,0.7
			c0.2-0.3,0.4-0.5,0.6-0.7c0.4-0.4,0.6-0.6,0.6-0.8c0-0.1,0-0.3-0.1-0.4c-0.2-0.1-0.3,0.2-0.9,0.6c-0.2,0.1-0.3,0.2-0.4,0.2
			c0,0,0.3-0.3,0.2-0.6c0,0-0.1-0.1-0.2-0.2c-0.4-0.3-1-0.2-1.1-0.1C9.9-1.5,9.7-1,8.8-0.5c0,0-0.1,0.1-0.3,0.2
			C8.1-0.2,7.9-0.1,7.9,0C7.6,0.1,7.4,0.3,7.3,0.5C7.2,0.7,7.3,0.9,7.2,1C7,1.2,6.9,1.2,6.8,1.2C6.3,1.3,5.6,2.3,5.6,2.4
			C5.2,2.9,4,4.1,0.9,6.9c4.3-4.5,5.5-5.9,5.6-6c0,0,0,0,0,0c0-0.1,0.1-0.4,0-0.5c-0.1-0.1-0.2,0-0.3-0.1c0,0,0-0.1,0-0.1
			c0-0.2,0.4-0.2,0.4-0.3c0,0-0.1,0-0.2-0.1C6.2-0.4,6.2-0.4,6-0.5C5.8-0.5,5.6-0.4,5.4-0.3C5.3-0.2,5.1-0.1,5.1-0.1
			c0,0,0-0.2,0-0.2C5-0.5,4.9-0.5,4.8-0.5c-0.3,0-0.5,0.3-0.6,0.2c-0.1,0,0-0.1-0.1-0.3C4.1-0.6,4-0.6,3.9-0.7
			C3.7-0.8,3.8-0.9,3.6-1.2C3.5-1.3,3.4-1.4,3.2-1.5C3-1.6,3-1.5,2.8-1.5C2.5-1.6,2.5-1.8,2.3-1.8c-0.1,0-0.3,0-0.4,0.1
			C1.7-1.6,1.7-1.4,1.5-1.4c-0.2,0-0.2-0.2-0.5-0.2c-0.1,0-0.2,0-0.3,0c-0.1,0.1,0,0.3-0.1,0.4c-0.1,0.1-0.2,0-0.2,0
			C0.4-1.2,0.4-1.3,0.4-1.4c-0.2-0.2-1,0-1.3,0.6C-1-0.7-1-0.6-1.1-0.5c-0.1,0.1-0.3,0-0.4,0c-0.3,0-0.4,0.2-1,0.9
			c0,0-0.1,0.1-0.5,0.6c-0.8,0.9-0.9,1-0.9,1.3c0,0.5,0,0.6,0,0.6c0,0.1,0.1,0.2,0,0.3c0,0.1-0.1,0-0.1,0.1C-4.1,3.3-4,3.5-4,3.9
			c0,0,0,0,0,0.2c-0.1,0.5-0.1,0.6,0,0.6C-4,4.8-3.9,4.8-3.9,4.8c0.2,0,0.3-0.1,0.3-0.1c0.3-0.4,0.7-0.8,1-1.2
			C-2.7,3.8-2.8,4-2.9,4.2c-0.1,0.2-0.3,0.4-0.4,0.6c0,0.1-0.1,0.2-0.1,0.3c-0.1,0.2-0.2,0.5-0.1,0.7c0,0.1,0.1,0.1,0.1,0.3
			c0,0.2,0,0.3,0,0.4c0,0.1,0.1,0,0.1,0.1c0.1,0.1,0,0.3,0,0.5c0,0.1,0.1,0.1,0.1,0.3c0.1,0.2-0.1,0.3,0,0.6c0,0.1,0,0.2,0.1,0.2
			c0.1,0.1,0.3-0.1,0.5,0c0.2,0.1,0.1,0.3,0.3,0.3c0.1,0,0.2,0,0.4,0c0,0,0.3,0,0.3,0.1c0,0.1-0.1,0.2-0.2,0.3
			c-0.3,0.2-0.7-0.1-0.8,0c0,0.1,0.1,0.2,0.2,0.3c0.9,0.8,0.9,0.9,1.2,1.1c0.3,0.2,0.2,0.1,0.6,0.3c0.5,0.3,1,0.5,1,0.9
			c0,0.2-0.1,0.2-0.1,0.5c0,0.2,0.1,0.5,0.3,0.6c0.2,0.1,0.3-0.1,0.5-0.1c0.3,0,0.3,0.2,0.5,0.2c0.3,0,0.5-0.4,0.7-0.3
			c0.2,0,0.2,0.2,0.4,0.2c0.2,0.1,0.4,0,0.5,0c0.9-1,2.4-2.4,4.1-4.3c1.5-1.5,1.8-2,2.7-2.8c2.4-2.2,4.8-4,5-3.9
			C15,1.9,13.8,2.9,10,6.6c-2.7,2.5-4.9,4.6-6.4,6.1c0,0.3,0.1,0.4,0.1,0.5c0.2,0.1,0.4-0.2,0.7,0c0.1,0.1,0.2,0.2,0.3,0.4
			c0,0.1,0,0.3,0.1,0.4c0.1,0.1,0.1,0,0.2,0.1c0.2,0.1,0.1,0.3,0.2,0.4c0.1,0.1,0.3,0,0.4,0.2c0,0.1,0,0.1,0,0.2
			c0,0.1,0.1,0.1,0.2,0.2c0,0.2-0.2,0.3-0.3,0.5c0,0.2,0.1,0.2,0.1,0.4c0,0.4-0.5,0.5-0.5,0.8c0,0.2,0.2,0.4,0.4,0.4
			c0.3,0,0.4-0.4,0.7-0.4c0.4,0,0.5,0.5,0.8,0.5c0.2,0,0.3-0.3,0.5-0.3c0.2,0,0.3,0.1,0.4,0C8,17,8,16.8,8.2,16.8c0.1,0,0.1,0,0.2,0
			c0.2,0,0.5-0.3,0.6-0.7c0.1-0.3,0-0.4,0.2-0.7c0.1-0.2,0.3-0.3,0.3-0.3c0.5-0.4,1.1-0.9,1.6-1.4c0.7-0.7,0.8-1,1.3-1.2
			c0.1,0,0.2-0.1,0.4-0.3c0.3-0.3,0.4-0.5,0.5-0.7c0.4-0.7,0.8-0.7,1.5-1.8c0-0.1,0.2-0.3,0.2-0.3c-0.1-0.1-1,1-1.3,0.9
			c-0.1,0-0.1-0.2,0-0.2c0.1-0.5,0.7-0.7,1.7-1.5c0.2-0.2,0.2-0.2,0.4-0.4c0.7-0.7,1.5-1.2,1.8-1.6c0.1-0.2,0.2-0.5,0.2-0.5
			c0-0.1,0-0.1,0-0.2c0.1-0.2,0.2-0.3,0.6-0.8C18.8,4.4,18.8,4.3,18.8,4.3z M3.6,3.6C3.3,3.9,3,4.2,2.8,4.3c0.1-0.2,0.4-0.6,0.7-0.8
			c0.1-0.1,0.3-0.2,0.4-0.3C3.8,3.3,3.7,3.4,3.6,3.6z M3.4,2.5C3.8,2,4.3,1.6,4.7,1.2C4.3,1.6,4,2.1,3.5,2.5C3.2,2.8,3,3.1,2.7,3.3
			C2.9,3,3.1,2.8,3.4,2.5z M-1.6,2.4c0.1-0.2,0.2-0.4,0.4-0.6C-1.1,1.8-1.1,1.7-1,1.7c0,0.1-0.1,0.2-0.1,0.2
			C-1.3,2.1-1.4,2.3-1.6,2.4z M-0.8,9.7C-0.9,9.8-1,9.9-1.1,9.9c0,0,0-0.2,0.1-0.3c0.1-0.1,0.2-0.2,0.3-0.2
			C-0.7,9.5-0.7,9.6-0.8,9.7z M-1.1,5.6c0.3-0.4,0.6-0.7,0.9-1.1c0,0.1,0,0.2,0,0.3C-0.5,5-0.8,5.3-1.1,5.6z M0.4,11
			c0,0-0.1-0.2-0.5-0.5c-0.1-0.1-0.2-0.2-0.1-0.3c0-0.1,0.1-0.1,0.2-0.2C0.1,10,0.3,9.8,0.4,9.6c0,0.2-0.1,0.3-0.1,0.4
			c0,0.1-0.1,0.2-0.1,0.2c0,0,0.1,0,0.1,0.1c0,0.1,0,0.1,0,0.2C0.3,10.8,0.5,10.9,0.4,11z M0.4,0.8c0.1-0.2,0.2-0.4,0.4-0.6
			C0.8,0.2,0.9,0.1,1,0.1c0,0.1-0.1,0.2-0.1,0.2C0.7,0.5,0.5,0.7,0.4,0.8z M2.9,6.7c0.9-1.2,2.1-2.5,3.4-3.8c1-0.9,1.9-1.8,2.9-2.5
			c-0.7,0.6-1.3,1.3-2,1.9C5.7,3.8,4.2,5.3,2.9,6.7z M7.3,3C8,2.2,8.8,1.6,9.4,1.1C9,1.6,8.6,2.1,8.2,2.5c-1,1.1-2,2.1-3,3
			C5.7,4.8,6.4,3.9,7.3,3z M8.9,4.6c1-0.9,1.9-1.6,2.9-2.4c-0.6,0.6-1.3,1.3-2,1.9C8.4,5.4,7,6.6,5.7,7.6C6.7,6.6,7.7,5.6,8.9,4.6z
			 M10.5,4.7C9,6,7.7,7.1,6.3,8.1c1-1,2.1-2,3.2-3c1-0.9,1.9-1.6,2.9-2.4C11.8,3.4,11.2,4,10.5,4.7z M15.6,3.3
			c-0.6,0.6-1.3,1.3-2,1.9c-1.4,1.3-2.8,2.4-4.1,3.4c1-1,2.1-2,3.2-3C13.7,4.8,14.7,4,15.6,3.3z M7.1,10.2c1.3-1.5,2.8-3.1,4.6-4.7
			c0.8-0.7,1.6-1.4,2.4-2c-0.9,0.9-1.7,1.7-2.6,2.6C10,7.5,8.6,8.9,7.1,10.2z M7.4,11.7c1.4-1.4,2.9-2.8,4.5-4.2
			c1.3-1.1,2.5-2.2,3.7-3.2c-1,0.9-2,1.9-3.1,2.9C10.9,8.8,9.1,10.3,7.4,11.7z M7.7,12.6c1-1.1,2.2-2.4,3.7-3.7
			c1.2-1.1,2.5-1.9,3.6-2.7C13.9,7.1,13,8,12,8.8C10.6,10.1,9.1,11.4,7.7,12.6z M14.9,7.5c-1.1,1-2.1,1.9-3.2,2.7
			c0.2-0.2,0.4-0.3,0.6-0.5c0.7-0.6,1.4-1.3,2-1.9C14.2,7.8,14.1,7.9,14,8c-0.1,0-0.1,0.1-0.2,0.1c-1.1,1-2.2,2-3.2,2.9
			c-0.8,0.7-1.6,1.3-2.4,1.9c1-1,2.1-2,3.2-3c0.9-0.8,1.8-1.5,2.6-2.1C15.1,7,16,6.2,16.9,5.6C16.3,6.2,15.6,6.8,14.9,7.5z"/>
	</defs>
	<clipPath id="SVGID_2_">
		<use xlink:href="#SVGID_1_"  style="overflow:visible;"/>
	</clipPath>
	<path class="st0" d="M8,12.7L3.3,8L8,3.3l1.6,1.6L6.4,8L8,9.6l4.7-4.7L8.6,0.8c-0.3-0.3-0.9-0.3-1.2,0L0.8,7.4
		c-0.3,0.3-0.3,0.9,0,1.2l6.6,6.6c0.3,0.3,0.9,0.3,1.2,0l6.6-6.6c0.3-0.3,0.3-0.9,0-1.2l-1-1L8,12.7z"/>
</g>
</svg>
