<?xml version="1.0" encoding="utf-8"?>
<!-- Generator: Adobe Illustrator 23.0.0, SVG Export Plug-In . SVG Version: 6.00 Build 0)  -->
<svg version="1.1" id="Layer_1" xmlns="http://www.w3.org/2000/svg" xmlns:xlink="http://www.w3.org/1999/xlink" x="0px" y="0px"
	 viewBox="0 0 16 16" style="enable-background:new 0 0 16 16;" xml:space="preserve">
<style type="text/css">
	.st0{clip-path:url(#SVGID_2_);fill-rule:evenodd;clip-rule:evenodd;fill:#F75049;}
</style>
<g>
	<defs>
		<path id="SVGID_1_" d="M22.1,2.4c-0.1-0.2-0.4,0-0.7-0.3c-0.3-0.2-0.2-0.4-0.4-0.5c-0.5-0.3-1.6,0.6-1.6,0.6c0,0,0.5-0.3,0.9-0.8
			c0.3-0.3,0.8-0.9,0.6-1.2c-0.1-0.2-0.3-0.2-0.4-0.4c-0.1-0.3,0.6-0.5,0.5-0.9c0-0.2-0.2-0.4-0.4-0.4c-0.4-0.2-1,0.3-1,0.3
			c0,0,0.3-0.2,0.5-0.6c0-0.1,0.2-0.4,0.1-0.6c-0.1-0.1-0.3-0.1-0.5-0.1c-0.1,0-0.2,0.1-0.3,0.1c0,0,0-0.1,0-0.2
			c0-0.2-0.4-0.3-0.7-0.4c-0.6-0.1-1.2,0.6-1.2,0.5c-0.1-0.1,0.6-0.7,0.5-1.1C18-3.9,17.8-4,17.6-4c-0.3,0-0.5,0.4-0.6,0.3
			c-0.2-0.1,0.1-0.9-0.1-1.1c-0.2-0.1-0.4,0.1-0.7,0C16-4.9,16-5,15.9-5c-0.4-0.2-0.9,0.5-1.6,1.1c-0.3,0.3-0.8,0.6-1.4,1
			c0.3-0.4,0.6-0.7,0.8-0.9c0.5-0.6,0.8-0.8,0.8-1.1c0-0.2,0-0.5-0.2-0.5c-0.2-0.1-0.5,0.2-1.3,0.8c-0.2,0.1-0.4,0.3-0.5,0.3
			c0,0,0.4-0.4,0.2-0.9c0,0-0.1-0.2-0.2-0.3c-0.5-0.4-1.4-0.2-1.5-0.2c-1.1,0.3-1.3,1-2.6,1.6c0,0-0.2,0.1-0.4,0.2
			C7.4-3.7,7.2-3.5,7.1-3.5C6.8-3.2,6.5-3.1,6.4-2.7C6.2-2.4,6.3-2.2,6.1-2C5.9-1.8,5.7-1.8,5.7-1.8C4.9-1.6,4-0.3,3.9-0.2
			C3.4,0.5,1.8,2.2-2.5,6.1C3.3-0.1,5.1-2,5.2-2.2c0,0,0,0,0,0c0-0.1,0.2-0.5,0-0.7C5.1-3,4.9-2.9,4.9-3.1c0,0-0.1-0.1,0-0.2
			c0-0.2,0.5-0.3,0.5-0.4c0,0-0.1-0.1-0.2-0.1C4.7-3.9,4.7-4,4.6-4.1C4.3-4.1,4-4,3.8-3.9C3.5-3.7,3.3-3.6,3.3-3.6
			c-0.1,0,0.1-0.2,0-0.3C3.2-4.1,3-4,2.9-4C2.5-4,2.2-3.7,2.1-3.8C2-3.8,2.1-4,2-4.1C1.9-4.3,1.8-4.2,1.6-4.4C1.3-4.6,1.4-4.7,1.2-5
			C1.1-5.2,1-5.4,0.7-5.5c-0.3-0.1-0.3,0-0.6-0.1c-0.3-0.1-0.3-0.3-0.6-0.3c-0.2,0-0.4,0-0.5,0.1c-0.4,0.2-0.4,0.4-0.6,0.4
			c-0.2,0-0.3-0.2-0.7-0.3c-0.1,0-0.3,0-0.3,0c-0.2,0.1,0,0.5-0.1,0.6C-2.8-5-3-5-3.1-5.1c-0.1-0.1-0.1-0.2-0.2-0.3
			C-3.5-5.6-4.6-5.2-5-4.5C-5-4.4-5.1-4.3-5.2-4.2c-0.2,0.1-0.4,0-0.6,0c-0.4,0-0.6,0.3-1.3,1.2c0,0-0.2,0.2-0.7,0.8
			C-8.9-1-9.1-0.8-9.1-0.5c0,0.6,0.1,0.9,0.1,0.9C-9,0.6-9,0.8-9,0.9C-9.1,1-9.2,0.9-9.2,1c-0.1,0.2,0.1,0.4,0,0.9c0,0,0,0-0.1,0.3
			c-0.1,0.7-0.1,0.8,0,0.9C-9.2,3.2-9.1,3.2-9,3.2c0.2,0,0.4-0.1,0.4-0.1C-8.1,2.5-7.6,2-7.2,1.4c-0.2,0.4-0.4,0.7-0.5,0.9
			c-0.2,0.3-0.4,0.5-0.6,0.9c-0.1,0.1-0.1,0.3-0.2,0.4c-0.1,0.3-0.2,0.6-0.1,0.9c0.1,0.1,0.1,0.2,0.2,0.4c0,0.2-0.1,0.3,0,0.5
			c0.1,0.1,0.1,0.1,0.2,0.2c0.1,0.2,0,0.4,0,0.7C-8.1,6.5-8,6.4-8,6.6C-7.9,7-8.1,7.1-8,7.5c0,0.2,0,0.3,0.1,0.3
			C-7.7,8-7.4,7.8-7.2,7.9C-7,8-7,8.3-6.8,8.4c0.1,0.1,0.2-0.1,0.5-0.1c0,0,0.4,0,0.4,0.2c0,0.1-0.1,0.3-0.3,0.4
			c-0.4,0.2-1-0.1-1.1,0c0,0.1,0.2,0.3,0.3,0.4c1.2,1.2,1.2,1.2,1.6,1.5c0.4,0.2,0.3,0.1,0.8,0.4c0.6,0.4,1.3,0.7,1.3,1.2
			c0,0.3-0.2,0.3-0.2,0.7c0,0.3,0.1,0.7,0.4,0.8c0.2,0.1,0.4-0.2,0.7-0.1c0.4,0,0.4,0.3,0.7,0.3c0.5,0,0.6-0.5,1-0.4
			c0.2,0,0.2,0.2,0.5,0.3c0.2,0.1,0.5,0,0.7,0c1.3-1.3,3.3-3.3,5.7-5.9c2-2.1,2.5-2.7,3.7-3.8c3.2-3.1,6.6-5.5,6.8-5.3
			c0.1,0.1-1.5,1.6-6.8,6.6C6.3,9.1,3.3,12,1.2,14c0,0.4,0.1,0.6,0.2,0.6c0.3,0.2,0.6-0.2,0.9,0c0.1,0.1,0.3,0.3,0.4,0.5
			c0.1,0.2,0,0.4,0.1,0.5c0.1,0.1,0.1,0,0.2,0.1c0.2,0.2,0.1,0.4,0.3,0.6c0.2,0.2,0.5,0.1,0.5,0.2c0,0.1-0.1,0.2,0,0.3
			C4,17,4.2,17,4.2,17.2c0.1,0.2-0.3,0.3-0.4,0.7c-0.1,0.3,0.1,0.3,0.1,0.6c0,0.6-0.7,0.7-0.7,1.2c0,0.3,0.3,0.6,0.5,0.6
			c0.4,0.1,0.6-0.5,1-0.5c0.5,0,0.7,0.7,1.1,0.7c0.3-0.1,0.4-0.4,0.7-0.5c0.2,0,0.4,0.1,0.5,0c0.2-0.1,0.1-0.3,0.3-0.3
			c0.1,0,0.1,0,0.2,0c0.3,0,0.7-0.5,0.8-1c0.1-0.5,0-0.6,0.2-1c0.2-0.3,0.4-0.4,0.5-0.5c0.7-0.5,1.5-1.2,2.2-2c1-1,1.1-1.4,1.8-1.7
			c0.1-0.1,0.3-0.2,0.6-0.4c0.4-0.3,0.5-0.7,0.7-1c0.5-1,1-1,2.1-2.5c0-0.1,0.3-0.4,0.2-0.4c-0.1-0.1-1.4,1.4-1.8,1.2
			c-0.1-0.1-0.1-0.2-0.1-0.3c0.1-0.7,1-1,2.3-2.1c0.3-0.3,0.2-0.2,0.6-0.6c1-0.9,2.1-1.6,2.4-2.1c0.2-0.3,0.3-0.7,0.3-0.7
			c0-0.1,0-0.2,0.1-0.2c0.1-0.3,0.3-0.5,0.8-1.1C22.1,2.7,22.1,2.5,22.1,2.4z M1.2,1.5C0.8,1.9,0.4,2.3,0.1,2.5
			c0.2-0.3,0.5-0.8,1-1.2C1.2,1.2,1.4,1.1,1.6,1C1.5,1.1,1.4,1.3,1.2,1.5z M0.9,0c0.6-0.7,1.2-1.2,1.7-1.7C2.2-1.2,1.7-0.6,1.1,0.1
			C0.7,0.5,0.3,0.8,0,1.1C0.3,0.8,0.6,0.4,0.9,0z M-5.9-0.1c0.1-0.2,0.3-0.5,0.5-0.8C-5.3-1-5.2-1.1-5.1-1.1C-5.1-1-5.2-0.9-5.3-0.8
			C-5.5-0.5-5.7-0.3-5.9-0.1z M-4.9,9.9c-0.1,0.2-0.3,0.2-0.3,0.2c0-0.1,0-0.2,0.1-0.4c0.1-0.2,0.3-0.2,0.4-0.2
			C-4.7,9.6-4.7,9.8-4.9,9.9z M-5.3,4.2c0.4-0.5,0.8-1,1.2-1.5C-4,2.9-4,3-4,3.1C-4.4,3.5-4.8,3.8-5.3,4.2z M-3.1,11.6
			c-0.1,0-0.2-0.2-0.6-0.7c-0.1-0.1-0.2-0.2-0.2-0.3c0-0.1,0.1-0.1,0.3-0.2c0.1-0.1,0.3-0.2,0.5-0.6c0,0.2-0.1,0.4-0.1,0.5
			c-0.1,0.1-0.1,0.2-0.1,0.3c0,0.1,0.1,0,0.2,0.1c0.1,0.1,0,0.2,0,0.3C-3.3,11.4-3.1,11.6-3.1,11.6z M-3.2-2.3
			C-3.1-2.5-3-2.8-2.7-3.1c0.1-0.1,0.2-0.2,0.3-0.3C-2.5-3.2-2.5-3.1-2.6-3C-2.8-2.7-3-2.4-3.2-2.3z M0.2,5.8
			c1.3-1.6,2.8-3.4,4.7-5.2c1.3-1.3,2.7-2.4,3.9-3.4C7.9-1.9,7-1.1,6.1-0.2C4,1.9,2.1,3.9,0.2,5.8z M6.3,0.6c1-1,2-1.8,2.9-2.5
			C8.6-1.2,8.1-0.6,7.5,0.1C6.1,1.6,4.7,3,3.3,4.2C4.1,3.1,5,1.9,6.3,0.6z M8.5,2.8c1.3-1.2,2.7-2.2,4-3.2c-0.9,0.9-1.8,1.8-2.7,2.6
			C7.8,4,5.9,5.6,4.1,7C5.4,5.6,6.9,4.2,8.5,2.8z M10.6,3C8.7,4.8,6.8,6.3,5,7.7C6.3,6.4,7.8,5,9.4,3.6c1.3-1.2,2.7-2.2,4-3.2
			C12.5,1.2,11.6,2.1,10.6,3z M17.7,1.1C16.9,2,15.9,2.8,15,3.7C13,5.5,11.1,7.1,9.3,8.5c1.4-1.3,2.8-2.7,4.5-4.1
			C15.1,3.1,16.4,2.1,17.7,1.1z M6,10.6c1.8-2.1,3.9-4.3,6.3-6.5c1.1-1,2.2-1.9,3.2-2.7C14.4,2.6,13.2,3.8,12,5C10,6.9,8,8.8,6,10.6
			z M6.5,12.7c1.9-1.9,4-3.8,6.2-5.8c1.7-1.5,3.5-3,5.1-4.4c-1.4,1.3-2.8,2.6-4.2,3.9C11.2,8.6,8.8,10.7,6.5,12.7z M6.8,13.9
			c1.3-1.6,3-3.3,5.1-5.1c1.7-1.5,3.4-2.7,4.9-3.6c-1.3,1.2-2.7,2.3-4,3.5C10.8,10.4,8.8,12.2,6.8,13.9z M16.7,6.9
			c-1.5,1.4-2.9,2.6-4.4,3.7c0.3-0.2,0.5-0.5,0.8-0.7c1-0.9,1.9-1.8,2.7-2.6c-0.1,0.1-0.2,0.2-0.4,0.3c-0.1,0.1-0.1,0.1-0.2,0.2
			c-1.6,1.4-3,2.7-4.3,4c-1.1,0.9-2.2,1.8-3.3,2.6c1.4-1.3,2.8-2.7,4.5-4.1c1.2-1.1,2.4-2,3.6-2.9c1.3-1.1,2.5-2.1,3.7-3
			C18.6,5.1,17.7,6,16.7,6.9z"/>
	</defs>
	<clipPath id="SVGID_2_">
		<use xlink:href="#SVGID_1_"  style="overflow:visible;"/>
	</clipPath>
	<path class="st0" d="M11.7,1.1c0-0.6,0.5-1.1,1.1-1.1c0.6,0,1.1,0.5,1.1,1.1s-0.5,1.1-1.1,1.1C12.1,2.2,11.7,1.7,11.7,1.1L11.7,1.1
		L11.7,1.1z"/>
	<path class="st0" d="M1.9,14.9c0-0.6,0.5-1.1,1.1-1.1c0.6,0,1.1,0.5,1.1,1.1C4.1,15.5,3.6,16,3,16C2.4,16,1.9,15.5,1.9,14.9
		L1.9,14.9L1.9,14.9z"/>
	<path class="st0" d="M1.9,2.2c0-0.5,0.4-0.9,0.9-0.9s0.9,0.4,0.9,0.9S3.3,3.1,2.8,3.1S1.9,2.7,1.9,2.2L1.9,2.2z"/>
	<path class="st0" d="M8.1,1.8c-2.9,0-5.3,1.9-6,4.7c1.1-1.2,3.4-2,6-2c2.6,0,4.9,0.8,6,2.1C13.4,3.7,10.9,1.8,8.1,1.8L8.1,1.8z"/>
	<path class="st0" d="M2.1,9.5c0.7,2.8,3.2,4.7,6,4.7c2.9,0,5.3-1.9,6-4.7c-1.1,1.2-3.4,2-6,2C5.5,11.6,3.2,10.8,2.1,9.5L2.1,9.5z"
		/>
</g>
</svg>
