<?xml version="1.0" encoding="utf-8"?>
<!-- Generator: Adobe Illustrator 23.0.0, SVG Export Plug-In . SVG Version: 6.00 Build 0)  -->
<svg version="1.1" id="Layer_1" xmlns="http://www.w3.org/2000/svg" xmlns:xlink="http://www.w3.org/1999/xlink" x="0px" y="0px"
	 viewBox="0 0 16 16" style="enable-background:new 0 0 16 16;" xml:space="preserve">
<style type="text/css">
	.st0{clip-path:url(#SVGID_2_);fill:#F75049;}
</style>
<g>
	<defs>
		<path id="SVGID_1_" d="M20.4,6c-0.1-0.1-0.3,0-0.6-0.2c-0.2-0.2-0.2-0.3-0.3-0.4c-0.4-0.2-1.3,0.5-1.3,0.5c0,0,0.4-0.3,0.7-0.7
			c0.2-0.2,0.6-0.7,0.5-1C19.4,4,19.2,4,19.1,3.8c0-0.3,0.5-0.4,0.4-0.7c0-0.2-0.2-0.3-0.3-0.3C18.9,2.6,18.5,3,18.5,3
			c0,0,0.3-0.2,0.4-0.5c0-0.1,0.2-0.3,0.1-0.5c-0.1-0.1-0.3-0.1-0.4-0.1c-0.1,0-0.2,0.1-0.2,0c0,0,0-0.1,0-0.2
			c0-0.2-0.3-0.3-0.6-0.3c-0.5,0-0.9,0.5-1,0.4c-0.1-0.1,0.5-0.5,0.4-0.9c0-0.1-0.2-0.3-0.4-0.3c-0.3,0-0.4,0.3-0.5,0.3
			c-0.1-0.1,0.1-0.7-0.1-0.9c-0.1-0.1-0.3,0.1-0.6,0c-0.2-0.1-0.2-0.1-0.3-0.2C15-0.1,14.6,0.4,14,0.9c-0.2,0.2-0.6,0.5-1.1,0.8
			c0.3-0.3,0.5-0.6,0.7-0.7c0.4-0.4,0.6-0.6,0.6-0.9c0-0.1,0-0.4-0.2-0.4c-0.2-0.1-0.4,0.2-1.1,0.6c-0.2,0.1-0.3,0.2-0.4,0.3
			c0,0,0.3-0.4,0.2-0.7c0,0-0.1-0.2-0.2-0.3c-0.4-0.3-1.1-0.2-1.2-0.2c-0.9,0.2-1.1,0.8-2.1,1.3c0,0-0.1,0.1-0.3,0.2
			C8.4,1.1,8.2,1.2,8.2,1.3C7.9,1.5,7.7,1.6,7.6,1.9C7.5,2.1,7.5,2.3,7.4,2.4C7.2,2.6,7.1,2.6,7,2.6C6.4,2.8,5.7,3.8,5.6,4
			C5.2,4.5,3.9,5.9,0.4,9c4.7-5,6.2-6.6,6.2-6.7c0,0,0,0,0,0c0-0.1,0.2-0.4,0-0.6c-0.1-0.1-0.2,0-0.3-0.1c0,0,0-0.1,0-0.1
			c0-0.2,0.4-0.2,0.4-0.3c0,0-0.1-0.1-0.2-0.1C6.3,0.9,6.3,0.8,6.1,0.8C5.9,0.7,5.6,0.9,5.5,1C5.3,1.1,5.1,1.2,5.1,1.2
			c0,0,0-0.2,0-0.3C5,0.8,4.8,0.8,4.8,0.8C4.4,0.8,4.2,1.1,4.1,1c-0.1,0,0-0.2-0.1-0.3C4,0.6,3.8,0.6,3.7,0.5C3.5,0.4,3.6,0.3,3.4,0
			C3.3-0.1,3.2-0.3,3-0.4c-0.2-0.1-0.3,0-0.5-0.1C2.2-0.5,2.2-0.7,2-0.7c-0.2,0-0.3,0-0.4,0.1C1.3-0.5,1.3-0.3,1.1-0.3
			c-0.2,0-0.2-0.2-0.5-0.2c-0.1,0-0.2,0-0.3,0C0.2-0.4,0.3-0.1,0.2,0C0.1,0,0,0-0.1,0c-0.1-0.1-0.1-0.1-0.1-0.2
			c-0.2-0.2-1.1,0.1-1.4,0.6c0,0.1-0.1,0.2-0.2,0.3c-0.2,0.1-0.3,0-0.5,0c-0.3,0-0.5,0.2-1.1,1c0,0-0.1,0.1-0.6,0.6
			c-0.9,1-1,1.1-1.1,1.4c0,0.5,0,0.7,0,0.7c0,0.1,0.1,0.3,0,0.4C-5,4.9-5,4.8-5.1,4.9C-5.2,5-5,5.3-5.1,5.7c0,0,0,0,0,0.3
			c-0.1,0.5-0.1,0.6,0,0.7C-5.1,6.7-5,6.7-4.9,6.7c0.2,0,0.3-0.1,0.4-0.1c0.4-0.5,0.8-0.9,1.1-1.4C-3.6,5.5-3.7,5.8-3.8,6
			C-4,6.2-4.2,6.4-4.3,6.7c0,0.1-0.1,0.2-0.2,0.4c-0.1,0.2-0.2,0.5-0.1,0.8c0,0.1,0.1,0.2,0.1,0.3c0,0.2,0,0.3,0,0.4
			c0,0.1,0.1,0.1,0.2,0.1c0.1,0.1,0,0.3,0,0.6c0,0.2,0.1,0.1,0.1,0.3c0.1,0.3-0.1,0.4,0,0.7c0,0.1,0,0.2,0.1,0.3
			c0.1,0.1,0.4-0.1,0.6,0c0.2,0.1,0.1,0.3,0.3,0.4c0.1,0,0.2-0.1,0.4,0c0,0,0.3,0,0.3,0.1c0,0.1-0.1,0.3-0.3,0.4
			c-0.4,0.2-0.8-0.1-0.9,0c0,0.1,0.1,0.2,0.2,0.3c1,0.9,1,1,1.3,1.2c0.3,0.2,0.3,0.1,0.7,0.3c0.5,0.3,1.1,0.6,1.1,1
			c0,0.2-0.2,0.3-0.1,0.6c0,0.2,0.1,0.5,0.3,0.6c0.2,0.1,0.3-0.1,0.6-0.1c0.3,0,0.3,0.2,0.6,0.3c0.4,0,0.5-0.4,0.8-0.4
			c0.2,0,0.2,0.2,0.4,0.3c0.2,0.1,0.4,0,0.5,0c1-1.1,2.6-2.7,4.6-4.8c1.6-1.7,2.1-2.2,3-3.1c2.6-2.5,5.4-4.5,5.5-4.3
			c0.1,0.1-1.2,1.3-5.5,5.4c-3,2.8-5.4,5.2-7.1,6.8c0,0.3,0.1,0.5,0.2,0.5c0.2,0.1,0.5-0.2,0.8,0c0.1,0.1,0.3,0.2,0.3,0.4
			c0,0.2,0,0.3,0.1,0.4c0.1,0.1,0.1,0,0.2,0.1c0.2,0.2,0.1,0.3,0.3,0.5c0.2,0.1,0.4,0,0.4,0.2c0,0.1,0,0.1,0,0.3
			c0,0.1,0.2,0.1,0.2,0.3c0,0.2-0.3,0.3-0.3,0.6c0,0.2,0.1,0.2,0.1,0.5C5.5,19.6,5,19.7,5,20c0,0.2,0.2,0.4,0.4,0.5
			c0.3,0,0.5-0.4,0.8-0.4c0.4,0,0.6,0.6,0.9,0.5c0.3,0,0.3-0.4,0.6-0.4c0.2,0,0.3,0.1,0.4,0c0.1-0.1,0.1-0.2,0.3-0.3
			c0.1,0,0.1,0,0.2,0c0.2,0,0.6-0.4,0.7-0.8c0.1-0.4,0-0.5,0.2-0.8c0.1-0.2,0.3-0.3,0.4-0.4c0.5-0.4,1.2-1,1.8-1.6
			c0.8-0.8,0.9-1.1,1.5-1.4c0.1,0,0.3-0.1,0.5-0.3c0.3-0.3,0.4-0.6,0.6-0.8c0.4-0.8,0.8-0.8,1.7-2c0-0.1,0.2-0.3,0.2-0.4
			c-0.1-0.1-1.2,1.1-1.4,1c-0.1-0.1-0.1-0.2-0.1-0.2c0.1-0.6,0.8-0.8,1.9-1.7c0.3-0.2,0.2-0.2,0.5-0.5c0.8-0.7,1.7-1.3,2-1.7
			c0.1-0.3,0.2-0.6,0.2-0.6c0-0.1,0-0.1,0.1-0.2c0.1-0.3,0.2-0.4,0.7-0.9C20.4,6.2,20.4,6.1,20.4,6z M3.4,5.3
			C3.1,5.7,2.8,5.9,2.5,6.1c0.2-0.3,0.4-0.6,0.8-0.9C3.4,5.1,3.6,5,3.7,4.9C3.6,5,3.5,5.1,3.4,5.3z M3.2,4.1c0.5-0.5,1-1,1.4-1.4
			c-0.3,0.5-0.8,1-1.3,1.5C3,4.5,2.7,4.7,2.4,5C2.6,4.7,2.9,4.4,3.2,4.1z M-2.4,4c0.1-0.2,0.2-0.4,0.4-0.6c0.1-0.1,0.2-0.2,0.2-0.2
			c0,0.1-0.1,0.2-0.2,0.3C-2,3.7-2.2,3.9-2.4,4z M-1.5,12.2c-0.1,0.1-0.2,0.2-0.3,0.2c0,0,0-0.2,0.1-0.3c0.1-0.1,0.3-0.2,0.3-0.2
			C-1.4,11.9-1.4,12-1.5,12.2z M-1.8,7.5c0.3-0.4,0.7-0.8,1-1.2c0,0.1,0,0.2,0,0.3C-1.2,6.9-1.5,7.2-1.8,7.5z M-0.1,13.5
			c0,0-0.2-0.2-0.5-0.6c-0.1-0.1-0.2-0.2-0.2-0.3c0-0.1,0.1-0.1,0.2-0.2c0.1-0.1,0.3-0.2,0.4-0.5c0,0.2-0.1,0.3-0.1,0.4
			c0,0.1-0.1,0.2-0.1,0.3c0,0.1,0.1,0,0.1,0.1c0.1,0.1,0,0.2,0,0.3C-0.2,13.3-0.1,13.5-0.1,13.5z M-0.2,2.2C-0.1,2,0,1.8,0.2,1.6
			c0.1-0.1,0.2-0.2,0.2-0.2c0,0.1-0.1,0.2-0.2,0.3C0.1,1.9-0.1,2.1-0.2,2.2z M2.6,8.8c1-1.3,2.3-2.8,3.8-4.2c1.1-1.1,2.2-2,3.2-2.8
			C8.9,2.5,8.1,3.2,7.4,4C5.7,5.6,4.1,7.2,2.6,8.8z M7.5,4.6c0.8-0.8,1.6-1.5,2.4-2C9.4,3.1,9,3.6,8.5,4.1C7.4,5.4,6.2,6.5,5.1,7.5
			C5.7,6.6,6.5,5.6,7.5,4.6z M9.4,6.4c1.1-0.9,2.2-1.8,3.2-2.6c-0.7,0.7-1.4,1.4-2.2,2.1C8.8,7.4,7.2,8.6,5.7,9.8
			C6.8,8.7,8,7.5,9.4,6.4z M11.1,6.5C9.5,8,7.9,9.2,6.4,10.4C7.5,9.3,8.8,8.1,10.1,7c1.1-0.9,2.2-1.8,3.2-2.6
			C12.6,5.1,11.8,5.8,11.1,6.5z M16.8,5c-0.7,0.7-1.4,1.4-2.2,2.1C13,8.6,11.5,9.8,10,11c1.1-1.1,2.3-2.2,3.6-3.4
			C14.7,6.6,15.8,5.8,16.8,5z M7.3,12.7c1.4-1.7,3.1-3.5,5.1-5.3c0.9-0.8,1.8-1.5,2.6-2.2c-1,1-1.9,1.9-2.9,2.9
			C10.6,9.7,8.9,11.2,7.3,12.7z M7.7,14.4c1.6-1.5,3.2-3.1,5-4.7c1.4-1.3,2.8-2.4,4.2-3.5c-1.1,1.1-2.3,2.1-3.4,3.2
			C11.5,11.1,9.6,12.8,7.7,14.4z M8,15.4c1.1-1.3,2.5-2.7,4.1-4.1c1.4-1.2,2.7-2.2,4-3c-1.1,1-2.2,1.9-3.3,2.9
			C11.2,12.6,9.6,14,8,15.4z M16,9.7c-1.2,1.1-2.4,2.1-3.6,3c0.2-0.2,0.4-0.4,0.6-0.6c0.8-0.7,1.5-1.4,2.2-2.1
			c-0.1,0.1-0.2,0.1-0.3,0.2c-0.1,0-0.1,0.1-0.2,0.2c-1.3,1.1-2.4,2.2-3.5,3.3c-0.9,0.8-1.8,1.5-2.7,2.1c1.1-1.1,2.3-2.2,3.6-3.4
			c1-0.9,2-1.7,2.9-2.4c1-0.9,2.1-1.7,3-2.5C17.5,8.2,16.8,8.9,16,9.7z"/>
	</defs>
	<clipPath id="SVGID_2_">
		<use xlink:href="#SVGID_1_"  style="overflow:visible;"/>
	</clipPath>
	<path class="st0" d="M15.1,0c-0.2,0-0.5,0.1-0.7,0.3L8.2,5.4C8.1,5.5,8.1,5.5,8,5.6L4,8.8L7.2,12l3.2-4l5.4-6.4
		c0.3-0.4,0.3-1,0-1.3C15.6,0.1,15.3,0,15.1,0z"/>
	<polygon class="st0" points="8.8,6.4 9.6,7.2 7.2,10 6,8.8 	"/>
	<path class="st0" d="M8.8,6.7L8.8,6.7C8.8,6.8,8.8,6.7,8.8,6.7z"/>
	<path class="st0" d="M3.2,9.6L0.5,11C0.2,11.2,0,11.4,0,11.6c0,0.3,0,0.7,0.1,1.1l2.7-1.7l-2.7,2c0.1,0.6,0.5,1.2,1.1,1.8
		c0.3,0.3,0.7,0.5,1,0.7l1.2-1l-0.8,1.2C3.3,16,4,16,4.4,16c0.3,0,0.5-0.2,0.6-0.4l1.4-2.8L3.2,9.6z"/>
</g>
</svg>
