<?xml version="1.0" encoding="utf-8"?>
<!-- Generator: Adobe Illustrator 23.0.0, SVG Export Plug-In . SVG Version: 6.00 Build 0)  -->
<svg version="1.1" id="Layer_1" xmlns="http://www.w3.org/2000/svg" xmlns:xlink="http://www.w3.org/1999/xlink" x="0px" y="0px"
	 viewBox="0 0 16 16" style="enable-background:new 0 0 16 16;" xml:space="preserve">
<style type="text/css">
	.st0{fill-rule:evenodd;clip-rule:evenodd;fill:#F75049;}
</style>
<path class="st0" d="M1.8,6.2H1.2L0.7,7.8L0,9.8h0.7L0.9,9h1.2l0.1,0.4l0.1,0.4h0.7L1.8,6.2z M1.9,8.7c0,0.1-0.1,0.1-0.1,0.1
	C1.7,8.7,1.7,8.7,1.9,8.7c0-0.1,0-0.1,0.1-0.2C1.9,8.5,1.9,8.6,1.9,8.7z M1.1,8.5l0.1-0.2L1.3,8l0.2-0.6c0,0,0-0.2,0.1-0.4
	c0,0.2,0.1,0.3,0.1,0.4L2,8.5H1.1z M2.3,8.9c0,0,0.1-0.1,0.1-0.1c0.1,0,0.2-0.1,0.2-0.2c0,0.1,0,0.2-0.1,0.2c0,0-0.1,0.1,0,0.1
	c0,0,0,0,0.1,0c0,0,0,0.1,0,0.1c0,0.1,0.1,0.2,0,0.3c0,0-0.1-0.1-0.3-0.3C2.3,9,2.2,9,2.3,8.9z M5.1,9.8c0.3,0,0.5-0.1,0.8-0.3
	c0.3-0.2,0.4-0.5,0.4-0.8C5.8,9.2,5.4,9.5,5.1,9.8z M6.1,8.4C6,8.3,5.9,8.1,5.8,8C5.7,8,5.6,7.9,5.5,7.8c-0.1,0-0.2-0.1-0.4-0.2
	c0,0-0.1,0-0.1,0c-0.1,0-0.1-0.1-0.1-0.1c0,0-0.1,0-0.1-0.1c0,0-0.1,0-0.1,0s0,0-0.1,0c0,0-0.1,0-0.1-0.1c0,0,0,0-0.1-0.1
	c0,0,0,0,0-0.1c0,0,0,0,0-0.1c0-0.1,0-0.2,0.1-0.3c0.1-0.1,0.2-0.1,0.4-0.1c0.3,0,0.5,0.1,0.6,0.4L6,6.9C6,6.7,5.8,6.5,5.6,6.4
	C5.4,6.2,5.2,6.1,4.9,6.1c0,0-0.1,0-0.1,0C4.5,6.4,4.3,6.7,4,6.9c0.2-0.2,0.4-0.5,0.6-0.7C4.4,6.2,4.2,6.3,4,6.4
	C3.8,6.6,3.7,6.8,3.7,7.1c0,0.1,0,0.3,0.1,0.4c0,0.1,0.1,0.2,0.3,0.3C4.2,7.9,4.3,7.9,4.4,8C4.5,8,4.6,8.1,4.8,8.2
	C5,8.3,5.2,8.4,5.3,8.5c0.1,0.1,0.2,0.2,0.2,0.3c0,0.2-0.1,0.3-0.2,0.3C5.3,9.2,5.1,9.3,5,9.3c-0.2,0-0.3-0.1-0.5-0.2
	C4.4,9,4.2,8.9,4.2,8.7L3.6,8.9c0.1,0.3,0.3,0.5,0.5,0.7c0.2,0.1,0.4,0.2,0.7,0.2C5.2,9.5,5.6,9,6.1,8.4C6.1,8.4,6.1,8.4,6.1,8.4z
	 M7.7,9C7.6,9.1,7.4,9.3,7.2,9.4c0,0,0,0,0,0.1c0.1,0.1,0.2,0.1,0.3,0.2C7.7,9.5,7.8,9.3,8,9.2C7.9,9.2,7.8,9.1,7.7,9z M9.2,8.9
	C9,9.1,8.8,9.3,8.7,9.4C8.5,9.6,8.3,9.7,8.2,9.8c0,0,0.1,0,0.1,0c0.5,0,0.9-0.3,1.2-0.8L9.2,8.9z M8.9,8.8C8.7,9.1,8.5,9.3,8.3,9.3
	c0,0-0.1,0-0.1,0C8,9.4,7.8,9.6,7.6,9.7c0,0,0,0,0.1,0c0.1,0,0.2,0.1,0.3,0.1c0.3-0.3,0.7-0.6,1-0.9L8.9,8.8z M7.7,8.9
	C7.5,8.7,7.5,8.4,7.5,8.1C7.3,8.3,7.1,8.5,6.9,8.7C6.9,8.8,6.9,8.9,7,9C7,9.2,7.1,9.3,7.2,9.4C7.4,9.2,7.5,9.1,7.7,8.9
	C7.7,8.9,7.7,8.9,7.7,8.9z M6.8,8.2c0,0.1,0,0.2,0,0.3c0,0,0,0.1,0,0.1C7,8.4,7.2,8.2,7.5,8c0-0.2,0-0.3,0-0.4C7.3,7.8,7,8,6.8,8.2z
	 M9.4,6.8c0,0.1-0.1,0.1-0.1,0.1L9.4,6.8C9.4,6.9,9.4,6.9,9.4,6.8z M9,6.4C9,6.3,8.9,6.3,8.8,6.3C8.7,6.4,8.5,6.6,8.3,6.7
	c0.1,0,0.2,0,0.3,0.1C8.7,6.7,8.9,6.5,9,6.4C9,6.4,9,6.4,9,6.4z M9.2,6.5C9.2,6.5,9.1,6.5,9.2,6.5C9,6.7,8.8,6.8,8.7,6.9
	c0.1,0,0.1,0.1,0.2,0.2C9,7,9.2,6.9,9.3,6.7C9.3,6.6,9.2,6.6,9.2,6.5z M8.3,6.2c-0.1,0-0.2,0-0.3,0C7.6,6.5,7.3,6.8,7,7
	C6.9,7.1,6.9,7.2,6.9,7.3c0,0.1,0,0.3-0.1,0.4c0.7-0.8,1-1,1.4-1.5C8.3,6.2,8.3,6.2,8.3,6.2L8.3,6.2z M12.3,6.2
	c-0.4,0.3-0.7,0.7-1.1,1.1v2h-0.8v0.5h2.2V9.3h-0.8V6.7h0.8V6.2H12.3z M10.4,6.6v0.1h0.8v0.4c0.4-0.3,0.8-0.6,1.1-0.9h-1.5
	C10.7,6.3,10.6,6.5,10.4,6.6z M10.4,6.2v0.3c0.1-0.1,0.2-0.2,0.3-0.3H10.4z M16,6.7V6.2h-2.2v0.5h0.8v2.5h-0.8v0.5H16V9.3h-0.8V6.7
	H16z"/>
</svg>
