<?xml version="1.0" encoding="utf-8"?>
<!-- Generator: Adobe Illustrator 23.0.0, SVG Export Plug-In . SVG Version: 6.00 Build 0)  -->
<svg version="1.1" id="Layer_1" xmlns="http://www.w3.org/2000/svg" xmlns:xlink="http://www.w3.org/1999/xlink" x="0px" y="0px"
	 viewBox="0 0 16 16" style="enable-background:new 0 0 16 16;" xml:space="preserve">
<style type="text/css">
	.st0{fill:#F75049;}
</style>
<path class="st0" d="M13.3,7.1c-0.2-0.2-0.3-0.4-0.3-0.6c-0.1,0.1-0.3,0.2-0.4,0.4c0.1,0.2,0.2,0.5,0.4,0.6c0.1,0.1,0.2,0.2,0.4,0.3
	c0.1-0.1,0.3-0.2,0.4-0.3C13.6,7.3,13.5,7.2,13.3,7.1z M3.5,7c0-0.2-0.1-0.3-0.1-0.4C3.2,6.7,3.1,6.8,2.9,6.9C3,7,3,7.1,3,7.3
	c0,0.1,0,0.1,0,0.2C3.2,7.3,3.3,7.1,3.5,7z M3.5,7c0-0.2-0.1-0.3-0.1-0.4C3.2,6.7,3.1,6.8,2.9,6.9C3,7,3,7.1,3,7.3
	c0,0.1,0,0.1,0,0.2C3.2,7.3,3.3,7.1,3.5,7z M13,6.5c-0.1,0.1-0.3,0.2-0.4,0.4c0.1,0.2,0.2,0.5,0.4,0.6c0.1-0.1,0.3-0.2,0.4-0.4
	C13.2,6.9,13.1,6.7,13,6.5z M9.6,11.7c0.4-0.4,0.8-0.8,1.2-1.1C10.2,10.7,9.8,11.2,9.6,11.7z M13,6.5c-0.1,0.1-0.3,0.2-0.4,0.4
	c0.1,0.2,0.2,0.5,0.4,0.6c0.1-0.1,0.3-0.2,0.4-0.4C13.2,6.9,13.1,6.7,13,6.5z M13.1,9.5c-0.2,0.5-0.5,0.9-0.9,1.3
	c-0.1-0.1-0.3-0.2-0.4-0.2c-0.2,0.1-0.3,0.3-0.5,0.4c0.3,0,0.6,0.1,0.8,0.3c0.3-0.3,0.7-0.6,1-0.9c0.5-0.5,1-0.9,1.5-1.3
	c0.1-0.2,0.2-0.5,0.2-0.7c0-0.1,0-0.3,0.1-0.4L13.1,9.5z M11.3,10.5c-0.2,0-0.3,0-0.4,0.1c-0.6,0.1-1,0.6-1.2,1.1
	c-0.1,0.2-0.1,0.3-0.1,0.5c0,0.2,0,0.3,0.1,0.4c-0.5,0.2-0.9,0.3-1.4,0.4c-0.1,0.1-0.3,0.3-0.4,0.4c0.1-0.1,0.2-0.3,0.3-0.4
	c-0.3,0.1-0.7,0.1-1.1,0.1c0,0,0,0,0,0c-0.4,0.4-0.9,0.8-1.3,1.2c0.3,0.1,0.7,0.1,1,0.1c0.8,0,1.6-0.1,2.4-0.3
	c0.4-0.4,0.8-0.8,1.2-1.1c-0.2-0.2-0.3-0.5-0.3-0.8c0-0.6,0.5-1.2,1.1-1.2c0.2-0.2,0.3-0.3,0.5-0.5C11.5,10.5,11.4,10.5,11.3,10.5z
	 M3.5,7c0-0.2-0.1-0.3-0.1-0.4C3.2,6.7,3.1,6.8,2.9,6.9C3,7,3,7.1,3,7.3c0,0.1,0,0.1,0,0.2C3.2,7.3,3.3,7.1,3.5,7z M14.3,4.5
	L14.3,4.5C13.3,3,11.5,2,9.3,2C9.1,2,9,2,8.8,2c0,0,0-0.1-0.1-0.1C8.5,1.4,7.9,1,7.3,1C6.7,1,6.2,1.3,5.8,1.7C5.6,2,5.5,2.4,5.5,2.8
	c0,0,0,0.1,0,0.1C4.2,3.5,3.1,4.5,2.3,5.6C2.1,5.5,1.9,5.5,1.8,5.5C0.8,5.5,0,6.3,0,7.3C0,8,0.4,8.6,1,8.8c0,0.2,0,0.5,0,0.7
	c0.4-0.4,0.7-0.7,1-1.1c-0.1,0-0.2,0-0.3,0C1.1,8.5,0.5,8,0.5,7.3C0.5,6.6,1,6,1.8,6c0.5,0,1,0.3,1.2,0.8C3,6.7,3.1,6.5,3.3,6.4
	c0,0,0,0,0,0C3.9,5.4,4.9,4.5,6,4c0,0,0.1,0.1,0.1,0.1C6.3,4,6.4,3.8,6.5,3.7C6.2,3.5,6,3.2,6,2.8c0-0.5,0.3-0.9,0.7-1.1
	C6.8,1.5,7,1.5,7.3,1.5c0.5,0,0.9,0.3,1.1,0.7c0.1,0.2,0.1,0.4,0.1,0.6C8.5,3.5,8,4,7.3,4C7,4,6.9,4,6.7,3.9C6.6,4,6.5,4.1,6.4,4.3
	c0.3,0.2,0.6,0.3,0.9,0.3c0.2,0,0.4,0,0.6-0.1c0.3-0.3,0.6-0.6,0.9-0.8c0,0,0,0,0,0c0-0.1,0.1-0.2,0.1-0.2c0,0,0.1,0,0.1,0h0.1
	C9.4,3.1,9.7,2.8,10,2.6C9.7,2.8,9.5,3.1,9.2,3.3c0.3,0,0.6,0,0.9,0.1c0,0,0,0,0,0c1,0.2,1.9,0.7,2.4,1.3c0.1-0.1,0.2-0.2,0.4-0.3
	c-0.1,0.1-0.2,0.2-0.3,0.3C12.7,5,12.8,5,12.9,5.2c-0.2,0.2-0.3,0.5-0.4,0.9c0.3-0.2,0.5-0.4,0.8-0.6c0,0,0,0,0,0
	c0.1-0.1,0.2-0.2,0.3-0.2c0,0,0,0,0,0C13.8,5,14,5,14.3,5c0.2,0,0.3,0,0.5,0.1C14.9,5,15,4.9,15.2,4.8C14.9,4.6,14.6,4.5,14.3,4.5z
	 M3.7,4.9C3.4,5.2,3.1,5.5,2.8,5.8c0.2-0.3,0.5-0.6,0.8-1c0.5-0.5,0.9-1,1.4-1.4C4.6,3.9,4.2,4.4,3.7,4.9z M6,13.1
	c-0.1-0.9-0.8-1.6-1.7-1.6c-0.3,0-0.6,0.1-0.8,0.2C2.7,11,2.3,10,2.4,8.9C3,8.6,3.5,8,3.5,7.3C3.3,7.5,3,7.7,2.8,7.9l0,0
	C2.7,8.1,2.5,8.3,2.4,8.3C2,8.7,1.5,9.1,1,9.6c0.1,1.3,0.6,2.5,1.5,3.3c0,0.1,0,0.2,0,0.3c0,1,0.8,1.8,1.8,1.8c0.1,0,0.2,0,0.3,0
	c0.5-0.5,1.1-1.2,1.8-1.9C6.2,13.1,6.1,13.1,6,13.1z M4.3,14.5C3.6,14.5,3,14,3,13.3C3,12.6,3.5,12,4.3,12s1.3,0.6,1.3,1.3
	C5.5,14,5,14.5,4.3,14.5z M10.4,13.2c-0.4,0.3-0.7,0.6-1.1,1c0.4-0.1,0.7-0.2,1-0.4c0.1,0,0.1,0.1,0.2,0.1c0.1-0.1,0.3-0.3,0.4-0.4
	C10.7,13.4,10.5,13.3,10.4,13.2z M13,12.1c-0.2,0.1-0.3,0.3-0.5,0.4v0c-0.1,0.5-0.6,0.9-1.1,1c-0.2,0.2-0.3,0.3-0.5,0.5
	c0.1,0,0.3,0,0.4,0c0.2,0,0.4,0,0.6-0.1c0.3-0.3,0.6-0.5,0.9-0.8c0,0,0.1-0.1,0.1-0.1c0.1-0.2,0.2-0.5,0.2-0.8
	C13,12.2,13,12.1,13,12.1z M13.9,10.1c-0.5,0.5-1.1,1-1.6,1.5c0.1,0.1,0.2,0.3,0.2,0.5c0.4-0.3,0.8-0.6,1.2-0.9
	c0.4-0.5,0.7-1,0.9-1.6C14.3,9.7,14.1,9.9,13.9,10.1z M15.1,7.8c0.3-0.2,0.5-0.4,0.7-0.6C15.5,7.4,15.3,7.6,15.1,7.8z M15.5,5
	c-0.1,0.1-0.2,0.2-0.3,0.3c0.2,0.2,0.3,0.5,0.3,0.9c0,0.7-0.5,1.3-1.3,1.3c-0.1,0-0.2,0-0.3,0c-0.1,0.1-0.3,0.3-0.4,0.4c0,0,0,0,0,0
	c0,0.2,0,0.3-0.1,0.5c0,0.2-0.1,0.4-0.2,0.6c0.2-0.2,0.4-0.4,0.6-0.6c0.7-0.6,1.3-1.1,1.9-1.6C16,6.6,16,6.4,16,6.3
	C16,5.8,15.8,5.4,15.5,5z M13.3,7.1c-0.2-0.2-0.3-0.4-0.3-0.6c-0.1,0.1-0.3,0.2-0.4,0.4c0.1,0.2,0.2,0.5,0.4,0.6
	c0.1,0.1,0.2,0.2,0.4,0.3c0.1-0.1,0.3-0.2,0.4-0.3C13.6,7.3,13.5,7.2,13.3,7.1z M3.5,7c0-0.2-0.1-0.3-0.1-0.4
	C3.2,6.7,3.1,6.8,2.9,6.9C3,7,3,7.1,3,7.3c0,0.1,0,0.1,0,0.2C3.2,7.3,3.3,7.1,3.5,7z M10.1,3.5C10.1,3.4,10.1,3.5,10.1,3.5
	c0.1,0,0.1-0.1,0.2-0.1C10.2,3.4,10.2,3.4,10.1,3.5z M9.6,11.7c0.4-0.4,0.8-0.8,1.2-1.1C10.2,10.7,9.8,11.2,9.6,11.7z M13,6.5
	c-0.1,0.1-0.3,0.2-0.4,0.4c0.1,0.2,0.2,0.5,0.4,0.6c0.1-0.1,0.3-0.2,0.4-0.4C13.2,6.9,13.1,6.7,13,6.5z M9.6,11.7
	c0.4-0.4,0.8-0.8,1.2-1.1C10.2,10.7,9.8,11.2,9.6,11.7z M3.5,7c0-0.2-0.1-0.3-0.1-0.4C3.2,6.7,3.1,6.8,2.9,6.9C3,7,3,7.1,3,7.3
	c0,0.1,0,0.1,0,0.2C3.2,7.3,3.3,7.1,3.5,7z M13.3,7.1c-0.2-0.2-0.3-0.4-0.3-0.6c-0.1,0.1-0.3,0.2-0.4,0.4c0.1,0.2,0.2,0.5,0.4,0.6
	c0.1,0.1,0.2,0.2,0.4,0.3c0.1-0.1,0.3-0.2,0.4-0.3C13.6,7.3,13.5,7.2,13.3,7.1z"/>
<path class="st0" d="M14.3,4.5L14.3,4.5C13.3,3,11.5,2,9.3,2C9.1,2,9,2,8.8,2c0,0,0-0.1-0.1-0.1C8.7,2,8.6,2,8.6,2
	C8.5,2.1,8.4,2.1,8.4,2.2c0.1,0.2,0.1,0.4,0.1,0.6C8.5,3.5,8,4,7.3,4C7,4,6.9,4,6.7,3.9C6.6,4,6.5,4.1,6.4,4.3
	c0.3,0.2,0.6,0.3,0.9,0.3c0.2,0,0.4,0,0.6-0.1c0.3-0.3,0.6-0.6,0.9-0.8c0,0,0,0,0,0c0-0.1,0.1-0.2,0.1-0.2c0,0,0.1,0,0.1,0h0.1
	C9.4,3.1,9.7,2.8,10,2.6C9.7,2.8,9.5,3.1,9.2,3.3c0.3,0,0.6,0,0.9,0.1c0.1,0,0.1-0.1,0.2-0.1c0,0-0.1,0.1-0.1,0.1
	c1,0.2,1.9,0.7,2.4,1.3c0.1-0.1,0.2-0.2,0.4-0.3c-0.1,0.1-0.2,0.2-0.3,0.3C12.7,5,12.8,5,12.9,5.2c-0.2,0.2-0.3,0.5-0.4,0.9
	c0.3-0.2,0.5-0.4,0.8-0.6c0,0,0,0,0,0c0.1-0.1,0.2-0.1,0.3-0.2c0,0,0,0,0,0C13.8,5,14,5,14.3,5c0.2,0,0.3,0,0.5,0.1
	C14.9,5,15,4.9,15.2,4.8C14.9,4.6,14.6,4.5,14.3,4.5z M6,13.1c-0.1-0.9-0.8-1.6-1.7-1.6c-0.3,0-0.6,0.1-0.8,0.2
	C2.7,11,2.3,10,2.4,8.9C3,8.6,3.5,8,3.5,7.3C3.3,7.5,3,7.7,2.8,7.9l0,0C2.7,8.1,2.5,8.2,2.4,8.3C2,8.7,1.5,9.1,1,9.6
	c0.1,1.3,0.6,2.5,1.5,3.3c0,0.1,0,0.2,0,0.3c0,1,0.8,1.8,1.8,1.8c0.1,0,0.2,0,0.3,0c0.5-0.5,1.1-1.2,1.8-1.9
	C6.2,13.1,6.1,13.1,6,13.1z M4.3,14.5C3.6,14.5,3,14,3,13.3C3,12.6,3.5,12,4.3,12s1.3,0.6,1.3,1.3C5.5,14,5,14.5,4.3,14.5z M13,12.1
	c-0.2,0.1-0.3,0.3-0.5,0.4v0c-0.1,0.5-0.6,0.9-1.1,1c-0.2,0.2-0.3,0.3-0.5,0.5c0.1,0,0.3,0,0.4,0c0.2,0,0.4,0,0.6-0.1
	c0.3-0.3,0.6-0.5,0.9-0.8c0,0,0.1-0.1,0.1-0.1c0.1-0.2,0.2-0.5,0.2-0.8C13,12.2,13,12.1,13,12.1z M13.9,10.1c-0.5,0.5-1.1,1-1.6,1.5
	c0.1,0.1,0.2,0.3,0.2,0.5c0.4-0.3,0.8-0.6,1.2-0.9c0.4-0.5,0.7-1,0.9-1.6C14.3,9.7,14.1,9.9,13.9,10.1z M10.4,13.2
	c-0.4,0.3-0.7,0.6-1.1,1c0.4-0.1,0.7-0.2,1-0.4c0.1,0,0.1,0.1,0.2,0.1c0.1-0.1,0.3-0.3,0.4-0.4C10.7,13.4,10.5,13.3,10.4,13.2z
	 M15.1,7.8c0.3-0.2,0.5-0.4,0.7-0.6C15.5,7.4,15.3,7.6,15.1,7.8z M13.3,7.1c-0.1,0.1-0.2,0.2-0.4,0.4c0.1,0.1,0.2,0.2,0.4,0.3
	c0.1-0.1,0.3-0.2,0.4-0.3C13.6,7.3,13.5,7.2,13.3,7.1z M13.3,7.1c-0.1,0.1-0.2,0.2-0.4,0.4c0.1,0.1,0.2,0.2,0.4,0.3
	c0.1-0.1,0.3-0.2,0.4-0.3C13.6,7.3,13.5,7.2,13.3,7.1z M15.5,5c-0.1,0.1-0.2,0.2-0.3,0.3c0.2,0.2,0.3,0.5,0.3,0.9
	c0,0.7-0.5,1.3-1.3,1.3c-0.1,0-0.2,0-0.3,0c-0.1,0.1-0.3,0.3-0.4,0.4c0,0,0,0,0,0c0,0.2,0,0.3-0.1,0.5c0,0.2-0.1,0.4-0.2,0.6
	c0.2-0.2,0.4-0.4,0.6-0.6c0.7-0.6,1.3-1.1,1.9-1.6C16,6.6,16,6.4,16,6.3C16,5.8,15.8,5.4,15.5,5z M13.3,7.1
	c-0.1,0.1-0.2,0.2-0.4,0.4c0.1,0.1,0.2,0.2,0.4,0.3c0.1-0.1,0.3-0.2,0.4-0.3C13.6,7.3,13.5,7.2,13.3,7.1z M3.5,7
	c0-0.2-0.1-0.3-0.1-0.4C3.2,6.7,3.1,6.8,2.9,6.9C3,7,3,7.1,3,7.3c0,0.1,0,0.1,0,0.2C3.2,7.3,3.3,7.1,3.5,7z M6,2.8
	c0-0.5,0.3-0.9,0.7-1.1c-0.1,0-0.1-0.1-0.2-0.1C6.3,1.5,6,1.6,5.9,1.7c0,0,0,0,0,0C5.6,2,5.5,2.4,5.5,2.8c0,0,0,0.1,0,0.1
	C4.2,3.5,3.1,4.5,2.3,5.6C2.1,5.5,1.9,5.5,1.8,5.5C0.8,5.5,0,6.3,0,7.3C0,8,0.4,8.6,1,8.8c0,0.2,0,0.5,0,0.7c0.4-0.4,0.7-0.7,1-1.1
	c-0.1,0-0.2,0-0.3,0C1.1,8.5,0.5,8,0.5,7.3C0.5,6.6,1,6,1.8,6c0.5,0,1,0.3,1.2,0.8C3,6.7,3.1,6.5,3.3,6.4c0,0,0,0,0,0
	C3.9,5.4,4.9,4.5,6,4c0,0,0.1,0.1,0.1,0.1C6.3,4,6.4,3.8,6.5,3.7C6.2,3.5,6,3.2,6,2.8z M3.7,4.9C3.4,5.2,3.1,5.5,2.8,5.8
	c0.2-0.3,0.5-0.6,0.8-1c0.5-0.5,0.9-1,1.4-1.4C4.6,3.9,4.2,4.4,3.7,4.9z M11.3,10.5c-0.2,0-0.3,0-0.4,0.1c-0.4,0.4-0.8,0.8-1.2,1.1
	c-0.1,0.2-0.1,0.3-0.1,0.5c0,0.2,0,0.3,0.1,0.4c-0.5,0.2-0.9,0.3-1.4,0.4c-0.1,0.1-0.3,0.3-0.4,0.4c0.1-0.1,0.2-0.3,0.3-0.4
	c-0.3,0.1-0.7,0.1-1.1,0.1c0,0,0,0,0,0c-0.4,0.4-0.9,0.8-1.3,1.2c0.3,0.1,0.7,0.1,1,0.1c0.8,0,1.6-0.1,2.4-0.3
	c0.4-0.4,0.8-0.8,1.2-1.1c-0.2-0.2-0.3-0.5-0.3-0.8c0-0.6,0.5-1.2,1.1-1.2c0.2-0.2,0.3-0.3,0.5-0.5C11.5,10.5,11.4,10.5,11.3,10.5z
	 M13.1,9.5c-0.2,0.5-0.5,0.9-0.9,1.3c-0.1-0.1-0.3-0.2-0.4-0.2c-0.2,0.1-0.3,0.3-0.5,0.4c0.3,0,0.6,0.1,0.8,0.3
	c0.3-0.3,0.7-0.6,1-0.9c0.5-0.5,1-0.9,1.5-1.3c0.1-0.2,0.2-0.5,0.2-0.7c0-0.1,0-0.3,0.1-0.4L13.1,9.5z"/>
</svg>
