<?xml version="1.0" encoding="utf-8"?>
<!-- Generator: Adobe Illustrator 23.0.0, SVG Export Plug-In . SVG Version: 6.00 Build 0)  -->
<svg version="1.1" id="Layer_1" xmlns="http://www.w3.org/2000/svg" xmlns:xlink="http://www.w3.org/1999/xlink" x="0px" y="0px"
	 viewBox="0 0 16 16" style="enable-background:new 0 0 16 16;" xml:space="preserve">
<style type="text/css">
	.st0{clip-path:url(#SVGID_2_);fill:#F75049;}
</style>
<g>
	<defs>
		<path id="SVGID_1_" d="M20.3,5.2c-0.1-0.1-0.3,0-0.6-0.2c-0.2-0.2-0.2-0.3-0.3-0.4C19,4.3,18.1,5.1,18.1,5c0,0,0.4-0.3,0.7-0.7
			c0.2-0.2,0.6-0.7,0.5-1C19.3,3.2,19.1,3.2,19,3c0-0.3,0.5-0.4,0.4-0.7c0-0.2-0.2-0.3-0.3-0.3c-0.3-0.1-0.8,0.2-0.8,0.2
			c0,0,0.3-0.2,0.4-0.5c0-0.1,0.2-0.3,0.1-0.5c-0.1-0.1-0.3-0.1-0.4-0.1c-0.1,0-0.2,0.1-0.2,0c0,0,0-0.1,0-0.2
			c0-0.2-0.3-0.3-0.6-0.3c-0.5,0-0.9,0.5-1,0.4c-0.1-0.1,0.5-0.5,0.4-0.9C17,0.1,16.8,0,16.6,0c-0.3,0-0.4,0.3-0.5,0.3
			C16,0.2,16.3-0.5,16-0.6c-0.1-0.1-0.3,0.1-0.6,0c-0.2-0.1-0.2-0.1-0.3-0.2c-0.3-0.1-0.8,0.4-1.3,0.9c-0.2,0.2-0.6,0.5-1.1,0.8
			c0.3-0.3,0.5-0.6,0.7-0.7c0.4-0.4,0.6-0.6,0.6-0.9c0-0.1,0-0.4-0.2-0.4c-0.2-0.1-0.4,0.2-1.1,0.6c-0.2,0.1-0.3,0.2-0.4,0.3
			c0,0,0.3-0.4,0.2-0.7c0,0-0.1-0.2-0.2-0.3c-0.4-0.3-1.1-0.2-1.2-0.2c-0.9,0.2-1.1,0.8-2.1,1.3c0,0-0.1,0.1-0.3,0.2
			C8.4,0.3,8.2,0.4,8.1,0.5C7.8,0.6,7.6,0.8,7.5,1C7.4,1.3,7.4,1.5,7.3,1.6C7.1,1.8,7,1.8,6.9,1.8C6.3,2,5.6,3,5.5,3.1
			C5.1,3.7,3.8,5,0.3,8.2c4.7-5,6.2-6.6,6.2-6.7c0,0,0,0,0,0c0-0.1,0.2-0.4,0-0.6c-0.1-0.1-0.2,0-0.3-0.1c0,0,0-0.1,0-0.1
			c0-0.2,0.4-0.2,0.4-0.3c0,0-0.1-0.1-0.2-0.1C6.2,0.1,6.2,0,6,0C5.8-0.1,5.5,0,5.4,0.1C5.2,0.2,5,0.4,5,0.3c0,0,0-0.2,0-0.3
			C4.9,0,4.7,0,4.7,0C4.3,0,4.1,0.3,4,0.2C4,0.2,4,0,4-0.1C3.9-0.2,3.8-0.2,3.6-0.3C3.4-0.4,3.5-0.6,3.3-0.8
			C3.2-0.9,3.1-1.1,2.9-1.2c-0.2-0.1-0.3,0-0.5-0.1C2.1-1.3,2.1-1.5,1.9-1.5c-0.2,0-0.3,0-0.4,0.1C1.2-1.3,1.2-1.1,1-1.1
			c-0.2,0-0.2-0.2-0.5-0.2c-0.1,0-0.2,0-0.3,0C0.1-1.2,0.2-1,0.1-0.8C0-0.8-0.1-0.8-0.2-0.8C-0.3-0.9-0.2-1-0.3-1
			C-0.5-1.2-1.4-1-1.7-0.4c0,0.1-0.1,0.2-0.2,0.3c-0.2,0.1-0.3,0-0.5,0c-0.3,0-0.5,0.2-1.1,1c0,0-0.1,0.1-0.6,0.6
			c-0.9,1-1,1.1-1.1,1.4c0,0.5,0,0.7,0,0.7C-5,3.7-5,3.9-5,4c-0.1,0.1-0.1,0-0.2,0.1c-0.1,0.1,0.1,0.4,0,0.8c0,0,0,0,0,0.3
			c-0.1,0.5-0.1,0.6,0,0.7C-5.2,5.9-5.1,5.9-5,5.9c0.2,0,0.3-0.1,0.4-0.1c0.4-0.5,0.8-0.9,1.1-1.4C-3.7,4.7-3.8,5-3.9,5.1
			c-0.2,0.2-0.3,0.4-0.5,0.7c0,0.1-0.1,0.2-0.2,0.4C-4.6,6.5-4.8,6.7-4.6,7c0,0.1,0.1,0.2,0.1,0.3c0,0.2,0,0.3,0,0.4
			c0,0.1,0.1,0.1,0.2,0.1c0.1,0.1,0,0.3,0,0.6c0,0.2,0.1,0.1,0.1,0.3c0.1,0.3-0.1,0.4,0,0.7c0,0.1,0,0.2,0.1,0.3
			c0.1,0.1,0.4-0.1,0.6,0c0.2,0.1,0.1,0.3,0.3,0.4c0.1,0,0.2-0.1,0.4,0c0,0,0.3,0,0.3,0.1c0,0.1-0.1,0.3-0.3,0.4
			c-0.4,0.2-0.8-0.1-0.9,0c0,0.1,0.1,0.2,0.2,0.3c1,0.9,1,1,1.3,1.2c0.3,0.2,0.3,0.1,0.7,0.3c0.5,0.3,1.1,0.6,1.1,1
			c0,0.2-0.2,0.3-0.1,0.6c0,0.2,0.1,0.5,0.3,0.6c0.2,0.1,0.3-0.1,0.6-0.1c0.3,0,0.3,0.2,0.6,0.3c0.4,0,0.5-0.4,0.8-0.4
			c0.2,0,0.2,0.2,0.4,0.3c0.2,0.1,0.4,0,0.5,0c1-1.1,2.6-2.7,4.6-4.8c1.6-1.7,2.1-2.2,3-3.1c2.6-2.5,5.4-4.5,5.5-4.3
			c0.1,0.1-1.2,1.3-5.5,5.4c-3,2.8-5.4,5.2-7.1,6.8c0,0.3,0.1,0.5,0.2,0.5c0.2,0.1,0.5-0.2,0.8,0c0.1,0.1,0.3,0.2,0.3,0.4
			c0,0.2,0,0.3,0.1,0.4c0.1,0.1,0.1,0,0.2,0.1c0.2,0.2,0.1,0.3,0.3,0.5c0.2,0.1,0.4,0,0.4,0.2c0,0.1,0,0.1,0,0.3
			c0,0.1,0.2,0.1,0.2,0.3c0,0.2-0.3,0.3-0.3,0.6c0,0.2,0.1,0.2,0.1,0.5c0,0.5-0.6,0.6-0.5,0.9c0,0.2,0.2,0.4,0.4,0.5
			c0.3,0,0.5-0.4,0.8-0.4c0.4,0,0.6,0.6,0.9,0.5c0.3,0,0.3-0.4,0.6-0.4c0.2,0,0.3,0.1,0.4,0c0.1-0.1,0.1-0.2,0.3-0.3
			c0.1,0,0.1,0,0.2,0c0.2,0,0.6-0.4,0.7-0.8c0.1-0.4,0-0.5,0.2-0.8c0.1-0.2,0.3-0.3,0.4-0.4c0.5-0.4,1.2-1,1.8-1.6
			c0.8-0.8,0.9-1.1,1.5-1.4c0.1,0,0.3-0.1,0.5-0.3c0.3-0.3,0.4-0.6,0.6-0.8c0.4-0.8,0.8-0.8,1.7-2c0-0.1,0.2-0.3,0.2-0.4
			c-0.1-0.1-1.2,1.1-1.4,1c-0.1-0.1-0.1-0.2-0.1-0.2c0.1-0.6,0.8-0.8,1.9-1.7c0.3-0.2,0.2-0.2,0.5-0.5c0.8-0.7,1.7-1.3,2-1.7
			C19,7.3,19,7,19,7c0-0.1,0-0.1,0.1-0.2c0.1-0.3,0.2-0.4,0.7-0.9C20.3,5.4,20.3,5.3,20.3,5.2z M3.3,4.5C3,4.8,2.7,5.1,2.4,5.3
			c0.2-0.3,0.4-0.6,0.8-0.9c0.1-0.1,0.3-0.2,0.4-0.3C3.5,4.2,3.4,4.3,3.3,4.5z M3.1,3.2c0.5-0.5,1-1,1.4-1.4c-0.3,0.5-0.8,1-1.3,1.5
			C2.9,3.6,2.6,3.9,2.3,4.2C2.5,3.9,2.8,3.6,3.1,3.2z M-2.5,3.2C-2.4,3-2.2,2.8-2,2.6c0.1-0.1,0.2-0.2,0.2-0.2
			c0,0.1-0.1,0.2-0.2,0.3C-2.1,2.9-2.3,3.1-2.5,3.2z M-1.6,11.3c-0.1,0.1-0.2,0.2-0.3,0.2c0,0,0-0.2,0.1-0.3
			c0.1-0.1,0.3-0.2,0.3-0.2C-1.5,11.1-1.5,11.2-1.6,11.3z M-1.9,6.7c0.3-0.4,0.7-0.8,1-1.2c0,0.1,0,0.2,0,0.3
			C-1.3,6.1-1.6,6.4-1.9,6.7z M-0.2,12.7c0,0-0.2-0.2-0.5-0.6c-0.1-0.1-0.2-0.2-0.2-0.3c0-0.1,0.1-0.1,0.2-0.2
			c0.1-0.1,0.3-0.2,0.4-0.5c0,0.2-0.1,0.3-0.1,0.4c0,0.1-0.1,0.2-0.1,0.3c0,0.1,0.1,0,0.1,0.1c0.1,0.1,0,0.2,0,0.3
			C-0.3,12.5-0.2,12.7-0.2,12.7z M-0.3,1.4C-0.2,1.2-0.1,1,0.1,0.8c0.1-0.1,0.2-0.2,0.2-0.2c0,0.1-0.1,0.2-0.2,0.3
			C0,1.1-0.1,1.3-0.3,1.4z M2.5,8c1-1.3,2.3-2.8,3.8-4.2c1.1-1.1,2.2-2,3.2-2.8C8.8,1.7,8,2.4,7.3,3.1C5.6,4.8,4,6.4,2.5,8z
			 M7.4,3.8c0.8-0.8,1.6-1.5,2.4-2c-0.4,0.5-0.9,1-1.4,1.6C7.3,4.5,6.1,5.7,5,6.7C5.6,5.8,6.4,4.8,7.4,3.8z M9.3,5.6
			c1.1-0.9,2.2-1.8,3.2-2.6c-0.7,0.7-1.4,1.4-2.2,2.1C8.7,6.5,7.1,7.8,5.6,8.9C6.7,7.8,7.9,6.7,9.3,5.6z M11,5.7
			C9.4,7.1,7.8,8.4,6.4,9.5C7.5,8.4,8.7,7.3,10,6.2c1.1-0.9,2.2-1.8,3.2-2.6C12.5,4.3,11.7,5,11,5.7z M16.7,4.2
			c-0.7,0.7-1.4,1.4-2.2,2.1c-1.6,1.4-3.1,2.7-4.6,3.8C11,9,12.2,7.9,13.5,6.8C14.6,5.8,15.7,5,16.7,4.2z M7.2,11.9
			c1.4-1.7,3.1-3.5,5.1-5.3c0.9-0.8,1.8-1.5,2.6-2.2c-1,1-1.9,1.9-2.9,2.9C10.5,8.9,8.8,10.4,7.2,11.9z M7.6,13.5
			c1.6-1.5,3.2-3.1,5-4.7c1.4-1.3,2.8-2.4,4.2-3.5c-1.1,1.1-2.3,2.1-3.4,3.2C11.4,10.3,9.5,11.9,7.6,13.5z M7.9,14.6
			c1.1-1.3,2.5-2.7,4.1-4.1c1.4-1.2,2.7-2.2,4-3c-1.1,1-2.2,1.9-3.3,2.9C11.1,11.7,9.5,13.1,7.9,14.6z M15.9,8.8
			c-1.2,1.1-2.4,2.1-3.6,3c0.2-0.2,0.4-0.4,0.6-0.6c0.8-0.7,1.5-1.4,2.2-2.1c-0.1,0.1-0.2,0.1-0.3,0.2c-0.1,0-0.1,0.1-0.2,0.2
			c-1.3,1.1-2.4,2.2-3.5,3.3c-0.9,0.8-1.8,1.5-2.7,2.1c1.1-1.1,2.3-2.2,3.6-3.4c1-0.9,2-1.7,2.9-2.4c1-0.9,2.1-1.7,3-2.5
			C17.4,7.4,16.7,8.1,15.9,8.8z"/>
	</defs>
	<clipPath id="SVGID_2_">
		<use xlink:href="#SVGID_1_"  style="overflow:visible;"/>
	</clipPath>
	<path class="st0" d="M3,7c0-1.1,0.9-2,2-2v2h2c0,1.1-0.9,2-2,2S3,8.1,3,7z"/>
	<rect x="8" y="7" class="st0" width="3" height="1"/>
	<rect x="8" y="5" class="st0" width="4" height="1"/>
	<path class="st0" d="M0,2v1h1v8c0,0.5,0.5,1,1,1h5v1.2l-2.7,1.8c-0.3,0.1-0.4,0.5-0.2,0.8c0.2,0.2,0.5,0.3,0.8,0.1l2.7-1.8l2.7,1.8
		c0.2,0.2,0.6,0.2,0.8-0.1c0.2-0.2,0.1-0.6-0.2-0.8L8,13.3V12h5c0.5,0,1-0.5,1-1V3h1V2H0z M13,10.5c0,0.5-0.5,0.5-0.5,0.5h-10
		C2,11,2,10.5,2,10.5V3h11V10.5z"/>
	<path class="st0" d="M5,7h2c0,1.1-0.9,2-2,2S3,8.1,3,7c0-1.1,0.9-2,2-2V7z"/>
	<rect x="8" y="7" class="st0" width="3" height="1"/>
	<rect x="8" y="5" class="st0" width="4" height="1"/>
	<path class="st0" d="M7,7c0,1.1-0.9,2-2,2S3,8.1,3,7c0-1.1,0.9-2,2-2v2H7z"/>
	<rect x="8" y="5" class="st0" width="4" height="1"/>
	<rect x="8" y="7" class="st0" width="3" height="1"/>
</g>
</svg>
