<?xml version="1.0" encoding="utf-8"?>
<!-- Generator: Adobe Illustrator 23.0.0, SVG Export Plug-In . SVG Version: 6.00 Build 0)  -->
<svg version="1.1" id="Layer_1" xmlns="http://www.w3.org/2000/svg" xmlns:xlink="http://www.w3.org/1999/xlink" x="0px" y="0px"
	 viewBox="0 0 16 16" style="enable-background:new 0 0 16 16;" xml:space="preserve">
<style type="text/css">
	.st0{clip-path:url(#SVGID_2_);}
	.st1{fill:#F75049;}
</style>
<g>
	<defs>
		<path id="SVGID_1_" d="M29.5,3.1c-0.1-0.2-0.5,0-0.9-0.4c-0.3-0.3-0.2-0.5-0.5-0.7c-0.6-0.4-2,0.8-2,0.7c0,0,0.6-0.4,1.1-1
			c0.3-0.4,1-1.1,0.8-1.6c-0.1-0.3-0.4-0.3-0.5-0.5c-0.1-0.4,0.7-0.7,0.7-1.2C28.2-1.7,28-2,27.8-2c-0.5-0.2-1.2,0.4-1.2,0.3
			c0,0,0.4-0.3,0.7-0.8c0-0.1,0.3-0.5,0.1-0.7c-0.1-0.1-0.4-0.2-0.6-0.1c-0.2,0-0.3,0.1-0.4,0.1c-0.1,0,0-0.1,0-0.2
			c-0.1-0.3-0.5-0.4-0.9-0.5C24.6-4,24-3.2,23.9-3.3c-0.1-0.1,0.8-0.8,0.6-1.4c-0.1-0.2-0.3-0.4-0.6-0.4c-0.4,0-0.6,0.5-0.8,0.4
			c-0.2-0.1,0.2-1.1-0.2-1.3c-0.2-0.1-0.5,0.1-0.9,0c-0.2-0.1-0.3-0.2-0.4-0.3c-0.5-0.2-1.2,0.7-2,1.4c-0.4,0.3-1,0.8-1.8,1.3
			c0.4-0.5,0.8-0.9,1-1.2c0.6-0.7,1-1,1-1.4c0-0.2,0-0.6-0.3-0.7C19.3-7,19-6.7,17.9-6c-0.3,0.2-0.5,0.3-0.6,0.4
			c0.1-0.1,0.5-0.6,0.3-1.1c0-0.1-0.1-0.2-0.3-0.4c-0.7-0.5-1.7-0.3-1.9-0.2C14.1-7,13.7-6,12.1-5.2c0,0-0.2,0.1-0.5,0.3
			c-0.6,0.3-0.9,0.5-1.1,0.6c-0.4,0.3-0.7,0.5-0.9,0.9C9.4-3.1,9.5-2.8,9.3-2.5C9.1-2.3,8.8-2.3,8.7-2.2C7.8-2,6.7-0.4,6.5-0.2
			c-0.6,0.9-2.7,3-8.1,7.9C5.8-0.1,8-2.5,8.1-2.7c0,0,0,0,0,0c0-0.1,0.3-0.7,0-0.9C8.1-3.7,7.8-3.7,7.7-3.8c0,0-0.1-0.1,0-0.2
			c0.1-0.3,0.7-0.4,0.6-0.5c0-0.1-0.1-0.1-0.3-0.2C7.6-4.9,7.6-5.1,7.3-5.1C7-5.2,6.6-5,6.3-4.9C6-4.7,5.8-4.5,5.7-4.5
			C5.6-4.6,5.8-4.8,5.7-5C5.6-5.1,5.3-5.1,5.2-5.1c-0.5,0-0.8,0.4-1,0.3C4.1-4.8,4.3-5,4.1-5.2C4-5.4,3.8-5.4,3.6-5.5
			C3.3-5.7,3.4-5.9,3.1-6.4C3-6.5,2.8-6.8,2.5-6.9C2.1-7,2-6.8,1.7-7C1.3-7.1,1.2-7.4,0.9-7.4c-0.2,0-0.4,0.1-0.6,0.1
			C-0.2-7-0.2-6.8-0.5-6.8c-0.3,0-0.3-0.3-0.8-0.4c-0.2,0-0.3-0.1-0.4,0C-1.9-7-1.7-6.6-1.9-6.4c-0.1,0.1-0.3,0.1-0.4,0
			c-0.1-0.1-0.1-0.2-0.2-0.3c-0.3-0.3-1.8,0.1-2.2,1c-0.1,0.1-0.1,0.4-0.3,0.5c-0.3,0.1-0.5,0-0.7,0c-0.4,0-0.7,0.4-1.7,1.5
			c0,0-0.2,0.2-0.9,1C-9.7-1.2-10-1-10-0.6c0,0.8,0.1,1.1,0.1,1.1c0.1,0.2,0.1,0.4,0,0.6c-0.1,0.1-0.2,0.1-0.3,0.2
			c-0.2,0.2,0.1,0.6,0.1,1.2c0,0,0,0-0.1,0.4c-0.1,0.8-0.2,1-0.1,1.1c0.1,0.1,0.2,0.1,0.4,0.1c0.3,0,0.5-0.1,0.6-0.2
			c0.6-0.7,1.2-1.4,1.8-2.1C-7.7,2.3-8,2.7-8.2,2.9C-8.4,3.3-8.6,3.5-8.9,4C-9,4.2-9.1,4.4-9.1,4.6C-9.3,5-9.4,5.4-9.3,5.8
			C-9.2,5.9-9.1,6-9,6.3c0,0.3-0.1,0.4,0,0.6C-8.9,7-8.8,7-8.8,7.1c0.2,0.2,0,0.5,0.1,0.9c0.1,0.3,0.1,0.2,0.2,0.4
			c0.1,0.4-0.1,0.6,0,1.1c0,0.2,0,0.3,0.1,0.4c0.2,0.2,0.6-0.1,0.9,0.1c0.3,0.2,0.2,0.5,0.5,0.6c0.2,0.1,0.3-0.1,0.6-0.1
			c0.1,0,0.5,0,0.5,0.2c0.1,0.2-0.2,0.4-0.4,0.6c-0.6,0.3-1.2-0.1-1.3,0.1c-0.1,0.1,0.2,0.3,0.3,0.5c1.6,1.5,1.6,1.6,2.1,1.9
			c0.5,0.3,0.4,0.2,1.1,0.5c0.8,0.5,1.7,0.9,1.7,1.6c0,0.4-0.2,0.4-0.2,0.9c0,0.3,0.1,0.9,0.5,1c0.3,0.1,0.5-0.2,0.9-0.2
			c0.5,0,0.5,0.4,0.9,0.4c0.6,0,0.8-0.7,1.3-0.6c0.3,0.1,0.3,0.3,0.6,0.4c0.3,0.1,0.6,0,0.8,0c1.6-1.7,4.1-4.2,7.2-7.4
			c2.5-2.7,3.2-3.4,4.6-4.8c4.1-3.9,8.4-6.9,8.6-6.7c0.1,0.2-1.8,2-8.5,8.3c-4.6,4.4-8.4,8.1-11,10.5c0,0.5,0.1,0.7,0.3,0.8
			c0.3,0.2,0.8-0.3,1.2,0c0.1,0.1,0.4,0.3,0.5,0.7c0.1,0.3,0,0.4,0.2,0.6c0.1,0.1,0.2,0.1,0.3,0.2c0.3,0.3,0.2,0.5,0.4,0.7
			c0.2,0.2,0.6,0.1,0.7,0.3c0.1,0.1-0.1,0.2,0,0.4c0.1,0.2,0.2,0.2,0.3,0.4c0.1,0.3-0.4,0.4-0.5,0.9C6.3,23,6.5,23,6.4,23.4
			c0,0.7-0.9,0.9-0.8,1.5c0,0.3,0.4,0.7,0.7,0.7c0.5,0.1,0.7-0.7,1.3-0.7c0.7,0,0.9,0.9,1.4,0.8c0.4-0.1,0.5-0.6,0.9-0.6
			c0.3,0,0.5,0.2,0.7,0.1c0.2-0.1,0.2-0.3,0.4-0.4c0.1,0,0.2,0,0.3,0c0.4,0,0.9-0.6,1.1-1.2c0.2-0.6,0-0.8,0.3-1.2
			c0.2-0.3,0.4-0.5,0.6-0.6c0.9-0.6,1.9-1.6,2.8-2.5c1.3-1.2,1.4-1.7,2.3-2.1c0.1-0.1,0.4-0.2,0.7-0.5c0.5-0.4,0.7-0.9,0.9-1.3
			c0.6-1.2,1.3-1.3,2.6-3.2c0.1-0.1,0.3-0.5,0.3-0.6c-0.1-0.1-1.8,1.8-2.2,1.5c-0.1-0.1-0.1-0.3-0.1-0.4c0.1-0.9,1.3-1.2,3-2.7
			c0.4-0.4,0.3-0.3,0.8-0.7c1.3-1.1,2.7-2,3-2.7c0.2-0.4,0.4-0.9,0.4-0.9c0-0.1,0.1-0.2,0.1-0.3C27.8,5.1,28,5,28.7,4.2
			C29.5,3.4,29.6,3.2,29.5,3.1z M3.1,1.9c-0.5,0.6-1,1-1.5,1.4c0.3-0.4,0.6-1,1.2-1.5c0.2-0.2,0.5-0.4,0.7-0.5
			C3.4,1.5,3.3,1.7,3.1,1.9z M2.8,0C3.5-0.9,4.3-1.6,5-2.2C4.4-1.5,3.8-0.7,3,0.1C2.5,0.6,2,1,1.5,1.4C1.9,1,2.3,0.5,2.8,0z
			 M-5.9-0.1c0.1-0.3,0.3-0.6,0.7-1c0.1-0.1,0.3-0.2,0.4-0.3C-4.9-1.3-5-1.1-5.1-1C-5.3-0.6-5.6-0.3-5.9-0.1z M-4.6,12.6
			c-0.1,0.2-0.3,0.3-0.4,0.3c0-0.1,0-0.3,0.1-0.5c0.2-0.2,0.4-0.3,0.5-0.3C-4.4,12.2-4.4,12.4-4.6,12.6z M-5.1,5.3
			c0.5-0.6,1-1.2,1.5-1.9c0,0.2,0,0.3,0.1,0.5C-4,4.4-4.5,4.9-5.1,5.3z M-2.4,14.7c-0.1,0-0.3-0.3-0.8-0.9c-0.1-0.2-0.3-0.3-0.2-0.4
			c0-0.1,0.2-0.2,0.3-0.3c0.2-0.1,0.4-0.3,0.7-0.7c0,0.3-0.1,0.5-0.2,0.7c-0.1,0.2-0.2,0.3-0.1,0.4c0,0.1,0.1,0.1,0.2,0.1
			c0.1,0.1,0,0.2,0,0.4C-2.6,14.4-2.3,14.7-2.4,14.7z M-2.5-2.9c0.1-0.3,0.3-0.6,0.7-1C-1.7-4-1.6-4.1-1.5-4.2
			c-0.1,0.1-0.2,0.3-0.2,0.4C-2-3.4-2.3-3.1-2.5-2.9z M1.9,7.4c1.6-2.1,3.6-4.3,5.9-6.6c1.7-1.6,3.4-3.1,4.9-4.3
			c-1.2,1.1-2.3,2.2-3.5,3.3C6.7,2.4,4.2,4.9,1.9,7.4z M9.5,0.8c1.3-1.3,2.5-2.3,3.7-3.2c-0.7,0.8-1.4,1.6-2.1,2.4
			C9.3,2,7.5,3.8,5.8,5.3C6.7,4,7.9,2.4,9.5,0.8z M12.4,3.6c1.7-1.5,3.4-2.8,5-4.1c-1.1,1.1-2.2,2.2-3.5,3.3c-2.4,2.2-4.9,4.2-7.2,6
			C8.4,7.1,10.3,5.4,12.4,3.6z M15,3.8C12.6,6,10.2,8,7.8,9.8c1.7-1.7,3.6-3.5,5.6-5.2c1.7-1.5,3.4-2.8,5-4.1
			C17.4,1.6,16.2,2.7,15,3.8z M24,1.4c-1.1,1.1-2.2,2.2-3.5,3.3c-2.4,2.2-4.9,4.2-7.2,6C15,9,16.9,7.2,19,5.5
			C20.7,4,22.3,2.6,24,1.4z M9.2,13.5c2.3-2.6,4.9-5.4,8-8.2c1.4-1.2,2.7-2.4,4.1-3.5c-1.5,1.5-3,3-4.5,4.5
			C14.2,8.7,11.7,11.1,9.2,13.5z M9.8,16c2.4-2.4,5.1-4.9,7.8-7.3c2.2-2,4.4-3.8,6.5-5.5c-1.7,1.6-3.5,3.3-5.3,5
			C15.8,10.9,12.7,13.5,9.8,16z M10.2,17.6c1.7-2,3.8-4.2,6.4-6.4c2.2-1.8,4.3-3.4,6.2-4.6c-1.7,1.5-3.4,3-5.1,4.4
			C15.2,13.2,12.7,15.4,10.2,17.6z M22.7,8.7c-1.9,1.7-3.7,3.3-5.5,4.7c0.3-0.3,0.7-0.6,1-0.9c1.2-1.1,2.4-2.2,3.5-3.3
			c-0.1,0.1-0.3,0.2-0.5,0.4c-0.1,0.1-0.2,0.2-0.3,0.2c-2,1.7-3.8,3.4-5.5,5.1c-1.4,1.2-2.8,2.3-4.2,3.3c1.7-1.7,3.6-3.5,5.6-5.2
			c1.5-1.3,3.1-2.6,4.5-3.7c1.6-1.4,3.2-2.7,4.7-3.8C25.1,6.4,23.9,7.6,22.7,8.7z"/>
	</defs>
	<clipPath id="SVGID_2_">
		<use xlink:href="#SVGID_1_"  style="overflow:visible;"/>
	</clipPath>
	<g class="st0">
		<path class="st1" d="M4.5,6.3C4.7,7.1,5,8,5.2,8.8c-0.4,0-0.8,0-1.2,0C4.2,8,4.4,7.1,4.5,6.3z"/>
		<path class="st1" d="M8.3,0.5C5.7,1,3.1,1.6,0.5,2V14c2.6,0.5,5.2,1.1,7.8,1.5h0.8v-15H8.3z M5.7,11.1c-0.1-0.5-0.2-0.9-0.3-1.3
			c-0.6,0-1.1,0-1.6,0c-0.1,0.4-0.2,0.8-0.3,1.3c-0.3,0-0.7-0.1-1-0.1C2.9,9.1,3.5,7.2,4,5.3c0.4,0,0.8-0.1,1.3-0.1
			c0.6,2,1.2,4,1.8,6C6.6,11.2,6.2,11.2,5.7,11.1z"/>
		<path class="st1" d="M11.4,2.6c-0.6,0-1.2,0.1-1.8,0.1v2.2c1.7,0.3,3.4,0.2,5.1-0.3c0.3-0.2,0.8-0.3,0.8-0.8
			c-0.1-0.5-0.7-0.7-1.1-0.9C13.4,2.7,12.4,2.6,11.4,2.6L11.4,2.6z"/>
		<path class="st1" d="M15.5,4.7c-0.6,0.5-1.5,0.7-2.2,0.8c-1.2,0.2-2.4,0.2-3.7,0v2.3C11.1,8,12.7,8,14.2,7.6
			c0.5-0.1,1-0.3,1.3-0.6C15.6,6.2,15.5,5.5,15.5,4.7L15.5,4.7z"/>
		<path class="st1" d="M5.2,8.8c-0.4,0-0.8,0-1.2,0C4.2,8,4.4,7.1,4.5,6.3C4.7,7.1,5,8,5.2,8.8z"/>
		<path class="st1" d="M5.2,8.8c-0.4,0-0.8,0-1.2,0C4.2,8,4.4,7.1,4.5,6.3C4.7,7.1,5,8,5.2,8.8z"/>
		<path class="st1" d="M15.5,7.6c-0.6,0.5-1.4,0.7-2.2,0.8c-1.2,0.2-2.5,0.2-3.7,0v2.3c1.5,0.2,3.1,0.2,4.6-0.2
			c0.5-0.1,1-0.3,1.3-0.6C15.6,9.1,15.5,8.3,15.5,7.6L15.5,7.6z"/>
		<path class="st1" d="M15.5,10.4c-0.6,0.5-1.5,0.7-2.2,0.8c-1.2,0.2-2.4,0.2-3.7,0c0,0.8,0,1.5,0,2.3c1.3,0.2,2.6,0.2,3.8,0
			c0.7-0.1,1.5-0.2,2-0.8C15.6,12,15.5,11.2,15.5,10.4L15.5,10.4z"/>
	</g>
</g>
</svg>
