<?xml version="1.0" encoding="utf-8"?>
<!-- Generator: Adobe Illustrator 23.0.0, SVG Export Plug-In . SVG Version: 6.00 Build 0)  -->
<svg version="1.1" id="Layer_1" xmlns="http://www.w3.org/2000/svg" xmlns:xlink="http://www.w3.org/1999/xlink" x="0px" y="0px"
	 viewBox="0 0 16 16" style="enable-background:new 0 0 16 16;" xml:space="preserve">
<style type="text/css">
	.st0{clip-path:url(#SVGID_2_);fill:#F75049;}
</style>
<g>
	<defs>
		<path id="SVGID_1_" d="M22.1,6c-0.1-0.1-0.3,0-0.6-0.2c-0.2-0.2-0.2-0.3-0.3-0.4c-0.4-0.2-1.3,0.5-1.3,0.5c0,0,0.4-0.3,0.7-0.7
			c0.2-0.2,0.6-0.7,0.5-1C21.1,4,20.9,4,20.8,3.9c0-0.3,0.5-0.4,0.4-0.7c0-0.2-0.2-0.3-0.3-0.3C20.6,2.6,20.2,3,20.2,3
			c0,0,0.3-0.2,0.4-0.5c0-0.1,0.2-0.3,0.1-0.5c-0.1-0.1-0.3-0.1-0.4-0.1c-0.1,0-0.2,0.1-0.2,0c0,0,0-0.1,0-0.2
			c0-0.2-0.3-0.3-0.6-0.3c-0.5,0-0.9,0.5-1,0.4c-0.1-0.1,0.5-0.5,0.4-0.9c0-0.1-0.2-0.3-0.4-0.3c-0.3,0-0.4,0.3-0.5,0.3
			c-0.1-0.1,0.1-0.7-0.1-0.9c-0.1-0.1-0.3,0.1-0.6,0C17.1,0.1,17.1,0.1,17,0c-0.3-0.1-0.8,0.4-1.3,0.9c-0.2,0.2-0.6,0.5-1.1,0.8
			c0.3-0.3,0.5-0.6,0.7-0.7c0.4-0.4,0.6-0.6,0.6-0.9c0-0.1,0-0.4-0.2-0.4c-0.2-0.1-0.4,0.2-1.1,0.6c-0.2,0.1-0.3,0.2-0.4,0.3
			c0,0,0.3-0.4,0.2-0.7c0,0-0.1-0.2-0.2-0.3c-0.4-0.3-1.1-0.2-1.2-0.2c-0.9,0.2-1.1,0.8-2.1,1.3c0,0-0.1,0.1-0.3,0.2
			C10.2,1.1,10,1.2,9.9,1.3C9.6,1.5,9.4,1.6,9.3,1.9C9.2,2.1,9.2,2.3,9.1,2.5C9,2.6,8.8,2.6,8.7,2.6C8.1,2.8,7.4,3.8,7.3,4
			C6.9,4.5,5.6,5.9,2.1,9c4.7-5,6.2-6.6,6.2-6.7c0,0,0,0,0,0c0-0.1,0.2-0.4,0-0.6c-0.1-0.1-0.2,0-0.3-0.1c0,0,0-0.1,0-0.1
			c0-0.2,0.4-0.2,0.4-0.3c0,0-0.1-0.1-0.2-0.1C8,0.9,8,0.8,7.8,0.8C7.6,0.7,7.4,0.9,7.2,1C7,1.1,6.9,1.2,6.8,1.2c0,0,0-0.2,0-0.3
			C6.7,0.8,6.5,0.8,6.5,0.8C6.1,0.8,6,1.1,5.9,1c-0.1,0,0-0.2-0.1-0.3C5.7,0.6,5.6,0.6,5.4,0.5C5.2,0.4,5.3,0.3,5.1,0
			C5-0.1,4.9-0.3,4.7-0.3c-0.2-0.1-0.3,0-0.5-0.1C3.9-0.5,3.9-0.6,3.7-0.7c-0.2,0-0.3,0-0.4,0.1C3-0.4,3-0.3,2.8-0.3
			c-0.2,0-0.2-0.2-0.5-0.2c-0.1,0-0.2,0-0.3,0C1.9-0.4,2-0.1,1.9,0C1.8,0,1.7,0,1.6,0C1.6-0.1,1.6-0.2,1.5-0.2
			C1.3-0.4,0.4-0.2,0.1,0.4C0,0.5,0,0.6-0.1,0.7c-0.2,0.1-0.3,0-0.5,0c-0.3,0-0.5,0.2-1.1,1c0,0-0.1,0.1-0.6,0.6
			c-0.9,1-1,1.1-1.1,1.4c0,0.5,0,0.7,0,0.7c0,0.1,0.1,0.3,0,0.4c-0.1,0.1-0.1,0-0.2,0.1c-0.1,0.1,0.1,0.4,0,0.8c0,0,0,0,0,0.3
			c-0.1,0.5-0.1,0.6,0,0.7c0.1,0.1,0.2,0.1,0.3,0.1c0.2,0,0.3-0.1,0.4-0.1c0.4-0.5,0.8-0.9,1.1-1.4C-1.8,5.6-2,5.8-2.1,6
			c-0.2,0.2-0.3,0.4-0.5,0.7c0,0.1-0.1,0.2-0.2,0.4c-0.1,0.2-0.2,0.5-0.1,0.8c0,0.1,0.1,0.2,0.1,0.3c0,0.2,0,0.3,0,0.4
			c0,0.1,0.1,0.1,0.2,0.1c0.1,0.1,0,0.3,0,0.6c0,0.2,0.1,0.1,0.1,0.3c0.1,0.3-0.1,0.4,0,0.7c0,0.1,0,0.2,0.1,0.3
			c0.1,0.1,0.4-0.1,0.6,0c0.2,0.1,0.1,0.3,0.3,0.4c0.1,0,0.2-0.1,0.4,0c0,0,0.3,0,0.3,0.1c0,0.1-0.1,0.3-0.3,0.4
			c-0.4,0.2-0.8-0.1-0.9,0c0,0.1,0.1,0.2,0.2,0.3c1,0.9,1,1,1.3,1.2C0.1,13.1,0,13,0.4,13.2c0.5,0.3,1.1,0.6,1.1,1
			c0,0.2-0.2,0.3-0.1,0.6c0,0.2,0.1,0.5,0.3,0.6c0.2,0.1,0.3-0.1,0.6-0.1c0.3,0,0.3,0.2,0.6,0.3c0.4,0,0.5-0.4,0.8-0.4
			c0.2,0,0.2,0.2,0.4,0.3c0.2,0.1,0.4,0,0.5,0c1-1.1,2.6-2.7,4.6-4.8c1.6-1.7,2.1-2.2,3-3.1c2.6-2.5,5.4-4.5,5.5-4.3
			c0.1,0.1-1.2,1.3-5.5,5.4c-3,2.8-5.4,5.2-7.1,6.8c0,0.3,0.1,0.5,0.2,0.5c0.2,0.1,0.5-0.2,0.8,0c0.1,0.1,0.3,0.2,0.3,0.4
			c0,0.2,0,0.3,0.1,0.4c0.1,0.1,0.1,0,0.2,0.1c0.2,0.2,0.1,0.3,0.3,0.5c0.2,0.1,0.4,0,0.4,0.2c0,0.1,0,0.1,0,0.3
			c0,0.1,0.2,0.1,0.2,0.3c0,0.2-0.3,0.3-0.3,0.6c0,0.2,0.1,0.2,0.1,0.5c0,0.5-0.6,0.6-0.5,0.9c0,0.2,0.2,0.4,0.4,0.5
			c0.3,0,0.5-0.4,0.8-0.4c0.4,0,0.6,0.6,0.9,0.5c0.3,0,0.3-0.4,0.6-0.4c0.2,0,0.3,0.1,0.4,0c0.1-0.1,0.1-0.2,0.3-0.3
			c0.1,0,0.1,0,0.2,0c0.2,0,0.6-0.4,0.7-0.8c0.1-0.4,0-0.5,0.2-0.8c0.1-0.2,0.3-0.3,0.4-0.4c0.5-0.4,1.2-1,1.8-1.6
			c0.8-0.8,0.9-1.1,1.5-1.4c0.1,0,0.3-0.1,0.5-0.3c0.3-0.3,0.4-0.6,0.6-0.8c0.4-0.8,0.8-0.8,1.7-2c0-0.1,0.2-0.3,0.2-0.4
			c-0.1-0.1-1.2,1.1-1.4,1c-0.1-0.1-0.1-0.2-0.1-0.2c0.1-0.6,0.8-0.8,1.9-1.7c0.3-0.2,0.2-0.2,0.5-0.5c0.8-0.7,1.7-1.3,2-1.7
			c0.1-0.3,0.2-0.6,0.2-0.6c0-0.1,0-0.1,0.1-0.2c0.1-0.3,0.2-0.4,0.7-0.9C22.1,6.2,22.1,6.1,22.1,6z M5.1,5.3
			C4.8,5.7,4.5,5.9,4.2,6.1C4.4,5.9,4.6,5.5,5,5.2C5.1,5.1,5.3,5,5.4,4.9C5.3,5,5.2,5.1,5.1,5.3z M4.9,4.1c0.5-0.5,1-1,1.4-1.4
			C6,3.1,5.5,3.6,5,4.1C4.7,4.5,4.4,4.8,4.1,5C4.3,4.7,4.6,4.4,4.9,4.1z M-0.7,4c0.1-0.2,0.2-0.4,0.4-0.6C-0.1,3.3-0.1,3.2,0,3.2
			c0,0.1-0.1,0.2-0.2,0.3C-0.3,3.7-0.5,3.9-0.7,4z M0.2,12.2c-0.1,0.1-0.2,0.2-0.3,0.2c0,0,0-0.2,0.1-0.3c0.1-0.1,0.3-0.2,0.3-0.2
			C0.3,11.9,0.3,12,0.2,12.2z M-0.1,7.5c0.3-0.4,0.7-0.8,1-1.2c0,0.1,0,0.2,0,0.3C0.5,6.9,0.2,7.2-0.1,7.5z M1.6,13.5
			c0,0-0.2-0.2-0.5-0.6c-0.1-0.1-0.2-0.2-0.2-0.3c0-0.1,0.1-0.1,0.2-0.2c0.1-0.1,0.3-0.2,0.4-0.5c0,0.2-0.1,0.3-0.1,0.4
			c0,0.1-0.1,0.2-0.1,0.3c0,0.1,0.1,0,0.1,0.1c0.1,0.1,0,0.2,0,0.3C1.5,13.3,1.6,13.5,1.6,13.5z M1.5,2.2C1.6,2,1.7,1.8,1.9,1.6
			C2,1.5,2.1,1.5,2.2,1.4c0,0.1-0.1,0.2-0.2,0.3C1.8,1.9,1.7,2.1,1.5,2.2z M4.3,8.8c1-1.3,2.3-2.8,3.8-4.2c1.1-1.1,2.2-2,3.2-2.8
			C10.6,2.5,9.8,3.2,9.1,4C7.4,5.6,5.8,7.2,4.3,8.8z M9.2,4.6c0.8-0.8,1.6-1.5,2.4-2c-0.4,0.5-0.9,1-1.4,1.6
			C9.1,5.4,7.9,6.5,6.8,7.5C7.4,6.6,8.2,5.6,9.2,4.6z M11.1,6.4c1.1-0.9,2.2-1.8,3.2-2.6c-0.7,0.7-1.4,1.4-2.2,2.1
			c-1.6,1.4-3.1,2.7-4.6,3.8C8.5,8.7,9.7,7.5,11.1,6.4z M12.8,6.5C11.2,8,9.6,9.2,8.2,10.4c1.1-1.1,2.3-2.2,3.6-3.4
			C12.9,6,14,5.2,15,4.4C14.3,5.1,13.6,5.8,12.8,6.5z M18.5,5c-0.7,0.7-1.4,1.4-2.2,2.1c-1.6,1.4-3.1,2.7-4.6,3.8
			c1.1-1.1,2.3-2.2,3.6-3.4C16.4,6.6,17.5,5.8,18.5,5z M9,12.7c1.4-1.7,3.1-3.5,5.1-5.3c0.9-0.8,1.8-1.5,2.6-2.2
			c-1,1-1.9,1.9-2.9,2.9C12.3,9.7,10.7,11.2,9,12.7z M9.4,14.4c1.6-1.5,3.2-3.1,5-4.7c1.4-1.3,2.8-2.4,4.2-3.5
			c-1.1,1.1-2.3,2.1-3.4,3.2C13.2,11.1,11.3,12.8,9.4,14.4z M9.7,15.4c1.1-1.3,2.5-2.7,4.1-4.1c1.4-1.2,2.7-2.2,4-3
			c-1.1,1-2.2,1.9-3.3,2.9C12.9,12.6,11.3,14,9.7,15.4z M17.7,9.7c-1.2,1.1-2.4,2.1-3.6,3c0.2-0.2,0.4-0.4,0.6-0.6
			c0.8-0.7,1.5-1.4,2.2-2.1c-0.1,0.1-0.2,0.1-0.3,0.2c-0.1,0-0.1,0.1-0.2,0.2c-1.3,1.1-2.4,2.2-3.5,3.3c-0.9,0.8-1.8,1.5-2.7,2.1
			c1.1-1.1,2.3-2.2,3.6-3.4c1-0.9,2-1.7,2.9-2.4c1-0.9,2.1-1.7,3-2.5C19.3,8.2,18.5,8.9,17.7,9.7z"/>
	</defs>
	<clipPath id="SVGID_2_">
		<use xlink:href="#SVGID_1_"  style="overflow:visible;"/>
	</clipPath>
	<path class="st0" d="M12.5,1c-1.2,0-2.2,0.8-2.4,2H2v1c1.9,1,3.2,2.5,3.4,3.3c0.2,0.9,0,1.9-0.6,3C4.3,10.1,3.9,10,3.5,10
		C2.1,10,1,11.1,1,12.5S2.1,15,3.5,15c1.2,0,2.2-0.8,2.4-2H9v1v1h5v-5H9v1v1H5.9c-0.1-0.4-0.2-0.7-0.4-1c0.9-1.3,1.2-2.6,0.9-3.9
		C6.1,5.9,5.2,4.9,4,4h6.1c0.2,1.2,1.3,2,2.4,2C13.9,6,15,4.9,15,3.5S13.9,1,12.5,1z"/>
</g>
</svg>
