<?xml version="1.0" encoding="utf-8"?>
<!-- Generator: Adobe Illustrator 23.0.0, SVG Export Plug-In . SVG Version: 6.00 Build 0)  -->
<svg version="1.1" id="Layer_1" xmlns="http://www.w3.org/2000/svg" xmlns:xlink="http://www.w3.org/1999/xlink" x="0px" y="0px"
	 viewBox="0 0 16 16" style="enable-background:new 0 0 16 16;" xml:space="preserve">
<style type="text/css">
	.st0{clip-path:url(#SVGID_2_);}
	.st1{fill:#F75049;}
</style>
<g>
	<defs>
		<path id="SVGID_1_" d="M26.3,3c-0.1-0.2-0.5,0-0.8-0.3c-0.3-0.2-0.2-0.5-0.4-0.6c-0.5-0.3-1.8,0.7-1.8,0.7c0,0,0.5-0.4,1-0.9
			c0.3-0.3,0.9-1,0.7-1.4c-0.1-0.3-0.4-0.2-0.4-0.5c-0.1-0.4,0.7-0.6,0.6-1c0-0.2-0.2-0.4-0.4-0.5c-0.5-0.2-1.1,0.3-1.1,0.3
			c0,0,0.4-0.2,0.6-0.7c0-0.1,0.2-0.5,0.1-0.7c-0.1-0.1-0.4-0.1-0.5-0.1c-0.2,0-0.3,0.1-0.3,0.1c-0.1,0,0-0.1,0-0.2
			c0-0.2-0.5-0.4-0.8-0.4c-0.7-0.1-1.3,0.7-1.4,0.6c-0.1-0.1,0.7-0.8,0.5-1.2c-0.1-0.2-0.3-0.4-0.5-0.4c-0.4,0-0.6,0.4-0.7,0.4
			c-0.2-0.1,0.2-1-0.1-1.2c-0.2-0.1-0.4,0.1-0.8,0c-0.2-0.1-0.2-0.2-0.4-0.3c-0.4-0.2-1.1,0.6-1.9,1.3c-0.3,0.3-0.9,0.7-1.6,1.1
			c0.4-0.5,0.7-0.8,0.9-1.1c0.6-0.6,0.9-0.9,0.9-1.3c0-0.2,0-0.5-0.2-0.6c-0.2-0.1-0.5,0.2-1.5,0.9c-0.2,0.2-0.5,0.3-0.6,0.4
			c0-0.1,0.4-0.5,0.3-1c0-0.1-0.1-0.2-0.3-0.4c-0.6-0.5-1.6-0.3-1.7-0.2c-1.2,0.3-1.5,1.1-3,1.9c0,0-0.2,0.1-0.5,0.2
			C9.4-4,9.1-3.9,9-3.8C8.6-3.5,8.3-3.3,8.2-3C8-2.6,8.1-2.4,7.9-2.1C7.7-1.9,7.4-1.9,7.4-1.9C6.5-1.6,5.5-0.2,5.4,0
			C4.8,0.8,2.9,2.7-2,7.2c6.7-7.1,8.8-9.3,8.9-9.5c0,0,0,0,0,0c0-0.1,0.2-0.6,0-0.8C6.7-3.2,6.5-3.2,6.4-3.3c0,0-0.1-0.1,0-0.2
			C6.5-3.8,7-3.9,7-4c0-0.1-0.1-0.1-0.3-0.1C6.3-4.3,6.3-4.4,6.1-4.5C5.8-4.6,5.4-4.4,5.2-4.2C4.9-4.1,4.7-3.9,4.6-4
			C4.5-4,4.7-4.2,4.6-4.3C4.5-4.5,4.2-4.5,4.2-4.5c-0.5,0-0.7,0.4-0.9,0.3c-0.1-0.1,0-0.2-0.1-0.4C3-4.8,2.9-4.7,2.6-4.9
			C2.4-5.1,2.5-5.2,2.2-5.6C2.1-5.8,1.9-6,1.6-6.1c-0.3-0.1-0.4,0-0.7-0.1C0.5-6.3,0.5-6.5,0.2-6.6C0-6.6-0.2-6.5-0.4-6.4
			C-0.8-6.2-0.8-6-1-6c-0.3,0-0.3-0.3-0.7-0.3c-0.1,0-0.3-0.1-0.4,0c-0.2,0.2,0,0.5-0.1,0.7c-0.1,0.1-0.3,0.1-0.4,0
			c-0.1-0.1-0.1-0.2-0.2-0.3c-0.3-0.3-1.6,0.1-2,0.9C-5-4.9-5-4.7-5.2-4.6c-0.2,0.1-0.4,0-0.7,0c-0.4,0-0.7,0.3-1.5,1.4
			c0,0-0.2,0.2-0.8,0.9c-1.2,1.4-1.5,1.6-1.5,2c0,0.7,0.1,1,0.1,1c0,0.1,0.1,0.4,0,0.5c-0.1,0.1-0.2,0.1-0.2,0.1
			C-10,1.5-9.7,1.9-9.8,2.4c0,0,0,0-0.1,0.4c-0.1,0.8-0.2,0.9-0.1,1c0.1,0.1,0.2,0.1,0.4,0.1c0.2,0,0.4-0.1,0.5-0.2
			C-8.5,3.1-8,2.5-7.4,1.8c-0.2,0.5-0.4,0.8-0.6,1c-0.2,0.3-0.4,0.6-0.7,1C-8.8,4-8.9,4.2-8.9,4.4C-9,4.7-9.2,5.1-9,5.5
			C-9,5.6-8.9,5.7-8.8,5.9c0,0.3-0.1,0.4,0,0.6c0.1,0.1,0.1,0.1,0.2,0.2c0.2,0.2,0,0.4,0,0.8c0,0.2,0.1,0.2,0.2,0.4
			c0.1,0.4-0.1,0.5,0,1c0,0.2,0,0.3,0.1,0.4c0.2,0.2,0.5-0.1,0.8,0.1C-7.2,9.4-7.3,9.7-7,9.8c0.2,0.1,0.3-0.1,0.6-0.1
			c0.1,0,0.4,0,0.5,0.2c0.1,0.1-0.1,0.4-0.4,0.5c-0.5,0.3-1.1-0.1-1.2,0.1c-0.1,0.1,0.2,0.3,0.3,0.4c1.4,1.3,1.4,1.4,1.9,1.7
			c0.5,0.3,0.4,0.1,1,0.5c0.7,0.4,1.5,0.9,1.6,1.4c0,0.3-0.2,0.4-0.2,0.8c0,0.3,0.1,0.8,0.4,0.9c0.3,0.1,0.4-0.2,0.9-0.1
			c0.4,0,0.5,0.4,0.8,0.4c0.5,0,0.7-0.6,1.1-0.5c0.2,0.1,0.2,0.3,0.6,0.4c0.3,0.1,0.6,0,0.8,0c1.5-1.5,3.8-3.9,6.5-6.8
			c2.3-2.4,2.9-3.1,4.2-4.4c3.7-3.6,7.7-6.3,7.8-6.1c0.1,0.1-1.7,1.8-7.8,7.6c-4.2,4-7.7,7.3-10.1,9.6c0,0.5,0.1,0.6,0.2,0.7
			c0.3,0.2,0.7-0.2,1.1,0c0.1,0.1,0.4,0.3,0.5,0.6c0.1,0.2,0,0.4,0.2,0.6c0.1,0.1,0.2,0.1,0.3,0.2c0.3,0.2,0.1,0.5,0.4,0.7
			c0.2,0.2,0.5,0.1,0.6,0.2c0.1,0.1-0.1,0.2,0,0.4c0,0.2,0.2,0.2,0.3,0.4c0.1,0.2-0.4,0.4-0.5,0.8c-0.1,0.3,0.1,0.3,0.1,0.7
			c0,0.7-0.8,0.8-0.8,1.3c0,0.3,0.3,0.6,0.6,0.7c0.5,0.1,0.7-0.6,1.2-0.6c0.6,0,0.8,0.8,1.3,0.8C8,23.6,8,23.2,8.5,23.1
			c0.3,0,0.4,0.2,0.6,0.1c0.2-0.1,0.2-0.3,0.4-0.4c0.1,0,0.2,0,0.3,0c0.4,0,0.8-0.6,1-1.1c0.2-0.5,0-0.7,0.2-1.1
			c0.2-0.3,0.4-0.5,0.5-0.5c0.8-0.6,1.7-1.4,2.6-2.2c1.2-1.1,1.3-1.6,2.1-2c0.1-0.1,0.4-0.2,0.7-0.4c0.4-0.4,0.6-0.8,0.8-1.2
			c0.6-1.1,1.2-1.2,2.4-2.9c0.1-0.1,0.3-0.5,0.3-0.5c-0.1-0.1-1.7,1.6-2,1.4c-0.1-0.1-0.1-0.3-0.1-0.4c0.1-0.8,1.2-1.1,2.7-2.4
			c0.4-0.3,0.3-0.3,0.7-0.7c1.2-1,2.4-1.8,2.8-2.5c0.2-0.4,0.3-0.8,0.3-0.8c0-0.1,0-0.2,0.1-0.3c0.1-0.4,0.3-0.5,1-1.2
			C26.3,3.3,26.4,3.1,26.3,3z M2.3,1.9C1.8,2.4,1.3,2.8,0.9,3.1C1.2,2.7,1.5,2.2,2,1.8c0.2-0.2,0.4-0.3,0.6-0.4
			C2.5,1.5,2.4,1.7,2.3,1.9z M1.9,0.1c0.7-0.8,1.4-1.4,2-2C3.4-1.2,2.8-0.5,2.1,0.3C1.7,0.7,1.2,1.1,0.8,1.5
			C1.1,1.1,1.5,0.6,1.9,0.1z M-5.9,0.1c0.1-0.3,0.3-0.6,0.6-0.9C-5.2-0.9-5.1-1-5-1.1C-5.1-1-5.1-0.9-5.2-0.7
			C-5.5-0.4-5.7-0.1-5.9,0.1z M-4.8,11.6c-0.1,0.2-0.3,0.2-0.4,0.3c0-0.1,0-0.3,0.1-0.4c0.2-0.2,0.4-0.3,0.4-0.3
			C-4.6,11.3-4.6,11.5-4.8,11.6z M-5.2,5.1c0.5-0.6,0.9-1.1,1.4-1.7c0,0.1,0,0.3,0.1,0.4C-4.3,4.2-4.7,4.6-5.2,5.1z M-2.8,13.6
			c-0.1,0-0.2-0.3-0.7-0.8c-0.1-0.1-0.3-0.3-0.2-0.4c0-0.1,0.2-0.2,0.3-0.2c0.2-0.1,0.4-0.3,0.6-0.6c0,0.3-0.1,0.5-0.1,0.6
			c-0.1,0.1-0.2,0.3-0.1,0.4c0,0.1,0.1,0.1,0.2,0.1c0.1,0.1,0,0.2,0,0.4C-2.9,13.3-2.7,13.6-2.8,13.6z M-2.9-2.4
			C-2.8-2.7-2.6-3-2.3-3.3C-2.2-3.5-2-3.6-1.9-3.6C-2-3.5-2.1-3.4-2.2-3.3C-2.4-2.9-2.7-2.6-2.9-2.4z M1.1,6.9C2.6,5,4.4,3,6.5,0.9
			C8.1-0.6,9.6-1.9,11-3C10-2,8.9-1,7.9,0C5.5,2.3,3.2,4.6,1.1,6.9z M8.1,0.9c1.2-1.2,2.3-2.1,3.3-2.9c-0.6,0.7-1.3,1.5-2,2.2
			C7.9,2,6.3,3.6,4.7,5.1C5.5,3.8,6.6,2.4,8.1,0.9z M10.7,3.5c1.6-1.3,3.1-2.6,4.6-3.7c-1,1-2,2-3.2,3c-2.2,2-4.4,3.9-6.5,5.4
			C7.1,6.7,8.8,5.1,10.7,3.5z M13.1,3.6c-2.2,2-4.4,3.9-6.5,5.4c1.6-1.6,3.3-3.2,5.1-4.8c1.6-1.3,3.1-2.6,4.6-3.7
			C15.3,1.6,14.2,2.6,13.1,3.6z M21.3,1.4c-1,1-2,2-3.2,3c-2.2,2-4.4,3.9-6.5,5.4c1.6-1.6,3.3-3.2,5.1-4.8
			C18.3,3.8,19.8,2.6,21.3,1.4z M7.8,12.4C9.8,10,12.2,7.5,15.1,5c1.3-1.1,2.5-2.2,3.7-3.2c-1.4,1.4-2.7,2.8-4.1,4.1
			C12.4,8.1,10.1,10.3,7.8,12.4z M8.3,14.8c2.2-2.2,4.6-4.4,7.1-6.7c2-1.8,4-3.5,5.9-5c-1.6,1.5-3.2,3-4.9,4.5
			C13.8,10.1,11,12.5,8.3,14.8z M8.7,16.2c1.6-1.8,3.5-3.8,5.8-5.8c2-1.7,3.9-3.1,5.6-4.2c-1.5,1.4-3.1,2.7-4.6,4.1
			C13.3,12.2,11,14.2,8.7,16.2z M20.1,8.1c-1.7,1.6-3.4,3-5,4.3c0.3-0.3,0.6-0.5,0.9-0.8c1.1-1,2.2-2,3.2-3
			c-0.1,0.1-0.3,0.2-0.4,0.3c-0.1,0.1-0.2,0.1-0.3,0.2c-1.8,1.6-3.5,3.1-5,4.6c-1.3,1.1-2.6,2.1-3.8,3c1.6-1.6,3.3-3.2,5.1-4.8
			c1.4-1.2,2.8-2.4,4.1-3.4c1.5-1.3,2.9-2.4,4.3-3.5C22.3,6.1,21.2,7.1,20.1,8.1z"/>
	</defs>
	<clipPath id="SVGID_2_">
		<use xlink:href="#SVGID_1_"  style="overflow:visible;"/>
	</clipPath>
	<g transform="translate(-512,-180)" class="st0">
		<path class="st1" d="M523.5,183c-0.8,0-1.5,0.7-1.5,1.5s0.7,1.5,1.5,1.5s1.5-0.7,1.5-1.5S524.3,183,523.5,183z"/>
		<path class="st1" d="M513,181v14h14v-14H513z M514,182h12v10h-12V182z"/>
		<path class="st1" d="M518,185.5l-3,5.5h2.7h5.3l-2.5-4.5l-1,1.5L518,185.5z"/>
	</g>
</g>
</svg>
