<?xml version="1.0" encoding="utf-8"?>
<!-- Generator: Adobe Illustrator 23.0.0, SVG Export Plug-In . SVG Version: 6.00 Build 0)  -->
<svg version="1.1" id="Layer_1" xmlns="http://www.w3.org/2000/svg" xmlns:xlink="http://www.w3.org/1999/xlink" x="0px" y="0px"
	 viewBox="0 0 16 16" style="enable-background:new 0 0 16 16;" xml:space="preserve">
<style type="text/css">
	.st0{clip-path:url(#SVGID_2_);fill-rule:evenodd;clip-rule:evenodd;fill:#F75049;}
</style>
<g>
	<defs>
		<path id="SVGID_1_" d="M16.3,2.4c-0.1-0.1-0.3,0-0.6-0.2c-0.2-0.2-0.2-0.3-0.3-0.4c-0.4-0.2-1.3,0.5-1.3,0.5c0,0,0.4-0.3,0.7-0.7
			c0.2-0.2,0.6-0.7,0.5-1c-0.1-0.2-0.3-0.2-0.3-0.3c0-0.3,0.5-0.4,0.4-0.7c0-0.2-0.2-0.3-0.3-0.3c-0.3-0.1-0.8,0.2-0.8,0.2
			c0,0,0.3-0.2,0.4-0.5c0-0.1,0.2-0.3,0.1-0.5c-0.1-0.1-0.3-0.1-0.4-0.1c-0.1,0-0.2,0.1-0.2,0c0,0,0-0.1,0-0.2
			c0-0.2-0.3-0.3-0.6-0.3c-0.5,0-0.9,0.5-1,0.4c-0.1-0.1,0.5-0.5,0.4-0.9c0-0.1-0.2-0.3-0.4-0.3c-0.3,0-0.4,0.3-0.5,0.3
			C12-2.6,12.3-3.3,12-3.4c-0.1-0.1-0.3,0.1-0.6,0c-0.2-0.1-0.2-0.1-0.3-0.2c-0.3-0.1-0.8,0.4-1.3,0.9C9.7-2.5,9.3-2.2,8.8-1.9
			C9-2.2,9.3-2.5,9.4-2.7c0.4-0.4,0.6-0.6,0.6-0.9c0-0.1,0-0.4-0.2-0.4C9.7-4.1,9.5-3.9,8.8-3.4C8.7-3.3,8.5-3.2,8.4-3.1
			c0,0,0.3-0.4,0.2-0.7c0,0-0.1-0.2-0.2-0.3C8-4.4,7.3-4.3,7.2-4.3C6.4-4,6.1-3.4,5.1-2.9c0,0-0.1,0.1-0.3,0.2
			C4.4-2.5,4.2-2.4,4.1-2.4C3.8-2.2,3.6-2.1,3.5-1.8C3.4-1.5,3.4-1.4,3.3-1.2C3.1-1.1,3-1,2.9-1C2.3-0.9,1.6,0.2,1.5,0.3
			C1.1,0.9-0.2,2.2-3.7,5.4c4.7-5,6.2-6.6,6.2-6.7c0,0,0,0,0,0c0-0.1,0.2-0.4,0-0.6C2.5-2,2.3-1.9,2.3-2c0,0,0-0.1,0-0.1
			c0-0.2,0.4-0.2,0.4-0.3c0,0-0.1-0.1-0.2-0.1C2.2-2.7,2.2-2.8,2-2.9C1.8-2.9,1.5-2.8,1.4-2.7C1.2-2.6,1-2.5,1-2.5c0,0,0-0.2,0-0.3
			C0.9-2.9,0.7-2.9,0.7-2.8C0.3-2.8,0.1-2.6,0-2.6C0-2.7,0-2.8,0-2.9C-0.1-3.1-0.2-3-0.4-3.1c-0.2-0.1-0.1-0.3-0.3-0.5
			C-0.8-3.8-0.9-3.9-1.1-4c-0.2-0.1-0.3,0-0.5-0.1c-0.3-0.1-0.3-0.2-0.5-0.3c-0.2,0-0.3,0-0.4,0.1C-2.8-4.1-2.8-3.9-3-3.9
			c-0.2,0-0.2-0.2-0.5-0.2c-0.1,0-0.2,0-0.3,0c-0.1,0.1,0,0.4-0.1,0.5c-0.1,0.1-0.2,0.1-0.3,0c-0.1-0.1-0.1-0.1-0.1-0.2
			c-0.2-0.2-1.1,0.1-1.4,0.6C-5.8-3.2-5.8-3-5.9-3c-0.2,0.1-0.3,0-0.5,0c-0.3,0-0.5,0.2-1.1,1c0,0-0.1,0.1-0.6,0.6
			c-0.9,1-1,1.1-1.1,1.4c0,0.5,0,0.7,0,0.7C-9,0.9-9,1-9,1.1c-0.1,0.1-0.1,0-0.2,0.1c-0.1,0.1,0.1,0.4,0,0.8c0,0,0,0,0,0.3
			c-0.1,0.5-0.1,0.6,0,0.7C-9.2,3.1-9.1,3-9,3C-8.8,3-8.7,3-8.6,2.9C-8.3,2.5-7.9,2-7.5,1.6c-0.2,0.3-0.3,0.6-0.4,0.7
			C-8.1,2.5-8.2,2.7-8.4,3c0,0.1-0.1,0.2-0.2,0.4c-0.1,0.2-0.2,0.5-0.1,0.8c0,0.1,0.1,0.2,0.1,0.3c0,0.2,0,0.3,0,0.4
			c0,0.1,0.1,0.1,0.2,0.1c0.1,0.1,0,0.3,0,0.6c0,0.2,0.1,0.1,0.1,0.3c0.1,0.3-0.1,0.4,0,0.7c0,0.1,0,0.2,0.1,0.3
			c0.1,0.1,0.4-0.1,0.6,0C-7.3,7-7.4,7.2-7.2,7.2c0.1,0,0.2-0.1,0.4,0c0,0,0.3,0,0.3,0.1c0,0.1-0.1,0.3-0.3,0.4
			c-0.4,0.2-0.8-0.1-0.9,0c0,0.1,0.1,0.2,0.2,0.3c1,0.9,1,1,1.3,1.2c0.3,0.2,0.3,0.1,0.7,0.3c0.5,0.3,1.1,0.6,1.1,1
			c0,0.2-0.2,0.3-0.1,0.6c0,0.2,0.1,0.5,0.3,0.6c0.2,0.1,0.3-0.1,0.6-0.1c0.3,0,0.3,0.2,0.6,0.3c0.4,0,0.5-0.4,0.8-0.4
			c0.2,0,0.2,0.2,0.4,0.3c0.2,0.1,0.4,0,0.5,0c1-1.1,2.6-2.7,4.6-4.8C5,5.3,5.5,4.8,6.4,4c2.6-2.5,5.4-4.5,5.5-4.3
			C12-0.2,10.7,0.9,6.4,5c-3,2.8-5.4,5.2-7.1,6.8c0,0.3,0.1,0.5,0.2,0.5c0.2,0.1,0.5-0.2,0.8,0c0.1,0.1,0.3,0.2,0.3,0.4
			c0,0.2,0,0.3,0.1,0.4c0.1,0.1,0.1,0,0.2,0.1c0.2,0.2,0.1,0.3,0.3,0.5c0.2,0.1,0.4,0,0.4,0.2c0,0.1,0,0.1,0,0.3
			c0,0.1,0.2,0.1,0.2,0.3c0,0.2-0.3,0.3-0.3,0.6c0,0.2,0.1,0.2,0.1,0.5c0,0.5-0.6,0.6-0.5,0.9c0,0.2,0.2,0.4,0.4,0.5
			c0.3,0,0.5-0.4,0.8-0.4c0.4,0,0.6,0.6,0.9,0.5c0.3,0,0.3-0.4,0.6-0.4c0.2,0,0.3,0.1,0.4,0c0.1-0.1,0.1-0.2,0.3-0.3
			c0.1,0,0.1,0,0.2,0c0.2,0,0.6-0.4,0.7-0.8c0.1-0.4,0-0.5,0.2-0.8c0.1-0.2,0.3-0.3,0.4-0.4c0.5-0.4,1.2-1,1.8-1.6
			c0.8-0.8,0.9-1.1,1.5-1.4c0.1,0,0.3-0.1,0.5-0.3c0.3-0.3,0.4-0.6,0.6-0.8c0.4-0.8,0.8-0.8,1.7-2C11.8,8.2,12,8,12,7.9
			c-0.1-0.1-1.2,1.1-1.4,1c-0.1-0.1-0.1-0.2-0.1-0.2c0.1-0.6,0.8-0.8,1.9-1.7c0.3-0.2,0.2-0.2,0.5-0.5c0.8-0.7,1.7-1.3,2-1.7
			C15,4.5,15,4.2,15,4.2c0-0.1,0-0.1,0.1-0.2c0.1-0.3,0.2-0.4,0.7-0.9C16.3,2.6,16.3,2.5,16.3,2.4z M-0.7,1.6C-1,2-1.3,2.3-1.6,2.5
			c0.2-0.3,0.4-0.6,0.8-0.9c0.1-0.1,0.3-0.2,0.4-0.3C-0.5,1.4-0.6,1.5-0.7,1.6z M-0.9,0.4c0.5-0.5,1-1,1.4-1.4
			C0.1-0.5-0.3,0-0.8,0.5c-0.3,0.3-0.6,0.6-0.9,0.9C-1.5,1-1.2,0.7-0.9,0.4z M-6.5,0.4C-6.4,0.2-6.2-0.1-6-0.3
			c0.1-0.1,0.2-0.2,0.2-0.2c0,0.1-0.1,0.2-0.2,0.3C-6.1,0-6.3,0.2-6.5,0.4z M-5.6,8.5c-0.1,0.1-0.2,0.2-0.3,0.2c0,0,0-0.2,0.1-0.3
			c0.1-0.1,0.3-0.2,0.3-0.2C-5.5,8.3-5.5,8.4-5.6,8.5z M-5.9,3.9c0.3-0.4,0.7-0.8,1-1.2c0,0.1,0,0.2,0,0.3C-5.3,3.3-5.6,3.6-5.9,3.9
			z M-4.2,9.9c0,0-0.2-0.2-0.5-0.6C-4.8,9.2-4.9,9.1-4.9,9c0-0.1,0.1-0.1,0.2-0.2c0.1-0.1,0.3-0.2,0.4-0.5c0,0.2-0.1,0.3-0.1,0.4
			C-4.4,8.9-4.5,9-4.4,9c0,0.1,0.1,0,0.1,0.1c0.1,0.1,0,0.2,0,0.3C-4.3,9.7-4.2,9.9-4.2,9.9z M-4.3-1.4c0.1-0.2,0.2-0.4,0.4-0.6
			c0.1-0.1,0.2-0.2,0.2-0.2c0,0.1-0.1,0.2-0.2,0.3C-4-1.7-4.1-1.6-4.3-1.4z M-1.5,5.2c1-1.3,2.3-2.8,3.8-4.2c1.1-1.1,2.2-2,3.2-2.8
			C4.8-1.1,4-0.4,3.3,0.3C1.6,1.9,0,3.6-1.5,5.2z M3.4,0.9c0.8-0.8,1.6-1.5,2.4-2c-0.4,0.5-0.9,1-1.4,1.6C3.3,1.7,2.1,2.8,1,3.9
			C1.6,3,2.4,2,3.4,0.9z M5.3,2.7c1.1-0.9,2.2-1.8,3.2-2.6C7.8,0.8,7,1.5,6.2,2.3C4.7,3.7,3.1,5,1.6,6.1C2.7,5,3.9,3.9,5.3,2.7z
			 M7,2.9C5.4,4.3,3.8,5.6,2.4,6.7C3.5,5.6,4.7,4.5,6,3.3c1.1-0.9,2.2-1.8,3.2-2.6C8.5,1.4,7.7,2.1,7,2.9z M12.7,1.3
			C12,2,11.3,2.7,10.5,3.5C8.9,4.9,7.4,6.2,5.9,7.3C7,6.2,8.2,5.1,9.5,3.9C10.6,3,11.7,2.1,12.7,1.3z M3.2,9.1
			c1.4-1.7,3.1-3.5,5.1-5.3C9.2,3,10.1,2.3,11,1.6c-1,1-1.9,1.9-2.9,2.9C6.5,6,4.8,7.5,3.2,9.1z M3.6,10.7c1.6-1.5,3.2-3.1,5-4.7
			c1.4-1.3,2.8-2.4,4.2-3.5c-1.1,1.1-2.3,2.1-3.4,3.2C7.4,7.4,5.5,9.1,3.6,10.7z M3.9,11.7C5,10.4,6.3,9,8,7.6c1.4-1.2,2.7-2.2,4-3
			c-1.1,1-2.2,1.9-3.3,2.9C7.1,8.9,5.5,10.3,3.9,11.7z M11.9,6c-1.2,1.1-2.4,2.1-3.6,3C8.6,8.8,8.8,8.7,9,8.5
			c0.8-0.7,1.5-1.4,2.2-2.1c-0.1,0.1-0.2,0.1-0.3,0.2c-0.1,0-0.1,0.1-0.2,0.2C9.5,7.8,8.3,8.9,7.2,10c-0.9,0.8-1.8,1.5-2.7,2.1
			C5.7,11,6.9,9.9,8.2,8.7c1-0.9,2-1.7,2.9-2.4c1-0.9,2.1-1.7,3-2.5C13.4,4.6,12.7,5.3,11.9,6z"/>
	</defs>
	<clipPath id="SVGID_2_">
		<use xlink:href="#SVGID_1_"  style="overflow:visible;"/>
	</clipPath>
	<path class="st0" d="M11.2,0c-0.4,0-0.8,0-1.1,0C9.8,0.1,9.5,0.3,9.3,0.4S9.1,0.8,9,0.9c-0.6,1.2-1.3,2.4-2,3.4
		C6.2,5.5,5.3,6.9,4.8,8.1c-0.3,0.7-0.6,1.5-0.9,2.4c-0.7,1.8-1.3,3.6-1.8,5.5C2.9,16,2.9,16,3.7,16c0.5-1,1.4-1.9,2.2-2.6
		c1.3-1.2,3.2-2.4,4.9-2.7l0.6-0.1c0-1.9,0.2-3.9,1.1-5.5c0.4-0.7,0.9-1.2,1.4-1.8c0.1-0.1,0-0.2,0-0.3C13.6,1.1,12.4,0.2,11.2,0
		C11.2,0,11.2,0,11.2,0L11.2,0z"/>
</g>
</svg>
