<?xml version="1.0" encoding="utf-8"?>
<!-- Generator: Adobe Illustrator 23.0.0, SVG Export Plug-In . SVG Version: 6.00 Build 0)  -->
<svg version="1.1" id="Layer_1" xmlns="http://www.w3.org/2000/svg" xmlns:xlink="http://www.w3.org/1999/xlink" x="0px" y="0px"
	 viewBox="0 0 16 16.1" style="enable-background:new 0 0 16 16.1;" xml:space="preserve">
<style type="text/css">
	.st0{clip-path:url(#SVGID_2_);}
	.st1{fill:#F75049;}
</style>
<g>
	<defs>
		<path id="SVGID_1_" d="M22.3,4.9c-0.1-0.1-0.4,0-0.6-0.3c-0.2-0.2-0.2-0.4-0.3-0.5C21,3.9,20,4.7,19.9,4.7c0,0,0.4-0.3,0.8-0.7
			c0.2-0.3,0.7-0.8,0.6-1.1C21.2,2.6,21,2.6,21,2.5c0-0.3,0.5-0.5,0.5-0.8c0-0.2-0.2-0.3-0.3-0.4c-0.4-0.1-0.9,0.3-0.9,0.2
			c0,0,0.3-0.2,0.5-0.5c0-0.1,0.2-0.4,0.1-0.5c-0.1-0.1-0.3-0.1-0.4-0.1c-0.1,0-0.2,0.1-0.3,0.1c0,0,0-0.1,0-0.2
			c0-0.2-0.4-0.3-0.6-0.3c-0.6-0.1-1,0.5-1.1,0.4c-0.1-0.1,0.5-0.6,0.4-1c-0.1-0.2-0.2-0.3-0.4-0.3c-0.3,0-0.4,0.3-0.6,0.3
			c-0.2-0.1,0.1-0.8-0.1-0.9c-0.1-0.1-0.3,0.1-0.6,0c-0.2-0.1-0.2-0.2-0.3-0.2c-0.3-0.1-0.8,0.5-1.4,1c-0.3,0.2-0.7,0.6-1.2,0.9
			c0.3-0.4,0.5-0.6,0.7-0.8c0.5-0.5,0.7-0.7,0.7-1c0-0.1,0-0.4-0.2-0.5c-0.2-0.1-0.4,0.2-1.2,0.7c-0.2,0.1-0.4,0.2-0.4,0.3
			c0,0,0.3-0.4,0.2-0.8c0,0-0.1-0.2-0.2-0.3c-0.5-0.4-1.2-0.2-1.3-0.2C11.4-2.2,11.2-1.6,10-1c0,0-0.2,0.1-0.4,0.2
			C9.2-0.6,9-0.4,8.9-0.4C8.6-0.2,8.4,0,8.2,0.3C8.1,0.5,8.2,0.7,8,0.9C7.8,1.1,7.7,1.1,7.6,1.1C7,1.3,6.1,2.4,6,2.6
			C5.6,3.2,4.2,4.7,0.3,8.2c5.2-5.5,6.8-7.3,6.9-7.4c0,0,0,0,0,0c0-0.1,0.2-0.5,0-0.6C7.1,0.1,7,0.1,6.9,0c0,0,0-0.1,0-0.2
			c0-0.2,0.5-0.3,0.5-0.4c0,0-0.1-0.1-0.2-0.1C6.8-0.8,6.8-0.9,6.6-0.9C6.3-1,6.1-0.8,5.9-0.7C5.7-0.6,5.5-0.5,5.5-0.5
			c-0.1,0,0-0.2,0-0.3C5.4-0.9,5.2-0.9,5.1-0.9c-0.4,0-0.6,0.3-0.7,0.2c-0.1,0,0-0.2-0.1-0.3C4.2-1.1,4.1-1.1,3.9-1.2
			C3.7-1.4,3.8-1.5,3.6-1.8C3.5-1.9,3.4-2.1,3.2-2.2c-0.2-0.1-0.3,0-0.6-0.1C2.3-2.3,2.3-2.5,2-2.5c-0.2,0-0.3,0-0.5,0.1
			C1.3-2.3,1.3-2.1,1.1-2.1c-0.2,0-0.2-0.2-0.6-0.3c-0.1,0-0.2,0-0.3,0C0-2.2,0.2-1.9,0.1-1.8C0-1.8-0.1-1.8-0.2-1.8
			C-0.3-1.9-0.3-2-0.4-2C-0.6-2.3-1.6-2-1.9-1.4C-2-1.2-2-1.1-2.2-1c-0.2,0.1-0.3,0-0.5,0C-3-1-3.2-0.8-3.9,0c0,0-0.1,0.2-0.6,0.7
			c-1,1.1-1.2,1.2-1.2,1.6c0,0.6,0.1,0.8,0.1,0.8c0,0.1,0.1,0.3,0,0.4c-0.1,0.1-0.1,0-0.2,0.1c-0.1,0.1,0.1,0.4,0,0.8
			c0,0,0,0-0.1,0.3c-0.1,0.6-0.1,0.7,0,0.8c0.1,0.1,0.2,0.1,0.3,0.1c0.2,0,0.3-0.1,0.4-0.1C-4.7,5-4.3,4.5-3.9,4
			c-0.2,0.4-0.3,0.6-0.5,0.8C-4.6,5-4.7,5.2-4.9,5.6C-5,5.7-5,5.8-5.1,6c-0.1,0.3-0.2,0.6-0.1,0.8C-5.1,6.9-5,7-5,7.1
			c0,0.2-0.1,0.3,0,0.4c0.1,0.1,0.1,0.1,0.2,0.1c0.1,0.2,0,0.3,0,0.6c0,0.2,0.1,0.1,0.1,0.3c0.1,0.3-0.1,0.4,0,0.8
			c0,0.2,0,0.2,0.1,0.3c0.2,0.1,0.4-0.1,0.6,0.1c0.2,0.1,0.1,0.3,0.3,0.4c0.1,0,0.2-0.1,0.4,0c0,0,0.3,0,0.4,0.2
			c0,0.1-0.1,0.3-0.3,0.4c-0.4,0.2-0.9-0.1-0.9,0c0,0.1,0.1,0.2,0.2,0.3c1.1,1,1.1,1.1,1.5,1.3c0.4,0.2,0.3,0.1,0.8,0.4
			c0.6,0.3,1.2,0.7,1.2,1.1c0,0.3-0.2,0.3-0.2,0.7c0,0.2,0.1,0.6,0.3,0.7c0.2,0.1,0.3-0.1,0.7-0.1c0.3,0,0.4,0.3,0.7,0.3
			C1.5,15.4,1.7,15,2,15c0.2,0,0.2,0.2,0.4,0.3c0.2,0.1,0.4,0,0.6,0c1.2-1.2,2.9-3,5.1-5.3c1.8-1.9,2.3-2.4,3.3-3.4
			c2.9-2.8,6-4.9,6.1-4.8c0.1,0.1-1.3,1.4-6.1,5.9c-3.3,3.1-6,5.7-7.8,7.5c0,0.4,0.1,0.5,0.2,0.6c0.2,0.1,0.5-0.2,0.8,0
			C4.8,15.9,4.9,16,5,16.3c0,0.2,0,0.3,0.1,0.4c0.1,0.1,0.1,0,0.2,0.1c0.2,0.2,0.1,0.4,0.3,0.5c0.2,0.2,0.4,0,0.5,0.2
			c0,0.1-0.1,0.1,0,0.3c0,0.2,0.2,0.2,0.2,0.3c0,0.2-0.3,0.3-0.4,0.6C5.8,19,6,19,6,19.3c0,0.5-0.6,0.6-0.6,1c0,0.2,0.3,0.5,0.5,0.5
			c0.4,0.1,0.5-0.5,0.9-0.5c0.5,0,0.6,0.7,1,0.6c0.3,0,0.3-0.4,0.7-0.4c0.2,0,0.3,0.1,0.5,0c0.1-0.1,0.1-0.2,0.3-0.3
			c0.1,0,0.1,0,0.2,0c0.3,0,0.6-0.4,0.8-0.9c0.1-0.4,0-0.6,0.2-0.9c0.1-0.2,0.3-0.4,0.4-0.4c0.6-0.4,1.3-1.1,2-1.7
			c0.9-0.9,1-1.2,1.6-1.5c0.1,0,0.3-0.1,0.5-0.3c0.3-0.3,0.5-0.6,0.6-0.9c0.4-0.9,0.9-0.9,1.8-2.2c0-0.1,0.2-0.4,0.2-0.4
			c-0.1-0.1-1.3,1.3-1.6,1.1c-0.1-0.1-0.1-0.2-0.1-0.3c0.1-0.6,0.9-0.9,2.1-1.9c0.3-0.3,0.2-0.2,0.5-0.5c0.9-0.8,1.9-1.4,2.2-1.9
			C20.9,7.2,21,6.8,21,6.8c0-0.1,0-0.1,0.1-0.2c0.1-0.3,0.3-0.4,0.7-0.9C22.3,5.1,22.4,5,22.3,4.9z M3.6,4c-0.3,0.4-0.7,0.7-1,1
			c0.2-0.3,0.5-0.7,0.9-1c0.2-0.1,0.3-0.3,0.5-0.3C3.9,3.7,3.7,3.9,3.6,4z M3.4,2.7c0.5-0.6,1.1-1.1,1.6-1.5
			C4.5,1.7,4.1,2.2,3.5,2.8c-0.3,0.4-0.7,0.7-1,1C2.8,3.4,3.1,3,3.4,2.7z M-2.8,2.6c0.1-0.2,0.2-0.5,0.5-0.7C-2.2,1.8-2.1,1.8-2,1.7
			C-2.1,1.8-2.1,1.9-2.2,2C-2.4,2.3-2.6,2.5-2.8,2.6z M-1.8,11.6c-0.1,0.1-0.2,0.2-0.3,0.2c0,0,0-0.2,0.1-0.3
			c0.1-0.2,0.3-0.2,0.3-0.2C-1.7,11.4-1.7,11.5-1.8,11.6z M-2.2,6.5c0.4-0.4,0.7-0.9,1.1-1.3c0,0.1,0,0.2,0,0.3
			C-1.4,5.8-1.8,6.2-2.2,6.5z M-0.3,13.1c0,0-0.2-0.2-0.6-0.7C-0.9,12.4-1,12.3-1,12.2c0-0.1,0.1-0.1,0.2-0.2
			c0.1-0.1,0.3-0.2,0.5-0.5c0,0.2-0.1,0.4-0.1,0.5c-0.1,0.1-0.1,0.2-0.1,0.3c0,0.1,0.1,0,0.1,0.1c0.1,0.1,0,0.2,0,0.3
			C-0.4,12.9-0.2,13.1-0.3,13.1z M-0.4,0.7C-0.3,0.5-0.1,0.2,0.1,0c0.1-0.1,0.2-0.2,0.3-0.2C0.3-0.2,0.3-0.1,0.2,0
			C0,0.3-0.2,0.5-0.4,0.7z M2.7,8c1.2-1.5,2.6-3.1,4.2-4.7c1.2-1.2,2.4-2.2,3.5-3.1C9.6,1,8.8,1.8,8,2.6C6.2,4.4,4.4,6.2,2.7,8z
			 M8.2,3.3C9.1,2.4,10,1.6,10.8,1c-0.5,0.6-1,1.1-1.5,1.7C8,4.1,6.7,5.4,5.5,6.5C6.2,5.5,7,4.4,8.2,3.3z M10.2,5.3
			c1.2-1,2.4-2,3.5-2.9c-0.8,0.8-1.6,1.6-2.5,2.4C9.5,6.3,7.8,7.7,6.2,9C7.4,7.8,8.7,6.5,10.2,5.3z M12.1,5.4C10.3,7,8.6,8.4,7,9.6
			c1.2-1.2,2.5-2.5,4-3.7c1.2-1,2.4-2,3.5-2.9C13.7,3.8,12.9,4.6,12.1,5.4z M18.4,3.7c-0.8,0.8-1.6,1.6-2.5,2.4
			c-1.7,1.6-3.4,3-5.1,4.2c1.2-1.2,2.5-2.5,4-3.7C16.1,5.5,17.3,4.6,18.4,3.7z M7.9,12.3c1.6-1.9,3.5-3.9,5.7-5.8
			c1-0.9,1.9-1.7,2.9-2.5c-1.1,1.1-2.1,2.1-3.2,3.2C11.5,8.9,9.7,10.6,7.9,12.3z M8.4,14.1c1.7-1.7,3.6-3.4,5.6-5.2
			C15.5,7.5,17,6.2,18.5,5c-1.2,1.2-2.5,2.3-3.8,3.5C12.6,10.4,10.5,12.3,8.4,14.1z M8.6,15.2c1.2-1.4,2.7-3,4.5-4.5
			c1.5-1.3,3-2.4,4.4-3.3c-1.2,1.1-2.4,2.1-3.6,3.2C12.2,12.1,10.4,13.6,8.6,15.2z M17.5,8.9c-1.3,1.2-2.6,2.3-3.9,3.3
			c0.2-0.2,0.5-0.4,0.7-0.6c0.9-0.8,1.7-1.6,2.5-2.4c-0.1,0.1-0.2,0.2-0.3,0.3c-0.1,0.1-0.1,0.1-0.2,0.2c-1.4,1.2-2.7,2.4-3.9,3.6
			c-1,0.8-2,1.6-3,2.4c1.2-1.2,2.5-2.5,4-3.7c1.1-0.9,2.2-1.8,3.2-2.6c1.1-1,2.3-1.9,3.3-2.7C19.2,7.3,18.4,8.1,17.5,8.9z"/>
	</defs>
	<clipPath id="SVGID_2_">
		<use xlink:href="#SVGID_1_"  style="overflow:visible;"/>
	</clipPath>
	<g transform="translate(-192 -79.92)" class="st0">
		<path class="st1" d="M200.2,81c-2.6-0.1-5,1.3-6.2,3.5c-1.9,3.3-0.8,7.6,2.6,9.6c3.3,1.9,7.6,0.8,9.6-2.6c1.9-3.3,0.8-7.6-2.6-9.6
			C202.5,81.4,201.3,81,200.2,81z M200,82c3.3,0,6,2.7,6,6s-2.7,6-6,6s-6-2.7-6-6S196.7,82,200,82z"/>
		<path class="st1" d="M201.3,79.9l-2.6,0.4v1.4c0.9-0.2,1.8-0.2,2.6,0V79.9L201.3,79.9z M195.9,81.1l-2,1.7l1,1.2
			c0.5-0.7,1.2-1.3,2-1.7L195.9,81.1z M204.1,81.1l-1,1.2c0.1,0,0.1,0.1,0.2,0.1c0.7,0.4,1.3,1,1.8,1.6l1-1.2L204.1,81.1z
			 M192.5,85.3l-0.4,2.6l1.5,0.3c0-0.9,0.1-1.8,0.5-2.6L192.5,85.3z M207.5,85.3l-1.5,0.3c0.3,0.8,0.5,1.7,0.5,2.6l1.5-0.3
			L207.5,85.3z M193.9,90l-1.4,0.8l1.3,2.3l1.3-0.8C194.6,91.7,194.1,90.9,193.9,90L193.9,90z M206.2,90c-0.1,0.4-0.3,0.8-0.5,1.2
			c-0.2,0.4-0.5,0.7-0.8,1.1l1.3,0.8l1.3-2.3L206.2,90z M196.6,93.5l-0.5,1.5l2.5,0.9l0.5-1.4c-0.8-0.1-1.6-0.4-2.3-0.8
			C196.7,93.6,196.7,93.5,196.6,93.5z M203.4,93.5c-0.8,0.5-1.6,0.8-2.5,0.9l0.5,1.5l2.5-0.9L203.4,93.5z"/>
		<path class="st1" d="M199.6,83c-1.7,0.1-3.2,1-4,2.5c-1.4,2.4-0.6,5.5,1.8,6.8c2.4,1.4,5.4,0.6,6.8-1.8c1.4-2.4,0.6-5.4-1.8-6.8
			C201.6,83.2,200.6,82.9,199.6,83z M200,84c2.2,0,4,1.8,4,4s-1.8,4-4,4s-4-1.8-4-4S197.8,84,200,84z"/>
	</g>
</g>
</svg>
