<?xml version="1.0" encoding="utf-8"?>
<!-- Generator: Adobe Illustrator 23.0.0, SVG Export Plug-In . SVG Version: 6.00 Build 0)  -->
<svg version="1.1" id="Layer_1" xmlns="http://www.w3.org/2000/svg" xmlns:xlink="http://www.w3.org/1999/xlink" x="0px" y="0px"
	 viewBox="0 0 16 16" style="enable-background:new 0 0 16 16;" xml:space="preserve">
<style type="text/css">
	.st0{clip-path:url(#SVGID_2_);fill:#F75049;}
</style>
<g>
	<defs>
		<path id="SVGID_1_" d="M20.8,6.1c-0.1-0.1-0.3,0-0.6-0.2C20,5.7,20,5.6,19.9,5.5c-0.4-0.2-1.3,0.5-1.3,0.5c0,0,0.4-0.3,0.7-0.7
			c0.2-0.2,0.6-0.7,0.5-1c-0.1-0.2-0.3-0.2-0.3-0.3c0-0.3,0.5-0.4,0.4-0.7c0-0.2-0.2-0.3-0.3-0.3c-0.3-0.1-0.8,0.2-0.8,0.2
			c0,0,0.3-0.2,0.4-0.5c0-0.1,0.2-0.3,0.1-0.5C19.3,2,19.1,2,19,2c-0.1,0-0.2,0.1-0.2,0c0,0,0-0.1,0-0.2c0-0.2-0.3-0.3-0.6-0.3
			c-0.5,0-0.9,0.5-1,0.4c-0.1-0.1,0.5-0.5,0.4-0.9c0-0.1-0.2-0.3-0.4-0.3c-0.3,0-0.4,0.3-0.5,0.3c-0.1-0.1,0.1-0.7-0.1-0.9
			c-0.1-0.1-0.3,0.1-0.6,0c-0.2-0.1-0.2-0.1-0.3-0.2C15.4,0,15,0.5,14.4,1c-0.2,0.2-0.6,0.5-1.1,0.8c0.3-0.3,0.5-0.6,0.7-0.7
			c0.4-0.4,0.6-0.6,0.6-0.9c0-0.1,0-0.4-0.2-0.4c-0.2-0.1-0.4,0.2-1.1,0.6c-0.2,0.1-0.3,0.2-0.4,0.3c0,0,0.3-0.4,0.2-0.7
			c0,0-0.1-0.2-0.2-0.3c-0.4-0.3-1.1-0.2-1.2-0.2c-0.9,0.2-1.1,0.8-2.1,1.3c0,0-0.1,0.1-0.3,0.2C8.9,1.2,8.7,1.3,8.6,1.4
			C8.3,1.6,8.1,1.7,8,2C7.9,2.2,7.9,2.4,7.8,2.5C7.7,2.7,7.5,2.7,7.4,2.7C6.8,2.9,6.1,3.9,6,4.1C5.6,4.6,4.3,6,0.8,9.1
			C5.5,4.1,7,2.5,7,2.4c0,0,0,0,0,0c0-0.1,0.2-0.4,0-0.6C7,1.8,6.8,1.8,6.8,1.7c0,0,0-0.1,0-0.1c0-0.2,0.4-0.2,0.4-0.3
			c0,0-0.1-0.1-0.2-0.1C6.7,1,6.7,0.9,6.5,0.9C6.3,0.8,6.1,0.9,5.9,1C5.7,1.2,5.5,1.3,5.5,1.2c0,0,0-0.2,0-0.3
			C5.4,0.9,5.2,0.9,5.2,0.9c-0.3,0-0.5,0.3-0.6,0.2c-0.1,0,0-0.2-0.1-0.3C4.4,0.7,4.3,0.7,4.1,0.6C3.9,0.5,4,0.3,3.8,0.1
			C3.7,0,3.6-0.2,3.4-0.3c-0.2-0.1-0.3,0-0.5-0.1C2.6-0.4,2.6-0.6,2.4-0.6c-0.2,0-0.3,0-0.4,0.1C1.7-0.4,1.7-0.2,1.5-0.2
			C1.3-0.2,1.3-0.4,1-0.4c-0.1,0-0.2,0-0.3,0C0.6-0.3,0.7,0,0.6,0.1c-0.1,0.1-0.2,0.1-0.3,0C0.2,0,0.3-0.1,0.2-0.1
			C0-0.3-0.9-0.1-1.2,0.5c0,0.1-0.1,0.2-0.2,0.3c-0.2,0.1-0.3,0-0.5,0c-0.3,0-0.5,0.2-1.1,1c0,0-0.1,0.1-0.6,0.6
			c-0.9,1-1,1.1-1.1,1.4c0,0.5,0,0.7,0,0.7c0,0.1,0.1,0.3,0,0.4C-4.6,5-4.6,4.9-4.7,5c-0.1,0.1,0.1,0.4,0,0.8c0,0,0,0,0,0.3
			c-0.1,0.5-0.1,0.6,0,0.7c0.1,0.1,0.2,0.1,0.3,0.1c0.2,0,0.3-0.1,0.4-0.1C-3.7,6.2-3.4,5.8-3,5.3c-0.2,0.3-0.3,0.6-0.4,0.7
			c-0.2,0.2-0.3,0.4-0.5,0.7C-4,6.9-4,7-4.1,7.1c-0.1,0.2-0.2,0.5-0.1,0.8C-4.1,8-4,8-4,8.2c0,0.2,0,0.3,0,0.4
			c0,0.1,0.1,0.1,0.2,0.1c0.1,0.1,0,0.3,0,0.6c0,0.2,0.1,0.1,0.1,0.3c0.1,0.3-0.1,0.4,0,0.7c0,0.1,0,0.2,0.1,0.3
			c0.1,0.1,0.4-0.1,0.6,0c0.2,0.1,0.1,0.3,0.3,0.4c0.1,0,0.2-0.1,0.4,0c0,0,0.3,0,0.3,0.1c0,0.1-0.1,0.3-0.3,0.4
			c-0.4,0.2-0.8-0.1-0.9,0c0,0.1,0.1,0.2,0.2,0.3c1,0.9,1,1,1.3,1.2c0.3,0.2,0.3,0.1,0.7,0.3c0.5,0.3,1.1,0.6,1.1,1
			c0,0.2-0.2,0.3-0.1,0.6c0,0.2,0.1,0.5,0.3,0.6c0.2,0.1,0.3-0.1,0.6-0.1c0.3,0,0.3,0.2,0.6,0.3c0.4,0,0.5-0.4,0.8-0.4
			c0.2,0,0.2,0.2,0.4,0.3c0.2,0.1,0.4,0,0.5,0c1-1.1,2.6-2.7,4.6-4.8c1.6-1.7,2.1-2.2,3-3.1c2.6-2.5,5.4-4.5,5.5-4.3
			c0.1,0.1-1.2,1.3-5.5,5.4c-3,2.8-5.4,5.2-7.1,6.8C3.8,15.9,3.9,16,4,16c0.2,0.1,0.5-0.2,0.8,0c0.1,0.1,0.3,0.2,0.3,0.4
			c0,0.2,0,0.3,0.1,0.4c0.1,0.1,0.1,0,0.2,0.1c0.2,0.2,0.1,0.3,0.3,0.5c0.2,0.1,0.4,0,0.4,0.2c0,0.1,0,0.1,0,0.3
			c0,0.1,0.2,0.1,0.2,0.3c0,0.2-0.3,0.3-0.3,0.6c0,0.2,0.1,0.2,0.1,0.5c0,0.5-0.6,0.6-0.5,0.9c0,0.2,0.2,0.4,0.4,0.5
			c0.3,0,0.5-0.4,0.8-0.4c0.4,0,0.6,0.6,0.9,0.5c0.3,0,0.3-0.4,0.6-0.4c0.2,0,0.3,0.1,0.4,0c0.1-0.1,0.1-0.2,0.3-0.3
			c0.1,0,0.1,0,0.2,0c0.2,0,0.6-0.4,0.7-0.8c0.1-0.4,0-0.5,0.2-0.8c0.1-0.2,0.3-0.3,0.4-0.4c0.5-0.4,1.2-1,1.8-1.6
			c0.8-0.8,0.9-1.1,1.5-1.4c0.1,0,0.3-0.1,0.5-0.3c0.3-0.3,0.4-0.6,0.6-0.8c0.4-0.8,0.8-0.8,1.7-2c0-0.1,0.2-0.3,0.2-0.4
			c-0.1-0.1-1.2,1.1-1.4,1C15,12.6,15,12.4,15,12.4c0.1-0.6,0.8-0.8,1.9-1.7c0.3-0.2,0.2-0.2,0.5-0.5c0.8-0.7,1.7-1.3,2-1.7
			c0.1-0.3,0.2-0.6,0.2-0.6c0-0.1,0-0.1,0.1-0.2c0.1-0.3,0.2-0.4,0.7-0.9C20.8,6.3,20.8,6.2,20.8,6.1z M3.8,5.4
			C3.5,5.7,3.2,6,2.9,6.2C3.1,6,3.3,5.6,3.7,5.3C3.8,5.2,4,5.1,4.1,5C4,5.1,3.9,5.2,3.8,5.4z M3.6,4.1c0.5-0.5,1-1,1.4-1.4
			c-0.3,0.5-0.8,1-1.3,1.5C3.4,4.5,3.1,4.8,2.8,5.1C3,4.8,3.3,4.5,3.6,4.1z M-2,4.1c0.1-0.2,0.2-0.4,0.4-0.6
			c0.1-0.1,0.2-0.2,0.2-0.2c0,0.1-0.1,0.2-0.2,0.3C-1.6,3.8-1.8,4-2,4.1z M-1.1,12.2c-0.1,0.1-0.2,0.2-0.3,0.2c0,0,0-0.2,0.1-0.3
			C-1.2,12-1,12-1,12C-1,12-1,12.1-1.1,12.2z M-1.4,7.6c0.3-0.4,0.7-0.8,1-1.2c0,0.1,0,0.2,0,0.3C-0.8,7-1.1,7.3-1.4,7.6z M0.3,13.6
			c0,0-0.2-0.2-0.5-0.6c-0.1-0.1-0.2-0.2-0.2-0.3c0-0.1,0.1-0.1,0.2-0.2c0.1-0.1,0.3-0.2,0.4-0.5c0,0.2-0.1,0.3-0.1,0.4
			c0,0.1-0.1,0.2-0.1,0.3c0,0.1,0.1,0,0.1,0.1c0.1,0.1,0,0.2,0,0.3C0.2,13.4,0.3,13.6,0.3,13.6z M0.2,2.3c0.1-0.2,0.2-0.4,0.4-0.6
			c0.1-0.1,0.2-0.2,0.2-0.2c0,0.1-0.1,0.2-0.2,0.3C0.5,2,0.4,2.2,0.2,2.3z M3,8.9c1-1.3,2.3-2.8,3.8-4.2C7.9,3.6,9,2.7,10,1.9
			C9.3,2.6,8.5,3.3,7.8,4C6.1,5.7,4.5,7.3,3,8.9z M7.9,4.7c0.8-0.8,1.6-1.5,2.4-2c-0.4,0.5-0.9,1-1.4,1.6C7.8,5.5,6.6,6.6,5.5,7.6
			C6.1,6.7,6.9,5.7,7.9,4.7z M9.8,6.5c1.1-0.9,2.2-1.8,3.2-2.6c-0.7,0.7-1.4,1.4-2.2,2.1C9.2,7.5,7.6,8.7,6.1,9.8
			C7.2,8.8,8.4,7.6,9.8,6.5z M11.5,6.6c-1.6,1.4-3.1,2.7-4.6,3.8C8,9.4,9.2,8.2,10.5,7.1c1.1-0.9,2.2-1.8,3.2-2.6
			C13,5.2,12.3,5.9,11.5,6.6z M17.2,5.1c-0.7,0.7-1.4,1.4-2.2,2.1c-1.6,1.4-3.1,2.7-4.6,3.8c1.1-1.1,2.3-2.2,3.6-3.4
			C15.1,6.7,16.2,5.9,17.2,5.1z M7.7,12.8c1.4-1.7,3.1-3.5,5.1-5.3c0.9-0.8,1.8-1.5,2.6-2.2c-1,1-1.9,1.9-2.9,2.9
			C11,9.8,9.4,11.3,7.7,12.8z M8.1,14.5c1.6-1.5,3.2-3.1,5-4.7c1.4-1.3,2.8-2.4,4.2-3.5c-1.1,1.1-2.3,2.1-3.4,3.2
			C11.9,11.2,10,12.9,8.1,14.5z M8.4,15.5c1.1-1.3,2.5-2.7,4.1-4.1c1.4-1.2,2.7-2.2,4-3c-1.1,1-2.2,1.9-3.3,2.9
			C11.6,12.7,10,14.1,8.4,15.5z M16.4,9.8c-1.2,1.1-2.4,2.1-3.6,3c0.2-0.2,0.4-0.4,0.6-0.6c0.8-0.7,1.5-1.4,2.2-2.1
			c-0.1,0.1-0.2,0.1-0.3,0.2c-0.1,0-0.1,0.1-0.2,0.2c-1.3,1.1-2.4,2.2-3.5,3.3c-0.9,0.8-1.8,1.5-2.7,2.1c1.1-1.1,2.3-2.2,3.6-3.4
			c1-0.9,2-1.7,2.9-2.4c1-0.9,2.1-1.7,3-2.5C18,8.3,17.2,9,16.4,9.8z"/>
	</defs>
	<clipPath id="SVGID_2_">
		<use xlink:href="#SVGID_1_"  style="overflow:visible;"/>
	</clipPath>
	<circle class="st0" cx="2.7" cy="0.7" r="0.7"/>
	<polygon class="st0" points="4,2.7 4,16 7.9,11.2 14,10.7 	"/>
</g>
</svg>
