<?xml version="1.0" encoding="utf-8"?>
<!-- Generator: Adobe Illustrator 23.0.0, SVG Export Plug-In . SVG Version: 6.00 Build 0)  -->
<svg version="1.1" id="Layer_1" xmlns="http://www.w3.org/2000/svg" xmlns:xlink="http://www.w3.org/1999/xlink" x="0px" y="0px"
	 viewBox="0 0 16 16" style="enable-background:new 0 0 16 16;" xml:space="preserve">
<style type="text/css">
	.st0{fill:none;}
	.st1{fill:#F75049;}
</style>
<path class="st0" d="M12.8,10.7C13.9,9.8,15,9,16,8.3c0-0.1,0-0.2,0-0.3c0-0.3,0-0.6,0-0.8c0-0.1,0-0.1,0-0.2c0-0.3-0.1-0.6-0.1-0.8
	c0-0.1-0.1-0.2-0.1-0.3c-0.1-0.3-0.2-0.6-0.3-0.8c0,0,0,0,0-0.1c-0.1-0.2-0.2-0.4-0.3-0.6c-0.1-0.2-0.2-0.3-0.3-0.5
	c-1.1-1.8-2.9-3.2-5-3.7c-0.1,0-0.2,0.1-0.3,0.1C9.2,0.6,9,0.7,8.9,0.7C8.6,0.9,8.4,1,8.3,1.3C8.2,1.6,8.3,1.7,8.1,1.9
	C8,2,7.8,2.1,7.7,2.1C7.1,2.2,6.4,3.3,6.3,3.4c-0.2,0.3-0.8,1-2,2.1c0.4,0.1,0.7,0.2,1,0.5C5.9,5.3,6.5,4.7,7.1,4
	c1.1-1,2.2-2,3.2-2.8C9.6,2,8.8,2.7,8.1,3.4C7.2,4.3,6.3,5.2,5.5,6C5.7,6.2,5.9,6.5,6,6.7C6.6,5.9,7.3,5,8.2,4
	c0.8-0.8,1.6-1.5,2.4-2c-0.4,0.5-0.9,1-1.4,1.6C8.2,4.8,7.1,5.8,6,6.8c0,0.1,0.1,0.2,0.1,0.3c0.5,1.3,0,2.6-1.2,3
	c-1.1,0.4-2.4-0.3-2.9-1.5C2,8.3,1.9,8,1.9,7.7V7.6c0-0.9,0.5-1.7,1.3-2c0,0,0,0,0,0c0,0,0,0,0,0c0.2-0.1,0.4-0.1,0.6-0.1H4
	c2.5-2.6,3.3-3.6,3.4-3.7c0,0,0,0,0,0c0-0.1,0.2-0.4,0-0.5c-0.1-0.1-0.2,0-0.3-0.2c0,0-0.1-0.1,0-0.2c0-0.2,0.4-0.2,0.4-0.3
	c0,0-0.1,0-0.2-0.1C7,0.4,7,0.3,6.8,0.2C6.6,0.2,6.4,0.3,6.2,0.4C6,0.5,5.9,0.7,5.8,0.6c0,0,0-0.2,0-0.3c0,0,0,0,0,0
	C2.4,1.3,0,4.4,0,8c0,2.9,1.5,5.4,3.8,6.8c1-1.1,2.6-2.7,4.4-4.6C9,9.4,9.5,8.8,9.8,8.4c0-0.2,0-0.5,0-0.8C8.9,8.4,8,9.2,7.2,9.8
	C8,9,9,8.1,9.9,7.2c0,0,0-0.1,0-0.1c0.4-0.9,1.1-1.5,2-1.6c0.1,0,0.2,0,0.3,0c0,0,0.1,0,0.1,0c0.2,0,0.4,0,0.5,0.1c0,0,0,0,0,0
	c0.2,0.1,0.5,0.2,0.6,0.4c0.1,0.1,0.2,0.2,0.3,0.4c0.1,0.1,0.1,0.1,0.1,0.2C14,6.7,14.1,7,14.2,7.2c0,0.1,0,0.3,0,0.4
	c0,0.3,0,0.7-0.2,1c0,0,0,0,0,0C14,8.8,13.9,9,13.8,9.2c-0.3,0.4-0.6,0.7-1,0.9c-1.5,1.3-2.9,2.6-4.4,3.8c1.2-1.2,2.5-2.4,3.8-3.6
	c-0.4,0.1-0.7,0-1.1-0.1c0,0,0,0,0,0c0,0,0,0-0.1,0c-0.2-0.1-0.3-0.2-0.5-0.3c-0.9,0.8-1.7,1.6-2.6,2.4c0.7-0.8,1.5-1.7,2.4-2.6
	c-0.1-0.1-0.2-0.3-0.3-0.4c-2.5,2.3-4.5,4.3-6,5.7c0,0,0,0.1,0,0.1c0.2,0.1,0.5,0.3,0.7,0.3c0.1,0,0.2,0.1,0.3,0.1c0,0,0,0,0,0
	C6,15.8,7,16,8,16c3.7,0,6.9-2.6,7.8-6c-0.9,0.8-1.7,1.5-2.6,2.2c0.2-0.2,0.4-0.4,0.6-0.6c0.7-0.7,1.4-1.3,2-2c0,0,0,0,0,0
	c0,0,0,0,0-0.1C15.9,9.1,16,8.8,16,8.4c-0.8,0.7-1.7,1.5-2.5,2.2c-1.6,1.4-3.2,2.8-4.8,4.2C9.8,13.5,11.1,12.1,12.8,10.7z M3.9,3.5
	c0.5-0.5,1-1,1.4-1.4C5,2.6,4.5,3.1,4,3.6C3.7,3.9,3.4,4.2,3.1,4.5C3.3,4.2,3.6,3.8,3.9,3.5z M11,5.4C9.5,6.8,7.9,8.1,6.5,9.2
	C7.5,8.1,8.8,7,10.1,5.8c1.1-0.9,2.2-1.8,3.2-2.6C12.6,3.9,11.8,4.7,11,5.4z M12,5.5c0.1,0,0.2,0,0.3,0c0,0,0.1,0,0.1,0 M12,5.5
	c0.1,0,0.2,0,0.3,0c0,0,0.1,0,0.1,0 M12,5.5c0.1,0,0.2,0,0.3,0c0,0,0.1,0,0.1,0 M12,5.5c0.1,0,0.2,0,0.3,0c0,0,0.1,0,0.1,0 M12,5.5
	c0.1,0,0.2,0,0.3,0c0,0,0.1,0,0.1,0"/>
<path class="st1" d="M15.1,4.4c-0.4,0.4-1,0.9-1.6,1.6c0.1,0.1,0.2,0.2,0.3,0.4c0.5-0.5,1.1-0.9,1.6-1.3C15.3,4.8,15.2,4.6,15.1,4.4
	z M15.4,5c-0.5,0.5-1,1-1.5,1.5C14,6.7,14.1,7,14.2,7.2c0,0,0.1-0.1,0.2-0.1c0.5-0.4,0.9-0.8,1.4-1.2C15.6,5.6,15.5,5.3,15.4,5z
	 M15.8,6.1c-0.2,0.2-0.3,0.3-0.5,0.5c-0.4,0.3-0.7,0.7-1.1,1c0,0.3,0,0.7-0.2,1C14.7,8,15.3,7.5,15.9,7C15.9,6.7,15.8,6.4,15.8,6.1z
	 M15.8,9.6C15.9,9.5,16,9.5,16,9.4C16,9.5,15.9,9.5,15.8,9.6C15.8,9.6,15.8,9.6,15.8,9.6l-0.3,0.2c-1.3,1.1-2.4,2.2-3.5,3.3
	c-0.9,0.8-1.8,1.5-2.7,2.1c1.1-1.1,2.3-2.2,3.6-3.4c1-0.8,1.9-1.6,2.9-2.3C15.9,9.1,16,8.8,16,8.4c-0.8,0.7-1.7,1.5-2.5,2.2
	c-1.6,1.4-3.2,2.8-4.8,4.2c1.1-1.3,2.5-2.7,4.1-4.1C13.9,9.8,15,9,16,8.3c0-0.1,0-0.2,0-0.3c0-0.3,0-0.6,0-0.8
	c-0.6,0.5-1.2,1.1-1.8,1.6C14,8.9,13.9,9,13.8,9.2c-0.3,0.3-0.6,0.6-1,0.9c-1.5,1.3-2.9,2.6-4.4,3.8c1.2-1.2,2.5-2.4,3.8-3.6
	c-0.4,0.1-0.7,0-1.1-0.1c0,0,0,0,0,0c-0.1,0.1-0.3,0.2-0.4,0.3l0.3-0.3c-0.2-0.1-0.3-0.2-0.5-0.3c-0.9,0.8-1.7,1.6-2.6,2.4
	c0.7-0.8,1.5-1.7,2.4-2.6c-0.1-0.1-0.2-0.3-0.3-0.4c-2.5,2.3-4.5,4.3-6,5.7c0,0,0,0.1,0,0.1c0,0.3,0.1,0.3,0.1,0.4
	c0.2,0.1,0.4,0,0.5-0.1c0.1,0,0.1,0,0.2,0.1c0,0,0,0,0.1,0.1c0,0,0,0,0,0C6,15.8,7,16,8,16c3.7,0,6.9-2.6,7.8-6
	c-0.9,0.8-1.7,1.5-2.6,2.2c0.2-0.2,0.4-0.4,0.6-0.6C14.5,10.9,15.2,10.3,15.8,9.6z M9.8,0.2c-0.1,0-0.2,0.1-0.3,0.1
	C9.2,0.6,9,0.7,8.9,0.7C8.6,0.9,8.4,1,8.3,1.3C8.2,1.6,8.3,1.7,8.1,1.9C8,2,7.8,2.1,7.7,2.1C7.1,2.2,6.4,3.3,6.3,3.4
	c-0.2,0.3-0.8,1-2,2.1c0.4,0.1,0.7,0.2,1,0.5C5.9,5.3,6.5,4.7,7.1,4c1.1-1,2.2-2,3.2-2.8C9.6,2,8.8,2.7,8.1,3.4
	C7.2,4.3,6.3,5.2,5.5,6C5.7,6.2,5.9,6.5,6,6.7C6.6,5.9,7.3,5,8.2,4c0.8-0.8,1.6-1.5,2.4-2c-0.4,0.5-0.9,1-1.4,1.6
	C8.2,4.8,7.1,5.8,6,6.8c0,0.1,0.1,0.2,0.1,0.3c0.5,1.3,0,2.6-1.2,3c-1.1,0.4-2.4-0.3-2.9-1.5C2,8.3,1.9,8,1.9,7.7
	C1.7,8,1.4,8.2,1.1,8.5c0.3-0.3,0.5-0.6,0.8-0.9c0-0.9,0.5-1.7,1.3-2c0,0,0,0,0,0c0,0,0,0,0,0c0.2-0.1,0.4-0.1,0.6-0.1H4
	c2.5-2.6,3.3-3.6,3.4-3.7c0,0,0,0,0,0c0-0.1,0.2-0.4,0-0.5c-0.1-0.1-0.2,0-0.3-0.2c0,0-0.1-0.1,0-0.2c0-0.2,0.4-0.2,0.4-0.3
	c0,0-0.1,0-0.2-0.1C7,0.4,7,0.3,6.8,0.2C6.6,0.2,6.4,0.3,6.2,0.4C6,0.5,5.9,0.7,5.8,0.6c0,0,0-0.2,0-0.3c0,0,0,0,0,0
	C2.4,1.3,0,4.4,0,8c0,2.9,1.5,5.4,3.8,6.8c1-1.1,2.6-2.7,4.4-4.6C9,9.4,9.5,8.8,9.8,8.4c0-0.2,0-0.5,0-0.8C8.9,8.4,8,9.2,7.2,9.8
	C8,9,9,8.1,9.9,7.2c0,0,0-0.1,0-0.1c0.4-0.9,1.1-1.5,2-1.6l0.4,0c0.2,0,0.4,0,0.5,0.1c0,0,0,0,0,0c0.7-0.6,1.4-1.2,2-1.6
	C13.8,2.1,12,0.7,9.8,0.2z M3.9,3.5c0.5-0.5,1-1,1.4-1.4C5,2.6,4.5,3.1,4,3.6C3.7,3.9,3.4,4.2,3.1,4.5C3.3,4.2,3.6,3.8,3.9,3.5z
	 M11,5.4C9.5,6.8,7.9,8.1,6.5,9.2C7.5,8.1,8.8,7,10.1,5.8c1.1-0.9,2.2-1.8,3.2-2.6C12.6,3.9,11.8,4.7,11,5.4z"/>
</svg>
