<?xml version="1.0" encoding="utf-8"?>
<!-- Generator: Adobe Illustrator 23.0.0, SVG Export Plug-In . SVG Version: 6.00 Build 0)  -->
<svg version="1.1" id="Layer_1" xmlns="http://www.w3.org/2000/svg" xmlns:xlink="http://www.w3.org/1999/xlink" x="0px" y="0px"
	 viewBox="0 0 16 16" style="enable-background:new 0 0 16 16;" xml:space="preserve">
<style type="text/css">
	.st0{clip-path:url(#SVGID_2_);fill:#F75049;}
	.st1{clip-path:url(#SVGID_2_);}
	.st2{fill:#F75049;}
</style>
<g>
	<defs>
		<path id="SVGID_1_" d="M20.8,6c-0.1-0.1-0.3,0-0.6-0.2C20,5.6,20,5.4,19.9,5.3c-0.4-0.2-1.3,0.5-1.3,0.5c0,0,0.4-0.3,0.7-0.7
			c0.2-0.2,0.6-0.7,0.5-1C19.8,4,19.6,4,19.5,3.8c0-0.3,0.5-0.4,0.4-0.7c0-0.2-0.2-0.3-0.3-0.3c-0.3-0.1-0.8,0.2-0.8,0.2
			c0,0,0.3-0.2,0.4-0.5c0-0.1,0.2-0.3,0.1-0.5c-0.1-0.1-0.3-0.1-0.4-0.1c-0.1,0-0.2,0.1-0.2,0c0,0,0-0.1,0-0.2
			c0-0.2-0.3-0.3-0.6-0.3c-0.5,0-0.9,0.5-1,0.4c-0.1-0.1,0.5-0.5,0.4-0.9c0-0.1-0.2-0.3-0.4-0.3c-0.3,0-0.4,0.3-0.5,0.3
			c-0.1-0.1,0.1-0.7-0.1-0.9c-0.1-0.1-0.3,0.1-0.6,0C15.8,0.1,15.8,0,15.7,0c-0.3-0.1-0.8,0.4-1.3,0.9c-0.2,0.2-0.6,0.5-1.1,0.8
			c0.3-0.3,0.5-0.6,0.7-0.7c0.4-0.4,0.6-0.6,0.6-0.9c0-0.1,0-0.4-0.2-0.4c-0.2-0.1-0.4,0.2-1.1,0.6c-0.2,0.1-0.3,0.2-0.4,0.3
			c0,0,0.3-0.4,0.2-0.7c0,0-0.1-0.2-0.2-0.3c-0.4-0.3-1.1-0.2-1.2-0.2c-0.9,0.2-1.1,0.8-2.1,1.3c0,0-0.1,0.1-0.3,0.2
			C8.9,1.1,8.7,1.2,8.6,1.2C8.3,1.4,8.1,1.6,8,1.8C7.9,2.1,7.9,2.2,7.8,2.4C7.6,2.6,7.5,2.6,7.4,2.6C6.8,2.8,6.1,3.8,6,3.9
			C5.6,4.5,4.3,5.8,0.8,9C5.5,4,7,2.4,7,2.3c0,0,0,0,0,0c0-0.1,0.2-0.4,0-0.6C7,1.6,6.8,1.7,6.8,1.6c0,0,0-0.1,0-0.1
			c0-0.2,0.4-0.2,0.4-0.3C7.2,1.1,7.1,1,7,1C6.7,0.9,6.7,0.8,6.5,0.8C6.3,0.7,6,0.8,5.9,0.9C5.7,1,5.5,1.2,5.5,1.1c0,0,0-0.2,0-0.3
			C5.4,0.8,5.2,0.8,5.2,0.8C4.8,0.8,4.6,1.1,4.5,1c-0.1,0,0-0.2-0.1-0.3C4.4,0.6,4.3,0.6,4.1,0.5C3.9,0.4,4,0.2,3.8,0
			C3.7-0.1,3.6-0.3,3.4-0.4c-0.2-0.1-0.3,0-0.5-0.1C2.6-0.5,2.6-0.7,2.4-0.7c-0.2,0-0.3,0-0.4,0.1C1.7-0.5,1.7-0.3,1.5-0.3
			C1.3-0.3,1.3-0.5,1-0.6c-0.1,0-0.2,0-0.3,0c-0.1,0.1,0,0.4-0.1,0.5C0.5,0,0.4,0,0.3-0.1C0.2-0.1,0.3-0.2,0.2-0.3
			C0-0.5-0.9-0.2-1.2,0.4c0,0.1-0.1,0.2-0.2,0.3c-0.2,0.1-0.3,0-0.5,0c-0.3,0-0.5,0.2-1.1,1c0,0-0.1,0.1-0.6,0.6
			c-0.9,1-1,1.1-1.1,1.4c0,0.5,0,0.7,0,0.7c0,0.1,0.1,0.3,0,0.4c-0.1,0.1-0.1,0-0.2,0.1c-0.1,0.1,0.1,0.4,0,0.8c0,0,0,0,0,0.3
			c-0.1,0.5-0.1,0.6,0,0.7c0.1,0.1,0.2,0.1,0.3,0.1c0.2,0,0.3-0.1,0.4-0.1C-3.8,6.1-3.4,5.7-3,5.2c-0.2,0.3-0.3,0.6-0.4,0.7
			c-0.2,0.2-0.3,0.4-0.5,0.7C-4,6.7-4,6.8-4.1,7c-0.1,0.2-0.2,0.5-0.1,0.8C-4.1,7.9-4,7.9-4,8.1c0,0.2,0,0.3,0,0.4
			c0,0.1,0.1,0.1,0.2,0.1c0.1,0.1,0,0.3,0,0.6c0,0.2,0.1,0.1,0.1,0.3c0.1,0.3-0.1,0.4,0,0.7c0,0.1,0,0.2,0.1,0.3
			c0.1,0.1,0.4-0.1,0.6,0c0.2,0.1,0.1,0.3,0.3,0.4c0.1,0,0.2-0.1,0.4,0c0,0,0.3,0,0.3,0.1c0,0.1-0.1,0.3-0.3,0.4
			c-0.4,0.2-0.8-0.1-0.9,0c0,0.1,0.1,0.2,0.2,0.3c1,0.9,1,1,1.3,1.2c0.3,0.2,0.3,0.1,0.7,0.3c0.5,0.3,1.1,0.6,1.1,1
			c0,0.2-0.2,0.3-0.1,0.6c0,0.2,0.1,0.5,0.3,0.6c0.2,0.1,0.3-0.1,0.6-0.1c0.3,0,0.3,0.2,0.6,0.3c0.4,0,0.5-0.4,0.8-0.4
			c0.2,0,0.2,0.2,0.4,0.3c0.2,0.1,0.4,0,0.5,0c1-1.1,2.6-2.7,4.6-4.8c1.6-1.7,2.1-2.2,3-3.1c2.6-2.5,5.4-4.5,5.5-4.3
			c0.1,0.1-1.2,1.3-5.5,5.4c-3,2.8-5.4,5.2-7.1,6.8c0,0.3,0.1,0.5,0.2,0.5c0.2,0.1,0.5-0.2,0.8,0C4.8,16,5,16.1,5.1,16.3
			c0,0.2,0,0.3,0.1,0.4c0.1,0.1,0.1,0,0.2,0.1c0.2,0.2,0.1,0.3,0.3,0.5c0.2,0.1,0.4,0,0.4,0.2c0,0.1,0,0.1,0,0.3
			c0,0.1,0.2,0.1,0.2,0.3c0,0.2-0.3,0.3-0.3,0.6c0,0.2,0.1,0.2,0.1,0.5c0,0.5-0.6,0.6-0.5,0.9c0,0.2,0.2,0.4,0.4,0.5
			c0.3,0,0.5-0.4,0.8-0.4c0.4,0,0.6,0.6,0.9,0.5c0.3,0,0.3-0.4,0.6-0.4c0.2,0,0.3,0.1,0.4,0C8.8,20.2,8.8,20,8.9,20
			C9,20,9,20,9.1,20c0.2,0,0.6-0.4,0.7-0.8c0.1-0.4,0-0.5,0.2-0.8c0.1-0.2,0.3-0.3,0.4-0.4c0.5-0.4,1.2-1,1.8-1.6
			c0.8-0.8,0.9-1.1,1.5-1.4c0.1,0,0.3-0.1,0.5-0.3c0.3-0.3,0.4-0.6,0.6-0.8c0.4-0.8,0.8-0.8,1.7-2c0-0.1,0.2-0.3,0.2-0.4
			c-0.1-0.1-1.2,1.1-1.4,1c-0.1-0.1-0.1-0.2-0.1-0.2c0.1-0.6,0.8-0.8,1.9-1.7c0.3-0.2,0.2-0.2,0.5-0.5c0.8-0.7,1.7-1.3,2-1.7
			c0.1-0.3,0.2-0.6,0.2-0.6c0-0.1,0-0.1,0.1-0.2c0.1-0.3,0.2-0.4,0.7-0.9C20.8,6.2,20.8,6.1,20.8,6z M3.8,5.2
			C3.5,5.6,3.2,5.9,2.9,6.1C3,5.8,3.3,5.5,3.7,5.2C3.8,5,4,4.9,4.1,4.9C4,5,3.9,5.1,3.8,5.2z M3.6,4c0.5-0.5,1-1,1.4-1.4
			c-0.3,0.5-0.8,1-1.3,1.5C3.4,4.4,3.1,4.7,2.8,5C3,4.7,3.3,4.3,3.6,4z M-2,4c0.1-0.2,0.2-0.4,0.4-0.6c0.1-0.1,0.2-0.2,0.2-0.2
			c0,0.1-0.1,0.2-0.2,0.3C-1.6,3.7-1.8,3.8-2,4z M-1.1,12.1c-0.1,0.1-0.2,0.2-0.3,0.2c0,0,0-0.2,0.1-0.3c0.1-0.1,0.3-0.2,0.3-0.2
			C-1,11.9-1,12-1.1,12.1z M-1.4,7.5c0.3-0.4,0.7-0.8,1-1.2c0,0.1,0,0.2,0,0.3C-0.8,6.9-1.1,7.2-1.4,7.5z M0.3,13.5
			c0,0-0.2-0.2-0.5-0.6c-0.1-0.1-0.2-0.2-0.2-0.3c0-0.1,0.1-0.1,0.2-0.2C0,12.4,0.1,12.2,0.3,12c0,0.2-0.1,0.3-0.1,0.4
			c0,0.1-0.1,0.2-0.1,0.3c0,0.1,0.1,0,0.1,0.1c0.1,0.1,0,0.2,0,0.3C0.2,13.3,0.3,13.5,0.3,13.5z M0.2,2.2C0.3,2,0.4,1.8,0.6,1.6
			c0.1-0.1,0.2-0.2,0.2-0.2c0,0.1-0.1,0.2-0.2,0.3C0.5,1.9,0.4,2.1,0.2,2.2z M3,8.8c1-1.3,2.3-2.8,3.8-4.2C7.9,3.5,9,2.6,10,1.8
			C9.3,2.5,8.5,3.2,7.8,3.9C6.1,5.6,4.5,7.2,3,8.8z M7.9,4.6c0.8-0.8,1.6-1.5,2.4-2c-0.4,0.5-0.9,1-1.4,1.6C7.8,5.3,6.6,6.5,5.5,7.5
			C6.1,6.6,6.9,5.6,7.9,4.6z M9.8,6.4c1.1-0.9,2.2-1.8,3.2-2.6c-0.7,0.7-1.4,1.4-2.2,2.1C9.2,7.3,7.6,8.6,6.1,9.7
			C7.2,8.6,8.4,7.5,9.8,6.4z M11.5,6.5c-1.6,1.4-3.1,2.7-4.6,3.8C8,9.2,9.2,8.1,10.5,7c1.1-0.9,2.2-1.8,3.2-2.6
			C13,5.1,12.2,5.8,11.5,6.5z M17.2,4.9c-0.7,0.7-1.4,1.4-2.2,2.1c-1.6,1.4-3.1,2.7-4.6,3.8c1.1-1.1,2.3-2.2,3.6-3.4
			C15.1,6.6,16.2,5.7,17.2,4.9z M7.7,12.7c1.4-1.7,3.1-3.5,5.1-5.3c0.9-0.8,1.8-1.5,2.6-2.2c-1,1-1.9,1.9-2.9,2.9
			C11,9.6,9.3,11.2,7.7,12.7z M8.1,14.3c1.6-1.5,3.2-3.1,5-4.7c1.4-1.3,2.8-2.4,4.2-3.5c-1.1,1.1-2.3,2.1-3.4,3.2
			C11.9,11,10,12.7,8.1,14.3z M8.4,15.3c1.1-1.3,2.5-2.7,4.1-4.1c1.4-1.2,2.7-2.2,4-3c-1.1,1-2.2,1.9-3.3,2.9
			C11.6,12.5,10,13.9,8.4,15.3z M16.4,9.6c-1.2,1.1-2.4,2.1-3.6,3c0.2-0.2,0.4-0.4,0.6-0.6c0.8-0.7,1.5-1.4,2.2-2.1
			c-0.1,0.1-0.2,0.1-0.3,0.2c-0.1,0-0.1,0.1-0.2,0.2c-1.3,1.1-2.4,2.2-3.5,3.3c-0.9,0.8-1.8,1.5-2.7,2.1c1.1-1.1,2.3-2.2,3.6-3.4
			c1-0.9,2-1.7,2.9-2.4c1-0.9,2.1-1.7,3-2.5C17.9,8.2,17.2,8.9,16.4,9.6z"/>
	</defs>
	<clipPath id="SVGID_2_">
		<use xlink:href="#SVGID_1_"  style="overflow:visible;"/>
	</clipPath>
	<path class="st0" d="M8.2,14.4L0,10.5l7.8-4.1l8.2,3.9L8.2,14.4z"/>
	<g class="st1">
		<path class="st2" d="M8.2,12L0,8.1L7.8,4L16,7.9L8.2,12z"/>
	</g>
	<g class="st1">
		<path class="st2" d="M8.2,9.6L0,5.7l7.8-4.1L16,5.5L8.2,9.6z"/>
	</g>
</g>
</svg>
