<?xml version="1.0" encoding="utf-8"?>
<!-- Generator: Adobe Illustrator 23.0.0, SVG Export Plug-In . SVG Version: 6.00 Build 0)  -->
<svg version="1.1" id="Layer_1" xmlns="http://www.w3.org/2000/svg" xmlns:xlink="http://www.w3.org/1999/xlink" x="0px" y="0px"
	 viewBox="0 0 16 16" style="enable-background:new 0 0 16 16;" xml:space="preserve">
<style type="text/css">
	.st0{fill:#F75049;}
</style>
<path class="st0" d="M12.7,5.8c-0.1,0.1-0.1,0.2-0.2,0.3c0.2,0.1,0.4,0.2,0.6,0.3c0.1-0.1,0.2-0.1,0.2-0.2C13.1,6,12.9,5.9,12.7,5.8
	z M13.9,7.2c-0.1,0.1-0.2,0.2-0.3,0.3c0.1,0.3,0,0.7-0.1,1c0.1-0.1,0.3-0.2,0.4-0.3C14,7.8,14,7.5,13.9,7.2z M13.5,6.4
	c-0.1,0.1-0.2,0.2-0.2,0.2c0.2,0.2,0.3,0.4,0.3,0.6C13.7,7.1,13.8,7,13.9,7C13.8,6.8,13.7,6.5,13.5,6.4z M13.2,9.1
	C13.1,9.1,13.1,9.1,13.2,9.1c-0.4,0.4-0.8,0.7-1.1,1c-0.8,0.7-1.6,1.4-2.4,2.1c-0.1,0.3-0.2,0.7-0.5,0.9c-0.3,0.3-0.8,0.5-1.2,0.5
	c-0.1,0-0.1,0-0.2,0c-0.5,0-1-0.2-1.3-0.5c-0.5-0.5-0.7-1.3-0.5-1.9c0.1-0.3,0.2-0.5,0.5-0.8C6.7,10.2,7,10,7.3,10
	C8,9.2,8.9,8.5,9.8,7.6c0.1-0.1,0.1-0.1,0.2-0.2c0.1-0.4,0.2-0.7,0.5-1c0.3-0.3,0.7-0.5,1.1-0.5c0.1,0,0.2,0,0.2,0
	c0.1,0,0.3,0,0.4,0c0.1-0.1,0.2-0.2,0.3-0.3c-0.2-0.1-0.4-0.1-0.6-0.1c0,0-0.1,0-0.1,0c-0.6,0-1.1,0.2-1.6,0.6l-4,4
	c-0.4,0.4-0.6,0.9-0.6,1.4c-0.1,0.6,0.1,1.3,0.6,1.8C6.6,13.7,7,13.9,7.5,14c0,0,0,0,0.1,0h0c0.5,0,1-0.1,1.4-0.4c0,0,0,0,0,0
	c0.1-0.1,0.2-0.2,0.3-0.3l0.7-0.7l3.3-3.3c0.3-0.3,0.4-0.6,0.5-0.9C13.7,8.7,13.4,8.9,13.2,9.1z M5.8,9.2C5.8,9.3,5.7,9.5,5.5,9.6
	c-0.7,0.7-1.9,0.7-2.7,0c-0.7-0.7-0.7-1.9,0-2.7c0.4-0.4,0.9-0.6,1.3-0.6c0.1,0,0.2,0,0.2,0C4.9,5.6,5.6,4.8,6.4,4
	c0-0.4,0.2-0.8,0.5-1.1c0.3-0.3,0.8-0.5,1.2-0.5C8.2,2.2,8.3,2.1,8.5,2C8.4,2,8.3,2,8.2,2C7.9,2,7.6,2.1,7.4,2.2
	C7.1,2.3,6.9,2.5,6.7,2.7L3.4,5.9L2.7,6.7C2.5,6.9,2.3,7.1,2.2,7.4c0,0,0,0.1,0,0.1C1.8,8.3,2,9.2,2.7,9.8c0.9,0.9,2.3,0.9,3.1,0
	L8.5,7C7.6,7.8,6.7,8.5,5.8,9.2z M10.1,4.4c0,0.4-0.2,0.8-0.5,1.2C9.2,5.9,8.7,6.1,8.2,6.1C7.5,6.7,6.8,7.3,6.1,7.9v0
	c0.1,0.4,0,0.9-0.2,1.3C6.9,8.1,8.1,7,9.3,5.9c0.3-0.3,0.6-0.5,0.9-0.8c0.2-0.3,0.2-0.7,0.2-1.1C10.3,4.2,10.2,4.3,10.1,4.4z
	 M9.8,2.7C9.5,2.3,9.1,2.1,8.7,2C8.6,2.2,8.5,2.2,8.4,2.3c0.4,0,0.8,0.2,1.2,0.5c0.3,0.3,0.5,0.7,0.5,1.2c0.1-0.1,0.2-0.2,0.3-0.2
	C10.3,3.4,10.1,3,9.8,2.7z M12.7,5.8c-0.1,0.1-0.1,0.2-0.2,0.3c0.2,0.1,0.4,0.2,0.6,0.3c0.1-0.1,0.2-0.1,0.2-0.2
	C13.1,6,12.9,5.9,12.7,5.8z M13.9,7.2c-0.1,0.1-0.2,0.2-0.3,0.3c0.1,0.3,0,0.7-0.1,1c0.1-0.1,0.3-0.2,0.4-0.3
	C14,7.8,14,7.5,13.9,7.2z M13.5,6.4c-0.1,0.1-0.2,0.2-0.2,0.2c0.2,0.2,0.3,0.4,0.3,0.6C13.7,7.1,13.8,7,13.9,7
	C13.8,6.8,13.7,6.5,13.5,6.4z M13.2,9.1C13.1,9.1,13.1,9.1,13.2,9.1c-0.4,0.4-0.8,0.7-1.1,1c-0.8,0.7-1.6,1.4-2.4,2.1
	c-0.1,0.3-0.2,0.7-0.5,0.9c-0.3,0.3-0.8,0.5-1.2,0.5c-0.1,0-0.1,0-0.2,0c-0.5,0-1-0.2-1.3-0.5c-0.5-0.5-0.7-1.3-0.5-1.9
	c0.1-0.3,0.2-0.5,0.5-0.8C6.7,10.2,7,10,7.3,10C8,9.2,8.9,8.5,9.8,7.6c0.1-0.1,0.1-0.1,0.2-0.2c0.1-0.4,0.2-0.7,0.5-1
	c0.3-0.3,0.7-0.5,1.1-0.5c0.1,0,0.2,0,0.2,0c0.1,0,0.3,0,0.4,0c0.1-0.1,0.2-0.2,0.3-0.3c-0.2-0.1-0.4-0.1-0.6-0.1c0,0-0.1,0-0.1,0
	c-0.6,0-1.1,0.2-1.6,0.6l-4,4c-0.4,0.4-0.6,0.9-0.6,1.4c-0.1,0.6,0.1,1.3,0.6,1.8C6.6,13.7,7,13.9,7.5,14c0,0,0,0,0.1,0h0
	c0.5,0,1-0.1,1.4-0.4c0,0,0,0,0,0c0.1-0.1,0.2-0.2,0.3-0.3l0.7-0.7l3.3-3.3c0.3-0.3,0.4-0.6,0.5-0.9C13.7,8.7,13.4,8.9,13.2,9.1z
	 M5.8,9.2C5.8,9.3,5.7,9.5,5.5,9.6c-0.7,0.7-1.9,0.7-2.7,0c-0.7-0.7-0.7-1.9,0-2.7c0.4-0.4,0.9-0.6,1.3-0.6c0.1,0,0.2,0,0.2,0
	C4.9,5.6,5.6,4.8,6.4,4c0-0.4,0.2-0.8,0.5-1.1c0.3-0.3,0.8-0.5,1.2-0.5C8.2,2.2,8.3,2.1,8.5,2C8.4,2,8.3,2,8.2,2
	C7.9,2,7.6,2.1,7.4,2.2C7.1,2.3,6.9,2.5,6.7,2.7L3.4,5.9L2.7,6.7C2.5,6.9,2.3,7.1,2.2,7.4c0,0,0,0.1,0,0.1C1.8,8.3,2,9.2,2.7,9.8
	c0.9,0.9,2.3,0.9,3.1,0L8.5,7C7.6,7.8,6.7,8.5,5.8,9.2z M10.1,4.4c0,0.4-0.2,0.8-0.5,1.2C9.2,5.9,8.7,6.1,8.2,6.1
	C7.5,6.7,6.8,7.3,6.1,7.9v0c0.1,0.4,0,0.9-0.2,1.3C6.9,8.1,8.1,7,9.3,5.9c0.3-0.3,0.6-0.5,0.9-0.8c0.2-0.3,0.2-0.7,0.2-1.1
	C10.3,4.2,10.2,4.3,10.1,4.4z M9.8,2.7C9.5,2.3,9.1,2.1,8.7,2C8.6,2.2,8.5,2.2,8.4,2.3c0.4,0,0.8,0.2,1.2,0.5
	c0.3,0.3,0.5,0.7,0.5,1.2c0.1-0.1,0.2-0.2,0.3-0.2C10.3,3.4,10.1,3,9.8,2.7z M5.8,9.2C5.8,9.3,5.7,9.5,5.5,9.6
	c-0.7,0.7-1.9,0.7-2.7,0c-0.7-0.7-0.7-1.9,0-2.7c0.4-0.4,0.9-0.6,1.3-0.6c0.1,0,0.2,0,0.2,0C4.9,5.6,5.6,4.8,6.4,4
	c0-0.4,0.2-0.8,0.5-1.1c0.3-0.3,0.8-0.5,1.2-0.5C8.2,2.2,8.3,2.1,8.5,2C8.4,2,8.3,2,8.2,2C7.9,2,7.6,2.1,7.4,2.2
	C7.1,2.3,6.9,2.5,6.7,2.7L3.4,5.9L2.7,6.7C2.5,6.9,2.3,7.1,2.2,7.4c0,0,0,0.1,0,0.1C1.8,8.3,2,9.2,2.7,9.8c0.9,0.9,2.3,0.9,3.1,0
	L8.5,7C7.6,7.8,6.7,8.5,5.8,9.2z M10.1,4.4c0,0.4-0.2,0.8-0.5,1.2C9.2,5.9,8.7,6.1,8.2,6.1C7.5,6.7,6.8,7.3,6.1,7.9v0
	c0.1,0.4,0,0.9-0.2,1.3C6.9,8.1,8.1,7,9.3,5.9c0.3-0.3,0.6-0.5,0.9-0.8c0.2-0.3,0.2-0.7,0.2-1.1C10.3,4.2,10.2,4.3,10.1,4.4z
	 M9.8,2.7C9.5,2.3,9.1,2.1,8.7,2C8.6,2.2,8.5,2.2,8.4,2.3c0.4,0,0.8,0.2,1.2,0.5c0.3,0.3,0.5,0.7,0.5,1.2c0.1-0.1,0.2-0.2,0.3-0.2
	C10.3,3.4,10.1,3,9.8,2.7z M12.7,5.8c-0.1,0.1-0.1,0.2-0.2,0.3c0.2,0.1,0.4,0.2,0.6,0.3c0.1-0.1,0.2-0.1,0.2-0.2
	C13.1,6,12.9,5.9,12.7,5.8z M13.9,7.2c-0.1,0.1-0.2,0.2-0.3,0.3c0.1,0.3,0,0.7-0.1,1c0.1-0.1,0.3-0.2,0.4-0.3
	C14,7.8,14,7.5,13.9,7.2z M13.5,6.4c-0.1,0.1-0.2,0.2-0.2,0.2c0.2,0.2,0.3,0.4,0.3,0.6C13.7,7.1,13.8,7,13.9,7
	C13.8,6.8,13.7,6.5,13.5,6.4z M13.2,9.1C13.1,9.1,13.1,9.1,13.2,9.1c-0.4,0.4-0.8,0.7-1.1,1c-0.8,0.7-1.6,1.4-2.4,2.1
	c-0.1,0.3-0.2,0.7-0.5,0.9c-0.3,0.3-0.8,0.5-1.2,0.5c-0.1,0-0.1,0-0.2,0c-0.5,0-1-0.2-1.3-0.5c-0.5-0.5-0.7-1.3-0.5-1.9
	c0.1-0.3,0.2-0.5,0.5-0.8C6.7,10.2,7,10,7.3,10C8,9.2,8.9,8.5,9.8,7.6c0.1-0.1,0.1-0.1,0.2-0.2c0.1-0.4,0.2-0.7,0.5-1
	c0.3-0.3,0.7-0.5,1.1-0.5c0.1,0,0.2,0,0.2,0c0.1,0,0.3,0,0.4,0c0.1-0.1,0.2-0.2,0.3-0.3c-0.2-0.1-0.4-0.1-0.6-0.1c0,0-0.1,0-0.1,0
	c-0.6,0-1.1,0.2-1.6,0.6l-4,4c-0.4,0.4-0.6,0.9-0.6,1.4c-0.1,0.6,0.1,1.3,0.6,1.8C6.6,13.7,7,13.9,7.5,14c0,0,0,0,0.1,0h0
	c0.5,0,1-0.1,1.4-0.4c0,0,0,0,0,0c0.1-0.1,0.2-0.2,0.3-0.3l0.7-0.7l3.3-3.3c0.3-0.3,0.4-0.6,0.5-0.9C13.7,8.7,13.4,8.9,13.2,9.1z
	 M12.7,5.8c-0.1,0.1-0.1,0.2-0.2,0.3c0.2,0.1,0.4,0.2,0.6,0.3c0.1-0.1,0.2-0.1,0.2-0.2C13.1,6,12.9,5.9,12.7,5.8z M13.9,7.2
	c-0.1,0.1-0.2,0.2-0.3,0.3c0.1,0.3,0,0.7-0.1,1c0.1-0.1,0.3-0.2,0.4-0.3C14,7.8,14,7.5,13.9,7.2z M13.5,6.4
	c-0.1,0.1-0.2,0.2-0.2,0.2c0.2,0.2,0.3,0.4,0.3,0.6C13.7,7.1,13.8,7,13.9,7C13.8,6.8,13.7,6.5,13.5,6.4z M13.2,9.1
	C13.1,9.1,13.1,9.1,13.2,9.1c-0.4,0.4-0.8,0.7-1.1,1c-0.8,0.7-1.6,1.4-2.4,2.1c-0.1,0.3-0.2,0.7-0.5,0.9c-0.3,0.3-0.8,0.5-1.2,0.5
	c-0.1,0-0.1,0-0.2,0c-0.5,0-1-0.2-1.3-0.5c-0.5-0.5-0.7-1.3-0.5-1.9c0.1-0.3,0.2-0.5,0.5-0.8C6.7,10.2,7,10,7.3,10
	C8,9.2,8.9,8.5,9.8,7.6c0.1-0.1,0.1-0.1,0.2-0.2c0.1-0.4,0.2-0.7,0.5-1c0.3-0.3,0.7-0.5,1.1-0.5c0.1,0,0.2,0,0.2,0
	c0.1,0,0.3,0,0.4,0c0.1-0.1,0.2-0.2,0.3-0.3c-0.2-0.1-0.4-0.1-0.6-0.1c0,0-0.1,0-0.1,0c-0.6,0-1.1,0.2-1.6,0.6l-4,4
	c-0.4,0.4-0.6,0.9-0.6,1.4c-0.1,0.6,0.1,1.3,0.6,1.8C6.6,13.7,7,13.9,7.5,14c0,0,0,0,0.1,0h0c0.5,0,1-0.1,1.4-0.4c0,0,0,0,0,0
	c0.1-0.1,0.2-0.2,0.3-0.3l0.7-0.7l3.3-3.3c0.3-0.3,0.4-0.6,0.5-0.9C13.7,8.7,13.4,8.9,13.2,9.1z M5.8,9.2C5.8,9.3,5.7,9.5,5.5,9.6
	c-0.7,0.7-1.9,0.7-2.7,0c-0.7-0.7-0.7-1.9,0-2.7c0.4-0.4,0.9-0.6,1.3-0.6c0.1,0,0.2,0,0.2,0C4.9,5.6,5.6,4.8,6.4,4
	c0-0.4,0.2-0.8,0.5-1.1c0.3-0.3,0.8-0.5,1.2-0.5C8.2,2.2,8.3,2.1,8.5,2C8.4,2,8.3,2,8.2,2C7.9,2,7.6,2.1,7.4,2.2
	C7.1,2.3,6.9,2.5,6.7,2.7L3.4,5.9L2.7,6.7C2.5,6.9,2.3,7.1,2.2,7.4c0,0,0,0.1,0,0.1C1.8,8.3,2,9.2,2.7,9.8c0.9,0.9,2.3,0.9,3.1,0
	L8.5,7C7.6,7.8,6.7,8.5,5.8,9.2z M10.1,4.4c0,0.4-0.2,0.8-0.5,1.2C9.2,5.9,8.7,6.1,8.2,6.1C7.5,6.7,6.8,7.3,6.1,7.9v0
	c0.1,0.4,0,0.9-0.2,1.3C6.9,8.1,8.1,7,9.3,5.9c0.3-0.3,0.6-0.5,0.9-0.8c0.2-0.3,0.2-0.7,0.2-1.1C10.3,4.2,10.2,4.3,10.1,4.4z
	 M9.8,2.7C9.5,2.3,9.1,2.1,8.7,2C8.6,2.2,8.5,2.2,8.4,2.3c0.4,0,0.8,0.2,1.2,0.5c0.3,0.3,0.5,0.7,0.5,1.2c0.1-0.1,0.2-0.2,0.3-0.2
	C10.3,3.4,10.1,3,9.8,2.7z M5.8,9.2C5.8,9.3,5.7,9.5,5.5,9.6c-0.7,0.7-1.9,0.7-2.7,0c-0.7-0.7-0.7-1.9,0-2.7
	c0.4-0.4,0.9-0.6,1.3-0.6c0.1,0,0.2,0,0.2,0C4.9,5.6,5.6,4.8,6.4,4c0-0.4,0.2-0.8,0.5-1.1c0.3-0.3,0.8-0.5,1.2-0.5
	C8.2,2.2,8.3,2.1,8.5,2C8.4,2,8.3,2,8.2,2C7.9,2,7.6,2.1,7.4,2.2C7.1,2.3,6.9,2.5,6.7,2.7L3.4,5.9L2.7,6.7C2.5,6.9,2.3,7.1,2.2,7.4
	c0,0,0,0.1,0,0.1C1.8,8.3,2,9.2,2.7,9.8c0.9,0.9,2.3,0.9,3.1,0L8.5,7C7.6,7.8,6.7,8.5,5.8,9.2z M10.1,4.4c0,0.4-0.2,0.8-0.5,1.2
	C9.2,5.9,8.7,6.1,8.2,6.1C7.5,6.7,6.8,7.3,6.1,7.9v0c0.1,0.4,0,0.9-0.2,1.3C6.9,8.1,8.1,7,9.3,5.9c0.3-0.3,0.6-0.5,0.9-0.8
	c0.2-0.3,0.2-0.7,0.2-1.1C10.3,4.2,10.2,4.3,10.1,4.4z M9.8,2.7C9.5,2.3,9.1,2.1,8.7,2C8.6,2.2,8.5,2.2,8.4,2.3
	c0.4,0,0.8,0.2,1.2,0.5c0.3,0.3,0.5,0.7,0.5,1.2c0.1-0.1,0.2-0.2,0.3-0.2C10.3,3.4,10.1,3,9.8,2.7z M12.7,5.8
	c-0.1,0.1-0.1,0.2-0.2,0.3c0.2,0.1,0.4,0.2,0.6,0.3c0.1-0.1,0.2-0.1,0.2-0.2C13.1,6,12.9,5.9,12.7,5.8z M13.9,7.2
	c-0.1,0.1-0.2,0.2-0.3,0.3c0.1,0.3,0,0.7-0.1,1c0.1-0.1,0.3-0.2,0.4-0.3C14,7.8,14,7.5,13.9,7.2z M13.5,6.4
	c-0.1,0.1-0.2,0.2-0.2,0.2c0.2,0.2,0.3,0.4,0.3,0.6C13.7,7.1,13.8,7,13.9,7C13.8,6.8,13.7,6.5,13.5,6.4z M13.2,9.1
	C13.1,9.1,13.1,9.1,13.2,9.1c-0.4,0.4-0.8,0.7-1.1,1c-0.8,0.7-1.6,1.4-2.4,2.1c-0.1,0.3-0.2,0.7-0.5,0.9c-0.3,0.3-0.8,0.5-1.2,0.5
	c-0.1,0-0.1,0-0.2,0c-0.5,0-1-0.2-1.3-0.5c-0.5-0.5-0.7-1.3-0.5-1.9c0.1-0.3,0.2-0.5,0.5-0.8C6.7,10.2,7,10,7.3,10
	C8,9.2,8.9,8.5,9.8,7.6c0.1-0.1,0.1-0.1,0.2-0.2c0.1-0.4,0.2-0.7,0.5-1c0.3-0.3,0.7-0.5,1.1-0.5c0.1,0,0.2,0,0.2,0
	c0.1,0,0.3,0,0.4,0c0.1-0.1,0.2-0.2,0.3-0.3c-0.2-0.1-0.4-0.1-0.6-0.1c0,0-0.1,0-0.1,0c-0.6,0-1.1,0.2-1.6,0.6l-4,4
	c-0.4,0.4-0.6,0.9-0.6,1.4c-0.1,0.6,0.1,1.3,0.6,1.8C6.6,13.7,7,13.9,7.5,14c0,0,0,0,0.1,0h0c0.5,0,1-0.1,1.4-0.4c0,0,0,0,0,0
	c0.1-0.1,0.2-0.2,0.3-0.3l0.7-0.7l3.3-3.3c0.3-0.3,0.4-0.6,0.5-0.9C13.7,8.7,13.4,8.9,13.2,9.1z M9,13.6c0.1-0.1,0.2-0.2,0.3-0.3
	l0.7-0.7C9.7,13,9.3,13.3,9,13.6z M12.7,5.8c-0.1,0.1-0.1,0.2-0.2,0.3c0.2,0.1,0.4,0.2,0.6,0.3c0.1-0.1,0.2-0.1,0.2-0.2
	C13.1,6,12.9,5.9,12.7,5.8z M13.9,7.2c-0.1,0.1-0.2,0.2-0.3,0.3c0.1,0.3,0,0.7-0.1,1c0.1-0.1,0.3-0.2,0.4-0.3
	C14,7.8,14,7.5,13.9,7.2z M13.5,6.4c-0.1,0.1-0.2,0.2-0.2,0.2c0.2,0.2,0.3,0.4,0.3,0.6C13.7,7.1,13.8,7,13.9,7
	C13.8,6.8,13.7,6.5,13.5,6.4z M9,13.6c0.1-0.1,0.2-0.2,0.3-0.3l0.7-0.7C9.7,13,9.3,13.3,9,13.6z M12.7,5.8c-0.1,0.1-0.1,0.2-0.2,0.3
	c0.2,0.1,0.4,0.2,0.6,0.3c0.1-0.1,0.2-0.1,0.2-0.2C13.1,6,12.9,5.9,12.7,5.8z M13.9,7.2c-0.1,0.1-0.2,0.2-0.3,0.3
	c0.1,0.3,0,0.7-0.1,1c0.1-0.1,0.3-0.2,0.4-0.3C14,7.8,14,7.5,13.9,7.2z M13.5,6.4c-0.1,0.1-0.2,0.2-0.2,0.2c0.2,0.2,0.3,0.4,0.3,0.6
	C13.7,7.1,13.8,7,13.9,7C13.8,6.8,13.7,6.5,13.5,6.4z M14.1,11.5C12.9,13.6,10.6,15,8,15c-1.7,0-3.2-0.6-4.4-1.5
	c-0.3,0.3-0.5,0.5-0.7,0.7C4.3,15.3,6.1,16,8,16c1,0,2.1-0.2,3-0.6c0.8-0.8,0.9-1.1,1.4-1.3c0.1,0,0.3-0.1,0.5-0.3
	c0.3-0.3,0.4-0.6,0.5-0.8c0.4-0.8,0.8-0.8,1.7-2c0,0,0.2-0.3,0.2-0.4C15.2,10.5,14.5,11.3,14.1,11.5z M12.7,5.8
	c-0.1,0.1-0.1,0.2-0.2,0.3c0.2,0.1,0.4,0.2,0.6,0.3c0.1-0.1,0.2-0.1,0.2-0.2C13.1,6,12.9,5.9,12.7,5.8z M13.9,7.2
	c-0.1,0.1-0.2,0.2-0.3,0.3c0.1,0.3,0,0.7-0.1,1c0.1-0.1,0.3-0.2,0.4-0.3C14,7.8,14,7.5,13.9,7.2z M13.5,6.4
	c-0.1,0.1-0.2,0.2-0.2,0.2c0.2,0.2,0.3,0.4,0.3,0.6C13.7,7.1,13.8,7,13.9,7C13.8,6.8,13.7,6.5,13.5,6.4z M12.7,5.8
	c-0.1,0.1-0.1,0.2-0.2,0.3c0.2,0.1,0.4,0.2,0.6,0.3c0.1-0.1,0.2-0.1,0.2-0.2C13.1,6,12.9,5.9,12.7,5.8z M13.9,7.2
	c-0.1,0.1-0.2,0.2-0.3,0.3c0.1,0.3,0,0.7-0.1,1c0.1-0.1,0.3-0.2,0.4-0.3C14,7.8,14,7.5,13.9,7.2z M13.5,6.4
	c-0.1,0.1-0.2,0.2-0.2,0.2c0.2,0.2,0.3,0.4,0.3,0.6C13.7,7.1,13.8,7,13.9,7C13.8,6.8,13.7,6.5,13.5,6.4z M5.9,0.7
	c-0.1-0.1-0.2,0-0.3-0.2c0,0,0-0.1,0-0.1c0,0,0,0,0,0C2.5,1.4,0.2,4.2,0,7.6c0.4-0.4,0.8-0.9,1.2-1.2c0.6-2.4,2.3-4.2,4.6-5
	c0,0,0-0.1,0.1-0.1C5.9,1.2,6,1,6,0.9C6,0.8,6,0.7,5.9,0.7z M2.6,3.1C2.3,3.4,1.9,3.7,1.6,4c0.2-0.3,0.5-0.6,0.8-1
	c0.5-0.5,1-1,1.4-1.4C3.5,2.1,3.1,2.6,2.6,3.1z M8,0H7.8C7.6,0.1,7.5,0.2,7.4,0.2C7.2,0.4,7,0.5,6.8,0.8c0,0.1-0.1,0.2-0.1,0.3
	C7.2,1,7.6,1,8,1c0.2,0,0.3,0,0.5,0c0.1-0.1,0.2-0.2,0.3-0.3C8.8,0.8,8.7,0.9,8.6,1c1.9,0.1,3.6,1.1,4.8,2.4
	c0.3-0.2,0.6-0.4,0.8-0.6C12.7,1.1,10.5,0,8,0z M1,8c0-0.5,0-0.9,0.1-1.4C0.8,6.9,0.4,7.3,0,7.7C0,7.8,0,7.9,0,8
	c0,2.3,1,4.5,2.6,5.9c0.2-0.2,0.4-0.5,0.7-0.7C1.9,11.9,1,10.1,1,8z M14.4,3.2c-0.2,0.2-0.4,0.4-0.7,0.7c0.1,0.2,0.2,0.3,0.3,0.5
	c0,0,0,0,0,0c0.1,0.2,0.3,0.5,0.4,0.8C14.7,5,15,4.8,15.2,4.6C15,4.1,14.7,3.6,14.4,3.2z M15.3,8.6c-0.1,0.1-0.2,0.2-0.3,0.3
	c0,0.5-0.2,1-0.3,1.5c0.3-0.2,0.7-0.5,1.1-0.8c0.1-0.1,0.1-0.1,0.2-0.2C16,8.9,16,8.5,16,8V7.9C15.8,8.2,15.5,8.4,15.3,8.6z M16,7.6
	c0-0.7-0.2-1.4-0.4-2.1c-0.3,0.3-0.5,0.5-0.8,0.8C14.9,6.7,15,7.1,15,7.5c0,0,0,0,0,0c0,0.2,0,0.3,0,0.5c0,0.2,0,0.3,0,0.5
	C15.3,8.2,15.7,7.9,16,7.6z M15.3,4.7c-0.3,0.3-0.5,0.5-0.8,0.7c0.1,0.3,0.2,0.5,0.3,0.8C15,6,15.3,5.7,15.6,5.5
	C15.5,5.2,15.4,5,15.3,4.7z M13.9,7.2c-0.1,0.1-0.2,0.2-0.3,0.3c0.1,0.3,0,0.7-0.1,1c0.1-0.1,0.3-0.2,0.4-0.3
	C14,7.8,14,7.5,13.9,7.2z M12.7,5.8c-0.1,0.1-0.1,0.2-0.2,0.3c0.2,0.1,0.4,0.2,0.6,0.3c0.1-0.1,0.2-0.1,0.2-0.2
	C13.1,6,12.9,5.9,12.7,5.8z M13.9,7.2c-0.1,0.1-0.2,0.2-0.3,0.3c0.1,0.3,0,0.7-0.1,1c0.1-0.1,0.3-0.2,0.4-0.3
	C14,7.8,14,7.5,13.9,7.2z M13.5,6.4c-0.1,0.1-0.2,0.2-0.2,0.2c0.2,0.2,0.3,0.4,0.3,0.6C13.7,7.1,13.8,7,13.9,7
	C13.8,6.8,13.7,6.5,13.5,6.4z M12.7,5.8c-0.1,0.1-0.1,0.2-0.2,0.3c0.2,0.1,0.4,0.2,0.6,0.3c0.1-0.1,0.2-0.1,0.2-0.2
	C13.1,6,12.9,5.9,12.7,5.8z M13.9,7.2c-0.1,0.1-0.2,0.2-0.3,0.3c0.1,0.3,0,0.7-0.1,1c0.1-0.1,0.3-0.2,0.4-0.3
	C14,7.8,14,7.5,13.9,7.2z M13.5,6.4c-0.1,0.1-0.2,0.2-0.2,0.2c0.2,0.2,0.3,0.4,0.3,0.6C13.7,7.1,13.8,7,13.9,7
	C13.8,6.8,13.7,6.5,13.5,6.4z M9,13.6c0.1-0.1,0.2-0.2,0.3-0.3l0.7-0.7C9.7,13,9.3,13.3,9,13.6z M12.7,5.8c-0.1,0.1-0.1,0.2-0.2,0.3
	c0.2,0.1,0.4,0.2,0.6,0.3c0.1-0.1,0.2-0.1,0.2-0.2C13.1,6,12.9,5.9,12.7,5.8z M13.9,7.2c-0.1,0.1-0.2,0.2-0.3,0.3
	c0.1,0.3,0,0.7-0.1,1c0.1-0.1,0.3-0.2,0.4-0.3C14,7.8,14,7.5,13.9,7.2z M13.5,6.4c-0.1,0.1-0.2,0.2-0.2,0.2c0.2,0.2,0.3,0.4,0.3,0.6
	C13.7,7.1,13.8,7,13.9,7C13.8,6.8,13.7,6.5,13.5,6.4z M9,13.6c0.1-0.1,0.2-0.2,0.3-0.3l0.7-0.7C9.7,13,9.3,13.3,9,13.6z M12.7,5.8
	c-0.1,0.1-0.1,0.2-0.2,0.3c0.2,0.1,0.4,0.2,0.6,0.3c0.1-0.1,0.2-0.1,0.2-0.2C13.1,6,12.9,5.9,12.7,5.8z M13.9,7.2
	c-0.1,0.1-0.2,0.2-0.3,0.3c0.1,0.3,0,0.7-0.1,1c0.1-0.1,0.3-0.2,0.4-0.3C14,7.8,14,7.5,13.9,7.2z M13.5,6.4
	c-0.1,0.1-0.2,0.2-0.2,0.2c0.2,0.2,0.3,0.4,0.3,0.6C13.7,7.1,13.8,7,13.9,7C13.8,6.8,13.7,6.5,13.5,6.4z M9,13.6
	c0.1-0.1,0.2-0.2,0.3-0.3l0.7-0.7C9.7,13,9.3,13.3,9,13.6z M5.8,9.2C5.8,9.3,5.7,9.5,5.5,9.6c-0.7,0.7-1.9,0.7-2.7,0
	c-0.7-0.7-0.7-1.9,0-2.7c0.4-0.4,0.9-0.6,1.3-0.6c0.1,0,0.2,0,0.2,0C4.9,5.6,5.6,4.8,6.4,4c0-0.4,0.2-0.8,0.5-1.1
	c0.3-0.3,0.8-0.5,1.2-0.5C8.2,2.2,8.3,2.1,8.5,2C8.4,2,8.3,2,8.2,2C7.9,2,7.6,2.1,7.4,2.2C7.1,2.3,6.9,2.5,6.7,2.7L3.4,5.9L2.7,6.7
	C2.5,6.9,2.3,7.1,2.2,7.4c0,0,0,0.1,0,0.1C1.8,8.3,2,9.2,2.7,9.8c0.9,0.9,2.3,0.9,3.1,0L8.5,7C7.6,7.8,6.7,8.5,5.8,9.2z M10.1,4.4
	c0,0.4-0.2,0.8-0.5,1.2C9.2,5.9,8.7,6.1,8.2,6.1C7.5,6.7,6.8,7.3,6.1,7.9v0c0.1,0.4,0,0.9-0.2,1.3C6.9,8.1,8.1,7,9.3,5.9
	c0.3-0.3,0.6-0.5,0.9-0.8c0.2-0.3,0.2-0.7,0.2-1.1C10.3,4.2,10.2,4.3,10.1,4.4z M9.8,2.7C9.5,2.3,9.1,2.1,8.7,2
	C8.6,2.2,8.5,2.2,8.4,2.3c0.4,0,0.8,0.2,1.2,0.5c0.3,0.3,0.5,0.7,0.5,1.2c0.1-0.1,0.2-0.2,0.3-0.2C10.3,3.4,10.1,3,9.8,2.7z
	 M12.7,5.8c-0.1,0.1-0.1,0.2-0.2,0.3c0.2,0.1,0.4,0.2,0.6,0.3c0.1-0.1,0.2-0.1,0.2-0.2C13.1,6,12.9,5.9,12.7,5.8z M13.9,7.2
	c-0.1,0.1-0.2,0.2-0.3,0.3c0.1,0.3,0,0.7-0.1,1c0.1-0.1,0.3-0.2,0.4-0.3C14,7.8,14,7.5,13.9,7.2z M13.5,6.4
	c-0.1,0.1-0.2,0.2-0.2,0.2c0.2,0.2,0.3,0.4,0.3,0.6C13.7,7.1,13.8,7,13.9,7C13.8,6.8,13.7,6.5,13.5,6.4z M13.2,9.1
	C13.1,9.1,13.1,9.1,13.2,9.1c-0.4,0.4-0.8,0.7-1.1,1c-0.8,0.7-1.6,1.4-2.4,2.1c-0.1,0.3-0.2,0.7-0.5,0.9c-0.3,0.3-0.8,0.5-1.2,0.5
	c-0.1,0-0.1,0-0.2,0c-0.5,0-1-0.2-1.3-0.5c-0.5-0.5-0.7-1.3-0.5-1.9c0.1-0.3,0.2-0.5,0.5-0.8C6.7,10.2,7,10,7.3,10
	C8,9.2,8.9,8.5,9.8,7.6c0.1-0.1,0.1-0.1,0.2-0.2c0.1-0.4,0.2-0.7,0.5-1c0.3-0.3,0.7-0.5,1.1-0.5c0.1,0,0.2,0,0.2,0
	c0.1,0,0.3,0,0.4,0c0.1-0.1,0.2-0.2,0.3-0.3c-0.2-0.1-0.4-0.1-0.6-0.1c0,0-0.1,0-0.1,0c-0.6,0-1.1,0.2-1.6,0.6l-4,4
	c-0.4,0.4-0.6,0.9-0.6,1.4c-0.1,0.6,0.1,1.3,0.6,1.8C6.6,13.7,7,13.9,7.5,14c0,0,0,0,0.1,0h0c0.5,0,1-0.1,1.4-0.4c0,0,0,0,0,0
	c0.1-0.1,0.2-0.2,0.3-0.3l0.7-0.7l3.3-3.3c0.3-0.3,0.4-0.6,0.5-0.9C13.7,8.7,13.4,8.9,13.2,9.1z M12.7,5.8c-0.1,0.1-0.1,0.2-0.2,0.3
	c0.2,0.1,0.4,0.2,0.6,0.3c0.1-0.1,0.2-0.1,0.2-0.2C13.1,6,12.9,5.9,12.7,5.8z M13.9,7.2c-0.1,0.1-0.2,0.2-0.3,0.3
	c0.1,0.3,0,0.7-0.1,1c0.1-0.1,0.3-0.2,0.4-0.3C14,7.8,14,7.5,13.9,7.2z M13.5,6.4c-0.1,0.1-0.2,0.2-0.2,0.2c0.2,0.2,0.3,0.4,0.3,0.6
	C13.7,7.1,13.8,7,13.9,7C13.8,6.8,13.7,6.5,13.5,6.4z M13.2,9.1C13.1,9.1,13.1,9.1,13.2,9.1c-0.4,0.4-0.8,0.7-1.1,1
	c-0.8,0.7-1.6,1.4-2.4,2.1c-0.1,0.3-0.2,0.7-0.5,0.9c-0.3,0.3-0.8,0.5-1.2,0.5c-0.1,0-0.1,0-0.2,0c-0.5,0-1-0.2-1.3-0.5
	c-0.5-0.5-0.7-1.3-0.5-1.9c0.1-0.3,0.2-0.5,0.5-0.8C6.7,10.2,7,10,7.3,10C8,9.2,8.9,8.5,9.8,7.6c0.1-0.1,0.1-0.1,0.2-0.2
	c0.1-0.4,0.2-0.7,0.5-1c0.3-0.3,0.7-0.5,1.1-0.5c0.1,0,0.2,0,0.2,0c0.1,0,0.3,0,0.4,0c0.1-0.1,0.2-0.2,0.3-0.3
	c-0.2-0.1-0.4-0.1-0.6-0.1c0,0-0.1,0-0.1,0c-0.6,0-1.1,0.2-1.6,0.6l-4,4c-0.4,0.4-0.6,0.9-0.6,1.4c-0.1,0.6,0.1,1.3,0.6,1.8
	C6.6,13.7,7,13.9,7.5,14c0,0,0,0,0.1,0h0c0.5,0,1-0.1,1.4-0.4c0,0,0,0,0,0c0.1-0.1,0.2-0.2,0.3-0.3l0.7-0.7l3.3-3.3
	c0.3-0.3,0.4-0.6,0.5-0.9C13.7,8.7,13.4,8.9,13.2,9.1z M5.8,9.2C5.8,9.3,5.7,9.5,5.5,9.6c-0.7,0.7-1.9,0.7-2.7,0
	c-0.7-0.7-0.7-1.9,0-2.7c0.4-0.4,0.9-0.6,1.3-0.6c0.1,0,0.2,0,0.2,0C4.9,5.6,5.6,4.8,6.4,4c0-0.4,0.2-0.8,0.5-1.1
	c0.3-0.3,0.8-0.5,1.2-0.5C8.2,2.2,8.3,2.1,8.5,2C8.4,2,8.3,2,8.2,2C7.9,2,7.6,2.1,7.4,2.2C7.1,2.3,6.9,2.5,6.7,2.7L3.4,5.9L2.7,6.7
	C2.5,6.9,2.3,7.1,2.2,7.4c0,0,0,0.1,0,0.1C1.8,8.3,2,9.2,2.7,9.8c0.9,0.9,2.3,0.9,3.1,0L8.5,7C7.6,7.8,6.7,8.5,5.8,9.2z M10.1,4.4
	c0,0.4-0.2,0.8-0.5,1.2C9.2,5.9,8.7,6.1,8.2,6.1C7.5,6.7,6.8,7.3,6.1,7.9v0c0.1,0.4,0,0.9-0.2,1.3C6.9,8.1,8.1,7,9.3,5.9
	c0.3-0.3,0.6-0.5,0.9-0.8c0.2-0.3,0.2-0.7,0.2-1.1C10.3,4.2,10.2,4.3,10.1,4.4z M9.8,2.7C9.5,2.3,9.1,2.1,8.7,2
	C8.6,2.2,8.5,2.2,8.4,2.3c0.4,0,0.8,0.2,1.2,0.5c0.3,0.3,0.5,0.7,0.5,1.2c0.1-0.1,0.2-0.2,0.3-0.2C10.3,3.4,10.1,3,9.8,2.7z
	 M5.8,9.2C5.8,9.3,5.7,9.5,5.5,9.6c-0.7,0.7-1.9,0.7-2.7,0c-0.7-0.7-0.7-1.9,0-2.7c0.4-0.4,0.9-0.6,1.3-0.6c0.1,0,0.2,0,0.2,0
	C4.9,5.6,5.6,4.8,6.4,4c0-0.4,0.2-0.8,0.5-1.1c0.3-0.3,0.8-0.5,1.2-0.5C8.2,2.2,8.3,2.1,8.5,2C8.4,2,8.3,2,8.2,2
	C7.9,2,7.6,2.1,7.4,2.2C7.1,2.3,6.9,2.5,6.7,2.7L3.4,5.9L2.7,6.7C2.5,6.9,2.3,7.1,2.2,7.4c0,0,0,0.1,0,0.1C1.8,8.3,2,9.2,2.7,9.8
	c0.9,0.9,2.3,0.9,3.1,0L8.5,7C7.6,7.8,6.7,8.5,5.8,9.2z M10.1,4.4c0,0.4-0.2,0.8-0.5,1.2C9.2,5.9,8.7,6.1,8.2,6.1
	C7.5,6.7,6.8,7.3,6.1,7.9v0c0.1,0.4,0,0.9-0.2,1.3C6.9,8.1,8.1,7,9.3,5.9c0.3-0.3,0.6-0.5,0.9-0.8c0.2-0.3,0.2-0.7,0.2-1.1
	C10.3,4.2,10.2,4.3,10.1,4.4z M9.8,2.7C9.5,2.3,9.1,2.1,8.7,2C8.6,2.2,8.5,2.2,8.4,2.3c0.4,0,0.8,0.2,1.2,0.5
	c0.3,0.3,0.5,0.7,0.5,1.2c0.1-0.1,0.2-0.2,0.3-0.2C10.3,3.4,10.1,3,9.8,2.7z M12.7,5.8c-0.1,0.1-0.1,0.2-0.2,0.3
	c0.2,0.1,0.4,0.2,0.6,0.3c0.1-0.1,0.2-0.1,0.2-0.2C13.1,6,12.9,5.9,12.7,5.8z M13.9,7.2c-0.1,0.1-0.2,0.2-0.3,0.3
	c0.1,0.3,0,0.7-0.1,1c0.1-0.1,0.3-0.2,0.4-0.3C14,7.8,14,7.5,13.9,7.2z M13.5,6.4c-0.1,0.1-0.2,0.2-0.2,0.2c0.2,0.2,0.3,0.4,0.3,0.6
	C13.7,7.1,13.8,7,13.9,7C13.8,6.8,13.7,6.5,13.5,6.4z M13.2,9.1C13.1,9.1,13.1,9.1,13.2,9.1c-0.4,0.4-0.8,0.7-1.1,1
	c-0.8,0.7-1.6,1.4-2.4,2.1c-0.1,0.3-0.2,0.7-0.5,0.9c-0.3,0.3-0.8,0.5-1.2,0.5c-0.1,0-0.1,0-0.2,0c-0.5,0-1-0.2-1.3-0.5
	c-0.5-0.5-0.7-1.3-0.5-1.9c0.1-0.3,0.2-0.5,0.5-0.8C6.7,10.2,7,10,7.3,10C8,9.2,8.9,8.5,9.8,7.6c0.1-0.1,0.1-0.1,0.2-0.2
	c0.1-0.4,0.2-0.7,0.5-1c0.3-0.3,0.7-0.5,1.1-0.5c0.1,0,0.2,0,0.2,0c0.1,0,0.3,0,0.4,0c0.1-0.1,0.2-0.2,0.3-0.3
	c-0.2-0.1-0.4-0.1-0.6-0.1c0,0-0.1,0-0.1,0c-0.6,0-1.1,0.2-1.6,0.6l-4,4c-0.4,0.4-0.6,0.9-0.6,1.4c-0.1,0.6,0.1,1.3,0.6,1.8
	C6.6,13.7,7,13.9,7.5,14c0,0,0,0,0.1,0h0c0.5,0,1-0.1,1.4-0.4c0,0,0,0,0,0c0.1-0.1,0.2-0.2,0.3-0.3l0.7-0.7l3.3-3.3
	c0.3-0.3,0.4-0.6,0.5-0.9C13.7,8.7,13.4,8.9,13.2,9.1z M12.7,5.8c-0.1,0.1-0.1,0.2-0.2,0.3c0.2,0.1,0.4,0.2,0.6,0.3
	c0.1-0.1,0.2-0.1,0.2-0.2C13.1,6,12.9,5.9,12.7,5.8z M13.9,7.2c-0.1,0.1-0.2,0.2-0.3,0.3c0.1,0.3,0,0.7-0.1,1
	c0.1-0.1,0.3-0.2,0.4-0.3C14,7.8,14,7.5,13.9,7.2z M13.5,6.4c-0.1,0.1-0.2,0.2-0.2,0.2c0.2,0.2,0.3,0.4,0.3,0.6
	C13.7,7.1,13.8,7,13.9,7C13.8,6.8,13.7,6.5,13.5,6.4z M13.2,9.1C13.1,9.1,13.1,9.1,13.2,9.1c-0.4,0.4-0.8,0.7-1.1,1
	c-0.8,0.7-1.6,1.4-2.4,2.1c-0.1,0.3-0.2,0.7-0.5,0.9c-0.3,0.3-0.8,0.5-1.2,0.5c-0.1,0-0.1,0-0.2,0c-0.5,0-1-0.2-1.3-0.5
	c-0.5-0.5-0.7-1.3-0.5-1.9c0.1-0.3,0.2-0.5,0.5-0.8C6.7,10.2,7,10,7.3,10C8,9.2,8.9,8.5,9.8,7.6c0.1-0.1,0.1-0.1,0.2-0.2
	c0.1-0.4,0.2-0.7,0.5-1c0.3-0.3,0.7-0.5,1.1-0.5c0.1,0,0.2,0,0.2,0c0.1,0,0.3,0,0.4,0c0.1-0.1,0.2-0.2,0.3-0.3
	c-0.2-0.1-0.4-0.1-0.6-0.1c0,0-0.1,0-0.1,0c-0.6,0-1.1,0.2-1.6,0.6l-4,4c-0.4,0.4-0.6,0.9-0.6,1.4c-0.1,0.6,0.1,1.3,0.6,1.8
	C6.6,13.7,7,13.9,7.5,14c0,0,0,0,0.1,0h0c0.5,0,1-0.1,1.4-0.4c0,0,0,0,0,0c0.1-0.1,0.2-0.2,0.3-0.3l0.7-0.7l3.3-3.3
	c0.3-0.3,0.4-0.6,0.5-0.9C13.7,8.7,13.4,8.9,13.2,9.1z M5.8,9.2C5.8,9.3,5.7,9.5,5.5,9.6c-0.7,0.7-1.9,0.7-2.7,0
	c-0.7-0.7-0.7-1.9,0-2.7c0.4-0.4,0.9-0.6,1.3-0.6c0.1,0,0.2,0,0.2,0C4.9,5.6,5.6,4.8,6.4,4c0-0.4,0.2-0.8,0.5-1.1
	c0.3-0.3,0.8-0.5,1.2-0.5C8.2,2.2,8.3,2.1,8.5,2C8.4,2,8.3,2,8.2,2C7.9,2,7.6,2.1,7.4,2.2C7.1,2.3,6.9,2.5,6.7,2.7L3.4,5.9L2.7,6.7
	C2.5,6.9,2.3,7.1,2.2,7.4c0,0,0,0.1,0,0.1C1.8,8.3,2,9.2,2.7,9.8c0.9,0.9,2.3,0.9,3.1,0L8.5,7C7.6,7.8,6.7,8.5,5.8,9.2z M10.1,4.4
	c0,0.4-0.2,0.8-0.5,1.2C9.2,5.9,8.7,6.1,8.2,6.1C7.5,6.7,6.8,7.3,6.1,7.9v0c0.1,0.4,0,0.9-0.2,1.3C6.9,8.1,8.1,7,9.3,5.9
	c0.3-0.3,0.6-0.5,0.9-0.8c0.2-0.3,0.2-0.7,0.2-1.1C10.3,4.2,10.2,4.3,10.1,4.4z M9.8,2.7C9.5,2.3,9.1,2.1,8.7,2
	C8.6,2.2,8.5,2.2,8.4,2.3c0.4,0,0.8,0.2,1.2,0.5c0.3,0.3,0.5,0.7,0.5,1.2c0.1-0.1,0.2-0.2,0.3-0.2C10.3,3.4,10.1,3,9.8,2.7z"/>
<path class="st0" d="M8,0H7.8C7.6,0.1,7.5,0.2,7.4,0.2C7.2,0.4,7,0.5,6.8,0.8c0,0.1-0.1,0.2-0.1,0.3C7.2,1,7.6,1,8,1
	c0.2,0,0.3,0,0.5,0c0.1-0.1,0.2-0.2,0.3-0.3C8.8,0.8,8.7,0.9,8.6,1c1.9,0.1,3.6,1.1,4.8,2.4c0.3-0.2,0.6-0.4,0.8-0.6
	C12.7,1.1,10.5,0,8,0z M9.8,2.7C9.5,2.3,9.1,2.1,8.7,2C8.6,2.2,8.5,2.2,8.4,2.3C8.2,2.6,8,2.8,7.8,3.1c-0.5,0.5-0.9,1-1.4,1.5
	c0.1,0.4,0.2,0.7,0.5,1C7.2,5.8,7.5,6,7.8,6C8,5.8,8.3,5.6,8.6,5.3c0.5-0.4,1-0.9,1.5-1.3c0.1-0.1,0.2-0.2,0.3-0.2
	C10.3,3.4,10.1,3,9.8,2.7z M10.1,4.4C9.9,4.5,9.8,4.7,9.6,4.9C9.1,5.3,8.7,5.7,8.2,6.1C7.5,6.7,6.8,7.3,6.1,7.9v0
	C5.7,8.2,5.3,8.4,5,8.7c0.3-0.3,0.7-0.7,1-1C5.9,7.4,5.8,7.1,5.5,6.9C5.3,6.6,4.9,6.4,4.5,6.4c0,0-0.1,0.1-0.1,0.1
	c0,0,0-0.1,0.1-0.1C4.9,5.6,5.6,4.8,6.4,4c0.1-0.1,0.3-0.3,0.4-0.4c0.4-0.5,0.9-0.8,1.3-1.2C8.2,2.2,8.3,2.1,8.5,2
	C8.4,2,8.3,2,8.2,2C7.9,2,7.6,2.1,7.4,2.2C7.1,2.4,6.9,2.7,6.6,2.9C5,4.4,3.5,6,2.1,7.5C1.8,8.3,2,9.2,2.7,9.8
	c0.9,0.9,2.3,0.9,3.1,0L8.5,7C7.6,7.8,6.7,8.5,5.8,9.2c0,0-0.1,0.1-0.1,0.1l0.2-0.2C6.9,8.1,8.1,7,9.3,5.9c0.3-0.3,0.6-0.5,0.9-0.8
	c0.2-0.3,0.2-0.7,0.2-1.1C10.3,4.2,10.2,4.3,10.1,4.4z M2.7,6.7C2.5,6.9,2.3,7.1,2.2,7.4c0.4-0.5,0.8-1,1.2-1.5L2.7,6.7z M1,8
	c0-0.5,0-0.9,0.1-1.4C0.8,6.9,0.4,7.3,0,7.7C0,7.8,0,7.9,0,8c0,2.3,1,4.5,2.6,5.9c0.2-0.2,0.4-0.5,0.7-0.7C1.9,11.9,1,10.1,1,8z
	 M12.5,6c-0.3,0.3-0.7,0.7-1,1.1C11,7.5,10.5,8,10,8.4c0,0.2,0.1,0.3,0.3,0.5c0.8-0.8,1.7-1.5,2.6-2.3C12.9,6.5,13,6.4,13,6.4
	C12.9,6.2,12.7,6.1,12.5,6z M13.7,7.4C13.3,7.7,13,8,12.7,8.3c-0.5,0.5-1,0.9-1.5,1.3c0.2,0.1,0.5,0.1,0.7,0.1
	c0.6-0.5,1.1-0.9,1.6-1.2C13.7,8.1,13.7,7.7,13.7,7.4z M12.5,6c-0.3,0.3-0.7,0.7-1,1.1C11,7.5,10.5,8,10,8.4c0,0.2,0.1,0.3,0.3,0.5
	c0.8-0.8,1.7-1.5,2.6-2.3C12.9,6.5,13,6.4,13,6.4C12.9,6.2,12.7,6.1,12.5,6z M13.7,7.4C13.3,7.7,13,8,12.7,8.3
	c-0.5,0.5-1,0.9-1.5,1.3c0.2,0.1,0.5,0.1,0.7,0.1c0.6-0.5,1.1-0.9,1.6-1.2C13.7,8.1,13.7,7.7,13.7,7.4z M15.3,8.6
	c-0.1,0.1-0.2,0.2-0.3,0.3c0,0.5-0.2,1-0.3,1.5c0.3-0.2,0.7-0.5,1.1-0.8c0.1-0.1,0.1-0.1,0.2-0.2C16,8.9,16,8.5,16,8V7.9
	C15.8,8.2,15.5,8.4,15.3,8.6z M14.1,11.5C12.9,13.6,10.6,15,8,15c-1.7,0-3.2-0.6-4.4-1.5c-0.3,0.3-0.5,0.5-0.7,0.7
	C4.3,15.3,6.1,16,8,16c1,0,2.1-0.2,3-0.6c0.8-0.8,0.9-1.1,1.4-1.3c0.1,0,0.3-0.1,0.5-0.3c0.3-0.3,0.4-0.6,0.5-0.8
	c0.4-0.8,0.8-0.8,1.7-2c0,0,0.2-0.3,0.2-0.4C15.2,10.5,14.5,11.3,14.1,11.5z M9.5,11.1c-0.9,0.8-1.7,1.5-2.6,2.2
	c0.8-0.8,1.6-1.6,2.5-2.4c-0.1-0.2-0.2-0.3-0.3-0.5c-0.2-0.2-0.5-0.4-0.8-0.5c-0.6,0.6-1.2,1.1-1.8,1.7c0.5-0.6,1-1.1,1.5-1.7
	c-0.1,0-0.2,0-0.3,0c-0.2,0-0.3,0-0.5,0.1c-0.5,0.4-0.9,0.8-1.3,1.2c-0.1,0.1-0.3,0.3-0.4,0.4c-0.1,0.6,0.1,1.3,0.6,1.8
	C6.6,13.7,7,13.9,7.5,14c0.1-0.1,0.2-0.2,0.3-0.3c0.6-0.6,1.2-1.3,1.9-2C9.7,11.5,9.6,11.3,9.5,11.1z M14.4,3.2
	c-0.2,0.2-0.4,0.4-0.7,0.7c-0.5,0.4-1,1-1.8,1.7c-0.1,0.1-0.2,0.2-0.3,0.3c-0.5,0.5-1,1-1.6,1.5c0,0.2,0,0.4,0,0.6
	c0.6-0.5,1.1-1.1,1.8-1.7c0.2-0.2,0.4-0.3,0.5-0.5c0.1-0.1,0.2-0.2,0.3-0.3c0.5-0.4,1-0.9,1.5-1.3c0.1-0.1,0.2-0.2,0.3-0.2
	c-0.1,0.1-0.2,0.2-0.3,0.3c-0.4,0.4-0.9,0.9-1.3,1.3c-0.1,0.1-0.1,0.2-0.2,0.3c-0.3,0.3-0.7,0.7-1,1.1C11,7.5,10.5,8,10,8.4
	c0,0.2,0.1,0.3,0.3,0.5c0.8-0.8,1.7-1.5,2.6-2.3C12.9,6.5,13,6.4,13,6.4c0.1-0.1,0.2-0.1,0.2-0.2c0.4-0.3,0.8-0.6,1.1-0.9
	C14.7,5,15,4.8,15.2,4.6C15,4.1,14.7,3.6,14.4,3.2z M15.3,4.7c-0.3,0.3-0.5,0.5-0.8,0.7c-0.2,0.2-0.5,0.4-0.7,0.7
	c-0.1,0.1-0.2,0.2-0.3,0.3c-0.1,0.1-0.2,0.2-0.2,0.2c-1,0.9-2,1.7-2.9,2.4c0,0,0.1,0.1,0.1,0.1c0.2,0.2,0.3,0.3,0.5,0.4
	c0.3-0.3,0.7-0.6,1-0.9c0.5-0.5,1.1-1,1.6-1.4C13.7,7.1,13.8,7,13.9,7c0.3-0.3,0.6-0.5,0.9-0.8C15,6,15.3,5.7,15.6,5.5
	C15.5,5.2,15.4,5,15.3,4.7z M9.5,11.1c-0.9,0.8-1.7,1.5-2.6,2.2c0.8-0.8,1.6-1.6,2.5-2.4c-0.1-0.2-0.2-0.3-0.3-0.5
	c-0.2-0.2-0.5-0.4-0.8-0.5c-0.6,0.6-1.2,1.1-1.8,1.7c0.5-0.6,1-1.1,1.5-1.7c-0.1,0-0.2,0-0.3,0c-0.2,0-0.3,0-0.5,0.1
	c-0.5,0.4-0.9,0.8-1.3,1.2c-0.2,0.7-0.1,1.4,0.5,1.9c0.4,0.4,0.8,0.5,1.3,0.5c0.6-0.6,1.2-1.3,1.9-2C9.7,11.5,9.6,11.3,9.5,11.1z
	 M11.8,5.9c-0.1,0-0.2,0-0.2,0c-0.5,0.5-1,1-1.6,1.5c0,0.2,0,0.4,0,0.6c0.6-0.5,1.1-1.1,1.8-1.7c0.2-0.2,0.4-0.3,0.5-0.5
	C12.1,5.9,11.9,5.9,11.8,5.9z M12.5,6c-0.3,0.3-0.7,0.7-1,1.1C11,7.5,10.5,8,10,8.4c0,0.2,0.1,0.3,0.3,0.5c0.8-0.8,1.7-1.5,2.6-2.3
	C12.9,6.5,13,6.4,13,6.4C12.9,6.2,12.7,6.1,12.5,6z M13.3,6.6c-1,0.9-2,1.7-2.9,2.4c0,0,0.1,0.1,0.1,0.1c0.2,0.2,0.3,0.3,0.5,0.4
	c0.3-0.3,0.7-0.6,1-0.9c0.5-0.5,1.1-1,1.6-1.4C13.5,7,13.4,6.8,13.3,6.6z M15.6,5.6c-0.3,0.3-0.5,0.5-0.8,0.8
	c-0.3,0.3-0.6,0.5-0.9,0.8c-0.1,0.1-0.2,0.2-0.3,0.3C13.3,7.7,13,8,12.7,8.3c-0.5,0.5-1,0.9-1.5,1.3c0.2,0.1,0.5,0.1,0.7,0.1
	c0.6-0.5,1.1-0.9,1.6-1.2c0.1-0.1,0.3-0.2,0.4-0.3c0.3-0.3,0.7-0.5,1-0.7c0.1-0.1,0.2-0.1,0.3-0.2c-0.1,0.1-0.2,0.2-0.3,0.3
	c-0.4,0.3-0.7,0.6-1.1,1c-0.3,0.2-0.5,0.4-0.8,0.7c0,0,0,0,0,0c-0.4,0.3-0.7,0.6-1.1,1c-0.8,0.7-1.6,1.4-2.4,2.1
	c-0.6,0.5-1.1,1-1.7,1.5c-0.1,0.1-0.3,0.2-0.4,0.3c0.5,0,1-0.1,1.4-0.4c0,0,0,0,0,0c0.3-0.3,0.7-0.6,1-1c0.5-0.5,1-0.9,1.5-1.3
	c1-0.9,2-1.7,2.9-2.4c0.2-0.1,0.3-0.3,0.5-0.5c0.3-0.3,0.7-0.6,1-0.8C16,6.9,15.8,6.2,15.6,5.6z M13.3,6.6c-1,0.9-2,1.7-2.9,2.4
	c0,0,0.1,0.1,0.1,0.1c0.2,0.2,0.3,0.3,0.5,0.4c0.3-0.3,0.7-0.6,1-0.9c0.5-0.5,1.1-1,1.6-1.4C13.5,7,13.4,6.8,13.3,6.6z M12.5,6
	c-0.3,0.3-0.7,0.7-1,1.1C11,7.5,10.5,8,10,8.4c0,0.2,0.1,0.3,0.3,0.5c0.8-0.8,1.7-1.5,2.6-2.3C12.9,6.5,13,6.4,13,6.4
	C12.9,6.2,12.7,6.1,12.5,6z M11.8,5.9c-0.1,0-0.2,0-0.2,0c-0.5,0.5-1,1-1.6,1.5c0,0.2,0,0.4,0,0.6c0.6-0.5,1.1-1.1,1.8-1.7
	c0.2-0.2,0.4-0.3,0.5-0.5C12.1,5.9,11.9,5.9,11.8,5.9z M9.5,11.1c-0.9,0.8-1.7,1.5-2.6,2.2c0.8-0.8,1.6-1.6,2.5-2.4
	c-0.1-0.2-0.2-0.3-0.3-0.5c-0.2-0.2-0.5-0.4-0.8-0.5c-0.6,0.6-1.2,1.1-1.8,1.7c0.5-0.6,1-1.1,1.5-1.7c-0.1,0-0.2,0-0.3,0
	c-0.2,0-0.3,0-0.5,0.1c-0.5,0.4-0.9,0.8-1.3,1.2c-0.2,0.7-0.1,1.4,0.5,1.9c0.4,0.4,0.8,0.5,1.3,0.5c0.6-0.6,1.2-1.3,1.9-2
	C9.7,11.5,9.6,11.3,9.5,11.1z M12.5,6c-0.3,0.3-0.7,0.7-1,1.1C11,7.5,10.5,8,10,8.4c0,0.2,0.1,0.3,0.3,0.5c0.8-0.8,1.7-1.5,2.6-2.3
	C12.9,6.5,13,6.4,13,6.4C12.9,6.2,12.7,6.1,12.5,6z M13.7,7.4C13.3,7.7,13,8,12.7,8.3c-0.5,0.5-1,0.9-1.5,1.3
	c0.2,0.1,0.5,0.1,0.7,0.1c0.6-0.5,1.1-0.9,1.6-1.2C13.7,8.1,13.7,7.7,13.7,7.4z M12.5,6c-0.3,0.3-0.7,0.7-1,1.1
	C11,7.5,10.5,8,10,8.4c0,0.2,0.1,0.3,0.3,0.5c0.8-0.8,1.7-1.5,2.6-2.3C12.9,6.5,13,6.4,13,6.4C12.9,6.2,12.7,6.1,12.5,6z M13.7,7.4
	C13.3,7.7,13,8,12.7,8.3c-0.5,0.5-1,0.9-1.5,1.3c0.2,0.1,0.5,0.1,0.7,0.1c0.6-0.5,1.1-0.9,1.6-1.2C13.7,8.1,13.7,7.7,13.7,7.4z
	 M12.5,6c-0.3,0.3-0.7,0.7-1,1.1C11,7.5,10.5,8,10,8.4c0,0.2,0.1,0.3,0.3,0.5c0.8-0.8,1.7-1.5,2.6-2.3C12.9,6.5,13,6.4,13,6.4
	C12.9,6.2,12.7,6.1,12.5,6z M5.9,0.7c-0.1-0.1-0.2,0-0.3-0.2c0,0,0-0.1,0-0.1c0,0,0,0,0,0C2.5,1.4,0.2,4.2,0,7.6
	c0.4-0.4,0.8-0.9,1.2-1.2c0.6-2.4,2.3-4.2,4.6-5c0,0,0-0.1,0.1-0.1C5.9,1.2,6,1,6,0.9C6,0.8,6,0.7,5.9,0.7z M2.6,3.1
	C2.3,3.4,1.9,3.7,1.6,4c0.2-0.3,0.5-0.6,0.8-1c0.5-0.5,1-1,1.4-1.4C3.5,2.1,3.1,2.6,2.6,3.1z"/>
</svg>
