<?xml version="1.0" encoding="utf-8"?>
<!-- Generator: Adobe Illustrator 23.0.0, SVG Export Plug-In . SVG Version: 6.00 Build 0)  -->
<svg version="1.1" id="Layer_1" xmlns="http://www.w3.org/2000/svg" xmlns:xlink="http://www.w3.org/1999/xlink" x="0px" y="0px"
	 viewBox="0 0 16 16" style="enable-background:new 0 0 16 16;" xml:space="preserve">
<style type="text/css">
	.st0{clip-path:url(#SVGID_2_);fill:#F75049;}
</style>
<g>
	<defs>
		<path id="SVGID_1_" d="M21.6,3.1c-0.1-0.1-0.3,0-0.6-0.2c-0.2-0.2-0.2-0.3-0.3-0.4c-0.4-0.2-1.3,0.5-1.3,0.5c0,0,0.4-0.3,0.7-0.7
			c0.2-0.2,0.6-0.7,0.5-1C20.6,1,20.4,1,20.3,0.9c0-0.3,0.5-0.4,0.4-0.7c0-0.2-0.2-0.3-0.3-0.3C20.1-0.3,19.7,0,19.7,0
			c0,0,0.3-0.2,0.4-0.5c0-0.1,0.2-0.3,0.1-0.5C20.1-1,19.9-1,19.8-1c-0.1,0-0.2,0.1-0.2,0c0,0,0-0.1,0-0.2c0-0.2-0.3-0.3-0.6-0.3
			C18.4-1.5,18-1,18-1c-0.1-0.1,0.5-0.5,0.4-0.9c0-0.1-0.2-0.3-0.4-0.3c-0.3,0-0.4,0.3-0.5,0.3c-0.1-0.1,0.1-0.7-0.1-0.9
			c-0.1-0.1-0.3,0.1-0.6,0c-0.2-0.1-0.2-0.1-0.3-0.2c-0.3-0.1-0.8,0.4-1.3,0.9c-0.2,0.2-0.6,0.5-1.1,0.8c0.3-0.3,0.5-0.6,0.7-0.7
			c0.4-0.4,0.6-0.6,0.6-0.9c0-0.1,0-0.4-0.2-0.4c-0.2-0.1-0.4,0.2-1.1,0.6c-0.2,0.1-0.3,0.2-0.4,0.3c0,0,0.3-0.4,0.2-0.7
			c0,0-0.1-0.2-0.2-0.3c-0.4-0.3-1.1-0.2-1.2-0.2c-0.9,0.2-1.1,0.8-2.1,1.3c0,0-0.1,0.1-0.3,0.2C9.7-1.9,9.5-1.8,9.4-1.7
			C9.1-1.5,8.9-1.4,8.8-1.1C8.7-0.9,8.7-0.7,8.6-0.5C8.5-0.4,8.3-0.3,8.2-0.3C7.6-0.2,6.9,0.9,6.8,1C6.4,1.5,5.1,2.9,1.6,6.1
			c4.7-5,6.2-6.6,6.2-6.7c0,0,0,0,0,0c0-0.1,0.2-0.4,0-0.6c-0.1-0.1-0.2,0-0.3-0.1c0,0,0-0.1,0-0.1C7.6-1.7,8-1.8,8-1.8
			c0,0-0.1-0.1-0.2-0.1C7.5-2.1,7.5-2.1,7.3-2.2C7.1-2.2,6.9-2.1,6.7-2C6.5-1.9,6.3-1.8,6.3-1.8c0,0,0-0.2,0-0.3
			C6.2-2.2,6-2.2,6-2.2c-0.3,0-0.5,0.3-0.6,0.2c-0.1,0,0-0.2-0.1-0.3C5.2-2.4,5.1-2.3,4.9-2.4C4.7-2.6,4.8-2.7,4.6-3
			C4.5-3.1,4.4-3.2,4.2-3.3C4-3.4,3.9-3.3,3.7-3.4C3.4-3.5,3.4-3.6,3.2-3.6c-0.2,0-0.3,0-0.4,0.1C2.5-3.4,2.5-3.3,2.3-3.3
			c-0.2,0-0.2-0.2-0.5-0.2c-0.1,0-0.2,0-0.3,0C1.4-3.4,1.5-3.1,1.4-3C1.3-2.9,1.2-2.9,1.1-3C1.1-3,1.1-3.1,1-3.2
			C0.8-3.4-0.1-3.1-0.4-2.6c0,0.1-0.1,0.2-0.2,0.3c-0.2,0.1-0.3,0-0.5,0c-0.3,0-0.5,0.2-1.1,1c0,0-0.1,0.1-0.6,0.6
			c-0.9,1-1,1.1-1.1,1.4c0,0.5,0,0.7,0,0.7c0,0.1,0.1,0.3,0,0.4c-0.1,0.1-0.1,0-0.2,0.1c-0.1,0.1,0.1,0.4,0,0.8c0,0,0,0,0,0.3
			C-4,3.5-4,3.6-3.9,3.7c0.1,0.1,0.2,0.1,0.3,0.1c0.2,0,0.3-0.1,0.4-0.1c0.4-0.5,0.8-0.9,1.1-1.4C-2.3,2.6-2.5,2.8-2.6,3
			c-0.2,0.2-0.3,0.4-0.5,0.7c0,0.1-0.1,0.2-0.2,0.4c-0.1,0.2-0.2,0.5-0.1,0.8c0,0.1,0.1,0.2,0.1,0.3c0,0.2,0,0.3,0,0.4
			c0,0.1,0.1,0.1,0.2,0.1C-2.9,5.8-3,6-3,6.2c0,0.2,0.1,0.1,0.1,0.3c0.1,0.3-0.1,0.4,0,0.7c0,0.1,0,0.2,0.1,0.3
			c0.1,0.1,0.4-0.1,0.6,0C-2,7.6-2.1,7.9-1.9,7.9c0.1,0,0.2-0.1,0.4,0c0,0,0.3,0,0.3,0.1c0,0.1-0.1,0.3-0.3,0.4
			c-0.4,0.2-0.8-0.1-0.9,0c0,0.1,0.1,0.2,0.2,0.3c1,0.9,1,1,1.3,1.2c0.3,0.2,0.3,0.1,0.7,0.3c0.5,0.3,1.1,0.6,1.1,1
			c0,0.2-0.2,0.3-0.1,0.6c0,0.2,0.1,0.5,0.3,0.6c0.2,0.1,0.3-0.1,0.6-0.1c0.3,0,0.3,0.2,0.6,0.3c0.4,0,0.5-0.4,0.8-0.4
			c0.2,0,0.2,0.2,0.4,0.3c0.2,0.1,0.4,0,0.5,0c1-1.1,2.6-2.7,4.6-4.8c1.6-1.7,2.1-2.2,3-3.1c2.6-2.5,5.4-4.5,5.5-4.3
			c0.1,0.1-1.2,1.3-5.5,5.4c-3,2.8-5.4,5.2-7.1,6.8c0,0.3,0.1,0.5,0.2,0.5c0.2,0.1,0.5-0.2,0.8,0c0.1,0.1,0.3,0.2,0.3,0.4
			c0,0.2,0,0.3,0.1,0.4c0.1,0.1,0.1,0,0.2,0.1c0.2,0.2,0.1,0.3,0.3,0.5c0.2,0.1,0.4,0,0.4,0.2c0,0.1,0,0.1,0,0.3C6.9,15,7,15,7,15.1
			c0,0.2-0.3,0.3-0.3,0.6c0,0.2,0.1,0.2,0.1,0.5c0,0.5-0.6,0.6-0.5,0.9c0,0.2,0.2,0.4,0.4,0.5c0.3,0,0.5-0.4,0.8-0.4
			c0.4,0,0.6,0.6,0.9,0.5c0.3,0,0.3-0.4,0.6-0.4c0.2,0,0.3,0.1,0.4,0c0.1-0.1,0.1-0.2,0.3-0.3c0.1,0,0.1,0,0.2,0
			c0.2,0,0.6-0.4,0.7-0.8c0.1-0.4,0-0.5,0.2-0.8c0.1-0.2,0.3-0.3,0.4-0.4c0.5-0.4,1.2-1,1.8-1.6c0.8-0.8,0.9-1.1,1.5-1.4
			c0.1,0,0.3-0.1,0.5-0.3c0.3-0.3,0.4-0.6,0.6-0.8c0.4-0.8,0.8-0.8,1.7-2c0-0.1,0.2-0.3,0.2-0.4c-0.1-0.1-1.2,1.1-1.4,1
			c-0.1-0.1-0.1-0.2-0.1-0.2c0.1-0.6,0.8-0.8,1.9-1.7c0.3-0.2,0.2-0.2,0.5-0.5c0.8-0.7,1.7-1.3,2-1.7c0.1-0.3,0.2-0.6,0.2-0.6
			c0-0.1,0-0.1,0.1-0.2c0.1-0.3,0.2-0.4,0.7-0.9C21.6,3.3,21.6,3.2,21.6,3.1z M4.6,2.3C4.3,2.7,4,3,3.7,3.2c0.2-0.3,0.4-0.6,0.8-0.9
			C4.6,2.1,4.8,2,4.9,1.9C4.8,2,4.7,2.2,4.6,2.3z M4.4,1.1c0.5-0.5,1-1,1.4-1.4C5.5,0.2,5,0.7,4.5,1.2C4.2,1.5,3.9,1.8,3.6,2
			C3.8,1.7,4.1,1.4,4.4,1.1z M-1.2,1c0.1-0.2,0.2-0.4,0.4-0.6c0.1-0.1,0.2-0.2,0.2-0.2c0,0.1-0.1,0.2-0.2,0.3C-0.8,0.7-1,0.9-1.2,1z
			 M-0.3,9.2c-0.1,0.1-0.2,0.2-0.3,0.2c0,0,0-0.2,0.1-0.3c0.1-0.1,0.3-0.2,0.3-0.2C-0.2,8.9-0.2,9.1-0.3,9.2z M-0.6,4.5
			c0.3-0.4,0.7-0.8,1-1.2c0,0.1,0,0.2,0,0.3C0,3.9-0.3,4.2-0.6,4.5z M1.1,10.6c0,0-0.2-0.2-0.5-0.6C0.5,9.9,0.4,9.8,0.4,9.7
			c0-0.1,0.1-0.1,0.2-0.2c0.1-0.1,0.3-0.2,0.4-0.5C1.1,9.2,1,9.4,1,9.5c0,0.1-0.1,0.2-0.1,0.3c0,0.1,0.1,0,0.1,0.1
			c0.1,0.1,0,0.2,0,0.3C1,10.4,1.1,10.5,1.1,10.6z M1-0.7c0.1-0.2,0.2-0.4,0.4-0.6c0.1-0.1,0.2-0.2,0.2-0.2c0,0.1-0.1,0.2-0.2,0.3
			C1.3-1.1,1.2-0.9,1-0.7z M3.8,5.9c1-1.3,2.3-2.8,3.8-4.2c1.1-1.1,2.2-2,3.2-2.8C10.1-0.5,9.3,0.3,8.6,1C6.9,2.6,5.3,4.2,3.8,5.9z
			 M8.7,1.6c0.8-0.8,1.6-1.5,2.4-2c-0.4,0.5-0.9,1-1.4,1.6C8.6,2.4,7.4,3.5,6.3,4.5C6.9,3.7,7.7,2.7,8.7,1.6z M10.6,3.4
			c1.1-0.9,2.2-1.8,3.2-2.6c-0.7,0.7-1.4,1.4-2.2,2.1C10,4.4,8.4,5.7,6.9,6.8C8,5.7,9.2,4.6,10.6,3.4z M12.3,3.5
			C10.7,5,9.1,6.3,7.7,7.4C8.8,6.3,10,5.2,11.3,4c1.1-0.9,2.2-1.8,3.2-2.6C13.8,2.1,13.1,2.8,12.3,3.5z M18,2
			c-0.7,0.7-1.4,1.4-2.2,2.1c-1.6,1.4-3.1,2.7-4.6,3.8c1.1-1.1,2.3-2.2,3.6-3.4C15.9,3.7,17,2.8,18,2z M8.5,9.8
			c1.4-1.7,3.1-3.5,5.1-5.3c0.9-0.8,1.8-1.5,2.6-2.2c-1,1-1.9,1.9-2.9,2.9C11.8,6.7,10.2,8.2,8.5,9.8z M8.9,11.4
			c1.6-1.5,3.2-3.1,5-4.7c1.4-1.3,2.8-2.4,4.2-3.5c-1.1,1.1-2.3,2.1-3.4,3.2C12.7,8.1,10.8,9.8,8.9,11.4z M9.2,12.4
			c1.1-1.3,2.5-2.7,4.1-4.1c1.4-1.2,2.7-2.2,4-3c-1.1,1-2.2,1.9-3.3,2.9C12.4,9.6,10.8,11,9.2,12.4z M17.2,6.7
			c-1.2,1.1-2.4,2.1-3.6,3c0.2-0.2,0.4-0.4,0.6-0.6c0.8-0.7,1.5-1.4,2.2-2.1c-0.1,0.1-0.2,0.1-0.3,0.2c-0.1,0-0.1,0.1-0.2,0.2
			c-1.3,1.1-2.4,2.2-3.5,3.3c-0.9,0.8-1.8,1.5-2.7,2.1c1.1-1.1,2.3-2.2,3.6-3.4c1-0.9,2-1.7,2.9-2.4c1-0.9,2.1-1.7,3-2.5
			C18.8,5.3,18,6,17.2,6.7z"/>
	</defs>
	<clipPath id="SVGID_2_">
		<use xlink:href="#SVGID_1_"  style="overflow:visible;"/>
	</clipPath>
	<path class="st0" d="M6.4,2.1c0,0.1,0,0.2-0.2,0.2C6,2.3,5.6,2.2,5.2,2.2c-0.4,0-0.7,0.1-0.6,0.4C4.7,2.9,5,3,5.7,3
		c1.5-0.1,1.5-1.2,3.8-1.4c1.7-0.2,2.7,0.4,2.9,1c0.1,0.5-0.3,1-1.6,1.1C9.6,3.8,8.9,3.5,8.8,3.2c0-0.2,0.1-0.4,0.6-0.5
		C9.5,3,9.8,3.3,10.5,3.2c0.5,0,1-0.2,0.9-0.5c-0.1-0.3-0.6-0.5-1.5-0.4C8.2,2.4,7.7,3.4,6.2,3.5c-1.1,0.1-2-0.3-2.1-0.9
		c0-0.2,0-0.7,1.1-0.8C5.8,1.8,6.3,1.9,6.4,2.1z"/>
	<path class="st0" d="M0.7,8.2C0.2,8.8,0,9.6,0,10.3C0,11,0.4,11.6,1,12c0.6,0.5,1.2,0.6,1.9,0.5c0.3,0,0.6-0.2,0.9-0.3
		c-0.6,0-1.1-0.2-1.6-0.6c-0.5-0.4-0.9-0.9-1-1.6C1,9.4,1.2,8.8,1.5,8.3c0.4-0.5,0.9-0.8,1.6-0.9c0.7,0,1.3,0.1,1.8,0.5
		C4.8,7.8,4.6,7.6,4.4,7.5c-0.6-0.4-1.2-0.6-2-0.4C1.8,7.2,1.2,7.6,0.7,8.2z"/>
	<path class="st0" d="M8.5,4.9c-1.9,0-3.6-0.2-4.8-0.5c-1.3-0.3-2-0.7-2-1.1c0-0.2,0.1-0.3,0.3-0.5c-0.8,0.3-1.3,0.6-1.3,1
		c0,0.5,0.8,0.9,2.3,1.3c1.4,0.3,3.2,0.5,5.3,0.5c2.2,0,3.9-0.2,5.3-0.5C15.3,4.6,16,4.2,16,3.7c0-0.3-0.3-0.6-0.9-0.9
		c0.1,0.1,0.2,0.2,0.2,0.4c0,0.5-0.7,0.8-2,1.1C12,4.7,10.4,4.9,8.5,4.9L8.5,4.9z"/>
	<path class="st0" d="M13.8,6.1c-1.4,0.3-3.2,0.5-5.3,0.5c-2.2,0-4-0.2-5.4-0.5C1.9,5.8,1.2,5.4,1,5.1c0.2,1.6,0.8,3.1,1.5,4.4
		C3,10.3,3.5,11,4.1,11.7c0.2,0.5,0.4,0.9,0.5,1.4c0.3,0.5,0.9,0.8,1.5,1c0.8,0.3,1.6,0.4,2.4,0.3h0.1c0.8,0,1.7-0.1,2.5-0.3
		c0.6-0.2,1.1-0.5,1.4-1h0c0.1-0.5,0.2-0.9,0.5-1.4c0.5-0.8,1.1-1.5,1.6-2.3c0.7-1.3,1.2-2.8,1.5-4.4C15.7,5.5,15,5.8,13.8,6.1
		L13.8,6.1z"/>
</g>
</svg>
