<?xml version="1.0" encoding="utf-8"?>
<!-- Generator: Adobe Illustrator 23.0.0, SVG Export Plug-In . SVG Version: 6.00 Build 0)  -->
<svg version="1.1" id="Layer_1" xmlns="http://www.w3.org/2000/svg" xmlns:xlink="http://www.w3.org/1999/xlink" x="0px" y="0px"
	 viewBox="0 0 16 16" style="enable-background:new 0 0 16 16;" xml:space="preserve">
<style type="text/css">
	.st0{clip-path:url(#SVGID_2_);fill-rule:evenodd;clip-rule:evenodd;fill:#F75049;}
</style>
<g>
	<defs>
		<path id="SVGID_1_" d="M22.1,6.4c-0.1-0.1-0.3,0-0.6-0.2c-0.2-0.2-0.2-0.3-0.3-0.4c-0.4-0.2-1.3,0.5-1.3,0.5c0,0,0.4-0.3,0.7-0.7
			c0.2-0.2,0.6-0.7,0.5-1c-0.1-0.2-0.3-0.2-0.3-0.3c0-0.3,0.5-0.4,0.4-0.7c0-0.2-0.2-0.3-0.3-0.3c-0.3-0.1-0.8,0.2-0.8,0.2
			c0,0,0.3-0.2,0.4-0.5c0-0.1,0.2-0.3,0.1-0.5c-0.1-0.1-0.3-0.1-0.4-0.1c-0.1,0-0.2,0.1-0.2,0c0,0,0-0.1,0-0.2
			c0-0.2-0.3-0.3-0.6-0.3c-0.5,0-0.9,0.5-1,0.4c-0.1-0.1,0.5-0.5,0.4-0.9c0-0.1-0.2-0.3-0.4-0.3c-0.3,0-0.4,0.3-0.5,0.3
			c-0.1-0.1,0.1-0.7-0.1-0.9c-0.1-0.1-0.3,0.1-0.6,0c-0.2-0.1-0.2-0.1-0.3-0.2c-0.3-0.1-0.8,0.4-1.3,0.9c-0.2,0.2-0.6,0.5-1.1,0.8
			c0.3-0.3,0.5-0.6,0.7-0.7c0.4-0.4,0.6-0.6,0.6-0.9c0-0.1,0-0.4-0.2-0.4c-0.2-0.1-0.4,0.2-1.1,0.6c-0.2,0.1-0.3,0.2-0.4,0.3
			c0,0,0.3-0.4,0.2-0.7c0,0-0.1-0.2-0.2-0.3c-0.4-0.3-1.1-0.2-1.2-0.2C12.2,0,12,0.6,10.9,1.1c0,0-0.1,0.1-0.3,0.2
			C10.2,1.5,10,1.6,9.9,1.7C9.6,1.9,9.4,2,9.3,2.3C9.2,2.5,9.3,2.7,9.1,2.8C9,3,8.8,3,8.7,3C8.1,3.2,7.4,4.2,7.3,4.4
			C6.9,4.9,5.6,6.3,2.1,9.4c4.7-5,6.2-6.6,6.2-6.7c0,0,0,0,0,0c0-0.1,0.2-0.4,0-0.6C8.3,2.1,8.2,2.1,8.1,2c0,0,0-0.1,0-0.1
			c0-0.2,0.4-0.2,0.4-0.3c0,0-0.1-0.1-0.2-0.1C8,1.3,8,1.2,7.8,1.2C7.6,1.1,7.4,1.3,7.2,1.3C7,1.5,6.9,1.6,6.8,1.6c0,0,0-0.2,0-0.3
			C6.7,1.2,6.5,1.2,6.5,1.2C6.1,1.2,6,1.5,5.9,1.4c-0.1,0,0-0.2-0.1-0.3C5.7,1,5.6,1,5.4,0.9C5.2,0.8,5.3,0.7,5.1,0.4
			C5,0.3,4.9,0.1,4.7,0C4.5,0,4.4,0.1,4.2,0C3.9-0.1,3.9-0.3,3.7-0.3c-0.2,0-0.3,0-0.4,0.1C3-0.1,3,0.1,2.8,0.1
			c-0.2,0-0.2-0.2-0.5-0.2c-0.1,0-0.2,0-0.3,0C1.9,0,2,0.3,1.9,0.4c-0.1,0.1-0.2,0.1-0.3,0C1.6,0.3,1.6,0.2,1.5,0.2
			C1.3,0,0.4,0.2,0.1,0.8C0.1,0.9,0,1-0.1,1.1c-0.2,0.1-0.3,0-0.5,0c-0.3,0-0.5,0.2-1.1,1c0,0-0.1,0.1-0.6,0.6c-0.9,1-1,1.1-1.1,1.4
			c0,0.5,0,0.7,0,0.7c0,0.1,0.1,0.3,0,0.4c-0.1,0.1-0.1,0-0.2,0.1c-0.1,0.1,0.1,0.4,0,0.8c0,0,0,0,0,0.3C-3.5,6.9-3.5,7-3.4,7
			c0.1,0.1,0.2,0.1,0.3,0.1C-3,7.1-2.9,7-2.8,7c0.4-0.5,0.8-0.9,1.1-1.4C-1.8,5.9-2,6.2-2.1,6.4c-0.2,0.2-0.3,0.4-0.5,0.7
			c0,0.1-0.1,0.2-0.2,0.4c-0.1,0.2-0.2,0.5-0.1,0.8c0,0.1,0.1,0.2,0.1,0.3c0,0.2,0,0.3,0,0.4C-2.6,9-2.6,8.9-2.5,9
			c0.1,0.1,0,0.3,0,0.6c0,0.2,0.1,0.1,0.1,0.3c0.1,0.3-0.1,0.4,0,0.7c0,0.1,0,0.2,0.1,0.3c0.1,0.1,0.4-0.1,0.6,0
			c0.2,0.1,0.1,0.3,0.3,0.4c0.1,0,0.2-0.1,0.4,0c0,0,0.3,0,0.3,0.1c0,0.1-0.1,0.3-0.3,0.4c-0.4,0.2-0.8-0.1-0.9,0
			c0,0.1,0.1,0.2,0.2,0.3c1,0.9,1,1,1.3,1.2c0.3,0.2,0.3,0.1,0.7,0.3c0.5,0.3,1.1,0.6,1.1,1c0,0.2-0.2,0.3-0.1,0.6
			c0,0.2,0.1,0.5,0.3,0.6c0.2,0.1,0.3-0.1,0.6-0.1c0.3,0,0.3,0.2,0.6,0.3c0.4,0,0.5-0.4,0.8-0.4c0.2,0,0.2,0.2,0.4,0.3
			c0.2,0.1,0.4,0,0.5,0c1-1.1,2.6-2.7,4.6-4.8c1.6-1.7,2.1-2.2,3-3.1c2.6-2.5,5.4-4.5,5.5-4.3c0.1,0.1-1.2,1.3-5.5,5.4
			c-3,2.8-5.4,5.2-7.1,6.8c0,0.3,0.1,0.5,0.2,0.5c0.2,0.1,0.5-0.2,0.8,0c0.1,0.1,0.3,0.2,0.3,0.4c0,0.2,0,0.3,0.1,0.4
			c0.1,0.1,0.1,0,0.2,0.1c0.2,0.2,0.1,0.3,0.3,0.5c0.2,0.1,0.4,0,0.4,0.2c0,0.1,0,0.1,0,0.3c0,0.1,0.2,0.1,0.2,0.3
			c0,0.2-0.3,0.3-0.3,0.6c0,0.2,0.1,0.2,0.1,0.5c0,0.5-0.6,0.6-0.5,0.9c0,0.2,0.2,0.4,0.4,0.5c0.3,0,0.5-0.4,0.8-0.4
			c0.4,0,0.6,0.6,0.9,0.5c0.3,0,0.3-0.4,0.6-0.4c0.2,0,0.3,0.1,0.4,0c0.1-0.1,0.1-0.2,0.3-0.3c0.1,0,0.1,0,0.2,0
			c0.2,0,0.6-0.4,0.7-0.8c0.1-0.4,0-0.5,0.2-0.8c0.1-0.2,0.3-0.3,0.4-0.4c0.5-0.4,1.2-1,1.8-1.6c0.8-0.8,0.9-1.1,1.5-1.4
			c0.1,0,0.3-0.1,0.5-0.3c0.3-0.3,0.4-0.6,0.6-0.8c0.4-0.8,0.8-0.8,1.7-2c0-0.1,0.2-0.3,0.2-0.4c-0.1-0.1-1.2,1.1-1.4,1
			c-0.1-0.1-0.1-0.2-0.1-0.2c0.1-0.6,0.8-0.8,1.9-1.7c0.3-0.2,0.2-0.2,0.5-0.5c0.8-0.7,1.7-1.3,2-1.7c0.1-0.3,0.2-0.6,0.2-0.6
			c0-0.1,0-0.1,0.1-0.2c0.1-0.3,0.2-0.4,0.7-0.9C22.1,6.6,22.1,6.5,22.1,6.4z M5.1,5.7C4.8,6.1,4.5,6.3,4.2,6.5
			C4.4,6.3,4.6,5.9,5,5.6c0.1-0.1,0.3-0.2,0.4-0.3C5.3,5.4,5.2,5.5,5.1,5.7z M4.9,4.5c0.5-0.5,1-1,1.4-1.4C6,3.5,5.5,4,5,4.5
			C4.7,4.9,4.4,5.1,4.1,5.4C4.4,5.1,4.6,4.8,4.9,4.5z M-0.6,4.4C-0.6,4.2-0.4,4-0.2,3.8C-0.1,3.7-0.1,3.6,0,3.6
			c0,0.1-0.1,0.2-0.2,0.3C-0.3,4.1-0.5,4.3-0.6,4.4z M0.2,12.6c-0.1,0.1-0.2,0.2-0.3,0.2c0,0,0-0.2,0.1-0.3c0.1-0.1,0.3-0.2,0.3-0.2
			C0.3,12.3,0.3,12.4,0.2,12.6z M-0.1,7.9c0.3-0.4,0.7-0.8,1-1.2c0,0.1,0,0.2,0,0.3C0.5,7.3,0.2,7.6-0.1,7.9z M1.6,13.9
			c0,0-0.2-0.2-0.5-0.6C1,13.2,0.9,13.1,0.9,13c0-0.1,0.1-0.1,0.2-0.2c0.1-0.1,0.3-0.2,0.4-0.5c0,0.2-0.1,0.3-0.1,0.4
			c0,0.1-0.1,0.2-0.1,0.3c0,0.1,0.1,0,0.1,0.1c0.1,0.1,0,0.2,0,0.3C1.5,13.7,1.6,13.9,1.6,13.9z M1.5,2.6C1.6,2.4,1.7,2.2,1.9,2
			C2,1.9,2.1,1.8,2.2,1.8C2.1,1.9,2.1,2,2,2C1.8,2.3,1.7,2.5,1.5,2.6z M4.3,9.2c1-1.3,2.3-2.8,3.8-4.2c1.1-1.1,2.2-2,3.2-2.8
			c-0.7,0.7-1.5,1.4-2.2,2.2C7.4,6,5.8,7.6,4.3,9.2z M9.2,5c0.8-0.8,1.6-1.5,2.4-2c-0.4,0.5-0.9,1-1.4,1.6C9.1,5.8,8,6.9,6.8,7.9
			C7.4,7,8.2,6,9.2,5z M11.1,6.8c1.1-0.9,2.2-1.8,3.2-2.6c-0.7,0.7-1.4,1.4-2.2,2.1C10.5,7.8,8.9,9,7.4,10.2
			C8.5,9.1,9.8,7.9,11.1,6.8z M12.8,6.9c-1.6,1.4-3.1,2.7-4.6,3.8c1.1-1.1,2.3-2.2,3.6-3.4C12.9,6.4,14,5.6,15,4.8
			C14.3,5.5,13.6,6.2,12.8,6.9z M18.5,5.4c-0.7,0.7-1.4,1.4-2.2,2.1c-1.6,1.4-3.1,2.7-4.6,3.8c1.1-1.1,2.3-2.2,3.6-3.4
			C16.4,7,17.5,6.2,18.5,5.4z M9,13.1c1.4-1.7,3.1-3.5,5.1-5.3C15,7,15.9,6.3,16.8,5.6c-1,1-1.9,1.9-2.9,2.9
			C12.3,10.1,10.7,11.6,9,13.1z M9.4,14.8c1.6-1.5,3.2-3.1,5-4.7c1.4-1.3,2.8-2.4,4.2-3.5c-1.1,1.1-2.3,2.1-3.4,3.2
			C13.3,11.5,11.3,13.2,9.4,14.8z M9.7,15.8c1.1-1.3,2.5-2.7,4.1-4.1c1.4-1.2,2.7-2.2,4-3c-1.1,1-2.2,1.9-3.3,2.9
			C12.9,13,11.3,14.4,9.7,15.8z M17.7,10.1c-1.2,1.1-2.4,2.1-3.6,3c0.2-0.2,0.4-0.4,0.6-0.6c0.8-0.7,1.5-1.4,2.2-2.1
			c-0.1,0.1-0.2,0.1-0.3,0.2c-0.1,0-0.1,0.1-0.2,0.2c-1.3,1.1-2.4,2.2-3.5,3.3c-0.9,0.8-1.8,1.5-2.7,2.1c1.1-1.1,2.3-2.2,3.6-3.4
			c1-0.9,2-1.7,2.9-2.4c1-0.9,2.1-1.7,3-2.5C19.3,8.6,18.5,9.3,17.7,10.1z"/>
	</defs>
	<clipPath id="SVGID_2_">
		<use xlink:href="#SVGID_1_"  style="overflow:visible;"/>
	</clipPath>
	<path class="st0" d="M12.7,8.8c0,0.5-0.2,1.1-0.6,1.4c-0.4,0.4-1,0.6-1.6,0.6s-1.2-0.2-1.6-0.6C8.5,9.9,8.3,9.4,8.3,8.8
		c0-0.5,0.3-1,0.7-1.3c0.4-0.3,0.9-0.5,1.5-0.5s1.1,0.2,1.5,0.5C12.4,7.8,12.6,8.3,12.7,8.8z"/>
	<path class="st0" d="M12.7,8.8c0,0.5-0.2,1.1-0.6,1.4c-0.4,0.4-1,0.6-1.6,0.6s-1.2-0.2-1.6-0.6C8.5,9.9,8.3,9.4,8.3,8.8
		c0-0.5,0.3-1,0.7-1.3c0.4-0.3,0.9-0.5,1.5-0.5s1.1,0.2,1.5,0.5C12.4,7.8,12.6,8.3,12.7,8.8z"/>
	<path class="st0" d="M12,7.5c0.4,0.3,0.7,0.8,0.7,1.3c0,0.5-0.2,1.1-0.6,1.4c-0.4,0.4-1,0.6-1.6,0.6s-1.2-0.2-1.6-0.6
		C8.5,9.9,8.3,9.4,8.3,8.8c0-0.5,0.3-1,0.7-1.3c0.4-0.3,0.9-0.5,1.5-0.5S11.6,7.1,12,7.5z"/>
	<path class="st0" d="M16,8.8c-0.1-0.7-0.3-1.3-0.7-1.8c-0.3-0.5-0.7-1-1.2-1.4L9,1.7c0,0,0,0,0,0c-0.3-0.3-0.9-0.3-1.2,0
		C7.4,2,7.4,2.4,7.7,2.6v0l2.1,1.7l-6.3,0h0c-0.5,0-1,0.3-1.1,0.8C2.2,5.6,2.5,5.9,3.1,5.9h3.2l-5.8,4.4c0,0,0,0,0,0
		c-0.5,0.4-0.7,1.1-0.4,1.5c0.3,0.4,1.1,0.4,1.6,0l3.1-2.6c0,0,0,0.3,0,0.6c0,0.2,0.1,0.6,0.2,0.9c0.2,0.7,0.6,1.3,1.1,1.8
		c0.5,0.6,1.1,1,1.9,1.3c0.8,0.3,1.6,0.5,2.4,0.5c0.9,0,1.7-0.2,2.4-0.5c0.7-0.3,1.3-0.8,1.9-1.3c0.5-0.5,0.9-1.2,1.1-1.8
		c0.1-0.3,0.2-0.7,0.2-1C16,9.4,16,9.1,16,8.8z M13.7,10c-0.1,0.4-0.4,0.8-0.7,1.1c-0.7,0.7-1.6,1-2.5,1s-1.9-0.4-2.5-1
		c-0.3-0.3-0.6-0.7-0.7-1.1C7.1,9.6,7,9.2,7,8.8c0-0.4,0.2-0.8,0.4-1.1C7.6,7.3,7.8,7,8.2,6.7c0.6-0.5,1.4-0.8,2.3-0.8
		c0.8,0,1.6,0.3,2.3,0.8C13,7,13.3,7.3,13.5,7.6c0.2,0.3,0.3,0.7,0.3,1.1C13.8,9.2,13.8,9.6,13.7,10z"/>
</g>
</svg>
