<?xml version="1.0" encoding="utf-8"?>
<!-- Generator: Adobe Illustrator 23.0.0, SVG Export Plug-In . SVG Version: 6.00 Build 0)  -->
<svg version="1.1" id="Layer_1" xmlns="http://www.w3.org/2000/svg" xmlns:xlink="http://www.w3.org/1999/xlink" x="0px" y="0px"
	 viewBox="0 0 16 16" style="enable-background:new 0 0 16 16;" xml:space="preserve">
<style type="text/css">
	.st0{clip-path:url(#SVGID_2_);}
	.st1{fill:#F75049;}
</style>
<g>
	<defs>
		<path id="SVGID_1_" d="M22.4,4.2c-0.1-0.1-0.3,0-0.6-0.2c-0.2-0.2-0.2-0.3-0.3-0.4c-0.4-0.2-1.3,0.5-1.3,0.5c0,0,0.4-0.3,0.7-0.7
			c0.2-0.2,0.6-0.7,0.5-1c-0.1-0.2-0.3-0.2-0.3-0.3c0-0.3,0.5-0.4,0.4-0.7c0-0.2-0.2-0.3-0.3-0.3c-0.3-0.1-0.8,0.2-0.8,0.2
			c0,0,0.3-0.2,0.4-0.5c0-0.1,0.2-0.3,0.1-0.5c-0.1-0.1-0.3-0.1-0.4-0.1c-0.1,0-0.2,0.1-0.2,0c0,0,0-0.1,0-0.2
			c0-0.2-0.3-0.3-0.6-0.3c-0.5,0-0.9,0.5-1,0.4c-0.1-0.1,0.5-0.5,0.4-0.9C19.1-0.9,19-1,18.8-1c-0.3,0-0.4,0.3-0.5,0.3
			c-0.1-0.1,0.1-0.7-0.1-0.9c-0.1-0.1-0.3,0.1-0.6,0c-0.2-0.1-0.2-0.1-0.3-0.2c-0.3-0.1-0.8,0.4-1.3,0.9c-0.2,0.2-0.6,0.5-1.1,0.8
			c0.3-0.3,0.5-0.6,0.7-0.7c0.4-0.4,0.6-0.6,0.6-0.9c0-0.1,0-0.4-0.2-0.4C15.9-2.3,15.7-2,15-1.6c-0.2,0.1-0.3,0.2-0.4,0.3
			c0,0,0.3-0.4,0.2-0.7c0,0-0.1-0.2-0.2-0.3c-0.4-0.3-1.1-0.2-1.2-0.2c-0.9,0.2-1.1,0.8-2.1,1.3c0,0-0.1,0.1-0.3,0.2
			c-0.4,0.2-0.6,0.3-0.7,0.4C10-0.3,9.8-0.2,9.7,0C9.6,0.3,9.6,0.5,9.5,0.6C9.3,0.8,9.2,0.8,9.1,0.8C8.5,1,7.8,2,7.7,2.2
			C7.3,2.7,6,4.1,2.5,7.2c4.7-5,6.2-6.6,6.2-6.7c0,0,0,0,0,0c0-0.1,0.2-0.4,0-0.6c-0.1-0.1-0.2,0-0.3-0.1c0,0,0-0.1,0-0.1
			c0-0.2,0.4-0.2,0.4-0.3c0,0-0.1-0.1-0.2-0.1C8.4-0.9,8.4-1,8.2-1C8-1.1,7.7-1,7.5-0.9C7.3-0.7,7.2-0.6,7.2-0.7c0,0,0-0.2,0-0.3
			C7.1-1,6.9-1,6.8-1C6.5-1,6.3-0.7,6.2-0.8c-0.1,0,0-0.2-0.1-0.3C6.1-1.2,5.9-1.2,5.8-1.3C5.6-1.4,5.7-1.6,5.5-1.8
			C5.4-1.9,5.3-2.1,5.1-2.2c-0.2-0.1-0.3,0-0.5-0.1C4.3-2.3,4.3-2.5,4.1-2.5c-0.2,0-0.3,0-0.4,0.1C3.4-2.3,3.3-2.1,3.2-2.1
			C3-2.1,3-2.3,2.7-2.3c-0.1,0-0.2,0-0.3,0c-0.1,0.1,0,0.4-0.1,0.5C2.2-1.8,2.1-1.8,2-1.8C1.9-1.9,1.9-2,1.9-2
			C1.7-2.2,0.7-2,0.5-1.4c0,0.1-0.1,0.2-0.2,0.3c-0.2,0.1-0.3,0-0.5,0c-0.3,0-0.5,0.2-1.1,1c0,0-0.1,0.1-0.6,0.6
			c-0.9,1-1,1.1-1.1,1.4c0,0.5,0,0.7,0,0.7c0,0.1,0.1,0.3,0,0.4C-2.9,3.1-3,3-3,3.1C-3.1,3.2-3,3.4-3,3.8c0,0,0,0,0,0.3
			c-0.1,0.5-0.1,0.6,0,0.7C-3,4.9-2.9,4.9-2.8,4.9c0.2,0,0.3-0.1,0.4-0.1c0.4-0.5,0.8-0.9,1.1-1.4C-1.5,3.7-1.6,4-1.8,4.1
			c-0.2,0.2-0.3,0.4-0.5,0.7c0,0.1-0.1,0.2-0.2,0.4C-2.5,5.5-2.6,5.7-2.5,6c0,0.1,0.1,0.2,0.1,0.3c0,0.2,0,0.3,0,0.4
			c0,0.1,0.1,0.1,0.2,0.1c0.1,0.1,0,0.3,0,0.6C-2.1,7.5-2,7.5-2,7.7C-1.9,7.9-2,8-2,8.4c0,0.1,0,0.2,0.1,0.3c0.1,0.1,0.4-0.1,0.6,0
			C-1.2,8.8-1.2,9-1.1,9.1c0.1,0,0.2-0.1,0.4,0c0,0,0.3,0,0.3,0.1c0,0.1-0.1,0.3-0.3,0.4c-0.4,0.2-0.8-0.1-0.9,0
			c0,0.1,0.1,0.2,0.2,0.3c1,0.9,1,1,1.3,1.2c0.3,0.2,0.3,0.1,0.7,0.3c0.5,0.3,1.1,0.6,1.1,1c0,0.2-0.2,0.3-0.1,0.6
			c0,0.2,0.1,0.5,0.3,0.6c0.2,0.1,0.3-0.1,0.6-0.1c0.3,0,0.3,0.2,0.6,0.3c0.4,0,0.5-0.4,0.8-0.4c0.2,0,0.2,0.2,0.4,0.3
			c0.2,0.1,0.4,0,0.5,0c1-1.1,2.6-2.7,4.6-4.8c1.6-1.7,2.1-2.2,3-3.1c2.6-2.5,5.4-4.5,5.5-4.3c0.1,0.1-1.2,1.3-5.5,5.4
			c-3,2.8-5.4,5.2-7.1,6.8c0,0.3,0.1,0.5,0.2,0.5c0.2,0.1,0.5-0.2,0.8,0c0.1,0.1,0.3,0.2,0.3,0.4c0,0.2,0,0.3,0.1,0.4
			C6.9,15,7,15,7,15.1c0.2,0.2,0.1,0.3,0.3,0.5c0.2,0.1,0.4,0,0.4,0.2c0,0.1,0,0.1,0,0.3c0,0.1,0.2,0.1,0.2,0.3
			c0,0.2-0.3,0.3-0.3,0.6c0,0.2,0.1,0.2,0.1,0.5c0,0.5-0.6,0.6-0.5,0.9c0,0.2,0.2,0.4,0.4,0.5c0.3,0,0.5-0.4,0.8-0.4
			c0.4,0,0.6,0.6,0.9,0.5c0.3,0,0.3-0.4,0.6-0.4c0.2,0,0.3,0.1,0.4,0c0.1-0.1,0.1-0.2,0.3-0.3c0.1,0,0.1,0,0.2,0
			c0.2,0,0.6-0.4,0.7-0.8c0.1-0.4,0-0.5,0.2-0.8c0.1-0.2,0.3-0.3,0.4-0.4c0.5-0.4,1.2-1,1.8-1.6c0.8-0.8,0.9-1.1,1.5-1.4
			c0.1,0,0.3-0.1,0.5-0.3c0.3-0.3,0.4-0.6,0.6-0.8c0.4-0.8,0.8-0.8,1.7-2c0-0.1,0.2-0.3,0.2-0.4c-0.1-0.1-1.2,1.1-1.4,1
			c-0.1-0.1-0.1-0.2-0.1-0.2c0.1-0.6,0.8-0.8,1.9-1.7c0.3-0.2,0.2-0.2,0.5-0.5c0.8-0.7,1.7-1.3,2-1.7C21.1,6.3,21.2,6,21.2,6
			c0-0.1,0-0.1,0.1-0.2c0.1-0.3,0.2-0.4,0.7-0.9C22.4,4.4,22.5,4.3,22.4,4.2z M5.5,3.5C5.2,3.8,4.9,4.1,4.6,4.3
			C4.7,4.1,5,3.7,5.3,3.4c0.1-0.1,0.3-0.2,0.4-0.3C5.7,3.2,5.6,3.3,5.5,3.5z M5.3,2.2c0.5-0.5,1-1,1.4-1.4c-0.3,0.5-0.8,1-1.3,1.5
			C5.1,2.6,4.8,2.9,4.5,3.2C4.7,2.9,5,2.6,5.3,2.2z M-0.3,2.2C-0.2,2-0.1,1.8,0.1,1.6c0.1-0.1,0.2-0.2,0.2-0.2
			c0,0.1-0.1,0.2-0.2,0.3C0.1,1.9-0.1,2.1-0.3,2.2z M0.6,10.3c-0.1,0.1-0.2,0.2-0.3,0.2c0,0,0-0.2,0.1-0.3c0.1-0.1,0.3-0.2,0.3-0.2
			C0.7,10.1,0.7,10.2,0.6,10.3z M0.2,5.7c0.3-0.4,0.7-0.8,1-1.2c0,0.1,0,0.2,0,0.3C0.9,5.1,0.6,5.4,0.2,5.7z M2,11.7
			c0,0-0.2-0.2-0.5-0.6c-0.1-0.1-0.2-0.2-0.2-0.3c0-0.1,0.1-0.1,0.2-0.2c0.1-0.1,0.3-0.2,0.4-0.5c0,0.2-0.1,0.3-0.1,0.4
			c0,0.1-0.1,0.2-0.1,0.3c0,0.1,0.1,0,0.1,0.1c0.1,0.1,0,0.2,0,0.3C1.8,11.5,2,11.7,2,11.7z M1.9,0.4C2,0.2,2.1,0,2.3-0.2
			c0.1-0.1,0.2-0.2,0.2-0.2c0,0.1-0.1,0.2-0.2,0.3C2.2,0.1,2,0.3,1.9,0.4z M4.7,7c1-1.3,2.3-2.8,3.8-4.2c1.1-1.1,2.2-2,3.2-2.8
			c-0.7,0.7-1.5,1.4-2.2,2.2C7.8,3.8,6.2,5.4,4.7,7z M9.6,2.8c0.8-0.8,1.6-1.5,2.4-2c-0.4,0.5-0.9,1-1.4,1.6
			C9.4,3.6,8.3,4.7,7.2,5.7C7.8,4.8,8.6,3.8,9.6,2.8z M11.4,4.6c1.1-0.9,2.2-1.8,3.2-2.6c-0.7,0.7-1.4,1.4-2.2,2.1
			c-1.6,1.4-3.1,2.7-4.6,3.8C8.9,6.9,10.1,5.7,11.4,4.6z M13.1,4.7C11.6,6.1,10,7.4,8.5,8.5c1.1-1.1,2.3-2.2,3.6-3.4
			c1.1-0.9,2.2-1.8,3.2-2.6C14.7,3.3,13.9,4,13.1,4.7z M18.9,3.2c-0.7,0.7-1.4,1.4-2.2,2.1c-1.6,1.4-3.1,2.7-4.6,3.8
			c1.1-1.1,2.3-2.2,3.6-3.4C16.8,4.8,17.8,4,18.9,3.2z M9.4,10.9c1.4-1.7,3.1-3.5,5.1-5.3c0.9-0.8,1.8-1.5,2.6-2.2
			c-1,1-1.9,1.9-2.9,2.9C12.6,7.9,11,9.4,9.4,10.9z M9.8,12.6c1.6-1.5,3.2-3.1,5-4.7c1.4-1.3,2.8-2.4,4.2-3.5
			c-1.1,1.1-2.3,2.1-3.4,3.2C13.6,9.3,11.7,11,9.8,12.6z M10,13.6c1.1-1.3,2.5-2.7,4.1-4.1c1.4-1.2,2.7-2.2,4-3
			c-1.1,1-2.2,1.9-3.3,2.9C13.2,10.8,11.6,12.2,10,13.6z M18.1,7.8c-1.2,1.1-2.4,2.1-3.6,3c0.2-0.2,0.4-0.4,0.6-0.6
			c0.8-0.7,1.5-1.4,2.2-2.1c-0.1,0.1-0.2,0.1-0.3,0.2c-0.1,0-0.1,0.1-0.2,0.2c-1.3,1.1-2.4,2.2-3.5,3.3c-0.9,0.8-1.8,1.5-2.7,2.1
			c1.1-1.1,2.3-2.2,3.6-3.4c1-0.9,2-1.7,2.9-2.4c1-0.9,2.1-1.7,3-2.5C19.6,6.4,18.9,7.1,18.1,7.8z"/>
	</defs>
	<clipPath id="SVGID_2_">
		<use xlink:href="#SVGID_1_"  style="overflow:visible;"/>
	</clipPath>
	<g transform="translate(-781,238.99987)" class="st0">
		<path class="st1" d="M783-237v1c0,0.6,0.5,1,1,1c5,0,9,4,9,9c0,0.6,0.5,1,1,1h1v-1c0-6.1-4.9-11-11-11H783z M783-233v1
			c0,0.6,0.5,1,1,1c2.8,0,5,2.2,5,5c0,0.6,0.5,1,1,1h1v-1c0-3.9-3.1-7-7-7H783z M785-229c-1.1,0-2,0.9-2,2s0.9,2,2,2s2-0.9,2-2
			S786.1-229,785-229z"/>
	</g>
</g>
</svg>
