<?xml version="1.0" encoding="utf-8"?>
<!-- Generator: Adobe Illustrator 23.0.0, SVG Export Plug-In . SVG Version: 6.00 Build 0)  -->
<svg version="1.1" id="Layer_1" xmlns="http://www.w3.org/2000/svg" xmlns:xlink="http://www.w3.org/1999/xlink" x="0px" y="0px"
	 viewBox="0 0 16 16" style="enable-background:new 0 0 16 16;" xml:space="preserve">
<style type="text/css">
	.st0{fill:#F75049;}
</style>
<path class="st0" d="M10.3,2.3L10.3,2.3C10.3,2.3,10.3,2.2,10.3,2.3C10.3,2.2,10.3,2.3,10.3,2.3z M10.4,0.8C9.8,0.3,8.9,0,8,0
	C6.8,0,5.7,0.5,4.9,1.4C4.3,2.1,4,3,4,4v0.4C4.4,4,4.8,3.5,5.2,3.2c0.3-0.9,1-1.7,1.8-2C7.3,1.1,7.6,1,8,1c0.5,0,1,0.2,1.4,0.4
	c0.4,0.2,0.7,0.5,0.9,0.9l0,0C10.7,2.9,11,3.7,11,4.5V6c0.3-0.3,0.7-0.5,1-0.8V4C12,2.7,11.4,1.5,10.4,0.8z M11.8,6.9
	c-0.3,0.3-0.6,0.5-0.8,0.7V8h-0.4c-1.2,1-2.3,1.9-3.4,2.8C8.1,9.9,9.1,8.9,10.2,8h-1c-0.9,0.8-1.8,1.5-2.7,2.2C7.2,9.4,8,8.7,8.8,8
	H5V7.5C4.5,8.1,3.9,8.7,3.4,9.2C3.9,8.6,4.4,8,5,7.3V5.8c-0.3,0.3-0.6,0.6-1,1V8H2.7C2.5,8.2,2.3,8.4,2,8.7V16
	c0.3,0,0.5-0.4,0.7-0.3c0.2,0,0.2,0.2,0.4,0.3c0.2,0.1,0.4,0,0.5,0c1-1.1,2.7-2.7,4.6-4.8c1.6-1.7,2.1-2.2,3-3.1
	c0.3-0.2,0.5-0.5,0.8-0.7V6.8C11.9,6.8,11.9,6.9,11.8,6.9z M2,8v0.5C2.2,8.4,2.3,8.2,2.5,8H2z M14,12.4v-0.2
	c-0.7,0.6-1.3,1.2-1.9,1.8c-0.8,0.7-1.7,1.4-2.5,2h3.7c0.2-0.2,0.3-0.3,0.6-0.5c0,0,0,0,0.1,0V12.4c-0.3,0.3-0.5,0.5-0.8,0.7
	c0.2-0.2,0.4-0.4,0.6-0.6C13.9,12.5,14,12.4,14,12.4z M14,8h-0.5c-0.2,0.2-0.3,0.4-0.5,0.5c-1.6,1.5-3.3,3.1-4.9,4.6
	c1.4-1.7,3-3.4,5-5.1h-0.6c-0.3,0.3-0.7,0.7-1.1,1.1c-3,2.8-5.4,5.2-7.1,6.8c0,0.1,0,0.1,0,0.2h5.4c1-1,2.2-2.1,3.5-3.2
	c0.3-0.3,0.6-0.6,1-0.8v-0.8c-0.2,0.1-0.3,0.3-0.5,0.4c-1.6,1.4-3.2,2.8-4.8,4.2c1.1-1.3,2.5-2.7,4.1-4.1c0.4-0.3,0.8-0.7,1.2-1V9.9
	c-1.9,1.7-3.7,3.3-5.5,4.8c1.6-1.5,3.2-3.1,5-4.7c0.2-0.2,0.3-0.3,0.5-0.4V8.7c-1.1,1-2.2,1.8-3.3,2.6c1-1,2.1-2,3.3-3V8z M11.1,6.3
	c0,0-0.1,0.1-0.1,0.1v0.8c0.3-0.3,0.7-0.6,1-0.8V5.5C11.7,5.8,11.4,6,11.1,6.3z M4.1,4.5C4.1,4.6,4,4.6,4.1,4.5L4,5.6l0,0
	c0.2-0.1,0.3-0.2,0.4-0.3C4.4,5.4,4.3,5.5,4.2,5.7C4.1,5.7,4.1,5.8,4,5.9v0.5C4.4,6,4.7,5.7,5,5.4V4.5c0-0.4,0.1-0.8,0.2-1.2
	C4.9,3.7,4.5,4.1,4.1,4.5z"/>
</svg>
