<?xml version="1.0" encoding="utf-8"?>
<!-- Generator: Adobe Illustrator 23.0.0, SVG Export Plug-In . SVG Version: 6.00 Build 0)  -->
<svg version="1.1" id="Layer_1" xmlns="http://www.w3.org/2000/svg" xmlns:xlink="http://www.w3.org/1999/xlink" x="0px" y="0px"
	 viewBox="0 0 16 16" style="enable-background:new 0 0 16 16;" xml:space="preserve">
<style type="text/css">
	.st0{clip-path:url(#SVGID_2_);fill:#F75049;}
</style>
<g>
	<defs>
		<path id="SVGID_1_" d="M19.9,6.7c-0.1-0.1-0.3,0-0.6-0.2c-0.2-0.2-0.2-0.3-0.3-0.4c-0.4-0.2-1.3,0.5-1.3,0.5c0,0,0.4-0.3,0.7-0.7
			c0.2-0.2,0.6-0.7,0.5-1c-0.1-0.2-0.3-0.2-0.3-0.3c0-0.3,0.5-0.4,0.4-0.7c0-0.2-0.2-0.3-0.3-0.3C18.5,3.3,18,3.7,18,3.7
			c0,0,0.3-0.2,0.4-0.5c0-0.1,0.2-0.3,0.1-0.5c-0.1-0.1-0.3-0.1-0.4-0.1c-0.1,0-0.2,0.1-0.2,0c0,0,0-0.1,0-0.2
			c0-0.2-0.3-0.3-0.6-0.3c-0.5,0-0.9,0.5-1,0.4c-0.1-0.1,0.5-0.5,0.4-0.9c0-0.1-0.2-0.3-0.4-0.3c-0.3,0-0.4,0.3-0.5,0.3
			c-0.1-0.1,0.1-0.7-0.1-0.9c-0.1-0.1-0.3,0.1-0.6,0C15,0.8,15,0.7,14.9,0.7c-0.3-0.1-0.8,0.4-1.3,0.9c-0.2,0.2-0.6,0.5-1.1,0.8
			c0.3-0.3,0.5-0.6,0.7-0.7c0.4-0.4,0.6-0.6,0.6-0.9c0-0.1,0-0.4-0.2-0.4c-0.2-0.1-0.4,0.2-1.1,0.6c-0.2,0.1-0.3,0.2-0.4,0.3
			c0,0,0.3-0.4,0.2-0.7c0,0-0.1-0.2-0.2-0.3c-0.4-0.3-1.1-0.2-1.2-0.2C10,0.3,9.8,0.9,8.7,1.4c0,0-0.1,0.1-0.3,0.2
			C8,1.8,7.8,1.9,7.7,2C7.5,2.1,7.3,2.3,7.1,2.5C7,2.8,7.1,3,6.9,3.1C6.8,3.3,6.6,3.3,6.6,3.3C6,3.5,5.2,4.5,5.1,4.6
			C4.8,5.2,3.4,6.5-0.1,9.7c4.7-5,6.2-6.6,6.2-6.7c0,0,0,0,0,0c0-0.1,0.2-0.4,0-0.6C6.1,2.4,6,2.4,5.9,2.3c0,0,0-0.1,0-0.1
			c0-0.2,0.4-0.2,0.4-0.3c0,0-0.1-0.1-0.2-0.1C5.8,1.6,5.8,1.5,5.7,1.5C5.4,1.4,5.2,1.5,5,1.6C4.8,1.8,4.7,1.9,4.6,1.8
			c0,0,0-0.2,0-0.3C4.5,1.5,4.4,1.5,4.3,1.5C4,1.5,3.8,1.8,3.7,1.7c-0.1,0,0-0.2-0.1-0.3C3.5,1.3,3.4,1.3,3.2,1.2
			C3.1,1.1,3.1,0.9,2.9,0.7C2.9,0.6,2.7,0.4,2.5,0.3C2.3,0.3,2.3,0.4,2,0.3C1.8,0.2,1.8,0,1.5,0C1.4,0,1.2,0,1.1,0.1
			C0.8,0.2,0.8,0.4,0.7,0.4c-0.2,0-0.2-0.2-0.5-0.2c-0.1,0-0.2,0-0.3,0c-0.1,0.1,0,0.4-0.1,0.5c-0.1,0.1-0.2,0.1-0.3,0
			c-0.1-0.1-0.1-0.1-0.1-0.2c-0.2-0.2-1.1,0.1-1.4,0.6c0,0.1-0.1,0.2-0.2,0.3c-0.2,0.1-0.3,0-0.5,0c-0.3,0-0.5,0.2-1.1,1
			c0,0-0.1,0.1-0.6,0.6c-0.9,1-1,1.1-1.1,1.4c0,0.5,0,0.7,0,0.7c0,0.1,0.1,0.3,0,0.4c-0.1,0.1-0.1,0-0.2,0.1c-0.1,0.1,0.1,0.4,0,0.8
			c0,0,0,0,0,0.3c-0.1,0.5-0.1,0.6,0,0.7c0.1,0.1,0.2,0.1,0.3,0.1C-5.2,7.4-5,7.3-5,7.3c0.4-0.5,0.8-0.9,1.1-1.4
			C-4,6.2-4.2,6.5-4.3,6.6C-4.5,6.9-4.6,7-4.8,7.4c0,0.1-0.1,0.2-0.2,0.4C-5,8-5.1,8.2-5,8.5c0,0.1,0.1,0.2,0.1,0.3
			c0,0.2,0,0.3,0,0.4c0,0.1,0.1,0.1,0.2,0.1c0.1,0.1,0,0.3,0,0.6c0,0.2,0.1,0.1,0.1,0.3c0.1,0.3-0.1,0.4,0,0.7c0,0.1,0,0.2,0.1,0.3
			c0.1,0.1,0.4-0.1,0.6,0c0.2,0.1,0.1,0.3,0.3,0.4c0.1,0,0.2-0.1,0.4,0c0,0,0.3,0,0.3,0.1c0,0.1-0.1,0.3-0.3,0.4
			c-0.4,0.2-0.8-0.1-0.9,0c0,0.1,0.1,0.2,0.2,0.3c1,0.9,1,1,1.3,1.2c0.3,0.2,0.3,0.1,0.7,0.3c0.5,0.3,1.1,0.6,1.1,1
			c0,0.2-0.2,0.3-0.1,0.6c0,0.2,0.1,0.5,0.3,0.6c0.2,0.1,0.3-0.1,0.6-0.1c0.3,0,0.3,0.2,0.6,0.3c0.4,0,0.5-0.4,0.8-0.4
			c0.2,0,0.2,0.2,0.4,0.3c0.2,0.1,0.4,0,0.5,0c1-1.1,2.6-2.7,4.6-4.8c1.6-1.7,2.1-2.2,3-3.1c2.6-2.5,5.4-4.5,5.5-4.3
			c0.1,0.1-1.2,1.3-5.5,5.4c-3,2.8-5.4,5.2-7.1,6.8c0,0.3,0.1,0.5,0.2,0.5c0.2,0.1,0.5-0.2,0.8,0c0.1,0.1,0.3,0.2,0.3,0.4
			c0,0.2,0,0.3,0.1,0.4c0.1,0.1,0.1,0,0.2,0.1c0.2,0.2,0.1,0.3,0.3,0.5c0.2,0.1,0.4,0,0.4,0.2c0,0.1,0,0.1,0,0.3
			c0,0.1,0.2,0.1,0.2,0.3c0,0.2-0.3,0.3-0.3,0.6c0,0.2,0.1,0.2,0.1,0.5c0,0.5-0.6,0.6-0.5,0.9c0,0.2,0.2,0.4,0.4,0.5
			c0.3,0,0.5-0.4,0.8-0.4c0.4,0,0.6,0.6,0.9,0.5C7,21.3,7,21,7.4,20.9c0.2,0,0.3,0.1,0.4,0c0.1-0.1,0.1-0.2,0.3-0.3
			c0.1,0,0.1,0,0.2,0c0.2,0,0.6-0.4,0.7-0.8c0.1-0.4,0-0.5,0.2-0.8c0.1-0.2,0.3-0.3,0.4-0.4c0.5-0.4,1.2-1,1.8-1.6
			c0.8-0.8,0.9-1.1,1.5-1.4c0.1,0,0.3-0.1,0.5-0.3c0.3-0.3,0.4-0.6,0.6-0.8c0.4-0.8,0.8-0.8,1.7-2c0-0.1,0.2-0.3,0.2-0.4
			c-0.1-0.1-1.2,1.1-1.4,1c-0.1-0.1-0.1-0.2-0.1-0.2c0.1-0.6,0.8-0.8,1.9-1.7c0.3-0.2,0.2-0.2,0.5-0.5c0.8-0.7,1.7-1.3,2-1.7
			c0.1-0.3,0.2-0.6,0.2-0.6c0-0.1,0-0.1,0.1-0.2c0.1-0.3,0.2-0.4,0.7-0.9C19.9,6.9,20,6.8,19.9,6.7z M3,6C2.7,6.3,2.3,6.6,2,6.8
			c0.2-0.3,0.4-0.6,0.8-0.9C3,5.8,3.1,5.6,3.3,5.6C3.2,5.7,3.1,5.8,3,6z M2.7,4.7c0.5-0.5,1-1,1.4-1.4c-0.3,0.5-0.8,1-1.3,1.5
			C2.6,5.1,2.2,5.4,1.9,5.7C2.2,5.4,2.4,5.1,2.7,4.7z M-2.8,4.7c0.1-0.2,0.2-0.4,0.4-0.6C-2.3,4-2.2,3.9-2.1,3.9
			c0,0.1-0.1,0.2-0.2,0.3C-2.5,4.4-2.7,4.6-2.8,4.7z M-2,12.8C-2.1,13-2.2,13-2.2,13c0,0,0-0.2,0.1-0.3c0.1-0.1,0.3-0.2,0.3-0.2
			C-1.9,12.6-1.9,12.7-2,12.8z M-2.3,8.2C-2,7.8-1.6,7.4-1.3,7c0,0.1,0,0.2,0,0.3C-1.6,7.6-2,7.9-2.3,8.2z M-0.6,14.2
			c0,0-0.2-0.2-0.5-0.6c-0.1-0.1-0.2-0.2-0.2-0.3c0-0.1,0.1-0.1,0.2-0.2c0.1-0.1,0.3-0.2,0.4-0.5c0,0.2-0.1,0.3-0.1,0.4
			c0,0.1-0.1,0.2-0.1,0.3c0,0.1,0.1,0,0.1,0.1c0.1,0.1,0,0.2,0,0.3C-0.7,14-0.5,14.2-0.6,14.2z M-0.7,2.9c0.1-0.2,0.2-0.4,0.4-0.6
			C-0.1,2.2-0.1,2.1,0,2.1c0,0.1-0.1,0.2-0.2,0.3C-0.3,2.6-0.5,2.8-0.7,2.9z M2.1,9.5c1-1.3,2.3-2.8,3.8-4.2c1.1-1.1,2.2-2,3.2-2.8
			C8.4,3.2,7.7,3.9,6.9,4.6C5.3,6.3,3.7,7.9,2.1,9.5z M7.1,5.3c0.8-0.8,1.6-1.5,2.4-2C9,3.8,8.5,4.3,8.1,4.8
			C6.9,6.1,5.8,7.2,4.7,8.2C5.3,7.3,6.1,6.3,7.1,5.3z M8.9,7.1c1.1-0.9,2.2-1.8,3.2-2.6c-0.7,0.7-1.4,1.4-2.2,2.1
			C8.3,8,6.8,9.3,5.3,10.4C6.4,9.3,7.6,8.2,8.9,7.1z M10.6,7.2C9,8.6,7.5,9.9,6,11c1.1-1.1,2.3-2.2,3.6-3.4c1.1-0.9,2.2-1.8,3.2-2.6
			C12.1,5.8,11.4,6.5,10.6,7.2z M16.4,5.7c-0.7,0.7-1.4,1.4-2.2,2.1c-1.6,1.4-3.1,2.7-4.6,3.8c1.1-1.1,2.3-2.2,3.6-3.4
			C14.2,7.3,15.3,6.5,16.4,5.7z M6.9,13.4C8.3,11.7,10,9.9,12,8.1c0.9-0.8,1.8-1.5,2.6-2.2c-1,1-1.9,1.9-2.9,2.9
			C10.1,10.4,8.5,11.9,6.9,13.4z M7.2,15c1.6-1.5,3.2-3.1,5-4.7c1.4-1.3,2.8-2.4,4.2-3.5C15.4,7.9,14.2,8.9,13,10
			C11.1,11.8,9.1,13.4,7.2,15z M7.5,16.1c1.1-1.3,2.5-2.7,4.1-4.1c1.4-1.2,2.7-2.2,4-3c-1.1,1-2.2,1.9-3.3,2.9
			C10.7,13.2,9.1,14.7,7.5,16.1z M15.6,10.3c-1.2,1.1-2.4,2.1-3.6,3c0.2-0.2,0.4-0.4,0.6-0.6c0.8-0.7,1.5-1.4,2.2-2.1
			c-0.1,0.1-0.2,0.1-0.3,0.2c-0.1,0-0.1,0.1-0.2,0.2c-1.3,1.1-2.4,2.2-3.5,3.3c-0.9,0.8-1.8,1.5-2.7,2.1c1.1-1.1,2.3-2.2,3.6-3.4
			c1-0.9,2-1.7,2.9-2.4c1-0.9,2.1-1.7,3-2.5C17.1,8.9,16.3,9.6,15.6,10.3z"/>
	</defs>
	<clipPath id="SVGID_2_">
		<use xlink:href="#SVGID_1_"  style="overflow:visible;"/>
	</clipPath>
	<path class="st0" d="M11.7,0.6c-2.4,0-4.3,1.8-4.3,4c0,0.7,0.2,1.3,0.5,1.9c0,0,0,0,0,0L0,13.8v1.6h1.7l0.6-0.5v-1.1h1.1L4,13.3
		h1.1l0.6-0.5v-1.1l0.6-0.5h1.1v-1.1L9.7,8c0,0,0,0,0,0c0.6,0.3,1.3,0.5,2,0.5c2.4,0,4.3-1.8,4.3-4v0C16,2.3,14.1,0.6,11.7,0.6
		L11.7,0.6z"/>
	<path class="st0" d="M12.6,2.7c0.6,0,1.1,0.5,1.1,1.1c0,0.6-0.5,1.1-1.1,1.1c-0.6,0-1.1-0.5-1.1-1.1C11.4,3.2,11.9,2.7,12.6,2.7z"
		/>
</g>
</svg>
