<?xml version="1.0" encoding="utf-8"?>
<!-- Generator: Adobe Illustrator 23.0.0, SVG Export Plug-In . SVG Version: 6.00 Build 0)  -->
<svg version="1.1" id="Layer_1" xmlns="http://www.w3.org/2000/svg" xmlns:xlink="http://www.w3.org/1999/xlink" x="0px" y="0px"
	 viewBox="0 0 16 16" style="enable-background:new 0 0 16 16;" xml:space="preserve">
<style type="text/css">
	.st0{clip-path:url(#SVGID_2_);fill-rule:evenodd;clip-rule:evenodd;fill:#F75049;}
</style>
<g>
	<defs>
		<path id="SVGID_1_" d="M20.8,5.9c-0.1-0.1-0.3,0-0.6-0.2C20,5.5,20,5.3,19.9,5.2c-0.4-0.2-1.3,0.5-1.3,0.5c0,0,0.4-0.3,0.7-0.7
			c0.2-0.2,0.6-0.7,0.5-1c-0.1-0.2-0.3-0.2-0.3-0.3c0-0.3,0.5-0.4,0.4-0.7c0-0.2-0.2-0.3-0.3-0.3c-0.3-0.1-0.8,0.2-0.8,0.2
			c0,0,0.3-0.2,0.4-0.5c0-0.1,0.2-0.3,0.1-0.5c-0.1-0.1-0.3-0.1-0.4-0.1c-0.1,0-0.2,0.1-0.2,0c0,0,0-0.1,0-0.2
			c0-0.2-0.3-0.3-0.6-0.3c-0.5,0-0.9,0.5-1,0.4c-0.1-0.1,0.5-0.5,0.4-0.9c0-0.1-0.2-0.3-0.4-0.3c-0.3,0-0.4,0.3-0.5,0.3
			c-0.1-0.1,0.1-0.7-0.1-0.9C16.4,0,16.2,0.1,16,0c-0.2-0.1-0.2-0.1-0.3-0.2c-0.3-0.1-0.8,0.4-1.3,0.9c-0.2,0.2-0.6,0.5-1.1,0.8
			c0.3-0.3,0.5-0.6,0.7-0.7c0.4-0.4,0.6-0.6,0.6-0.9c0-0.1,0-0.4-0.2-0.4c-0.2-0.1-0.4,0.2-1.1,0.6c-0.2,0.1-0.3,0.2-0.4,0.3
			c0,0,0.3-0.4,0.2-0.7c0,0-0.1-0.2-0.2-0.3c-0.4-0.3-1.1-0.2-1.2-0.2C10.9-0.6,10.6,0,9.6,0.6c0,0-0.1,0.1-0.3,0.2
			C8.9,0.9,8.7,1.1,8.6,1.1C8.3,1.3,8.1,1.4,8,1.7C7.9,2,7.9,2.1,7.8,2.3C7.6,2.4,7.5,2.5,7.4,2.5C6.8,2.6,6.1,3.7,6,3.8
			C5.6,4.3,4.3,5.7,0.8,8.9C5.5,3.9,7,2.3,7,2.1c0,0,0,0,0,0c0-0.1,0.2-0.4,0-0.6C7,1.5,6.8,1.6,6.8,1.4c0,0,0-0.1,0-0.1
			C6.8,1.1,7.2,1,7.2,1c0,0-0.1-0.1-0.2-0.1C6.7,0.7,6.7,0.7,6.5,0.6C6.3,0.6,6,0.7,5.9,0.8C5.7,0.9,5.5,1,5.5,1c0,0,0-0.2,0-0.3
			C5.4,0.6,5.2,0.6,5.2,0.6c-0.3,0-0.5,0.3-0.6,0.2c-0.1,0,0-0.2-0.1-0.3C4.4,0.4,4.3,0.5,4.1,0.4C3.9,0.2,4,0.1,3.8-0.2
			C3.7-0.3,3.6-0.4,3.4-0.5c-0.2-0.1-0.3,0-0.5-0.1C2.6-0.6,2.6-0.8,2.4-0.8c-0.2,0-0.3,0-0.4,0.1C1.7-0.6,1.7-0.5,1.5-0.4
			C1.3-0.4,1.3-0.6,1-0.7c-0.1,0-0.2,0-0.3,0c-0.1,0.1,0,0.4-0.1,0.5c-0.1,0.1-0.2,0.1-0.3,0C0.2-0.2,0.3-0.3,0.2-0.4
			C0-0.6-0.9-0.3-1.2,0.2c0,0.1-0.1,0.2-0.2,0.3c-0.2,0.1-0.3,0-0.5,0c-0.3,0-0.5,0.2-1.1,1c0,0-0.1,0.1-0.6,0.6
			c-0.9,1-1,1.1-1.1,1.4c0,0.5,0,0.7,0,0.7c0,0.1,0.1,0.3,0,0.4c-0.1,0.1-0.1,0-0.2,0.1c-0.1,0.1,0.1,0.4,0,0.8c0,0,0,0,0,0.3
			c-0.1,0.5-0.1,0.6,0,0.7c0.1,0.1,0.2,0.1,0.3,0.1c0.2,0,0.3-0.1,0.4-0.1C-3.8,6-3.4,5.5-3,5.1c-0.2,0.3-0.3,0.6-0.4,0.7
			C-3.6,6-3.7,6.2-3.9,6.5C-4,6.6-4,6.7-4.1,6.9c-0.1,0.2-0.2,0.5-0.1,0.8C-4.1,7.7-4,7.8-4,7.9c0,0.2,0,0.3,0,0.4
			c0,0.1,0.1,0.1,0.2,0.1c0.1,0.1,0,0.3,0,0.6c0,0.2,0.1,0.1,0.1,0.3c0.1,0.3-0.1,0.4,0,0.7c0,0.1,0,0.2,0.1,0.3
			c0.1,0.1,0.4-0.1,0.6,0c0.2,0.1,0.1,0.3,0.3,0.4c0.1,0,0.2-0.1,0.4,0c0,0,0.3,0,0.3,0.1c0,0.1-0.1,0.3-0.3,0.4
			c-0.4,0.2-0.8-0.1-0.9,0c0,0.1,0.1,0.2,0.2,0.3c1,0.9,1,1,1.3,1.2c0.3,0.2,0.3,0.1,0.7,0.3c0.5,0.3,1.1,0.6,1.1,1
			c0,0.2-0.2,0.3-0.1,0.6c0,0.2,0.1,0.5,0.3,0.6c0.2,0.1,0.3-0.1,0.6-0.1c0.3,0,0.3,0.2,0.6,0.3c0.4,0,0.5-0.4,0.8-0.4
			c0.2,0,0.2,0.2,0.4,0.3c0.2,0.1,0.4,0,0.5,0c1-1.1,2.6-2.7,4.6-4.8c1.6-1.7,2.1-2.2,3-3.1C13.5,5,16.3,3,16.4,3.2
			c0.1,0.1-1.2,1.3-5.5,5.4c-3,2.8-5.4,5.2-7.1,6.8c0,0.3,0.1,0.5,0.2,0.5c0.2,0.1,0.5-0.2,0.8,0C4.8,15.8,5,16,5.1,16.2
			c0,0.2,0,0.3,0.1,0.4c0.1,0.1,0.1,0,0.2,0.1c0.2,0.2,0.1,0.3,0.3,0.5c0.2,0.1,0.4,0,0.4,0.2c0,0.1,0,0.1,0,0.3
			c0,0.1,0.2,0.1,0.2,0.3c0,0.2-0.3,0.3-0.3,0.6c0,0.2,0.1,0.2,0.1,0.5c0,0.5-0.6,0.6-0.5,0.9c0,0.2,0.2,0.4,0.4,0.5
			c0.3,0,0.5-0.4,0.8-0.4c0.4,0,0.6,0.6,0.9,0.5c0.3,0,0.3-0.4,0.6-0.4c0.2,0,0.3,0.1,0.4,0c0.1-0.1,0.1-0.2,0.3-0.3
			c0.1,0,0.1,0,0.2,0c0.2,0,0.6-0.4,0.7-0.8c0.1-0.4,0-0.5,0.2-0.8c0.1-0.2,0.3-0.3,0.4-0.4c0.5-0.4,1.2-1,1.8-1.6
			c0.8-0.8,0.9-1.1,1.5-1.4c0.1,0,0.3-0.1,0.5-0.3c0.3-0.3,0.4-0.6,0.6-0.8c0.4-0.8,0.8-0.8,1.7-2c0-0.1,0.2-0.3,0.2-0.4
			c-0.1-0.1-1.2,1.1-1.4,1c-0.1-0.1-0.1-0.2-0.1-0.2c0.1-0.6,0.8-0.8,1.9-1.7c0.3-0.2,0.2-0.2,0.5-0.5c0.8-0.7,1.7-1.3,2-1.7
			c0.1-0.3,0.2-0.6,0.2-0.6c0-0.1,0-0.1,0.1-0.2c0.1-0.3,0.2-0.4,0.7-0.9C20.8,6.1,20.8,6,20.8,5.9z M3.8,5.1C3.5,5.5,3.2,5.8,2.9,6
			C3,5.7,3.3,5.4,3.7,5C3.8,4.9,4,4.8,4.1,4.7C4,4.8,3.9,5,3.8,5.1z M3.6,3.9c0.5-0.5,1-1,1.4-1.4C4.7,3,4.2,3.5,3.7,4
			C3.4,4.3,3.1,4.6,2.8,4.8C3,4.5,3.3,4.2,3.6,3.9z M-2,3.8c0.1-0.2,0.2-0.4,0.4-0.6C-1.4,3.1-1.4,3.1-1.3,3c0,0.1-0.1,0.2-0.2,0.3
			C-1.6,3.5-1.8,3.7-2,3.8z M-1.1,12c-0.1,0.1-0.2,0.2-0.3,0.2c0,0,0-0.2,0.1-0.3c0.1-0.1,0.3-0.2,0.3-0.2C-1,11.7-1,11.9-1.1,12z
			 M-1.4,7.3c0.3-0.4,0.7-0.8,1-1.2c0,0.1,0,0.2,0,0.3C-0.8,6.7-1.1,7-1.4,7.3z M0.3,13.4c0,0-0.2-0.2-0.5-0.6
			c-0.1-0.1-0.2-0.2-0.2-0.3c0-0.1,0.1-0.1,0.2-0.2c0.1-0.1,0.3-0.2,0.4-0.5c0,0.2-0.1,0.3-0.1,0.4c0,0.1-0.1,0.2-0.1,0.3
			c0,0.1,0.1,0,0.1,0.1c0.1,0.1,0,0.2,0,0.3C0.2,13.2,0.3,13.3,0.3,13.4z M0.2,2.1c0.1-0.2,0.2-0.4,0.4-0.6c0.1-0.1,0.2-0.2,0.2-0.2
			c0,0.1-0.1,0.2-0.2,0.3C0.5,1.7,0.4,1.9,0.2,2.1z M3,8.7c1-1.3,2.3-2.8,3.8-4.2C7.9,3.4,9,2.4,10,1.6C9.3,2.3,8.5,3.1,7.8,3.8
			C6.1,5.4,4.5,7.1,3,8.7z M7.9,4.4c0.8-0.8,1.6-1.5,2.4-2C9.8,2.9,9.4,3.4,8.9,4C7.8,5.2,6.6,6.3,5.5,7.3C6.1,6.5,6.9,5.5,7.9,4.4z
			 M9.8,6.2c1.1-0.9,2.2-1.8,3.2-2.6c-0.7,0.7-1.4,1.4-2.2,2.1C9.2,7.2,7.6,8.5,6.1,9.6C7.2,8.5,8.4,7.4,9.8,6.2z M11.5,6.4
			c-1.6,1.4-3.1,2.7-4.6,3.8C8,9.1,9.2,8,10.5,6.8c1.1-0.9,2.2-1.8,3.2-2.6C13,4.9,12.2,5.6,11.5,6.4z M17.2,4.8
			C16.5,5.5,15.8,6.2,15,7c-1.6,1.4-3.1,2.7-4.6,3.8c1.1-1.1,2.3-2.2,3.6-3.4C15.1,6.5,16.2,5.6,17.2,4.8z M7.7,12.6
			c1.4-1.7,3.1-3.5,5.1-5.3c0.9-0.8,1.8-1.5,2.6-2.2c-1,1-1.9,1.9-2.9,2.9C11,9.5,9.3,11,7.7,12.6z M8.1,14.2c1.6-1.5,3.2-3.1,5-4.7
			c1.4-1.3,2.8-2.4,4.2-3.5c-1.1,1.1-2.3,2.1-3.4,3.2C11.9,10.9,10,12.6,8.1,14.2z M8.4,15.2c1.1-1.3,2.5-2.7,4.1-4.1
			c1.4-1.2,2.7-2.2,4-3c-1.1,1-2.2,1.9-3.3,2.9C11.6,12.4,10,13.8,8.4,15.2z M16.4,9.5c-1.2,1.1-2.4,2.1-3.6,3
			c0.2-0.2,0.4-0.4,0.6-0.6c0.8-0.7,1.5-1.4,2.2-2.1c-0.1,0.1-0.2,0.1-0.3,0.2c-0.1,0-0.1,0.1-0.2,0.2c-1.3,1.1-2.4,2.2-3.5,3.3
			c-0.9,0.8-1.8,1.5-2.7,2.1c1.1-1.1,2.3-2.2,3.6-3.4c1-0.9,2-1.7,2.9-2.4c1-0.9,2.1-1.7,3-2.5C17.9,8.1,17.2,8.8,16.4,9.5z"/>
	</defs>
	<clipPath id="SVGID_2_">
		<use xlink:href="#SVGID_1_"  style="overflow:visible;"/>
	</clipPath>
	<polygon class="st0" points="3.2,15.1 5.7,11 16,11 13.4,15.1 3.2,15.1 	"/>
	<polygon class="st0" points="10.9,0.9 5.9,0.9 10.9,10 16,10 10.9,0.9 	"/>
	<polygon class="st0" points="5,1.7 0,9.9 2.4,14.6 7.3,6 	"/>
</g>
</svg>
