<?xml version="1.0" encoding="utf-8"?>
<!-- Generator: Adobe Illustrator 23.0.0, SVG Export Plug-In . SVG Version: 6.00 Build 0)  -->
<svg version="1.1" id="Layer_1" xmlns="http://www.w3.org/2000/svg" xmlns:xlink="http://www.w3.org/1999/xlink" x="0px" y="0px"
	 viewBox="0 0 16 16" style="enable-background:new 0 0 16 16;" xml:space="preserve">
<style type="text/css">
	.st0{clip-path:url(#SVGID_2_);fill:#F75049;}
</style>
<g>
	<defs>
		<path id="SVGID_1_" d="M20.3,5c-0.1-0.1-0.3,0-0.6-0.2c-0.2-0.2-0.2-0.3-0.3-0.4c-0.4-0.2-1.3,0.5-1.3,0.5c0,0,0.4-0.3,0.7-0.7
			c0.2-0.2,0.6-0.7,0.5-1C19.3,3,19.1,3,19.1,2.9c0-0.3,0.5-0.4,0.4-0.7c0-0.2-0.2-0.3-0.3-0.3C18.9,1.6,18.5,2,18.4,2
			c0,0,0.3-0.2,0.4-0.5c0-0.1,0.2-0.3,0.1-0.5c-0.1-0.1-0.3-0.1-0.4-0.1c-0.1,0-0.2,0.1-0.2,0c0,0,0-0.1,0-0.2
			c0-0.2-0.3-0.3-0.6-0.3c-0.5,0-0.9,0.5-1,0.4c-0.1-0.1,0.5-0.5,0.4-0.9c0-0.1-0.2-0.3-0.4-0.3c-0.3,0-0.4,0.3-0.5,0.3
			c-0.1-0.1,0.1-0.7-0.1-0.9c-0.1-0.1-0.3,0.1-0.6,0c-0.2-0.1-0.2-0.1-0.3-0.2C15-1.1,14.5-0.6,14-0.1c-0.2,0.2-0.6,0.5-1.1,0.8
			c0.3-0.3,0.5-0.6,0.7-0.7c0.4-0.4,0.6-0.6,0.6-0.9c0-0.1,0-0.4-0.2-0.4c-0.2-0.1-0.4,0.2-1.1,0.6c-0.2,0.1-0.3,0.2-0.4,0.3
			c0,0,0.3-0.4,0.2-0.7c0,0-0.1-0.2-0.2-0.3c-0.4-0.3-1.1-0.2-1.2-0.2c-0.9,0.2-1.1,0.8-2.1,1.3c0,0-0.1,0.1-0.3,0.2
			C8.4,0.1,8.2,0.2,8.1,0.3C7.9,0.5,7.7,0.6,7.6,0.9C7.5,1.1,7.5,1.3,7.3,1.5C7.2,1.6,7,1.6,7,1.6C6.4,1.8,5.7,2.8,5.6,3
			C5.2,3.5,3.9,4.9,0.4,8c4.7-5,6.2-6.6,6.2-6.7c0,0,0,0,0,0c0-0.1,0.2-0.4,0-0.6c-0.1-0.1-0.2,0-0.3-0.1c0,0,0-0.1,0-0.1
			c0-0.2,0.4-0.2,0.4-0.3c0,0-0.1-0.1-0.2-0.1C6.2-0.1,6.2-0.2,6.1-0.2C5.9-0.3,5.6-0.1,5.4,0C5.2,0.1,5.1,0.2,5.1,0.2
			c0,0,0-0.2,0-0.3C5-0.2,4.8-0.2,4.7-0.2C4.4-0.2,4.2,0.1,4.1,0C4,0,4.1-0.1,4-0.3C3.9-0.4,3.8-0.4,3.7-0.5C3.5-0.6,3.6-0.7,3.4-1
			C3.3-1.1,3.2-1.3,3-1.3c-0.2-0.1-0.3,0-0.5-0.1C2.2-1.5,2.2-1.6,2-1.7c-0.2,0-0.3,0-0.4,0.1C1.2-1.4,1.2-1.3,1.1-1.3
			c-0.2,0-0.2-0.2-0.5-0.2c-0.1,0-0.2,0-0.3,0C0.1-1.4,0.3-1.1,0.2-1C0.1-1,0-1-0.1-1c-0.1-0.1-0.1-0.1-0.1-0.2
			c-0.2-0.2-1.1,0.1-1.4,0.6c0,0.1-0.1,0.2-0.2,0.3c-0.2,0.1-0.3,0-0.5,0c-0.3,0-0.5,0.2-1.1,1c0,0-0.1,0.1-0.6,0.6
			c-0.9,1-1,1.1-1.1,1.4c0,0.5,0,0.7,0,0.7c0,0.1,0.1,0.3,0,0.4c-0.1,0.1-0.1,0-0.2,0.1c-0.1,0.1,0.1,0.4,0,0.8c0,0,0,0,0,0.3
			c-0.1,0.5-0.1,0.6,0,0.7C-5.1,5.7-5,5.7-4.9,5.7c0.2,0,0.3-0.1,0.4-0.1c0.4-0.5,0.8-0.9,1.1-1.4C-3.6,4.6-3.7,4.8-3.9,5
			C-4,5.2-4.2,5.4-4.3,5.7c0,0.1-0.1,0.2-0.2,0.4c-0.1,0.2-0.2,0.5-0.1,0.8c0,0.1,0.1,0.2,0.1,0.3c0,0.2,0,0.3,0,0.4
			c0,0.1,0.1,0.1,0.2,0.1c0.1,0.1,0,0.3,0,0.6c0,0.2,0.1,0.1,0.1,0.3c0.1,0.3-0.1,0.4,0,0.7c0,0.1,0,0.2,0.1,0.3
			c0.1,0.1,0.4-0.1,0.6,0c0.2,0.1,0.1,0.3,0.3,0.4c0.1,0,0.2-0.1,0.4,0c0,0,0.3,0,0.3,0.1c0,0.1-0.1,0.3-0.3,0.4
			c-0.4,0.2-0.8-0.1-0.9,0c0,0.1,0.1,0.2,0.2,0.3c1,0.9,1,1,1.3,1.2c0.3,0.2,0.3,0.1,0.7,0.3c0.5,0.3,1.1,0.6,1.1,1
			c0,0.2-0.2,0.3-0.1,0.6c0,0.2,0.1,0.5,0.3,0.6c0.2,0.1,0.3-0.1,0.6-0.1c0.3,0,0.3,0.2,0.6,0.3c0.4,0,0.5-0.4,0.8-0.4
			c0.2,0,0.2,0.2,0.4,0.3c0.2,0.1,0.4,0,0.5,0c1-1.1,2.6-2.7,4.6-4.8c1.6-1.7,2.1-2.2,3-3.1c2.6-2.5,5.4-4.5,5.5-4.3
			c0.1,0.1-1.2,1.3-5.5,5.4c-3,2.8-5.4,5.2-7.1,6.8c0,0.3,0.1,0.5,0.2,0.5c0.2,0.1,0.5-0.2,0.8,0c0.1,0.1,0.3,0.2,0.3,0.4
			c0,0.2,0,0.3,0.1,0.4c0.1,0.1,0.1,0,0.2,0.1c0.2,0.2,0.1,0.3,0.3,0.5c0.2,0.1,0.4,0,0.4,0.2c0,0.1,0,0.1,0,0.3
			c0,0.1,0.2,0.1,0.2,0.3c0,0.2-0.3,0.3-0.3,0.6c0,0.2,0.1,0.2,0.1,0.5c0,0.5-0.6,0.6-0.5,0.9c0,0.2,0.2,0.4,0.4,0.5
			c0.3,0,0.5-0.4,0.8-0.4c0.4,0,0.6,0.6,0.9,0.5c0.3,0,0.3-0.4,0.6-0.4c0.2,0,0.3,0.1,0.4,0c0.1-0.1,0.1-0.2,0.3-0.3
			c0.1,0,0.1,0,0.2,0c0.2,0,0.6-0.4,0.7-0.8c0.1-0.4,0-0.5,0.2-0.8c0.1-0.2,0.3-0.3,0.4-0.4c0.5-0.4,1.2-1,1.8-1.6
			c0.8-0.8,0.9-1.1,1.5-1.4c0.1,0,0.3-0.1,0.5-0.3c0.3-0.3,0.4-0.6,0.6-0.8c0.4-0.8,0.8-0.8,1.7-2c0-0.1,0.2-0.3,0.2-0.4
			c-0.1-0.1-1.2,1.1-1.4,1c-0.1-0.1-0.1-0.2-0.1-0.2c0.1-0.6,0.8-0.8,1.9-1.7c0.3-0.2,0.2-0.2,0.5-0.5c0.8-0.7,1.7-1.3,2-1.7
			c0.1-0.3,0.2-0.6,0.2-0.6c0-0.1,0-0.1,0.1-0.2c0.1-0.3,0.2-0.4,0.7-0.9C20.3,5.2,20.4,5.1,20.3,5z M3.4,4.3
			C3.1,4.7,2.7,4.9,2.5,5.1c0.2-0.3,0.4-0.6,0.8-0.9C3.4,4.1,3.5,4,3.7,3.9C3.6,4,3.5,4.1,3.4,4.3z M3.2,3.1c0.5-0.5,1-1,1.4-1.4
			c-0.3,0.5-0.8,1-1.3,1.5C3,3.5,2.7,3.8,2.4,4C2.6,3.7,2.9,3.4,3.2,3.1z M-2.4,3C-2.3,2.8-2.2,2.6-2,2.4c0.1-0.1,0.2-0.2,0.2-0.2
			c0,0.1-0.1,0.2-0.2,0.3C-2.1,2.7-2.2,2.9-2.4,3z M-1.6,11.2c-0.1,0.1-0.2,0.2-0.3,0.2c0,0,0-0.2,0.1-0.3c0.1-0.1,0.3-0.2,0.3-0.2
			C-1.4,10.9-1.5,11-1.6,11.2z M-1.9,6.5c0.3-0.4,0.7-0.8,1-1.2c0,0.1,0,0.2,0,0.3C-1.2,5.9-1.5,6.2-1.9,6.5z M-0.1,12.5
			c0,0-0.2-0.2-0.5-0.6c-0.1-0.1-0.2-0.2-0.2-0.3c0-0.1,0.1-0.1,0.2-0.2c0.1-0.1,0.3-0.2,0.4-0.5c0,0.2-0.1,0.3-0.1,0.4
			c0,0.1-0.1,0.2-0.1,0.3c0,0.1,0.1,0,0.1,0.1c0.1,0.1,0,0.2,0,0.3C-0.3,12.3-0.1,12.5-0.1,12.5z M-0.2,1.2C-0.1,1,0,0.8,0.2,0.6
			c0.1-0.1,0.2-0.2,0.2-0.2c0,0.1-0.1,0.2-0.2,0.3C0.1,0.9-0.1,1.1-0.2,1.2z M2.6,7.8c1-1.3,2.3-2.8,3.8-4.2c1.1-1.1,2.2-2,3.2-2.8
			C8.8,1.5,8.1,2.2,7.3,3C5.7,4.6,4.1,6.2,2.6,7.8z M7.5,3.6c0.8-0.8,1.6-1.5,2.4-2C9.4,2.1,9,2.6,8.5,3.1C7.3,4.4,6.2,5.5,5.1,6.5
			C5.7,5.6,6.5,4.6,7.5,3.6z M9.3,5.4c1.1-0.9,2.2-1.8,3.2-2.6c-0.7,0.7-1.4,1.4-2.2,2.1C8.7,6.4,7.2,7.6,5.7,8.8
			C6.8,7.7,8,6.5,9.3,5.4z M11,5.5C9.5,7,7.9,8.2,6.4,9.4C7.5,8.3,8.7,7.1,10,6c1.1-0.9,2.2-1.8,3.2-2.6C12.6,4.1,11.8,4.8,11,5.5z
			 M16.8,4c-0.7,0.7-1.4,1.4-2.2,2.1C13,7.6,11.4,8.8,10,10c1.1-1.1,2.3-2.2,3.6-3.4C14.7,5.6,15.7,4.8,16.8,4z M7.3,11.7
			c1.4-1.7,3.1-3.5,5.1-5.3c0.9-0.8,1.8-1.5,2.6-2.2c-1,1-1.9,1.9-2.9,2.9C10.5,8.7,8.9,10.2,7.3,11.7z M7.7,13.4
			c1.6-1.5,3.2-3.1,5-4.7c1.4-1.3,2.8-2.4,4.2-3.5c-1.1,1.1-2.3,2.1-3.4,3.2C11.5,10.1,9.6,11.8,7.7,13.4z M7.9,14.4
			c1.1-1.3,2.5-2.7,4.1-4.1c1.4-1.2,2.7-2.2,4-3c-1.1,1-2.2,1.9-3.3,2.9C11.1,11.6,9.5,13,7.9,14.4z M16,8.7c-1.2,1.1-2.4,2.1-3.6,3
			c0.2-0.2,0.4-0.4,0.6-0.6c0.8-0.7,1.5-1.4,2.2-2.1C15.2,9,15.1,9.1,15,9.2c-0.1,0-0.1,0.1-0.2,0.2c-1.3,1.1-2.4,2.2-3.5,3.3
			c-0.9,0.8-1.8,1.5-2.7,2.1c1.1-1.1,2.3-2.2,3.6-3.4c1-0.9,2-1.7,2.9-2.4c1-0.9,2.1-1.7,3-2.5C17.5,7.2,16.8,7.9,16,8.7z"/>
	</defs>
	<clipPath id="SVGID_2_">
		<use xlink:href="#SVGID_1_"  style="overflow:visible;"/>
	</clipPath>
	<path class="st0" d="M8,0C6.1,0,4.3,0.9,3.1,2.5C1.4,5,2,8.3,4.5,10.1v5.2h0.9V16h5.2v-0.7h0.9v-5.2c0.5-0.4,1-0.8,1.4-1.4
		c1.8-2.6,1.1-6-1.6-7.8C10.3,0.3,9.1,0,8,0"/>
	<path class="st0" d="M8,1c0.9,0,1.9,0.3,2.7,0.8C12.9,3.2,13.5,6,12,8.1c-0.3,0.5-0.8,0.9-1.3,1.2l-0.1,1.3H5.4L5.3,9.4
		C3.1,8,2.5,5.1,4,3C4.9,1.7,6.5,1,8,1"/>
	<polyline class="st0" points="5.4,11.3 10.6,11.3 10.6,12.7 5.4,12.7 	"/>
	<polyline class="st0" points="5.4,13.3 10.6,13.3 10.6,14.5 5.4,14.5 	"/>
</g>
</svg>
