<?xml version="1.0" encoding="utf-8"?>
<!-- Generator: Adobe Illustrator 23.0.0, SVG Export Plug-In . SVG Version: 6.00 Build 0)  -->
<svg version="1.1" id="Layer_1" xmlns="http://www.w3.org/2000/svg" xmlns:xlink="http://www.w3.org/1999/xlink" x="0px" y="0px"
	 viewBox="0 0 16 16" style="enable-background:new 0 0 16 16;" xml:space="preserve">
<style type="text/css">
	.st0{clip-path:url(#SVGID_2_);fill-rule:evenodd;clip-rule:evenodd;fill:#F75049;}
</style>
<g>
	<defs>
		<path id="SVGID_1_" d="M21.3,5.3c-0.1-0.1-0.3,0-0.6-0.2c-0.2-0.2-0.2-0.3-0.3-0.4c-0.4-0.2-1.3,0.5-1.3,0.5c0,0,0.4-0.3,0.7-0.7
			c0.2-0.2,0.6-0.7,0.5-1c-0.1-0.2-0.3-0.2-0.3-0.3c0-0.3,0.5-0.4,0.4-0.7c0-0.2-0.2-0.3-0.3-0.3c-0.3-0.1-0.8,0.2-0.8,0.2
			c0,0,0.3-0.2,0.4-0.5c0-0.1,0.2-0.3,0.1-0.5c-0.1-0.1-0.3-0.1-0.4-0.1c-0.1,0-0.2,0.1-0.2,0c0,0,0-0.1,0-0.2
			c0-0.2-0.3-0.3-0.6-0.3c-0.5,0-0.9,0.5-1,0.4c-0.1-0.1,0.5-0.5,0.4-0.9c0-0.1-0.2-0.3-0.4-0.3c-0.3,0-0.4,0.3-0.5,0.3
			c-0.1-0.1,0.1-0.7-0.1-0.9c-0.1-0.1-0.3,0.1-0.6,0c-0.2-0.1-0.2-0.1-0.3-0.2c-0.3-0.1-0.8,0.4-1.3,0.9c-0.2,0.2-0.6,0.5-1.1,0.8
			c0.3-0.3,0.5-0.6,0.7-0.7c0.4-0.4,0.6-0.6,0.6-0.9c0-0.1,0-0.4-0.2-0.4c-0.2-0.1-0.4,0.2-1.1,0.6c-0.2,0.1-0.3,0.2-0.4,0.3
			c0,0,0.3-0.4,0.2-0.7c0,0-0.1-0.2-0.2-0.3c-0.4-0.3-1.1-0.2-1.2-0.2c-0.9,0.2-1.1,0.8-2.1,1.3c0,0-0.1,0.1-0.3,0.2
			C9.4,0.4,9.2,0.5,9.1,0.5C8.8,0.7,8.6,0.9,8.5,1.1C8.4,1.4,8.5,1.5,8.3,1.7C8.2,1.9,8,1.9,8,1.9C7.4,2.1,6.6,3.1,6.5,3.2
			C6.1,3.8,4.8,5.1,1.3,8.3c4.7-5,6.2-6.6,6.2-6.7c0,0,0,0,0,0c0-0.1,0.2-0.4,0-0.6C7.5,0.9,7.4,1,7.3,0.9c0,0,0-0.1,0-0.1
			c0-0.2,0.4-0.2,0.4-0.3c0,0-0.1-0.1-0.2-0.1C7.2,0.2,7.2,0.1,7.1,0.1C6.8,0,6.6,0.1,6.4,0.2C6.2,0.3,6.1,0.5,6,0.4
			c0,0,0-0.2,0-0.3C5.9,0.1,5.8,0.1,5.7,0.1c-0.3,0-0.5,0.3-0.6,0.2C5,0.2,5.1,0.1,5,0C4.9-0.1,4.8-0.1,4.6-0.2
			C4.4-0.3,4.5-0.5,4.3-0.7C4.3-0.8,4.1-1,3.9-1.1c-0.2-0.1-0.3,0-0.5-0.1C3.1-1.2,3.1-1.4,2.9-1.4c-0.2,0-0.3,0-0.4,0.1
			C2.2-1.2,2.2-1,2-1C1.9-1,1.8-1.2,1.5-1.3c-0.1,0-0.2,0-0.3,0c-0.1,0.1,0,0.4-0.1,0.5c-0.1,0.1-0.2,0.1-0.3,0
			C0.8-0.8,0.8-0.9,0.7-1C0.5-1.2-0.4-0.9-0.7-0.3c0,0.1-0.1,0.2-0.2,0.3c-0.2,0.1-0.3,0-0.5,0c-0.3,0-0.5,0.2-1.1,1
			c0,0-0.1,0.1-0.6,0.6c-0.9,1-1,1.1-1.1,1.4c0,0.5,0,0.7,0,0.7C-4,3.8-3.9,4-4,4.1c-0.1,0.1-0.1,0-0.2,0.1c-0.1,0.1,0.1,0.4,0,0.8
			c0,0,0,0,0,0.3c-0.1,0.5-0.1,0.6,0,0.7C-4.2,6-4.1,6-4,6c0.2,0,0.3-0.1,0.4-0.1c0.4-0.5,0.8-0.9,1.1-1.4c-0.2,0.3-0.3,0.6-0.4,0.7
			c-0.2,0.2-0.3,0.4-0.5,0.7c0,0.1-0.1,0.2-0.2,0.4c-0.1,0.2-0.2,0.5-0.1,0.8c0,0.1,0.1,0.2,0.1,0.3c0,0.2,0,0.3,0,0.4
			c0,0.1,0.1,0.1,0.2,0.1c0.1,0.1,0,0.3,0,0.6c0,0.2,0.1,0.1,0.1,0.3c0.1,0.3-0.1,0.4,0,0.7c0,0.1,0,0.2,0.1,0.3
			c0.1,0.1,0.4-0.1,0.6,0c0.2,0.1,0.1,0.3,0.3,0.4c0.1,0,0.2-0.1,0.4,0c0,0,0.3,0,0.3,0.1c0,0.1-0.1,0.3-0.3,0.4
			c-0.4,0.2-0.8-0.1-0.9,0c0,0.1,0.1,0.2,0.2,0.3c1,0.9,1,1,1.3,1.2c0.3,0.2,0.3,0.1,0.7,0.3c0.5,0.3,1.1,0.6,1.1,1
			c0,0.2-0.2,0.3-0.1,0.6c0,0.2,0.1,0.5,0.3,0.6c0.2,0.1,0.3-0.1,0.6-0.1c0.3,0,0.3,0.2,0.6,0.3c0.4,0,0.5-0.4,0.8-0.4
			c0.2,0,0.2,0.2,0.4,0.3c0.2,0.1,0.4,0,0.5,0c1-1.1,2.6-2.7,4.6-4.8c1.6-1.7,2.1-2.2,3-3.1c2.6-2.5,5.4-4.5,5.5-4.3
			c0.1,0.1-1.2,1.3-5.5,5.4c-3,2.8-5.4,5.2-7.1,6.8c0,0.3,0.1,0.5,0.2,0.5c0.2,0.1,0.5-0.2,0.8,0c0.1,0.1,0.3,0.2,0.3,0.4
			c0,0.2,0,0.3,0.1,0.4c0.1,0.1,0.1,0,0.2,0.1c0.2,0.2,0.1,0.3,0.3,0.5c0.2,0.1,0.4,0,0.4,0.2c0,0.1,0,0.1,0,0.3
			c0,0.1,0.2,0.1,0.2,0.3c0,0.2-0.3,0.3-0.3,0.6c0,0.2,0.1,0.2,0.1,0.5c0,0.5-0.6,0.6-0.5,0.9c0,0.2,0.2,0.4,0.4,0.5
			c0.3,0,0.5-0.4,0.8-0.4c0.4,0,0.6,0.6,0.9,0.5c0.3,0,0.3-0.4,0.6-0.4c0.2,0,0.3,0.1,0.4,0c0.1-0.1,0.1-0.2,0.3-0.3
			c0.1,0,0.1,0,0.2,0c0.2,0,0.6-0.4,0.7-0.8c0.1-0.4,0-0.5,0.2-0.8c0.1-0.2,0.3-0.3,0.4-0.4c0.5-0.4,1.2-1,1.8-1.6
			c0.8-0.8,0.9-1.1,1.5-1.4c0.1,0,0.3-0.1,0.5-0.3c0.3-0.3,0.4-0.6,0.6-0.8c0.4-0.8,0.8-0.8,1.7-2c0-0.1,0.2-0.3,0.2-0.4
			c-0.1-0.1-1.2,1.1-1.4,1c-0.1-0.1-0.1-0.2-0.1-0.2c0.1-0.6,0.8-0.8,1.9-1.7c0.3-0.2,0.2-0.2,0.5-0.5c0.8-0.7,1.7-1.3,2-1.7
			c0.1-0.3,0.2-0.6,0.2-0.6c0-0.1,0-0.1,0.1-0.2c0.1-0.3,0.2-0.4,0.7-0.9C21.3,5.5,21.3,5.4,21.3,5.3z M4.3,4.5
			C4,4.9,3.7,5.2,3.4,5.4c0.2-0.3,0.4-0.6,0.8-0.9c0.1-0.1,0.3-0.2,0.4-0.3C4.6,4.3,4.5,4.4,4.3,4.5z M4.1,3.3c0.5-0.5,1-1,1.4-1.4
			c-0.3,0.5-0.8,1-1.3,1.5C3.9,3.7,3.6,4,3.3,4.3C3.6,4,3.8,3.6,4.1,3.3z M-1.4,3.3C-1.3,3.1-1.2,2.9-1,2.7c0.1-0.1,0.2-0.2,0.2-0.2
			c0,0.1-0.1,0.2-0.2,0.3C-1.1,3-1.3,3.1-1.4,3.3z M-0.6,11.4c-0.1,0.1-0.2,0.2-0.3,0.2c0,0,0-0.2,0.1-0.3c0.1-0.1,0.3-0.2,0.3-0.2
			C-0.5,11.2-0.5,11.3-0.6,11.4z M-0.9,6.8c0.3-0.4,0.7-0.8,1-1.2c0,0.1,0,0.2,0,0.3C-0.2,6.2-0.6,6.5-0.9,6.8z M0.8,12.8
			c0,0-0.2-0.2-0.5-0.6c-0.1-0.1-0.2-0.2-0.2-0.3c0-0.1,0.1-0.1,0.2-0.2c0.1-0.1,0.3-0.2,0.4-0.5c0,0.2-0.1,0.3-0.1,0.4
			c0,0.1-0.1,0.2-0.1,0.3c0,0.1,0.1,0,0.1,0.1c0.1,0.1,0,0.2,0,0.3C0.7,12.6,0.9,12.8,0.8,12.8z M0.7,1.5c0.1-0.2,0.2-0.4,0.4-0.6
			c0.1-0.1,0.2-0.2,0.2-0.2c0,0.1-0.1,0.2-0.2,0.3C1.1,1.2,0.9,1.4,0.7,1.5z M3.5,8.1c1-1.3,2.3-2.8,3.8-4.2c1.1-1.1,2.2-2,3.2-2.8
			C9.8,1.8,9.1,2.5,8.3,3.2C6.6,4.9,5.1,6.5,3.5,8.1z M8.5,3.9c0.8-0.8,1.6-1.5,2.4-2c-0.4,0.5-0.9,1-1.4,1.6
			C8.3,4.6,7.2,5.8,6.1,6.8C6.7,5.9,7.4,4.9,8.5,3.9z M10.3,5.7c1.1-0.9,2.2-1.8,3.2-2.6c-0.7,0.7-1.4,1.4-2.2,2.1
			C9.7,6.6,8.2,7.9,6.7,9C7.8,7.9,9,6.8,10.3,5.7z M12,5.8c-1.6,1.4-3.1,2.7-4.6,3.8C8.5,8.5,9.7,7.4,11,6.3
			c1.1-0.9,2.2-1.8,3.2-2.6C13.5,4.3,12.8,5.1,12,5.8z M17.7,4.2c-0.7,0.7-1.4,1.4-2.2,2.1c-1.6,1.4-3.1,2.7-4.6,3.8
			C12,9.1,13.2,8,14.5,6.9C15.6,5.9,16.7,5,17.7,4.2z M8.3,12c1.4-1.7,3.1-3.5,5.1-5.3c0.9-0.8,1.8-1.5,2.6-2.2
			c-1,1-1.9,1.9-2.9,2.9C11.5,8.9,9.9,10.5,8.3,12z M8.6,13.6c1.6-1.5,3.2-3.1,5-4.7c1.4-1.3,2.8-2.4,4.2-3.5
			c-1.1,1.1-2.3,2.1-3.4,3.2C12.5,10.3,10.5,12,8.6,13.6z M8.9,14.6c1.1-1.3,2.5-2.7,4.1-4.1c1.4-1.2,2.7-2.2,4-3
			c-1.1,1-2.2,1.9-3.3,2.9C12.1,11.8,10.5,13.2,8.9,14.6z M16.9,8.9c-1.2,1.1-2.4,2.1-3.6,3c0.2-0.2,0.4-0.4,0.6-0.6
			c0.8-0.7,1.5-1.4,2.2-2.1c-0.1,0.1-0.2,0.1-0.3,0.2c-0.1,0-0.1,0.1-0.2,0.2c-1.3,1.1-2.4,2.2-3.5,3.3c-0.9,0.8-1.8,1.5-2.7,2.1
			c1.1-1.1,2.3-2.2,3.6-3.4c1-0.9,2-1.7,2.9-2.4c1-0.9,2.1-1.7,3-2.5C18.5,7.5,17.7,8.2,16.9,8.9z"/>
	</defs>
	<clipPath id="SVGID_2_">
		<use xlink:href="#SVGID_1_"  style="overflow:visible;"/>
	</clipPath>
	<polygon class="st0" points="14.2,2.6 10.7,7 9.1,5 5.4,9.7 3.8,7.9 0,12.6 0.5,12.9 3.8,8.7 5.5,10.6 9.1,5.9 10.7,7.8 14.2,3.4 
		15.5,4.8 16,4.6 14.2,2.6 14.2,2.6 14.2,2.6 14.2,2.6 14.2,2.6 14.2,2.6 14.2,2.6 	"/>
	<polygon class="st0" points="1,3 3.1,3 3.1,4.2 1,4.2 1,3 1,3 1,3 1,3 1,3 1,3 	"/>
	<polygon class="st0" points="1,4.6 3.1,4.6 3.1,5.9 1,5.9 1,4.6 1,4.6 1,4.6 1,4.6 1,4.6 	"/>
	<polygon class="st0" points="3.5,3 6.4,3 6.4,4.2 3.5,4.2 3.5,3 3.5,3 3.5,3 3.5,3 	"/>
	<polygon class="st0" points="3.5,4.6 6.4,4.6 6.4,5.9 3.5,5.9 3.5,4.6 3.5,4.6 3.5,4.6 	"/>
	<polygon class="st0" points="13.5,6.7 15.2,6.7 15.2,13.4 13.5,13.4 13.5,6.7 13.5,6.7 	"/>
	<polygon class="st0" points="10.2,9.2 11.9,9.2 11.9,13.4 10.2,13.4 10.2,9.2 	"/>
	<rect x="6.9" y="11.3" class="st0" width="1.7" height="2.1"/>
</g>
</svg>
