<?xml version="1.0" encoding="utf-8"?>
<!-- Generator: Adobe Illustrator 23.0.0, SVG Export Plug-In . SVG Version: 6.00 Build 0)  -->
<svg version="1.1" id="Layer_1" xmlns="http://www.w3.org/2000/svg" xmlns:xlink="http://www.w3.org/1999/xlink" x="0px" y="0px"
	 viewBox="0 0 16 16" style="enable-background:new 0 0 16 16;" xml:space="preserve">
<style type="text/css">
	.st0{clip-path:url(#SVGID_2_);fill:#F75049;}
</style>
<g>
	<defs>
		<path id="SVGID_1_" d="M22.5,6.1c-0.1-0.1-0.3,0-0.6-0.2c-0.2-0.2-0.2-0.4-0.3-0.5c-0.4-0.3-1.3,0.5-1.4,0.5c0,0,0.4-0.3,0.8-0.7
			c0.2-0.3,0.7-0.7,0.5-1.1C21.5,4,21.2,4,21.2,3.8c0-0.3,0.5-0.4,0.5-0.8c0-0.2-0.2-0.3-0.3-0.4c-0.4-0.1-0.8,0.3-0.8,0.2
			c0,0,0.3-0.2,0.4-0.5C21,2.3,21.2,2,21,1.9c-0.1-0.1-0.3-0.1-0.4-0.1c-0.1,0-0.2,0.1-0.2,0.1c0,0,0-0.1,0-0.2
			c0-0.2-0.4-0.3-0.6-0.3c-0.5-0.1-1,0.5-1.1,0.4c-0.1-0.1,0.5-0.6,0.4-0.9c-0.1-0.2-0.2-0.3-0.4-0.3c-0.3,0-0.4,0.3-0.5,0.3
			C18,0.8,18.3,0.2,18.1,0c-0.1-0.1-0.3,0.1-0.6,0c-0.2-0.1-0.2-0.1-0.3-0.2c-0.3-0.1-0.8,0.4-1.4,1c-0.2,0.2-0.6,0.5-1.2,0.8
			c0.3-0.3,0.5-0.6,0.7-0.8c0.4-0.5,0.7-0.7,0.7-1c0-0.1,0-0.4-0.2-0.5c-0.2-0.1-0.4,0.2-1.1,0.7c-0.2,0.1-0.3,0.2-0.4,0.3
			c0,0,0.3-0.4,0.2-0.7c0,0-0.1-0.2-0.2-0.3C13.9-1,13.1-0.9,13-0.8c-0.9,0.2-1.1,0.8-2.2,1.4c0,0-0.1,0.1-0.3,0.2
			C10,1,9.8,1.1,9.7,1.1C9.5,1.3,9.3,1.5,9.1,1.7C9,2,9.1,2.2,8.9,2.4C8.8,2.5,8.6,2.5,8.5,2.6C7.9,2.7,7.2,3.8,7.1,3.9
			c-0.4,0.6-1.8,2-5.5,5.3c5-5.2,6.5-6.9,6.5-7c0,0,0,0,0,0c0-0.1,0.2-0.5,0-0.6c-0.1-0.1-0.2,0-0.3-0.2c0,0,0-0.1,0-0.2
			c0-0.2,0.4-0.3,0.4-0.3c0,0-0.1-0.1-0.2-0.1C7.8,0.7,7.8,0.7,7.6,0.6C7.4,0.5,7.1,0.7,6.9,0.8C6.7,0.9,6.6,1,6.5,1
			c-0.1,0,0-0.2,0-0.3C6.4,0.6,6.2,0.6,6.2,0.6c-0.4,0-0.5,0.3-0.7,0.2c-0.1,0,0-0.2-0.1-0.3C5.4,0.4,5.2,0.5,5.1,0.3
			C4.9,0.2,5,0.1,4.7-0.2C4.7-0.3,4.5-0.5,4.3-0.6C4.1-0.7,4-0.5,3.8-0.6C3.5-0.7,3.5-0.9,3.3-0.9c-0.2,0-0.3,0-0.4,0.1
			C2.5-0.7,2.5-0.5,2.3-0.5c-0.2,0-0.2-0.2-0.6-0.3c-0.1,0-0.2,0-0.3,0c-0.1,0.1,0,0.4-0.1,0.5c-0.1,0.1-0.2,0.1-0.3,0
			C1-0.3,1-0.4,1-0.5C0.8-0.7-0.2-0.4-0.5,0.2c0,0.1-0.1,0.2-0.2,0.3c-0.2,0.1-0.3,0-0.5,0c-0.3,0-0.5,0.2-1.1,1
			c0,0-0.1,0.2-0.6,0.7C-3.9,3.2-4,3.4-4,3.7c0,0.5,0,0.8,0,0.8c0,0.1,0.1,0.3,0,0.4c-0.1,0.1-0.1,0-0.2,0.1c-0.1,0.1,0.1,0.4,0,0.8
			c0,0,0,0-0.1,0.3c-0.1,0.6-0.1,0.7,0,0.7C-4.1,6.8-4,6.8-3.9,6.8c0.2,0,0.3-0.1,0.4-0.1c0.4-0.5,0.8-0.9,1.2-1.4
			C-2.5,5.6-2.7,5.9-2.8,6C-3,6.3-3.2,6.4-3.3,6.8c0,0.1-0.1,0.2-0.2,0.4C-3.6,7.4-3.7,7.7-3.6,8c0,0.1,0.1,0.2,0.1,0.3
			c0,0.2-0.1,0.3,0,0.4c0.1,0.1,0.1,0.1,0.2,0.1c0.1,0.1,0,0.3,0,0.6c0,0.2,0.1,0.1,0.1,0.3c0.1,0.3-0.1,0.4,0,0.7
			c0,0.2,0,0.2,0.1,0.3c0.2,0.1,0.4-0.1,0.6,0.1c0.2,0.1,0.1,0.3,0.3,0.4c0.1,0,0.2-0.1,0.4,0c0,0,0.3,0,0.4,0.1
			c0,0.1-0.1,0.3-0.3,0.4c-0.4,0.2-0.8-0.1-0.9,0c0,0.1,0.1,0.2,0.2,0.3c1,1,1,1,1.4,1.2c0.3,0.2,0.3,0.1,0.7,0.3
			C0.4,13.9,1,14.2,1,14.7c0,0.2-0.2,0.3-0.2,0.6c0,0.2,0.1,0.6,0.3,0.7c0.2,0.1,0.3-0.1,0.6-0.1c0.3,0,0.3,0.3,0.6,0.3
			c0.4,0,0.5-0.4,0.8-0.4c0.2,0,0.2,0.2,0.4,0.3c0.2,0.1,0.4,0,0.6,0C5.3,14.9,7,13.2,9,11c1.7-1.8,2.2-2.3,3.1-3.2
			c2.8-2.6,5.7-4.7,5.8-4.5c0.1,0.1-1.2,1.3-5.7,5.6c-3.1,3-5.7,5.4-7.4,7.1c0,0.3,0.1,0.5,0.2,0.5c0.2,0.1,0.5-0.2,0.8,0
			c0.1,0.1,0.3,0.2,0.3,0.5c0,0.2,0,0.3,0.1,0.4c0.1,0.1,0.1,0,0.2,0.1c0.2,0.2,0.1,0.4,0.3,0.5c0.2,0.1,0.4,0,0.5,0.2
			c0,0.1-0.1,0.1,0,0.3c0,0.1,0.2,0.1,0.2,0.3c0,0.2-0.3,0.3-0.4,0.6C6.9,19.5,7,19.5,7,19.8c0,0.5-0.6,0.6-0.6,1
			c0,0.2,0.2,0.5,0.5,0.5c0.4,0,0.5-0.4,0.9-0.4c0.4,0,0.6,0.6,1,0.6C9,21.3,9,21,9.4,21c0.2,0,0.3,0.1,0.4,0
			c0.1-0.1,0.1-0.2,0.3-0.3c0.1,0,0.1,0,0.2,0c0.3,0,0.6-0.4,0.7-0.8c0.1-0.4,0-0.5,0.2-0.8c0.1-0.2,0.3-0.3,0.4-0.4
			c0.6-0.4,1.2-1.1,1.9-1.7c0.9-0.8,0.9-1.1,1.5-1.4c0.1,0,0.3-0.1,0.5-0.3c0.3-0.3,0.4-0.6,0.6-0.9c0.4-0.8,0.9-0.9,1.8-2.1
			c0-0.1,0.2-0.3,0.2-0.4c-0.1-0.1-1.2,1.2-1.5,1c-0.1-0.1-0.1-0.2-0.1-0.3c0.1-0.6,0.9-0.8,2-1.8c0.3-0.2,0.2-0.2,0.5-0.5
			c0.9-0.8,1.8-1.4,2-1.8C21.1,8.3,21.2,8,21.2,8c0-0.1,0-0.1,0.1-0.2c0.1-0.3,0.2-0.4,0.7-0.9C22.5,6.3,22.6,6.2,22.5,6.1z
			 M4.8,5.3C4.4,5.7,4.1,6,3.8,6.2c0.2-0.3,0.4-0.7,0.8-1C4.8,5.1,4.9,5,5.1,4.9C5,5,4.9,5.2,4.8,5.3z M4.5,4C5,3.5,5.5,3,6,2.6
			c-0.4,0.5-0.8,1-1.3,1.5C4.3,4.5,4,4.8,3.7,5C3.9,4.7,4.2,4.4,4.5,4z M-1.3,4c0.1-0.2,0.2-0.4,0.5-0.7c0.1-0.1,0.2-0.2,0.2-0.2
			c0,0.1-0.1,0.2-0.2,0.3C-0.9,3.7-1.1,3.8-1.3,4z M-0.4,12.5c-0.1,0.1-0.2,0.2-0.3,0.2c0,0,0-0.2,0.1-0.3c0.1-0.2,0.3-0.2,0.3-0.2
			C-0.3,12.3-0.3,12.4-0.4,12.5z M-0.7,7.7c0.3-0.4,0.7-0.8,1-1.2c0,0.1,0,0.2,0,0.3C0,7-0.4,7.3-0.7,7.7z M1.1,14
			c0,0-0.2-0.2-0.5-0.6c-0.1-0.1-0.2-0.2-0.2-0.3c0-0.1,0.1-0.1,0.2-0.2c0.1-0.1,0.3-0.2,0.4-0.5c0,0.2-0.1,0.3-0.1,0.4
			c-0.1,0.1-0.1,0.2-0.1,0.3c0,0.1,0.1,0,0.1,0.1c0.1,0.1,0,0.2,0,0.3C0.9,13.7,1.1,13.9,1.1,14z M1,2.1c0.1-0.2,0.2-0.4,0.5-0.7
			c0.1-0.1,0.2-0.2,0.2-0.2C1.6,1.3,1.6,1.4,1.5,1.5C1.3,1.8,1.1,2,1,2.1z M3.9,9c1.1-1.4,2.4-2.9,4-4.4c1.1-1.1,2.3-2.1,3.3-2.9
			c-0.8,0.7-1.6,1.5-2.3,2.3C7.2,5.6,5.5,7.3,3.9,9z M9.1,4.6c0.9-0.9,1.7-1.6,2.5-2.1c-0.5,0.5-0.9,1.1-1.4,1.6
			C8.9,5.4,7.7,6.6,6.6,7.7C7.2,6.7,8,5.7,9.1,4.6z M11,6.5c1.1-1,2.3-1.9,3.4-2.7C13.6,4.5,12.8,5.2,12,6c-1.6,1.5-3.3,2.8-4.8,4
			C8.3,8.9,9.6,7.7,11,6.5z M12.8,6.6c-1.6,1.5-3.3,2.8-4.8,4c1.1-1.1,2.4-2.3,3.8-3.5c1.1-1,2.3-1.9,3.4-2.7
			C14.4,5.1,13.6,5.9,12.8,6.6z M18.8,5c-0.7,0.7-1.5,1.5-2.3,2.3c-1.6,1.5-3.3,2.8-4.8,4c1.1-1.1,2.4-2.3,3.8-3.5
			C16.6,6.7,17.7,5.8,18.8,5z M8.9,13.1c1.5-1.8,3.3-3.7,5.4-5.5C15.1,6.8,16.1,6,17,5.3c-1,1-2,2-3,3.1
			C12.2,9.9,10.6,11.5,8.9,13.1z M9.2,14.8c1.6-1.6,3.4-3.3,5.3-4.9c1.5-1.3,2.9-2.5,4.4-3.7c-1.2,1.1-2.4,2.2-3.6,3.3
			C13.3,11.4,11.2,13.1,9.2,14.8z M9.5,15.9c1.1-1.3,2.6-2.8,4.3-4.3c1.5-1.2,2.9-2.3,4.1-3.1c-1.1,1-2.3,2-3.4,3
			C12.9,12.9,11.2,14.4,9.5,15.9z M18,9.9c-1.3,1.2-2.5,2.2-3.7,3.2c0.2-0.2,0.4-0.4,0.7-0.6c0.8-0.8,1.6-1.5,2.3-2.3
			c-0.1,0.1-0.2,0.2-0.3,0.2c-0.1,0.1-0.1,0.1-0.2,0.2c-1.3,1.2-2.6,2.3-3.7,3.4c-1,0.8-1.9,1.5-2.8,2.2c1.1-1.1,2.4-2.3,3.8-3.5
			c1-0.9,2.1-1.7,3.1-2.5c1.1-0.9,2.1-1.8,3.2-2.6C19.6,8.4,18.8,9.1,18,9.9z"/>
	</defs>
	<clipPath id="SVGID_2_">
		<use xlink:href="#SVGID_1_"  style="overflow:visible;"/>
	</clipPath>
	<path class="st0" d="M8,1.3C6.7,1.3,5.6,1.6,4.7,2C4.6,2,4.4,2.1,4.2,2.2c0,0-0.1,0.1-0.1,0.1C4,2.4,3.9,2.4,3.8,2.5
		C3.7,2.6,3.6,2.6,3.5,2.7c-0.6,0.5-1,1-1.3,1.6c0,0,0,0.1-0.1,0.1c0,0,0,0.1,0,0.1C2,4.9,1.8,5.3,1.7,5.8c0,0.1,0,0.2,0,0.3
		c0,0.2-0.1,0.4-0.1,0.7c0,0,0,0,0,0.1c0,0.3,0,0.5,0,0.8c0,0.1,0,0.2,0,0.3c0,0.3,0,0.5,0.1,0.7c0,0.2,0,0.3,0.1,0.5
		c0,0,0,0.1,0,0.1v0l0,0.1c0,0.2,0,0.3,0.1,0.5l0.1,0.4l0,0l1,4.6L4,14.5c0.6-0.1,1-0.2,1.2-0.4c0.1-0.1,0.2-0.2,0.2-0.3
		c0-0.2,0-0.4,0-0.7L4.6,9.7C4.6,9.4,4.5,9.1,4.4,9C4.3,8.9,4.2,8.8,4.1,8.8c-0.3-0.1-0.7,0-1.3,0.1l-0.1,0c-0.2-1-0.2-2,0-2.9
		c0.2-1.1,0.7-2,1.7-2.7c0.9-0.7,2.3-1,3.7-1c1.4,0,2.8,0.3,3.7,1c0.9,0.7,1.5,1.6,1.7,2.7c0.2,0.9,0.2,1.9,0,2.9l-0.1,0
		c-0.6-0.1-1.1-0.2-1.3-0.1c-0.1,0-0.2,0.1-0.3,0.2c-0.1,0.1-0.2,0.4-0.2,0.7l-0.7,3.4c-0.1,0.3-0.1,0.5,0,0.7
		c0,0.2,0.1,0.2,0.2,0.3c0.2,0.2,0.6,0.3,1.2,0.4l1.1,0.2l1-4.6l0,0l0.1-0.4c0-0.2,0.1-0.3,0.1-0.5l0-0.1v0c0,0,0-0.1,0-0.1
		c0-0.2,0.1-0.3,0.1-0.5c0-0.2,0.1-0.5,0.1-0.7c0-0.1,0-0.2,0-0.3c0-0.2,0-0.5,0-0.8c0,0,0,0,0-0.1c0-0.2-0.1-0.4-0.1-0.7
		c0-0.1,0-0.2,0-0.3c-0.1-0.4-0.2-0.9-0.4-1.3c0,0,0-0.1,0-0.1c0,0,0-0.1-0.1-0.1c-0.3-0.6-0.7-1.2-1.3-1.6
		c-0.1-0.1-0.2-0.1-0.2-0.2c-0.1-0.1-0.2-0.1-0.3-0.2c0,0-0.1-0.1-0.1-0.1C11.6,2.1,11.4,2,11.3,2C10.4,1.6,9.3,1.3,8,1.3z"/>
</g>
</svg>
