<?xml version="1.0" encoding="utf-8"?>
<!-- Generator: Adobe Illustrator 23.0.0, SVG Export Plug-In . SVG Version: 6.00 Build 0)  -->
<svg version="1.1" id="Layer_1" xmlns="http://www.w3.org/2000/svg" xmlns:xlink="http://www.w3.org/1999/xlink" x="0px" y="0px"
	 viewBox="0 0 16 16" style="enable-background:new 0 0 16 16;" xml:space="preserve">
<style type="text/css">
	.st0{clip-path:url(#SVGID_2_);}
	.st1{fill:#F75049;}
</style>
<g>
	<defs>
		<path id="SVGID_1_" d="M-5.4,11.2c0.1,0.1,0.3,0,0.6,0.2c0.2,0.2,0.2,0.3,0.3,0.4c0.4,0.2,1.3-0.5,1.3-0.5c0,0-0.4,0.3-0.7,0.7
			c-0.2,0.2-0.6,0.7-0.5,1c0.1,0.2,0.3,0.2,0.3,0.3c0,0.3-0.5,0.4-0.4,0.7c0,0.2,0.2,0.3,0.3,0.3c0.3,0.1,0.8-0.2,0.8-0.2
			c0,0-0.3,0.2-0.4,0.5c0,0.1-0.2,0.3-0.1,0.5c0.1,0.1,0.3,0.1,0.4,0.1c0.1,0,0.2-0.1,0.2,0c0,0,0,0.1,0,0.2c0,0.2,0.3,0.3,0.6,0.3
			c0.5,0,0.9-0.5,1-0.4c0.1,0.1-0.5,0.5-0.4,0.9c0,0.1,0.2,0.3,0.4,0.3c0.3,0,0.4-0.3,0.5-0.3c0.1,0.1-0.1,0.7,0.1,0.9
			c0.1,0.1,0.3-0.1,0.6,0c0.2,0.1,0.2,0.1,0.3,0.2C0,17.3,0.4,16.8,1,16.3c0.2-0.2,0.6-0.5,1.1-0.8c-0.3,0.3-0.5,0.6-0.7,0.7
			c-0.4,0.4-0.6,0.6-0.6,0.9c0,0.1,0,0.4,0.2,0.4c0.2,0.1,0.4-0.2,1.1-0.6c0.2-0.1,0.3-0.2,0.4-0.3c0,0-0.3,0.4-0.2,0.7
			c0,0,0.1,0.2,0.2,0.3c0.4,0.3,1.1,0.2,1.2,0.2c0.9-0.2,1.1-0.8,2.1-1.3c0,0,0.1-0.1,0.3-0.2C6.5,16.1,6.7,16,6.8,16
			c0.3-0.2,0.5-0.3,0.6-0.6c0.1-0.3,0.1-0.4,0.2-0.6c0.1-0.1,0.3-0.2,0.4-0.2c0.6-0.2,1.3-1.2,1.4-1.3c0.4-0.6,1.7-1.9,5.2-5.1
			c-4.7,5-6.2,6.6-6.2,6.7c0,0,0,0,0,0c0,0.1-0.2,0.4,0,0.6c0.1,0.1,0.2,0,0.3,0.1c0,0,0,0.1,0,0.1c0,0.2-0.4,0.2-0.4,0.3
			c0,0,0.1,0.1,0.2,0.1c0.3,0.1,0.3,0.2,0.4,0.2c0.2,0.1,0.5-0.1,0.7-0.2c0.2-0.1,0.3-0.2,0.4-0.2c0,0,0,0.2,0,0.3
			c0.1,0.1,0.2,0.1,0.3,0.1c0.3,0,0.5-0.3,0.6-0.2c0.1,0,0,0.2,0.1,0.3c0.1,0.1,0.2,0.1,0.4,0.2c0.2,0.1,0.1,0.3,0.3,0.5
			c0.1,0.1,0.2,0.3,0.4,0.3c0.2,0.1,0.3,0,0.5,0.1c0.3,0.1,0.3,0.2,0.5,0.3c0.2,0,0.3,0,0.4-0.1c0.3-0.1,0.3-0.3,0.5-0.3
			c0.2,0,0.2,0.2,0.5,0.2c0.1,0,0.2,0,0.3,0c0.1-0.1,0-0.4,0.1-0.5c0.1-0.1,0.2-0.1,0.3,0c0.1,0.1,0.1,0.1,0.1,0.2
			c0.2,0.2,1.1-0.1,1.4-0.6c0-0.1,0.1-0.2,0.2-0.3c0.2-0.1,0.3,0,0.5,0c0.3,0,0.5-0.2,1.1-1c0,0,0.1-0.1,0.6-0.6
			c0.9-1,1-1.1,1.1-1.4c0-0.5,0-0.7,0-0.7c0-0.1-0.1-0.3,0-0.4c0.1-0.1,0.1,0,0.2-0.1c0.1-0.1-0.1-0.4,0-0.8c0,0,0,0,0-0.3
			c0.1-0.5,0.1-0.6,0-0.7c-0.1-0.1-0.2-0.1-0.3-0.1c-0.2,0-0.3,0.1-0.4,0.1c-0.4,0.5-0.8,0.9-1.1,1.4c0.2-0.3,0.3-0.6,0.4-0.7
			c0.2-0.2,0.3-0.4,0.5-0.7c0-0.1,0.1-0.2,0.2-0.4c0.1-0.2,0.2-0.5,0.1-0.8c0-0.1-0.1-0.2-0.1-0.3c0-0.2,0-0.3,0-0.4
			c0-0.1-0.1-0.1-0.2-0.1c-0.1-0.1,0-0.3,0-0.6c0-0.2-0.1-0.1-0.1-0.3c-0.1-0.3,0.1-0.4,0-0.7c0-0.1,0-0.2-0.1-0.3
			c-0.1-0.1-0.4,0.1-0.6,0c-0.2-0.1-0.1-0.3-0.3-0.4c-0.1,0-0.2,0.1-0.4,0c0,0-0.3,0-0.3-0.1c0-0.1,0.1-0.3,0.3-0.4
			c0.4-0.2,0.8,0.1,0.9,0c0-0.1-0.1-0.2-0.2-0.3c-1-0.9-1-1-1.3-1.2c-0.3-0.2-0.3-0.1-0.7-0.3c-0.5-0.3-1.1-0.6-1.1-1
			c0-0.2,0.2-0.3,0.1-0.6c0-0.2-0.1-0.5-0.3-0.6c-0.2-0.1-0.3,0.1-0.6,0.1c-0.3,0-0.3-0.2-0.6-0.3c-0.4,0-0.5,0.4-0.8,0.4
			c-0.2,0-0.2-0.2-0.4-0.3c-0.2-0.1-0.4,0-0.5,0c-1,1.1-2.6,2.7-4.6,4.8c-1.6,1.7-2.1,2.2-3,3.1c-2.6,2.5-5.4,4.5-5.5,4.3
			c-0.1-0.1,1.2-1.3,5.5-5.4c3-2.8,5.4-5.2,7.1-6.8c0-0.3-0.1-0.5-0.2-0.5c-0.2-0.1-0.5,0.2-0.8,0c-0.1-0.1-0.3-0.2-0.3-0.4
			c0-0.2,0-0.3-0.1-0.4c-0.1-0.1-0.1,0-0.2-0.1C9.8,0.2,9.9,0,9.8-0.1c-0.2-0.1-0.4,0-0.4-0.2c0-0.1,0-0.1,0-0.3
			c0-0.1-0.2-0.1-0.2-0.3c0-0.2,0.3-0.3,0.3-0.6c0-0.2-0.1-0.2-0.1-0.5c0-0.5,0.6-0.6,0.5-0.9C10-3,9.8-3.3,9.6-3.3
			c-0.3,0-0.5,0.4-0.8,0.4c-0.4,0-0.6-0.6-0.9-0.5C7.5-3.4,7.5-3,7.2-3C7-3,6.9-3.1,6.8-3.1C6.6-3,6.6-2.8,6.5-2.8
			c-0.1,0-0.1,0-0.2,0C6.1-2.8,5.8-2.4,5.6-2c-0.1,0.4,0,0.5-0.2,0.8C5.3-1,5.2-0.9,5.1-0.9c-0.5,0.4-1.2,1-1.8,1.6
			C2.5,1.5,2.4,1.8,1.8,2.1c-0.1,0-0.3,0.1-0.5,0.3C1,2.7,0.9,3,0.8,3.3C0.4,4,0,4.1-0.9,5.3c0,0.1-0.2,0.3-0.2,0.4
			c0.1,0.1,1.2-1.1,1.4-1c0.1,0.1,0.1,0.2,0.1,0.2C0.4,5.5-0.4,5.7-1.5,6.6C-1.7,6.9-1.6,6.8-2,7.1c-0.8,0.7-1.7,1.3-2,1.7
			c-0.1,0.3-0.2,0.6-0.2,0.6c0,0.1,0,0.1-0.1,0.2c-0.1,0.3-0.2,0.4-0.7,0.9C-5.4,11-5.4,11.1-5.4,11.2z M11.6,12
			c0.3-0.4,0.6-0.7,0.9-0.9c-0.2,0.3-0.4,0.6-0.8,0.9c-0.1,0.1-0.3,0.2-0.4,0.3C11.4,12.2,11.5,12.1,11.6,12z M11.8,13.2
			c-0.5,0.5-1,1-1.4,1.4c0.3-0.5,0.8-1,1.3-1.5c0.3-0.3,0.6-0.6,0.9-0.9C12.4,12.5,12.1,12.9,11.8,13.2z M17.4,13.2
			c-0.1,0.2-0.2,0.4-0.4,0.6c-0.1,0.1-0.2,0.2-0.2,0.2c0-0.1,0.1-0.2,0.2-0.3C17,13.5,17.2,13.4,17.4,13.2z M16.5,5.1
			c0.1-0.1,0.2-0.2,0.3-0.2c0,0,0,0.2-0.1,0.3c-0.1,0.1-0.3,0.2-0.3,0.2C16.4,5.3,16.4,5.2,16.5,5.1z M16.8,9.7
			c-0.3,0.4-0.7,0.8-1,1.2c0-0.1,0-0.2,0-0.3C16.2,10.3,16.5,10,16.8,9.7z M15.1,3.7c0,0,0.2,0.2,0.5,0.6c0.1,0.1,0.2,0.2,0.2,0.3
			c0,0.1-0.1,0.1-0.2,0.2c-0.1,0.1-0.3,0.2-0.4,0.5c0-0.2,0.1-0.3,0.1-0.4c0-0.1,0.1-0.2,0.1-0.3c0-0.1-0.1,0-0.1-0.1
			c-0.1-0.1,0-0.2,0-0.3C15.2,3.9,15.1,3.7,15.1,3.7z M15.2,15c-0.1,0.2-0.2,0.4-0.4,0.6c-0.1,0.1-0.2,0.2-0.2,0.2
			c0-0.1,0.1-0.2,0.2-0.3C14.9,15.3,15,15.1,15.2,15z M12.4,8.4c-1,1.3-2.3,2.8-3.8,4.2c-1.1,1.1-2.2,2-3.2,2.8
			c0.7-0.7,1.5-1.4,2.2-2.2C9.3,11.6,10.9,10,12.4,8.4z M7.5,12.6c-0.8,0.8-1.6,1.5-2.4,2c0.4-0.5,0.9-1,1.4-1.6
			c1.1-1.2,2.3-2.4,3.4-3.4C9.3,10.6,8.5,11.6,7.5,12.6z M5.6,10.8c-1.1,0.9-2.2,1.8-3.2,2.6c0.7-0.7,1.4-1.4,2.2-2.1
			c1.6-1.4,3.1-2.7,4.6-3.8C8.2,8.6,7,9.7,5.6,10.8z M3.9,10.7C5.5,9.3,7.1,8,8.5,6.9C7.4,8,6.2,9.1,4.9,10.2
			c-1.1,0.9-2.2,1.8-3.2,2.6C2.4,12.2,3.2,11.4,3.9,10.7z M-1.8,12.3c0.7-0.7,1.4-1.4,2.2-2.1C2,8.7,3.5,7.4,5,6.3
			C3.9,7.4,2.7,8.5,1.4,9.6C0.3,10.6-0.8,11.5-1.8,12.3z M7.7,4.5C6.2,6.2,4.5,8,2.6,9.8c-0.9,0.8-1.8,1.5-2.6,2.2
			c1-1,1.9-1.9,2.9-2.9C4.4,7.6,6.1,6,7.7,4.5z M7.3,2.9C5.7,4.4,4,6,2.3,7.6C0.8,8.8-0.6,10-1.9,11.1c1.1-1.1,2.3-2.1,3.4-3.2
			C3.5,6.2,5.4,4.5,7.3,2.9z M7,1.9C5.9,3.1,4.6,4.6,2.9,6c-1.4,1.2-2.7,2.2-4,3C0,8,1.1,7,2.2,6.1C3.8,4.7,5.4,3.3,7,1.9z M-1,7.6
			c1.2-1.1,2.4-2.1,3.6-3C2.3,4.7,2.1,4.9,1.9,5.1C1.1,5.8,0.4,6.6-0.3,7.3C-0.2,7.2-0.1,7.1,0,7C0,7,0.1,6.9,0.1,6.9
			c1.3-1.1,2.4-2.2,3.5-3.3c0.9-0.8,1.8-1.5,2.7-2.1C5.2,2.6,4,3.7,2.7,4.9c-1,0.9-2,1.7-2.9,2.4c-1,0.9-2.1,1.7-3,2.5
			C-2.5,9-1.8,8.3-1,7.6z"/>
	</defs>
	<clipPath id="SVGID_2_">
		<use xlink:href="#SVGID_1_"  style="overflow:visible;"/>
	</clipPath>
	<g transform="translate(-592 -32)" class="st0">
		<path class="st1" d="M597,33v4h-2.5c0,0,2.3,5,5.5,9.3c3.1-4.4,5.5-9.3,5.5-9.3H603v-4H597z M598,34h4v4h1.8
			c-0.7,1.3-1.9,3.6-3.8,6.5c-1.9-2.9-3.2-5.2-3.8-6.5h1.8V34z M594,47v1h12v-1H594z"/>
	</g>
</g>
</svg>
