<?xml version="1.0" encoding="utf-8"?>
<!-- Generator: Adobe Illustrator 23.0.0, SVG Export Plug-In . SVG Version: 6.00 Build 0)  -->
<svg version="1.1" id="Layer_1" xmlns="http://www.w3.org/2000/svg" xmlns:xlink="http://www.w3.org/1999/xlink" x="0px" y="0px"
	 viewBox="0 0 16 16" style="enable-background:new 0 0 16 16;" xml:space="preserve">
<style type="text/css">
	.st0{clip-path:url(#SVGID_2_);fill:#F75049;}
</style>
<g>
	<defs>
		<path id="SVGID_1_" d="M22.7,6.3c-0.1-0.1-0.3,0-0.6-0.2C22,5.9,22,5.7,21.9,5.6c-0.4-0.2-1.3,0.5-1.3,0.5c0,0,0.4-0.3,0.7-0.7
			c0.2-0.2,0.6-0.7,0.5-1c-0.1-0.2-0.3-0.2-0.3-0.3c0-0.3,0.5-0.4,0.4-0.7c0-0.2-0.2-0.3-0.3-0.3c-0.3-0.1-0.8,0.2-0.8,0.2
			c0,0,0.3-0.2,0.4-0.5c0-0.1,0.2-0.3,0.1-0.5c-0.1-0.1-0.3-0.1-0.4-0.1c-0.1,0-0.2,0.1-0.2,0c0,0,0-0.1,0-0.2
			c0-0.2-0.3-0.3-0.6-0.3c-0.5,0-0.9,0.5-1,0.4c-0.1-0.1,0.5-0.5,0.4-0.9c0-0.1-0.2-0.3-0.4-0.3c-0.3,0-0.4,0.3-0.5,0.3
			c-0.1-0.1,0.1-0.7-0.1-0.9c-0.1-0.1-0.3,0.1-0.6,0c-0.2-0.1-0.2-0.1-0.3-0.2c-0.3-0.1-0.8,0.4-1.3,0.9c-0.2,0.2-0.6,0.5-1.1,0.8
			c0.3-0.3,0.5-0.6,0.7-0.7c0.4-0.4,0.6-0.6,0.6-0.9c0-0.1,0-0.4-0.2-0.4c-0.2-0.1-0.4,0.2-1.1,0.6c-0.2,0.1-0.3,0.2-0.4,0.3
			c0,0,0.3-0.4,0.2-0.7c0,0-0.1-0.2-0.2-0.3c-0.4-0.3-1.1-0.2-1.2-0.2c-0.9,0.2-1.1,0.8-2.1,1.3c0,0-0.1,0.1-0.3,0.2
			c-0.4,0.2-0.6,0.3-0.7,0.4c-0.3,0.2-0.5,0.3-0.6,0.6C9.9,2.4,9.9,2.5,9.7,2.7C9.6,2.8,9.4,2.9,9.4,2.9C8.8,3,8.1,4.1,8,4.2
			C7.6,4.8,6.3,6.1,2.8,9.3c4.7-5,6.2-6.6,6.2-6.7c0,0,0,0,0,0C9,2.5,9.2,2.1,9,2C9,1.9,8.8,2,8.7,1.9c0,0,0-0.1,0-0.1
			c0-0.2,0.4-0.2,0.4-0.3c0,0-0.1-0.1-0.2-0.1C8.6,1.2,8.6,1.1,8.5,1C8.3,1,8,1.1,7.8,1.2C7.6,1.3,7.5,1.4,7.5,1.4c0,0,0-0.2,0-0.3
			C7.4,1,7.2,1.1,7.1,1.1c-0.3,0-0.5,0.3-0.6,0.2c-0.1,0,0-0.2-0.1-0.3C6.3,0.8,6.2,0.9,6.1,0.8C5.9,0.6,6,0.5,5.8,0.2
			C5.7,0.1,5.6,0,5.4-0.1c-0.2-0.1-0.3,0-0.5-0.1C4.6-0.2,4.6-0.4,4.4-0.4c-0.2,0-0.3,0-0.4,0.1C3.6-0.2,3.6,0,3.5,0
			C3.3,0,3.3-0.2,2.9-0.3c-0.1,0-0.2,0-0.3,0c-0.1,0.1,0,0.4-0.1,0.5c-0.1,0.1-0.2,0.1-0.3,0C2.2,0.2,2.2,0.1,2.2,0
			C2-0.2,1,0.1,0.8,0.7c0,0.1-0.1,0.2-0.2,0.3C0.4,1,0.2,1,0.1,1c-0.3,0-0.5,0.2-1.1,1c0,0-0.1,0.1-0.6,0.6c-0.9,1-1,1.1-1.1,1.4
			c0,0.5,0,0.7,0,0.7c0,0.1,0.1,0.3,0,0.4c-0.1,0.1-0.1,0-0.2,0.1c-0.1,0.1,0.1,0.4,0,0.8c0,0,0,0,0,0.3c-0.1,0.5-0.1,0.6,0,0.7
			C-2.7,7-2.6,7-2.5,7c0.2,0,0.3-0.1,0.4-0.1C-1.8,6.4-1.4,5.9-1,5.5C-1.2,5.8-1.3,6-1.5,6.2c-0.2,0.2-0.3,0.4-0.5,0.7
			C-2,7-2,7.1-2.1,7.3c-0.1,0.2-0.2,0.5-0.1,0.8c0,0.1,0.1,0.2,0.1,0.3c0,0.2,0,0.3,0,0.4c0,0.1,0.1,0.1,0.2,0.1
			c0.1,0.1,0,0.3,0,0.6c0,0.2,0.1,0.1,0.1,0.3c0.1,0.3-0.1,0.4,0,0.7c0,0.1,0,0.2,0.1,0.3c0.1,0.1,0.4-0.1,0.6,0
			c0.2,0.1,0.1,0.3,0.3,0.4c0.1,0,0.2-0.1,0.4,0c0,0,0.3,0,0.3,0.1c0,0.1-0.1,0.3-0.3,0.4c-0.4,0.2-0.8-0.1-0.9,0
			c0,0.1,0.1,0.2,0.2,0.3c1,0.9,1,1,1.3,1.2c0.3,0.2,0.3,0.1,0.7,0.3c0.5,0.3,1.1,0.6,1.1,1c0,0.2-0.2,0.3-0.1,0.6
			c0,0.2,0.1,0.5,0.3,0.6c0.2,0.1,0.3-0.1,0.6-0.1c0.3,0,0.3,0.2,0.6,0.3c0.4,0,0.5-0.4,0.8-0.4c0.2,0,0.2,0.2,0.4,0.3
			c0.2,0.1,0.4,0,0.5,0c1-1.1,2.6-2.7,4.6-4.8c1.6-1.7,2.1-2.2,3-3.1c2.6-2.5,5.4-4.5,5.5-4.3c0.1,0.1-1.2,1.3-5.5,5.4
			c-3,2.8-5.4,5.2-7.1,6.8c0,0.3,0.1,0.5,0.2,0.5c0.2,0.1,0.5-0.2,0.8,0C6.8,16.3,7,16.4,7,16.6c0,0.2,0,0.3,0.1,0.4
			c0.1,0.1,0.1,0,0.2,0.1c0.2,0.2,0.1,0.3,0.3,0.5c0.2,0.1,0.4,0,0.4,0.2c0,0.1,0,0.1,0,0.3c0,0.1,0.2,0.1,0.2,0.3
			c0,0.2-0.3,0.3-0.3,0.6c0,0.2,0.1,0.2,0.1,0.5c0,0.5-0.6,0.6-0.5,0.9c0,0.2,0.2,0.4,0.4,0.5c0.3,0,0.5-0.4,0.8-0.4
			c0.4,0,0.6,0.6,0.9,0.5c0.3,0,0.3-0.4,0.6-0.4c0.2,0,0.3,0.1,0.4,0c0.1-0.1,0.1-0.2,0.3-0.3c0.1,0,0.1,0,0.2,0
			c0.2,0,0.6-0.4,0.7-0.8c0.1-0.4,0-0.5,0.2-0.8c0.1-0.2,0.3-0.3,0.4-0.4c0.5-0.4,1.2-1,1.8-1.6c0.8-0.8,0.9-1.1,1.5-1.4
			c0.1,0,0.3-0.1,0.5-0.3c0.3-0.3,0.4-0.6,0.6-0.8c0.4-0.8,0.8-0.8,1.7-2c0-0.1,0.2-0.3,0.2-0.4c-0.1-0.1-1.2,1.1-1.4,1
			c-0.1-0.1-0.1-0.2-0.1-0.2c0.1-0.6,0.8-0.8,1.9-1.7c0.3-0.2,0.2-0.2,0.5-0.5c0.8-0.7,1.7-1.3,2-1.7c0.1-0.3,0.2-0.6,0.2-0.6
			c0-0.1,0-0.1,0.1-0.2c0.1-0.3,0.2-0.4,0.7-0.9C22.7,6.5,22.8,6.4,22.7,6.3z M5.8,5.5C5.5,5.9,5.1,6.2,4.9,6.4
			C5,6.1,5.3,5.8,5.6,5.4c0.1-0.1,0.3-0.2,0.4-0.3C6,5.3,5.9,5.4,5.8,5.5z M5.6,4.3c0.5-0.5,1-1,1.4-1.4c-0.3,0.5-0.8,1-1.3,1.5
			C5.4,4.7,5.1,5,4.8,5.3C5,4.9,5.3,4.6,5.6,4.3z M0,4.3c0.1-0.2,0.2-0.4,0.4-0.6c0.1-0.1,0.2-0.2,0.2-0.2c0,0.1-0.1,0.2-0.2,0.3
			C0.3,3.9,0.2,4.1,0,4.3z M0.8,12.4c-0.1,0.1-0.2,0.2-0.3,0.2c0,0,0-0.2,0.1-0.3c0.1-0.1,0.3-0.2,0.3-0.2C1,12.2,0.9,12.3,0.8,12.4
			z M0.5,7.8c0.3-0.4,0.7-0.8,1-1.2c0,0.1,0,0.2,0,0.3C1.2,7.2,0.9,7.5,0.5,7.8z M2.3,13.8c0,0-0.2-0.2-0.5-0.6
			c-0.1-0.1-0.2-0.2-0.2-0.3c0-0.1,0.1-0.1,0.2-0.2c0.1-0.1,0.3-0.2,0.4-0.5c0,0.2-0.1,0.3-0.1,0.4C2.1,12.8,2,12.9,2,13
			c0,0.1,0.1,0,0.1,0.1c0.1,0.1,0,0.2,0,0.3C2.1,13.6,2.3,13.8,2.3,13.8z M2.2,2.5c0.1-0.2,0.2-0.4,0.4-0.6c0.1-0.1,0.2-0.2,0.2-0.2
			c0,0.1-0.1,0.2-0.2,0.3C2.5,2.2,2.3,2.3,2.2,2.5z M5,9.1c1-1.3,2.3-2.8,3.8-4.2c1.1-1.1,2.2-2,3.2-2.8c-0.7,0.7-1.5,1.4-2.2,2.2
			C8.1,5.8,6.5,7.5,5,9.1z M9.9,4.8c0.8-0.8,1.6-1.5,2.4-2c-0.4,0.5-0.9,1-1.4,1.6C9.7,5.6,8.6,6.7,7.5,7.8C8.1,6.9,8.9,5.9,9.9,4.8
			z M11.7,6.6c1.1-0.9,2.2-1.8,3.2-2.6c-0.7,0.7-1.4,1.4-2.2,2.1C11.1,7.6,9.6,8.9,8.1,10C9.2,8.9,10.4,7.8,11.7,6.6z M13.4,6.8
			c-1.6,1.4-3.1,2.7-4.6,3.8c1.1-1.1,2.3-2.2,3.6-3.4c1.1-0.9,2.2-1.8,3.2-2.6C15,5.3,14.2,6,13.4,6.8z M19.2,5.2
			c-0.7,0.7-1.4,1.4-2.2,2.1c-1.6,1.4-3.1,2.7-4.6,3.8c1.1-1.1,2.3-2.2,3.6-3.4C17.1,6.9,18.1,6,19.2,5.2z M9.7,13
			c1.4-1.7,3.1-3.5,5.1-5.3c0.9-0.8,1.8-1.5,2.6-2.2c-1,1-1.9,1.9-2.9,2.9C12.9,9.9,11.3,11.4,9.7,13z M10.1,14.6
			c1.6-1.5,3.2-3.1,5-4.7c1.4-1.3,2.8-2.4,4.2-3.5c-1.1,1.1-2.3,2.1-3.4,3.2C13.9,11.3,12,13,10.1,14.6z M10.3,15.6
			c1.1-1.3,2.5-2.7,4.1-4.1c1.4-1.2,2.7-2.2,4-3c-1.1,1-2.2,1.9-3.3,2.9C13.5,12.8,11.9,14.2,10.3,15.6z M18.4,9.9
			c-1.2,1.1-2.4,2.1-3.6,3c0.2-0.2,0.4-0.4,0.6-0.6c0.8-0.7,1.5-1.4,2.2-2.1c-0.1,0.1-0.2,0.1-0.3,0.2c-0.1,0-0.1,0.1-0.2,0.2
			c-1.3,1.1-2.4,2.2-3.5,3.3c-0.9,0.8-1.8,1.5-2.7,2.1c1.1-1.1,2.3-2.2,3.6-3.4c1-0.9,2-1.7,2.9-2.4c1-0.9,2.1-1.7,3-2.5
			C19.9,8.5,19.2,9.2,18.4,9.9z"/>
	</defs>
	<clipPath id="SVGID_2_">
		<use xlink:href="#SVGID_1_"  style="overflow:visible;"/>
	</clipPath>
	<path class="st0" d="M14.2,1.7c-0.2,0-0.4,0-0.5,0.1c-0.2,0-0.3,0.1-0.4,0.2c-0.1,0.1-0.2,0.2-0.3,0.4c-0.1,0.2-0.1,0.4-0.1,0.6
		c0,0.2,0,0.5,0.1,0.6C13,3.9,13.1,4,13.2,4.1c0.1,0.1,0.3,0.2,0.4,0.2c0.2,0,0.3,0.1,0.5,0.1c0.2,0,0.4,0,0.5-0.1
		c0.2,0,0.3-0.1,0.4-0.2c0.1-0.1,0.2-0.2,0.3-0.4c0.1-0.2,0.1-0.4,0.1-0.6c0-0.3,0-0.5-0.1-0.6c-0.1-0.2-0.2-0.3-0.3-0.4
		c-0.1-0.1-0.3-0.2-0.4-0.2C14.5,1.8,14.4,1.7,14.2,1.7z"/>
	<polygon class="st0" points="4.5,2.8 0.5,15 3.1,15 4.2,11.8 8,11.8 9,15 11.6,15 7.6,2.8 	"/>
	<path class="st0" d="M6.1,4.5c0,0.2,0.1,0.4,0.1,0.7C6.3,5.5,6.3,5.8,6.4,6c0.1,0.3,0.1,0.5,0.2,0.7C6.7,7,6.7,7.2,6.8,7.3l0.8,2.4
		h-3l0.8-2.4c0-0.1,0-0.2,0.1-0.3c0-0.1,0.1-0.3,0.1-0.4c0-0.2,0.1-0.3,0.1-0.5c0.1-0.2,0.1-0.4,0.1-0.6C5.9,5.3,5.9,5.1,6,4.9
		C6,4.8,6,4.6,6.1,4.5L6.1,4.5z"/>
	<rect x="12.8" y="5.5" class="st0" width="2.7" height="9.5"/>
</g>
</svg>
