<?xml version="1.0" encoding="utf-8"?>
<!-- Generator: Adobe Illustrator 23.0.0, SVG Export Plug-In . SVG Version: 6.00 Build 0)  -->
<svg version="1.1" id="Layer_1" xmlns="http://www.w3.org/2000/svg" xmlns:xlink="http://www.w3.org/1999/xlink" x="0px" y="0px"
	 viewBox="0 0 16 16" style="enable-background:new 0 0 16 16;" xml:space="preserve">
<style type="text/css">
	.st0{clip-path:url(#SVGID_2_);}
	.st1{fill:#F75049;}
	.st2{clip-path:url(#SVGID_2_);fill:#F75049;}
</style>
<g>
	<defs>
		<path id="SVGID_1_" d="M21,6.2c-0.1-0.1-0.3,0-0.6-0.2c-0.2-0.2-0.2-0.3-0.3-0.4c-0.4-0.2-1.3,0.5-1.3,0.5c0,0,0.4-0.3,0.7-0.7
			c0.2-0.2,0.6-0.7,0.5-1C20,4.2,19.8,4.2,19.8,4c0-0.3,0.5-0.4,0.4-0.7c0-0.2-0.2-0.3-0.3-0.3c-0.3-0.1-0.8,0.2-0.8,0.2
			c0,0,0.3-0.2,0.4-0.5c0-0.1,0.2-0.3,0.1-0.5c-0.1-0.1-0.3-0.1-0.4-0.1c-0.1,0-0.2,0.1-0.2,0c0,0,0-0.1,0-0.2
			c0-0.2-0.3-0.3-0.6-0.3c-0.5,0-0.9,0.5-1,0.4c-0.1-0.1,0.5-0.5,0.4-0.9c0-0.1-0.2-0.3-0.4-0.3c-0.3,0-0.4,0.3-0.5,0.3
			c-0.1-0.1,0.1-0.7-0.1-0.9c-0.1-0.1-0.3,0.1-0.6,0c-0.2-0.1-0.2-0.1-0.3-0.2c-0.3-0.1-0.8,0.4-1.3,0.9c-0.2,0.2-0.6,0.5-1.1,0.8
			c0.3-0.3,0.5-0.6,0.7-0.7c0.4-0.4,0.6-0.6,0.6-0.9c0-0.1,0-0.4-0.2-0.4c-0.2-0.1-0.4,0.2-1.1,0.6c-0.2,0.1-0.3,0.2-0.4,0.3
			c0,0,0.3-0.4,0.2-0.7c0,0-0.1-0.2-0.2-0.3c-0.4-0.3-1.1-0.2-1.2-0.2c-0.9,0.2-1.1,0.8-2.1,1.3c0,0-0.1,0.1-0.3,0.2
			C9.1,1.3,8.9,1.4,8.8,1.5C8.6,1.6,8.4,1.8,8.3,2C8.1,2.3,8.2,2.5,8,2.6C7.9,2.8,7.7,2.8,7.7,2.8C7.1,3,6.4,4,6.3,4.1
			C5.9,4.7,4.6,6,1.1,9.2c4.7-5,6.2-6.6,6.2-6.7c0,0,0,0,0,0c0-0.1,0.2-0.4,0-0.6C7.2,1.9,7.1,1.9,7,1.8c0,0,0-0.1,0-0.1
			c0-0.2,0.4-0.2,0.4-0.3c0,0-0.1-0.1-0.2-0.1C6.9,1.1,6.9,1,6.8,1C6.6,0.9,6.3,1,6.1,1.1C5.9,1.2,5.8,1.4,5.8,1.3c0,0,0-0.2,0-0.3
			C5.7,1,5.5,1,5.4,1C5.1,1,4.9,1.3,4.8,1.2c-0.1,0,0-0.2-0.1-0.3C4.6,0.8,4.5,0.8,4.4,0.7C4.2,0.6,4.3,0.4,4.1,0.2
			C4,0.1,3.9-0.1,3.7-0.2c-0.2-0.1-0.3,0-0.5-0.1C2.9-0.3,2.9-0.5,2.7-0.5c-0.2,0-0.3,0-0.4,0.1C1.9-0.3,1.9-0.1,1.8-0.1
			c-0.2,0-0.2-0.2-0.5-0.2c-0.1,0-0.2,0-0.3,0C0.8-0.2,1,0,0.9,0.2c-0.1,0.1-0.2,0.1-0.3,0C0.5,0.1,0.5,0,0.5,0C0.3-0.3-0.7,0-1,0.6
			C-1,0.7-1,0.8-1.2,0.9c-0.2,0.1-0.3,0-0.5,0c-0.3,0-0.5,0.2-1.1,1c0,0-0.1,0.1-0.6,0.6c-0.9,1-1,1.1-1.1,1.4c0,0.5,0,0.7,0,0.7
			c0,0.1,0.1,0.3,0,0.4C-4.3,5-4.4,5-4.4,5.1c-0.1,0.1,0.1,0.4,0,0.8c0,0,0,0,0,0.3c-0.1,0.5-0.1,0.6,0,0.7c0.1,0.1,0.2,0.1,0.3,0.1
			c0.2,0,0.3-0.1,0.4-0.1c0.4-0.5,0.8-0.9,1.1-1.4C-2.9,5.7-3,6-3.2,6.1c-0.2,0.2-0.3,0.4-0.5,0.7c0,0.1-0.1,0.2-0.2,0.4
			C-3.9,7.5-4,7.7-3.9,8c0,0.1,0.1,0.2,0.1,0.3c0,0.2,0,0.3,0,0.4c0,0.1,0.1,0.1,0.2,0.1c0.1,0.1,0,0.3,0,0.6c0,0.2,0.1,0.1,0.1,0.3
			c0.1,0.3-0.1,0.4,0,0.7c0,0.1,0,0.2,0.1,0.3c0.1,0.1,0.4-0.1,0.6,0c0.2,0.1,0.1,0.3,0.3,0.4c0.1,0,0.2-0.1,0.4,0
			c0,0,0.3,0,0.3,0.1c0,0.1-0.1,0.3-0.3,0.4c-0.4,0.2-0.8-0.1-0.9,0c0,0.1,0.1,0.2,0.2,0.3c1,0.9,1,1,1.3,1.2
			c0.3,0.2,0.3,0.1,0.7,0.3c0.5,0.3,1.1,0.6,1.1,1c0,0.2-0.2,0.3-0.1,0.6c0,0.2,0.1,0.5,0.3,0.6c0.2,0.1,0.3-0.1,0.6-0.1
			c0.3,0,0.3,0.2,0.6,0.3c0.4,0,0.5-0.4,0.8-0.4c0.2,0,0.2,0.2,0.4,0.3c0.2,0.1,0.4,0,0.5,0c1-1.1,2.6-2.7,4.6-4.8
			c1.6-1.7,2.1-2.2,3-3.1c2.6-2.5,5.4-4.5,5.5-4.3c0.1,0.1-1.2,1.3-5.5,5.4c-3,2.8-5.4,5.2-7.1,6.8c0,0.3,0.1,0.5,0.2,0.5
			c0.2,0.1,0.5-0.2,0.8,0c0.1,0.1,0.3,0.2,0.3,0.4c0,0.2,0,0.3,0.1,0.4c0.1,0.1,0.1,0,0.2,0.1c0.2,0.2,0.1,0.3,0.3,0.5
			c0.2,0.1,0.4,0,0.4,0.2c0,0.1,0,0.1,0,0.3c0,0.1,0.2,0.1,0.2,0.3c0,0.2-0.3,0.3-0.3,0.6c0,0.2,0.1,0.2,0.1,0.5
			c0,0.5-0.6,0.6-0.5,0.9c0,0.2,0.2,0.4,0.4,0.5c0.3,0,0.5-0.4,0.8-0.4c0.4,0,0.6,0.6,0.9,0.5c0.3,0,0.3-0.4,0.6-0.4
			c0.2,0,0.3,0.1,0.4,0C9,20.4,9,20.2,9.2,20.2c0.1,0,0.1,0,0.2,0c0.2,0,0.6-0.4,0.7-0.8c0.1-0.4,0-0.5,0.2-0.8
			c0.1-0.2,0.3-0.3,0.4-0.4c0.5-0.4,1.2-1,1.8-1.6c0.8-0.8,0.9-1.1,1.5-1.4c0.1,0,0.3-0.1,0.5-0.3c0.3-0.3,0.4-0.6,0.6-0.8
			c0.4-0.8,0.8-0.8,1.7-2c0-0.1,0.2-0.3,0.2-0.4c-0.1-0.1-1.2,1.1-1.4,1c-0.1-0.1-0.1-0.2-0.1-0.2c0.1-0.6,0.8-0.8,1.9-1.7
			c0.3-0.2,0.2-0.2,0.5-0.5c0.8-0.7,1.7-1.3,2-1.7C19.7,8.3,19.8,8,19.8,8c0-0.1,0-0.1,0.1-0.2C20,7.5,20.1,7.4,20.5,7
			C21,6.4,21.1,6.3,21,6.2z M4.1,5.5C3.8,5.8,3.4,6.1,3.1,6.3C3.3,6,3.6,5.7,3.9,5.4c0.1-0.1,0.3-0.2,0.4-0.3
			C4.3,5.2,4.2,5.3,4.1,5.5z M3.9,4.2c0.5-0.5,1-1,1.4-1.4C4.9,3.3,4.5,3.8,4,4.3C3.7,4.6,3.4,4.9,3.1,5.2C3.3,4.9,3.6,4.6,3.9,4.2z
			 M-1.7,4.2C-1.6,4-1.5,3.8-1.3,3.6C-1.2,3.5-1.1,3.4-1,3.4c0,0.1-0.1,0.2-0.2,0.3C-1.4,3.9-1.5,4.1-1.7,4.2z M-0.9,12.3
			c-0.1,0.1-0.2,0.2-0.3,0.2c0,0,0-0.2,0.1-0.3c0.1-0.1,0.3-0.2,0.3-0.2C-0.7,12.1-0.8,12.2-0.9,12.3z M-1.2,7.7
			c0.3-0.4,0.7-0.8,1-1.2c0,0.1,0,0.2,0,0.3C-0.5,7.1-0.8,7.4-1.2,7.7z M0.6,13.7c0,0-0.2-0.2-0.5-0.6c-0.1-0.1-0.2-0.2-0.2-0.3
			c0-0.1,0.1-0.1,0.2-0.2c0.1-0.1,0.3-0.2,0.4-0.5c0,0.2-0.1,0.3-0.1,0.4c0,0.1-0.1,0.2-0.1,0.3c0,0.1,0.1,0,0.1,0.1
			c0.1,0.1,0,0.2,0,0.3C0.4,13.5,0.6,13.7,0.6,13.7z M0.5,2.4C0.5,2.2,0.7,2,0.9,1.8C1,1.7,1.1,1.6,1.1,1.6C1.1,1.7,1,1.7,1,1.8
			C0.8,2.1,0.6,2.3,0.5,2.4z M3.3,9c1-1.3,2.3-2.8,3.8-4.2c1.1-1.1,2.2-2,3.2-2.8C9.5,2.7,8.8,3.4,8,4.1C6.4,5.8,4.8,7.4,3.3,9z
			 M8.2,4.8C9,4,9.8,3.3,10.5,2.7c-0.4,0.5-0.9,1-1.4,1.6C8,5.5,6.9,6.7,5.8,7.7C6.4,6.8,7.2,5.8,8.2,4.8z M10,6.6
			c1.1-0.9,2.2-1.8,3.2-2.6c-0.7,0.7-1.4,1.4-2.2,2.1C9.4,7.5,7.9,8.8,6.4,9.9C7.5,8.8,8.7,7.7,10,6.6z M11.7,6.7
			c-1.6,1.4-3.1,2.7-4.6,3.8c1.1-1.1,2.3-2.2,3.6-3.4c1.1-0.9,2.2-1.8,3.2-2.6C13.2,5.3,12.5,6,11.7,6.7z M17.5,5.2
			c-0.7,0.7-1.4,1.4-2.2,2.1c-1.6,1.4-3.1,2.7-4.6,3.8c1.1-1.1,2.3-2.2,3.6-3.4C15.4,6.8,16.4,6,17.5,5.2z M8,12.9
			c1.4-1.7,3.1-3.5,5.1-5.3c0.9-0.8,1.8-1.5,2.6-2.2c-1,1-1.9,1.9-2.9,2.9C11.2,9.9,9.6,11.4,8,12.9z M8.4,14.5
			c1.6-1.5,3.2-3.1,5-4.7c1.4-1.3,2.8-2.4,4.2-3.5c-1.1,1.1-2.3,2.1-3.4,3.2C12.2,11.3,10.3,12.9,8.4,14.5z M8.6,15.5
			c1.1-1.3,2.5-2.7,4.1-4.1c1.4-1.2,2.7-2.2,4-3c-1.1,1-2.2,1.9-3.3,2.9C11.8,12.7,10.2,14.1,8.6,15.5z M16.7,9.8
			c-1.2,1.1-2.4,2.1-3.6,3c0.2-0.2,0.4-0.4,0.6-0.6c0.8-0.7,1.5-1.4,2.2-2.1c-0.1,0.1-0.2,0.1-0.3,0.2c-0.1,0-0.1,0.1-0.2,0.2
			c-1.3,1.1-2.4,2.2-3.5,3.3c-0.9,0.8-1.8,1.5-2.7,2.1c1.1-1.1,2.3-2.2,3.6-3.4c1-0.9,2-1.7,2.9-2.4c1-0.9,2.1-1.7,3-2.5
			C18.2,8.4,17.5,9.1,16.7,9.8z"/>
	</defs>
	<clipPath id="SVGID_2_">
		<use xlink:href="#SVGID_1_"  style="overflow:visible;"/>
	</clipPath>
	<g class="st0">
		<path class="st1" d="M14.8,0c0,1.6-2,2.9-3.6,3H8.9v2.6C9,5.4,9.1,5.2,9.3,5c0.5-0.5,1.2-0.8,1.9-0.8c0.7,0,1.4,0.3,1.9,0.8
			s0.8,1.2,0.8,1.9c0,0.7-0.3,1.4-0.8,1.9s-1.2,0.8-1.9,0.8c-0.7,0-1.4-0.3-1.9-0.8S8.5,7.6,8.5,6.9c0-0.2,0-0.4,0-0.5H7.4
			c0,0.2,0,0.3,0,0.5c0,0.7-0.3,1.4-0.8,1.9S5.5,9.6,4.8,9.6c-0.7,0-1.4-0.3-1.9-0.8S2.1,7.6,2.1,6.9c0-0.7,0.3-1.4,0.8-1.9
			s1.2-0.8,1.9-0.8c0.7,0,1.4,0.3,1.9,0.8C6.9,5.2,7,5.5,7.2,5.7V3H4.8C3.2,3,1.1,1.6,1.1,0C0.1,0,0,1.6,0,2.8v3
			c0,6.4,2.7,7.4,5.6,8.2c0.4,0.3,0.7,0.9,0.9,0.9h3.1c0.1,0,0.5-0.6,0.9-0.9c2.9-0.8,5.6-1.8,5.6-8.2v-3C16,1.6,15.8,0,14.8,0z"/>
	</g>
	<ellipse vector-effect="non-scaling-stroke" class="st2" cx="8" cy="13.8" rx="3.2" ry="2.1"/>
	<path class="st2" d="M6.4,8c0,0.9-0.7,1.6-1.6,1.6S3.2,8.8,3.2,8c0-0.9,0.7-1.6,1.6-1.6S6.4,7.1,6.4,8z"/>
	<circle vector-effect="non-scaling-stroke" class="st2" cx="11.2" cy="8" r="1.6"/>
	<g class="st0">
		<ellipse vector-effect="non-scaling-stroke" class="st1" cx="8" cy="13.8" rx="3.2" ry="2.1"/>
	</g>
</g>
</svg>
