<?xml version="1.0" encoding="utf-8"?>
<!-- Generator: Adobe Illustrator 23.0.0, SVG Export Plug-In . SVG Version: 6.00 Build 0)  -->
<svg version="1.1" id="Layer_1" xmlns="http://www.w3.org/2000/svg" xmlns:xlink="http://www.w3.org/1999/xlink" x="0px" y="0px"
	 viewBox="0 0 16 16" style="enable-background:new 0 0 16 16;" xml:space="preserve">
<style type="text/css">
	.st0{clip-path:url(#SVGID_2_);}
	.st1{fill:none;stroke:#F75049;stroke-miterlimit:10;}
</style>
<g>
	<defs>
		<path id="SVGID_1_" d="M20.9,5.3c-0.1-0.1-0.3,0-0.6-0.2c-0.2-0.2-0.2-0.3-0.3-0.4c-0.4-0.2-1.3,0.5-1.3,0.5c0,0,0.4-0.3,0.7-0.7
			c0.2-0.2,0.6-0.7,0.5-1c-0.1-0.2-0.3-0.2-0.3-0.3c0-0.3,0.5-0.4,0.4-0.7c0-0.2-0.2-0.3-0.3-0.3C19.4,1.9,19,2.2,19,2.2
			c0,0,0.3-0.2,0.4-0.5c0-0.1,0.2-0.3,0.1-0.5c-0.1-0.1-0.3-0.1-0.4-0.1c-0.1,0-0.2,0.1-0.2,0c0,0,0-0.1,0-0.2
			c0-0.2-0.3-0.3-0.6-0.3c-0.5,0-0.9,0.5-1,0.4c-0.1-0.1,0.5-0.5,0.4-0.9c0-0.1-0.2-0.3-0.4-0.3c-0.3,0-0.4,0.3-0.5,0.3
			c-0.1-0.1,0.1-0.7-0.1-0.9c-0.1-0.1-0.3,0.1-0.6,0c-0.2-0.1-0.2-0.1-0.3-0.2c-0.3-0.1-0.8,0.4-1.3,0.9c-0.2,0.2-0.6,0.5-1.1,0.8
			c0.3-0.3,0.5-0.6,0.7-0.7c0.4-0.4,0.6-0.6,0.6-0.9c0-0.1,0-0.4-0.2-0.4c-0.2-0.1-0.4,0.2-1.1,0.6c-0.2,0.1-0.3,0.2-0.4,0.3
			c0,0,0.3-0.4,0.2-0.7c0,0-0.1-0.2-0.2-0.3c-0.4-0.3-1.1-0.2-1.2-0.2C11-1.2,10.7-0.6,9.7-0.1c0,0-0.1,0.1-0.3,0.2
			C9,0.3,8.8,0.4,8.7,0.5C8.4,0.7,8.2,0.8,8.1,1.1C8,1.3,8,1.5,7.9,1.7C7.7,1.8,7.6,1.8,7.5,1.9C6.9,2,6.2,3,6.1,3.2
			C5.7,3.7,4.4,5.1,0.9,8.2c4.7-5,6.2-6.6,6.2-6.7c0,0,0,0,0,0c0-0.1,0.2-0.4,0-0.6c-0.1-0.1-0.2,0-0.3-0.1c0,0,0-0.1,0-0.1
			c0-0.2,0.4-0.2,0.4-0.3c0,0-0.1-0.1-0.2-0.1C6.8,0.1,6.8,0,6.6,0C6.4-0.1,6.1,0.1,6,0.2C5.8,0.3,5.6,0.4,5.6,0.4c0,0,0-0.2,0-0.3
			C5.5,0,5.3,0,5.3,0C4.9,0,4.8,0.3,4.6,0.2c-0.1,0,0-0.2-0.1-0.3C4.5-0.2,4.4-0.1,4.2-0.3C4-0.4,4.1-0.5,3.9-0.8
			C3.8-0.9,3.7-1.1,3.5-1.1C3.3-1.2,3.2-1.1,3-1.2C2.7-1.3,2.7-1.4,2.5-1.5c-0.2,0-0.3,0-0.4,0.1C1.8-1.2,1.8-1.1,1.6-1.1
			c-0.2,0-0.2-0.2-0.5-0.2c-0.1,0-0.2,0-0.3,0c-0.1,0.1,0,0.4-0.1,0.5c-0.1,0.1-0.2,0.1-0.3,0C0.3-0.9,0.4-0.9,0.3-1
			C0.1-1.2-0.8-1-1.1-0.4c0,0.1-0.1,0.2-0.2,0.3c-0.2,0.1-0.3,0-0.5,0c-0.3,0-0.5,0.2-1.1,1c0,0-0.1,0.1-0.6,0.6
			c-0.9,1-1,1.1-1.1,1.4c0,0.5,0,0.7,0,0.7c0,0.1,0.1,0.3,0,0.4c-0.1,0.1-0.1,0-0.2,0.1c-0.1,0.1,0.1,0.4,0,0.8c0,0,0,0,0,0.3
			c-0.1,0.5-0.1,0.6,0,0.7c0.1,0.1,0.2,0.1,0.3,0.1c0.2,0,0.3-0.1,0.4-0.1c0.4-0.5,0.8-0.9,1.1-1.4C-3.1,4.8-3.2,5-3.3,5.2
			c-0.2,0.2-0.3,0.4-0.5,0.7C-3.9,6-3.9,6.1-4,6.3C-4,6.5-4.2,6.8-4,7c0,0.1,0.1,0.2,0.1,0.3c0,0.2,0,0.3,0,0.4
			c0,0.1,0.1,0.1,0.2,0.1c0.1,0.1,0,0.3,0,0.6c0,0.2,0.1,0.1,0.1,0.3c0.1,0.3-0.1,0.4,0,0.7c0,0.1,0,0.2,0.1,0.3
			c0.1,0.1,0.4-0.1,0.6,0c0.2,0.1,0.1,0.3,0.3,0.4c0.1,0,0.2-0.1,0.4,0c0,0,0.3,0,0.3,0.1c0,0.1-0.1,0.3-0.3,0.4
			c-0.4,0.2-0.8-0.1-0.9,0c0,0.1,0.1,0.2,0.2,0.3c1,0.9,1,1,1.3,1.2c0.3,0.2,0.3,0.1,0.7,0.3c0.5,0.3,1.1,0.6,1.1,1
			c0,0.2-0.2,0.3-0.1,0.6c0,0.2,0.1,0.5,0.3,0.6c0.2,0.1,0.3-0.1,0.6-0.1c0.3,0,0.3,0.2,0.6,0.3c0.4,0,0.5-0.4,0.8-0.4
			c0.2,0,0.2,0.2,0.4,0.3c0.2,0.1,0.4,0,0.5,0c1-1.1,2.6-2.7,4.6-4.8c1.6-1.7,2.1-2.2,3-3.1c2.6-2.5,5.4-4.5,5.5-4.3
			c0.1,0.1-1.2,1.3-5.5,5.4c-3,2.8-5.4,5.2-7.1,6.8c0,0.3,0.1,0.5,0.2,0.5c0.2,0.1,0.5-0.2,0.8,0c0.1,0.1,0.3,0.2,0.3,0.4
			c0,0.2,0,0.3,0.1,0.4c0.1,0.1,0.1,0,0.2,0.1c0.2,0.2,0.1,0.3,0.3,0.5c0.2,0.1,0.4,0,0.4,0.2c0,0.1,0,0.1,0,0.3
			c0,0.1,0.2,0.1,0.2,0.3c0,0.2-0.3,0.3-0.3,0.6c0,0.2,0.1,0.2,0.1,0.5c0,0.5-0.6,0.6-0.5,0.9c0,0.2,0.2,0.4,0.4,0.5
			c0.3,0,0.5-0.4,0.8-0.4c0.4,0,0.6,0.6,0.9,0.5c0.3,0,0.3-0.4,0.6-0.4c0.2,0,0.3,0.1,0.4,0c0.1-0.1,0.1-0.2,0.3-0.3
			c0.1,0,0.1,0,0.2,0c0.2,0,0.6-0.4,0.7-0.8c0.1-0.4,0-0.5,0.2-0.8c0.1-0.2,0.3-0.3,0.4-0.4c0.5-0.4,1.2-1,1.8-1.6
			c0.8-0.8,0.9-1.1,1.5-1.4c0.1,0,0.3-0.1,0.5-0.3c0.3-0.3,0.4-0.6,0.6-0.8c0.4-0.8,0.8-0.8,1.7-2c0-0.1,0.2-0.3,0.2-0.4
			c-0.1-0.1-1.2,1.1-1.4,1c-0.1-0.1-0.1-0.2-0.1-0.2c0.1-0.6,0.8-0.8,1.9-1.7c0.3-0.2,0.2-0.2,0.5-0.5c0.8-0.7,1.7-1.3,2-1.7
			C19.6,7.3,19.6,7,19.6,7c0-0.1,0-0.1,0.1-0.2c0.1-0.3,0.2-0.4,0.7-0.9C20.9,5.5,20.9,5.3,20.9,5.3z M3.9,4.5
			C3.6,4.9,3.3,5.2,3,5.4c0.2-0.3,0.4-0.6,0.8-0.9c0.1-0.1,0.3-0.2,0.4-0.3C4.1,4.2,4,4.4,3.9,4.5z M3.7,3.3c0.5-0.5,1-1,1.4-1.4
			c-0.3,0.5-0.8,1-1.3,1.5C3.5,3.7,3.2,4,2.9,4.2C3.1,3.9,3.4,3.6,3.7,3.3z M-1.9,3.2C-1.8,3-1.6,2.8-1.4,2.6
			c0.1-0.1,0.2-0.2,0.2-0.2c0,0.1-0.1,0.2-0.2,0.3C-1.5,2.9-1.7,3.1-1.9,3.2z M-1,11.4c-0.1,0.1-0.2,0.2-0.3,0.2c0,0,0-0.2,0.1-0.3
			c0.1-0.1,0.3-0.2,0.3-0.2C-0.9,11.1-0.9,11.3-1,11.4z M-1.3,6.7c0.3-0.4,0.7-0.8,1-1.2c0,0.1,0,0.2,0,0.3C-0.7,6.1-1,6.4-1.3,6.7z
			 M0.4,12.7c0,0-0.2-0.2-0.5-0.6c-0.1-0.1-0.2-0.2-0.2-0.3c0-0.1,0.1-0.1,0.2-0.2c0.1-0.1,0.3-0.2,0.4-0.5c0,0.2-0.1,0.3-0.1,0.4
			c0,0.1-0.1,0.2-0.1,0.3c0,0.1,0.1,0,0.1,0.1c0.1,0.1,0,0.2,0,0.3C0.3,12.5,0.4,12.7,0.4,12.7z M0.3,1.4C0.4,1.3,0.5,1,0.7,0.8
			C0.8,0.7,0.9,0.7,1,0.6c0,0.1-0.1,0.2-0.2,0.3C0.6,1.1,0.5,1.3,0.3,1.4z M3.1,8c1-1.3,2.3-2.8,3.8-4.2C8,2.8,9.1,1.8,10.1,1
			C9.4,1.7,8.6,2.4,7.9,3.2C6.2,4.8,4.6,6.4,3.1,8z M8,3.8c0.8-0.8,1.6-1.5,2.4-2C10,2.3,9.5,2.8,9,3.3C7.9,4.6,6.7,5.7,5.6,6.7
			C6.2,5.9,7,4.8,8,3.8z M9.9,5.6C11,4.7,12,3.8,13.1,3c-0.7,0.7-1.4,1.4-2.2,2.1C9.3,6.6,7.7,7.9,6.2,9C7.3,7.9,8.5,6.8,9.9,5.6z
			 M11.6,5.7C10,7.2,8.4,8.5,7,9.6c1.1-1.1,2.3-2.2,3.6-3.4c1.1-0.9,2.2-1.8,3.2-2.6C13.1,4.3,12.3,5,11.6,5.7z M17.3,4.2
			c-0.7,0.7-1.4,1.4-2.2,2.1c-1.6,1.4-3.1,2.7-4.6,3.8c1.1-1.1,2.3-2.2,3.6-3.4C15.2,5.9,16.3,5,17.3,4.2z M7.8,11.9
			c1.4-1.7,3.1-3.5,5.1-5.3c0.9-0.8,1.8-1.5,2.6-2.2c-1,1-1.9,1.9-2.9,2.9C11.1,8.9,9.4,10.4,7.8,11.9z M8.2,13.6
			c1.6-1.5,3.2-3.1,5-4.7c1.4-1.3,2.8-2.4,4.2-3.5c-1.1,1.1-2.3,2.1-3.4,3.2C12,10.3,10.1,12,8.2,13.6z M8.5,14.6
			c1.1-1.3,2.5-2.7,4.1-4.1c1.4-1.2,2.7-2.2,4-3c-1.1,1-2.2,1.9-3.3,2.9C11.7,11.8,10.1,13.2,8.5,14.6z M16.5,8.9
			c-1.2,1.1-2.4,2.1-3.6,3c0.2-0.2,0.4-0.4,0.6-0.6c0.8-0.7,1.5-1.4,2.2-2.1c-0.1,0.1-0.2,0.1-0.3,0.2c-0.1,0-0.1,0.1-0.2,0.2
			c-1.3,1.1-2.4,2.2-3.5,3.3c-0.9,0.8-1.8,1.5-2.7,2.1c1.1-1.1,2.3-2.2,3.6-3.4c1-0.9,2-1.7,2.9-2.4c1-0.9,2.1-1.7,3-2.5
			C18,7.4,17.3,8.2,16.5,8.9z"/>
	</defs>
	<clipPath id="SVGID_2_">
		<use xlink:href="#SVGID_1_"  style="overflow:visible;"/>
	</clipPath>
	<g transform="translate(-192,-180)" class="st0">
		<g transform="matrix(0.11991745,0,0,0.11991745,181.98792,169.53271)">
			<path class="st1" d="M100,124l52-28l52,28v60l-52,28l-52-28V124z"/>
			<path class="st1" d="M204,124l-52,28l-52-28"/>
			<path class="st1" d="M152,148v64"/>
		</g>
	</g>
</g>
</svg>
