<?xml version="1.0" encoding="utf-8"?>
<!-- Generator: Adobe Illustrator 23.0.0, SVG Export Plug-In . SVG Version: 6.00 Build 0)  -->
<svg version="1.1" id="Layer_1" xmlns="http://www.w3.org/2000/svg" xmlns:xlink="http://www.w3.org/1999/xlink" x="0px" y="0px"
	 viewBox="0 0 16 16" style="enable-background:new 0 0 16 16;" xml:space="preserve">
<style type="text/css">
	.st0{clip-path:url(#SVGID_2_);fill-rule:evenodd;clip-rule:evenodd;fill:#F75049;}
</style>
<g>
	<defs>
		<path id="SVGID_1_" d="M21.9,6.3c-0.1-0.1-0.3,0-0.6-0.2c-0.2-0.2-0.2-0.3-0.3-0.4c-0.4-0.2-1.3,0.5-1.3,0.5c0,0,0.4-0.3,0.7-0.7
			c0.2-0.2,0.6-0.7,0.5-1c-0.1-0.2-0.3-0.2-0.3-0.3c0-0.3,0.5-0.4,0.4-0.7c0-0.2-0.2-0.3-0.3-0.3C20.4,2.9,20,3.2,20,3.2
			c0,0,0.3-0.2,0.4-0.5c0-0.1,0.2-0.3,0.1-0.5c-0.1-0.1-0.3-0.1-0.4-0.1c-0.1,0-0.2,0.1-0.2,0c0,0,0-0.1,0-0.2
			c0-0.2-0.3-0.3-0.6-0.3c-0.5,0-0.9,0.5-1,0.4c-0.1-0.1,0.5-0.5,0.4-0.9c0-0.1-0.2-0.3-0.4-0.3c-0.3,0-0.4,0.3-0.5,0.3
			c-0.1-0.1,0.1-0.7-0.1-0.9c-0.1-0.1-0.3,0.1-0.6,0c-0.2-0.1-0.2-0.1-0.3-0.2c-0.3-0.1-0.8,0.4-1.3,0.9c-0.2,0.2-0.6,0.5-1.1,0.8
			c0.3-0.3,0.5-0.6,0.7-0.7c0.4-0.4,0.6-0.6,0.6-0.9c0-0.1,0-0.4-0.2-0.4c-0.2-0.1-0.4,0.2-1.1,0.6c-0.2,0.1-0.3,0.2-0.4,0.3
			c0,0,0.3-0.4,0.2-0.7c0,0-0.1-0.2-0.2-0.3c-0.4-0.3-1.1-0.2-1.2-0.2C12-0.2,11.7,0.4,10.7,1c0,0-0.1,0.1-0.3,0.2
			C10,1.4,9.8,1.5,9.7,1.5C9.4,1.7,9.2,1.8,9.1,2.1C9,2.4,9,2.5,8.9,2.7C8.7,2.8,8.6,2.9,8.5,2.9C7.9,3,7.2,4.1,7.1,4.2
			C6.7,4.8,5.4,6.1,1.9,9.3c4.7-5,6.2-6.6,6.2-6.7c0,0,0,0,0,0c0-0.1,0.2-0.4,0-0.6C8.1,1.9,7.9,2,7.9,1.8c0,0,0-0.1,0-0.1
			c0-0.2,0.4-0.2,0.4-0.3c0,0-0.1-0.1-0.2-0.1C7.8,1.2,7.8,1.1,7.6,1C7.4,1,7.1,1.1,7,1.2C6.8,1.3,6.6,1.4,6.6,1.4c0,0,0-0.2,0-0.3
			C6.5,1,6.3,1,6.3,1c-0.3,0-0.5,0.3-0.6,0.2c-0.1,0,0-0.2-0.1-0.3C5.5,0.8,5.4,0.9,5.2,0.8C5,0.6,5.1,0.5,4.9,0.2
			C4.8,0.1,4.7,0,4.5-0.1C4.3-0.2,4.2-0.1,4-0.2C3.7-0.2,3.7-0.4,3.5-0.4c-0.2,0-0.3,0-0.4,0.1C2.8-0.2,2.8-0.1,2.6,0
			C2.4,0,2.4-0.2,2.1-0.3c-0.1,0-0.2,0-0.3,0c-0.1,0.1,0,0.4-0.1,0.5c-0.1,0.1-0.2,0.1-0.3,0C1.3,0.2,1.4,0.1,1.3,0
			C1.1-0.2,0.2,0.1-0.1,0.6c0,0.1-0.1,0.2-0.2,0.3c-0.2,0.1-0.3,0-0.5,0c-0.3,0-0.5,0.2-1.1,1c0,0-0.1,0.1-0.6,0.6
			c-0.9,1-1,1.1-1.1,1.4c0,0.5,0,0.7,0,0.7c0,0.1,0.1,0.3,0,0.4c-0.1,0.1-0.1,0-0.2,0.1c-0.1,0.1,0.1,0.4,0,0.8c0,0,0,0,0,0.3
			c-0.1,0.5-0.1,0.6,0,0.7c0.1,0.1,0.2,0.1,0.3,0.1c0.2,0,0.3-0.1,0.4-0.1c0.4-0.5,0.8-0.9,1.1-1.4C-2.1,5.8-2.2,6-2.3,6.2
			c-0.2,0.2-0.3,0.4-0.5,0.7C-2.9,7-2.9,7.1-3,7.3C-3,7.5-3.2,7.8-3,8c0,0.1,0.1,0.2,0.1,0.3c0,0.2,0,0.3,0,0.4
			c0,0.1,0.1,0.1,0.2,0.1c0.1,0.1,0,0.3,0,0.6c0,0.2,0.1,0.1,0.1,0.3c0.1,0.3-0.1,0.4,0,0.7c0,0.1,0,0.2,0.1,0.3
			c0.1,0.1,0.4-0.1,0.6,0c0.2,0.1,0.1,0.3,0.3,0.4c0.1,0,0.2-0.1,0.4,0c0,0,0.3,0,0.3,0.1c0,0.1-0.1,0.3-0.3,0.4
			c-0.4,0.2-0.8-0.1-0.9,0c0,0.1,0.1,0.2,0.2,0.3c1,0.9,1,1,1.3,1.2c0.3,0.2,0.3,0.1,0.7,0.3c0.5,0.3,1.1,0.6,1.1,1
			c0,0.2-0.2,0.3-0.1,0.6c0,0.2,0.1,0.5,0.3,0.6c0.2,0.1,0.3-0.1,0.6-0.1c0.3,0,0.3,0.2,0.6,0.3c0.4,0,0.5-0.4,0.8-0.4
			c0.2,0,0.2,0.2,0.4,0.3c0.2,0.1,0.4,0,0.5,0c1-1.1,2.6-2.7,4.6-4.8c1.6-1.7,2.1-2.2,3-3.1c2.6-2.5,5.4-4.5,5.5-4.3
			c0.1,0.1-1.2,1.3-5.5,5.4c-3,2.8-5.4,5.2-7.1,6.8c0,0.3,0.1,0.5,0.2,0.5c0.2,0.1,0.5-0.2,0.8,0c0.1,0.1,0.3,0.2,0.3,0.4
			c0,0.2,0,0.3,0.1,0.4c0.1,0.1,0.1,0,0.2,0.1c0.2,0.2,0.1,0.3,0.3,0.5c0.2,0.1,0.4,0,0.4,0.2c0,0.1,0,0.1,0,0.3
			c0,0.1,0.2,0.1,0.2,0.3c0,0.2-0.3,0.3-0.3,0.6c0,0.2,0.1,0.2,0.1,0.5c0,0.5-0.6,0.6-0.5,0.9c0,0.2,0.2,0.4,0.4,0.5
			c0.3,0,0.5-0.4,0.8-0.4c0.4,0,0.6,0.6,0.9,0.5c0.3,0,0.3-0.4,0.6-0.4c0.2,0,0.3,0.1,0.4,0c0.1-0.1,0.1-0.2,0.3-0.3
			c0.1,0,0.1,0,0.2,0c0.2,0,0.6-0.4,0.7-0.8c0.1-0.4,0-0.5,0.2-0.8c0.1-0.2,0.3-0.3,0.4-0.4c0.5-0.4,1.2-1,1.8-1.6
			c0.8-0.8,0.9-1.1,1.5-1.4c0.1,0,0.3-0.1,0.5-0.3c0.3-0.3,0.4-0.6,0.6-0.8c0.4-0.8,0.8-0.8,1.7-2c0-0.1,0.2-0.3,0.2-0.4
			c-0.1-0.1-1.2,1.1-1.4,1c-0.1-0.1-0.1-0.2-0.1-0.2c0.1-0.6,0.8-0.8,1.9-1.7c0.3-0.2,0.2-0.2,0.5-0.5c0.8-0.7,1.7-1.3,2-1.7
			c0.1-0.3,0.2-0.6,0.2-0.6c0-0.1,0-0.1,0.1-0.2c0.1-0.3,0.2-0.4,0.7-0.9C21.9,6.5,21.9,6.4,21.9,6.3z M4.9,5.5
			C4.6,5.9,4.3,6.2,4,6.4c0.2-0.3,0.4-0.6,0.8-0.9c0.1-0.1,0.3-0.2,0.4-0.3C5.1,5.2,5,5.4,4.9,5.5z M4.7,4.3c0.5-0.5,1-1,1.4-1.4
			c-0.3,0.5-0.8,1-1.3,1.5C4.5,4.7,4.2,5,3.9,5.2C4.1,4.9,4.4,4.6,4.7,4.3z M-0.9,4.3c0.1-0.2,0.2-0.4,0.4-0.6
			c0.1-0.1,0.2-0.2,0.2-0.2c0,0.1-0.1,0.2-0.2,0.3C-0.5,3.9-0.7,4.1-0.9,4.3z M0,12.4c-0.1,0.1-0.2,0.2-0.3,0.2c0,0,0-0.2,0.1-0.3
			c0.1-0.1,0.3-0.2,0.3-0.2C0.1,12.2,0.1,12.3,0,12.4z M-0.3,7.7C0,7.4,0.3,7,0.6,6.6c0,0.1,0,0.2,0,0.3C0.3,7.1,0,7.5-0.3,7.7z
			 M1.4,13.8c0,0-0.2-0.2-0.5-0.6c-0.1-0.1-0.2-0.2-0.2-0.3c0-0.1,0.1-0.1,0.2-0.2c0.1-0.1,0.3-0.2,0.4-0.5c0,0.2-0.1,0.3-0.1,0.4
			c0,0.1-0.1,0.2-0.1,0.3c0,0.1,0.1,0,0.1,0.1c0.1,0.1,0,0.2,0,0.3C1.3,13.6,1.4,13.7,1.4,13.8z M1.3,2.5c0.1-0.2,0.2-0.4,0.4-0.6
			C1.8,1.8,1.9,1.7,2,1.6c0,0.1-0.1,0.2-0.2,0.3C1.6,2.1,1.5,2.3,1.3,2.5z M4.1,9.1c1-1.3,2.3-2.8,3.8-4.2c1.1-1.1,2.2-2,3.2-2.8
			c-0.7,0.7-1.5,1.4-2.2,2.2C7.2,5.8,5.6,7.5,4.1,9.1z M9,4.8c0.8-0.8,1.6-1.5,2.4-2c-0.4,0.5-0.9,1-1.4,1.6
			C8.9,5.6,7.7,6.7,6.6,7.7C7.2,6.9,8,5.9,9,4.8z M10.9,6.6C12,5.7,13,4.8,14.1,4c-0.7,0.7-1.4,1.4-2.2,2.1C10.3,7.6,8.7,8.9,7.2,10
			C8.3,8.9,9.5,7.8,10.9,6.6z M12.6,6.8C11,8.2,9.4,9.5,8,10.6c1.1-1.1,2.3-2.2,3.6-3.4c1.1-0.9,2.2-1.8,3.2-2.6
			C14.1,5.3,13.3,6,12.6,6.8z M18.3,5.2c-0.7,0.7-1.4,1.4-2.2,2.1c-1.6,1.4-3.1,2.7-4.6,3.8c1.1-1.1,2.3-2.2,3.6-3.4
			C16.2,6.9,17.3,6,18.3,5.2z M8.8,13c1.4-1.7,3.1-3.5,5.1-5.3c0.9-0.8,1.8-1.5,2.6-2.2c-1,1-1.9,1.9-2.9,2.9
			C12.1,9.9,10.4,11.4,8.8,13z M9.2,14.6c1.6-1.5,3.2-3.1,5-4.7c1.4-1.3,2.8-2.4,4.2-3.5c-1.1,1.1-2.3,2.1-3.4,3.2
			C13,11.3,11.1,13,9.2,14.6z M9.5,15.6c1.1-1.3,2.5-2.7,4.1-4.1c1.4-1.2,2.7-2.2,4-3c-1.1,1-2.2,1.9-3.3,2.9
			C12.7,12.8,11.1,14.2,9.5,15.6z M17.5,9.9c-1.2,1.1-2.4,2.1-3.6,3c0.2-0.2,0.4-0.4,0.6-0.6c0.8-0.7,1.5-1.4,2.2-2.1
			c-0.1,0.1-0.2,0.1-0.3,0.2c-0.1,0-0.1,0.1-0.2,0.2c-1.3,1.1-2.4,2.2-3.5,3.3c-0.9,0.8-1.8,1.5-2.7,2.1c1.1-1.1,2.3-2.2,3.6-3.4
			c1-0.9,2-1.7,2.9-2.4c1-0.9,2.1-1.7,3-2.5C19,8.5,18.3,9.2,17.5,9.9z"/>
	</defs>
	<clipPath id="SVGID_2_">
		<use xlink:href="#SVGID_1_"  style="overflow:visible;"/>
	</clipPath>
	<path class="st0" d="M9.5,9.8c0,0.8-0.2,1.5-0.6,2.1c-0.4,0.6-0.9,1.1-1.6,1.4c-0.7,0.3-1.5,0.5-2.4,0.5c-1.5,0-2.7-0.5-3.5-1.5
		C0.4,11.4,0,10,0,8.3V7.7c0-1.1,0.2-2.1,0.6-2.9C1,4,1.5,3.3,2.3,2.9C3,2.4,3.8,2.2,4.8,2.2c1.4,0,2.5,0.4,3.3,1.1
		C8.9,4,9.4,5,9.5,6.3H6.8c0-0.7-0.2-1.2-0.5-1.5C5.9,4.5,5.4,4.3,4.8,4.3c-0.7,0-1.2,0.3-1.5,0.8C3,5.6,2.8,6.4,2.8,7.5v0.8
		c0,1.2,0.2,2.1,0.5,2.6c0.3,0.5,0.8,0.8,1.6,0.8c0.6,0,1.1-0.1,1.4-0.4c0.3-0.3,0.5-0.8,0.5-1.4H9.5z"/>
	<polygon class="st0" points="10.6,4.3 12.7,4.3 12.7,2.2 13.9,2.2 13.9,4.3 16,4.3 16,5.4 13.9,5.4 13.9,7.5 12.7,7.5 12.7,5.4 
		10.6,5.4 10.6,4.3 	"/>
	<polygon class="st0" points="10.6,10.6 12.7,10.6 12.7,8.5 13.9,8.5 13.9,10.6 16,10.6 16,11.7 13.9,11.7 13.9,13.8 12.7,13.8 
		12.7,11.7 10.6,11.7 10.6,10.6 	"/>
</g>
</svg>
