<?xml version="1.0" encoding="utf-8"?>
<!-- Generator: Adobe Illustrator 23.0.0, SVG Export Plug-In . SVG Version: 6.00 Build 0)  -->
<svg version="1.1" id="Layer_1" xmlns="http://www.w3.org/2000/svg" xmlns:xlink="http://www.w3.org/1999/xlink" x="0px" y="0px"
	 viewBox="0 0 16 16" style="enable-background:new 0 0 16 16;" xml:space="preserve">
<style type="text/css">
	.st0{clip-path:url(#SVGID_2_);fill:#F75049;}
	.st1{clip-path:url(#SVGID_2_);fill-rule:evenodd;clip-rule:evenodd;fill:#F75049;}
</style>
<g>
	<defs>
		<path id="SVGID_1_" d="M20.5,5c-0.1-0.1-0.3,0-0.6-0.2c-0.2-0.2-0.2-0.3-0.3-0.4c-0.4-0.2-1.3,0.5-1.3,0.5c0,0,0.4-0.3,0.7-0.7
			c0.2-0.2,0.6-0.7,0.5-1C19.5,3,19.3,3,19.3,2.8c0-0.3,0.5-0.4,0.4-0.7c0-0.2-0.2-0.3-0.3-0.3C19.1,1.6,18.6,2,18.6,2
			c0,0,0.3-0.2,0.4-0.5c0-0.1,0.2-0.3,0.1-0.5c-0.1-0.1-0.3-0.1-0.4-0.1c-0.1,0-0.2,0.1-0.2,0c0,0,0-0.1,0-0.2
			c0-0.2-0.3-0.3-0.6-0.3c-0.5,0-0.9,0.5-1,0.4c-0.1-0.1,0.5-0.5,0.4-0.9c0-0.1-0.2-0.3-0.4-0.3c-0.3,0-0.4,0.3-0.5,0.3
			c-0.1-0.1,0.1-0.7-0.1-0.9c-0.1-0.1-0.3,0.1-0.6,0C15.5-0.9,15.5-1,15.4-1c-0.3-0.1-0.8,0.4-1.3,0.9c-0.2,0.2-0.6,0.5-1.1,0.8
			c0.3-0.3,0.5-0.6,0.7-0.7c0.4-0.4,0.6-0.6,0.6-0.9c0-0.1,0-0.4-0.2-0.4c-0.2-0.1-0.4,0.2-1.1,0.6c-0.2,0.1-0.3,0.2-0.4,0.3
			c0,0,0.3-0.4,0.2-0.7c0,0-0.1-0.2-0.2-0.3c-0.4-0.3-1.1-0.2-1.2-0.2c-0.9,0.2-1.1,0.8-2.1,1.3c0,0-0.1,0.1-0.3,0.2
			C8.6,0.1,8.4,0.2,8.3,0.3C8,0.4,7.8,0.6,7.7,0.8C7.6,1.1,7.7,1.3,7.5,1.4C7.4,1.6,7.2,1.6,7.1,1.6C6.6,1.8,5.8,2.8,5.7,2.9
			C5.3,3.5,4,4.8,0.5,8c4.7-5,6.2-6.6,6.2-6.7c0,0,0,0,0,0c0-0.1,0.2-0.4,0-0.6c-0.1-0.1-0.2,0-0.3-0.1c0,0,0-0.1,0-0.1
			c0-0.2,0.4-0.2,0.4-0.3c0,0-0.1-0.1-0.2-0.1C6.4-0.1,6.4-0.2,6.3-0.2C6-0.3,5.8-0.2,5.6-0.1C5.4,0,5.3,0.2,5.2,0.1
			c0,0,0-0.2,0-0.3C5.1-0.2,5-0.2,4.9-0.2C4.5-0.2,4.4,0.1,4.3,0c-0.1,0,0-0.2-0.1-0.3C4.1-0.4,4-0.4,3.8-0.5C3.6-0.6,3.7-0.8,3.5-1
			C3.5-1.1,3.3-1.3,3.1-1.4c-0.2-0.1-0.3,0-0.5-0.1C2.3-1.5,2.3-1.7,2.1-1.7c-0.2,0-0.3,0-0.4,0.1C1.4-1.5,1.4-1.3,1.2-1.3
			C1-1.3,1-1.5,0.7-1.5c-0.1,0-0.2,0-0.3,0C0.3-1.4,0.5-1.2,0.3-1C0.3-1,0.1-1,0.1-1C0-1.1,0-1.2-0.1-1.2c-0.2-0.2-1.1,0.1-1.4,0.6
			c0,0.1-0.1,0.2-0.2,0.3c-0.2,0.1-0.3,0-0.5,0c-0.3,0-0.5,0.2-1.1,1c0,0-0.1,0.1-0.6,0.6c-0.9,1-1,1.1-1.1,1.4c0,0.5,0,0.7,0,0.7
			c0,0.1,0.1,0.3,0,0.4c-0.1,0.1-0.1,0-0.2,0.1c-0.1,0.1,0.1,0.4,0,0.8c0,0,0,0,0,0.3c-0.1,0.5-0.1,0.6,0,0.7
			C-5,5.7-4.9,5.7-4.8,5.7c0.2,0,0.3-0.1,0.4-0.1C-4,5.1-3.6,4.7-3.3,4.2c-0.2,0.3-0.3,0.6-0.4,0.7C-3.9,5.2-4,5.3-4.2,5.7
			c0,0.1-0.1,0.2-0.2,0.4c-0.1,0.2-0.2,0.5-0.1,0.8c0,0.1,0.1,0.2,0.1,0.3c0,0.2,0,0.3,0,0.4c0,0.1,0.1,0.1,0.2,0.1
			c0.1,0.1,0,0.3,0,0.6C-4,8.3-4,8.3-3.9,8.5C-3.9,8.7-4,8.8-4,9.2c0,0.1,0,0.2,0.1,0.3c0.1,0.1,0.4-0.1,0.6,0
			C-3.1,9.6-3.2,9.8-3,9.9c0.1,0,0.2-0.1,0.4,0c0,0,0.3,0,0.3,0.1c0,0.1-0.1,0.3-0.3,0.4c-0.4,0.2-0.8-0.1-0.9,0
			c0,0.1,0.1,0.2,0.2,0.3c1,0.9,1,1,1.3,1.2c0.3,0.2,0.3,0.1,0.7,0.3c0.5,0.3,1.1,0.6,1.1,1c0,0.2-0.2,0.3-0.1,0.6
			c0,0.2,0.1,0.5,0.3,0.6c0.2,0.1,0.3-0.1,0.6-0.1c0.3,0,0.3,0.2,0.6,0.3c0.4,0,0.5-0.4,0.8-0.4c0.2,0,0.2,0.2,0.4,0.3
			c0.2,0.1,0.4,0,0.5,0c1-1.1,2.6-2.7,4.6-4.8c1.6-1.7,2.1-2.2,3-3.1c2.6-2.5,5.4-4.5,5.5-4.3c0.1,0.1-1.2,1.3-5.5,5.4
			c-3,2.8-5.4,5.2-7.1,6.8c0,0.3,0.1,0.5,0.2,0.5c0.2,0.1,0.5-0.2,0.8,0c0.1,0.1,0.3,0.2,0.3,0.4c0,0.2,0,0.3,0.1,0.4
			c0.1,0.1,0.1,0,0.2,0.1c0.2,0.2,0.1,0.3,0.3,0.5c0.2,0.1,0.4,0,0.4,0.2c0,0.1,0,0.1,0,0.3c0,0.1,0.2,0.1,0.2,0.3
			c0,0.2-0.3,0.3-0.3,0.6c0,0.2,0.1,0.2,0.1,0.5c0,0.5-0.6,0.6-0.5,0.9c0,0.2,0.2,0.4,0.4,0.5c0.3,0,0.5-0.4,0.8-0.4
			c0.4,0,0.6,0.6,0.9,0.5c0.3,0,0.3-0.4,0.6-0.4c0.2,0,0.3,0.1,0.4,0c0.1-0.1,0.1-0.2,0.3-0.3c0.1,0,0.1,0,0.2,0
			c0.2,0,0.6-0.4,0.7-0.8c0.1-0.4,0-0.5,0.2-0.8c0.1-0.2,0.3-0.3,0.4-0.4c0.5-0.4,1.2-1,1.8-1.6c0.8-0.8,0.9-1.1,1.5-1.4
			c0.1,0,0.3-0.1,0.5-0.3c0.3-0.3,0.4-0.6,0.6-0.8c0.4-0.8,0.8-0.8,1.7-2c0-0.1,0.2-0.3,0.2-0.4c-0.1-0.1-1.2,1.1-1.4,1
			c-0.1-0.1-0.1-0.2-0.1-0.2c0.1-0.6,0.8-0.8,1.9-1.7c0.3-0.2,0.2-0.2,0.5-0.5c0.8-0.7,1.7-1.3,2-1.7c0.1-0.3,0.2-0.6,0.2-0.6
			c0-0.1,0-0.1,0.1-0.2c0.1-0.3,0.2-0.4,0.7-0.9C20.5,5.2,20.5,5.1,20.5,5z M3.5,4.3C3.2,4.6,2.9,4.9,2.6,5.1C2.8,4.9,3,4.5,3.4,4.2
			c0.1-0.1,0.3-0.2,0.4-0.3C3.8,4,3.7,4.1,3.5,4.3z M3.3,3c0.5-0.5,1-1,1.4-1.4C4.4,2.1,4,2.6,3.5,3.1C3.1,3.4,2.8,3.7,2.5,4
			C2.8,3.7,3,3.4,3.3,3z M-2.2,3C-2.1,2.8-2,2.6-1.8,2.4c0.1-0.1,0.2-0.2,0.2-0.2c0,0.1-0.1,0.2-0.2,0.3C-1.9,2.7-2.1,2.9-2.2,3z
			 M-1.4,11.1c-0.1,0.1-0.2,0.2-0.3,0.2c0,0,0-0.2,0.1-0.3c0.1-0.1,0.3-0.2,0.3-0.2C-1.3,10.9-1.3,11-1.4,11.1z M-1.7,6.5
			c0.3-0.4,0.7-0.8,1-1.2c0,0.1,0,0.2,0,0.3C-1,5.9-1.4,6.2-1.7,6.5z M0,12.5c0,0-0.2-0.2-0.5-0.6c-0.1-0.1-0.2-0.2-0.2-0.3
			c0-0.1,0.1-0.1,0.2-0.2c0.1-0.1,0.3-0.2,0.4-0.5c0,0.2-0.1,0.3-0.1,0.4c0,0.1-0.1,0.2-0.1,0.3c0,0.1,0.1,0,0.1,0.1
			c0.1,0.1,0,0.2,0,0.3C-0.1,12.3,0.1,12.5,0,12.5z M-0.1,1.2C0,1,0.1,0.8,0.4,0.6c0.1-0.1,0.2-0.2,0.2-0.2c0,0.1-0.1,0.2-0.2,0.3
			C0.3,0.9,0.1,1.1-0.1,1.2z M2.7,7.8C3.8,6.5,5,5,6.6,3.6c1.1-1.1,2.2-2,3.2-2.8C9,1.5,8.2,2.2,7.5,2.9C5.8,4.6,4.2,6.2,2.7,7.8z
			 M7.7,3.6c0.8-0.8,1.6-1.5,2.4-2c-0.4,0.5-0.9,1-1.4,1.6C7.5,4.3,6.4,5.5,5.3,6.5C5.9,5.6,6.6,4.6,7.7,3.6z M9.5,5.4
			c1.1-0.9,2.2-1.8,3.2-2.6c-0.7,0.7-1.4,1.4-2.2,2.1C8.9,6.3,7.3,7.6,5.9,8.7C7,7.6,8.2,6.5,9.5,5.4z M11.2,5.5
			C9.6,6.9,8.1,8.2,6.6,9.3C7.7,8.2,8.9,7.1,10.2,6c1.1-0.9,2.2-1.8,3.2-2.6C12.7,4.1,12,4.8,11.2,5.5z M16.9,4
			c-0.7,0.7-1.4,1.4-2.2,2.1c-1.6,1.4-3.1,2.7-4.6,3.8c1.1-1.1,2.3-2.2,3.6-3.4C14.8,5.6,15.9,4.8,16.9,4z M7.5,11.7
			c1.4-1.7,3.1-3.5,5.1-5.3c0.9-0.8,1.8-1.5,2.6-2.2c-1,1-1.9,1.9-2.9,2.9C10.7,8.7,9.1,10.2,7.5,11.7z M7.8,13.3
			c1.6-1.5,3.2-3.1,5-4.7c1.4-1.3,2.8-2.4,4.2-3.5c-1.1,1.1-2.3,2.1-3.4,3.2C11.7,10.1,9.7,11.7,7.8,13.3z M8.1,14.4
			c1.1-1.3,2.5-2.7,4.1-4.1c1.4-1.2,2.7-2.2,4-3c-1.1,1-2.2,1.9-3.3,2.9C11.3,11.5,9.7,12.9,8.1,14.4z M16.1,8.6
			c-1.2,1.1-2.4,2.1-3.6,3c0.2-0.2,0.4-0.4,0.6-0.6c0.8-0.7,1.5-1.4,2.2-2.1c-0.1,0.1-0.2,0.1-0.3,0.2c-0.1,0-0.1,0.1-0.2,0.2
			c-1.3,1.1-2.4,2.2-3.5,3.3c-0.9,0.8-1.8,1.5-2.7,2.1c1.1-1.1,2.3-2.2,3.6-3.4c1-0.9,2-1.7,2.9-2.4c1-0.9,2.1-1.7,3-2.5
			C17.7,7.2,16.9,7.9,16.1,8.6z"/>
	</defs>
	<clipPath id="SVGID_2_">
		<use xlink:href="#SVGID_1_"  style="overflow:visible;"/>
	</clipPath>
	<path class="st0" d="M2.8,8.3V7.5h2.4v0.8H2.8z"/>
	<path class="st0" d="M11.5,9V8.3h-0.7V7.5h0.7V6.8h0.8v0.7H13v0.7h-0.7V9H11.5z"/>
	<path class="st1" d="M6.6,8.8c0,0-0.1,0.1-0.1,0.2H8V6.7c0-0.1-0.1-0.1-0.1-0.2C7.8,6.3,7.6,6.2,7.4,6S7.1,5.6,6.9,5.4
		C6.7,5.2,6.5,5.1,6.3,4.9C6.1,4.8,5.9,4.7,5.6,4.6C5.3,4.5,5.1,4.4,4.8,4.3C4.5,4.3,4.2,4.2,3.9,4.2c-0.5,0-1,0.1-1.5,0.3
		C1.9,4.7,1.5,5,1.2,5.3C0.8,5.7,0.5,6.1,0.3,6.5C0.1,7,0,7.5,0,8s0.1,1,0.3,1.5c0.2,0.5,0.5,0.9,0.8,1.2c0.4,0.4,0.8,0.6,1.2,0.8
		c0.5,0.2,1,0.3,1.5,0.3h0.2c0.3,0,0.6,0,0.8-0.1c0.3,0,0.5-0.1,0.7-0.2c0.2-0.1,0.4-0.2,0.6-0.4c0.2-0.1,0.4-0.3,0.5-0.5
		c0.2-0.2,0.3-0.3,0.5-0.5C7.5,10,7.6,9.8,7.7,9.6c0-0.1,0.1-0.2,0.2-0.2H6.2C6.1,9.5,6,9.6,5.9,9.7C5.8,9.8,5.7,9.9,5.5,10
		c-0.1,0.1-0.3,0.2-0.4,0.2c-0.2,0.1-0.3,0.1-0.5,0.2c-0.2,0-0.4,0-0.5,0H3.9c-0.3,0-0.7-0.1-1-0.2c-0.3-0.1-0.6-0.3-0.8-0.5
		C1.8,9.5,1.7,9.2,1.5,8.9C1.4,8.6,1.3,8.3,1.3,8c0-0.3,0.1-0.7,0.2-0.9c0.1-0.3,0.3-0.6,0.5-0.8C2.3,6,2.6,5.9,2.9,5.8
		c0.3-0.1,0.7-0.2,1-0.2c0.2,0,0.4,0,0.6,0.1c0.2,0,0.4,0.1,0.5,0.2C5.3,5.8,5.4,5.9,5.6,6C5.7,6.2,5.9,6.3,6,6.4
		c0.1,0.1,0.3,0.3,0.4,0.4C6.5,7,6.7,7.1,6.8,7.3C6.9,7.5,7,7.7,7.2,7.9c0,0,0,0,0,0.1C7.1,8.1,7.1,8.2,7,8.3
		C6.9,8.5,6.8,8.7,6.6,8.8z"/>
	<path class="st1" d="M15.7,6.5c-0.2-0.5-0.5-0.9-0.8-1.2c-0.4-0.3-0.8-0.6-1.2-0.8c-0.5-0.2-1-0.3-1.5-0.3c-0.3,0-0.6,0-0.9,0.1
		c-0.3,0-0.5,0.1-0.8,0.3c-0.3,0.1-0.5,0.2-0.7,0.4C9.5,5.1,9.3,5.2,9.1,5.4C8.9,5.6,8.7,5.8,8.6,6S8.3,6.3,8.1,6.5
		c0,0-0.1,0.1-0.1,0.2V9h1.5c0,0-0.1-0.1-0.1-0.2C9.2,8.7,9.1,8.5,9,8.3C8.9,8.2,8.9,8.1,8.8,8c0,0,0-0.1,0-0.1
		C9,7.7,9.1,7.5,9.2,7.3C9.3,7.1,9.5,7,9.6,6.8C9.7,6.7,9.8,6.5,10,6.4c0.1-0.1,0.3-0.2,0.4-0.4c0.2-0.1,0.3-0.2,0.5-0.3
		c0.2-0.1,0.4-0.1,0.5-0.2c0.2,0,0.4-0.1,0.6-0.1c0.4,0,0.7,0.1,1,0.2c0.3,0.1,0.6,0.3,0.8,0.5c0.2,0.2,0.4,0.5,0.5,0.8
		c0.1,0.3,0.2,0.6,0.2,0.9c0,0.3-0.1,0.6-0.2,0.9c-0.1,0.3-0.3,0.5-0.5,0.8c-0.2,0.2-0.5,0.4-0.8,0.5c-0.3,0.1-0.7,0.2-1,0.2h-0.2
		c-0.2,0-0.4,0-0.5,0c-0.2,0-0.3-0.1-0.5-0.2c-0.2-0.1-0.3-0.1-0.4-0.2c-0.1-0.1-0.3-0.2-0.4-0.3C10,9.6,9.9,9.5,9.8,9.4H8.1
		c0.1,0.1,0.1,0.2,0.2,0.2c0.1,0.2,0.3,0.4,0.4,0.5c0.2,0.2,0.3,0.4,0.5,0.5c0.2,0.2,0.4,0.3,0.5,0.5c0.2,0.1,0.4,0.3,0.6,0.4
		c0.2,0.1,0.5,0.2,0.7,0.2c0.3,0.1,0.5,0.1,0.8,0.1h0.2c0.5,0,1-0.1,1.5-0.3c0.5-0.2,0.9-0.5,1.2-0.8c0.4-0.3,0.6-0.7,0.8-1.2
		C15.9,9,16,8.5,16,8S15.9,7,15.7,6.5z"/>
</g>
</svg>
