<?xml version="1.0" encoding="utf-8"?>
<!-- Generator: Adobe Illustrator 23.0.0, SVG Export Plug-In . SVG Version: 6.00 Build 0)  -->
<svg version="1.1" id="Layer_1" xmlns="http://www.w3.org/2000/svg" xmlns:xlink="http://www.w3.org/1999/xlink" x="0px" y="0px"
	 viewBox="0 0 16 16" style="enable-background:new 0 0 16 16;" xml:space="preserve">
<style type="text/css">
	.st0{clip-path:url(#SVGID_2_);fill:#F75049;}
</style>
<g>
	<defs>
		<path id="SVGID_1_" d="M21.8,4.1c-0.1-0.1-0.3,0-0.6-0.2c-0.2-0.2-0.2-0.3-0.3-0.4c-0.4-0.2-1.3,0.5-1.3,0.5c0,0,0.4-0.3,0.7-0.7
			c0.2-0.2,0.6-0.7,0.5-1C20.8,2,20.6,2,20.6,1.9c0-0.3,0.5-0.4,0.4-0.7c0-0.2-0.2-0.3-0.3-0.3C20.4,0.7,20,1,19.9,1
			c0,0,0.3-0.2,0.4-0.5c0-0.1,0.2-0.3,0.1-0.5C20.3,0,20.1-0.1,20,0c-0.1,0-0.2,0.1-0.2,0c0,0,0-0.1,0-0.2c0-0.2-0.3-0.3-0.6-0.3
			c-0.5,0-0.9,0.5-1,0.4c-0.1-0.1,0.5-0.5,0.4-0.9c0-0.1-0.2-0.3-0.4-0.3c-0.3,0-0.4,0.3-0.5,0.3c-0.1-0.1,0.1-0.7-0.1-0.9
			c-0.1-0.1-0.3,0.1-0.6,0c-0.2-0.1-0.2-0.1-0.3-0.2C16.5-2.1,16-1.5,15.5-1c-0.2,0.2-0.6,0.5-1.1,0.8C14.6-0.6,14.8-0.8,15-1
			c0.4-0.4,0.6-0.6,0.6-0.9c0-0.1,0-0.4-0.2-0.4c-0.2-0.1-0.4,0.2-1.1,0.6c-0.2,0.1-0.3,0.2-0.4,0.3c0,0,0.3-0.4,0.2-0.7
			c0,0-0.1-0.2-0.2-0.3c-0.4-0.3-1.1-0.2-1.2-0.2c-0.9,0.2-1.1,0.8-2.1,1.3c0,0-0.1,0.1-0.3,0.2C9.9-0.9,9.7-0.8,9.6-0.7
			C9.4-0.5,9.2-0.4,9-0.1C8.9,0.1,9,0.3,8.8,0.5C8.7,0.6,8.5,0.6,8.5,0.7C7.9,0.8,7.2,1.9,7.1,2C6.7,2.5,5.4,3.9,1.9,7.1
			c4.7-5,6.2-6.6,6.2-6.7c0,0,0,0,0,0c0-0.1,0.2-0.4,0-0.6C8-0.3,7.9-0.3,7.8-0.4c0,0,0-0.1,0-0.1c0-0.2,0.4-0.2,0.4-0.3
			c0,0-0.1-0.1-0.2-0.1C7.7-1.1,7.7-1.1,7.6-1.2C7.3-1.2,7.1-1.1,6.9-1C6.7-0.9,6.6-0.8,6.5-0.8c0,0,0-0.2,0-0.3
			C6.4-1.2,6.3-1.2,6.2-1.2C5.9-1.1,5.7-0.9,5.6-1c-0.1,0,0-0.2-0.1-0.3C5.4-1.4,5.3-1.3,5.2-1.5C5-1.6,5.1-1.7,4.8-2
			C4.8-2.1,4.7-2.2,4.4-2.3c-0.2-0.1-0.3,0-0.5-0.1C3.7-2.5,3.7-2.6,3.4-2.7c-0.2,0-0.3,0-0.4,0.1C2.7-2.4,2.7-2.3,2.6-2.3
			C2.4-2.3,2.3-2.4,2-2.5c-0.1,0-0.2,0-0.3,0C1.6-2.4,1.8-2.1,1.7-2C1.6-1.9,1.5-2,1.4-2C1.3-2.1,1.3-2.1,1.3-2.2
			C1.1-2.4,0.1-2.1-0.2-1.6c0,0.1-0.1,0.2-0.2,0.3c-0.2,0.1-0.3,0-0.5,0c-0.3,0-0.5,0.2-1.1,1c0,0-0.1,0.1-0.6,0.6
			c-0.9,1-1,1.1-1.1,1.4c0,0.5,0,0.7,0,0.7c0,0.1,0.1,0.3,0,0.4c-0.1,0.1-0.1,0-0.2,0.1c-0.1,0.1,0.1,0.4,0,0.8c0,0,0,0,0,0.3
			c-0.1,0.5-0.1,0.6,0,0.7c0.1,0.1,0.2,0.1,0.3,0.1c0.2,0,0.3-0.1,0.4-0.1c0.4-0.5,0.8-0.9,1.1-1.4C-2.1,3.6-2.3,3.8-2.4,4
			c-0.2,0.2-0.3,0.4-0.5,0.7C-2.9,4.8-3,4.9-3,5.1c-0.1,0.2-0.2,0.5-0.1,0.8C-3,5.9-3,6-2.9,6.1c0,0.2,0,0.3,0,0.4
			c0,0.1,0.1,0.1,0.2,0.1c0.1,0.1,0,0.3,0,0.6c0,0.2,0.1,0.1,0.1,0.3c0.1,0.3-0.1,0.4,0,0.7c0,0.1,0,0.2,0.1,0.3
			c0.1,0.1,0.4-0.1,0.6,0c0.2,0.1,0.1,0.3,0.3,0.4c0.1,0,0.2-0.1,0.4,0c0,0,0.3,0,0.3,0.1c0,0.1-0.1,0.3-0.3,0.4
			c-0.4,0.2-0.8-0.1-0.9,0c0,0.1,0.1,0.2,0.2,0.3c1,0.9,1,1,1.3,1.2c0.3,0.2,0.3,0.1,0.7,0.3c0.5,0.3,1.1,0.6,1.1,1
			c0,0.2-0.2,0.3-0.1,0.6c0,0.2,0.1,0.5,0.3,0.6c0.2,0.1,0.3-0.1,0.6-0.1c0.3,0,0.3,0.2,0.6,0.3c0.4,0,0.5-0.4,0.8-0.4
			c0.2,0,0.2,0.2,0.4,0.3c0.2,0.1,0.4,0,0.5,0c1-1.1,2.6-2.7,4.6-4.8c1.6-1.7,2.1-2.2,3-3.1c2.6-2.5,5.4-4.5,5.5-4.3
			c0.1,0.1-1.2,1.3-5.5,5.4c-3,2.8-5.4,5.2-7.1,6.8C4.9,13.8,5,13.9,5,14c0.2,0.1,0.5-0.2,0.8,0c0.1,0.1,0.3,0.2,0.3,0.4
			c0,0.2,0,0.3,0.1,0.4c0.1,0.1,0.1,0,0.2,0.1c0.2,0.2,0.1,0.3,0.3,0.5c0.2,0.1,0.4,0,0.4,0.2c0,0.1,0,0.1,0,0.3
			c0,0.1,0.2,0.1,0.2,0.3c0,0.2-0.3,0.3-0.3,0.6c0,0.2,0.1,0.2,0.1,0.5c0,0.5-0.6,0.6-0.5,0.9c0,0.2,0.2,0.4,0.4,0.5
			c0.3,0,0.5-0.4,0.8-0.4c0.4,0,0.6,0.6,0.9,0.5c0.3,0,0.3-0.4,0.6-0.4c0.2,0,0.3,0.1,0.4,0c0.1-0.1,0.1-0.2,0.3-0.3
			c0.1,0,0.1,0,0.2,0c0.2,0,0.6-0.4,0.7-0.8c0.1-0.4,0-0.5,0.2-0.8c0.1-0.2,0.3-0.3,0.4-0.4c0.5-0.4,1.2-1,1.8-1.6
			c0.8-0.8,0.9-1.1,1.5-1.4c0.1,0,0.3-0.1,0.5-0.3c0.3-0.3,0.4-0.6,0.6-0.8c0.4-0.8,0.8-0.8,1.7-2c0-0.1,0.2-0.3,0.2-0.4
			c-0.1-0.1-1.2,1.1-1.4,1C16,10.5,16,10.4,16,10.3c0.1-0.6,0.8-0.8,1.9-1.7c0.3-0.2,0.2-0.2,0.5-0.5c0.8-0.7,1.7-1.3,2-1.7
			c0.1-0.3,0.2-0.6,0.2-0.6c0-0.1,0-0.1,0.1-0.2c0.1-0.3,0.2-0.4,0.7-0.9C21.8,4.3,21.9,4.2,21.8,4.1z M4.9,3.3
			C4.6,3.7,4.2,4,3.9,4.2c0.2-0.3,0.4-0.6,0.8-0.9C4.9,3.1,5,3,5.2,2.9C5.1,3,5,3.2,4.9,3.3z M4.6,2.1c0.5-0.5,1-1,1.4-1.4
			c-0.3,0.5-0.8,1-1.3,1.5C4.5,2.5,4.2,2.8,3.9,3C4.1,2.7,4.4,2.4,4.6,2.1z M-0.9,2c0.1-0.2,0.2-0.4,0.4-0.6
			c0.1-0.1,0.2-0.2,0.2-0.2c0,0.1-0.1,0.2-0.2,0.3C-0.6,1.7-0.8,1.9-0.9,2z M-0.1,10.2c-0.1,0.1-0.2,0.2-0.3,0.2c0,0,0-0.2,0.1-0.3
			C-0.1,9.9,0,9.9,0.1,9.9C0.1,9.9,0,10.1-0.1,10.2z M-0.4,5.5c0.3-0.4,0.7-0.8,1-1.2c0,0.1,0,0.2,0,0.3C0.3,4.9,0,5.2-0.4,5.5z
			 M1.3,11.6c0,0-0.2-0.2-0.5-0.6c-0.1-0.1-0.2-0.2-0.2-0.3c0-0.1,0.1-0.1,0.2-0.2C1,10.4,1.2,10.3,1.3,10c0,0.2-0.1,0.3-0.1,0.4
			c0,0.1-0.1,0.2-0.1,0.3c0,0.1,0.1,0,0.1,0.1c0.1,0.1,0,0.2,0,0.3C1.2,11.4,1.4,11.5,1.3,11.6z M1.2,0.3c0.1-0.2,0.2-0.4,0.4-0.6
			c0.1-0.1,0.2-0.2,0.2-0.2c0,0.1-0.1,0.2-0.2,0.3C1.6-0.1,1.4,0.1,1.2,0.3z M4.1,6.9c1-1.3,2.3-2.8,3.8-4.2c1.1-1.1,2.2-2,3.2-2.8
			C10.3,0.5,9.6,1.2,8.8,2C7.2,3.6,5.6,5.2,4.1,6.9z M9,2.6c0.8-0.8,1.6-1.5,2.4-2c-0.4,0.5-0.9,1-1.4,1.6C8.8,3.4,7.7,4.5,6.6,5.5
			C7.2,4.7,8,3.6,9,2.6z M10.8,4.4C11.9,3.5,13,2.6,14,1.8c-0.7,0.7-1.4,1.4-2.2,2.1c-1.6,1.4-3.1,2.7-4.6,3.8
			C8.3,6.7,9.5,5.6,10.8,4.4z M12.5,4.5C10.9,6,9.4,7.3,7.9,8.4C9,7.3,10.2,6.2,11.5,5c1.1-0.9,2.2-1.8,3.2-2.6
			C14,3.1,13.3,3.8,12.5,4.5z M18.3,3c-0.7,0.7-1.4,1.4-2.2,2.1c-1.6,1.4-3.1,2.7-4.6,3.8c1.1-1.1,2.3-2.2,3.6-3.4
			C16.2,4.7,17.2,3.8,18.3,3z M8.8,10.8c1.4-1.7,3.1-3.5,5.1-5.3c0.9-0.8,1.8-1.5,2.6-2.2c-1,1-1.9,1.9-2.9,2.9
			C12,7.7,10.4,9.2,8.8,10.8z M9.2,12.4c1.6-1.5,3.2-3.1,5-4.7c1.4-1.3,2.8-2.4,4.2-3.5c-1.1,1.1-2.3,2.1-3.4,3.2
			C13,9.1,11.1,10.8,9.2,12.4z M9.4,13.4c1.1-1.3,2.5-2.7,4.1-4.1c1.4-1.2,2.7-2.2,4-3c-1.1,1-2.2,1.9-3.3,2.9
			C12.6,10.6,11,12,9.4,13.4z M17.5,7.7c-1.2,1.1-2.4,2.1-3.6,3c0.2-0.2,0.4-0.4,0.6-0.6c0.8-0.7,1.5-1.4,2.2-2.1
			c-0.1,0.1-0.2,0.1-0.3,0.2c-0.1,0-0.1,0.1-0.2,0.2c-1.3,1.1-2.4,2.2-3.5,3.3c-0.9,0.8-1.8,1.5-2.7,2.1c1.1-1.1,2.3-2.2,3.6-3.4
			c1-0.9,2-1.7,2.9-2.4c1-0.9,2.1-1.7,3-2.5C19,6.2,18.3,7,17.5,7.7z"/>
	</defs>
	<clipPath id="SVGID_2_">
		<use xlink:href="#SVGID_1_"  style="overflow:visible;"/>
	</clipPath>
	<path class="st0" d="M6.7,0C2.2,0,6.3,10.3,8.5,10.8C8,3.2,7.1,0.8,7.4,0.6c0.3-0.2,1.4,3.1,2,10.2C11.4,9.8,12.9,0,8,0"/>
	<path class="st0" d="M9.4,10.8c-0.4,0.1-0.7,0.1-0.9,0l0.4,3.4L9.6,16v-1.5L9.4,10.8z"/>
</g>
</svg>
