<?xml version="1.0" encoding="utf-8"?>
<!-- Generator: Adobe Illustrator 23.0.0, SVG Export Plug-In . SVG Version: 6.00 Build 0)  -->
<svg version="1.1" id="Layer_1" xmlns="http://www.w3.org/2000/svg" xmlns:xlink="http://www.w3.org/1999/xlink" x="0px" y="0px"
	 viewBox="0 0 16 16" style="enable-background:new 0 0 16 16;" xml:space="preserve">
<style type="text/css">
	.st0{clip-path:url(#SVGID_2_);fill:#F75049;}
</style>
<g>
	<defs>
		<path id="SVGID_1_" d="M22.8,4.8c-0.1-0.1-0.3,0-0.6-0.2C22,4.4,22,4.2,21.9,4.1c-0.4-0.2-1.3,0.5-1.3,0.5c0,0,0.4-0.3,0.7-0.7
			c0.2-0.2,0.6-0.7,0.5-1c-0.1-0.2-0.3-0.2-0.3-0.3c0-0.3,0.5-0.4,0.4-0.7c0-0.2-0.2-0.3-0.3-0.3c-0.3-0.1-0.8,0.2-0.8,0.2
			c0,0,0.3-0.2,0.4-0.5c0-0.1,0.2-0.3,0.1-0.5c-0.1-0.1-0.3-0.1-0.4-0.1c-0.1,0-0.2,0.1-0.2,0c0,0,0-0.1,0-0.2
			c0-0.2-0.3-0.3-0.6-0.3c-0.5,0-0.9,0.5-1,0.4c-0.1-0.1,0.5-0.5,0.4-0.9c0-0.1-0.2-0.3-0.4-0.3c-0.3,0-0.4,0.3-0.5,0.3
			c-0.1-0.1,0.1-0.7-0.1-0.9c-0.1-0.1-0.3,0.1-0.6,0c-0.2-0.1-0.2-0.1-0.3-0.2c-0.3-0.1-0.8,0.4-1.3,0.9c-0.2,0.2-0.6,0.5-1.1,0.8
			c0.3-0.3,0.5-0.6,0.7-0.7c0.4-0.4,0.6-0.6,0.6-0.9c0-0.1,0-0.4-0.2-0.4C16.2-1.7,16-1.4,15.3-1c-0.2,0.1-0.3,0.2-0.4,0.3
			c0,0,0.3-0.4,0.2-0.7c0,0-0.1-0.2-0.2-0.3c-0.4-0.3-1.1-0.2-1.2-0.2c-0.9,0.2-1.1,0.8-2.1,1.3c0,0-0.1,0.1-0.3,0.2
			C10.9-0.1,10.7,0,10.6,0c-0.3,0.2-0.5,0.3-0.6,0.6C9.9,0.9,9.9,1,9.8,1.2C9.6,1.3,9.5,1.4,9.4,1.4C8.8,1.5,8.1,2.6,8,2.7
			C7.6,3.3,6.3,4.6,2.8,7.8C7.5,2.8,9,1.2,9,1.1c0,0,0,0,0,0c0-0.1,0.2-0.4,0-0.6C9,0.4,8.8,0.5,8.8,0.4c0,0,0-0.1,0-0.1
			C8.8,0,9.2,0,9.2-0.1c0,0-0.1-0.1-0.2-0.1C8.7-0.3,8.7-0.4,8.5-0.5C8.3-0.5,8-0.4,7.9-0.3C7.7-0.2,7.5,0,7.5-0.1c0,0,0-0.2,0-0.3
			C7.4-0.5,7.2-0.4,7.2-0.4c-0.3,0-0.5,0.3-0.6,0.2c-0.1,0,0-0.2-0.1-0.3C6.4-0.7,6.3-0.6,6.1-0.7C5.9-0.9,6-1,5.8-1.3
			C5.7-1.3,5.6-1.5,5.4-1.6c-0.2-0.1-0.3,0-0.5-0.1C4.6-1.7,4.6-1.9,4.4-1.9c-0.2,0-0.3,0-0.4,0.1C3.7-1.7,3.7-1.5,3.5-1.5
			C3.3-1.5,3.3-1.7,3-1.8c-0.1,0-0.2,0-0.3,0c-0.1,0.1,0,0.4-0.1,0.5c-0.1,0.1-0.2,0.1-0.3,0C2.2-1.3,2.3-1.4,2.2-1.5
			C2-1.7,1.1-1.4,0.8-0.8c0,0.1-0.1,0.2-0.2,0.3c-0.2,0.1-0.3,0-0.5,0c-0.3,0-0.5,0.2-1.1,1c0,0-0.1,0.1-0.6,0.6
			c-0.9,1-1,1.1-1.1,1.4c0,0.5,0,0.7,0,0.7c0,0.1,0.1,0.3,0,0.4c-0.1,0.1-0.1,0-0.2,0.1c-0.1,0.1,0.1,0.4,0,0.8c0,0,0,0,0,0.3
			c-0.1,0.5-0.1,0.6,0,0.7c0.1,0.1,0.2,0.1,0.3,0.1c0.2,0,0.3-0.1,0.4-0.1C-1.8,4.9-1.4,4.4-1,4c-0.2,0.3-0.3,0.6-0.4,0.7
			c-0.2,0.2-0.3,0.4-0.5,0.7C-2,5.5-2,5.6-2.1,5.8C-2.1,6-2.3,6.3-2.1,6.6C-2.1,6.7-2,6.7-2,6.9C-2,7-2,7.1-2,7.3
			c0,0.1,0.1,0.1,0.2,0.1c0.1,0.1,0,0.3,0,0.6c0,0.2,0.1,0.1,0.1,0.3c0.1,0.3-0.1,0.4,0,0.7c0,0.1,0,0.2,0.1,0.3
			c0.1,0.1,0.4-0.1,0.6,0c0.2,0.1,0.1,0.3,0.3,0.4c0.1,0,0.2-0.1,0.4,0c0,0,0.3,0,0.3,0.1c0,0.1-0.1,0.3-0.3,0.4
			c-0.4,0.2-0.8-0.1-0.9,0c0,0.1,0.1,0.2,0.2,0.3c1,0.9,1,1,1.3,1.2c0.3,0.2,0.3,0.1,0.7,0.3c0.5,0.3,1.1,0.6,1.1,1
			c0,0.2-0.2,0.3-0.1,0.6c0,0.2,0.1,0.5,0.3,0.6c0.2,0.1,0.3-0.1,0.6-0.1c0.3,0,0.3,0.2,0.6,0.3c0.4,0,0.5-0.4,0.8-0.4
			c0.2,0,0.2,0.2,0.4,0.3c0.2,0.1,0.4,0,0.5,0c1-1.1,2.6-2.7,4.6-4.8c1.6-1.7,2.1-2.2,3-3.1c2.6-2.5,5.4-4.5,5.5-4.3
			c0.1,0.1-1.2,1.3-5.5,5.4c-3,2.8-5.4,5.2-7.1,6.8c0,0.3,0.1,0.5,0.2,0.5c0.2,0.1,0.5-0.2,0.8,0c0.1,0.1,0.3,0.2,0.3,0.4
			c0,0.2,0,0.3,0.1,0.4c0.1,0.1,0.1,0,0.2,0.1c0.2,0.2,0.1,0.3,0.3,0.5c0.2,0.1,0.4,0,0.4,0.2c0,0.1,0,0.1,0,0.3
			c0,0.1,0.2,0.1,0.2,0.3c0,0.2-0.3,0.3-0.3,0.6c0,0.2,0.1,0.2,0.1,0.5c0,0.5-0.6,0.6-0.5,0.9c0,0.2,0.2,0.4,0.4,0.5
			c0.3,0,0.5-0.4,0.8-0.4c0.4,0,0.6,0.6,0.9,0.5c0.3,0,0.3-0.4,0.6-0.4c0.2,0,0.3,0.1,0.4,0c0.1-0.1,0.1-0.2,0.3-0.3
			c0.1,0,0.1,0,0.2,0c0.2,0,0.6-0.4,0.7-0.8c0.1-0.4,0-0.5,0.2-0.8c0.1-0.2,0.3-0.3,0.4-0.4c0.5-0.4,1.2-1,1.8-1.6
			c0.8-0.8,0.9-1.1,1.5-1.4c0.1,0,0.3-0.1,0.5-0.3c0.3-0.3,0.4-0.6,0.6-0.8c0.4-0.8,0.8-0.8,1.7-2c0-0.1,0.2-0.3,0.2-0.4
			c-0.1-0.1-1.2,1.1-1.4,1c-0.1-0.1-0.1-0.2-0.1-0.2c0.1-0.6,0.8-0.8,1.9-1.7c0.3-0.2,0.2-0.2,0.5-0.5c0.8-0.7,1.7-1.3,2-1.7
			c0.1-0.3,0.2-0.6,0.2-0.6c0-0.1,0-0.1,0.1-0.2c0.1-0.3,0.2-0.4,0.7-0.9C22.8,5,22.8,4.9,22.8,4.8z M5.8,4C5.5,4.4,5.2,4.7,4.9,4.9
			C5,4.6,5.3,4.3,5.7,4C5.8,3.8,6,3.7,6.1,3.6C6,3.8,5.9,3.9,5.8,4z M5.6,2.8c0.5-0.5,1-1,1.4-1.4c-0.3,0.5-0.8,1-1.3,1.5
			C5.4,3.2,5.1,3.5,4.8,3.8C5,3.5,5.3,3.1,5.6,2.8z M0,2.8c0.1-0.2,0.2-0.4,0.4-0.6C0.6,2.1,0.6,2,0.7,1.9c0,0.1-0.1,0.2-0.2,0.3
			C0.4,2.4,0.2,2.6,0,2.8z M0.9,10.9c-0.1,0.1-0.2,0.2-0.3,0.2c0,0,0-0.2,0.1-0.3C0.8,10.7,1,10.6,1,10.6C1,10.7,1,10.8,0.9,10.9z
			 M0.6,6.3c0.3-0.4,0.7-0.8,1-1.2c0,0.1,0,0.2,0,0.3C1.2,5.7,0.9,6,0.6,6.3z M2.3,12.3c0,0-0.2-0.2-0.5-0.6
			c-0.1-0.1-0.2-0.2-0.2-0.3c0-0.1,0.1-0.1,0.2-0.2C2,11.2,2.1,11,2.3,10.8c0,0.2-0.1,0.3-0.1,0.4c0,0.1-0.1,0.2-0.1,0.3
			c0,0.1,0.1,0,0.1,0.1c0.1,0.1,0,0.2,0,0.3C2.2,12.1,2.3,12.3,2.3,12.3z M2.2,1c0.1-0.2,0.2-0.4,0.4-0.6c0.1-0.1,0.2-0.2,0.2-0.2
			c0,0.1-0.1,0.2-0.2,0.3C2.5,0.7,2.4,0.9,2.2,1z M5,7.6c1-1.3,2.3-2.8,3.8-4.2c1.1-1.1,2.2-2,3.2-2.8C11.3,1.3,10.5,2,9.8,2.7
			C8.1,4.3,6.5,6,5,7.6z M9.9,3.4c0.8-0.8,1.6-1.5,2.4-2c-0.4,0.5-0.9,1-1.4,1.6C9.8,4.1,8.6,5.2,7.5,6.3C8.1,5.4,8.9,4.4,9.9,3.4z
			 M11.8,5.1c1.1-0.9,2.2-1.8,3.2-2.6c-0.7,0.7-1.4,1.4-2.2,2.1c-1.6,1.4-3.1,2.7-4.6,3.8C9.2,7.4,10.4,6.3,11.8,5.1z M13.5,5.3
			C11.9,6.7,10.3,8,8.9,9.1C10,8,11.2,6.9,12.5,5.7c1.1-0.9,2.2-1.8,3.2-2.6C15,3.8,14.2,4.6,13.5,5.3z M19.2,3.7
			c-0.7,0.7-1.4,1.4-2.2,2.1c-1.6,1.4-3.1,2.7-4.6,3.8c1.1-1.1,2.3-2.2,3.6-3.4C17.1,5.4,18.2,4.5,19.2,3.7z M9.7,11.5
			c1.4-1.7,3.1-3.5,5.1-5.3c0.9-0.8,1.8-1.5,2.6-2.2c-1,1-1.9,1.9-2.9,2.9C13,8.4,11.3,10,9.7,11.5z M10.1,13.1
			c1.6-1.5,3.2-3.1,5-4.7C16.6,7.2,18,6,19.3,4.9c-1.1,1.1-2.3,2.1-3.4,3.2C13.9,9.8,12,11.5,10.1,13.1z M10.4,14.1
			c1.1-1.3,2.5-2.7,4.1-4.1c1.4-1.2,2.7-2.2,4-3c-1.1,1-2.2,1.9-3.3,2.9C13.6,11.3,12,12.7,10.4,14.1z M18.4,8.4
			c-1.2,1.1-2.4,2.1-3.6,3c0.2-0.2,0.4-0.4,0.6-0.6c0.8-0.7,1.5-1.4,2.2-2.1c-0.1,0.1-0.2,0.1-0.3,0.2c-0.1,0-0.1,0.1-0.2,0.2
			c-1.3,1.1-2.4,2.2-3.5,3.3c-0.9,0.8-1.8,1.5-2.7,2.1c1.1-1.1,2.3-2.2,3.6-3.4c1-0.9,2-1.7,2.9-2.4c1-0.9,2.1-1.7,3-2.5
			C19.9,7,19.2,7.7,18.4,8.4z"/>
	</defs>
	<clipPath id="SVGID_2_">
		<use xlink:href="#SVGID_1_"  style="overflow:visible;"/>
	</clipPath>
	<path class="st0" d="M4.9,3h6.2C12.1,3,13,3.9,13,4.9v0.2C13,6.1,12.1,7,11.1,7H4.9C3.9,7,3,6.1,3,5.1V4.9C3,3.9,3.9,3,4.9,3z"/>
	<circle class="st0" cx="5" cy="5" r="1"/>
	<path class="st0" d="M4.9,9h6.1c1.1,0,1.9,0.9,1.9,1.9v0.1c0,1.1-0.9,1.9-1.9,1.9H4.9C3.9,13,3,12.1,3,11.1v-0.1C3,9.9,3.9,9,4.9,9
		z"/>
	<circle class="st0" cx="11" cy="11" r="1"/>
</g>
</svg>
