<?xml version="1.0" encoding="utf-8"?>
<!-- Generator: Adobe Illustrator 23.0.0, SVG Export Plug-In . SVG Version: 6.00 Build 0)  -->
<svg version="1.1" id="Layer_1" xmlns="http://www.w3.org/2000/svg" xmlns:xlink="http://www.w3.org/1999/xlink" x="0px" y="0px"
	 viewBox="0 0 16 16" style="enable-background:new 0 0 16 16;" xml:space="preserve">
<style type="text/css">
	.st0{clip-path:url(#SVGID_2_);fill:#F75049;}
</style>
<g>
	<defs>
		<path id="SVGID_1_" d="M22.2,3.2c-0.1-0.1-0.3,0-0.6-0.2c-0.2-0.2-0.2-0.3-0.3-0.4c-0.4-0.2-1.3,0.5-1.3,0.5c0,0,0.4-0.3,0.7-0.7
			c0.2-0.2,0.6-0.7,0.5-1C21.2,1.2,21,1.2,21,1.1c0-0.3,0.5-0.4,0.4-0.7c0-0.2-0.2-0.3-0.3-0.3c-0.3-0.1-0.8,0.2-0.8,0.2
			c0,0,0.3-0.2,0.4-0.5c0-0.1,0.2-0.3,0.1-0.5c-0.1-0.1-0.3-0.1-0.4-0.1c-0.1,0-0.2,0.1-0.2,0c0,0,0-0.1,0-0.2
			c0-0.2-0.3-0.3-0.6-0.3c-0.5,0-0.9,0.5-1,0.4c-0.1-0.1,0.5-0.5,0.4-0.9c0-0.1-0.2-0.3-0.4-0.3c-0.3,0-0.4,0.3-0.5,0.3
			C18-1.8,18.2-2.4,18-2.6c-0.1-0.1-0.3,0.1-0.6,0c-0.2-0.1-0.2-0.1-0.3-0.2c-0.3-0.1-0.8,0.4-1.3,0.9c-0.2,0.2-0.6,0.5-1.1,0.8
			c0.3-0.3,0.5-0.6,0.7-0.7C15.8-2.3,16-2.4,16-2.7c0-0.1,0-0.4-0.2-0.4c-0.2-0.1-0.4,0.2-1.1,0.6c-0.2,0.1-0.3,0.2-0.4,0.3
			c0,0,0.3-0.4,0.2-0.7c0,0-0.1-0.2-0.2-0.3c-0.4-0.3-1.1-0.2-1.2-0.2c-0.9,0.2-1.1,0.8-2.1,1.3c0,0-0.1,0.1-0.3,0.2
			c-0.4,0.2-0.6,0.3-0.7,0.4C9.8-1.3,9.6-1.2,9.5-0.9C9.3-0.7,9.4-0.5,9.2-0.3C9.1-0.2,8.9-0.2,8.9-0.2C8.3,0,7.6,1,7.5,1.2
			C7.1,1.7,5.8,3.1,2.3,6.2c4.7-5,6.2-6.6,6.2-6.7c0,0,0,0,0,0c0-0.1,0.2-0.4,0-0.6c-0.1-0.1-0.2,0-0.3-0.1c0,0,0-0.1,0-0.1
			c0-0.2,0.4-0.2,0.4-0.3c0,0-0.1-0.1-0.2-0.1C8.1-1.9,8.1-2,8-2C7.7-2.1,7.5-1.9,7.3-1.8C7.1-1.7,7-1.6,6.9-1.6c0,0,0-0.2,0-0.3
			C6.9-2,6.7-2,6.6-2C6.3-2,6.1-1.7,6-1.8c-0.1,0,0-0.2-0.1-0.3C5.8-2.2,5.7-2.2,5.6-2.3C5.4-2.4,5.5-2.5,5.3-2.8
			C5.2-2.9,5.1-3.1,4.8-3.1c-0.2-0.1-0.3,0-0.5-0.1C4.1-3.3,4.1-3.4,3.8-3.5c-0.2,0-0.3,0-0.4,0.1C3.1-3.2,3.1-3.1,3-3.1
			c-0.2,0-0.2-0.2-0.5-0.2c-0.1,0-0.2,0-0.3,0C2-3.2,2.2-2.9,2.1-2.8C2-2.8,1.9-2.8,1.8-2.8C1.7-2.9,1.7-3,1.7-3
			C1.5-3.2,0.5-3,0.2-2.4c0,0.1-0.1,0.2-0.2,0.3c-0.2,0.1-0.3,0-0.5,0c-0.3,0-0.5,0.2-1.1,1c0,0-0.1,0.1-0.6,0.6
			c-0.9,1-1,1.1-1.1,1.4c0,0.5,0,0.7,0,0.7c0,0.1,0.1,0.3,0,0.4c-0.1,0.1-0.1,0-0.2,0.1c-0.1,0.1,0.1,0.4,0,0.8c0,0,0,0,0,0.3
			c-0.1,0.5-0.1,0.6,0,0.7C-3.2,3.9-3.1,3.9-3,3.9c0.2,0,0.3-0.1,0.4-0.1c0.4-0.5,0.8-0.9,1.1-1.4C-1.7,2.8-1.9,3-2,3.2
			c-0.2,0.2-0.3,0.4-0.5,0.7c0,0.1-0.1,0.2-0.2,0.4C-2.7,4.5-2.8,4.7-2.7,5c0,0.1,0.1,0.2,0.1,0.3c0,0.2,0,0.3,0,0.4
			c0,0.1,0.1,0.1,0.2,0.1c0.1,0.1,0,0.3,0,0.6c0,0.2,0.1,0.1,0.1,0.3c0.1,0.3-0.1,0.4,0,0.7c0,0.1,0,0.2,0.1,0.3
			c0.1,0.1,0.4-0.1,0.6,0C-1.4,7.8-1.4,8-1.3,8.1c0.1,0,0.2-0.1,0.4,0c0,0,0.3,0,0.3,0.1c0,0.1-0.1,0.3-0.3,0.4
			c-0.4,0.2-0.8-0.1-0.9,0c0,0.1,0.1,0.2,0.2,0.3c1,0.9,1,1,1.3,1.2c0.3,0.2,0.3,0.1,0.7,0.3c0.5,0.3,1.1,0.6,1.1,1
			c0,0.2-0.2,0.3-0.1,0.6c0,0.2,0.1,0.5,0.3,0.6c0.2,0.1,0.3-0.1,0.6-0.1c0.3,0,0.3,0.2,0.6,0.3c0.4,0,0.5-0.4,0.8-0.4
			c0.2,0,0.2,0.2,0.4,0.3c0.2,0.1,0.4,0,0.5,0c1-1.1,2.6-2.7,4.6-4.8c1.6-1.7,2.1-2.2,3-3.1c2.6-2.5,5.4-4.5,5.5-4.3
			c0.1,0.1-1.2,1.3-5.5,5.4c-3,2.8-5.4,5.2-7.1,6.8c0,0.3,0.1,0.5,0.2,0.5c0.2,0.1,0.5-0.2,0.8,0c0.1,0.1,0.3,0.2,0.3,0.4
			c0,0.2,0,0.3,0.1,0.4c0.1,0.1,0.1,0,0.2,0.1c0.2,0.2,0.1,0.3,0.3,0.5c0.2,0.1,0.4,0,0.4,0.2c0,0.1,0,0.1,0,0.3
			c0,0.1,0.2,0.1,0.2,0.3c0,0.2-0.3,0.3-0.3,0.6c0,0.2,0.1,0.2,0.1,0.5c0,0.5-0.6,0.6-0.5,0.9c0,0.2,0.2,0.4,0.4,0.5
			c0.3,0,0.5-0.4,0.8-0.4c0.4,0,0.6,0.6,0.9,0.5c0.3,0,0.3-0.4,0.6-0.4c0.2,0,0.3,0.1,0.4,0c0.1-0.1,0.1-0.2,0.3-0.3
			c0.1,0,0.1,0,0.2,0c0.2,0,0.6-0.4,0.7-0.8c0.1-0.4,0-0.5,0.2-0.8c0.1-0.2,0.3-0.3,0.4-0.4c0.5-0.4,1.2-1,1.8-1.6
			c0.8-0.8,0.9-1.1,1.5-1.4c0.1,0,0.3-0.1,0.5-0.3c0.3-0.3,0.4-0.6,0.6-0.8c0.4-0.8,0.8-0.8,1.7-2c0-0.1,0.2-0.3,0.2-0.4
			c-0.1-0.1-1.2,1.1-1.4,1c-0.1-0.1-0.1-0.2-0.1-0.2c0.1-0.6,0.8-0.8,1.9-1.7c0.3-0.2,0.2-0.2,0.5-0.5c0.8-0.7,1.7-1.3,2-1.7
			C20.9,5.3,21,5,21,5c0-0.1,0-0.1,0.1-0.2c0.1-0.3,0.2-0.4,0.7-0.9C22.2,3.4,22.3,3.3,22.2,3.2z M5.3,2.5C5,2.9,4.6,3.1,4.3,3.3
			c0.2-0.3,0.4-0.6,0.8-0.9c0.1-0.1,0.3-0.2,0.4-0.3C5.5,2.2,5.4,2.3,5.3,2.5z M5,1.3c0.5-0.5,1-1,1.4-1.4c-0.3,0.5-0.8,1-1.3,1.5
			C4.9,1.7,4.6,1.9,4.3,2.2C4.5,1.9,4.8,1.6,5,1.3z M-0.5,1.2C-0.4,1-0.3,0.8-0.1,0.6C0,0.5,0.1,0.4,0.2,0.4c0,0.1-0.1,0.2-0.2,0.3
			C-0.2,0.9-0.3,1.1-0.5,1.2z M0.3,9.4C0.2,9.5,0.1,9.5,0.1,9.5c0,0,0-0.2,0.1-0.3c0.1-0.1,0.3-0.2,0.3-0.2C0.5,9.1,0.4,9.2,0.3,9.4
			z M0,4.7c0.3-0.4,0.7-0.8,1-1.2c0,0.1,0,0.2,0,0.3C0.7,4.1,0.4,4.4,0,4.7z M1.7,10.7c0,0-0.2-0.2-0.5-0.6C1.1,10,1.1,10,1.1,9.9
			c0-0.1,0.1-0.1,0.2-0.2c0.1-0.1,0.3-0.2,0.4-0.5c0,0.2-0.1,0.3-0.1,0.4c0,0.1-0.1,0.2-0.1,0.3c0,0.1,0.1,0,0.1,0.1
			c0.1,0.1,0,0.2,0,0.3C1.6,10.5,1.8,10.7,1.7,10.7z M1.7-0.6C1.7-0.8,1.9-1,2.1-1.2c0.1-0.1,0.2-0.2,0.2-0.2c0,0.1-0.1,0.2-0.2,0.3
			C2-0.9,1.8-0.7,1.7-0.6z M4.5,6c1-1.3,2.3-2.8,3.8-4.2c1.1-1.1,2.2-2,3.2-2.8C10.7-0.3,10,0.4,9.2,1.2C7.6,2.8,6,4.4,4.5,6z
			 M9.4,1.8c0.8-0.8,1.6-1.5,2.4-2c-0.4,0.5-0.9,1-1.4,1.6C9.2,2.6,8.1,3.7,7,4.7C7.6,3.8,8.4,2.8,9.4,1.8z M11.2,3.6
			c1.1-0.9,2.2-1.8,3.2-2.6c-0.7,0.7-1.4,1.4-2.2,2.1C10.6,4.6,9.1,5.8,7.6,7C8.7,5.9,9.9,4.7,11.2,3.6z M12.9,3.7
			c-1.6,1.4-3.1,2.7-4.6,3.8c1.1-1.1,2.3-2.2,3.6-3.4c1.1-0.9,2.2-1.8,3.2-2.6C14.4,2.3,13.7,3,12.9,3.7z M18.7,2.2
			c-0.7,0.7-1.4,1.4-2.2,2.1c-1.6,1.4-3.1,2.7-4.6,3.8c1.1-1.1,2.3-2.2,3.6-3.4C16.6,3.8,17.6,3,18.7,2.2z M9.2,9.9
			c1.4-1.7,3.1-3.5,5.1-5.3c0.9-0.8,1.8-1.5,2.6-2.2c-1,1-1.9,1.9-2.9,2.9C12.4,6.9,10.8,8.4,9.2,9.9z M9.6,11.6
			c1.6-1.5,3.2-3.1,5-4.7c1.4-1.3,2.8-2.4,4.2-3.5c-1.1,1.1-2.3,2.1-3.4,3.2C13.4,8.3,11.5,10,9.6,11.6z M9.8,12.6
			c1.1-1.3,2.5-2.7,4.1-4.1c1.4-1.2,2.7-2.2,4-3c-1.1,1-2.2,1.9-3.3,2.9C13,9.8,11.4,11.2,9.8,12.6z M17.9,6.9
			c-1.2,1.1-2.4,2.1-3.6,3c0.2-0.2,0.4-0.4,0.6-0.6c0.8-0.7,1.5-1.4,2.2-2.1c-0.1,0.1-0.2,0.1-0.3,0.2c-0.1,0-0.1,0.1-0.2,0.2
			c-1.3,1.1-2.4,2.2-3.5,3.3c-0.9,0.8-1.8,1.5-2.7,2.1c1.1-1.1,2.3-2.2,3.6-3.4c1-0.9,2-1.7,2.9-2.4c1-0.9,2.1-1.7,3-2.5
			C19.4,5.4,18.7,6.1,17.9,6.9z"/>
	</defs>
	<clipPath id="SVGID_2_">
		<use xlink:href="#SVGID_1_"  style="overflow:visible;"/>
	</clipPath>
	<path class="st0" d="M13,3.2c0.5,0.1,1,0.4,1.3,0.8c0.2,0.2,0.5,0.6,0.5,0.7c0,0-0.9,0.7-1.5,1c0,0-0.1-0.1-0.2-0.2
		c-0.3-0.4-0.6-0.6-1-0.6c-0.6,0-1.1,0.3-1.1,0.9c0,0.2,0,0.3,0.1,0.4c0.1,0.3,0.4,0.5,1.2,0.8C14,7.6,14.7,8,15.1,8.7
		c0.5,0.7,0.6,1.8,0.2,2.6C15,12.2,14.1,12.8,13,13c-0.4,0.1-1.2,0.1-1.6,0c-0.9-0.2-1.7-0.6-2.2-1.1C9,11.6,8.6,11,8.6,11
		c0,0,0.1-0.1,0.2-0.1c0.1-0.1,0.5-0.3,0.8-0.5l0.6-0.4l0.1,0.2c0.2,0.3,0.6,0.7,0.8,0.8c0.7,0.4,1.6,0.3,2.1-0.1
		c0.2-0.2,0.3-0.4,0.3-0.6c0-0.2,0-0.4-0.2-0.5c-0.2-0.2-0.5-0.4-1.5-0.9c-1.1-0.5-1.6-0.8-2-1.2C9.6,7.4,9.4,6.9,9.3,6.6
		c-0.1-0.3-0.1-1.1,0-1.4c0.2-1.1,1-1.8,2.2-2C11.8,3.1,12.7,3.1,13,3.2L13,3.2z"/>
	<path class="st0" d="M8,4.1L8,5H6.6H5.3v4v4h-1h-1v-4V5H1.9H0.5V4.1c0-0.5,0-0.9,0-0.9c0,0,1.7,0,3.8,0l3.7,0L8,4.1z"/>
</g>
</svg>
