<?xml version="1.0" encoding="utf-8"?>
<!-- Generator: Adobe Illustrator 23.0.0, SVG Export Plug-In . SVG Version: 6.00 Build 0)  -->
<svg version="1.1" id="Layer_1" xmlns="http://www.w3.org/2000/svg" xmlns:xlink="http://www.w3.org/1999/xlink" x="0px" y="0px"
	 viewBox="0 0 16 16" style="enable-background:new 0 0 16 16;" xml:space="preserve">
<style type="text/css">
	.st0{clip-path:url(#SVGID_2_);fill-rule:evenodd;clip-rule:evenodd;fill:#F75049;}
</style>
<g>
	<defs>
		<path id="SVGID_1_" d="M20.8,4.9c-0.1-0.1-0.3,0-0.6-0.2c-0.2-0.2-0.2-0.3-0.3-0.4c-0.4-0.2-1.3,0.5-1.3,0.5c0,0,0.4-0.3,0.7-0.7
			c0.2-0.2,0.6-0.7,0.5-1c-0.1-0.2-0.3-0.2-0.3-0.3c0-0.3,0.5-0.4,0.4-0.7c0-0.2-0.2-0.3-0.3-0.3c-0.3-0.1-0.8,0.2-0.8,0.2
			c0,0,0.3-0.2,0.4-0.5c0-0.1,0.2-0.3,0.1-0.5c-0.1-0.1-0.3-0.1-0.4-0.1c-0.1,0-0.2,0.1-0.2,0c0,0,0-0.1,0-0.2
			c0-0.2-0.3-0.3-0.6-0.3c-0.5,0-0.9,0.5-1,0.4c-0.1-0.1,0.5-0.5,0.4-0.9c0-0.1-0.2-0.3-0.4-0.3c-0.3,0-0.4,0.3-0.5,0.3
			c-0.1-0.1,0.1-0.7-0.1-0.9c-0.1-0.1-0.3,0.1-0.6,0c-0.2-0.1-0.2-0.1-0.3-0.2c-0.3-0.1-0.8,0.4-1.3,0.9c-0.2,0.2-0.6,0.5-1.1,0.8
			C13.6,0.3,13.8,0,14-0.2c0.4-0.4,0.6-0.6,0.6-0.9c0-0.1,0-0.4-0.2-0.4c-0.2-0.1-0.4,0.2-1.1,0.6c-0.2,0.1-0.3,0.2-0.4,0.3
			c0,0,0.3-0.4,0.2-0.7c0,0-0.1-0.2-0.2-0.3c-0.4-0.3-1.1-0.2-1.2-0.2c-0.9,0.2-1.1,0.8-2.1,1.3c0,0-0.1,0.1-0.3,0.2
			C8.9,0,8.7,0.1,8.6,0.1C8.4,0.3,8.2,0.5,8,0.7C7.9,1,8,1.1,7.8,1.3C7.7,1.4,7.5,1.5,7.5,1.5C6.9,1.6,6.2,2.7,6.1,2.8
			C5.7,3.4,4.4,4.7,0.9,7.9c4.7-5,6.2-6.6,6.2-6.7c0,0,0,0,0,0c0-0.1,0.2-0.4,0-0.6C7,0.5,6.9,0.6,6.8,0.5c0,0,0-0.1,0-0.1
			c0-0.2,0.4-0.2,0.4-0.3c0,0-0.1-0.1-0.2-0.1C6.7-0.2,6.7-0.3,6.6-0.4C6.3-0.4,6.1-0.3,5.9-0.2C5.7-0.1,5.6,0.1,5.5,0
			c0,0,0-0.2,0-0.3C5.4-0.4,5.3-0.3,5.2-0.3c-0.3,0-0.5,0.3-0.6,0.2c-0.1,0,0-0.2-0.1-0.3C4.4-0.6,4.3-0.5,4.2-0.6
			C4-0.8,4.1-0.9,3.8-1.2C3.8-1.3,3.7-1.4,3.4-1.5c-0.2-0.1-0.3,0-0.5-0.1C2.7-1.6,2.7-1.8,2.4-1.8c-0.2,0-0.3,0-0.4,0.1
			C1.7-1.6,1.7-1.4,1.6-1.4C1.4-1.4,1.3-1.6,1-1.7c-0.1,0-0.2,0-0.3,0c-0.1,0.1,0,0.4-0.1,0.5c-0.1,0.1-0.2,0.1-0.3,0
			C0.3-1.2,0.3-1.3,0.3-1.4C0.1-1.6-0.9-1.3-1.2-0.7c0,0.1-0.1,0.2-0.2,0.3c-0.2,0.1-0.3,0-0.5,0c-0.3,0-0.5,0.2-1.1,1
			c0,0-0.1,0.1-0.6,0.6c-0.9,1-1,1.1-1.1,1.4c0,0.5,0,0.7,0,0.7c0,0.1,0.1,0.3,0,0.4c-0.1,0.1-0.1,0-0.2,0.1c-0.1,0.1,0.1,0.4,0,0.8
			c0,0,0,0,0,0.3c-0.1,0.5-0.1,0.6,0,0.7c0.1,0.1,0.2,0.1,0.3,0.1c0.2,0,0.3-0.1,0.4-0.1C-3.7,5-3.3,4.5-2.9,4.1
			c-0.2,0.3-0.3,0.6-0.4,0.7C-3.5,5-3.7,5.2-3.9,5.5C-3.9,5.6-4,5.7-4,5.9c-0.1,0.2-0.2,0.5-0.1,0.8C-4,6.8-4,6.8-3.9,7
			c0,0.2,0,0.3,0,0.4c0,0.1,0.1,0.1,0.2,0.1c0.1,0.1,0,0.3,0,0.6c0,0.2,0.1,0.1,0.1,0.3c0.1,0.3-0.1,0.4,0,0.7c0,0.1,0,0.2,0.1,0.3
			c0.1,0.1,0.4-0.1,0.6,0c0.2,0.1,0.1,0.3,0.3,0.4c0.1,0,0.2-0.1,0.4,0c0,0,0.3,0,0.3,0.1c0,0.1-0.1,0.3-0.3,0.4
			c-0.4,0.2-0.8-0.1-0.9,0c0,0.1,0.1,0.2,0.2,0.3c1,0.9,1,1,1.3,1.2c0.3,0.2,0.3,0.1,0.7,0.3c0.5,0.3,1.1,0.6,1.1,1
			c0,0.2-0.2,0.3-0.1,0.6c0,0.2,0.1,0.5,0.3,0.6c0.2,0.1,0.3-0.1,0.6-0.1c0.3,0,0.3,0.2,0.6,0.3c0.4,0,0.5-0.4,0.8-0.4
			c0.2,0,0.2,0.2,0.4,0.3c0.2,0.1,0.4,0,0.5,0c1-1.1,2.6-2.7,4.6-4.8c1.6-1.7,2.1-2.2,3-3.1C13.6,4,16.3,2,16.5,2.2
			c0.1,0.1-1.2,1.3-5.5,5.4c-3,2.8-5.4,5.2-7.1,6.8c0,0.3,0.1,0.5,0.2,0.5c0.2,0.1,0.5-0.2,0.8,0c0.1,0.1,0.3,0.2,0.3,0.4
			c0,0.2,0,0.3,0.1,0.4c0.1,0.1,0.1,0,0.2,0.1c0.2,0.2,0.1,0.3,0.3,0.5c0.2,0.1,0.4,0,0.4,0.2c0,0.1,0,0.1,0,0.3
			c0,0.1,0.2,0.1,0.2,0.3c0,0.2-0.3,0.3-0.3,0.6C5.9,17.7,6,17.7,6,18c0,0.5-0.6,0.6-0.5,0.9c0,0.2,0.2,0.4,0.4,0.5
			c0.3,0,0.5-0.4,0.8-0.4c0.4,0,0.6,0.6,0.9,0.5c0.3,0,0.3-0.4,0.6-0.4c0.2,0,0.3,0.1,0.4,0c0.1-0.1,0.1-0.2,0.3-0.3
			c0.1,0,0.1,0,0.2,0c0.2,0,0.6-0.4,0.7-0.8c0.1-0.4,0-0.5,0.2-0.8c0.1-0.2,0.3-0.3,0.4-0.4c0.5-0.4,1.2-1,1.8-1.6
			c0.8-0.8,0.9-1.1,1.5-1.4c0.1,0,0.3-0.1,0.5-0.3c0.3-0.3,0.4-0.6,0.6-0.8c0.4-0.8,0.8-0.8,1.7-2c0-0.1,0.2-0.3,0.2-0.4
			c-0.1-0.1-1.2,1.1-1.4,1C15,11.3,15,11.2,15,11.1c0.1-0.6,0.8-0.8,1.9-1.7c0.3-0.2,0.2-0.2,0.5-0.5c0.8-0.7,1.7-1.3,2-1.7
			c0.1-0.3,0.2-0.6,0.2-0.6c0-0.1,0-0.1,0.1-0.2c0.1-0.3,0.2-0.4,0.7-0.9C20.8,5.1,20.9,5,20.8,4.9z M3.9,4.1C3.6,4.5,3.2,4.8,2.9,5
			c0.2-0.3,0.4-0.6,0.8-0.9C3.9,3.9,4,3.8,4.2,3.7C4.1,3.9,4,4,3.9,4.1z M3.6,2.9c0.5-0.5,1-1,1.4-1.4C4.7,2,4.3,2.5,3.8,3
			C3.5,3.3,3.2,3.6,2.9,3.9C3.1,3.5,3.4,3.2,3.6,2.9z M-1.9,2.9c0.1-0.2,0.2-0.4,0.4-0.6C-1.4,2.2-1.3,2.1-1.2,2
			c0,0.1-0.1,0.2-0.2,0.3C-1.6,2.5-1.8,2.7-1.9,2.9z M-1.1,11c-0.1,0.1-0.2,0.2-0.3,0.2c0,0,0-0.2,0.1-0.3c0.1-0.1,0.3-0.2,0.3-0.2
			C-0.9,10.8-1,10.9-1.1,11z M-1.4,6.4c0.3-0.4,0.7-0.8,1-1.2c0,0.1,0,0.2,0,0.3C-0.7,5.8-1,6.1-1.4,6.4z M0.3,12.4
			c0,0-0.2-0.2-0.5-0.6c-0.1-0.1-0.2-0.2-0.2-0.3c0-0.1,0.1-0.1,0.2-0.2c0.1-0.1,0.3-0.2,0.4-0.5c0,0.2-0.1,0.3-0.1,0.4
			c0,0.1-0.1,0.2-0.1,0.3c0,0.1,0.1,0,0.1,0.1c0.1,0.1,0,0.2,0,0.3C0.2,12.2,0.4,12.4,0.3,12.4z M0.2,1.1c0.1-0.2,0.2-0.4,0.4-0.6
			c0.1-0.1,0.2-0.2,0.2-0.2c0,0.1-0.1,0.2-0.2,0.3C0.6,0.8,0.4,0.9,0.2,1.1z M3.1,7.7c1-1.3,2.3-2.8,3.8-4.2C8,2.4,9,1.5,10.1,0.7
			C9.3,1.4,8.6,2.1,7.8,2.8C6.2,4.4,4.6,6.1,3.1,7.7z M8,3.5c0.8-0.8,1.6-1.5,2.4-2C9.9,1.9,9.4,2.5,9,3C7.8,4.2,6.7,5.3,5.6,6.4
			C6.2,5.5,7,4.5,8,3.5z M9.8,5.2C10.9,4.3,12,3.4,13,2.6c-0.7,0.7-1.4,1.4-2.2,2.1C9.2,6.2,7.7,7.5,6.2,8.6
			C7.3,7.5,8.5,6.4,9.8,5.2z M11.5,5.4C9.9,6.8,8.4,8.1,6.9,9.2C8,8.1,9.2,7,10.5,5.8c1.1-0.9,2.2-1.8,3.2-2.6
			C13,3.9,12.3,4.7,11.5,5.4z M17.3,3.8C16.6,4.5,15.8,5.3,15,6c-1.6,1.4-3.1,2.7-4.6,3.8c1.1-1.1,2.3-2.2,3.6-3.4
			C15.2,5.5,16.2,4.6,17.3,3.8z M7.8,11.6c1.4-1.7,3.1-3.5,5.1-5.3c0.9-0.8,1.8-1.5,2.6-2.2c-1,1-1.9,1.9-2.9,2.9
			C11,8.5,9.4,10.1,7.8,11.6z M8.2,13.2c1.6-1.5,3.2-3.1,5-4.7C14.6,7.3,16,6.1,17.4,5c-1.1,1.1-2.3,2.1-3.4,3.2
			C12,9.9,10.1,11.6,8.2,13.2z M8.4,14.2c1.1-1.3,2.5-2.7,4.1-4.1c1.4-1.2,2.7-2.2,4-3c-1.1,1-2.2,1.9-3.3,2.9
			C11.6,11.4,10,12.8,8.4,14.2z M16.5,8.5c-1.2,1.1-2.4,2.1-3.6,3c0.2-0.2,0.4-0.4,0.6-0.6c0.8-0.7,1.5-1.4,2.2-2.1
			C15.7,8.9,15.6,9,15.5,9c-0.1,0-0.1,0.1-0.2,0.2c-1.3,1.1-2.4,2.2-3.5,3.3c-0.9,0.8-1.8,1.5-2.7,2.1c1.1-1.1,2.3-2.2,3.6-3.4
			c1-0.9,2-1.7,2.9-2.4c1-0.9,2.1-1.7,3-2.5C18,7.1,17.3,7.8,16.5,8.5z"/>
	</defs>
	<clipPath id="SVGID_2_">
		<use xlink:href="#SVGID_1_"  style="overflow:visible;"/>
	</clipPath>
	<path class="st0" d="M8.2,16L8.2,16L8.2,16c-2.4,0-4.4-0.7-5.9-2l0,0l0,0c-1.5-1.4-2.2-3.3-2.2-5.7l0,0l0,0c0-2.4,0.8-4.4,2.4-5.9
		l0,0l0,0C4.1,0.8,6,0,8.4,0l0,0l0,0c2.3,0,4.1,0.6,5.5,1.9l0,0l0,0c1.4,1.3,2.1,2.8,2.1,4.7l0,0l0,0c0,1.6-0.4,3-1.3,4l0,0l0,0
		c-0.9,1.1-2,1.6-3.4,1.6l0,0l0,0c-0.4,0-0.7-0.1-1.1-0.3l0,0l0,0c-0.4-0.2-0.6-0.5-0.7-0.9l0,0l0,0c-0.5,0.8-1.2,1.1-2.2,1.1l0,0
		l0,0c-0.9,0-1.7-0.3-2.3-1l0,0l0,0c-0.6-0.7-0.9-1.6-0.9-2.7l0,0l0,0c0-1.2,0.4-2.2,1.2-3.2l0,0l0,0C6,4.4,7,3.9,8.2,3.9l0,0l0,0
		C9,3.9,9.6,4.2,10,4.8l0,0l0.1-0.6h2.2l-0.7,3.9l0,0c-0.2,1-0.3,1.5-0.3,1.8l0,0l0,0c0,0.3,0.1,0.4,0.4,0.4l0,0l0,0
		c0.6,0,1.1-0.3,1.5-1l0,0l0,0c0.4-0.7,0.6-1.5,0.6-2.6l0,0l0,0c0-1.3-0.4-2.4-1.3-3.2l0,0l0,0c-0.9-0.8-2.2-1.3-3.9-1.3l0,0l0,0
		c-1.8,0-3.3,0.6-4.4,1.7l0,0l0,0C2.9,5,2.4,6.5,2.4,8.3l0,0l0,0c0,1.8,0.5,3.1,1.6,4.1l0,0l0,0c1.1,1,2.5,1.4,4.3,1.4l0,0l0,0
		c0.9,0,1.9-0.1,3-0.4l0,0l-0.6,2.4l0,0C9.7,15.9,8.9,16,8.2,16z"/>
	<path class="st0" d="M7.5,10.1L7.5,10.1L7.5,10.1c0.6,0,1-0.3,1.4-0.8l0,0l0,0c0.4-0.5,0.5-1.1,0.5-1.7l0,0l0,0
		c0-0.5-0.1-0.9-0.3-1.1l0,0l0,0C8.9,6.2,8.6,6.1,8.2,6.1l0,0l0,0c-0.6,0-1,0.2-1.4,0.7l0,0l0,0C6.5,7.3,6.3,7.8,6.3,8.5l0,0l0,0
		c0,0.5,0.1,0.9,0.3,1.1l0,0l0,0C6.8,9.9,7.1,10.1,7.5,10.1z"/>
</g>
</svg>
