<?xml version="1.0" encoding="utf-8"?>
<!-- Generator: Adobe Illustrator 23.0.0, SVG Export Plug-In . SVG Version: 6.00 Build 0)  -->
<svg version="1.1" id="Layer_1" xmlns="http://www.w3.org/2000/svg" xmlns:xlink="http://www.w3.org/1999/xlink" x="0px" y="0px"
	 viewBox="0 0 16 16" style="enable-background:new 0 0 16 16;" xml:space="preserve">
<style type="text/css">
	.st0{clip-path:url(#SVGID_2_);fill-rule:evenodd;clip-rule:evenodd;fill:#F75049;}
</style>
<g>
	<defs>
		<path id="SVGID_1_" d="M23.2,5.2c-0.1-0.1-0.3,0-0.6-0.2c-0.2-0.2-0.2-0.3-0.3-0.4C22,4.3,21.1,5,21.1,5c0,0,0.4-0.3,0.7-0.7
			c0.2-0.2,0.6-0.7,0.5-1C22.2,3.1,22,3.1,22,3c0-0.3,0.5-0.4,0.4-0.7c0-0.2-0.2-0.3-0.3-0.3c-0.3-0.1-0.8,0.2-0.8,0.2
			c0,0,0.3-0.2,0.4-0.5c0-0.1,0.2-0.3,0.1-0.5C21.7,1,21.6,1,21.4,1.1c-0.1,0-0.2,0.1-0.2,0c0,0,0-0.1,0-0.2c0-0.2-0.3-0.3-0.6-0.3
			c-0.5,0-0.9,0.5-1,0.4C19.5,1,20.1,0.5,20,0.2c0-0.1-0.2-0.3-0.4-0.3c-0.3,0-0.4,0.3-0.5,0.3C19,0.1,19.2-0.5,19-0.7
			c-0.1-0.1-0.3,0.1-0.6,0c-0.2-0.1-0.2-0.1-0.3-0.2C17.9-1,17.4-0.4,16.9,0c-0.2,0.2-0.6,0.5-1.1,0.8c0.3-0.3,0.5-0.6,0.7-0.7
			C16.8-0.3,17-0.5,17-0.8c0-0.1,0-0.4-0.2-0.4c-0.2-0.1-0.4,0.2-1.1,0.6c-0.2,0.1-0.3,0.2-0.4,0.3c0,0,0.3-0.4,0.2-0.7
			c0,0-0.1-0.2-0.2-0.3c-0.4-0.3-1.1-0.2-1.2-0.2c-0.9,0.2-1.1,0.8-2.1,1.3c0,0-0.1,0.1-0.3,0.2c-0.4,0.2-0.6,0.3-0.7,0.4
			c-0.3,0.2-0.5,0.3-0.6,0.6c-0.1,0.3-0.1,0.4-0.2,0.6c-0.1,0.1-0.3,0.2-0.4,0.2C9.3,1.9,8.6,2.9,8.5,3.1C8.1,3.6,6.8,5,3.3,8.1
			c4.7-5,6.2-6.6,6.2-6.7c0,0,0,0,0,0c0-0.1,0.2-0.4,0-0.6c-0.1-0.1-0.2,0-0.3-0.1c0,0,0-0.1,0-0.1c0-0.2,0.4-0.2,0.4-0.3
			c0,0-0.1-0.1-0.2-0.1C9.1,0,9.1-0.1,9-0.1C8.7-0.2,8.5,0,8.3,0.1C8.1,0.2,8,0.3,7.9,0.3c0,0,0-0.2,0-0.3C7.8-0.1,7.7-0.1,7.6-0.1
			C7.3-0.1,7.1,0.2,7,0.1C6.9,0.1,7,0,6.9-0.2C6.8-0.3,6.7-0.3,6.6-0.4C6.4-0.5,6.5-0.6,6.2-0.9C6.2-1,6.1-1.2,5.8-1.2
			c-0.2-0.1-0.3,0-0.5-0.1C5.1-1.4,5.1-1.5,4.8-1.6c-0.2,0-0.3,0-0.4,0.1C4.1-1.3,4.1-1.2,4-1.2c-0.2,0-0.2-0.2-0.5-0.2
			c-0.1,0-0.2,0-0.3,0C3-1.3,3.2-1,3.1-0.9C3-0.9,2.9-0.9,2.8-0.9C2.7-1,2.7-1.1,2.7-1.1C2.5-1.3,1.5-1.1,1.2-0.5
			c0,0.1-0.1,0.2-0.2,0.3c-0.2,0.1-0.3,0-0.5,0c-0.3,0-0.5,0.2-1.1,1c0,0-0.1,0.1-0.6,0.6c-0.9,1-1,1.1-1.1,1.4c0,0.5,0,0.7,0,0.7
			c0,0.1,0.1,0.3,0,0.4C-2.1,4-2.2,4-2.2,4c-0.1,0.1,0.1,0.4,0,0.8c0,0,0,0,0,0.3c-0.1,0.5-0.1,0.6,0,0.7C-2.2,5.8-2.1,5.8-2,5.8
			c0.2,0,0.3-0.1,0.4-0.1c0.4-0.5,0.8-0.9,1.1-1.4C-0.7,4.7-0.9,4.9-1,5.1c-0.2,0.2-0.3,0.4-0.5,0.7c0,0.1-0.1,0.2-0.2,0.4
			c-0.1,0.2-0.2,0.5-0.1,0.8c0,0.1,0.1,0.2,0.1,0.3c0,0.2,0,0.3,0,0.4c0,0.1,0.1,0.1,0.2,0.1c0.1,0.1,0,0.3,0,0.6
			c0,0.2,0.1,0.1,0.1,0.3c0.1,0.3-0.1,0.4,0,0.7c0,0.1,0,0.2,0.1,0.3c0.1,0.1,0.4-0.1,0.6,0c0.2,0.1,0.1,0.3,0.3,0.4
			c0.1,0,0.2-0.1,0.4,0c0,0,0.3,0,0.3,0.1c0,0.1-0.1,0.3-0.3,0.4c-0.4,0.2-0.8-0.1-0.9,0c0,0.1,0.1,0.2,0.2,0.3c1,0.9,1,1,1.3,1.2
			c0.3,0.2,0.3,0.1,0.7,0.3c0.5,0.3,1.1,0.6,1.1,1c0,0.2-0.2,0.3-0.1,0.6c0,0.2,0.1,0.5,0.3,0.6c0.2,0.1,0.3-0.1,0.6-0.1
			c0.3,0,0.3,0.2,0.6,0.3c0.4,0,0.5-0.4,0.8-0.4c0.2,0,0.2,0.2,0.4,0.3c0.2,0.1,0.4,0,0.5,0c1-1.1,2.6-2.7,4.6-4.8
			c1.6-1.7,2.1-2.2,3-3.1c2.6-2.5,5.4-4.5,5.5-4.3c0.1,0.1-1.2,1.3-5.5,5.4c-3,2.8-5.4,5.2-7.1,6.8c0,0.3,0.1,0.5,0.2,0.5
			c0.2,0.1,0.5-0.2,0.8,0c0.1,0.1,0.3,0.2,0.3,0.4c0,0.2,0,0.3,0.1,0.4c0.1,0.1,0.1,0,0.2,0.1c0.2,0.2,0.1,0.3,0.3,0.5
			c0.2,0.1,0.4,0,0.4,0.2c0,0.1,0,0.1,0,0.3c0,0.1,0.2,0.1,0.2,0.3c0,0.2-0.3,0.3-0.3,0.6c0,0.2,0.1,0.2,0.1,0.5
			c0,0.5-0.6,0.6-0.5,0.9c0,0.2,0.2,0.4,0.4,0.5c0.3,0,0.5-0.4,0.8-0.4c0.4,0,0.6,0.6,0.9,0.5c0.3,0,0.3-0.4,0.6-0.4
			c0.2,0,0.3,0.1,0.4,0c0.1-0.1,0.1-0.2,0.3-0.3c0.1,0,0.1,0,0.2,0c0.2,0,0.6-0.4,0.7-0.8c0.1-0.4,0-0.5,0.2-0.8
			c0.1-0.2,0.3-0.3,0.4-0.4c0.5-0.4,1.2-1,1.8-1.6c0.8-0.8,0.9-1.1,1.5-1.4c0.1,0,0.3-0.1,0.5-0.3c0.3-0.3,0.4-0.6,0.6-0.8
			c0.4-0.8,0.8-0.8,1.7-2c0-0.1,0.2-0.3,0.2-0.4c-0.1-0.1-1.2,1.1-1.4,1c-0.1-0.1-0.1-0.2-0.1-0.2c0.1-0.6,0.8-0.8,1.9-1.7
			c0.3-0.2,0.2-0.2,0.5-0.5c0.8-0.7,1.7-1.3,2-1.7C21.9,7.2,22,6.9,22,6.9c0-0.1,0-0.1,0.1-0.2c0.1-0.3,0.2-0.4,0.7-0.9
			C23.2,5.4,23.3,5.2,23.2,5.2z M6.3,4.4C6,4.8,5.6,5.1,5.3,5.3C5.5,5,5.8,4.6,6.1,4.3C6.3,4.2,6.4,4.1,6.6,4
			C6.5,4.1,6.4,4.3,6.3,4.4z M6,3.2c0.5-0.5,1-1,1.4-1.4c-0.3,0.5-0.8,1-1.3,1.5C5.9,3.6,5.6,3.9,5.3,4.1C5.5,3.8,5.8,3.5,6,3.2z
			 M0.5,3.1c0.1-0.2,0.2-0.4,0.4-0.6C1,2.4,1.1,2.3,1.2,2.3c0,0.1-0.1,0.2-0.2,0.3C0.8,2.8,0.7,3,0.5,3.1z M1.3,11.3
			c-0.1,0.1-0.2,0.2-0.3,0.2c0,0,0-0.2,0.1-0.3C1.3,11,1.4,11,1.5,11C1.5,11,1.4,11.2,1.3,11.3z M1,6.6c0.3-0.4,0.7-0.8,1-1.2
			c0,0.1,0,0.2,0,0.3C1.7,6,1.4,6.3,1,6.6z M2.7,12.6c0,0-0.2-0.2-0.5-0.6C2.1,12,2,11.9,2.1,11.8c0-0.1,0.1-0.1,0.2-0.2
			c0.1-0.1,0.3-0.2,0.4-0.5c0,0.2-0.1,0.3-0.1,0.4c0,0.1-0.1,0.2-0.1,0.3c0,0.1,0.1,0,0.1,0.1c0.1,0.1,0,0.2,0,0.3
			C2.6,12.4,2.8,12.6,2.7,12.6z M2.7,1.3c0.1-0.2,0.2-0.4,0.4-0.6c0.1-0.1,0.2-0.2,0.2-0.2c0,0.1-0.1,0.2-0.2,0.3
			C3,1,2.8,1.2,2.7,1.3z M5.5,7.9c1-1.3,2.3-2.8,3.8-4.2c1.1-1.1,2.2-2,3.2-2.8c-0.7,0.7-1.5,1.4-2.2,2.2C8.6,4.7,7,6.3,5.5,7.9z
			 M10.4,3.7c0.8-0.8,1.6-1.5,2.4-2c-0.4,0.5-0.9,1-1.4,1.6C10.2,4.5,9.1,5.6,8,6.6C8.6,5.7,9.4,4.7,10.4,3.7z M12.2,5.5
			c1.1-0.9,2.2-1.8,3.2-2.6C14.7,3.6,14,4.3,13.2,5c-1.6,1.4-3.1,2.7-4.6,3.8C9.7,7.8,10.9,6.6,12.2,5.5z M13.9,5.6
			c-1.6,1.4-3.1,2.7-4.6,3.8c1.1-1.1,2.3-2.2,3.6-3.4c1.1-0.9,2.2-1.8,3.2-2.6C15.4,4.2,14.7,4.9,13.9,5.6z M19.7,4.1
			c-0.7,0.7-1.4,1.4-2.2,2.1c-1.6,1.4-3.1,2.7-4.6,3.8c1.1-1.1,2.3-2.2,3.6-3.4C17.6,5.8,18.6,4.9,19.7,4.1z M10.2,11.8
			c1.4-1.7,3.1-3.5,5.1-5.3c0.9-0.8,1.8-1.5,2.6-2.2c-1,1-1.9,1.9-2.9,2.9C13.4,8.8,11.8,10.3,10.2,11.8z M10.6,13.5
			c1.6-1.5,3.2-3.1,5-4.7c1.4-1.3,2.8-2.4,4.2-3.5c-1.1,1.1-2.3,2.1-3.4,3.2C14.4,10.2,12.5,11.9,10.6,13.5z M10.8,14.5
			c1.1-1.3,2.5-2.7,4.1-4.1c1.4-1.2,2.7-2.2,4-3c-1.1,1-2.2,1.9-3.3,2.9C14,11.7,12.4,13.1,10.8,14.5z M18.9,8.8
			c-1.2,1.1-2.4,2.1-3.6,3c0.2-0.2,0.4-0.4,0.6-0.6c0.8-0.7,1.5-1.4,2.2-2.1c-0.1,0.1-0.2,0.1-0.3,0.2c-0.1,0-0.1,0.1-0.2,0.2
			c-1.3,1.1-2.4,2.2-3.5,3.3c-0.9,0.8-1.8,1.5-2.7,2.1c1.1-1.1,2.3-2.2,3.6-3.4c1-0.9,2-1.7,2.9-2.4c1-0.9,2.1-1.7,3-2.5
			C20.4,7.3,19.7,8.1,18.9,8.8z"/>
	</defs>
	<clipPath id="SVGID_2_">
		<use xlink:href="#SVGID_1_"  style="overflow:visible;"/>
	</clipPath>
	<path class="st0" d="M3.7,13.1L3.7,13.1L3.7,13.1c-0.5,0-1-0.1-1.4-0.3l0,0l0,0c-0.4-0.2-0.8-0.4-1-0.8l0,0l0,0
		c-0.3-0.3-0.5-0.7-0.7-1.1l0,0l0,0C0.3,10.4,0.2,10,0.1,9.5l0,0l0,0C0,9,0,8.5,0,8l0,0l0,0c0-0.9,0.1-1.7,0.4-2.5l0,0l0,0
		C0.6,4.8,1,4.2,1.6,3.7l0,0l0,0c0.6-0.5,1.3-0.7,2.1-0.7l0,0l0,0c1.2,0,2.1,0.6,2.7,1.7l0,0L5.3,5.2l0,0C5.1,4.9,4.9,4.6,4.6,4.4
		l0,0l0,0C4.4,4.2,4.1,4.1,3.7,4.1l0,0l0,0c-0.4,0-0.8,0.1-1.1,0.4l0,0l0,0C2.2,4.7,2,5,1.8,5.4l0,0l0,0C1.6,5.8,1.5,6.2,1.4,6.6
		l0,0l0,0C1.3,7.1,1.2,7.5,1.2,8l0,0l0,0c0,0.7,0.1,1.3,0.2,1.9l0,0l0,0c0.2,0.6,0.4,1.1,0.8,1.4l0,0l0,0c0.4,0.4,0.8,0.6,1.4,0.6
		l0,0l0,0c0.7,0,1.3-0.4,1.7-1.2l0,0l1.1,0.4l0,0c-0.2,0.6-0.6,1-1.1,1.4l0,0l0,0C4.9,12.9,4.4,13.1,3.7,13.1z"/>
	<polygon class="st0" points="10.2,12.9 9.1,12.9 9.5,10.1 7.9,10.1 8,9.1 9.7,9.1 10,6.7 8.5,6.7 8.6,5.7 10.2,5.7 10.6,3.1 
		11.7,3.1 11.3,5.7 13.2,5.7 13.6,3.1 14.7,3.1 14.3,5.7 16,5.7 15.8,6.7 14.2,6.7 13.8,9.1 15.4,9.1 15.2,10.1 13.7,10.1 
		13.2,12.9 12.1,12.9 12.5,10.1 10.6,10.1 	"/>
	<polygon class="st0" points="11.2,6.7 10.8,9.1 12.7,9.1 13.1,6.7 	"/>
</g>
</svg>
