<?xml version="1.0" encoding="utf-8"?>
<!-- Generator: Adobe Illustrator 23.0.0, SVG Export Plug-In . SVG Version: 6.00 Build 0)  -->
<svg version="1.1" id="Layer_1" xmlns="http://www.w3.org/2000/svg" xmlns:xlink="http://www.w3.org/1999/xlink" x="0px" y="0px"
	 viewBox="0 0 16 16" style="enable-background:new 0 0 16 16;" xml:space="preserve">
<style type="text/css">
	.st0{clip-path:url(#SVGID_2_);fill:#F75049;}
</style>
<g>
	<defs>
		<path id="SVGID_1_" d="M19.8,4.2c-0.1-0.1-0.3,0-0.6-0.2c-0.2-0.2-0.2-0.3-0.3-0.4c-0.4-0.2-1.3,0.5-1.3,0.5c0,0,0.4-0.3,0.7-0.7
			c0.2-0.2,0.6-0.7,0.5-1c-0.1-0.2-0.3-0.2-0.3-0.3c0-0.3,0.5-0.4,0.4-0.7C19,1.1,18.8,1,18.7,1c-0.3-0.1-0.8,0.2-0.8,0.2
			c0,0,0.3-0.2,0.4-0.5c0-0.1,0.2-0.3,0.1-0.5c-0.1-0.1-0.3-0.1-0.4-0.1c-0.1,0-0.2,0.1-0.2,0c0,0,0-0.1,0-0.2
			c0-0.2-0.3-0.3-0.6-0.3c-0.5,0-0.9,0.5-1,0.4c-0.1-0.1,0.5-0.5,0.4-0.9c0-0.1-0.2-0.3-0.4-0.3c-0.3,0-0.4,0.3-0.5,0.3
			c-0.1-0.1,0.1-0.7-0.1-0.9c-0.1-0.1-0.3,0.1-0.6,0c-0.2-0.1-0.2-0.1-0.3-0.2c-0.3-0.1-0.8,0.4-1.3,0.9c-0.2,0.2-0.6,0.5-1.1,0.8
			c0.3-0.3,0.5-0.6,0.7-0.7c0.4-0.4,0.6-0.6,0.6-0.9c0-0.1,0-0.4-0.2-0.4C13.2-2.3,13-2,12.3-1.6c-0.2,0.1-0.3,0.2-0.4,0.3
			c0,0,0.3-0.4,0.2-0.7c0,0-0.1-0.2-0.2-0.3c-0.4-0.3-1.1-0.2-1.2-0.2C9.9-2.2,9.7-1.6,8.6-1.1c0,0-0.1,0.1-0.3,0.2
			C7.9-0.7,7.7-0.6,7.6-0.5C7.3-0.3,7.1-0.2,7,0C6.9,0.3,7,0.5,6.8,0.6C6.7,0.8,6.5,0.8,6.4,0.8C5.8,1,5.1,2,5,2.2
			C4.6,2.7,3.3,4.1-0.2,7.2C4.6,2.2,6,0.6,6,0.5c0,0,0,0,0,0c0-0.1,0.2-0.4,0-0.6C6-0.1,5.9-0.1,5.8-0.2c0,0,0-0.1,0-0.1
			c0-0.2,0.4-0.2,0.4-0.3c0,0-0.1-0.1-0.2-0.1C5.7-0.9,5.7-1,5.5-1C5.3-1.1,5.1-1,4.9-0.9C4.7-0.7,4.6-0.6,4.5-0.7c0,0,0-0.2,0-0.3
			C4.4-1,4.2-1,4.2-1C3.8-1,3.7-0.7,3.6-0.8c-0.1,0,0-0.2-0.1-0.3C3.4-1.2,3.3-1.2,3.1-1.3C2.9-1.4,3-1.6,2.8-1.8
			C2.7-1.9,2.6-2.1,2.4-2.2c-0.2-0.1-0.3,0-0.5-0.1C1.6-2.3,1.6-2.5,1.4-2.5c-0.2,0-0.3,0-0.4,0.1C0.7-2.3,0.7-2.1,0.5-2.1
			C0.3-2.1,0.3-2.3,0-2.3c-0.1,0-0.2,0-0.3,0c-0.1,0.1,0,0.4-0.1,0.5c-0.1,0.1-0.2,0.1-0.3,0C-0.7-1.9-0.7-2-0.8-2
			C-1-2.2-1.9-2-2.2-1.4c0,0.1-0.1,0.2-0.2,0.3c-0.2,0.1-0.3,0-0.5,0c-0.3,0-0.5,0.2-1.1,1c0,0-0.1,0.1-0.6,0.6
			c-0.9,1-1,1.1-1.1,1.4c0,0.5,0,0.7,0,0.7c0,0.1,0.1,0.3,0,0.4c-0.1,0.1-0.1,0-0.2,0.1c-0.1,0.1,0.1,0.4,0,0.8c0,0,0,0,0,0.3
			c-0.1,0.5-0.1,0.6,0,0.7c0.1,0.1,0.2,0.1,0.3,0.1c0.2,0,0.3-0.1,0.4-0.1C-4.7,4.3-4.4,3.9-4,3.4C-4.1,3.7-4.3,4-4.4,4.1
			c-0.2,0.2-0.3,0.4-0.5,0.7C-4.9,5-5,5.1-5.1,5.2C-5.1,5.5-5.2,5.7-5.1,6C-5.1,6.1-5,6.1-5,6.3c0,0.2,0,0.3,0,0.4
			c0,0.1,0.1,0.1,0.2,0.1c0.1,0.1,0,0.3,0,0.6c0,0.2,0.1,0.1,0.1,0.3c0.1,0.3-0.1,0.4,0,0.7c0,0.1,0,0.2,0.1,0.3
			c0.1,0.1,0.4-0.1,0.6,0C-3.8,8.8-3.9,9-3.7,9.1c0.1,0,0.2-0.1,0.4,0C-3.3,9-3,9-3,9.2c0,0.1-0.1,0.3-0.3,0.4
			c-0.4,0.2-0.8-0.1-0.9,0c0,0.1,0.1,0.2,0.2,0.3c1,0.9,1,1,1.3,1.2c0.3,0.2,0.3,0.1,0.7,0.3c0.5,0.3,1.1,0.6,1.1,1
			c0,0.2-0.2,0.3-0.1,0.6c0,0.2,0.1,0.5,0.3,0.6c0.2,0.1,0.3-0.1,0.6-0.1c0.3,0,0.3,0.2,0.6,0.3c0.4,0,0.5-0.4,0.8-0.4
			c0.2,0,0.2,0.2,0.4,0.3c0.2,0.1,0.4,0,0.5,0c1-1.1,2.6-2.7,4.6-4.8c1.6-1.7,2.1-2.2,3-3.1c2.6-2.5,5.4-4.5,5.5-4.3
			c0.1,0.1-1.2,1.3-5.5,5.4c-3,2.8-5.4,5.2-7.1,6.8c0,0.3,0.1,0.5,0.2,0.5c0.2,0.1,0.5-0.2,0.8,0c0.1,0.1,0.3,0.2,0.3,0.4
			c0,0.2,0,0.3,0.1,0.4c0.1,0.1,0.1,0,0.2,0.1c0.2,0.2,0.1,0.3,0.3,0.5c0.2,0.1,0.4,0,0.4,0.2c0,0.1,0,0.1,0,0.3
			c0,0.1,0.2,0.1,0.2,0.3c0,0.2-0.3,0.3-0.3,0.6C4.8,17,5,17.1,5,17.3c0,0.5-0.6,0.6-0.5,0.9c0,0.2,0.2,0.4,0.4,0.5
			c0.3,0,0.5-0.4,0.8-0.4c0.4,0,0.6,0.6,0.9,0.5c0.3,0,0.3-0.4,0.6-0.4c0.2,0,0.3,0.1,0.4,0c0.1-0.1,0.1-0.2,0.3-0.3
			c0.1,0,0.1,0,0.2,0c0.2,0,0.6-0.4,0.7-0.8c0.1-0.4,0-0.5,0.2-0.8c0.1-0.2,0.3-0.3,0.4-0.4c0.5-0.4,1.2-1,1.8-1.6
			c0.8-0.8,0.9-1.1,1.5-1.4c0.1,0,0.3-0.1,0.5-0.3c0.3-0.3,0.4-0.6,0.6-0.8c0.4-0.8,0.8-0.8,1.7-2c0-0.1,0.2-0.3,0.2-0.4
			c-0.1-0.1-1.2,1.1-1.4,1C14,10.7,14,10.5,14,10.5c0.1-0.6,0.8-0.8,1.9-1.7c0.3-0.2,0.2-0.2,0.5-0.5c0.8-0.7,1.7-1.3,2-1.7
			C18.5,6.3,18.6,6,18.6,6c0-0.1,0-0.1,0.1-0.2c0.1-0.3,0.2-0.4,0.7-0.9C19.8,4.4,19.8,4.3,19.8,4.2z M2.8,3.5
			C2.5,3.8,2.2,4.1,1.9,4.3c0.2-0.3,0.4-0.6,0.8-0.9C2.8,3.3,3,3.2,3.1,3.1C3,3.2,2.9,3.3,2.8,3.5z M2.6,2.2c0.5-0.5,1-1,1.4-1.4
			c-0.3,0.5-0.8,1-1.3,1.5C2.4,2.6,2.1,2.9,1.8,3.2C2.1,2.9,2.3,2.6,2.6,2.2z M-3,2.2C-2.9,2-2.7,1.8-2.5,1.6
			c0.1-0.1,0.2-0.2,0.2-0.2c0,0.1-0.1,0.2-0.2,0.3C-2.6,1.9-2.8,2.1-3,2.2z M-2.1,10.3c-0.1,0.1-0.2,0.2-0.3,0.2c0,0,0-0.2,0.1-0.3
			C-2.2,10.1-2,10.1-2,10C-2,10.1-2,10.2-2.1,10.3z M-2.4,5.7c0.3-0.4,0.7-0.8,1-1.2c0,0.1,0,0.2,0,0.3C-1.8,5.1-2.1,5.4-2.4,5.7z
			 M-0.7,11.7c0,0-0.2-0.2-0.5-0.6c-0.1-0.1-0.2-0.2-0.2-0.3c0-0.1,0.1-0.1,0.2-0.2c0.1-0.1,0.3-0.2,0.4-0.5c0,0.2-0.1,0.3-0.1,0.4
			c0,0.1-0.1,0.2-0.1,0.3c0,0.1,0.1,0,0.1,0.1c0.1,0.1,0,0.2,0,0.3C-0.8,11.5-0.7,11.7-0.7,11.7z M-0.8,0.4C-0.7,0.2-0.6,0-0.4-0.2
			c0.1-0.1,0.2-0.2,0.2-0.2c0,0.1-0.1,0.2-0.2,0.3C-0.5,0.1-0.6,0.3-0.8,0.4z M2,7c1-1.3,2.3-2.8,3.8-4.2C6.9,1.7,8,0.8,9,0
			C8.3,0.7,7.5,1.4,6.8,2.1C5.1,3.8,3.5,5.4,2,7z M6.9,2.8c0.8-0.8,1.6-1.5,2.4-2c-0.4,0.5-0.9,1-1.4,1.6C6.8,3.6,5.6,4.7,4.5,5.7
			C5.1,4.8,5.9,3.8,6.9,2.8z M8.8,4.6C9.9,3.6,10.9,2.8,12,2c-0.7,0.7-1.4,1.4-2.2,2.1C8.2,5.5,6.6,6.8,5.1,7.9
			C6.2,6.9,7.5,5.7,8.8,4.6z M10.5,4.7C8.9,6.1,7.4,7.4,5.9,8.5C7,7.5,8.2,6.3,9.5,5.2c1.1-0.9,2.2-1.8,3.2-2.6
			C12,3.3,11.3,4,10.5,4.7z M16.2,3.2c-0.7,0.7-1.4,1.4-2.2,2.1C12.4,6.7,10.9,8,9.4,9.1C10.5,8,11.7,6.9,13,5.8
			C14.1,4.8,15.2,4,16.2,3.2z M6.7,10.9c1.4-1.7,3.1-3.5,5.1-5.3c0.9-0.8,1.8-1.5,2.6-2.2c-1,1-1.9,1.9-2.9,2.9
			C10,7.9,8.4,9.4,6.7,10.9z M7.1,12.6c1.6-1.5,3.2-3.1,5-4.7c1.4-1.3,2.8-2.4,4.2-3.5c-1.1,1.1-2.3,2.1-3.4,3.2
			C10.9,9.3,9,11,7.1,12.6z M7.4,13.6c1.1-1.3,2.5-2.7,4.1-4.1c1.4-1.2,2.7-2.2,4-3c-1.1,1-2.2,1.9-3.3,2.9
			C10.6,10.8,9,12.2,7.4,13.6z M15.4,7.8c-1.2,1.1-2.4,2.1-3.6,3c0.2-0.2,0.4-0.4,0.6-0.6c0.8-0.7,1.5-1.4,2.2-2.1
			c-0.1,0.1-0.2,0.1-0.3,0.2c-0.1,0-0.1,0.1-0.2,0.2c-1.3,1.1-2.4,2.2-3.5,3.3c-0.9,0.8-1.8,1.5-2.7,2.1c1.1-1.1,2.3-2.2,3.6-3.4
			c1-0.9,2-1.7,2.9-2.4c1-0.9,2.1-1.7,3-2.5C17,6.4,16.2,7.1,15.4,7.8z"/>
	</defs>
	<clipPath id="SVGID_2_">
		<use xlink:href="#SVGID_1_"  style="overflow:visible;"/>
	</clipPath>
	<path class="st0" d="M6.3,16L5.9,1.4l0,0c-1,0.4-1.8,1-2.3,1.8l0,0l0,0C3,4,2.7,5,2.7,6.2l0,0l0,0c0,0.5,0,0.9,0.1,1.1l0,0l0,0
		C3,7.5,3,7.6,3,7.6l0,0l0,0c-0.8,0-1.3-0.2-1.7-0.5l0,0l0,0C0.9,6.8,0.7,6.3,0.7,5.5l0,0l0,0c0-0.9,0.4-1.8,1.1-2.7l0,0l0,0
		C2.6,2,3.6,1.3,4.7,0.8l0,0l0,0C5.9,0.3,7.1,0,8.2,0l0,0l0,0c0.2,0,0.5,0,0.9,0l0,0l0.2,13.1l4.5-13.1h1.5L9.3,16H6.3z"/>
</g>
</svg>
