<?xml version="1.0" encoding="utf-8"?>
<!-- Generator: Adobe Illustrator 23.0.0, SVG Export Plug-In . SVG Version: 6.00 Build 0)  -->
<svg version="1.1" id="Layer_1" xmlns="http://www.w3.org/2000/svg" xmlns:xlink="http://www.w3.org/1999/xlink" x="0px" y="0px"
	 viewBox="0 0 16 16" style="enable-background:new 0 0 16 16;" xml:space="preserve">
<style type="text/css">
	.st0{clip-path:url(#SVGID_2_);fill:#F75049;}
</style>
<g>
	<defs>
		<path id="SVGID_1_" d="M22.3,5.6c-0.1-0.1-0.3,0-0.6-0.2c-0.2-0.2-0.2-0.3-0.3-0.4c-0.4-0.2-1.3,0.5-1.3,0.5c0,0,0.4-0.3,0.7-0.7
			c0.2-0.2,0.6-0.7,0.5-1c-0.1-0.2-0.3-0.2-0.3-0.3c0-0.3,0.5-0.4,0.4-0.7c0-0.2-0.2-0.3-0.3-0.3c-0.3-0.1-0.8,0.2-0.8,0.2
			c0,0,0.3-0.2,0.4-0.5c0-0.1,0.2-0.3,0.1-0.5c-0.1-0.1-0.3-0.1-0.4-0.1c-0.1,0-0.2,0.1-0.2,0c0,0,0-0.1,0-0.2
			c0-0.2-0.3-0.3-0.6-0.3c-0.5,0-0.9,0.5-1,0.4c-0.1-0.1,0.5-0.5,0.4-0.9c0-0.1-0.2-0.3-0.4-0.3c-0.3,0-0.4,0.3-0.5,0.3
			c-0.1-0.1,0.1-0.7-0.1-0.9c-0.1-0.1-0.3,0.1-0.6,0c-0.2-0.1-0.2-0.1-0.3-0.2C17-0.6,16.5,0,16,0.5c-0.2,0.2-0.6,0.5-1.1,0.8
			c0.3-0.3,0.5-0.6,0.7-0.7c0.4-0.4,0.6-0.6,0.6-0.9c0-0.1,0-0.4-0.2-0.4c-0.2-0.1-0.4,0.2-1.1,0.6C14.7-0.1,14.6,0,14.5,0
			c0,0,0.3-0.4,0.2-0.7c0,0-0.1-0.2-0.2-0.3c-0.4-0.3-1.1-0.2-1.2-0.2c-0.9,0.2-1.1,0.8-2.1,1.3c0,0-0.1,0.1-0.3,0.2
			c-0.4,0.2-0.6,0.3-0.7,0.4C9.9,1,9.7,1.1,9.6,1.4C9.4,1.6,9.5,1.8,9.3,2C9.2,2.1,9,2.1,9,2.2C8.4,2.3,7.7,3.4,7.6,3.5
			C7.2,4,5.9,5.4,2.4,8.6c4.7-5,6.2-6.6,6.2-6.7c0,0,0,0,0,0c0-0.1,0.2-0.4,0-0.6c-0.1-0.1-0.2,0-0.3-0.1c0,0,0-0.1,0-0.1
			c0-0.2,0.4-0.2,0.4-0.3c0,0-0.1-0.1-0.2-0.1C8.2,0.4,8.2,0.4,8.1,0.3C7.8,0.3,7.6,0.4,7.4,0.5C7.2,0.6,7.1,0.7,7,0.7
			c0,0,0-0.2,0-0.3C7,0.3,6.8,0.3,6.7,0.3c-0.3,0-0.5,0.3-0.6,0.2C6,0.5,6.1,0.4,6,0.3C5.9,0.1,5.8,0.2,5.7,0
			C5.5-0.1,5.6-0.2,5.4-0.5C5.3-0.6,5.2-0.7,5-0.8c-0.2-0.1-0.3,0-0.5-0.1C4.2-1,4.2-1.1,3.9-1.2c-0.2,0-0.3,0-0.4,0.1
			C3.2-0.9,3.2-0.8,3.1-0.8C2.9-0.8,2.8-0.9,2.5-1C2.4-1,2.3-1,2.3-1c-0.1,0.1,0,0.4-0.1,0.5C2.1-0.4,2-0.5,1.9-0.5
			C1.8-0.6,1.8-0.6,1.8-0.7C1.6-0.9,0.6-0.7,0.3-0.1c0,0.1-0.1,0.2-0.2,0.3c-0.2,0.1-0.3,0-0.5,0c-0.3,0-0.5,0.2-1.1,1
			c0,0-0.1,0.1-0.6,0.6c-0.9,1-1,1.1-1.1,1.4C-3.1,3.8-3,4-3,4c0,0.1,0.1,0.3,0,0.4c-0.1,0.1-0.1,0-0.2,0.1c-0.1,0.1,0.1,0.4,0,0.8
			c0,0,0,0,0,0.3c-0.1,0.5-0.1,0.6,0,0.7C-3.1,6.2-3,6.2-2.9,6.2c0.2,0,0.3-0.1,0.4-0.1c0.4-0.5,0.8-0.9,1.1-1.4
			c-0.2,0.3-0.3,0.6-0.4,0.7C-2,5.7-2.2,5.9-2.4,6.2c0,0.1-0.1,0.2-0.2,0.4c-0.1,0.2-0.2,0.5-0.1,0.8c0,0.1,0.1,0.2,0.1,0.3
			c0,0.2,0,0.3,0,0.4c0,0.1,0.1,0.1,0.2,0.1c0.1,0.1,0,0.3,0,0.6c0,0.2,0.1,0.1,0.1,0.3c0.1,0.3-0.1,0.4,0,0.7c0,0.1,0,0.2,0.1,0.3
			c0.1,0.1,0.4-0.1,0.6,0c0.2,0.1,0.1,0.3,0.3,0.4c0.1,0,0.2-0.1,0.4,0c0,0,0.3,0,0.3,0.1c0,0.1-0.1,0.3-0.3,0.4
			c-0.4,0.2-0.8-0.1-0.9,0c0,0.1,0.1,0.2,0.2,0.3c1,0.9,1,1,1.3,1.2c0.3,0.2,0.3,0.1,0.7,0.3c0.5,0.3,1.1,0.6,1.1,1
			c0,0.2-0.2,0.3-0.1,0.6c0,0.2,0.1,0.5,0.3,0.6c0.2,0.1,0.3-0.1,0.6-0.1c0.3,0,0.3,0.2,0.6,0.3c0.4,0,0.5-0.4,0.8-0.4
			c0.2,0,0.2,0.2,0.4,0.3c0.2,0.1,0.4,0,0.5,0c1-1.1,2.6-2.7,4.6-4.8c1.6-1.7,2.1-2.2,3-3.1c2.6-2.5,5.4-4.5,5.5-4.3
			c0.1,0.1-1.2,1.3-5.5,5.4C9.5,11,7,13.4,5.4,15c0,0.3,0.1,0.5,0.2,0.5c0.2,0.1,0.5-0.2,0.8,0c0.1,0.1,0.3,0.2,0.3,0.4
			c0,0.2,0,0.3,0.1,0.4c0.1,0.1,0.1,0,0.2,0.1c0.2,0.2,0.1,0.3,0.3,0.5c0.2,0.1,0.4,0,0.4,0.2c0,0.1,0,0.1,0,0.3
			c0,0.1,0.2,0.1,0.2,0.3c0,0.2-0.3,0.3-0.3,0.6c0,0.2,0.1,0.2,0.1,0.5c0,0.5-0.6,0.6-0.5,0.9C7,19.8,7.2,20,7.4,20
			c0.3,0,0.5-0.4,0.8-0.4c0.4,0,0.6,0.6,0.9,0.5c0.3,0,0.3-0.4,0.6-0.4c0.2,0,0.3,0.1,0.4,0c0.1-0.1,0.1-0.2,0.3-0.3
			c0.1,0,0.1,0,0.2,0c0.2,0,0.6-0.4,0.7-0.8c0.1-0.4,0-0.5,0.2-0.8c0.1-0.2,0.3-0.3,0.4-0.4c0.5-0.4,1.2-1,1.8-1.6
			c0.8-0.8,0.9-1.1,1.5-1.4c0.1,0,0.3-0.1,0.5-0.3c0.3-0.3,0.4-0.6,0.6-0.8c0.4-0.8,0.8-0.8,1.7-2c0-0.1,0.2-0.3,0.2-0.4
			c-0.1-0.1-1.2,1.1-1.4,1c-0.1-0.1-0.1-0.2-0.1-0.2c0.1-0.6,0.8-0.8,1.9-1.7c0.3-0.2,0.2-0.2,0.5-0.5c0.8-0.7,1.7-1.3,2-1.7
			c0.1-0.3,0.2-0.6,0.2-0.6c0-0.1,0-0.1,0.1-0.2c0.1-0.3,0.2-0.4,0.7-0.9C22.3,5.8,22.4,5.6,22.3,5.6z M5.4,4.8
			C5.1,5.2,4.7,5.5,4.4,5.7C4.6,5.4,4.9,5,5.2,4.7c0.1-0.1,0.3-0.2,0.4-0.3C5.6,4.5,5.5,4.7,5.4,4.8z M5.2,3.6c0.5-0.5,1-1,1.4-1.4
			c-0.3,0.5-0.8,1-1.3,1.5C5,4,4.7,4.3,4.4,4.5C4.6,4.2,4.9,3.9,5.2,3.6z M-0.4,3.5C-0.3,3.4-0.2,3.1,0,2.9c0.1-0.1,0.2-0.2,0.2-0.2
			c0,0.1-0.1,0.2-0.2,0.3C-0.1,3.2-0.2,3.4-0.4,3.5z M0.4,11.7c-0.1,0.1-0.2,0.2-0.3,0.2c0,0,0-0.2,0.1-0.3c0.1-0.1,0.3-0.2,0.3-0.2
			C0.6,11.4,0.5,11.6,0.4,11.7z M0.1,7c0.3-0.4,0.7-0.8,1-1.2c0,0.1,0,0.2,0,0.3C0.8,6.4,0.5,6.7,0.1,7z M1.9,13.1
			c0,0-0.2-0.2-0.5-0.6c-0.1-0.1-0.2-0.2-0.2-0.3c0-0.1,0.1-0.1,0.2-0.2c0.1-0.1,0.3-0.2,0.4-0.5c0,0.2-0.1,0.3-0.1,0.4
			c0,0.1-0.1,0.2-0.1,0.3c0,0.1,0.1,0,0.1,0.1c0.1,0.1,0,0.2,0,0.3C1.7,12.8,1.9,13,1.9,13.1z M1.8,1.8C1.8,1.6,2,1.3,2.2,1.1
			C2.3,1,2.4,1,2.4,0.9c0,0.1-0.1,0.2-0.2,0.3C2.1,1.4,1.9,1.6,1.8,1.8z M4.6,8.4c1-1.3,2.3-2.8,3.8-4.2c1.1-1.1,2.2-2,3.2-2.8
			C10.8,2,10.1,2.7,9.3,3.5C7.7,5.1,6.1,6.7,4.6,8.4z M9.5,4.1c0.8-0.8,1.6-1.5,2.4-2c-0.4,0.5-0.9,1-1.4,1.6C9.3,4.9,8.2,6,7.1,7
			C7.7,6.2,8.5,5.1,9.5,4.1z M11.3,5.9c1.1-0.9,2.2-1.8,3.2-2.6c-0.7,0.7-1.4,1.4-2.2,2.1c-1.6,1.4-3.1,2.7-4.6,3.8
			C8.8,8.2,10,7.1,11.3,5.9z M13,6c-1.6,1.4-3.1,2.7-4.6,3.8c1.1-1.1,2.3-2.2,3.6-3.4c1.1-0.9,2.2-1.8,3.2-2.6
			C14.5,4.6,13.8,5.3,13,6z M18.8,4.5c-0.7,0.7-1.4,1.4-2.2,2.1c-1.6,1.4-3.1,2.7-4.6,3.8c1.1-1.1,2.3-2.2,3.6-3.4
			C16.7,6.2,17.7,5.3,18.8,4.5z M9.3,12.2c1.4-1.7,3.1-3.5,5.1-5.3c0.9-0.8,1.8-1.5,2.6-2.2c-1,1-1.9,1.9-2.9,2.9
			C12.5,9.2,10.9,10.7,9.3,12.2z M9.7,13.9c1.6-1.5,3.2-3.1,5-4.7c1.4-1.3,2.8-2.4,4.2-3.5c-1.1,1.1-2.3,2.1-3.4,3.2
			C13.5,10.6,11.6,12.3,9.7,13.9z M9.9,14.9c1.1-1.3,2.5-2.7,4.1-4.1c1.4-1.2,2.7-2.2,4-3c-1.1,1-2.2,1.9-3.3,2.9
			C13.1,12.1,11.5,13.5,9.9,14.9z M18,9.2c-1.2,1.1-2.4,2.1-3.6,3c0.2-0.2,0.4-0.4,0.6-0.6c0.8-0.7,1.5-1.4,2.2-2.1
			c-0.1,0.1-0.2,0.1-0.3,0.2c-0.1,0-0.1,0.1-0.2,0.2c-1.3,1.1-2.4,2.2-3.5,3.3c-0.9,0.8-1.8,1.5-2.7,2.1c1.1-1.1,2.3-2.2,3.6-3.4
			c1-0.9,2-1.7,2.9-2.4c1-0.9,2.1-1.7,3-2.5C19.5,7.7,18.8,8.5,18,9.2z"/>
	</defs>
	<clipPath id="SVGID_2_">
		<use xlink:href="#SVGID_1_"  style="overflow:visible;"/>
	</clipPath>
	<path class="st0" d="M15.1,8c0-0.1,0-0.3,0-0.4L16,6.9l-0.3-1.2l-1.2-0.3c-0.1-0.3-0.2-0.5-0.4-0.8l0.5-1.1L14,2.7l-1.2,0.3
		c-0.3-0.2-0.5-0.4-0.8-0.6l0-1.2l-1-0.5l-0.9,0.7C9.8,1.2,9.4,1.1,9.1,1.1L8.5,0l-1,0L6.9,1.1c-0.4,0-0.7,0.1-1.1,0.3l-1-0.7
		l-1,0.5l0,1.2C3.7,2.5,3.4,2.7,3.2,2.9L2,2.7L1.3,3.5l0.5,1.1C1.7,4.9,1.5,5.1,1.4,5.4L0.3,5.7L0.1,6.5h2.1C2.9,3.9,5.2,2,8,2
		c3.3,0,6,2.7,6,6s-2.7,6-6,6s-6-2.7-6-6c0-0.4,0-0.9,0.1-1.3H0l0,0.1l0.9,0.7c0,0.1,0,0.3,0,0.4s0,0.3,0,0.4L0,9.1l0.3,1.2l1.2,0.3
		c0.1,0.3,0.2,0.5,0.4,0.8l-0.5,1.1L2,13.3l1.2-0.3c0.3,0.2,0.5,0.4,0.8,0.6l0,1.2l1,0.5l0.9-0.7c0.4,0.1,0.7,0.2,1.1,0.3L7.5,16
		l1,0l0.5-1.1c0.4,0,0.7-0.1,1.1-0.3l1,0.7l1-0.5l0-1.2c0.3-0.2,0.5-0.4,0.8-0.6l1.2,0.3l0.7-0.9l-0.5-1.1c0.1-0.3,0.3-0.5,0.4-0.8
		l1.2-0.3L16,9.1l-0.9-0.7C15.1,8.3,15.1,8.1,15.1,8z"/>
	<path class="st0" d="M10.7,10.2c-0.3-0.9-0.5-1.5-1.1-1.6c0.7-0.1,1.9-0.8,1.9-2.1C11.5,5,10.6,4,8.3,4H4v1h1v1.5h1.5V5h1.6
		c1.1,0,1.7,0.5,1.7,1.5C9.8,7.2,9.5,8,8.2,8H6.5V6.7H5V11H4v1h3.5v-1h-1V9h1.2c0.9,0,1.2,0.5,1.6,1.6c0.3,0.8,0.4,1.4,1.2,1.4H12
		v-1C11.4,11,10.9,11,10.7,10.2z"/>
</g>
</svg>
