<?xml version="1.0" encoding="utf-8"?>
<!-- Generator: Adobe Illustrator 23.0.0, SVG Export Plug-In . SVG Version: 6.00 Build 0)  -->
<svg version="1.1" id="Layer_1" xmlns="http://www.w3.org/2000/svg" xmlns:xlink="http://www.w3.org/1999/xlink" x="0px" y="0px"
	 viewBox="0 0 16 16" style="enable-background:new 0 0 16 16;" xml:space="preserve">
<style type="text/css">
	.st0{clip-path:url(#SVGID_2_);}
	.st1{fill:#F75049;}
</style>
<g>
	<defs>
		<path id="SVGID_1_" d="M28.4,2.2c-0.1-0.2-0.5,0-0.9-0.4c-0.3-0.3-0.3-0.5-0.5-0.7c-0.6-0.4-2,0.8-2.1,0.8c0,0,0.6-0.4,1.1-1.1
			c0.4-0.4,1-1.1,0.8-1.6C26.7-1,26.4-1,26.4-1.3c-0.1-0.4,0.8-0.7,0.7-1.2c0-0.3-0.3-0.5-0.5-0.5c-0.6-0.2-1.2,0.4-1.3,0.3
			c0,0,0.4-0.3,0.7-0.8c0-0.1,0.3-0.5,0.1-0.7c-0.1-0.1-0.4-0.2-0.6-0.1c-0.2,0-0.3,0.1-0.4,0.1c-0.1,0,0-0.2,0-0.3
			c-0.1-0.3-0.5-0.4-0.9-0.5c-0.8-0.1-1.5,0.7-1.6,0.6c-0.1-0.1,0.8-0.8,0.6-1.4c-0.1-0.2-0.3-0.4-0.6-0.4c-0.4,0-0.6,0.5-0.8,0.4
			c-0.2-0.1,0.2-1.1-0.2-1.4c-0.2-0.1-0.5,0.1-0.9,0c-0.2-0.1-0.3-0.2-0.4-0.3c-0.5-0.2-1.2,0.7-2.1,1.5c-0.4,0.3-1,0.8-1.8,1.3
			c0.4-0.5,0.8-0.9,1-1.2c0.7-0.7,1-1,1-1.5c0-0.2,0-0.6-0.3-0.7c-0.3-0.1-0.6,0.3-1.7,1c-0.3,0.2-0.5,0.3-0.6,0.4
			c0.1-0.1,0.5-0.6,0.3-1.1c0-0.1-0.1-0.2-0.3-0.4c-0.7-0.5-1.8-0.3-1.9-0.3c-1.4,0.3-1.7,1.3-3.4,2.1c0,0-0.2,0.1-0.5,0.3
			c-0.6,0.3-1,0.5-1.1,0.6C8.5-5.1,8.2-4.8,8-4.4C7.8-4,7.9-3.8,7.7-3.5C7.5-3.3,7.2-3.2,7.1-3.2C6.2-3,5-1.3,4.8-1.1
			C4.2-0.2,2.1,1.9-3.4,7C4.1-1,6.4-3.5,6.5-3.7c0,0,0,0,0,0c0-0.1,0.3-0.7,0-0.9C6.4-4.7,6.2-4.7,6.1-4.8c0,0-0.1-0.1,0-0.2
			c0.1-0.3,0.7-0.4,0.7-0.5c0-0.1-0.1-0.1-0.3-0.2C5.9-5.9,5.9-6.1,5.7-6.1C5.3-6.2,4.9-6,4.6-5.9C4.3-5.7,4.1-5.5,4-5.5
			C3.9-5.6,4.1-5.8,4-6C3.9-6.1,3.6-6.1,3.5-6.1c-0.6,0-0.8,0.5-1,0.3C2.4-5.8,2.5-6,2.4-6.2C2.3-6.5,2.1-6.4,1.8-6.6
			C1.5-6.8,1.7-7,1.3-7.4C1.2-7.6,1-7.8,0.7-7.9C0.3-8.1,0.2-7.9-0.1-8c-0.4-0.1-0.4-0.4-0.8-0.4c-0.3,0-0.5,0.1-0.7,0.1
			C-2-8.1-2-7.9-2.3-7.8c-0.3,0-0.4-0.3-0.8-0.4c-0.2,0-0.3-0.1-0.4,0C-3.8-8-3.5-7.6-3.7-7.4c-0.1,0.1-0.3,0.1-0.4,0
			c-0.2-0.1-0.1-0.2-0.2-0.3c-0.3-0.3-1.8,0.1-2.3,1C-6.7-6.6-6.8-6.4-7-6.3c-0.3,0.1-0.5,0-0.7,0c-0.5,0-0.7,0.4-1.7,1.5
			c0,0-0.2,0.2-0.9,1C-11.7-2.2-12-2-12-1.5c0,0.8,0.1,1.1,0.1,1.1c0.1,0.2,0.2,0.4,0,0.6c-0.1,0.1-0.2,0.1-0.3,0.2
			c-0.2,0.2,0.1,0.6,0.1,1.2c0,0,0,0-0.1,0.4c-0.1,0.9-0.2,1-0.1,1.1c0.1,0.1,0.3,0.1,0.4,0.1c0.3,0,0.5-0.1,0.6-0.2
			c0.6-0.7,1.2-1.4,1.8-2.2c-0.3,0.5-0.5,0.9-0.7,1.2c-0.3,0.4-0.5,0.6-0.8,1.1c-0.1,0.2-0.2,0.3-0.2,0.6c-0.1,0.4-0.3,0.8-0.1,1.2
			c0.1,0.2,0.2,0.3,0.2,0.5c0,0.3-0.1,0.4,0,0.6c0.1,0.1,0.2,0.1,0.2,0.2c0.2,0.2,0,0.5,0.1,0.9c0.1,0.3,0.1,0.2,0.2,0.5
			c0.1,0.4-0.1,0.6,0,1.1c0,0.2,0,0.3,0.1,0.4c0.2,0.2,0.6-0.1,0.9,0.1c0.3,0.2,0.2,0.5,0.5,0.6c0.2,0.1,0.3-0.1,0.6-0.1
			c0.1,0,0.5,0,0.5,0.2c0.1,0.2-0.2,0.4-0.4,0.6c-0.6,0.3-1.3-0.1-1.4,0.1c-0.1,0.1,0.2,0.3,0.3,0.5c1.6,1.5,1.6,1.6,2.1,1.9
			c0.5,0.3,0.4,0.2,1.1,0.5c0.8,0.5,1.7,1,1.7,1.6c0,0.4-0.3,0.4-0.2,0.9c0,0.3,0.2,0.9,0.5,1c0.3,0.1,0.5-0.2,1-0.2
			c0.5,0,0.5,0.4,0.9,0.4c0.6,0,0.8-0.7,1.3-0.6c0.3,0.1,0.3,0.3,0.6,0.4c0.3,0.1,0.6,0,0.9,0c1.7-1.7,4.2-4.3,7.3-7.6
			c2.6-2.7,3.3-3.5,4.7-4.9c4.2-4,8.6-7.1,8.8-6.9c0.1,0.2-1.9,2-8.7,8.5C7.9,10.9,4,14.7,1.4,17.2c0,0.5,0.1,0.7,0.3,0.8
			c0.3,0.2,0.8-0.3,1.2,0c0.1,0.1,0.4,0.3,0.5,0.7c0.1,0.3,0,0.5,0.2,0.6c0.1,0.1,0.2,0.1,0.3,0.2C4.1,19.8,4,20,4.2,20.2
			c0.3,0.2,0.6,0.1,0.7,0.3c0.1,0.1-0.1,0.2,0,0.4c0.1,0.2,0.2,0.2,0.3,0.4c0.1,0.3-0.4,0.5-0.5,0.9c-0.1,0.3,0.1,0.4,0.1,0.8
			c0,0.7-0.9,0.9-0.9,1.5c0,0.4,0.4,0.7,0.7,0.8c0.5,0.1,0.7-0.7,1.3-0.7c0.7,0,0.9,1,1.5,0.9c0.4-0.1,0.5-0.6,1-0.6
			c0.3,0,0.5,0.2,0.7,0.1c0.2-0.1,0.2-0.4,0.4-0.4c0.1,0,0.2,0,0.3,0c0.4,0,0.9-0.6,1.1-1.3c0.2-0.6,0-0.8,0.3-1.2
			c0.2-0.3,0.5-0.5,0.6-0.6c0.9-0.6,1.9-1.6,2.9-2.5c1.3-1.2,1.4-1.7,2.3-2.2c0.1-0.1,0.4-0.2,0.8-0.5c0.5-0.5,0.7-0.9,0.9-1.3
			c0.6-1.3,1.3-1.3,2.7-3.2c0.1-0.1,0.4-0.5,0.3-0.6c-0.2-0.1-1.9,1.8-2.3,1.5c-0.1-0.1-0.1-0.3-0.1-0.4c0.1-0.9,1.3-1.2,3-2.7
			c0.4-0.4,0.3-0.3,0.8-0.7c1.3-1.2,2.7-2.1,3.1-2.8C26.3,5.5,26.4,5,26.4,5c0-0.1,0.1-0.2,0.1-0.3c0.2-0.4,0.4-0.6,1.1-1.4
			C28.3,2.5,28.4,2.4,28.4,2.2z M1.4,1c-0.5,0.6-1,1.1-1.5,1.4c0.3-0.4,0.7-1,1.3-1.5c0.2-0.2,0.5-0.4,0.7-0.5
			C1.7,0.6,1.5,0.8,1.4,1z M1-0.9c0.8-0.8,1.5-1.6,2.2-2.2C2.7-2.4,2-1.6,1.2-0.8c-0.5,0.5-1,1-1.5,1.4C0.1,0.1,0.5-0.4,1-0.9z
			 M-7.8-1c0.1-0.3,0.4-0.7,0.7-1C-7-2.1-6.9-2.3-6.8-2.3C-6.8-2.2-6.9-2.1-7-1.9C-7.3-1.5-7.6-1.2-7.8-1z M-6.5,12
			c-0.2,0.2-0.3,0.3-0.4,0.3c0-0.1,0-0.3,0.1-0.5c0.2-0.2,0.4-0.3,0.5-0.3C-6.3,11.6-6.3,11.8-6.5,12z M-7,4.6
			c0.5-0.6,1-1.3,1.6-1.9c0,0.2,0,0.3,0.1,0.5C-5.9,3.6-6.5,4.1-7,4.6z M-4.2,14.1c-0.1,0-0.3-0.3-0.8-0.9c-0.1-0.2-0.3-0.3-0.3-0.5
			c0-0.1,0.2-0.2,0.3-0.3c0.2-0.1,0.5-0.3,0.7-0.7c0,0.3-0.1,0.5-0.2,0.7c-0.1,0.2-0.2,0.3-0.1,0.4c0,0.1,0.1,0.1,0.2,0.1
			c0.1,0.1,0,0.3,0,0.4C-4.5,13.8-4.2,14.1-4.2,14.1z M-4.4-3.8c0.1-0.3,0.4-0.7,0.7-1C-3.6-5-3.4-5.1-3.3-5.2
			C-3.4-5-3.5-4.9-3.6-4.8C-3.9-4.4-4.1-4.1-4.4-3.8z M0.1,6.7c1.7-2.1,3.7-4.4,6.1-6.7c1.7-1.7,3.4-3.1,5.1-4.4
			C10-3.4,8.9-2.3,7.7-1.1C5,1.5,2.5,4.1,0.1,6.7z M7.9-0.1c1.3-1.3,2.6-2.4,3.8-3.2C11-2.5,10.2-1.7,9.5-0.8
			c-1.8,2-3.6,3.8-5.4,5.4C5,3.2,6.3,1.6,7.9-0.1z M10.8,2.8c1.7-1.5,3.5-2.9,5.1-4.2c-1.1,1.1-2.3,2.3-3.5,3.4
			c-2.5,2.3-5,4.3-7.3,6.1C6.8,6.4,8.7,4.6,10.8,2.8z M13.5,3c-2.5,2.3-5,4.3-7.3,6.1C7.9,7.3,9.9,5.6,12,3.7
			c1.7-1.5,3.5-2.9,5.1-4.2C16,0.7,14.8,1.8,13.5,3z M22.7,0.5c-1.1,1.1-2.3,2.3-3.5,3.4c-2.5,2.3-5,4.3-7.3,6.1
			c1.7-1.7,3.7-3.5,5.8-5.4C19.3,3.2,21,1.8,22.7,0.5z M7.6,12.9c2.3-2.7,5-5.6,8.1-8.4c1.4-1.3,2.8-2.5,4.2-3.5
			c-1.5,1.5-3.1,3.1-4.6,4.6C12.7,8,10.2,10.4,7.6,12.9z M8.2,15.5c2.5-2.5,5.2-5,8-7.5c2.3-2,4.5-3.9,6.6-5.6
			c-1.8,1.7-3.6,3.4-5.5,5.1C14.3,10.2,11.2,12.9,8.2,15.5z M8.6,17.1c1.7-2,3.9-4.3,6.5-6.5c2.2-1.9,4.4-3.4,6.3-4.7
			c-1.7,1.5-3.4,3-5.2,4.6C13.7,12.6,11.2,14.8,8.6,17.1z M21.4,8c-1.9,1.8-3.8,3.4-5.7,4.8c0.3-0.3,0.7-0.6,1-0.9
			c1.3-1.2,2.4-2.3,3.5-3.4c-0.2,0.1-0.3,0.2-0.5,0.4c-0.1,0.1-0.2,0.2-0.3,0.2c-2,1.8-3.9,3.5-5.6,5.2c-1.4,1.2-2.9,2.4-4.3,3.4
			c1.7-1.7,3.7-3.5,5.8-5.4c1.6-1.4,3.1-2.6,4.7-3.8c1.6-1.4,3.3-2.7,4.8-3.9C23.9,5.7,22.7,6.8,21.4,8z"/>
	</defs>
	<clipPath id="SVGID_2_">
		<use xlink:href="#SVGID_1_"  style="overflow:visible;"/>
	</clipPath>
	<g transform="matrix(0.01731988,0,0,0.0173188,-0.20272154,-0.19929246)" class="st0">
		<path class="st1" d="M877.8,267.5c50,98.1,62.6,211,35.5,317.7c-27.1,106.7-92,199.9-182.7,262.2c-90.7,62.3-201,89.5-310.2,76.6
			c-109.3-13-210.1-65.2-283.8-147c-152.4-169.2-155.8-425-8-598.1c141-165.1,378-206.2,565.3-102c9,5,18,10.4,26.8,16.1"/>
		<circle class="st1" cx="473.6" cy="473.5" r="362.9"/>
		<circle class="st1" cx="622.1" cy="325" r="82.5"/>
		<circle class="st1" cx="820" cy="127" r="82.5"/>
	</g>
</g>
</svg>
