<?xml version="1.0" encoding="utf-8"?>
<!-- Generator: Adobe Illustrator 23.0.0, SVG Export Plug-In . SVG Version: 6.00 Build 0)  -->
<svg version="1.1" id="Layer_1" xmlns="http://www.w3.org/2000/svg" xmlns:xlink="http://www.w3.org/1999/xlink" x="0px" y="0px"
	 viewBox="0 0 16 16" style="enable-background:new 0 0 16 16;" xml:space="preserve">
<style type="text/css">
	.st0{clip-path:url(#SVGID_2_);}
	.st1{fill:#F75049;}
</style>
<g>
	<defs>
		<path id="SVGID_1_" d="M21,3.9c-0.1-0.1-0.3,0-0.6-0.2c-0.2-0.2-0.2-0.3-0.3-0.4c-0.4-0.2-1.2,0.5-1.3,0.5c0,0,0.4-0.3,0.7-0.6
			c0.2-0.2,0.6-0.7,0.5-1c-0.1-0.2-0.3-0.2-0.3-0.3c0-0.3,0.5-0.4,0.4-0.7c0-0.2-0.2-0.3-0.3-0.3c-0.3-0.1-0.8,0.2-0.8,0.2
			c0,0,0.3-0.2,0.4-0.5c0-0.1,0.2-0.3,0.1-0.5c-0.1-0.1-0.3-0.1-0.4-0.1c-0.1,0-0.2,0.1-0.2,0c0,0,0-0.1,0-0.2
			c0-0.2-0.3-0.3-0.5-0.3c-0.5,0-0.9,0.5-1,0.4C17.4-0.2,18-0.6,17.8-1c0-0.1-0.2-0.3-0.4-0.3c-0.2,0-0.4,0.3-0.5,0.3
			c-0.1-0.1,0.1-0.7-0.1-0.8c-0.1-0.1-0.3,0.1-0.6,0C16.2-1.9,16.2-2,16.1-2c-0.3-0.1-0.7,0.4-1.3,0.9c-0.2,0.2-0.6,0.5-1.1,0.8
			C14-0.6,14.2-0.9,14.3-1c0.4-0.4,0.6-0.6,0.6-0.9c0-0.1,0-0.4-0.2-0.4c-0.2-0.1-0.4,0.2-1,0.6c-0.2,0.1-0.3,0.2-0.4,0.3
			c0,0,0.3-0.4,0.2-0.7c0,0-0.1-0.1-0.2-0.3c-0.4-0.3-1.1-0.2-1.2-0.2c-0.8,0.2-1.1,0.8-2.1,1.3c0,0-0.1,0.1-0.3,0.2
			C9.4-0.9,9.2-0.8,9.1-0.8C8.8-0.6,8.6-0.4,8.5-0.2C8.4,0.1,8.5,0.2,8.3,0.4C8.2,0.5,8,0.6,8,0.6C7.4,0.7,6.7,1.7,6.6,1.9
			c-0.4,0.5-1.7,1.9-5.1,5c4.6-4.9,6-6.4,6.1-6.6c0,0,0,0,0,0c0-0.1,0.2-0.4,0-0.5c-0.1-0.1-0.2,0-0.3-0.1c0,0,0-0.1,0-0.1
			c0-0.2,0.4-0.2,0.4-0.3C7.7-1,7.6-1,7.5-1C7.2-1.1,7.2-1.2,7.1-1.2C6.9-1.3,6.6-1.2,6.5-1.1C6.3-1,6.1-0.8,6.1-0.9
			c0,0,0-0.2,0-0.3C6-1.2,5.8-1.2,5.8-1.2C5.4-1.2,5.3-0.9,5.2-1c-0.1,0,0-0.2-0.1-0.3C5-1.4,4.9-1.4,4.7-1.5C4.5-1.6,4.6-1.8,4.4-2
			C4.4-2.1,4.2-2.3,4-2.3c-0.2-0.1-0.3,0-0.5-0.1C3.3-2.5,3.3-2.6,3.1-2.7c-0.2,0-0.3,0-0.4,0.1C2.4-2.4,2.4-2.3,2.2-2.3
			C2-2.3,2-2.5,1.7-2.5c-0.1,0-0.2,0-0.3,0C1.3-2.4,1.4-2.1,1.3-2C1.2-2,1.1-2,1-2C1-2.1,1-2.2,0.9-2.2C0.7-2.4-0.2-2.2-0.5-1.6
			c0,0.1-0.1,0.2-0.2,0.3c-0.2,0.1-0.3,0-0.4,0c-0.3,0-0.5,0.2-1.1,0.9c0,0-0.1,0.1-0.5,0.6c-0.9,1-1,1.1-1,1.4c0,0.5,0,0.7,0,0.7
			c0,0.1,0.1,0.3,0,0.4c-0.1,0.1-0.1,0-0.2,0.1c-0.1,0.1,0.1,0.4,0,0.7c0,0,0,0,0,0.3C-4,4.3-4,4.4-3.9,4.5c0.1,0.1,0.2,0.1,0.3,0.1
			c0.2,0,0.3-0.1,0.3-0.1C-3,4-2.6,3.5-2.2,3.1c-0.2,0.3-0.3,0.6-0.4,0.7C-2.8,4-2.9,4.2-3.1,4.5c0,0.1-0.1,0.2-0.2,0.4
			c-0.1,0.2-0.2,0.5-0.1,0.7c0,0.1,0.1,0.2,0.1,0.3c0,0.2,0,0.3,0,0.4c0,0.1,0.1,0.1,0.2,0.1C-2.9,6.6-3,6.7-3,7
			c0,0.2,0.1,0.1,0.1,0.3c0.1,0.3-0.1,0.4,0,0.7c0,0.1,0,0.2,0.1,0.3c0.1,0.1,0.4-0.1,0.5,0C-2.1,8.4-2.1,8.6-2,8.6
			c0.1,0,0.2-0.1,0.4,0c0,0,0.3,0,0.3,0.1c0,0.1-0.1,0.3-0.3,0.3c-0.4,0.2-0.8-0.1-0.8,0c0,0.1,0.1,0.2,0.2,0.3c1,0.9,1,1,1.3,1.2
			c0.3,0.2,0.3,0.1,0.7,0.3c0.5,0.3,1,0.6,1.1,1c0,0.2-0.2,0.3-0.1,0.6c0,0.2,0.1,0.5,0.3,0.6C1.3,13.2,1.4,13,1.7,13
			C2,13,2,13.2,2.2,13.2c0.4,0,0.5-0.4,0.8-0.3c0.2,0,0.2,0.2,0.4,0.3c0.2,0.1,0.4,0,0.5,0c1-1,2.6-2.7,4.5-4.7c1.6-1.7,2-2.2,2.9-3
			c2.6-2.5,5.3-4.4,5.4-4.2c0.1,0.1-1.2,1.2-5.4,5.2c-2.9,2.8-5.3,5.1-6.9,6.6c0,0.3,0.1,0.4,0.2,0.5c0.2,0.1,0.5-0.2,0.7,0
			c0.1,0.1,0.3,0.2,0.3,0.4c0,0.2,0,0.3,0.1,0.4c0.1,0.1,0.1,0,0.2,0.1c0.2,0.2,0.1,0.3,0.2,0.5c0.2,0.1,0.4,0,0.4,0.2
			c0,0.1,0,0.1,0,0.3c0,0.1,0.2,0.1,0.2,0.2c0,0.2-0.3,0.3-0.3,0.6c0,0.2,0.1,0.2,0.1,0.5c0,0.5-0.5,0.6-0.5,0.9
			C6,17.8,6.2,18,6.4,18c0.3,0,0.4-0.4,0.8-0.4c0.4,0,0.6,0.6,0.9,0.5c0.3,0,0.3-0.3,0.6-0.4c0.2,0,0.3,0.1,0.4,0
			c0.1-0.1,0.1-0.2,0.3-0.3c0.1,0,0.1,0,0.2,0c0.2,0,0.5-0.4,0.7-0.8c0.1-0.4,0-0.5,0.2-0.8c0.1-0.2,0.3-0.3,0.4-0.4
			c0.5-0.4,1.2-1,1.8-1.5c0.8-0.8,0.9-1.1,1.4-1.4c0.1,0,0.3-0.1,0.5-0.3c0.3-0.3,0.4-0.6,0.5-0.8c0.4-0.8,0.8-0.8,1.6-2
			c0-0.1,0.2-0.3,0.2-0.4c-0.1-0.1-1.1,1.1-1.4,0.9c-0.1-0.1-0.1-0.2-0.1-0.2c0.1-0.6,0.8-0.8,1.9-1.7c0.3-0.2,0.2-0.2,0.5-0.5
			c0.8-0.7,1.7-1.3,1.9-1.7c0.1-0.3,0.2-0.6,0.2-0.6c0-0.1,0-0.1,0.1-0.2c0.1-0.3,0.2-0.4,0.7-0.8C21,4.1,21.1,4,21,3.9z M4.5,3.1
			C4.1,3.5,3.8,3.8,3.5,4c0.2-0.3,0.4-0.6,0.8-0.9c0.1-0.1,0.3-0.2,0.4-0.3C4.7,2.9,4.6,3,4.5,3.1z M4.2,2c0.5-0.5,0.9-1,1.4-1.4
			C5.3,1.1,4.9,1.5,4.4,2C4.1,2.3,3.8,2.6,3.5,2.9C3.7,2.6,3.9,2.3,4.2,2z M-1.2,1.9C-1.1,1.7-1,1.5-0.8,1.3
			c0.1-0.1,0.2-0.2,0.2-0.2c0,0.1-0.1,0.2-0.2,0.3C-0.9,1.6-1,1.8-1.2,1.9z M-0.4,9.9C-0.5,10-0.6,10-0.6,10.1c0,0,0-0.2,0.1-0.3
			c0.1-0.1,0.3-0.2,0.3-0.2C-0.3,9.6-0.3,9.8-0.4,9.9z M-0.7,5.3c0.3-0.4,0.6-0.8,1-1.2c0,0.1,0,0.2,0,0.3C0,4.7-0.4,5-0.7,5.3z
			 M1,11.2c0,0-0.2-0.2-0.5-0.6c-0.1-0.1-0.2-0.2-0.2-0.3c0-0.1,0.1-0.1,0.2-0.2C0.7,10.1,0.8,10,1,9.7c0,0.2-0.1,0.3-0.1,0.4
			c0,0.1-0.1,0.2-0.1,0.2c0,0.1,0.1,0,0.1,0.1c0.1,0.1,0,0.2,0,0.3C0.9,11,1,11.2,1,11.2z M0.9,0.2C1,0,1.1-0.2,1.3-0.4
			c0.1-0.1,0.2-0.1,0.2-0.2c0,0.1-0.1,0.2-0.2,0.3C1.2-0.1,1.1,0,0.9,0.2z M3.7,6.6c1-1.3,2.3-2.7,3.7-4.1c1.1-1,2.1-1.9,3.1-2.7
			C9.8,0.4,9,1.1,8.3,1.9C6.7,3.5,5.1,5.1,3.7,6.6z M8.5,2.5c0.8-0.8,1.6-1.5,2.3-2C10.3,1,9.9,1.5,9.4,2C8.3,3.2,7.2,4.3,6.1,5.3
			C6.7,4.5,7.5,3.5,8.5,2.5z M10.3,4.2c1.1-0.9,2.1-1.8,3.1-2.6c-0.7,0.7-1.4,1.4-2.2,2.1c-1.5,1.4-3,2.7-4.5,3.8
			C7.8,6.5,9,5.4,10.3,4.2z M11.9,4.4c-1.5,1.4-3,2.7-4.5,3.8C8.5,7,9.7,5.9,11,4.8C12,3.9,13.1,3,14.1,2.3
			C13.4,3,12.7,3.7,11.9,4.4z M17.5,2.8c-0.7,0.7-1.4,1.4-2.2,2.1c-1.5,1.4-3,2.7-4.5,3.8c1.1-1.1,2.2-2.2,3.5-3.3
			C15.5,4.5,16.5,3.6,17.5,2.8z M8.3,10.4c1.4-1.7,3.1-3.4,5-5.2c0.9-0.8,1.7-1.5,2.6-2.2C14.9,4,14,5,13,5.9
			C11.4,7.4,9.9,8.9,8.3,10.4z M8.6,12c1.5-1.5,3.2-3,4.9-4.6c1.4-1.2,2.7-2.4,4.1-3.5c-1.1,1-2.2,2.1-3.4,3.1
			C12.4,8.8,10.5,10.5,8.6,12z M8.9,13c1.1-1.3,2.4-2.6,4-4c1.4-1.2,2.7-2.1,3.9-2.9C15.7,7,14.7,8,13.6,8.9
			C12,10.3,10.5,11.6,8.9,13z M16.8,7.4c-1.2,1.1-2.3,2.1-3.5,3c0.2-0.2,0.4-0.4,0.6-0.6c0.8-0.7,1.5-1.4,2.2-2.1
			C16,7.8,15.9,7.9,15.8,8c-0.1,0-0.1,0.1-0.2,0.1c-1.2,1.1-2.4,2.2-3.4,3.2c-0.9,0.8-1.8,1.4-2.6,2.1c1.1-1.1,2.3-2.2,3.5-3.3
			c1-0.8,1.9-1.6,2.9-2.3c1-0.9,2-1.7,3-2.4C18.3,6,17.5,6.7,16.8,7.4z"/>
	</defs>
	<clipPath id="SVGID_2_">
		<use xlink:href="#SVGID_1_"  style="overflow:visible;"/>
	</clipPath>
	<g class="st0">
		<path class="st1" d="M1.8,8.2l2.8-3.6L3.7,3.4L0,8.2L3.8,13l1-1.1L1.8,8.2z"/>
		<path class="st1" d="M8.8,5h1.6l-3.2,6.4c0,0-1.3,0-1.6,0C5.6,11.4,8.8,5,8.8,5z"/>
		<path class="st1" d="M14.2,8.1l-2.8-3.5l0.9-1.2L16,8.1L12.2,13l-1-1.1L14.2,8.1z"/>
	</g>
</g>
</svg>
