<?xml version="1.0" encoding="utf-8"?>
<!-- Generator: Adobe Illustrator 23.0.0, SVG Export Plug-In . SVG Version: 6.00 Build 0)  -->
<svg version="1.1" id="Layer_1" xmlns="http://www.w3.org/2000/svg" xmlns:xlink="http://www.w3.org/1999/xlink" x="0px" y="0px"
	 viewBox="0 0 16 16" style="enable-background:new 0 0 16 16;" xml:space="preserve">
<style type="text/css">
	.st0{clip-path:url(#SVGID_2_);fill:#F75049;}
	.st1{clip-path:url(#SVGID_2_);fill-rule:evenodd;clip-rule:evenodd;fill:#F75049;}
</style>
<g>
	<defs>
		<path id="SVGID_1_" d="M21.9,5.6c-0.1-0.1-0.3,0-0.6-0.2C21.2,5.2,21.2,5,21.1,5c-0.4-0.2-1.3,0.5-1.3,0.5c0,0,0.4-0.3,0.7-0.7
			c0.2-0.2,0.6-0.7,0.5-1c-0.1-0.2-0.3-0.2-0.3-0.3c0-0.3,0.5-0.4,0.4-0.7c0-0.2-0.2-0.3-0.3-0.3c-0.3-0.1-0.8,0.2-0.8,0.2
			c0,0,0.3-0.2,0.4-0.5c0-0.1,0.2-0.3,0.1-0.5c-0.1-0.1-0.3-0.1-0.4-0.1c-0.1,0-0.2,0.1-0.2,0c0,0,0-0.1,0-0.2
			c0-0.2-0.3-0.3-0.6-0.3c-0.5,0-0.9,0.5-1,0.4c-0.1-0.1,0.5-0.5,0.4-0.9c0-0.1-0.2-0.3-0.4-0.3c-0.3,0-0.4,0.3-0.5,0.3
			c-0.1-0.1,0.1-0.7-0.1-0.9c-0.1-0.1-0.3,0.1-0.6,0C17-0.3,17-0.4,16.9-0.4c-0.3-0.1-0.8,0.4-1.3,0.9C15.3,0.7,15,1,14.4,1.3
			c0.3-0.3,0.5-0.6,0.7-0.7c0.4-0.4,0.6-0.6,0.6-0.9c0-0.1,0-0.4-0.2-0.4c-0.2-0.1-0.4,0.2-1.1,0.6c-0.2,0.1-0.3,0.2-0.4,0.3
			c0,0,0.3-0.4,0.2-0.7c0,0-0.1-0.2-0.2-0.3C13.7-1.2,13-1.1,12.9-1c-0.9,0.2-1.1,0.8-2.1,1.3c0,0-0.1,0.1-0.3,0.2
			C10,0.7,9.8,0.8,9.7,0.9C9.5,1,9.3,1.2,9.2,1.4C9,1.7,9.1,1.9,8.9,2C8.8,2.2,8.6,2.2,8.6,2.2C8,2.4,7.3,3.4,7.2,3.5
			C6.8,4.1,5.5,5.4,2,8.6c4.7-5,6.2-6.6,6.2-6.7c0,0,0,0,0,0c0-0.1,0.2-0.4,0-0.6C8.2,1.3,8,1.3,7.9,1.2c0,0,0-0.1,0-0.1
			c0-0.2,0.4-0.2,0.4-0.3c0,0-0.1-0.1-0.2-0.1C7.8,0.5,7.8,0.4,7.7,0.4C7.5,0.3,7.2,0.4,7,0.5C6.8,0.6,6.7,0.8,6.7,0.7
			c0,0,0-0.2,0-0.3C6.6,0.4,6.4,0.4,6.3,0.4C6,0.4,5.8,0.7,5.7,0.6c-0.1,0,0-0.2-0.1-0.3C5.5,0.2,5.4,0.2,5.3,0.1
			C5.1,0,5.2-0.2,5-0.4C4.9-0.5,4.8-0.7,4.6-0.8C4.3-0.9,4.3-0.7,4-0.8C3.8-0.9,3.8-1.1,3.6-1.1c-0.2,0-0.3,0-0.4,0.1
			C2.8-0.9,2.8-0.7,2.7-0.7C2.5-0.7,2.5-0.9,2.1-1C2-1,1.9-1,1.9-0.9c-0.1,0.1,0,0.4-0.1,0.5c-0.1,0.1-0.2,0.1-0.3,0
			C1.4-0.5,1.4-0.6,1.4-0.7C1.2-0.9,0.2-0.6,0,0c0,0.1-0.1,0.2-0.2,0.3c-0.2,0.1-0.3,0-0.5,0c-0.3,0-0.5,0.2-1.1,1
			c0,0-0.1,0.1-0.6,0.6c-0.9,1-1,1.1-1.1,1.4c0,0.5,0,0.7,0,0.7c0,0.1,0.1,0.3,0,0.4c-0.1,0.1-0.1,0-0.2,0.1c-0.1,0.1,0.1,0.4,0,0.8
			c0,0,0,0,0,0.3c-0.1,0.5-0.1,0.6,0,0.7c0.1,0.1,0.2,0.1,0.3,0.1C-3.1,6.3-3,6.2-3,6.2c0.4-0.5,0.8-0.9,1.1-1.4
			C-2,5.1-2.1,5.4-2.3,5.5c-0.2,0.2-0.3,0.4-0.5,0.7c0,0.1-0.1,0.2-0.2,0.4C-3,6.8-3.1,7.1-3,7.4c0,0.1,0.1,0.2,0.1,0.3
			c0,0.2,0,0.3,0,0.4c0,0.1,0.1,0.1,0.2,0.1c0.1,0.1,0,0.3,0,0.6c0,0.2,0.1,0.1,0.1,0.3c0.1,0.3-0.1,0.4,0,0.7c0,0.1,0,0.2,0.1,0.3
			c0.1,0.1,0.4-0.1,0.6,0c0.2,0.1,0.1,0.3,0.3,0.4c0.1,0,0.2-0.1,0.4,0c0,0,0.3,0,0.3,0.1c0,0.1-0.1,0.3-0.3,0.4
			c-0.4,0.2-0.8-0.1-0.9,0c0,0.1,0.1,0.2,0.2,0.3c1,0.9,1,1,1.3,1.2c0.3,0.2,0.3,0.1,0.7,0.3c0.5,0.3,1.1,0.6,1.1,1
			c0,0.2-0.2,0.3-0.1,0.6c0,0.2,0.1,0.5,0.3,0.6c0.2,0.1,0.3-0.1,0.6-0.1c0.3,0,0.3,0.2,0.6,0.3c0.4,0,0.5-0.4,0.8-0.4
			c0.2,0,0.2,0.2,0.4,0.3c0.2,0.1,0.4,0,0.5,0c1-1.1,2.6-2.7,4.6-4.8c1.6-1.7,2.1-2.2,3-3.1c2.6-2.5,5.4-4.5,5.5-4.3
			c0.1,0.1-1.2,1.3-5.5,5.4c-3,2.8-5.4,5.2-7.1,6.8c0,0.3,0.1,0.5,0.2,0.5c0.2,0.1,0.5-0.2,0.8,0C6,15.6,6.2,15.7,6.2,16
			c0,0.2,0,0.3,0.1,0.4c0.1,0.1,0.1,0,0.2,0.1c0.2,0.2,0.1,0.3,0.3,0.5c0.2,0.1,0.4,0,0.4,0.2c0,0.1,0,0.1,0,0.3
			c0,0.1,0.2,0.1,0.2,0.3c0,0.2-0.3,0.3-0.3,0.6c0,0.2,0.1,0.2,0.1,0.5c0,0.5-0.6,0.6-0.5,0.9c0,0.2,0.2,0.4,0.4,0.5
			c0.3,0,0.5-0.4,0.8-0.4c0.4,0,0.6,0.6,0.9,0.5c0.3,0,0.3-0.4,0.6-0.4c0.2,0,0.3,0.1,0.4,0c0.1-0.1,0.1-0.2,0.3-0.3
			c0.1,0,0.1,0,0.2,0c0.2,0,0.6-0.4,0.7-0.8c0.1-0.4,0-0.5,0.2-0.8c0.1-0.2,0.3-0.3,0.4-0.4c0.5-0.4,1.2-1,1.8-1.6
			c0.8-0.8,0.9-1.1,1.5-1.4c0.1,0,0.3-0.1,0.5-0.3c0.3-0.3,0.4-0.6,0.6-0.8c0.4-0.8,0.8-0.8,1.7-2c0-0.1,0.2-0.3,0.2-0.4
			c-0.1-0.1-1.2,1.1-1.4,1c-0.1-0.1-0.1-0.2-0.1-0.2c0.1-0.6,0.8-0.8,1.9-1.7c0.3-0.2,0.2-0.2,0.5-0.5c0.8-0.7,1.7-1.3,2-1.7
			c0.1-0.3,0.2-0.6,0.2-0.6c0-0.1,0-0.1,0.1-0.2c0.1-0.3,0.2-0.4,0.7-0.9C21.9,5.8,22,5.7,21.9,5.6z M5,4.8C4.7,5.2,4.3,5.5,4.1,5.7
			c0.2-0.3,0.4-0.6,0.8-0.9C5,4.6,5.1,4.5,5.3,4.5C5.2,4.6,5.1,4.7,5,4.8z M4.8,3.6c0.5-0.5,1-1,1.4-1.4c-0.3,0.5-0.8,1-1.3,1.5
			C4.6,4,4.3,4.3,4,4.6C4.2,4.3,4.5,4,4.8,3.6z M-0.8,3.6C-0.7,3.4-0.6,3.2-0.4,3c0.1-0.1,0.2-0.2,0.2-0.2c0,0.1-0.1,0.2-0.2,0.3
			C-0.5,3.3-0.6,3.4-0.8,3.6z M0,11.7c-0.1,0.1-0.2,0.2-0.3,0.2c0,0,0-0.2,0.1-0.3c0.1-0.1,0.3-0.2,0.3-0.2
			C0.2,11.5,0.1,11.6,0,11.7z M-0.3,7.1c0.3-0.4,0.7-0.8,1-1.2c0,0.1,0,0.2,0,0.3C0.4,6.5,0.1,6.8-0.3,7.1z M1.5,13.1
			c0,0-0.2-0.2-0.5-0.6c-0.1-0.1-0.2-0.2-0.2-0.3c0-0.1,0.1-0.1,0.2-0.2c0.1-0.1,0.3-0.2,0.4-0.5c0,0.2-0.1,0.3-0.1,0.4
			c0,0.1-0.1,0.2-0.1,0.3c0,0.1,0.1,0,0.1,0.1c0.1,0.1,0,0.2,0,0.3C1.3,12.9,1.5,13.1,1.5,13.1z M1.4,1.8c0.1-0.2,0.2-0.4,0.4-0.6
			C1.9,1.1,2,1,2,1C2,1,1.9,1.1,1.9,1.2C1.7,1.5,1.5,1.7,1.4,1.8z M4.2,8.4c1-1.3,2.3-2.8,3.8-4.2c1.1-1.1,2.2-2,3.2-2.8
			c-0.7,0.7-1.5,1.4-2.2,2.2C7.3,5.2,5.7,6.8,4.2,8.4z M9.1,4.2c0.8-0.8,1.6-1.5,2.4-2c-0.4,0.5-0.9,1-1.4,1.6
			C8.9,4.9,7.8,6.1,6.7,7.1C7.3,6.2,8.1,5.2,9.1,4.2z M10.9,6C12,5,13.1,4.1,14.1,3.3c-0.7,0.7-1.4,1.4-2.2,2.1
			c-1.6,1.4-3.1,2.7-4.6,3.8C8.4,8.2,9.6,7.1,10.9,6z M12.6,6.1C11.1,7.5,9.5,8.8,8,9.9c1.1-1.1,2.3-2.2,3.6-3.4
			c1.1-0.9,2.2-1.8,3.2-2.6C14.2,4.7,13.4,5.4,12.6,6.1z M18.4,4.5c-0.7,0.7-1.4,1.4-2.2,2.1c-1.6,1.4-3.1,2.7-4.6,3.8
			c1.1-1.1,2.3-2.2,3.6-3.4C16.3,6.2,17.3,5.3,18.4,4.5z M8.9,12.3C10.3,10.6,12,8.8,14,7c0.9-0.8,1.8-1.5,2.6-2.2
			c-1,1-1.9,1.9-2.9,2.9C12.1,9.2,10.5,10.8,8.9,12.3z M9.3,13.9c1.6-1.5,3.2-3.1,5-4.7c1.4-1.3,2.8-2.4,4.2-3.5
			c-1.1,1.1-2.3,2.1-3.4,3.2C13.1,10.7,11.2,12.3,9.3,13.9z M9.5,14.9c1.1-1.3,2.5-2.7,4.1-4.1c1.4-1.2,2.7-2.2,4-3
			c-1.1,1-2.2,1.9-3.3,2.9C12.7,12.1,11.1,13.5,9.5,14.9z M17.6,9.2c-1.2,1.1-2.4,2.1-3.6,3c0.2-0.2,0.4-0.4,0.6-0.6
			c0.8-0.7,1.5-1.4,2.2-2.1c-0.1,0.1-0.2,0.1-0.3,0.2c-0.1,0-0.1,0.1-0.2,0.2c-1.3,1.1-2.4,2.2-3.5,3.3c-0.9,0.8-1.8,1.5-2.7,2.1
			c1.1-1.1,2.3-2.2,3.6-3.4c1-0.9,2-1.7,2.9-2.4c1-0.9,2.1-1.7,3-2.5C19.1,7.8,18.4,8.5,17.6,9.2z"/>
	</defs>
	<clipPath id="SVGID_2_">
		<use xlink:href="#SVGID_1_"  style="overflow:visible;"/>
	</clipPath>
	<path class="st0" d="M0,0v16h2.6c0-2.1,0-4.2,0-6.3c0.1-1,0.1-2.2,1-2.8c0.5-0.3,1.1-0.4,1.6-0.2C6,7.1,6.1,8.1,6.1,8.9
		c0,2.4,0,4.7,0,7.1h2.6c0-2.7,0-5.3,0-8c0-1.3-0.5-2.8-1.7-3.4C6,4.1,4.8,4.2,3.8,4.6C3.3,4.8,2.6,5.8,2.6,5.8c0-1.9,0-3.9,0-5.8H0
		L0,0z"/>
	<path class="st1" d="M11.9,6.8l0-2.4l-2.2,0l0-2.1l2.2,0l0-2.4l1.9,0l0,2.4l2.2,0l0,2.1l-2.2,0l0,2.4L11.9,6.8z M11.9,16l0-2.4
		l-2.2,0l0-2.1l2.2,0l0-2.4l1.9,0l0,2.4l2.2,0l0,2.1l-2.2,0l0,2.4L11.9,16z"/>
</g>
</svg>
