<?xml version="1.0" encoding="utf-8"?>
<!-- Generator: Adobe Illustrator 23.0.0, SVG Export Plug-In . SVG Version: 6.00 Build 0)  -->
<svg version="1.1" id="Layer_1" xmlns="http://www.w3.org/2000/svg" xmlns:xlink="http://www.w3.org/1999/xlink" x="0px" y="0px"
	 viewBox="0 0 16 16" style="enable-background:new 0 0 16 16;" xml:space="preserve">
<style type="text/css">
	.st0{clip-path:url(#SVGID_2_);}
	.st1{fill:#F75049;}
</style>
<g>
	<defs>
		<path id="SVGID_1_" d="M-6.5,11.6c0.1,0.1,0.3,0,0.6,0.2c0.2,0.2,0.2,0.3,0.3,0.4c0.4,0.2,1.3-0.5,1.3-0.5c0,0-0.4,0.3-0.7,0.7
			c-0.2,0.2-0.6,0.7-0.5,1c0.1,0.2,0.3,0.2,0.3,0.3c0,0.3-0.5,0.4-0.4,0.7c0,0.2,0.2,0.3,0.3,0.3c0.3,0.1,0.8-0.2,0.8-0.2
			c0,0-0.3,0.2-0.4,0.5c0,0.1-0.2,0.3-0.1,0.5c0.1,0.1,0.3,0.1,0.4,0.1c0.1,0,0.2-0.1,0.2,0c0,0,0,0.1,0,0.2c0,0.2,0.3,0.3,0.6,0.3
			c0.5,0,0.9-0.5,1-0.4c0.1,0.1-0.5,0.5-0.4,0.9c0,0.1,0.2,0.3,0.4,0.3c0.3,0,0.4-0.3,0.5-0.3c0.1,0.1-0.1,0.7,0.1,0.9
			c0.1,0.1,0.3-0.1,0.6,0c0.2,0.1,0.2,0.1,0.3,0.2c0.3,0.1,0.8-0.4,1.3-0.9c0.2-0.2,0.6-0.5,1.1-0.8c-0.3,0.3-0.5,0.6-0.7,0.7
			c-0.4,0.4-0.6,0.6-0.6,0.9c0,0.1,0,0.4,0.2,0.4c0.2,0.1,0.4-0.2,1.1-0.6c0.2-0.1,0.3-0.2,0.4-0.3c0,0-0.3,0.4-0.2,0.7
			c0,0,0.1,0.2,0.2,0.3c0.4,0.3,1.1,0.2,1.2,0.2c0.9-0.2,1.1-0.8,2.1-1.3c0,0,0.1-0.1,0.3-0.2c0.4-0.2,0.6-0.3,0.7-0.4
			C6,16.2,6.2,16,6.3,15.8c0.1-0.3,0.1-0.4,0.2-0.6C6.7,15,6.8,15,6.9,15c0.6-0.2,1.3-1.2,1.4-1.3c0.4-0.6,1.7-1.9,5.2-5.1
			c-4.7,5-6.2,6.6-6.2,6.7c0,0,0,0,0,0c0,0.1-0.2,0.4,0,0.6c0.1,0.1,0.2,0,0.3,0.1c0,0,0,0.1,0,0.1c0,0.2-0.4,0.2-0.4,0.3
			c0,0,0.1,0.1,0.2,0.1c0.3,0.1,0.3,0.2,0.4,0.2c0.2,0.1,0.5-0.1,0.7-0.2c0.2-0.1,0.3-0.2,0.4-0.2c0,0,0,0.2,0,0.3
			c0.1,0.1,0.2,0.1,0.3,0.1c0.3,0,0.5-0.3,0.6-0.2c0.1,0,0,0.2,0.1,0.3C9.9,17,10,17,10.2,17.1c0.2,0.1,0.1,0.3,0.3,0.5
			c0.1,0.1,0.2,0.3,0.4,0.3c0.2,0.1,0.3,0,0.5,0.1c0.3,0.1,0.3,0.2,0.5,0.3c0.2,0,0.3,0,0.4-0.1c0.3-0.1,0.3-0.3,0.5-0.3
			c0.2,0,0.2,0.2,0.5,0.2c0.1,0,0.2,0,0.3,0c0.1-0.1,0-0.4,0.1-0.5c0.1-0.1,0.2-0.1,0.3,0c0.1,0.1,0.1,0.1,0.1,0.2
			c0.2,0.2,1.1-0.1,1.4-0.6c0-0.1,0.1-0.2,0.2-0.3c0.2-0.1,0.3,0,0.5,0c0.3,0,0.5-0.2,1.1-1c0,0,0.1-0.1,0.6-0.6
			c0.9-1,1-1.1,1.1-1.4c0-0.5,0-0.7,0-0.7c0-0.1-0.1-0.3,0-0.4c0.1-0.1,0.1,0,0.2-0.1c0.1-0.1-0.1-0.4,0-0.8c0,0,0,0,0-0.3
			c0.1-0.5,0.1-0.6,0-0.7c-0.1-0.1-0.2-0.1-0.3-0.1c-0.2,0-0.3,0.1-0.4,0.1c-0.4,0.5-0.8,0.9-1.1,1.4c0.2-0.3,0.3-0.6,0.4-0.7
			c0.2-0.2,0.3-0.4,0.5-0.7c0-0.1,0.1-0.2,0.2-0.4c0.1-0.2,0.2-0.5,0.1-0.8c0-0.1-0.1-0.2-0.1-0.3c0-0.2,0-0.3,0-0.4
			c0-0.1-0.1-0.1-0.2-0.1c-0.1-0.1,0-0.3,0-0.6c0-0.2-0.1-0.1-0.1-0.3c-0.1-0.3,0.1-0.4,0-0.7c0-0.1,0-0.2-0.1-0.3
			c-0.1-0.1-0.4,0.1-0.6,0C17.2,7,17.2,6.8,17,6.8c-0.1,0-0.2,0.1-0.4,0c0,0-0.3,0-0.3-0.1c0-0.1,0.1-0.3,0.3-0.4
			c0.4-0.2,0.8,0.1,0.9,0c0-0.1-0.1-0.2-0.2-0.3c-1-0.9-1-1-1.3-1.2c-0.3-0.2-0.3-0.1-0.7-0.3c-0.5-0.3-1.1-0.6-1.1-1
			c0-0.2,0.2-0.3,0.1-0.6c0-0.2-0.1-0.5-0.3-0.6c-0.2-0.1-0.3,0.1-0.6,0.1C13,2.3,13,2.1,12.7,2c-0.4,0-0.5,0.4-0.8,0.4
			c-0.2,0-0.2-0.2-0.4-0.3c-0.2-0.1-0.4,0-0.5,0c-1,1.1-2.6,2.7-4.6,4.8c-1.6,1.7-2.1,2.2-3,3.1c-2.6,2.5-5.4,4.5-5.5,4.3
			c-0.1-0.1,1.2-1.3,5.5-5.4c3-2.8,5.4-5.2,7.1-6.8c0-0.3-0.1-0.5-0.2-0.5c-0.2-0.1-0.5,0.2-0.8,0C9.5,1.6,9.3,1.5,9.2,1.3
			c0-0.2,0-0.3-0.1-0.4C9.1,0.8,9,0.8,8.9,0.8C8.7,0.6,8.8,0.4,8.7,0.3c-0.2-0.1-0.4,0-0.4-0.2c0-0.1,0-0.1,0-0.3
			c0-0.1-0.2-0.1-0.2-0.3C8-0.6,8.3-0.7,8.4-1c0-0.2-0.1-0.2-0.1-0.5c0-0.5,0.6-0.6,0.5-0.9c0-0.2-0.2-0.4-0.4-0.5
			C8.1-2.9,8-2.5,7.6-2.5C7.2-2.4,7.1-3,6.7-3c-0.3,0-0.3,0.4-0.6,0.4c-0.2,0-0.3-0.1-0.4,0C5.5-2.6,5.5-2.4,5.4-2.4
			c-0.1,0-0.1,0-0.2,0C5-2.4,4.7-2,4.5-1.6c-0.1,0.4,0,0.5-0.2,0.8C4.2-0.6,4.1-0.5,4-0.4c-0.5,0.4-1.2,1-1.8,1.6
			C1.4,1.9,1.3,2.2,0.7,2.5c-0.1,0-0.3,0.1-0.5,0.3c-0.3,0.3-0.4,0.6-0.6,0.8c-0.4,0.8-0.8,0.8-1.7,2C-2,5.8-2.2,6-2.1,6.1
			c0.1,0.1,1.2-1.1,1.4-1c0.1,0.1,0.1,0.2,0.1,0.2c-0.1,0.6-0.8,0.8-1.9,1.7c-0.3,0.2-0.2,0.2-0.5,0.5c-0.8,0.7-1.7,1.3-2,1.7
			c-0.1,0.3-0.2,0.6-0.2,0.6c0,0.1,0,0.1-0.1,0.2c-0.1,0.3-0.2,0.4-0.7,0.9C-6.5,11.4-6.5,11.5-6.5,11.6z M10.5,12.4
			c0.3-0.4,0.6-0.7,0.9-0.9c-0.2,0.3-0.4,0.6-0.8,0.9c-0.1,0.1-0.3,0.2-0.4,0.3C10.3,12.6,10.4,12.5,10.5,12.4z M10.7,13.6
			c-0.5,0.5-1,1-1.4,1.4c0.3-0.5,0.8-1,1.3-1.5c0.3-0.3,0.6-0.6,0.9-0.9C11.3,12.9,11,13.3,10.7,13.6z M16.3,13.6
			c-0.1,0.2-0.2,0.4-0.4,0.6c-0.1,0.1-0.2,0.2-0.2,0.2c0-0.1,0.1-0.2,0.2-0.3C15.9,13.9,16.1,13.8,16.3,13.6z M15.4,5.5
			c0.1-0.1,0.2-0.2,0.3-0.2c0,0,0,0.2-0.1,0.3c-0.1,0.1-0.3,0.2-0.3,0.2C15.3,5.7,15.3,5.6,15.4,5.5z M15.7,10.1
			c-0.3,0.4-0.7,0.8-1,1.2c0-0.1,0-0.2,0-0.3C15.1,10.7,15.4,10.4,15.7,10.1z M14,4.1c0,0,0.2,0.2,0.5,0.6c0.1,0.1,0.2,0.2,0.2,0.3
			c0,0.1-0.1,0.1-0.2,0.2c-0.1,0.1-0.3,0.2-0.4,0.5c0-0.2,0.1-0.3,0.1-0.4c0-0.1,0.1-0.2,0.1-0.3c0-0.1-0.1,0-0.1-0.1
			c-0.1-0.1,0-0.2,0-0.3C14.1,4.3,14,4.1,14,4.1z M14.1,15.4c-0.1,0.2-0.2,0.4-0.4,0.6c-0.1,0.1-0.2,0.2-0.2,0.2
			c0-0.1,0.1-0.2,0.2-0.3C13.8,15.7,13.9,15.5,14.1,15.4z M11.3,8.8c-1,1.3-2.3,2.8-3.8,4.2c-1.1,1.1-2.2,2-3.2,2.8
			c0.7-0.7,1.5-1.4,2.2-2.2C8.2,12,9.8,10.4,11.3,8.8z M6.4,13c-0.8,0.8-1.6,1.5-2.4,2c0.4-0.5,0.9-1,1.4-1.6
			c1.1-1.2,2.3-2.4,3.4-3.4C8.2,11,7.4,12,6.4,13z M4.5,11.2c-1.1,0.9-2.2,1.8-3.2,2.6c0.7-0.7,1.4-1.4,2.2-2.1
			C5.1,10.3,6.7,9,8.2,7.9C7.1,9,5.9,10.1,4.5,11.2z M2.8,11.1C4.4,9.7,6,8.4,7.4,7.3c-1.1,1.1-2.3,2.2-3.6,3.4
			c-1.1,0.9-2.2,1.8-3.2,2.6C1.3,12.6,2.1,11.8,2.8,11.1z M-2.9,12.7c0.7-0.7,1.4-1.4,2.2-2.1c1.6-1.4,3.1-2.7,4.6-3.8
			C2.8,7.8,1.6,8.9,0.3,10C-0.8,11-1.9,11.9-2.9,12.7z M6.6,4.9c-1.4,1.7-3.1,3.5-5.1,5.3c-0.9,0.8-1.8,1.5-2.6,2.2
			c1-1,1.9-1.9,2.9-2.9C3.3,8,5,6.4,6.6,4.9z M6.2,3.3C4.6,4.8,3,6.4,1.2,8c-1.4,1.3-2.8,2.4-4.2,3.5c1.1-1.1,2.3-2.1,3.4-3.2
			C2.4,6.6,4.3,4.9,6.2,3.3z M5.9,2.3C4.9,3.6,3.5,5,1.8,6.4c-1.4,1.2-2.7,2.2-4,3C-1,8.4,0,7.4,1.1,6.5C2.7,5.1,4.3,3.7,5.9,2.3z
			 M-2.1,8c1.2-1.1,2.4-2.1,3.6-3C1.2,5.1,1,5.3,0.8,5.5C0,6.3-0.7,7-1.4,7.7c0.1-0.1,0.2-0.1,0.3-0.2C-1.1,7.4-1,7.4-1,7.3
			C0.3,6.2,1.5,5.1,2.6,4c0.9-0.8,1.8-1.5,2.7-2.1C4.1,3,2.9,4.1,1.6,5.3c-1,0.9-2,1.7-2.9,2.4c-1,0.9-2.1,1.7-3,2.5
			C-3.6,9.4-2.9,8.7-2.1,8z"/>
	</defs>
	<clipPath id="SVGID_2_">
		<use xlink:href="#SVGID_1_"  style="overflow:visible;"/>
	</clipPath>
	<g transform="translate(-592 -32)" class="st0">
		<path class="st1" d="M597,33v4h-2.5c0,0,2.3,5,5.5,9.3c3.1-4.4,5.5-9.3,5.5-9.3H603v-4H597z M598,34h4v4h1.8
			c-0.7,1.3-1.9,3.6-3.8,6.5c-1.9-2.9-3.2-5.2-3.8-6.5h1.8V34z M594,47v1h12v-1H594z"/>
	</g>
</g>
</svg>
