<?xml version="1.0" encoding="utf-8"?>
<!-- Generator: Adobe Illustrator 23.0.0, SVG Export Plug-In . SVG Version: 6.00 Build 0)  -->
<svg version="1.1" id="Layer_1" xmlns="http://www.w3.org/2000/svg" xmlns:xlink="http://www.w3.org/1999/xlink" x="0px" y="0px"
	 viewBox="0 0 16 16" style="enable-background:new 0 0 16 16;" xml:space="preserve">
<style type="text/css">
	.st0{clip-path:url(#SVGID_2_);fill:#F75049;}
</style>
<g>
	<defs>
		<path id="SVGID_1_" d="M23.1,6.3c-0.1-0.2-0.4,0-0.8-0.3c-0.3-0.2-0.2-0.4-0.4-0.6c-0.5-0.3-1.7,0.7-1.7,0.6c0,0,0.5-0.4,0.9-0.9
			c0.3-0.3,0.8-0.9,0.7-1.3c-0.1-0.2-0.4-0.2-0.4-0.4c-0.1-0.3,0.6-0.6,0.6-1c0-0.2-0.2-0.4-0.4-0.4c-0.5-0.2-1,0.3-1,0.3
			c0,0,0.3-0.2,0.6-0.6c0-0.1,0.2-0.4,0.1-0.6c-0.1-0.1-0.3-0.1-0.5-0.1c-0.2,0-0.2,0.1-0.3,0.1c-0.1,0,0-0.1,0-0.2
			c0-0.2-0.4-0.4-0.7-0.4C19,0.4,18.5,1,18.4,1c-0.1-0.1,0.6-0.7,0.5-1.1c-0.1-0.2-0.3-0.3-0.5-0.3c-0.3,0-0.5,0.4-0.7,0.3
			c-0.2-0.1,0.1-0.9-0.1-1.1c-0.2-0.1-0.4,0.1-0.7,0c-0.2-0.1-0.2-0.2-0.3-0.2c-0.4-0.2-1,0.6-1.7,1.2c-0.3,0.3-0.8,0.7-1.5,1.1
			c0.3-0.4,0.6-0.7,0.8-1C14.7-0.9,15-1.1,15-1.5c0-0.2,0-0.5-0.2-0.6c-0.2-0.1-0.5,0.2-1.4,0.8C13.2-1.1,13-1,12.9-0.9
			c0,0,0.4-0.5,0.3-0.9c0-0.1-0.1-0.2-0.3-0.3c-0.6-0.4-1.5-0.2-1.6-0.2c-1.1,0.3-1.4,1.1-2.8,1.7c0,0-0.2,0.1-0.4,0.2
			C7.6-0.1,7.3,0,7.2,0.1C6.9,0.3,6.6,0.5,6.4,0.8C6.3,1.2,6.4,1.4,6.2,1.6C6,1.8,5.8,1.8,5.7,1.9C4.9,2.1,4,3.4,3.9,3.6
			c-0.5,0.7-2.2,2.5-6.8,6.6c6.2-6.5,8.1-8.6,8.1-8.8c0,0,0,0,0,0c0-0.1,0.2-0.6,0-0.7c-0.1-0.1-0.3,0-0.4-0.2c0,0-0.1-0.1,0-0.2
			C4.9,0,5.4,0,5.4-0.1c0-0.1-0.1-0.1-0.3-0.1C4.7-0.4,4.7-0.5,4.5-0.6C4.2-0.6,3.9-0.5,3.7-0.3C3.4-0.2,3.3,0,3.2-0.1
			c-0.1,0,0.1-0.2,0-0.4C3.1-0.6,2.8-0.5,2.8-0.5c-0.5,0-0.7,0.4-0.8,0.3C1.9-0.3,2-0.5,1.8-0.6C1.7-0.8,1.6-0.8,1.4-0.9
			C1.1-1.1,1.2-1.3,1-1.6C0.9-1.7,0.7-1.9,0.4-2C0.2-2.2,0.1-2-0.2-2.1c-0.3-0.1-0.3-0.3-0.6-0.4c-0.2,0-0.4,0-0.5,0.1
			C-1.8-2.2-1.8-2-2-2c-0.2,0-0.3-0.2-0.7-0.3c-0.1,0-0.3-0.1-0.4,0c-0.2,0.1,0,0.5-0.1,0.6c-0.1,0.1-0.3,0.1-0.4,0
			c-0.1-0.1-0.1-0.2-0.2-0.3C-4-2.2-5.2-1.8-5.6-1.1c-0.1,0.1-0.1,0.3-0.3,0.4c-0.2,0.1-0.4,0-0.6,0c-0.4,0-0.6,0.3-1.4,1.3
			c0,0-0.2,0.2-0.7,0.8C-9.7,2.7-10,2.9-10,3.3c0,0.7,0.1,0.9,0.1,0.9c0,0.1,0.1,0.3,0,0.5c-0.1,0.1-0.1,0.1-0.2,0.1
			C-10.3,5-10,5.3-10,5.8c0,0,0,0-0.1,0.4c-0.1,0.7-0.1,0.8-0.1,0.9c0.1,0.1,0.2,0.1,0.3,0.1C-9.6,7.1-9.4,7-9.4,7
			c0.5-0.6,1-1.2,1.5-1.8c-0.2,0.4-0.4,0.7-0.6,1c-0.2,0.3-0.4,0.5-0.6,0.9c-0.1,0.1-0.1,0.3-0.2,0.5c-0.1,0.3-0.2,0.7-0.1,1
			C-9.3,8.7-9.2,8.8-9.2,9c0,0.2-0.1,0.4,0,0.5C-9.1,9.6-9,9.6-9,9.7c0.1,0.2,0,0.4,0,0.8c0,0.2,0.1,0.2,0.2,0.4
			c0.1,0.3-0.1,0.5,0,0.9c0,0.2,0,0.3,0.1,0.4c0.2,0.2,0.5-0.1,0.7,0.1c0.2,0.1,0.2,0.4,0.4,0.5c0.2,0.1,0.2-0.1,0.5-0.1
			c0,0,0.4,0,0.4,0.2c0,0.1-0.1,0.4-0.3,0.5c-0.5,0.3-1-0.1-1.1,0.1c0,0.1,0.2,0.3,0.3,0.4c1.3,1.2,1.3,1.3,1.7,1.6
			c0.4,0.3,0.4,0.1,0.9,0.4c0.7,0.4,1.4,0.8,1.4,1.3c0,0.3-0.2,0.4-0.2,0.8c0,0.3,0.1,0.7,0.4,0.8c0.3,0.1,0.4-0.2,0.8-0.1
			c0.4,0,0.4,0.3,0.8,0.3c0.5,0,0.7-0.5,1.1-0.5c0.2,0,0.2,0.3,0.5,0.4c0.3,0.1,0.5,0,0.7,0c1.4-1.4,3.5-3.5,6-6.2
			c2.1-2.2,2.7-2.9,3.9-4c3.4-3.3,7-5.8,7.2-5.6c0.1,0.1-1.5,1.7-7.2,7c-3.9,3.7-7.1,6.8-9.2,8.8c0,0.4,0.1,0.6,0.2,0.7
			c0.3,0.2,0.6-0.2,1,0c0.1,0.1,0.3,0.3,0.4,0.6c0.1,0.2,0,0.4,0.1,0.5c0.1,0.1,0.1,0,0.2,0.1c0.2,0.2,0.1,0.4,0.3,0.6
			c0.2,0.2,0.5,0.1,0.6,0.2c0,0.1-0.1,0.2,0,0.3c0,0.2,0.2,0.2,0.2,0.3c0.1,0.2-0.3,0.4-0.4,0.8C3.6,23,3.8,23,3.8,23.3
			c0,0.6-0.7,0.8-0.7,1.2c0,0.3,0.3,0.6,0.6,0.6c0.4,0.1,0.6-0.6,1.1-0.6c0.5,0,0.7,0.8,1.2,0.7c0.3-0.1,0.4-0.5,0.8-0.5
			c0.3,0,0.4,0.1,0.6,0c0.2-0.1,0.2-0.3,0.3-0.3c0.1,0,0.2,0,0.2,0c0.3,0,0.7-0.5,0.9-1c0.2-0.5,0-0.7,0.2-1
			c0.2-0.3,0.4-0.4,0.5-0.5c0.7-0.5,1.6-1.3,2.4-2.1c1.1-1,1.2-1.4,1.9-1.8c0.1-0.1,0.4-0.2,0.6-0.4c0.4-0.4,0.5-0.7,0.7-1.1
			c0.5-1,1.1-1.1,2.2-2.7c0.1-0.1,0.3-0.4,0.2-0.5c-0.1-0.1-1.5,1.5-1.9,1.3c-0.1-0.1-0.1-0.2-0.1-0.3c0.1-0.8,1.1-1,2.5-2.2
			c0.4-0.3,0.2-0.2,0.6-0.6c1.1-1,2.2-1.7,2.6-2.3c0.2-0.4,0.3-0.7,0.3-0.7c0-0.1,0-0.2,0.1-0.2c0.1-0.4,0.3-0.5,0.9-1.1
			C23.1,6.6,23.2,6.4,23.1,6.3z M1,5.3C0.6,5.8,0.2,6.2-0.2,6.4c0.2-0.4,0.5-0.8,1-1.2C1,5,1.2,4.9,1.4,4.8C1.3,4.9,1.2,5.1,1,5.3z
			 M0.7,3.7C1.3,3,2,2.4,2.5,1.9c-0.5,0.6-1,1.3-1.6,1.9C0.5,4.2,0.1,4.6-0.3,4.9C0,4.5,0.3,4.1,0.7,3.7z M-6.5,3.6
			C-6.4,3.4-6.2,3.1-6,2.8c0.1-0.1,0.2-0.2,0.3-0.3c-0.1,0.1-0.1,0.2-0.2,0.3C-6.1,3.2-6.3,3.5-6.5,3.6z M-5.4,14.3
			c-0.1,0.2-0.3,0.2-0.3,0.2c0-0.1,0-0.2,0.1-0.4c0.1-0.2,0.4-0.2,0.4-0.2C-5.3,13.9-5.3,14.1-5.4,14.3z M-5.9,8.2
			c0.4-0.5,0.8-1,1.3-1.6c0,0.1,0,0.3,0.1,0.4C-5,7.4-5.4,7.8-5.9,8.2z M-3.6,16.1c-0.1,0-0.2-0.3-0.7-0.8c-0.1-0.1-0.2-0.2-0.2-0.4
			c0-0.1,0.2-0.2,0.3-0.2c0.2-0.1,0.4-0.3,0.6-0.6c0,0.3-0.1,0.4-0.1,0.5c-0.1,0.1-0.2,0.2-0.1,0.3c0,0.1,0.1,0,0.2,0.1
			c0.1,0.1,0,0.2,0,0.3C-3.8,15.8-3.5,16-3.6,16.1z M-3.7,1.3c0.1-0.2,0.3-0.5,0.6-0.8C-3,0.4-2.9,0.3-2.8,0.2
			C-2.9,0.3-3,0.4-3.1,0.6C-3.3,0.9-3.5,1.1-3.7,1.3z M-0.1,9.9c1.4-1.7,3-3.6,5-5.5C6.4,3,7.7,1.8,9.1,0.8c-1,0.9-1.9,1.8-2.9,2.8
			C4,5.7,1.9,7.8-0.1,9.9z M6.4,4.4c1.1-1.1,2.1-2,3.1-2.6c-0.6,0.7-1.2,1.4-1.8,2c-1.5,1.6-3,3.1-4.4,4.4C4,7.1,5,5.7,6.4,4.4z
			 M8.7,6.7c1.4-1.2,2.8-2.4,4.2-3.4C12,4.3,11.1,5.2,10,6.1C8,8,6,9.7,4,11.1C5.5,9.7,7,8.2,8.7,6.7z M11,6.9c-2,1.9-4.1,3.5-6,5
			C6.4,10.5,8,9,9.7,7.5c1.4-1.2,2.8-2.4,4.2-3.4C13,5,12,6,11,6.9z M18.5,4.9c-0.9,0.9-1.9,1.9-2.9,2.8c-2,1.9-4.1,3.5-6,5
			c1.4-1.4,3-2.9,4.7-4.4C15.7,7.1,17.1,5.9,18.5,4.9z M6.1,15c1.9-2.2,4.1-4.6,6.7-6.9c1.2-1,2.3-2,3.4-2.9
			c-1.2,1.3-2.5,2.5-3.8,3.8C10.3,11,8.2,13,6.1,15z M6.6,17.1c2-2,4.2-4.1,6.6-6.1c1.8-1.6,3.7-3.2,5.4-4.6
			c-1.4,1.4-2.9,2.8-4.5,4.2C11.6,12.9,9.1,15.1,6.6,17.1z M6.9,18.5c1.4-1.7,3.2-3.5,5.4-5.4c1.8-1.5,3.6-2.8,5.2-3.9
			c-1.4,1.2-2.8,2.5-4.2,3.7C11.1,14.8,9,16.6,6.9,18.5z M17.4,11c-1.6,1.4-3.1,2.8-4.6,4c0.3-0.2,0.6-0.5,0.8-0.8
			c1-0.9,2-1.9,2.9-2.8c-0.1,0.1-0.3,0.2-0.4,0.3c-0.1,0.1-0.2,0.1-0.2,0.2c-1.7,1.4-3.2,2.9-4.6,4.3c-1.2,1-2.4,1.9-3.5,2.8
			c1.4-1.4,3-2.9,4.7-4.4c1.3-1.1,2.6-2.2,3.8-3.1c1.4-1.2,2.7-2.2,4-3.2C19.4,9.1,18.5,10.1,17.4,11z"/>
	</defs>
	<clipPath id="SVGID_2_">
		<use xlink:href="#SVGID_1_"  style="overflow:visible;"/>
	</clipPath>
	<polygon class="st0" points="14,8 16,16 16,12 	"/>
	<polyline class="st0" points="14,8 16,0 16,4 14,8 	"/>
	<polyline class="st0" points="2,8 0,0 0,4 2,8 	"/>
	<polygon class="st0" points="2,8 0,16 0,12 	"/>
	<polygon class="st0" points="8,14 0,16 4,16 	"/>
	<polyline class="st0" points="8,14 16,16 12,16 8,14 	"/>
	<polygon class="st0" points="8,2 16,0 12,0 	"/>
	<polyline class="st0" points="8,2 0,0 4,0 8,2 	"/>
	<polygon class="st0" points="0,16 2,8 8,14 	"/>
	<polyline class="st0" points="16,16 8,14 14,8 16,16 	"/>
	<polyline class="st0" points="16,0 14,8 8,2 16,0 	"/>
	<polygon class="st0" points="0,0 8,2 2,8 	"/>
	<rect x="3.8" y="3.8" transform="matrix(0.7071 -0.7071 0.7071 0.7071 -3.3138 7.9999)" class="st0" width="8.5" height="8.5"/>
</g>
</svg>
