<?xml version="1.0" encoding="utf-8"?>
<!-- Generator: Adobe Illustrator 23.0.0, SVG Export Plug-In . SVG Version: 6.00 Build 0)  -->
<svg version="1.1" id="Layer_1" xmlns="http://www.w3.org/2000/svg" xmlns:xlink="http://www.w3.org/1999/xlink" x="0px" y="0px"
	 viewBox="0 0 16 16" style="enable-background:new 0 0 16 16;" xml:space="preserve">
<style type="text/css">
	.st0{clip-path:url(#SVGID_2_);fill:#F75049;}
</style>
<g>
	<defs>
		<path id="SVGID_1_" d="M22.4,7.6c-0.1-0.1-0.3,0-0.6-0.2c-0.2-0.2-0.2-0.3-0.3-0.4c-0.4-0.2-1.3,0.5-1.3,0.5c0,0,0.4-0.3,0.7-0.7
			c0.2-0.2,0.6-0.7,0.5-1c-0.1-0.2-0.3-0.2-0.3-0.3c0-0.3,0.5-0.4,0.4-0.7c0-0.2-0.2-0.3-0.3-0.3c-0.3-0.1-0.8,0.2-0.8,0.2
			c0,0,0.3-0.2,0.4-0.5c0-0.1,0.2-0.3,0.1-0.5c-0.1-0.1-0.3-0.1-0.4-0.1c-0.1,0-0.2,0.1-0.2,0c0,0,0-0.1,0-0.2
			c0-0.2-0.3-0.3-0.6-0.3c-0.5,0-0.9,0.5-1,0.4c-0.1-0.1,0.5-0.5,0.4-0.9c0-0.1-0.2-0.3-0.4-0.3c-0.3,0-0.4,0.3-0.5,0.3
			c-0.1-0.1,0.1-0.7-0.1-0.9c-0.1-0.1-0.3,0.1-0.6,0c-0.2-0.1-0.2-0.1-0.3-0.2C17,1.5,16.6,2,16,2.5c-0.2,0.2-0.6,0.5-1.1,0.8
			c0.3-0.3,0.5-0.6,0.7-0.7c0.4-0.4,0.6-0.6,0.6-0.9c0-0.1,0-0.4-0.2-0.4c-0.2-0.1-0.4,0.2-1.1,0.6c-0.2,0.1-0.3,0.2-0.4,0.3
			c0,0,0.3-0.4,0.2-0.7c0,0-0.1-0.2-0.2-0.3C14.1,0.8,13.4,1,13.3,1c-0.9,0.2-1.1,0.8-2.1,1.3c0,0-0.1,0.1-0.3,0.2
			c-0.4,0.2-0.6,0.3-0.7,0.4C9.9,3.1,9.7,3.2,9.6,3.5C9.5,3.7,9.5,3.9,9.4,4C9.2,4.2,9.1,4.2,9,4.2C8.4,4.4,7.7,5.4,7.6,5.6
			c-0.4,0.6-1.7,1.9-5.2,5.1c4.7-5,6.2-6.6,6.2-6.7c0,0,0,0,0,0c0-0.1,0.2-0.4,0-0.6c-0.1-0.1-0.2,0-0.3-0.1c0,0,0-0.1,0-0.1
			c0-0.2,0.4-0.2,0.4-0.3c0,0-0.1-0.1-0.2-0.1C8.3,2.5,8.3,2.4,8.1,2.4C7.9,2.3,7.6,2.4,7.5,2.5C7.3,2.7,7.1,2.8,7.1,2.8
			c0,0,0-0.2,0-0.3C7,2.4,6.8,2.4,6.8,2.4c-0.3,0-0.5,0.3-0.6,0.2c-0.1,0,0-0.2-0.1-0.3C6,2.2,5.8,2.2,5.7,2.1
			C5.5,2,5.6,1.8,5.4,1.6C5.3,1.5,5.2,1.3,5,1.2c-0.2-0.1-0.3,0-0.5-0.1C4.2,1.1,4.2,0.9,4,0.9c-0.2,0-0.3,0-0.4,0.1
			C3.3,1.1,3.3,1.3,3.1,1.3c-0.2,0-0.2-0.2-0.5-0.2c-0.1,0-0.2,0-0.3,0c-0.1,0.1,0,0.4-0.1,0.5C2.1,1.6,2,1.6,1.9,1.6
			C1.8,1.5,1.9,1.4,1.8,1.4C1.6,1.2,0.7,1.4,0.4,2c0,0.1-0.1,0.2-0.2,0.3c-0.2,0.1-0.3,0-0.5,0c-0.3,0-0.5,0.2-1.1,1
			c0,0-0.1,0.1-0.6,0.6C-2.8,4.9-3,5-3,5.3C-3,5.8-3,6-3,6c0,0.1,0.1,0.3,0,0.4C-3,6.5-3,6.4-3.1,6.5c-0.1,0.1,0.1,0.4,0,0.8
			c0,0,0,0,0,0.3c-0.1,0.5-0.1,0.6,0,0.7C-3.1,8.3-3,8.3-2.9,8.3c0.2,0,0.3-0.1,0.4-0.1c0.4-0.5,0.8-0.9,1.1-1.4
			c-0.2,0.3-0.3,0.6-0.4,0.7C-2,7.8-2.2,7.9-2.3,8.3c0,0.1-0.1,0.2-0.2,0.4c-0.1,0.2-0.2,0.5-0.1,0.8c0,0.1,0.1,0.2,0.1,0.3
			c0,0.2,0,0.3,0,0.4c0,0.1,0.1,0.1,0.2,0.1c0.1,0.1,0,0.3,0,0.6c0,0.2,0.1,0.1,0.1,0.3c0.1,0.3-0.1,0.4,0,0.7c0,0.1,0,0.2,0.1,0.3
			c0.1,0.1,0.4-0.1,0.6,0c0.2,0.1,0.1,0.3,0.3,0.4c0.1,0,0.2-0.1,0.4,0c0,0,0.3,0,0.3,0.1c0,0.1-0.1,0.3-0.3,0.4
			c-0.4,0.2-0.8-0.1-0.9,0c0,0.1,0.1,0.2,0.2,0.3c1,0.9,1,1,1.3,1.2c0.3,0.2,0.3,0.1,0.7,0.3c0.5,0.3,1.1,0.6,1.1,1
			c0,0.2-0.2,0.3-0.1,0.6c0,0.2,0.1,0.5,0.3,0.6c0.2,0.1,0.3-0.1,0.6-0.1c0.3,0,0.3,0.2,0.6,0.3c0.4,0,0.5-0.4,0.8-0.4
			c0.2,0,0.2,0.2,0.4,0.3c0.2,0.1,0.4,0,0.5,0c1-1.1,2.6-2.7,4.6-4.8c1.6-1.7,2.1-2.2,3-3.1c2.6-2.5,5.4-4.5,5.5-4.3
			c0.1,0.1-1.2,1.3-5.5,5.4c-3,2.8-5.4,5.2-7.1,6.8c0,0.3,0.1,0.5,0.2,0.5c0.2,0.1,0.5-0.2,0.8,0c0.1,0.1,0.3,0.2,0.3,0.4
			c0,0.2,0,0.3,0.1,0.4c0.1,0.1,0.1,0,0.2,0.1c0.2,0.2,0.1,0.3,0.3,0.5c0.2,0.1,0.4,0,0.4,0.2c0,0.1,0,0.1,0,0.3
			c0,0.1,0.2,0.1,0.2,0.3c0,0.2-0.3,0.3-0.3,0.6c0,0.2,0.1,0.2,0.1,0.5c0,0.5-0.6,0.6-0.5,0.9c0,0.2,0.2,0.4,0.4,0.5
			c0.3,0,0.5-0.4,0.8-0.4c0.4,0,0.6,0.6,0.9,0.5c0.3,0,0.3-0.4,0.6-0.4c0.2,0,0.3,0.1,0.4,0c0.1-0.1,0.1-0.2,0.3-0.3
			c0.1,0,0.1,0,0.2,0c0.2,0,0.6-0.4,0.7-0.8c0.1-0.4,0-0.5,0.2-0.8c0.1-0.2,0.3-0.3,0.4-0.4c0.5-0.4,1.2-1,1.8-1.6
			c0.8-0.8,0.9-1.1,1.5-1.4c0.1,0,0.3-0.1,0.5-0.3c0.3-0.3,0.4-0.6,0.6-0.8c0.4-0.8,0.8-0.8,1.7-2c0-0.1,0.2-0.3,0.2-0.4
			c-0.1-0.1-1.2,1.1-1.4,1c-0.1-0.1-0.1-0.2-0.1-0.2c0.1-0.6,0.8-0.8,1.9-1.7c0.3-0.2,0.2-0.2,0.5-0.5c0.8-0.7,1.7-1.3,2-1.7
			c0.1-0.3,0.2-0.6,0.2-0.6c0-0.1,0-0.1,0.1-0.2c0.1-0.3,0.2-0.4,0.7-0.9C22.4,7.8,22.4,7.7,22.4,7.6z M5.4,6.9
			C5.1,7.2,4.8,7.5,4.5,7.7c0.2-0.3,0.4-0.6,0.8-0.9c0.1-0.1,0.3-0.2,0.4-0.3C5.6,6.6,5.5,6.7,5.4,6.9z M5.2,5.6
			c0.5-0.5,1-1,1.4-1.4c-0.3,0.5-0.8,1-1.3,1.5C5,6,4.7,6.3,4.4,6.6C4.6,6.3,4.9,6,5.2,5.6z M-0.4,5.6C-0.3,5.4-0.1,5.2,0.1,5
			c0.1-0.1,0.2-0.2,0.2-0.2c0,0.1-0.1,0.2-0.2,0.3C0,5.3-0.2,5.5-0.4,5.6z M0.5,13.7c-0.1,0.1-0.2,0.2-0.3,0.2c0,0,0-0.2,0.1-0.3
			c0.1-0.1,0.3-0.2,0.3-0.2C0.6,13.5,0.6,13.6,0.5,13.7z M0.2,9.1c0.3-0.4,0.7-0.8,1-1.2c0,0.1,0,0.2,0,0.3C0.8,8.5,0.5,8.8,0.2,9.1
			z M1.9,15.1c0,0-0.2-0.2-0.5-0.6c-0.1-0.1-0.2-0.2-0.2-0.3c0-0.1,0.1-0.1,0.2-0.2c0.1-0.1,0.3-0.2,0.4-0.5c0,0.2-0.1,0.3-0.1,0.4
			c0,0.1-0.1,0.2-0.1,0.3c0,0.1,0.1,0,0.1,0.1c0.1,0.1,0,0.2,0,0.3C1.8,14.9,1.9,15.1,1.9,15.1z M1.8,3.8C1.9,3.6,2,3.4,2.2,3.2
			C2.3,3.1,2.4,3,2.5,3c0,0.1-0.1,0.2-0.2,0.3C2.1,3.5,1.9,3.7,1.8,3.8z M4.6,10.4c1-1.3,2.3-2.8,3.8-4.2c1.1-1.1,2.2-2,3.2-2.8
			c-0.7,0.7-1.5,1.4-2.2,2.2C7.7,7.2,6.1,8.8,4.6,10.4z M9.5,6.2c0.8-0.8,1.6-1.5,2.4-2c-0.4,0.5-0.9,1-1.4,1.6
			C9.4,7,8.2,8.1,7.1,9.1C7.7,8.2,8.5,7.2,9.5,6.2z M11.4,8c1.1-0.9,2.2-1.8,3.2-2.6c-0.7,0.7-1.4,1.4-2.2,2.1
			c-1.6,1.4-3.1,2.7-4.6,3.8C8.8,10.3,10,9.1,11.4,8z M13.1,8.1c-1.6,1.4-3.1,2.7-4.6,3.8c1.1-1.1,2.3-2.2,3.6-3.4
			c1.1-0.9,2.2-1.8,3.2-2.6C14.6,6.7,13.8,7.4,13.1,8.1z M18.8,6.6c-0.7,0.7-1.4,1.4-2.2,2.1c-1.6,1.4-3.1,2.7-4.6,3.8
			c1.1-1.1,2.3-2.2,3.6-3.4C16.7,8.2,17.8,7.4,18.8,6.6z M9.3,14.3c1.4-1.7,3.1-3.5,5.1-5.3c0.9-0.8,1.8-1.5,2.6-2.2
			c-1,1-1.9,1.9-2.9,2.9C12.6,11.3,10.9,12.8,9.3,14.3z M9.7,16c1.6-1.5,3.2-3.1,5-4.7c1.4-1.3,2.8-2.4,4.2-3.5
			c-1.1,1.1-2.3,2.1-3.4,3.2C13.5,12.7,11.6,14.4,9.7,16z M10,17c1.1-1.3,2.5-2.7,4.1-4.1c1.4-1.2,2.7-2.2,4-3
			c-1.1,1-2.2,1.9-3.3,2.9C13.2,14.2,11.6,15.6,10,17z M18,11.3c-1.2,1.1-2.4,2.1-3.6,3c0.2-0.2,0.4-0.4,0.6-0.6
			c0.8-0.7,1.5-1.4,2.2-2.1c-0.1,0.1-0.2,0.1-0.3,0.2c-0.1,0-0.1,0.1-0.2,0.2c-1.3,1.1-2.4,2.2-3.5,3.3c-0.9,0.8-1.8,1.5-2.7,2.1
			c1.1-1.1,2.3-2.2,3.6-3.4c1-0.9,2-1.7,2.9-2.4c1-0.9,2.1-1.7,3-2.5C19.5,9.8,18.8,10.5,18,11.3z"/>
	</defs>
	<clipPath id="SVGID_2_">
		<use xlink:href="#SVGID_1_"  style="overflow:visible;"/>
	</clipPath>
	<path class="st0" d="M9.8,3.8V4H10c0.5,0,0.7,0.1,0.8,0.3l1.6,2.5L11,9c-0.1,0.2-0.4,0.6-1.3,0.6v0.3l1,0c0.3,0,0.8,0,1.1,0V9.6
		c-0.4,0-0.6-0.3-0.6-0.4c0-0.1,0-0.1,0.1-0.2l1.3-1.9l1.4,2.1c0,0,0.1,0.1,0.1,0.1c0,0.1-0.2,0.3-0.6,0.3v0.3c0.3,0,1,0,1.3,0
		l1.2,0V9.6h-0.2c-0.5,0-0.7-0.1-0.9-0.3l-1.9-2.9l1.2-1.8C14.5,4.3,14.8,4,15.6,4V3.8l-1,0c-0.4,0-0.8,0-1.1,0V4
		C13.8,4,14,4.2,14,4.4c0,0.1,0,0.1-0.1,0.2l-1,1.5l-1.1-1.7c0,0-0.1-0.1-0.1-0.1c0-0.1,0.2-0.3,0.6-0.3V3.8c-0.3,0-1,0-1.3,0
		L9.8,3.8z"/>
	<path class="st0" d="M0.2,3.8L0,5.8h0.2C0.3,4.3,0.5,4,1.8,4C2,4,2.2,4,2.3,4c0.2,0,0.2,0.1,0.2,0.3v4.8c0,0.3,0,0.5-0.9,0.4H1.2
		v0.3c0.4,0,1.3,0,1.7,0c0.4,0,1.3,0,1.7,0V9.6H4.2c-0.9,0-0.9-0.1-0.9-0.4V4.4c0-0.2,0-0.3,0.1-0.3C3.6,4,3.8,4,4,4
		c1.4,0,1.5,0.3,1.6,1.7h0.2l-0.2-2L0.2,3.8z"/>
	<path class="st0" d="M5,6.1v0.3h0.2c0.7,0,0.7,0.1,0.7,0.4v4.7c0,0.3,0,0.4-0.7,0.4H5v0.3h5.2l0.4-2.3h-0.2c-0.2,1.4-0.4,2-2,2H7.1
		c-0.4,0-0.4-0.1-0.4-0.4V9.2h0.8c0.9,0,1,0.3,1,1.1h0.2V7.9H8.5c0,0.8-0.1,1.1-1,1.1H6.7V6.7c0-0.3,0-0.4,0.4-0.4h1.1
		c1.4,0,1.6,0.5,1.8,1.7h0.2l-0.3-2H5z"/>
</g>
</svg>
