<?xml version="1.0" encoding="utf-8"?>
<!-- Generator: Adobe Illustrator 23.0.0, SVG Export Plug-In . SVG Version: 6.00 Build 0)  -->
<svg version="1.1" id="Layer_1" xmlns="http://www.w3.org/2000/svg" xmlns:xlink="http://www.w3.org/1999/xlink" x="0px" y="0px"
	 viewBox="0 0 16 16" style="enable-background:new 0 0 16 16;" xml:space="preserve">
<style type="text/css">
	.st0{clip-path:url(#SVGID_2_);fill:#F75049;}
</style>
<g>
	<defs>
		<path id="SVGID_1_" d="M22.1,6.4c-0.1-0.1-0.3,0-0.6-0.2c-0.2-0.2-0.2-0.3-0.3-0.4C20.9,5.5,20,6.2,20,6.2c0,0,0.4-0.3,0.7-0.7
			c0.2-0.2,0.6-0.7,0.5-1c-0.1-0.2-0.3-0.2-0.3-0.3c0-0.3,0.5-0.4,0.4-0.7c0-0.2-0.2-0.3-0.3-0.3c-0.3-0.1-0.8,0.2-0.8,0.2
			c0,0,0.3-0.2,0.4-0.5c0-0.1,0.2-0.3,0.1-0.5c-0.1-0.1-0.3-0.1-0.4-0.1c-0.1,0-0.2,0.1-0.2,0c0,0,0-0.1,0-0.2
			c0-0.2-0.3-0.3-0.6-0.3c-0.5,0-0.9,0.5-1,0.4c-0.1-0.1,0.5-0.5,0.4-0.9c0-0.1-0.2-0.3-0.4-0.3c-0.3,0-0.4,0.3-0.5,0.3
			c-0.1-0.1,0.1-0.7-0.1-0.9c-0.1-0.1-0.3,0.1-0.6,0c-0.2-0.1-0.2-0.1-0.3-0.2c-0.3-0.1-0.8,0.4-1.3,0.9c-0.2,0.2-0.6,0.5-1.1,0.8
			c0.3-0.3,0.5-0.6,0.7-0.7c0.4-0.4,0.6-0.6,0.6-0.9c0-0.1,0-0.4-0.2-0.4c-0.2-0.1-0.4,0.2-1.1,0.6c-0.2,0.1-0.3,0.2-0.4,0.3
			c0,0,0.3-0.4,0.2-0.7c0,0-0.1-0.2-0.2-0.3c-0.4-0.3-1.1-0.2-1.2-0.2c-0.9,0.2-1.1,0.8-2.1,1.3c0,0-0.1,0.1-0.3,0.2
			C10.2,1.4,10,1.6,9.9,1.6C9.7,1.8,9.5,1.9,9.3,2.2C9.2,2.4,9.3,2.6,9.1,2.8C9,2.9,8.8,3,8.8,3C8.2,3.1,7.5,4.2,7.4,4.3
			C7,4.8,5.6,6.2,2.1,9.4c4.7-5,6.2-6.6,6.2-6.7c0,0,0,0,0,0c0-0.1,0.2-0.4,0-0.6C8.3,2,8.2,2,8.1,1.9c0,0,0-0.1,0-0.1
			c0-0.2,0.4-0.2,0.4-0.3c0,0-0.1-0.1-0.2-0.1C8,1.2,8,1.2,7.9,1.1C7.6,1.1,7.4,1.2,7.2,1.3C7,1.4,6.9,1.5,6.8,1.5c0,0,0-0.2,0-0.3
			C6.7,1.1,6.6,1.1,6.5,1.1C6.2,1.2,6,1.4,5.9,1.4c-0.1,0,0-0.2-0.1-0.3C5.7,0.9,5.6,1,5.4,0.9C5.3,0.7,5.3,0.6,5.1,0.3
			C5.1,0.2,5,0.1,4.7,0C4.5-0.1,4.5,0,4.2-0.1C4-0.2,4-0.3,3.7-0.3c-0.2,0-0.3,0-0.4,0.1C3-0.1,3,0,2.9,0c-0.2,0-0.2-0.2-0.5-0.2
			c-0.1,0-0.2,0-0.3,0C1.9-0.1,2.1,0.2,2,0.3c-0.1,0.1-0.2,0.1-0.3,0C1.6,0.3,1.6,0.2,1.6,0.1C1.4-0.1,0.4,0.2,0.1,0.7
			C0.1,0.8,0,1-0.1,1c-0.2,0.1-0.3,0-0.5,0C-0.8,1-1,1.3-1.6,2c0,0-0.1,0.1-0.6,0.6c-0.9,1-1,1.1-1.1,1.4c0,0.5,0,0.7,0,0.7
			c0,0.1,0.1,0.3,0,0.4c-0.1,0.1-0.1,0-0.2,0.1c-0.1,0.1,0.1,0.4,0,0.8c0,0,0,0,0,0.3c-0.1,0.5-0.1,0.6,0,0.7C-3.3,7-3.2,7-3.1,7
			C-3,7-2.8,7-2.8,6.9C-2.4,6.5-2,6-1.6,5.6C-1.8,5.9-2,6.1-2.1,6.3C-2.2,6.5-2.4,6.7-2.6,7c0,0.1-0.1,0.2-0.2,0.4
			c-0.1,0.2-0.2,0.5-0.1,0.8c0,0.1,0.1,0.2,0.1,0.3c0,0.2,0,0.3,0,0.4c0,0.1,0.1,0.1,0.2,0.1c0.1,0.1,0,0.3,0,0.6
			c0,0.2,0.1,0.1,0.1,0.3c0.1,0.3-0.1,0.4,0,0.7c0,0.1,0,0.2,0.1,0.3c0.1,0.1,0.4-0.1,0.6,0c0.2,0.1,0.1,0.3,0.3,0.4
			c0.1,0,0.2-0.1,0.4,0c0,0,0.3,0,0.3,0.1c0,0.1-0.1,0.3-0.3,0.4c-0.4,0.2-0.8-0.1-0.9,0c0,0.1,0.1,0.2,0.2,0.3c1,0.9,1,1,1.3,1.2
			c0.3,0.2,0.3,0.1,0.7,0.3c0.5,0.3,1.1,0.6,1.1,1c0,0.2-0.2,0.3-0.1,0.6c0,0.2,0.1,0.5,0.3,0.6c0.2,0.1,0.3-0.1,0.6-0.1
			c0.3,0,0.3,0.2,0.6,0.3c0.4,0,0.5-0.4,0.8-0.4c0.2,0,0.2,0.2,0.4,0.3c0.2,0.1,0.4,0,0.5,0c1-1.1,2.6-2.7,4.6-4.8
			c1.6-1.7,2.1-2.2,3-3.1c2.6-2.5,5.4-4.5,5.5-4.3c0.1,0.1-1.2,1.3-5.5,5.4c-3,2.8-5.4,5.2-7.1,6.8c0,0.3,0.1,0.5,0.2,0.5
			c0.2,0.1,0.5-0.2,0.8,0c0.1,0.1,0.3,0.2,0.3,0.4c0,0.2,0,0.3,0.1,0.4c0.1,0.1,0.1,0,0.2,0.1c0.2,0.2,0.1,0.3,0.3,0.5
			c0.2,0.1,0.4,0,0.4,0.2c0,0.1,0,0.1,0,0.3c0,0.1,0.2,0.1,0.2,0.3c0,0.2-0.3,0.3-0.3,0.6c0,0.2,0.1,0.2,0.1,0.5
			c0,0.5-0.6,0.6-0.5,0.9c0,0.2,0.2,0.4,0.4,0.5c0.3,0,0.5-0.4,0.8-0.4C8.4,20.4,8.6,21,9,21c0.3,0,0.3-0.4,0.6-0.4
			c0.2,0,0.3,0.1,0.4,0c0.1-0.1,0.1-0.2,0.3-0.3c0.1,0,0.1,0,0.2,0c0.2,0,0.6-0.4,0.7-0.8c0.1-0.4,0-0.5,0.2-0.8
			c0.1-0.2,0.3-0.3,0.4-0.4c0.5-0.4,1.2-1,1.8-1.6c0.8-0.8,0.9-1.1,1.5-1.4c0.1,0,0.3-0.1,0.5-0.3c0.3-0.3,0.4-0.6,0.6-0.8
			c0.4-0.8,0.8-0.8,1.7-2c0-0.1,0.2-0.3,0.2-0.4c-0.1-0.1-1.2,1.1-1.4,1c-0.1-0.1-0.1-0.2-0.1-0.2c0.1-0.6,0.8-0.8,1.9-1.7
			c0.3-0.2,0.2-0.2,0.5-0.5c0.8-0.7,1.7-1.3,2-1.7c0.1-0.3,0.2-0.6,0.2-0.6c0-0.1,0-0.1,0.1-0.2c0.1-0.3,0.2-0.4,0.7-0.9
			C22.1,6.6,22.2,6.5,22.1,6.4z M5.2,5.6C4.9,6,4.5,6.3,4.2,6.5C4.4,6.2,4.6,5.9,5,5.5c0.1-0.1,0.3-0.2,0.4-0.3
			C5.4,5.3,5.3,5.5,5.2,5.6z M4.9,4.4c0.5-0.5,1-1,1.4-1.4C6,3.5,5.6,4,5.1,4.5C4.8,4.8,4.5,5.1,4.2,5.3C4.4,5,4.7,4.7,4.9,4.4z
			 M-0.6,4.3c0.1-0.2,0.2-0.4,0.4-0.6C-0.1,3.6,0,3.6,0.1,3.5C0,3.6,0,3.7-0.1,3.8C-0.3,4-0.5,4.2-0.6,4.3z M0.2,12.5
			C0.1,12.6,0,12.7,0,12.7c0,0,0-0.2,0.1-0.3c0.1-0.1,0.3-0.2,0.3-0.2C0.4,12.2,0.3,12.4,0.2,12.5z M-0.1,7.8c0.3-0.4,0.7-0.8,1-1.2
			c0,0.1,0,0.2,0,0.3C0.6,7.2,0.2,7.5-0.1,7.8z M1.6,13.9c0,0-0.2-0.2-0.5-0.6C1,13.2,0.9,13.1,1,13c0-0.1,0.1-0.1,0.2-0.2
			c0.1-0.1,0.3-0.2,0.4-0.5c0,0.2-0.1,0.3-0.1,0.4c0,0.1-0.1,0.2-0.1,0.3c0,0.1,0.1,0,0.1,0.1c0.1,0.1,0,0.2,0,0.3
			C1.5,13.7,1.7,13.8,1.6,13.9z M1.5,2.6C1.6,2.4,1.8,2.1,2,1.9c0.1-0.1,0.2-0.2,0.2-0.2c0,0.1-0.1,0.2-0.2,0.3
			C1.9,2.2,1.7,2.4,1.5,2.6z M4.4,9.2c1-1.3,2.3-2.8,3.8-4.2c1.1-1.1,2.2-2,3.2-2.8c-0.7,0.7-1.5,1.4-2.2,2.2
			C7.5,5.9,5.9,7.6,4.4,9.2z M9.3,4.9c0.8-0.8,1.6-1.5,2.4-2c-0.4,0.5-0.9,1-1.4,1.6C9.1,5.7,8,6.8,6.9,7.8C7.5,7,8.3,6,9.3,4.9z
			 M11.1,6.7c1.1-0.9,2.2-1.8,3.2-2.6c-0.7,0.7-1.4,1.4-2.2,2.1C10.5,7.7,9,9,7.5,10.1C8.6,9,9.8,7.9,11.1,6.7z M12.8,6.8
			c-1.6,1.4-3.1,2.7-4.6,3.8c1.1-1.1,2.3-2.2,3.6-3.4C12.9,6.4,14,5.5,15,4.7C14.3,5.4,13.6,6.1,12.8,6.8z M18.6,5.3
			c-0.7,0.7-1.4,1.4-2.2,2.1c-1.6,1.4-3.1,2.7-4.6,3.8c1.1-1.1,2.3-2.2,3.6-3.4C16.4,7,17.5,6.1,18.6,5.3z M9.1,13.1
			c1.4-1.7,3.1-3.5,5.1-5.3C15.1,7,16,6.2,16.8,5.6c-1,1-1.9,1.9-2.9,2.9C12.3,10,10.7,11.5,9.1,13.1z M9.5,14.7
			c1.6-1.5,3.2-3.1,5-4.7c1.4-1.3,2.8-2.4,4.2-3.5c-1.1,1.1-2.3,2.1-3.4,3.2C13.3,11.4,11.4,13.1,9.5,14.7z M9.7,15.7
			c1.1-1.3,2.5-2.7,4.1-4.1c1.4-1.2,2.7-2.2,4-3c-1.1,1-2.2,1.9-3.3,2.9C12.9,12.9,11.3,14.3,9.7,15.7z M17.8,10
			c-1.2,1.1-2.4,2.1-3.6,3c0.2-0.2,0.4-0.4,0.6-0.6c0.8-0.7,1.5-1.4,2.2-2.1c-0.1,0.1-0.2,0.1-0.3,0.2c-0.1,0-0.1,0.1-0.2,0.2
			c-1.3,1.1-2.4,2.2-3.5,3.3c-0.9,0.8-1.8,1.5-2.7,2.1c1.1-1.1,2.3-2.2,3.6-3.4c1-0.9,2-1.7,2.9-2.4c1-0.9,2.1-1.7,3-2.5
			C19.3,8.6,18.6,9.3,17.8,10z"/>
	</defs>
	<clipPath id="SVGID_2_">
		<use xlink:href="#SVGID_1_"  style="overflow:visible;"/>
	</clipPath>
	<path class="st0" d="M7.5,16C7.5,16,7.6,16,7.5,16c0.1,0,0.1-0.1,0-0.1c0,0,0-0.1,0-0.1c0,0,0,0,0.1,0c0.1,0,0.1,0,0.2,0
		c0.1,0,0.1-0.1,0-0.2c0-0.1-0.1-0.1-0.2-0.2c-0.1-0.1-0.2-0.2-0.3-0.2c-0.1,0-0.1,0-0.1-0.1c0,0,0,0,0-0.1c0-0.1-0.1-0.2-0.1-0.4
		c0-0.3,0-0.4,0-1.2l0-0.8l0-0.1c0.1-0.1,0.1-0.3,0.2-0.3c0-0.1,0-0.2,0.1-0.4c0-0.4,0.1-0.5,0.4-1.3c0.3-0.6,0.4-1,0.5-1.3
		c0.1-0.3,0.2-0.4,0.3-0.5c0,0,0.1,0,0.1,0c0,0,0.1,0.1,0.1,0.1C8.9,8.9,9,9.1,9,9.2c0.1,0.3,0.2,0.6,0.3,1c0.1,0.5,0.2,0.7,0.3,1
		c0.1,0.2,0.1,0.3,0.1,0.5c0,0.2,0.1,0.4,0.2,0.6c0,0.1,0.1,0.1,0.1,0.1c0.1,0.1,0.1,0.1,0.1,0.2c0,0,0.1,0.2,0.1,0.4
		c0.1,0.5,0.2,0.8,0.3,1.2c0.1,0.2,0.1,0.4,0.1,0.5c0,0.1,0,0.2,0,0.3c0,0.1,0,0.2,0,0.3c0,0.1,0.1,0.2,0.3,0.3c0.1,0,0.2,0,0.5,0
		c0.3,0,0.4,0,0.5,0c0,0,0.1,0,0.1-0.1c0,0,0,0,0-0.1c0-0.1,0-0.1,0.1-0.1c0,0,0.1,0,0.1,0c0.1-0.1,0.1-0.2,0-0.3
		c-0.1,0-0.1-0.1-0.4-0.1c-0.2,0-0.3,0-0.4-0.1c-0.1,0-0.1-0.1-0.1-0.1c0,0,0-0.1,0-0.1c0,0,0-0.1,0-0.1c0-0.1-0.1-0.3-0.2-0.5
		c-0.2-0.3-0.2-0.4-0.3-0.7c0-0.1-0.1-0.3-0.1-0.5c0-0.2-0.1-0.3-0.1-0.4c0-0.1,0-0.2,0-0.4c0-0.2,0-0.4,0-0.5c0,0,0-0.1,0-0.2
		c0-0.2-0.1-0.2-0.1-0.4c0-0.2,0-0.4,0.1-0.9c0.1-0.5,0.1-0.7,0.1-1c0-0.1,0-0.2,0-0.2c0,0,0.2-0.1,0.4-0.1c0.2-0.1,0.4-0.1,0.4-0.2
		c0.5-0.2,0.7-0.3,0.9-0.5c0.5-0.5,0.8-1.1,1.1-2.4c0.2-0.6,0.2-1,0.3-1.4c0-0.1,0-0.3,0-0.6c0-0.4,0-0.5,0.2-0.8
		c0.1-0.1,0.2-0.3,0.2-0.4c0,0,0-0.1,0-0.1c0,0,0-0.1,0-0.1c0,0,0.2-0.1,0.3-0.2C14.7,2.1,14.9,2,15,2c0,0,0.1,0,0.1-0.1
		c0,0,0.1,0,0.1,0c0,0,0,0,0.1,0c0,0,0.1,0,0.1,0.1c0.1,0,0.1,0,0.2,0c0.1,0,0.2,0,0.3-0.1c0.1,0,0.1-0.1,0.1-0.2
		c0-0.1,0-0.1-0.1-0.2c0,0,0,0,0-0.1C16,1.4,16,1.4,16,1.3c0-0.1,0-0.1-0.1-0.2c-0.1-0.1-0.2-0.2-0.2-0.3c-0.1-0.2-0.1-0.2-0.2-0.3
		c-0.1,0-0.2,0-0.7,0c-0.5,0-0.7,0-0.8-0.1c-0.1,0-0.2-0.1-0.3-0.2c-0.1-0.1-0.1-0.1-0.3-0.1c-0.2,0-0.3,0-0.4,0c-0.1,0-0.2,0-0.2,0
		c0,0-0.1,0-0.1,0c0,0-0.1,0-0.1,0c-0.1,0-0.2,0-0.3,0C12,0.1,12,0.2,11.9,0.4c0,0.1-0.1,0.2-0.2,0.3c-0.2,0.3-0.2,0.5-0.2,0.7
		c0,0.2,0,0.3,0.1,0.5c0.1,0.1,0.1,0.1,0.1,0.5c0,0.2,0,0.4,0,0.5c0,0.4-0.1,0.7-0.1,0.9c0,0.2-0.1,0.3-0.1,0.4
		c-0.1,0.1-0.2,0.1-0.5,0.1c-0.2,0-0.4,0-0.5-0.1C10.2,4.2,10,4,9.8,3.7C9.7,3.6,9.6,3.5,9.5,3.2C9.1,2.6,8.9,2.4,8.5,2
		C8.3,1.9,8.2,1.7,8.1,1.4C8,1.1,7.8,0.8,7.6,0.7c-0.3-0.2-0.5-0.3-1-0.3c-0.2,0-0.3,0-0.4,0C6,0.4,5.9,0.6,5.8,0.7
		c0,0.1-0.1,0.2-0.1,0.5C5.6,1.6,5.5,1.8,5.4,1.9C5.4,2,5.3,2.1,5.2,2.2C5.1,2.3,5.1,2.3,5,2.3c-0.1,0-0.1-0.1-0.3-0.5
		C4.5,1.5,4.5,1.4,4.4,1.2C4.2,1,4.1,0.9,4,0.9c0,0-0.1,0-0.2,0c-0.2,0-0.2,0-0.3,0.1C3.1,1.1,2.8,1.3,2.7,1.5c0,0.1-0.2,0.7-0.3,1
		C2.3,2.8,2.3,2.8,2.2,2.9C2.2,3.1,2.1,3.1,2,3.3C1.9,3.4,1.8,3.4,1.8,3.5C1.6,3.7,1.5,3.9,1.3,4.3C1.1,4.9,1,5.2,0.9,5.5
		c0,0.2,0,0.5,0,0.9C1,6.7,1,6.9,1,7c0,0.1-0.1,0.2-0.1,0.2C0.8,7.3,0.8,7.3,0.5,7.5C0.4,7.5,0.3,7.6,0.3,7.6C0.1,7.8,0,8,0,8.1
		c0,0.1,0,0.1,0,0.1c0,0,0.3-0.1,0.6-0.3C0.8,7.8,0.9,7.8,1,7.7c0.1-0.1,0.2-0.1,0.2-0.1c0,0,0,0,0,0c0,0.1,0.2,0.7,0.3,1.4
		c0.1,0.6,0.1,0.8,0.1,1.1c0,0.3,0,0.5-0.1,0.7c0,0.2,0,0.2,0,0.5c0,0.2,0,0.3,0.1,0.9c0,0.5,0.1,0.8,0,1.1c0,0.4-0.1,1.2-0.1,1.6
		c0,0.2,0,0.3-0.1,0.4c-0.1,0.1-0.1,0.2-0.1,0.3c0,0.1,0,0.2,0.1,0.2c0.1,0.1,0.2,0.1,0.5,0.1c0.4,0,0.5,0,0.4-0.1c0,0,0-0.1,0-0.1
		c0,0,0,0,0.1,0c0.1,0,0.1,0,0.2,0c0,0,0,0,0,0c0,0,0,0,0-0.1c0,0,0-0.1,0-0.1c0-0.1-0.1-0.1-0.2-0.2c-0.2-0.2-0.4-0.4-0.4-0.5
		c0-0.2,0-0.9,0-1.6c0-0.4,0-0.6,0-0.8c0-0.3,0-0.3,0.1-0.4c0-0.1,0.1-0.2,0.1-0.3c0-0.2,0-0.2,0-0.3c0-0.1,0-0.2-0.1-0.3
		c0-0.1,0-0.1,0-0.2c0-0.3,0.1-0.5,0.1-0.7c0.1-0.2,0.1-0.3,0.2-0.5C2.9,9.2,2.9,9.1,3,9c0-0.2,0-0.6,0-0.8c0,0,0-0.1,0-0.1
		C3,8,3,8,3,8C3,7.9,3,7.9,3.1,7.9c0.1,0,0.1,0,0.1,0C3.3,8,3.3,8.1,3.4,8.3c0.1,0.3,0.2,0.7,0.3,1c0.3,0.9,0.4,1.2,0.5,1.8
		c0.1,0.5,0.1,0.7,0.3,1c0,0.1,0.2,0.5,0.3,0.7c0.2,0.4,0.4,0.8,0.5,1.2c0.1,0.3,0.1,0.4,0.2,0.6c0,0.1,0,0.1,0.1,0.1
		c0.1,0.1,0.1,0.1,0.1,0.1c0,0,0,0,0,0.1c0,0.1,0,0.1,0,0.2c0,0,0.1,0.1,0.2,0.1c0.1,0,0.2,0,0.4,0c0.1,0,0.3,0,0.3,0
		c0,0,0,0-0.1,0.1c-0.1,0.1-0.1,0.1-0.1,0.2c0,0,0,0.1,0.1,0.2C6.6,15.9,6.7,16,7,16C7.1,16,7.4,16,7.5,16L7.5,16z"/>
	<path class="st0" d="M6.5,14.7c-0.1,0-0.1-0.1-0.3-0.2c-0.1-0.1-0.2-0.2-0.3-0.3c-0.2-0.3-0.3-0.6-0.5-1.3
		c-0.2-0.6-0.2-0.9-0.3-1.3c0-0.2,0-0.6,0-0.9c0-0.2,0-0.6,0-0.7c0,0,0-0.1,0-0.2c0-0.3,0-0.8,0-0.9c0,0,0,0,0,0c0,0,0.1,0,0.2,0.1
		C5.7,9,5.8,9.1,6,9.1c0.2,0,0.4,0,0.5-0.1c0,0,0.1,0,0.1,0c0,0,0,0.1,0,0.5c0,0.5,0,0.6,0.1,1c0,0.3,0,0.4,0,0.6c0,0.2,0,0.2,0,0.4
		c0,0.2,0,0.3,0,0.4c0,0.2,0,0.4,0.1,0.6c0.1,0.6,0.1,1,0.1,1.6C6.7,14.3,6.6,14.7,6.5,14.7C6.5,14.7,6.5,14.7,6.5,14.7L6.5,14.7z"
		/>
</g>
</svg>
