<?xml version="1.0" encoding="utf-8"?>
<!-- Generator: Adobe Illustrator 23.0.0, SVG Export Plug-In . SVG Version: 6.00 Build 0)  -->
<svg version="1.1" id="Layer_1" xmlns="http://www.w3.org/2000/svg" xmlns:xlink="http://www.w3.org/1999/xlink" x="0px" y="0px"
	 viewBox="0 0 16 16" style="enable-background:new 0 0 16 16;" xml:space="preserve">
<style type="text/css">
	.st0{clip-path:url(#SVGID_2_);}
	.st1{fill:#F75049;}
</style>
<g>
	<defs>
		<path id="SVGID_1_" d="M21.4,5c-0.1-0.1-0.3,0-0.6-0.2c-0.2-0.2-0.2-0.3-0.3-0.4c-0.4-0.2-1.3,0.5-1.3,0.5c0,0,0.4-0.3,0.7-0.7
			c0.2-0.2,0.6-0.7,0.5-1c-0.1-0.2-0.3-0.2-0.3-0.3c0-0.3,0.5-0.4,0.4-0.7c0-0.2-0.2-0.3-0.3-0.3c-0.3-0.1-0.8,0.2-0.8,0.2
			c0,0,0.3-0.2,0.4-0.5c0-0.1,0.2-0.3,0.1-0.5c-0.1-0.1-0.3-0.1-0.4-0.1c-0.1,0-0.2,0.1-0.2,0c0,0,0-0.1,0-0.2
			c0-0.2-0.3-0.3-0.6-0.3c-0.5,0-0.9,0.5-1,0.4c-0.1-0.1,0.5-0.5,0.4-0.9c0-0.1-0.2-0.3-0.4-0.3c-0.3,0-0.4,0.3-0.5,0.3
			c-0.1-0.1,0.1-0.7-0.1-0.9c-0.1-0.1-0.3,0.1-0.6,0c-0.2-0.1-0.2-0.1-0.3-0.2C16-1.2,15.6-0.6,15-0.2c-0.2,0.2-0.6,0.5-1.1,0.8
			c0.3-0.3,0.5-0.6,0.7-0.7c0.4-0.4,0.6-0.6,0.6-0.9c0-0.1,0-0.4-0.2-0.4c-0.2-0.1-0.4,0.2-1.1,0.6c-0.2,0.1-0.3,0.2-0.4,0.3
			c0,0,0.3-0.4,0.2-0.7c0,0-0.1-0.2-0.2-0.3c-0.4-0.3-1.1-0.2-1.2-0.2c-0.9,0.2-1.1,0.8-2.1,1.3c0,0-0.1,0.1-0.3,0.2
			C9.4,0,9.2,0.1,9.2,0.2C8.9,0.4,8.7,0.5,8.6,0.8C8.5,1,8.5,1.2,8.4,1.4C8.2,1.5,8.1,1.5,8,1.5C7.4,1.7,6.7,2.7,6.6,2.9
			C6.2,3.4,4.9,4.8,1.4,7.9c4.7-5,6.2-6.6,6.2-6.7c0,0,0,0,0,0c0-0.1,0.2-0.4,0-0.6c-0.1-0.1-0.2,0-0.3-0.1c0,0,0-0.1,0-0.1
			c0-0.2,0.4-0.2,0.4-0.3c0,0-0.1-0.1-0.2-0.1C7.3-0.2,7.3-0.3,7.1-0.3C6.9-0.4,6.6-0.2,6.5-0.1C6.3,0,6.1,0.1,6.1,0.1
			c0,0,0-0.2,0-0.3C6-0.3,5.8-0.3,5.8-0.3C5.4-0.3,5.2,0,5.1-0.1c-0.1,0,0-0.2-0.1-0.3C5-0.5,4.8-0.5,4.7-0.6
			C4.5-0.7,4.6-0.8,4.4-1.1C4.3-1.2,4.2-1.4,4-1.4c-0.2-0.1-0.3,0-0.5-0.1C3.2-1.6,3.2-1.7,3-1.8c-0.2,0-0.3,0-0.4,0.1
			C2.3-1.5,2.3-1.4,2.1-1.4c-0.2,0-0.2-0.2-0.5-0.2c-0.1,0-0.2,0-0.3,0c-0.1,0.1,0,0.4-0.1,0.5C1.1-1.1,1-1.1,0.9-1.1
			C0.8-1.2,0.9-1.3,0.8-1.3C0.6-1.5-0.3-1.3-0.6-0.7c0,0.1-0.1,0.2-0.2,0.3c-0.2,0.1-0.3,0-0.5,0c-0.3,0-0.5,0.2-1.1,1
			c0,0-0.1,0.1-0.6,0.6c-0.9,1-1,1.1-1.1,1.4c0,0.5,0,0.7,0,0.7c0,0.1,0.1,0.3,0,0.4C-4,3.8-4,3.7-4.1,3.8c-0.1,0.1,0.1,0.4,0,0.8
			c0,0,0,0,0,0.3c-0.1,0.5-0.1,0.6,0,0.7C-4.1,5.6-4,5.6-3.9,5.6c0.2,0,0.3-0.1,0.4-0.1C-3.2,5-2.8,4.6-2.4,4.1
			c-0.2,0.3-0.3,0.6-0.4,0.7C-3,5.1-3.2,5.3-3.3,5.6c0,0.1-0.1,0.2-0.2,0.4c-0.1,0.2-0.2,0.5-0.1,0.8c0,0.1,0.1,0.2,0.1,0.3
			c0,0.2,0,0.3,0,0.4c0,0.1,0.1,0.1,0.2,0.1c0.1,0.1,0,0.3,0,0.6c0,0.2,0.1,0.1,0.1,0.3c0.1,0.3-0.1,0.4,0,0.7c0,0.1,0,0.2,0.1,0.3
			c0.1,0.1,0.4-0.1,0.6,0c0.2,0.1,0.1,0.3,0.3,0.4c0.1,0,0.2-0.1,0.4,0c0,0,0.3,0,0.3,0.1c0,0.1-0.1,0.3-0.3,0.4
			c-0.4,0.2-0.8-0.1-0.9,0c0,0.1,0.1,0.2,0.2,0.3c1,0.9,1,1,1.3,1.2c0.3,0.2,0.3,0.1,0.7,0.3c0.5,0.3,1.1,0.6,1.1,1
			c0,0.2-0.2,0.3-0.1,0.6c0,0.2,0.1,0.5,0.3,0.6c0.2,0.1,0.3-0.1,0.6-0.1c0.3,0,0.3,0.2,0.6,0.3c0.4,0,0.5-0.4,0.8-0.4
			c0.2,0,0.2,0.2,0.4,0.3c0.2,0.1,0.4,0,0.5,0c1-1.1,2.6-2.7,4.6-4.8c1.6-1.7,2.1-2.2,3-3.1C14.1,4,16.9,2.1,17,2.2
			c0.1,0.1-1.2,1.3-5.5,5.4c-3,2.8-5.4,5.2-7.1,6.8c0,0.3,0.1,0.5,0.2,0.5c0.2,0.1,0.5-0.2,0.8,0c0.1,0.1,0.3,0.2,0.3,0.4
			c0,0.2,0,0.3,0.1,0.4c0.1,0.1,0.1,0,0.2,0.1c0.2,0.2,0.1,0.3,0.3,0.5c0.2,0.1,0.4,0,0.4,0.2c0,0.1,0,0.1,0,0.3
			c0,0.1,0.2,0.1,0.2,0.3c0,0.2-0.3,0.3-0.3,0.6c0,0.2,0.1,0.2,0.1,0.5c0,0.5-0.6,0.6-0.5,0.9c0,0.2,0.2,0.4,0.4,0.5
			c0.3,0,0.5-0.4,0.8-0.4c0.4,0,0.6,0.6,0.9,0.5c0.3,0,0.3-0.4,0.6-0.4c0.2,0,0.3,0.1,0.4,0c0.1-0.1,0.1-0.2,0.3-0.3
			c0.1,0,0.1,0,0.2,0c0.2,0,0.6-0.4,0.7-0.8c0.1-0.4,0-0.5,0.2-0.8c0.1-0.2,0.3-0.3,0.4-0.4c0.5-0.4,1.2-1,1.8-1.6
			c0.8-0.8,0.9-1.1,1.5-1.4c0.1,0,0.3-0.1,0.5-0.3c0.3-0.3,0.4-0.6,0.6-0.8c0.4-0.8,0.8-0.8,1.7-2c0-0.1,0.2-0.3,0.2-0.4
			c-0.1-0.1-1.2,1.1-1.4,1c-0.1-0.1-0.1-0.2-0.1-0.2c0.1-0.6,0.8-0.8,1.9-1.7C17.7,9.3,17.6,9.3,18,9c0.8-0.7,1.7-1.3,2-1.7
			c0.1-0.3,0.2-0.6,0.2-0.6c0-0.1,0-0.1,0.1-0.2c0.1-0.3,0.2-0.4,0.7-0.9C21.4,5.2,21.4,5,21.4,5z M4.4,4.2C4.1,4.6,3.8,4.8,3.5,5.1
			c0.2-0.3,0.4-0.6,0.8-0.9C4.4,4,4.6,3.9,4.7,3.8C4.6,3.9,4.5,4,4.4,4.2z M4.2,3c0.5-0.5,1-1,1.4-1.4C5.2,2,4.8,2.5,4.3,3
			C4,3.4,3.7,3.7,3.4,3.9C3.6,3.6,3.9,3.3,4.2,3z M-1.4,2.9c0.1-0.2,0.2-0.4,0.4-0.6c0.1-0.1,0.2-0.2,0.2-0.2c0,0.1-0.1,0.2-0.2,0.3
			C-1,2.6-1.2,2.8-1.4,2.9z M-0.5,11.1c-0.1,0.1-0.2,0.2-0.3,0.2c0,0,0-0.2,0.1-0.3c0.1-0.1,0.3-0.2,0.3-0.2
			C-0.4,10.8-0.4,10.9-0.5,11.1z M-0.9,6.4c0.3-0.4,0.7-0.8,1-1.2c0,0.1,0,0.2,0,0.3C-0.2,5.8-0.5,6.1-0.9,6.4z M0.9,12.4
			c0,0-0.2-0.2-0.5-0.6c-0.1-0.1-0.2-0.2-0.2-0.3c0-0.1,0.1-0.1,0.2-0.2c0.1-0.1,0.3-0.2,0.4-0.5c0,0.2-0.1,0.3-0.1,0.4
			c0,0.1-0.1,0.2-0.1,0.3c0,0.1,0.1,0,0.1,0.1c0.1,0.1,0,0.2,0,0.3C0.8,12.2,0.9,12.4,0.9,12.4z M0.8,1.1C0.9,1,1,0.7,1.2,0.5
			c0.1-0.1,0.2-0.2,0.2-0.2c0,0.1-0.1,0.2-0.2,0.3C1.1,0.8,0.9,1,0.8,1.1z M3.6,7.7c1-1.3,2.3-2.8,3.8-4.2c1.1-1.1,2.2-2,3.2-2.8
			C9.9,1.4,9.1,2.1,8.4,2.9C6.7,4.5,5.1,6.1,3.6,7.7z M8.5,3.5c0.8-0.8,1.6-1.5,2.4-2C10.4,2,10,2.5,9.5,3C8.4,4.3,7.2,5.4,6.1,6.4
			C6.7,5.5,7.5,4.5,8.5,3.5z M10.3,5.3c1.1-0.9,2.2-1.8,3.2-2.6c-0.7,0.7-1.4,1.4-2.2,2.1C9.8,6.3,8.2,7.5,6.7,8.7
			C7.8,7.6,9,6.4,10.3,5.3z M12.1,5.4c-1.6,1.4-3.1,2.7-4.6,3.8C8.5,8.2,9.8,7,11.1,5.9c1.1-0.9,2.2-1.8,3.2-2.6
			C13.6,4,12.8,4.7,12.1,5.4z M17.8,3.9c-0.7,0.7-1.4,1.4-2.2,2.1C14,7.5,12.5,8.7,11,9.9c1.1-1.1,2.3-2.2,3.6-3.4
			C15.7,5.5,16.8,4.7,17.8,3.9z M8.3,11.6c1.4-1.7,3.1-3.5,5.1-5.3c0.9-0.8,1.8-1.5,2.6-2.2c-1,1-1.9,1.9-2.9,2.9
			C11.6,8.6,9.9,10.1,8.3,11.6z M8.7,13.3c1.6-1.5,3.2-3.1,5-4.7c1.4-1.3,2.8-2.4,4.2-3.5c-1.1,1.1-2.3,2.1-3.4,3.2
			C12.5,10,10.6,11.7,8.7,13.3z M8.9,14.3c1.1-1.3,2.5-2.7,4.1-4.1c1.4-1.2,2.7-2.2,4-3c-1.1,1-2.2,1.9-3.3,2.9
			C12.2,11.5,10.6,12.9,8.9,14.3z M17,8.6c-1.2,1.1-2.4,2.1-3.6,3c0.2-0.2,0.4-0.4,0.6-0.6c0.8-0.7,1.5-1.4,2.2-2.1
			C16.2,8.9,16.1,9,16,9.1c-0.1,0-0.1,0.1-0.2,0.2c-1.3,1.1-2.4,2.2-3.5,3.3c-0.9,0.8-1.8,1.5-2.7,2.1c1.1-1.1,2.3-2.2,3.6-3.4
			c1-0.9,2-1.7,2.9-2.4c1-0.9,2.1-1.7,3-2.5C18.5,7.1,17.8,7.8,17,8.6z"/>
	</defs>
	<clipPath id="SVGID_2_">
		<use xlink:href="#SVGID_1_"  style="overflow:visible;"/>
	</clipPath>
	<g transform="matrix(0.12931034,0,0,0.12931034,-11.913793,-12.948275)" class="st0">
		<path class="st1" d="M152,104c-13.3,0-24,5.4-24,12v12v4h24v4h-24h-4h-4h-12c-6.6,0-12,10.7-12,24v4c0,13.3,5.4,24,12,24h12h4v-12
			c0,0,0-16,16-16h32c0,0,8,0,8-8v-16v-8v-12c0-6.6-10.7-12-24-12H152z M140,112c2.2,0,4,1.8,4,4c0,2.2-1.8,4-4,4c-2.2,0-4-1.8-4-4
			C136,113.8,137.8,112,140,112z"/>
		<path class="st1" d="M156,220c13.3,0,24-5.4,24-12v-12v-4h-24v-4h24h4h4h12c6.6,0,12-10.7,12-24v-4c0-13.3-5.4-24-12-24h-12h-4v16
			c0,12-12,12-12,12h-32c-12,0-12,12-12,12v12v8v12c0,6.6,10.7,12,24,12H156z M168,208c-2.2,0-4-1.8-4-4c0-2.2,1.8-4,4-4
			c2.2,0,4,1.8,4,4C172,206.2,170.2,208,168,208z"/>
	</g>
</g>
</svg>
