<?xml version="1.0" encoding="utf-8"?>
<!-- Generator: Adobe Illustrator 23.0.0, SVG Export Plug-In . SVG Version: 6.00 Build 0)  -->
<svg version="1.1" id="Layer_1" xmlns="http://www.w3.org/2000/svg" xmlns:xlink="http://www.w3.org/1999/xlink" x="0px" y="0px"
	 viewBox="0 0 16 16" style="enable-background:new 0 0 16 16;" xml:space="preserve">
<style type="text/css">
	.st0{clip-path:url(#SVGID_2_);fill:#F75049;}
</style>
<g>
	<defs>
		<path id="SVGID_1_" d="M21.9,7.9c-0.1-0.1-0.3,0-0.6-0.2c-0.2-0.2-0.2-0.3-0.3-0.4c-0.4-0.2-1.3,0.5-1.3,0.5c0,0,0.4-0.3,0.7-0.7
			c0.2-0.2,0.6-0.7,0.5-1c-0.1-0.2-0.3-0.2-0.3-0.3c0-0.3,0.5-0.4,0.4-0.7c0-0.2-0.2-0.3-0.3-0.3C20.4,4.5,20,4.8,20,4.8
			c0,0,0.3-0.2,0.4-0.5c0-0.1,0.2-0.3,0.1-0.5c-0.1-0.1-0.3-0.1-0.4-0.1c-0.1,0-0.2,0.1-0.2,0c0,0,0-0.1,0-0.2
			c0-0.2-0.3-0.3-0.6-0.3c-0.5,0-0.9,0.5-1,0.4c-0.1-0.1,0.5-0.5,0.4-0.9c0-0.1-0.2-0.3-0.4-0.3c-0.3,0-0.4,0.3-0.5,0.3
			c-0.1-0.1,0.1-0.7-0.1-0.9c-0.1-0.1-0.3,0.1-0.6,0c-0.2-0.1-0.2-0.1-0.3-0.2c-0.3-0.1-0.8,0.4-1.3,0.9c-0.2,0.2-0.6,0.5-1.1,0.8
			C14.7,3.2,14.9,3,15,2.8c0.4-0.4,0.6-0.6,0.6-0.9c0-0.1,0-0.4-0.2-0.4c-0.2-0.1-0.4,0.2-1.1,0.6c-0.2,0.1-0.3,0.2-0.4,0.3
			c0,0,0.3-0.4,0.2-0.7c0,0-0.1-0.2-0.2-0.3c-0.4-0.3-1.1-0.2-1.2-0.2C12,1.4,11.8,2,10.7,2.5c0,0-0.1,0.1-0.3,0.2
			C10,2.9,9.8,3,9.7,3.1C9.4,3.3,9.2,3.4,9.1,3.7C9,3.9,9.1,4.1,8.9,4.3C8.8,4.4,8.6,4.4,8.5,4.5C7.9,4.6,7.2,5.6,7.1,5.8
			c-0.4,0.6-1.7,1.9-5.2,5.1c4.7-5,6.2-6.6,6.2-6.7c0,0,0,0,0,0c0-0.1,0.2-0.4,0-0.6C8.1,3.5,8,3.5,7.9,3.4c0,0,0-0.1,0-0.1
			c0-0.2,0.4-0.2,0.4-0.3c0,0-0.1-0.1-0.2-0.1C7.8,2.7,7.8,2.6,7.6,2.6C7.4,2.5,7.2,2.7,7,2.8C6.8,2.9,6.7,3,6.6,3c0,0,0-0.2,0-0.3
			C6.5,2.6,6.3,2.6,6.3,2.6c-0.3,0-0.5,0.3-0.6,0.2c-0.1,0,0-0.2-0.1-0.3C5.5,2.4,5.4,2.5,5.2,2.3C5,2.2,5.1,2.1,4.9,1.8
			C4.8,1.7,4.7,1.5,4.5,1.5C4.3,1.4,4.2,1.5,4,1.4C3.7,1.3,3.7,1.2,3.5,1.1c-0.2,0-0.3,0-0.4,0.1C2.8,1.4,2.8,1.5,2.6,1.5
			c-0.2,0-0.2-0.2-0.5-0.2c-0.1,0-0.2,0-0.3,0c-0.1,0.1,0,0.4-0.1,0.5c-0.1,0.1-0.2,0.1-0.3,0C1.4,1.7,1.4,1.6,1.3,1.6
			C1.1,1.4,0.2,1.6-0.1,2.2c0,0.1-0.1,0.2-0.2,0.3c-0.2,0.1-0.3,0-0.5,0c-0.3,0-0.5,0.2-1.1,1c0,0-0.1,0.1-0.6,0.6
			c-0.9,1-1,1.1-1.1,1.4c0,0.5,0,0.7,0,0.7c0,0.1,0.1,0.3,0,0.4c-0.1,0.1-0.1,0-0.2,0.1c-0.1,0.1,0.1,0.4,0,0.8c0,0,0,0,0,0.3
			c-0.1,0.5-0.1,0.6,0,0.7c0.1,0.1,0.2,0.1,0.3,0.1c0.2,0,0.3-0.1,0.4-0.1C-2.6,7.9-2.3,7.5-1.9,7C-2,7.4-2.2,7.6-2.3,7.8
			C-2.5,8-2.6,8.2-2.8,8.5c0,0.1-0.1,0.2-0.2,0.4C-3,9.1-3.1,9.4-3,9.6c0,0.1,0.1,0.2,0.1,0.3c0,0.2,0,0.3,0,0.4
			c0,0.1,0.1,0.1,0.2,0.1c0.1,0.1,0,0.3,0,0.6c0,0.2,0.1,0.1,0.1,0.3c0.1,0.3-0.1,0.4,0,0.7c0,0.1,0,0.2,0.1,0.3
			c0.1,0.1,0.4-0.1,0.6,0c0.2,0.1,0.1,0.3,0.3,0.4c0.1,0,0.2-0.1,0.4,0c0,0,0.3,0,0.3,0.1c0,0.1-0.1,0.3-0.3,0.4
			c-0.4,0.2-0.8-0.1-0.9,0c0,0.1,0.1,0.2,0.2,0.3c1,0.9,1,1,1.3,1.2c0.3,0.2,0.3,0.1,0.7,0.3c0.5,0.3,1.1,0.6,1.1,1
			c0,0.2-0.2,0.3-0.1,0.6c0,0.2,0.1,0.5,0.3,0.6c0.2,0.1,0.3-0.1,0.6-0.1c0.3,0,0.3,0.2,0.6,0.3c0.4,0,0.5-0.4,0.8-0.4
			c0.2,0,0.2,0.2,0.4,0.3c0.2,0.1,0.4,0,0.5,0c1-1.1,2.6-2.7,4.6-4.8c1.6-1.7,2.1-2.2,3-3.1c2.6-2.5,5.4-4.5,5.5-4.3
			c0.1,0.1-1.2,1.3-5.5,5.4c-3,2.8-5.4,5.2-7.1,6.8c0,0.3,0.1,0.5,0.2,0.5c0.2,0.1,0.5-0.2,0.8,0C6,17.8,6.1,18,6.2,18.2
			c0,0.2,0,0.3,0.1,0.4c0.1,0.1,0.1,0,0.2,0.1c0.2,0.2,0.1,0.3,0.3,0.5c0.2,0.1,0.4,0,0.4,0.2c0,0.1,0,0.1,0,0.3
			c0,0.1,0.2,0.1,0.2,0.3c0,0.2-0.3,0.3-0.3,0.6c0,0.2,0.1,0.2,0.1,0.5c0,0.5-0.6,0.6-0.5,0.9c0,0.2,0.2,0.4,0.4,0.5
			c0.3,0,0.5-0.4,0.8-0.4c0.4,0,0.6,0.6,0.9,0.5c0.3,0,0.3-0.4,0.6-0.4c0.2,0,0.3,0.1,0.4,0c0.1-0.1,0.1-0.2,0.3-0.3
			c0.1,0,0.1,0,0.2,0c0.2,0,0.6-0.4,0.7-0.8c0.1-0.4,0-0.5,0.2-0.8c0.1-0.2,0.3-0.3,0.4-0.4c0.5-0.4,1.2-1,1.8-1.6
			c0.8-0.8,0.9-1.1,1.5-1.4c0.1,0,0.3-0.1,0.5-0.3c0.3-0.3,0.4-0.6,0.6-0.8c0.4-0.8,0.8-0.8,1.7-2c0-0.1,0.2-0.3,0.2-0.4
			c-0.1-0.1-1.2,1.1-1.4,1c-0.1-0.1-0.1-0.2-0.1-0.2c0.1-0.6,0.8-0.8,1.9-1.7c0.3-0.2,0.2-0.2,0.5-0.5c0.8-0.7,1.7-1.3,2-1.7
			c0.1-0.3,0.2-0.6,0.2-0.6c0-0.1,0-0.1,0.1-0.2c0.1-0.3,0.2-0.4,0.7-0.9C21.9,8.1,21.9,7.9,21.9,7.9z M4.9,7.1C4.6,7.5,4.3,7.8,4,8
			C4.2,7.7,4.4,7.3,4.8,7c0.1-0.1,0.3-0.2,0.4-0.3C5.1,6.8,5,7,4.9,7.1z M4.7,5.9c0.5-0.5,1-1,1.4-1.4C5.8,4.9,5.3,5.4,4.8,6
			C4.5,6.3,4.2,6.6,3.9,6.8C4.2,6.5,4.4,6.2,4.7,5.9z M-0.8,5.8c0.1-0.2,0.2-0.4,0.4-0.6C-0.3,5.1-0.3,5-0.2,5
			c0,0.1-0.1,0.2-0.2,0.3C-0.5,5.5-0.7,5.7-0.8,5.8z M0,14c-0.1,0.1-0.2,0.2-0.3,0.2c0,0,0-0.2,0.1-0.3c0.1-0.1,0.3-0.2,0.3-0.2
			C0.1,13.7,0.1,13.9,0,14z M-0.3,9.3c0.3-0.4,0.7-0.8,1-1.2c0,0.1,0,0.2,0,0.3C0.3,8.7,0,9-0.3,9.3z M1.4,15.3c0,0-0.2-0.2-0.5-0.6
			c-0.1-0.1-0.2-0.2-0.2-0.3c0-0.1,0.1-0.1,0.2-0.2c0.1-0.1,0.3-0.2,0.4-0.5c0,0.2-0.1,0.3-0.1,0.4c0,0.1-0.1,0.2-0.1,0.3
			c0,0.1,0.1,0,0.1,0.1c0.1,0.1,0,0.2,0,0.3C1.3,15.1,1.4,15.3,1.4,15.3z M1.3,4c0.1-0.2,0.2-0.4,0.4-0.6C1.8,3.3,1.9,3.3,2,3.2
			c0,0.1-0.1,0.2-0.2,0.3C1.6,3.7,1.5,3.9,1.3,4z M4.1,10.6c1-1.3,2.3-2.8,3.8-4.2c1.1-1.1,2.2-2,3.2-2.8C10.4,4.3,9.6,5,8.9,5.8
			C7.2,7.4,5.6,9,4.1,10.6z M9,6.4c0.8-0.8,1.6-1.5,2.4-2c-0.4,0.5-0.9,1-1.4,1.6C8.9,7.2,7.8,8.3,6.6,9.3C7.2,8.4,8,7.4,9,6.4z
			 M10.9,8.2C12,7.3,13,6.4,14.1,5.6c-0.7,0.7-1.4,1.4-2.2,2.1c-1.6,1.4-3.1,2.7-4.6,3.8C8.3,10.5,9.6,9.4,10.9,8.2z M12.6,8.3
			C11,9.8,9.5,11.1,8,12.2c1.1-1.1,2.3-2.2,3.6-3.4c1.1-0.9,2.2-1.8,3.2-2.6C14.1,6.9,13.4,7.6,12.6,8.3z M18.3,6.8
			c-0.7,0.7-1.4,1.4-2.2,2.1c-1.6,1.4-3.1,2.7-4.6,3.8c1.1-1.1,2.3-2.2,3.6-3.4C16.2,8.5,17.3,7.6,18.3,6.8z M8.8,14.5
			c1.4-1.7,3.1-3.5,5.1-5.3c0.9-0.8,1.8-1.5,2.6-2.2c-1,1-1.9,1.9-2.9,2.9C12.1,11.5,10.5,13,8.8,14.5z M9.2,16.2
			c1.6-1.5,3.2-3.1,5-4.7c1.4-1.3,2.8-2.4,4.2-3.5c-1.1,1.1-2.3,2.1-3.4,3.2C13,12.9,11.1,14.6,9.2,16.2z M9.5,17.2
			c1.1-1.3,2.5-2.7,4.1-4.1c1.4-1.2,2.7-2.2,4-3c-1.1,1-2.2,1.9-3.3,2.9C12.7,14.4,11.1,15.8,9.5,17.2z M17.5,11.5
			c-1.2,1.1-2.4,2.1-3.6,3c0.2-0.2,0.4-0.4,0.6-0.6c0.8-0.7,1.5-1.4,2.2-2.1c-0.1,0.1-0.2,0.1-0.3,0.2c-0.1,0-0.1,0.1-0.2,0.2
			c-1.3,1.1-2.4,2.2-3.5,3.3c-0.9,0.8-1.8,1.5-2.7,2.1c1.1-1.1,2.3-2.2,3.6-3.4c1-0.9,2-1.7,2.9-2.4c1-0.9,2.1-1.7,3-2.5
			C19.1,10,18.3,10.8,17.5,11.5z"/>
	</defs>
	<clipPath id="SVGID_2_">
		<use xlink:href="#SVGID_1_"  style="overflow:visible;"/>
	</clipPath>
	<path class="st0" d="M0,13.8L3.8,8L0,2.2h2.9L6.7,8l-3.8,5.8H0z"/>
	<path class="st0" d="M3.8,13.8L7.7,8L3.8,2.2h2.9l7.7,11.5h-2.9l-2.4-3.6l-2.4,3.6H3.8z"/>
	<path class="st0" d="M11.8,8.5l1.4,2.1H16V8.5H11.8z"/>
	<path class="st0" d="M9.7,5.4l1.4,2.1H16V5.4H9.7z"/>
</g>
</svg>
