<?xml version="1.0" encoding="utf-8"?>
<!-- Generator: Adobe Illustrator 23.0.0, SVG Export Plug-In . SVG Version: 6.00 Build 0)  -->
<svg version="1.1" id="Layer_1" xmlns="http://www.w3.org/2000/svg" xmlns:xlink="http://www.w3.org/1999/xlink" x="0px" y="0px"
	 viewBox="0 0 16 16" style="enable-background:new 0 0 16 16;" xml:space="preserve">
<style type="text/css">
	.st0{clip-path:url(#SVGID_2_);fill-rule:evenodd;clip-rule:evenodd;fill:#F75049;}
</style>
<g>
	<defs>
		<path id="SVGID_1_" d="M18.8,5.4c-0.1-0.1-0.3,0-0.6-0.2C18,5,18.1,4.9,17.9,4.8c-0.4-0.2-1.3,0.5-1.3,0.5c0,0,0.4-0.3,0.7-0.7
			c0.2-0.2,0.6-0.7,0.5-1c-0.1-0.2-0.3-0.2-0.3-0.3C17.5,3,18,2.8,18,2.5c0-0.2-0.2-0.3-0.3-0.3c-0.3-0.1-0.8,0.2-0.8,0.2
			c0,0,0.3-0.2,0.4-0.5c0-0.1,0.2-0.3,0.1-0.5c-0.1-0.1-0.3-0.1-0.4-0.1c-0.1,0-0.2,0.1-0.2,0c0,0,0-0.1,0-0.2
			c0-0.2-0.3-0.3-0.6-0.3c-0.5,0-0.9,0.5-1,0.4c-0.1-0.1,0.5-0.5,0.4-0.9c0-0.1-0.2-0.3-0.4-0.3c-0.3,0-0.4,0.3-0.5,0.3
			c-0.1-0.1,0.1-0.7-0.1-0.9c-0.1-0.1-0.3,0.1-0.6,0c-0.2-0.1-0.2-0.1-0.3-0.2c-0.3-0.1-0.8,0.4-1.3,0.9c-0.2,0.2-0.6,0.5-1.1,0.8
			c0.3-0.3,0.5-0.6,0.7-0.7c0.4-0.4,0.6-0.6,0.6-0.9c0-0.1,0-0.4-0.2-0.4C12.2-1,12-0.8,11.3-0.4c-0.2,0.1-0.3,0.2-0.4,0.3
			c0,0,0.3-0.4,0.2-0.7c0,0-0.1-0.2-0.2-0.3c-0.4-0.3-1.1-0.2-1.2-0.2C8.9-1,8.7-0.4,7.6,0.1c0,0-0.1,0.1-0.3,0.2
			C6.9,0.5,6.7,0.6,6.6,0.7C6.3,0.9,6.1,1,6,1.3C5.9,1.5,6,1.7,5.8,1.8C5.7,2,5.5,2,5.4,2C4.8,2.2,4.1,3.2,4,3.4
			C3.6,3.9,2.3,5.3-1.2,8.4C3.6,3.4,5,1.9,5,1.7c0,0,0,0,0,0c0-0.1,0.2-0.4,0-0.6C5,1.1,4.9,1.1,4.8,1c0,0,0-0.1,0-0.1
			c0-0.2,0.4-0.2,0.4-0.3c0,0-0.1-0.1-0.2-0.1C4.7,0.3,4.7,0.2,4.5,0.2C4.3,0.1,4.1,0.3,3.9,0.4C3.7,0.5,3.6,0.6,3.5,0.6
			c0,0,0-0.2,0-0.3C3.4,0.2,3.2,0.2,3.2,0.2c-0.3,0-0.5,0.3-0.6,0.2c-0.1,0,0-0.2-0.1-0.3C2.4,0,2.3,0,2.1-0.1
			C1.9-0.2,2-0.3,1.8-0.6C1.7-0.7,1.6-0.9,1.4-1C1.2-1,1.1-0.9,0.9-1C0.6-1.1,0.6-1.3,0.4-1.3c-0.2,0-0.3,0-0.4,0.1
			c-0.3,0.1-0.3,0.3-0.5,0.3c-0.2,0-0.2-0.2-0.5-0.2c-0.1,0-0.2,0-0.3,0c-0.1,0.1,0,0.4-0.1,0.5c-0.1,0.1-0.2,0.1-0.3,0
			c-0.1-0.1-0.1-0.1-0.1-0.2C-2-1-2.9-0.8-3.2-0.2c0,0.1-0.1,0.2-0.2,0.3c-0.2,0.1-0.3,0-0.5,0c-0.3,0-0.5,0.2-1.1,1
			c0,0-0.1,0.1-0.6,0.6c-0.9,1-1,1.1-1.1,1.4c0,0.5,0,0.7,0,0.7c0,0.1,0.1,0.3,0,0.4c-0.1,0.1-0.1,0-0.2,0.1c-0.1,0.1,0.1,0.4,0,0.8
			c0,0,0,0,0,0.3C-6.8,5.9-6.8,6-6.7,6c0.1,0.1,0.2,0.1,0.3,0.1C-6.3,6.1-6.2,6-6.1,6C-5.7,5.5-5.4,5.1-5,4.6
			c-0.2,0.3-0.3,0.6-0.4,0.7c-0.2,0.2-0.3,0.4-0.5,0.7c0,0.1-0.1,0.2-0.2,0.4c-0.1,0.2-0.2,0.5-0.1,0.8C-6.1,7.3-6,7.4-6,7.5
			c0,0.2,0,0.3,0,0.4C-5.9,8-5.9,7.9-5.8,8c0.1,0.1,0,0.3,0,0.6c0,0.2,0.1,0.1,0.1,0.3c0.1,0.3-0.1,0.4,0,0.7c0,0.1,0,0.2,0.1,0.3
			c0.1,0.1,0.4-0.1,0.6,0c0.2,0.1,0.1,0.3,0.3,0.4c0.1,0,0.2-0.1,0.4,0c0,0,0.3,0,0.3,0.1c0,0.1-0.1,0.3-0.3,0.4
			c-0.4,0.2-0.8-0.1-0.9,0c0,0.1,0.1,0.2,0.2,0.3c1,0.9,1,1,1.3,1.2c0.3,0.2,0.3,0.1,0.7,0.3c0.5,0.3,1.1,0.6,1.1,1
			c0,0.2-0.2,0.3-0.1,0.6c0,0.2,0.1,0.5,0.3,0.6c0.2,0.1,0.3-0.1,0.6-0.1c0.3,0,0.3,0.2,0.6,0.3c0.4,0,0.5-0.4,0.8-0.4
			c0.2,0,0.2,0.2,0.4,0.3c0.2,0.1,0.4,0,0.5,0c1-1.1,2.6-2.7,4.6-4.8C7.5,8.4,8,7.9,8.9,7c2.6-2.5,5.4-4.5,5.5-4.3
			c0.1,0.1-1.2,1.3-5.5,5.4c-3,2.8-5.4,5.2-7.1,6.8c0,0.3,0.1,0.5,0.2,0.5c0.2,0.1,0.5-0.2,0.8,0c0.1,0.1,0.3,0.2,0.3,0.4
			c0,0.2,0,0.3,0.1,0.4c0.1,0.1,0.1,0,0.2,0.1c0.2,0.2,0.1,0.3,0.3,0.5c0.2,0.1,0.4,0,0.4,0.2c0,0.1,0,0.1,0,0.3
			c0,0.1,0.2,0.1,0.2,0.3c0,0.2-0.3,0.3-0.3,0.6c0,0.2,0.1,0.2,0.1,0.5c0,0.5-0.6,0.6-0.5,0.9c0,0.2,0.2,0.4,0.4,0.5
			c0.3,0,0.5-0.4,0.8-0.4c0.4,0,0.6,0.6,0.9,0.5c0.3,0,0.3-0.4,0.6-0.4c0.2,0,0.3,0.1,0.4,0c0.1-0.1,0.1-0.2,0.3-0.3
			c0.1,0,0.1,0,0.2,0c0.2,0,0.6-0.4,0.7-0.8c0.1-0.4,0-0.5,0.2-0.8c0.1-0.2,0.3-0.3,0.4-0.4c0.5-0.4,1.2-1,1.8-1.6
			c0.8-0.8,0.9-1.1,1.5-1.4c0.1,0,0.3-0.1,0.5-0.3c0.3-0.3,0.4-0.6,0.6-0.8c0.4-0.8,0.8-0.8,1.7-2c0-0.1,0.2-0.3,0.2-0.4
			c-0.1-0.1-1.2,1.1-1.4,1C13,11.9,13,11.8,13,11.7c0.1-0.6,0.8-0.8,1.9-1.7c0.3-0.2,0.2-0.2,0.5-0.5c0.8-0.7,1.7-1.3,2-1.7
			c0.1-0.3,0.2-0.6,0.2-0.6c0-0.1,0-0.1,0.1-0.2c0.1-0.3,0.2-0.4,0.7-0.9C18.8,5.6,18.8,5.5,18.8,5.4z M1.8,4.7
			C1.5,5.1,1.2,5.3,0.9,5.5c0.2-0.3,0.4-0.6,0.8-0.9C1.8,4.5,2,4.4,2.1,4.3C2,4.4,1.9,4.5,1.8,4.7z M1.6,3.5c0.5-0.5,1-1,1.4-1.4
			C2.7,2.5,2.2,3,1.7,3.5C1.4,3.9,1.1,4.1,0.8,4.4C1.1,4.1,1.3,3.8,1.6,3.5z M-4,3.4C-3.9,3.2-3.7,3-3.5,2.8
			c0.1-0.1,0.2-0.2,0.2-0.2c0,0.1-0.1,0.2-0.2,0.3C-3.6,3.1-3.8,3.3-4,3.4z M-3.1,11.6c-0.1,0.1-0.2,0.2-0.3,0.2c0,0,0-0.2,0.1-0.3
			c0.1-0.1,0.3-0.2,0.3-0.2C-3,11.3-3,11.4-3.1,11.6z M-3.4,6.9c0.3-0.4,0.7-0.8,1-1.2c0,0.1,0,0.2,0,0.3C-2.8,6.3-3.1,6.6-3.4,6.9z
			 M-1.7,12.9c0,0-0.2-0.2-0.5-0.6c-0.1-0.1-0.2-0.2-0.2-0.3c0-0.1,0.1-0.1,0.2-0.2c0.1-0.1,0.3-0.2,0.4-0.5c0,0.2-0.1,0.3-0.1,0.4
			c0,0.1-0.1,0.2-0.1,0.3c0,0.1,0.1,0,0.1,0.1c0.1,0.1,0,0.2,0,0.3C-1.8,12.7-1.7,12.9-1.7,12.9z M-1.8,1.6C-1.7,1.4-1.6,1.2-1.4,1
			c0.1-0.1,0.2-0.2,0.2-0.2C-1.2,0.9-1.2,1-1.3,1C-1.5,1.3-1.6,1.5-1.8,1.6z M1,8.2c1-1.3,2.3-2.8,3.8-4.2C5.9,2.9,7,2,8,1.2
			C7.3,1.9,6.5,2.6,5.8,3.4C4.1,5,2.5,6.6,1,8.2z M5.9,4c0.8-0.8,1.6-1.5,2.4-2C7.9,2.5,7.4,3,6.9,3.5C5.8,4.8,4.6,5.9,3.5,6.9
			C4.1,6,4.9,5,5.9,4z M7.8,5.8C8.9,4.8,9.9,4,11,3.2c-0.7,0.7-1.4,1.4-2.2,2.1C7.2,6.8,5.6,8,4.1,9.2C5.2,8.1,6.5,6.9,7.8,5.8z
			 M9.5,5.9C7.9,7.4,6.4,8.6,4.9,9.8C6,8.7,7.2,7.5,8.5,6.4c1.1-0.9,2.2-1.8,3.2-2.6C11,4.5,10.3,5.2,9.5,5.9z M15.2,4.4
			c-0.7,0.7-1.4,1.4-2.2,2.1C11.4,8,9.9,9.2,8.4,10.4C9.5,9.3,10.7,8.1,12,7C13.1,6,14.2,5.2,15.2,4.4z M5.7,12.1
			c1.4-1.7,3.1-3.5,5.1-5.3c0.9-0.8,1.8-1.5,2.6-2.2c-1,1-1.9,1.9-2.9,2.9C9,9.1,7.4,10.6,5.7,12.1z M6.1,13.8
			c1.6-1.5,3.2-3.1,5-4.7c1.4-1.3,2.8-2.4,4.2-3.5c-1.1,1.1-2.3,2.1-3.4,3.2C9.9,10.5,8,12.2,6.1,13.8z M6.4,14.8
			c1.1-1.3,2.5-2.7,4.1-4.1c1.4-1.2,2.7-2.2,4-3c-1.1,1-2.2,1.9-3.3,2.9C9.6,12,8,13.4,6.4,14.8z M14.4,9.1c-1.2,1.1-2.4,2.1-3.6,3
			c0.2-0.2,0.4-0.4,0.6-0.6c0.8-0.7,1.5-1.4,2.2-2.1c-0.1,0.1-0.2,0.1-0.3,0.2c-0.1,0-0.1,0.1-0.2,0.2c-1.3,1.1-2.4,2.2-3.5,3.3
			c-0.9,0.8-1.8,1.5-2.7,2.1c1.1-1.1,2.3-2.2,3.6-3.4c1-0.9,2-1.7,2.9-2.4c1-0.9,2.1-1.7,3-2.5C16,7.6,15.2,8.3,14.4,9.1z"/>
	</defs>
	<clipPath id="SVGID_2_">
		<use xlink:href="#SVGID_1_"  style="overflow:visible;"/>
	</clipPath>
	<path class="st0" d="M6.2,16H2.3V0h4l0,0c1,0,2,0.2,2.8,0.5l0,0l0,0c0.8,0.3,1.5,0.7,2.1,1.2l0,0l0,0c0.6,0.5,1,1.1,1.4,1.8l0,0
		l0,0c0.4,0.7,0.6,1.4,0.8,2.2l0,0l0,0c0.2,0.8,0.3,1.5,0.3,2.4l0,0l0,0c0,0.8-0.1,1.5-0.2,2.2l0,0l0,0c-0.2,0.7-0.4,1.5-0.8,2.2
		l0,0l0,0c-0.4,0.7-0.8,1.3-1.4,1.9l0,0l0,0c-0.6,0.5-1.3,0.9-2.1,1.3l0,0l0,0C8.3,15.8,7.3,16,6.2,16L6.2,16z"/>
	<path class="st0" d="M5,2.6v10.9h1.5l0,0c0.8,0,1.5-0.2,2-0.5l0,0l0,0c0.6-0.3,1-0.8,1.4-1.3l0,0l0,0c0.3-0.5,0.6-1.1,0.7-1.7l0,0
		l0,0c0.2-0.6,0.2-1.3,0.2-1.9l0,0l0,0c0-1.5-0.3-2.8-1-3.8l0,0l0,0C9.1,3.1,8.1,2.6,6.8,2.6l0,0H5z"/>
</g>
</svg>
