<?xml version="1.0" encoding="utf-8"?>
<!-- Generator: Adobe Illustrator 23.0.0, SVG Export Plug-In . SVG Version: 6.00 Build 0)  -->
<svg version="1.1" id="Layer_1" xmlns="http://www.w3.org/2000/svg" xmlns:xlink="http://www.w3.org/1999/xlink" x="0px" y="0px"
	 viewBox="0 0 16 16" style="enable-background:new 0 0 16 16;" xml:space="preserve">
<style type="text/css">
	.st0{clip-path:url(#SVGID_2_);fill-rule:evenodd;clip-rule:evenodd;fill:#F75049;}
</style>
<g>
	<defs>
		<path id="SVGID_1_" d="M19.7,6.3c-0.1-0.1-0.3,0-0.6-0.2c-0.2-0.2-0.2-0.3-0.3-0.4c-0.4-0.2-1.3,0.5-1.3,0.5c0,0,0.4-0.3,0.7-0.7
			c0.2-0.2,0.6-0.7,0.5-1c-0.1-0.2-0.3-0.2-0.3-0.3c0-0.3,0.5-0.4,0.4-0.7c0-0.2-0.2-0.3-0.3-0.3c-0.3-0.1-0.8,0.2-0.8,0.2
			c0,0,0.3-0.2,0.4-0.5c0-0.1,0.2-0.3,0.1-0.5c-0.1-0.1-0.3-0.1-0.4-0.1c-0.1,0-0.2,0.1-0.2,0c0,0,0-0.1,0-0.2
			c0-0.2-0.3-0.3-0.6-0.3c-0.5,0-0.9,0.5-1,0.4c-0.1-0.1,0.5-0.5,0.4-0.9c0-0.1-0.2-0.3-0.4-0.3c-0.3,0-0.4,0.3-0.5,0.3
			c-0.1-0.1,0.1-0.7-0.1-0.9c-0.1-0.1-0.3,0.1-0.6,0c-0.2-0.1-0.2-0.1-0.3-0.2c-0.3-0.1-0.8,0.4-1.3,0.9C13,1.4,12.7,1.7,12.2,2
			c0.3-0.3,0.5-0.6,0.7-0.7c0.4-0.4,0.6-0.6,0.6-0.9c0-0.1,0-0.4-0.2-0.4c-0.2-0.1-0.4,0.2-1.1,0.6c-0.2,0.1-0.3,0.2-0.4,0.3
			c0,0,0.3-0.4,0.2-0.7c0,0-0.1-0.2-0.2-0.3c-0.4-0.3-1.1-0.2-1.2-0.2C9.7-0.1,9.5,0.5,8.5,1c0,0-0.1,0.1-0.3,0.2
			C7.7,1.4,7.5,1.5,7.4,1.5C7.2,1.7,7,1.9,6.9,2.1C6.8,2.4,6.8,2.5,6.7,2.7C6.5,2.9,6.4,2.9,6.3,2.9C5.7,3.1,5,4.1,4.9,4.2
			C4.5,4.8,3.2,6.1-0.3,9.3c4.7-5,6.2-6.6,6.2-6.7c0,0,0,0,0,0c0-0.1,0.2-0.4,0-0.6C5.9,1.9,5.7,2,5.6,1.9c0,0,0-0.1,0-0.1
			C5.7,1.5,6,1.5,6,1.4c0,0-0.1-0.1-0.2-0.1C5.6,1.2,5.6,1.1,5.4,1.1C5.2,1,4.9,1.1,4.7,1.2C4.5,1.3,4.4,1.5,4.4,1.4
			c0,0,0-0.2,0-0.3C4.3,1.1,4.1,1.1,4,1.1c-0.3,0-0.5,0.3-0.6,0.2c-0.1,0,0-0.2-0.1-0.3C3.3,0.9,3.1,0.9,3,0.8
			C2.8,0.7,2.9,0.5,2.7,0.3C2.6,0.2,2.5,0,2.3-0.1C2-0.2,2-0.1,1.8-0.1C1.5-0.2,1.5-0.4,1.3-0.4c-0.2,0-0.3,0-0.4,0.1
			C0.6-0.2,0.5,0,0.4,0C0.2,0,0.2-0.2-0.1-0.3c-0.1,0-0.2,0-0.3,0c-0.1,0.1,0,0.4-0.1,0.5c-0.1,0.1-0.2,0.1-0.3,0
			C-0.9,0.2-0.9,0.1-0.9,0c-0.2-0.2-1.1,0.1-1.4,0.6c0,0.1-0.1,0.2-0.2,0.3C-2.7,1.1-2.9,1-3,1c-0.3,0-0.5,0.2-1.1,1
			c0,0-0.1,0.1-0.6,0.6c-0.9,1-1,1.1-1.1,1.4c0,0.5,0,0.7,0,0.7c0,0.1,0.1,0.3,0,0.4c-0.1,0.1-0.1,0-0.2,0.1c-0.1,0.1,0.1,0.4,0,0.8
			c0,0,0,0,0,0.3c-0.1,0.5-0.1,0.6,0,0.7C-5.8,7-5.7,7-5.6,7c0.2,0,0.3-0.1,0.4-0.1C-4.9,6.4-4.5,6-4.1,5.5
			c-0.2,0.3-0.3,0.6-0.4,0.7C-4.7,6.5-4.9,6.6-5,6.9c0,0.1-0.1,0.2-0.2,0.4c-0.1,0.2-0.2,0.5-0.1,0.8c0,0.1,0.1,0.2,0.1,0.3
			c0,0.2,0,0.3,0,0.4C-5,8.8-5,8.8-4.9,8.9c0.1,0.1,0,0.3,0,0.6c0,0.2,0.1,0.1,0.1,0.3c0.1,0.3-0.1,0.4,0,0.7c0,0.1,0,0.2,0.1,0.3
			c0.1,0.1,0.4-0.1,0.6,0c0.2,0.1,0.1,0.3,0.3,0.4c0.1,0,0.2-0.1,0.4,0c0,0,0.3,0,0.3,0.1c0,0.1-0.1,0.3-0.3,0.4
			c-0.4,0.2-0.8-0.1-0.9,0c0,0.1,0.1,0.2,0.2,0.3c1,0.9,1,1,1.3,1.2c0.3,0.2,0.3,0.1,0.7,0.3c0.5,0.3,1.1,0.6,1.1,1
			c0,0.2-0.2,0.3-0.1,0.6c0,0.2,0.1,0.5,0.3,0.6c0.2,0.1,0.3-0.1,0.6-0.1c0.3,0,0.3,0.2,0.6,0.3c0.4,0,0.5-0.4,0.8-0.4
			c0.2,0,0.2,0.2,0.4,0.3c0.2,0.1,0.4,0,0.5,0c1-1.1,2.6-2.7,4.6-4.8c1.6-1.7,2.1-2.2,3-3.1c2.6-2.5,5.4-4.5,5.5-4.3
			c0.1,0.1-1.2,1.3-5.5,5.4c-3,2.8-5.4,5.2-7.1,6.8c0,0.3,0.1,0.5,0.2,0.5c0.2,0.1,0.5-0.2,0.8,0c0.1,0.1,0.3,0.2,0.3,0.4
			c0,0.2,0,0.3,0.1,0.4c0.1,0.1,0.1,0,0.2,0.1c0.2,0.2,0.1,0.3,0.3,0.5c0.2,0.1,0.4,0,0.4,0.2c0,0.1,0,0.1,0,0.3
			c0,0.1,0.2,0.1,0.2,0.3c0,0.2-0.3,0.3-0.3,0.6c0,0.2,0.1,0.2,0.1,0.5c0,0.5-0.6,0.6-0.5,0.9c0,0.2,0.2,0.4,0.4,0.5
			c0.3,0,0.5-0.4,0.8-0.4c0.4,0,0.6,0.6,0.9,0.5c0.3,0,0.3-0.4,0.6-0.4c0.2,0,0.3,0.1,0.4,0c0.1-0.1,0.1-0.2,0.3-0.3
			c0.1,0,0.1,0,0.2,0c0.2,0,0.6-0.4,0.7-0.8c0.1-0.4,0-0.5,0.2-0.8c0.1-0.2,0.3-0.3,0.4-0.4c0.5-0.4,1.2-1,1.8-1.6
			c0.8-0.8,0.9-1.1,1.5-1.4c0.1,0,0.3-0.1,0.5-0.3c0.3-0.3,0.4-0.6,0.6-0.8c0.4-0.8,0.8-0.8,1.7-2c0-0.1,0.2-0.3,0.2-0.4
			c-0.1-0.1-1.2,1.1-1.4,1c-0.1-0.1-0.1-0.2-0.1-0.2c0.1-0.6,0.8-0.8,1.9-1.7c0.3-0.2,0.2-0.2,0.5-0.5c0.8-0.7,1.7-1.3,2-1.7
			c0.1-0.3,0.2-0.6,0.2-0.6c0-0.1,0-0.1,0.1-0.2c0.1-0.3,0.2-0.4,0.7-0.9C19.6,6.5,19.7,6.4,19.7,6.3z M2.7,5.5
			C2.4,5.9,2.1,6.2,1.8,6.4c0.2-0.3,0.4-0.6,0.8-0.9C2.7,5.3,2.8,5.2,3,5.2C2.9,5.3,2.8,5.4,2.7,5.5z M2.5,4.3c0.5-0.5,1-1,1.4-1.4
			c-0.3,0.5-0.8,1-1.3,1.5C2.3,4.7,2,5,1.7,5.3C1.9,5,2.2,4.6,2.5,4.3z M-3.1,4.3C-3,4.1-2.9,3.9-2.7,3.7c0.1-0.1,0.2-0.2,0.2-0.2
			c0,0.1-0.1,0.2-0.2,0.3C-2.7,4-2.9,4.1-3.1,4.3z M-2.2,12.4c-0.1,0.1-0.2,0.2-0.3,0.2c0,0,0-0.2,0.1-0.3c0.1-0.1,0.3-0.2,0.3-0.2
			C-2.1,12.2-2.1,12.3-2.2,12.4z M-2.6,7.8c0.3-0.4,0.7-0.8,1-1.2c0,0.1,0,0.2,0,0.3C-1.9,7.2-2.2,7.5-2.6,7.8z M-0.8,13.8
			c0,0-0.2-0.2-0.5-0.6c-0.1-0.1-0.2-0.2-0.2-0.3c0-0.1,0.1-0.1,0.2-0.2c0.1-0.1,0.3-0.2,0.4-0.5c0,0.2-0.1,0.3-0.1,0.4
			c0,0.1-0.1,0.2-0.1,0.3c0,0.1,0.1,0,0.1,0.1c0.1,0.1,0,0.2,0,0.3C-1,13.6-0.8,13.8-0.8,13.8z M-0.9,2.5c0.1-0.2,0.2-0.4,0.4-0.6
			c0.1-0.1,0.2-0.2,0.2-0.2c0,0.1-0.1,0.2-0.2,0.3C-0.6,2.2-0.8,2.4-0.9,2.5z M1.9,9.1c1-1.3,2.3-2.8,3.8-4.2c1.1-1.1,2.2-2,3.2-2.8
			C8.1,2.8,7.4,3.5,6.7,4.2C5,5.9,3.4,7.5,1.9,9.1z M6.8,4.9c0.8-0.8,1.6-1.5,2.4-2c-0.4,0.5-0.9,1-1.4,1.6C6.7,5.6,5.5,6.8,4.4,7.8
			C5,6.9,5.8,5.9,6.8,4.9z M8.6,6.7c1.1-0.9,2.2-1.8,3.2-2.6c-0.7,0.7-1.4,1.4-2.2,2.1C8,7.6,6.5,8.9,5,10C6.1,8.9,7.3,7.8,8.6,6.7z
			 M10.3,6.8c-1.6,1.4-3.1,2.7-4.6,3.8C6.8,9.5,8,8.4,9.3,7.3c1.1-0.9,2.2-1.8,3.2-2.6C11.9,5.4,11.1,6.1,10.3,6.8z M16.1,5.2
			c-0.7,0.7-1.4,1.4-2.2,2.1c-1.6,1.4-3.1,2.7-4.6,3.8c1.1-1.1,2.3-2.2,3.6-3.4C14,6.9,15,6,16.1,5.2z M6.6,13
			c1.4-1.7,3.1-3.5,5.1-5.3c0.9-0.8,1.8-1.5,2.6-2.2c-1,1-1.9,1.9-2.9,2.9C9.8,9.9,8.2,11.5,6.6,13z M7,14.6c1.6-1.5,3.2-3.1,5-4.7
			c1.4-1.3,2.8-2.4,4.2-3.5c-1.1,1.1-2.3,2.1-3.4,3.2C10.8,11.3,8.9,13,7,14.6z M7.2,15.6c1.1-1.3,2.5-2.7,4.1-4.1
			c1.4-1.2,2.7-2.2,4-3c-1.1,1-2.2,1.9-3.3,2.9C10.4,12.8,8.8,14.2,7.2,15.6z M15.3,9.9c-1.2,1.1-2.4,2.1-3.6,3
			c0.2-0.2,0.4-0.4,0.6-0.6c0.8-0.7,1.5-1.4,2.2-2.1c-0.1,0.1-0.2,0.1-0.3,0.2c-0.1,0-0.1,0.1-0.2,0.2c-1.3,1.1-2.4,2.2-3.5,3.3
			c-0.9,0.8-1.8,1.5-2.7,2.1c1.1-1.1,2.3-2.2,3.6-3.4c1-0.9,2-1.7,2.9-2.4c1-0.9,2.1-1.7,3-2.5C16.8,8.5,16.1,9.2,15.3,9.9z"/>
	</defs>
	<clipPath id="SVGID_2_">
		<use xlink:href="#SVGID_1_"  style="overflow:visible;"/>
	</clipPath>
	<path class="st0" d="M3.7,12.6v1l0,0c-0.8,0-1.5-0.3-2-0.8l0,0l0,0C1.3,12.3,1,11.5,1,10.5l0,0V9.8l0,0c0-0.4-0.1-0.7-0.2-0.9l0,0
		l0,0C0.6,8.6,0.4,8.5,0.1,8.5l0,0H0v-1h0.1l0,0c0.3,0,0.5-0.1,0.7-0.4l0,0l0,0C0.9,6.9,1,6.6,1,6.2l0,0V5.5l0,0
		c0-1,0.2-1.8,0.7-2.3l0,0l0,0c0.5-0.5,1.1-0.8,2-0.8l0,0v1l0,0c-0.5,0-0.9,0.2-1.1,0.5l0,0l0,0C2.3,4.2,2.2,4.6,2.2,5.2l0,0V6l0,0
		c0,0.7-0.1,1.2-0.3,1.4l0,0l0,0C1.7,7.8,1.3,7.9,0.8,8l0,0l0,0c0.5,0.1,0.8,0.2,1,0.5l0,0l0,0C2.1,8.8,2.2,9.3,2.2,10l0,0v0.8l0,0
		C2.2,12,2.7,12.6,3.7,12.6L3.7,12.6z"/>
	<polygon class="st0" points="11.3,11.9 5.6,11.9 5.6,2.5 6.7,2.5 6.7,10.8 11.3,10.8 	"/>
	<path class="st0" d="M12.3,13.6L12.3,13.6v-1l0,0c1,0,1.5-0.7,1.5-1.9l0,0V10l0,0c0-0.7,0.1-1.2,0.3-1.5l0,0l0,0
		c0.2-0.3,0.6-0.4,1-0.5l0,0l0,0c-0.5-0.1-0.8-0.2-1-0.5l0,0l0,0c-0.2-0.3-0.3-0.8-0.3-1.4l0,0V5.2l0,0c0-1.2-0.5-1.8-1.5-1.8l0,0
		v-1l0,0c0.8,0,1.5,0.3,1.9,0.8l0,0l0,0C14.7,3.7,15,4.5,15,5.5l0,0v0.7l0,0c0,0.4,0.1,0.7,0.2,0.9l0,0l0,0c0.2,0.2,0.4,0.4,0.7,0.4
		l0,0H16v1h-0.1l0,0c-0.3,0-0.5,0.1-0.7,0.4l0,0l0,0C15,9.1,15,9.4,15,9.8l0,0v0.7l0,0c0,1-0.2,1.8-0.7,2.3l0,0l0,0
		C13.8,13.3,13.1,13.6,12.3,13.6z"/>
</g>
</svg>
