<?xml version="1.0" encoding="utf-8"?>
<!-- Generator: Adobe Illustrator 23.0.0, SVG Export Plug-In . SVG Version: 6.00 Build 0)  -->
<svg version="1.1" id="Layer_1" xmlns="http://www.w3.org/2000/svg" xmlns:xlink="http://www.w3.org/1999/xlink" x="0px" y="0px"
	 viewBox="0 0 16 16" style="enable-background:new 0 0 16 16;" xml:space="preserve">
<style type="text/css">
	.st0{clip-path:url(#SVGID_2_);fill:#F75049;}
</style>
<g>
	<defs>
		<path id="SVGID_1_" d="M21.3,5.1c-0.1-0.1-0.3,0-0.6-0.2c-0.2-0.2-0.2-0.3-0.3-0.4c-0.4-0.2-1.3,0.5-1.3,0.5c0,0,0.4-0.3,0.7-0.7
			c0.2-0.2,0.6-0.7,0.5-1c-0.1-0.2-0.3-0.2-0.3-0.3c0-0.3,0.5-0.4,0.4-0.7c0-0.2-0.2-0.3-0.3-0.3c-0.3-0.1-0.8,0.2-0.8,0.2
			c0,0,0.3-0.2,0.4-0.5c0-0.1,0.2-0.3,0.1-0.5C19.8,1,19.7,1,19.6,1c-0.1,0-0.2,0.1-0.2,0c0,0,0-0.1,0-0.2c0-0.2-0.3-0.3-0.6-0.3
			c-0.5,0-0.9,0.5-1,0.4c-0.1-0.1,0.5-0.5,0.4-0.9c0-0.1-0.2-0.3-0.4-0.3c-0.3,0-0.4,0.3-0.5,0.3c-0.1-0.1,0.1-0.7-0.1-0.9
			c-0.1-0.1-0.3,0.1-0.6,0c-0.2-0.1-0.2-0.1-0.3-0.2C16-1.1,15.5-0.5,15,0c-0.2,0.2-0.6,0.5-1.1,0.8c0.3-0.3,0.5-0.6,0.7-0.7
			c0.4-0.4,0.6-0.6,0.6-0.9c0-0.1,0-0.4-0.2-0.4c-0.2-0.1-0.4,0.2-1.1,0.6c-0.2,0.1-0.3,0.2-0.4,0.3c0,0,0.3-0.4,0.2-0.7
			c0,0-0.1-0.2-0.2-0.3c-0.4-0.3-1.1-0.2-1.2-0.2c-0.9,0.2-1.1,0.8-2.1,1.3c0,0-0.1,0.1-0.3,0.2C9.4,0.2,9.2,0.3,9.1,0.3
			C8.9,0.5,8.7,0.7,8.6,0.9C8.5,1.2,8.5,1.3,8.3,1.5C8.2,1.6,8,1.7,8,1.7C7.4,1.8,6.7,2.9,6.6,3C6.2,3.6,4.9,4.9,1.4,8.1
			c4.7-5,6.2-6.6,6.2-6.7c0,0,0,0,0,0c0-0.1,0.2-0.4,0-0.6c-0.1-0.1-0.2,0-0.3-0.1c0,0,0-0.1,0-0.1c0-0.2,0.4-0.2,0.4-0.3
			c0,0-0.1-0.1-0.2-0.1C7.2,0,7.2-0.1,7.1-0.2C6.9-0.2,6.6-0.1,6.4,0C6.2,0.1,6.1,0.3,6.1,0.2c0,0,0-0.2,0-0.3
			C6-0.2,5.8-0.1,5.7-0.1c-0.3,0-0.5,0.3-0.6,0.2C5,0,5.1-0.1,5-0.2C4.9-0.4,4.8-0.3,4.7-0.4C4.5-0.6,4.6-0.7,4.4-1
			C4.3-1.1,4.2-1.2,4-1.3c-0.2-0.1-0.3,0-0.5-0.1C3.2-1.4,3.2-1.6,3-1.6c-0.2,0-0.3,0-0.4,0.1C2.2-1.4,2.2-1.2,2.1-1.2
			c-0.2,0-0.2-0.2-0.5-0.2c-0.1,0-0.2,0-0.3,0C1.1-1.3,1.3-1.1,1.2-1C1.1-0.9,1-0.9,0.9-1C0.8-1,0.8-1.1,0.8-1.2
			C0.6-1.4-0.4-1.1-0.6-0.5c0,0.1-0.1,0.2-0.2,0.3c-0.2,0.1-0.3,0-0.5,0c-0.3,0-0.5,0.2-1.1,1c0,0-0.1,0.1-0.6,0.6
			c-0.9,1-1,1.1-1.1,1.4c0,0.5,0,0.7,0,0.7c0,0.1,0.1,0.3,0,0.4c-0.1,0.1-0.1,0-0.2,0.1c-0.1,0.1,0.1,0.4,0,0.8c0,0,0,0,0,0.3
			c-0.1,0.5-0.1,0.6,0,0.7C-4.1,5.8-4,5.8-3.9,5.8c0.2,0,0.3-0.1,0.4-0.1c0.4-0.5,0.8-0.9,1.1-1.4C-2.6,4.6-2.7,4.8-2.9,5
			C-3,5.2-3.2,5.4-3.3,5.7c0,0.1-0.1,0.2-0.2,0.4c-0.1,0.2-0.2,0.5-0.1,0.8C-3.5,7-3.5,7-3.4,7.2c0,0.2,0,0.3,0,0.4
			c0,0.1,0.1,0.1,0.2,0.1c0.1,0.1,0,0.3,0,0.6c0,0.2,0.1,0.1,0.1,0.3c0.1,0.3-0.1,0.4,0,0.7c0,0.1,0,0.2,0.1,0.3
			c0.1,0.1,0.4-0.1,0.6,0c0.2,0.1,0.1,0.3,0.3,0.4c0.1,0,0.2-0.1,0.4,0c0,0,0.3,0,0.3,0.1c0,0.1-0.1,0.3-0.3,0.4
			c-0.4,0.2-0.8-0.1-0.9,0c0,0.1,0.1,0.2,0.2,0.3c1,0.9,1,1,1.3,1.2c0.3,0.2,0.3,0.1,0.7,0.3c0.5,0.3,1.1,0.6,1.1,1
			c0,0.2-0.2,0.3-0.1,0.6c0,0.2,0.1,0.5,0.3,0.6c0.2,0.1,0.3-0.1,0.6-0.1c0.3,0,0.3,0.2,0.6,0.3c0.4,0,0.5-0.4,0.8-0.4
			c0.2,0,0.2,0.2,0.4,0.3c0.2,0.1,0.4,0,0.5,0c1-1.1,2.6-2.7,4.6-4.8c1.6-1.7,2.1-2.2,3-3.1c2.6-2.5,5.4-4.5,5.5-4.3
			c0.1,0.1-1.2,1.3-5.5,5.4c-3,2.8-5.4,5.2-7.1,6.8c0,0.3,0.1,0.5,0.2,0.5c0.2,0.1,0.5-0.2,0.8,0c0.1,0.1,0.3,0.2,0.3,0.4
			c0,0.2,0,0.3,0.1,0.4c0.1,0.1,0.1,0,0.2,0.1c0.2,0.2,0.1,0.3,0.3,0.5c0.2,0.1,0.4,0,0.4,0.2c0,0.1,0,0.1,0,0.3
			c0,0.1,0.2,0.1,0.2,0.3c0,0.2-0.3,0.3-0.3,0.6c0,0.2,0.1,0.2,0.1,0.5c0,0.5-0.6,0.6-0.5,0.9c0,0.2,0.2,0.4,0.4,0.5
			c0.3,0,0.5-0.4,0.8-0.4c0.4,0,0.6,0.6,0.9,0.5c0.3,0,0.3-0.4,0.6-0.4c0.2,0,0.3,0.1,0.4,0c0.1-0.1,0.1-0.2,0.3-0.3
			c0.1,0,0.1,0,0.2,0c0.2,0,0.6-0.4,0.7-0.8c0.1-0.4,0-0.5,0.2-0.8c0.1-0.2,0.3-0.3,0.4-0.4c0.5-0.4,1.2-1,1.8-1.6
			c0.8-0.8,0.9-1.1,1.5-1.4c0.1,0,0.3-0.1,0.5-0.3c0.3-0.3,0.4-0.6,0.6-0.8c0.4-0.8,0.8-0.8,1.7-2c0-0.1,0.2-0.3,0.2-0.4
			c-0.1-0.1-1.2,1.1-1.4,1c-0.1-0.1-0.1-0.2-0.1-0.2c0.1-0.6,0.8-0.8,1.9-1.7c0.3-0.2,0.2-0.2,0.5-0.5c0.8-0.7,1.7-1.3,2-1.7
			c0.1-0.3,0.2-0.6,0.2-0.6c0-0.1,0-0.1,0.1-0.2c0.1-0.3,0.2-0.4,0.7-0.9C21.3,5.3,21.4,5.2,21.3,5.1z M4.4,4.3
			C4.1,4.7,3.7,5,3.5,5.2c0.2-0.3,0.4-0.6,0.8-0.9C4.4,4.1,4.5,4,4.7,3.9C4.6,4.1,4.5,4.2,4.4,4.3z M4.2,3.1c0.5-0.5,1-1,1.4-1.4
			c-0.3,0.5-0.8,1-1.3,1.5C4,3.5,3.7,3.8,3.4,4.1C3.6,3.8,3.9,3.4,4.2,3.1z M-1.4,3.1C-1.3,2.9-1.2,2.7-1,2.4
			c0.1-0.1,0.2-0.2,0.2-0.2c0,0.1-0.1,0.2-0.2,0.3C-1.1,2.7-1.2,2.9-1.4,3.1z M-0.6,11.2c-0.1,0.1-0.2,0.2-0.3,0.2
			c0,0,0-0.2,0.1-0.3c0.1-0.1,0.3-0.2,0.3-0.2C-0.4,11-0.5,11.1-0.6,11.2z M-0.9,6.6c0.3-0.4,0.7-0.8,1-1.2c0,0.1,0,0.2,0,0.3
			C-0.2,6-0.5,6.3-0.9,6.6z M0.9,12.6c0,0-0.2-0.2-0.5-0.6c-0.1-0.1-0.2-0.2-0.2-0.3c0-0.1,0.1-0.1,0.2-0.2c0.1-0.1,0.3-0.2,0.4-0.5
			c0,0.2-0.1,0.3-0.1,0.4c0,0.1-0.1,0.2-0.1,0.3c0,0.1,0.1,0,0.1,0.1c0.1,0.1,0,0.2,0,0.3C0.7,12.4,0.9,12.6,0.9,12.6z M0.8,1.3
			C0.9,1.1,1,0.9,1.2,0.7c0.1-0.1,0.2-0.2,0.2-0.2c0,0.1-0.1,0.2-0.2,0.3C1.1,1,0.9,1.1,0.8,1.3z M3.6,7.9c1-1.3,2.3-2.8,3.8-4.2
			c1.1-1.1,2.2-2,3.2-2.8C9.8,1.6,9.1,2.3,8.3,3C6.7,4.6,5.1,6.3,3.6,7.9z M8.5,3.7c0.8-0.8,1.6-1.5,2.4-2c-0.4,0.5-0.9,1-1.4,1.6
			C8.3,4.4,7.2,5.5,6.1,6.6C6.7,5.7,7.5,4.7,8.5,3.7z M10.3,5.4c1.1-0.9,2.2-1.8,3.2-2.6c-0.7,0.7-1.4,1.4-2.2,2.1
			C9.7,6.4,8.2,7.7,6.7,8.8C7.8,7.7,9,6.6,10.3,5.4z M12,5.6C10.5,7,8.9,8.3,7.4,9.4C8.5,8.3,9.7,7.2,11,6c1.1-0.9,2.2-1.8,3.2-2.6
			C13.6,4.1,12.8,4.9,12,5.6z M17.8,4c-0.7,0.7-1.4,1.4-2.2,2.1C14,7.6,12.4,8.9,11,10c1.1-1.1,2.3-2.2,3.6-3.4
			C15.7,5.7,16.7,4.8,17.8,4z M8.3,11.8c1.4-1.7,3.1-3.5,5.1-5.3C14.3,5.7,15.2,5,16,4.3c-1,1-1.9,1.9-2.9,2.9
			C11.5,8.7,9.9,10.3,8.3,11.8z M8.7,13.4c1.6-1.5,3.2-3.1,5-4.7c1.4-1.3,2.8-2.4,4.2-3.5c-1.1,1.1-2.3,2.1-3.4,3.2
			C12.5,10.1,10.6,11.8,8.7,13.4z M8.9,14.4c1.1-1.3,2.5-2.7,4.1-4.1c1.4-1.2,2.7-2.2,4-3c-1.1,1-2.2,1.9-3.3,2.9
			C12.1,11.6,10.5,13,8.9,14.4z M17,8.7c-1.2,1.1-2.4,2.1-3.6,3c0.2-0.2,0.4-0.4,0.6-0.6c0.8-0.7,1.5-1.4,2.2-2.1
			c-0.1,0.1-0.2,0.1-0.3,0.2c-0.1,0-0.1,0.1-0.2,0.2c-1.3,1.1-2.4,2.2-3.5,3.3c-0.9,0.8-1.8,1.5-2.7,2.1c1.1-1.1,2.3-2.2,3.6-3.4
			c1-0.9,2-1.7,2.9-2.4c1-0.9,2.1-1.7,3-2.5C18.5,7.3,17.8,8,17,8.7z"/>
	</defs>
	<clipPath id="SVGID_2_">
		<use xlink:href="#SVGID_1_"  style="overflow:visible;"/>
	</clipPath>
	<polygon class="st0" points="13.9,0 2.1,2.1 2.1,5.3 13.9,3.2 	"/>
	<polygon class="st0" points="13.9,5.3 2.1,7.5 2.1,10.7 13.9,8.5 	"/>
	<polygon class="st0" points="13.9,10.7 2.1,12.8 2.1,16 13.9,13.9 	"/>
</g>
</svg>
