<?xml version="1.0" encoding="utf-8"?>
<!-- Generator: Adobe Illustrator 23.0.0, SVG Export Plug-In . SVG Version: 6.00 Build 0)  -->
<svg version="1.1" id="Layer_1" xmlns="http://www.w3.org/2000/svg" xmlns:xlink="http://www.w3.org/1999/xlink" x="0px" y="0px"
	 viewBox="0 0 16 16" style="enable-background:new 0 0 16 16;" xml:space="preserve">
<style type="text/css">
	.st0{clip-path:url(#SVGID_2_);fill:#F75049;}
</style>
<g>
	<defs>
		<path id="SVGID_1_" d="M19.2,6.2c-0.1-0.1-0.3,0-0.6-0.2c-0.2-0.2-0.2-0.3-0.3-0.4c-0.4-0.2-1.3,0.5-1.3,0.5c0,0,0.4-0.3,0.7-0.7
			c0.2-0.2,0.6-0.7,0.5-1C18.2,4.2,18,4.2,18,4.1c0-0.3,0.5-0.4,0.4-0.7c0-0.2-0.2-0.3-0.3-0.3c-0.3-0.1-0.8,0.2-0.8,0.2
			c0,0,0.3-0.2,0.4-0.5c0-0.1,0.2-0.3,0.1-0.5c-0.1-0.1-0.3-0.1-0.4-0.1c-0.1,0-0.2,0.1-0.2,0c0,0,0-0.1,0-0.2
			c0-0.2-0.3-0.3-0.6-0.3c-0.5,0-0.9,0.5-1,0.4c-0.1-0.1,0.5-0.5,0.4-0.9c0-0.1-0.2-0.3-0.4-0.3c-0.3,0-0.4,0.3-0.5,0.3
			C15,1.2,15.2,0.6,15,0.4c-0.1-0.1-0.3,0.1-0.6,0c-0.2-0.1-0.2-0.1-0.3-0.2c-0.3-0.1-0.8,0.4-1.3,0.9c-0.2,0.2-0.6,0.5-1.1,0.8
			c0.3-0.3,0.5-0.6,0.7-0.7C12.8,0.7,13,0.6,13,0.3c0-0.1,0-0.4-0.2-0.4c-0.2-0.1-0.4,0.2-1.1,0.6c-0.2,0.1-0.3,0.2-0.4,0.3
			c0,0,0.3-0.4,0.2-0.7c0,0-0.1-0.2-0.2-0.3c-0.4-0.3-1.1-0.2-1.2-0.2C9.3-0.2,9.1,0.4,8,0.9c0,0-0.1,0.1-0.3,0.2
			C7.3,1.3,7.1,1.4,7,1.5C6.8,1.7,6.6,1.8,6.5,2.1C6.3,2.3,6.4,2.5,6.2,2.7C6.1,2.8,5.9,2.8,5.9,2.8C5.3,3,4.6,4,4.5,4.2
			C4.1,4.7,2.8,6.1-0.7,9.2c4.7-5,6.2-6.6,6.2-6.7c0,0,0,0,0,0c0-0.1,0.2-0.4,0-0.6c-0.1-0.1-0.2,0-0.3-0.1c0,0,0-0.1,0-0.1
			c0-0.2,0.4-0.2,0.4-0.3c0,0-0.1-0.1-0.2-0.1C5.1,1.1,5.1,1,5,1C4.7,0.9,4.5,1.1,4.3,1.2C4.1,1.3,4,1.4,3.9,1.4c0,0,0-0.2,0-0.3
			C3.9,1,3.7,1,3.6,1C3.3,1,3.1,1.3,3,1.2c-0.1,0,0-0.2-0.1-0.3C2.8,0.8,2.7,0.8,2.6,0.7C2.4,0.6,2.5,0.5,2.3,0.2
			C2.2,0.1,2.1-0.1,1.8-0.1c-0.2-0.1-0.3,0-0.5-0.1C1.1-0.3,1.1-0.4,0.8-0.5c-0.2,0-0.3,0-0.4,0.1C0.1-0.2,0.1-0.1,0-0.1
			c-0.2,0-0.2-0.2-0.5-0.2c-0.1,0-0.2,0-0.3,0c-0.1,0.1,0,0.4-0.1,0.5c-0.1,0.1-0.2,0.1-0.3,0C-1.3,0.1-1.3,0-1.3,0
			C-1.5-0.2-2.5,0-2.8,0.6c0,0.1-0.1,0.2-0.2,0.3c-0.2,0.1-0.3,0-0.5,0c-0.3,0-0.5,0.2-1.1,1c0,0-0.1,0.1-0.6,0.6
			c-0.9,1-1,1.1-1.1,1.4c0,0.5,0,0.7,0,0.7c0,0.1,0.1,0.3,0,0.4c-0.1,0.1-0.1,0-0.2,0.1c-0.1,0.1,0.1,0.4,0,0.8c0,0,0,0,0,0.3
			c-0.1,0.5-0.1,0.6,0,0.7C-6.2,6.9-6.1,6.9-6,6.9c0.2,0,0.3-0.1,0.4-0.1c0.4-0.5,0.8-0.9,1.1-1.4C-4.7,5.8-4.9,6-5,6.2
			c-0.2,0.2-0.3,0.4-0.5,0.7c0,0.1-0.1,0.2-0.2,0.4C-5.7,7.5-5.8,7.7-5.7,8c0,0.1,0.1,0.2,0.1,0.3c0,0.2,0,0.3,0,0.4
			c0,0.1,0.1,0.1,0.2,0.1c0.1,0.1,0,0.3,0,0.6c0,0.2,0.1,0.1,0.1,0.3c0.1,0.3-0.1,0.4,0,0.7c0,0.1,0,0.2,0.1,0.3
			c0.1,0.1,0.4-0.1,0.6,0c0.2,0.1,0.1,0.3,0.3,0.4c0.1,0,0.2-0.1,0.4,0c0,0,0.3,0,0.3,0.1c0,0.1-0.1,0.3-0.3,0.4
			c-0.4,0.2-0.8-0.1-0.9,0c0,0.1,0.1,0.2,0.2,0.3c1,0.9,1,1,1.3,1.2c0.3,0.2,0.3,0.1,0.7,0.3c0.5,0.3,1.1,0.6,1.1,1
			c0,0.2-0.2,0.3-0.1,0.6c0,0.2,0.1,0.5,0.3,0.6c0.2,0.1,0.3-0.1,0.6-0.1c0.3,0,0.3,0.2,0.6,0.3c0.4,0,0.5-0.4,0.8-0.4
			c0.2,0,0.2,0.2,0.4,0.3c0.2,0.1,0.4,0,0.5,0c1-1.1,2.6-2.7,4.6-4.8c1.6-1.7,2.1-2.2,3-3.1c2.6-2.5,5.4-4.5,5.5-4.3
			c0.1,0.1-1.2,1.3-5.5,5.4c-3,2.8-5.4,5.2-7.1,6.8c0,0.3,0.1,0.5,0.2,0.5c0.2,0.1,0.5-0.2,0.8,0c0.1,0.1,0.3,0.2,0.3,0.4
			c0,0.2,0,0.3,0.1,0.4c0.1,0.1,0.1,0,0.2,0.1c0.2,0.2,0.1,0.3,0.3,0.5c0.2,0.1,0.4,0,0.4,0.2c0,0.1,0,0.1,0,0.3
			c0,0.1,0.2,0.1,0.2,0.3c0,0.2-0.3,0.3-0.3,0.6c0,0.2,0.1,0.2,0.1,0.5c0,0.5-0.6,0.6-0.5,0.9c0,0.2,0.2,0.4,0.4,0.5
			c0.3,0,0.5-0.4,0.8-0.4c0.4,0,0.6,0.6,0.9,0.5c0.3,0,0.3-0.4,0.6-0.4c0.2,0,0.3,0.1,0.4,0c0.1-0.1,0.1-0.2,0.3-0.3
			c0.1,0,0.1,0,0.2,0c0.2,0,0.6-0.4,0.7-0.8c0.1-0.4,0-0.5,0.2-0.8c0.1-0.2,0.3-0.3,0.4-0.4c0.5-0.4,1.2-1,1.8-1.6
			c0.8-0.8,0.9-1.1,1.5-1.4c0.1,0,0.3-0.1,0.5-0.3c0.3-0.3,0.4-0.6,0.6-0.8c0.4-0.8,0.8-0.8,1.7-2c0-0.1,0.2-0.3,0.2-0.4
			c-0.1-0.1-1.2,1.1-1.4,1c-0.1-0.1-0.1-0.2-0.1-0.2c0.1-0.6,0.8-0.8,1.9-1.7c0.3-0.2,0.2-0.2,0.5-0.5c0.8-0.7,1.7-1.3,2-1.7
			C17.9,8.3,18,8,18,8c0-0.1,0-0.1,0.1-0.2c0.1-0.3,0.2-0.4,0.7-0.9C19.2,6.4,19.3,6.3,19.2,6.2z M2.3,5.5C2,5.9,1.6,6.1,1.3,6.3
			c0.2-0.3,0.4-0.6,0.8-0.9c0.1-0.1,0.3-0.2,0.4-0.3C2.5,5.2,2.4,5.3,2.3,5.5z M2,4.3c0.5-0.5,1-1,1.4-1.4c-0.3,0.5-0.8,1-1.3,1.5
			C1.9,4.7,1.6,4.9,1.3,5.2C1.5,4.9,1.8,4.6,2,4.3z M-3.5,4.2C-3.4,4-3.3,3.8-3.1,3.6C-3,3.5-2.9,3.4-2.8,3.4c0,0.1-0.1,0.2-0.2,0.3
			C-3.2,3.9-3.3,4.1-3.5,4.2z M-2.7,12.4c-0.1,0.1-0.2,0.2-0.3,0.2c0,0,0-0.2,0.1-0.3c0.1-0.1,0.3-0.2,0.3-0.2
			C-2.5,12.1-2.6,12.2-2.7,12.4z M-3,7.7c0.3-0.4,0.7-0.8,1-1.2c0,0.1,0,0.2,0,0.3C-2.3,7.1-2.6,7.4-3,7.7z M-1.3,13.7
			c0,0-0.2-0.2-0.5-0.6C-1.9,13-1.9,13-1.9,12.9c0-0.1,0.1-0.1,0.2-0.2c0.1-0.1,0.3-0.2,0.4-0.5c0,0.2-0.1,0.3-0.1,0.4
			c0,0.1-0.1,0.2-0.1,0.3c0,0.1,0.1,0,0.1,0.1c0.1,0.1,0,0.2,0,0.3C-1.4,13.5-1.2,13.7-1.3,13.7z M-1.3,2.4C-1.3,2.2-1.1,2-0.9,1.8
			c0.1-0.1,0.2-0.2,0.2-0.2c0,0.1-0.1,0.2-0.2,0.3C-1,2.1-1.2,2.3-1.3,2.4z M1.5,9c1-1.3,2.3-2.8,3.8-4.2c1.1-1.1,2.2-2,3.2-2.8
			C7.7,2.7,7,3.4,6.2,4.2C4.6,5.8,3,7.4,1.5,9z M6.4,4.8C7.2,4,8,3.3,8.7,2.8c-0.4,0.5-0.9,1-1.4,1.6C6.2,5.6,5.1,6.7,4,7.7
			C4.6,6.8,5.4,5.8,6.4,4.8z M8.2,6.6c1.1-0.9,2.2-1.8,3.2-2.6C10.7,4.7,10,5.4,9.2,6.1C7.6,7.6,6.1,8.8,4.6,10
			C5.7,8.9,6.9,7.7,8.2,6.6z M9.9,6.7c-1.6,1.4-3.1,2.7-4.6,3.8c1.1-1.1,2.3-2.2,3.6-3.4c1.1-0.9,2.2-1.8,3.2-2.6
			C11.4,5.3,10.7,6,9.9,6.7z M15.7,5.2c-0.7,0.7-1.4,1.4-2.2,2.1c-1.6,1.4-3.1,2.7-4.6,3.8c1.1-1.1,2.3-2.2,3.6-3.4
			C13.6,6.8,14.6,6,15.7,5.2z M6.2,12.9c1.4-1.7,3.1-3.5,5.1-5.3c0.9-0.8,1.8-1.5,2.6-2.2c-1,1-1.9,1.9-2.9,2.9
			C9.4,9.9,7.8,11.4,6.2,12.9z M6.6,14.6c1.6-1.5,3.2-3.1,5-4.7c1.4-1.3,2.8-2.4,4.2-3.5c-1.1,1.1-2.3,2.1-3.4,3.2
			C10.4,11.3,8.5,13,6.6,14.6z M6.8,15.6c1.1-1.3,2.5-2.7,4.1-4.1c1.4-1.2,2.7-2.2,4-3c-1.1,1-2.2,1.9-3.3,2.9
			C10,12.8,8.4,14.2,6.8,15.6z M14.9,9.9c-1.2,1.1-2.4,2.1-3.6,3c0.2-0.2,0.4-0.4,0.6-0.6c0.8-0.7,1.5-1.4,2.2-2.1
			c-0.1,0.1-0.2,0.1-0.3,0.2c-0.1,0-0.1,0.1-0.2,0.2c-1.3,1.1-2.4,2.2-3.5,3.3c-0.9,0.8-1.8,1.5-2.7,2.1c1.1-1.1,2.3-2.2,3.6-3.4
			c1-0.9,2-1.7,2.9-2.4c1-0.9,2.1-1.7,3-2.5C16.4,8.4,15.7,9.1,14.9,9.9z"/>
	</defs>
	<clipPath id="SVGID_2_">
		<use xlink:href="#SVGID_1_"  style="overflow:visible;"/>
	</clipPath>
	<path class="st0" d="M6.5,8.9v5.9l0,0c0.7,0.1,1.3,0.3,2,0.5l0,0V16H2.6v-0.7l0,0c0.3-0.1,0.5-0.2,0.8-0.3l0,0l0,0
		c0.3-0.1,0.6-0.2,0.8-0.2l0,0V1.2l0,0C4,1.2,3.6,1.1,3.4,1l0,0l0,0C3.1,0.9,2.9,0.8,2.6,0.7l0,0V0h10.7l0,0c0,0.6,0,1.2-0.1,1.8
		l0,0l0,0c0,0.6-0.1,1.2-0.2,1.9l0,0h-0.6l-0.9-2.5H6.5v6.5h4L11.4,6h0.5l0,0c0,0.3,0.1,0.7,0.1,1.1l0,0l0,0c0,0.4,0,0.8,0,1.2l0,0
		l0,0c0,0.4,0,0.8,0,1.2l0,0l0,0c0,0.4,0,0.8-0.1,1.1l0,0h-0.5l-0.9-1.8H6.5z"/>
</g>
</svg>
