<?xml version="1.0" encoding="utf-8"?>
<!-- Generator: Adobe Illustrator 23.0.0, SVG Export Plug-In . SVG Version: 6.00 Build 0)  -->
<svg version="1.1" id="Layer_1" xmlns="http://www.w3.org/2000/svg" xmlns:xlink="http://www.w3.org/1999/xlink" x="0px" y="0px"
	 viewBox="0 0 16 16" style="enable-background:new 0 0 16 16;" xml:space="preserve">
<style type="text/css">
	.st0{clip-path:url(#SVGID_2_);}
	.st1{fill:none;stroke:#F75049;stroke-miterlimit:10;}
</style>
<g>
	<defs>
		<path id="SVGID_1_" d="M22,5.1c-0.1-0.1-0.3,0-0.6-0.2c-0.2-0.2-0.2-0.3-0.3-0.4c-0.4-0.2-1.3,0.5-1.3,0.5c0,0,0.4-0.3,0.7-0.7
			c0.2-0.2,0.6-0.7,0.5-1C20.9,3,20.7,3,20.7,2.9c0-0.3,0.5-0.4,0.4-0.7c0-0.2-0.2-0.3-0.3-0.3C20.5,1.7,20.1,2,20.1,2
			c0,0,0.3-0.2,0.4-0.5c0-0.1,0.2-0.3,0.1-0.5C20.5,1,20.3,0.9,20.2,1c-0.1,0-0.2,0.1-0.2,0c0,0,0-0.1,0-0.2c0-0.2-0.3-0.3-0.6-0.3
			c-0.5,0-0.9,0.5-1,0.4c-0.1-0.1,0.5-0.5,0.4-0.9c0-0.1-0.2-0.3-0.4-0.3c-0.3,0-0.4,0.3-0.5,0.3C17.7,0,18-0.6,17.7-0.8
			c-0.1-0.1-0.3,0.1-0.6,0C17-0.8,17-0.9,16.9-1c-0.3-0.1-0.8,0.4-1.3,0.9c-0.2,0.2-0.6,0.5-1.1,0.8C14.7,0.4,15,0.2,15.1,0
			c0.4-0.4,0.6-0.6,0.6-0.9c0-0.1,0-0.4-0.2-0.4c-0.2-0.1-0.4,0.2-1.1,0.6c-0.2,0.1-0.3,0.2-0.4,0.3c0,0,0.3-0.4,0.2-0.7
			c0,0-0.1-0.2-0.2-0.3c-0.4-0.3-1.1-0.2-1.2-0.2c-0.9,0.2-1.1,0.8-2.1,1.3c0,0-0.1,0.1-0.3,0.2C10,0.1,9.8,0.2,9.8,0.3
			C9.5,0.5,9.3,0.6,9.2,0.9C9.1,1.1,9.1,1.3,9,1.5C8.8,1.6,8.7,1.6,8.6,1.7C8,1.8,7.3,2.9,7.2,3C6.8,3.5,5.5,4.9,2,8.1
			c4.7-5,6.2-6.6,6.2-6.7c0,0,0,0,0,0c0-0.1,0.2-0.4,0-0.6C8.2,0.7,8,0.7,8,0.6c0,0,0-0.1,0-0.1c0-0.2,0.4-0.2,0.4-0.3
			c0,0-0.1-0.1-0.2-0.1C7.9-0.1,7.9-0.1,7.7-0.2C7.5-0.2,7.2-0.1,7.1,0C6.9,0.1,6.7,0.2,6.7,0.2c0,0,0-0.2,0-0.3
			C6.6-0.2,6.4-0.2,6.4-0.2C6-0.1,5.8,0.1,5.7,0c-0.1,0,0-0.2-0.1-0.3C5.6-0.4,5.4-0.3,5.3-0.5C5.1-0.6,5.2-0.7,5-1
			C4.9-1.1,4.8-1.2,4.6-1.3c-0.2-0.1-0.3,0-0.5-0.1C3.8-1.5,3.8-1.6,3.6-1.7c-0.2,0-0.3,0-0.4,0.1C2.9-1.4,2.9-1.3,2.7-1.3
			c-0.2,0-0.2-0.2-0.5-0.2c-0.1,0-0.2,0-0.3,0C1.8-1.4,1.9-1.1,1.8-1C1.7-0.9,1.6-1,1.5-1C1.4-1.1,1.5-1.1,1.4-1.2
			C1.2-1.4,0.3-1.2,0-0.6c0,0.1-0.1,0.2-0.2,0.3c-0.2,0.1-0.3,0-0.5,0c-0.3,0-0.5,0.2-1.1,1c0,0-0.1,0.1-0.6,0.6
			c-0.9,1-1,1.1-1.1,1.4c0,0.5,0,0.7,0,0.7c0,0.1,0.1,0.3,0,0.4c-0.1,0.1-0.1,0-0.2,0.1c-0.1,0.1,0.1,0.4,0,0.8c0,0,0,0,0,0.3
			c-0.1,0.5-0.1,0.6,0,0.7c0.1,0.1,0.2,0.1,0.3,0.1c0.2,0,0.3-0.1,0.4-0.1c0.4-0.5,0.8-0.9,1.1-1.4C-2,4.6-2.1,4.8-2.2,5
			c-0.2,0.2-0.3,0.4-0.5,0.7c0,0.1-0.1,0.2-0.2,0.4C-3,6.3-3.1,6.6-2.9,6.8c0,0.1,0.1,0.2,0.1,0.3c0,0.2,0,0.3,0,0.4
			c0,0.1,0.1,0.1,0.2,0.1c0.1,0.1,0,0.3,0,0.6c0,0.2,0.1,0.1,0.1,0.3c0.1,0.3-0.1,0.4,0,0.7c0,0.1,0,0.2,0.1,0.3
			c0.1,0.1,0.4-0.1,0.6,0c0.2,0.1,0.1,0.3,0.3,0.4c0.1,0,0.2-0.1,0.4,0c0,0,0.3,0,0.3,0.1c0,0.1-0.1,0.3-0.3,0.4
			c-0.4,0.2-0.8-0.1-0.9,0c0,0.1,0.1,0.2,0.2,0.3c1,0.9,1,1,1.3,1.2C0,12.1-0.1,12,0.3,12.2c0.5,0.3,1.1,0.6,1.1,1
			c0,0.2-0.2,0.3-0.1,0.6c0,0.2,0.1,0.5,0.3,0.6c0.2,0.1,0.3-0.1,0.6-0.1c0.3,0,0.3,0.2,0.6,0.3c0.4,0,0.5-0.4,0.8-0.4
			c0.2,0,0.2,0.2,0.4,0.3c0.2,0.1,0.4,0,0.5,0c1-1.1,2.6-2.7,4.6-4.8c1.6-1.7,2.1-2.2,3-3.1c2.6-2.5,5.4-4.5,5.5-4.3
			c0.1,0.1-1.2,1.3-5.5,5.4c-3,2.8-5.4,5.2-7.1,6.8c0,0.3,0.1,0.5,0.2,0.5c0.2,0.1,0.5-0.2,0.8,0C6,15,6.2,15.2,6.3,15.4
			c0,0.2,0,0.3,0.1,0.4c0.1,0.1,0.1,0,0.2,0.1c0.2,0.2,0.1,0.3,0.3,0.5c0.2,0.1,0.4,0,0.4,0.2c0,0.1,0,0.1,0,0.3
			c0,0.1,0.2,0.1,0.2,0.3c0,0.2-0.3,0.3-0.3,0.6c0,0.2,0.1,0.2,0.1,0.5c0,0.5-0.6,0.6-0.5,0.9c0,0.2,0.2,0.4,0.4,0.5
			c0.3,0,0.5-0.4,0.8-0.4c0.4,0,0.6,0.6,0.9,0.5c0.3,0,0.3-0.4,0.6-0.4c0.2,0,0.3,0.1,0.4,0c0.1-0.1,0.1-0.2,0.3-0.3
			c0.1,0,0.1,0,0.2,0c0.2,0,0.6-0.4,0.7-0.8c0.1-0.4,0-0.5,0.2-0.8c0.1-0.2,0.3-0.3,0.4-0.4c0.5-0.4,1.2-1,1.8-1.6
			c0.8-0.8,0.9-1.1,1.5-1.4c0.1,0,0.3-0.1,0.5-0.3c0.3-0.3,0.4-0.6,0.6-0.8c0.4-0.8,0.8-0.8,1.7-2c0-0.1,0.2-0.3,0.2-0.4
			c-0.1-0.1-1.2,1.1-1.4,1c-0.1-0.1-0.1-0.2-0.1-0.2c0.1-0.6,0.8-0.8,1.9-1.7c0.3-0.2,0.2-0.2,0.5-0.5c0.8-0.7,1.7-1.3,2-1.7
			c0.1-0.3,0.2-0.6,0.2-0.6c0-0.1,0-0.1,0.1-0.2c0.1-0.3,0.2-0.4,0.7-0.9C21.9,5.3,22,5.1,22,5.1z M5,4.3C4.7,4.7,4.4,5,4.1,5.2
			c0.2-0.3,0.4-0.6,0.8-0.9C5,4.1,5.2,4,5.3,3.9C5.2,4,5.1,4.2,5,4.3z M4.8,3.1c0.5-0.5,1-1,1.4-1.4c-0.3,0.5-0.8,1-1.3,1.5
			C4.6,3.5,4.3,3.8,4,4C4.2,3.7,4.5,3.4,4.8,3.1z M-0.8,3c0.1-0.2,0.2-0.4,0.4-0.6c0.1-0.1,0.2-0.2,0.2-0.2c0,0.1-0.1,0.2-0.2,0.3
			C-0.4,2.7-0.6,2.9-0.8,3z M0.1,11.2c-0.1,0.1-0.2,0.2-0.3,0.2c0,0,0-0.2,0.1-0.3c0.1-0.1,0.3-0.2,0.3-0.2
			C0.2,10.9,0.2,11.1,0.1,11.2z M-0.3,6.5c0.3-0.4,0.7-0.8,1-1.2c0,0.1,0,0.2,0,0.3C0.4,5.9,0.1,6.2-0.3,6.5z M1.5,12.6
			c0,0-0.2-0.2-0.5-0.6c-0.1-0.1-0.2-0.2-0.2-0.3c0-0.1,0.1-0.1,0.2-0.2c0.1-0.1,0.3-0.2,0.4-0.5c0,0.2-0.1,0.3-0.1,0.4
			c0,0.1-0.1,0.2-0.1,0.3c0,0.1,0.1,0,0.1,0.1c0.1,0.1,0,0.2,0,0.3C1.4,12.3,1.5,12.5,1.5,12.6z M1.4,1.3c0.1-0.2,0.2-0.4,0.4-0.6
			C1.9,0.5,2,0.5,2.1,0.4C2,0.5,2,0.6,1.9,0.7C1.7,0.9,1.5,1.1,1.4,1.3z M4.2,7.9c1-1.3,2.3-2.8,3.8-4.2c1.1-1.1,2.2-2,3.2-2.8
			C10.5,1.5,9.7,2.2,9,3C7.3,4.6,5.7,6.2,4.2,7.9z M9.1,3.6c0.8-0.8,1.6-1.5,2.4-2c-0.4,0.5-0.9,1-1.4,1.6C9,4.4,7.8,5.5,6.7,6.5
			C7.3,5.7,8.1,4.6,9.1,3.6z M10.9,5.4c1.1-0.9,2.2-1.8,3.2-2.6c-0.7,0.7-1.4,1.4-2.2,2.1c-1.6,1.4-3.1,2.7-4.6,3.8
			C8.4,7.7,9.6,6.6,10.9,5.4z M12.6,5.5C11.1,7,9.5,8.3,8,9.4c1.1-1.1,2.3-2.2,3.6-3.4c1.1-0.9,2.2-1.8,3.2-2.6
			C14.2,4.1,13.4,4.8,12.6,5.5z M18.4,4c-0.7,0.7-1.4,1.4-2.2,2.1c-1.6,1.4-3.1,2.7-4.6,3.8c1.1-1.1,2.3-2.2,3.6-3.4
			C16.3,5.7,17.4,4.8,18.4,4z M8.9,11.7c1.4-1.7,3.1-3.5,5.1-5.3c0.9-0.8,1.8-1.5,2.6-2.2c-1,1-1.9,1.9-2.9,2.9
			C12.2,8.7,10.5,10.2,8.9,11.7z M9.3,13.4c1.6-1.5,3.2-3.1,5-4.7c1.4-1.3,2.8-2.4,4.2-3.5c-1.1,1.1-2.3,2.1-3.4,3.2
			C13.1,10.1,11.2,11.8,9.3,13.4z M9.5,14.4c1.1-1.3,2.5-2.7,4.1-4.1c1.4-1.2,2.7-2.2,4-3c-1.1,1-2.2,1.9-3.3,2.9
			C12.8,11.6,11.2,13,9.5,14.4z M17.6,8.7c-1.2,1.1-2.4,2.1-3.6,3c0.2-0.2,0.4-0.4,0.6-0.6c0.8-0.7,1.5-1.4,2.2-2.1
			c-0.1,0.1-0.2,0.1-0.3,0.2c-0.1,0-0.1,0.1-0.2,0.2c-1.3,1.1-2.4,2.2-3.5,3.3c-0.9,0.8-1.8,1.5-2.7,2.1c1.1-1.1,2.3-2.2,3.6-3.4
			c1-0.9,2-1.7,2.9-2.4c1-0.9,2.1-1.7,3-2.5C19.1,7.2,18.4,8,17.6,8.7z"/>
	</defs>
	<clipPath id="SVGID_2_">
		<use xlink:href="#SVGID_1_"  style="overflow:visible;"/>
	</clipPath>
	<g transform="translate(-192,-180)" class="st0">
		<ellipse class="st1" cx="200" cy="183.5" rx="6.5" ry="2.5"/>
		<path class="st1" d="M193.5,183.4v9.1"/>
		<path class="st1" d="M206.5,186.5c0,0.9-1.2,1.7-3.2,2.2s-4.5,0.4-6.5,0s-3.2-1.3-3.2-2.2"/>
		<path class="st1" d="M206.5,189.5c0,0.9-1.2,1.7-3.2,2.2s-4.5,0.4-6.5,0s-3.2-1.3-3.2-2.2"/>
		<path class="st1" d="M206.5,192.5c0,0.9-1.2,1.7-3.2,2.2s-4.5,0.4-6.5,0s-3.2-1.3-3.2-2.2"/>
		<path class="st1" d="M206.5,183.4v9.1"/>
	</g>
</g>
</svg>
