<?xml version="1.0" encoding="utf-8"?>
<!-- Generator: Adobe Illustrator 23.0.0, SVG Export Plug-In . SVG Version: 6.00 Build 0)  -->
<svg version="1.1" id="Layer_1" xmlns="http://www.w3.org/2000/svg" xmlns:xlink="http://www.w3.org/1999/xlink" x="0px" y="0px"
	 viewBox="0 0 16 16" style="enable-background:new 0 0 16 16;" xml:space="preserve">
<style type="text/css">
	.st0{clip-path:url(#SVGID_2_);fill-rule:evenodd;clip-rule:evenodd;fill:#F75049;}
</style>
<g>
	<defs>
		<path id="SVGID_1_" d="M21,2.8c-0.1-0.1-0.3,0-0.6-0.2c-0.2-0.2-0.2-0.3-0.3-0.4c-0.4-0.2-1.3,0.5-1.3,0.5c0,0,0.4-0.3,0.7-0.7
			c0.2-0.2,0.6-0.7,0.5-1c-0.1-0.2-0.3-0.2-0.3-0.3c0-0.3,0.5-0.4,0.4-0.7c0-0.2-0.2-0.3-0.3-0.3c-0.3-0.1-0.8,0.2-0.8,0.2
			c0,0,0.3-0.2,0.4-0.5c0-0.1,0.2-0.3,0.1-0.5c-0.1-0.1-0.3-0.1-0.4-0.1c-0.1,0-0.2,0.1-0.2,0c0,0,0-0.1,0-0.2
			c0-0.2-0.3-0.3-0.6-0.3c-0.5,0-0.9,0.5-1,0.4c-0.1-0.1,0.5-0.5,0.4-0.9c0-0.1-0.2-0.3-0.4-0.3c-0.3,0-0.4,0.3-0.5,0.3
			c-0.1-0.1,0.1-0.7-0.1-0.9c-0.1-0.1-0.3,0.1-0.6,0C16-3.1,16-3.2,15.9-3.2c-0.3-0.1-0.8,0.4-1.3,0.9c-0.2,0.2-0.6,0.5-1.1,0.8
			c0.3-0.3,0.5-0.6,0.7-0.7c0.4-0.4,0.6-0.6,0.6-0.9c0-0.1,0-0.4-0.2-0.4c-0.2-0.1-0.4,0.2-1.1,0.6c-0.2,0.1-0.3,0.2-0.4,0.3
			c0,0,0.3-0.4,0.2-0.7c0,0-0.1-0.2-0.2-0.3C12.7-4,12-3.9,11.9-3.8C11-3.6,10.8-3,9.8-2.5c0,0-0.1,0.1-0.3,0.2C9-2.1,8.8-2,8.7-2
			C8.5-1.8,8.3-1.6,8.2-1.4C8.1-1.1,8.1-1,8-0.8C7.8-0.7,7.7-0.6,7.6-0.6C7-0.5,6.3,0.6,6.2,0.7C5.8,1.3,4.5,2.6,1,5.8
			c4.7-5,6.2-6.6,6.2-6.7c0,0,0,0,0,0c0-0.1,0.2-0.4,0-0.6C7.2-1.6,7-1.5,7-1.6c0,0,0-0.1,0-0.1C7-2,7.3-2,7.3-2.1
			c0,0-0.1-0.1-0.2-0.1C6.9-2.3,6.9-2.4,6.7-2.5C6.5-2.5,6.2-2.4,6.1-2.3C5.8-2.2,5.7-2,5.7-2.1c0,0,0-0.2,0-0.3
			C5.6-2.5,5.4-2.4,5.3-2.4C5-2.4,4.8-2.2,4.7-2.2c-0.1,0,0-0.2-0.1-0.3C4.6-2.7,4.4-2.6,4.3-2.7C4.1-2.9,4.2-3,4-3.3
			C3.9-3.3,3.8-3.5,3.6-3.6c-0.2-0.1-0.3,0-0.5-0.1C2.8-3.7,2.8-3.9,2.6-3.9c-0.2,0-0.3,0-0.4,0.1C1.9-3.7,1.9-3.5,1.7-3.5
			c-0.2,0-0.2-0.2-0.5-0.2c-0.1,0-0.2,0-0.3,0c-0.1,0.1,0,0.4-0.1,0.5c-0.1,0.1-0.2,0.1-0.3,0C0.4-3.3,0.4-3.4,0.4-3.5
			C0.2-3.7-0.8-3.4-1-2.8c0,0.1-0.1,0.2-0.2,0.3c-0.2,0.1-0.3,0-0.5,0c-0.3,0-0.5,0.2-1.1,1c0,0-0.1,0.1-0.6,0.6
			c-0.9,1-1,1.1-1.1,1.4c0,0.5,0,0.7,0,0.7c0,0.1,0.1,0.3,0,0.4c-0.1,0.1-0.1,0-0.2,0.1c-0.1,0.1,0.1,0.4,0,0.8c0,0,0,0,0,0.3
			c-0.1,0.5-0.1,0.6,0,0.7c0.1,0.1,0.2,0.1,0.3,0.1c0.2,0,0.3-0.1,0.4-0.1C-3.6,2.9-3.2,2.4-2.8,2C-3,2.3-3.1,2.6-3.2,2.7
			c-0.2,0.2-0.3,0.4-0.5,0.7c0,0.1-0.1,0.2-0.2,0.4C-4,4-4.1,4.3-4,4.6c0,0.1,0.1,0.2,0.1,0.3c0,0.2,0,0.3,0,0.4
			c0,0.1,0.1,0.1,0.2,0.1c0.1,0.1,0,0.3,0,0.6c0,0.2,0.1,0.1,0.1,0.3c0.1,0.3-0.1,0.4,0,0.7c0,0.1,0,0.2,0.1,0.3
			c0.1,0.1,0.4-0.1,0.6,0c0.2,0.1,0.1,0.3,0.3,0.4c0.1,0,0.2-0.1,0.4,0c0,0,0.3,0,0.3,0.1c0,0.1-0.1,0.3-0.3,0.4
			c-0.4,0.2-0.8-0.1-0.9,0c0,0.1,0.1,0.2,0.2,0.3c1,0.9,1,1,1.3,1.2c0.3,0.2,0.3,0.1,0.7,0.3c0.5,0.3,1.1,0.6,1.1,1
			c0,0.2-0.2,0.3-0.1,0.6c0,0.2,0.1,0.5,0.3,0.6c0.2,0.1,0.3-0.1,0.6-0.1c0.3,0,0.3,0.2,0.6,0.3c0.4,0,0.5-0.4,0.8-0.4
			c0.2,0,0.2,0.2,0.4,0.3c0.2,0.1,0.4,0,0.5,0c1-1.1,2.6-2.7,4.6-4.8c1.6-1.7,2.1-2.2,3-3.1c2.6-2.5,5.4-4.5,5.5-4.3
			c0.1,0.1-1.2,1.3-5.5,5.4c-3,2.8-5.4,5.2-7.1,6.8c0,0.3,0.1,0.5,0.2,0.5c0.2,0.1,0.5-0.2,0.8,0c0.1,0.1,0.3,0.2,0.3,0.4
			c0,0.2,0,0.3,0.1,0.4c0.1,0.1,0.1,0,0.2,0.1c0.2,0.2,0.1,0.3,0.3,0.5c0.2,0.1,0.4,0,0.4,0.2c0,0.1,0,0.1,0,0.3
			c0,0.1,0.2,0.1,0.2,0.3c0,0.2-0.3,0.3-0.3,0.6c0,0.2,0.1,0.2,0.1,0.5c0,0.5-0.6,0.6-0.5,0.9c0,0.2,0.2,0.4,0.4,0.5
			c0.3,0,0.5-0.4,0.8-0.4c0.4,0,0.6,0.6,0.9,0.5C8,17.3,8.1,17,8.4,17c0.2,0,0.3,0.1,0.4,0c0.1-0.1,0.1-0.2,0.3-0.3
			c0.1,0,0.1,0,0.2,0c0.2,0,0.6-0.4,0.7-0.8c0.1-0.4,0-0.5,0.2-0.8c0.1-0.2,0.3-0.3,0.4-0.4c0.5-0.4,1.2-1,1.8-1.6
			c0.8-0.8,0.9-1.1,1.5-1.4c0.1,0,0.3-0.1,0.5-0.3c0.3-0.3,0.4-0.6,0.6-0.8c0.4-0.8,0.8-0.8,1.7-2c0-0.1,0.2-0.3,0.2-0.4
			c-0.1-0.1-1.2,1.1-1.4,1c-0.1-0.1-0.1-0.2-0.1-0.2C15.2,8.5,16,8.3,17,7.3c0.3-0.2,0.2-0.2,0.5-0.5c0.8-0.7,1.7-1.3,2-1.7
			c0.1-0.3,0.2-0.6,0.2-0.6c0-0.1,0-0.1,0.1-0.2C19.9,4.1,20,4,20.5,3.5C20.9,3,21,2.9,21,2.8z M4,2C3.7,2.4,3.4,2.7,3.1,2.9
			C3.2,2.6,3.5,2.3,3.9,2C4,1.8,4.2,1.7,4.3,1.6C4.2,1.8,4.1,1.9,4,2z M3.8,0.8c0.5-0.5,1-1,1.4-1.4c-0.3,0.5-0.8,1-1.3,1.5
			C3.6,1.2,3.3,1.5,3,1.8C3.2,1.5,3.5,1.1,3.8,0.8z M-1.8,0.8c0.1-0.2,0.2-0.4,0.4-0.6C-1.3,0.1-1.2,0-1.1-0.1
			c0,0.1-0.1,0.2-0.2,0.3C-1.4,0.4-1.6,0.6-1.8,0.8z M-0.9,8.9C-1,9-1.2,9.1-1.2,9.1c0,0,0-0.2,0.1-0.3C-1,8.7-0.8,8.6-0.8,8.6
			C-0.8,8.7-0.8,8.8-0.9,8.9z M-1.3,4.3c0.3-0.4,0.7-0.8,1-1.2c0,0.1,0,0.2,0,0.3C-0.6,3.7-0.9,4-1.3,4.3z M0.5,10.3
			c0,0-0.2-0.2-0.5-0.6c-0.1-0.1-0.2-0.2-0.2-0.3c0-0.1,0.1-0.1,0.2-0.2C0.1,9.2,0.3,9,0.4,8.8c0,0.2-0.1,0.3-0.1,0.4
			c0,0.1-0.1,0.2-0.1,0.3c0,0.1,0.1,0,0.1,0.1c0.1,0.1,0,0.2,0,0.3C0.3,10.1,0.5,10.3,0.5,10.3z M0.4-1c0.1-0.2,0.2-0.4,0.4-0.6
			C0.9-1.7,1-1.8,1.1-1.9C1-1.8,1-1.7,0.9-1.6C0.7-1.3,0.5-1.1,0.4-1z M3.2,5.6c1-1.3,2.3-2.8,3.8-4.2c1.1-1.1,2.2-2,3.2-2.8
			C9.4-0.7,8.7,0,8,0.7C6.3,2.3,4.7,4,3.2,5.6z M8.1,1.4c0.8-0.8,1.6-1.5,2.4-2c-0.4,0.5-0.9,1-1.4,1.6C8,2.1,6.8,3.2,5.7,4.3
			C6.3,3.4,7.1,2.4,8.1,1.4z M9.9,3.1c1.1-0.9,2.2-1.8,3.2-2.6c-0.7,0.7-1.4,1.4-2.2,2.1C9.4,4.1,7.8,5.4,6.3,6.5
			C7.4,5.4,8.6,4.3,9.9,3.1z M11.6,3.3C10.1,4.7,8.5,6,7,7.1C8.1,6,9.3,4.9,10.7,3.7c1.1-0.9,2.2-1.8,3.2-2.6
			C13.2,1.8,12.4,2.6,11.6,3.3z M17.4,1.7c-0.7,0.7-1.4,1.4-2.2,2.1c-1.6,1.4-3.1,2.7-4.6,3.8c1.1-1.1,2.3-2.2,3.6-3.4
			C15.3,3.4,16.4,2.5,17.4,1.7z M7.9,9.5C9.4,7.8,11,6,13,4.2c0.9-0.8,1.8-1.5,2.6-2.2c-1,1-1.9,1.9-2.9,2.9C11.1,6.4,9.5,8,7.9,9.5
			z M8.3,11.1c1.6-1.5,3.2-3.1,5-4.7c1.4-1.3,2.8-2.4,4.2-3.5c-1.1,1.1-2.3,2.1-3.4,3.2C12.1,7.8,10.2,9.5,8.3,11.1z M8.5,12.1
			C9.6,10.8,11,9.4,12.7,8c1.4-1.2,2.7-2.2,4-3c-1.1,1-2.2,1.9-3.3,2.9C11.8,9.3,10.1,10.7,8.5,12.1z M16.6,6.4
			c-1.2,1.1-2.4,2.1-3.6,3c0.2-0.2,0.4-0.4,0.6-0.6c0.8-0.7,1.5-1.4,2.2-2.1c-0.1,0.1-0.2,0.1-0.3,0.2c-0.1,0-0.1,0.1-0.2,0.2
			c-1.3,1.1-2.4,2.2-3.5,3.3c-0.9,0.8-1.8,1.5-2.7,2.1c1.1-1.1,2.3-2.2,3.6-3.4c1-0.9,2-1.7,2.9-2.4c1-0.9,2.1-1.7,3-2.5
			C18.1,5,17.4,5.7,16.6,6.4z"/>
	</defs>
	<clipPath id="SVGID_2_">
		<use xlink:href="#SVGID_1_"  style="overflow:visible;"/>
	</clipPath>
	<polygon class="st0" points="11.8,1.6 11.9,1.8 11.2,4.3 11,4.3 9.4,1.8 9.5,1.6 	"/>
	<polygon class="st0" points="6.5,1.6 6.6,1.8 4.7,4.5 4.5,4.4 4.1,1.7 4.2,1.6 	"/>
	<polygon class="st0" points="13.2,1.6 16,5.3 15.9,5.5 11.9,5.5 11.8,5.3 12.9,1.7 	"/>
	<polygon class="st0" points="8.1,1.6 10.9,5.3 10.8,5.5 5.2,5.5 5.1,5.3 7.9,1.6 	"/>
	<polygon class="st0" points="2.8,1.6 3.1,1.7 4.2,5.3 4.1,5.5 0.1,5.5 0,5.3 	"/>
	<polygon class="st0" points="15.9,6.1 16,6.3 8.7,14.5 8.4,14.3 11.8,6.2 11.9,6.1 	"/>
	<polygon class="st0" points="10.8,6.1 10.9,6.3 8.1,13.3 7.9,13.3 5.1,6.3 5.2,6.1 	"/>
	<polygon class="st0" points="4.1,6.1 4.2,6.2 7.6,14.3 7.3,14.5 0,6.3 0.1,6.1 	"/>
</g>
</svg>
