<?xml version="1.0" encoding="utf-8"?>
<!-- Generator: Adobe Illustrator 23.0.0, SVG Export Plug-In . SVG Version: 6.00 Build 0)  -->
<svg version="1.1" id="Layer_1" xmlns="http://www.w3.org/2000/svg" xmlns:xlink="http://www.w3.org/1999/xlink" x="0px" y="0px"
	 viewBox="0 0 16 16" style="enable-background:new 0 0 16 16;" xml:space="preserve">
<style type="text/css">
	.st0{clip-path:url(#SVGID_2_);fill-rule:evenodd;clip-rule:evenodd;fill:#F75049;}
</style>
<g>
	<defs>
		<path id="SVGID_1_" d="M19.2,5.6c-0.1-0.1-0.3,0-0.6-0.2c-0.2-0.2-0.2-0.3-0.3-0.4C17.9,4.7,17,5.5,17,5.4c0,0,0.4-0.3,0.7-0.7
			c0.2-0.2,0.6-0.7,0.5-1c-0.1-0.2-0.3-0.2-0.3-0.3c0-0.3,0.5-0.4,0.4-0.7c0-0.2-0.2-0.3-0.3-0.3c-0.3-0.1-0.8,0.2-0.8,0.2
			c0,0,0.3-0.2,0.4-0.5c0-0.1,0.2-0.3,0.1-0.5c-0.1-0.1-0.3-0.1-0.4-0.1c-0.1,0-0.2,0.1-0.2,0c0,0,0-0.1,0-0.2
			c0-0.2-0.3-0.3-0.6-0.3c-0.5,0-0.9,0.5-1,0.4c-0.1-0.1,0.5-0.5,0.4-0.9c0-0.1-0.2-0.3-0.4-0.3c-0.3,0-0.4,0.3-0.5,0.3
			C14.9,0.6,15.2,0,15-0.2c-0.1-0.1-0.3,0.1-0.6,0c-0.2-0.1-0.2-0.1-0.3-0.2c-0.3-0.1-0.8,0.4-1.3,0.9c-0.2,0.2-0.6,0.5-1.1,0.8
			C12,1,12.2,0.8,12.3,0.6C12.8,0.1,13,0,13-0.3c0-0.1,0-0.4-0.2-0.4c-0.2-0.1-0.4,0.2-1.1,0.6c-0.2,0.1-0.3,0.2-0.4,0.3
			c0,0,0.3-0.4,0.2-0.7c0,0-0.1-0.2-0.2-0.3C10.9-1.2,10.2-1,10.1-1C9.3-0.8,9.1-0.2,8,0.3c0,0-0.1,0.1-0.3,0.2
			C7.3,0.7,7.1,0.8,7,0.9C6.7,1.1,6.5,1.2,6.4,1.5C6.3,1.7,6.4,1.9,6.2,2C6.1,2.2,5.9,2.2,5.8,2.2C5.2,2.4,4.5,3.4,4.4,3.6
			C4,4.1,2.7,5.5-0.8,8.6c4.7-5,6.2-6.6,6.2-6.7c0,0,0,0,0,0c0-0.1,0.2-0.4,0-0.6c-0.1-0.1-0.2,0-0.3-0.1c0,0,0-0.1,0-0.1
			c0-0.2,0.4-0.2,0.4-0.3c0,0-0.1-0.1-0.2-0.1C5.1,0.5,5.1,0.4,4.9,0.4C4.7,0.3,4.5,0.5,4.3,0.5C4.1,0.7,4,0.8,3.9,0.8
			c0,0,0-0.2,0-0.3C3.8,0.4,3.6,0.4,3.6,0.4C3.2,0.4,3.1,0.7,3,0.6c-0.1,0,0-0.2-0.1-0.3C2.8,0.2,2.7,0.2,2.5,0.1
			C2.3,0,2.4-0.2,2.2-0.4C2.1-0.5,2-0.7,1.8-0.8c-0.2-0.1-0.3,0-0.5-0.1C1-0.9,1-1.1,0.8-1.1c-0.2,0-0.3,0-0.4,0.1
			C0.1-0.9,0.1-0.7-0.1-0.7c-0.2,0-0.2-0.2-0.5-0.2c-0.1,0-0.2,0-0.3,0C-1-0.8-0.9-0.5-1-0.4c-0.1,0.1-0.2,0.1-0.3,0
			c-0.1-0.1-0.1-0.1-0.1-0.2C-1.6-0.8-2.5-0.6-2.8,0c0,0.1-0.1,0.2-0.2,0.3c-0.2,0.1-0.3,0-0.5,0c-0.3,0-0.5,0.2-1.1,1
			c0,0-0.1,0.1-0.6,0.6c-0.9,1-1,1.1-1.1,1.4c0,0.5,0,0.7,0,0.7c0,0.1,0.1,0.3,0,0.4c-0.1,0.1-0.1,0-0.2,0.1c-0.1,0.1,0.1,0.4,0,0.8
			c0,0,0,0,0,0.3c-0.1,0.5-0.1,0.6,0,0.7c0.1,0.1,0.2,0.1,0.3,0.1c0.2,0,0.3-0.1,0.4-0.1C-5.3,5.7-5,5.3-4.6,4.8
			C-4.7,5.1-4.9,5.4-5,5.6c-0.2,0.2-0.3,0.4-0.5,0.7c0,0.1-0.1,0.2-0.2,0.4c-0.1,0.2-0.2,0.5-0.1,0.8c0,0.1,0.1,0.2,0.1,0.3
			c0,0.2,0,0.3,0,0.4c0,0.1,0.1,0.1,0.2,0.1c0.1,0.1,0,0.3,0,0.6c0,0.2,0.1,0.1,0.1,0.3c0.1,0.3-0.1,0.4,0,0.7c0,0.1,0,0.2,0.1,0.3
			c0.1,0.1,0.4-0.1,0.6,0c0.2,0.1,0.1,0.3,0.3,0.4c0.1,0,0.2-0.1,0.4,0c0,0,0.3,0,0.3,0.1c0,0.1-0.1,0.3-0.3,0.4
			c-0.4,0.2-0.8-0.1-0.9,0c0,0.1,0.1,0.2,0.2,0.3c1,0.9,1,1,1.3,1.2c0.3,0.2,0.3,0.1,0.7,0.3c0.5,0.3,1.1,0.6,1.1,1
			c0,0.2-0.2,0.3-0.1,0.6c0,0.2,0.1,0.5,0.3,0.6c0.2,0.1,0.3-0.1,0.6-0.1c0.3,0,0.3,0.2,0.6,0.3c0.4,0,0.5-0.4,0.8-0.4
			C1,14.9,1,15,1.2,15.1c0.2,0.1,0.4,0,0.5,0c1-1.1,2.6-2.7,4.6-4.8c1.6-1.7,2.1-2.2,3-3.1c2.6-2.5,5.4-4.5,5.5-4.3
			c0.1,0.1-1.2,1.3-5.5,5.4c-3,2.8-5.4,5.2-7.1,6.8c0,0.3,0.1,0.5,0.2,0.5c0.2,0.1,0.5-0.2,0.8,0c0.1,0.1,0.3,0.2,0.3,0.4
			c0,0.2,0,0.3,0.1,0.4c0.1,0.1,0.1,0,0.2,0.1C4,16.6,3.9,16.8,4,16.9c0.2,0.1,0.4,0,0.4,0.2c0,0.1,0,0.1,0,0.3
			c0,0.1,0.2,0.1,0.2,0.3c0,0.2-0.3,0.3-0.3,0.6c0,0.2,0.1,0.2,0.1,0.5c0,0.5-0.6,0.6-0.5,0.9c0,0.2,0.2,0.4,0.4,0.5
			c0.3,0,0.5-0.4,0.8-0.4c0.4,0,0.6,0.6,0.9,0.5c0.3,0,0.3-0.4,0.6-0.4c0.2,0,0.3,0.1,0.4,0c0.1-0.1,0.1-0.2,0.3-0.3
			c0.1,0,0.1,0,0.2,0c0.2,0,0.6-0.4,0.7-0.8c0.1-0.4,0-0.5,0.2-0.8c0.1-0.2,0.3-0.3,0.4-0.4c0.5-0.4,1.2-1,1.8-1.6
			c0.8-0.8,0.9-1.1,1.5-1.4c0.1,0,0.3-0.1,0.5-0.3c0.3-0.3,0.4-0.6,0.6-0.8c0.4-0.8,0.8-0.8,1.7-2c0-0.1,0.2-0.3,0.2-0.4
			c-0.1-0.1-1.2,1.1-1.4,1c-0.1-0.1-0.1-0.2-0.1-0.2c0.1-0.6,0.8-0.8,1.9-1.7c0.3-0.2,0.2-0.2,0.5-0.5c0.8-0.7,1.7-1.3,2-1.7
			C17.9,7.7,18,7.4,18,7.4c0-0.1,0-0.1,0.1-0.2c0.1-0.3,0.2-0.4,0.7-0.9C19.2,5.8,19.2,5.7,19.2,5.6z M2.2,4.9
			C1.9,5.2,1.6,5.5,1.3,5.7c0.2-0.3,0.4-0.6,0.8-0.9c0.1-0.1,0.3-0.2,0.4-0.3C2.4,4.6,2.3,4.7,2.2,4.9z M2,3.6c0.5-0.5,1-1,1.4-1.4
			c-0.3,0.5-0.8,1-1.3,1.5C1.8,4,1.5,4.3,1.2,4.6C1.5,4.3,1.7,4,2,3.6z M-3.5,3.6C-3.5,3.4-3.3,3.2-3.1,3C-3,2.9-3,2.8-2.9,2.8
			C-2.9,2.9-3,2.9-3,3C-3.2,3.3-3.4,3.5-3.5,3.6z M-2.7,11.8c-0.1,0.1-0.2,0.2-0.3,0.2c0,0,0-0.2,0.1-0.3c0.1-0.1,0.3-0.2,0.3-0.2
			C-2.6,11.5-2.6,11.6-2.7,11.8z M-3,7.1c0.3-0.4,0.7-0.8,1-1.2C-2,6-2,6.1-2,6.2C-2.3,6.5-2.7,6.8-3,7.1z M-1.3,13.1
			c0,0-0.2-0.2-0.5-0.6C-1.9,12.4-2,12.3-2,12.2c0-0.1,0.1-0.1,0.2-0.2c0.1-0.1,0.3-0.2,0.4-0.5c0,0.2-0.1,0.3-0.1,0.4
			c0,0.1-0.1,0.2-0.1,0.3c0,0.1,0.1,0,0.1,0.1c0.1,0.1,0,0.2,0,0.3C-1.4,12.9-1.3,13.1-1.3,13.1z M-1.4,1.8C-1.3,1.6-1.2,1.4-1,1.2
			C-0.9,1.1-0.8,1-0.7,1c0,0.1-0.1,0.2-0.2,0.3C-1,1.5-1.2,1.7-1.4,1.8z M1.4,8.4c1-1.3,2.3-2.8,3.8-4.2c1.1-1.1,2.2-2,3.2-2.8
			C7.7,2.1,6.9,2.8,6.2,3.6C4.5,5.2,2.9,6.8,1.4,8.4z M6.3,4.2c0.8-0.8,1.6-1.5,2.4-2c-0.4,0.5-0.9,1-1.4,1.6C6.2,5,5.1,6.1,3.9,7.1
			C4.5,6.2,5.3,5.2,6.3,4.2z M8.2,6c1.1-0.9,2.2-1.8,3.2-2.6c-0.7,0.7-1.4,1.4-2.2,2.1C7.6,7,6,8.2,4.6,9.3C5.7,8.3,6.9,7.1,8.2,6z
			 M9.9,6.1C8.3,7.6,6.8,8.8,5.3,10c1.1-1.1,2.3-2.2,3.6-3.4C10,5.6,11.1,4.8,12.1,4C11.4,4.7,10.7,5.4,9.9,6.1z M15.6,4.6
			c-0.7,0.7-1.4,1.4-2.2,2.1c-1.6,1.4-3.1,2.7-4.6,3.8c1.1-1.1,2.3-2.2,3.6-3.4C13.5,6.2,14.6,5.4,15.6,4.6z M6.1,12.3
			c1.4-1.7,3.1-3.5,5.1-5.3c0.9-0.8,1.8-1.5,2.6-2.2c-1,1-1.9,1.9-2.9,2.9C9.4,9.3,7.8,10.8,6.1,12.3z M6.5,14
			c1.6-1.5,3.2-3.1,5-4.7C13,8,14.4,6.8,15.7,5.7c-1.1,1.1-2.3,2.1-3.4,3.2C10.4,10.7,8.4,12.4,6.5,14z M6.8,15
			c1.1-1.3,2.5-2.7,4.1-4.1c1.4-1.2,2.7-2.2,4-3c-1.1,1-2.2,1.9-3.3,2.9C10,12.2,8.4,13.6,6.8,15z M14.8,9.3c-1.2,1.1-2.4,2.1-3.6,3
			c0.2-0.2,0.4-0.4,0.6-0.6c0.8-0.7,1.5-1.4,2.2-2.1c-0.1,0.1-0.2,0.1-0.3,0.2c-0.1,0-0.1,0.1-0.2,0.2c-1.3,1.1-2.4,2.2-3.5,3.3
			c-0.9,0.8-1.8,1.5-2.7,2.1c1.1-1.1,2.3-2.2,3.6-3.4c1-0.9,2-1.7,2.9-2.4c1-0.9,2.1-1.7,3-2.5C16.4,7.8,15.6,8.5,14.8,9.3z"/>
	</defs>
	<clipPath id="SVGID_2_">
		<use xlink:href="#SVGID_1_"  style="overflow:visible;"/>
	</clipPath>
	<path class="st0" d="M8.3,0L8.3,0c2.1,0,3.7,0.4,4.8,1.3l0,0l0,0c1.1,0.9,1.7,2.2,1.7,3.9l0,0l0,0c0,1.8-0.6,3.1-1.7,4l0,0l0,0
		c-1.1,0.9-2.7,1.4-4.8,1.4l0,0H6.7v2.7h2.7V16H1.2v-2.7h2.3V2.7H1.2V0H8.3z"/>
	<path class="st0" d="M8.3,8.1L8.3,8.1c2.1,0,3.2-0.9,3.2-2.8l0,0l0,0c0-0.9-0.3-1.5-0.8-1.9l0,0l0,0C10.2,3,9.4,2.7,8.3,2.7l0,0
		H6.7v5.4H8.3z"/>
</g>
</svg>
