<?xml version="1.0" encoding="utf-8"?>
<!-- Generator: Adobe Illustrator 23.0.0, SVG Export Plug-In . SVG Version: 6.00 Build 0)  -->
<svg version="1.1" id="Layer_1" xmlns="http://www.w3.org/2000/svg" xmlns:xlink="http://www.w3.org/1999/xlink" x="0px" y="0px"
	 viewBox="0 0 16 16" style="enable-background:new 0 0 16 16;" xml:space="preserve">
<style type="text/css">
	.st0{clip-path:url(#SVGID_2_);fill:#F75049;}
</style>
<g>
	<defs>
		<path id="SVGID_1_" d="M19.1,5.2c-0.1-0.1-0.3,0-0.6-0.2c-0.2-0.2-0.2-0.3-0.3-0.4c-0.4-0.2-1.3,0.5-1.3,0.5c0,0,0.4-0.3,0.7-0.7
			c0.2-0.2,0.6-0.7,0.5-1c-0.1-0.2-0.3-0.2-0.3-0.3c0-0.3,0.5-0.4,0.4-0.7C18.3,2.2,18.1,2,18,2c-0.3-0.1-0.8,0.2-0.8,0.2
			c0,0,0.3-0.2,0.4-0.5c0-0.1,0.2-0.3,0.1-0.5c-0.1-0.1-0.3-0.1-0.4-0.1c-0.1,0-0.2,0.1-0.2,0c0,0,0-0.1,0-0.2
			c0-0.2-0.3-0.3-0.6-0.3c-0.5,0-0.9,0.5-1,0.4c-0.1-0.1,0.5-0.5,0.4-0.9c0-0.1-0.2-0.3-0.4-0.3c-0.3,0-0.4,0.3-0.5,0.3
			c-0.1-0.1,0.1-0.7-0.1-0.9c-0.1-0.1-0.3,0.1-0.6,0c-0.2-0.1-0.2-0.1-0.3-0.2c-0.3-0.1-0.8,0.4-1.3,0.9c-0.2,0.2-0.6,0.5-1.1,0.8
			c0.3-0.3,0.5-0.6,0.7-0.7c0.4-0.4,0.6-0.6,0.6-0.9c0-0.1,0-0.4-0.2-0.4c-0.2-0.1-0.4,0.2-1.1,0.6c-0.2,0.1-0.3,0.2-0.4,0.3
			c0,0,0.3-0.4,0.2-0.7c0,0-0.1-0.2-0.2-0.3c-0.4-0.3-1.1-0.2-1.2-0.2C9.2-1.2,9-0.6,7.9-0.1c0,0-0.1,0.1-0.3,0.2
			C7.2,0.3,7,0.4,6.9,0.5C6.6,0.7,6.4,0.8,6.3,1.1C6.2,1.3,6.3,1.5,6.1,1.7C6,1.8,5.8,1.8,5.7,1.8C5.1,2,4.4,3,4.3,3.2
			C3.9,3.7,2.6,5.1-0.9,8.2c4.7-5,6.2-6.6,6.2-6.7c0,0,0,0,0,0c0-0.1,0.2-0.4,0-0.6c-0.1-0.1-0.2,0-0.3-0.1c0,0,0-0.1,0-0.1
			c0-0.2,0.4-0.2,0.4-0.3c0,0-0.1-0.1-0.2-0.1C5,0.1,5,0,4.8,0C4.6-0.1,4.4,0.1,4.2,0.2C4,0.3,3.9,0.4,3.8,0.4c0,0,0-0.2,0-0.3
			C3.7,0,3.5,0,3.5,0C3.1,0,3,0.3,2.9,0.2c-0.1,0,0-0.2-0.1-0.3C2.7-0.2,2.6-0.2,2.4-0.3C2.2-0.4,2.3-0.5,2.1-0.8
			C2-0.9,1.9-1.1,1.7-1.1c-0.2-0.1-0.3,0-0.5-0.1C0.9-1.3,0.9-1.4,0.7-1.5c-0.2,0-0.3,0-0.4,0.1C0-1.2,0-1.1-0.2-1.1
			c-0.2,0-0.2-0.2-0.5-0.2c-0.1,0-0.2,0-0.3,0c-0.1,0.1,0,0.4-0.1,0.5c-0.1,0.1-0.2,0.1-0.3,0C-1.4-0.9-1.4-1-1.5-1
			C-1.7-1.2-2.6-1-2.9-0.4c0,0.1-0.1,0.2-0.2,0.3c-0.2,0.1-0.3,0-0.5,0c-0.3,0-0.5,0.2-1.1,1c0,0-0.1,0.1-0.6,0.6
			c-0.9,1-1,1.1-1.1,1.4c0,0.5,0,0.7,0,0.7c0,0.1,0.1,0.3,0,0.4c-0.1,0.1-0.1,0-0.2,0.1c-0.1,0.1,0.1,0.4,0,0.8c0,0,0,0,0,0.3
			c-0.1,0.5-0.1,0.6,0,0.7c0.1,0.1,0.2,0.1,0.3,0.1c0.2,0,0.3-0.1,0.4-0.1c0.4-0.5,0.8-0.9,1.1-1.4C-4.8,4.8-5,5-5.1,5.2
			c-0.2,0.2-0.3,0.4-0.5,0.7c0,0.1-0.1,0.2-0.2,0.4C-5.8,6.5-5.9,6.7-5.8,7c0,0.1,0.1,0.2,0.1,0.3c0,0.2,0,0.3,0,0.4
			c0,0.1,0.1,0.1,0.2,0.1c0.1,0.1,0,0.3,0,0.6c0,0.2,0.1,0.1,0.1,0.3c0.1,0.3-0.1,0.4,0,0.7c0,0.1,0,0.2,0.1,0.3
			c0.1,0.1,0.4-0.1,0.6,0c0.2,0.1,0.1,0.3,0.3,0.4c0.1,0,0.2-0.1,0.4,0c0,0,0.3,0,0.3,0.1c0,0.1-0.1,0.3-0.3,0.4
			c-0.4,0.2-0.8-0.1-0.9,0c0,0.1,0.1,0.2,0.2,0.3c1,0.9,1,1,1.3,1.2c0.3,0.2,0.3,0.1,0.7,0.3c0.5,0.3,1.1,0.6,1.1,1
			c0,0.2-0.2,0.3-0.1,0.6c0,0.2,0.1,0.5,0.3,0.6c0.2,0.1,0.3-0.1,0.6-0.1c0.3,0,0.3,0.2,0.6,0.3c0.4,0,0.5-0.4,0.8-0.4
			c0.2,0,0.2,0.2,0.4,0.3c0.2,0.1,0.4,0,0.5,0c1-1.1,2.6-2.7,4.6-4.8c1.6-1.7,2.1-2.2,3-3.1c2.6-2.5,5.4-4.5,5.5-4.3
			c0.1,0.1-1.2,1.3-5.5,5.4c-3,2.8-5.4,5.2-7.1,6.8c0,0.3,0.1,0.5,0.2,0.5c0.2,0.1,0.5-0.2,0.8,0c0.1,0.1,0.3,0.2,0.3,0.4
			c0,0.2,0,0.3,0.1,0.4c0.1,0.1,0.1,0,0.2,0.1c0.2,0.2,0.1,0.3,0.3,0.5c0.2,0.1,0.4,0,0.4,0.2c0,0.1,0,0.1,0,0.3
			c0,0.1,0.2,0.1,0.2,0.3c0,0.2-0.3,0.3-0.3,0.6c0,0.2,0.1,0.2,0.1,0.5c0,0.5-0.6,0.6-0.5,0.9c0,0.2,0.2,0.4,0.4,0.5
			c0.3,0,0.5-0.4,0.8-0.4c0.4,0,0.6,0.6,0.9,0.5c0.3,0,0.3-0.4,0.6-0.4c0.2,0,0.3,0.1,0.4,0c0.1-0.1,0.1-0.2,0.3-0.3
			c0.1,0,0.1,0,0.2,0c0.2,0,0.6-0.4,0.7-0.8c0.1-0.4,0-0.5,0.2-0.8c0.1-0.2,0.3-0.3,0.4-0.4c0.5-0.4,1.2-1,1.8-1.6
			c0.8-0.8,0.9-1.1,1.5-1.4c0.1,0,0.3-0.1,0.5-0.3c0.3-0.3,0.4-0.6,0.6-0.8c0.4-0.8,0.8-0.8,1.7-2c0-0.1,0.2-0.3,0.2-0.4
			c-0.1-0.1-1.2,1.1-1.4,1c-0.1-0.1-0.1-0.2-0.1-0.2c0.1-0.6,0.8-0.8,1.9-1.7c0.3-0.2,0.2-0.2,0.5-0.5c0.8-0.7,1.7-1.3,2-1.7
			C17.8,7.3,17.9,7,17.9,7c0-0.1,0-0.1,0.1-0.2C18,6.6,18.1,6.5,18.6,6C19.1,5.4,19.1,5.3,19.1,5.2z M2.1,4.5
			C1.8,4.9,1.5,5.1,1.2,5.3C1.4,5.1,1.6,4.7,2,4.4c0.1-0.1,0.3-0.2,0.4-0.3C2.3,4.2,2.2,4.3,2.1,4.5z M1.9,3.3c0.5-0.5,1-1,1.4-1.4
			C3,2.3,2.5,2.8,2,3.3C1.7,3.7,1.4,3.9,1.1,4.2C1.4,3.9,1.6,3.6,1.9,3.3z M-3.6,3.2C-3.6,3-3.4,2.8-3.2,2.6C-3.1,2.5-3.1,2.4-3,2.4
			c0,0.1-0.1,0.2-0.2,0.3C-3.3,2.9-3.5,3.1-3.6,3.2z M-2.8,11.4c-0.1,0.1-0.2,0.2-0.3,0.2c0,0,0-0.2,0.1-0.3
			c0.1-0.1,0.3-0.2,0.3-0.2C-2.7,11.1-2.7,11.2-2.8,11.4z M-3.1,6.7c0.3-0.4,0.7-0.8,1-1.2c0,0.1,0,0.2,0,0.3
			C-2.5,6.1-2.8,6.4-3.1,6.7z M-1.4,12.7c0,0-0.2-0.2-0.5-0.6C-2,12-2.1,11.9-2.1,11.9c0-0.1,0.1-0.1,0.2-0.2
			c0.1-0.1,0.3-0.2,0.4-0.5c0,0.2-0.1,0.3-0.1,0.4c0,0.1-0.1,0.2-0.1,0.3c0,0.1,0.1,0,0.1,0.1c0.1,0.1,0,0.2,0,0.3
			C-1.5,12.5-1.4,12.7-1.4,12.7z M-1.5,1.4C-1.4,1.2-1.3,1-1.1,0.8C-1,0.7-0.9,0.6-0.8,0.6c0,0.1-0.1,0.2-0.2,0.3
			C-1.2,1.1-1.3,1.3-1.5,1.4z M1.3,8c1-1.3,2.3-2.8,3.8-4.2c1.1-1.1,2.2-2,3.2-2.8C7.6,1.7,6.8,2.4,6.1,3.2C4.4,4.8,2.8,6.4,1.3,8z
			 M6.2,3.8c0.8-0.8,1.6-1.5,2.4-2c-0.4,0.5-0.9,1-1.4,1.6C6.1,4.6,5,5.7,3.8,6.7C4.4,5.8,5.2,4.8,6.2,3.8z M8.1,5.6
			c1.1-0.9,2.2-1.8,3.2-2.6c-0.7,0.7-1.4,1.4-2.2,2.1C7.5,6.6,5.9,7.8,4.4,9C5.5,7.9,6.8,6.7,8.1,5.6z M9.8,5.7
			C8.2,7.2,6.7,8.4,5.2,9.6c1.1-1.1,2.3-2.2,3.6-3.4C9.9,5.2,11,4.4,12,3.6C11.3,4.3,10.6,5,9.8,5.7z M15.5,4.2
			c-0.7,0.7-1.4,1.4-2.2,2.1c-1.6,1.4-3.1,2.7-4.6,3.8c1.1-1.1,2.3-2.2,3.6-3.4C13.4,5.8,14.5,5,15.5,4.2z M6,11.9
			c1.4-1.7,3.1-3.5,5.1-5.3c0.9-0.8,1.8-1.5,2.6-2.2c-1,1-1.9,1.9-2.9,2.9C9.3,8.9,7.7,10.4,6,11.9z M6.4,13.6
			c1.6-1.5,3.2-3.1,5-4.7c1.4-1.3,2.8-2.4,4.2-3.5c-1.1,1.1-2.3,2.1-3.4,3.2C10.3,10.3,8.3,12,6.4,13.6z M6.7,14.6
			c1.1-1.3,2.5-2.7,4.1-4.1c1.4-1.2,2.7-2.2,4-3c-1.1,1-2.2,1.9-3.3,2.9C9.9,11.8,8.3,13.2,6.7,14.6z M14.7,8.9
			c-1.2,1.1-2.4,2.1-3.6,3c0.2-0.2,0.4-0.4,0.6-0.6c0.8-0.7,1.5-1.4,2.2-2.1c-0.1,0.1-0.2,0.1-0.3,0.2c-0.1,0-0.1,0.1-0.2,0.2
			c-1.3,1.1-2.4,2.2-3.5,3.3c-0.9,0.8-1.8,1.5-2.7,2.1c1.1-1.1,2.3-2.2,3.6-3.4c1-0.9,2-1.7,2.9-2.4c1-0.9,2.1-1.7,3-2.5
			C16.3,7.4,15.5,8.1,14.7,8.9z"/>
	</defs>
	<clipPath id="SVGID_2_">
		<use xlink:href="#SVGID_1_"  style="overflow:visible;"/>
	</clipPath>
	<path class="st0" d="M3.4,1.1C1.5,1.1,0,2.7,0,4.6S1.5,8,3.4,8s3.4-1.5,3.4-3.4S5.3,1.1,3.4,1.1z M2.3,3.4c0.6,0,1.1,0.5,1.1,1.1
		S2.9,5.7,2.3,5.7c-0.6,0-1.1-0.5-1.1-1.1S1.7,3.4,2.3,3.4z"/>
	<path class="st0" d="M12.6,1.1c-1.9,0-3.4,1.5-3.4,3.4S10.7,8,12.6,8S16,6.5,16,4.6S14.5,1.1,12.6,1.1z M11.4,3.4
		c0.6,0,1.1,0.5,1.1,1.1s-0.5,1.1-1.1,1.1c-0.6,0-1.1-0.5-1.1-1.1S10.8,3.4,11.4,3.4z"/>
	<path class="st0" d="M7.1,10.9L7.1,10.9c0.5,0,0.9,0.4,0.9,0.9V14c0,0.5-0.4,0.9-0.9,0.9l0,0c-0.5,0-0.9-0.4-0.9-0.9v-2.3
		C6.3,11.2,6.7,10.9,7.1,10.9z"/>
	<path class="st0" d="M8.9,10.9L8.9,10.9c0.5,0,0.9,0.4,0.9,0.9V14c0,0.5-0.4,0.9-0.9,0.9l0,0C8.4,14.9,8,14.5,8,14v-2.3
		C8,11.2,8.4,10.9,8.9,10.9z"/>
	<path class="st0" d="M8,8C7.1,8,6.3,8.5,6.3,9.1h3.4C9.7,8.5,8.9,8,8,8z M9.7,9.1c0,0.6-0.8,1.1-1.7,1.1c-0.9,0-1.7-0.5-1.7-1.1H6
		c-0.8,0-1.4,0.6-1.4,1.4C4.6,11.4,5.2,12,6,12h4c0.8,0,1.4-0.6,1.4-1.4c0-0.8-0.6-1.4-1.4-1.4H9.7z"/>
</g>
</svg>
