<?xml version="1.0" encoding="utf-8"?>
<!-- Generator: Adobe Illustrator 23.0.0, SVG Export Plug-In . SVG Version: 6.00 Build 0)  -->
<svg version="1.1" id="Layer_1" xmlns="http://www.w3.org/2000/svg" xmlns:xlink="http://www.w3.org/1999/xlink" x="0px" y="0px"
	 viewBox="0 0 16 16" style="enable-background:new 0 0 16 16;" xml:space="preserve">
<style type="text/css">
	.st0{clip-path:url(#SVGID_2_);fill-rule:evenodd;clip-rule:evenodd;fill:#F75049;}
</style>
<g>
	<defs>
		<path id="SVGID_1_" d="M19.1,5.7c-0.1-0.1-0.3,0-0.6-0.2c-0.2-0.2-0.2-0.3-0.3-0.4c-0.4-0.2-1.3,0.5-1.3,0.5c0,0,0.4-0.3,0.7-0.7
			c0.2-0.2,0.6-0.7,0.5-1c-0.1-0.2-0.3-0.2-0.3-0.3c0-0.3,0.5-0.4,0.4-0.7c0-0.2-0.2-0.3-0.3-0.3c-0.3-0.1-0.8,0.2-0.8,0.2
			c0,0,0.3-0.2,0.4-0.5c0-0.1,0.2-0.3,0.1-0.5c-0.1-0.1-0.3-0.1-0.4-0.1c-0.1,0-0.2,0.1-0.2,0c0,0,0-0.1,0-0.2
			c0-0.2-0.3-0.3-0.6-0.3c-0.5,0-0.9,0.5-1,0.4c-0.1-0.1,0.5-0.5,0.4-0.9c0-0.1-0.2-0.3-0.4-0.3c-0.3,0-0.4,0.3-0.5,0.3
			c-0.1-0.1,0.1-0.7-0.1-0.9c-0.1-0.1-0.3,0.1-0.6,0c-0.2-0.1-0.2-0.1-0.3-0.2c-0.3-0.1-0.8,0.4-1.3,0.9c-0.2,0.2-0.6,0.5-1.1,0.8
			c0.3-0.3,0.5-0.6,0.7-0.7c0.4-0.4,0.6-0.6,0.6-0.9c0-0.1,0-0.4-0.2-0.4c-0.2-0.1-0.4,0.2-1.1,0.6c-0.2,0.1-0.3,0.2-0.4,0.3
			c0,0,0.3-0.4,0.2-0.7c0,0-0.1-0.2-0.2-0.3c-0.4-0.3-1.1-0.2-1.2-0.2C9.2-0.7,8.9-0.1,7.9,0.4c0,0-0.1,0.1-0.3,0.2
			C7.2,0.8,7,0.9,6.9,1C6.6,1.1,6.4,1.3,6.3,1.5C6.2,1.8,6.2,2,6.1,2.1C6,2.3,5.8,2.3,5.7,2.3C5.1,2.5,4.4,3.5,4.3,3.6
			C3.9,4.2,2.6,5.5-0.9,8.7c4.7-5,6.2-6.6,6.2-6.7c0,0,0,0,0,0c0-0.1,0.2-0.4,0-0.6c-0.1-0.1-0.2,0-0.3-0.1c0,0,0-0.1,0-0.1
			c0-0.2,0.4-0.2,0.4-0.3c0,0-0.1-0.1-0.2-0.1C5,0.6,5,0.5,4.8,0.5C4.6,0.4,4.4,0.5,4.2,0.6C4,0.8,3.8,0.9,3.8,0.8c0,0,0-0.2,0-0.3
			C3.7,0.5,3.5,0.5,3.5,0.5C3.1,0.5,3,0.8,2.8,0.7c-0.1,0,0-0.2-0.1-0.3C2.7,0.3,2.6,0.3,2.4,0.2C2.2,0.1,2.3-0.1,2.1-0.3
			C2-0.4,1.9-0.6,1.7-0.7c-0.2-0.1-0.3,0-0.5-0.1C0.9-0.8,0.9-1,0.7-1C0.5-1,0.4-1,0.3-0.9C0-0.8,0-0.6-0.2-0.6
			c-0.2,0-0.2-0.2-0.5-0.2c-0.1,0-0.2,0-0.3,0c-0.1,0.1,0,0.4-0.1,0.5c-0.1,0.1-0.2,0.1-0.3,0c-0.1-0.1-0.1-0.1-0.1-0.2
			c-0.2-0.2-1.1,0.1-1.4,0.6C-3,0.2-3,0.3-3.1,0.4c-0.2,0.1-0.3,0-0.5,0c-0.3,0-0.5,0.2-1.1,1c0,0-0.1,0.1-0.6,0.6
			c-0.9,1-1,1.1-1.1,1.4c0,0.5,0,0.7,0,0.7c0,0.1,0.1,0.3,0,0.4c-0.1,0.1-0.1,0-0.2,0.1c-0.1,0.1,0.1,0.4,0,0.8c0,0,0,0,0,0.3
			c-0.1,0.5-0.1,0.6,0,0.7c0.1,0.1,0.2,0.1,0.3,0.1c0.2,0,0.3-0.1,0.4-0.1c0.4-0.5,0.8-0.9,1.1-1.4C-4.8,5.2-5,5.5-5.1,5.6
			C-5.3,5.9-5.4,6-5.6,6.4c0,0.1-0.1,0.2-0.2,0.4C-5.8,7-6,7.2-5.8,7.5c0,0.1,0.1,0.2,0.1,0.3c0,0.2,0,0.3,0,0.4
			c0,0.1,0.1,0.1,0.2,0.1c0.1,0.1,0,0.3,0,0.6C-5.4,9-5.4,9-5.4,9.2c0.1,0.3-0.1,0.4,0,0.7c0,0.1,0,0.2,0.1,0.3
			c0.1,0.1,0.4-0.1,0.6,0c0.2,0.1,0.1,0.3,0.3,0.4c0.1,0,0.2-0.1,0.4,0c0,0,0.3,0,0.3,0.1c0,0.1-0.1,0.3-0.3,0.4
			c-0.4,0.2-0.8-0.1-0.9,0c0,0.1,0.1,0.2,0.2,0.3c1,0.9,1,1,1.3,1.2c0.3,0.2,0.3,0.1,0.7,0.3c0.5,0.3,1.1,0.6,1.1,1
			c0,0.2-0.2,0.3-0.1,0.6c0,0.2,0.1,0.5,0.3,0.6C-1.1,15.2-1,15-0.7,15c0.3,0,0.3,0.2,0.6,0.3c0.4,0,0.5-0.4,0.8-0.4
			c0.2,0,0.2,0.2,0.4,0.3c0.2,0.1,0.4,0,0.5,0c1-1.1,2.6-2.7,4.6-4.8c1.6-1.7,2.1-2.2,3-3.1c2.6-2.5,5.4-4.5,5.5-4.3
			c0.1,0.1-1.2,1.3-5.5,5.4c-3,2.8-5.4,5.2-7.1,6.8c0,0.3,0.1,0.5,0.2,0.5c0.2,0.1,0.5-0.2,0.8,0c0.1,0.1,0.3,0.2,0.3,0.4
			c0,0.2,0,0.3,0.1,0.4c0.1,0.1,0.1,0,0.2,0.1c0.2,0.2,0.1,0.3,0.3,0.5c0.2,0.1,0.4,0,0.4,0.2c0,0.1,0,0.1,0,0.3
			c0,0.1,0.2,0.1,0.2,0.3c0,0.2-0.3,0.3-0.3,0.6c0,0.2,0.1,0.2,0.1,0.5c0,0.5-0.6,0.6-0.5,0.9c0,0.2,0.2,0.4,0.4,0.5
			c0.3,0,0.5-0.4,0.8-0.4c0.4,0,0.6,0.6,0.9,0.5c0.3,0,0.3-0.4,0.6-0.4c0.2,0,0.3,0.1,0.4,0c0.1-0.1,0.1-0.2,0.3-0.3
			c0.1,0,0.1,0,0.2,0c0.2,0,0.6-0.4,0.7-0.8c0.1-0.4,0-0.5,0.2-0.8c0.1-0.2,0.3-0.3,0.4-0.4c0.5-0.4,1.2-1,1.8-1.6
			c0.8-0.8,0.9-1.1,1.5-1.4c0.1,0,0.3-0.1,0.5-0.3c0.3-0.3,0.4-0.6,0.6-0.8c0.4-0.8,0.8-0.8,1.7-2c0-0.1,0.2-0.3,0.2-0.4
			c-0.1-0.1-1.2,1.1-1.4,1c-0.1-0.1-0.1-0.2-0.1-0.2c0.1-0.6,0.8-0.8,1.9-1.7c0.3-0.2,0.2-0.2,0.5-0.5c0.8-0.7,1.7-1.3,2-1.7
			c0.1-0.3,0.2-0.6,0.2-0.6c0-0.1,0-0.1,0.1-0.2c0.1-0.3,0.2-0.4,0.7-0.9C19.1,5.9,19.1,5.8,19.1,5.7z M2.1,5
			C1.8,5.3,1.5,5.6,1.2,5.8C1.4,5.6,1.6,5.2,2,4.9c0.1-0.1,0.3-0.2,0.4-0.3C2.3,4.7,2.2,4.8,2.1,5z M1.9,3.7c0.5-0.5,1-1,1.4-1.4
			C3,2.8,2.5,3.3,2,3.8C1.7,4.1,1.4,4.4,1.1,4.7C1.3,4.4,1.6,4.1,1.9,3.7z M-3.7,3.7c0.1-0.2,0.2-0.4,0.4-0.6C-3.1,3-3.1,2.9-3,2.9
			C-3,2.9-3.1,3-3.1,3.1C-3.3,3.4-3.5,3.6-3.7,3.7z M-2.8,11.8C-2.9,12-3,12-3.1,12c0,0,0-0.2,0.1-0.3c0.1-0.1,0.3-0.2,0.3-0.2
			C-2.7,11.6-2.7,11.7-2.8,11.8z M-3.1,7.2c0.3-0.4,0.7-0.8,1-1.2c0,0.1,0,0.2,0,0.3C-2.5,6.6-2.8,6.9-3.1,7.2z M-1.4,13.2
			c0,0-0.2-0.2-0.5-0.6c-0.1-0.1-0.2-0.2-0.2-0.3c0-0.1,0.1-0.1,0.2-0.2c0.1-0.1,0.3-0.2,0.4-0.5c0,0.2-0.1,0.3-0.1,0.4
			c0,0.1-0.1,0.2-0.1,0.3c0,0.1,0.1,0,0.1,0.1c0.1,0.1,0,0.2,0,0.3C-1.5,13-1.4,13.2-1.4,13.2z M-1.5,1.9c0.1-0.2,0.2-0.4,0.4-0.6
			C-1,1.2-0.9,1.1-0.8,1.1c0,0.1-0.1,0.2-0.2,0.3C-1.2,1.6-1.3,1.8-1.5,1.9z M1.3,8.5c1-1.3,2.3-2.8,3.8-4.2c1.1-1.1,2.2-2,3.2-2.8
			C7.6,2.2,6.8,2.9,6.1,3.6C4.4,5.3,2.8,6.9,1.3,8.5z M6.2,4.3c0.8-0.8,1.6-1.5,2.4-2c-0.4,0.5-0.9,1-1.4,1.6
			C6.1,5.1,4.9,6.2,3.8,7.2C4.4,6.3,5.2,5.3,6.2,4.3z M8.1,6.1c1.1-0.9,2.2-1.8,3.2-2.6C10.6,4.2,9.8,4.9,9,5.6
			C7.5,7,5.9,8.3,4.4,9.4C5.5,8.3,6.7,7.2,8.1,6.1z M9.8,6.2C8.2,7.6,6.6,8.9,5.2,10c1.1-1.1,2.3-2.2,3.6-3.4
			c1.1-0.9,2.2-1.8,3.2-2.6C11.3,4.8,10.5,5.5,9.8,6.2z M15.5,4.7c-0.7,0.7-1.4,1.4-2.2,2.1c-1.6,1.4-3.1,2.7-4.6,3.8
			c1.1-1.1,2.3-2.2,3.6-3.4C13.4,6.3,14.5,5.5,15.5,4.7z M6,12.4c1.4-1.7,3.1-3.5,5.1-5.3c0.9-0.8,1.8-1.5,2.6-2.2
			c-1,1-1.9,1.9-2.9,2.9C9.3,9.4,7.6,10.9,6,12.4z M6.4,14c1.6-1.5,3.2-3.1,5-4.7c1.4-1.3,2.8-2.4,4.2-3.5c-1.1,1.1-2.3,2.1-3.4,3.2
			C10.2,10.8,8.3,12.4,6.4,14z M6.7,15.1c1.1-1.3,2.5-2.7,4.1-4.1c1.4-1.2,2.7-2.2,4-3c-1.1,1-2.2,1.9-3.3,2.9
			C9.9,12.2,8.3,13.7,6.7,15.1z M14.7,9.3c-1.2,1.1-2.4,2.1-3.6,3c0.2-0.2,0.4-0.4,0.6-0.6c0.8-0.7,1.5-1.4,2.2-2.1
			c-0.1,0.1-0.2,0.1-0.3,0.2c-0.1,0-0.1,0.1-0.2,0.2c-1.3,1.1-2.4,2.2-3.5,3.3c-0.9,0.8-1.8,1.5-2.7,2.1c1.1-1.1,2.3-2.2,3.6-3.4
			c1-0.9,2-1.7,2.9-2.4c1-0.9,2.1-1.7,3-2.5C16.2,7.9,15.5,8.6,14.7,9.3z"/>
	</defs>
	<clipPath id="SVGID_2_">
		<use xlink:href="#SVGID_1_"  style="overflow:visible;"/>
	</clipPath>
	<path class="st0" d="M8.1,2.5c0,0-0.6,0.5-1.2,1c-0.6,0-1.9,0.1-2.6,0.4C3.6,3.5,3.1,3,3.1,3S2.6,3.8,2.3,4.3
		C1.8,4.5,1.4,4.8,1,5.2C0.5,5,0,4.7,0,4.7C0.6,6,1,7.2,2.1,7.9c1.8-2.8,10-2.5,11.8,0C15.1,7.3,15.5,6,16,4.8
		c-0.1,0-0.7,0.2-1.1,0.4c-0.2-0.3-0.8-0.7-1.1-0.9C13.5,3.7,13,3,13,3s-0.5,0.4-1.1,0.8c-0.8-0.2-1.8-0.3-2.7-0.3
		C8.6,3,8.1,2.5,8.1,2.5L8.1,2.5z"/>
	<path class="st0" d="M0.6,7.3c0,0,0.9,2.1,1.5,3.5c2.5,3.3,9,3.6,11.8,0.1c0.7-1.5,1.6-3.6,1.6-3.6c-0.7,1.1-1.9,1.8-2.6,2.2
		c-0.5,0.3-1.7,0.5-1.7,0.5L8,8.4L4.9,10c0,0-1.2-0.2-1.7-0.4C2.1,8.9,1.4,8.3,0.6,7.3z"/>
</g>
</svg>
