<?xml version="1.0" encoding="utf-8"?>
<!-- Generator: Adobe Illustrator 23.0.0, SVG Export Plug-In . SVG Version: 6.00 Build 0)  -->
<svg version="1.1" id="Layer_1" xmlns="http://www.w3.org/2000/svg" xmlns:xlink="http://www.w3.org/1999/xlink" x="0px" y="0px"
	 viewBox="0 0 16 16" style="enable-background:new 0 0 16 16;" xml:space="preserve">
<style type="text/css">
	.st0{clip-path:url(#SVGID_2_);}
	.st1{fill:#F75049;}
</style>
<g>
	<defs>
		<path id="SVGID_1_" d="M22.4,5.7c-0.1-0.1-0.3,0-0.6-0.3c-0.2-0.2-0.2-0.4-0.3-0.5C21,4.7,20,5.5,20,5.4c0,0,0.4-0.3,0.8-0.7
			C21,4.5,21.5,4,21.3,3.6C21.3,3.4,21,3.4,21,3.3c0-0.3,0.5-0.5,0.5-0.8c0-0.2-0.2-0.3-0.3-0.4c-0.4-0.1-0.8,0.3-0.9,0.2
			c0,0,0.3-0.2,0.5-0.5c0-0.1,0.2-0.4,0.1-0.5c-0.1-0.1-0.3-0.1-0.4-0.1c-0.1,0-0.2,0.1-0.3,0.1c0,0,0-0.1,0-0.2
			c0-0.2-0.4-0.3-0.6-0.3c-0.6-0.1-1,0.5-1.1,0.4c-0.1-0.1,0.5-0.6,0.4-1c-0.1-0.2-0.2-0.3-0.4-0.3c-0.3,0-0.4,0.3-0.5,0.3
			c-0.2-0.1,0.1-0.8-0.1-0.9c-0.1-0.1-0.3,0.1-0.6,0C17-0.8,17-0.9,16.9-0.9c-0.3-0.1-0.8,0.5-1.4,1c-0.3,0.2-0.7,0.6-1.2,0.9
			c0.3-0.3,0.5-0.6,0.7-0.8c0.4-0.5,0.7-0.7,0.7-1c0-0.1,0-0.4-0.2-0.5c-0.2-0.1-0.4,0.2-1.1,0.7c-0.2,0.1-0.3,0.2-0.4,0.3
			c0,0,0.3-0.4,0.2-0.8c0,0-0.1-0.2-0.2-0.3c-0.5-0.4-1.2-0.2-1.3-0.2c-0.9,0.2-1.2,0.9-2.3,1.4c0,0-0.2,0.1-0.4,0.2
			C9.4,0.3,9.2,0.4,9.1,0.5C8.8,0.7,8.6,0.8,8.4,1.1C8.3,1.4,8.4,1.6,8.2,1.7C8.1,1.9,7.9,1.9,7.8,1.9C7.2,2.1,6.4,3.2,6.3,3.4
			C5.8,4,4.4,5.5,0.6,8.9c5.2-5.4,6.7-7.2,6.8-7.3c0,0,0,0,0,0c0-0.1,0.2-0.5,0-0.6c-0.1-0.1-0.2,0-0.3-0.2c0,0,0-0.1,0-0.2
			c0-0.2,0.5-0.3,0.4-0.4c0,0-0.1-0.1-0.2-0.1C7,0.1,7,0,6.8-0.1C6.6-0.1,6.3,0,6.1,0.1C5.9,0.2,5.8,0.4,5.7,0.3c-0.1,0,0-0.2,0-0.3
			C5.6-0.1,5.4-0.1,5.4-0.1C5,0,4.8,0.3,4.7,0.2c-0.1,0,0-0.2-0.1-0.3C4.5-0.3,4.4-0.2,4.2-0.4C4-0.5,4.1-0.7,3.9-0.9
			C3.8-1,3.7-1.2,3.4-1.3c-0.2-0.1-0.3,0-0.6-0.1C2.6-1.5,2.6-1.6,2.3-1.7c-0.2,0-0.3,0-0.4,0.1C1.6-1.4,1.6-1.2,1.4-1.2
			c-0.2,0-0.2-0.2-0.6-0.3c-0.1,0-0.2,0-0.3,0C0.4-1.4,0.5-1.1,0.4-1C0.3-0.9,0.2-0.9,0.1-1C0-1,0-1.1,0-1.2
			c-0.2-0.2-1.2,0.1-1.5,0.7c-0.1,0.1-0.1,0.3-0.2,0.3c-0.2,0.1-0.3,0-0.5,0c-0.3,0-0.5,0.3-1.2,1.1c0,0-0.1,0.2-0.6,0.7
			c-1,1.1-1.1,1.2-1.1,1.5c0,0.6,0.1,0.8,0.1,0.8c0,0.1,0.1,0.3,0,0.4c-0.1,0.1-0.1,0-0.2,0.1c-0.1,0.1,0.1,0.4,0,0.8
			c0,0,0,0-0.1,0.3c-0.1,0.6-0.1,0.7,0,0.8c0.1,0.1,0.2,0.1,0.3,0.1c0.2,0,0.3-0.1,0.4-0.1c0.4-0.5,0.8-1,1.2-1.5
			C-3.7,5.1-3.9,5.4-4,5.6C-4.2,5.8-4.3,6-4.5,6.3c-0.1,0.1-0.1,0.2-0.2,0.4C-4.8,7-4.9,7.3-4.8,7.6c0.1,0.1,0.1,0.2,0.1,0.3
			c0,0.2-0.1,0.3,0,0.4c0.1,0.1,0.1,0.1,0.2,0.1c0.1,0.2,0,0.3,0,0.6c0,0.2,0.1,0.1,0.1,0.3c0.1,0.3-0.1,0.4,0,0.8
			c0,0.2,0,0.2,0.1,0.3c0.2,0.1,0.4-0.1,0.6,0.1c0.2,0.1,0.1,0.3,0.3,0.4c0.1,0,0.2-0.1,0.4,0c0,0,0.3,0,0.4,0.2
			c0,0.1-0.1,0.3-0.3,0.4c-0.4,0.2-0.9-0.1-0.9,0c0,0.1,0.1,0.2,0.2,0.3c1.1,1,1.1,1.1,1.4,1.3c0.4,0.2,0.3,0.1,0.7,0.4
			c0.6,0.3,1.2,0.7,1.2,1.1c0,0.3-0.2,0.3-0.2,0.6c0,0.2,0.1,0.6,0.3,0.7c0.2,0.1,0.3-0.1,0.7-0.1c0.3,0,0.4,0.3,0.6,0.3
			c0.4,0,0.6-0.5,0.9-0.4c0.2,0,0.2,0.2,0.4,0.3c0.2,0.1,0.4,0,0.6,0c1.1-1.2,2.9-3,5-5.2c1.8-1.9,2.2-2.4,3.2-3.4
			c2.9-2.7,5.9-4.9,6-4.7c0.1,0.1-1.3,1.4-6,5.8c-3.3,3.1-5.9,5.6-7.7,7.4c0,0.4,0.1,0.5,0.2,0.5c0.2,0.1,0.5-0.2,0.8,0
			c0.1,0.1,0.3,0.2,0.4,0.5c0,0.2,0,0.3,0.1,0.4c0.1,0.1,0.1,0,0.2,0.1c0.2,0.2,0.1,0.4,0.3,0.5c0.2,0.2,0.4,0,0.5,0.2
			c0,0.1-0.1,0.1,0,0.3c0,0.2,0.2,0.2,0.2,0.3c0,0.2-0.3,0.3-0.4,0.6c-0.1,0.2,0.1,0.3,0.1,0.5c0,0.5-0.6,0.6-0.6,1
			c0,0.2,0.3,0.5,0.5,0.5C6.5,21.5,6.6,21,7,21c0.5,0,0.6,0.7,1,0.6c0.3,0,0.3-0.4,0.7-0.4c0.2,0,0.3,0.1,0.5,0
			c0.1-0.1,0.1-0.2,0.3-0.3c0.1,0,0.1,0,0.2,0c0.3,0,0.6-0.4,0.8-0.9c0.1-0.4,0-0.5,0.2-0.9c0.1-0.2,0.3-0.4,0.4-0.4
			c0.6-0.4,1.3-1.1,2-1.7c0.9-0.9,1-1.2,1.6-1.5c0.1,0,0.3-0.1,0.5-0.3c0.3-0.3,0.5-0.6,0.6-0.9c0.4-0.9,0.9-0.9,1.8-2.2
			c0-0.1,0.2-0.4,0.2-0.4c-0.1-0.1-1.3,1.2-1.6,1C16,12.7,16,12.5,16,12.5c0.1-0.6,0.9-0.9,2.1-1.9c0.3-0.3,0.2-0.2,0.5-0.5
			c0.9-0.8,1.9-1.4,2.1-1.9C20.9,7.9,21,7.6,21,7.6c0-0.1,0-0.1,0.1-0.2c0.1-0.3,0.3-0.4,0.7-0.9C22.4,5.9,22.4,5.7,22.4,5.7z
			 M2.7,4.8C2.4,5.2,2,5.5,1.7,5.8c0.2-0.3,0.4-0.7,0.9-1C2.7,4.6,2.9,4.5,3,4.4C3,4.5,2.9,4.7,2.7,4.8z M2.5,3.5C3,2.9,3.5,2.4,4,2
			C3.6,2.5,3.2,3,2.6,3.6C2.3,3.9,2,4.2,1.6,4.5C1.9,4.2,2.2,3.8,2.5,3.5z M-3.6,3.4C-3.5,3.2-3.3,3-3.1,2.8C-3,2.7-2.9,2.6-2.8,2.5
			C-2.9,2.6-2.9,2.7-3,2.8C-3.2,3.1-3.4,3.3-3.6,3.4z M-2.7,12.3c-0.1,0.1-0.2,0.2-0.3,0.2c0,0,0-0.2,0.1-0.3C-2.7,12-2.5,12-2.5,12
			C-2.5,12.1-2.5,12.2-2.7,12.3z M-3,7.3C-2.6,6.8-2.3,6.4-1.9,6c0,0.1,0,0.2,0,0.3C-2.3,6.6-2.6,6.9-3,7.3z M-1.1,13.8
			c0,0-0.2-0.2-0.6-0.6c-0.1-0.1-0.2-0.2-0.2-0.3c0-0.1,0.1-0.1,0.2-0.2c0.1-0.1,0.3-0.2,0.5-0.5c0,0.2-0.1,0.4-0.1,0.5
			c-0.1,0.1-0.1,0.2-0.1,0.3c0,0.1,0.1,0,0.1,0.1c0.1,0.1,0,0.2,0,0.3C-1.3,13.6-1.1,13.8-1.1,13.8z M-1.2,1.5C-1.1,1.3-1,1-0.7,0.8
			c0.1-0.1,0.2-0.2,0.3-0.2c-0.1,0.1-0.1,0.2-0.2,0.3C-0.8,1.1-1,1.4-1.2,1.5z M1.8,8.7C3,7.2,4.4,5.7,6,4.1c1.2-1.2,2.4-2.2,3.5-3
			C8.7,1.8,7.9,2.6,7,3.4C5.2,5.2,3.5,6.9,1.8,8.7z M7.2,4.1C8.1,3.2,9,2.4,9.8,1.9C9.3,2.4,8.8,3,8.3,3.6C7,4.9,5.8,6.1,4.6,7.3
			C5.2,6.3,6.1,5.2,7.2,4.1z M9.2,6c1.2-1,2.4-2,3.5-2.9c-0.8,0.8-1.6,1.6-2.4,2.3c-1.7,1.6-3.4,3-5,4.2C6.5,8.5,7.8,7.3,9.2,6z
			 M11.1,6.2c-1.7,1.6-3.4,3-5,4.2C7.2,9.2,8.5,7.9,10,6.7c1.2-1,2.4-2,3.5-2.9C12.7,4.6,11.9,5.4,11.1,6.2z M17.3,4.5
			c-0.8,0.8-1.6,1.6-2.4,2.3c-1.7,1.6-3.4,3-5,4.2c1.2-1.2,2.5-2.4,3.9-3.7C15,6.3,16.2,5.4,17.3,4.5z M7,12.9
			c1.6-1.9,3.4-3.8,5.6-5.7c1-0.9,1.9-1.7,2.9-2.4c-1,1.1-2.1,2.1-3.1,3.2C10.5,9.6,8.8,11.3,7,12.9z M7.4,14.7
			c1.7-1.7,3.5-3.4,5.5-5.1c1.5-1.4,3.1-2.7,4.6-3.9C16.2,6.9,15,8,13.7,9.2C11.6,11.1,9.5,13,7.4,14.7z M7.7,15.8
			c1.2-1.4,2.7-2.9,4.5-4.5c1.5-1.3,3-2.4,4.3-3.2c-1.2,1-2.4,2.1-3.5,3.1C11.2,12.8,9.4,14.3,7.7,15.8z M16.5,9.6
			c-1.3,1.2-2.6,2.3-3.9,3.3c0.2-0.2,0.5-0.4,0.7-0.6c0.9-0.8,1.7-1.6,2.4-2.3c-0.1,0.1-0.2,0.2-0.3,0.2c-0.1,0.1-0.1,0.1-0.2,0.2
			c-1.4,1.2-2.7,2.4-3.8,3.6c-1,0.8-2,1.6-2.9,2.3c1.2-1.2,2.5-2.4,3.9-3.7c1.1-0.9,2.1-1.8,3.2-2.6c1.1-1,2.2-1.9,3.3-2.7
			C18.1,8,17.3,8.8,16.5,9.6z"/>
	</defs>
	<clipPath id="SVGID_2_">
		<use xlink:href="#SVGID_1_"  style="overflow:visible;"/>
	</clipPath>
	<g class="st0">
		<path class="st1" d="M13.8,8.9c-0.6,0-1.1,0.1-1.5,0.3C12.2,8.9,12,8.7,12,8.5c0-0.2-0.1-0.4,0-0.6c0-0.3,0.2-0.6,0.2-0.7
			c0,0,0-0.2-0.3-0.2s-0.6,0.1-0.6,0.2c0,0.1-0.1,0.3-0.1,0.5c0,0.3-0.6,1.3-1,1.9C10,9.3,9.9,9.1,9.8,9c0-0.2-0.1-0.4,0-0.6
			c0-0.3,0.2-0.7,0.2-0.7c0,0,0-0.2-0.4-0.2C9.3,7.5,9,7.5,9,7.6C9,7.7,9,7.9,8.9,8.1C8.8,8.3,8,10,7.8,10.5
			c-0.1,0.2-0.2,0.4-0.3,0.5c0,0,0,0,0,0c-0.1,0.1-0.1,0.2-0.1,0.2s0,0,0,0c0,0.1-0.1,0.2-0.1,0.2c0,0,0-0.2,0-0.5
			c0.1-0.6,0.4-1.5,0.4-1.6c0,0,0-0.2-0.2-0.3c-0.2-0.1-0.3,0-0.3,0c0,0,0,0,0,0c0-0.2,0.2-1-0.5-1c-0.5,0-1.1,0.5-1.4,1
			C5.1,9.1,4.7,9.4,4.2,9.6C4.1,9.7,3.9,9.8,3.7,9.9c0,0,0,0,0,0C2.8,8.9,1.1,8.2,1.2,7c0-0.5,0.2-1.7,3.2-3.2
			c2.5-1.2,4.4-0.9,4.8-0.1c0.5,1.1-1,3-3.6,3.3c-1,0.1-1.5-0.3-1.6-0.4C3.8,6.4,3.8,6.4,3.7,6.4c-0.1,0,0,0.2,0,0.3
			c0.1,0.2,0.4,0.5,0.9,0.7c0.5,0.2,1.6,0.2,3-0.3c1.5-0.6,2.7-2.3,2.4-3.6C9.7,2.1,7.3,1.6,5.1,2.4C3.8,2.8,2.4,3.6,1.3,4.5
			C0.1,5.7-0.1,6.7,0,7.1c0.3,1.5,2.3,2.4,3.1,3.1c0,0-0.1,0-0.1,0.1c-0.4,0.2-2,1-2.3,1.9c-0.4,1,0.1,1.7,0.4,1.8
			c1,0.3,2.1-0.2,2.7-1.1c0.6-0.9,0.5-2,0.2-2.5c0,0,0,0,0,0c0.1-0.1,0.2-0.1,0.3-0.2C4.5,10,4.8,9.9,4.9,9.8
			c-0.1,0.3-0.2,0.6-0.2,1.1c0,0.5,0.2,1.3,0.5,1.5c0.1,0.1,0.3,0.1,0.4,0.1c0.3,0,0.5-0.3,0.7-0.6c0.2-0.3,0.3-0.7,0.4-0.8
			c0,0.2-0.2,1.3,0.4,1.3c0.2,0,0.5-0.3,0.6-0.5c0,0,0,0,0,0c0,0,0-0.1,0-0.1c0.1-0.2,0.3-0.5,0.6-1.2c0.4-0.8,0.8-1.8,0.8-1.8
			s0,0.2,0.2,0.6c0.1,0.2,0.2,0.5,0.3,0.8c-0.1,0.1-0.2,0.2-0.2,0.2c-0.1,0.1-0.1,0.2-0.2,0.3c-0.3,0.4-0.7,0.8-0.8,0.9
			c-0.1,0.2,0,0.3,0.1,0.4c0.1,0.1,0.2,0.1,0.4,0.1c0.3,0,0.5-0.1,0.6-0.1c0.2-0.1,0.3-0.1,0.5-0.3c0.3-0.2,0.5-0.6,0.5-1
			c0-0.2-0.1-0.5-0.2-0.7c0,0,0.1-0.1,0.1-0.1c0.5-0.7,0.9-1.5,0.9-1.5s0,0.3,0.2,0.7c0.1,0.2,0.2,0.4,0.3,0.6
			c-0.5,0.4-0.8,0.8-0.8,1.1c-0.2,0.5,0,0.8,0.2,0.8c0.1,0,0.3,0,0.4-0.1c0.2,0,0.4-0.1,0.5-0.3c0.3-0.2,0.6-0.6,0.6-1
			c0-0.2-0.1-0.4-0.1-0.6c0.4-0.2,0.9-0.3,1.5-0.2c1.4,0.2,1.7,1,1.6,1.4c0,0.4-0.3,0.6-0.4,0.6c-0.1,0.1-0.1,0.1-0.1,0.1
			c0,0.1,0.1,0.1,0.1,0.1c0.1,0,0.7-0.3,0.8-1C16,9.8,15.2,8.9,13.8,8.9z M3,12.5C2.6,13,1.9,13.2,1.7,13c-0.3-0.2-0.2-0.9,0.4-1.5
			c0.3-0.3,0.8-0.6,1.1-0.8c0.1,0,0.2-0.1,0.3-0.2c0,0,0,0,0,0c0,0,0,0,0.1,0C3.7,11.3,3.5,12,3,12.5z M6.4,10.2
			c-0.2,0.4-0.5,1.4-0.7,1.3c-0.2,0-0.3-0.8,0-1.6c0.1-0.4,0.4-0.8,0.5-1c0.3-0.3,0.5-0.4,0.6-0.3C6.9,8.9,6.5,10,6.4,10.2z
			 M9.8,10.7c0,0.4-0.4,0.8-0.6,0.9c-0.1,0-0.1,0.1-0.2,0c0,0,0-0.1,0-0.1s0.4-0.4,0.5-0.5C9.6,10.9,9.7,10.8,9.8,10.7L9.8,10.7z
			 M11.3,11.1c0,0,0-0.2,0.1-0.5c0.1-0.1,0.2-0.4,0.5-0.6c0,0.1,0,0.2,0,0.3C12,10.8,11.6,11,11.3,11.1z"/>
	</g>
</g>
</svg>
