<?xml version="1.0" encoding="utf-8"?>
<!-- Generator: Adobe Illustrator 23.0.0, SVG Export Plug-In . SVG Version: 6.00 Build 0)  -->
<svg version="1.1" id="Layer_1" xmlns="http://www.w3.org/2000/svg" xmlns:xlink="http://www.w3.org/1999/xlink" x="0px" y="0px"
	 viewBox="0 0 16 16" style="enable-background:new 0 0 16 16;" xml:space="preserve">
<style type="text/css">
	.st0{clip-path:url(#SVGID_2_);fill-rule:evenodd;clip-rule:evenodd;fill:#F75049;}
</style>
<g>
	<defs>
		<path id="SVGID_1_" d="M20.6,5.9c-0.1-0.1-0.3,0-0.6-0.2c-0.2-0.2-0.2-0.3-0.3-0.4c-0.4-0.2-1.3,0.5-1.3,0.5c0,0,0.4-0.3,0.7-0.7
			c0.2-0.2,0.6-0.7,0.5-1c-0.1-0.2-0.3-0.2-0.3-0.3c0-0.3,0.5-0.4,0.4-0.7c0-0.2-0.2-0.3-0.3-0.3c-0.3-0.1-0.8,0.2-0.8,0.2
			c0,0,0.3-0.2,0.4-0.5c0-0.1,0.2-0.3,0.1-0.5c-0.1-0.1-0.3-0.1-0.4-0.1c-0.1,0-0.2,0.1-0.2,0c0,0,0-0.1,0-0.2
			c0-0.2-0.3-0.3-0.6-0.3c-0.5,0-0.9,0.5-1,0.4c-0.1-0.1,0.5-0.5,0.4-0.9c0-0.1-0.2-0.3-0.4-0.3c-0.3,0-0.4,0.3-0.5,0.3
			c-0.1-0.1,0.1-0.7-0.1-0.9c-0.1-0.1-0.3,0.1-0.6,0c-0.2-0.1-0.2-0.1-0.3-0.2c-0.3-0.1-0.8,0.4-1.3,0.9C14,1,13.6,1.3,13.1,1.6
			c0.3-0.3,0.5-0.6,0.7-0.7c0.4-0.4,0.6-0.6,0.6-0.9c0-0.1,0-0.4-0.2-0.4c-0.2-0.1-0.4,0.2-1.1,0.6c-0.2,0.1-0.3,0.2-0.4,0.3
			c0,0,0.3-0.4,0.2-0.7c0,0-0.1-0.2-0.2-0.3c-0.4-0.3-1.1-0.2-1.2-0.2c-0.9,0.2-1.1,0.8-2.1,1.3c0,0-0.1,0.1-0.3,0.2
			C8.7,1,8.5,1.1,8.4,1.2C8.1,1.3,7.9,1.5,7.8,1.7C7.7,2,7.8,2.2,7.6,2.3C7.5,2.5,7.3,2.5,7.2,2.5C6.6,2.7,5.9,3.7,5.8,3.8
			C5.4,4.4,4.1,5.7,0.6,8.9c4.7-5,6.2-6.6,6.2-6.7c0,0,0,0,0,0c0-0.1,0.2-0.4,0-0.6c-0.1-0.1-0.2,0-0.3-0.1c0,0,0-0.1,0-0.1
			C6.6,1.1,7,1.1,7,1c0,0-0.1-0.1-0.2-0.1C6.5,0.8,6.5,0.7,6.3,0.7C6.1,0.6,5.9,0.7,5.7,0.8C5.5,0.9,5.4,1.1,5.3,1c0,0,0-0.2,0-0.3
			C5.2,0.7,5,0.7,5,0.7C4.6,0.7,4.5,1,4.4,0.9c-0.1,0,0-0.2-0.1-0.3C4.2,0.5,4.1,0.5,3.9,0.4C3.7,0.3,3.8,0.1,3.6-0.1
			C3.5-0.2,3.4-0.4,3.2-0.5C3-0.6,2.9-0.4,2.7-0.5C2.4-0.6,2.4-0.8,2.2-0.8c-0.2,0-0.3,0-0.4,0.1C1.5-0.6,1.5-0.4,1.3-0.4
			c-0.2,0-0.2-0.2-0.5-0.2c-0.1,0-0.2,0-0.3,0c-0.1,0.1,0,0.4-0.1,0.5c-0.1,0.1-0.2,0.1-0.3,0C0.1-0.2,0.1-0.3,0-0.4
			c-0.2-0.2-1.1,0.1-1.4,0.6c0,0.1-0.1,0.2-0.2,0.3c-0.2,0.1-0.3,0-0.5,0c-0.3,0-0.5,0.2-1.1,1c0,0-0.1,0.1-0.6,0.6
			c-0.9,1-1,1.1-1.1,1.4c0,0.5,0,0.7,0,0.7c0,0.1,0.1,0.3,0,0.4c-0.1,0.1-0.1,0-0.2,0.1c-0.1,0.1,0.1,0.4,0,0.8c0,0,0,0,0,0.3
			C-5,6.3-5,6.4-4.9,6.5c0.1,0.1,0.2,0.1,0.3,0.1c0.2,0,0.3-0.1,0.4-0.1C-3.9,6-3.6,5.6-3.2,5.1c-0.2,0.3-0.3,0.6-0.4,0.7
			c-0.2,0.2-0.3,0.4-0.5,0.7c0,0.1-0.1,0.2-0.2,0.4c-0.1,0.2-0.2,0.5-0.1,0.8c0,0.1,0.1,0.2,0.1,0.3c0,0.2,0,0.3,0,0.4
			c0,0.1,0.1,0.1,0.2,0.1c0.1,0.1,0,0.3,0,0.6c0,0.2,0.1,0.1,0.1,0.3c0.1,0.3-0.1,0.4,0,0.7c0,0.1,0,0.2,0.1,0.3
			c0.1,0.1,0.4-0.1,0.6,0c0.2,0.1,0.1,0.3,0.3,0.4c0.1,0,0.2-0.1,0.4,0c0,0,0.3,0,0.3,0.1c0,0.1-0.1,0.3-0.3,0.4
			c-0.4,0.2-0.8-0.1-0.9,0c0,0.1,0.1,0.2,0.2,0.3c1,0.9,1,1,1.3,1.2c0.3,0.2,0.3,0.1,0.7,0.3c0.5,0.3,1.1,0.6,1.1,1
			c0,0.2-0.2,0.3-0.1,0.6c0,0.2,0.1,0.5,0.3,0.6c0.2,0.1,0.3-0.1,0.6-0.1c0.3,0,0.3,0.2,0.6,0.3c0.4,0,0.5-0.4,0.8-0.4
			c0.2,0,0.2,0.2,0.4,0.3c0.2,0.1,0.4,0,0.5,0c1-1.1,2.6-2.7,4.6-4.8c1.6-1.7,2.1-2.2,3-3.1C13.3,5,16.1,3,16.2,3.2
			c0.1,0.1-1.2,1.3-5.5,5.4c-3,2.8-5.4,5.2-7.1,6.8c0,0.3,0.1,0.5,0.2,0.5c0.2,0.1,0.5-0.2,0.8,0c0.1,0.1,0.3,0.2,0.3,0.4
			c0,0.2,0,0.3,0.1,0.4c0.1,0.1,0.1,0,0.2,0.1c0.2,0.2,0.1,0.3,0.3,0.5c0.2,0.1,0.4,0,0.4,0.2c0,0.1,0,0.1,0,0.3
			c0,0.1,0.2,0.1,0.2,0.3c0,0.2-0.3,0.3-0.3,0.6c0,0.2,0.1,0.2,0.1,0.5c0,0.5-0.6,0.6-0.5,0.9c0,0.2,0.2,0.4,0.4,0.5
			C6,20.4,6.1,20,6.5,20c0.4,0,0.6,0.6,0.9,0.5c0.3,0,0.3-0.4,0.6-0.4c0.2,0,0.3,0.1,0.4,0c0.1-0.1,0.1-0.2,0.3-0.3
			c0.1,0,0.1,0,0.2,0c0.2,0,0.6-0.4,0.7-0.8c0.1-0.4,0-0.5,0.2-0.8C9.9,18.1,10,18,10.1,18c0.5-0.4,1.2-1,1.8-1.6
			c0.8-0.8,0.9-1.1,1.5-1.4c0.1,0,0.3-0.1,0.5-0.3c0.3-0.3,0.4-0.6,0.6-0.8c0.4-0.8,0.8-0.8,1.7-2c0-0.1,0.2-0.3,0.2-0.4
			c-0.1-0.1-1.2,1.1-1.4,1c-0.1-0.1-0.1-0.2-0.1-0.2c0.1-0.6,0.8-0.8,1.9-1.7c0.3-0.2,0.2-0.2,0.5-0.5c0.8-0.7,1.7-1.3,2-1.7
			c0.1-0.3,0.2-0.6,0.2-0.6c0-0.1,0-0.1,0.1-0.2c0.1-0.3,0.2-0.4,0.7-0.9C20.6,6.1,20.6,6,20.6,5.9z M3.6,5.1C3.3,5.5,3,5.8,2.7,6
			c0.2-0.3,0.4-0.6,0.8-0.9c0.1-0.1,0.3-0.2,0.4-0.3C3.8,4.9,3.7,5,3.6,5.1z M3.4,3.9c0.5-0.5,1-1,1.4-1.4C4.5,3,4,3.5,3.5,4
			C3.2,4.3,2.9,4.6,2.6,4.9C2.9,4.6,3.1,4.2,3.4,3.9z M-2.1,3.9c0.1-0.2,0.2-0.4,0.4-0.6C-1.6,3.2-1.6,3.1-1.5,3
			c0,0.1-0.1,0.2-0.2,0.3C-1.8,3.6-2,3.7-2.1,3.9z M-1.3,12c-0.1,0.1-0.2,0.2-0.3,0.2c0,0,0-0.2,0.1-0.3c0.1-0.1,0.3-0.2,0.3-0.2
			C-1.2,11.8-1.2,11.9-1.3,12z M-1.6,7.4C-1.3,7-1,6.6-0.6,6.2c0,0.1,0,0.2,0,0.3C-1,6.8-1.3,7.1-1.6,7.4z M0.1,13.4
			c0,0-0.2-0.2-0.5-0.6c-0.1-0.1-0.2-0.2-0.2-0.3c0-0.1,0.1-0.1,0.2-0.2c0.1-0.1,0.3-0.2,0.4-0.5c0,0.2-0.1,0.3-0.1,0.4
			c0,0.1-0.1,0.2-0.1,0.3c0,0.1,0.1,0,0.1,0.1c0.1,0.1,0,0.2,0,0.3C0,13.2,0.1,13.4,0.1,13.4z M0,2.1c0.1-0.2,0.2-0.4,0.4-0.6
			c0.1-0.1,0.2-0.2,0.2-0.2c0,0.1-0.1,0.2-0.2,0.3C0.3,1.8,0.2,2,0,2.1z M2.8,8.7c1-1.3,2.3-2.8,3.8-4.2c1.1-1.1,2.2-2,3.2-2.8
			C9.1,2.4,8.3,3.1,7.6,3.8C5.9,5.5,4.3,7.1,2.8,8.7z M7.7,4.5c0.8-0.8,1.6-1.5,2.4-2C9.7,3,9.2,3.5,8.7,4C7.6,5.2,6.5,6.4,5.3,7.4
			C5.9,6.5,6.7,5.5,7.7,4.5z M9.6,6.3c1.1-0.9,2.2-1.8,3.2-2.6c-0.7,0.7-1.4,1.4-2.2,2.1C9,7.2,7.4,8.5,6,9.6C7,8.5,8.3,7.4,9.6,6.3
			z M11.3,6.4c-1.6,1.4-3.1,2.7-4.6,3.8C7.8,9.1,9,8,10.3,6.9c1.1-0.9,2.2-1.8,3.2-2.6C12.8,5,12.1,5.7,11.3,6.4z M17,4.8
			c-0.7,0.7-1.4,1.4-2.2,2.1c-1.6,1.4-3.1,2.7-4.6,3.8c1.1-1.1,2.3-2.2,3.6-3.4C14.9,6.5,16,5.6,17,4.8z M7.5,12.6
			c1.4-1.7,3.1-3.5,5.1-5.3c0.9-0.8,1.8-1.5,2.6-2.2c-1,1-1.9,1.9-2.9,2.9C10.8,9.5,9.2,11.1,7.5,12.6z M7.9,14.2
			c1.6-1.5,3.2-3.1,5-4.7c1.4-1.3,2.8-2.4,4.2-3.5C16,7,14.9,8.1,13.7,9.2C11.8,11,9.8,12.6,7.9,14.2z M8.2,15.2
			c1.1-1.3,2.5-2.7,4.1-4.1c1.4-1.2,2.7-2.2,4-3c-1.1,1-2.2,1.9-3.3,2.9C11.4,12.4,9.8,13.8,8.2,15.2z M16.2,9.5
			c-1.2,1.1-2.4,2.1-3.6,3c0.2-0.2,0.4-0.4,0.6-0.6c0.8-0.7,1.5-1.4,2.2-2.1c-0.1,0.1-0.2,0.1-0.3,0.2c-0.1,0-0.1,0.1-0.2,0.2
			c-1.3,1.1-2.4,2.2-3.5,3.3c-0.9,0.8-1.8,1.5-2.7,2.1c1.1-1.1,2.3-2.2,3.6-3.4c1-0.9,2-1.7,2.9-2.4c1-0.9,2.1-1.7,3-2.5
			C17.8,8.1,17,8.8,16.2,9.5z"/>
	</defs>
	<clipPath id="SVGID_2_">
		<use xlink:href="#SVGID_1_"  style="overflow:visible;"/>
	</clipPath>
	<polygon class="st0" points="0,0 3.2,0 3.2,3.7 0,3.7 0,0 0,0 0,0 0,0 	"/>
	<polygon class="st0" points="5.3,0 16,0 16,3.7 5.3,3.7 5.3,0 5.3,0 5.3,0 5.3,0 	"/>
	<polygon class="st0" points="0,6.2 3.2,6.2 3.2,9.8 0,9.8 0,6.2 0,6.2 0,6.2 	"/>
	<polygon class="st0" points="5.3,6.2 16,6.2 16,9.8 5.3,9.8 5.3,6.2 5.3,6.2 	"/>
	<polygon class="st0" points="0,12.3 3.2,12.3 3.2,16 0,16 0,12.3 	"/>
	<rect x="5.3" y="12.3" class="st0" width="10.7" height="3.7"/>
</g>
</svg>
