<?xml version="1.0" encoding="utf-8"?>
<!-- Generator: Adobe Illustrator 23.0.0, SVG Export Plug-In . SVG Version: 6.00 Build 0)  -->
<svg version="1.1" id="Layer_1" xmlns="http://www.w3.org/2000/svg" xmlns:xlink="http://www.w3.org/1999/xlink" x="0px" y="0px"
	 viewBox="0 0 16 16" style="enable-background:new 0 0 16 16;" xml:space="preserve">
<style type="text/css">
	.st0{clip-path:url(#SVGID_2_);fill:#F75049;}
</style>
<g>
	<defs>
		<path id="SVGID_1_" d="M18.2,6.2c-0.1-0.1-0.3,0-0.6-0.2c-0.2-0.2-0.2-0.3-0.3-0.4c-0.4-0.2-1.3,0.5-1.3,0.5c0,0,0.4-0.3,0.7-0.7
			c0.2-0.2,0.6-0.7,0.5-1C17.2,4.2,17,4.2,17,4.1c0-0.3,0.5-0.4,0.4-0.7c0-0.2-0.2-0.3-0.3-0.3c-0.3-0.1-0.8,0.2-0.8,0.2
			c0,0,0.3-0.2,0.4-0.5c0-0.1,0.2-0.3,0.1-0.5c-0.1-0.1-0.3-0.1-0.4-0.1c-0.1,0-0.2,0.1-0.2,0c0,0,0-0.1,0-0.2
			c0-0.2-0.3-0.3-0.6-0.3c-0.5,0-0.9,0.5-1,0.4c-0.1-0.1,0.5-0.5,0.4-0.9c0-0.1-0.2-0.3-0.4-0.3c-0.3,0-0.4,0.3-0.5,0.3
			C14,1.2,14.2,0.6,14,0.4c-0.1-0.1-0.3,0.1-0.6,0c-0.2-0.1-0.2-0.1-0.3-0.2c-0.3-0.1-0.8,0.4-1.3,0.9c-0.2,0.2-0.6,0.5-1.1,0.8
			c0.3-0.3,0.5-0.6,0.7-0.7C11.8,0.7,12,0.6,12,0.3c0-0.1,0-0.4-0.2-0.4c-0.2-0.1-0.4,0.2-1.1,0.6c-0.2,0.1-0.3,0.2-0.4,0.3
			c0,0,0.3-0.4,0.2-0.7c0,0-0.1-0.2-0.2-0.3C10-0.6,9.3-0.4,9.2-0.4C8.3-0.2,8.1,0.4,7,0.9c0,0-0.1,0.1-0.3,0.2
			C6.3,1.3,6.1,1.4,6,1.5C5.8,1.7,5.6,1.8,5.5,2.1C5.3,2.3,5.4,2.5,5.2,2.7C5.1,2.8,4.9,2.8,4.9,2.8C4.3,3,3.6,4,3.5,4.2
			C3.1,4.7,1.8,6.1-1.7,9.2c4.7-5,6.2-6.6,6.2-6.7c0,0,0,0,0,0c0-0.1,0.2-0.4,0-0.6c-0.1-0.1-0.2,0-0.3-0.1c0,0,0-0.1,0-0.1
			c0-0.2,0.4-0.2,0.4-0.3c0,0-0.1-0.1-0.2-0.1C4.1,1.1,4.1,1,4,1C3.7,0.9,3.5,1.1,3.3,1.2C3.1,1.3,3,1.4,2.9,1.4c0,0,0-0.2,0-0.3
			C2.9,1,2.7,1,2.6,1C2.3,1,2.1,1.3,2,1.2c-0.1,0,0-0.2-0.1-0.3C1.8,0.8,1.7,0.8,1.6,0.7C1.4,0.6,1.5,0.5,1.3,0.2
			C1.2,0.1,1.1-0.1,0.8-0.1c-0.2-0.1-0.3,0-0.5-0.1C0.1-0.3,0.1-0.4-0.2-0.5c-0.2,0-0.3,0-0.4,0.1C-0.9-0.2-0.9-0.1-1-0.1
			c-0.2,0-0.2-0.2-0.5-0.2c-0.1,0-0.2,0-0.3,0c-0.1,0.1,0,0.4-0.1,0.5c-0.1,0.1-0.2,0.1-0.3,0C-2.3,0.1-2.3,0-2.3,0
			C-2.5-0.2-3.5,0-3.8,0.6c0,0.1-0.1,0.2-0.2,0.3c-0.2,0.1-0.3,0-0.5,0c-0.3,0-0.5,0.2-1.1,1c0,0-0.1,0.1-0.6,0.6
			c-0.9,1-1,1.1-1.1,1.4c0,0.5,0,0.7,0,0.7c0,0.1,0.1,0.3,0,0.4c-0.1,0.1-0.1,0-0.2,0.1c-0.1,0.1,0.1,0.4,0,0.8c0,0,0,0,0,0.3
			c-0.1,0.5-0.1,0.6,0,0.7C-7.2,6.9-7.1,6.9-7,6.9c0.2,0,0.3-0.1,0.4-0.1c0.4-0.5,0.8-0.9,1.1-1.4C-5.7,5.8-5.9,6-6,6.2
			c-0.2,0.2-0.3,0.4-0.5,0.7c0,0.1-0.1,0.2-0.2,0.4C-6.7,7.5-6.8,7.7-6.7,8c0,0.1,0.1,0.2,0.1,0.3c0,0.2,0,0.3,0,0.4
			c0,0.1,0.1,0.1,0.2,0.1c0.1,0.1,0,0.3,0,0.6c0,0.2,0.1,0.1,0.1,0.3c0.1,0.3-0.1,0.4,0,0.7c0,0.1,0,0.2,0.1,0.3
			c0.1,0.1,0.4-0.1,0.6,0c0.2,0.1,0.1,0.3,0.3,0.4c0.1,0,0.2-0.1,0.4,0c0,0,0.3,0,0.3,0.1c0,0.1-0.1,0.3-0.3,0.4
			c-0.4,0.2-0.8-0.1-0.9,0c0,0.1,0.1,0.2,0.2,0.3c1,0.9,1,1,1.3,1.2c0.3,0.2,0.3,0.1,0.7,0.3c0.5,0.3,1.1,0.6,1.1,1
			c0,0.2-0.2,0.3-0.1,0.6c0,0.2,0.1,0.5,0.3,0.6c0.2,0.1,0.3-0.1,0.6-0.1c0.3,0,0.3,0.2,0.6,0.3c0.4,0,0.5-0.4,0.8-0.4
			c0.2,0,0.2,0.2,0.4,0.3c0.2,0.1,0.4,0,0.5,0c1-1.1,2.6-2.7,4.6-4.8c1.6-1.7,2.1-2.2,3-3.1c2.6-2.5,5.4-4.5,5.5-4.3
			c0.1,0.1-1.2,1.3-5.5,5.4c-3,2.8-5.4,5.2-7.1,6.8c0,0.3,0.1,0.5,0.2,0.5c0.2,0.1,0.5-0.2,0.8,0c0.1,0.1,0.3,0.2,0.3,0.4
			c0,0.2,0,0.3,0.1,0.4c0.1,0.1,0.1,0,0.2,0.1c0.2,0.2,0.1,0.3,0.3,0.5c0.2,0.1,0.4,0,0.4,0.2c0,0.1,0,0.1,0,0.3
			c0,0.1,0.2,0.1,0.2,0.3c0,0.2-0.3,0.3-0.3,0.6c0,0.2,0.1,0.2,0.1,0.5c0,0.5-0.6,0.6-0.5,0.9c0,0.2,0.2,0.4,0.4,0.5
			c0.3,0,0.5-0.4,0.8-0.4c0.4,0,0.6,0.6,0.9,0.5c0.3,0,0.3-0.4,0.6-0.4c0.2,0,0.3,0.1,0.4,0c0.1-0.1,0.1-0.2,0.3-0.3
			c0.1,0,0.1,0,0.2,0c0.2,0,0.6-0.4,0.7-0.8c0.1-0.4,0-0.5,0.2-0.8c0.1-0.2,0.3-0.3,0.4-0.4c0.5-0.4,1.2-1,1.8-1.6
			c0.8-0.8,0.9-1.1,1.5-1.4c0.1,0,0.3-0.1,0.5-0.3c0.3-0.3,0.4-0.6,0.6-0.8c0.4-0.8,0.8-0.8,1.7-2c0-0.1,0.2-0.3,0.2-0.4
			c-0.1-0.1-1.2,1.1-1.4,1c-0.1-0.1-0.1-0.2-0.1-0.2c0.1-0.6,0.8-0.8,1.9-1.7c0.3-0.2,0.2-0.2,0.5-0.5c0.8-0.7,1.7-1.3,2-1.7
			C16.9,8.3,17,8,17,8c0-0.1,0-0.1,0.1-0.2c0.1-0.3,0.2-0.4,0.7-0.9C18.2,6.4,18.3,6.3,18.2,6.2z M1.3,5.5C1,5.9,0.6,6.1,0.3,6.3
			c0.2-0.3,0.4-0.6,0.8-0.9c0.1-0.1,0.3-0.2,0.4-0.3C1.5,5.2,1.4,5.3,1.3,5.5z M1,4.3c0.5-0.5,1-1,1.4-1.4c-0.3,0.5-0.8,1-1.3,1.5
			C0.9,4.7,0.6,4.9,0.3,5.2C0.5,4.9,0.8,4.6,1,4.3z M-4.5,4.2C-4.4,4-4.3,3.8-4.1,3.6C-4,3.5-3.9,3.4-3.8,3.4c0,0.1-0.1,0.2-0.2,0.3
			C-4.2,3.9-4.3,4.1-4.5,4.2z M-3.7,12.4c-0.1,0.1-0.2,0.2-0.3,0.2c0,0,0-0.2,0.1-0.3c0.1-0.1,0.3-0.2,0.3-0.2
			C-3.5,12.1-3.6,12.2-3.7,12.4z M-4,7.7c0.3-0.4,0.7-0.8,1-1.2c0,0.1,0,0.2,0,0.3C-3.3,7.1-3.6,7.4-4,7.7z M-2.3,13.7
			c0,0-0.2-0.2-0.5-0.6C-2.9,13-2.9,13-2.9,12.9c0-0.1,0.1-0.1,0.2-0.2c0.1-0.1,0.3-0.2,0.4-0.5c0,0.2-0.1,0.3-0.1,0.4
			c0,0.1-0.1,0.2-0.1,0.3c0,0.1,0.1,0,0.1,0.1c0.1,0.1,0,0.2,0,0.3C-2.4,13.5-2.2,13.7-2.3,13.7z M-2.3,2.4C-2.3,2.2-2.1,2-1.9,1.8
			c0.1-0.1,0.2-0.2,0.2-0.2c0,0.1-0.1,0.2-0.2,0.3C-2,2.1-2.2,2.3-2.3,2.4z M0.5,9c1-1.3,2.3-2.8,3.8-4.2c1.1-1.1,2.2-2,3.2-2.8
			C6.7,2.7,6,3.4,5.2,4.2C3.6,5.8,2,7.4,0.5,9z M5.4,4.8C6.2,4,7,3.3,7.7,2.8c-0.4,0.5-0.9,1-1.4,1.6C5.2,5.6,4.1,6.7,3,7.7
			C3.6,6.8,4.4,5.8,5.4,4.8z M7.2,6.6C8.3,5.6,9.4,4.8,10.4,4C9.7,4.7,9,5.4,8.2,6.1C6.6,7.6,5.1,8.8,3.6,10
			C4.7,8.9,5.9,7.7,7.2,6.6z M8.9,6.7c-1.6,1.4-3.1,2.7-4.6,3.8c1.1-1.1,2.3-2.2,3.6-3.4c1.1-0.9,2.2-1.8,3.2-2.6
			C10.4,5.3,9.7,6,8.9,6.7z M14.7,5.2c-0.7,0.7-1.4,1.4-2.2,2.1c-1.6,1.4-3.1,2.7-4.6,3.8c1.1-1.1,2.3-2.2,3.6-3.4
			C12.6,6.8,13.6,6,14.7,5.2z M5.2,12.9c1.4-1.7,3.1-3.5,5.1-5.3c0.9-0.8,1.8-1.5,2.6-2.2c-1,1-1.9,1.9-2.9,2.9
			C8.4,9.9,6.8,11.4,5.2,12.9z M5.6,14.6c1.6-1.5,3.2-3.1,5-4.7c1.4-1.3,2.8-2.4,4.2-3.5c-1.1,1.1-2.3,2.1-3.4,3.2
			C9.4,11.3,7.5,13,5.6,14.6z M5.8,15.6c1.1-1.3,2.5-2.7,4.1-4.1c1.4-1.2,2.7-2.2,4-3c-1.1,1-2.2,1.9-3.3,2.9
			C9,12.8,7.4,14.2,5.8,15.6z M13.9,9.9c-1.2,1.1-2.4,2.1-3.6,3c0.2-0.2,0.4-0.4,0.6-0.6c0.8-0.7,1.5-1.4,2.2-2.1
			c-0.1,0.1-0.2,0.1-0.3,0.2c-0.1,0-0.1,0.1-0.2,0.2c-1.3,1.1-2.4,2.2-3.5,3.3c-0.9,0.8-1.8,1.5-2.7,2.1c1.1-1.1,2.3-2.2,3.6-3.4
			c1-0.9,2-1.7,2.9-2.4c1-0.9,2.1-1.7,3-2.5C15.4,8.4,14.7,9.1,13.9,9.9z"/>
	</defs>
	<clipPath id="SVGID_2_">
		<use xlink:href="#SVGID_1_"  style="overflow:visible;"/>
	</clipPath>
	<path class="st0" d="M5.7,0C5.4,0.5,5.1,2.1,6.1,2.9c1.1,1,1.4,2.1,1.4,3.9c0,2.5-1.9,4.4-0.6,6.8C3.1,10.2,6.9,5.1,4,3.1
		C5.2,6.2,1.1,8,1.1,11c0,3.2,2.3,5,5,5c-2-0.9-2.9-3.4-2.8-4.9c1.4,3.4,3.4,4.9,6.9,4.9c-1.3-1.9-1.5-2.1-1.6-3.3
		c0-1.1,0.4-1.3,1.1-2.7c1.8-3,1-6.1-1.5-7.5C7.9,2.2,7.7,2.2,6.8,1.8C6.3,1.5,5.8,0.9,5.7,0"/>
	<path class="st0" d="M11.9,5.1c1.8,2.5-0.3,4.5-1.2,6.1c-0.8,1.2,0,3.2,0.8,4.8c0.1-1.4,0.9-2.3,1.6-2.8c2.1-1.7,2.2-3.9,1.1-5.9
		C13.4,6.2,12.8,5.9,11.9,5.1"/>
</g>
</svg>
