<?xml version="1.0" encoding="utf-8"?>
<!-- Generator: Adobe Illustrator 23.0.0, SVG Export Plug-In . SVG Version: 6.00 Build 0)  -->
<svg version="1.1" id="Layer_1" xmlns="http://www.w3.org/2000/svg" xmlns:xlink="http://www.w3.org/1999/xlink" x="0px" y="0px"
	 viewBox="0 0 16 16" style="enable-background:new 0 0 16 16;" xml:space="preserve">
<style type="text/css">
	.st0{clip-path:url(#SVGID_2_);fill:#F75049;}
</style>
<g>
	<defs>
		<path id="SVGID_1_" d="M20.1,5.6c-0.1-0.1-0.3,0-0.6-0.2c-0.2-0.2-0.2-0.3-0.3-0.4C18.9,4.6,18,5.4,18,5.4c0,0,0.4-0.3,0.7-0.7
			c0.2-0.2,0.6-0.7,0.5-1c-0.1-0.2-0.3-0.2-0.3-0.3c0-0.3,0.5-0.4,0.4-0.7c0-0.2-0.2-0.3-0.3-0.3c-0.3-0.1-0.8,0.2-0.8,0.2
			c0,0,0.3-0.2,0.4-0.5c0-0.1,0.2-0.3,0.1-0.5c-0.1-0.1-0.3-0.1-0.4-0.1c-0.1,0-0.2,0.1-0.2,0c0,0,0-0.1,0-0.2
			c0-0.2-0.3-0.3-0.6-0.3c-0.5,0-0.9,0.5-1,0.4c-0.1-0.1,0.5-0.5,0.4-0.9c0-0.1-0.2-0.3-0.4-0.3c-0.3,0-0.4,0.3-0.5,0.3
			c-0.1-0.1,0.1-0.7-0.1-0.9c-0.1-0.1-0.3,0.1-0.6,0c-0.2-0.1-0.2-0.1-0.3-0.2c-0.3-0.1-0.8,0.4-1.3,0.9c-0.2,0.2-0.6,0.5-1.1,0.8
			c0.3-0.3,0.5-0.6,0.7-0.7c0.4-0.4,0.6-0.6,0.6-0.9c0-0.1,0-0.4-0.2-0.4c-0.2-0.1-0.4,0.2-1.1,0.6C12.5-0.1,12.4,0,12.3,0
			c0,0,0.3-0.4,0.2-0.7c0,0-0.1-0.2-0.2-0.3c-0.4-0.3-1.1-0.2-1.2-0.2C10.2-0.9,10-0.3,8.9,0.2c0,0-0.1,0.1-0.3,0.2
			C8.2,0.6,8,0.7,7.9,0.8C7.7,1,7.5,1.1,7.4,1.4C7.2,1.6,7.3,1.8,7.1,2C7,2.1,6.8,2.1,6.8,2.2C6.2,2.3,5.5,3.3,5.4,3.5
			C5,4,3.7,5.4,0.2,8.5c4.7-5,6.2-6.6,6.2-6.7c0,0,0,0,0,0c0-0.1,0.2-0.4,0-0.6c-0.1-0.1-0.2,0-0.3-0.1c0,0,0-0.1,0-0.1
			c0-0.2,0.4-0.2,0.4-0.3c0,0-0.1-0.1-0.2-0.1C6,0.4,6,0.3,5.9,0.3C5.6,0.2,5.4,0.4,5.2,0.5C5,0.6,4.9,0.7,4.8,0.7c0,0,0-0.2,0-0.3
			C4.8,0.3,4.6,0.3,4.5,0.3C4.2,0.3,4,0.6,3.9,0.5c-0.1,0,0-0.2-0.1-0.3C3.7,0.1,3.6,0.1,3.5,0C3.3-0.1,3.4-0.2,3.2-0.5
			C3.1-0.6,3-0.8,2.7-0.8c-0.2-0.1-0.3,0-0.5-0.1C2-1,2-1.1,1.7-1.2c-0.2,0-0.3,0-0.4,0.1C1-0.9,1-0.8,0.9-0.8C0.7-0.8,0.6-1,0.3-1
			c-0.1,0-0.2,0-0.3,0c-0.1,0.1,0,0.4-0.1,0.5c-0.1,0.1-0.2,0.1-0.3,0c-0.1-0.1-0.1-0.1-0.1-0.2c-0.2-0.2-1.1,0.1-1.4,0.6
			c0,0.1-0.1,0.2-0.2,0.3c-0.2,0.1-0.3,0-0.5,0c-0.3,0-0.5,0.2-1.1,1c0,0-0.1,0.1-0.6,0.6c-0.9,1-1,1.1-1.1,1.4c0,0.5,0,0.7,0,0.7
			c0,0.1,0.1,0.3,0,0.4c-0.1,0.1-0.1,0-0.2,0.1c-0.1,0.1,0.1,0.4,0,0.8c0,0,0,0,0,0.3c-0.1,0.5-0.1,0.6,0,0.7
			c0.1,0.1,0.2,0.1,0.3,0.1c0.2,0,0.3-0.1,0.4-0.1C-4.4,5.6-4,5.2-3.6,4.7C-3.8,5.1-4,5.3-4.1,5.5c-0.2,0.2-0.3,0.4-0.5,0.7
			c0,0.1-0.1,0.2-0.2,0.4c-0.1,0.2-0.2,0.5-0.1,0.8c0,0.1,0.1,0.2,0.1,0.3c0,0.2,0,0.3,0,0.4c0,0.1,0.1,0.1,0.2,0.1
			c0.1,0.1,0,0.3,0,0.6c0,0.2,0.1,0.1,0.1,0.3c0.1,0.3-0.1,0.4,0,0.7c0,0.1,0,0.2,0.1,0.3c0.1,0.1,0.4-0.1,0.6,0
			c0.2,0.1,0.1,0.3,0.3,0.4c0.1,0,0.2-0.1,0.4,0c0,0,0.3,0,0.3,0.1c0,0.1-0.1,0.3-0.3,0.4c-0.4,0.2-0.8-0.1-0.9,0
			c0,0.1,0.1,0.2,0.2,0.3c1,0.9,1,1,1.3,1.2c0.3,0.2,0.3,0.1,0.7,0.3c0.5,0.3,1.1,0.6,1.1,1c0,0.2-0.2,0.3-0.1,0.6
			c0,0.2,0.1,0.5,0.3,0.6c0.2,0.1,0.3-0.1,0.6-0.1c0.3,0,0.3,0.2,0.6,0.3c0.4,0,0.5-0.4,0.8-0.4c0.2,0,0.2,0.2,0.4,0.3
			c0.2,0.1,0.4,0,0.5,0c1-1.1,2.6-2.7,4.6-4.8c1.6-1.7,2.1-2.2,3-3.1c2.6-2.5,5.4-4.5,5.5-4.3c0.1,0.1-1.2,1.3-5.5,5.4
			c-3,2.8-5.4,5.2-7.1,6.8c0,0.3,0.1,0.5,0.2,0.5c0.2,0.1,0.5-0.2,0.8,0c0.1,0.1,0.3,0.2,0.3,0.4c0,0.2,0,0.3,0.1,0.4
			c0.1,0.1,0.1,0,0.2,0.1c0.2,0.2,0.1,0.3,0.3,0.5c0.2,0.1,0.4,0,0.4,0.2c0,0.1,0,0.1,0,0.3c0,0.1,0.2,0.1,0.2,0.3
			c0,0.2-0.3,0.3-0.3,0.6c0,0.2,0.1,0.2,0.1,0.5c0,0.5-0.6,0.6-0.5,0.9C4.8,19.8,5,20,5.2,20c0.3,0,0.5-0.4,0.8-0.4
			c0.4,0,0.6,0.6,0.9,0.5c0.3,0,0.3-0.4,0.6-0.4c0.2,0,0.3,0.1,0.4,0c0.1-0.1,0.1-0.2,0.3-0.3c0.1,0,0.1,0,0.2,0
			c0.2,0,0.6-0.4,0.7-0.8c0.1-0.4,0-0.5,0.2-0.8c0.1-0.2,0.3-0.3,0.4-0.4c0.5-0.4,1.2-1,1.8-1.6c0.8-0.8,0.9-1.1,1.5-1.4
			c0.1,0,0.3-0.1,0.5-0.3c0.3-0.3,0.4-0.6,0.6-0.8c0.4-0.8,0.8-0.8,1.7-2c0-0.1,0.2-0.3,0.2-0.4c-0.1-0.1-1.2,1.1-1.4,1
			c-0.1-0.1-0.1-0.2-0.1-0.2c0.1-0.6,0.8-0.8,1.9-1.7c0.3-0.2,0.2-0.2,0.5-0.5c0.8-0.7,1.7-1.3,2-1.7c0.1-0.3,0.2-0.6,0.2-0.6
			c0-0.1,0-0.1,0.1-0.2c0.1-0.3,0.2-0.4,0.7-0.9C20.1,5.8,20.2,5.6,20.1,5.6z M3.2,4.8C2.9,5.2,2.5,5.4,2.2,5.7C2.4,5.4,2.7,5,3,4.7
			c0.1-0.1,0.3-0.2,0.4-0.3C3.4,4.5,3.3,4.7,3.2,4.8z M2.9,3.6c0.5-0.5,1-1,1.4-1.4C4,2.6,3.6,3.1,3.1,3.6C2.8,4,2.5,4.3,2.2,4.5
			C2.4,4.2,2.7,3.9,2.9,3.6z M-2.6,3.5c0.1-0.2,0.2-0.4,0.4-0.6C-2.1,2.8-2,2.7-1.9,2.7C-2,2.8-2,2.9-2.1,2.9
			C-2.3,3.2-2.4,3.4-2.6,3.5z M-1.8,11.7C-1.9,11.8-2,11.8-2,11.9c0,0,0-0.2,0.1-0.3c0.1-0.1,0.3-0.2,0.3-0.2
			C-1.6,11.4-1.7,11.6-1.8,11.7z M-2.1,7c0.3-0.4,0.7-0.8,1-1.2c0,0.1,0,0.2,0,0.3C-1.4,6.4-1.7,6.7-2.1,7z M-0.4,13
			c0,0-0.2-0.2-0.5-0.6C-1,12.3-1,12.3-1,12.2c0-0.1,0.1-0.1,0.2-0.2c0.1-0.1,0.3-0.2,0.4-0.5c0,0.2-0.1,0.3-0.1,0.4
			c0,0.1-0.1,0.2-0.1,0.3c0,0.1,0.1,0,0.1,0.1c0.1,0.1,0,0.2,0,0.3C-0.5,12.8-0.3,13-0.4,13z M-0.4,1.7C-0.4,1.6-0.2,1.3,0,1.1
			C0.1,1,0.1,1,0.2,0.9c0,0.1-0.1,0.2-0.2,0.3C-0.1,1.4-0.3,1.6-0.4,1.7z M2.4,8.3c1-1.3,2.3-2.8,3.8-4.2c1.1-1.1,2.2-2,3.2-2.8
			C8.6,2,7.9,2.7,7.1,3.5C5.5,5.1,3.9,6.7,2.4,8.3z M7.3,4.1c0.8-0.8,1.6-1.5,2.4-2c-0.4,0.5-0.9,1-1.4,1.6C7.1,4.9,6,6,4.9,7
			C5.5,6.1,6.3,5.1,7.3,4.1z M9.1,5.9c1.1-0.9,2.2-1.8,3.2-2.6c-0.7,0.7-1.4,1.4-2.2,2.1C8.5,6.9,7,8.1,5.5,9.3
			C6.6,8.2,7.8,7,9.1,5.9z M10.8,6C9.2,7.5,7.7,8.7,6.2,9.9c1.1-1.1,2.3-2.2,3.6-3.4C10.9,5.6,12,4.7,13,3.9
			C12.3,4.6,11.6,5.3,10.8,6z M16.6,4.5c-0.7,0.7-1.4,1.4-2.2,2.1c-1.6,1.4-3.1,2.7-4.6,3.8c1.1-1.1,2.3-2.2,3.6-3.4
			C14.5,6.2,15.5,5.3,16.6,4.5z M7.1,12.2c1.4-1.7,3.1-3.5,5.1-5.3c0.9-0.8,1.8-1.5,2.6-2.2c-1,1-1.9,1.9-2.9,2.9
			C10.3,9.2,8.7,10.7,7.1,12.2z M7.5,13.9c1.6-1.5,3.2-3.1,5-4.7c1.4-1.3,2.8-2.4,4.2-3.5c-1.1,1.1-2.3,2.1-3.4,3.2
			C11.3,10.6,9.4,12.3,7.5,13.9z M7.7,14.9c1.1-1.3,2.5-2.7,4.1-4.1c1.4-1.2,2.7-2.2,4-3c-1.1,1-2.2,1.9-3.3,2.9
			C10.9,12.1,9.3,13.5,7.7,14.9z M15.8,9.2c-1.2,1.1-2.4,2.1-3.6,3c0.2-0.2,0.4-0.4,0.6-0.6c0.8-0.7,1.5-1.4,2.2-2.1
			c-0.1,0.1-0.2,0.1-0.3,0.2c-0.1,0-0.1,0.1-0.2,0.2c-1.3,1.1-2.4,2.2-3.5,3.3c-0.9,0.8-1.8,1.5-2.7,2.1c1.1-1.1,2.3-2.2,3.6-3.4
			c1-0.9,2-1.7,2.9-2.4C16,8.6,17,7.8,18,7C17.3,7.7,16.6,8.5,15.8,9.2z"/>
	</defs>
	<clipPath id="SVGID_2_">
		<use xlink:href="#SVGID_1_"  style="overflow:visible;"/>
	</clipPath>
	<path class="st0" d="M5.2,12.3c1.4-1.5,2.7-3,2.9-3.4c0.2-0.4,0.8-1.2,1.5-1.8c1.7-1.5,2.6-1.4,3.5,0.4c0.2,0.5,0.5,0.8,0.6,0.8
		c0.3,0,1.9-1.5,1.9-1.8c0-0.4-0.8-1.1-1.2-1.1c-0.5,0-0.9-0.7-0.9-1.4c0-0.5-1.5-2.1-2.6-2.6C10.2,1.1,9.3,1,8,1
		c-2,0-2.8,0.3-1.5,0.6c0.4,0.1,1.1,0.5,1.6,0.9c1.3,1.1,1.2,1.8-0.2,3.6C7.2,6.8,6.6,7.4,6.4,7.4c-0.4,0-5.9,5.1-5.9,5.5
		c0,0.3,1.7,2.1,1.9,2.1C2.5,15,3.8,13.8,5.2,12.3L5.2,12.3z"/>
</g>
</svg>
