<?xml version="1.0" encoding="utf-8"?>
<!-- Generator: Adobe Illustrator 23.0.0, SVG Export Plug-In . SVG Version: 6.00 Build 0)  -->
<svg version="1.1" id="Layer_1" xmlns="http://www.w3.org/2000/svg" xmlns:xlink="http://www.w3.org/1999/xlink" x="0px" y="0px"
	 viewBox="0 0 16 16" style="enable-background:new 0 0 16 16;" xml:space="preserve">
<style type="text/css">
	.st0{clip-path:url(#SVGID_2_);fill-rule:evenodd;clip-rule:evenodd;fill:#F75049;}
</style>
<g>
	<defs>
		<path id="SVGID_1_" d="M20.8,5.6c-0.1-0.1-0.3,0-0.6-0.2C20,5.2,20,5.1,19.9,5c-0.4-0.2-1.3,0.5-1.3,0.5c0,0,0.4-0.3,0.7-0.7
			c0.2-0.2,0.6-0.7,0.5-1c-0.1-0.2-0.3-0.2-0.3-0.3C19.5,3.2,20,3,20,2.7c0-0.2-0.2-0.3-0.3-0.3c-0.3-0.1-0.8,0.2-0.8,0.2
			c0,0,0.3-0.2,0.4-0.5c0-0.1,0.2-0.3,0.1-0.5c-0.1-0.1-0.3-0.1-0.4-0.1c-0.1,0-0.2,0.1-0.2,0c0,0,0-0.1,0-0.2
			c0-0.2-0.3-0.3-0.6-0.3c-0.5,0-0.9,0.5-1,0.4c-0.1-0.1,0.5-0.5,0.4-0.9c0-0.1-0.2-0.3-0.4-0.3c-0.3,0-0.4,0.3-0.5,0.3
			c-0.1-0.1,0.1-0.7-0.1-0.9c-0.1-0.1-0.3,0.1-0.6,0c-0.2-0.1-0.2-0.1-0.3-0.2C15.4-0.5,15,0,14.4,0.5c-0.2,0.2-0.6,0.5-1.1,0.8
			c0.3-0.3,0.5-0.6,0.7-0.7c0.4-0.4,0.6-0.6,0.6-0.9c0-0.1,0-0.4-0.2-0.4c-0.2-0.1-0.4,0.2-1.1,0.6C13.2,0,13,0.1,12.9,0.1
			c0,0,0.3-0.4,0.2-0.7c0,0-0.1-0.2-0.2-0.3C12.5-1.2,11.8-1,11.7-1c-0.9,0.2-1.1,0.8-2.1,1.3c0,0-0.1,0.1-0.3,0.2
			C8.9,0.7,8.7,0.8,8.6,0.9C8.3,1.1,8.1,1.2,8,1.5C7.9,1.7,7.9,1.9,7.8,2C7.6,2.2,7.5,2.2,7.4,2.2C6.8,2.4,6.1,3.4,6,3.6
			C5.6,4.1,4.3,5.5,0.8,8.6C5.5,3.6,7,2.1,7,1.9c0,0,0,0,0,0c0-0.1,0.2-0.4,0-0.6C7,1.3,6.8,1.3,6.8,1.2c0,0,0-0.1,0-0.1
			c0-0.2,0.4-0.2,0.4-0.3c0,0-0.1-0.1-0.2-0.1C6.7,0.5,6.7,0.4,6.5,0.4C6.3,0.3,6,0.5,5.9,0.5C5.7,0.7,5.5,0.8,5.5,0.8
			c0,0,0-0.2,0-0.3C5.4,0.4,5.2,0.4,5.2,0.4c-0.3,0-0.5,0.3-0.6,0.2c-0.1,0,0-0.2-0.1-0.3C4.4,0.2,4.3,0.2,4.1,0.1
			C3.9,0,4-0.1,3.8-0.4C3.7-0.5,3.6-0.7,3.4-0.8c-0.2-0.1-0.3,0-0.5-0.1C2.6-0.9,2.6-1.1,2.4-1.1C2.2-1.1,2.1-1,2-1
			C1.7-0.9,1.7-0.7,1.5-0.7C1.3-0.7,1.3-0.9,1-0.9c-0.1,0-0.2,0-0.3,0c-0.1,0.1,0,0.4-0.1,0.5c-0.1,0.1-0.2,0.1-0.3,0
			C0.2-0.5,0.3-0.6,0.2-0.6C0-0.8-0.9-0.6-1.2,0c0,0.1-0.1,0.2-0.2,0.3c-0.2,0.1-0.3,0-0.5,0c-0.3,0-0.5,0.2-1.1,1
			c0,0-0.1,0.1-0.6,0.6c-0.9,1-1,1.1-1.1,1.4c0,0.5,0,0.7,0,0.7c0,0.1,0.1,0.3,0,0.4c-0.1,0.1-0.1,0-0.2,0.1c-0.1,0.1,0.1,0.4,0,0.8
			c0,0,0,0,0,0.3c-0.1,0.5-0.1,0.6,0,0.7c0.1,0.1,0.2,0.1,0.3,0.1c0.2,0,0.3-0.1,0.4-0.1C-3.8,5.7-3.4,5.3-3,4.8
			c-0.2,0.3-0.3,0.6-0.4,0.7c-0.2,0.2-0.3,0.4-0.5,0.7C-4,6.4-4,6.5-4.1,6.6c-0.1,0.2-0.2,0.5-0.1,0.8C-4.1,7.5-4,7.6-4,7.7
			C-4,7.9-4,8-4,8.1c0,0.1,0.1,0.1,0.2,0.1c0.1,0.1,0,0.3,0,0.6c0,0.2,0.1,0.1,0.1,0.3c0.1,0.3-0.1,0.4,0,0.7c0,0.1,0,0.2,0.1,0.3
			c0.1,0.1,0.4-0.1,0.6,0c0.2,0.1,0.1,0.3,0.3,0.4c0.1,0,0.2-0.1,0.4,0c0,0,0.3,0,0.3,0.1c0,0.1-0.1,0.3-0.3,0.4
			c-0.4,0.2-0.8-0.1-0.9,0c0,0.1,0.1,0.2,0.2,0.3c1,0.9,1,1,1.3,1.2c0.3,0.2,0.3,0.1,0.7,0.3c0.5,0.3,1.1,0.6,1.1,1
			c0,0.2-0.2,0.3-0.1,0.6c0,0.2,0.1,0.5,0.3,0.6c0.2,0.1,0.3-0.1,0.6-0.1c0.3,0,0.3,0.2,0.6,0.3c0.4,0,0.5-0.4,0.8-0.4
			c0.2,0,0.2,0.2,0.4,0.3c0.2,0.1,0.4,0,0.5,0c1-1.1,2.6-2.7,4.6-4.8c1.6-1.7,2.1-2.2,3-3.1c2.6-2.5,5.4-4.5,5.5-4.3
			c0.1,0.1-1.2,1.3-5.5,5.4c-3,2.8-5.4,5.2-7.1,6.8c0,0.3,0.1,0.5,0.2,0.5c0.2,0.1,0.5-0.2,0.8,0C4.8,15.6,5,15.7,5.1,16
			c0,0.2,0,0.3,0.1,0.4c0.1,0.1,0.1,0,0.2,0.1c0.2,0.2,0.1,0.3,0.3,0.5c0.2,0.1,0.4,0,0.4,0.2c0,0.1,0,0.1,0,0.3
			c0,0.1,0.2,0.1,0.2,0.3c0,0.2-0.3,0.3-0.3,0.6c0,0.2,0.1,0.2,0.1,0.5c0,0.5-0.6,0.6-0.5,0.9c0,0.2,0.2,0.4,0.4,0.5
			c0.3,0,0.5-0.4,0.8-0.4c0.4,0,0.6,0.6,0.9,0.5c0.3,0,0.3-0.4,0.6-0.4c0.2,0,0.3,0.1,0.4,0c0.1-0.1,0.1-0.2,0.3-0.3
			c0.1,0,0.1,0,0.2,0c0.2,0,0.6-0.4,0.7-0.8c0.1-0.4,0-0.5,0.2-0.8c0.1-0.2,0.3-0.3,0.4-0.4c0.5-0.4,1.2-1,1.8-1.6
			c0.8-0.8,0.9-1.1,1.5-1.4c0.1,0,0.3-0.1,0.5-0.3c0.3-0.3,0.4-0.6,0.6-0.8c0.4-0.8,0.8-0.8,1.7-2c0-0.1,0.2-0.3,0.2-0.4
			c-0.1-0.1-1.2,1.1-1.4,1C14.9,12.1,15,12,15,11.9c0.1-0.6,0.8-0.8,1.9-1.7c0.3-0.2,0.2-0.2,0.5-0.5c0.8-0.7,1.7-1.3,2-1.7
			c0.1-0.3,0.2-0.6,0.2-0.6c0-0.1,0-0.1,0.1-0.2c0.1-0.3,0.2-0.4,0.7-0.9C20.8,5.8,20.8,5.7,20.8,5.6z M3.8,4.9
			C3.5,5.3,3.2,5.5,2.9,5.7C3,5.5,3.3,5.1,3.7,4.8C3.8,4.7,4,4.6,4.1,4.5C4,4.6,3.9,4.7,3.8,4.9z M3.6,3.6c0.5-0.5,1-1,1.4-1.4
			c-0.3,0.5-0.8,1-1.3,1.5C3.4,4.1,3.1,4.3,2.8,4.6C3,4.3,3.3,4,3.6,3.6z M-2,3.6C-1.9,3.4-1.7,3.2-1.5,3c0.1-0.1,0.2-0.2,0.2-0.2
			c0,0.1-0.1,0.2-0.2,0.3C-1.6,3.3-1.8,3.5-2,3.6z M-1.1,11.8c-0.1,0.1-0.2,0.2-0.3,0.2c0,0,0-0.2,0.1-0.3c0.1-0.1,0.3-0.2,0.3-0.2
			C-1,11.5-1,11.6-1.1,11.8z M-1.4,7.1c0.3-0.4,0.7-0.8,1-1.2c0,0.1,0,0.2,0,0.3C-0.8,6.5-1.1,6.8-1.4,7.1z M0.3,13.1
			c0,0-0.2-0.2-0.5-0.6c-0.1-0.1-0.2-0.2-0.2-0.3c0-0.1,0.1-0.1,0.2-0.2C0,12,0.1,11.9,0.3,11.6c0,0.2-0.1,0.3-0.1,0.4
			c0,0.1-0.1,0.2-0.1,0.3c0,0.1,0.1,0,0.1,0.1c0.1,0.1,0,0.2,0,0.3C0.2,12.9,0.3,13.1,0.3,13.1z M0.2,1.8c0.1-0.2,0.2-0.4,0.4-0.6
			C0.7,1.1,0.8,1,0.9,1c0,0.1-0.1,0.2-0.2,0.3C0.5,1.5,0.4,1.7,0.2,1.8z M3,8.4c1-1.3,2.3-2.8,3.8-4.2C7.9,3.1,9,2.2,10,1.4
			C9.3,2.1,8.5,2.8,7.8,3.6C6.1,5.2,4.5,6.8,3,8.4z M7.9,4.2c0.8-0.8,1.6-1.5,2.4-2c-0.4,0.5-0.9,1-1.4,1.6C7.8,5,6.6,6.1,5.5,7.1
			C6.1,6.2,6.9,5.2,7.9,4.2z M9.8,6C10.9,5,11.9,4.2,13,3.4c-0.7,0.7-1.4,1.4-2.2,2.1C9.2,7,7.6,8.2,6.1,9.4C7.2,8.3,8.4,7.1,9.8,6z
			 M11.5,6.1C9.9,7.6,8.3,8.8,6.9,10C8,8.9,9.2,7.7,10.5,6.6c1.1-0.9,2.2-1.8,3.2-2.6C13,4.7,12.2,5.4,11.5,6.1z M17.2,4.6
			C16.5,5.3,15.8,6,15,6.7c-1.6,1.4-3.1,2.7-4.6,3.8c1.1-1.1,2.3-2.2,3.6-3.4C15.1,6.2,16.2,5.4,17.2,4.6z M7.7,12.3
			c1.4-1.7,3.1-3.5,5.1-5.3c0.9-0.8,1.8-1.5,2.6-2.2c-1,1-1.9,1.9-2.9,2.9C11,9.3,9.3,10.8,7.7,12.3z M8.1,14c1.6-1.5,3.2-3.1,5-4.7
			C14.6,8,16,6.8,17.3,5.7c-1.1,1.1-2.3,2.1-3.4,3.2C11.9,10.7,10,12.4,8.1,14z M8.4,15c1.1-1.3,2.5-2.7,4.1-4.1
			c1.4-1.2,2.7-2.2,4-3c-1.1,1-2.2,1.9-3.3,2.9C11.6,12.2,10,13.6,8.4,15z M16.4,9.3c-1.2,1.1-2.4,2.1-3.6,3
			c0.2-0.2,0.4-0.4,0.6-0.6c0.8-0.7,1.5-1.4,2.2-2.1c-0.1,0.1-0.2,0.1-0.3,0.2c-0.1,0-0.1,0.1-0.2,0.2c-1.3,1.1-2.4,2.2-3.5,3.3
			c-0.9,0.8-1.8,1.5-2.7,2.1c1.1-1.1,2.3-2.2,3.6-3.4c1-0.9,2-1.7,2.9-2.4c1-0.9,2.1-1.7,3-2.5C17.9,7.8,17.2,8.5,16.4,9.3z"/>
	</defs>
	<clipPath id="SVGID_2_">
		<use xlink:href="#SVGID_1_"  style="overflow:visible;"/>
	</clipPath>
	<path class="st0" d="M10.2,3.7C9.7,3.3,9,3.1,8.2,3.1c-1.3,0-2.3,0.5-3,1.4C4.7,5.2,4.3,6,4.2,7C4.8,7,5.4,7,5.8,7
		c0.1-0.7,0.3-1.2,0.5-1.6c0.4-0.5,1-0.8,1.8-0.8C9,4.6,9.6,5.1,10,6l1.4-0.6C11.2,4.7,10.8,4.1,10.2,3.7z"/>
	<path class="st0" d="M10.1,9.8c-0.3,1-1,1.5-2,1.5c-0.8,0-1.4-0.3-1.8-0.8C6,9.9,5.8,9,5.8,7.9c0-0.2,0-0.4,0-0.6
		c-0.4,0-1,0.1-1.6,0.1c0,0.2,0,0.3,0,0.5c0,1.4,0.3,2.6,1,3.5c0.7,0.9,1.7,1.3,3,1.3c0.8,0,1.5-0.2,2.1-0.7c0.6-0.4,1-1,1.3-1.8
		L10.1,9.8z"/>
	<path class="st0" d="M10.1,9.8c-0.3,1-1,1.5-2,1.5c-0.8,0-1.4-0.3-1.8-0.8C6,9.9,5.8,9,5.8,7.9c0-0.2,0-0.4,0-0.6
		c-0.4,0-1,0.1-1.6,0.1c0,0.2,0,0.3,0,0.5c0,1.4,0.3,2.6,1,3.5c0.7,0.9,1.7,1.3,3,1.3c0.8,0,1.5-0.2,2.1-0.7c0.6-0.4,1-1,1.3-1.8
		L10.1,9.8z"/>
	<path class="st0" d="M6.3,5.5c0.4-0.5,1-0.8,1.8-0.8C9,4.6,9.6,5.1,10,6l1.4-0.6c-0.3-0.7-0.7-1.2-1.2-1.6C9.7,3.3,9,3.1,8.2,3.1
		c-1.3,0-2.3,0.5-3,1.4C4.7,5.2,4.3,6,4.2,7C4.8,7,5.4,7,5.8,7C5.9,6.4,6.1,5.8,6.3,5.5z"/>
	<path class="st0" d="M13.7,2.3C12.2,0.8,10.3,0,8,0S3.8,0.8,2.3,2.3C1,3.6,0.2,5.2,0.1,7C0.5,7,1,7,1.6,7c0.2-1.4,0.8-2.7,1.8-3.7
		C4.6,2,6.1,1.4,8,1.4s3.4,0.6,4.7,1.9c1.2,1.3,1.8,2.8,1.8,4.7s-0.6,3.5-1.8,4.7C11.4,14,9.9,14.6,8,14.6S4.6,14,3.3,12.7
		C2.1,11.5,1.5,9.9,1.5,8c0-0.2,0-0.4,0-0.6c-0.6,0-1.1,0-1.5,0C0,7.6,0,7.8,0,8c0,2.3,0.8,4.2,2.3,5.7C3.8,15.2,5.7,16,8,16
		s4.2-0.8,5.7-2.3C15.2,12.2,16,10.3,16,8S15.2,3.8,13.7,2.3z"/>
	<path class="st0" d="M4.2,7.9c0,1.4,0.3,2.6,1,3.5c0.7,0.9,1.7,1.3,3,1.3c0.8,0,1.5-0.2,2.1-0.7c0.6-0.4,1-1,1.3-1.8l-1.4-0.5
		c-0.3,1-1,1.5-2,1.5c-0.8,0-1.4-0.3-1.8-0.8C6,9.9,5.8,9,5.8,7.9c0-0.2,0-0.4,0-0.6c-0.4,0-1,0.1-1.6,0.1C4.2,7.6,4.2,7.8,4.2,7.9z
		"/>
	<path class="st0" d="M6.3,5.5c0.4-0.5,1-0.8,1.8-0.8C9,4.6,9.6,5.1,10,6l1.4-0.6c-0.3-0.7-0.7-1.2-1.2-1.6C9.7,3.3,9,3.1,8.2,3.1
		c-1.3,0-2.3,0.5-3,1.4C4.7,5.2,4.3,6,4.2,7C4.8,7,5.4,7,5.8,7C5.9,6.4,6.1,5.8,6.3,5.5z"/>
	<path class="st0" d="M10.2,3.7C9.7,3.3,9,3.1,8.2,3.1c-1.3,0-2.3,0.5-3,1.4C4.7,5.2,4.3,6,4.2,7C4.8,7,5.4,7,5.8,7
		c0.1-0.7,0.3-1.2,0.5-1.6c0.4-0.5,1-0.8,1.8-0.8C9,4.6,9.6,5.1,10,6l1.4-0.6C11.2,4.7,10.8,4.1,10.2,3.7z"/>
	<path class="st0" d="M10.1,9.8c-0.3,1-1,1.5-2,1.5c-0.8,0-1.4-0.3-1.8-0.8C6,9.9,5.8,9,5.8,7.9c0-0.2,0-0.4,0-0.6
		c-0.4,0-1,0.1-1.6,0.1c0,0.2,0,0.3,0,0.5c0,1.4,0.3,2.6,1,3.5c0.7,0.9,1.7,1.3,3,1.3c0.8,0,1.5-0.2,2.1-0.7c0.6-0.4,1-1,1.3-1.8
		L10.1,9.8z"/>
	<path class="st0" d="M10.2,3.7C9.7,3.3,9,3.1,8.2,3.1c-1.3,0-2.3,0.5-3,1.4C4.7,5.2,4.3,6,4.2,7C4.8,7,5.4,7,5.8,7
		c0.1-0.7,0.3-1.2,0.5-1.6c0.4-0.5,1-0.8,1.8-0.8C9,4.6,9.6,5.1,10,6l1.4-0.6C11.2,4.7,10.8,4.1,10.2,3.7z"/>
	<path class="st0" d="M10.1,9.8c-0.3,1-1,1.5-2,1.5c-0.8,0-1.4-0.3-1.8-0.8C6,9.9,5.8,9,5.8,7.9c0-0.2,0-0.4,0-0.6
		c-0.4,0-1,0.1-1.6,0.1c0,0.2,0,0.3,0,0.5c0,1.4,0.3,2.6,1,3.5c0.7,0.9,1.7,1.3,3,1.3c0.8,0,1.5-0.2,2.1-0.7c0.6-0.4,1-1,1.3-1.8
		L10.1,9.8z"/>
</g>
</svg>
