<?xml version="1.0" encoding="utf-8"?>
<!-- Generator: Adobe Illustrator 23.0.0, SVG Export Plug-In . SVG Version: 6.00 Build 0)  -->
<svg version="1.1" id="Layer_1" xmlns="http://www.w3.org/2000/svg" xmlns:xlink="http://www.w3.org/1999/xlink" x="0px" y="0px"
	 viewBox="0 0 16 16" style="enable-background:new 0 0 16 16;" xml:space="preserve">
<style type="text/css">
	.st0{clip-path:url(#SVGID_2_);fill-rule:evenodd;clip-rule:evenodd;fill:#F75049;}
</style>
<g>
	<defs>
		<path id="SVGID_1_" d="M23.2,6.2c-0.1-0.1-0.4,0-0.6-0.3c-0.2-0.2-0.2-0.4-0.3-0.5C21.8,5.2,20.8,6,20.8,6c0,0,0.4-0.3,0.8-0.7
			c0.2-0.3,0.7-0.8,0.6-1.1c-0.1-0.2-0.3-0.2-0.3-0.4c0-0.3,0.5-0.5,0.5-0.8c0-0.2-0.2-0.3-0.3-0.4c-0.4-0.1-0.9,0.3-0.9,0.2
			c0,0,0.3-0.2,0.5-0.5c0-0.1,0.2-0.4,0.1-0.5c-0.1-0.1-0.3-0.1-0.4-0.1c-0.1,0-0.2,0.1-0.3,0.1c0,0,0-0.1,0-0.2
			c0-0.2-0.4-0.3-0.6-0.3c-0.6-0.1-1.1,0.5-1.1,0.4c-0.1-0.1,0.5-0.6,0.4-1c-0.1-0.2-0.2-0.3-0.4-0.3c-0.3,0-0.4,0.3-0.6,0.3
			c-0.2-0.1,0.1-0.8-0.1-0.9c-0.1-0.1-0.3,0.1-0.6,0c-0.2-0.1-0.2-0.2-0.3-0.2c-0.3-0.1-0.8,0.5-1.5,1c-0.3,0.2-0.7,0.6-1.3,0.9
			c0.3-0.4,0.5-0.6,0.7-0.8c0.5-0.5,0.7-0.7,0.7-1c0-0.1,0-0.4-0.2-0.5c-0.2-0.1-0.4,0.2-1.2,0.7c-0.2,0.1-0.4,0.2-0.4,0.3
			c0,0,0.3-0.4,0.2-0.8c0,0-0.1-0.2-0.2-0.3c-0.5-0.4-1.2-0.2-1.3-0.2c-0.9,0.2-1.2,0.9-2.4,1.5c0,0-0.2,0.1-0.4,0.2
			C10,0.7,9.7,0.8,9.6,0.9C9.4,1.1,9.1,1.3,9,1.5C8.9,1.8,8.9,2,8.8,2.2C8.6,2.4,8.4,2.4,8.4,2.4C7.7,2.6,6.9,3.7,6.8,3.9
			C6.4,4.5,4.9,6,1,9.5C6.3,4,7.9,2.2,7.9,2.1c0,0,0,0,0,0C8,2,8.1,1.6,8,1.4c-0.1-0.1-0.3,0-0.3-0.2c0,0,0-0.1,0-0.2
			c0-0.2,0.5-0.3,0.5-0.4c0,0-0.1-0.1-0.2-0.1C7.5,0.5,7.5,0.4,7.4,0.4C7.1,0.3,6.8,0.4,6.7,0.5C6.4,0.7,6.3,0.8,6.2,0.8
			c-0.1,0,0-0.2,0-0.3C6.1,0.4,5.9,0.4,5.9,0.4c-0.4,0-0.6,0.3-0.7,0.2c-0.1,0,0-0.2-0.1-0.3C5,0.1,4.9,0.2,4.7,0.1
			C4.5-0.1,4.6-0.2,4.3-0.5C4.3-0.6,4.1-0.8,3.9-0.9C3.7-1,3.6-0.9,3.3-1C3-1.1,3-1.2,2.8-1.3c-0.2,0-0.3,0-0.5,0.1
			C2-1,2-0.8,1.8-0.8C1.6-0.8,1.6-1,1.2-1.1c-0.1,0-0.2,0-0.3,0C0.8-1,0.9-0.7,0.8-0.5c-0.1,0.1-0.2,0.1-0.3,0
			C0.4-0.6,0.4-0.7,0.4-0.8C0.1-1-0.9-0.7-1.2-0.1C-1.3,0-1.3,0.2-1.5,0.3c-0.2,0.1-0.3,0-0.5,0c-0.3,0-0.5,0.3-1.2,1.1
			c0,0-0.1,0.2-0.6,0.7C-4.8,3.1-5,3.3-5,3.6c0,0.6,0.1,0.8,0.1,0.8c0,0.1,0.1,0.3,0,0.4c-0.1,0.1-0.1,0-0.2,0.1
			C-5.2,5.1-5,5.3-5,5.8c0,0,0,0-0.1,0.3c-0.1,0.6-0.1,0.7,0,0.8C-5.1,6.9-5,6.9-4.8,6.9c0.2,0,0.3-0.1,0.4-0.1
			c0.4-0.5,0.8-1,1.3-1.5c-0.2,0.4-0.4,0.6-0.5,0.8C-3.9,6.4-4,6.5-4.2,6.9C-4.3,7-4.3,7.1-4.4,7.3c-0.1,0.3-0.2,0.6-0.1,0.8
			c0.1,0.1,0.1,0.2,0.2,0.3c0,0.2-0.1,0.3,0,0.4C-4.2,9-4.2,9-4.1,9c0.1,0.2,0,0.3,0,0.6C-4,9.9-4,9.8-3.9,10c0.1,0.3-0.1,0.4,0,0.8
			c0,0.2,0,0.2,0.1,0.3c0.2,0.1,0.4-0.1,0.6,0.1c0.2,0.1,0.1,0.4,0.3,0.4c0.1,0,0.2-0.1,0.4,0c0,0,0.3,0,0.4,0.2
			c0,0.1-0.1,0.3-0.3,0.4c-0.4,0.2-0.9-0.1-1,0c0,0.1,0.1,0.2,0.2,0.3c1.1,1,1.1,1.1,1.5,1.3c0.4,0.2,0.3,0.1,0.8,0.4
			c0.6,0.3,1.2,0.7,1.2,1.1c0,0.3-0.2,0.3-0.2,0.7c0,0.2,0.1,0.6,0.4,0.7c0.2,0.1,0.3-0.1,0.7-0.1c0.3,0,0.4,0.3,0.7,0.3
			c0.4,0,0.6-0.5,0.9-0.4c0.2,0,0.2,0.2,0.4,0.3c0.2,0.1,0.4,0,0.6,0c1.2-1.2,2.9-3,5.1-5.3c1.8-1.9,2.3-2.5,3.3-3.4
			c2.9-2.8,6-4.9,6.1-4.8c0.1,0.1-1.3,1.4-6.1,5.9c-3.3,3.1-6,5.7-7.9,7.5c0,0.4,0.1,0.5,0.2,0.6c0.2,0.1,0.5-0.2,0.8,0
			c0.1,0.1,0.3,0.2,0.4,0.5c0,0.2,0,0.3,0.1,0.4c0.1,0.1,0.1,0,0.2,0.1c0.2,0.2,0.1,0.4,0.3,0.5c0.2,0.2,0.4,0,0.5,0.2
			c0,0.1-0.1,0.1,0,0.3c0,0.2,0.2,0.2,0.2,0.3c0,0.2-0.3,0.3-0.4,0.7c-0.1,0.2,0.1,0.3,0.1,0.5c0,0.5-0.6,0.6-0.6,1
			c0,0.2,0.3,0.5,0.5,0.5c0.4,0.1,0.5-0.5,0.9-0.5c0.5,0,0.6,0.7,1,0.6c0.3,0,0.3-0.4,0.7-0.4c0.2,0,0.3,0.1,0.5,0
			c0.1-0.1,0.1-0.2,0.3-0.3c0.1,0,0.1,0,0.2,0c0.3,0,0.6-0.4,0.8-0.9c0.1-0.4,0-0.6,0.2-0.9c0.1-0.2,0.3-0.4,0.4-0.4
			c0.6-0.4,1.3-1.1,2-1.8c0.9-0.9,1-1.2,1.6-1.5c0.1,0,0.3-0.1,0.5-0.4c0.4-0.3,0.5-0.6,0.6-0.9c0.4-0.9,0.9-0.9,1.9-2.3
			c0-0.1,0.2-0.4,0.2-0.4c-0.1-0.1-1.3,1.3-1.6,1.1c-0.1-0.1-0.1-0.2-0.1-0.3c0.1-0.6,0.9-0.9,2.1-1.9c0.3-0.3,0.2-0.2,0.5-0.5
			c0.9-0.8,1.9-1.4,2.2-1.9c0.2-0.3,0.3-0.6,0.3-0.6c0-0.1,0-0.1,0.1-0.2c0.1-0.3,0.3-0.4,0.8-1C23.2,6.4,23.2,6.3,23.2,6.2z
			 M4.4,5.3c-0.3,0.4-0.7,0.7-1,1C3.5,6,3.8,5.6,4.2,5.2C4.4,5.1,4.5,5,4.7,4.9C4.6,5,4.5,5.2,4.4,5.3z M4.1,4
			c0.5-0.6,1.1-1.1,1.6-1.5C5.3,3,4.8,3.5,4.3,4.1c-0.4,0.4-0.7,0.7-1,1C3.5,4.7,3.8,4.3,4.1,4z M-2,3.9c0.1-0.2,0.2-0.5,0.5-0.7
			C-1.5,3.1-1.4,3.1-1.3,3c-0.1,0.1-0.1,0.2-0.2,0.3C-1.7,3.6-1.9,3.8-2,3.9z M-1.1,13c-0.1,0.1-0.2,0.2-0.3,0.2c0,0,0-0.2,0.1-0.3
			c0.1-0.2,0.3-0.2,0.3-0.2C-1,12.7-1,12.8-1.1,13z M-1.5,7.8c0.4-0.4,0.7-0.9,1.1-1.3c0,0.1,0,0.2,0,0.3C-0.7,7.1-1.1,7.5-1.5,7.8z
			 M0.5,14.5c0,0-0.2-0.2-0.6-0.7c-0.1-0.1-0.2-0.2-0.2-0.3c0-0.1,0.1-0.1,0.2-0.2c0.1-0.1,0.3-0.2,0.5-0.5c0,0.2-0.1,0.4-0.1,0.5
			c-0.1,0.1-0.1,0.2-0.1,0.3c0,0.1,0.1,0,0.1,0.1c0.1,0.1,0,0.2,0,0.3C0.3,14.3,0.5,14.5,0.5,14.5z M0.4,2c0.1-0.2,0.2-0.5,0.5-0.7
			C0.9,1.2,1,1.1,1.1,1C1,1.1,1,1.2,0.9,1.3C0.7,1.6,0.5,1.8,0.4,2z M3.5,9.3C4.6,7.8,6,6.2,7.7,4.6c1.2-1.2,2.4-2.2,3.5-3.1
			c-0.8,0.8-1.6,1.6-2.5,2.4C6.9,5.7,5.2,7.5,3.5,9.3z M8.9,4.6c0.9-0.9,1.8-1.7,2.6-2.3c-0.5,0.6-1,1.1-1.5,1.7
			C8.8,5.4,7.5,6.7,6.3,7.8C6.9,6.8,7.8,5.7,8.9,4.6z M11,6.6c1.2-1.1,2.4-2,3.6-2.9c-0.8,0.8-1.6,1.6-2.5,2.4
			c-1.7,1.6-3.5,3-5.1,4.3C8.2,9.1,9.5,7.8,11,6.6z M12.8,6.7c-1.7,1.6-3.5,3-5.1,4.3c1.2-1.2,2.6-2.5,4-3.7c1.2-1.1,2.4-2,3.6-2.9
			C14.5,5.1,13.7,5.9,12.8,6.7z M19.2,5c-0.8,0.8-1.6,1.6-2.5,2.4c-1.7,1.6-3.5,3-5.1,4.3c1.2-1.2,2.6-2.5,4-3.7
			C16.9,6.9,18.1,5.9,19.2,5z M8.7,13.6c1.6-1.9,3.5-3.9,5.7-5.9c1-0.9,2-1.7,2.9-2.5c-1.1,1.1-2.1,2.2-3.2,3.2
			C12.3,10.2,10.5,11.9,8.7,13.6z M9.1,15.4c1.7-1.7,3.6-3.5,5.6-5.2c1.6-1.4,3.1-2.7,4.6-3.9c-1.2,1.2-2.5,2.4-3.8,3.5
			C13.4,11.8,11.2,13.6,9.1,15.4z M9.4,16.5c1.2-1.4,2.7-3,4.6-4.6c1.5-1.3,3-2.4,4.4-3.3c-1.2,1.1-2.4,2.1-3.6,3.2
			C13,13.4,11.2,15,9.4,16.5z M18.3,10.2c-1.3,1.2-2.7,2.3-3.9,3.4c0.2-0.2,0.5-0.4,0.7-0.6c0.9-0.8,1.7-1.6,2.5-2.4
			c-0.1,0.1-0.2,0.2-0.3,0.3c-0.1,0.1-0.1,0.1-0.2,0.2c-1.4,1.2-2.7,2.4-3.9,3.6c-1,0.9-2,1.6-3,2.4c1.2-1.2,2.6-2.5,4-3.7
			c1.1-1,2.2-1.8,3.2-2.7c1.1-1,2.3-1.9,3.4-2.7C20,8.6,19.2,9.4,18.3,10.2z"/>
	</defs>
	<clipPath id="SVGID_2_">
		<use xlink:href="#SVGID_1_"  style="overflow:visible;"/>
	</clipPath>
	<path class="st0" d="M10.8,6.4l0.3-1.8h-2l0.5-3H7.7l-0.5,3H4.8l0.5-3H3.5L3,4.6H1L0.7,6.4h2L2.3,9.2h-2L0,11.1h2l-0.5,3.3h1.9
		l0.5-3.3h2.4l-0.5,3.3h1.8l0.5-3.3h2l0.3-1.8h-2l0.4-2.8H10.8z M6.5,9.2H4.2l0.4-2.8H7L6.5,9.2z"/>
	<polygon class="st0" points="15,10.9 13.9,10.9 13.4,5.5 13.4,1.4 15.6,1.4 15.6,5.5 	"/>
	<path class="st0" d="M14.5,14.6L14.5,14.6L14.5,14.6c-0.4,0-0.8-0.1-1.1-0.4l0,0l0,0c-0.3-0.3-0.4-0.6-0.4-1l0,0l0,0
		c0-0.4,0.1-0.7,0.4-1l0,0l0,0c0.3-0.3,0.6-0.4,1.1-0.4l0,0l0,0c0.4,0,0.8,0.1,1.1,0.4l0,0l0,0c0.3,0.3,0.4,0.6,0.4,1l0,0l0,0
		c0,0.4-0.1,0.7-0.4,1l0,0l0,0C15.3,14.5,14.9,14.6,14.5,14.6z"/>
</g>
</svg>
