<?xml version="1.0" encoding="utf-8"?>
<!-- Generator: Adobe Illustrator 23.0.0, SVG Export Plug-In . SVG Version: 6.00 Build 0)  -->
<svg version="1.1" id="Layer_1" xmlns="http://www.w3.org/2000/svg" xmlns:xlink="http://www.w3.org/1999/xlink" x="0px" y="0px"
	 viewBox="0 0 16 16" style="enable-background:new 0 0 16 16;" xml:space="preserve">
<style type="text/css">
	.st0{clip-path:url(#SVGID_2_);fill-rule:evenodd;clip-rule:evenodd;fill:#F75049;}
</style>
<g>
	<defs>
		<path id="SVGID_1_" d="M20.5,5.8c-0.1-0.1-0.3,0-0.6-0.2c-0.2-0.2-0.2-0.3-0.3-0.4c-0.4-0.2-1.3,0.5-1.3,0.5c0,0,0.4-0.3,0.7-0.7
			c0.2-0.2,0.6-0.7,0.5-1c-0.1-0.2-0.3-0.2-0.3-0.3c0-0.3,0.5-0.4,0.4-0.7c0-0.2-0.2-0.3-0.3-0.3c-0.3-0.1-0.8,0.2-0.8,0.2
			c0,0,0.3-0.2,0.4-0.5c0-0.1,0.2-0.3,0.1-0.5c-0.1-0.1-0.3-0.1-0.4-0.1c-0.1,0-0.2,0.1-0.2,0c0,0,0-0.1,0-0.2
			c0-0.2-0.3-0.3-0.6-0.3c-0.5,0-0.9,0.5-1,0.4c-0.1-0.1,0.5-0.5,0.4-0.9c0-0.1-0.2-0.3-0.4-0.3c-0.3,0-0.4,0.3-0.5,0.3
			c-0.1-0.1,0.1-0.7-0.1-0.9c-0.1-0.1-0.3,0.1-0.6,0c-0.2-0.1-0.2-0.1-0.3-0.2c-0.3-0.1-0.8,0.4-1.3,0.9c-0.2,0.2-0.6,0.5-1.1,0.8
			c0.3-0.3,0.5-0.6,0.7-0.7c0.4-0.4,0.6-0.6,0.6-0.9c0-0.1,0-0.4-0.2-0.4c-0.2-0.1-0.4,0.2-1.1,0.6c-0.2,0.1-0.3,0.2-0.4,0.3
			c0,0,0.3-0.4,0.2-0.7c0,0-0.1-0.2-0.2-0.3c-0.4-0.3-1.1-0.2-1.2-0.2c-0.9,0.2-1.1,0.8-2.1,1.3c0,0-0.1,0.1-0.3,0.2
			C8.6,0.9,8.4,1,8.3,1C8,1.2,7.8,1.3,7.7,1.6C7.6,1.9,7.7,2,7.5,2.2C7.4,2.3,7.2,2.4,7.1,2.4C6.6,2.5,5.8,3.6,5.7,3.7
			C5.3,4.3,4,5.6,0.5,8.8c4.7-5,6.2-6.6,6.2-6.7c0,0,0,0,0,0c0-0.1,0.2-0.4,0-0.6c-0.1-0.1-0.2,0-0.3-0.1c0,0,0-0.1,0-0.1
			C6.5,1,6.9,1,6.9,0.9c0,0-0.1-0.1-0.2-0.1C6.4,0.7,6.4,0.6,6.3,0.5C6,0.5,5.8,0.6,5.6,0.7C5.4,0.8,5.3,0.9,5.2,0.9
			c0,0,0-0.2,0-0.3C5.1,0.5,5,0.5,4.9,0.5c-0.3,0-0.5,0.3-0.6,0.2c-0.1,0,0-0.2-0.1-0.3C4.1,0.3,4,0.4,3.8,0.3
			C3.6,0.1,3.7,0,3.5-0.3C3.5-0.4,3.3-0.5,3.1-0.6c-0.2-0.1-0.3,0-0.5-0.1C2.3-0.7,2.3-0.9,2.1-0.9C2-1,1.8-0.9,1.7-0.8
			C1.4-0.7,1.4-0.6,1.2-0.5C1-0.5,1-0.7,0.7-0.8c-0.1,0-0.2,0-0.3,0c-0.1,0.1,0,0.4-0.1,0.5c-0.1,0.1-0.2,0.1-0.3,0
			C0-0.3,0-0.4-0.1-0.5c-0.2-0.2-1.1,0.1-1.4,0.6c0,0.1-0.1,0.2-0.2,0.3c-0.2,0.1-0.3,0-0.5,0c-0.3,0-0.5,0.2-1.1,1
			c0,0-0.1,0.1-0.6,0.6c-0.9,1-1,1.1-1.1,1.4c0,0.5,0,0.7,0,0.7c0,0.1,0.1,0.3,0,0.4c-0.1,0.1-0.1,0-0.2,0.1c-0.1,0.1,0.1,0.4,0,0.8
			c0,0,0,0,0,0.3c-0.1,0.5-0.1,0.6,0,0.7C-5,6.4-4.9,6.4-4.8,6.4c0.2,0,0.3-0.1,0.4-0.1C-4,5.9-3.6,5.4-3.3,5
			c-0.2,0.3-0.3,0.6-0.4,0.7C-3.9,5.9-4,6.1-4.2,6.4c0,0.1-0.1,0.2-0.2,0.4C-4.4,7-4.5,7.3-4.4,7.5c0,0.1,0.1,0.2,0.1,0.3
			c0,0.2,0,0.3,0,0.4c0,0.1,0.1,0.1,0.2,0.1c0.1,0.1,0,0.3,0,0.6C-4,9.1-4,9.1-3.9,9.2C-3.9,9.5-4,9.6-4,9.9c0,0.1,0,0.2,0.1,0.3
			c0.1,0.1,0.4-0.1,0.6,0c0.2,0.1,0.1,0.3,0.3,0.4c0.1,0,0.2-0.1,0.4,0c0,0,0.3,0,0.3,0.1c0,0.1-0.1,0.3-0.3,0.4
			c-0.4,0.2-0.8-0.1-0.9,0c0,0.1,0.1,0.2,0.2,0.3c1,0.9,1,1,1.3,1.2c0.3,0.2,0.3,0.1,0.7,0.3c0.5,0.3,1.1,0.6,1.1,1
			c0,0.2-0.2,0.3-0.1,0.6c0,0.2,0.1,0.5,0.3,0.6c0.2,0.1,0.3-0.1,0.6-0.1c0.3,0,0.3,0.2,0.6,0.3c0.4,0,0.5-0.4,0.8-0.4
			c0.2,0,0.2,0.2,0.4,0.3c0.2,0.1,0.4,0,0.5,0c1-1.1,2.6-2.7,4.6-4.8c1.6-1.7,2.1-2.2,3-3.1c2.6-2.5,5.4-4.5,5.5-4.3
			c0.1,0.1-1.2,1.3-5.5,5.4c-3,2.8-5.4,5.2-7.1,6.8c0,0.3,0.1,0.5,0.2,0.5c0.2,0.1,0.5-0.2,0.8,0c0.1,0.1,0.3,0.2,0.3,0.4
			c0,0.2,0,0.3,0.1,0.4c0.1,0.1,0.1,0,0.2,0.1c0.2,0.2,0.1,0.3,0.3,0.5c0.2,0.1,0.4,0,0.4,0.2c0,0.1,0,0.1,0,0.3
			c0,0.1,0.2,0.1,0.2,0.3c0,0.2-0.3,0.3-0.3,0.6c0,0.2,0.1,0.2,0.1,0.5c0,0.5-0.6,0.6-0.5,0.9c0,0.2,0.2,0.4,0.4,0.5
			c0.3,0,0.5-0.4,0.8-0.4c0.4,0,0.6,0.6,0.9,0.5c0.3,0,0.3-0.4,0.6-0.4c0.2,0,0.3,0.1,0.4,0c0.1-0.1,0.1-0.2,0.3-0.3
			c0.1,0,0.1,0,0.2,0c0.2,0,0.6-0.4,0.7-0.8c0.1-0.4,0-0.5,0.2-0.8C9.8,18,10,17.9,10,17.8c0.5-0.4,1.2-1,1.8-1.6
			c0.8-0.8,0.9-1.1,1.5-1.4c0.1,0,0.3-0.1,0.5-0.3c0.3-0.3,0.4-0.6,0.6-0.8c0.4-0.8,0.8-0.8,1.7-2c0-0.1,0.2-0.3,0.2-0.4
			c-0.1-0.1-1.2,1.1-1.4,1c-0.1-0.1-0.1-0.2-0.1-0.2c0.1-0.6,0.8-0.8,1.9-1.7c0.3-0.2,0.2-0.2,0.5-0.5c0.8-0.7,1.7-1.3,2-1.7
			c0.1-0.3,0.2-0.6,0.2-0.6c0-0.1,0-0.1,0.1-0.2C19.4,7.1,19.6,7,20,6.5C20.5,6,20.5,5.9,20.5,5.8z M3.5,5C3.2,5.4,2.9,5.7,2.6,5.9
			C2.8,5.6,3,5.3,3.4,4.9c0.1-0.1,0.3-0.2,0.4-0.3C3.8,4.7,3.7,4.9,3.5,5z M3.3,3.8c0.5-0.5,1-1,1.4-1.4C4.4,2.9,4,3.4,3.5,3.9
			C3.1,4.2,2.8,4.5,2.5,4.7C2.8,4.4,3,4.1,3.3,3.8z M-2.2,3.8C-2.1,3.6-2,3.3-1.8,3.1C-1.7,3-1.6,3-1.6,2.9c0,0.1-0.1,0.2-0.2,0.3
			C-1.9,3.4-2.1,3.6-2.2,3.8z M-1.4,11.9c-0.1,0.1-0.2,0.2-0.3,0.2c0,0,0-0.2,0.1-0.3c0.1-0.1,0.3-0.2,0.3-0.2
			C-1.3,11.7-1.3,11.8-1.4,11.9z M-1.7,7.2c0.3-0.4,0.7-0.8,1-1.2c0,0.1,0,0.2,0,0.3C-1,6.6-1.4,7-1.7,7.2z M0,13.3
			c0,0-0.2-0.2-0.5-0.6c-0.1-0.1-0.2-0.2-0.2-0.3c0-0.1,0.1-0.1,0.2-0.2c0.1-0.1,0.3-0.2,0.4-0.5c0,0.2-0.1,0.3-0.1,0.4
			c0,0.1-0.1,0.2-0.1,0.3c0,0.1,0.1,0,0.1,0.1c0.1,0.1,0,0.2,0,0.3C-0.1,13.1,0.1,13.2,0,13.3z M-0.1,2C0,1.8,0.1,1.6,0.4,1.3
			c0.1-0.1,0.2-0.2,0.2-0.2c0,0.1-0.1,0.2-0.2,0.3C0.3,1.6,0.1,1.8-0.1,2z M2.7,8.6c1-1.3,2.3-2.8,3.8-4.2c1.1-1.1,2.2-2,3.2-2.8
			C9,2.2,8.3,3,7.5,3.7C5.8,5.3,4.2,7,2.7,8.6z M7.7,4.3c0.8-0.8,1.6-1.5,2.4-2c-0.4,0.5-0.9,1-1.4,1.6C7.5,5.1,6.4,6.2,5.3,7.2
			C5.9,6.4,6.6,5.4,7.7,4.3z M9.5,6.1c1.1-0.9,2.2-1.8,3.2-2.6c-0.7,0.7-1.4,1.4-2.2,2.1C8.9,7.1,7.3,8.4,5.9,9.5
			C7,8.4,8.2,7.3,9.5,6.1z M11.2,6.3C9.6,7.7,8.1,9,6.6,10.1C7.7,9,8.9,7.9,10.2,6.7c1.1-0.9,2.2-1.8,3.2-2.6
			C12.7,4.8,12,5.5,11.2,6.3z M16.9,4.7c-0.7,0.7-1.4,1.4-2.2,2.1c-1.6,1.4-3.1,2.7-4.6,3.8c1.1-1.1,2.3-2.2,3.6-3.4
			C14.8,6.4,15.9,5.5,16.9,4.7z M7.5,12.5c1.4-1.7,3.1-3.5,5.1-5.3c0.9-0.8,1.8-1.5,2.6-2.2c-1,1-1.9,1.9-2.9,2.9
			C10.7,9.4,9.1,10.9,7.5,12.5z M7.8,14.1c1.6-1.5,3.2-3.1,5-4.7C14.3,8.1,15.7,7,17,5.8C15.9,6.9,14.8,8,13.6,9
			C11.7,10.8,9.7,12.5,7.8,14.1z M8.1,15.1c1.1-1.3,2.5-2.7,4.1-4.1c1.4-1.2,2.7-2.2,4-3c-1.1,1-2.2,1.9-3.3,2.9
			C11.3,12.3,9.7,13.7,8.1,15.1z M16.1,9.4c-1.2,1.1-2.4,2.1-3.6,3c0.2-0.2,0.4-0.4,0.6-0.6c0.8-0.7,1.5-1.4,2.2-2.1
			c-0.1,0.1-0.2,0.1-0.3,0.2C15.1,10,15,10,15,10.1c-1.3,1.1-2.4,2.2-3.5,3.3c-0.9,0.8-1.8,1.5-2.7,2.1c1.1-1.1,2.3-2.2,3.6-3.4
			c1-0.9,2-1.7,2.9-2.4c1-0.9,2.1-1.7,3-2.5C17.7,8,16.9,8.7,16.1,9.4z"/>
	</defs>
	<clipPath id="SVGID_2_">
		<use xlink:href="#SVGID_1_"  style="overflow:visible;"/>
	</clipPath>
	<path class="st0" d="M16,10.1l-2.1-7.9c0,0,0,0-0.1-0.1L5.9,0c0,0-0.1,0-0.1,0L0.4,5.5c0.4,0,0.7,0.1,0.8,0.3l7.1-1.9c0,0,0,0,0,0
		l-2.1,7.8c0,0,0,0,0,0L0.7,6.3c-0.1,0-0.3,0-0.4,0c-0.1,0-0.2,0-0.2,0l2,7.5c0,0,0,0,0.1,0.1l7.9,2.1c0,0,0.1,0,0.1,0L16,10.1
		C16,10.1,16,10.1,16,10.1z"/>
</g>
</svg>
