<?xml version="1.0" encoding="utf-8"?>
<!-- Generator: Adobe Illustrator 23.0.0, SVG Export Plug-In . SVG Version: 6.00 Build 0)  -->
<svg version="1.1" id="Layer_1" xmlns="http://www.w3.org/2000/svg" xmlns:xlink="http://www.w3.org/1999/xlink" x="0px" y="0px"
	 viewBox="0 0 16 16" style="enable-background:new 0 0 16 16;" xml:space="preserve">
<style type="text/css">
	.st0{clip-path:url(#SVGID_2_);fill:#F75049;}
</style>
<g>
	<defs>
		<path id="SVGID_1_" d="M21.5,5.4c-0.1-0.1-0.3,0-0.6-0.2c-0.2-0.2-0.2-0.3-0.3-0.4c-0.4-0.2-1.3,0.5-1.3,0.5c0,0,0.4-0.3,0.7-0.7
			c0.2-0.2,0.6-0.7,0.5-1c-0.1-0.2-0.3-0.2-0.3-0.3c0-0.3,0.5-0.4,0.4-0.7c0-0.2-0.2-0.3-0.3-0.3C20,2,19.6,2.4,19.6,2.3
			c0,0,0.3-0.2,0.4-0.5c0-0.1,0.2-0.3,0.1-0.5c-0.1-0.1-0.3-0.1-0.4-0.1c-0.1,0-0.2,0.1-0.2,0c0,0,0-0.1,0-0.2
			c0-0.2-0.3-0.3-0.6-0.3c-0.5,0-0.9,0.5-1,0.4c-0.1-0.1,0.5-0.5,0.4-0.9c0-0.1-0.2-0.3-0.4-0.3c-0.3,0-0.4,0.3-0.5,0.3
			c-0.1-0.1,0.1-0.7-0.1-0.9c-0.1-0.1-0.3,0.1-0.6,0c-0.2-0.1-0.2-0.1-0.3-0.2c-0.3-0.1-0.8,0.4-1.3,0.9c-0.2,0.2-0.6,0.5-1.1,0.8
			c0.3-0.3,0.5-0.6,0.7-0.7c0.4-0.4,0.6-0.6,0.6-0.9c0-0.1,0-0.4-0.2-0.4c-0.2-0.1-0.4,0.2-1.1,0.6c-0.2,0.1-0.3,0.2-0.4,0.3
			c0,0,0.3-0.4,0.2-0.7c0,0-0.1-0.2-0.2-0.3c-0.4-0.3-1.1-0.2-1.2-0.2c-0.9,0.2-1.1,0.8-2.1,1.3c0,0-0.1,0.1-0.3,0.2
			C9.5,0.5,9.3,0.6,9.3,0.6C9,0.8,8.8,1,8.7,1.2C8.6,1.5,8.6,1.6,8.5,1.8C8.3,2,8.2,2,8.1,2C7.5,2.2,6.8,3.2,6.7,3.3
			C6.3,3.9,5,5.2,1.5,8.4c4.7-5,6.2-6.6,6.2-6.7c0,0,0,0,0,0c0-0.1,0.2-0.4,0-0.6C7.7,1,7.5,1.1,7.5,1c0,0,0-0.1,0-0.1
			c0-0.2,0.4-0.2,0.4-0.3c0,0-0.1-0.1-0.2-0.1C7.4,0.3,7.4,0.2,7.2,0.2C7,0.1,6.7,0.2,6.6,0.3C6.4,0.4,6.2,0.6,6.2,0.5
			c0,0,0-0.2,0-0.3C6.1,0.2,5.9,0.2,5.9,0.2c-0.3,0-0.5,0.3-0.6,0.2c-0.1,0,0-0.2-0.1-0.3C5.1,0,4.9,0,4.8-0.1
			C4.6-0.2,4.7-0.4,4.5-0.6C4.4-0.7,4.3-0.9,4.1-1C3.9-1.1,3.8-1,3.6-1C3.3-1.1,3.3-1.3,3.1-1.3c-0.2,0-0.3,0-0.4,0.1
			C2.4-1.1,2.4-0.9,2.2-0.9C2-0.9,2-1.1,1.7-1.2c-0.1,0-0.2,0-0.3,0C1.3-1,1.4-0.8,1.3-0.7C1.2-0.6,1.1-0.6,1-0.7
			C0.9-0.7,1-0.8,0.9-0.9C0.7-1.1-0.2-0.8-0.5-0.2c0,0.1-0.1,0.2-0.2,0.3c-0.2,0.1-0.3,0-0.5,0c-0.3,0-0.5,0.2-1.1,1
			c0,0-0.1,0.1-0.6,0.6c-0.9,1-1,1.1-1.1,1.4c0,0.5,0,0.7,0,0.7c0,0.1,0.1,0.3,0,0.4c-0.1,0.1-0.1,0-0.2,0.1C-4.1,4.4-3.9,4.6-4,5
			c0,0,0,0,0,0.3C-4.1,5.8-4.1,5.9-4,6C-4,6.1-3.9,6.1-3.8,6.1c0.2,0,0.3-0.1,0.4-0.1C-3.1,5.5-2.7,5-2.3,4.6
			c-0.2,0.3-0.3,0.6-0.4,0.7C-2.9,5.6-3.1,5.7-3.2,6c0,0.1-0.1,0.2-0.2,0.4c-0.1,0.2-0.2,0.5-0.1,0.8c0,0.1,0.1,0.2,0.1,0.3
			c0,0.2,0,0.3,0,0.4c0,0.1,0.1,0.1,0.2,0.1c0.1,0.1,0,0.3,0,0.6C-3.1,8.7-3,8.7-3,8.8C-2.9,9.1-3,9.2-3,9.6c0,0.1,0,0.2,0.1,0.3
			c0.1,0.1,0.4-0.1,0.6,0c0.2,0.1,0.1,0.3,0.3,0.4c0.1,0,0.2-0.1,0.4,0c0,0,0.3,0,0.3,0.1c0,0.1-0.1,0.3-0.3,0.4
			c-0.4,0.2-0.8-0.1-0.9,0c0,0.1,0.1,0.2,0.2,0.3c1,0.9,1,1,1.3,1.2c0.3,0.2,0.3,0.1,0.7,0.3c0.5,0.3,1.1,0.6,1.1,1
			c0,0.2-0.2,0.3-0.1,0.6c0,0.2,0.1,0.5,0.3,0.6c0.2,0.1,0.3-0.1,0.6-0.1C2,14.7,2,15,2.3,15c0.4,0,0.5-0.4,0.8-0.4
			c0.2,0,0.2,0.2,0.4,0.3c0.2,0.1,0.4,0,0.5,0c1-1.1,2.6-2.7,4.6-4.8c1.6-1.7,2.1-2.2,3-3.1c2.6-2.5,5.4-4.5,5.5-4.3
			c0.1,0.1-1.2,1.3-5.5,5.4c-3,2.8-5.4,5.2-7.1,6.8c0,0.3,0.1,0.5,0.2,0.5c0.2,0.1,0.5-0.2,0.8,0c0.1,0.1,0.3,0.2,0.3,0.4
			c0,0.2,0,0.3,0.1,0.4c0.1,0.1,0.1,0,0.2,0.1c0.2,0.2,0.1,0.3,0.3,0.5c0.2,0.1,0.4,0,0.4,0.2c0,0.1,0,0.1,0,0.3
			c0,0.1,0.2,0.1,0.2,0.3c0,0.2-0.3,0.3-0.3,0.6c0,0.2,0.1,0.2,0.1,0.5c0,0.5-0.6,0.6-0.5,0.9c0,0.2,0.2,0.4,0.4,0.5
			c0.3,0,0.5-0.4,0.8-0.4c0.4,0,0.6,0.6,0.9,0.5c0.3,0,0.3-0.4,0.6-0.4c0.2,0,0.3,0.1,0.4,0c0.1-0.1,0.1-0.2,0.3-0.3
			c0.1,0,0.1,0,0.2,0c0.2,0,0.6-0.4,0.7-0.8c0.1-0.4,0-0.5,0.2-0.8c0.1-0.2,0.3-0.3,0.4-0.4c0.5-0.4,1.2-1,1.8-1.6
			c0.8-0.8,0.9-1.1,1.5-1.4c0.1,0,0.3-0.1,0.5-0.3c0.3-0.3,0.4-0.6,0.6-0.8c0.4-0.8,0.8-0.8,1.7-2c0-0.1,0.2-0.3,0.2-0.4
			c-0.1-0.1-1.2,1.1-1.4,1c-0.1-0.1-0.1-0.2-0.1-0.2c0.1-0.6,0.8-0.8,1.9-1.7c0.3-0.2,0.2-0.2,0.5-0.5c0.8-0.7,1.7-1.3,2-1.7
			c0.1-0.3,0.2-0.6,0.2-0.6c0-0.1,0-0.1,0.1-0.2c0.1-0.3,0.2-0.4,0.7-0.9C21.5,5.6,21.5,5.5,21.5,5.4z M4.5,4.6
			C4.2,5,3.9,5.3,3.6,5.5C3.7,5.2,4,4.9,4.4,4.6c0.1-0.1,0.3-0.2,0.4-0.3C4.7,4.4,4.6,4.5,4.5,4.6z M4.3,3.4c0.5-0.5,1-1,1.4-1.4
			C5.3,2.5,4.9,3,4.4,3.5C4.1,3.8,3.8,4.1,3.5,4.4C3.7,4.1,4,3.7,4.3,3.4z M-1.3,3.4C-1.2,3.2-1,3-0.8,2.8c0.1-0.1,0.2-0.2,0.2-0.2
			c0,0.1-0.1,0.2-0.2,0.3C-0.9,3.1-1.1,3.2-1.3,3.4z M-0.4,11.5c-0.1,0.1-0.2,0.2-0.3,0.2c0,0,0-0.2,0.1-0.3
			c0.1-0.1,0.3-0.2,0.3-0.2C-0.3,11.3-0.3,11.4-0.4,11.5z M-0.7,6.9c0.3-0.4,0.7-0.8,1-1.2c0,0.1,0,0.2,0,0.3
			C-0.1,6.3-0.4,6.6-0.7,6.9z M1,12.9c0,0-0.2-0.2-0.5-0.6c-0.1-0.1-0.2-0.2-0.2-0.3c0-0.1,0.1-0.1,0.2-0.2c0.1-0.1,0.3-0.2,0.4-0.5
			c0,0.2-0.1,0.3-0.1,0.4c0,0.1-0.1,0.2-0.1,0.3c0,0.1,0.1,0,0.1,0.1c0.1,0.1,0,0.2,0,0.3C0.9,12.7,1,12.9,1,12.9z M0.9,1.6
			C1,1.4,1.1,1.2,1.3,1c0.1-0.1,0.2-0.2,0.2-0.2c0,0.1-0.1,0.2-0.2,0.3C1.2,1.3,1,1.5,0.9,1.6z M3.7,8.2C4.8,6.9,6,5.4,7.5,4
			c1.1-1.1,2.2-2,3.2-2.8C10,1.9,9.2,2.6,8.5,3.3C6.8,5,5.2,6.6,3.7,8.2z M8.6,4c0.8-0.8,1.6-1.5,2.4-2c-0.4,0.5-0.9,1-1.4,1.6
			C8.5,4.7,7.3,5.9,6.2,6.9C6.8,6,7.6,5,8.6,4z M10.4,5.8c1.1-0.9,2.2-1.8,3.2-2.6c-0.7,0.7-1.4,1.4-2.2,2.1C9.9,6.7,8.3,8,6.8,9.1
			C7.9,8,9.1,6.9,10.4,5.8z M12.2,5.9C10.6,7.3,9,8.6,7.5,9.7c1.1-1.1,2.3-2.2,3.6-3.4c1.1-0.9,2.2-1.8,3.2-2.6
			C13.7,4.4,12.9,5.2,12.2,5.9z M17.9,4.3c-0.7,0.7-1.4,1.4-2.2,2.1c-1.6,1.4-3.1,2.7-4.6,3.8c1.1-1.1,2.3-2.2,3.6-3.4
			C15.8,6,16.9,5.1,17.9,4.3z M8.4,12.1c1.4-1.7,3.1-3.5,5.1-5.3c0.9-0.8,1.8-1.5,2.6-2.2c-1,1-1.9,1.9-2.9,2.9
			C11.7,9,10,10.6,8.4,12.1z M8.8,13.7c1.6-1.5,3.2-3.1,5-4.7c1.4-1.3,2.8-2.4,4.2-3.5c-1.1,1.1-2.3,2.1-3.4,3.2
			C12.6,10.4,10.7,12.1,8.8,13.7z M9.1,14.7c1.1-1.3,2.5-2.7,4.1-4.1c1.4-1.2,2.7-2.2,4-3c-1.1,1-2.2,1.9-3.3,2.9
			C12.3,11.9,10.7,13.3,9.1,14.7z M17.1,9c-1.2,1.1-2.4,2.1-3.6,3c0.2-0.2,0.4-0.4,0.6-0.6c0.8-0.7,1.5-1.4,2.2-2.1
			c-0.1,0.1-0.2,0.1-0.3,0.2c-0.1,0-0.1,0.1-0.2,0.2c-1.3,1.1-2.4,2.2-3.5,3.3c-0.9,0.8-1.8,1.5-2.7,2.1c1.1-1.1,2.3-2.2,3.6-3.4
			c1-0.9,2-1.7,2.9-2.4c1-0.9,2.1-1.7,3-2.5C18.6,7.6,17.9,8.3,17.1,9z"/>
	</defs>
	<clipPath id="SVGID_2_">
		<use xlink:href="#SVGID_1_"  style="overflow:visible;"/>
	</clipPath>
	<path class="st0" d="M3.1,15.1c0,0,1,0.4,2.2,0.6c0.5,0.1,2.5,0.3,4,0.3c0,0,1.8,0,2.8-0.1c1.1-0.1,1.7-0.3,2-0.7
		c0-0.1,0.2-0.4-0.2-0.7c-1-0.7-2.4-0.9-5-1.6C5.9,12.2,5,11.5,4.6,11c-0.4-0.5,0.1-1.6,2.5-2.1c1.2-0.3,5.4-0.4,5.4-0.4
		c-1.3-1-3.4-2.7-3.9-3.1C8.1,5,7.4,4.5,7.3,4C7.2,3.6,8,3.4,8.3,3.3c1.2-0.1,2.9,0.2,4.3,0.5C13.4,4,13.5,4,13.5,4
		c1,0,2.1-0.7,2-1.8C15.5,1,14.2,0,12.9,0c-1.3,0-4.4,0-4.4,0c3.5,0.7,4.3,1.1,4.5,1.5C13,1.8,12.7,2,11.7,2
		c-1.1-0.1-3.2-0.3-3.2-0.3C6.5,1.3,5.2,1,4.6,1.9C4.2,2.4,4.7,3,4.8,3.4c0.8,1.4,2,2.4,2.9,3.1c0.3,0.3,1.4,0.8,1.4,0.8
		C5.9,6.5,3.2,7,1.6,7.8c-1.9,1.1-1.5,3,1.4,4.7c1.7,1,2.8,1.5,5.6,1.9c1.7,0.3,2,0.4,2,0.5c0,0.2-2.1,0.3-2.6,0.3
		C6.7,15.3,3.1,15.1,3.1,15.1L3.1,15.1z"/>
</g>
</svg>
