<?xml version="1.0" encoding="utf-8"?>
<!-- Generator: Adobe Illustrator 23.0.0, SVG Export Plug-In . SVG Version: 6.00 Build 0)  -->
<svg version="1.1" id="Layer_1" xmlns="http://www.w3.org/2000/svg" xmlns:xlink="http://www.w3.org/1999/xlink" x="0px" y="0px"
	 viewBox="0 0 16 16" style="enable-background:new 0 0 16 16;" xml:space="preserve">
<style type="text/css">
	.st0{clip-path:url(#SVGID_2_);fill:#F75049;}
</style>
<g>
	<defs>
		<path id="SVGID_1_" d="M22,4.8c-0.1-0.1-0.3,0-0.6-0.2c-0.2-0.2-0.2-0.3-0.3-0.4c-0.4-0.2-1.3,0.5-1.3,0.5c0,0,0.4-0.3,0.7-0.7
			c0.2-0.2,0.6-0.7,0.5-1c-0.1-0.2-0.3-0.2-0.3-0.3c0-0.3,0.5-0.4,0.4-0.7c0-0.2-0.2-0.3-0.3-0.3c-0.3-0.1-0.8,0.2-0.8,0.2
			c0,0,0.3-0.2,0.4-0.5c0-0.1,0.2-0.3,0.1-0.5c-0.1-0.1-0.3-0.1-0.4-0.1c-0.1,0-0.2,0.1-0.2,0c0,0,0-0.1,0-0.2
			c0-0.2-0.3-0.3-0.6-0.3c-0.5,0-0.9,0.5-1,0.4c-0.1-0.1,0.5-0.5,0.4-0.9c0-0.1-0.2-0.3-0.4-0.3c-0.3,0-0.4,0.3-0.5,0.3
			C17.8-0.2,18-0.9,17.8-1c-0.1-0.1-0.3,0.1-0.6,0c-0.2-0.1-0.2-0.1-0.3-0.2c-0.3-0.1-0.8,0.4-1.3,0.9c-0.2,0.2-0.6,0.5-1.1,0.8
			c0.3-0.3,0.5-0.6,0.7-0.7c0.4-0.4,0.6-0.6,0.6-0.9c0-0.1,0-0.4-0.2-0.4c-0.2-0.1-0.4,0.2-1.1,0.6c-0.2,0.1-0.3,0.2-0.4,0.3
			c0,0,0.3-0.4,0.2-0.7c0,0-0.1-0.2-0.2-0.3C13.8-2,13.1-1.9,13-1.8c-0.9,0.2-1.1,0.8-2.1,1.3c0,0-0.1,0.1-0.3,0.2
			C10.1-0.1,9.9,0,9.8,0C9.6,0.2,9.4,0.4,9.3,0.6C9.1,0.9,9.2,1,9,1.2C8.9,1.3,8.7,1.4,8.7,1.4C8.1,1.5,7.4,2.6,7.3,2.7
			C6.9,3.3,5.6,4.6,2.1,7.8c4.7-5,6.2-6.6,6.2-6.7c0,0,0,0,0,0c0-0.1,0.2-0.4,0-0.6C8.2,0.4,8.1,0.5,8,0.4c0,0,0-0.1,0-0.1
			C8,0,8.4,0,8.4-0.1c0,0-0.1-0.1-0.2-0.1C7.9-0.3,7.9-0.4,7.8-0.5C7.5-0.5,7.3-0.4,7.1-0.3C6.9-0.2,6.8,0,6.7-0.1c0,0,0-0.2,0-0.3
			C6.7-0.5,6.5-0.4,6.4-0.4c-0.3,0-0.5,0.3-0.6,0.2c-0.1,0,0-0.2-0.1-0.3C5.6-0.7,5.5-0.6,5.4-0.7C5.2-0.9,5.3-1,5.1-1.3
			C5-1.3,4.9-1.5,4.6-1.6c-0.2-0.1-0.3,0-0.5-0.1C3.9-1.7,3.9-1.9,3.6-1.9c-0.2,0-0.3,0-0.4,0.1C2.9-1.7,2.9-1.5,2.8-1.5
			c-0.2,0-0.2-0.2-0.5-0.2c-0.1,0-0.2,0-0.3,0C1.8-1.6,2-1.4,1.9-1.3c-0.1,0.1-0.2,0.1-0.3,0C1.5-1.3,1.5-1.4,1.5-1.5
			C1.3-1.7,0.3-1.4,0-0.8C0-0.7,0-0.6-0.2-0.5c-0.2,0.1-0.3,0-0.5,0c-0.3,0-0.5,0.2-1.1,1c0,0-0.1,0.1-0.6,0.6c-0.9,1-1,1.1-1.1,1.4
			c0,0.5,0,0.7,0,0.7c0,0.1,0.1,0.3,0,0.4c-0.1,0.1-0.1,0-0.2,0.1c-0.1,0.1,0.1,0.4,0,0.8c0,0,0,0,0,0.3c-0.1,0.5-0.1,0.6,0,0.7
			c0.1,0.1,0.2,0.1,0.3,0.1c0.2,0,0.3-0.1,0.4-0.1C-2.5,4.9-2.1,4.4-1.7,4c-0.2,0.3-0.3,0.6-0.4,0.7c-0.2,0.2-0.3,0.4-0.5,0.7
			c0,0.1-0.1,0.2-0.2,0.4C-2.9,6-3,6.3-2.9,6.6c0,0.1,0.1,0.2,0.1,0.3c0,0.2,0,0.3,0,0.4c0,0.1,0.1,0.1,0.2,0.1c0.1,0.1,0,0.3,0,0.6
			c0,0.2,0.1,0.1,0.1,0.3c0.1,0.3-0.1,0.4,0,0.7c0,0.1,0,0.2,0.1,0.3c0.1,0.1,0.4-0.1,0.6,0c0.2,0.1,0.1,0.3,0.3,0.4
			c0.1,0,0.2-0.1,0.4,0c0,0,0.3,0,0.3,0.1c0,0.1-0.1,0.3-0.3,0.4c-0.4,0.2-0.8-0.1-0.9,0c0,0.1,0.1,0.2,0.2,0.3c1,0.9,1,1,1.3,1.2
			C0,11.8,0,11.7,0.4,12c0.5,0.3,1.1,0.6,1.1,1c0,0.2-0.2,0.3-0.1,0.6c0,0.2,0.1,0.5,0.3,0.6c0.2,0.1,0.3-0.1,0.6-0.1
			c0.3,0,0.3,0.2,0.6,0.3c0.4,0,0.5-0.4,0.8-0.4c0.2,0,0.2,0.2,0.4,0.3c0.2,0.1,0.4,0,0.5,0c1-1.1,2.6-2.7,4.6-4.8
			c1.6-1.7,2.1-2.2,3-3.1c2.6-2.5,5.4-4.5,5.5-4.3c0.1,0.1-1.2,1.3-5.5,5.4c-3,2.8-5.4,5.2-7.1,6.8c0,0.3,0.1,0.5,0.2,0.5
			c0.2,0.1,0.5-0.2,0.8,0c0.1,0.1,0.3,0.2,0.3,0.4c0,0.2,0,0.3,0.1,0.4c0.1,0.1,0.1,0,0.2,0.1c0.2,0.2,0.1,0.3,0.3,0.5
			c0.2,0.1,0.4,0,0.4,0.2c0,0.1,0,0.1,0,0.3c0,0.1,0.2,0.1,0.2,0.3c0,0.2-0.3,0.3-0.3,0.6c0,0.2,0.1,0.2,0.1,0.5
			c0,0.5-0.6,0.6-0.5,0.9c0,0.2,0.2,0.4,0.4,0.5c0.3,0,0.5-0.4,0.8-0.4c0.4,0,0.6,0.6,0.9,0.5c0.3,0,0.3-0.4,0.6-0.4
			c0.2,0,0.3,0.1,0.4,0c0.1-0.1,0.1-0.2,0.3-0.3c0.1,0,0.1,0,0.2,0c0.2,0,0.6-0.4,0.7-0.8c0.1-0.4,0-0.5,0.2-0.8
			c0.1-0.2,0.3-0.3,0.4-0.4c0.5-0.4,1.2-1,1.8-1.6c0.8-0.8,0.9-1.1,1.5-1.4c0.1,0,0.3-0.1,0.5-0.3c0.3-0.3,0.4-0.6,0.6-0.8
			c0.4-0.8,0.8-0.8,1.7-2c0-0.1,0.2-0.3,0.2-0.4c-0.1-0.1-1.2,1.1-1.4,1c-0.1-0.1-0.1-0.2-0.1-0.2c0.1-0.6,0.8-0.8,1.9-1.7
			c0.3-0.2,0.2-0.2,0.5-0.5c0.8-0.7,1.7-1.3,2-1.7c0.1-0.3,0.2-0.6,0.2-0.6c0-0.1,0-0.1,0.1-0.2C21,6.1,21.1,6,21.5,5.5
			C22,5,22.1,4.9,22,4.8z M5.1,4C4.8,4.4,4.4,4.7,4.1,4.9C4.3,4.6,4.6,4.3,4.9,4c0.1-0.1,0.3-0.2,0.4-0.3C5.3,3.8,5.2,3.9,5.1,4z
			 M4.8,2.8c0.5-0.5,1-1,1.4-1.4C5.9,1.9,5.5,2.4,5,2.9C4.7,3.2,4.4,3.5,4.1,3.8C4.3,3.5,4.6,3.1,4.8,2.8z M-0.7,2.8
			c0.1-0.2,0.2-0.4,0.4-0.6C-0.2,2.1-0.1,2,0,1.9c0,0.1-0.1,0.2-0.2,0.3C-0.4,2.4-0.5,2.6-0.7,2.8z M0.1,10.9
			C0,11-0.1,11.1-0.1,11.1c0,0,0-0.2,0.1-0.3c0.1-0.1,0.3-0.2,0.3-0.2C0.3,10.7,0.2,10.8,0.1,10.9z M-0.2,6.3c0.3-0.4,0.7-0.8,1-1.2
			c0,0.1,0,0.2,0,0.3C0.5,5.7,0.2,6-0.2,6.3z M1.5,12.3c0,0-0.2-0.2-0.5-0.6c-0.1-0.1-0.2-0.2-0.2-0.3c0-0.1,0.1-0.1,0.2-0.2
			c0.1-0.1,0.3-0.2,0.4-0.5c0,0.2-0.1,0.3-0.1,0.4c0,0.1-0.1,0.2-0.1,0.3c0,0.1,0.1,0,0.1,0.1c0.1,0.1,0,0.2,0,0.3
			C1.4,12.1,1.6,12.3,1.5,12.3z M1.5,1c0.1-0.2,0.2-0.4,0.4-0.6C2,0.3,2.1,0.2,2.1,0.1C2.1,0.2,2,0.3,2,0.4C1.8,0.7,1.6,0.9,1.5,1z
			 M4.3,7.6c1-1.3,2.3-2.8,3.8-4.2c1.1-1.1,2.2-2,3.2-2.8C10.5,1.3,9.8,2,9,2.7C7.4,4.3,5.8,6,4.3,7.6z M9.2,3.4
			c0.8-0.8,1.6-1.5,2.4-2c-0.4,0.5-0.9,1-1.4,1.6C9,4.1,7.9,5.2,6.8,6.3C7.4,5.4,8.2,4.4,9.2,3.4z M11,5.1c1.1-0.9,2.2-1.8,3.2-2.6
			C13.5,3.2,12.8,4,12,4.7c-1.6,1.4-3.1,2.7-4.6,3.8C8.5,7.4,9.7,6.3,11,5.1z M12.7,5.3C11.1,6.7,9.6,8,8.1,9.1
			c1.1-1.1,2.3-2.2,3.6-3.4c1.1-0.9,2.2-1.8,3.2-2.6C14.2,3.8,13.5,4.6,12.7,5.3z M18.5,3.7c-0.7,0.7-1.4,1.4-2.2,2.1
			c-1.6,1.4-3.1,2.7-4.6,3.8c1.1-1.1,2.3-2.2,3.6-3.4C16.4,5.4,17.4,4.5,18.5,3.7z M9,11.5c1.4-1.7,3.1-3.5,5.1-5.3
			C15,5.4,15.9,4.7,16.7,4c-1,1-1.9,1.9-2.9,2.9C12.2,8.4,10.6,10,9,11.5z M9.4,13.1c1.6-1.5,3.2-3.1,5-4.7c1.4-1.3,2.8-2.4,4.2-3.5
			c-1.1,1.1-2.3,2.1-3.4,3.2C13.2,9.8,11.3,11.5,9.4,13.1z M9.6,14.1c1.1-1.3,2.5-2.7,4.1-4.1c1.4-1.2,2.7-2.2,4-3
			c-1.1,1-2.2,1.9-3.3,2.9C12.8,11.3,11.2,12.7,9.6,14.1z M17.7,8.4c-1.2,1.1-2.4,2.1-3.6,3c0.2-0.2,0.4-0.4,0.6-0.6
			c0.8-0.7,1.5-1.4,2.2-2.1c-0.1,0.1-0.2,0.1-0.3,0.2c-0.1,0-0.1,0.1-0.2,0.2c-1.3,1.1-2.4,2.2-3.5,3.3c-0.9,0.8-1.8,1.5-2.7,2.1
			c1.1-1.1,2.3-2.2,3.6-3.4c1-0.9,2-1.7,2.9-2.4c1-0.9,2.1-1.7,3-2.5C19.2,7,18.5,7.7,17.7,8.4z"/>
	</defs>
	<clipPath id="SVGID_2_">
		<use xlink:href="#SVGID_1_"  style="overflow:visible;"/>
	</clipPath>
	<path class="st0" d="M4.8,0.7c-1.4,0-2.5,0.5-3.3,1.5C0.5,3.3,0,4.9,0,6.8c0,1.5,0.3,2.7,0.8,3.8C1.7,12.2,3,13,4.8,13
		c0.4,1.7,1.4,2.6,3.9,2.2V14c-1.2,0.1-1.4-0.5-1.5-1.7v-0.1c0.3-0.2,0.7-0.5,0.9-0.8c0.9-1.1,1.4-2.7,1.4-4.6
		c0-1.5-0.3-2.7-0.9-3.8C7.8,1.5,6.5,0.7,4.8,0.7z"/>
	<path class="st0" d="M14.1,1.2l-1.7,0l-0.6,2.7h-1.2v2h1.1v3.9c0,1.1,0.2,1.8,0.4,2.3c0.4,0.6,1.2,0.9,2.4,0.9
		c0.4,0,0.9-0.1,1.5-0.2v-1.9c-0.4,0-0.7,0-0.9,0c-0.3,0-0.6-0.1-0.7-0.2c-0.2-0.1-0.3-0.5-0.3-1.1V6h1.8v-2h-1.8V1.2z"/>
	<path class="st0" d="M4.8,3c1.3,0,2,1.3,2,3.9c0,2.6-0.7,3.9-2,3.9c-1.4,0-2.1-1.3-2.1-3.9c0-0.1,0-0.2,0-0.3C2.8,4.1,3.5,3,4.8,3z
		"/>
</g>
</svg>
