<?xml version="1.0" encoding="utf-8"?>
<!-- Generator: Adobe Illustrator 23.0.0, SVG Export Plug-In . SVG Version: 6.00 Build 0)  -->
<svg version="1.1" id="Layer_1" xmlns="http://www.w3.org/2000/svg" xmlns:xlink="http://www.w3.org/1999/xlink" x="0px" y="0px"
	 viewBox="0 0 16 16" style="enable-background:new 0 0 16 16;" xml:space="preserve">
<style type="text/css">
	.st0{clip-path:url(#SVGID_2_);fill-rule:evenodd;clip-rule:evenodd;fill:#F75049;}
</style>
<g>
	<defs>
		<path id="SVGID_1_" d="M22.9,3.7c-0.1-0.2-0.4,0-0.7-0.3C22,3.3,22.1,3.1,21.9,3c-0.4-0.3-1.4,0.6-1.5,0.5c0,0,0.4-0.3,0.8-0.7
			C21.5,2.5,22,2,21.8,1.6c-0.1-0.2-0.3-0.2-0.3-0.4c0-0.3,0.5-0.5,0.5-0.8c0-0.2-0.2-0.3-0.3-0.4c-0.4-0.1-0.9,0.3-0.9,0.2
			c0,0,0.3-0.2,0.5-0.5c0-0.1,0.2-0.4,0.1-0.5c-0.1-0.1-0.3-0.1-0.4-0.1c-0.1,0-0.2,0.1-0.3,0.1c0,0,0-0.1,0-0.2
			c0-0.2-0.4-0.3-0.6-0.3c-0.6-0.1-1.1,0.5-1.1,0.5c-0.1-0.1,0.6-0.6,0.4-1c-0.1-0.2-0.2-0.3-0.4-0.3c-0.3,0-0.4,0.4-0.6,0.3
			c-0.2-0.1,0.1-0.8-0.1-1c-0.1-0.1-0.3,0.1-0.6,0C17.3-3,17.3-3,17.2-3.1c-0.3-0.1-0.9,0.5-1.5,1c-0.3,0.2-0.7,0.6-1.3,0.9
			C14.7-1.5,15-1.8,15.2-2c0.5-0.5,0.7-0.7,0.7-1c0-0.1,0-0.4-0.2-0.5c-0.2-0.1-0.4,0.2-1.2,0.7c-0.2,0.1-0.4,0.2-0.5,0.3
			c0,0,0.4-0.4,0.2-0.8c0,0-0.1-0.2-0.2-0.3c-0.5-0.4-1.3-0.2-1.4-0.2c-1,0.2-1.2,0.9-2.4,1.5c0,0-0.2,0.1-0.4,0.2
			C9.4-1.9,9.2-1.7,9.1-1.7C8.8-1.5,8.6-1.3,8.4-1C8.3-0.7,8.4-0.5,8.2-0.3C8.1-0.2,7.9-0.1,7.8-0.1C7.1,0,6.3,1.2,6.2,1.4
			C5.8,2,4.3,3.5,0.3,7.1c5.4-5.7,7-7.4,7.1-7.6c0,0,0,0,0,0c0-0.1,0.2-0.5,0-0.6c-0.1-0.1-0.3,0-0.3-0.2c0,0-0.1-0.1,0-0.2
			c0-0.2,0.5-0.3,0.5-0.4c0,0-0.1-0.1-0.2-0.1C7-2.1,7-2.2,6.8-2.2C6.5-2.3,6.2-2.1,6.1-2C5.8-1.9,5.7-1.8,5.6-1.8
			c-0.1,0,0-0.2,0-0.3C5.5-2.2,5.3-2.2,5.2-2.2C4.9-2.2,4.7-1.9,4.5-2C4.5-2,4.6-2.1,4.5-2.3C4.4-2.4,4.2-2.4,4-2.5
			C3.8-2.7,3.9-2.8,3.7-3.1C3.6-3.2,3.5-3.4,3.2-3.5C3-3.6,2.9-3.5,2.7-3.6C2.4-3.7,2.4-3.8,2.1-3.9c-0.2,0-0.3,0-0.5,0.1
			C1.3-3.6,1.3-3.4,1.1-3.4c-0.2,0-0.3-0.2-0.6-0.3c-0.1,0-0.2,0-0.3,0c-0.1,0.1,0,0.4-0.1,0.5C0-3.1-0.1-3.1-0.2-3.1
			c-0.1-0.1-0.1-0.2-0.2-0.2C-0.6-3.6-1.7-3.3-2-2.7C-2-2.6-2.1-2.4-2.2-2.3c-0.2,0.1-0.3,0-0.5,0c-0.3,0-0.5,0.3-1.2,1.1
			c0,0-0.1,0.2-0.6,0.7c-1,1.1-1.2,1.3-1.2,1.6c0,0.6,0.1,0.8,0.1,0.8c0,0.1,0.1,0.3,0,0.4c-0.1,0.1-0.1,0-0.2,0.1
			c-0.1,0.1,0.1,0.4,0,0.9c0,0,0,0-0.1,0.3C-6,4.2-6,4.3-6,4.4c0.1,0.1,0.2,0.1,0.3,0.1c0.2,0,0.3-0.1,0.4-0.1
			c0.4-0.5,0.9-1,1.3-1.5c-0.2,0.4-0.4,0.6-0.5,0.8C-4.7,3.9-4.8,4.1-5,4.4c-0.1,0.1-0.1,0.2-0.2,0.4c-0.1,0.3-0.2,0.6-0.1,0.9
			c0.1,0.1,0.1,0.2,0.2,0.3c0,0.2-0.1,0.3,0,0.4C-5,6.6-5,6.6-4.9,6.6c0.1,0.2,0,0.3,0,0.7c0,0.2,0.1,0.1,0.1,0.3
			c0.1,0.3-0.1,0.4,0,0.8c0,0.2,0,0.2,0.1,0.3C-4.5,8.9-4.3,8.6-4,8.8c0.2,0.1,0.1,0.4,0.3,0.4c0.1,0,0.2-0.1,0.4,0
			c0,0,0.3,0,0.4,0.2c0,0.1-0.1,0.3-0.3,0.4c-0.4,0.2-0.9-0.1-1,0c0,0.1,0.1,0.2,0.2,0.3c1.1,1.1,1.1,1.1,1.5,1.4
			c0.4,0.2,0.3,0.1,0.8,0.4c0.6,0.3,1.2,0.7,1.2,1.1c0,0.3-0.2,0.3-0.2,0.7c0,0.2,0.1,0.6,0.4,0.7c0.2,0.1,0.3-0.1,0.7-0.1
			c0.4,0,0.4,0.3,0.7,0.3c0.4,0,0.6-0.5,0.9-0.4c0.2,0,0.2,0.2,0.4,0.3c0.2,0.1,0.4,0,0.6,0c1.2-1.2,3-3.1,5.2-5.4
			c1.8-1.9,2.3-2.5,3.4-3.5c3-2.8,6.1-5,6.2-4.9c0.1,0.1-1.3,1.4-6.2,6.1c-3.4,3.2-6.1,5.9-8,7.7c0,0.4,0.1,0.5,0.2,0.6
			c0.2,0.1,0.6-0.2,0.9,0c0.1,0.1,0.3,0.2,0.4,0.5c0.1,0.2,0,0.3,0.1,0.4c0.1,0.1,0.1,0,0.2,0.1c0.2,0.2,0.1,0.4,0.3,0.5
			c0.2,0.2,0.4,0.1,0.5,0.2c0,0.1-0.1,0.2,0,0.3c0,0.2,0.2,0.2,0.2,0.3c0.1,0.2-0.3,0.3-0.4,0.7c-0.1,0.2,0.1,0.3,0.1,0.5
			c0,0.5-0.6,0.7-0.6,1.1c0,0.2,0.3,0.5,0.5,0.5c0.4,0.1,0.5-0.5,0.9-0.5c0.5,0,0.6,0.7,1.1,0.6c0.3,0,0.3-0.4,0.7-0.4
			c0.2,0,0.3,0.1,0.5,0c0.1-0.1,0.1-0.3,0.3-0.3c0.1,0,0.1,0,0.2,0c0.3,0,0.6-0.4,0.8-0.9c0.1-0.4,0-0.6,0.2-0.9
			c0.1-0.2,0.3-0.4,0.4-0.4c0.6-0.4,1.3-1.1,2-1.8c0.9-0.9,1-1.2,1.7-1.6c0.1,0,0.3-0.1,0.5-0.4c0.4-0.3,0.5-0.6,0.6-0.9
			c0.5-0.9,1-0.9,1.9-2.3c0-0.1,0.3-0.4,0.2-0.4c-0.1-0.1-1.3,1.3-1.6,1.1c-0.1-0.1-0.1-0.2-0.1-0.3c0.1-0.7,0.9-0.9,2.1-1.9
			c0.3-0.3,0.2-0.2,0.6-0.5c0.9-0.8,1.9-1.5,2.2-2c0.2-0.3,0.3-0.6,0.3-0.6c0-0.1,0-0.2,0.1-0.2c0.1-0.3,0.3-0.4,0.8-1
			C22.9,4,23,3.8,22.9,3.7z M3.7,2.9C3.4,3.3,3,3.6,2.7,3.8c0.2-0.3,0.5-0.7,0.9-1.1c0.2-0.1,0.3-0.3,0.5-0.4C4,2.6,3.9,2.7,3.7,2.9
			z M3.5,1.5C4,0.9,4.5,0.4,5.1-0.1C4.7,0.4,4.2,1,3.6,1.6c-0.4,0.4-0.7,0.7-1.1,1C2.8,2.2,3.1,1.8,3.5,1.5z M-2.8,1.4
			C-2.7,1.2-2.6,1-2.3,0.7c0.1-0.1,0.2-0.2,0.3-0.2c-0.1,0.1-0.1,0.2-0.2,0.3C-2.4,1.1-2.6,1.3-2.8,1.4z M-1.9,10.6
			c-0.1,0.1-0.2,0.2-0.3,0.2c0,0,0-0.2,0.1-0.3c0.1-0.2,0.3-0.2,0.3-0.2C-1.7,10.4-1.7,10.5-1.9,10.6z M-2.2,5.4
			C-1.9,4.9-1.5,4.5-1.1,4c0,0.1,0,0.2,0,0.3C-1.5,4.7-1.8,5-2.2,5.4z M-0.3,12.2c0,0-0.2-0.2-0.6-0.7C-1,11.4-1.1,11.3-1,11.2
			c0-0.1,0.1-0.1,0.2-0.2c0.1-0.1,0.3-0.2,0.5-0.5c0,0.2-0.1,0.4-0.1,0.5c-0.1,0.1-0.1,0.2-0.1,0.3c0,0.1,0.1,0,0.1,0.1
			c0.1,0.1,0,0.2,0,0.3C-0.4,12-0.2,12.2-0.3,12.2z M-0.4-0.6c0.1-0.2,0.3-0.5,0.5-0.7c0.1-0.1,0.2-0.2,0.3-0.2
			C0.3-1.4,0.3-1.3,0.2-1.2C0-1-0.2-0.7-0.4-0.6z M2.8,6.9C4,5.4,5.4,3.7,7.1,2.1c1.2-1.2,2.4-2.2,3.6-3.1C9.9-0.3,9.1,0.5,8.2,1.4
			C6.3,3.2,4.5,5.1,2.8,6.9z M8.4,2.1c0.9-0.9,1.8-1.7,2.7-2.3C10.5,0.4,10,1,9.5,1.6C8.2,3,6.9,4.2,5.7,5.4
			C6.3,4.4,7.2,3.3,8.4,2.1z M10.4,4.1c1.2-1.1,2.5-2.1,3.6-3c-0.8,0.8-1.6,1.6-2.5,2.4C9.8,5.2,8,6.7,6.3,7.9
			C7.6,6.7,9,5.4,10.4,4.1z M12.4,4.3c-1.8,1.6-3.5,3.1-5.2,4.3c1.2-1.2,2.6-2.5,4.1-3.8c1.2-1.1,2.5-2.1,3.6-3
			C14.1,2.6,13.3,3.4,12.4,4.3z M18.9,2.5c-0.8,0.8-1.6,1.6-2.5,2.4c-1.8,1.6-3.5,3.1-5.2,4.3c1.2-1.2,2.6-2.5,4.1-3.8
			C16.5,4.4,17.7,3.4,18.9,2.5z M8.1,11.3c1.6-1.9,3.6-3.9,5.8-6c1-0.9,2-1.7,3-2.5c-1.1,1.1-2.2,2.2-3.3,3.3
			C11.8,7.8,10,9.6,8.1,11.3z M8.6,13.1c1.8-1.7,3.7-3.5,5.7-5.3c1.6-1.4,3.2-2.8,4.7-4c-1.3,1.2-2.5,2.4-3.9,3.6
			C12.9,9.4,10.7,11.3,8.6,13.1z M8.9,14.3c1.2-1.4,2.8-3,4.7-4.7c1.6-1.3,3.1-2.4,4.5-3.3c-1.2,1.1-2.5,2.2-3.7,3.2
			C12.5,11.1,10.7,12.7,8.9,14.3z M18,7.8c-1.4,1.3-2.7,2.4-4,3.4c0.2-0.2,0.5-0.4,0.7-0.7c0.9-0.8,1.7-1.6,2.5-2.4
			c-0.1,0.1-0.2,0.2-0.3,0.3c-0.1,0.1-0.1,0.1-0.2,0.2c-1.4,1.3-2.8,2.5-4,3.7c-1,0.9-2,1.7-3,2.4c1.2-1.2,2.6-2.5,4.1-3.8
			c1.1-1,2.2-1.9,3.3-2.7c1.2-1,2.3-1.9,3.4-2.8C19.7,6.2,18.9,7,18,7.8z"/>
	</defs>
	<clipPath id="SVGID_2_">
		<use xlink:href="#SVGID_1_"  style="overflow:visible;"/>
	</clipPath>
	<path class="st0" d="M8.4,11.2H6.7v-0.4l0,0c0-0.7,0.1-1.3,0.4-1.9l0,0l0,0C7.3,8.4,7.6,8,8,7.6l0,0l0,0C8.3,7.3,8.7,7,9,6.7l0,0
		l0,0c0.4-0.3,0.7-0.6,0.9-1l0,0l0,0c0.2-0.4,0.4-0.8,0.4-1.3l0,0l0,0c0-0.6-0.2-1.1-0.7-1.6l0,0l0,0c-0.4-0.4-1-0.6-1.8-0.6l0,0
		l0,0c-0.9,0-1.6,0.2-2.1,0.7l0,0l0,0C5.2,3.4,5,4.1,5,4.9l0,0H3.3l0,0c0-1.3,0.4-2.3,1.2-3.1l0,0l0,0C5.3,1,6.4,0.6,7.8,0.6l0,0
		l0,0c1.3,0,2.4,0.4,3.1,1.1l0,0l0,0C11.7,2.4,12,3.3,12,4.4l0,0l0,0c0,0.6-0.1,1.2-0.4,1.7l0,0l0,0c-0.2,0.5-0.5,0.9-0.9,1.2l0,0
		l0,0c-0.4,0.3-0.7,0.6-1.1,0.9l0,0l0,0C9.4,8.5,9.1,8.8,8.8,9.3l0,0l0,0c-0.2,0.4-0.4,0.9-0.4,1.5l0,0V11.2L8.4,11.2z"/>
	<path class="st0" d="M8.5,14.7L8.5,14.7L8.5,14.7c-0.3,0.3-0.6,0.4-1,0.4l0,0l0,0c-0.4,0-0.7-0.1-1-0.4l0,0l0,0
		c-0.3-0.3-0.4-0.6-0.4-0.9l0,0l0,0c0-0.4,0.1-0.7,0.4-1l0,0l0,0c0.3-0.3,0.6-0.4,1-0.4l0,0l0,0c0.4,0,0.7,0.1,1,0.4l0,0l0,0
		c0.3,0.3,0.4,0.6,0.4,1l0,0l0,0C8.9,14.1,8.8,14.4,8.5,14.7z"/>
</g>
</svg>
