<?xml version="1.0" encoding="utf-8"?>
<!-- Generator: Adobe Illustrator 23.0.0, SVG Export Plug-In . SVG Version: 6.00 Build 0)  -->
<svg version="1.1" id="Layer_1" xmlns="http://www.w3.org/2000/svg" xmlns:xlink="http://www.w3.org/1999/xlink" x="0px" y="0px"
	 viewBox="0 0 16 16" style="enable-background:new 0 0 16 16;" xml:space="preserve">
<style type="text/css">
	.st0{clip-path:url(#SVGID_2_);fill:#F75049;}
</style>
<g>
	<defs>
		<path id="SVGID_1_" d="M20.1,6.2c-0.1-0.1-0.3,0-0.6-0.2c-0.2-0.2-0.2-0.3-0.3-0.4c-0.4-0.2-1.3,0.5-1.3,0.5c0,0,0.4-0.3,0.7-0.7
			c0.2-0.2,0.6-0.7,0.5-1C19,4.2,18.8,4.2,18.8,4c0-0.3,0.5-0.4,0.4-0.7C19.2,3.1,19.1,3,19,3c-0.3-0.1-0.8,0.2-0.8,0.2
			c0,0,0.3-0.2,0.4-0.5c0-0.1,0.2-0.3,0.1-0.5c-0.1-0.1-0.3-0.1-0.4-0.1c-0.1,0-0.2,0.1-0.2,0c0,0,0-0.1,0-0.2
			c0-0.2-0.3-0.3-0.6-0.3c-0.5,0-0.9,0.5-1,0.4c-0.1-0.1,0.5-0.5,0.4-0.9c0-0.1-0.2-0.3-0.4-0.3c-0.3,0-0.4,0.3-0.5,0.3
			c-0.1-0.1,0.1-0.7-0.1-0.9c-0.1-0.1-0.3,0.1-0.6,0c-0.2-0.1-0.2-0.1-0.3-0.2c-0.3-0.1-0.8,0.4-1.3,0.9c-0.2,0.2-0.6,0.5-1.1,0.8
			c0.3-0.3,0.5-0.6,0.7-0.7c0.4-0.4,0.6-0.6,0.6-0.9c0-0.1,0-0.4-0.2-0.4c-0.2-0.1-0.4,0.2-1.1,0.6c-0.2,0.1-0.3,0.2-0.4,0.3
			c0,0,0.3-0.4,0.2-0.7c0,0-0.1-0.2-0.2-0.3c-0.4-0.3-1.1-0.2-1.2-0.2c-0.9,0.2-1.1,0.8-2.1,1.3c0,0-0.1,0.1-0.3,0.2
			C8.1,1.3,7.9,1.4,7.9,1.5C7.6,1.7,7.4,1.8,7.3,2C7.2,2.3,7.2,2.5,7.1,2.6C6.9,2.8,6.8,2.8,6.7,2.8C6.1,3,5.4,4,5.3,4.2
			C4.9,4.7,3.6,6.1,0.1,9.2c4.7-5,6.2-6.6,6.2-6.7c0,0,0,0,0,0c0-0.1,0.2-0.4,0-0.6c-0.1-0.1-0.2,0-0.3-0.1c0,0,0-0.1,0-0.1
			c0-0.2,0.4-0.2,0.4-0.3c0,0-0.1-0.1-0.2-0.1C6,1.1,6,1,5.8,1C5.6,0.9,5.3,1,5.2,1.1C5,1.3,4.8,1.4,4.8,1.3c0,0,0-0.2,0-0.3
			C4.7,1,4.5,1,4.5,1C4.1,1,3.9,1.3,3.8,1.2c-0.1,0,0-0.2-0.1-0.3C3.7,0.8,3.5,0.8,3.4,0.7C3.2,0.6,3.3,0.4,3.1,0.2
			C3,0.1,2.9-0.1,2.7-0.2c-0.2-0.1-0.3,0-0.5-0.1C1.9-0.3,1.9-0.5,1.7-0.5c-0.2,0-0.3,0-0.4,0.1C1-0.3,1-0.1,0.8-0.1
			c-0.2,0-0.2-0.2-0.5-0.2c-0.1,0-0.2,0-0.3,0c-0.1,0.1,0,0.4-0.1,0.5c-0.1,0.1-0.2,0.1-0.3,0C-0.5,0.1-0.5,0-0.5,0
			C-0.7-0.2-1.6,0-1.9,0.6C-2,0.7-2,0.8-2.1,0.9c-0.2,0.1-0.3,0-0.5,0c-0.3,0-0.5,0.2-1.1,1c0,0-0.1,0.1-0.6,0.6
			c-0.9,1-1,1.1-1.1,1.4c0,0.5,0,0.7,0,0.7c0,0.1,0.1,0.3,0,0.4c-0.1,0.1-0.1,0-0.2,0.1c-0.1,0.1,0.1,0.4,0,0.8c0,0,0,0,0,0.3
			c-0.1,0.5-0.1,0.6,0,0.7c0.1,0.1,0.2,0.1,0.3,0.1c0.2,0,0.3-0.1,0.4-0.1c0.4-0.5,0.8-0.9,1.1-1.4C-3.9,5.7-4,6-4.1,6.1
			c-0.2,0.2-0.3,0.4-0.5,0.7c0,0.1-0.1,0.2-0.2,0.4C-4.9,7.5-5,7.7-4.8,8c0,0.1,0.1,0.2,0.1,0.3c0,0.2,0,0.3,0,0.4
			c0,0.1,0.1,0.1,0.2,0.1c0.1,0.1,0,0.3,0,0.6c0,0.2,0.1,0.1,0.1,0.3c0.1,0.3-0.1,0.4,0,0.7c0,0.1,0,0.2,0.1,0.3
			c0.1,0.1,0.4-0.1,0.6,0c0.2,0.1,0.1,0.3,0.3,0.4c0.1,0,0.2-0.1,0.4,0c0,0,0.3,0,0.3,0.1c0,0.1-0.1,0.3-0.3,0.4
			c-0.4,0.2-0.8-0.1-0.9,0c0,0.1,0.1,0.2,0.2,0.3c1,0.9,1,1,1.3,1.2c0.3,0.2,0.3,0.1,0.7,0.3c0.5,0.3,1.1,0.6,1.1,1
			c0,0.2-0.2,0.3-0.1,0.6c0,0.2,0.1,0.5,0.3,0.6c0.2,0.1,0.3-0.1,0.6-0.1c0.3,0,0.3,0.2,0.6,0.3c0.4,0,0.5-0.4,0.8-0.4
			c0.2,0,0.2,0.2,0.4,0.3c0.2,0.1,0.4,0,0.5,0c1-1.1,2.6-2.7,4.6-4.8c1.6-1.7,2.1-2.2,3-3.1c2.6-2.5,5.4-4.5,5.5-4.3
			c0.1,0.1-1.2,1.3-5.5,5.4c-3,2.8-5.4,5.2-7.1,6.8c0,0.3,0.1,0.5,0.2,0.5c0.2,0.1,0.5-0.2,0.8,0c0.1,0.1,0.3,0.2,0.3,0.4
			c0,0.2,0,0.3,0.1,0.4c0.1,0.1,0.1,0,0.2,0.1c0.2,0.2,0.1,0.3,0.3,0.5c0.2,0.1,0.4,0,0.4,0.2c0,0.1,0,0.1,0,0.3
			c0,0.1,0.2,0.1,0.2,0.3c0,0.2-0.3,0.3-0.3,0.6c0,0.2,0.1,0.2,0.1,0.5c0,0.5-0.6,0.6-0.5,0.9c0,0.2,0.2,0.4,0.4,0.5
			c0.3,0,0.5-0.4,0.8-0.4c0.4,0,0.6,0.6,0.9,0.5c0.3,0,0.3-0.4,0.6-0.4c0.2,0,0.3,0.1,0.4,0C8,20.4,8,20.3,8.2,20.2
			c0.1,0,0.1,0,0.2,0c0.2,0,0.6-0.4,0.7-0.8c0.1-0.4,0-0.5,0.2-0.8c0.1-0.2,0.3-0.3,0.4-0.4c0.5-0.4,1.2-1,1.8-1.6
			c0.8-0.8,0.9-1.1,1.5-1.4c0.1,0,0.3-0.1,0.5-0.3c0.3-0.3,0.4-0.6,0.6-0.8c0.4-0.8,0.8-0.8,1.7-2c0-0.1,0.2-0.3,0.2-0.4
			c-0.1-0.1-1.2,1.1-1.4,1c-0.1-0.1-0.1-0.2-0.1-0.2c0.1-0.6,0.8-0.8,1.9-1.7c0.3-0.2,0.2-0.2,0.5-0.5c0.8-0.7,1.7-1.3,2-1.7
			C18.7,8.3,18.8,8,18.8,8c0-0.1,0-0.1,0.1-0.2C19,7.6,19.1,7.5,19.6,7C20,6.4,20.1,6.3,20.1,6.2z M3.1,5.5C2.8,5.8,2.5,6.1,2.2,6.3
			C2.3,6.1,2.6,5.7,3,5.4c0.1-0.1,0.3-0.2,0.4-0.3C3.3,5.2,3.2,5.3,3.1,5.5z M2.9,4.2c0.5-0.5,1-1,1.4-1.4C3.9,3.3,3.5,3.8,3,4.3
			C2.7,4.6,2.4,4.9,2.1,5.2C2.3,4.9,2.6,4.6,2.9,4.2z M-2.7,4.2C-2.6,4-2.4,3.8-2.2,3.6C-2.2,3.5-2.1,3.4-2,3.4
			c0,0.1-0.1,0.2-0.2,0.3C-2.3,3.9-2.5,4.1-2.7,4.2z M-1.8,12.3c-0.1,0.1-0.2,0.2-0.3,0.2c0,0,0-0.2,0.1-0.3
			c0.1-0.1,0.3-0.2,0.3-0.2C-1.7,12.1-1.7,12.2-1.8,12.3z M-2.2,7.7c0.3-0.4,0.7-0.8,1-1.2c0,0.1,0,0.2,0,0.3
			C-1.5,7.1-1.8,7.4-2.2,7.7z M-0.4,13.7c0,0-0.2-0.2-0.5-0.6C-1,13-1.1,12.9-1.1,12.8c0-0.1,0.1-0.1,0.2-0.2
			c0.1-0.1,0.3-0.2,0.4-0.5c0,0.2-0.1,0.3-0.1,0.4c0,0.1-0.1,0.2-0.1,0.3c0,0.1,0.1,0,0.1,0.1c0.1,0.1,0,0.2,0,0.3
			C-0.5,13.5-0.4,13.7-0.4,13.7z M-0.5,2.4C-0.4,2.2-0.3,2-0.1,1.8C0,1.7,0.1,1.6,0.2,1.6c0,0.1-0.1,0.2-0.2,0.3
			C-0.2,2.1-0.4,2.3-0.5,2.4z M2.3,9c1-1.3,2.3-2.8,3.8-4.2c1.1-1.1,2.2-2,3.2-2.8C8.6,2.7,7.8,3.4,7.1,4.1C5.4,5.8,3.8,7.4,2.3,9z
			 M7.2,4.8C8,4,8.8,3.3,9.6,2.8c-0.4,0.5-0.9,1-1.4,1.6C7.1,5.6,5.9,6.7,4.8,7.7C5.4,6.8,6.2,5.8,7.2,4.8z M9,6.6
			c1.1-0.9,2.2-1.8,3.2-2.6c-0.7,0.7-1.4,1.4-2.2,2.1C8.5,7.5,6.9,8.8,5.4,9.9C6.5,8.9,7.7,7.7,9,6.6z M10.7,6.7
			c-1.6,1.4-3.1,2.7-4.6,3.8c1.1-1.1,2.3-2.2,3.6-3.4c1.1-0.9,2.2-1.8,3.2-2.6C12.3,5.3,11.5,6,10.7,6.7z M16.5,5.2
			c-0.7,0.7-1.4,1.4-2.2,2.1c-1.6,1.4-3.1,2.7-4.6,3.8c1.1-1.1,2.3-2.2,3.6-3.4C14.4,6.8,15.5,6,16.5,5.2z M7,12.9
			c1.4-1.7,3.1-3.5,5.1-5.3c0.9-0.8,1.8-1.5,2.6-2.2c-1,1-1.9,1.9-2.9,2.9C10.3,9.9,8.6,11.4,7,12.9z M7.4,14.6
			c1.6-1.5,3.2-3.1,5-4.7c1.4-1.3,2.8-2.4,4.2-3.5c-1.1,1.1-2.3,2.1-3.4,3.2C11.2,11.3,9.3,13,7.4,14.6z M7.6,15.6
			c1.1-1.3,2.5-2.7,4.1-4.1c1.4-1.2,2.7-2.2,4-3c-1.1,1-2.2,1.9-3.3,2.9C10.9,12.8,9.3,14.2,7.6,15.6z M15.7,9.8
			c-1.2,1.1-2.4,2.1-3.6,3c0.2-0.2,0.4-0.4,0.6-0.6c0.8-0.7,1.5-1.4,2.2-2.1c-0.1,0.1-0.2,0.1-0.3,0.2c-0.1,0-0.1,0.1-0.2,0.2
			c-1.3,1.1-2.4,2.2-3.5,3.3c-0.9,0.8-1.8,1.5-2.7,2.1c1.1-1.1,2.3-2.2,3.6-3.4c1-0.9,2-1.7,2.9-2.4c1-0.9,2.1-1.7,3-2.5
			C17.2,8.4,16.5,9.1,15.7,9.8z"/>
	</defs>
	<clipPath id="SVGID_2_">
		<use xlink:href="#SVGID_1_"  style="overflow:visible;"/>
	</clipPath>
	<path class="st0" d="M7.7,4.2L7.4,5.4l-1,3.8L5.7,6.7L5.6,6.4H5.3H0v0.7l5.1,0l1,3.5l0.4,1.2l0.3-1.2l1-3.9l0.6,1.8l0.3,1l0.3-1
		l0.7-2.1l0.9,2.7l0.1,0.2H11l5,0V8.7l-4.7,0l-1.1-3.5l-0.3-1l-0.3,1L8.8,7.3l-0.7-2L7.7,4.2z"/>
</g>
</svg>
