<?xml version="1.0" encoding="utf-8"?>
<!-- Generator: Adobe Illustrator 23.0.0, SVG Export Plug-In . SVG Version: 6.00 Build 0)  -->
<svg version="1.1" id="Layer_1" xmlns="http://www.w3.org/2000/svg" xmlns:xlink="http://www.w3.org/1999/xlink" x="0px" y="0px"
	 viewBox="0 0 16 16" style="enable-background:new 0 0 16 16;" xml:space="preserve">
<style type="text/css">
	.st0{clip-path:url(#SVGID_2_);fill:#F75049;}
</style>
<g>
	<defs>
		<path id="SVGID_1_" d="M21.4,5.2c-0.1-0.1-0.3,0-0.6-0.2c-0.2-0.2-0.2-0.3-0.3-0.4C20.2,4.3,19.3,5,19.2,5c0,0,0.4-0.3,0.7-0.7
			c0.2-0.2,0.6-0.7,0.5-1c-0.1-0.2-0.3-0.2-0.3-0.3c0-0.3,0.5-0.4,0.4-0.7c0-0.2-0.2-0.3-0.3-0.3c-0.3-0.1-0.8,0.2-0.8,0.2
			c0,0,0.3-0.2,0.4-0.5c0-0.1,0.2-0.3,0.1-0.5C19.9,1,19.7,1,19.6,1.1c-0.1,0-0.2,0.1-0.2,0c0,0,0-0.1,0-0.2c0-0.2-0.3-0.3-0.6-0.3
			c-0.5,0-0.9,0.5-1,0.4c-0.1-0.1,0.5-0.5,0.4-0.9c0-0.1-0.2-0.3-0.4-0.3c-0.3,0-0.4,0.3-0.5,0.3c-0.1-0.1,0.1-0.7-0.1-0.9
			c-0.1-0.1-0.3,0.1-0.6,0c-0.2-0.1-0.2-0.1-0.3-0.2C16-1,15.6-0.4,15,0c-0.2,0.2-0.6,0.5-1.1,0.8c0.3-0.3,0.5-0.6,0.7-0.7
			c0.4-0.4,0.6-0.6,0.6-0.9c0-0.1,0-0.4-0.2-0.4c-0.2-0.1-0.4,0.2-1.1,0.6c-0.2,0.1-0.3,0.2-0.4,0.3c0,0,0.3-0.4,0.2-0.7
			c0,0-0.1-0.2-0.2-0.3c-0.4-0.3-1.1-0.2-1.2-0.2c-0.9,0.2-1.1,0.8-2.1,1.3c0,0-0.1,0.1-0.3,0.2C9.5,0.2,9.3,0.3,9.2,0.4
			C8.9,0.6,8.7,0.7,8.6,1C8.5,1.2,8.6,1.4,8.4,1.6C8.3,1.7,8.1,1.7,8.1,1.8C7.5,1.9,6.7,2.9,6.6,3.1C6.2,3.6,4.9,5,1.4,8.1
			c4.7-5,6.2-6.6,6.2-6.7c0,0,0,0,0,0c0-0.1,0.2-0.4,0-0.6c-0.1-0.1-0.2,0-0.3-0.1c0,0,0-0.1,0-0.1c0-0.2,0.4-0.2,0.4-0.3
			c0,0-0.1-0.1-0.2-0.1C7.3,0,7.3-0.1,7.2-0.1C6.9-0.2,6.7,0,6.5,0.1C6.3,0.2,6.2,0.3,6.1,0.3c0,0,0-0.2,0-0.3
			C6-0.1,5.9-0.1,5.8-0.1c-0.3,0-0.5,0.3-0.6,0.2c-0.1,0,0-0.2-0.1-0.3C5-0.3,4.9-0.3,4.7-0.4C4.6-0.5,4.6-0.6,4.4-0.9
			C4.4-1,4.2-1.2,4-1.2c-0.2-0.1-0.3,0-0.5-0.1C3.3-1.4,3.3-1.5,3-1.6c-0.2,0-0.3,0-0.4,0.1C2.3-1.3,2.3-1.2,2.1-1.2
			C2-1.2,1.9-1.4,1.6-1.4c-0.1,0-0.2,0-0.3,0C1.2-1.3,1.4-1,1.2-0.9C1.2-0.9,1.1-0.9,1-0.9C0.9-1,0.9-1.1,0.8-1.1
			C0.6-1.3-0.3-1.1-0.6-0.5c0,0.1-0.1,0.2-0.2,0.3c-0.2,0.1-0.3,0-0.5,0c-0.3,0-0.5,0.2-1.1,1c0,0-0.1,0.1-0.6,0.6
			c-0.9,1-1,1.1-1.1,1.4c0,0.5,0,0.7,0,0.7c0,0.1,0.1,0.3,0,0.4C-3.9,4-4,3.9-4.1,4C-4.2,4.1-4,4.4-4,4.8c0,0,0,0,0,0.3
			c-0.1,0.5-0.1,0.6,0,0.7C-4,5.8-3.9,5.8-3.8,5.8c0.2,0,0.3-0.1,0.4-0.1c0.4-0.5,0.8-0.9,1.1-1.4c-0.2,0.3-0.3,0.6-0.4,0.7
			C-3,5.3-3.1,5.5-3.3,5.8c0,0.1-0.1,0.2-0.2,0.4c-0.1,0.2-0.2,0.5-0.1,0.8c0,0.1,0.1,0.2,0.1,0.3c0,0.2,0,0.3,0,0.4
			c0,0.1,0.1,0.1,0.2,0.1c0.1,0.1,0,0.3,0,0.6c0,0.2,0.1,0.1,0.1,0.3C-3,8.9-3.1,9-3,9.3c0,0.1,0,0.2,0.1,0.3c0.1,0.1,0.4-0.1,0.6,0
			c0.2,0.1,0.1,0.3,0.3,0.4c0.1,0,0.2-0.1,0.4,0c0,0,0.3,0,0.3,0.1c0,0.1-0.1,0.3-0.3,0.4c-0.4,0.2-0.8-0.1-0.9,0
			c0,0.1,0.1,0.2,0.2,0.3c1,0.9,1,1,1.3,1.2c0.3,0.2,0.3,0.1,0.7,0.3c0.5,0.3,1.1,0.6,1.1,1c0,0.2-0.2,0.3-0.1,0.6
			c0,0.2,0.1,0.5,0.3,0.6c0.2,0.1,0.3-0.1,0.6-0.1c0.3,0,0.3,0.2,0.6,0.3c0.4,0,0.5-0.4,0.8-0.4c0.2,0,0.2,0.2,0.4,0.3
			c0.2,0.1,0.4,0,0.5,0c1-1.1,2.6-2.7,4.6-4.8c1.6-1.7,2.1-2.2,3-3.1c2.6-2.5,5.4-4.5,5.5-4.3c0.1,0.1-1.2,1.3-5.5,5.4
			c-3,2.8-5.4,5.2-7.1,6.8c0,0.3,0.1,0.5,0.2,0.5c0.2,0.1,0.5-0.2,0.8,0c0.1,0.1,0.3,0.2,0.3,0.4c0,0.2,0,0.3,0.1,0.4
			C5.9,16,5.9,15.9,6,16c0.2,0.2,0.1,0.3,0.3,0.5c0.2,0.1,0.4,0,0.4,0.2c0,0.1,0,0.1,0,0.3c0,0.1,0.2,0.1,0.2,0.3
			c0,0.2-0.3,0.3-0.3,0.6c0,0.2,0.1,0.2,0.1,0.5c0,0.5-0.6,0.6-0.5,0.9c0,0.2,0.2,0.4,0.4,0.5c0.3,0,0.5-0.4,0.8-0.4
			c0.4,0,0.6,0.6,0.9,0.5c0.3,0,0.3-0.4,0.6-0.4c0.2,0,0.3,0.1,0.4,0c0.1-0.1,0.1-0.2,0.3-0.3c0.1,0,0.1,0,0.2,0
			c0.2,0,0.6-0.4,0.7-0.8c0.1-0.4,0-0.5,0.2-0.8c0.1-0.2,0.3-0.3,0.4-0.4c0.5-0.4,1.2-1,1.8-1.6c0.8-0.8,0.9-1.1,1.5-1.4
			c0.1,0,0.3-0.1,0.5-0.3c0.3-0.3,0.4-0.6,0.6-0.8c0.4-0.8,0.8-0.8,1.7-2c0-0.1,0.2-0.3,0.2-0.4c-0.1-0.1-1.2,1.1-1.4,1
			c-0.1-0.1-0.1-0.2-0.1-0.2c0.1-0.6,0.8-0.8,1.9-1.7c0.3-0.2,0.2-0.2,0.5-0.5c0.8-0.7,1.7-1.3,2-1.7c0.1-0.3,0.2-0.6,0.2-0.6
			c0-0.1,0-0.1,0.1-0.2c0.1-0.3,0.2-0.4,0.7-0.9C21.4,5.4,21.4,5.2,21.4,5.2z M4.5,4.4C4.1,4.8,3.8,5.1,3.5,5.3
			C3.7,5,3.9,4.6,4.3,4.3C4.5,4.2,4.6,4.1,4.7,4C4.7,4.1,4.6,4.3,4.5,4.4z M4.2,3.2c0.5-0.5,1-1,1.4-1.4c-0.3,0.5-0.8,1-1.3,1.5
			C4.1,3.6,3.7,3.9,3.4,4.1C3.7,3.8,3.9,3.5,4.2,3.2z M-1.3,3.1c0.1-0.2,0.2-0.4,0.4-0.6c0.1-0.1,0.2-0.2,0.2-0.2
			c0,0.1-0.1,0.2-0.2,0.3C-1,2.8-1.2,3-1.3,3.1z M-0.5,11.3c-0.1,0.1-0.2,0.2-0.3,0.2c0,0,0-0.2,0.1-0.3C-0.5,11-0.4,11-0.4,11
			C-0.4,11-0.4,11.2-0.5,11.3z M-0.8,6.6c0.3-0.4,0.7-0.8,1-1.2c0,0.1,0,0.2,0,0.3C-0.1,6-0.5,6.3-0.8,6.6z M0.9,12.6
			c0,0-0.2-0.2-0.5-0.6c-0.1-0.1-0.2-0.2-0.2-0.3c0-0.1,0.1-0.1,0.2-0.2c0.1-0.1,0.3-0.2,0.4-0.5c0,0.2-0.1,0.3-0.1,0.4
			c0,0.1-0.1,0.2-0.1,0.3c0,0.1,0.1,0,0.1,0.1c0.1,0.1,0,0.2,0,0.3C0.8,12.4,1,12.6,0.9,12.6z M0.8,1.3c0.1-0.2,0.2-0.4,0.4-0.6
			c0.1-0.1,0.2-0.2,0.2-0.2c0,0.1-0.1,0.2-0.2,0.3C1.2,1,1,1.2,0.8,1.3z M3.6,7.9c1-1.3,2.3-2.8,3.8-4.2c1.1-1.1,2.2-2,3.2-2.8
			C9.9,1.6,9.2,2.3,8.4,3.1C6.8,4.7,5.2,6.3,3.6,7.9z M8.6,3.7c0.8-0.8,1.6-1.5,2.4-2c-0.4,0.5-0.9,1-1.4,1.6
			C8.4,4.5,7.3,5.6,6.2,6.6C6.8,5.7,7.5,4.7,8.6,3.7z M10.4,5.5c1.1-0.9,2.2-1.8,3.2-2.6c-0.7,0.7-1.4,1.4-2.2,2.1
			C9.8,6.5,8.3,7.7,6.8,8.9C7.9,7.8,9.1,6.6,10.4,5.5z M12.1,5.6C10.5,7.1,9,8.3,7.5,9.5c1.1-1.1,2.3-2.2,3.6-3.4
			c1.1-0.9,2.2-1.8,3.2-2.6C13.6,4.2,12.9,4.9,12.1,5.6z M17.9,4.1c-0.7,0.7-1.4,1.4-2.2,2.1c-1.6,1.4-3.1,2.7-4.6,3.8
			c1.1-1.1,2.3-2.2,3.6-3.4C15.7,5.8,16.8,4.9,17.9,4.1z M8.4,11.8c1.4-1.7,3.1-3.5,5.1-5.3c0.9-0.8,1.8-1.5,2.6-2.2
			c-1,1-1.9,1.9-2.9,2.9C11.6,8.8,10,10.3,8.4,11.8z M8.7,13.5c1.6-1.5,3.2-3.1,5-4.7c1.4-1.3,2.8-2.4,4.2-3.5
			c-1.1,1.1-2.3,2.1-3.4,3.2C12.6,10.2,10.6,11.9,8.7,13.5z M9,14.5c1.1-1.3,2.5-2.7,4.1-4.1c1.4-1.2,2.7-2.2,4-3
			c-1.1,1-2.2,1.9-3.3,2.9C12.2,11.7,10.6,13.1,9,14.5z M17.1,8.8c-1.2,1.1-2.4,2.1-3.6,3c0.2-0.2,0.4-0.4,0.6-0.6
			c0.8-0.7,1.5-1.4,2.2-2.1c-0.1,0.1-0.2,0.1-0.3,0.2c-0.1,0-0.1,0.1-0.2,0.2c-1.3,1.1-2.4,2.2-3.5,3.3c-0.9,0.8-1.8,1.5-2.7,2.1
			c1.1-1.1,2.3-2.2,3.6-3.4c1-0.9,2-1.7,2.9-2.4c1-0.9,2.1-1.7,3-2.5C18.6,7.3,17.8,8.1,17.1,8.8z"/>
	</defs>
	<clipPath id="SVGID_2_">
		<use xlink:href="#SVGID_1_"  style="overflow:visible;"/>
	</clipPath>
	<path class="st0" d="M5.1,6.4C5,6.2,4.7,6.1,4.5,6.1c-0.1,0-0.3,0-0.4,0c0,0.6,0,1.2,0,1.9c0.4,0,0.8,0,1.1-0.4
		C5.3,7.2,5.3,6.8,5.1,6.4z"/>
	<path class="st0" d="M5.1,6.4C5,6.2,4.7,6.1,4.5,6.1c-0.1,0-0.3,0-0.4,0c0,0.6,0,1.2,0,1.9c0.4,0,0.8,0,1.1-0.4
		C5.3,7.2,5.3,6.8,5.1,6.4z"/>
	<path class="st0" d="M8.6,0.1C5.9,0.6,3.2,1.3,0.5,1.7v3.5H3C3.5,5.2,4,5,4.5,5c0.5,0,1,0.1,1.5,0.5c0.8,1,0.6,2.8-0.6,3.3
		C5,9,4.5,9,4.1,9v2.2c-0.4,0-0.7-0.1-1.1-0.1c0-1.7,0-3.4,0-5.1H0.5v8.1c2.7,0.5,5.4,1.1,8.1,1.6h0.8V0.1H8.6z"/>
	<path class="st0" d="M5.2,7.6c0.2-0.4,0.2-0.9,0-1.2C5,6.2,4.7,6.1,4.5,6.1c-0.1,0-0.3,0-0.4,0c0,0.6,0,1.2,0,1.9
		C4.5,8,4.9,8,5.2,7.6z"/>
	<path class="st0" d="M9.9,2.4v1.8C10.2,4.2,10.5,4,10.8,4v1.7h0.5v-2c1.2,0.1,2.2,1.1,2.3,2.3h-2.8v0.6h2.5
		c-0.1,0.8-0.4,1.5-1.1,1.9c-0.7,0.4-1.5,0.4-2.2,0.2c0,0.4,0,1.1,0,1.5h4.5v0.6H9.9v1.1h4.5v0.6H9.9V14h5.6V2.4H9.9z"/>
</g>
</svg>
