<?xml version="1.0" encoding="utf-8"?>
<!-- Generator: Adobe Illustrator 23.0.0, SVG Export Plug-In . SVG Version: 6.00 Build 0)  -->
<svg version="1.1" id="Layer_1" xmlns="http://www.w3.org/2000/svg" xmlns:xlink="http://www.w3.org/1999/xlink" x="0px" y="0px"
	 viewBox="0 0 16 16" style="enable-background:new 0 0 16 16;" xml:space="preserve">
<style type="text/css">
	.st0{clip-path:url(#SVGID_2_);fill:#F75049;}
</style>
<g>
	<defs>
		<path id="SVGID_1_" d="M21.6,5c-0.1-0.1-0.3,0-0.6-0.2c-0.2-0.2-0.2-0.3-0.3-0.4c-0.4-0.2-1.3,0.5-1.3,0.5c0,0,0.4-0.3,0.7-0.7
			c0.2-0.2,0.6-0.7,0.5-1C20.6,3,20.4,3,20.3,2.8c0-0.3,0.5-0.4,0.4-0.7c0-0.2-0.2-0.3-0.3-0.3C20.1,1.6,19.7,2,19.7,2
			c0,0,0.3-0.2,0.4-0.5c0-0.1,0.2-0.3,0.1-0.5c-0.1-0.1-0.3-0.1-0.4-0.1c-0.1,0-0.2,0.1-0.2,0c0,0,0-0.1,0-0.2
			c0-0.2-0.3-0.3-0.6-0.3c-0.5,0-0.9,0.5-1,0.4c-0.1-0.1,0.5-0.5,0.4-0.9c0-0.1-0.2-0.3-0.4-0.3c-0.3,0-0.4,0.3-0.5,0.3
			c-0.1-0.1,0.1-0.7-0.1-0.9c-0.1-0.1-0.3,0.1-0.6,0C16.6-0.9,16.6-1,16.5-1c-0.3-0.1-0.8,0.4-1.3,0.9c-0.2,0.2-0.6,0.5-1.1,0.8
			c0.3-0.3,0.5-0.6,0.7-0.7c0.4-0.4,0.6-0.6,0.6-0.9c0-0.1,0-0.4-0.2-0.4c-0.2-0.1-0.4,0.2-1.1,0.6c-0.2,0.1-0.3,0.2-0.4,0.3
			c0,0,0.3-0.4,0.2-0.7c0,0-0.1-0.2-0.2-0.3c-0.4-0.3-1.1-0.2-1.2-0.2c-0.9,0.2-1.1,0.8-2.1,1.3c0,0-0.1,0.1-0.3,0.2
			C9.7,0.1,9.5,0.2,9.4,0.3C9.1,0.5,8.9,0.6,8.8,0.9C8.7,1.1,8.8,1.3,8.6,1.4C8.5,1.6,8.3,1.6,8.2,1.6C7.6,1.8,6.9,2.8,6.8,3
			C6.4,3.5,5.1,4.9,1.6,8c4.7-5,6.2-6.6,6.2-6.7c0,0,0,0,0,0c0-0.1,0.2-0.4,0-0.6c-0.1-0.1-0.2,0-0.3-0.1c0,0,0-0.1,0-0.1
			C7.6,0.2,8,0.2,8,0.1c0,0-0.1-0.1-0.2-0.1C7.5-0.1,7.5-0.2,7.3-0.2C7.1-0.3,6.9-0.2,6.7-0.1C6.5,0.1,6.4,0.2,6.3,0.1
			c0,0,0-0.2,0-0.3C6.2-0.2,6-0.2,6-0.2C5.6-0.2,5.5,0.1,5.4,0c-0.1,0,0-0.2-0.1-0.3C5.2-0.4,5.1-0.4,4.9-0.5C4.7-0.6,4.8-0.8,4.6-1
			C4.5-1.1,4.4-1.3,4.2-1.4C4-1.4,3.9-1.3,3.7-1.4C3.4-1.5,3.4-1.7,3.2-1.7c-0.2,0-0.3,0-0.4,0.1C2.5-1.5,2.5-1.3,2.3-1.3
			c-0.2,0-0.2-0.2-0.5-0.2c-0.1,0-0.2,0-0.3,0C1.4-1.4,1.5-1.1,1.4-1C1.4-1,1.2-1,1.2-1C1.1-1.1,1.1-1.2,1-1.2
			C0.8-1.4-0.1-1.2-0.4-0.6c0,0.1-0.1,0.2-0.2,0.3c-0.2,0.1-0.3,0-0.5,0c-0.3,0-0.5,0.2-1.1,1c0,0-0.1,0.1-0.6,0.6
			c-0.9,1-1,1.1-1.1,1.4c0,0.5,0,0.7,0,0.7c0,0.1,0.1,0.3,0,0.4c-0.1,0.1-0.1,0-0.2,0.1C-4,4-3.8,4.2-3.8,4.6c0,0,0,0,0,0.3
			C-4,5.5-4,5.6-3.9,5.6c0.1,0.1,0.2,0.1,0.3,0.1c0.2,0,0.3-0.1,0.4-0.1c0.4-0.5,0.8-0.9,1.1-1.4C-2.3,4.5-2.5,4.8-2.6,5
			c-0.2,0.2-0.3,0.4-0.5,0.7c0,0.1-0.1,0.2-0.2,0.4c-0.1,0.2-0.2,0.5-0.1,0.8c0,0.1,0.1,0.2,0.1,0.3c0,0.2,0,0.3,0,0.4
			c0,0.1,0.1,0.1,0.2,0.1c0.1,0.1,0,0.3,0,0.6c0,0.2,0.1,0.1,0.1,0.3c0.1,0.3-0.1,0.4,0,0.7c0,0.1,0,0.2,0.1,0.3
			c0.1,0.1,0.4-0.1,0.6,0C-2,9.6-2.1,9.8-1.9,9.9c0.1,0,0.2-0.1,0.4,0c0,0,0.3,0,0.3,0.1c0,0.1-0.1,0.3-0.3,0.4
			c-0.4,0.2-0.8-0.1-0.9,0c0,0.1,0.1,0.2,0.2,0.3c1,0.9,1,1,1.3,1.2c0.3,0.2,0.3,0.1,0.7,0.3c0.5,0.3,1.1,0.6,1.1,1
			c0,0.2-0.2,0.3-0.1,0.6c0,0.2,0.1,0.5,0.3,0.6c0.2,0.1,0.3-0.1,0.6-0.1c0.3,0,0.3,0.2,0.6,0.3c0.4,0,0.5-0.4,0.8-0.4
			c0.2,0,0.2,0.2,0.4,0.3c0.2,0.1,0.4,0,0.5,0c1-1.1,2.6-2.7,4.6-4.8c1.6-1.7,2.1-2.2,3-3.1c2.6-2.5,5.4-4.5,5.5-4.3
			c0.1,0.1-1.2,1.3-5.5,5.4c-3,2.8-5.4,5.2-7.1,6.8c0,0.3,0.1,0.5,0.2,0.5c0.2,0.1,0.5-0.2,0.8,0c0.1,0.1,0.3,0.2,0.3,0.4
			c0,0.2,0,0.3,0.1,0.4c0.1,0.1,0.1,0,0.2,0.1c0.2,0.2,0.1,0.3,0.3,0.5c0.2,0.1,0.4,0,0.4,0.2c0,0.1,0,0.1,0,0.3
			C6.9,16.9,7,16.9,7,17c0,0.2-0.3,0.3-0.3,0.6c0,0.2,0.1,0.2,0.1,0.5c0,0.5-0.6,0.6-0.5,0.9c0,0.2,0.2,0.4,0.4,0.5
			c0.3,0,0.5-0.4,0.8-0.4c0.4,0,0.6,0.6,0.9,0.5c0.3,0,0.3-0.4,0.6-0.4c0.2,0,0.3,0.1,0.4,0c0.1-0.1,0.1-0.2,0.3-0.3
			c0.1,0,0.1,0,0.2,0c0.2,0,0.6-0.4,0.7-0.8c0.1-0.4,0-0.5,0.2-0.8c0.1-0.2,0.3-0.3,0.4-0.4c0.5-0.4,1.2-1,1.8-1.6
			c0.8-0.8,0.9-1.1,1.5-1.4c0.1,0,0.3-0.1,0.5-0.3c0.3-0.3,0.4-0.6,0.6-0.8c0.4-0.8,0.8-0.8,1.7-2c0-0.1,0.2-0.3,0.2-0.4
			c-0.1-0.1-1.2,1.1-1.4,1c-0.1-0.1-0.1-0.2-0.1-0.2c0.1-0.6,0.8-0.8,1.9-1.7c0.3-0.2,0.2-0.2,0.5-0.5c0.8-0.7,1.7-1.3,2-1.7
			c0.1-0.3,0.2-0.6,0.2-0.6c0-0.1,0-0.1,0.1-0.2c0.1-0.3,0.2-0.4,0.7-0.9C21.6,5.2,21.6,5.1,21.6,5z M4.6,4.3C4.3,4.6,4,4.9,3.7,5.1
			c0.2-0.3,0.4-0.6,0.8-0.9C4.6,4.1,4.8,4,4.9,3.9C4.8,4,4.7,4.1,4.6,4.3z M4.4,3c0.5-0.5,1-1,1.4-1.4C5.5,2.1,5,2.6,4.5,3.1
			C4.2,3.4,3.9,3.7,3.6,4C3.9,3.7,4.1,3.4,4.4,3z M-1.1,3c0.1-0.2,0.2-0.4,0.4-0.6c0.1-0.1,0.2-0.2,0.2-0.2c0,0.1-0.1,0.2-0.2,0.3
			C-0.8,2.7-1,2.9-1.1,3z M-0.3,11.1c-0.1,0.1-0.2,0.2-0.3,0.2c0,0,0-0.2,0.1-0.3c0.1-0.1,0.3-0.2,0.3-0.2
			C-0.2,10.9-0.2,11-0.3,11.1z M-0.6,6.5c0.3-0.4,0.7-0.8,1-1.2c0,0.1,0,0.2,0,0.3C0,5.9-0.3,6.2-0.6,6.5z M1.1,12.5
			c0,0-0.2-0.2-0.5-0.6c-0.1-0.1-0.2-0.2-0.2-0.3c0-0.1,0.1-0.1,0.2-0.2c0.1-0.1,0.3-0.2,0.4-0.5c0,0.2-0.1,0.3-0.1,0.4
			c0,0.1-0.1,0.2-0.1,0.3c0,0.1,0.1,0,0.1,0.1c0.1,0.1,0,0.2,0,0.3C1,12.3,1.1,12.5,1.1,12.5z M1,1.2C1.1,1,1.2,0.8,1.4,0.6
			c0.1-0.1,0.2-0.2,0.2-0.2c0,0.1-0.1,0.2-0.2,0.3C1.3,0.9,1.2,1.1,1,1.2z M3.8,7.8c1-1.3,2.3-2.8,3.8-4.2c1.1-1.1,2.2-2,3.2-2.8
			c-0.7,0.7-1.5,1.4-2.2,2.2C6.9,4.6,5.3,6.2,3.8,7.8z M8.7,3.6c0.8-0.8,1.6-1.5,2.4-2c-0.4,0.5-0.9,1-1.4,1.6
			C8.6,4.4,7.5,5.5,6.3,6.5C6.9,5.6,7.7,4.6,8.7,3.6z M10.6,5.4c1.1-0.9,2.2-1.8,3.2-2.6c-0.7,0.7-1.4,1.4-2.2,2.1
			C10,6.3,8.4,7.6,7,8.7C8,7.7,9.3,6.5,10.6,5.4z M12.3,5.5c-1.6,1.4-3.1,2.7-4.6,3.8C8.8,8.3,10,7.1,11.3,6
			c1.1-0.9,2.2-1.8,3.2-2.6C13.8,4.1,13.1,4.8,12.3,5.5z M18,4c-0.7,0.7-1.4,1.4-2.2,2.1c-1.6,1.4-3.1,2.7-4.6,3.8
			c1.1-1.1,2.3-2.2,3.6-3.4C15.9,5.6,17,4.8,18,4z M8.5,11.7c1.4-1.7,3.1-3.5,5.1-5.3c0.9-0.8,1.8-1.5,2.6-2.2c-1,1-1.9,1.9-2.9,2.9
			C11.8,8.7,10.2,10.2,8.5,11.7z M8.9,13.4c1.6-1.5,3.2-3.1,5-4.7c1.4-1.3,2.8-2.4,4.2-3.5c-1.1,1.1-2.3,2.1-3.4,3.2
			C12.8,10.1,10.8,11.8,8.9,13.4z M9.2,14.4c1.1-1.3,2.5-2.7,4.1-4.1c1.4-1.2,2.7-2.2,4-3c-1.1,1-2.2,1.9-3.3,2.9
			C12.4,11.6,10.8,13,9.2,14.4z M17.2,8.7c-1.2,1.1-2.4,2.1-3.6,3c0.2-0.2,0.4-0.4,0.6-0.6c0.8-0.7,1.5-1.4,2.2-2.1
			c-0.1,0.1-0.2,0.1-0.3,0.2c-0.1,0-0.1,0.1-0.2,0.2c-1.3,1.1-2.4,2.2-3.5,3.3c-0.9,0.8-1.8,1.5-2.7,2.1c1.1-1.1,2.3-2.2,3.6-3.4
			c1-0.9,2-1.7,2.9-2.4c1-0.9,2.1-1.7,3-2.5C18.8,7.2,18,7.9,17.2,8.7z"/>
	</defs>
	<clipPath id="SVGID_2_">
		<use xlink:href="#SVGID_1_"  style="overflow:visible;"/>
	</clipPath>
	<path class="st0" d="M8.6,0.1C5.9,0.6,3.2,1.3,0.5,1.7v3.7h1.8v0c0.2,0,0.3,0,0.5,0C3,6.6,3.2,7.7,3.4,8.9c0.3-1.2,0.5-2.3,0.8-3.5
		c0.3,0,0.7,0,1,0c0.2,1.2,0.5,2.4,0.7,3.6c0.2-1.2,0.4-2.4,0.6-3.7c0.4,0,0.7,0,1.1-0.1l-1.3,5.2l-1-0.1C5.1,9.2,4.8,8,4.6,6.8
		C4.4,8,4.1,9.1,3.9,10.2c-0.3,0-0.7,0-1-0.1C2.6,8.8,2.3,7.4,2,6H0.5v8.1c2.7,0.5,5.4,1.1,8.1,1.6h0.8V0.1H8.6z"/>
	<path class="st0" d="M9.9,2.4h5.6v11.1H9.9v-1.1h4.4v-0.6H9.9v-1.1h4.4v-0.6H9.9V9h4.4V8.5H9.9V7.4h4.4V6.8H9.9V5.7h4.4V5.1H9.9V4
		h4.4V3.5H9.9V2.4z"/>
</g>
</svg>
