<?xml version="1.0" encoding="utf-8"?>
<!-- Generator: Adobe Illustrator 23.0.0, SVG Export Plug-In . SVG Version: 6.00 Build 0)  -->
<svg version="1.1" id="Layer_1" xmlns="http://www.w3.org/2000/svg" xmlns:xlink="http://www.w3.org/1999/xlink" x="0px" y="0px"
	 viewBox="0 0 16 16" style="enable-background:new 0 0 16 16;" xml:space="preserve">
<style type="text/css">
	.st0{clip-path:url(#SVGID_2_);fill-rule:evenodd;clip-rule:evenodd;fill:#F75049;}
</style>
<g>
	<defs>
		<path id="SVGID_1_" d="M22.2,5.5c-0.1-0.1-0.3,0-0.6-0.2c-0.2-0.2-0.2-0.3-0.3-0.4C20.9,4.6,20,5.3,20,5.3c0,0,0.4-0.3,0.7-0.7
			c0.2-0.2,0.6-0.7,0.5-1c-0.1-0.2-0.3-0.2-0.3-0.3c0-0.3,0.5-0.4,0.4-0.7c0-0.2-0.2-0.3-0.3-0.3c-0.3-0.1-0.8,0.2-0.8,0.2
			c0,0,0.3-0.2,0.4-0.5c0-0.1,0.2-0.3,0.1-0.5c-0.1-0.1-0.3-0.1-0.4-0.1c-0.1,0-0.2,0.1-0.2,0c0,0,0-0.1,0-0.2
			c0-0.2-0.3-0.3-0.6-0.3c-0.5,0-0.9,0.5-1,0.4c-0.1-0.1,0.5-0.5,0.4-0.9c0-0.1-0.2-0.3-0.4-0.3c-0.3,0-0.4,0.3-0.5,0.3
			c-0.1-0.1,0.1-0.7-0.1-0.9c-0.1-0.1-0.3,0.1-0.6,0c-0.2-0.1-0.2-0.1-0.3-0.2c-0.3-0.1-0.8,0.4-1.3,0.9c-0.2,0.2-0.6,0.5-1.1,0.8
			c0.3-0.3,0.5-0.6,0.7-0.7C15.7,0,16-0.2,16-0.5c0-0.1,0-0.4-0.2-0.4c-0.2-0.1-0.4,0.2-1.1,0.6c-0.2,0.1-0.3,0.2-0.4,0.3
			c0,0,0.3-0.4,0.2-0.7c0,0-0.1-0.2-0.2-0.3c-0.4-0.3-1.1-0.2-1.2-0.2C12.3-0.9,12-0.3,11,0.2c0,0-0.1,0.1-0.3,0.2
			c-0.4,0.2-0.6,0.3-0.7,0.4C9.7,0.9,9.5,1.1,9.4,1.3C9.3,1.6,9.3,1.7,9.2,1.9C9,2,8.9,2.1,8.8,2.1C8.2,2.2,7.5,3.3,7.4,3.4
			C7,4,5.7,5.3,2.2,8.5c4.7-5,6.2-6.6,6.2-6.7c0,0,0,0,0,0c0-0.1,0.2-0.4,0-0.6c-0.1-0.1-0.2,0-0.3-0.1c0,0,0-0.1,0-0.1
			c0-0.2,0.4-0.2,0.4-0.3c0,0-0.1-0.1-0.2-0.1C8.1,0.4,8.1,0.3,7.9,0.2C7.7,0.2,7.4,0.3,7.3,0.4C7.1,0.5,6.9,0.7,6.9,0.6
			c0,0,0-0.2,0-0.3C6.8,0.2,6.6,0.3,6.6,0.3C6.2,0.3,6,0.5,5.9,0.5c-0.1,0,0-0.2-0.1-0.3C5.8,0,5.7,0.1,5.5,0
			C5.3-0.2,5.4-0.3,5.2-0.6C5.1-0.7,5-0.8,4.8-0.9C4.6-1,4.5-0.9,4.3-0.9C4-1,4-1.2,3.8-1.2c-0.2,0-0.3,0-0.4,0.1
			C3.1-1,3.1-0.8,2.9-0.8C2.7-0.8,2.7-1,2.4-1.1c-0.1,0-0.2,0-0.3,0C2-0.9,2.1-0.7,2-0.6c-0.1,0.1-0.2,0.1-0.3,0
			C1.6-0.6,1.7-0.7,1.6-0.8C1.4-1,0.5-0.7,0.2-0.1c0,0.1-0.1,0.2-0.2,0.3c-0.2,0.1-0.3,0-0.5,0c-0.3,0-0.5,0.2-1.1,1
			c0,0-0.1,0.1-0.6,0.6c-0.9,1-1,1.1-1.1,1.4c0,0.5,0,0.7,0,0.7c0,0.1,0.1,0.3,0,0.4c-0.1,0.1-0.1,0-0.2,0.1c-0.1,0.1,0.1,0.4,0,0.8
			c0,0,0,0,0,0.3c-0.1,0.5-0.1,0.6,0,0.7c0.1,0.1,0.2,0.1,0.3,0.1c0.2,0,0.3-0.1,0.4-0.1C-2.4,5.6-2,5.1-1.6,4.7
			C-1.8,5-1.9,5.2-2,5.4c-0.2,0.2-0.3,0.4-0.5,0.7c0,0.1-0.1,0.2-0.2,0.4C-2.7,6.7-2.9,7-2.7,7.3c0,0.1,0.1,0.2,0.1,0.3
			c0,0.2,0,0.3,0,0.4C-2.5,8-2.5,8-2.4,8.1c0.1,0.1,0,0.3,0,0.6c0,0.2,0.1,0.1,0.1,0.3c0.1,0.3-0.1,0.4,0,0.7c0,0.1,0,0.2,0.1,0.3
			C-2,10-1.8,9.8-1.6,10c0.2,0.1,0.1,0.3,0.3,0.4c0.1,0,0.2-0.1,0.4,0c0,0,0.3,0,0.3,0.1c0,0.1-0.1,0.3-0.3,0.4
			c-0.4,0.2-0.8-0.1-0.9,0c0,0.1,0.1,0.2,0.2,0.3c1,0.9,1,1,1.3,1.2c0.3,0.2,0.3,0.1,0.7,0.3c0.5,0.3,1.1,0.6,1.1,1
			c0,0.2-0.2,0.3-0.1,0.6c0,0.2,0.1,0.5,0.3,0.6C2,15,2.1,14.8,2.4,14.8C2.7,14.8,2.7,15,3,15c0.4,0,0.5-0.4,0.8-0.4
			c0.2,0,0.2,0.2,0.4,0.3c0.2,0.1,0.4,0,0.5,0c1-1.1,2.6-2.7,4.6-4.8c1.6-1.7,2.1-2.2,3-3.1c2.6-2.5,5.4-4.5,5.5-4.3
			c0.1,0.1-1.2,1.3-5.5,5.4c-3,2.8-5.4,5.2-7.1,6.8c0,0.3,0.1,0.5,0.2,0.5c0.2,0.1,0.5-0.2,0.8,0c0.1,0.1,0.3,0.2,0.3,0.4
			c0,0.2,0,0.3,0.1,0.4c0.1,0.1,0.1,0,0.2,0.1C7,16.5,6.9,16.7,7,16.8c0.2,0.1,0.4,0,0.4,0.2c0,0.1,0,0.1,0,0.3
			c0,0.1,0.2,0.1,0.2,0.3c0,0.2-0.3,0.3-0.3,0.6c0,0.2,0.1,0.2,0.1,0.5c0,0.5-0.6,0.6-0.5,0.9c0,0.2,0.2,0.4,0.4,0.5
			c0.3,0,0.5-0.4,0.8-0.4c0.4,0,0.6,0.6,0.9,0.5c0.3,0,0.3-0.4,0.6-0.4c0.2,0,0.3,0.1,0.4,0c0.1-0.1,0.1-0.2,0.3-0.3
			c0.1,0,0.1,0,0.2,0c0.2,0,0.6-0.4,0.7-0.8c0.1-0.4,0-0.5,0.2-0.8c0.1-0.2,0.3-0.3,0.4-0.4c0.5-0.4,1.2-1,1.8-1.6
			c0.8-0.8,0.9-1.1,1.5-1.4c0.1,0,0.3-0.1,0.5-0.3c0.3-0.3,0.4-0.6,0.6-0.8c0.4-0.8,0.8-0.8,1.7-2c0-0.1,0.2-0.3,0.2-0.4
			c-0.1-0.1-1.2,1.1-1.4,1c-0.1-0.1-0.1-0.2-0.1-0.2c0.1-0.6,0.8-0.8,1.9-1.7c0.3-0.2,0.2-0.2,0.5-0.5c0.8-0.7,1.7-1.3,2-1.7
			c0.1-0.3,0.2-0.6,0.2-0.6c0-0.1,0-0.1,0.1-0.2c0.1-0.3,0.2-0.4,0.7-0.9C22.2,5.7,22.2,5.6,22.2,5.5z M5.2,4.7
			C4.9,5.1,4.6,5.4,4.3,5.6C4.4,5.3,4.7,5,5.1,4.7c0.1-0.1,0.3-0.2,0.4-0.3C5.4,4.5,5.3,4.6,5.2,4.7z M5,3.5c0.5-0.5,1-1,1.4-1.4
			c-0.3,0.5-0.8,1-1.3,1.5C4.8,3.9,4.5,4.2,4.2,4.5C4.4,4.1,4.7,3.8,5,3.5z M-0.6,3.5c0.1-0.2,0.2-0.4,0.4-0.6C0,2.8,0,2.7,0.1,2.6
			C0.1,2.7,0,2.8,0,2.9C-0.2,3.1-0.4,3.3-0.6,3.5z M0.3,11.6c-0.1,0.1-0.2,0.2-0.3,0.2c0,0,0-0.2,0.1-0.3c0.1-0.1,0.3-0.2,0.3-0.2
			C0.4,11.4,0.4,11.5,0.3,11.6z M0,7c0.3-0.4,0.7-0.8,1-1.2c0,0.1,0,0.2,0,0.3C0.6,6.4,0.3,6.7,0,7z M1.7,13c0,0-0.2-0.2-0.5-0.6
			C1.1,12.3,1,12.2,1,12.1C1,12,1.1,12,1.2,11.9c0.1-0.1,0.3-0.2,0.4-0.5c0,0.2-0.1,0.3-0.1,0.4c0,0.1-0.1,0.2-0.1,0.3
			c0,0.1,0.1,0,0.1,0.1c0.1,0.1,0,0.2,0,0.3C1.6,12.8,1.7,13,1.7,13z M1.6,1.7C1.7,1.5,1.8,1.3,2,1.1C2.1,1,2.2,0.9,2.3,0.8
			c0,0.1-0.1,0.2-0.2,0.3C1.9,1.4,1.8,1.5,1.6,1.7z M4.4,8.3c1-1.3,2.3-2.8,3.8-4.2c1.1-1.1,2.2-2,3.2-2.8C10.7,2,9.9,2.7,9.2,3.4
			C7.5,5,5.9,6.7,4.4,8.3z M9.3,4.1c0.8-0.8,1.6-1.5,2.4-2c-0.4,0.5-0.9,1-1.4,1.6C9.2,4.8,8,5.9,6.9,7C7.5,6.1,8.3,5.1,9.3,4.1z
			 M11.2,5.8c1.1-0.9,2.2-1.8,3.2-2.6c-0.7,0.7-1.4,1.4-2.2,2.1C10.6,6.8,9,8.1,7.5,9.2C8.6,8.1,9.8,7,11.2,5.8z M12.9,6
			c-1.6,1.4-3.1,2.7-4.6,3.8c1.1-1.1,2.3-2.2,3.6-3.4C13,5.5,14,4.6,15.1,3.8C14.4,4.5,13.6,5.3,12.9,6z M18.6,4.4
			c-0.7,0.7-1.4,1.4-2.2,2.1c-1.6,1.4-3.1,2.7-4.6,3.8c1.1-1.1,2.3-2.2,3.6-3.4C16.5,6.1,17.6,5.2,18.6,4.4z M9.1,12.2
			c1.4-1.7,3.1-3.5,5.1-5.3c0.9-0.8,1.8-1.5,2.6-2.2c-1,1-1.9,1.9-2.9,2.9C12.4,9.1,10.7,10.7,9.1,12.2z M9.5,13.8
			c1.6-1.5,3.2-3.1,5-4.7c1.4-1.3,2.8-2.4,4.2-3.5c-1.1,1.1-2.3,2.1-3.4,3.2C13.3,10.5,11.4,12.2,9.5,13.8z M9.8,14.8
			c1.1-1.3,2.5-2.7,4.1-4.1c1.4-1.2,2.7-2.2,4-3c-1.1,1-2.2,1.9-3.3,2.9C13,12,11.4,13.4,9.8,14.8z M17.8,9.1
			c-1.2,1.1-2.4,2.1-3.6,3c0.2-0.2,0.4-0.4,0.6-0.6c0.8-0.7,1.5-1.4,2.2-2.1c-0.1,0.1-0.2,0.1-0.3,0.2c-0.1,0-0.1,0.1-0.2,0.2
			c-1.3,1.1-2.4,2.2-3.5,3.3c-0.9,0.8-1.8,1.5-2.7,2.1c1.1-1.1,2.3-2.2,3.6-3.4c1-0.9,2-1.7,2.9-2.4c1-0.9,2.1-1.7,3-2.5
			C19.3,7.7,18.6,8.4,17.8,9.1z"/>
	</defs>
	<clipPath id="SVGID_2_">
		<use xlink:href="#SVGID_1_"  style="overflow:visible;"/>
	</clipPath>
	<path class="st0" d="M4.3,0C4,0,3.7,0.3,3.7,0.6v1.8c0,0.3,0.3,0.6,0.6,0.6s0.6-0.3,0.6-0.6V0.6C4.9,0.3,4.7,0,4.3,0z"/>
	<path class="st0" d="M11.7,0c-0.3,0-0.6,0.3-0.6,0.6v1.8c0,0.3,0.3,0.6,0.6,0.6s0.6-0.3,0.6-0.6V0.6C12.3,0.3,12,0,11.7,0z"/>
	<path class="st0" d="M4.8,12.2c0.1-0.3,0.2-0.5,0.4-0.7c0.2-0.2,0.5-0.4,0.9-0.6c0.5-0.3,0.8-0.5,1-0.8c0.2-0.3,0.3-0.6,0.3-1
		c0-0.5-0.2-0.9-0.5-1.2C6.6,7.5,6.2,7.4,5.6,7.4c-0.4,0-0.8,0.1-1.1,0.3C4.1,7.9,3.9,8.2,3.7,8.6L4.6,9c0.2-0.5,0.5-0.7,1-0.7
		c0.3,0,0.5,0.1,0.6,0.2C6.4,8.7,6.5,8.8,6.5,9c0,0.2-0.1,0.4-0.2,0.6c-0.1,0.2-0.4,0.3-0.6,0.5c-1.3,0.7-2,1.7-2,3h3.8v-0.9H4.8z"
		/>
	<path class="st0" d="M12.1,10.6c-0.2-0.3-0.4-0.4-0.7-0.6c0.5-0.3,0.7-0.6,0.7-1.2c0-0.4-0.2-0.8-0.5-1.1c-0.3-0.3-0.7-0.4-1.3-0.4
		c-0.5,0-0.9,0.1-1.3,0.4C8.8,8.1,8.7,8.4,8.7,8.9c0,0.5,0.2,0.9,0.7,1.2c-0.6,0.3-0.9,0.8-0.9,1.4c0,0.5,0.2,1,0.5,1.3
		c0.3,0.3,0.7,0.4,1.2,0.5v-0.9c-0.2,0-0.3-0.1-0.5-0.2c-0.2-0.2-0.3-0.4-0.3-0.7c0-0.3,0.1-0.5,0.3-0.7c0.1-0.1,0.3-0.2,0.5-0.2v-1
		c-0.1,0-0.2-0.1-0.3-0.2C9.7,9.3,9.6,9.1,9.6,8.9c0-0.2,0.1-0.3,0.2-0.5c0.1-0.1,0.3-0.2,0.6-0.2c0.2,0,0.4,0.1,0.6,0.2
		c0.2,0.1,0.2,0.3,0.2,0.5c0,0.2-0.1,0.4-0.2,0.5c-0.1,0.1-0.3,0.2-0.5,0.2v0.9c0.3,0,0.5,0.1,0.7,0.3c0.2,0.2,0.3,0.4,0.3,0.7
		s-0.1,0.5-0.3,0.6s-0.4,0.3-0.7,0.3v0.9c0.6,0,1-0.2,1.4-0.5c0.4-0.3,0.5-0.8,0.5-1.3C12.4,11.1,12.3,10.8,12.1,10.6z"/>
	<path class="st0" d="M4.8,12.2c0.1-0.3,0.2-0.5,0.4-0.7c0.2-0.2,0.5-0.4,0.9-0.6c0.5-0.3,0.8-0.5,1-0.8c0.2-0.3,0.3-0.6,0.3-1
		c0-0.5-0.2-0.9-0.5-1.2C6.6,7.5,6.2,7.4,5.6,7.4c-0.4,0-0.8,0.1-1.1,0.3C4.1,7.9,3.9,8.2,3.7,8.6L4.6,9c0.2-0.5,0.5-0.7,1-0.7
		c0.3,0,0.5,0.1,0.6,0.2C6.4,8.7,6.5,8.8,6.5,9c0,0.2-0.1,0.4-0.2,0.6c-0.1,0.2-0.4,0.3-0.6,0.5c-1.3,0.7-2,1.7-2,3h3.8v-0.9H4.8z"
		/>
	<path class="st0" d="M12.1,10.6c-0.2-0.3-0.4-0.4-0.7-0.6c0.5-0.3,0.7-0.6,0.7-1.2c0-0.4-0.2-0.8-0.5-1.1c-0.3-0.3-0.7-0.4-1.3-0.4
		c-0.5,0-0.9,0.1-1.3,0.4C8.8,8.1,8.7,8.4,8.7,8.9c0,0.5,0.2,0.9,0.7,1.2c-0.6,0.3-0.9,0.8-0.9,1.4c0,0.5,0.2,1,0.5,1.3
		c0.3,0.3,0.7,0.4,1.2,0.5v-0.9c-0.2,0-0.3-0.1-0.5-0.2c-0.2-0.2-0.3-0.4-0.3-0.7c0-0.3,0.1-0.5,0.3-0.7c0.1-0.1,0.3-0.2,0.5-0.2v-1
		c-0.1,0-0.2-0.1-0.3-0.2C9.7,9.3,9.6,9.1,9.6,8.9c0-0.2,0.1-0.3,0.2-0.5c0.1-0.1,0.3-0.2,0.6-0.2c0.2,0,0.4,0.1,0.6,0.2
		c0.2,0.1,0.2,0.3,0.2,0.5c0,0.2-0.1,0.4-0.2,0.5c-0.1,0.1-0.3,0.2-0.5,0.2v0.9c0.3,0,0.5,0.1,0.7,0.3c0.2,0.2,0.3,0.4,0.3,0.7
		s-0.1,0.5-0.3,0.6s-0.4,0.3-0.7,0.3v0.9c0.6,0,1-0.2,1.4-0.5c0.4-0.3,0.5-0.8,0.5-1.3C12.4,11.1,12.3,10.8,12.1,10.6z"/>
	<path class="st0" d="M12.1,10.6c-0.2-0.3-0.4-0.4-0.7-0.6c0.5-0.3,0.7-0.6,0.7-1.2c0-0.4-0.2-0.8-0.5-1.1c-0.3-0.3-0.7-0.4-1.3-0.4
		c-0.5,0-0.9,0.1-1.3,0.4C8.8,8.1,8.7,8.4,8.7,8.9c0,0.5,0.2,0.9,0.7,1.2c-0.6,0.3-0.9,0.8-0.9,1.4c0,0.5,0.2,1,0.5,1.3
		c0.3,0.3,0.7,0.4,1.2,0.5v-0.9c-0.2,0-0.3-0.1-0.5-0.2c-0.2-0.2-0.3-0.4-0.3-0.7c0-0.3,0.1-0.5,0.3-0.7c0.1-0.1,0.3-0.2,0.5-0.2v-1
		c-0.1,0-0.2-0.1-0.3-0.2C9.7,9.3,9.6,9.1,9.6,8.9c0-0.2,0.1-0.3,0.2-0.5c0.1-0.1,0.3-0.2,0.6-0.2c0.2,0,0.4,0.1,0.6,0.2
		c0.2,0.1,0.2,0.3,0.2,0.5c0,0.2-0.1,0.4-0.2,0.5c-0.1,0.1-0.3,0.2-0.5,0.2v0.9c0.3,0,0.5,0.1,0.7,0.3c0.2,0.2,0.3,0.4,0.3,0.7
		s-0.1,0.5-0.3,0.6s-0.4,0.3-0.7,0.3v0.9c0.6,0,1-0.2,1.4-0.5c0.4-0.3,0.5-0.8,0.5-1.3C12.4,11.1,12.3,10.8,12.1,10.6z"/>
	<path class="st0" d="M4.8,12.2c0.1-0.3,0.2-0.5,0.4-0.7c0.2-0.2,0.5-0.4,0.9-0.6c0.5-0.3,0.8-0.5,1-0.8c0.2-0.3,0.3-0.6,0.3-1
		c0-0.5-0.2-0.9-0.5-1.2C6.6,7.5,6.2,7.4,5.6,7.4c-0.4,0-0.8,0.1-1.1,0.3C4.1,7.9,3.9,8.2,3.7,8.6L4.6,9c0.2-0.5,0.5-0.7,1-0.7
		c0.3,0,0.5,0.1,0.6,0.2C6.4,8.7,6.5,8.8,6.5,9c0,0.2-0.1,0.4-0.2,0.6c-0.1,0.2-0.4,0.3-0.6,0.5c-1.3,0.7-2,1.7-2,3h3.8v-0.9H4.8z"
		/>
	<path class="st0" d="M14.2,1.2h-1.2v1.2c0,0.7-0.5,1.2-1.2,1.2s-1.2-0.5-1.2-1.2V1.2H5.5v1.2c0,0.7-0.5,1.2-1.2,1.2
		S3.1,3.1,3.1,2.5V1.2H1.8C0.8,1.2,0,2.1,0,3.1v11.1c0,1,0.8,1.8,1.8,1.8h8.3v-1.2H1.8c-0.3,0-0.6-0.3-0.6-0.6V5.5h13.5v8.6
		c0,0.3-0.3,0.6-0.6,0.6h-3.7V16h3.7c1,0,1.8-0.8,1.8-1.8V3.1C16,2.1,15.2,1.2,14.2,1.2z"/>
	<path class="st0" d="M12.1,10.6c-0.2-0.3-0.4-0.4-0.7-0.6c0.5-0.3,0.7-0.6,0.7-1.2c0-0.4-0.2-0.8-0.5-1.1c-0.3-0.3-0.7-0.4-1.3-0.4
		c-0.5,0-0.9,0.1-1.3,0.4C8.8,8.1,8.7,8.4,8.7,8.9c0,0.5,0.2,0.9,0.7,1.2c-0.6,0.3-0.9,0.8-0.9,1.4c0,0.5,0.2,1,0.5,1.3
		c0.3,0.3,0.7,0.4,1.2,0.5v-0.9c-0.2,0-0.3-0.1-0.5-0.2c-0.2-0.2-0.3-0.4-0.3-0.7c0-0.3,0.1-0.5,0.3-0.7c0.1-0.1,0.3-0.2,0.5-0.2v-1
		c-0.1,0-0.2-0.1-0.3-0.2C9.7,9.3,9.6,9.1,9.6,8.9c0-0.2,0.1-0.3,0.2-0.5c0.1-0.1,0.3-0.2,0.6-0.2c0.2,0,0.4,0.1,0.6,0.2
		c0.2,0.1,0.2,0.3,0.2,0.5c0,0.2-0.1,0.4-0.2,0.5c-0.1,0.1-0.3,0.2-0.5,0.2v0.9c0.3,0,0.5,0.1,0.7,0.3c0.2,0.2,0.3,0.4,0.3,0.7
		s-0.1,0.5-0.3,0.6s-0.4,0.3-0.7,0.3v0.9c0.6,0,1-0.2,1.4-0.5c0.4-0.3,0.5-0.8,0.5-1.3C12.4,11.1,12.3,10.8,12.1,10.6z"/>
	<path class="st0" d="M4.8,12.2c0.1-0.3,0.2-0.5,0.4-0.7c0.2-0.2,0.5-0.4,0.9-0.6c0.5-0.3,0.8-0.5,1-0.8c0.2-0.3,0.3-0.6,0.3-1
		c0-0.5-0.2-0.9-0.5-1.2C6.6,7.5,6.2,7.4,5.6,7.4c-0.4,0-0.8,0.1-1.1,0.3C4.1,7.9,3.9,8.2,3.7,8.6L4.6,9c0.2-0.5,0.5-0.7,1-0.7
		c0.3,0,0.5,0.1,0.6,0.2C6.4,8.7,6.5,8.8,6.5,9c0,0.2-0.1,0.4-0.2,0.6c-0.1,0.2-0.4,0.3-0.6,0.5c-1.3,0.7-2,1.7-2,3h3.8v-0.9H4.8z"
		/>
	<path class="st0" d="M4.8,12.2c0.1-0.3,0.2-0.5,0.4-0.7c0.2-0.2,0.5-0.4,0.9-0.6c0.5-0.3,0.8-0.5,1-0.8c0.2-0.3,0.3-0.6,0.3-1
		c0-0.5-0.2-0.9-0.5-1.2C6.6,7.5,6.2,7.4,5.6,7.4c-0.4,0-0.8,0.1-1.1,0.3C4.1,7.9,3.9,8.2,3.7,8.6L4.6,9c0.2-0.5,0.5-0.7,1-0.7
		c0.3,0,0.5,0.1,0.6,0.2C6.4,8.7,6.5,8.8,6.5,9c0,0.2-0.1,0.4-0.2,0.6c-0.1,0.2-0.4,0.3-0.6,0.5c-1.3,0.7-2,1.7-2,3h3.8v-0.9H4.8z"
		/>
	<path class="st0" d="M12.1,10.6c-0.2-0.3-0.4-0.4-0.7-0.6c0.5-0.3,0.7-0.6,0.7-1.2c0-0.4-0.2-0.8-0.5-1.1c-0.3-0.3-0.7-0.4-1.3-0.4
		c-0.5,0-0.9,0.1-1.3,0.4C8.8,8.1,8.7,8.4,8.7,8.9c0,0.5,0.2,0.9,0.7,1.2c-0.6,0.3-0.9,0.8-0.9,1.4c0,0.5,0.2,1,0.5,1.3
		c0.3,0.3,0.7,0.4,1.2,0.5v-0.9c-0.2,0-0.3-0.1-0.5-0.2c-0.2-0.2-0.3-0.4-0.3-0.7c0-0.3,0.1-0.5,0.3-0.7c0.1-0.1,0.3-0.2,0.5-0.2v-1
		c-0.1,0-0.2-0.1-0.3-0.2C9.7,9.3,9.6,9.1,9.6,8.9c0-0.2,0.1-0.3,0.2-0.5c0.1-0.1,0.3-0.2,0.6-0.2c0.2,0,0.4,0.1,0.6,0.2
		c0.2,0.1,0.2,0.3,0.2,0.5c0,0.2-0.1,0.4-0.2,0.5c-0.1,0.1-0.3,0.2-0.5,0.2v0.9c0.3,0,0.5,0.1,0.7,0.3c0.2,0.2,0.3,0.4,0.3,0.7
		s-0.1,0.5-0.3,0.6s-0.4,0.3-0.7,0.3v0.9c0.6,0,1-0.2,1.4-0.5c0.4-0.3,0.5-0.8,0.5-1.3C12.4,11.1,12.3,10.8,12.1,10.6z"/>
</g>
</svg>
