<?xml version="1.0" encoding="utf-8"?>
<!-- Generator: Adobe Illustrator 23.0.0, SVG Export Plug-In . SVG Version: 6.00 Build 0)  -->
<svg version="1.1" id="Layer_1" xmlns="http://www.w3.org/2000/svg" xmlns:xlink="http://www.w3.org/1999/xlink" x="0px" y="0px"
	 viewBox="0 0 16 16" style="enable-background:new 0 0 16 16;" xml:space="preserve">
<style type="text/css">
	.st0{clip-path:url(#SVGID_2_);}
	.st1{fill:#F75049;}
</style>
<g>
	<defs>
		<path id="SVGID_1_" d="M24.7,3.2c-0.1-0.2-0.4,0-0.7-0.3c-0.3-0.2-0.2-0.4-0.4-0.6C23.1,2,22,3,21.9,2.9c0,0,0.5-0.4,0.9-0.8
			c0.3-0.3,0.8-0.9,0.7-1.3c-0.1-0.2-0.4-0.2-0.4-0.4c-0.1-0.3,0.6-0.5,0.6-0.9c0-0.2-0.2-0.4-0.4-0.4c-0.4-0.2-1,0.3-1,0.3
			c0,0,0.3-0.2,0.5-0.6c0-0.1,0.2-0.4,0.1-0.6c-0.1-0.1-0.3-0.1-0.5-0.1c-0.2,0-0.2,0.1-0.3,0.1c0,0,0-0.1,0-0.2
			c0-0.2-0.4-0.4-0.7-0.4c-0.7-0.1-1.2,0.6-1.3,0.5c-0.1-0.1,0.6-0.7,0.5-1.1c-0.1-0.2-0.3-0.3-0.5-0.3c-0.3,0-0.5,0.4-0.6,0.3
			c-0.2-0.1,0.1-0.9-0.1-1.1c-0.2-0.1-0.4,0.1-0.7,0c-0.2-0.1-0.2-0.2-0.3-0.2c-0.4-0.2-1,0.5-1.7,1.2c-0.3,0.3-0.8,0.6-1.4,1
			c0.3-0.4,0.6-0.7,0.8-1c0.5-0.6,0.8-0.8,0.8-1.2c0-0.2,0-0.5-0.2-0.6c-0.2-0.1-0.5,0.2-1.3,0.8C15-4,14.8-3.9,14.7-3.9
			c0,0,0.4-0.5,0.3-0.9c0,0-0.1-0.2-0.3-0.3c-0.5-0.4-1.4-0.2-1.5-0.2c-1.1,0.3-1.4,1-2.7,1.7c0,0-0.2,0.1-0.4,0.2
			C9.5-3.1,9.3-3,9.2-2.9C8.9-2.6,8.6-2.5,8.4-2.1C8.3-1.8,8.4-1.6,8.2-1.4C8-1.2,7.8-1.2,7.7-1.1C7-1,6,0.4,5.9,0.5
			C5.4,1.2,3.8,2.9-0.7,7c6-6.3,7.9-8.4,7.9-8.5c0,0,0,0,0,0c0-0.1,0.2-0.5,0-0.7C7.2-2.4,7-2.3,6.9-2.5c0,0-0.1-0.1,0-0.2
			c0-0.3,0.5-0.3,0.5-0.4c0,0-0.1-0.1-0.2-0.1C6.8-3.3,6.8-3.5,6.6-3.5C6.3-3.6,6-3.4,5.8-3.3C5.5-3.1,5.3-3,5.3-3
			c-0.1,0,0.1-0.2,0-0.3C5.1-3.5,4.9-3.5,4.9-3.5c-0.4,0-0.7,0.4-0.8,0.3C4-3.3,4.1-3.4,4-3.6C3.9-3.8,3.7-3.7,3.5-3.8
			C3.3-4,3.4-4.2,3.1-4.5C3-4.6,2.9-4.8,2.6-4.9C2.3-5.1,2.2-4.9,1.9-5C1.6-5.1,1.6-5.3,1.3-5.4c-0.2,0-0.4,0-0.5,0.1
			C0.4-5.1,0.4-4.9,0.2-4.9C0-4.9-0.1-5.1-0.5-5.2c-0.1,0-0.3,0-0.4,0C-1-5-0.8-4.7-0.9-4.5c-0.1,0.1-0.2,0.1-0.3,0
			c-0.1-0.1-0.1-0.2-0.2-0.3C-1.7-5.1-2.9-4.7-3.3-4c-0.1,0.1-0.1,0.3-0.3,0.4c-0.2,0.1-0.4,0-0.6,0c-0.4,0-0.6,0.3-1.4,1.2
			c0,0-0.2,0.2-0.7,0.8c-1.1,1.3-1.3,1.4-1.3,1.8c0,0.7,0.1,0.9,0.1,0.9c0,0.1,0.1,0.3,0,0.5c-0.1,0.1-0.1,0-0.2,0.1
			c-0.2,0.2,0.1,0.5,0,1c0,0,0,0-0.1,0.3c-0.1,0.7-0.1,0.8-0.1,0.9C-7.7,4-7.5,4-7.4,4C-7.2,4-7,3.9-7,3.9c0.5-0.6,1-1.1,1.4-1.7
			c-0.2,0.4-0.4,0.7-0.6,0.9C-6.3,3.4-6.5,3.6-6.7,4c-0.1,0.1-0.1,0.3-0.2,0.5C-7,4.7-7.1,5.1-7,5.4c0.1,0.1,0.1,0.2,0.2,0.4
			c0,0.2-0.1,0.4,0,0.5c0.1,0.1,0.1,0.1,0.2,0.2c0.1,0.2,0,0.4,0,0.7c0,0.2,0.1,0.2,0.2,0.4c0.1,0.3-0.1,0.5,0,0.9
			c0,0.2,0,0.3,0.1,0.3c0.2,0.2,0.5-0.1,0.7,0.1C-5.3,9-5.4,9.3-5.2,9.3C-5,9.4-5,9.3-4.7,9.3c0,0,0.4,0,0.4,0.2
			c0,0.1-0.1,0.3-0.3,0.5c-0.5,0.3-1-0.1-1.1,0.1c0,0.1,0.2,0.3,0.3,0.4c1.3,1.2,1.3,1.3,1.7,1.5c0.4,0.2,0.3,0.1,0.9,0.4
			c0.7,0.4,1.4,0.8,1.4,1.3c0,0.3-0.2,0.3-0.2,0.7c0,0.3,0.1,0.7,0.4,0.8C-1,15.2-0.9,15-0.5,15c0.4,0,0.4,0.3,0.8,0.3
			c0.5,0,0.7-0.5,1-0.5c0.2,0,0.2,0.2,0.5,0.3c0.3,0.1,0.5,0,0.7,0c1.3-1.4,3.4-3.5,5.9-6.1c2.1-2.2,2.6-2.8,3.8-3.9
			c3.4-3.2,6.9-5.7,7-5.5c0.1,0.1-1.5,1.6-7,6.8c-3.8,3.6-6.9,6.6-9,8.6c0,0.4,0.1,0.6,0.2,0.6c0.3,0.2,0.6-0.2,1,0
			c0.1,0.1,0.3,0.3,0.4,0.6c0.1,0.2,0,0.4,0.1,0.5C5,16.9,5,16.9,5.1,17c0.2,0.2,0.1,0.4,0.3,0.6c0.2,0.2,0.5,0.1,0.6,0.2
			c0,0.1-0.1,0.2,0,0.3c0,0.2,0.2,0.2,0.2,0.3c0.1,0.2-0.3,0.4-0.4,0.7c-0.1,0.3,0.1,0.3,0.1,0.6c0,0.6-0.7,0.7-0.7,1.2
			c0,0.3,0.3,0.6,0.6,0.6C6.1,21.6,6.3,21,6.8,21c0.5,0,0.7,0.8,1.2,0.7c0.3-0.1,0.4-0.5,0.8-0.5c0.2,0,0.4,0.1,0.5,0
			C9.4,21.2,9.4,21,9.6,21c0.1,0,0.2,0,0.2,0c0.3,0,0.7-0.5,0.9-1c0.2-0.5,0-0.6,0.2-1c0.2-0.3,0.4-0.4,0.5-0.5
			c0.7-0.5,1.5-1.3,2.3-2c1-1,1.2-1.4,1.9-1.8c0.1-0.1,0.3-0.2,0.6-0.4c0.4-0.4,0.5-0.7,0.7-1c0.5-1,1.1-1,2.1-2.6
			c0-0.1,0.3-0.4,0.2-0.5c-0.1-0.1-1.5,1.4-1.8,1.2c-0.1-0.1-0.1-0.2-0.1-0.3c0.1-0.7,1.1-1,2.4-2.2c0.3-0.3,0.2-0.2,0.6-0.6
			c1.1-0.9,2.2-1.6,2.5-2.2c0.2-0.3,0.3-0.7,0.3-0.7c0-0.1,0-0.2,0.1-0.2c0.1-0.3,0.3-0.5,0.9-1.1C24.7,3.4,24.7,3.3,24.7,3.2z
			 M3.1,2.2C2.7,2.7,2.3,3,2,3.3C2.2,3,2.5,2.5,3,2.1c0.2-0.2,0.4-0.3,0.6-0.4C3.4,1.9,3.3,2,3.1,2.2z M2.9,0.6
			C3.5,0,4.1-0.6,4.6-1.1C4.2-0.5,3.7,0.1,3,0.8C2.6,1.2,2.2,1.5,1.8,1.9C2.2,1.5,2.5,1.1,2.9,0.6z M-4.2,0.6
			c0.1-0.2,0.3-0.5,0.6-0.8c0.1-0.1,0.2-0.2,0.3-0.3c-0.1,0.1-0.1,0.2-0.2,0.3C-3.8,0.2-4,0.4-4.2,0.6z M-3.1,11
			c-0.1,0.2-0.3,0.2-0.3,0.2c0-0.1,0-0.2,0.1-0.4c0.1-0.2,0.3-0.2,0.4-0.2C-3,10.6-3,10.8-3.1,11z M-3.5,5c0.4-0.5,0.8-1,1.2-1.5
			c0,0.1,0,0.3,0,0.4C-2.7,4.3-3.1,4.7-3.5,5z M-1.3,12.7c-0.1,0-0.2-0.3-0.7-0.8c-0.1-0.1-0.2-0.2-0.2-0.4c0-0.1,0.2-0.2,0.3-0.2
			c0.2-0.1,0.4-0.3,0.5-0.6c0,0.2-0.1,0.4-0.1,0.5c-0.1,0.1-0.2,0.2-0.1,0.3c0,0.1,0.1,0,0.2,0.1c0.1,0.1,0,0.2,0,0.3
			C-1.5,12.4-1.3,12.7-1.3,12.7z M-1.5-1.7c0.1-0.2,0.3-0.5,0.6-0.8c0.1-0.1,0.2-0.2,0.3-0.3c-0.1,0.1-0.1,0.2-0.2,0.3
			C-1-2.1-1.3-1.8-1.5-1.7z M2.1,6.7C3.4,5,5,3.2,7,1.3C8.4,0,9.7-1.2,11-2.2c-0.9,0.9-1.9,1.8-2.8,2.7C6.1,2.6,4,4.7,2.1,6.7z
			 M8.4,1.3c1-1.1,2.1-1.9,3-2.6c-0.6,0.7-1.1,1.3-1.7,2C8.2,2.3,6.7,3.7,5.3,5C6.1,3.9,7.1,2.6,8.4,1.3z M10.7,3.6
			c1.4-1.2,2.8-2.3,4.1-3.3c-0.9,0.9-1.8,1.8-2.8,2.7c-2,1.8-4,3.5-5.9,4.9C7.5,6.5,9,5.1,10.7,3.6z M12.9,3.8c-2,1.8-4,3.5-5.9,4.9
			c1.4-1.4,2.9-2.8,4.6-4.3c1.4-1.2,2.8-2.3,4.1-3.3C14.8,2,13.9,2.9,12.9,3.8z M20.2,1.8c-0.9,0.9-1.8,1.8-2.8,2.7
			c-2,1.8-4,3.5-5.9,4.9c1.4-1.4,2.9-2.8,4.6-4.3C17.5,3.9,18.8,2.8,20.2,1.8z M8.1,11.7c1.8-2.2,4-4.4,6.5-6.7c1.1-1,2.2-2,3.3-2.8
			c-1.2,1.2-2.4,2.5-3.7,3.7C12.2,7.8,10.2,9.7,8.1,11.7z M8.6,13.8c2-2,4.1-4,6.4-6c1.8-1.6,3.6-3.1,5.3-4.5
			c-1.4,1.3-2.9,2.7-4.4,4.1C13.5,9.6,11,11.7,8.6,13.8z M8.9,15c1.4-1.6,3.1-3.4,5.2-5.2c1.8-1.5,3.5-2.7,5-3.8
			c-1.4,1.2-2.8,2.4-4.1,3.6C13,11.5,11,13.3,8.9,15z M19.2,7.8c-1.5,1.4-3,2.7-4.5,3.9c0.3-0.2,0.5-0.5,0.8-0.7
			c1-0.9,1.9-1.8,2.8-2.7c-0.1,0.1-0.2,0.2-0.4,0.3c-0.1,0.1-0.2,0.1-0.2,0.2c-1.6,1.4-3.1,2.8-4.5,4.2c-1.2,1-2.3,1.9-3.4,2.7
			c1.4-1.4,2.9-2.8,4.6-4.3c1.3-1.1,2.5-2.1,3.7-3C19.4,7.1,20.7,6,22,5C21.1,5.9,20.2,6.9,19.2,7.8z"/>
	</defs>
	<clipPath id="SVGID_2_">
		<use xlink:href="#SVGID_1_"  style="overflow:visible;"/>
	</clipPath>
	<g transform="matrix(0.10245552,0,0,0.10245552,-18.223106,-19.758534)" class="st0">
		<path class="st1" d="M225.5,288.5v-35.2l30.5-17.6l30.5,17.6v35.2L256,306.1L225.5,288.5z"/>
		<path class="st1" d="M321.9,238.7L295.5,254l-0.4,33.6l26.6,15.8L321.9,238.7z"/>
		<path class="st1" d="M190.1,303.1l26.4-15.2l0.4-33.6l-26.6-15.8L190.1,303.1z"/>
		<path class="st1" d="M250.9,344.1v-30.5L222,296.5l-27,15.1L250.9,344.1z"/>
		<path class="st1" d="M316.9,311.9l-26.4-15.2l-29.3,16.5l-0.4,30.9L316.9,311.9z"/>
		<path class="st1" d="M195.1,229.9l26.4,15.2l29.3-16.5l0.4-30.9L195.1,229.9z"/>
		<path class="st1" d="M261.1,197.7v30.5l28.9,17.1l27-15.1L261.1,197.7z"/>
	</g>
</g>
</svg>
