<?xml version="1.0" encoding="utf-8"?>
<!-- Generator: Adobe Illustrator 23.0.0, SVG Export Plug-In . SVG Version: 6.00 Build 0)  -->
<svg version="1.1" id="Layer_1" xmlns="http://www.w3.org/2000/svg" xmlns:xlink="http://www.w3.org/1999/xlink" x="0px" y="0px"
	 viewBox="0 0 48 48" style="enable-background:new 0 0 48 48;" xml:space="preserve">
<style type="text/css">
	.st0{clip-path:url(#SVGID_2_);fill:#F75049;}
	.st1{clip-path:url(#SVGID_4_);fill-rule:evenodd;clip-rule:evenodd;fill:#F75049;}
</style>
<g>
	<g>
		<defs>
			<path id="SVGID_1_" d="M-18.2,35.3c0.2,0.4,1.1,0.1,1.9,0.8c0.7,0.6,0.5,1.1,1,1.4c1.3,0.8,4.2-1.7,4.3-1.6
				c0,0.1-1.2,0.9-2.4,2.2c-0.7,0.8-2.1,2.3-1.7,3.3c0.2,0.6,0.9,0.6,1,1.1c0.1,0.9-1.6,1.5-1.5,2.5c0,0.5,0.5,1,1,1.1
				c1.1,0.4,2.6-0.8,2.6-0.7c0,0.1-0.9,0.6-1.4,1.6c-0.1,0.2-0.6,1.1-0.2,1.5c0.3,0.3,0.9,0.3,1.2,0.2c0.4-0.1,0.6-0.3,0.8-0.2
				c0.1,0.1,0,0.3,0.1,0.5c0.1,0.6,1.1,0.9,1.9,1c1.7,0.2,3.1-1.5,3.3-1.3c0.2,0.2-1.6,1.8-1.2,2.9c0.2,0.5,0.7,0.9,1.2,0.9
				c0.8,0,1.3-1,1.6-0.9c0.5,0.2-0.4,2.3,0.3,2.8c0.4,0.3,1-0.3,1.9,0C-2,54.6-2,54.9-1.6,55c1,0.4,2.5-1.4,4.3-3
				c0.8-0.7,2-1.7,3.7-2.7c-0.9,1.1-1.6,1.9-2.2,2.5c-1.4,1.5-2.1,2.1-2.1,3.1c0,0.4,0.1,1.2,0.6,1.4c0.6,0.2,1.3-0.6,3.5-2.1
				c0.6-0.4,1.1-0.7,1.3-0.9c-0.1,0.1-1,1.2-0.7,2.3c0,0.1,0.2,0.5,0.7,0.9c1.4,1.1,3.7,0.6,4,0.5c2.8-0.7,3.6-2.7,7.1-4.4
				c0,0,0.5-0.3,1.1-0.6c1.3-0.7,2-1.1,2.3-1.3c1-0.3,1.6-0.7,2-1.6c0.4-0.8,0.2-1.4,0.7-2c0.4-0.5,1-0.6,1.2-0.6
				c1.9-0.5,4.4-3.9,4.7-4.4c1.3-1.7,5.6-6.2,17.2-16.7C32.1,41.9,27.4,47.2,27.2,47.6l0,0c-0.1,0.2-0.5,1.4-0.1,1.8
				c0.3,0.2,0.8,0.1,1,0.5c0,0,0.1,0.2,0.1,0.5c-0.1,0.7-1.4,0.8-1.4,1.1c0,0.1,0.2,0.2,0.6,0.3c0.9,0.4,0.9,0.6,1.4,0.8
				c0.9,0.3,1.7-0.2,2.2-0.5c0.7-0.4,1.1-0.8,1.3-0.7c0.2,0.1-0.1,0.6,0.1,0.9c0.2,0.3,0.8,0.3,1,0.3c1.1-0.1,1.7-0.9,2.1-0.7
				c0.2,0.1,0,0.5,0.3,1c0.3,0.4,0.7,0.3,1.2,0.7c0.6,0.5,0.3,0.9,1,1.8c0.1,0.2,0.5,0.8,1.2,1c0.8,0.3,1-0.1,1.7,0.2
				c0.9,0.3,0.9,0.8,1.7,0.9c0.5,0.1,0.9-0.1,1.3-0.3c1-0.5,1-1,1.6-1s0.7,0.6,1.7,0.8c0.3,0.1,0.7,0.2,0.9,0
				c0.4-0.4-0.1-1.3,0.3-1.6c0.2-0.2,0.6-0.2,0.9,0c0.3,0.2,0.3,0.5,0.4,0.7c0.7,0.7,3.8-0.2,4.7-2.1c0.2-0.3,0.3-0.8,0.7-1
				c0.5-0.3,1,0,1.5,0c0.9,0,1.5-0.8,3.6-3.2c0,0,0.4-0.5,1.8-2.1c3-3.3,3.6-3.7,3.6-4.7c0.1-1.7-0.2-2.4-0.2-2.4
				c-0.1-0.3-0.3-0.9-0.1-1.2c0.2-0.2,0.4-0.1,0.6-0.3c0.4-0.4-0.2-1.2-0.1-2.5c0,0,0,0,0.2-0.9c0.3-1.8,0.4-2.1,0.1-2.4
				c-0.2-0.2-0.5-0.2-0.8-0.2c-0.6,0-1,0.3-1.2,0.4c-1.3,1.5-2.5,3-3.8,4.5c0.5-1.1,1-1.9,1.4-2.4c0.6-0.8,1-1.3,1.6-2.4
				c0.2-0.3,0.3-0.7,0.5-1.2c0.3-0.8,0.6-1.7,0.2-2.5c-0.2-0.3-0.4-0.5-0.5-1c-0.1-0.6,0.2-0.9-0.1-1.3c-0.2-0.3-0.3-0.2-0.5-0.4
				c-0.4-0.5,0.1-1-0.1-1.9c-0.1-0.5-0.3-0.4-0.4-0.9c-0.2-0.9,0.2-1.2,0.1-2.3c-0.1-0.5-0.1-0.7-0.3-0.9c-0.5-0.4-1.2,0.2-1.9-0.2
				c-0.6-0.3-0.4-1-1-1.2c-0.4-0.1-0.6,0.2-1.3,0.1c-0.1,0-1-0.1-1.1-0.5c-0.1-0.3,0.3-0.9,0.8-1.2c1.2-0.7,2.7,0.2,2.8-0.1
				c0.1-0.2-0.4-0.7-0.7-1c-3.3-3.1-3.3-3.3-4.4-3.9c-1.1-0.6-0.9-0.3-2.2-1.1c-1.7-1-3.5-2-3.6-3.3c0-0.8,0.5-0.9,0.5-1.9
				c0-0.7-0.3-1.8-1-2.1s-1,0.4-2,0.3c-1-0.1-1.1-0.8-2-0.8c-1.2,0-1.7,1.4-2.7,1.2C42,4.8,42,4.3,41.3,4c-0.7-0.2-1.3-0.1-1.8,0.1
				c-3.5,3.5-8.8,9-15.2,15.8c-5.4,5.7-6.8,7.3-9.8,10.2C5.8,38.4-3.4,44.8-3.8,44.3c-0.3-0.3,3.9-4.2,18.1-17.7
				c9.9-9.4,18-17.1,23.4-22.4c0-1.1-0.3-1.5-0.6-1.7c-0.7-0.4-1.6,0.6-2.5,0c-0.3-0.2-0.9-0.7-1.1-1.4c-0.1-0.5,0-0.9-0.4-1.3
				c-0.2-0.2-0.4-0.1-0.6-0.4c-0.6-0.6-0.3-1.1-0.8-1.6c-0.5-0.5-1.3-0.1-1.4-0.6c-0.1-0.3,0.2-0.4,0.1-0.9s-0.5-0.5-0.6-0.8
				c-0.1-0.6,0.9-0.9,1.1-1.9c0.2-0.7-0.3-0.8-0.2-1.6c0.1-1.5,1.9-1.9,1.8-3.1c0-0.7-0.8-1.5-1.5-1.6c-1.1-0.2-1.5,1.4-2.8,1.4
				c-1.4,0-1.9-2-3.1-1.8c-0.8,0.1-1,1.2-2,1.2c-0.6,0-1-0.4-1.4-0.1c-0.4,0.2-0.4,0.7-0.8,0.9c-0.3,0.1-0.4-0.1-0.6-0.1
				c-0.8-0.1-1.9,1.3-2.3,2.6C17.6-7.4,18-7,17.4-6c-0.4,0.7-0.9,1.1-1.2,1.3c-1.8,1.3-3.9,3.3-6,5.2c-2.7,2.6-3,3.6-4.8,4.6
				c-0.3,0.1-0.9,0.4-1.6,1C2.8,7,2.4,8,2,8.8c-1.3,2.6-2.8,2.7-5.5,6.7c-0.1,0.2-0.7,1.1-0.6,1.2c0.3,0.3,3.9-3.8,4.7-3.2
				C1,14,1,14.4,1,14.6c-0.2,1.9-2.7,2.6-6.3,5.6c-0.9,0.8-0.6,0.6-1.6,1.5c-2.7,2.4-5.7,4.3-6.5,5.8c-0.5,0.9-0.8,1.9-0.8,1.9
				c-0.1,0.3-0.1,0.4-0.2,0.6c-0.3,0.9-0.8,1.2-2.2,2.8C-18.2,34.6-18.4,35-18.2,35.3z M37.8,37.8c1-1.3,2.1-2.2,3.1-2.9
				c-0.5,0.9-1.4,2.1-2.6,3.1c-0.5,0.4-1,0.8-1.4,1C37.1,38.7,37.4,38.3,37.8,37.8z M38.6,41.9c-1.6,1.8-3.2,3.3-4.6,4.6
				c1.1-1.5,2.5-3.2,4.2-4.8c1-1.1,2.1-2,3.1-2.9C40.4,39.8,39.5,40.8,38.6,41.9z M56.9,42c-0.3,0.6-0.7,1.4-1.4,2.1
				c-0.3,0.3-0.5,0.5-0.8,0.7c0.2-0.3,0.3-0.6,0.5-0.9C55.8,43.1,56.4,42.5,56.9,42z M54.2,15.1c0.3-0.4,0.7-0.6,0.9-0.6
				c0,0.1,0,0.6-0.3,1c-0.4,0.5-0.9,0.6-1,0.6C53.7,15.9,53.8,15.5,54.2,15.1z M55.2,30.4C54.1,31.7,53,33,52,34.3
				c0-0.3-0.1-0.7-0.1-1C53,32.4,54.1,31.4,55.2,30.4z M49.5,10.6c0.1-0.1,0.5,0.7,1.7,2c0.3,0.3,0.6,0.6,0.5,0.9
				c-0.1,0.3-0.4,0.4-0.7,0.6c-0.4,0.2-0.9,0.7-1.4,1.5c0-0.6,0.2-1.1,0.3-1.4c0.2-0.3,0.4-0.6,0.3-0.8c-0.1-0.2-0.3-0.1-0.4-0.3
				c-0.2-0.2,0-0.5,0-0.9C49.9,11.2,49.4,10.6,49.5,10.6z M49.8,47.9c-0.3,0.6-0.7,1.4-1.4,2.1c-0.3,0.3-0.5,0.5-0.8,0.7
				c0.1-0.3,0.3-0.6,0.5-0.9C48.7,49,49.3,48.4,49.8,47.9z M40.5,26.1c-3.5,4.4-7.6,9.2-12.6,14c-3.6,3.5-7.1,6.5-10.5,9.2
				c2.4-2.3,4.9-4.7,7.4-7.1C30.2,36.8,35.5,31.4,40.5,26.1z M24.2,40.1c-2.7,2.7-5.4,4.9-7.8,6.7c1.4-1.7,3-3.4,4.5-5.2
				c3.8-4.1,7.5-7.8,11.2-11.2C30.2,33.4,27.6,36.7,24.2,40.1z M18.2,34.2c-3.6,3.1-7.2,6-10.6,8.7c2.3-2.3,4.8-4.7,7.4-7.1
				c5.2-4.8,10.3-9,15.2-12.7C26.5,26.6,22.5,30.4,18.2,34.2z M12.6,33.7c5.2-4.8,10.3-9,15.2-12.7c-3.6,3.6-7.6,7.4-12,11.1
				c-3.6,3.1-7.2,6-10.6,8.7C7.5,38.5,10,36.1,12.6,33.7z M-6.5,38.8c2.3-2.3,4.8-4.7,7.4-7.1c5.2-4.8,10.3-9,15.2-12.7
				c-3.6,3.6-7.6,7.4-12,11.1C0.5,33.3-3,36.2-6.5,38.8z M24.9,13.2C20.1,18.8,14.5,24.7,8,30.6c-2.9,2.6-5.8,5.1-8.7,7.4
				c3.2-3.2,6.3-6.4,9.5-9.6C14.2,23.3,19.6,18.3,24.9,13.2z M23.7,7.8C18.5,12.9,13,18.1,7,23.4c-4.7,4.1-9.3,8-13.8,11.7
				c3.7-3.5,7.4-7,11.3-10.6C11,18.7,17.4,13.1,23.7,7.8z M22.8,4.5c-3.6,4.2-8.1,8.9-13.6,13.6c-4.6,3.9-9,7.1-13.1,9.8
				c3.6-3.2,7.2-6.3,10.8-9.5C12.2,13.7,17.5,9.1,22.8,4.5z M-3.8,23.3c4-3.7,7.9-7,11.8-10c-0.7,0.6-1.4,1.3-2.1,1.9
				c-2.6,2.4-5.1,4.8-7.4,7.1c0.3-0.2,0.6-0.5,1-0.8c0.2-0.2,0.4-0.3,0.6-0.5c4.2-3.7,8.1-7.3,11.6-10.8c3-2.5,6-4.9,8.8-7.1
				c-3.6,3.6-7.6,7.4-12,11.1C5.2,17,2,19.7-1.2,22.1c-3.4,3-6.8,5.7-10,8.2C-8.9,28.1-6.4,25.7-3.8,23.3z"/>
		</defs>
		<clipPath id="SVGID_2_">
			<use xlink:href="#SVGID_1_"  style="overflow:visible;"/>
		</clipPath>
		<circle class="st0" cx="24" cy="37.4" r="2"/>
	</g>
	<g>
		<defs>
			<path id="SVGID_3_" d="M-18.2,35.3c0.2,0.4,1.1,0.1,1.9,0.8c0.7,0.6,0.5,1.1,1,1.4c1.3,0.8,4.2-1.7,4.3-1.6
				c0,0.1-1.2,0.9-2.4,2.2c-0.7,0.8-2.1,2.3-1.7,3.3c0.2,0.6,0.9,0.6,1,1.1c0.1,0.9-1.6,1.5-1.5,2.5c0,0.5,0.5,1,1,1.1
				c1.1,0.4,2.6-0.8,2.6-0.7c0,0.1-0.9,0.6-1.4,1.6c-0.1,0.2-0.6,1.1-0.2,1.5c0.3,0.3,0.9,0.3,1.2,0.2c0.4-0.1,0.6-0.3,0.8-0.2
				c0.1,0.1,0,0.3,0.1,0.5c0.1,0.6,1.1,0.9,1.9,1c1.7,0.2,3.1-1.5,3.3-1.3c0.2,0.2-1.6,1.8-1.2,2.9c0.2,0.5,0.7,0.9,1.2,0.9
				c0.8,0,1.3-1,1.6-0.9c0.5,0.2-0.4,2.3,0.3,2.8c0.4,0.3,1-0.3,1.9,0C-2,54.6-2,54.9-1.6,55c1,0.4,2.5-1.4,4.3-3
				c0.8-0.7,2-1.7,3.7-2.7c-0.9,1.1-1.6,1.9-2.2,2.5c-1.4,1.5-2.1,2.1-2.1,3.1c0,0.4,0.1,1.2,0.6,1.4c0.6,0.2,1.3-0.6,3.5-2.1
				c0.6-0.4,1.1-0.7,1.3-0.9c-0.1,0.1-1,1.2-0.7,2.3c0,0.1,0.2,0.5,0.7,0.9c1.4,1.1,3.7,0.6,4,0.5c2.8-0.7,3.6-2.7,7.1-4.4
				c0,0,0.5-0.3,1.1-0.6c1.3-0.7,2-1.1,2.3-1.3c1-0.3,1.6-0.7,2-1.6c0.4-0.8,0.2-1.4,0.7-2c0.4-0.5,1-0.6,1.2-0.6
				c1.9-0.5,4.4-3.9,4.7-4.4c1.3-1.7,5.6-6.2,17.2-16.7C32.1,41.9,27.4,47.2,27.2,47.6l0,0c-0.1,0.2-0.5,1.4-0.1,1.8
				c0.3,0.2,0.8,0.1,1,0.5c0,0,0.1,0.2,0.1,0.5c-0.1,0.7-1.4,0.8-1.4,1.1c0,0.1,0.2,0.2,0.6,0.3c0.9,0.4,0.9,0.6,1.4,0.8
				c0.9,0.3,1.7-0.2,2.2-0.5c0.7-0.4,1.1-0.8,1.3-0.7c0.2,0.1-0.1,0.6,0.1,0.9c0.2,0.3,0.8,0.3,1,0.3c1.1-0.1,1.7-0.9,2.1-0.7
				c0.2,0.1,0,0.5,0.3,1c0.3,0.4,0.7,0.3,1.2,0.7c0.6,0.5,0.3,0.9,1,1.8c0.1,0.2,0.5,0.8,1.2,1c0.8,0.3,1-0.1,1.7,0.2
				c0.9,0.3,0.9,0.8,1.7,0.9c0.5,0.1,0.9-0.1,1.3-0.3c1-0.5,1-1,1.6-1s0.7,0.6,1.7,0.8c0.3,0.1,0.7,0.2,0.9,0
				c0.4-0.4-0.1-1.3,0.3-1.6c0.2-0.2,0.6-0.2,0.9,0c0.3,0.2,0.3,0.5,0.4,0.7c0.7,0.7,3.8-0.2,4.7-2.1c0.2-0.3,0.3-0.8,0.7-1
				c0.5-0.3,1,0,1.5,0c0.9,0,1.5-0.8,3.6-3.2c0,0,0.4-0.5,1.8-2.1c3-3.3,3.6-3.7,3.6-4.7c0.1-1.7-0.2-2.4-0.2-2.4
				c-0.1-0.3-0.3-0.9-0.1-1.2c0.2-0.2,0.4-0.1,0.6-0.3c0.4-0.4-0.2-1.2-0.1-2.5c0,0,0,0,0.2-0.9c0.3-1.8,0.4-2.1,0.1-2.4
				c-0.2-0.2-0.5-0.2-0.8-0.2c-0.6,0-1,0.3-1.2,0.4c-1.3,1.5-2.5,3-3.8,4.5c0.5-1.1,1-1.9,1.4-2.4c0.6-0.8,1-1.3,1.6-2.4
				c0.2-0.3,0.3-0.7,0.5-1.2c0.3-0.8,0.6-1.7,0.2-2.5c-0.2-0.3-0.4-0.5-0.5-1c-0.1-0.6,0.2-0.9-0.1-1.3c-0.2-0.3-0.3-0.2-0.5-0.4
				c-0.4-0.5,0.1-1-0.1-1.9c-0.1-0.5-0.3-0.4-0.4-0.9c-0.2-0.9,0.2-1.2,0.1-2.3c-0.1-0.5-0.1-0.7-0.3-0.9c-0.5-0.4-1.2,0.2-1.9-0.2
				c-0.6-0.3-0.4-1-1-1.2c-0.4-0.1-0.6,0.2-1.3,0.1c-0.1,0-1-0.1-1.1-0.5c-0.1-0.3,0.3-0.9,0.8-1.2c1.2-0.7,2.7,0.2,2.8-0.1
				c0.1-0.2-0.4-0.7-0.7-1c-3.3-3.1-3.3-3.3-4.4-3.9c-1.1-0.6-0.9-0.3-2.2-1.1c-1.7-1-3.5-2-3.6-3.3c0-0.8,0.5-0.9,0.5-1.9
				c0-0.7-0.3-1.8-1-2.1s-1,0.4-2,0.3c-1-0.1-1.1-0.8-2-0.8c-1.2,0-1.7,1.4-2.7,1.2C42,4.8,42,4.3,41.3,4c-0.7-0.2-1.3-0.1-1.8,0.1
				c-3.5,3.5-8.8,9-15.2,15.8c-5.4,5.7-6.8,7.3-9.8,10.2C5.8,38.4-3.4,44.8-3.8,44.3c-0.3-0.3,3.9-4.2,18.1-17.7
				c9.9-9.4,18-17.1,23.4-22.4c0-1.1-0.3-1.5-0.6-1.7c-0.7-0.4-1.6,0.6-2.5,0c-0.3-0.2-0.9-0.7-1.1-1.4c-0.1-0.5,0-0.9-0.4-1.3
				c-0.2-0.2-0.4-0.1-0.6-0.4c-0.6-0.6-0.3-1.1-0.8-1.6c-0.5-0.5-1.3-0.1-1.4-0.6c-0.1-0.3,0.2-0.4,0.1-0.9s-0.5-0.5-0.6-0.8
				c-0.1-0.6,0.9-0.9,1.1-1.9c0.2-0.7-0.3-0.8-0.2-1.6c0.1-1.5,1.9-1.9,1.8-3.1c0-0.7-0.8-1.5-1.5-1.6c-1.1-0.2-1.5,1.4-2.8,1.4
				c-1.4,0-1.9-2-3.1-1.8c-0.8,0.1-1,1.2-2,1.2c-0.6,0-1-0.4-1.4-0.1c-0.4,0.2-0.4,0.7-0.8,0.9c-0.3,0.1-0.4-0.1-0.6-0.1
				c-0.8-0.1-1.9,1.3-2.3,2.6C17.6-7.4,18-7,17.4-6c-0.4,0.7-0.9,1.1-1.2,1.3c-1.8,1.3-3.9,3.3-6,5.2c-2.7,2.6-3,3.6-4.8,4.6
				c-0.3,0.1-0.9,0.4-1.6,1C2.8,7,2.4,8,2,8.8c-1.3,2.6-2.8,2.7-5.5,6.7c-0.1,0.2-0.7,1.1-0.6,1.2c0.3,0.3,3.9-3.8,4.7-3.2
				C1,14,1,14.4,1,14.6c-0.2,1.9-2.7,2.6-6.3,5.6c-0.9,0.8-0.6,0.6-1.6,1.5c-2.7,2.4-5.7,4.3-6.5,5.8c-0.5,0.9-0.8,1.9-0.8,1.9
				c-0.1,0.3-0.1,0.4-0.2,0.6c-0.3,0.9-0.8,1.2-2.2,2.8C-18.2,34.6-18.4,35-18.2,35.3z M37.8,37.8c1-1.3,2.1-2.2,3.1-2.9
				c-0.5,0.9-1.4,2.1-2.6,3.1c-0.5,0.4-1,0.8-1.4,1C37.1,38.7,37.4,38.3,37.8,37.8z M38.6,41.9c-1.6,1.8-3.2,3.3-4.6,4.6
				c1.1-1.5,2.5-3.2,4.2-4.8c1-1.1,2.1-2,3.1-2.9C40.4,39.8,39.5,40.8,38.6,41.9z M56.9,42c-0.3,0.6-0.7,1.4-1.4,2.1
				c-0.3,0.3-0.5,0.5-0.8,0.7c0.2-0.3,0.3-0.6,0.5-0.9C55.8,43.1,56.4,42.5,56.9,42z M54.2,15.1c0.3-0.4,0.7-0.6,0.9-0.6
				c0,0.1,0,0.6-0.3,1c-0.4,0.5-0.9,0.6-1,0.6C53.7,15.9,53.8,15.5,54.2,15.1z M55.2,30.4C54.1,31.7,53,33,52,34.3
				c0-0.3-0.1-0.7-0.1-1C53,32.4,54.1,31.4,55.2,30.4z M49.5,10.6c0.1-0.1,0.5,0.7,1.7,2c0.3,0.3,0.6,0.6,0.5,0.9
				c-0.1,0.3-0.4,0.4-0.7,0.6c-0.4,0.2-0.9,0.7-1.4,1.5c0-0.6,0.2-1.1,0.3-1.4c0.2-0.3,0.4-0.6,0.3-0.8c-0.1-0.2-0.3-0.1-0.4-0.3
				c-0.2-0.2,0-0.5,0-0.9C49.9,11.2,49.4,10.6,49.5,10.6z M49.8,47.9c-0.3,0.6-0.7,1.4-1.4,2.1c-0.3,0.3-0.5,0.5-0.8,0.7
				c0.1-0.3,0.3-0.6,0.5-0.9C48.7,49,49.3,48.4,49.8,47.9z M40.5,26.1c-3.5,4.4-7.6,9.2-12.6,14c-3.6,3.5-7.1,6.5-10.5,9.2
				c2.4-2.3,4.9-4.7,7.4-7.1C30.2,36.8,35.5,31.4,40.5,26.1z M24.2,40.1c-2.7,2.7-5.4,4.9-7.8,6.7c1.4-1.7,3-3.4,4.5-5.2
				c3.8-4.1,7.5-7.8,11.2-11.2C30.2,33.4,27.6,36.7,24.2,40.1z M18.2,34.2c-3.6,3.1-7.2,6-10.6,8.7c2.3-2.3,4.8-4.7,7.4-7.1
				c5.2-4.8,10.3-9,15.2-12.7C26.5,26.6,22.5,30.4,18.2,34.2z M12.6,33.7c5.2-4.8,10.3-9,15.2-12.7c-3.6,3.6-7.6,7.4-12,11.1
				c-3.6,3.1-7.2,6-10.6,8.7C7.5,38.5,10,36.1,12.6,33.7z M-6.5,38.8c2.3-2.3,4.8-4.7,7.4-7.1c5.2-4.8,10.3-9,15.2-12.7
				c-3.6,3.6-7.6,7.4-12,11.1C0.5,33.3-3,36.2-6.5,38.8z M24.9,13.2C20.1,18.8,14.5,24.7,8,30.6c-2.9,2.6-5.8,5.1-8.7,7.4
				c3.2-3.2,6.3-6.4,9.5-9.6C14.2,23.3,19.6,18.3,24.9,13.2z M23.7,7.8C18.5,12.9,13,18.1,7,23.4c-4.7,4.1-9.3,8-13.8,11.7
				c3.7-3.5,7.4-7,11.3-10.6C11,18.7,17.4,13.1,23.7,7.8z M22.8,4.5c-3.6,4.2-8.1,8.9-13.6,13.6c-4.6,3.9-9,7.1-13.1,9.8
				c3.6-3.2,7.2-6.3,10.8-9.5C12.2,13.7,17.5,9.1,22.8,4.5z M-3.8,23.3c4-3.7,7.9-7,11.8-10c-0.7,0.6-1.4,1.3-2.1,1.9
				c-2.6,2.4-5.1,4.8-7.4,7.1c0.3-0.2,0.6-0.5,1-0.8c0.2-0.2,0.4-0.3,0.6-0.5c4.2-3.7,8.1-7.3,11.6-10.8c3-2.5,6-4.9,8.8-7.1
				c-3.6,3.6-7.6,7.4-12,11.1C5.2,17,2,19.7-1.2,22.1c-3.4,3-6.8,5.7-10,8.2C-8.9,28.1-6.4,25.7-3.8,23.3z"/>
		</defs>
		<clipPath id="SVGID_4_">
			<use xlink:href="#SVGID_3_"  style="overflow:visible;"/>
		</clipPath>
		<path class="st1" d="M26,32.4h-4v-20h4V32.4z"/>
	</g>
</g>
</svg>
