<?xml version="1.0" encoding="utf-8"?>
<!-- Generator: Adobe Illustrator 23.0.0, SVG Export Plug-In . SVG Version: 6.00 Build 0)  -->
<svg version="1.1" id="Layer_1" xmlns="http://www.w3.org/2000/svg" xmlns:xlink="http://www.w3.org/1999/xlink" x="0px" y="0px"
	 viewBox="0 0 16 16" style="enable-background:new 0 0 16 16;" xml:space="preserve">
<style type="text/css">
	.st0{clip-path:url(#SVGID_2_);}
	.st1{fill:#F75049;}
</style>
<g>
	<defs>
		<path id="SVGID_1_" d="M20.7,6.3c-0.1-0.1-0.3,0-0.6-0.2c-0.2-0.2-0.2-0.3-0.3-0.4c-0.4-0.2-1.3,0.5-1.3,0.5c0,0,0.4-0.3,0.7-0.7
			c0.2-0.2,0.6-0.7,0.5-1c-0.1-0.2-0.3-0.2-0.3-0.3c0-0.3,0.5-0.4,0.4-0.7c0-0.2-0.2-0.3-0.3-0.3c-0.3-0.1-0.8,0.2-0.8,0.2
			c0,0,0.3-0.2,0.4-0.5c0-0.1,0.2-0.3,0.1-0.5c-0.1-0.1-0.3-0.1-0.4-0.1c-0.1,0-0.2,0.1-0.2,0c0,0,0-0.1,0-0.2
			c0-0.2-0.3-0.3-0.6-0.3c-0.5,0-0.9,0.5-1,0.4c-0.1-0.1,0.5-0.5,0.4-0.9c0-0.1-0.2-0.3-0.4-0.3c-0.3,0-0.4,0.3-0.5,0.3
			c-0.1-0.1,0.1-0.7-0.1-0.9c-0.1-0.1-0.3,0.1-0.6,0c-0.2-0.1-0.2-0.1-0.3-0.2c-0.3-0.1-0.8,0.4-1.3,0.9c-0.2,0.2-0.6,0.5-1.1,0.8
			c0.3-0.3,0.5-0.6,0.6-0.7c0.4-0.4,0.6-0.6,0.6-0.9c0-0.1,0-0.4-0.2-0.4c-0.2-0.1-0.4,0.2-1,0.6c-0.2,0.1-0.3,0.2-0.4,0.3
			c0,0,0.3-0.4,0.2-0.7c0,0-0.1-0.2-0.2-0.3c-0.4-0.3-1.1-0.2-1.2-0.2C10.9-0.1,10.6,0.5,9.6,1c0,0-0.1,0.1-0.3,0.2
			C8.8,1.4,8.6,1.5,8.6,1.5C8.3,1.7,8.1,1.9,8,2.1C7.9,2.4,7.9,2.5,7.8,2.7C7.6,2.9,7.5,2.9,7.4,2.9C6.8,3.1,6.1,4.1,6,4.2
			c-0.4,0.6-1.7,1.9-5.2,5C5.6,4.3,7,2.7,7,2.6c0,0,0,0,0,0c0-0.1,0.2-0.4,0-0.6C7,1.9,6.8,2,6.8,1.9c0,0,0-0.1,0-0.1
			c0-0.2,0.4-0.2,0.4-0.3c0,0-0.1-0.1-0.2-0.1C6.7,1.2,6.7,1.1,6.5,1.1C6.3,1,6.1,1.1,5.9,1.2C5.7,1.3,5.6,1.5,5.5,1.4
			c0,0,0-0.2,0-0.3C5.4,1.1,5.2,1.1,5.2,1.1c-0.3,0-0.5,0.3-0.6,0.2c-0.1,0,0-0.2-0.1-0.3C4.4,0.9,4.3,0.9,4.1,0.8
			C3.9,0.7,4,0.5,3.8,0.3C3.7,0.2,3.6,0,3.4-0.1C3.2-0.2,3.1,0,2.9-0.1C2.6-0.2,2.6-0.4,2.4-0.4c-0.2,0-0.3,0-0.4,0.1
			C1.7-0.2,1.7,0,1.5,0C1.4,0,1.3-0.2,1-0.3c-0.1,0-0.2,0-0.3,0c-0.1,0.1,0,0.4-0.1,0.5c-0.1,0.1-0.2,0.1-0.3,0
			C0.3,0.2,0.3,0.1,0.2,0C0-0.2-0.9,0.1-1.2,0.7c0,0.1-0.1,0.2-0.2,0.3c-0.2,0.1-0.3,0-0.5,0c-0.3,0-0.5,0.2-1.1,1
			c0,0-0.1,0.1-0.5,0.6c-0.9,1-1,1.1-1,1.4c0,0.5,0,0.7,0,0.7c0,0.1,0.1,0.3,0,0.4c-0.1,0.1-0.1,0-0.2,0.1c-0.1,0.1,0.1,0.4,0,0.8
			c0,0,0,0,0,0.3c-0.1,0.5-0.1,0.6,0,0.7c0.1,0.1,0.2,0.1,0.3,0.1c0.2,0,0.3-0.1,0.4-0.1c0.4-0.4,0.8-0.9,1.1-1.3
			C-3.1,5.8-3.3,6-3.4,6.2c-0.2,0.2-0.3,0.4-0.5,0.7C-3.9,7-4,7.1-4,7.3C-4.1,7.5-4.2,7.8-4.1,8C-4,8.1-4,8.2-4,8.3
			c0,0.2,0,0.3,0,0.4c0,0.1,0.1,0.1,0.2,0.1c0.1,0.1,0,0.3,0,0.6c0,0.2,0.1,0.1,0.1,0.3c0.1,0.3-0.1,0.4,0,0.7c0,0.1,0,0.2,0.1,0.3
			c0.1,0.1,0.4-0.1,0.6,0c0.2,0.1,0.1,0.3,0.3,0.4c0.1,0,0.2-0.1,0.4,0c0,0,0.3,0,0.3,0.1c0,0.1-0.1,0.3-0.3,0.4
			c-0.4,0.2-0.8-0.1-0.9,0c0,0.1,0.1,0.2,0.2,0.3c1,0.9,1,1,1.3,1.2c0.3,0.2,0.3,0.1,0.7,0.3c0.5,0.3,1.1,0.6,1.1,1
			c0,0.2-0.2,0.3-0.1,0.6c0,0.2,0.1,0.5,0.3,0.6c0.2,0.1,0.3-0.1,0.6-0.1c0.3,0,0.3,0.2,0.6,0.3c0.4,0,0.5-0.4,0.8-0.4
			c0.2,0,0.2,0.2,0.4,0.3c0.2,0.1,0.4,0,0.5,0c1-1.1,2.6-2.7,4.6-4.8c1.6-1.7,2.1-2.2,3-3.1c2.6-2.5,5.4-4.4,5.5-4.3
			c0.1,0.1-1.2,1.3-5.5,5.3c-3,2.8-5.4,5.2-7.1,6.7c0,0.3,0.1,0.5,0.2,0.5c0.2,0.1,0.5-0.2,0.8,0c0.1,0.1,0.3,0.2,0.3,0.4
			c0,0.2,0,0.3,0.1,0.4c0.1,0.1,0.1,0,0.2,0.1c0.2,0.2,0.1,0.3,0.3,0.5c0.2,0.1,0.4,0,0.4,0.2c0,0.1,0,0.1,0,0.3
			c0,0.1,0.2,0.1,0.2,0.3c0,0.2-0.3,0.3-0.3,0.6C5.8,19,6,19.1,6,19.3c0,0.5-0.6,0.6-0.5,0.9c0,0.2,0.2,0.4,0.4,0.5
			c0.3,0,0.5-0.4,0.8-0.4c0.4,0,0.6,0.6,0.9,0.5c0.3,0,0.3-0.4,0.6-0.4c0.2,0,0.3,0.1,0.4,0c0.1-0.1,0.1-0.2,0.3-0.3
			c0.1,0,0.1,0,0.2,0c0.2,0,0.6-0.4,0.7-0.8c0.1-0.4,0-0.5,0.2-0.8c0.1-0.2,0.3-0.3,0.4-0.4c0.5-0.4,1.2-1,1.8-1.6
			c0.8-0.8,0.9-1.1,1.5-1.4c0.1,0,0.3-0.1,0.5-0.3c0.3-0.3,0.4-0.6,0.6-0.8c0.4-0.8,0.8-0.8,1.7-2c0-0.1,0.2-0.3,0.2-0.4
			c-0.1-0.1-1.2,1.1-1.4,1c-0.1-0.1-0.1-0.2-0.1-0.2c0.1-0.6,0.8-0.8,1.9-1.7c0.3-0.2,0.2-0.2,0.5-0.5c0.8-0.7,1.7-1.3,1.9-1.7
			c0.1-0.3,0.2-0.6,0.2-0.6c0-0.1,0-0.1,0.1-0.2c0.1-0.3,0.2-0.4,0.7-0.9C20.7,6.5,20.8,6.4,20.7,6.3z M3.8,5.5
			C3.5,5.9,3.2,6.2,2.9,6.4c0.2-0.3,0.4-0.6,0.8-0.9C3.8,5.3,4,5.2,4.1,5.1C4,5.3,3.9,5.4,3.8,5.5z M3.6,4.3c0.5-0.5,1-1,1.4-1.4
			c-0.3,0.5-0.8,1-1.3,1.5C3.4,4.7,3.1,5,2.8,5.3C3.1,4.9,3.3,4.6,3.6,4.3z M-1.9,4.3c0.1-0.2,0.2-0.4,0.4-0.6
			c0.1-0.1,0.2-0.2,0.2-0.2c0,0.1-0.1,0.2-0.2,0.3C-1.6,3.9-1.8,4.1-1.9,4.3z M-1.1,12.4c-0.1,0.1-0.2,0.2-0.3,0.2
			c0,0,0-0.2,0.1-0.3c0.1-0.1,0.3-0.2,0.3-0.2C-1,12.1-1,12.3-1.1,12.4z M-1.4,7.8c0.3-0.4,0.6-0.8,1-1.2c0,0.1,0,0.2,0,0.3
			C-0.7,7.2-1.1,7.5-1.4,7.8z M0.3,13.7c0,0-0.2-0.2-0.5-0.6c-0.1-0.1-0.2-0.2-0.2-0.3c0-0.1,0.1-0.1,0.2-0.2
			c0.1-0.1,0.3-0.2,0.4-0.5c0,0.2-0.1,0.3-0.1,0.4c0,0.1-0.1,0.2-0.1,0.3c0,0.1,0.1,0,0.1,0.1c0.1,0.1,0,0.2,0,0.3
			C0.2,13.5,0.4,13.7,0.3,13.7z M0.2,2.5c0.1-0.2,0.2-0.4,0.4-0.6c0.1-0.1,0.2-0.2,0.2-0.2c0,0.1-0.1,0.2-0.2,0.3
			C0.6,2.2,0.4,2.4,0.2,2.5z M3,9.1c1-1.3,2.3-2.8,3.8-4.2C7.9,3.8,9,2.9,10,2.1C9.3,2.8,8.5,3.5,7.8,4.2C6.1,5.8,4.5,7.5,3,9.1z
			 M7.9,4.8c0.8-0.8,1.6-1.5,2.3-2c-0.4,0.5-0.9,1-1.4,1.6C7.8,5.6,6.6,6.7,5.5,7.8C6.1,6.9,6.9,5.9,7.9,4.8z M9.7,6.6
			C10.8,5.7,11.9,4.8,13,4c-0.7,0.7-1.4,1.4-2.2,2.1C9.2,7.6,7.6,8.9,6.1,10C7.2,8.9,8.4,7.8,9.7,6.6z M11.4,6.8
			c-1.6,1.4-3.1,2.7-4.6,3.8C8,9.5,9.2,8.4,10.5,7.2c1.1-0.9,2.2-1.8,3.2-2.6C13,5.3,12.2,6,11.4,6.8z M17.2,5.2
			c-0.7,0.7-1.4,1.4-2.2,2.1c-1.6,1.4-3.1,2.7-4.6,3.8c1.1-1.1,2.3-2.2,3.6-3.4C15.1,6.9,16.1,6,17.2,5.2z M7.7,12.9
			c1.4-1.7,3.1-3.5,5.1-5.3c0.9-0.8,1.8-1.5,2.6-2.2c-1,1-1.9,1.9-2.9,2.9C11,9.9,9.3,11.4,7.7,12.9z M8.1,14.6
			c1.6-1.5,3.2-3.1,5-4.7c1.4-1.2,2.8-2.4,4.2-3.5c-1.1,1.1-2.2,2.1-3.4,3.2C11.9,11.3,10,13,8.1,14.6z M8.4,15.6
			c1.1-1.3,2.4-2.7,4.1-4.1c1.4-1.2,2.7-2.2,3.9-2.9c-1.1,1-2.2,1.9-3.2,2.8C11.6,12.8,10,14.2,8.4,15.6z M16.4,9.9
			c-1.2,1.1-2.4,2.1-3.5,3c0.2-0.2,0.4-0.4,0.6-0.6c0.8-0.7,1.5-1.4,2.2-2.1c-0.1,0.1-0.2,0.1-0.3,0.2c-0.1,0-0.1,0.1-0.2,0.2
			c-1.3,1.1-2.4,2.2-3.5,3.3c-0.9,0.8-1.8,1.5-2.7,2.1c1.1-1.1,2.3-2.2,3.6-3.3c1-0.9,2-1.7,2.9-2.4c1-0.9,2-1.7,3-2.5
			C17.9,8.5,17.2,9.2,16.4,9.9z"/>
	</defs>
	<clipPath id="SVGID_2_">
		<use xlink:href="#SVGID_1_"  style="overflow:visible;"/>
	</clipPath>
	<g transform="translate(-412.00004,-120)" class="st0">
		<path class="st1" d="M420,121.3l-3.5,3.7h-2.6c0,0-0.9,0.9-0.9,3c0,2.1,0.9,3,0.9,3h2.6l3.5,3.7V121.3z M419,123.8v8.3l-2.1-2.2
			h-2.5c0-0.1,0,0-0.1-0.1c-0.2-0.4-0.3-1-0.3-1.9c0-0.9,0.2-1.5,0.3-1.9c0-0.1,0-0.1,0.1-0.1h2.5L419,123.8z"/>
		<path class="st1" d="M422.5,124.9l-0.7,0.7l0.4,0.4c0.6,0.6,0.9,1.3,0.9,2.1s-0.3,1.6-0.9,2.1l-0.4,0.4l0.7,0.7l0.4-0.4
			c0.8-0.8,1.2-1.8,1.2-2.8s-0.4-2.1-1.2-2.8L422.5,124.9z"/>
		<path class="st1" d="M424.6,122.8l-0.7,0.7l0.4,0.4c1.1,1.1,1.8,2.7,1.8,4.2s-0.6,3.1-1.8,4.2l-0.4,0.4l0.7,0.7l0.4-0.4
			c1.3-1.3,2.1-3.1,2.1-4.9s-0.7-3.6-2.1-4.9L424.6,122.8z"/>
	</g>
</g>
</svg>
