<?xml version="1.0" encoding="utf-8"?>
<!-- Generator: Adobe Illustrator 23.0.0, SVG Export Plug-In . SVG Version: 6.00 Build 0)  -->
<svg version="1.1" id="Layer_1" xmlns="http://www.w3.org/2000/svg" xmlns:xlink="http://www.w3.org/1999/xlink" x="0px" y="0px"
	 viewBox="0 0 32 32" style="enable-background:new 0 0 32 32;" xml:space="preserve">
<style type="text/css">
	.st0{fill:#F75049;}
	.st1{opacity:0.2;fill:#FFFFFF;enable-background:new    ;}
	.st2{opacity:0.1;enable-background:new    ;}
	.st3{fill:#FFFFFF;}
</style>
<path class="st0" d="M27,5c0.1,0,0.3,0.1,0.4,0.1c0,0.3,0,0.6-0.1,1c-0.1,0.8-0.2,1.6-0.3,2.1h-0.1l-1.6,0.9l-0.9,0.7l0.1,0.6
	l0.8-0.5l0.3-0.8l0.3,0l0.2,0.4L26.9,9l0,0l-0.5,11.5c0,0,0,0,0,0l0-0.1L23.7,22l-0.1,0.4c0.9-0.5,1.9-1,2.8-1.6l-0.1,2.8l-2.8,1.5
	l-0.2,0.6l2.8-1.5l0.1-0.3l-0.1,2.4L26,27.5l-0.1-0.1c0,0-2.7,1.6-2.8,1.7c-0.2,0.1,0.2,0.2,0.2,0.2l2.4-1.6l0.3,0l-0.1,1.4
	c0,0-0.8,2-2.6,1.9l-0.4-0.3l-0.5,0.2l-1.4-0.1l0.4-0.3l0.3-0.3l-0.1,0h0l-0.4,0.2l-0.5,0.3l-4.1-0.2c0,0,0.4-0.3,0.6-0.4
	c0,0,0,0,0,0l5.7-4.1l0-0.3l-7.6,4.1l-0.3,0.3l-0.5,0l0.2,0.3l-0.2,0.2l-6.9-0.8l-1.1,0l0.3-7l5.8-3.2l1.6-1v1.6
	c0,0.4,0.2,0.8,0.6,0.8h2.9c0.4,0,0.6-0.3,0.6-0.8V16l0.8-0.5L18,16v-1.8l5.4-3.1l0.2-0.1l-0.5,8.9l0.6-9l0.1-0.1L24,10L23.8,10
	l0-0.2l0-0.3l-0.1,0.1v0l-3,1.9l-0.3,0.3L18,13.1v-1.5l1.6-1l0.2-0.2l-0.5-0.1L18,11.1V8h2.3l-0.7-1l-0.2-0.2L19,6.2L18.9,6l-0.7-1
	l-1.3-1.8L16,2l-0.8,1.2l-0.7,0L16,1l1.6,2.3l8.5,0.2c0,0,0.9,0,1.2,0.1c0.4,0.1-0.4,1.2-0.4,1.2L26.7,5h0l-0.5,0.7
	C26.5,5.5,26.8,5.3,27,5L27,5z"/>
<polygon class="st0" points="13.1,5 12.8,5.4 8.2,5.1 8.3,5 "/>
<polygon class="st0" points="14,14 14,15.2 13.6,15.4 6.7,19.5 6.8,18.3 "/>
<polygon class="st0" points="14,16.4 14,18.3 12,19.4 6.6,22.3 6.7,20.4 7.6,20 "/>
<polygon class="st0" points="14,8 14,9.6 7,13.3 7,12 12.6,9 11,9 11.7,8 "/>
<polygon class="st0" points="6.9,14.3 14,10.2 14,13.4 6.8,17.6 "/>
<polygon class="st0" points="23.7,9.7 23.7,10 23.7,10.1 23.5,10.2 22.9,10.5 22.9,10.5 20.3,11.9 20.7,11.6 "/>
<path class="st0" d="M27.4,5.2C27.2,5.1,27.1,5,27,5C27,5,27,5,27,4.9C27.3,4.6,27.3,4.8,27.4,5.2z"/>
<polygon class="st1" points="13.1,5 12.8,5.4 8.2,5.1 8.3,5 "/>
<path class="st1" d="M27,5c-0.2,0.3-0.5,0.5-0.8,0.7L26.7,5h0C26.8,5,26.9,5,27,5z"/>
<polygon class="st2" points="16.9,3.2 15.2,3.2 16,2 "/>
<polygon class="st2" points="16.9,14.4 18,13.6 18,13.7 "/>
<polygon class="st0" points="15.2,3.2 13.9,5 13.5,5.5 13.1,6 11.7,8 11,8 12.4,6 12.8,5.4 13.1,5 8.3,5 8.5,4.7 10.7,4.7 8.9,4.5 
	9.6,3.7 9.6,3 14.5,3.2 "/>
<polygon class="st3" points="16.9,3.2 15.2,3.2 16,2 "/>
<polygon class="st3" points="16.9,14.4 18,13.6 18,13.7 "/>
<polygon class="st0" points="23.8,9.6 23.8,9.9 23.7,10 22.9,10.5 22.9,10.5 21,11.9 18,13.7 16.9,14.4 18,13.6 20.3,11.9 
	20.7,11.6 23.7,9.7 23.7,9.7 "/>
</svg>
