<?xml version="1.0" encoding="utf-8"?>
<!-- Generator: Adobe Illustrator 23.0.0, SVG Export Plug-In . SVG Version: 6.00 Build 0)  -->
<svg version="1.1" id="Layer_1" xmlns="http://www.w3.org/2000/svg" xmlns:xlink="http://www.w3.org/1999/xlink" x="0px" y="0px"
	 viewBox="0 0 16 16" style="enable-background:new 0 0 16 16;" xml:space="preserve">
<style type="text/css">
	.st0{fill:#F1B537;}
</style>
<g>
	<polygon class="st0" points="3.5,5.9 1.4,7.8 0,6.4 	"/>
	<polygon class="st0" points="5.6,5.6 2.5,8.5 2.3,8.7 1.6,8 4,5.8 	"/>
	<path class="st0" d="M8,3.4L5.6,5.5l0.9-2l0.2-0.1L6.9,3C7.2,3,7.6,3.2,8,3.4z"/>
	<path class="st0" d="M5.9,6.6L3,9.4L2.4,8.8l1.2-1.1l4.6-4.2C8.5,3.7,8.8,3.9,9,4.2L5.9,6.6z"/>
	<path class="st0" d="M3.9,10.9L4,10.4l-0.3-0.3l5.7-5.3C9.5,5,9.5,5.2,9.5,5.4v0.1l0,0L3.9,10.9z"/>
	<path class="st0" d="M6.9,2.7C6.9,2.7,6.8,2.7,6.9,2.7l1-2.5L8,0l0.1,0.2l1.5,3.5L9.5,3.8c-0.3-0.2-0.6-0.4-1-0.6L8.7,3V2.7
		L8.3,3.1C7.8,2.9,7.4,2.8,6.9,2.7L6.9,2.7z"/>
	<path class="st0" d="M12,10.7l0.8,5.3L8,13.6L3.2,16l0.2-1.7l0.4-2.8l4.8-4.6l1-0.9c-0.2,1-0.8,1.6-1,1.8c0.1,0,0.2-0.1,0.3-0.2
		c0.2-0.1,0.3-0.3,0.4-0.4C9.5,7,9.7,6.7,9.9,6.4c0.2-0.3,0.3-0.7,0.3-1.1l0,0l0.1,0.3l2.4,0.3L13.2,6l-0.8,0.8L10.1,9l-1.9,1.7
		l-3.9,3.5l-0.1,0.3c0.1,0,0.2,0,0.4,0l-0.2-0.1l0.3-0.1c0,0,0.1,0,0.2,0.1h0.2l0.3-0.2l5.3-4.5L13,8l-5.5,4.8L6.3,14
		c0.7-0.3,1.3-0.8,1.8-1.4c0.5,0,1-0.1,1.4-0.2l2.1-2l0.5-0.3c0,0-0.3,0.7-0.4,0.7l-0.4,0.4c0,0-0.5,0.5-0.8,0.9
		C11.2,11.6,11.7,11.2,12,10.7z"/>
	<path class="st0" d="M12.6,9.2C13,9,13.4,8.8,13.8,8.6l-1.3,1.3c0-0.1,0.1-0.2,0.1-0.3C12.6,9.5,12.6,9.4,12.6,9.2z"/>
	<path class="st0" d="M16,6.4l-1,0.9c0.2-0.3,0.3-0.7,0.4-1L16,6.4z"/>
	<path class="st0" d="M4,5.8L1.6,8l0.6,0.6l0.2-0.2l3.1-2.9L4,5.8z M0,6.4l1.4,1.4l2.1-1.9L0,6.4z M0.5,9c0,0-0.1,0.1,0,0.1
		S0.7,9,0.7,9S0.5,8.9,0.5,9z M6.8,2.9L6.7,3.3L6.5,3.5l-0.9,2L8,3.4C7.6,3.2,7.2,3,6.8,2.9z M8.2,3.5L3.7,7.7L2.4,8.8L3,9.4
		l2.8-2.8L9,4.2C8.8,3.9,8.5,3.7,8.2,3.5z M9.5,5.4c0-0.2-0.1-0.4-0.2-0.6l-5.7,5.3L4,10.4l-0.1,0.5l5.5-5.4L9.5,5.4
		C9.6,5.4,9.5,5.4,9.5,5.4z"/>
	<path class="st0" d="M12,10.4v0.3c0.2-0.2,0.3-0.5,0.4-0.8L12,10.4z M13.8,8.6c0.5-0.4,1-0.8,1.3-1.3L13.8,8.6z M10.4,5.6l-0.1-0.3
		l0,0c0,0.4-0.2,0.8-0.3,1.1C9.7,6.7,9.5,7,9.3,7.2c0,0.1-0.2,0.3-0.3,0.4C8.8,7.7,8.7,7.7,8.6,7.8C8.8,7.6,9.4,7,9.5,6l-1,0.9
		l-4.8,4.6l-0.4,2.8l0,0l4.8-4.7l1.7-1.2l1.9-1.9l1-0.7L10.4,5.6z M3.9,12.8L3.9,12.8v-0.1C4,12.7,3.9,12.7,3.9,12.8z M4.1,12.6
		L4.1,12.6C4,12.5,4.1,12.5,4.1,12.6C4.2,12.5,4.2,12.5,4.1,12.6z M4.4,12.3c0,0-0.1,0-0.1-0.1C4.2,12.3,4.3,12.2,4.4,12.3L4.4,12.3
		z M4.7,12.2c0,0.1-0.3,0-0.3-0.1c0,0,0.1-0.1,0.3-0.1C4.8,12,4.7,12.1,4.7,12.2z M5.1,11.8c0,0.2-0.3,0.1-0.3-0.2
		c0,0,0.1-0.2,0.3-0.2C5.2,11.4,5.1,11.6,5.1,11.8z M5.7,11.2c0,0.2-0.3,0.1-0.3-0.2c0,0,0.1-0.2,0.3-0.2C5.8,10.9,5.7,11,5.7,11.2z
		 M6.5,10.2c0,0-0.1,0-0.1-0.1h0.1C6.5,10.1,6.5,10.2,6.5,10.2z M7.5,9.5c0,0.1-0.2,0-0.2-0.1c0,0,0.1-0.1,0.2-0.1
		C7.6,9.4,7.5,9.5,7.5,9.5z M7.8,9.1C7.8,9.2,7.7,9.1,7.8,9.1C7.7,9,7.8,9,7.8,9.1C7.9,9,7.9,9,7.8,9.1z M8.1,8.9H8
		C8,8.8,8,8.8,8.1,8.9C8.1,8.8,8.1,8.8,8.1,8.9z M8.4,8.7c0,0.1-0.3,0-0.3-0.1c0,0,0.1-0.1,0.3-0.1C8.5,8.5,8.4,8.6,8.4,8.7z
		 M8.8,8.3c0,0.2-0.3,0.1-0.3-0.2c0,0,0.1-0.3,0.3-0.2C8.9,8,8.8,8.1,8.8,8.3z M10.6,6.6c0,0.1-0.2,0-0.2-0.1
		C10.4,6.5,10.5,6.4,10.6,6.6C10.7,6.5,10.6,6.6,10.6,6.6z M11.4,6.4c0,0.1-0.3,0-0.3-0.1c0,0,0.1-0.1,0.3-0.1
		C11.5,6.3,11.4,6.3,11.4,6.4z M11,6.3c-0.3,0.2-0.2,0,0.2-0.3c0,0,0.3-0.2,0.3-0.1C11.4,6,11.2,6.1,11,6.3z M8.1,0.2
		c-0.1,0-0.1,0-0.2,0L6.8,2.7c0,0,0,0,0.1,0l0,0C7.4,2.8,7.8,2.9,8.2,3l0.5-0.4V3L8.5,3.2c0.4,0.2,0.7,0.4,0.9,0.6l0.1-0.1L8.1,0.2z
		"/>
	<path class="st0" d="M0.7,9L0.6,9.1c-0.1,0,0-0.1,0-0.1C0.5,8.9,0.7,9,0.7,9z"/>
</g>
</svg>
