<?xml version="1.0" encoding="utf-8"?>
<!-- Generator: Adobe Illustrator 23.0.0, SVG Export Plug-In . SVG Version: 6.00 Build 0)  -->
<svg version="1.1" id="Layer_1" xmlns="http://www.w3.org/2000/svg" xmlns:xlink="http://www.w3.org/1999/xlink" x="0px" y="0px"
	 viewBox="0 0 16 16" style="enable-background:new 0 0 16 16;" xml:space="preserve">
<style type="text/css">
	.st0{fill:#F75049;}
</style>
<path class="st0" d="M4.2,9.6L4.1,9.5L3.6,8.8C3.4,9,3.3,9.2,3.1,9.3L3.7,10l0.1,0.1l1.2,1.5c0.2-0.2,0.3-0.3,0.5-0.5L4.2,9.6z
	 M5.5,11.3c-0.2,0.2-0.3,0.3-0.5,0.5l0.6,0.7c0.2-0.2,0.3-0.3,0.5-0.5L5.5,11.3z M4.2,9.6L4.1,9.5L3.6,8.8C3.4,9,3.3,9.2,3.1,9.3
	L3.7,10l0.1,0.1l1.2,1.5c0.2-0.2,0.3-0.3,0.5-0.5L4.2,9.6z M5.5,11.3c-0.2,0.2-0.3,0.3-0.5,0.5l0.6,0.7c0.2-0.2,0.3-0.3,0.5-0.5
	L5.5,11.3z M4.2,9.6L4.1,9.5L3.6,8.8C3.4,9,3.3,9.2,3.1,9.3L3.7,10l0.1,0.1l1.2,1.5c0.2-0.2,0.3-0.3,0.5-0.5L4.2,9.6z M5.5,11.3
	c-0.2,0.2-0.3,0.3-0.5,0.5l0.6,0.7c0.2-0.2,0.3-0.3,0.5-0.5L5.5,11.3z M5.5,11.3c-0.2,0.2-0.3,0.3-0.5,0.5l0.6,0.7
	c0.2-0.2,0.3-0.3,0.5-0.5L5.5,11.3z M4.6,12.1c-0.2,0.2-0.4,0.3-0.5,0.5L5,13.2c0.1-0.2,0.3-0.3,0.5-0.5L4.6,12.1z M14.8,6.2l-0.4-1
	c-0.7,0.6-1.4,1.2-2,1.8h1.5v0C14.2,6.7,14.5,6.4,14.8,6.2z M6.7,12L7,12.9c0.9-0.9,1.9-1.8,2.9-2.7c0,0,0,0,0,0l0.5-1.5
	C9.2,9.8,7.9,10.9,6.7,12z M16,9.3l-0.5-1.4L15,6.5c-0.8,0.8-1.7,1.5-2.5,2.2l-3.5,4.5L9.6,11l0,0c-0.1,0.1-0.2,0.2-0.3,0.3
	c-0.8,0.7-1.5,1.3-2.3,1.9l0,0l0,0c-0.3,0.3-0.7,0.5-1,0.8l1.7,1.3v0c0,0,0,0,0,0l0,0c0,0,0,0,0,0c0,0,0,0,0,0s0,0,0,0v0
	c0,0,0,0,0,0v0h0c0,0,0,0,0,0c0,0,0,0,0,0c0,0,0,0,0,0c0,0,0,0,0,0H8c0,0,0,0,0,0s0,0,0,0c0,0,0,0,0,0c0,0,0,0,0,0h0c0,0,0,0,0,0
	c0,0,0,0,0,0h0c0,0,0,0,0,0c0,0,0,0,0,0c0,0,0,0,0,0v0l4.7-3.4l3-2.2C16,9.6,16,9.4,16,9.3z M14.9,9.5l-5,3.7l4.7-5.9l0.4,1.1
	l0.3,0.9L14.9,9.5z M13.9,3.8c-0.8,0.7-1.6,1.5-2.4,2.2C9.8,7.6,8,9.2,6.3,10.7l0.3,0.8c0.9-0.9,1.9-1.9,3.1-2.8
	c0.4-0.3,0.7-0.6,1.1-0.9L11,7h0.8c0.9-0.7,1.8-1.3,2.6-1.9L13.9,3.8z M13,1.2c-0.4,0.4-0.9,0.9-1.3,1.3l-0.5,1.7
	c0.2-0.2,0.4-0.3,0.6-0.5c0.6-0.5,1.1-1,1.7-1.4L13,1.2z M12.8,0.9c0-0.1-0.2-0.2-0.3-0.2c-0.2,0-0.3,0.1-0.3,0.2l-0.3,1
	c0.4-0.3,0.7-0.6,1.1-0.9L12.8,0.9z M13.5,2.6C13.3,2.8,13.2,2.9,13,3c-0.7,0.7-1.4,1.3-2.2,1.9l-0.4,1.3H9.3C8.5,7,7.6,7.7,6.7,8.3
	c0.7-0.7,1.4-1.4,2.1-2h-1C7,7,6.3,7.7,5.5,8.4l0.7,2c1.4-1.3,2.8-2.6,4.3-4c1.1-1,2.2-2,3.3-2.9L13.5,2.6z M4.2,9.6L4.1,9.5
	L3.6,8.8C3.4,9,3.3,9.2,3.1,9.3L3.7,10l0.1,0.1l1.2,1.5c0.2-0.2,0.3-0.3,0.5-0.5L4.2,9.6z M2.1,10.3c-0.2,0.2-0.3,0.3-0.5,0.5
	L4,12.5c0.2-0.2,0.3-0.3,0.5-0.5L2.1,10.3z M1.9,7.5C2,7.4,2.1,7.2,2.3,7.1L2.1,7h0.3C3.2,6.2,4.1,5.3,5,4.5L4.7,3.6
	c-1.2,1-2.5,2-3.7,2.9L0,9.3c0,0.1,0,0.3,0.1,0.4L1,10.3c0.2-0.2,0.3-0.3,0.5-0.5L0.8,9.3l0.7-2l1.1,1.4c0.2-0.2,0.3-0.3,0.5-0.5
	l-0.8-1C2.2,7.3,2,7.4,1.9,7.5z M3.8,0.9c0-0.1-0.2-0.2-0.3-0.2c-0.1,0-0.3,0.1-0.3,0.2L1.1,6.5l0,0c1.1-1.1,2.3-2.2,3.5-3.3
	L3.8,0.9z M6.3,6.3C5.9,6.6,5.5,7,5.2,7.3l0.3,0.8C6,7.5,6.6,6.9,7.2,6.3H6.3z M5.1,4.9C4.3,5.6,3.4,6.3,2.6,7h1.7
	c0.4-0.5,0.8-0.8,1.1-1.2L5.1,4.9z M4.2,9.6L4.1,9.5L3.6,8.8C3.4,9,3.3,9.2,3.1,9.3L3.7,10l0.1,0.1l1.2,1.5c0.2-0.2,0.3-0.3,0.5-0.5
	L4.2,9.6z M5.5,11.3c-0.2,0.2-0.3,0.3-0.5,0.5l0.6,0.7c0.2-0.2,0.3-0.3,0.5-0.5L5.5,11.3z M4.2,9.6L4.1,9.5L3.6,8.8
	C3.4,9,3.3,9.2,3.1,9.3L3.7,10l0.1,0.1l1.2,1.5c0.2-0.2,0.3-0.3,0.5-0.5L4.2,9.6z M5.5,11.3c-0.2,0.2-0.3,0.3-0.5,0.5l0.6,0.7
	c0.2-0.2,0.3-0.3,0.5-0.5L5.5,11.3z M4.2,9.6L4.1,9.5L3.6,8.8C3.4,9,3.3,9.2,3.1,9.3L3.7,10l0.1,0.1l1.2,1.5
	c0.2-0.2,0.3-0.3,0.5-0.5L4.2,9.6z M5.5,11.3c-0.2,0.2-0.3,0.3-0.5,0.5l0.6,0.7c0.2-0.2,0.3-0.3,0.5-0.5L5.5,11.3z"/>
<path class="st0" d="M1.1,6.5L1.1,6.5C1,6.6,1,6.6,0.9,6.7L1.1,6.5z"/>
<path class="st0" d="M2.3,7.2l0.8,1C2.9,8.4,2.8,8.5,2.6,8.7L1.5,7.3l-0.7,2l0.8,0.6C1.4,10,1.2,10.2,1,10.3L0.1,9.7
	C0,9.6,0,9.4,0,9.3l1-2.7c1.2-0.9,2.4-1.9,3.7-2.9L5,4.5C4.1,5.3,3.2,6.2,2.4,7H2.1L2.3,7.2C2.1,7.2,2,7.4,1.9,7.5
	C2,7.4,2.2,7.3,2.3,7.2z"/>
<path class="st0" d="M4.5,3.2C3.3,4.3,2.1,5.4,1.1,6.5l0,0l2.1-5.6c0.1-0.1,0.2-0.2,0.3-0.2c0.1,0,0.3,0.1,0.3,0.2L4.5,3.2z"/>
<path class="st0" d="M5.4,5.8C5.1,6.1,4.7,6.5,4.3,7H2.6c0.8-0.6,1.7-1.3,2.5-2L5.4,5.8z"/>
<path class="st0" d="M5.4,11.2c-0.2,0.2-0.3,0.3-0.5,0.5l-1.2-1.5L3.7,10L3.1,9.3C3.3,9.2,3.4,9,3.6,8.8l0.5,0.7l0.1,0.1L5.4,11.2z"
	/>
<path class="st0" d="M4.6,12c-0.2,0.2-0.3,0.3-0.5,0.5l-2.5-1.8c0.2-0.2,0.3-0.3,0.5-0.5L4.6,12z"/>
<path class="st0" d="M5.4,12.7C5.3,12.9,5.1,13,5,13.2l-0.9-0.6c0.2-0.2,0.4-0.3,0.5-0.5L5.4,12.7z"/>
<path class="st0" d="M6.1,12c-0.2,0.2-0.3,0.3-0.5,0.5L5,11.8c0.2-0.2,0.4-0.3,0.5-0.5L6.1,12z"/>
<path class="st0" d="M14.8,6.2l-0.4-1c-0.7,0.6-1.4,1.2-2,1.8h1.5v0C14.2,6.7,14.5,6.4,14.8,6.2z M6.7,12L7,12.9
	c0.9-0.9,1.9-1.8,2.9-2.7c0,0,0,0,0,0l0.5-1.5C9.2,9.8,7.9,10.9,6.7,12z M14.9,8.4c0.2-0.1,0.4-0.3,0.6-0.5L15,6.5
	c-0.8,0.8-1.7,1.5-2.5,2.2l-3.5,4.5L9.6,11l0,0c-0.1,0.1-0.2,0.2-0.3,0.3c-0.8,0.7-1.5,1.3-2.3,1.9c0,0,0,0,0,0
	c-0.3,0.3-0.7,0.5-1,0.8l1.7,1.3v0c0,0,0,0,0,0l0,0c0,0,0,0,0,0c0,0,0,0,0,0s0,0,0,0v0c0,0,0,0,0,0v0h0c0,0,0,0,0,0c0,0,0,0,0,0
	c0,0,0,0,0,0c0,0,0,0,0,0H8c0,0,0,0,0,0s0,0,0,0c0,0,0,0,0,0c0,0,0,0,0,0h0c0,0,0,0,0,0c0,0,0,0,0,0h0c0,0,0,0,0,0c0,0,0,0,0,0
	c0,0,0,0,0,0v0l4.7-3.4c0.5-0.6,1-0.9,1.9-2.2c0,0,0-0.1,0.1-0.1l-5,3.7l4.7-5.9L14.9,8.4z M13.9,3.8c-0.8,0.7-1.6,1.5-2.4,2.2
	C9.8,7.6,8,9.2,6.3,10.7l0.3,0.8c0.9-0.9,1.9-1.9,3.1-2.8c0.4-0.3,0.7-0.6,1.1-0.9L11,7h0.8c0.9-0.7,1.8-1.3,2.6-1.9L13.9,3.8z
	 M13,1.2c-0.4,0.4-0.9,0.9-1.3,1.3l-0.5,1.7c0.2-0.2,0.4-0.3,0.6-0.5c0.6-0.5,1.1-1,1.7-1.4L13,1.2z M12.8,0.9
	c0-0.1-0.2-0.2-0.3-0.2c-0.2,0-0.3,0.1-0.3,0.2l-0.3,1c0.4-0.3,0.7-0.6,1.1-0.9L12.8,0.9z M13.5,2.6C13.3,2.8,13.2,2.9,13,3
	c-0.7,0.7-1.4,1.3-2.2,1.9l-0.4,1.3H9.3C8.5,7,7.6,7.7,6.7,8.3c0.7-0.7,1.4-1.4,2.1-2h-1C7,7,6.3,7.7,5.5,8.4l0.7,2
	c1.4-1.3,2.8-2.6,4.3-4c1.1-1,2.2-2,3.3-2.9L13.5,2.6z M6.3,6.3C5.9,6.6,5.5,7,5.2,7.3l0.3,0.8C6,7.5,6.6,6.9,7.2,6.3H6.3z"/>
<path class="st0" d="M1.1,6.5L1.1,6.5C1,6.6,1,6.6,0.9,6.7L1.1,6.5z"/>
<path class="st0" d="M4.2,9.6C4.1,9.8,3.9,10,3.7,10.1L3.7,10C3.8,9.9,4,9.7,4.1,9.5L4.2,9.6z"/>
<path class="st0" d="M9.7,11L9.7,11c-0.1,0.1-0.2,0.2-0.3,0.3C9.5,11.2,9.6,11.1,9.7,11z"/>
</svg>
