<?xml version="1.0" encoding="utf-8"?>
<!-- Generator: Adobe Illustrator 23.0.0, SVG Export Plug-In . SVG Version: 6.00 Build 0)  -->
<svg version="1.1" id="Layer_1" xmlns="http://www.w3.org/2000/svg" xmlns:xlink="http://www.w3.org/1999/xlink" x="0px" y="0px"
	 viewBox="0 0 16 16" style="enable-background:new 0 0 16 16;" xml:space="preserve">
<style type="text/css">
	.st0{fill:#F75049;}
</style>
<g>
	<path class="st0" d="M2.8,4.5L2.5,4.8l0,0C2.4,4.9,2.3,5,2.3,5.1C2.2,5.2,2.2,5.3,2.2,5.4l0.1-0.1l1.3-1.2C3.2,4.2,3,4.3,2.8,4.5z
		 M6.2,4.1L5.9,4.4c0.1,0,0.1,0,0.2,0c0.1,0,0.2,0,0.2-0.1C6.3,4.2,6.2,4.1,6.2,4.1z M4.6,3.9L4.1,4.4c0.3-0.1,0.7-0.1,1.2,0L5.6,4
		C5.2,3.9,4.9,3.9,4.6,3.9z M2.9,7.7L2.7,7.9c0,0,0.1,0,0.2,0C2.9,7.8,3,7.8,2.9,7.7z M12.8,12.1l-0.6,0.5c0.3-0.1,0.6-0.2,0.8-0.3
		C12.9,12.3,12.8,12.2,12.8,12.1z M13.1,12C13.1,12,13.2,12,13.1,12C13.2,12,13.2,12,13.1,12C13.2,12,13.2,12,13.1,12z M11.2,12.4
		L11.2,12.4L11,12.6c0.1,0.1,0.3,0.1,0.4,0.2c0.2,0,0.4,0,0.6,0l0-0.1l0.4-0.4C12,12.3,11.6,12.4,11.2,12.4z M10.7,12.4
		c0,0,0.1,0.1,0.1,0.1l0.1-0.1C10.8,12.4,10.7,12.4,10.7,12.4z M4.4,9.4L4.1,9.7c0.1,0.1,0.2,0.1,0.2,0.2l0.3-0.3
		C4.5,9.5,4.5,9.5,4.4,9.4z M3.8,8.8c0-0.1-0.1-0.1-0.2-0.1c0,0-0.1,0-0.1,0c0,0,0,0.1,0,0.1c0,0.1,0,0.1,0,0.2
		c0.1,0.1,0.1,0.1,0.2,0.2L4,9C3.9,9,3.9,8.9,3.8,8.8z M6.5,11c-0.4-0.2-0.8-0.5-1.2-0.8C5.1,10,4.9,9.9,4.7,9.7
		C4.6,9.8,4.5,9.8,4.4,9.9c0.3,0.3,0.6,0.5,0.9,0.7c0.3,0.2,0.6,0.5,1,0.6L6.5,11C6.5,11,6.5,11,6.5,11z M8.8,12
		c-0.1,0-0.2-0.1-0.3-0.1c-0.6-0.2-1.2-0.5-1.8-0.8l-0.4,0.2c0.2,0.1,0.4,0.2,0.6,0.3c0.1,0.1,0.2,0.1,0.4,0.2
		c0.3,0.1,0.6,0.3,0.9,0.4c0.1,0,0.2,0.1,0.3,0.1c0.2,0.1,0.3,0.1,0.5,0.1l0.3-0.3C9.1,12.1,8.9,12,8.8,12z M9.8,12.3l-0.4,0.3
		c0.3,0.1,0.7,0.1,1,0.2l0.1,0C10.3,12.6,10,12.4,9.8,12.3z M2.4,6L2.1,6.3c0,0.3,0.1,0.5,0.2,0.8l0.3-0.3C2.5,6.5,2.4,6.2,2.4,6z"
		/>
	<path class="st0" d="M13.9,5.7C13.9,5.7,13.9,5.7,13.9,5.7c0-0.3-0.1-0.5-0.2-0.6c0,0,0-0.1-0.1-0.1l-0.3,0.3
		c0.1,0.2,0.2,0.4,0.2,0.7c0,0,0,0.1,0,0.1c0,0.3-0.1,0.7-0.2,1l0.5-0.5C14,6.3,14,6,13.9,5.7z M12.9,7.9c-0.1,0.2-0.3,0.5-0.5,0.7
		c-0.1,0.1-0.1,0.2,0,0.3c0.1,0.1,0.2,0,0.3,0c0.5-0.6,0.9-1.2,1-1.7L12.9,7.9z M9.6,4.1c-0.1,0-0.3,0.1-0.4,0.1L8.8,4.6L8.6,4.8
		C9,4.7,9.3,4.5,9.7,4.5c0.1,0,0.2-0.1,0.1-0.2C9.8,4.2,9.7,4.1,9.6,4.1z"/>
	<path class="st0" d="M14,10.9l-0.3,0.3c0.2,0.1,0.3,0.3,0.3,0.4c0,0.3-0.2,0.5-0.5,0.5c-0.1,0-0.3,0-0.3-0.1c0.1,0.1,0,0.2,0,0.2
		c0,0-0.1,0.1-0.2,0.1c0.1,0.1,0.3,0.2,0.5,0.2c0.5,0,0.9-0.4,0.9-0.9C14.4,11.3,14.3,11.1,14,10.9z M13,11.8L12.9,12
		c0.1,0,0.1,0,0.2,0C13.1,11.9,13.1,11.9,13,11.8z M13.5,10.7c-0.5,0-0.9,0.4-0.9,0.9c0,0.1,0,0.2,0,0.3l0.3-0.3
		c0-0.3,0.2-0.5,0.5-0.5h0l0.3-0.3C13.8,10.8,13.6,10.7,13.5,10.7z M10.6,11.7C10.6,11.7,10.5,11.7,10.6,11.7c0,0.1,0,0.2,0.1,0.3
		c0.1,0,0.2,0,0.2-0.1c0.1-0.2,0.1-0.3,0.1-0.5L10.6,11.7z M10.2,3.3L9.9,3.6c0.3,0.5,0.5,1.1,0.7,1.7c0.1-0.1,0.2-0.3,0.3-0.4
		C10.7,4.3,10.5,3.8,10.2,3.3z M11.1,5.5c-0.1,0.1-0.1,0.1-0.2,0.2c-0.1,0-0.1,0-0.2,0c0,0.1,0,0.2,0.1,0.3l0.3-0.3
		C11.1,5.6,11.1,5.6,11.1,5.5z M11.2,5.9l-0.3,0.3c0,0.2,0.1,0.5,0.1,0.7l0.3-0.3C11.3,6.4,11.2,6.2,11.2,5.9z M11.4,8V7.9
		c0-0.2,0-0.4,0-0.7L11,7.6c0,0.2,0,0.5,0,0.7v0c0,0.4,0,0.7-0.1,1.1L11.4,9c0-0.2,0-0.4,0-0.7C11.4,8.3,11.4,8.1,11.4,8z M10.9,9.9
		c0,0.3-0.1,0.5-0.1,0.8l0.5-0.4c0-0.3,0.1-0.5,0.1-0.8L10.9,9.9z M10.2,13.1c-0.1-0.1-0.2,0-0.3,0.1c-0.1,0.1-0.1,0.2-0.2,0.2
		c0.1,0,0.2-0.1,0.3-0.1c0,0,0,0.1,0,0.1h0l-0.6,0.4c0,0,0.1-0.1,0.1-0.2c-0.5,0.6-1,0.9-1.6,0.9c-0.2,0-0.4,0-0.5-0.1h0
		C6.7,14.2,6,13.3,5.6,12c0-0.1-0.1-0.2-0.2-0.1c-0.1,0-0.1,0.1-0.1,0.2c0.6,1.7,1.6,2.8,2.8,2.8c0.1,0,0.3,0,0.4-0.1
		c0.7-0.2,1.3-0.7,1.8-1.5C10.3,13.3,10.2,13.2,10.2,13.1z M9.5,2.5l-0.1,0L9.5,2.5 M9.5,3L9.4,2.8"/>
	<path class="st0" d="M7.5,2.2L7.3,2.4c0.1,0.2,0.2,0.3,0.4,0.3l0.2-0.3C7.7,2.4,7.6,2.3,7.5,2.2z M8,1.1C7.5,1.1,7.1,1.5,7.1,2v0
		l1.1-0.9C8.2,1.1,8.1,1.1,8,1.1z M8.9,1.7c0-0.2-0.2-0.4-0.4-0.5h0L8.2,1.5C8.4,1.6,8.5,1.8,8.5,2v0L8.9,1.7z M8.3,7.8
		C8.1,8.1,7.8,8.3,7.4,8.5C7.7,8.2,8,7.8,8,7.8s0,0,0.1-0.1c-0.1,0-0.2,0-0.2,0C7.7,7.8,7.6,7.9,7.5,8c0,0.1-0.1,0.1-0.1,0.2
		c0,0.1,0,0.2,0,0.3c0,0.1,0.1,0.2,0.2,0.3l1-0.8C8.5,7.9,8.4,7.8,8.3,7.8z M8.6,8.2c0,0,0-0.1,0-0.1l-1,0.7C7.7,9,7.9,9,8.1,9
		C8.5,8.9,8.7,8.6,8.6,8.2z"/>
	<path class="st0" d="M2.5,6.8L2.3,7.1"/>
	<path class="st0" d="M2.9,7.7L2.7,7.9c0,0,0.1,0,0.2,0C2.9,7.8,3,7.8,2.9,7.7z M3.5,8.8C3.5,8.9,3.5,8.9,3.5,8.8L3.5,8.8
		C3.6,8.8,3.6,8.8,3.5,8.8z M7.5,2.2L7.3,2.4c0.1,0.2,0.2,0.3,0.4,0.3l0.2-0.3C7.7,2.4,7.6,2.3,7.5,2.2z M8.9,1.7
		c0-0.2-0.2-0.4-0.4-0.5h0L8.2,1.5C8.4,1.6,8.5,1.8,8.5,2v0L8.9,1.7z M8,1.1C7.5,1.1,7.1,1.5,7.1,2v0l1.1-0.9C8.2,1.1,8.1,1.1,8,1.1
		z M9.6,4.1c-0.1,0-0.3,0.1-0.4,0.1L8.8,4.6L8.6,4.8C9,4.7,9.3,4.5,9.7,4.5c0.1,0,0.2-0.1,0.1-0.2C9.8,4.2,9.7,4.1,9.6,4.1z
		 M10.2,3.3L9.9,3.6c0.3,0.5,0.5,1.1,0.7,1.7c0.1-0.1,0.2-0.3,0.3-0.4C10.7,4.3,10.5,3.8,10.2,3.3z"/>
	<path class="st0" d="M13.4,4.7L13.2,5c-0.1-0.1-0.3-0.2-0.5-0.3c-0.4-0.2-0.9-0.3-1.5-0.3c0,0-0.1,0-0.1,0c0,0-0.1-0.1-0.1-0.2
		C11,4,11.1,4,11.2,4c0,0,0,0,0.1,0c0.7,0,1.3,0.2,1.8,0.4C13.2,4.5,13.3,4.6,13.4,4.7z"/>
	<path class="st0" d="M9.5,3c0.1,0.2,0.3,0.3,0.4,0.5l0.3-0.2C10,3,9.8,2.7,9.5,2.5l-0.1,0l0.1,0C9.3,2.2,9.1,2.1,8.9,2c0,0,0,0,0,0
		c0,0,0-0.1,0-0.1L8.8,1.9h0L8.5,2.1l0,0l-0.1,0L8.3,2.4L8.2,2.6L7.9,2.8c0.1,0,0.1,0,0.1,0c0.3,0,0.6-0.2,0.8-0.5
		C9,2.5,9.2,2.6,9.4,2.8L9.5,3z"/>
	<path class="st0" d="M6.3,5.4c0,0-0.1,0.1-0.2,0.1c0,0,0,0.1,0,0.2c0,0.1-0.2,0.1-0.2-0.1C4.6,6.5,3.5,7.5,2.8,8.6
		c0,0,0.1-0.1,0.2-0.1c0.1,0,0,0.1,0,0.2c0,0.1-0.2,0-0.2-0.1c0,0-0.1,0.1-0.1,0.1c0,0,0,0,0.1,0c0,0,0,0,0,0.1c0,0-0.1,0-0.1,0
		c0,0-0.1,0.1-0.1,0.1c0,0,0,0,0,0.1c0,0,0,0,0,0c-0.3,0.4-0.4,0.9-0.5,1.3c0,0.2-0.1,0.4,0,0.6c-0.3,0.1-0.5,0.4-0.5,0.8
		c0,0.5,0.4,0.9,0.9,0.9c0.5,0,0.9-0.4,0.9-0.9S3,10.7,2.5,10.7c0,0,0,0,0,0c0-0.3,0-0.6,0.2-0.9c0.3-1,1.3-2.1,2.5-3.1
		c0,0.1-0.2,0-0.2-0.1c0,0,0.1-0.1,0.2-0.1c0.1,0,0,0.1,0,0.1C5.5,6.3,6,6,6.5,5.8c0.4-0.2,0.8-0.4,1.1-0.6l0.7-0.7
		C7.7,4.7,7,5,6.3,5.4z M2.5,11.1c0.3,0,0.5,0.2,0.5,0.5s-0.2,0.5-0.5,0.5c-0.3,0-0.5-0.2-0.5-0.5c0-0.2,0.1-0.4,0.3-0.5
		C2.3,11.1,2.4,11.1,2.5,11.1z M3.3,8.3c0,0.1-0.2,0.1-0.2-0.2c0,0,0.1-0.2,0.2-0.1C3.4,8.1,3.3,8.2,3.3,8.3z M4.3,7.2
		C4.3,7.2,4.3,7.2,4.3,7.2C4.3,7.1,4.3,7.1,4.3,7.2C4.4,7.1,4.4,7.1,4.3,7.2z M5.4,6.3c0,0-0.1,0-0.1,0C5.3,6.3,5.3,6.3,5.4,6.3
		C5.4,6.3,5.4,6.3,5.4,6.3z M5.8,6c0,0.1-0.2,0-0.2-0.1c0,0,0.1-0.1,0.2-0.1C5.9,5.9,5.8,6,5.8,6z"/>
	<path class="st0" d="M12.8,12.1l-0.6,0.5c0.3-0.1,0.6-0.2,0.8-0.3C12.9,12.3,12.8,12.2,12.8,12.1z M13,11.8L12.9,12
		c0.1,0,0.1,0,0.2,0C13.1,11.9,13.1,11.9,13,11.8z M13.1,12C13.1,12,13.2,12,13.1,12C13.2,12,13.2,12,13.1,12
		C13.2,12,13.2,12,13.1,12z M14,10.9l-0.3,0.3c0.2,0.1,0.3,0.3,0.3,0.4c0,0.3-0.2,0.5-0.5,0.5c-0.1,0-0.3,0-0.3-0.1
		c0.1,0.1,0,0.2,0,0.2c0,0-0.1,0.1-0.2,0.1c0.1,0.1,0.3,0.2,0.5,0.2c0.5,0,0.9-0.4,0.9-0.9C14.4,11.3,14.3,11.1,14,10.9z M13.5,10.7
		c-0.5,0-0.9,0.4-0.9,0.9c0,0.1,0,0.2,0,0.3l0.3-0.3c0-0.3,0.2-0.5,0.5-0.5h0l0.3-0.3C13.8,10.8,13.6,10.7,13.5,10.7z M11.2,12.4
		L11.2,12.4L11,12.6c0.1,0.1,0.3,0.1,0.4,0.2c0.2,0,0.4,0,0.6,0l0-0.1l0.4-0.4C12,12.3,11.6,12.4,11.2,12.4z M10.6,11.7
		C10.6,11.7,10.5,11.7,10.6,11.7c0,0.1,0,0.2,0.1,0.3c0.1,0,0.2,0,0.2-0.1c0.1-0.2,0.1-0.3,0.1-0.5L10.6,11.7z M10.7,12.4
		c0,0,0.1,0.1,0.1,0.1l0.1-0.1C10.8,12.4,10.7,12.4,10.7,12.4z M12.9,7.9c-0.1,0.2-0.3,0.5-0.5,0.7c-0.1,0.1-0.1,0.2,0,0.3
		c0.1,0.1,0.2,0,0.3,0c0.5-0.6,0.9-1.2,1-1.7L12.9,7.9z M10.9,9.9c0,0.3-0.1,0.5-0.1,0.8l0.5-0.4c0-0.3,0.1-0.5,0.1-0.8L10.9,9.9z"
		/>
	<path class="st0" d="M11.1,5.5c-0.1,0.1-0.1,0.1-0.2,0.2c-0.1,0-0.1,0-0.2,0c0,0.1,0,0.2,0.1,0.3l0.3-0.3
		C11.1,5.6,11.1,5.6,11.1,5.5z M8.3,7.8C8.1,8.1,7.8,8.3,7.4,8.5C7.7,8.2,8,7.8,8,7.8s0,0,0.1-0.1c-0.1,0-0.2,0-0.2,0
		C7.7,7.8,7.6,7.9,7.5,8c0,0,0,0.1,0,0.2c0,0,0,0-0.1,0c0,0.1,0,0.2,0,0.3c0,0.1,0.1,0.2,0.2,0.3l1-0.8C8.5,7.9,8.4,7.8,8.3,7.8z
		 M8.6,8.2c0,0,0-0.1,0-0.1l-1,0.7C7.7,9,7.9,9,8.1,9C8.5,8.9,8.7,8.6,8.6,8.2z M11.2,5.9l-0.3,0.3c0,0.2,0.1,0.5,0.1,0.7l0.3-0.3
		C11.3,6.4,11.2,6.2,11.2,5.9z M11.4,8C11.4,8,11.3,8.1,11.4,8c-0.1,0-0.1-0.1-0.1-0.1c0,0,0,0,0.1,0c0-0.2,0-0.4,0-0.7L11,7.6
		c0,0.2,0,0.5,0,0.7c0,0,0,0,0,0c0,0,0.1,0,0.1,0c0,0-0.1,0-0.1,0c0,0,0,0,0,0v0c0,0.4,0,0.7-0.1,1.1L11.4,9c0-0.2,0-0.4,0-0.7
		C11.4,8.3,11.4,8.1,11.4,8z M13.9,5.7C13.9,5.7,13.9,5.7,13.9,5.7C13.8,5.7,13.8,5.7,13.9,5.7C13.9,5.6,13.9,5.6,13.9,5.7
		c0-0.3-0.1-0.5-0.2-0.6c0,0,0-0.1-0.1-0.1l-0.3,0.3c0.1,0.2,0.2,0.4,0.2,0.7c0,0,0.1,0,0.1,0.1c0,0,0,0-0.1,0c0,0.3-0.1,0.7-0.2,1
		l0.5-0.5C14,6.3,14,6,13.9,5.7z M13.7,5.9C13.6,5.9,13.7,5.8,13.7,5.9c0-0.1,0.1-0.1,0.1,0C13.8,5.8,13.7,5.9,13.7,5.9z M9.8,12.3
		l-0.4,0.3c0.3,0.1,0.7,0.1,1,0.2l0.1,0C10.3,12.6,10,12.4,9.8,12.3z M10.2,13.1c-0.1-0.1-0.2,0-0.3,0.1c-0.1,0.1-0.1,0.2-0.2,0.2
		c0.1,0,0.2-0.1,0.3-0.1c0,0,0,0.1,0,0.1h0l-0.6,0.4c0,0,0.1-0.1,0.1-0.2c-0.5,0.6-1,0.9-1.6,0.9c-0.2,0-0.4,0-0.5-0.1
		c0.3,0.2,0.6,0.3,1,0.4c0.7-0.2,1.3-0.7,1.8-1.5C10.3,13.3,10.2,13.2,10.2,13.1z M8.8,12l-0.2,0.2l-0.1,0.1
		c0.2,0.1,0.3,0.1,0.5,0.1l0.3-0.3C9.1,12.1,8.9,12,8.8,12z M6.7,11l-0.4,0.2c0.2,0.1,0.4,0.2,0.6,0.3c0,0,0.2,0,0.3,0
		c0.1,0,0.1,0.1,0.1,0.2c0.3,0.1,0.6,0.3,0.9,0.4L8.3,12l0.2-0.1C7.9,11.7,7.3,11.4,6.7,11z M6.5,11c-0.4-0.2-0.8-0.5-1.2-0.8
		c0,0.1-0.1,0.3-0.1,0.4c0.3,0.2,0.6,0.5,1,0.6L6.5,11C6.5,11,6.5,11,6.5,11z"/>
</g>
<path class="st0" d="M18.3,11.3L18.3,11.3z"/>
</svg>
