<?xml version="1.0" encoding="utf-8"?>
<!-- Generator: Adobe Illustrator 23.0.0, SVG Export Plug-In . SVG Version: 6.00 Build 0)  -->
<svg version="1.1" id="Layer_1" xmlns="http://www.w3.org/2000/svg" xmlns:xlink="http://www.w3.org/1999/xlink" x="0px" y="0px"
	 viewBox="0 0 16 16" style="enable-background:new 0 0 16 16;" xml:space="preserve">
<style type="text/css">
	.st0{fill:none;}
	.st1{fill:#CBA6F7;}
	.st2{fill:#F75049;}
</style>
<path class="st0" d="M2,12.5c1.3-1.2,2.6-2.4,3.9-3.6l-1.1,2.3l0,0c-0.2,0.2-0.5,0.4-0.7,0.7c0.2-0.2,0.4-0.3,0.6-0.4l-1.5,3L2,12.5
	z"/>
<path class="st0" d="M4.6,2.6C4.5,2.7,4.4,2.8,4.2,2.9l0.3-0.5L4.6,2.6z"/>
<path class="st0" d="M5.4,4C5,4.3,4.7,4.7,4.3,5c-0.7,0.6-1.4,1.2-2,1.8l1.4-2.6c0.4-0.3,0.8-0.7,1.1-1c0,0,0.1-0.1,0.1-0.1L5.4,4z"
	/>
<path class="st0" d="M6,5.1C5.7,5.4,5.3,5.8,5,6.1c-1.4,1.3-2.1,2.1-4.2,4.4l-0.2-0.3l1.1-2.2c1.3-1.1,2.7-2.2,4-3.5L6,5.1z"/>
<path class="st0" d="M6.9,6.7L6.6,7.4C4.9,9,3.3,10.7,1.8,12.3l-0.5-0.8C2.5,10.3,3.7,9.1,5,7.9c0.6-0.6,1.2-1.1,1.7-1.6L6.9,6.7z"
	/>
<path class="st0" d="M5.9,1.6C5.8,1.6,5.7,1.7,5.6,1.8L5.5,1.6H5.9z"/>
<path class="st0" d="M8.4,1.6c-0.6,0.5-1.3,1-2,1.6l-0.6-1C6,1.9,6.2,1.8,6.4,1.6H8.4z"/>
<path class="st0" d="M10.2,1.6c-1,0.8-2,1.6-3.1,2.6L6.7,3.5c0.7-0.7,1.4-1.3,2-2H10.2z"/>
<path class="st0" d="M11.7,2.9c-1.1,0.9-2.2,1.9-3.3,2.9C8.3,5.9,8.2,5.9,8.2,6L7.8,5.3C9.1,4,10.2,3,11.1,2.1L11.7,2.9z"/>
<path class="st0" d="M10.3,6C9.8,6.5,9.4,6.9,8.9,7.3L8.4,6.4c1.1-1.1,2.2-2.2,3.3-3.4l0.8,1.1C11.8,4.8,11.1,5.4,10.3,6z"/>
<path class="st0" d="M13.5,5.6c-1.2,1-2.4,2-3.6,3.1H9.8l-0.6-1c0.9-0.8,1.9-1.6,2.8-2.5c0.2-0.2,0.5-0.4,0.7-0.7L13.5,5.6z"/>
<path class="st0" d="M15.3,8.3c-0.1,0.1-0.3,0.2-0.4,0.4h-2c0.5-0.5,1.1-1,1.7-1.5c-0.7,0.5-1.4,0.9-2.1,1.5h-1.9
	c1.1-1,2.1-1.9,3.1-2.9L15.3,8.3z"/>
<path class="st0" d="M15.5,8.7L15.5,8.7C15.5,8.7,15.5,8.7,15.5,8.7L15.5,8.7z"/>
<path class="st0" d="M12.6,14.4c0.4-0.2,0.9-0.7,1.3-1l-0.5,1H12.6z"/>
<path class="st0" d="M8.3,10.1c-0.8,0.7-1.6,1.4-2.4,2.2l1.1-2.2H8.3z"/>
<path class="st0" d="M10.4,10.1c-0.9,0.7-1.8,1.4-2.7,2.2c-0.8,0.7-1.6,1.4-2.3,2.1H4.8l0.6-1.2c1.1-1,2.3-2,3.5-3.1H10.4z"/>
<path class="st0" d="M13.6,9.8c-0.1,0.1-0.2,0.3-0.4,0.4c-1.1,1.1-2.3,2.2-3.5,3.3c-0.4,0.3-0.7,0.6-1.1,1H8.4
	c1.4-1.3,2.8-2.7,4.4-4c0.1-0.1,0.2-0.2,0.3-0.3c-1.6,1.3-3.3,2.6-5,4.1c-0.1,0-0.1,0.1-0.2,0.1H6.3l2.6-2.3c0.8-0.7,1.6-1.4,2.3-2
	h1.9c0.1-0.1,0.2-0.1,0.2-0.2C13.4,9.9,13.5,9.8,13.6,9.8z"/>
<path class="st0" d="M15.5,10.1l-0.7,1.5c-1.6,1.3-2.7,1.6-2.8,2.5c0,0.1,0,0.2,0,0.3H8.8c1.7-1.3,3.3-2.7,5.1-4.3H15.5z"/>
<path class="st1" d="M11.8,3.1c-1.1,1.1-2.2,2.2-3.3,3.4l0.5,0.8C9.4,6.9,9.8,6.5,10.3,6c0.7-0.6,1.5-1.2,2.2-1.8L11.8,3.1z
	 M12.7,4.6C12.5,4.8,12.3,5,12,5.2c-1,0.9-1.9,1.7-2.8,2.5l0.6,1h0.1c1.2-1.1,2.4-2.1,3.6-3.1L12.7,4.6z M5.5,1.6l0.1,0.2
	c0.1-0.1,0.2-0.1,0.3-0.2H5.5z M6.4,1.6C6.2,1.8,6,1.9,5.8,2.1l0.6,1c0.7-0.5,1.3-1.1,2-1.6H6.4z M11.1,2.1C10.2,3,9.1,4,7.8,5.3
	L8.2,6c0.1-0.1,0.1-0.1,0.2-0.2c1.1-1,2.2-2,3.3-2.9L11.1,2.1z M8.7,1.6c-0.7,0.6-1.3,1.3-2,2l0.4,0.6c1.1-1,2.2-1.8,3.1-2.6H8.7z
	 M13.6,5.8c-1,1-2.1,1.9-3.1,2.9h1.9c0.7-0.5,1.5-1,2.1-1.5c-0.5,0.5-1.1,1-1.7,1.5h2c0.2-0.1,0.3-0.3,0.4-0.4L13.6,5.8z M15.5,8.7
	C15.5,8.7,15.5,8.7,15.5,8.7L15.5,8.7L15.5,8.7z M5.7,4.5C4.3,5.7,3,6.9,1.6,7.9l-1.1,2.2l0.2,0.3C2.8,8.2,3.6,7.4,5,6.1
	c0.4-0.3,0.7-0.7,1.1-1L5.7,4.5z M4.8,3c0,0-0.1,0.1-0.1,0.1C4.3,3.5,4,3.8,3.6,4.2L2.2,6.8c0.7-0.6,1.3-1.2,2-1.8
	C4.7,4.7,5,4.3,5.4,4L4.8,3z M4.5,2.4L4.2,2.9c0.1-0.1,0.3-0.2,0.4-0.3L4.5,2.4z M6.7,6.3C6.2,6.8,5.6,7.3,5,7.9
	c-1.3,1.2-2.5,2.4-3.7,3.5l0.5,0.8c1.4-1.6,3-3.2,4.8-4.8l0.3-0.7L6.7,6.3z M2,12.5l1.2,1.9l1.5-3c-0.2,0.1-0.4,0.3-0.6,0.4
	c0.2-0.2,0.5-0.5,0.7-0.7l0,0l1.1-2.3C4.6,10.1,3.3,11.3,2,12.5z M8.9,10.1c-1.2,1-2.3,2.1-3.5,3.1l-0.6,1.2h0.6
	c0.7-0.7,1.5-1.4,2.3-2.1c0.9-0.8,1.8-1.5,2.7-2.2H8.9z M6.9,10.1l-1.1,2.2c0.8-0.7,1.6-1.4,2.4-2.2H6.9z M11.2,10.1
	c-0.8,0.7-1.5,1.4-2.3,2l-2.6,2.3h1.6c0,0,0.1-0.1,0.2-0.1c1.7-1.5,3.4-2.9,5-4.1c-0.1,0.1-0.2,0.2-0.3,0.3c-1.6,1.4-3,2.7-4.4,4
	h0.3c0.3-0.3,0.7-0.6,1.1-1c1.2-1.1,2.4-2.2,3.5-3.3H11.2z M13.9,10.1c-1.7,1.5-3.4,3-5.1,4.3H12c0-0.1,0-0.2,0-0.3
	c0.1-0.9,1.2-1.3,2.8-2.5l0.7-1.5H13.9z M12.6,14.4h0.8l0.5-1C13.5,13.7,13,14.2,12.6,14.4z"/>
<path class="st2" d="M13.6,9.8c-0.1,0.1-0.2,0.3-0.4,0.4c-1.1,1.1-2.3,2.2-3.5,3.3c-0.4,0.3-0.7,0.6-1.1,1H8.4
	c1.4-1.3,2.8-2.7,4.4-4c0.1-0.1,0.2-0.2,0.3-0.3c0,0,0,0,0,0h0c0.1-0.1,0.2-0.1,0.2-0.2C13.4,9.9,13.5,9.8,13.6,9.8z"/>
<path class="st2" d="M13.6,9.8c-0.1,0.1-0.2,0.3-0.4,0.4c-1.1,1.1-2.3,2.2-3.5,3.3c-0.4,0.3-0.7,0.6-1.1,1H8.4
	c1.4-1.3,2.8-2.7,4.4-4c0.1-0.1,0.2-0.2,0.3-0.3c0,0,0,0,0,0h0c0.1-0.1,0.2-0.1,0.2-0.2C13.4,9.9,13.5,9.8,13.6,9.8z"/>
<path class="st2" d="M13.6,9.8c-0.1,0.1-0.2,0.3-0.4,0.4c-1.1,1.1-2.3,2.2-3.5,3.3c-0.4,0.3-0.7,0.6-1.1,1H8.4
	c1.4-1.3,2.8-2.7,4.4-4c0.1-0.1,0.2-0.2,0.3-0.3c0,0,0,0,0,0h0c0.1-0.1,0.2-0.1,0.2-0.2C13.4,9.9,13.5,9.8,13.6,9.8z"/>
<path class="st2" d="M13.6,9.8c-0.1,0.1-0.2,0.3-0.4,0.4c-1.1,1.1-2.3,2.2-3.5,3.3c-0.4,0.3-0.7,0.6-1.1,1H8.4
	c1.4-1.3,2.8-2.7,4.4-4c0.1-0.1,0.2-0.2,0.3-0.3c0,0,0,0,0,0h0c0.1-0.1,0.2-0.1,0.2-0.2C13.4,9.9,13.5,9.8,13.6,9.8z"/>
<path class="st2" d="M13.6,9.8c-0.1,0.1-0.2,0.3-0.4,0.4c-1.1,1.1-2.3,2.2-3.5,3.3c-0.4,0.3-0.7,0.6-1.1,1H8.4
	c1.4-1.3,2.8-2.7,4.4-4c0.1-0.1,0.2-0.2,0.3-0.3c0,0,0,0,0,0h0c0.1-0.1,0.2-0.1,0.2-0.2C13.4,9.9,13.5,9.8,13.6,9.8z"/>
<path class="st2" d="M13.6,9.8c-0.1,0.1-0.2,0.3-0.4,0.4c-1.1,1.1-2.3,2.2-3.5,3.3c-0.4,0.3-0.7,0.6-1.1,1H8.4
	c1.4-1.3,2.8-2.7,4.4-4c0.1-0.1,0.2-0.2,0.3-0.3c0,0,0,0,0,0h0c0.1-0.1,0.2-0.1,0.2-0.2C13.4,9.9,13.5,9.8,13.6,9.8z"/>
<path class="st2" d="M13.6,9.8c-0.1,0.1-0.2,0.3-0.4,0.4c-1.1,1.1-2.3,2.2-3.5,3.3c-0.4,0.3-0.7,0.6-1.1,1H8.4
	c1.4-1.3,2.8-2.7,4.4-4c0.1-0.1,0.2-0.2,0.3-0.3c0,0,0,0,0,0h0c0.1-0.1,0.2-0.1,0.2-0.2C13.4,9.9,13.5,9.8,13.6,9.8z"/>
<path class="st2" d="M13.6,9.8c-0.1,0.1-0.2,0.3-0.4,0.4c-1.1,1.1-2.3,2.2-3.5,3.3c-0.4,0.3-0.7,0.6-1.1,1H8.4
	c1.4-1.3,2.8-2.7,4.4-4c0.1-0.1,0.2-0.2,0.3-0.3c0,0,0,0,0,0h0c0.1-0.1,0.2-0.1,0.2-0.2C13.4,9.9,13.5,9.8,13.6,9.8z"/>
<path class="st2" d="M13.6,9.8c-0.1,0.1-0.2,0.3-0.4,0.4c-1.1,1.1-2.3,2.2-3.5,3.3c-0.4,0.3-0.7,0.6-1.1,1H8.4
	c1.4-1.3,2.8-2.7,4.4-4c0.1-0.1,0.2-0.2,0.3-0.3c0,0,0,0,0,0h0c0.1-0.1,0.2-0.1,0.2-0.2C13.4,9.9,13.5,9.8,13.6,9.8z"/>
<path class="st2" d="M13.6,9.8c-0.1,0.1-0.2,0.3-0.4,0.4c-1.1,1.1-2.3,2.2-3.5,3.3c-0.4,0.3-0.7,0.6-1.1,1H8.4
	c1.4-1.3,2.8-2.7,4.4-4c0.1-0.1,0.2-0.2,0.3-0.3c0,0,0,0,0,0h0c0.1-0.1,0.2-0.1,0.2-0.2C13.4,9.9,13.5,9.8,13.6,9.8z"/>
<path class="st2" d="M4.6,2.6C4.5,2.7,4.4,2.8,4.2,2.9l0.3-0.5L4.6,2.6z"/>
<path class="st2" d="M5.4,4C5,4.3,4.7,4.7,4.3,5c-0.7,0.6-1.4,1.2-2,1.8l1.4-2.6c0.4-0.3,0.8-0.7,1.1-1c0,0,0.1-0.1,0.1-0.1L5.4,4z"
	/>
<path class="st2" d="M6,5.1C5.7,5.4,5.3,5.8,5,6.1c-1.4,1.3-2.1,2.1-4.2,4.4l-0.2-0.3l1.1-2.2c1.3-1.1,2.7-2.2,4-3.5L6,5.1z"/>
<path class="st2" d="M5.9,1.6C5.8,1.6,5.7,1.7,5.6,1.8L5.5,1.6H5.9z"/>
<path class="st2" d="M8.4,1.6c-0.6,0.5-1.3,1-2,1.6l-0.6-1C6,1.9,6.2,1.8,6.4,1.6H8.4z"/>
<path class="st2" d="M10.2,1.6c-1,0.8-2,1.6-3.1,2.6L6.7,3.5c0.7-0.7,1.4-1.3,2-2H10.2z"/>
<path class="st2" d="M2,12.5c1.3-1.2,2.6-2.4,3.9-3.6l-1.1,2.3l0,0c-0.2,0.2-0.5,0.4-0.7,0.7c0.2-0.2,0.4-0.3,0.6-0.4l-1.5,3L2,12.5
	z"/>
<path class="st2" d="M6.9,6.7L6.6,7.4C4.9,9,3.3,10.7,1.8,12.3l-0.5-0.8C2.5,10.3,3.7,9.1,5,7.9c0.6-0.6,1.2-1.1,1.7-1.6L6.9,6.7z"
	/>
<path class="st2" d="M13.9,13.4l-0.5,1h-0.8C13,14.2,13.5,13.7,13.9,13.4z"/>
<path class="st2" d="M8.3,10.1c-0.8,0.7-1.6,1.4-2.4,2.2l1.1-2.2H8.3z"/>
<path class="st2" d="M10.4,10.1c-0.9,0.7-1.8,1.4-2.7,2.2c-0.8,0.7-1.6,1.4-2.3,2.1H4.8l0.6-1.2c1.1-1,2.3-2,3.5-3.1H10.4z"/>
<path class="st2" d="M13.6,9.8c-0.1,0.1-0.2,0.3-0.4,0.4c-1.1,1.1-2.3,2.2-3.5,3.3c-0.4,0.3-0.7,0.6-1.1,1H8.4
	c1.4-1.3,2.8-2.7,4.4-4c0.1-0.1,0.2-0.2,0.3-0.3c-1.6,1.3-3.3,2.6-5,4.1c-0.1,0-0.1,0.1-0.2,0.1H6.3l2.6-2.3c0.8-0.7,1.6-1.4,2.3-2
	h1.9c0.1-0.1,0.2-0.1,0.2-0.2C13.4,9.9,13.5,9.8,13.6,9.8z"/>
<path class="st2" d="M15.5,10.1l-0.7,1.5c-1.6,1.3-2.7,1.6-2.8,2.5c0,0.1,0,0.2,0,0.3H8.8c1.7-1.3,3.3-2.7,5.1-4.3H15.5z"/>
<path class="st2" d="M11.7,2.9c-1.1,0.9-2.2,1.9-3.3,2.9C8.3,5.9,8.2,5.9,8.2,6L7.8,5.3C9.1,4,10.2,3,11.1,2.1L11.7,2.9z"/>
<path class="st2" d="M10.3,6C9.8,6.5,9.4,6.9,8.9,7.3L8.4,6.4c1.1-1.1,2.2-2.2,3.3-3.4l0.8,1.1C11.8,4.8,11.1,5.4,10.3,6z"/>
<path class="st2" d="M13.5,5.6c-1.2,1-2.4,2-3.6,3.1H9.8l-0.6-1c0.9-0.8,1.9-1.6,2.8-2.5c0.2-0.2,0.5-0.4,0.7-0.7L13.5,5.6z"/>
<path class="st2" d="M15.3,8.3c-0.1,0.1-0.3,0.2-0.4,0.4h-2c0.5-0.5,1.1-1,1.7-1.5c-0.7,0.5-1.4,0.9-2.1,1.5h-1.9
	c1.1-1,2.1-1.9,3.1-2.9L15.3,8.3z"/>
<path class="st2" d="M15.5,8.7L15.5,8.7C15.5,8.7,15.5,8.7,15.5,8.7L15.5,8.7z"/>
<path class="st2" d="M13.6,9.8c-0.1,0.1-0.2,0.3-0.4,0.4c-1.1,1.1-2.3,2.2-3.5,3.3c-0.4,0.3-0.7,0.6-1.1,1H8.4
	c1.4-1.3,2.8-2.7,4.4-4c0.1-0.1,0.2-0.2,0.3-0.3c0,0,0,0,0,0h0c0.1-0.1,0.2-0.1,0.2-0.2C13.4,9.9,13.5,9.8,13.6,9.8z"/>
<path class="st2" d="M13.6,9.8c-0.1,0.1-0.2,0.3-0.4,0.4c-1.1,1.1-2.3,2.2-3.5,3.3c-0.4,0.3-0.7,0.6-1.1,1H8.4
	c1.4-1.3,2.8-2.7,4.4-4c0.1-0.1,0.2-0.2,0.3-0.3c0,0,0,0,0,0h0c0.1-0.1,0.2-0.1,0.2-0.2C13.4,9.9,13.5,9.8,13.6,9.8z"/>
<path class="st2" d="M13.6,9.8c-0.1,0.1-0.2,0.3-0.4,0.4c-1.1,1.1-2.3,2.2-3.5,3.3c-0.4,0.3-0.7,0.6-1.1,1H8.4
	c1.4-1.3,2.8-2.7,4.4-4c0.1-0.1,0.2-0.2,0.3-0.3c0,0,0,0,0,0h0c0.1-0.1,0.2-0.1,0.2-0.2C13.4,9.9,13.5,9.8,13.6,9.8z"/>
<path class="st2" d="M13.6,9.8c-0.1,0.1-0.2,0.3-0.4,0.4c-1.1,1.1-2.3,2.2-3.5,3.3c-0.4,0.3-0.7,0.6-1.1,1H8.4
	c1.4-1.3,2.8-2.7,4.4-4c0.1-0.1,0.2-0.2,0.3-0.3c0,0,0,0,0,0h0c0.1-0.1,0.2-0.1,0.2-0.2C13.4,9.9,13.5,9.8,13.6,9.8z"/>
<path class="st2" d="M13.6,9.8c-0.1,0.1-0.2,0.3-0.4,0.4c-1.1,1.1-2.3,2.2-3.5,3.3c-0.4,0.3-0.7,0.6-1.1,1H8.4
	c1.4-1.3,2.8-2.7,4.4-4c0.1-0.1,0.2-0.2,0.3-0.3c0,0,0,0,0,0h0c0.1-0.1,0.2-0.1,0.2-0.2C13.4,9.9,13.5,9.8,13.6,9.8z"/>
<path class="st2" d="M13.6,9.8c-0.1,0.1-0.2,0.3-0.4,0.4c-1.1,1.1-2.3,2.2-3.5,3.3c-0.4,0.3-0.7,0.6-1.1,1H8.4
	c1.4-1.3,2.8-2.7,4.4-4c0.1-0.1,0.2-0.2,0.3-0.3c0,0,0,0,0,0h0c0.1-0.1,0.2-0.1,0.2-0.2C13.4,9.9,13.5,9.8,13.6,9.8z"/>
<path class="st2" d="M13.6,9.8c-0.1,0.1-0.2,0.3-0.4,0.4c-1.1,1.1-2.3,2.2-3.5,3.3c-0.4,0.3-0.7,0.6-1.1,1H8.4
	c1.4-1.3,2.8-2.7,4.4-4c0.1-0.1,0.2-0.2,0.3-0.3c0,0,0,0,0,0h0c0.1-0.1,0.2-0.1,0.2-0.2C13.4,9.9,13.5,9.8,13.6,9.8z"/>
<path class="st2" d="M13.6,9.8c-0.1,0.1-0.2,0.3-0.4,0.4c-1.1,1.1-2.3,2.2-3.5,3.3c-0.4,0.3-0.7,0.6-1.1,1H8.4
	c1.4-1.3,2.8-2.7,4.4-4c0.1-0.1,0.2-0.2,0.3-0.3c0,0,0,0,0,0h0c0.1-0.1,0.2-0.1,0.2-0.2C13.4,9.9,13.5,9.8,13.6,9.8z"/>
<path class="st2" d="M13.6,9.8c-0.1,0.1-0.2,0.3-0.4,0.4c-1.1,1.1-2.3,2.2-3.5,3.3c-0.4,0.3-0.7,0.6-1.1,1H8.4
	c1.4-1.3,2.8-2.7,4.4-4c0.1-0.1,0.2-0.2,0.3-0.3c0,0,0,0,0,0h0c0.1-0.1,0.2-0.1,0.2-0.2C13.4,9.9,13.5,9.8,13.6,9.8z"/>
<path class="st2" d="M13.6,9.8c-0.1,0.1-0.2,0.3-0.4,0.4c-1.1,1.1-2.3,2.2-3.5,3.3c-0.4,0.3-0.7,0.6-1.1,1H8.4
	c1.4-1.3,2.8-2.7,4.4-4c0.1-0.1,0.2-0.2,0.3-0.3c0,0,0,0,0,0h0c0.1-0.1,0.2-0.1,0.2-0.2C13.4,9.9,13.5,9.8,13.6,9.8z"/>
</svg>
