<?xml version="1.0" encoding="utf-8"?>
<!-- Generator: Adobe Illustrator 23.0.0, SVG Export Plug-In . SVG Version: 6.00 Build 0)  -->
<svg version="1.1" id="Layer_1" xmlns="http://www.w3.org/2000/svg" xmlns:xlink="http://www.w3.org/1999/xlink" x="0px" y="0px"
	 viewBox="0 0 16 16" style="enable-background:new 0 0 16 16;" xml:space="preserve">
<style type="text/css">
	.st0{fill:#CBA6F7;}
	.st1{fill:#F75049;}
</style>
<path class="st0" d="M4.2,8.4c0,0-0.1,0.1-0.1,0c-0.1,0,0,0,0-0.1C4.1,8.3,4.2,8.3,4.2,8.4z"/>
<path class="st0" d="M4.4,8.2c0,0-0.1,0.1-0.1,0c-0.1,0,0,0,0-0.1C4.3,8.1,4.4,8.1,4.4,8.2z"/>
<path class="st0" d="M8.6,1.3C8.3,1,7.9,0.9,7.6,1.1L7,1.6c0,0,0.1,0,0.1,0c0.7,0.1,1.3,0,1.8-0.1L8.6,1.3z M10.5,7L10.5,7
	C10.7,7,10.7,7,10.7,7C10.7,7,10.6,7,10.5,7z"/>
<path class="st1" d="M10.5,7L10.5,7C10.7,7,10.7,7,10.7,7C10.7,7,10.6,7,10.5,7z"/>
<path class="st1" d="M3.1,9.5c-0.1-0.1,0-0.2,0-0.4c0-0.2,0.3-0.1,0.3,0.2C3.3,9.4,3.2,9.6,3.1,9.5z"/>
<path class="st1" d="M7.6,6.2V10c-0.1,0-0.2,0.1-0.3,0.2C7.1,10.4,7,10.7,7,10.9L5.9,12l-0.7,0.6L4.6,12L4,11.3L7.5,8l0-0.3
	C7.2,7.9,7.1,8,7,8C7,8,6.9,7.8,6.8,7.7L6.4,7.9l-3,2.9l-0.3-0.3l3-3l0.2-0.1c0,0,0,0-0.1,0l0.1-0.1L6.1,6.9H5.7
	C5.5,6.8,5.2,6.7,4.9,6.6c-0.1,0-0.1,0-0.2,0L1.9,9.3L1.5,8.8l2.4-2.1L4,6.4c-0.1,0-0.3,0-0.4,0l0.2,0.1L3.4,6.6c0,0-0.1,0-0.2-0.1
	c-0.1,0-0.1,0-0.2,0L2.7,6.8L1,8.2c0-0.1,0-0.3,0-0.4l0.9-0.9C1.8,7,1.6,7.1,1.4,7.2l2.7-2.7c0.7,0,1.5-0.1,2.3-0.3L7,4.7
	C6.9,5.1,7,5.6,7.3,5.9C7.4,6,7.5,6.1,7.6,6.2z"/>
<path class="st1" d="M4,8.6c0,0-0.1,0.1-0.1,0c-0.1,0,0,0,0-0.1C3.8,8.5,4,8.5,4,8.6z"/>
<path class="st1" d="M3.5,8.9c-0.1,0,0-0.1,0-0.2c0-0.1,0.3-0.1,0.3,0.1C3.8,8.8,3.7,8.9,3.5,8.9z"/>
<path class="st1" d="M2.8,9.9c0,0-0.1,0.1-0.1,0.1L2.5,9.8c0,0,0-0.1,0-0.1C2.5,9.5,2.8,9.6,2.8,9.9z"/>
<path class="st1" d="M8.6,1.3C8.3,1,7.9,0.9,7.6,1.1L7,1.6c0,0,0.1,0,0.1,0c0.7,0.1,1.3,0,1.8-0.1L8.6,1.3z"/>
<path class="st1" d="M14.7,7.4L12,4.7c-0.4,0.1-0.7,0.1-1.1,0.1l0.6-0.6l-1-1L9.1,1.7c-0.2,0-0.3,0.1-0.5,0.1C8,1.9,7.5,1.9,6.8,1.8
	c0,0,0,0,0,0L6.1,2.5l1.6,1.6c0.4-0.1,0.8,0,1.1,0.3C9.1,4.7,9.2,5.1,9,5.5L10.5,7c0.1,0,0.1,0,0.2,0.1c0.3-0.1,0.7,0,1,0.3
	c0,0,0,0,0,0.1c0.4,0.4,0.3,1,0,1.5c-0.4,0.4-1.1,0.4-1.5,0C9.9,8.5,9.8,8,10,7.7L9.5,7.2l-1-1V10c0.1,0,0.2,0.1,0.3,0.2
	C8.9,10.3,9,10.4,9,10.5c0,0,0.1-0.1,0.2-0.1s0,0.1,0,0.2c0,0.1-0.1,0.1-0.2,0c0.1,0.4,0.1,0.8-0.3,1.1c-0.4,0.4-1.1,0.4-1.5,0
	C7.1,11.6,7,11.3,7,11.1l-1,1.1l-0.3,0.3l-0.3,0.3L6,13.4l1.3-1.2l0.2,0.2l-0.3,0.3l-1.1,1l1.2,1.1c0.3,0.4,0.9,0.4,1.3,0l6.1-6.1
	C15.1,8.3,15.1,7.7,14.7,7.4z M9.1,3.2C9,3.3,9,3.1,9,2.8c0-0.3,0.2,0,0.3,0.2C9.3,3.1,9.2,3.2,9.1,3.2z M9.5,10.1c0,0-0.1,0-0.1,0
	C9.4,10.1,9.4,10,9.5,10.1C9.6,10,9.5,10.1,9.5,10.1z"/>
<path class="st1" d="M15.6-0.6L15.6-0.6z"/>
</svg>
