<?xml version="1.0" encoding="utf-8"?>
<!-- Generator: Adobe Illustrator 23.0.0, SVG Export Plug-In . SVG Version: 6.00 Build 0)  -->
<svg version="1.1" id="Layer_1" xmlns="http://www.w3.org/2000/svg" xmlns:xlink="http://www.w3.org/1999/xlink" x="0px" y="0px"
	 viewBox="0 0 16 16" style="enable-background:new 0 0 16 16;" xml:space="preserve">
<style type="text/css">
	.st0{fill:#F75049;}
</style>
<path class="st0" d="M12.2,2.2L12,2.4c0.1,0,0.2,0,0.3,0L12.2,2.2z"/>
<path class="st0" d="M15.1,7c-0.5-2.2-1.4-3.9-2.3-4.4c-0.2-0.1-0.3-0.1-0.4-0.2c-0.1,0-0.2,0-0.3,0L9.5,4.8L6,8.1l3.2-3.4l2.4-2.2
	c-0.1,0-0.2,0.1-0.2,0.1C11,2.8,10.5,3,9.7,3.2h0L8.1,4.8l-2,1.6v0.7H5.2V8H4.3V7.1H3.3V6.1h0.9V5.2h0.9v0.9h0.9v0.2l1.7-1.7
	l1.6-1.4C9.1,3.3,8.6,3.3,8,3.3C6.8,3.3,6,3.2,5.4,3L3.4,5l0-0.2l1.8-1.9C5,2.8,4.8,2.7,4.7,2.6c0,0-0.1-0.1-0.1-0.1l-2,2.1L2.5,4.8
	L2.4,4.4l0.1-0.1l1.9-1.9c-0.1,0-0.2,0-0.3,0c-0.3,0-0.5,0.1-0.8,0.2C2.5,3,1.8,4,1.3,5.5C1.6,5.2,1.9,5,2.2,4.7V5l-1,1
	C1.1,6.3,1,6.6,0.9,7v0c-0.4,1.8-0.6,4.4-0.3,5.4c0.2,0.9,0.6,1.3,1.3,1.3c0.2,0,0.4,0,0.5-0.1c0.5-0.2,1.1-0.6,1.5-1.2
	c0,0,0.1-0.1,0.1-0.1L4,12l0.1-0.1l0.6-0.5c0.1-0.1,0.1-0.2,0.2-0.4c0.2-0.3,0.6-0.6,1.1-0.8l3.2-2.9l0.7-0.7v0
	c0-0.3,0.2-0.5,0.5-0.5h0c0.2,0,0.4,0.2,0.5,0.4c0,0,0,0,0,0c0,0.3-0.2,0.5-0.5,0.5c0,0,0,0,0,0L7.5,9.9c0.1,0,0.3,0,0.4,0H8
	c0.7,0,1.4,0.1,2,0.3c0.1,0,0.2,0.1,0.3,0.1l3.1-2.8l0.2,0.8l-2.6,2.4c0.1,0.1,0.2,0.2,0.2,0.3c0.4,0.7,0.9,1.4,1.4,1.8l1.3-0.3
	l-0.2,0.3l-0.8,0.2c0,0,0.1,0,0.1,0l0.6-0.1l-0.1,0.3c0.3,0.1,0.5,0.2,0.7,0.2c0.7,0,1-0.4,1.3-1.3C15.6,11.3,15.5,8.8,15.1,7z
	 M11.3,8C11.1,8,11,8,10.9,7.9c-0.1-0.1-0.1-0.2-0.1-0.3c0-0.3,0.2-0.5,0.5-0.5c0.3,0,0.5,0.2,0.5,0.5S11.5,8,11.3,8z M12.2,7.1
	c-0.1,0-0.3,0-0.3-0.1c-0.1-0.1-0.1-0.2-0.1-0.3c0-0.3,0.2-0.5,0.5-0.5c0.3,0,0.5,0.2,0.5,0.5S12.4,7.1,12.2,7.1z M11.7,5.6
	C11.7,5.6,11.7,5.7,11.7,5.6c0,0.3-0.2,0.5-0.5,0.5c0,0,0,0,0,0c-0.1,0-0.2,0-0.3-0.1c-0.1-0.1-0.1-0.2-0.1-0.3v0
	c0-0.3,0.2-0.5,0.5-0.5l1.3-1.3l0.1,0.7L11.7,5.6z"/>
</svg>
