<?xml version="1.0" encoding="utf-8"?>
<!-- Generator: Adobe Illustrator 23.0.0, SVG Export Plug-In . SVG Version: 6.00 Build 0)  -->
<svg version="1.1" id="Layer_1" xmlns="http://www.w3.org/2000/svg" xmlns:xlink="http://www.w3.org/1999/xlink" x="0px" y="0px"
	 viewBox="0 0 16 16" style="enable-background:new 0 0 16 16;" xml:space="preserve">
<style type="text/css">
	.st0{fill:none;}
	.st1{fill:#CBA6F7;}
	.st2{fill:#F75049;}
</style>
<path class="st0" d="M4.7,2.8C4.6,2.8,4.5,2.9,4.4,3C4.3,3.2,4.1,3.3,4,3.4l0.5-0.9L4.7,2.8z"/>
<polyline class="st0" points="2.9,13.9 3,14.1 3.2,14.4 3.6,13.6 "/>
<path class="st0" d="M11.9,9.8c-0.1,0.1-0.3,0.2-0.4,0.4h-0.1c0.3-0.2,0.5-0.4,0.8-0.6C12.1,9.6,12,9.7,11.9,9.8z"/>
<path class="st1" d="M3,14.1l0.2,0.3l0.4-0.8C3.4,13.8,3.2,14,3,14.1z M4.5,2.4L4,3.4C4.1,3.3,4.3,3.2,4.4,3
	c0.1-0.1,0.2-0.2,0.3-0.3L4.5,2.4z"/>
<path class="st2" d="M4.7,2.8C4.6,2.8,4.5,2.9,4.4,3C4.3,3.2,4.1,3.3,4,3.4l0.5-0.9L4.7,2.8z"/>
<path class="st2" d="M3,14.1c0.2-0.2,0.4-0.3,0.6-0.5l-0.4,0.8L3,14.1z"/>
<path class="st2" d="M11.9,9.8c-0.1,0.1-0.3,0.2-0.4,0.4h-0.1c0.3-0.2,0.5-0.4,0.8-0.6C12.1,9.6,12,9.7,11.9,9.8z"/>
<path class="st2" d="M4.7,2.8C4.6,2.8,4.5,2.9,4.4,3C4.3,3.2,4.1,3.3,4,3.4l0.5-0.9L4.7,2.8z"/>
<path class="st2" d="M11.9,9.8c-0.1,0.1-0.3,0.2-0.4,0.4h-0.1c0.3-0.2,0.5-0.4,0.8-0.6C12.1,9.6,12,9.7,11.9,9.8z"/>
<path class="st2" d="M8.1,5.8c1.1-1.1,2.2-2.2,3.3-3.3l0.7,1.1C11.3,4.3,10.5,5,9.6,5.7C9.3,6,8.9,6.3,8.5,6.7L8.1,5.8z"/>
<path class="st2" d="M6.9,10.1L6.9,10.1C7,10.2,6.9,10.2,6.9,10.1L6.9,10.1z"/>
<path class="st2" d="M6.4,11.1c0.4-0.3,0.7-0.6,1.1-1h1.4c-0.6,0.5-1.2,0.9-1.8,1.4c-0.6,0.5-1.2,1-1.7,1.5L6.4,11.1z"/>
<path class="st2" d="M4,4.8C3.5,5.1,3.1,5.5,2.7,5.8L4,3.4C4.1,3.3,4.3,3.2,4.4,3c0.1-0.1,0.2-0.2,0.3-0.3l0.5,0.9
	C4.8,4,4.4,4.4,4,4.8z"/>
<path class="st2" d="M11.2,5c0.4-0.4,0.8-0.7,1.1-1l0.7,1c-1.2,1-2.4,2-3.6,3.1L8.8,7.1C9.6,6.4,10.4,5.7,11.2,5z"/>
<path class="st2" d="M13.8,8.7c0.4-0.3,0.7-0.7,1-1l0.7,1H13.8z"/>
<path class="st2" d="M9.6,8.3c1.2-1.1,2.4-2.2,3.5-3.3l1.6,2.4c-0.5,0.4-1,0.8-1.5,1.3h-1.8c0.7-0.6,1.4-1.2,2.1-1.9
	c-0.9,0.6-1.8,1.2-2.7,1.9h-1L9.6,8.3z"/>
<path class="st2" d="M9.1,12.6c-0.7,0.6-1.4,1.2-2,1.8H6.9c1.4-1.4,3-2.8,4.6-4.3h0.2C10.8,11,10,11.8,9.1,12.6z"/>
<path class="st2" d="M6.5,3.2C7,2.6,7.6,2.1,8.1,1.6h1.4C8.6,2.2,7.7,3,6.8,3.8L6.5,3.2z"/>
<path class="st2" d="M5.7,1.8L5.5,1.6h2.3C7.3,2,6.8,2.4,6.3,2.8L5.7,1.8z"/>
<path class="st2" d="M1.5,11.7L1,10.9c1.2-1.1,2.4-2.3,3.7-3.5c0.6-0.6,1.2-1.1,1.7-1.7l0.4,0.6C4.8,8.2,3.1,10,1.5,11.7z"/>
<path class="st2" d="M7.4,4.8c1.4-1.3,2.5-2.3,3.3-3.2l0.5,0.8c-1.2,0.9-2.3,1.9-3.5,3L7.4,4.8z"/>
<path class="st2" d="M7.5,13.4c-0.4,0.3-0.8,0.7-1.2,1H4.8c1.1-1,2.3-2,3.4-3c0.5-0.4,1-0.9,1.5-1.3h1.7
	C10.1,11.2,8.8,12.2,7.5,13.4z"/>
<path class="st2" d="M5.4,9.8l-1.5,3.1v0c-0.3,0.3-0.7,0.7-1,1l-1.2-2c1.7-1.6,3.4-3.2,5-4.8l-1,2C5,9.9,4.4,10.5,3.8,11.1
	C4.3,10.7,4.9,10.3,5.4,9.8z"/>
<path class="st2" d="M0.6,9.9L2.2,7C3.2,6,4.3,5.1,5.4,4.1l0.4,0.6C5.4,5,5,5.4,4.6,5.8C3.3,7,2.6,7.8,0.6,9.9z"/>
<path class="st2" d="M15.5,10.1l-2.1,4.3H7.1c1.7-1.3,3.4-2.7,5.1-4.3H15.5z"/>
</svg>
