<?xml version="1.0" encoding="utf-8"?>
<!-- Generator: Adobe Illustrator 23.0.0, SVG Export Plug-In . SVG Version: 6.00 Build 0)  -->
<svg version="1.1" id="Layer_1" xmlns="http://www.w3.org/2000/svg" xmlns:xlink="http://www.w3.org/1999/xlink" x="0px" y="0px"
	 viewBox="0 0 16 16" style="enable-background:new 0 0 16 16;" xml:space="preserve">
<style type="text/css">
	.st0{fill:#F75049;}
</style>
<path class="st0" d="M12.6,8.7c0,0-0.1,0.1-0.1,0.1c-0.8,0.7-1.5,1.4-2.2,2.1c0.1-0.1,0.2-0.2,0.3-0.2c0.3-0.2,0.6-0.5,0.8-0.7
	c0.5-0.4,0.9-0.9,1.4-1.3C12.8,8.6,12.7,8.6,12.6,8.7z M12.6,8.7c0,0-0.1,0.1-0.1,0.1c-0.8,0.7-1.5,1.4-2.2,2.1
	c0.1-0.1,0.2-0.2,0.3-0.2c0.3-0.2,0.6-0.5,0.8-0.7c0.5-0.4,0.9-0.9,1.4-1.3C12.8,8.6,12.7,8.6,12.6,8.7z M12.6,8.7
	c0,0-0.1,0.1-0.1,0.1c-0.8,0.7-1.5,1.4-2.2,2.1c0.1-0.1,0.2-0.2,0.3-0.2c0.3-0.2,0.6-0.5,0.8-0.7c0.5-0.4,0.9-0.9,1.4-1.3
	C12.8,8.6,12.7,8.6,12.6,8.7z M12.6,8.7c0,0-0.1,0.1-0.1,0.1c-0.8,0.7-1.5,1.4-2.2,2.1c0.1-0.1,0.2-0.2,0.3-0.2
	c0.3-0.2,0.6-0.5,0.8-0.7c0.5-0.4,0.9-0.9,1.4-1.3C12.8,8.6,12.7,8.6,12.6,8.7z M12.6,8.7c0,0-0.1,0.1-0.1,0.1
	c-0.8,0.7-1.5,1.4-2.2,2.1c0.1-0.1,0.2-0.2,0.3-0.2c0.3-0.2,0.6-0.5,0.8-0.7c0.5-0.4,0.9-0.9,1.4-1.3C12.8,8.6,12.7,8.6,12.6,8.7z
	 M12.6,8.7c0,0-0.1,0.1-0.1,0.1c-0.8,0.7-1.5,1.4-2.2,2.1c0.1-0.1,0.2-0.2,0.3-0.2c0.3-0.2,0.6-0.5,0.8-0.7c0.5-0.4,0.9-0.9,1.4-1.3
	C12.8,8.6,12.7,8.6,12.6,8.7z M12.6,8.7c0,0-0.1,0.1-0.1,0.1c-0.8,0.7-1.5,1.4-2.2,2.1c0.1-0.1,0.2-0.2,0.3-0.2
	c0.3-0.2,0.6-0.5,0.8-0.7c0.5-0.4,0.9-0.9,1.4-1.3C12.8,8.6,12.7,8.6,12.6,8.7z M12.6,8.7c0,0-0.1,0.1-0.1,0.1
	c-0.8,0.7-1.5,1.4-2.2,2.1c0.1-0.1,0.2-0.2,0.3-0.2c0.3-0.2,0.6-0.5,0.8-0.7c0.5-0.4,0.9-0.9,1.4-1.3C12.8,8.6,12.7,8.6,12.6,8.7z
	 M12.6,8.7c0,0-0.1,0.1-0.1,0.1c-0.8,0.7-1.5,1.4-2.2,2.1c0.1-0.1,0.2-0.2,0.3-0.2c0.3-0.2,0.6-0.5,0.8-0.7c0.5-0.4,0.9-0.9,1.4-1.3
	C12.8,8.6,12.7,8.6,12.6,8.7z M12.6,8.7c0,0-0.1,0.1-0.1,0.1c-0.8,0.7-1.5,1.4-2.2,2.1c0.1-0.1,0.2-0.2,0.3-0.2
	c0.3-0.2,0.6-0.5,0.8-0.7c0.5-0.4,0.9-0.9,1.4-1.3C12.8,8.6,12.7,8.6,12.6,8.7z M15.8,6.3c0-0.1-0.2,0-0.4-0.1
	c-0.1-0.1-0.1-0.2-0.2-0.3c-0.2-0.1-0.8,0.3-0.8,0.3c0,0,0.2-0.2,0.4-0.4c0.1-0.1,0.4-0.4,0.3-0.6C15.2,5,15.1,5,15,4.9
	c0-0.2,0.3-0.3,0.3-0.5c0-0.1-0.1-0.2-0.2-0.2c-0.2-0.1-0.5,0.1-0.5,0.1c0,0,0.2-0.1,0.3-0.3c0,0,0.1-0.2,0-0.3c0-0.1-0.2-0.1-0.2,0
	c-0.1,0-0.1,0.1-0.1,0c0,0,0-0.1,0-0.1c0-0.1-0.2-0.2-0.3-0.2c-0.3,0-0.6,0.3-0.6,0.2c0,0,0.3-0.3,0.2-0.5c0-0.1-0.1-0.2-0.2-0.2
	c-0.2,0-0.2,0.2-0.3,0.2c-0.1,0,0.1-0.4-0.1-0.5c-0.1-0.1-0.2,0.1-0.3,0c-0.1,0-0.1-0.1-0.2-0.1c-0.2-0.1-0.5,0.3-0.8,0.6
	c-0.1,0.1-0.4,0.3-0.7,0.5c0.2-0.2,0.3-0.3,0.4-0.5C11.9,2.9,12,2.8,12,2.6c0-0.1,0-0.2-0.1-0.3c-0.1,0-0.2,0.1-0.6,0.4
	c-0.1,0.1-0.2,0.1-0.2,0.2c0,0,0.2-0.2,0.1-0.4c0,0,0-0.1-0.1-0.2c-0.3-0.2-0.7-0.1-0.7-0.1C9.7,2.4,9.6,2.7,9,3c0,0-0.1,0-0.2,0.1
	C8.5,3.3,8.4,3.3,8.3,3.4C8.2,3.5,8.1,3.6,8,3.7C7.9,3.9,8,4,7.9,4.1C7.8,4.2,7.7,4.2,7.6,4.2C7.3,4.3,6.8,4.9,6.8,5
	c-0.2,0.3-1,1.2-3.2,3.1c2.9-3,3.8-4,3.8-4.1c0,0,0,0,0,0c0,0,0.1-0.3,0-0.3c0,0-0.1,0-0.2-0.1c0,0,0,0,0-0.1c0-0.1,0.3-0.1,0.3-0.2
	c0,0,0,0-0.1-0.1C7.2,3.1,7.2,3.1,7.1,3.1C7,3,6.8,3.1,6.7,3.2C6.6,3.2,6.5,3.3,6.5,3.3c0,0,0-0.1,0-0.2c0-0.1-0.1-0.1-0.2,0
	C6.1,3.1,6,3.3,5.9,3.2c0,0,0-0.1,0-0.2C5.8,3,5.7,3,5.6,2.9C5.5,2.8,5.6,2.7,5.4,2.6c0-0.1-0.1-0.2-0.2-0.2C5,2.3,5,2.4,4.9,2.3
	C4.7,2.3,4.7,2.2,4.6,2.2c-0.1,0-0.2,0-0.2,0.1C4.1,2.3,4.1,2.4,4,2.4c-0.1,0-0.1-0.1-0.3-0.1c-0.1,0-0.1,0-0.2,0
	c-0.1,0.1,0,0.2-0.1,0.3c0,0-0.1,0-0.2,0c-0.1,0,0-0.1-0.1-0.1c-0.1-0.1-0.7,0-0.9,0.4C2.3,2.9,2.3,3,2.2,3C2.1,3.1,2.1,3,2,3
	C1.8,3,1.7,3.2,1.3,3.6c0,0-0.1,0.1-0.3,0.4C0.4,4.6,0.3,4.7,0.3,4.9c0,0.3,0,0.4,0,0.4c0,0.1,0.1,0.2,0,0.2c0,0-0.1,0-0.1,0.1
	c-0.1,0.1,0,0.2,0,0.5c0,0,0,0,0,0.2c-0.1,0.3-0.1,0.4,0,0.4c0,0,0.1,0,0.2,0c0.1,0,0.2,0,0.2-0.1c0.2-0.3,0.5-0.6,0.7-0.8
	C1.2,6,1.1,6.1,1,6.2C0.9,6.4,0.8,6.5,0.7,6.7c0,0.1-0.1,0.1-0.1,0.2c0,0.1-0.1,0.3,0,0.5c0,0.1,0.1,0.1,0.1,0.2c0,0.1,0,0.2,0,0.2
	c0,0,0.1,0,0.1,0.1c0.1,0.1,0,0.2,0,0.4c0,0.1,0.1,0.1,0.1,0.2c0,0.2,0,0.2,0,0.4c0,0.1,0,0.1,0.1,0.2c0.1,0.1,0.2,0,0.3,0
	c0.1,0.1,0.1,0.2,0.2,0.2c0.1,0,0.1,0,0.2,0c0,0,0.2,0,0.2,0.1c0,0.1-0.1,0.2-0.2,0.2c-0.2,0.1-0.5,0-0.5,0c0,0,0.1,0.1,0.1,0.2
	C2,10.3,2,10.3,2.2,10.5c0.2,0.1,0.2,0.1,0.4,0.2c0.3,0.2,0.7,0.4,0.7,0.6c0,0.1-0.1,0.2-0.1,0.4c0,0.1,0.1,0.3,0.2,0.4
	c0.1,0,0.2-0.1,0.4-0.1c0.2,0,0.2,0.2,0.4,0.2c0.2,0,0.3-0.3,0.5-0.2c0.1,0,0.1,0.1,0.2,0.2c0.1,0,0.2,0,0.3,0
	c0.6-0.7,1.6-1.7,2.8-2.9c1-1.1,1.3-1.4,1.8-1.9c1.6-1.5,3.3-2.7,3.4-2.6c0.1,0.1-0.7,0.8-3.4,3.3C8,9.6,6.5,11,5.5,12
	c0,0.2,0.1,0.3,0.1,0.3c0.1,0.1,0.3-0.1,0.5,0c0.1,0,0.2,0.1,0.2,0.3c0,0.1,0,0.2,0.1,0.2c0,0,0.1,0,0.1,0.1
	c0.1,0.1,0.1,0.2,0.2,0.3c0.1,0.1,0.2,0,0.3,0.1c0,0,0,0.1,0,0.2c0,0.1,0.1,0.1,0.1,0.2c0,0.1-0.2,0.2-0.2,0.4c0,0.1,0,0.1,0,0.3
	c0,0.3-0.3,0.4-0.3,0.6c0,0.1,0.1,0.3,0.3,0.3c0.2,0,0.3-0.3,0.5-0.3c0.3,0,0.3,0.4,0.6,0.3c0.2,0,0.2-0.2,0.4-0.2
	c0.1,0,0.2,0.1,0.3,0c0.1,0,0.1-0.1,0.2-0.2c0,0,0.1,0,0.1,0c0.2,0,0.3-0.2,0.4-0.5c0.1-0.2,0-0.3,0.1-0.5c0.1-0.1,0.2-0.2,0.2-0.2
	c0.3-0.2,0.7-0.6,1.1-1c0.5-0.5,0.6-0.7,0.9-0.8c0.1,0,0.2-0.1,0.3-0.2c0.2-0.2,0.3-0.3,0.3-0.5c0.2-0.5,0.5-0.5,1-1.2
	c0,0,0.1-0.2,0.1-0.2c-0.1-0.1-0.7,0.7-0.9,0.6c0,0,0-0.1,0-0.2c0-0.4,0.5-0.5,1.2-1c0.2-0.1,0.1-0.1,0.3-0.3
	c0.5-0.4,1.1-0.8,1.2-1.1C15,7.5,15,7.4,15,7.4c0-0.1,0-0.1,0-0.1c0.1-0.2,0.1-0.2,0.4-0.5C15.8,6.4,15.8,6.3,15.8,6.3z M5.4,5.8
	C5.3,6,5.1,6.2,4.9,6.3C5,6.2,5.1,6,5.4,5.8c0-0.1,0.1-0.2,0.2-0.2C5.6,5.7,5.5,5.7,5.4,5.8z M5.3,5.1c0.3-0.3,0.6-0.6,0.9-0.8
	C6,4.5,5.7,4.8,5.3,5.1C5.2,5.3,5,5.5,4.8,5.6C5,5.5,5.1,5.3,5.3,5.1z M1.9,5C2,4.9,2.1,4.8,2.2,4.7c0-0.1,0.1-0.1,0.1-0.1
	c0,0.1-0.1,0.1-0.1,0.2C2.1,4.8,2,5,1.9,5z M2.4,10c-0.1,0.1-0.1,0.1-0.2,0.1c0,0,0-0.1,0.1-0.2c0.1-0.1,0.2-0.1,0.2-0.1
	C2.5,9.9,2.5,9.9,2.4,10z M2.2,7.2c0.2-0.2,0.4-0.5,0.6-0.7c0,0.1,0,0.1,0,0.2C2.6,6.8,2.4,7,2.2,7.2z M3.3,10.9
	c0,0-0.1-0.1-0.3-0.4c-0.1-0.1-0.1-0.1-0.1-0.2c0-0.1,0.1-0.1,0.1-0.1c0.1,0,0.2-0.1,0.3-0.3c0,0.1,0,0.2-0.1,0.3
	c0,0.1-0.1,0.1-0.1,0.2c0,0,0.1,0,0.1,0.1c0,0,0,0.1,0,0.2C3.2,10.7,3.3,10.8,3.3,10.9z M3.2,4c0.1-0.1,0.1-0.3,0.3-0.4
	c0.1-0.1,0.1-0.1,0.1-0.1c0,0.1-0.1,0.1-0.1,0.2C3.4,3.8,3.3,3.9,3.2,4z M5,8c0.6-0.8,1.4-1.7,2.3-2.6C8,4.8,8.6,4.2,9.2,3.7
	C8.8,4.1,8.3,4.6,7.9,5C6.8,6,5.9,7,5,8z M8,5.4c0.5-0.5,1-0.9,1.4-1.2c-0.3,0.3-0.5,0.6-0.8,1C7.9,5.9,7.2,6.6,6.5,7.2
	C6.9,6.6,7.3,6,8,5.4z M9.1,6.5c0.7-0.6,1.3-1.1,2-1.6c-0.4,0.4-0.9,0.9-1.4,1.3c-1,0.9-1.9,1.7-2.8,2.3C7.5,7.9,8.3,7.2,9.1,6.5z
	 M10.1,6.6c-1,0.9-1.9,1.7-2.8,2.3C8,8.2,8.7,7.6,9.5,6.9c0.7-0.6,1.3-1.1,2-1.6C11,5.7,10.6,6.1,10.1,6.6z M13.6,5.6
	c-0.4,0.4-0.9,0.9-1.4,1.3c-1,0.9-1.9,1.7-2.8,2.3c0.7-0.7,1.4-1.4,2.2-2.1C12.3,6.6,13,6.1,13.6,5.6z M7.8,10.4
	c0.9-1,1.9-2.1,3.1-3.2c0.5-0.5,1.1-0.9,1.6-1.4C12,6.4,11.4,7,10.8,7.6C9.8,8.5,8.8,9.4,7.8,10.4z M8.1,11.4c1-0.9,2-1.9,3.1-2.9
	C12,7.7,12.9,7,13.7,6.3C13,7,12.3,7.6,11.6,8.3C10.4,9.4,9.2,10.4,8.1,11.4z M8.2,12c0.7-0.8,1.5-1.6,2.5-2.5
	c0.8-0.7,1.7-1.3,2.4-1.8c-0.7,0.6-1.3,1.2-2,1.7C10.2,10.3,9.2,11.1,8.2,12z M13.1,8.5c-0.9,0.8-1.7,1.5-2.5,2.1
	c-0.7,0.6-1.3,1.1-2,1.6c0.7-0.7,1.4-1.4,2.2-2.1c0.6-0.5,1.2-1,1.8-1.5c0.6-0.5,1.3-1,1.9-1.5C14.1,7.6,13.6,8.1,13.1,8.5z
	 M12.8,8.5c-0.1,0-0.1,0.1-0.2,0.1c0,0-0.1,0.1-0.1,0.1c-0.8,0.7-1.5,1.4-2.2,2.1c0.1-0.1,0.2-0.2,0.3-0.2c0.3-0.2,0.6-0.5,0.8-0.7
	C11.9,9.4,12.4,9,12.8,8.5z M12.6,8.7c0,0-0.1,0.1-0.1,0.1c-0.8,0.7-1.5,1.4-2.2,2.1c0.1-0.1,0.2-0.2,0.3-0.2
	c0.3-0.2,0.6-0.5,0.8-0.7c0.5-0.4,0.9-0.9,1.4-1.3C12.8,8.6,12.7,8.6,12.6,8.7z M12.6,8.7c0,0-0.1,0.1-0.1,0.1
	c-0.8,0.7-1.5,1.4-2.2,2.1c0.1-0.1,0.2-0.2,0.3-0.2c0.3-0.2,0.6-0.5,0.8-0.7c0.5-0.4,0.9-0.9,1.4-1.3C12.8,8.6,12.7,8.6,12.6,8.7z
	 M12.6,8.7c0,0-0.1,0.1-0.1,0.1c-0.8,0.7-1.5,1.4-2.2,2.1c0.1-0.1,0.2-0.2,0.3-0.2c0.3-0.2,0.6-0.5,0.8-0.7c0.5-0.4,0.9-0.9,1.4-1.3
	C12.8,8.6,12.7,8.6,12.6,8.7z M12.6,8.7c0,0-0.1,0.1-0.1,0.1c-0.8,0.7-1.5,1.4-2.2,2.1c0.1-0.1,0.2-0.2,0.3-0.2
	c0.3-0.2,0.6-0.5,0.8-0.7c0.5-0.4,0.9-0.9,1.4-1.3C12.8,8.6,12.7,8.6,12.6,8.7z M12.6,8.7c0,0-0.1,0.1-0.1,0.1
	c-0.8,0.7-1.5,1.4-2.2,2.1c0.1-0.1,0.2-0.2,0.3-0.2c0.3-0.2,0.6-0.5,0.8-0.7c0.5-0.4,0.9-0.9,1.4-1.3C12.8,8.6,12.7,8.6,12.6,8.7z
	 M12.6,8.7c0,0-0.1,0.1-0.1,0.1c-0.8,0.7-1.5,1.4-2.2,2.1c0.1-0.1,0.2-0.2,0.3-0.2c0.3-0.2,0.6-0.5,0.8-0.7c0.5-0.4,0.9-0.9,1.4-1.3
	C12.8,8.6,12.7,8.6,12.6,8.7z M12.6,8.7c0,0-0.1,0.1-0.1,0.1c-0.8,0.7-1.5,1.4-2.2,2.1c0.1-0.1,0.2-0.2,0.3-0.2
	c0.3-0.2,0.6-0.5,0.8-0.7c0.5-0.4,0.9-0.9,1.4-1.3C12.8,8.6,12.7,8.6,12.6,8.7z M12.6,8.7c0,0-0.1,0.1-0.1,0.1
	c-0.8,0.7-1.5,1.4-2.2,2.1c0.1-0.1,0.2-0.2,0.3-0.2c0.3-0.2,0.6-0.5,0.8-0.7c0.5-0.4,0.9-0.9,1.4-1.3C12.8,8.6,12.7,8.6,12.6,8.7z"
	/>
</svg>
