<?xml version="1.0" encoding="utf-8"?>
<!-- Generator: Adobe Illustrator 23.0.0, SVG Export Plug-In . SVG Version: 6.00 Build 0)  -->
<svg version="1.1" id="Layer_1" xmlns="http://www.w3.org/2000/svg" xmlns:xlink="http://www.w3.org/1999/xlink" x="0px" y="0px"
	 viewBox="0 0 16 16" style="enable-background:new 0 0 16 16;" xml:space="preserve">
<style type="text/css">
	.st0{fill:#F75049;}
</style>
<g transform="translate(-592,-52)">
	<path class="st0" d="M593.1,54.4c-0.4,0.2-0.7,0.6-0.8,1c-0.2,0.4-0.2,1-0.2,1.6v0.4c0.3-0.3,0.7-0.6,1-1c0-0.1,0-0.3,0-0.4
		c0-0.8,0.2-1,0.8-1h0.3c0.1,0,0.3,0,0.4,0c0.4-0.3,0.8-0.7,1.2-1C594.6,54,593.8,54,593.1,54.4z M594.9,62.7c0,0.1-0.1,0.1-0.2,0.2
		c-0.4,0.4-0.8,0.8-1.2,1.1c0.1,0,0.2,0,0.3,0h0.3c0.7,0,0.8,0.2,0.8,1s-0.2,1-0.8,1h-0.3c-0.7,0-0.8-0.2-0.8-1c0-0.2,0-0.4,0.1-0.6
		c0-0.1,0.1-0.2,0.1-0.2c0.3-0.4,0.7-0.8,1.1-1.2h-0.4c-0.5,0-0.7-0.1-0.8-0.4c-0.4,0.3-0.7,0.7-1.1,1V64c0,0.7,0.1,1.2,0.2,1.6
		c0.2,0.4,0.5,0.8,0.8,1c0.3,0.2,0.7,0.3,1.1,0.3c0.6-0.6,1.2-1.2,1.8-1.8v-3.5C595.6,62,595.3,62.4,594.9,62.7z M594.7,61.1
		c0.3,0.1,0.3,0.4,0.3,0.9c0,0,0,0.1,0,0.2c0.3-0.4,0.7-0.7,1-1.1v-1.3C595.5,60.2,595.1,60.7,594.7,61.1z M594.4,58
		c0.5,0,0.6,0.3,0.6,1v0c0.4-0.4,0.7-0.7,1-1.1v-1.3C595.5,57.1,594.9,57.6,594.4,58z M593.8,60c-0.6,0-0.8-0.2-0.8-0.9
		c-0.3,0.3-0.7,0.5-1,0.8v2.3c0.3-0.3,0.5-0.6,0.8-0.9c0.5-0.5,0.9-0.9,1.3-1.3H593.8z M597.9,66c-0.4,0.3-0.8,0.7-1.2,1h1.7
		c0.4-0.3,0.7-0.7,1.1-1H597.9z M599,54c-0.4,0.3-0.7,0.7-1.1,1h1.1c0.4-0.3,0.7-0.7,1.1-1H599z M604,54L604,54
		c-0.4,0.3-0.7,0.7-1.1,1h1.1c0.2,0,0.4,0,0.6,0c0.4-0.3,0.8-0.7,1.2-1C605.3,54,604.7,54,604,54z M606.9,54.4
		c-0.2-0.1-0.4-0.2-0.6-0.2c-0.3,0.3-0.5,0.5-0.8,0.7c-0.1,0-0.1,0.1-0.2,0.1c0.5,0,0.9,0.1,1.1,0.2c0.1,0.1,0.2,0.1,0.3,0.3
		c0.3-0.2,0.5-0.4,0.8-0.6C607.4,54.7,607.2,54.5,606.9,54.4z M607.8,55.4c0-0.1-0.1-0.2-0.2-0.3c-0.3,0.3-0.5,0.5-0.8,0.7
		C607,56,607,56.5,607,57v0.8c0.3-0.2,0.7-0.5,1-0.7V57C608,56.3,607.9,55.8,607.8,55.4z M607,59.8L607,59.8c0.1,0,0.1-0.1,0.2-0.2
		C607.1,59.7,607.1,59.7,607,59.8z M607,58v1.7c0.3-0.3,0.7-0.6,1-0.9v-1.8C607.7,57.4,607.3,57.7,607,58z M607.9,63.6
		c-0.3,0.5-0.6,0.9-0.9,1.2v0c0,0.2-0.1,0.4-0.1,0.5c-0.1,0.3-0.2,0.4-0.4,0.5c-0.1,0.1-0.3,0.1-0.6,0.2h0c-0.4,0.1-1.1,0.1-1.8,0.1
		h-3.7c-0.4,0.3-0.8,0.7-1.2,1h4.8c0.3,0,0.7,0,1,0c0.8,0,1.4-0.1,2-0.4c0.4-0.2,0.7-0.6,0.8-1c0.2-0.4,0.2-1,0.2-1.6v-0.7
		C607.9,63.4,607.9,63.5,607.9,63.6z M607,60.5v3.4c0.4-0.3,0.8-0.7,1-0.9v-3.4C607.7,59.9,607.3,60.2,607,60.5z M602.1,54
		c-0.3,0.3-0.7,0.7-1.1,1h1.2c0.4-0.3,0.8-0.7,1.1-1H602.1z M596,66v-0.5c-0.6,0.5-1.1,1-1.7,1.5c0.5,0,1,0,1.7,0h0.1
		c0.3-0.3,0.6-0.7,1-1H596z M596.5,54c-0.5,0.5-1.1,0.9-1.6,1.4c0,0.1,0.1,0.3,0.1,0.6c0,0.8-0.2,1-0.8,1h-0.3c-0.3,0-0.5,0-0.6-0.2
		c-0.4,0.3-0.8,0.7-1.2,1v1.8c0.3-0.3,0.7-0.6,1-1c0-0.5,0.2-0.7,0.7-0.7c0.7-0.7,1.5-1.4,2.3-2.1V55h1.1c0.1-0.1,0.3-0.2,0.4-0.3
		c0.3-0.2,0.5-0.5,0.8-0.7H596.5z"/>
</g>
<path class="st0" d="M15.2,7.6c-0.1,0.1-0.1,0.1-0.2,0.2v0C15.1,7.7,15.1,7.7,15.2,7.6z"/>
<path class="st0" d="M15.2,7.6c-0.1,0.1-0.1,0.1-0.2,0.2v0C15.1,7.7,15.1,7.7,15.2,7.6z"/>
<path class="st0" d="M15.2,7.6c-0.1,0.1-0.1,0.1-0.2,0.2v0C15.1,7.7,15.1,7.7,15.2,7.6z"/>
<path class="st0" d="M15.2,7.6c-0.1,0.1-0.1,0.1-0.2,0.2v0C15.1,7.7,15.1,7.7,15.2,7.6z"/>
<path class="st0" d="M15.2,7.6c-0.1,0.1-0.1,0.1-0.2,0.2v0C15.1,7.7,15.1,7.7,15.2,7.6z"/>
<path class="st0" d="M15.2,7.6c-0.1,0.1-0.1,0.1-0.2,0.2v0C15.1,7.7,15.1,7.7,15.2,7.6z"/>
<path class="st0" d="M15.2,7.6c-0.1,0.1-0.1,0.1-0.2,0.2v0C15.1,7.7,15.1,7.7,15.2,7.6z"/>
<path class="st0" d="M15.2,7.6c-0.1,0.1-0.1,0.1-0.2,0.2v0C15.1,7.7,15.1,7.7,15.2,7.6z"/>
<path class="st0" d="M15.2,7.6c-0.1,0.1-0.1,0.1-0.2,0.2v0C15.1,7.7,15.1,7.7,15.2,7.6z"/>
<path class="st0" d="M15.2,7.6c-0.1,0.1-0.1,0.1-0.2,0.2v0C15.1,7.7,15.1,7.7,15.2,7.6z"/>
<path class="st0" d="M1.1,2.4c-0.4,0.2-0.7,0.6-0.8,1C0.1,3.8,0,4.3,0,5v0.4c0.3-0.3,0.7-0.6,1-1C1,4.3,1,4.2,1,4c0-0.8,0.2-1,0.8-1
	h0.3c0.1,0,0.3,0,0.4,0c0.4-0.3,0.8-0.7,1.2-1C2.6,2,1.8,2,1.1,2.4z M7,2C6.6,2.3,6.3,2.7,5.9,3H7c0.4-0.3,0.7-0.7,1.1-1H7z M4.5,2
	C4,2.5,3.5,2.9,2.9,3.4C3,3.5,3,3.7,3,4c0,0.8-0.2,1-0.8,1H1.8C1.5,5,1.3,5,1.2,4.8C0.8,5.2,0.4,5.5,0,5.8v1.8c0.3-0.3,0.7-0.6,1-1
	C1.1,6.2,1.2,6,1.7,6C2.5,5.3,3.2,4.6,4,3.9V3h1.1c0.1-0.1,0.3-0.2,0.4-0.3C5.7,2.4,6,2.2,6.2,2H4.5z M1.8,8C1.2,8,1,7.8,1,7.1
	C0.7,7.4,0.3,7.6,0,7.9v2.3c0.3-0.3,0.5-0.6,0.8-0.9C1.3,8.8,1.7,8.4,2.1,8H1.8z M2.4,6C2.9,6,3,6.3,3,7v0C3.4,6.6,3.7,6.3,4,6V4.7
	C3.5,5.1,2.9,5.6,2.4,6z"/>
<path class="st0" d="M4,7.8v1.3c-0.3,0.4-0.7,0.7-1,1.1C3,10.1,3,10,3,10c0-0.5-0.1-0.8-0.3-0.9C3.1,8.7,3.5,8.2,4,7.8z"/>
<path class="st0" d="M4,9.7v3.5c-0.6,0.6-1.2,1.2-1.8,1.8c-0.4,0-0.8-0.1-1.1-0.3c-0.4-0.2-0.7-0.6-0.8-1C0.1,13.2,0,12.7,0,12v-0.4
	c0.3-0.3,0.7-0.7,1.1-1C1.2,10.9,1.4,11,1.8,11h0.4c-0.4,0.4-0.7,0.8-1.1,1.2c0,0.1-0.1,0.1-0.1,0.2C1,12.6,1,12.8,1,13
	c0,0.8,0.2,1,0.8,1h0.3C2.8,14,3,13.8,3,13s-0.2-1-0.8-1H1.8c-0.1,0-0.2,0-0.3,0c0.4-0.4,0.8-0.8,1.2-1.1c0.1-0.1,0.1-0.1,0.2-0.2
	C3.3,10.4,3.6,10,4,9.7z"/>
<path class="st0" d="M5.1,14c-0.3,0.3-0.7,0.7-1,1H4c-0.6,0-1.2,0-1.7,0c0.6-0.5,1.1-1,1.7-1.5V14H5.1z"/>
<path class="st0" d="M7.5,14c-0.4,0.3-0.7,0.7-1.1,1H4.8c0.4-0.3,0.8-0.7,1.2-1H7.5z"/>
<path class="st0" d="M10.3,3H9.1c0.4-0.3,0.7-0.7,1.1-1h1.3C11,2.3,10.6,2.7,10.3,3z"/>
<path class="st0" d="M12,3h-1.1c0.3-0.3,0.7-0.7,1-1H12c0.7,0,1.3,0,1.8,0c-0.4,0.3-0.8,0.6-1.2,1C12.4,3,12.2,3,12,3z"/>
<path class="st0" d="M14.5,3.3c-0.2-0.1-0.6-0.2-1.1-0.2c0.1,0,0.1-0.1,0.2-0.1c0.3-0.3,0.5-0.5,0.8-0.7c0.2,0.1,0.4,0.1,0.6,0.2
	c0.2,0.1,0.4,0.3,0.6,0.5c-0.3,0.2-0.5,0.4-0.8,0.6C14.7,3.4,14.6,3.3,14.5,3.3z"/>
<path class="st0" d="M16,5v0.1c-0.3,0.2-0.7,0.4-1,0.7V5c0-0.5,0-1-0.1-1.2c0.3-0.2,0.5-0.5,0.8-0.7c0.1,0.1,0.1,0.2,0.2,0.3
	C15.9,3.8,16,4.3,16,5z"/>
<path class="st0" d="M16.2,5C16.1,5,16,5.1,16,5.1v0C16,5.1,16.1,5,16.2,5z"/>
<path class="st0" d="M12,14c0.8,0,1.4,0,1.8-0.1c-0.3,0.3-0.6,0.6-0.9,1.1c-0.3,0-0.6,0-1,0H7.2c0.4-0.3,0.8-0.7,1.2-1H12z"/>
<path class="st0" d="M15,7.8L15,7.8c0.1-0.1,0.1-0.1,0.2-0.2C15.1,7.7,15.1,7.8,15,7.8z"/>
<path class="st0" d="M16,5.1v1.8c-0.3,0.3-0.7,0.6-1,0.9V6C15.3,5.7,15.7,5.4,16,5.1z"/>
<path class="st0" d="M15,8.5c0.3-0.3,0.7-0.6,1-0.9v2.3c-0.4,0.3-0.7,0.5-1,0.7V8.5z"/>
<path class="st0" d="M1.2,12.2c0,0.1-0.1,0.1-0.1,0.2c-0.2,0.2-0.4,0.3-0.6,0.5C0.7,12.7,0.9,12.5,1.2,12.2z"/>
<path class="st0" d="M16.2,5C16.1,5,16,5.1,16,5.1v0C16,5.1,16.1,5,16.2,5z"/>
<path class="st0" d="M15,7.8L15,7.8c0.1-0.1,0.1-0.1,0.2-0.2C15.1,7.7,15.1,7.8,15,7.8z"/>
<path class="st0" d="M15.2,7.6c-0.1,0.1-0.1,0.1-0.2,0.2v0C15.1,7.7,15.1,7.7,15.2,7.6z"/>
<path class="st0" d="M15.2,7.6c-0.1,0.1-0.1,0.1-0.2,0.2v0C15.1,7.7,15.1,7.7,15.2,7.6z"/>
<path class="st0" d="M15.2,7.6c-0.1,0.1-0.1,0.1-0.2,0.2v0C15.1,7.7,15.1,7.7,15.2,7.6z"/>
<path class="st0" d="M15.2,7.6c-0.1,0.1-0.1,0.1-0.2,0.2v0C15.1,7.7,15.1,7.7,15.2,7.6z"/>
<path class="st0" d="M15.2,7.6c-0.1,0.1-0.1,0.1-0.2,0.2v0C15.1,7.7,15.1,7.7,15.2,7.6z"/>
<path class="st0" d="M15.2,7.6c-0.1,0.1-0.1,0.1-0.2,0.2v0C15.1,7.7,15.1,7.7,15.2,7.6z"/>
<path class="st0" d="M15.2,7.6c-0.1,0.1-0.1,0.1-0.2,0.2v0C15.1,7.7,15.1,7.7,15.2,7.6z"/>
<path class="st0" d="M15.2,7.6c-0.1,0.1-0.1,0.1-0.2,0.2v0C15.1,7.7,15.1,7.7,15.2,7.6z"/>
<path class="st0" d="M15.2,7.6c-0.1,0.1-0.1,0.1-0.2,0.2v0C15.1,7.7,15.1,7.7,15.2,7.6z"/>
</svg>
