<?xml version="1.0" encoding="utf-8"?>
<!-- Generator: Adobe Illustrator 23.0.0, SVG Export Plug-In . SVG Version: 6.00 Build 0)  -->
<svg version="1.1" id="Layer_1" xmlns="http://www.w3.org/2000/svg" xmlns:xlink="http://www.w3.org/1999/xlink" x="0px" y="0px"
	 viewBox="0 0 256 256" style="enable-background:new 0 0 256 256;" xml:space="preserve">
<style type="text/css">
	.st0{fill:#F75049;}
</style>
<path class="st0" d="M182,34.4c-1.5,1.5-3,3-4.6,4.5c-1.1,1.1-2.2,2.2-3.4,3.3c-5,4.8-10.1,9.6-15.3,14.5
	c-20,18.3-39.7,34.5-58.6,48.8c14-13.9,29.3-28.3,46-42.8c8.3-7.2,16.5-14,24.5-20.5c1.4-1.1,2.7-2.2,4.1-3.3c1.9-1.5,3.8-3,5.7-4.5
	H135c-1.4,1.5-2.8,3-4.2,4.5c-1,1.1-2.1,2.2-3.1,3.3C115.9,54.8,104,66.3,92.4,77c7.1-10.5,16.3-22.5,28.2-34.7
	c0.8-0.8,1.5-1.6,2.3-2.3c0.3-0.3,0.6-0.6,0.9-0.9c1.6-1.6,3.1-3.1,4.7-4.5h-10.2c-1.5,1.5-3.1,3-4.6,4.5c-1.1,1.1-2.2,2.2-3.3,3.3
	C93.1,59.5,76.4,76.7,60.4,93.7c12.8-16.2,28-33.7,46.2-51.5c0.8-0.8,1.6-1.6,2.5-2.4c0.3-0.3,0.6-0.6,0.9-0.9
	c1.6-1.5,3.2-3,4.8-4.5H96.5c-1.1,1.3-2.4,2.8-4,4.5c-0.9,1-1.9,2.1-3.1,3.3c-9.7,10.1-27,26.8-57.2,54c22.4-23.6,39-41.2,51-54
	c1-1.1,2.1-2.2,3.1-3.3c1.5-1.6,2.9-3.1,4.2-4.5H69.2c-1.5,1.6-3.1,3.1-4.6,4.5c-1.2,1.1-2.4,2.2-3.6,3.3c-1.1,1-2.2,1.9-3.3,2.8
	c0.7-0.9,1.5-1.9,2.2-2.8c0.9-1.1,1.8-2.2,2.7-3.3c1.2-1.5,2.5-3,3.9-4.5h-51c-1.9,0-3.4,1.4-3.4,3.1v29.2c1.1-1.4,2.3-2.8,3.5-4.3
	c0.2-0.2,0.4-0.5,0.6-0.7c0.1,1.3,0.3,2.5,0.5,3.8c-0.4,0.3-0.7,0.6-1.1,0.9c-1.2,1-2.3,2.1-3.5,3.1v80.5c1.2,0.7,2.4,1.3,3.5,2
	c1.4,0.8,2.7,1.7,3.8,2.5c3,2.3,5.1,4.7,5.3,7.5c0.1,3-2,3.5-1.9,7.5c0,0.2,0,0.4,0,0.6c0.2,2.4,1.1,5.5,3,6.9
	c0.3,0.2,0.6,0.4,1,0.5c1.4,0.5,2.4,0,3.6-0.5c1-0.4,2.3-0.9,4-0.7c1.1,0.1,1.9,0.4,2.5,0.7c1.8,1,2.6,2.5,5,2.6
	c2.4,0.1,4-1.3,5.5-2.6c1.5-1.2,2.9-2.4,4.8-2c1.3,0.3,1.8,1.1,2.7,2c0.5,0.6,1.2,1.1,2.3,1.5c2.5,0.9,5,0.3,6.8-0.3
	c0.4-0.4,0.8-0.8,1.2-1.2c2.1-2.1,4.3-4.4,6.8-6.9c12.9-13.3,30.3-31.2,50.7-52.8c20.7-21.9,26.2-28.2,37.8-39.1
	c14.7-14,29.7-26.6,42.1-36.2c1.5-1.1,2.9-2.2,4.3-3.3c2.1-1.6,4.2-3.1,6.1-4.5H182z M68.9,47.5c1.9-1.6,3.8-3,5.5-4
	c-1.1,1.6-2.3,3.3-3.7,5c-4,4.8-8.2,8.4-11.9,11C60.9,56.1,64,51.6,68.9,47.5z M19.5,146.3c-0.1-0.1-0.2-0.2-0.3-0.3
	c-1.2-1.3-2.3-2.4-2-3.6c0.2-1,1.2-1.4,2.3-2c0.2-0.1,0.3-0.2,0.5-0.3c1.5-0.9,3.6-2.6,5.4-5.8c-0.1,2.5-0.8,4.2-1.3,5.4
	c-0.6,1.3-1.5,2.4-1.1,3.3c0.4,0.7,1.1,0.5,1.7,1.2c0.7,0.9,0.2,2,0,3.3c-0.5,3.4,1.7,5.7,1.2,6C25.3,153.8,23.8,151,19.5,146.3z
	 M191,42.2c-7.4,7.3-15.1,14.7-23.1,22.1c-20,18.3-39.7,34.5-58.6,48.8c14-14,29.3-28.3,46-42.8c11.6-10,23-19.4,34.2-28.1
	c1.4-1.1,2.8-2.2,4.2-3.3c0.8-0.7,1.7-1.3,2.5-2c-0.6,0.7-1.3,1.3-1.9,2C193.2,40,192.1,41.1,191,42.2z M243.6,36.3
	c-0.1-0.2-0.2-0.4-0.3-0.5c-0.1-0.1-0.1-0.2-0.2-0.2c-0.6-0.7-1.5-1.1-2.6-1.1h-19.4c-1.4,1.4-2.9,2.9-4.6,4.5
	c-1.1,1-2.2,2.1-3.4,3.3c-10.9,10.5-27.7,26.3-52.1,49.5c-33.5,31.8-61.7,58.8-82.3,78.6c-2.5,2.4-4.9,4.7-7.2,6.9
	c-0.2,0.2-0.5,0.4-0.7,0.7c-0.1,4.3,1.1,5.8,2.1,6.4c2.7,1.7,6.2-2.2,9.6-0.1c1.2,0.7,3.3,2.7,4.1,5.5c0.5,1.7,0.2,3.1,0.9,4.3
	c0.1,0.3,0.3,0.5,0.5,0.7c0.8,0.9,1.4,0.5,2.4,1.4c2.3,2.1,1.3,4.3,3.2,6c2,1.8,4.8,0.6,5.5,2.2c0.5,1-0.6,1.7-0.3,3.3
	c0.2,0.9,0.7,1.3,1.1,1.7c0.3-0.3,0.4-0.5,0.6-0.7c1-1.7,1.6-8,1.8-12.1h51.1c0-0.1,0-0.2,0-0.3c0.2,4.1,0.8,10.7,1.8,12.4
	c0.1,0.2,0.3,0.5,0.6,0.7c5.5-4.2,11.5-9.8,17.3-15.4c1-0.9,1.9-1.9,2.9-2.8c7.3-7,10.1-11,13.5-14.1c1.5-1.3,3-2.4,5.1-3.5
	c1-0.5,3-1.5,5.3-3.4c0.2-0.2,0.5-0.4,0.7-0.6c4-3.6,5.3-7.2,7-10.5c5.2-10,10.7-10.3,21.3-25.9c0.5-0.7,2.8-4.1,2.3-4.6
	c-1.2-1.1-14.8,14.5-18.2,12.2c-0.9-0.6-0.7-2.4-0.7-3.2c0.8-7.4,10.5-10,24-21.6c0,0,0.1-0.1,0.1-0.1c2.5-2.2,2.6-2.5,3.9-3.7v-17
	c-1.3,1.3-2.7,2.5-4,3.8c-1.8,1.7-3.7,3.5-5.6,5.2c-15.3,14.1-30.5,26.9-45.2,38.5c2.7-2.4,5.4-4.9,8.1-7.4
	c10-9.2,19.4-18.3,28.4-27.3c-1.2,1-2.5,1.9-3.7,2.9c-0.8,0.6-1.5,1.3-2.3,1.9c-16.2,14.1-31.1,28-44.7,41.5
	c-6.5,5.5-13,10.8-19.4,15.8c-3,2.3-5.9,4.6-8.8,6.9c-1.9,1.5-3.9,3-5.8,4.5c1.5-1.5,3-3,4.5-4.5c2.3-2.3,4.7-4.6,7.1-6.9
	c10.7-10.3,22.2-20.8,34.4-31.4c12.6-10.9,25.1-21.1,37.2-30.5c5.3-4.6,10.6-9,15.9-13.4c1.3-1.1,2.7-2.2,4-3.3
	c1.1-0.9,2.2-1.8,3.3-2.7h0V37.5C243.8,37.1,243.8,36.7,243.6,36.3z M241.1,44.6c-0.2,0.2-0.4,0.4-0.6,0.6c-1.3,1.3-2.7,2.7-4,4
	c-7.6,7.5-15.5,15.1-23.8,22.8c-20,18.3-39.7,34.5-58.6,48.8c14-13.9,29.3-28.3,46-42.8c12.3-10.7,24.5-20.6,36.3-29.8
	c1.3-1,2.7-2.1,4-3.1C240.7,44.9,240.9,44.8,241.1,44.6z M185.5,76.2c11.3-10.2,22.4-19.6,33.3-28.4c-12.2,12.4-24.4,24.7-36.6,37.1
	c-20.6,19.5-41.3,38.9-61.9,58.3C138.8,121.7,160.3,98.9,185.5,76.2z M189.8,123.3c-17.9,15.7-35.8,31.3-53.8,47
	c-2.5,2.2-5,4.4-7.6,6.6c1.9-2.2,3.8-4.4,5.8-6.6c12.9-14.5,28.3-30.1,46.6-45.7c17.7-15.1,34.8-27.5,50.4-37.6
	C217.3,99.1,203.6,111.2,189.8,123.3z M240.5,60.9c-1.3,1.3-2.7,2.6-4,3.8c-12.3,11.6-24.9,23.3-37.8,35
	c-24.8,22.6-49.4,44-73.6,64.4c19.9-19.6,41.3-39.7,64.1-59.9c16-14.2,31.8-27.6,47.3-40.3c1.3-1.1,2.7-2.2,4-3.3
	c0.6-0.5,1.2-1,1.9-1.5C241.8,59.7,241.2,60.3,240.5,60.9z"/>
<path class="st0" d="M168.8,217.9v1.7H87.1v-1.7c0,0,10.1-5.6,13-8.5c0.3-0.3,0.4-0.5,0.6-0.7c1-1.7,1.6-8,1.8-12.1h51.1
	c0-0.1,0-0.2,0-0.3c0.2,4.1,0.8,10.7,1.8,12.4c0.1,0.2,0.3,0.5,0.6,0.7C158.8,212.3,168.8,217.9,168.8,217.9z"/>
<polygon class="st0" points="241.1,159.1 241.1,196.3 12.2,196.3 12.2,159.1 17.6,159.1 17.6,188.7 235.6,188.7 235.6,159.1 "/>
</svg>
