<?xml version="1.0" encoding="utf-8"?>
<!-- Generator: Adobe Illustrator 23.0.0, SVG Export Plug-In . SVG Version: 6.00 Build 0)  -->
<svg version="1.1" id="Layer_1" xmlns="http://www.w3.org/2000/svg" xmlns:xlink="http://www.w3.org/1999/xlink" x="0px" y="0px"
	 viewBox="0 0 256 256" style="enable-background:new 0 0 256 256;" xml:space="preserve">
<style type="text/css">
	.st0{opacity:0.8;fill:#0E0E17;}
	.st1{fill:#0E0E17;}
	.st2{fill:none;stroke:#F75049;stroke-miterlimit:10;}
	.st3{fill:#CBA6F7;}
	.st4{fill:#F75049;}
</style>
<g>
	<g>
		<path class="st0" d="M218.1,40.1h-67.5c-6.8-6.3-13.6-12.7-20.4-19.1H37.7c-2.3,2.2-4.6,4.5-6.9,6.7v200.1l8,8h160.9
			c9-9.8,17.9-19.7,26.8-29.5V46.8C223.7,44.6,220.9,42.4,218.1,40.1z M218.3,168c-2.7,3.4-5.4,7-8.1,10.4v40.6
			c-2.6,2.6-5.3,5.1-7.9,7.7H48.9c-2.6-2.6-5.2-5.2-7.8-7.9v-40.4c-2.6-3.4-5.3-7-7.9-10.4V95.5c2.6-2.3,5.3-4.5,7.9-6.8V50.3
			c2.6-2.6,5.2-5.3,7.8-7.9h153.3c2.7,2.7,5.3,5.4,8,8.1v38.3c2.6,2.2,5.3,4.5,8,6.8V168z"/>
		<path class="st1" d="M218.1,40.1h-67.5c-6.8-6.3-13.6-12.7-20.4-19.1H37.7c-2.3,2.2-4.6,4.5-6.9,6.7v200.1l8,8h160.9
			c9-9.8,17.9-19.7,26.8-29.5V46.8C223.7,44.6,220.9,42.4,218.1,40.1z M218.3,168c-2.7,3.4-5.4,7-8.1,10.4v40.6
			c-2.6,2.6-5.3,5.1-7.9,7.7H48.9c-2.6-2.6-5.2-5.2-7.8-7.9v-40.4c-2.6-3.4-5.3-7-7.9-10.4V95.5c2.6-2.3,5.3-4.5,7.9-6.8V50.3
			c2.6-2.6,5.2-5.3,7.8-7.9h153.3c2.7,2.7,5.3,5.4,8,8.1v38.3c2.6,2.2,5.3,4.5,8,6.8V168z"/>
		<g>
			<path class="st1" d="M218.3,95.7V168c-2.7,3.4-5.4,7-8.1,10.4v40.6c-2.6,2.6-5.3,5.1-7.9,7.7H48.9c-2.6-2.6-5.2-5.2-7.8-7.9
				v-40.4c-2.6-3.4-5.3-7-7.9-10.4V95.5c2.6-2.3,5.3-4.5,7.9-6.8V50.3c2.6-2.6,5.2-5.3,7.8-7.9h153.3c2.7,2.7,5.3,5.4,8,8.1v38.3
				C212.9,91.1,215.6,93.4,218.3,95.7z"/>
		</g>
	</g>
	<path class="st2" d="M218.1,40.1h-67.5c-6.8-6.3-13.6-12.7-20.4-19.1H37.7c-2.3,2.2-4.6,4.5-6.9,6.7v200.1l8,8h160.9
		c9-9.8,17.9-19.7,26.8-29.5V46.8C223.7,44.6,220.9,42.4,218.1,40.1z M218.3,168c-2.7,3.4-5.4,7-8.1,10.4v40.6
		c-2.6,2.6-5.3,5.1-7.9,7.7H48.9c-2.6-2.6-5.2-5.2-7.8-7.9v-40.4c-2.6-3.4-5.3-7-7.9-10.4V95.5c2.6-2.3,5.3-4.5,7.9-6.8V50.3
		c2.6-2.6,5.2-5.3,7.8-7.9h153.3c2.7,2.7,5.3,5.4,8,8.1v38.3c2.6,2.2,5.3,4.5,8,6.8V168z"/>
</g>
<path class="st3" d="M144,135.6c5.5-4.6,10.9-9.1,15.5-13.7L144,135.6z M166.8,128.3c-4.6,4.6-9.1,9.1-14.6,13.7
	c-21,19.1-42.8,37.4-62.9,54.7c17.3-16.4,35.5-33.7,54.7-51c7.3-6.4,14.6-12.8,21.9-18.2l-5.5-5.5L144,135.6l-22.8,25.5l6.4-11.8
	c-4.6,3.6-9.1,7.3-13.7,10.9c5.5-5.5,10-10.9,16.4-16.4l7.3-14.6c-18.2,17.3-35.5,33.7-52.8,50.1c15.5-18.2,32.8-36.4,53.8-55.6
	l-2.7-4.6c-4.6,5.5-10,10-16.4,15.5c-18.2,17.3-34.6,32.8-48.3,46.5c7.3,9.1,15.5,16.4,26.4,21c10.9-12.8,23.7-25.5,39.2-39.2
	c12.8-10.9,24.6-20,36.4-27.3L166.8,128.3z M178.6,142l-5.5-5.5c-10,9.1-19.1,17.3-29.2,25.5c-15.5,13.7-31,27.3-46.5,41
	c2.7,0.9,5.5,2.7,8.2,2.7c10-10,21-20,32.8-30.1c10-9.1,20-17.3,30.1-24.6c-14.6,12.8-27.3,24.6-39.2,36.4c1.8-0.9,3.6-2.7,5.5-4.6
	c4.6-4.6,10-9.1,14.6-13.7c8.2-8.2,16.4-15.5,24.6-23.7c-0.9,0.9-1.8,1.8-2.7,2.7C173.2,146.6,175.9,144.7,178.6,142z M200.5,125.6
	c-3.6,3.6-7.3,7.3-11.8,11.8c0,4.6-0.9,10-1.8,14.6l-6.4-7.3l-0.9,0.9c-15.5,13.7-30.1,26.4-44.6,37.4c-9.1,8.2-18.2,15.5-27.3,22.8
	c6.4,2.7,13.7,3.6,21,3.6c5.5,0,10.9-0.9,16.4-1.8c0.9-0.9,1.8-1.8,3.6-1.8c0.9,0,2.7-1.8,5.5-3.6c3.6-2.7,4.6-6.4,6.4-9.1
	c4.6-8.2,9.1-9.1,18.2-21.9c0-0.9,2.7-3.6,1.8-3.6c-0.9-0.9-12.8,12.8-15.5,10c-0.9-0.9-0.9-1.8-0.9-2.7c0.9-6.4,9.1-8.2,21-18.2
	c2.7-2.7,1.8-1.8,5.5-5.5s8.2-6.4,11.8-9.1c0-1.8,0-3.6,0-5.5C201.4,132.9,201.4,129.2,200.5,125.6z M144,135.6
	c5.5-4.6,10.9-9.1,15.5-13.7L144,135.6z M144,135.6c5.5-4.6,10.9-9.1,15.5-13.7L144,135.6z M178.6,102.8l0.9,0.9
	c2.7-2.7,6.4-6.4,9.1-9.1C185,97.4,181.4,100.1,178.6,102.8z M67.5,146.6l0.9-0.9l0,0L67.5,146.6z M178.6,102.8l0.9,0.9
	c2.7-2.7,6.4-6.4,9.1-9.1C185,97.4,181.4,100.1,178.6,102.8z M67.5,146.6l0.9-0.9l0,0L67.5,146.6z M187.7,94.6
	c-3.6-4.6-7.3-9.1-11.8-13.7c-1.8,1.8-4.6,4.6-9.1,9.1c4.6,3.6,8.2,8.2,11.8,12.8l0.9,0.9c1.8,2.7,2.7,5.5,4.6,8.2
	c1.8-1.8,3.6-3.6,5.5-4.6c-1.8,1.8-3.6,3.6-5.5,5.5c2.7,6.4,4.6,13.7,4.6,21.9c3.6-2.7,7.3-6.4,11.8-9.1
	C198.7,113.8,194.1,103.7,187.7,94.6z M65.7,100.1c2.7-2.7,6.4-6.4,9.1-10c7.3-7.3,14.6-13.7,21-19.1C83,77.3,72.9,87.3,65.7,100.1z
	 M130.3,110.1l-15.5,18.2c0.9-1.8,2.7-2.7,4.6-4.6c4.6-3.6,8.2-8.2,12.8-11.8L130.3,110.1z M128.5,63.7c-10,0-20,1.8-29.2,6.4
	c-4.6,4.6-10,9.1-14.6,13.7C77.5,91,69.3,99.2,62,107.4c-4.6,9.1-6.4,18.2-6.4,29.2c0,14.6,4.6,29.2,11.8,40.1
	c2.7-2.7,5.5-6.4,9.1-9.1c-3.6-6.4-6.4-13.7-8.2-21.9l0,0l0,0c0-2.7-0.9-5.5-0.9-9.1c0-10,2.7-19.1,6.4-27.3
	c-4.6,4.6-9.1,9.1-13.7,12.8c6.4-9.1,14.6-21,26.4-31.9c9.1-9.1,18.2-16.4,25.5-21.9c-3.6,5.5-8.2,10-12.8,15.5
	c8.2-4.6,18.2-7.3,29.2-7.3c12.8,0,24.6,3.6,34.6,10.9c4.6-2.7,8.2-5.5,10.9-7.3C161.3,69.1,145.8,63.7,128.5,63.7z M67.5,146.6
	l0.9-0.9l0,0L67.5,146.6z M178.6,102.8l0.9,0.9c2.7-2.7,6.4-6.4,9.1-9.1C185,97.4,181.4,100.1,178.6,102.8z M67.5,146.6l0.9-0.9l0,0
	L67.5,146.6z"/>
<path class="st4" d="M170.4,149.3c-0.9,0.9-1.8,0.9-1.8,1.8c-14.6,12.8-27.3,24.6-39.2,36.4c1.8-0.9,3.6-2.7,5.5-4.6
	c4.6-4.6,10-9.1,14.6-13.7c8.2-8.2,16.4-15.5,24.6-23.7C173.2,147.5,172.2,148.4,170.4,149.3z M170.4,149.3
	c-0.9,0.9-1.8,0.9-1.8,1.8c-14.6,12.8-27.3,24.6-39.2,36.4c1.8-0.9,3.6-2.7,5.5-4.6c4.6-4.6,10-9.1,14.6-13.7
	c8.2-8.2,16.4-15.5,24.6-23.7C173.2,147.5,172.2,148.4,170.4,149.3z M170.4,149.3c-0.9,0.9-1.8,0.9-1.8,1.8
	c-14.6,12.8-27.3,24.6-39.2,36.4c1.8-0.9,3.6-2.7,5.5-4.6c4.6-4.6,10-9.1,14.6-13.7c8.2-8.2,16.4-15.5,24.6-23.7
	C173.2,147.5,172.2,148.4,170.4,149.3z M170.4,149.3c-0.9,0.9-1.8,0.9-1.8,1.8c-14.6,12.8-27.3,24.6-39.2,36.4
	c1.8-0.9,3.6-2.7,5.5-4.6c4.6-4.6,10-9.1,14.6-13.7c8.2-8.2,16.4-15.5,24.6-23.7C173.2,147.5,172.2,148.4,170.4,149.3z M170.4,149.3
	c-0.9,0.9-1.8,0.9-1.8,1.8c-14.6,12.8-27.3,24.6-39.2,36.4c1.8-0.9,3.6-2.7,5.5-4.6c4.6-4.6,10-9.1,14.6-13.7
	c8.2-8.2,16.4-15.5,24.6-23.7C173.2,147.5,172.2,148.4,170.4,149.3z M170.4,149.3c-0.9,0.9-1.8,0.9-1.8,1.8
	c-14.6,12.8-27.3,24.6-39.2,36.4c1.8-0.9,3.6-2.7,5.5-4.6c4.6-4.6,10-9.1,14.6-13.7c8.2-8.2,16.4-15.5,24.6-23.7
	C173.2,147.5,172.2,148.4,170.4,149.3z M170.4,149.3c-0.9,0.9-1.8,0.9-1.8,1.8c-14.6,12.8-27.3,24.6-39.2,36.4
	c1.8-0.9,3.6-2.7,5.5-4.6c4.6-4.6,10-9.1,14.6-13.7c8.2-8.2,16.4-15.5,24.6-23.7C173.2,147.5,172.2,148.4,170.4,149.3z M170.4,149.3
	c-0.9,0.9-1.8,0.9-1.8,1.8c-14.6,12.8-27.3,24.6-39.2,36.4c1.8-0.9,3.6-2.7,5.5-4.6c4.6-4.6,10-9.1,14.6-13.7
	c8.2-8.2,16.4-15.5,24.6-23.7C173.2,147.5,172.2,148.4,170.4,149.3z M170.4,149.3c-0.9,0.9-1.8,0.9-1.8,1.8
	c-14.6,12.8-27.3,24.6-39.2,36.4c1.8-0.9,3.6-2.7,5.5-4.6c4.6-4.6,10-9.1,14.6-13.7c8.2-8.2,16.4-15.5,24.6-23.7
	C173.2,147.5,172.2,148.4,170.4,149.3z M170.4,149.3c-0.9,0.9-1.8,0.9-1.8,1.8c-14.6,12.8-27.3,24.6-39.2,36.4
	c1.8-0.9,3.6-2.7,5.5-4.6c4.6-4.6,10-9.1,14.6-13.7c8.2-8.2,16.4-15.5,24.6-23.7C173.2,147.5,172.2,148.4,170.4,149.3z M166.8,128.3
	c-4.6,4.6-9.1,9.1-14.6,13.7c-21,19.1-42.8,37.4-62.9,54.7c17.3-16.4,35.5-33.7,54.7-51c7.3-6.4,14.6-12.8,21.9-18.2l-5.5-5.5
	c-5.5,4.6-10.9,9.1-15.5,13.7l-22.8,25.5l6.4-11.8c-4.6,3.6-9.1,7.3-13.7,10.9c4.6-5.5,9.1-10.9,15.5-16.4l7.3-14.6
	c-18.2,17.3-35.5,33.7-52.8,50.1c15.5-18.2,32.8-36.4,53.8-55.6l-2.7-4.6c-4.6,5.5-10,10-16.4,15.5c-18.2,17.3-34.6,32.8-48.3,46.5
	c7.3,9.1,15.5,16.4,26.4,21c10.9-12.8,23.7-25.5,39.2-39.2c12.8-10.9,24.6-20,36.4-27.3L166.8,128.3z M178.6,142l-5.5-5.5
	c-10,9.1-19.1,17.3-29.2,25.5c-15.5,13.7-31,27.3-46.5,41c2.7,0.9,5.5,2.7,8.2,2.7c10-10,21-20,32.8-30.1c10-9.1,20-17.3,30.1-24.6
	c-14.6,12.8-27.3,24.6-39.2,36.4c1.8-0.9,3.6-2.7,5.5-4.6c4.6-4.6,10-9.1,14.6-13.7c8.2-8.2,16.4-15.5,24.6-23.7
	c-0.9,0.9-1.8,1.8-2.7,2.7C173.2,146.6,175.9,144.7,178.6,142z M175.9,81c-1.8,1.8-4.6,4.6-9.1,9.1c4.6,3.6,8.2,8.2,11.8,12.8
	c3.6-2.7,6.4-5.5,10-7.3C185,90.1,180.4,85.5,175.9,81z M187.7,94.6c-2.7,2.7-5.5,6.4-9.1,9.1c1.8,2.7,2.7,5.5,4.6,8.2
	c1.8-1.8,3.6-3.6,5.5-4.6c-1.8,1.8-3.6,3.6-5.5,5.5c2.7,6.4,4.6,13.7,4.6,21.9c3.6-2.7,7.3-6.4,11.8-9.1
	C198.7,113.8,194.1,103.7,187.7,94.6z M200.5,125.6c-3.6,3.6-7.3,7.3-11.8,11.8c0,4.6-0.9,10-1.8,14.6l-6.4-7.3l-0.9,0.9
	c-15.5,13.7-30.1,26.4-44.6,37.4c-9.1,8.2-18.2,15.5-27.3,22.8c6.4,2.7,13.7,3.6,21,3.6c5.5,0,10.9-0.9,16.4-1.8
	c0.9-0.9,1.8-1.8,3.6-1.8c0.9,0,2.7-1.8,5.5-3.6c3.6-2.7,4.6-6.4,6.4-9.1c4.6-8.2,9.1-9.1,18.2-21.9c0-0.9,2.7-3.6,1.8-3.6
	c-0.9-0.9-12.8,12.8-15.5,10c-0.9-0.9-0.9-1.8-0.9-2.7c0.9-6.4,9.1-8.2,21-18.2c2.7-2.7,1.8-1.8,5.5-5.5s8.2-6.4,11.8-9.1
	c0-1.8,0-3.6,0-5.5C201.4,132.9,201.4,129.2,200.5,125.6z M128.5,63.7c-10,0-20,1.8-29.2,6.4c-4.6,4.6-10,9.1-14.6,13.7
	C77.5,91,69.3,99.2,62,107.4c-4.6,9.1-6.4,18.2-6.4,29.2c0,14.6,4.6,29.2,11.8,40.1c2.7-2.7,5.5-6.4,9.1-9.1
	c-3.6-6.4-6.4-13.7-8.2-21.9l-0.9,0.9l0.9-0.9l0,0c0-2.7-0.9-5.5-0.9-9.1c0-10,2.7-19.1,6.4-27.3c-4.6,4.6-9.1,9.1-13.7,12.8
	c6.4-9.1,14.6-21,26.4-31.9c9.1-9.1,18.2-16.4,25.5-21.9c-3.6,5.5-8.2,10-12.8,15.5c8.2-4.6,18.2-7.3,29.2-7.3
	c12.8,0,24.6,3.6,34.6,10.9c4.6-2.7,8.2-5.5,10.9-7.3C161.3,69.1,145.8,63.7,128.5,63.7z M130.3,110.1l-15.5,18.2
	c0.9-1.8,2.7-2.7,4.6-4.6c4.6-3.6,8.2-8.2,12.8-11.8L130.3,110.1z M65.7,100.1c2.7-2.7,6.4-6.4,9.1-10c7.3-7.3,14.6-13.7,21-19.1
	C83,77.3,72.9,87.3,65.7,100.1z M170.4,149.3c-0.9,0.9-1.8,0.9-1.8,1.8c-14.6,12.8-27.3,24.6-39.2,36.4c1.8-0.9,3.6-2.7,5.5-4.6
	c4.6-4.6,10-9.1,14.6-13.7c8.2-8.2,16.4-15.5,24.6-23.7C173.2,147.5,172.2,148.4,170.4,149.3z M170.4,149.3
	c-0.9,0.9-1.8,0.9-1.8,1.8c-14.6,12.8-27.3,24.6-39.2,36.4c1.8-0.9,3.6-2.7,5.5-4.6c4.6-4.6,10-9.1,14.6-13.7
	c8.2-8.2,16.4-15.5,24.6-23.7C173.2,147.5,172.2,148.4,170.4,149.3z M170.4,149.3c-0.9,0.9-1.8,0.9-1.8,1.8
	c-14.6,12.8-27.3,24.6-39.2,36.4c1.8-0.9,3.6-2.7,5.5-4.6c4.6-4.6,10-9.1,14.6-13.7c8.2-8.2,16.4-15.5,24.6-23.7
	C173.2,147.5,172.2,148.4,170.4,149.3z M170.4,149.3c-0.9,0.9-1.8,0.9-1.8,1.8c-14.6,12.8-27.3,24.6-39.2,36.4
	c1.8-0.9,3.6-2.7,5.5-4.6c4.6-4.6,10-9.1,14.6-13.7c8.2-8.2,16.4-15.5,24.6-23.7C173.2,147.5,172.2,148.4,170.4,149.3z M170.4,149.3
	c-0.9,0.9-1.8,0.9-1.8,1.8c-14.6,12.8-27.3,24.6-39.2,36.4c1.8-0.9,3.6-2.7,5.5-4.6c4.6-4.6,10-9.1,14.6-13.7
	c8.2-8.2,16.4-15.5,24.6-23.7C173.2,147.5,172.2,148.4,170.4,149.3z M170.4,149.3c-0.9,0.9-1.8,0.9-1.8,1.8
	c-14.6,12.8-27.3,24.6-39.2,36.4c1.8-0.9,3.6-2.7,5.5-4.6c4.6-4.6,10-9.1,14.6-13.7c8.2-8.2,16.4-15.5,24.6-23.7
	C173.2,147.5,172.2,148.4,170.4,149.3z M170.4,149.3c-0.9,0.9-1.8,0.9-1.8,1.8c-14.6,12.8-27.3,24.6-39.2,36.4
	c1.8-0.9,3.6-2.7,5.5-4.6c4.6-4.6,10-9.1,14.6-13.7c8.2-8.2,16.4-15.5,24.6-23.7C173.2,147.5,172.2,148.4,170.4,149.3z M170.4,149.3
	c-0.9,0.9-1.8,0.9-1.8,1.8c-14.6,12.8-27.3,24.6-39.2,36.4c1.8-0.9,3.6-2.7,5.5-4.6c4.6-4.6,10-9.1,14.6-13.7
	c8.2-8.2,16.4-15.5,24.6-23.7C173.2,147.5,172.2,148.4,170.4,149.3z M170.4,149.3c-0.9,0.9-1.8,0.9-1.8,1.8
	c-14.6,12.8-27.3,24.6-39.2,36.4c1.8-0.9,3.6-2.7,5.5-4.6c4.6-4.6,10-9.1,14.6-13.7c8.2-8.2,16.4-15.5,24.6-23.7
	C173.2,147.5,172.2,148.4,170.4,149.3z M170.4,149.3c-0.9,0.9-1.8,0.9-1.8,1.8c-14.6,12.8-27.3,24.6-39.2,36.4
	c1.8-0.9,3.6-2.7,5.5-4.6c4.6-4.6,10-9.1,14.6-13.7c8.2-8.2,16.4-15.5,24.6-23.7C173.2,147.5,172.2,148.4,170.4,149.3z"/>
<path class="st4" d="M174.1,146.6c-7.3,7.3-15.5,15.5-24.6,23.7c-4.6,4.6-10,9.1-14.6,13.7c-1.8,1.8-3.6,2.7-5.5,4.6
	c11.8-11.8,25.5-24.6,39.2-36.4c0.9-0.9,1.8-0.9,1.8-1.8C172.2,148.4,173.2,147.5,174.1,146.6z"/>
<path class="st4" d="M174.1,146.6c-7.3,7.3-15.5,15.5-24.6,23.7c-4.6,4.6-10,9.1-14.6,13.7c-1.8,1.8-3.6,2.7-5.5,4.6
	c11.8-11.8,25.5-24.6,39.2-36.4c0.9-0.9,1.8-0.9,1.8-1.8C172.2,148.4,173.2,147.5,174.1,146.6z"/>
<path class="st4" d="M47.4,91L47.4,91z"/>
</svg>
