<?xml version="1.0" encoding="utf-8"?>
<!-- Generator: Adobe Illustrator 23.0.0, SVG Export Plug-In . SVG Version: 6.00 Build 0)  -->
<svg version="1.1" id="Layer_1" xmlns="http://www.w3.org/2000/svg" xmlns:xlink="http://www.w3.org/1999/xlink" x="0px" y="0px"
	 viewBox="0 0 256 256" style="enable-background:new 0 0 256 256;" xml:space="preserve">
<style type="text/css">
	.st0{opacity:0.8;fill:#0E0E17;}
	.st1{fill:#0E0E17;}
	.st2{fill:none;stroke:#F75049;stroke-miterlimit:10;}
	.st3{fill:#F75049;}
</style>
<g>
	<g>
		<path class="st0" d="M218.1,40.1h-67.5c-6.8-6.3-13.6-12.7-20.4-19.1H37.7c-2.3,2.2-4.6,4.5-6.9,6.7v200.1l8,8h160.9
			c9-9.8,17.9-19.7,26.8-29.5V46.8C223.7,44.6,220.9,42.4,218.1,40.1z M218.3,168c-2.7,3.4-5.4,7-8.1,10.4v40.6
			c-2.6,2.6-5.3,5.1-7.9,7.7H48.9c-2.6-2.6-5.2-5.2-7.8-7.9v-40.4c-2.6-3.4-5.3-7-7.9-10.4V95.5c2.6-2.3,5.3-4.5,7.9-6.8V50.3
			c2.6-2.6,5.2-5.3,7.8-7.9h153.3c2.7,2.7,5.3,5.4,8,8.1v38.3c2.6,2.2,5.3,4.5,8,6.8V168z"/>
		<path class="st1" d="M218.1,40.1h-67.5c-6.8-6.3-13.6-12.7-20.4-19.1H37.7c-2.3,2.2-4.6,4.5-6.9,6.7v200.1l8,8h160.9
			c9-9.8,17.9-19.7,26.8-29.5V46.8C223.7,44.6,220.9,42.4,218.1,40.1z M218.3,168c-2.7,3.4-5.4,7-8.1,10.4v40.6
			c-2.6,2.6-5.3,5.1-7.9,7.7H48.9c-2.6-2.6-5.2-5.2-7.8-7.9v-40.4c-2.6-3.4-5.3-7-7.9-10.4V95.5c2.6-2.3,5.3-4.5,7.9-6.8V50.3
			c2.6-2.6,5.2-5.3,7.8-7.9h153.3c2.7,2.7,5.3,5.4,8,8.1v38.3c2.6,2.2,5.3,4.5,8,6.8V168z"/>
		<g>
			<path class="st1" d="M218.3,95.7V168c-2.7,3.4-5.4,7-8.1,10.4v40.6c-2.6,2.6-5.3,5.1-7.9,7.7H48.9c-2.6-2.6-5.2-5.2-7.8-7.9
				v-40.4c-2.6-3.4-5.3-7-7.9-10.4V95.5c2.6-2.3,5.3-4.5,7.9-6.8V50.3c2.6-2.6,5.2-5.3,7.8-7.9h153.3c2.7,2.7,5.3,5.4,8,8.1v38.3
				C212.9,91.1,215.6,93.4,218.3,95.7z"/>
		</g>
	</g>
	<path class="st2" d="M218.1,40.1h-67.5c-6.8-6.3-13.6-12.7-20.4-19.1H37.7c-2.3,2.2-4.6,4.5-6.9,6.7v200.1l8,8h160.9
		c9-9.8,17.9-19.7,26.8-29.5V46.8C223.7,44.6,220.9,42.4,218.1,40.1z M218.3,168c-2.7,3.4-5.4,7-8.1,10.4v40.6
		c-2.6,2.6-5.3,5.1-7.9,7.7H48.9c-2.6-2.6-5.2-5.2-7.8-7.9v-40.4c-2.6-3.4-5.3-7-7.9-10.4V95.5c2.6-2.3,5.3-4.5,7.9-6.8V50.3
		c2.6-2.6,5.2-5.3,7.8-7.9h153.3c2.7,2.7,5.3,5.4,8,8.1v38.3c2.6,2.2,5.3,4.5,8,6.8V168z"/>
</g>
<g>
	<polygon class="st3" points="88.4,112.1 68.7,129.9 55.6,116.8 	"/>
	<polygon class="st3" points="108.1,109.3 79,136.5 77.1,138.4 70.6,131.8 93.1,111.2 	"/>
	<path class="st3" d="M130.6,88.7l-22.5,19.7l8.4-18.8l1.9-0.9l1.9-3.8C123.1,84.9,126.8,86.8,130.6,88.7z"/>
	<path class="st3" d="M110.9,118.7l-27.2,26.2l-5.6-5.6L89.3,129l43.1-39.4c2.8,1.9,5.6,3.7,7.5,6.6L110.9,118.7z"/>
	<path class="st3" d="M92.1,159l0.9-4.7l-2.8-2.8l53.4-49.7c0.9,1.9,0.9,3.8,0.9,5.6v0.9l0,0L92.1,159z"/>
	<path class="st3" d="M120.2,82.1C120.2,82.1,119.3,82.1,120.2,82.1l9.4-23.4l0.9-1.9l0.9,1.9l14.1,32.8l-0.9,0.9
		c-2.8-1.9-5.6-3.8-9.4-5.6l1.9-1.9v-2.8l-3.8,3.8C128.7,84,124.9,83,120.2,82.1L120.2,82.1z"/>
	<path class="st3" d="M168.1,157.1l7.5,49.7l-45-22.5l-45,22.5l1.9-15.9l3.8-26.3l45-43.1l9.4-8.4c-1.9,9.4-7.5,15-9.4,16.9
		c0.9,0,1.9-0.9,2.8-1.9c1.9-0.9,2.8-2.8,3.8-3.8c1.9-1.9,3.8-4.7,5.6-7.5s2.8-6.6,2.8-10.3l0,0l0.9,2.8l22.5,2.8l4.7,0.9l-7.5,7.5
		l-21.6,20.6l-17.8,15.9l-36.6,32.8l-0.9,2.8c0.9,0,1.9,0,3.8,0l-1.9-0.9l2.8-0.9c0,0,0.9,0,1.9,0.9h1.9l2.8-1.9l49.7-42.2
		l21.6-15.9l-51.6,45L114.6,188c6.6-2.8,12.2-7.5,16.9-13.1c4.7,0,9.4-0.9,13.1-1.9l19.7-18.8l4.7-2.8c0,0-2.8,6.6-3.7,6.6l-3.8,3.7
		c0,0-4.7,4.7-7.5,8.4C160.6,165.5,165.2,161.8,168.1,157.1z"/>
	<path class="st3" d="M173.7,143c3.8-1.9,7.5-3.7,11.3-5.6l-12.2,12.2c0-0.9,0.9-1.9,0.9-2.8S173.7,144.9,173.7,143z"/>
	<path class="st3" d="M205.6,116.8l-9.4,8.4c1.9-2.8,2.8-6.6,3.8-9.4L205.6,116.8z"/>
	<path class="st3" d="M93.1,111.2l-22.5,20.6l5.6,5.6l1.9-1.9l29.1-27.2L93.1,111.2z M55.6,116.8l13.1,13.1l19.7-17.8L55.6,116.8z
		 M60.2,141.2c0,0-0.9,0.9,0,0.9s1.9-0.9,1.9-0.9S60.2,140.2,60.2,141.2z M119.3,84l-0.9,3.8l-1.9,1.9l-8.4,18.8l22.5-19.7
		C126.8,86.8,123.1,84.9,119.3,84z M132.4,89.6L90.2,129l-12.2,10.3l5.6,5.6l26.3-26.3l30-22.5C138.1,93.4,135.2,91.5,132.4,89.6z
		 M144.6,107.4c0-1.9-0.9-3.8-1.9-5.6l-53.4,49.7l3.7,2.8l-0.9,4.7l51.6-50.6L144.6,107.4C145.6,107.4,144.6,107.4,144.6,107.4z"/>
	<path class="st3" d="M168.1,154.3v2.8c1.9-1.9,2.8-4.7,3.8-7.5L168.1,154.3z M184.9,137.4c4.7-3.8,9.4-7.5,12.2-12.2L184.9,137.4z
		 M153.1,109.3l-0.9-2.8l0,0c0,3.8-1.9,7.5-2.8,10.3c-2.8,2.8-4.7,5.6-6.6,7.5c0,0.9-1.9,2.8-2.8,3.8c-1.9,0.9-2.8,0.9-3.8,1.9
		c1.9-1.9,7.5-7.5,8.4-16.9l-9.4,8.4l-45,43.1l-3.8,26.3l0,0l45-44.1l15.9-11.3l17.8-17.8l9.4-6.6L153.1,109.3z M92.1,176.8
		L92.1,176.8v-0.9C93.1,175.9,92.1,175.9,92.1,176.8z M94,174.9L94,174.9C93.1,174,94,174,94,174.9C94.9,174,94.9,174,94,174.9z
		 M96.8,172.1c0,0-0.9,0-0.9-0.9C94.9,172.1,95.9,171.2,96.8,172.1L96.8,172.1z M99.6,171.2c0,0.9-2.8,0-2.8-0.9
		c0,0,0.9-0.9,2.8-0.9C100.6,169.3,99.6,170.2,99.6,171.2z M103.4,167.4c0,1.9-2.8,0.9-2.8-1.9c0,0,0.9-1.9,2.8-1.9
		C104.3,163.7,103.4,165.5,103.4,167.4z M109,161.8c0,1.9-2.8,0.9-2.8-1.9c0,0,0.9-1.9,2.8-1.9C109.9,159,109,159.9,109,161.8z
		 M116.5,152.4c0,0-0.9,0-0.9-0.9h0.9C116.5,151.5,116.5,152.4,116.5,152.4z M125.9,145.9c0,0.9-1.9,0-1.9-0.9c0,0,0.9-0.9,1.9-0.9
		C126.8,144.9,125.9,145.9,125.9,145.9z M128.7,142.1C128.7,143,127.7,142.1,128.7,142.1C127.7,141.2,128.7,141.2,128.7,142.1
		C129.6,141.2,129.6,141.2,128.7,142.1z M131.5,140.2h-0.9C130.6,139.3,130.6,139.3,131.5,140.2
		C131.5,139.3,131.5,139.3,131.5,140.2z M134.3,138.4c0,0.9-2.8,0-2.8-0.9c0,0,0.9-0.9,2.8-0.9C135.2,136.5,134.3,137.4,134.3,138.4
		z M138.1,134.6c0,1.9-2.8,0.9-2.8-1.9c0,0,0.9-2.8,2.8-1.9C139,131.8,138.1,132.7,138.1,134.6z M154.9,118.7c0,0.9-1.9,0-1.9-0.9
		C153.1,117.7,154,116.8,154.9,118.7C155.9,117.7,154.9,118.7,154.9,118.7z M162.4,116.8c0,0.9-2.8,0-2.8-0.9c0,0,0.9-0.9,2.8-0.9
		C163.4,115.9,162.4,115.9,162.4,116.8z M158.7,115.9c-2.8,1.9-1.9,0,1.9-2.8c0,0,2.8-1.9,2.8-0.9C162.4,113,160.6,114,158.7,115.9z
		 M131.5,58.7c-0.9,0-0.9,0-1.9,0l-10.3,23.4c0,0,0,0,0.9,0l0,0c4.7,0.9,8.4,1.9,12.2,2.8l4.7-3.8v3.8l-1.9,1.9
		c3.8,1.9,6.6,3.8,8.4,5.6l0.9-0.9L131.5,58.7z"/>
	<path class="st3" d="M62.1,141.2l-0.9,0.9c-0.9,0,0-0.9,0-0.9C60.2,140.2,62.1,141.2,62.1,141.2z"/>
</g>
</svg>
