<?xml version="1.0" encoding="utf-8"?>
<!-- Generator: Adobe Illustrator 23.0.0, SVG Export Plug-In . SVG Version: 6.00 Build 0)  -->
<svg version="1.1" id="Layer_1" xmlns="http://www.w3.org/2000/svg" xmlns:xlink="http://www.w3.org/1999/xlink" x="0px" y="0px"
	 viewBox="0 0 256 256" style="enable-background:new 0 0 256 256;" xml:space="preserve">
<style type="text/css">
	.st0{opacity:0.8;fill:#0E0E17;}
	.st1{fill:#0E0E17;}
	.st2{fill:none;stroke:#F75049;stroke-miterlimit:10;}
	.st3{fill-rule:evenodd;clip-rule:evenodd;fill:#F75049;}
	.st4{fill:#F75049;}
</style>
<g>
	<g>
		<path class="st0" d="M218.1,40.1h-67.5c-6.8-6.3-13.6-12.7-20.4-19.1H37.7c-2.3,2.2-4.6,4.5-6.9,6.7v200.1l8,8h160.9
			c9-9.8,17.9-19.7,26.8-29.5V46.8C223.7,44.6,220.9,42.4,218.1,40.1z M218.3,168c-2.7,3.4-5.4,7-8.1,10.4v40.6
			c-2.6,2.6-5.3,5.1-7.9,7.7H48.9c-2.6-2.6-5.2-5.2-7.8-7.9v-40.4c-2.6-3.4-5.3-7-7.9-10.4V95.5c2.6-2.3,5.3-4.5,7.9-6.8V50.3
			c2.6-2.6,5.2-5.3,7.8-7.9h153.3c2.7,2.7,5.3,5.4,8,8.1v38.3c2.6,2.2,5.3,4.5,8,6.8V168z"/>
		<path class="st1" d="M218.1,40.1h-67.5c-6.8-6.3-13.6-12.7-20.4-19.1H37.7c-2.3,2.2-4.6,4.5-6.9,6.7v200.1l8,8h160.9
			c9-9.8,17.9-19.7,26.8-29.5V46.8C223.7,44.6,220.9,42.4,218.1,40.1z M218.3,168c-2.7,3.4-5.4,7-8.1,10.4v40.6
			c-2.6,2.6-5.3,5.1-7.9,7.7H48.9c-2.6-2.6-5.2-5.2-7.8-7.9v-40.4c-2.6-3.4-5.3-7-7.9-10.4V95.5c2.6-2.3,5.3-4.5,7.9-6.8V50.3
			c2.6-2.6,5.2-5.3,7.8-7.9h153.3c2.7,2.7,5.3,5.4,8,8.1v38.3c2.6,2.2,5.3,4.5,8,6.8V168z"/>
		<g>
			<path class="st1" d="M218.3,95.7V168c-2.7,3.4-5.4,7-8.1,10.4v40.6c-2.6,2.6-5.3,5.1-7.9,7.7H48.9c-2.6-2.6-5.2-5.2-7.8-7.9
				v-40.4c-2.6-3.4-5.3-7-7.9-10.4V95.5c2.6-2.3,5.3-4.5,7.9-6.8V50.3c2.6-2.6,5.2-5.3,7.8-7.9h153.3c2.7,2.7,5.3,5.4,8,8.1v38.3
				C212.9,91.1,215.6,93.4,218.3,95.7z"/>
		</g>
	</g>
	<path class="st2" d="M218.1,40.1h-67.5c-6.8-6.3-13.6-12.7-20.4-19.1H37.7c-2.3,2.2-4.6,4.5-6.9,6.7v200.1l8,8h160.9
		c9-9.8,17.9-19.7,26.8-29.5V46.8C223.7,44.6,220.9,42.4,218.1,40.1z M218.3,168c-2.7,3.4-5.4,7-8.1,10.4v40.6
		c-2.6,2.6-5.3,5.1-7.9,7.7H48.9c-2.6-2.6-5.2-5.2-7.8-7.9v-40.4c-2.6-3.4-5.3-7-7.9-10.4V95.5c2.6-2.3,5.3-4.5,7.9-6.8V50.3
		c2.6-2.6,5.2-5.3,7.8-7.9h153.3c2.7,2.7,5.3,5.4,8,8.1v38.3c2.6,2.2,5.3,4.5,8,6.8V168z"/>
</g>
<g>
	<path class="st3" d="M74.5,170.2l-5.5,0.9L74.5,170.2C73.6,169.3,74.5,170.2,74.5,170.2z"/>
	<path class="st3" d="M77.2,173l-13.7,2.7v-0.9l12.8-3.7C77.2,172,77.2,172,77.2,173L77.2,173z"/>
	<path class="st3" d="M107.4,204.1c0,1.8-1.8,4.6-5.5,3.7c-16.5-5.5-29.3-16.5-38.5-31.1l14.7-3.7c0.9,1.8,2.7,4.6,4.6,7.3
		c0,0,4.6,14.7,24.7,10.1C107.4,197.7,107.4,202.3,107.4,204.1z"/>
	<path class="st3" d="M112,169.3c-1.8,1.8-3.7,5.5-4.6,10.1c-4.6,1.8-14.7,5.5-21.1-6.4c0,0-1.8-3.7-6.4-6.4h-0.9h-0.9l2.7-0.9
		l0.9-1.8l-22.9,4.6c-1.8-2.7-2.7-6.4-3.7-10.1l23.8-22C80.9,162,96.5,167.5,112,169.3z"/>
	<path class="st3" d="M167.9,117.1C167.9,117.1,167.9,116.2,167.9,117.1l4.6-0.9L167.9,117.1z"/>
	<path class="st3" d="M194.4,109.8l-19.2,3.7v-0.9L194.4,109.8C194.4,108.9,194.4,108.9,194.4,109.8z"/>
	<path class="st3" d="M168.8,118L168.8,118l26.6-5.5c0,0,0,0,0,0.9L168.8,118z"/>
	<path class="st3" d="M139.5,169.3c0.9,0.9,1.8,1.8,1.8,2.7l3.7-3.7C142.2,169.3,141.3,169.3,139.5,169.3z"/>
	<path class="st3" d="M196.3,114.4l-25.6,5.5c1.8,3.7,2.7,7.3,2.7,11.9v0.9c0,23.8-12.8,32-26.6,34.8l0,0l-4.6,4.6
		c1.8,2.7,2.7,6.4,2.7,11c0,10.1,0,18.3,0,21.1c0,1.8,1.8,4.6,5.5,3.7c3.7-0.9,6.4-2.7,9.2-3.7l0,0l30.2-29.3
		c1.8-3.7,3.7-6.4,4.6-10.1l0,0c2.7-8.2,4.6-17.4,4.6-26.6S198.1,121.7,196.3,114.4z M164.2,177.5l22-18.3L166,178.5l-15.6,12.8
		L164.2,177.5z"/>
	<path class="st4" d="M80,135.4l-0.9,0.9c0-0.9,0-2.7,0-3.7c0-0.9,0-1.8,0-2.7l0,0L80,135.4z"/>
	<path class="st4" d="M74.5,170.2l-5.5,0.9L74.5,170.2C73.6,169.3,74.5,170.2,74.5,170.2z"/>
	<path class="st4" d="M77.2,172L77.2,172l-13.7,3.7v-0.9L77.2,172L77.2,172z"/>
	<path class="st4" d="M80,166.6v0.9V166.6z"/>
	<path class="st4" d="M77.2,172L77.2,172l-13.7,3.7v-0.9L77.2,172L77.2,172z"/>
	<path class="st4" d="M74.5,170.2l-5.5,0.9L74.5,170.2C73.6,169.3,74.5,170.2,74.5,170.2z"/>
	<path class="st4" d="M160.5,91.5L160.5,91.5v0.9c-2.7,0.9-6.4,1.8-11,4.6c-2.7,0.9-3.7,1.8-5.5,2.7c-5.5-0.9-11.9-1.8-18.3-1.8
		c-6.4,0-11.9,0.9-18.3,1.8c-13.7-9.2-20.1-7.3-20.1-7.3c-3.7,10.1-1.8,18.3-0.9,20.1c-3.7,4.6-6.4,10.1-7.3,17.4l-24.7,22.9
		c0-0.9,0-1.8,0-2.7l24.7-23.8l-3.7-13.7l-22.9,22.9c0-0.9,0-1.8,0-2.7l0,0l22-22.9l-0.9-4.6l-20.1,20.1c0-2.7,0.9-4.6,0.9-7.3
		l15.6-14.6l3.7-2.7l-1.8-7.3l-12.8,11.9c0.9-0.9,0.9-2.7,1.8-3.7l10.1-9.2l-0.9-4.6c13.7-16.5,33.9-26.6,55.9-26.6
		c5.5,0,11,0.9,15.6,1.8c4.6,0.9,10.1,2.7,14.6,4.6L160.5,91.5z"/>
	<path class="st4" d="M173.4,78.7l-11.9,11l-0.9,0.9L156,67.7C162.4,70.4,167.9,75,173.4,78.7z"/>
	<path class="st4" d="M172.4,116.2l-4.6,0.9l0,0L172.4,116.2z"/>
	<path class="st4" d="M194.4,109.8l-19.2,3.7v-0.9L194.4,109.8C194.4,108.9,194.4,108.9,194.4,109.8z"/>
	<path class="st4" d="M195.3,112.5l-26.6,5.5l0,0L195.3,112.5L195.3,112.5z"/>
	<path class="st4" d="M192.6,106.1L192.6,106.1l-27.5,6.4c0,0,0-0.9-0.9-0.9c0,0,0-0.9,0.9-1.8c0,0,0,0,0-0.9
		c0.9-3.7,1.8-10.1-1.8-17.4c0,0,0,0-0.9,0l11.9-11c1.8,1.8,2.7,2.7,4.6,4.6l-1.8,3.7h-0.9h1.8l2.7-1.8c2.7,2.7,4.6,5.5,6.4,9.2
		l-10.1,9.2h1.8L188,97c0.9,1.8,1.8,2.7,2.7,4.6l-1.8,1.8l-0.9,0.9l0,0l-11.9,2.7h0.9l-7.3,2.7l22.9-4.6V106.1z"/>
	<path class="st4" d="M194.4,109.8l-19.2,3.7v-0.9L194.4,109.8C194.4,108.9,194.4,108.9,194.4,109.8z"/>
	<path class="st4" d="M172.4,116.2l-4.6,0.9l0,0L172.4,116.2z"/>
	<path class="st4" d="M195.3,112.5l-26.6,5.5l0,0L195.3,112.5L195.3,112.5z"/>
	<path class="st4" d="M139.5,169.3c0.9,0.9,1.8,1.8,1.8,2.7l3.7-3.7C142.2,169.3,141.3,169.3,139.5,169.3z"/>
</g>
</svg>
