<?xml version="1.0" encoding="utf-8"?>
<!-- Generator: Adobe Illustrator 23.0.0, SVG Export Plug-In . SVG Version: 6.00 Build 0)  -->
<svg version="1.1" id="Layer_1" xmlns="http://www.w3.org/2000/svg" xmlns:xlink="http://www.w3.org/1999/xlink" x="0px" y="0px"
	 viewBox="0 0 256 256" style="enable-background:new 0 0 256 256;" xml:space="preserve">
<style type="text/css">
	.st0{opacity:0.8;fill:#0E0E17;}
	.st1{fill:#0E0E17;}
	.st2{fill:none;stroke:#F75049;stroke-miterlimit:10;}
	.st3{fill-rule:evenodd;clip-rule:evenodd;fill:#F75049;}
	.st4{fill:#F75049;}
</style>
<g>
	<g>
		<path class="st0" d="M218.1,40.1h-67.5c-6.8-6.3-13.6-12.7-20.4-19.1H37.7c-2.3,2.2-4.6,4.5-6.9,6.7v200.1l8,8h160.9
			c9-9.8,17.9-19.7,26.8-29.5V46.8C223.7,44.6,220.9,42.4,218.1,40.1z M218.3,168c-2.7,3.4-5.4,7-8.1,10.4v40.6
			c-2.6,2.6-5.3,5.1-7.9,7.7H48.9c-2.6-2.6-5.2-5.2-7.8-7.9v-40.4c-2.6-3.4-5.3-7-7.9-10.4V95.5c2.6-2.3,5.3-4.5,7.9-6.8V50.3
			c2.6-2.6,5.2-5.3,7.8-7.9h153.3c2.7,2.7,5.3,5.4,8,8.1v38.3c2.6,2.2,5.3,4.5,8,6.8V168z"/>
		<path class="st1" d="M218.1,40.1h-67.5c-6.8-6.3-13.6-12.7-20.4-19.1H37.7c-2.3,2.2-4.6,4.5-6.9,6.7v200.1l8,8h160.9
			c9-9.8,17.9-19.7,26.8-29.5V46.8C223.7,44.6,220.9,42.4,218.1,40.1z M218.3,168c-2.7,3.4-5.4,7-8.1,10.4v40.6
			c-2.6,2.6-5.3,5.1-7.9,7.7H48.9c-2.6-2.6-5.2-5.2-7.8-7.9v-40.4c-2.6-3.4-5.3-7-7.9-10.4V95.5c2.6-2.3,5.3-4.5,7.9-6.8V50.3
			c2.6-2.6,5.2-5.3,7.8-7.9h153.3c2.7,2.7,5.3,5.4,8,8.1v38.3c2.6,2.2,5.3,4.5,8,6.8V168z"/>
		<g>
			<path class="st1" d="M218.3,95.7V168c-2.7,3.4-5.4,7-8.1,10.4v40.6c-2.6,2.6-5.3,5.1-7.9,7.7H48.9c-2.6-2.6-5.2-5.2-7.8-7.9
				v-40.4c-2.6-3.4-5.3-7-7.9-10.4V95.5c2.6-2.3,5.3-4.5,7.9-6.8V50.3c2.6-2.6,5.2-5.3,7.8-7.9h153.3c2.7,2.7,5.3,5.4,8,8.1v38.3
				C212.9,91.1,215.6,93.4,218.3,95.7z"/>
		</g>
	</g>
	<path class="st2" d="M218.1,40.1h-67.5c-6.8-6.3-13.6-12.7-20.4-19.1H37.7c-2.3,2.2-4.6,4.5-6.9,6.7v200.1l8,8h160.9
		c9-9.8,17.9-19.7,26.8-29.5V46.8C223.7,44.6,220.9,42.4,218.1,40.1z M218.3,168c-2.7,3.4-5.4,7-8.1,10.4v40.6
		c-2.6,2.6-5.3,5.1-7.9,7.7H48.9c-2.6-2.6-5.2-5.2-7.8-7.9v-40.4c-2.6-3.4-5.3-7-7.9-10.4V95.5c2.6-2.3,5.3-4.5,7.9-6.8V50.3
		c2.6-2.6,5.2-5.3,7.8-7.9h153.3c2.7,2.7,5.3,5.4,8,8.1v38.3c2.6,2.2,5.3,4.5,8,6.8V168z"/>
</g>
<path class="st3" d="M108.3,147.7L108.3,147.7l-2-4l0,0c-2,2-5.1,5.1-8.1,7.1c2,4,4,7.1,6.1,11.1c2-3,5.1-5.1,8.1-8.1
	C111.3,151.7,109.3,149.7,108.3,147.7z M104.2,137.6c-3,2-6.1,5.1-9.1,8.1c1,1,1,2,2,3v1c3-3,6.1-6.1,8.1-9.1
	C105.2,139.6,104.2,138.6,104.2,137.6z M112.3,187.2c-1-1-2-2-4-2c-1,0-3,0-4,1c-2,2-5.1,4-8.1,5.1c-2,1-3,1-5.1,1c-1,0-1,0-2,0l0,0
	c-2-1-3-2-3-4s-1-4-1-7.1l0,0v-1c0-4,0-8.1,1-11.1c1-3,2-7.1,3-10.1c-1,2-3,3-4,5.1c1-2,3-4,5.1-5.1c0-1,1-2,1-3c1-3,2-6.1,4-9.1
	c-6.1,6.1-12.1,11.1-17.2,16.2c-1,1-2,3-2,4c-1,4-2,9.1-2,13.2v1c0,4,1,8.1,2,11.1c1,3,4,6.1,7.1,8.1c1,1,2,2,4,2c2,0,3,1,5.1,1
	c3,0,6.1-1,9.1-2c4-2,7.1-4,10.1-7.1c1-1,2-2,2-4C114.3,190.2,113.3,189.2,112.3,187.2z M138.6,104.2c-3,3-6.1,6.1-10.1,10.1
	c2,0,4,0,5.1,0c4-3,8.1-7.1,12.1-10.1C142.7,104.2,140.6,104.2,138.6,104.2z M205.4,128.5c-1-3-3-5.1-6.1-6.1c-2-2-5.1-4-8.1-5.1
	c-1-1-3-1-4-2c-1-1-3-2-5.1-2c-8.1-3-16.2-5.1-24.3-6.1h-1c-3,3-6.1,6.1-10.1,9.1c3,0,5.1,1,8.1,1c3-3,7.1-5.1,10.1-8.1
	c-3,3-6.1,5.1-9.1,8.1c6.1,1,12.1,3,18.2,4l0,0c1,0,3,1,4,1s3,1,4,2c2,1,3,1,5.1,2c2,1,4,2,6.1,4c1,1,2,2,3,4c1,1,1,2,1,3l0,0
	c0,1,0,2-1,3c-1,1-1,2-3,3c-1,1-3,3-5.1,4s-4,2-6.1,3c-1,0-2,1-3,3c-1,1-1,3,0,4c1,1,1,2,3,3c2,1,3,1,4,0c3-1,5.1-2,8.1-4
	c2-1,5.1-3,6.1-5.1c2-2,3-4,4-6.1c2-3,3-5.1,3-8.1l0,0v-1l0,0C207.4,133.5,206.4,131.5,205.4,128.5z M145.7,105.2
	c-3,3-7.1,7.1-10.1,10.1c3,0,5.1,0,8.1,1c4-3,8.1-6.1,11.1-9.1C151.8,105.2,148.7,105.2,145.7,105.2z M127.5,103.2c-1,0-1,0-2,0
	c-3,3-6.1,6.1-10.1,9.1l-1,1c1,0,1,0,2,0l0,0c1,0,2,0,3,0c4-4,8.1-7.1,12.1-10.1C129.5,103.2,128.5,103.2,127.5,103.2z M178.1,74.8
	c-1,0-1,1-2,0v-1c0-1-3-2-5.1-2c-4,0-7.1,3-8.1,3c1,0,1,0,2,1c1,0,2,1,2,2c1,1,1,3,1,4c0,1,0,3-1,4c-1,2-1,4-2,5.1c-1,1-1,3,0,4
	c0,1,1,3,3,3c2,0,3,1,4,0c1,0,3-1,3-3c1-2,2-5.1,3-8.1c1-2,1-4,1-7.1c0,0,0,0,0-1l0,0C179.1,78.9,178.1,76.9,178.1,74.8z
	 M162.9,64.7c-2,0-3,3-4,2c-1,0,0-2,0-3c-2,0-3,1-5.1,1c-3,1-5.1,2-7.1,3c-6.1,3-12.1,7.1-16.2,11.1c-6.1,5.1-11.1,10.1-16.2,16.2
	c-2,2-5.1,5.1-7.1,8.1c-4,0-8.1,0-13.2,1c0-2-1-4-1-5.1c0-1,0-3,0-4c-3,3-7.1,6.1-9.1,9.1v1h-1c-5.1,5.1-10.1,10.1-15.2,15.2
	c3-4,6.1-9.1,10.1-14.2c-4,1-7.1,2-9.1,3h-1c-8.1,7.1-15.2,15.2-22.3,22.3c5.1-7.1,11.1-13.2,17.2-20.2c0,0-2,0-3,1
	c-2,1-5.1,3-7.1,4c-2,2-3,4-5.1,6.1c-1,2-2,5.1-2,7.1l0,0v1c0,3,1,5.1,2,8.1c2,2,3,4,5.1,5.1c4,4,9.1,7.1,14.2,9.1c1,0,3,0,4,0
	c1-1,2-2,3-3c1-1,0-3,0-4s-2-2-3-3c-4-1-7.1-4-11.1-6.1c-1-1-2-3-3-4c0-1-1-1-1-2l0,0c0-1,0-2,1-2c1-1,1-2,3-3c1-2,3-3,5.1-4
	c2-1,5.1-2,7.1-3c4-1,9.1-2,14.2-2l0,0c0,2,1,5.1,2,7.1c3-3,6.1-5.1,9.1-8.1v-1h1c1-1,2-2,3-3c10.1-8.1,18.2-15.2,27.3-22.3
	c-6.1,6.1-12.1,12.1-18.2,18.2c-8.1,6.1-15.2,13.2-22.3,18.2c1,2,1,3,2,5.1c0,1-1,2-2,3c6.1-6.1,12.1-12.1,19.2-18.2
	c5.1-5.1,10.1-9.1,15.2-13.2c0,1,0,1-1,1l1-1c5.1-5.1,9.1-10.1,15.2-15.2c4-4,8.1-7.1,13.2-9.1c2-1,4-2,6.1-2c1,0,3-1,4-1h1l0,0h1
	c0-1,4-4,3-7.1C164.9,65.7,163.9,64.7,162.9,64.7z M92.1,86v-2l0,0c-2,2-4,5.1-7.1,7.1c-1,1-2,2-3,3c0,2,0,4,1,6.1l0,0c1-1,3-3,4-4
	c2-2,4-4,6.1-6.1C92.1,89,92.1,87,92.1,86z M119.4,71.8c-3-3-6.1-5.1-9.1-8.1c-2-1-3-2-5.1-2c-1,1-3,2-5.1,3c0,0-1,1-3,1
	c-3,2-4,3-5.1,3c-2,2-4,3-5.1,5.1c-1,2,0,3-2,5.1c-1,1-2,1-2,1h-1c0,1,0,3,0,4v1l0,0c0,2,0,4,0,6.1c3-3,7.1-6.1,10.1-9.1
	c0-1,0-3,0-4c0-1,1-3,1-4c0-1,1-2,1-2l1-1c1,0,1,0,2-1l0,0c1,0,1,0,2,0s2,1,3,2c3,2,5.1,4,8.1,7.1c1,1,2,2,4,2c1,0,3-1,4-1
	c1-1,2-2,2-4C121.4,74.8,120.4,72.8,119.4,71.8z M87,136.6c-2,5.1-4,10.1-6.1,14.2c0,1-1,2-1,3c2-2,4-4,6.1-7.1
	c8.1-8.1,13.2-13.2,17.2-17.2c1-3,3-5.1,5.1-8.1c1-2,3-4,4-6.1C103.2,123.4,95.1,130.5,87,136.6z M113.3,155.8c-3,3-5.1,5.1-8.1,7.1
	c0,1,1,3,2,4c3-3,5.1-5.1,8.1-8.1C114.3,157.8,113.3,156.8,113.3,155.8z M170,171c-1-5.1-2-10.1-3-14.2c-1-5.1-2-9.1-4-14.2
	c-1-3-2-5.1-3-8.1c-1,1-3,3-4,4c-2,1-3,3-5.1,4c1,3,2,5.1,3,8.1c0,1,1,3,1,4c2-1,2-1,2-1s0,1-1,2c0,1,1,2,1,3c1,4,2,9.1,3,13.2
	c0,4,1,7.1,1,11.1c0,3,0,6.1-1,9.1c0,1-1,2-1,3c0,0,0,1-1,1c-1,0-1,0-2,0c-1,0-3,0-4-1c-2-1-4-2-5.1-3c-2-1-4-3-6.1-4
	c-2-2-4-4-6.1-6.1l0,0c-4-5.1-8.1-9.1-12.1-14.2c-3,2-5.1,5.1-8.1,7.1c4,5.1,8.1,10.1,12.1,15.2l0,0c2,2,5.1,5.1,7.1,7.1
	c2,2,5.1,4,7.1,5.1c2,1,5.1,3,7.1,3c2,1,5.1,1,8.1,1s6.1-1,8.1-2c2-1,3-3,4-4c1-2,2-3,2-5.1c1-4,2-8.1,2-12.1
	C172,179.1,171,175,170,171z M156.8,124.4c0-1-2-2-3-3c-1,0-2,0-2,0c-1,0-1,0-2,0c-1,0-3,2-3,3v1c0,1,0,2,0,3c1,1,1,3,2,4
	c3-2,6.1-4,8.1-6.1c-3,2-5.1,5.1-8.1,7.1c1,2,2,4,2,6.1c3-3,6.1-5.1,9.1-7.1C158.9,129.5,157.9,126.4,156.8,124.4z M151.8,139.6
	L151.8,139.6l1-1C151.8,139.6,151.8,139.6,151.8,139.6z M120.4,167.9c-1,1-1,1-2,2C119.4,168.9,120.4,168.9,120.4,167.9L120.4,167.9
	z M119.4,165.9c-1-1-2-3-2-4c-3,2-5.1,5.1-8.1,7.1c0,1,1,2,2,3c0,1,1,1,1,2C114.3,171,116.4,168.9,119.4,165.9L119.4,165.9z"/>
<path class="st4" d="M123.4,123.4c-2,2-5.1,4-7.1,7.1C117.4,126.4,120.4,124.4,123.4,123.4z"/>
<path class="st4" d="M132.6,124.4c-5.1,5.1-10.1,9.1-15.2,14.2c-1-1-1-3-1-4c3-3,6.1-6.1,9.1-9.1c1-1,1-2,2-3
	C129.5,123.4,131.5,123.4,132.6,124.4z"/>
<path class="st4" d="M129.5,138.6c-2,1-4,3-6.1,5.1c-1,0-2,0-2-1c-2-1-3-1-3-2c5.1-4,11.1-9.1,16.2-14.2c1,1,2,3,2,5.1
	C134.6,133.5,132.6,135.6,129.5,138.6z"/>
<path class="st4" d="M137.6,133.5c0,4-2,7.1-5.1,9.1c-3,1-5.1,2-7.1,1c3-3,7.1-6.1,10.1-9.1C136.6,134.5,136.6,134.5,137.6,133.5z"
	/>
<path class="st4" d="M120.4,167.9c-1,1-1,1-2,2C119.4,168.9,120.4,168.9,120.4,167.9L120.4,167.9z M151.8,139.6L151.8,139.6l1-1
	C151.8,139.6,151.8,139.6,151.8,139.6z M120.4,167.9c-1,1-1,1-2,2C119.4,168.9,120.4,168.9,120.4,167.9L120.4,167.9z M151.8,139.6
	L151.8,139.6l1-1C151.8,139.6,151.8,139.6,151.8,139.6z M120.4,167.9c-1,1-1,1-2,2C119.4,168.9,120.4,168.9,120.4,167.9L120.4,167.9
	z M151.8,139.6L151.8,139.6l1-1C151.8,139.6,151.8,139.6,151.8,139.6z M120.4,167.9c-1,1-1,1-2,2
	C119.4,168.9,120.4,168.9,120.4,167.9L120.4,167.9z M151.8,139.6L151.8,139.6l1-1C151.8,139.6,151.8,139.6,151.8,139.6z
	 M120.4,167.9c-1,1-1,1-2,2C119.4,168.9,120.4,168.9,120.4,167.9L120.4,167.9z M151.8,139.6L151.8,139.6l1-1
	C151.8,139.6,151.8,139.6,151.8,139.6z M120.4,167.9c-1,1-1,1-2,2C119.4,168.9,120.4,168.9,120.4,167.9L120.4,167.9z M151.8,139.6
	L151.8,139.6l1-1C151.8,139.6,151.8,139.6,151.8,139.6z M120.4,167.9c-1,1-1,1-2,2C119.4,168.9,120.4,168.9,120.4,167.9L120.4,167.9
	z M151.8,139.6L151.8,139.6l1-1C151.8,139.6,151.8,139.6,151.8,139.6z M120.4,167.9c-1,1-1,1-2,2
	C119.4,168.9,120.4,168.9,120.4,167.9L120.4,167.9z M151.8,139.6L151.8,139.6l1-1C151.8,139.6,151.8,139.6,151.8,139.6z
	 M120.4,167.9c-1,1-1,1-2,2C119.4,168.9,120.4,168.9,120.4,167.9L120.4,167.9z M151.8,139.6L151.8,139.6l1-1
	C151.8,139.6,151.8,139.6,151.8,139.6z M120.4,167.9c-1,1-1,1-2,2C119.4,168.9,120.4,168.9,120.4,167.9L120.4,167.9z M151.8,139.6
	L151.8,139.6l1-1C151.8,139.6,151.8,139.6,151.8,139.6z M108.3,147.7c0,0-1,1-2,1C107.3,148.7,108.3,147.7,108.3,147.7l-2-4l0,0
	c-2,2-5.1,5.1-8.1,7.1c2,4,4,7.1,6.1,11.1c2-3,5.1-5.1,8.1-8.1C111.3,151.7,109.3,149.7,108.3,147.7z M104.2,137.6
	c-3,2-6.1,5.1-9.1,8.1c1,1,1,2,2,3v1c3-3,6.1-6.1,8.1-9.1C105.2,139.6,104.2,138.6,104.2,137.6z M112.3,187.2c-1-1-2-2-4-2
	c-1,0-3,0-4,1c-2,2-5.1,4-8.1,5.1c-2,1-3,1-5.1,1c-1,0-1,0-2,0l0,0c-2-1-3-2-3-4s-1-4-1-7.1l0,0v-1c0-4,0-8.1,1-11.1
	c1-3,2-7.1,3-10.1c-1,2-3,3-4,5.1c1-2,3-4,5.1-5.1c0-1,1-2,1-3c1-3,2-6.1,4-9.1c-6.1,6.1-12.1,11.1-17.2,16.2c-1,1-2,3-2,4
	c-1,4-2,9.1-2,13.2v1c0,4,1,8.1,2,11.1c1,3,4,6.1,7.1,8.1c1,1,2,2,4,2c2,0,3,1,5.1,1c3,0,6.1-1,9.1-2c4-2,7.1-4,10.1-7.1
	c1-1,2-2,2-4C114.3,190.2,113.3,189.2,112.3,187.2z M113.3,155.8c-3,3-5.1,5.1-8.1,7.1c0,1,1,3,2,4c3-3,5.1-5.1,8.1-8.1
	C114.3,157.8,113.3,156.8,113.3,155.8z M119.4,165.9c-1-1-2-3-2-4c-3,2-5.1,5.1-8.1,7.1c0,1,1,2,2,3c0,1,1,1,1,2
	C114.3,171,116.4,168.9,119.4,165.9L119.4,165.9z M120.4,167.9c-1,1-1,1-2,2C119.4,168.9,120.4,168.9,120.4,167.9L120.4,167.9z
	 M116.4,130.5c2-3,5.1-5.1,7.1-7.1C120.4,124.4,117.4,126.4,116.4,130.5z M133.6,183.1c-4-5.1-8.1-9.1-12.1-14.2
	c-3,2-5.1,5.1-8.1,7.1c4,5.1,8.1,10.1,12.1,15.2l0,0C128.5,187.2,129.5,185.1,133.6,183.1L133.6,183.1L133.6,183.1z M135.6,135.6
	c-3,3-6.1,6.1-10.1,8.1c2,0,4,0,6.1-1c4-2,6.1-5.1,6.1-9.1C136.6,134.5,136.6,134.5,135.6,135.6z M151.8,139.6L151.8,139.6l1-1
	C151.8,139.6,151.8,139.6,151.8,139.6z M119.4,71.8c-3-3-6.1-5.1-9.1-8.1c-2-1-3-2-5.1-2c-1,1-3,2-5.1,3c0,0-1,1-3,1c-3,2-4,3-5.1,3
	c-2,2-4,3-5.1,5.1c-1,2,0,3-2,5.1c-1,1-2,1-2,1h-1c0,1,0,3,0,4v1l0,0c0,2,0,4,0,6.1c3-3,7.1-6.1,10.1-9.1c0-1,0-3,0-4c0-1,1-3,1-4
	c0-1,1-2,1-2l1-1c1,0,1,0,2-1l0,0c1,0,1,0,2,0s2,1,3,2c3,2,5.1,4,8.1,7.1c1,1,2,2,4,2c1,0,3-1,4-1c1-1,2-2,2-4
	C121.4,74.8,120.4,72.8,119.4,71.8z M87,136.6c-2,5.1-4,10.1-6.1,14.2c0,1-1,2-1,3c2-2,4-4,6.1-7.1c8.1-8.1,13.2-13.2,17.2-17.2
	c1-3,3-5.1,5.1-8.1c1-2,3-4,4-6.1C103.2,123.4,95.1,130.5,87,136.6z M127.5,103.2c-1,0-1,0-2,0c-3,3-6.1,6.1-10.1,9.1l-1,1
	c1,0,1,0,2,0l0,0c1,0,2,0,3,0c4-4,8.1-7.1,12.1-10.1C129.5,103.2,128.5,103.2,127.5,103.2z M138.6,104.2c-3,3-6.1,6.1-10.1,10.1
	c2,0,4,0,5.1,0c4-3,8.1-7.1,12.1-10.1C142.7,104.2,140.6,104.2,138.6,104.2z M145.7,105.2c-3,3-7.1,7.1-10.1,10.1c3,0,5.1,0,8.1,1
	c4-3,8.1-6.1,11.1-9.1C151.8,105.2,148.7,105.2,145.7,105.2z M162.9,64.7c-2,0-3,3-4,2c-1,0,0-2,0-3c-2,0-3,1-5.1,1
	c-3,1-5.1,2-7.1,3c-6.1,3-12.1,7.1-16.2,11.1c-6.1,5.1-11.1,10.1-16.2,16.2c-2,2-5.1,5.1-7.1,8.1c-4,0-8.1,0-13.2,1c0-2-1-4-1-5.1
	c0-1,0-3,0-4c-3,3-7.1,6.1-9.1,9.1l-1,1c-5.1,5.1-10.1,10.1-15.2,15.2c3-4,6.1-9.1,10.1-14.2c-4,1-7.1,2-9.1,3h-1
	c-8.1,7.1-15.2,15.2-22.3,22.3c5.1-7.1,11.1-13.2,17.2-20.2c0,0-2,0-3,1c-2,1-5.1,3-7.1,4c-2,2-3,4-5.1,6.1c-1,2-2,5.1-2,7.1l0,0v1
	c0,3,1,5.1,2,8.1c2,2,3,4,5.1,5.1c4,4,9.1,7.1,14.2,9.1c1,0,3,0,4,0c1-1,2-2,3-3c1-1,0-3,0-4s-2-2-3-3c-4-1-7.1-4-11.1-6.1
	c-1-1-2-3-3-4c0-1-1-1-1-2l0,0c0-1,0-2,1-2c1-1,1-2,3-3c1-2,3-3,5.1-4c2-1,5.1-2,7.1-3c4-1,9.1-2,14.2-2l0,0c0,2,1,5.1,2,7.1
	c3-3,6.1-5.1,9.1-8.1l1-1c1-1,2-2,3-3c10.1-8.1,18.2-15.2,27.3-22.3c-6.1,6.1-12.1,12.1-18.2,18.2c-8.1,6.1-15.2,13.2-22.3,18.2
	c1,2,1,3,2,5.1c0,1-1,2-2,3c6.1-6.1,12.1-12.1,19.2-18.2c5.1-5.1,10.1-9.1,15.2-13.2c0,1,0,1-1,1l1-1c5.1-5.1,9.1-10.1,15.2-15.2
	c4-4,8.1-7.1,13.2-9.1c2-1,4-2,6.1-2c1,0,3-1,4-1h1l0,0h1c0-1,4-4,3-7.1C164.9,65.7,163.9,64.7,162.9,64.7z M179.1,80.9L179.1,80.9
	c0-2,0-5.1-1-7.1c-1,0-1,1-2,0v-1c0-1-3-2-5.1-2c-4,0-7.1,3-8.1,3c1,0,1,0,2,1c1,0,2,1,2,2c1,1,1,3,1,4c0,1,0,3-1,4c-1,2-1,4-2,5.1
	c-1,1-1,3,0,4c0,1,1,3,3,3c2,0,3,1,4,0c1,0,3-1,3-3c1-2,2-5.1,3-8.1C178.1,87,179.1,85,179.1,80.9c-1,2-2,2-2,2
	S178.1,81.9,179.1,80.9z M182.1,113.3c-8.1-3-16.2-5.1-24.3-6.1h-1c-3,3-6.1,6.1-10.1,9.1c3,0,5.1,1,8.1,1c3-3,7.1-5.1,10.1-8.1
	c-3,3-6.1,5.1-9.1,8.1c6.1,1,12.1,3,18.2,4c1,0,1-1,2-1l-1,1c1,0,3,1,4,1s3,1,4,2c-1-1,0-1,0-1c0-1,0-1,0-2c1-2,2-3,5.1-6.1
	C186.2,114.3,184.2,113.3,182.1,113.3z M160.9,134.5c-1,1-3,3-4,4c-2,1-3,3-5.1,4c1,3,2,5.1,3,8.1c2-1,4-3,6.1-4c2-3,1-3,3-4
	C162.9,139.6,161.9,137.6,160.9,134.5z M156.8,124.4c0-1-2-2-3-3c-1,0-2,0-2,0c-2,2-3,3-5.1,5.1c0,1,0,2,0,3c1,1,1,3,2,4
	c3-2,6.1-4,8.1-6.1c-3,2-5.1,5.1-8.1,7.1c1,2,2,4,2,6.1c3-3,6.1-5.1,9.1-7.1C158.9,129.5,157.9,126.4,156.8,124.4z M92.1,86v-2l0,0
	c-2,2-4,5.1-7.1,7.1c-1,1-2,2-3,3c0,2,0,4,1,6.1l0,0c1-1,3-3,4-4c2-2,4-4,6.1-6.1C92.1,89,92.1,87,92.1,86z M134.6,126.4
	c-5.1,5.1-11.1,9.1-16.2,14.2c1,1,2,2,3,3c0,0,1,0,2,0c2-2,4-4,6.1-6.1c3-2,5.1-4,7.1-6.1C136.6,129.5,135.6,127.5,134.6,126.4z
	 M127.5,122.4c-1,1-1,2-2,3c-3,3-6.1,6.1-9.1,9.1c0,2,0,3,1,5.1c5.1-5.1,10.1-9.1,15.2-14.2C131.5,123.4,129.5,123.4,127.5,122.4z
	 M120.4,167.9c-1,1-1,1-2,2C119.4,168.9,120.4,168.9,120.4,167.9L120.4,167.9z M120.4,167.9c-1,1-1,1-2,2
	C119.4,168.9,120.4,168.9,120.4,167.9L120.4,167.9z M151.8,139.6L151.8,139.6l1-1C151.8,139.6,151.8,139.6,151.8,139.6z
	 M120.4,167.9c-1,1-1,1-2,2C119.4,168.9,120.4,168.9,120.4,167.9L120.4,167.9z M151.8,139.6L151.8,139.6l1-1
	C151.8,139.6,151.8,139.6,151.8,139.6z M120.4,167.9c-1,1-1,1-2,2C119.4,168.9,120.4,168.9,120.4,167.9L120.4,167.9z M151.8,139.6
	L151.8,139.6l1-1C151.8,139.6,151.8,139.6,151.8,139.6z M120.4,167.9c-1,1-1,1-2,2C119.4,168.9,120.4,168.9,120.4,167.9L120.4,167.9
	z M151.8,139.6L151.8,139.6l1-1C151.8,139.6,151.8,139.6,151.8,139.6z M120.4,167.9c-1,1-1,1-2,2
	C119.4,168.9,120.4,168.9,120.4,167.9L120.4,167.9z M151.8,139.6L151.8,139.6l1-1C151.8,139.6,151.8,139.6,151.8,139.6z
	 M120.4,167.9c-1,1-1,1-2,2C119.4,168.9,120.4,168.9,120.4,167.9L120.4,167.9z M151.8,139.6L151.8,139.6l1-1
	C151.8,139.6,151.8,139.6,151.8,139.6z M120.4,167.9c-1,1-1,1-2,2C119.4,168.9,120.4,168.9,120.4,167.9L120.4,167.9z M151.8,139.6
	L151.8,139.6l1-1C151.8,139.6,151.8,139.6,151.8,139.6z M120.4,167.9c-1,1-1,1-2,2C119.4,168.9,120.4,168.9,120.4,167.9L120.4,167.9
	z M151.8,139.6L151.8,139.6l1-1C151.8,139.6,151.8,139.6,151.8,139.6z M120.4,167.9c-1,1-1,1-2,2
	C119.4,168.9,120.4,168.9,120.4,167.9L120.4,167.9z M151.8,139.6L151.8,139.6l1-1C151.8,139.6,151.8,139.6,151.8,139.6z
	 M120.4,167.9c-1,1-1,1-2,2C119.4,168.9,120.4,168.9,120.4,167.9L120.4,167.9z M151.8,139.6L151.8,139.6l1-1
	C151.8,139.6,151.8,139.6,151.8,139.6z"/>
</svg>
