<?xml version="1.0" encoding="utf-8"?>
<!-- Generator: Adobe Illustrator 23.0.0, SVG Export Plug-In . SVG Version: 6.00 Build 0)  -->
<svg version="1.1" id="Layer_1" xmlns="http://www.w3.org/2000/svg" xmlns:xlink="http://www.w3.org/1999/xlink" x="0px" y="0px"
	 viewBox="0 0 256 256" style="enable-background:new 0 0 256 256;" xml:space="preserve">
<style type="text/css">
	.st0{opacity:0.8;fill:#0E0E17;}
	.st1{fill:#0E0E17;}
	.st2{fill:none;stroke:#F75049;stroke-miterlimit:10;}
	.st3{fill:none;}
	.st4{fill:#CBA6F7;}
	.st5{fill:#F75049;}
</style>
<g>
	<g>
		<path class="st0" d="M218.1,40.1h-67.5c-6.8-6.3-13.6-12.7-20.4-19.1H37.7c-2.3,2.2-4.6,4.5-6.9,6.7v200.1l8,8h160.9
			c9-9.8,17.9-19.7,26.8-29.5V46.8C223.7,44.6,220.9,42.4,218.1,40.1z M218.3,168c-2.7,3.4-5.4,7-8.1,10.4v40.6
			c-2.6,2.6-5.3,5.1-7.9,7.7H48.9c-2.6-2.6-5.2-5.2-7.8-7.9v-40.4c-2.6-3.4-5.3-7-7.9-10.4V95.5c2.6-2.3,5.3-4.5,7.9-6.8V50.3
			c2.6-2.6,5.2-5.3,7.8-7.9h153.3c2.7,2.7,5.3,5.4,8,8.1v38.3c2.6,2.2,5.3,4.5,8,6.8V168z"/>
		<path class="st1" d="M218.1,40.1h-67.5c-6.8-6.3-13.6-12.7-20.4-19.1H37.7c-2.3,2.2-4.6,4.5-6.9,6.7v200.1l8,8h160.9
			c9-9.8,17.9-19.7,26.8-29.5V46.8C223.7,44.6,220.9,42.4,218.1,40.1z M218.3,168c-2.7,3.4-5.4,7-8.1,10.4v40.6
			c-2.6,2.6-5.3,5.1-7.9,7.7H48.9c-2.6-2.6-5.2-5.2-7.8-7.9v-40.4c-2.6-3.4-5.3-7-7.9-10.4V95.5c2.6-2.3,5.3-4.5,7.9-6.8V50.3
			c2.6-2.6,5.2-5.3,7.8-7.9h153.3c2.7,2.7,5.3,5.4,8,8.1v38.3c2.6,2.2,5.3,4.5,8,6.8V168z"/>
		<g>
			<path class="st1" d="M218.3,95.7V168c-2.7,3.4-5.4,7-8.1,10.4v40.6c-2.6,2.6-5.3,5.1-7.9,7.7H48.9c-2.6-2.6-5.2-5.2-7.8-7.9
				v-40.4c-2.6-3.4-5.3-7-7.9-10.4V95.5c2.6-2.3,5.3-4.5,7.9-6.8V50.3c2.6-2.6,5.2-5.3,7.8-7.9h153.3c2.7,2.7,5.3,5.4,8,8.1v38.3
				C212.9,91.1,215.6,93.4,218.3,95.7z"/>
		</g>
	</g>
	<path class="st2" d="M218.1,40.1h-67.5c-6.8-6.3-13.6-12.7-20.4-19.1H37.7c-2.3,2.2-4.6,4.5-6.9,6.7v200.1l8,8h160.9
		c9-9.8,17.9-19.7,26.8-29.5V46.8C223.7,44.6,220.9,42.4,218.1,40.1z M218.3,168c-2.7,3.4-5.4,7-8.1,10.4v40.6
		c-2.6,2.6-5.3,5.1-7.9,7.7H48.9c-2.6-2.6-5.2-5.2-7.8-7.9v-40.4c-2.6-3.4-5.3-7-7.9-10.4V95.5c2.6-2.3,5.3-4.5,7.9-6.8V50.3
		c2.6-2.6,5.2-5.3,7.8-7.9h153.3c2.7,2.7,5.3,5.4,8,8.1v38.3c2.6,2.2,5.3,4.5,8,6.8V168z"/>
</g>
<path class="st3" d="M64.9,175.8c13.5-12.9,27.1-25.6,40.7-38.4l-11.3,23.7l-0.1,0.2c-2.4,2.3-4.8,4.6-7.3,7.1
	c2-1.6,4.1-3.1,6.1-4.6l-15.5,32L64.9,175.8z"/>
<path class="st3" d="M92.3,71.3c-1.3,1.1-2.6,2.2-3.9,3.3l2.7-5.3L92.3,71.3z"/>
<path class="st3" d="M100.7,86.2c-4,3.4-8,6.8-12.1,10.3c-7.4,6.3-14.4,12.6-21.4,19l14.3-27.6c4-3.6,7.9-7.2,11.9-10.8
	c0.4-0.4,0.9-0.8,1.4-1.3L100.7,86.2z"/>
<path class="st3" d="M107.1,97.6c-3.8,3.4-7.5,6.8-11.3,10.4c-14.5,13.8-22.4,22.4-44.7,46l-2.2-3.5l12-23.2
	c13.9-11.4,28-23.6,42.2-36.7L107.1,97.6z"/>
<path class="st3" d="M116.7,114.4l-3.6,7.5c-18.1,17.2-34.8,34.2-50,51l-5.6-8.7c12.3-11.9,25.4-24.2,39-37.2
	c6.3-6,12.2-11.6,17.8-16.9L116.7,114.4z"/>
<path class="st3" d="M105.7,60.3c-0.8,0.7-1.7,1.5-2.6,2.2l-1.4-2.2H105.7z"/>
<path class="st3" d="M132.4,60.3c-6.8,5.4-13.8,11-20.8,16.7l-6.5-11c2.1-1.9,4.1-3.9,6.1-5.8H132.4z"/>
<path class="st3" d="M151,60.3c-10.1,8-21.3,17.3-32.9,27.4l-4.1-6.8c7.5-6.8,14.6-13.7,21.6-20.5H151z"/>
<path class="st3" d="M166.4,74.6c-11.5,9.5-23.2,19.6-34.9,30.2c-0.6,0.6-1.4,1.3-2,1.9l-4.2-7.1c14.2-13.6,25.9-24.6,35.4-33.6
	L166.4,74.6z"/>
<path class="st3" d="M152.5,107.4c-5.1,4.3-9.9,8.6-14.7,13l-5.3-8.7c11.7-11.8,23.3-23.6,35-35.4l7.9,11.9
	C167.8,94.3,160.2,100.7,152.5,107.4z"/>
<path class="st3" d="M185.4,103c-12.5,10.4-25.1,21.3-37.8,32.4h-0.7l-6.2-10.3c9.9-8.4,19.8-17.2,29.8-26.3c2.5-2.3,5.1-4.6,7.5-7
	L185.4,103z"/>
<path class="st3" d="M204.4,131.6c-1.5,1.3-3.1,2.5-4.6,3.9h-20.5c5.8-5.1,11.6-10.2,17.4-15.3c-7.3,4.7-14.9,9.8-22.5,15.3h-20.2
	c11.2-10.2,22.1-20.3,32.9-30.4L204.4,131.6z"/>
<path class="st3" d="M207,135.5h-0.5c0.1-0.1,0.2-0.2,0.3-0.3L207,135.5z"/>
<path class="st3" d="M176.5,195.7c4.1-2.4,9.4-7.3,13.5-11l-5.5,11H176.5z"/>
<path class="st3" d="M130.6,150.5c-8.5,7.6-17,15.2-25.3,22.8l11.4-22.8H130.6z"/>
<path class="st3" d="M153.5,150.5c-9.4,7.3-19.1,15-28.8,23.3c-8.5,7.3-16.6,14.6-24.3,21.9h-6.2l6.4-13
	c12.1-10.4,24.2-21.2,36.4-32.2H153.5z"/>
<path class="st3" d="M187,146.6c-1.3,1.3-2.5,2.6-3.9,3.9c-11.6,11.6-23.7,23.2-36.6,35c-3.8,3.5-7.6,6.8-11.3,10.2h-3.2
	c14.4-13.9,29.9-28,46.3-42.2c1.1-0.9,2.1-1.9,3.2-2.7c-17.2,13.4-34.9,27.8-52.9,43.4c-0.6,0.5-1.3,1.1-1.8,1.6h-16.5l27.2-23.7
	c8.1-7.2,16.3-14.3,24.4-21.5h19.9c0.8-0.7,1.6-1.3,2.3-1.9C185.2,148,186.1,147.4,187,146.6z"/>
<path class="st3" d="M207,150.5l-7.7,15.5c-16.6,13.2-28.3,17.1-29.3,26.6c-0.1,0.7-0.2,2,0.1,3.1h-33.3
	c17.5-13.9,35.3-28.9,53.3-45.2H207z"/>
<path class="st4" d="M167.5,76.2c-11.7,11.8-23.3,23.6-35,35.4l5.3,8.7c4.8-4.3,9.7-8.6,14.7-13c7.7-6.6,15.3-13.1,22.9-19.3
	L167.5,76.2z M177.9,91.9c-2.4,2.3-5,4.6-7.5,7c-10,9.2-19.9,17.9-29.8,26.3l6.2,10.3h0.7c12.7-11.2,25.3-22,37.8-32.4L177.9,91.9z
	 M101.7,60.3l1.4,2.2c0.9-0.7,1.8-1.5,2.6-2.2H101.7z M111.3,60.3c-2,1.9-4,3.9-6.1,5.8l6.5,11c7-5.8,13.9-11.4,20.8-16.7H111.3z
	 M160.8,66.1c-9.5,9-21.2,20-35.4,33.6l4.2,7.1c0.6-0.6,1.4-1.3,2-1.9c11.7-10.6,23.4-20.8,34.9-30.2L160.8,66.1z M135.6,60.3
	c-7,6.8-14.1,13.7-21.6,20.5l4.1,6.8c11.6-10.1,22.8-19.4,32.9-27.4H135.6z M186.7,105c-10.7,10.1-21.7,20.2-32.9,30.4H174
	c7.7-5.5,15.3-10.5,22.5-15.3c-5.8,5.1-11.6,10.2-17.4,15.3h20.5c1.6-1.4,3.2-2.6,4.6-3.9L186.7,105z M206.8,135.2
	c-0.1,0.1-0.2,0.2-0.3,0.3h0.5L206.8,135.2z M103.2,90.7C89,103.8,74.9,116,61,127.4l-12,23.2l2.2,3.5c22.2-23.6,30.1-32.2,44.7-46
	c3.8-3.6,7.5-7.1,11.3-10.4L103.2,90.7z M94.8,75.8c-0.4,0.4-0.9,0.8-1.4,1.3c-4,3.7-7.9,7.3-11.9,10.8l-14.3,27.6
	c7-6.3,14-12.6,21.4-19c4.1-3.5,8.1-7,12.1-10.3L94.8,75.8z M91.1,69.3l-2.7,5.3c1.3-1.1,2.6-2.2,3.9-3.3L91.1,69.3z M114.3,110.1
	c-5.6,5.3-11.5,10.8-17.8,16.9c-13.6,13-26.6,25.3-39,37.2l5.6,8.7c15.3-16.7,31.9-33.8,50-51l3.6-7.5L114.3,110.1z M64.9,175.8
	l12.6,19.9l15.5-32c-2,1.6-4.1,3.1-6.1,4.6c2.4-2.4,4.8-4.7,7.3-7.1l0.1-0.2l11.3-23.7C92,150.2,78.4,163,64.9,175.8z M137.1,150.5
	c-12.2,11.1-24.3,21.8-36.4,32.2l-6.4,13h6.2c7.7-7.3,15.8-14.6,24.3-21.9c9.7-8.3,19.4-16,28.8-23.3H137.1z M116.7,150.5
	l-11.4,22.8c8.3-7.6,16.7-15.2,25.3-22.8H116.7z M162,150.5c-8.1,7.2-16.3,14.3-24.4,21.5l-27.2,23.7h16.5c0.5-0.5,1.2-1.1,1.8-1.6
	c18-15.6,35.7-30,52.9-43.4c-1.1,0.8-2.1,1.8-3.2,2.7c-16.4,14.2-31.9,28.3-46.3,42.2h3.2c3.7-3.4,7.5-6.7,11.3-10.2
	c12.9-11.8,25-23.4,36.6-35H162z M190.1,150.5c-18,16.3-35.8,31.3-53.3,45.2h33.3c-0.3-1.1-0.2-2.3-0.1-3.1
	c0.9-9.6,12.6-13.5,29.3-26.6l7.7-15.5H190.1z M176.5,195.7h8l5.5-11C185.8,188.5,180.6,193.3,176.5,195.7z"/>
<path class="st5" d="M187,146.6c-1.3,1.3-2.5,2.6-3.9,3.9c-11.6,11.6-23.7,23.2-36.6,35c-3.8,3.5-7.6,6.8-11.3,10.2h-3.2
	c14.4-13.9,29.9-28,46.3-42.2c1.1-0.9,2.1-1.9,3.2-2.7c0.1-0.1,0.1-0.1,0.2-0.2h0.1c0.8-0.7,1.6-1.3,2.3-1.9
	C185.2,148,186.1,147.4,187,146.6z"/>
<path class="st5" d="M187,146.6c-1.3,1.3-2.5,2.6-3.9,3.9c-11.6,11.6-23.7,23.2-36.6,35c-3.8,3.5-7.6,6.8-11.3,10.2h-3.2
	c14.4-13.9,29.9-28,46.3-42.2c1.1-0.9,2.1-1.9,3.2-2.7c0.1-0.1,0.1-0.1,0.2-0.2h0.1c0.8-0.7,1.6-1.3,2.3-1.9
	C185.2,148,186.1,147.4,187,146.6z"/>
<path class="st5" d="M187,146.6c-1.3,1.3-2.5,2.6-3.9,3.9c-11.6,11.6-23.7,23.2-36.6,35c-3.8,3.5-7.6,6.8-11.3,10.2h-3.2
	c14.4-13.9,29.9-28,46.3-42.2c1.1-0.9,2.1-1.9,3.2-2.7c0.1-0.1,0.1-0.1,0.2-0.2h0.1c0.8-0.7,1.6-1.3,2.3-1.9
	C185.2,148,186.1,147.4,187,146.6z"/>
<path class="st5" d="M187,146.6c-1.3,1.3-2.5,2.6-3.9,3.9c-11.6,11.6-23.7,23.2-36.6,35c-3.8,3.5-7.6,6.8-11.3,10.2h-3.2
	c14.4-13.9,29.9-28,46.3-42.2c1.1-0.9,2.1-1.9,3.2-2.7c0.1-0.1,0.1-0.1,0.2-0.2h0.1c0.8-0.7,1.6-1.3,2.3-1.9
	C185.2,148,186.1,147.4,187,146.6z"/>
<path class="st5" d="M187,146.6c-1.3,1.3-2.5,2.6-3.9,3.9c-11.6,11.6-23.7,23.2-36.6,35c-3.8,3.5-7.6,6.8-11.3,10.2h-3.2
	c14.4-13.9,29.9-28,46.3-42.2c1.1-0.9,2.1-1.9,3.2-2.7c0.1-0.1,0.1-0.1,0.2-0.2h0.1c0.8-0.7,1.6-1.3,2.3-1.9
	C185.2,148,186.1,147.4,187,146.6z"/>
<path class="st5" d="M187,146.6c-1.3,1.3-2.5,2.6-3.9,3.9c-11.6,11.6-23.7,23.2-36.6,35c-3.8,3.5-7.6,6.8-11.3,10.2h-3.2
	c14.4-13.9,29.9-28,46.3-42.2c1.1-0.9,2.1-1.9,3.2-2.7c0.1-0.1,0.1-0.1,0.2-0.2h0.1c0.8-0.7,1.6-1.3,2.3-1.9
	C185.2,148,186.1,147.4,187,146.6z"/>
<path class="st5" d="M187,146.6c-1.3,1.3-2.5,2.6-3.9,3.9c-11.6,11.6-23.7,23.2-36.6,35c-3.8,3.5-7.6,6.8-11.3,10.2h-3.2
	c14.4-13.9,29.9-28,46.3-42.2c1.1-0.9,2.1-1.9,3.2-2.7c0.1-0.1,0.1-0.1,0.2-0.2h0.1c0.8-0.7,1.6-1.3,2.3-1.9
	C185.2,148,186.1,147.4,187,146.6z"/>
<path class="st5" d="M187,146.6c-1.3,1.3-2.5,2.6-3.9,3.9c-11.6,11.6-23.7,23.2-36.6,35c-3.8,3.5-7.6,6.8-11.3,10.2h-3.2
	c14.4-13.9,29.9-28,46.3-42.2c1.1-0.9,2.1-1.9,3.2-2.7c0.1-0.1,0.1-0.1,0.2-0.2h0.1c0.8-0.7,1.6-1.3,2.3-1.9
	C185.2,148,186.1,147.4,187,146.6z"/>
<path class="st5" d="M187,146.6c-1.3,1.3-2.5,2.6-3.9,3.9c-11.6,11.6-23.7,23.2-36.6,35c-3.8,3.5-7.6,6.8-11.3,10.2h-3.2
	c14.4-13.9,29.9-28,46.3-42.2c1.1-0.9,2.1-1.9,3.2-2.7c0.1-0.1,0.1-0.1,0.2-0.2h0.1c0.8-0.7,1.6-1.3,2.3-1.9
	C185.2,148,186.1,147.4,187,146.6z"/>
<path class="st5" d="M187,146.6c-1.3,1.3-2.5,2.6-3.9,3.9c-11.6,11.6-23.7,23.2-36.6,35c-3.8,3.5-7.6,6.8-11.3,10.2h-3.2
	c14.4-13.9,29.9-28,46.3-42.2c1.1-0.9,2.1-1.9,3.2-2.7c0.1-0.1,0.1-0.1,0.2-0.2h0.1c0.8-0.7,1.6-1.3,2.3-1.9
	C185.2,148,186.1,147.4,187,146.6z"/>
<path class="st5" d="M92.3,71.3c-1.3,1.1-2.6,2.2-3.9,3.3l2.7-5.3L92.3,71.3z"/>
<path class="st5" d="M100.7,86.2c-4,3.4-8,6.8-12.1,10.3c-7.4,6.3-14.4,12.6-21.4,19l14.3-27.6c4-3.6,7.9-7.2,11.9-10.8
	c0.4-0.4,0.9-0.8,1.4-1.3L100.7,86.2z"/>
<path class="st5" d="M107.1,97.6c-3.8,3.4-7.5,6.8-11.3,10.4c-14.5,13.8-22.4,22.4-44.7,46l-2.2-3.5l12-23.2
	c13.9-11.4,28-23.6,42.2-36.7L107.1,97.6z"/>
<path class="st5" d="M105.7,60.3c-0.8,0.7-1.7,1.5-2.6,2.2l-1.4-2.2H105.7z"/>
<path class="st5" d="M132.4,60.3c-6.8,5.4-13.8,11-20.8,16.7l-6.5-11c2.1-1.9,4.1-3.9,6.1-5.8H132.4z"/>
<path class="st5" d="M151,60.3c-10.1,8-21.3,17.3-32.9,27.4l-4.1-6.8c7.5-6.8,14.6-13.7,21.6-20.5H151z"/>
<path class="st5" d="M64.9,175.8c13.5-12.9,27.1-25.6,40.7-38.4l-11.3,23.7l-0.1,0.2c-2.4,2.3-4.8,4.6-7.3,7.1
	c2-1.6,4.1-3.1,6.1-4.6l-15.5,32L64.9,175.8z"/>
<path class="st5" d="M116.7,114.4l-3.6,7.5c-18.1,17.2-34.8,34.2-50,51l-5.6-8.7c12.3-11.9,25.4-24.2,39-37.2
	c6.3-6,12.2-11.6,17.8-16.9L116.7,114.4z"/>
<path class="st5" d="M189.9,184.8l-5.5,11h-8C180.6,193.3,185.8,188.5,189.9,184.8z"/>
<path class="st5" d="M130.6,150.5c-8.5,7.6-17,15.2-25.3,22.8l11.4-22.8H130.6z"/>
<path class="st5" d="M153.5,150.5c-9.4,7.3-19.1,15-28.8,23.3c-8.5,7.3-16.6,14.6-24.3,21.9h-6.2l6.4-13
	c12.1-10.4,24.2-21.2,36.4-32.2H153.5z"/>
<path class="st5" d="M187,146.6c-1.3,1.3-2.5,2.6-3.9,3.9c-11.6,11.6-23.7,23.2-36.6,35c-3.8,3.5-7.6,6.8-11.3,10.2h-3.2
	c14.4-13.9,29.9-28,46.3-42.2c1.1-0.9,2.1-1.9,3.2-2.7c-17.2,13.4-34.9,27.8-52.9,43.4c-0.6,0.5-1.3,1.1-1.8,1.6h-16.5l27.2-23.7
	c8.1-7.2,16.3-14.3,24.4-21.5h19.9c0.8-0.7,1.6-1.3,2.3-1.9C185.2,148,186.1,147.4,187,146.6z"/>
<path class="st5" d="M207,150.5l-7.7,15.5c-16.6,13.2-28.3,17.1-29.3,26.6c-0.1,0.7-0.2,2,0.1,3.1h-33.3
	c17.5-13.9,35.3-28.9,53.3-45.2H207z"/>
<path class="st5" d="M166.4,74.6c-11.5,9.5-23.2,19.6-34.9,30.2c-0.6,0.6-1.4,1.3-2,1.9l-4.2-7.1c14.2-13.6,25.9-24.6,35.4-33.6
	L166.4,74.6z"/>
<path class="st5" d="M152.5,107.4c-5.1,4.3-9.9,8.6-14.7,13l-5.3-8.7c11.7-11.8,23.3-23.6,35-35.4l7.9,11.9
	C167.8,94.3,160.2,100.7,152.5,107.4z"/>
<path class="st5" d="M185.4,103c-12.5,10.4-25.1,21.3-37.8,32.4h-0.7l-6.2-10.3c9.9-8.4,19.8-17.2,29.8-26.3c2.5-2.3,5.1-4.6,7.5-7
	L185.4,103z"/>
<path class="st5" d="M204.4,131.6c-1.5,1.3-3.1,2.5-4.6,3.9h-20.5c5.8-5.1,11.6-10.2,17.4-15.3c-7.3,4.7-14.9,9.8-22.5,15.3h-20.2
	c11.2-10.2,22.1-20.3,32.9-30.4L204.4,131.6z"/>
<path class="st5" d="M207,135.5h-0.5c0.1-0.1,0.2-0.2,0.3-0.3L207,135.5z"/>
<path class="st5" d="M187,146.6c-1.3,1.3-2.5,2.6-3.9,3.9c-11.6,11.6-23.7,23.2-36.6,35c-3.8,3.5-7.6,6.8-11.3,10.2h-3.2
	c14.4-13.9,29.9-28,46.3-42.2c1.1-0.9,2.1-1.9,3.2-2.7c0.1-0.1,0.1-0.1,0.2-0.2h0.1c0.8-0.7,1.6-1.3,2.3-1.9
	C185.2,148,186.1,147.4,187,146.6z"/>
<path class="st5" d="M187,146.6c-1.3,1.3-2.5,2.6-3.9,3.9c-11.6,11.6-23.7,23.2-36.6,35c-3.8,3.5-7.6,6.8-11.3,10.2h-3.2
	c14.4-13.9,29.9-28,46.3-42.2c1.1-0.9,2.1-1.9,3.2-2.7c0.1-0.1,0.1-0.1,0.2-0.2h0.1c0.8-0.7,1.6-1.3,2.3-1.9
	C185.2,148,186.1,147.4,187,146.6z"/>
<path class="st5" d="M187,146.6c-1.3,1.3-2.5,2.6-3.9,3.9c-11.6,11.6-23.7,23.2-36.6,35c-3.8,3.5-7.6,6.8-11.3,10.2h-3.2
	c14.4-13.9,29.9-28,46.3-42.2c1.1-0.9,2.1-1.9,3.2-2.7c0.1-0.1,0.1-0.1,0.2-0.2h0.1c0.8-0.7,1.6-1.3,2.3-1.9
	C185.2,148,186.1,147.4,187,146.6z"/>
<path class="st5" d="M187,146.6c-1.3,1.3-2.5,2.6-3.9,3.9c-11.6,11.6-23.7,23.2-36.6,35c-3.8,3.5-7.6,6.8-11.3,10.2h-3.2
	c14.4-13.9,29.9-28,46.3-42.2c1.1-0.9,2.1-1.9,3.2-2.7c0.1-0.1,0.1-0.1,0.2-0.2h0.1c0.8-0.7,1.6-1.3,2.3-1.9
	C185.2,148,186.1,147.4,187,146.6z"/>
<path class="st5" d="M187,146.6c-1.3,1.3-2.5,2.6-3.9,3.9c-11.6,11.6-23.7,23.2-36.6,35c-3.8,3.5-7.6,6.8-11.3,10.2h-3.2
	c14.4-13.9,29.9-28,46.3-42.2c1.1-0.9,2.1-1.9,3.2-2.7c0.1-0.1,0.1-0.1,0.2-0.2h0.1c0.8-0.7,1.6-1.3,2.3-1.9
	C185.2,148,186.1,147.4,187,146.6z"/>
<path class="st5" d="M187,146.6c-1.3,1.3-2.5,2.6-3.9,3.9c-11.6,11.6-23.7,23.2-36.6,35c-3.8,3.5-7.6,6.8-11.3,10.2h-3.2
	c14.4-13.9,29.9-28,46.3-42.2c1.1-0.9,2.1-1.9,3.2-2.7c0.1-0.1,0.1-0.1,0.2-0.2h0.1c0.8-0.7,1.6-1.3,2.3-1.9
	C185.2,148,186.1,147.4,187,146.6z"/>
<path class="st5" d="M187,146.6c-1.3,1.3-2.5,2.6-3.9,3.9c-11.6,11.6-23.7,23.2-36.6,35c-3.8,3.5-7.6,6.8-11.3,10.2h-3.2
	c14.4-13.9,29.9-28,46.3-42.2c1.1-0.9,2.1-1.9,3.2-2.7c0.1-0.1,0.1-0.1,0.2-0.2h0.1c0.8-0.7,1.6-1.3,2.3-1.9
	C185.2,148,186.1,147.4,187,146.6z"/>
<path class="st5" d="M187,146.6c-1.3,1.3-2.5,2.6-3.9,3.9c-11.6,11.6-23.7,23.2-36.6,35c-3.8,3.5-7.6,6.8-11.3,10.2h-3.2
	c14.4-13.9,29.9-28,46.3-42.2c1.1-0.9,2.1-1.9,3.2-2.7c0.1-0.1,0.1-0.1,0.2-0.2h0.1c0.8-0.7,1.6-1.3,2.3-1.9
	C185.2,148,186.1,147.4,187,146.6z"/>
<path class="st5" d="M187,146.6c-1.3,1.3-2.5,2.6-3.9,3.9c-11.6,11.6-23.7,23.2-36.6,35c-3.8,3.5-7.6,6.8-11.3,10.2h-3.2
	c14.4-13.9,29.9-28,46.3-42.2c1.1-0.9,2.1-1.9,3.2-2.7c0.1-0.1,0.1-0.1,0.2-0.2h0.1c0.8-0.7,1.6-1.3,2.3-1.9
	C185.2,148,186.1,147.4,187,146.6z"/>
<path class="st5" d="M187,146.6c-1.3,1.3-2.5,2.6-3.9,3.9c-11.6,11.6-23.7,23.2-36.6,35c-3.8,3.5-7.6,6.8-11.3,10.2h-3.2
	c14.4-13.9,29.9-28,46.3-42.2c1.1-0.9,2.1-1.9,3.2-2.7c0.1-0.1,0.1-0.1,0.2-0.2h0.1c0.8-0.7,1.6-1.3,2.3-1.9
	C185.2,148,186.1,147.4,187,146.6z"/>
</svg>
