<?xml version="1.0" encoding="utf-8"?>
<!-- Generator: Adobe Illustrator 23.0.0, SVG Export Plug-In . SVG Version: 6.00 Build 0)  -->
<svg version="1.1" id="Layer_1" xmlns="http://www.w3.org/2000/svg" xmlns:xlink="http://www.w3.org/1999/xlink" x="0px" y="0px"
	 viewBox="0 0 256 256" style="enable-background:new 0 0 256 256;" xml:space="preserve">
<style type="text/css">
	.st0{opacity:0.8;fill:#0E0E17;}
	.st1{fill:#0E0E17;}
	.st2{fill:none;stroke:#F75049;stroke-miterlimit:10;}
	.st3{fill:#CBA6F7;}
	.st4{fill:#F75049;}
</style>
<g>
	<g>
		<path class="st0" d="M218.1,40.1h-67.5c-6.8-6.3-13.6-12.7-20.4-19.1H37.7c-2.3,2.2-4.6,4.5-6.9,6.7v200.1l8,8h160.9
			c9-9.8,17.9-19.7,26.8-29.5V46.8C223.7,44.6,220.9,42.4,218.1,40.1z M218.3,168c-2.7,3.4-5.4,7-8.1,10.4v40.6
			c-2.6,2.6-5.3,5.1-7.9,7.7H48.9c-2.6-2.6-5.2-5.2-7.8-7.9v-40.4c-2.6-3.4-5.3-7-7.9-10.4V95.5c2.6-2.3,5.3-4.5,7.9-6.8V50.3
			c2.6-2.6,5.2-5.3,7.8-7.9h153.3c2.7,2.7,5.3,5.4,8,8.1v38.3c2.6,2.2,5.3,4.5,8,6.8V168z"/>
		<path class="st1" d="M218.1,40.1h-67.5c-6.8-6.3-13.6-12.7-20.4-19.1H37.7c-2.3,2.2-4.6,4.5-6.9,6.7v200.1l8,8h160.9
			c9-9.8,17.9-19.7,26.8-29.5V46.8C223.7,44.6,220.9,42.4,218.1,40.1z M218.3,168c-2.7,3.4-5.4,7-8.1,10.4v40.6
			c-2.6,2.6-5.3,5.1-7.9,7.7H48.9c-2.6-2.6-5.2-5.2-7.8-7.9v-40.4c-2.6-3.4-5.3-7-7.9-10.4V95.5c2.6-2.3,5.3-4.5,7.9-6.8V50.3
			c2.6-2.6,5.2-5.3,7.8-7.9h153.3c2.7,2.7,5.3,5.4,8,8.1v38.3c2.6,2.2,5.3,4.5,8,6.8V168z"/>
		<g>
			<path class="st1" d="M218.3,95.7V168c-2.7,3.4-5.4,7-8.1,10.4v40.6c-2.6,2.6-5.3,5.1-7.9,7.7H48.9c-2.6-2.6-5.2-5.2-7.8-7.9
				v-40.4c-2.6-3.4-5.3-7-7.9-10.4V95.5c2.6-2.3,5.3-4.5,7.9-6.8V50.3c2.6-2.6,5.2-5.3,7.8-7.9h153.3c2.7,2.7,5.3,5.4,8,8.1v38.3
				C212.9,91.1,215.6,93.4,218.3,95.7z"/>
		</g>
	</g>
	<path class="st2" d="M218.1,40.1h-67.5c-6.8-6.3-13.6-12.7-20.4-19.1H37.7c-2.3,2.2-4.6,4.5-6.9,6.7v200.1l8,8h160.9
		c9-9.8,17.9-19.7,26.8-29.5V46.8C223.7,44.6,220.9,42.4,218.1,40.1z M218.3,168c-2.7,3.4-5.4,7-8.1,10.4v40.6
		c-2.6,2.6-5.3,5.1-7.9,7.7H48.9c-2.6-2.6-5.2-5.2-7.8-7.9v-40.4c-2.6-3.4-5.3-7-7.9-10.4V95.5c2.6-2.3,5.3-4.5,7.9-6.8V50.3
		c2.6-2.6,5.2-5.3,7.8-7.9h153.3c2.7,2.7,5.3,5.4,8,8.1v38.3c2.6,2.2,5.3,4.5,8,6.8V168z"/>
</g>
<path class="st3" d="M90.4,138.9c0,0-0.9,0.9-0.9,0c-0.9,0,0,0,0-0.9C89.5,138,90.4,138,90.4,138.9z"/>
<path class="st3" d="M92.2,137c0,0-0.9,0.9-0.9,0c-0.9,0,0,0,0-0.9C91.3,136.1,92.2,136.1,92.2,137z"/>
<path class="st3" d="M131.1,73.2c-2.8-2.8-6.5-3.7-9.2-1.8l-5.5,4.6h0.9c6.5,0.9,12,0,16.6-0.9L131.1,73.2z M148.6,125.9
	L148.6,125.9c1.8,0,1.8,0,1.8,0S149.6,125.9,148.6,125.9z"/>
<path class="st4" d="M148.6,125.9L148.6,125.9c1.8,0,1.8,0,1.8,0S149.6,125.9,148.6,125.9z"/>
<path class="st4" d="M80.2,149c-0.9-0.9,0-1.8,0-3.7c0-1.8,2.8-0.9,2.8,1.8C82.1,148.1,81.2,150,80.2,149z"/>
<path class="st4" d="M121.8,118.5v35.1c-0.9,0-1.8,0.9-2.8,1.8c-1.8,1.8-2.8,4.6-2.8,6.5l-10.2,10.2l-6.5,5.5l-5.5-5.5l-5.5-6.5
	l32.4-30.5v-2.8c-2.8,1.8-3.7,2.8-4.6,2.8c0,0-0.9-1.8-1.8-2.8l-3.7,1.8L83,161.1l-2.8-2.8l27.7-27.7l1.8-0.9c0,0,0,0-0.9,0l0.9-0.9
	L108,125h-3.7c-1.8-0.9-4.6-1.8-7.4-2.8c-0.9,0-0.9,0-1.8,0l-25.9,25l-3.7-4.6l22.2-19.4l0.9-2.8c-0.9,0-2.8,0-3.7,0l1.8,0.9
	l-3.7,0.9c0,0-0.9,0-1.8-0.9c-0.9,0-0.9,0-1.8,0l-2.8,2.8L60.8,137c0-0.9,0-2.8,0-3.7l8.3-8.3c-0.9,0.9-2.8,1.8-4.6,2.8l25-25
	c6.5,0,13.9-0.9,21.3-2.8l5.5,4.6c-0.9,3.7,0,8.3,2.8,11.1C120,116.7,120.9,117.6,121.8,118.5z"/>
<path class="st4" d="M88.6,140.7c0,0-0.9,0.9-0.9,0c-0.9,0,0,0,0-0.9C86.7,139.8,88.6,139.8,88.6,140.7z"/>
<path class="st4" d="M83.9,143.5c-0.9,0,0-0.9,0-1.8c0-0.9,2.8-0.9,2.8,0.9C86.7,142.6,85.8,143.5,83.9,143.5z"/>
<path class="st4" d="M77.5,152.7l-0.9,0.9l-1.8-1.8v-0.9C74.7,149,77.5,150,77.5,152.7z"/>
<path class="st4" d="M131.1,73.2c-2.8-2.8-6.5-3.7-9.2-1.8l-5.5,4.6h0.9c6.5,0.9,12,0,16.6-0.9L131.1,73.2z"/>
<path class="st4" d="M187.5,129.6l-25-25c-3.7,0.9-6.5,0.9-10.2,0.9l5.5-5.5l-9.2-9.2l-12.9-13.9c-1.8,0-2.8,0.9-4.6,0.9
	c-5.5,0.9-10.2,0.9-16.6,0l0,0l-6.5,6.5l14.8,14.8c3.7-0.9,7.4,0,10.2,2.8s3.7,6.5,1.8,10.2l13.9,13.9c0.9,0,0.9,0,1.8,0.9
	c2.8-0.9,6.5,0,9.2,2.8c0,0,0,0,0,0.9c3.7,3.7,2.8,9.2,0,13.9c-3.7,3.7-10.2,3.7-13.9,0c-2.8-4.6-3.7-9.2-1.8-12l-4.6-4.6l-9.2-9.2
	v35.1c0.9,0,1.8,0.9,2.8,1.8c0.9,0.9,1.8,1.8,1.8,2.8c0,0,0.9-0.9,1.8-0.9c0.9,0,0,0.9,0,1.8c0,0.9-0.9,0.9-1.8,0
	c0.9,3.7,0.9,7.4-2.8,10.2c-3.7,3.7-10.2,3.7-13.9,0c-0.9-0.9-1.8-3.7-1.8-5.5L107,174l-2.8,2.8l-2.8,2.8l5.5,5.5l12-11.1l1.8,1.8
	l-2.8,2.8l-10.2,9.2l11.1,10.2c2.8,3.7,8.3,3.7,12,0l56.4-56.4C191.2,138,191.2,132.4,187.5,129.6z M135.7,90.8
	c-0.9,0.9-0.9-0.9-0.9-3.7s1.8,0,2.8,1.8C137.5,89.9,136.6,90.8,135.7,90.8z M139.4,154.6h-0.9C138.5,154.6,138.5,153.7,139.4,154.6
	C140.3,153.7,139.4,154.6,139.4,154.6z"/>
<path class="st4" d="M195.8,55.7L195.8,55.7z"/>
</svg>
