<?xml version="1.0" encoding="utf-8"?>
<!-- Generator: Adobe Illustrator 23.0.0, SVG Export Plug-In . SVG Version: 6.00 Build 0)  -->
<svg version="1.1" id="Layer_1" xmlns="http://www.w3.org/2000/svg" xmlns:xlink="http://www.w3.org/1999/xlink" x="0px" y="0px"
	 viewBox="0 0 256 256" style="enable-background:new 0 0 256 256;" xml:space="preserve">
<style type="text/css">
	.st0{opacity:0.8;fill:#0E0E17;}
	.st1{fill:#0E0E17;}
	.st2{fill:none;stroke:#F75049;stroke-miterlimit:10;}
	.st3{fill:#F75049;}
	.st4{fill-rule:evenodd;clip-rule:evenodd;fill:#F75049;}
</style>
<g>
	<g>
		<path class="st0" d="M218.1,40.1h-67.5c-6.8-6.3-13.6-12.7-20.4-19.1H37.7c-2.3,2.2-4.6,4.5-6.9,6.7v200.1l8,8h160.9
			c9-9.8,17.9-19.7,26.8-29.5V46.8C223.7,44.6,220.9,42.4,218.1,40.1z M218.3,168c-2.7,3.4-5.4,7-8.1,10.4v40.6
			c-2.6,2.6-5.3,5.1-7.9,7.7H48.9c-2.6-2.6-5.2-5.2-7.8-7.9v-40.4c-2.6-3.4-5.3-7-7.9-10.4V95.5c2.6-2.3,5.3-4.5,7.9-6.8V50.3
			c2.6-2.6,5.2-5.3,7.8-7.9h153.3c2.7,2.7,5.3,5.4,8,8.1v38.3c2.6,2.2,5.3,4.5,8,6.8V168z"/>
		<path class="st1" d="M218.1,40.1h-67.5c-6.8-6.3-13.6-12.7-20.4-19.1H37.7c-2.3,2.2-4.6,4.5-6.9,6.7v200.1l8,8h160.9
			c9-9.8,17.9-19.7,26.8-29.5V46.8C223.7,44.6,220.9,42.4,218.1,40.1z M218.3,168c-2.7,3.4-5.4,7-8.1,10.4v40.6
			c-2.6,2.6-5.3,5.1-7.9,7.7H48.9c-2.6-2.6-5.2-5.2-7.8-7.9v-40.4c-2.6-3.4-5.3-7-7.9-10.4V95.5c2.6-2.3,5.3-4.5,7.9-6.8V50.3
			c2.6-2.6,5.2-5.3,7.8-7.9h153.3c2.7,2.7,5.3,5.4,8,8.1v38.3c2.6,2.2,5.3,4.5,8,6.8V168z"/>
		<g>
			<path class="st1" d="M218.3,95.7V168c-2.7,3.4-5.4,7-8.1,10.4v40.6c-2.6,2.6-5.3,5.1-7.9,7.7H48.9c-2.6-2.6-5.2-5.2-7.8-7.9
				v-40.4c-2.6-3.4-5.3-7-7.9-10.4V95.5c2.6-2.3,5.3-4.5,7.9-6.8V50.3c2.6-2.6,5.2-5.3,7.8-7.9h153.3c2.7,2.7,5.3,5.4,8,8.1v38.3
				C212.9,91.1,215.6,93.4,218.3,95.7z"/>
		</g>
	</g>
	<path class="st2" d="M218.1,40.1h-67.5c-6.8-6.3-13.6-12.7-20.4-19.1H37.7c-2.3,2.2-4.6,4.5-6.9,6.7v200.1l8,8h160.9
		c9-9.8,17.9-19.7,26.8-29.5V46.8C223.7,44.6,220.9,42.4,218.1,40.1z M218.3,168c-2.7,3.4-5.4,7-8.1,10.4v40.6
		c-2.6,2.6-5.3,5.1-7.9,7.7H48.9c-2.6-2.6-5.2-5.2-7.8-7.9v-40.4c-2.6-3.4-5.3-7-7.9-10.4V95.5c2.6-2.3,5.3-4.5,7.9-6.8V50.3
		c2.6-2.6,5.2-5.3,7.8-7.9h153.3c2.7,2.7,5.3,5.4,8,8.1v38.3c2.6,2.2,5.3,4.5,8,6.8V168z"/>
</g>
<g>
	<path class="st3" d="M140.1,241.7L140.1,241.7h0.9l0,0C141,240.8,141,240.8,140.1,241.7z"/>
	<path class="st4" d="M171.1,83.5C171.9,83.5,171.9,83.5,171.1,83.5L171.1,83.5C171.9,83.5,171.9,83.5,171.1,83.5z"/>
	<path class="st4" d="M112.7,79.1c0,0,0.9-0.9,2.7-1.8C114.5,78.2,113.6,78.2,112.7,79.1L112.7,79.1z"/>
	<path class="st3" d="M193.2,162.2l-1.8-0.9c-2.7,1.8-5.3,4.4-6.2,3.5c-0.9,0-0.9-1.8-0.9-1.8c0-1.8,0.9-2.7,2.7-4.4
		c0.9-3.5,1.8-7.1,2.7-10.6c-4.4,3.5-8,7.1-12.4,10.6c-8,19.4-26.5,32.7-48.6,32.7c-9.7,0-18.6-2.7-26.5-7.1
		c-0.9-0.9-1.8-0.9-2.7-1.8c-7.1-4.4-12.4-9.7-16.8-16.8c-4.4-7.1-7.1-16.8-7.1-27.4c0-28.3,22.1-51.2,49.5-53c0.9,0,1.8,0,3.5,0
		c0.9,0,1.8,0,2.7,0c4.4,0,8,0.9,11.5,1.8c1.8-0.9,2.7-1.8,4.4-2.7c-1.8,0.9-2.7,1.8-3.5,2.7c8.8,2.7,16.8,7.1,23,13.3
		c0.9-0.9,1.8-1.8,2.7-2.7c-0.9,0.9-1.8,1.8-2.7,2.7c1.8,1.8,2.7,3.5,4.4,5.3c0.9-0.9,2.7-1.8,3.5-2.7l-3.5,3.5
		c0.9,0.9,1.8,2.7,2.7,3.5c2.7-1.8,4.4-3.5,7.1-5.3c-0.9-1.8-2.7-3.5-3.5-5.3l6.2-7.1l-10.6-8.8l0,0l0,0l-8.8-6.2l-5.3,7.1
		c-5.3-3.5-11.5-5.3-17.7-7.1l0,0V66.7l-23.9,3.5v7.1h-0.9c-1.8,0.9-2.7,1.8-3.5,1.8c0,0,0,0,0-0.9c-5.3,1.8-9.7,3.5-14.1,6.2
		l-6.2-7.1l-17.7,15l5.3,7.1c-1.8,2.7-3.5,5.3-5.3,8c-1.8,2.7-2.7,6.2-4.4,8.8l-8.8-1.8l-3.5,23l8.8,1.8c0,7.1,0.9,13.3,3.5,19.4
		l-8,4.4l4.4,7.1c3.5,1.8,6.2,4.4,7.1,7.1c0,1.8-0.9,1.8-0.9,3.5l1.8,2.7l8-4.4c1.8,2.7,4.4,4.4,6.2,6.2c2.7,2.7,5.3,4.4,8.8,6.2
		l-3.5,8.8l21.2,8l1.8-3.5l21.2-4.4l3.5,8l10.6-3.5l11.5-4.4l-1.8-4.4l-1.8-3.5c5.3-3.5,10.6-8,15-12.4l2.7,1.8l4.4,2.7l11.5-20.3
		L193.2,162.2z M60.6,126.8c2.7-2.7,4.4-6.2,7.1-8.8c0,0.9,0,1.8,0,2.7C65.9,122.4,63.3,125,60.6,126.8z M73.9,171.9
		c0,0-0.9-0.9-2.7-2.7c-0.9,0-0.9-0.9-1.8-1.8c-0.9-0.9-0.9-1.8-0.9-1.8c0-0.9,0.9-0.9,1.8-1.8c0.9-0.9,1.8-1.8,3.5-3.5
		c0,1.8-0.9,2.7-0.9,3.5s-0.9,1.8-0.9,1.8s0.9,0,0.9,0.9c0.9,0.9,0,0.9,0,1.8l0,0C73,171,73.9,171.9,73.9,171.9z"/>
	<path class="st4" d="M182.6,108.3c-0.9-0.9-0.9-2.7-1.8-3.5c-1.8,1.8-4.4,3.5-7.1,5.3c0.9,1.8,1.8,2.7,2.7,4.4
		c0.9,0.9,0.9,2.7,1.8,3.5c2.7-1.8,4.4-4.4,7.1-6.2C184.3,110.9,183.4,109.1,182.6,108.3z"/>
	<path class="st4" d="M102.1,162.2c-5.3-6.2-8.8-15-8.8-23.9c0-7.1,2.7-14.1,6.2-19.4c-4.4,3.5-8.8,8-15,13.3
		c-1.8,11.5,1.8,23,8,31.8c3.5,5.3,8,8.8,13.3,12.4l0,0c2.7-1.8,5.3-3.5,7.1-6.2C109.2,168.3,105.7,165.7,102.1,162.2z"/>
	<g>
		<path class="st3" d="M90.7,116.2c-3.5,4.4-4.4,9.7-5.3,14.1c16.8-17.7,27.4-29.2,32.7-35.3C106.6,97.6,96,105.6,90.7,116.2z"/>
		<path class="st3" d="M93.3,117.1c0.9-1.8,2.7-4.4,6.2-7.1c0.9-1.8,1.8-1.8,2.7-2.7c0,0.9-0.9,1.8-1.8,2.7
			C97.7,112.7,96,115.3,93.3,117.1z"/>
	</g>
	<path class="st3" d="M125.1,94.1c-1.8,0-2.7,0-3.5,0.9c-2.7,1.8-4.4,4.4-4.4,5.3c-1.8,1.8-3.5,4.4-8,8c4.4-2.7,9.7-5.3,15.9-5.3
		c3.5-2.7,6.2-6.2,9.7-8.8C131.3,94.1,128.6,94.1,125.1,94.1z"/>
	<path class="st3" d="M135.7,95c-1.8,1.8-3.5,3.5-5.3,5.3c-0.9,0.9-1.8,1.8-2.7,2.7h0.9c1.8,0,3.5,0,4.4,0c2.7-2.7,5.3-5.3,8-7.1
		C139.3,95,137.5,95,135.7,95z"/>
	<path class="st3" d="M150.7,100.3c-2.7-1.8-4.4-2.7-7.1-3.5c-1.8,1.8-3.5,2.7-5.3,4.4c0,0.9-0.9,1.8-1.8,2.7
		c6.2,0.9,11.5,4.4,15.9,8.8c2.7-1.8,4.4-3.5,7.1-5.3C156.9,103.8,153.4,102.1,150.7,100.3z"/>
	<path class="st3" d="M160.5,107.4c-1.8,1.8-4.4,4.4-6.2,6.2c0.9,0.9,2.7,2.7,3.5,3.5c2.7-1.8,4.4-3.5,7.1-5.3
		C163.1,110,161.3,109.1,160.5,107.4z"/>
	<path class="st3" d="M164.9,112.7c-1.8,1.8-4.4,4.4-6.2,6.2c0.9,0.9,0.9,1.8,1.8,2.7c1.8-1.8,3.5-3.5,6.2-5.3
		C165.8,115.3,165.8,113.6,164.9,112.7z"/>
	<path class="st3" d="M171.9,132.1c0-1.8-0.9-3.5-0.9-5.3c-1.8,1.8-3.5,3.5-4.4,4.4s-1.8,1.8-2.7,2.7c0,0.9,0,2.7,0,3.5v0.9
		C166.6,136.5,169.3,134.8,171.9,132.1z"/>
	<path class="st3" d="M186.1,116.2c-0.9-0.9-0.9-2.7-1.8-3.5c-2.7,2.7-4.4,4.4-7.1,7.1c0.9,1.8,0.9,3.5,1.8,5.3
		c3.5-3.5,8-7.1,11.5-9.7L186.1,116.2z"/>
	<path class="st3" d="M190.5,139.2l8-1.8h0.9l-2.7-15c-5.3,4.4-9.7,9.7-15,14.1c0,0.9,0,1.8,0,2.7c0,1.8,0,2.7,0,4.4
		c4.4-3.5,9.7-7.1,14.1-9.7c-3.5,3.5-7.1,7.1-11.5,9.7c-0.9,0.9-1.8,1.8-2.7,2.7c0,2.7-0.9,5.3-1.8,8c2.7-2.7,5.3-4.4,8.8-7.1
		c-2.7,2.7-6.2,5.3-8.8,8c0,0.9,0,1.8-0.9,1.8c4.4-3.5,8-8,11.5-11.5c0-0.9,0.9-0.9,0.9-1.8c-0.9,0.9-0.9,0.9-0.9,0.9
		c0-0.9,0-2.7,0-3.5C190.5,140.9,190.5,140.1,190.5,139.2z"/>
	<path class="st3" d="M170.2,146.2c-3.5,3.5-7.1,6.2-10.6,8.8l0,0c-4.4,7.1-10.6,13.3-18.6,15.9c-2.7,2.7-5.3,4.4-8,7.1
		c1.8-1.8,4.4-4.4,6.2-6.2c-3.5,0.9-7.1,1.8-10.6,1.8c-4.4,0-8.8-0.9-12.4-2.7c-2.7,2.7-4.4,4.4-7.1,7.1c9.7,4.4,19.4,5.3,29.2,3.5
		c7.1-8,15.9-16.8,26.5-26.5c1.8-1.8,3.5-2.7,5.3-4.4c0.9-1.8,0.9-3.5,0.9-5.3c0-0.9,0-0.9,0-1.8
		C171.1,144.5,171.1,145.4,170.2,146.2z"/>
	<path class="st3" d="M140.1,180.7c10.6-2.7,20.3-9.7,26.5-20.3c0.9-1.8,1.8-3.5,2.7-4.4C159.6,163.9,149.9,172.8,140.1,180.7z"/>
	<path class="st3" d="M172.8,134.8c-2.7,2.7-6.2,5.3-8.8,7.1c0,1.8-0.9,4.4-0.9,6.2c0,0.9-0.9,2.7-0.9,3.5c1.8-1.8,3.5-2.7,5.3-4.4
		c1.8-0.9,2.7-2.7,4.4-3.5c0.9-0.9,1.8-0.9,1.8-1.8C172.8,139.2,172.8,136.5,172.8,134.8z"/>
</g>
</svg>
