<?xml version="1.0" encoding="utf-8"?>
<!-- Generator: Adobe Illustrator 23.0.0, SVG Export Plug-In . SVG Version: 6.00 Build 0)  -->
<svg version="1.1" id="Layer_1" xmlns="http://www.w3.org/2000/svg" xmlns:xlink="http://www.w3.org/1999/xlink" x="0px" y="0px"
	 viewBox="0 0 256 256" style="enable-background:new 0 0 256 256;" xml:space="preserve">
<style type="text/css">
	.st0{opacity:0.8;fill:#0E0E17;enable-background:new    ;}
	.st1{fill:#0E0E17;}
	.st2{fill:none;stroke:#F75049;stroke-miterlimit:10;}
	.st3{fill:#F75049;}
</style>
<g>
	<g>
		<path class="st0" d="M218.1,40.1h-67.5c-6.8-6.3-13.6-12.7-20.4-19.1H37.7c-2.3,2.2-4.6,4.5-6.9,6.7v200.1l8,8h160.9
			c9-9.8,17.9-19.7,26.8-29.5V46.8C223.7,44.6,220.9,42.4,218.1,40.1z M218.3,168c-2.7,3.4-5.4,7-8.1,10.4V219
			c-2.6,2.6-5.3,5.1-7.9,7.7H48.9c-2.6-2.6-5.2-5.2-7.8-7.9v-40.4c-2.6-3.4-5.3-7-7.9-10.4V95.5c2.6-2.3,5.3-4.5,7.9-6.8V50.3
			c2.6-2.6,5.2-5.3,7.8-7.9h153.3c2.7,2.7,5.3,5.4,8,8.1v38.3c2.6,2.2,5.3,4.5,8,6.8L218.3,168L218.3,168z"/>
		<path class="st1" d="M218.1,40.1h-67.5c-6.8-6.3-13.6-12.7-20.4-19.1H37.7c-2.3,2.2-4.6,4.5-6.9,6.7v200.1l8,8h160.9
			c9-9.8,17.9-19.7,26.8-29.5V46.8C223.7,44.6,220.9,42.4,218.1,40.1z M218.3,168c-2.7,3.4-5.4,7-8.1,10.4V219
			c-2.6,2.6-5.3,5.1-7.9,7.7H48.9c-2.6-2.6-5.2-5.2-7.8-7.9v-40.4c-2.6-3.4-5.3-7-7.9-10.4V95.5c2.6-2.3,5.3-4.5,7.9-6.8V50.3
			c2.6-2.6,5.2-5.3,7.8-7.9h153.3c2.7,2.7,5.3,5.4,8,8.1v38.3c2.6,2.2,5.3,4.5,8,6.8L218.3,168L218.3,168z"/>
		<g>
			<path class="st1" d="M218.3,95.7V168c-2.7,3.4-5.4,7-8.1,10.4V219c-2.6,2.6-5.3,5.1-7.9,7.7H48.9c-2.6-2.6-5.2-5.2-7.8-7.9v-40.4
				c-2.6-3.4-5.3-7-7.9-10.4V95.5c2.6-2.3,5.3-4.5,7.9-6.8V50.3c2.6-2.6,5.2-5.3,7.8-7.9h153.3c2.7,2.7,5.3,5.4,8,8.1v38.3
				C212.9,91.1,215.6,93.4,218.3,95.7z"/>
		</g>
	</g>
	<path class="st2" d="M218.1,40.1h-67.5c-6.8-6.3-13.6-12.7-20.4-19.1H37.7c-2.3,2.2-4.6,4.5-6.9,6.7v200.1l8,8h160.9
		c9-9.8,17.9-19.7,26.8-29.5V46.8C223.7,44.6,220.9,42.4,218.1,40.1z M218.3,168c-2.7,3.4-5.4,7-8.1,10.4V219
		c-2.6,2.6-5.3,5.1-7.9,7.7H48.9c-2.6-2.6-5.2-5.2-7.8-7.9v-40.4c-2.6-3.4-5.3-7-7.9-10.4V95.5c2.6-2.3,5.3-4.5,7.9-6.8V50.3
		c2.6-2.6,5.2-5.3,7.8-7.9h153.3c2.7,2.7,5.3,5.4,8,8.1v38.3c2.6,2.2,5.3,4.5,8,6.8L218.3,168L218.3,168z"/>
</g>
<g transform="translate(-552 -32)">
	<path class="st3" d="M712,117.9c-5.2,5.2-9.4,9.4-14.7,14.7C697.4,125.3,704.7,117.9,712,117.9z"/>
	<path class="st3" d="M728.8,133.6c0,8.4-7.3,15.7-15.7,15.7c-6.3,0-11.5-3.1-13.6-8.4c6.3-7.3,12.6-14.7,18.8-22
		C724.6,121.1,728.8,126.3,728.8,133.6z"/>
	<path class="st3" d="M683.8,212.1c-10.5,10.5-20.9,20.9-31.4,31.4h24.1c9.4-10.5,18.8-20.9,28.3-31.4H683.8z M739.3,184.9
		L739.3,184.9v27.2h-24.1c-10.5,10.5-20.9,20.9-30.3,31.4h65.9v-70.1C746.6,177.6,743.4,180.7,739.3,184.9z M739.3,151.4v24.1
		c3.1-3.1,7.3-7.3,10.5-10.5v-26.2C746.6,143,742.4,147.2,739.3,151.4z M706.8,97c-3.1,3.1-6.3,7.3-9.4,10.5h25.1
		c3.1-3.1,7.3-7.3,10.5-10.5H706.8z M674.4,97c-3.1,3.1-6.3,7.3-8.4,10.5h18.8c3.1-3.1,6.3-7.3,10.5-10.5H674.4z M603.2,97v14.7
		c3.1-5.2,7.3-9.4,11.5-14.7H603.2z M627.3,97c-3.1,3.1-5.2,7.3-8.4,10.5h41.9c3.1-3.1,6.3-7.3,9.4-10.5H627.3z M603.2,183.9v17.8
		c3.1-4.2,7.3-8.4,10.5-12.6v-18.8C610.5,175.5,606.4,179.7,603.2,183.9z M631.5,212.1c-9.4,9.4-18.8,18.8-28.3,27.2v4.2h42.9
		c9.4-10.5,17.8-20.9,27.2-31.4H631.5z M613.7,212.1v-13.6c-3.1,3.1-7.3,6.3-10.5,10.5v28.3c7.3-8.4,13.6-16.7,20.9-24.1h-10.5
		V212.1z M603.2,126.3v49.2c3.1-4.2,7.3-9.4,10.5-13.6v-49.2C610.5,117.9,606.4,122.1,603.2,126.3z M691.1,107.5h2.1
		c2.1-3.1,4.2-5.2,6.3-8.4C697.4,101.2,694.3,104.3,691.1,107.5z M700.5,97c0,1-1,1-1,2.1C700.5,98,700.5,97,700.5,97L700.5,97z
		 M736.1,97c-3.1,3.1-5.2,7.3-8.4,10.5h11.5V143c3.1-3.1,7.3-7.3,10.5-10.5V97H736.1z"/>
	<path class="st3" d="M659.7,150.4c-6.3,6.3-11.5,12.6-17.8,18.8l13.6-26.2L659.7,150.4z"/>
	<path class="st3" d="M667,164c-11.5,12.6-23,25.1-34.5,37.7h-8.4l10.5-19.9l0,0c8.4-9.4,16.7-19.9,25.1-30.3L667,164z"/>
	<path class="st3" d="M698.4,184.9c-5.2,5.2-10.5,11.5-15.7,16.7h-41.9c13.6-13.6,27.2-28.3,41.9-44L698.4,184.9z"/>
	<path class="st3" d="M707.9,201.6h-14.7c3.1-3.1,6.3-6.3,9.4-9.4L707.9,201.6z"/>
</g>
<path class="st3" d="M107.7,118.4c-6.3,7.3-12.6,12.6-17.8,19.9l13.6-26.2L107.7,118.4z"/>
<path class="st3" d="M147.5,67.1c-2.1,3.1-4.2,5.2-6.3,8.4h-2.1C142.3,72.3,145.4,69.2,147.5,67.1z"/>
<path class="st3" d="M61.7,171.7v3.1c-1,2.1-3.1,3.1-4.2,5.2C58.5,177,60.6,173.8,61.7,171.7z"/>
<path class="st3" d="M107.7,118.4c-6.3,7.3-12.6,12.6-17.8,19.9l13.6-26.2L107.7,118.4z"/>
<path class="st3" d="M147.5,67.1c-2.1,3.1-4.2,5.2-6.3,8.4h-2.1C142.3,72.3,145.4,69.2,147.5,67.1z"/>
</svg>
