<?xml version="1.0" encoding="utf-8"?>
<!-- Generator: Adobe Illustrator 23.0.0, SVG Export Plug-In . SVG Version: 6.00 Build 0)  -->
<svg version="1.1" id="Layer_1" xmlns="http://www.w3.org/2000/svg" xmlns:xlink="http://www.w3.org/1999/xlink" x="0px" y="0px"
	 viewBox="0 0 256 256" style="enable-background:new 0 0 256 256;" xml:space="preserve">
<style type="text/css">
	.st0{opacity:0.8;fill:#0E0E17;}
	.st1{fill:#0E0E17;}
	.st2{fill:none;stroke:#F75049;stroke-miterlimit:10;}
	.st3{fill:#F75049;}
</style>
<g>
	<g>
		<path class="st0" d="M218.1,40.1h-67.5c-6.8-6.3-13.6-12.7-20.4-19.1H37.7c-2.3,2.2-4.6,4.5-6.9,6.7v200.1l8,8h160.9
			c9-9.8,17.9-19.7,26.8-29.5V46.8C223.7,44.6,220.9,42.4,218.1,40.1z M218.3,168c-2.7,3.4-5.4,7-8.1,10.4v40.6
			c-2.6,2.6-5.3,5.1-7.9,7.7H48.9c-2.6-2.6-5.2-5.2-7.8-7.9v-40.4c-2.6-3.4-5.3-7-7.9-10.4V95.5c2.6-2.3,5.3-4.5,7.9-6.8V50.3
			c2.6-2.6,5.2-5.3,7.8-7.9h153.3c2.7,2.7,5.3,5.4,8,8.1v38.3c2.6,2.2,5.3,4.5,8,6.8V168z"/>
		<path class="st1" d="M218.1,40.1h-67.5c-6.8-6.3-13.6-12.7-20.4-19.1H37.7c-2.3,2.2-4.6,4.5-6.9,6.7v200.1l8,8h160.9
			c9-9.8,17.9-19.7,26.8-29.5V46.8C223.7,44.6,220.9,42.4,218.1,40.1z M218.3,168c-2.7,3.4-5.4,7-8.1,10.4v40.6
			c-2.6,2.6-5.3,5.1-7.9,7.7H48.9c-2.6-2.6-5.2-5.2-7.8-7.9v-40.4c-2.6-3.4-5.3-7-7.9-10.4V95.5c2.6-2.3,5.3-4.5,7.9-6.8V50.3
			c2.6-2.6,5.2-5.3,7.8-7.9h153.3c2.7,2.7,5.3,5.4,8,8.1v38.3c2.6,2.2,5.3,4.5,8,6.8V168z"/>
		<g>
			<path class="st1" d="M218.3,95.7V168c-2.7,3.4-5.4,7-8.1,10.4v40.6c-2.6,2.6-5.3,5.1-7.9,7.7H48.9c-2.6-2.6-5.2-5.2-7.8-7.9
				v-40.4c-2.6-3.4-5.3-7-7.9-10.4V95.5c2.6-2.3,5.3-4.5,7.9-6.8V50.3c2.6-2.6,5.2-5.3,7.8-7.9h153.3c2.7,2.7,5.3,5.4,8,8.1v38.3
				C212.9,91.1,215.6,93.4,218.3,95.7z"/>
		</g>
	</g>
	<path class="st2" d="M218.1,40.1h-67.5c-6.8-6.3-13.6-12.7-20.4-19.1H37.7c-2.3,2.2-4.6,4.5-6.9,6.7v200.1l8,8h160.9
		c9-9.8,17.9-19.7,26.8-29.5V46.8C223.7,44.6,220.9,42.4,218.1,40.1z M218.3,168c-2.7,3.4-5.4,7-8.1,10.4v40.6
		c-2.6,2.6-5.3,5.1-7.9,7.7H48.9c-2.6-2.6-5.2-5.2-7.8-7.9v-40.4c-2.6-3.4-5.3-7-7.9-10.4V95.5c2.6-2.3,5.3-4.5,7.9-6.8V50.3
		c2.6-2.6,5.2-5.3,7.8-7.9h153.3c2.7,2.7,5.3,5.4,8,8.1v38.3c2.6,2.2,5.3,4.5,8,6.8V168z"/>
</g>
<path class="st3" d="M163.4,145.3c-0.3,0.3-0.6,0.5-0.9,0.8c-6.8,5.9-13.1,11.8-18.8,17.5c0.9-0.7,1.7-1.3,2.6-2
	c2.3-2,4.7-4.1,7.1-6.3c4.1-3.8,7.9-7.5,11.6-11.2C164.4,144.5,163.9,144.9,163.4,145.3z M163.4,145.3c-0.3,0.3-0.6,0.5-0.9,0.8
	c-6.8,5.9-13.1,11.8-18.8,17.5c0.9-0.7,1.7-1.3,2.6-2c2.3-2,4.7-4.1,7.1-6.3c4.1-3.8,7.9-7.5,11.6-11.2
	C164.4,144.5,163.9,144.9,163.4,145.3z M163.4,145.3c-0.3,0.3-0.6,0.5-0.9,0.8c-6.8,5.9-13.1,11.8-18.8,17.5c0.9-0.7,1.7-1.3,2.6-2
	c2.3-2,4.7-4.1,7.1-6.3c4.1-3.8,7.9-7.5,11.6-11.2C164.4,144.5,163.9,144.9,163.4,145.3z M163.4,145.3c-0.3,0.3-0.6,0.5-0.9,0.8
	c-6.8,5.9-13.1,11.8-18.8,17.5c0.9-0.7,1.7-1.3,2.6-2c2.3-2,4.7-4.1,7.1-6.3c4.1-3.8,7.9-7.5,11.6-11.2
	C164.4,144.5,163.9,144.9,163.4,145.3z M163.4,145.3c-0.3,0.3-0.6,0.5-0.9,0.8c-6.8,5.9-13.1,11.8-18.8,17.5c0.9-0.7,1.7-1.3,2.6-2
	c2.3-2,4.7-4.1,7.1-6.3c4.1-3.8,7.9-7.5,11.6-11.2C164.4,144.5,163.9,144.9,163.4,145.3z M163.4,145.3c-0.3,0.3-0.6,0.5-0.9,0.8
	c-6.8,5.9-13.1,11.8-18.8,17.5c0.9-0.7,1.7-1.3,2.6-2c2.3-2,4.7-4.1,7.1-6.3c4.1-3.8,7.9-7.5,11.6-11.2
	C164.4,144.5,163.9,144.9,163.4,145.3z M163.4,145.3c-0.3,0.3-0.6,0.5-0.9,0.8c-6.8,5.9-13.1,11.8-18.8,17.5c0.9-0.7,1.7-1.3,2.6-2
	c2.3-2,4.7-4.1,7.1-6.3c4.1-3.8,7.9-7.5,11.6-11.2C164.4,144.5,163.9,144.9,163.4,145.3z M163.4,145.3c-0.3,0.3-0.6,0.5-0.9,0.8
	c-6.8,5.9-13.1,11.8-18.8,17.5c0.9-0.7,1.7-1.3,2.6-2c2.3-2,4.7-4.1,7.1-6.3c4.1-3.8,7.9-7.5,11.6-11.2
	C164.4,144.5,163.9,144.9,163.4,145.3z M163.4,145.3c-0.3,0.3-0.6,0.5-0.9,0.8c-6.8,5.9-13.1,11.8-18.8,17.5c0.9-0.7,1.7-1.3,2.6-2
	c2.3-2,4.7-4.1,7.1-6.3c4.1-3.8,7.9-7.5,11.6-11.2C164.4,144.5,163.9,144.9,163.4,145.3z M163.4,145.3c-0.3,0.3-0.6,0.5-0.9,0.8
	c-6.8,5.9-13.1,11.8-18.8,17.5c0.9-0.7,1.7-1.3,2.6-2c2.3-2,4.7-4.1,7.1-6.3c4.1-3.8,7.9-7.5,11.6-11.2
	C164.4,144.5,163.9,144.9,163.4,145.3z M190.3,124.9c-0.3-0.7-1.7-0.2-3-1.2c-1.1-0.9-0.8-1.8-1.6-2.3c-2-1.3-6.6,2.6-6.7,2.5
	c0-0.2,1.9-1.5,3.7-3.4c1.2-1.3,3.3-3.6,2.7-5.2c-0.4-1-1.4-0.9-1.6-1.8c-0.2-1.4,2.4-2.2,2.3-3.8c-0.1-0.8-0.8-1.5-1.5-1.8
	c-1.8-0.7-4,1.3-4.2,1.1c-0.1-0.1,1.4-0.9,2.2-2.5c0.2-0.3,0.9-1.8,0.3-2.4c-0.4-0.5-1.4-0.5-2-0.4c-0.6,0.1-1,0.4-1.2,0.3
	c-0.2-0.2-0.1-0.5-0.2-0.8c-0.2-0.9-1.8-1.4-2.9-1.5c-2.7-0.2-4.9,2.4-5.2,2.1c-0.3-0.3,2.6-2.8,1.9-4.6c-0.3-0.8-1.1-1.3-1.9-1.4
	c-1.3,0-2.1,1.6-2.6,1.4c-0.7-0.3,0.6-3.7-0.5-4.4c-0.7-0.4-1.6,0.5-2.9-0.1c-0.8-0.3-0.8-0.7-1.4-1c-1.6-0.6-3.9,2.2-6.8,4.8
	c-1.2,1.1-3.2,2.6-5.9,4.2c1.4-1.7,2.5-3,3.4-3.9c2.1-2.3,3.2-3.2,3.3-4.8c0-0.7-0.1-1.9-0.9-2.3c-0.9-0.4-2,0.9-5.5,3.2
	c-0.9,0.6-1.7,1.1-2.1,1.4c0.2-0.2,1.6-1.9,1-3.6c-0.1-0.2-0.3-0.8-1-1.4c-2.2-1.8-5.8-0.9-6.3-0.8c-4.4,1.1-5.6,4.2-11.1,6.9
	c0,0-0.7,0.4-1.7,0.9c-2.1,1.1-3.1,1.7-3.6,2c-1.3,0.9-2.4,1.7-3,3c-0.6,1.3-0.3,2.2-1.1,3.1c-0.7,0.7-1.6,0.9-1.8,1
	c-3.1,0.8-6.9,6.2-7.4,6.9c-2.1,2.9-8.9,9.9-27.1,26.3c24.6-25.9,32.1-34.1,32.4-34.9c0,0,0,0,0,0c0.1-0.3,0.9-2.2,0.1-2.9
	c-0.4-0.4-1.2-0.2-1.5-0.8c0,0-0.2-0.4-0.2-0.8c0.2-1,2.2-1.3,2.1-1.7c0-0.2-0.4-0.3-1-0.5c-1.5-0.6-1.4-1-2.2-1.2
	c-1.2-0.3-2.5,0.4-3.4,0.9c-1.1,0.6-1.7,1.3-2,1.1c-0.3-0.2,0.2-0.9-0.2-1.4c-0.3-0.5-1.2-0.4-1.5-0.4c-1.8,0.1-2.7,1.5-3.2,1.1
	c-0.4-0.2,0-0.8-0.4-1.5c-0.4-0.7-1.1-0.5-1.9-1.1c-0.9-0.7-0.5-1.4-1.6-2.8c-0.4-0.5-1-1.3-2.1-1.7c-1.2-0.4-1.5,0.1-2.7-0.3
	c-1.3-0.4-1.4-1.3-2.5-1.5c-0.8-0.1-1.5,0.2-2.1,0.5C91,91.1,91,92,90.2,92c-1,0-1.1-1-2.7-1.3c-0.5-0.1-1.1-0.2-1.5,0.1
	c-0.6,0.6,0.2,1.9-0.5,2.5c-0.4,0.3-1,0.3-1.4,0c-0.5-0.3-0.4-0.8-0.7-1.1c-1-1.1-5.9,0.3-7.4,3.3c-0.2,0.5-0.5,1.2-1.2,1.6
	c-0.8,0.4-1.5,0-2.4,0c-1.5,0-2.4,1.2-5.7,5c0,0-0.7,0.7-2.9,3.3c-4.5,5.2-5.4,5.8-5.5,7.4c-0.1,2.7,0.2,3.7,0.2,3.7
	c0.2,0.5,0.5,1.4,0.1,1.9c-0.3,0.4-0.6,0.2-0.9,0.5c-0.6,0.7,0.3,1.9,0.2,4c0,0.1,0,0-0.3,1.4c-0.5,2.8-0.6,3.3-0.2,3.7
	c0.3,0.3,0.8,0.3,1.3,0.3c0.9,0,1.6-0.4,1.8-0.6c2-2.3,3.9-4.7,5.9-7c-0.8,1.7-1.6,2.9-2.3,3.8c-0.9,1.2-1.6,2-2.5,3.7
	c-0.2,0.5-0.5,1.1-0.8,1.9c-0.4,1.2-1,2.7-0.4,4c0.2,0.5,0.6,0.8,0.7,1.6c0.1,0.9-0.2,1.5,0.1,2c0.3,0.4,0.5,0.3,0.8,0.7
	c0.6,0.7-0.1,1.6,0.2,3c0.2,0.8,0.4,0.6,0.6,1.5c0.3,1.4-0.3,2-0.1,3.7c0.1,0.8,0.2,1.1,0.5,1.4c0.8,0.7,1.9-0.3,2.9,0.2
	c0.9,0.5,0.6,1.6,1.5,2c0.6,0.2,0.9-0.3,2-0.2c0.2,0,1.5,0.1,1.8,0.7c0.2,0.5-0.5,1.4-1.3,1.8c-1.9,1-4.2-0.3-4.4,0.2
	c-0.2,0.3,0.6,1.1,1.1,1.6c5.2,4.9,5.2,5.2,6.9,6.2c1.7,1,1.4,0.5,3.5,1.7c2.7,1.5,5.6,3.1,5.7,5.3c0.1,1.2-0.8,1.4-0.8,3.1
	c0,1.1,0.5,2.9,1.6,3.3c1,0.4,1.5-0.7,3.1-0.5c1.6,0.1,1.7,1.3,3.1,1.3c1.9,0.1,2.7-2.2,4.2-1.8c0.9,0.2,0.9,1,2,1.4
	c1,0.4,2.1,0.1,2.8-0.1c5.4-5.5,13.8-14.1,23.9-24.8c8.4-8.9,10.7-11.5,15.4-16c13.7-13,28-23.1,28.7-22.4
	c0.4,0.5-6.1,6.6-28.5,27.8c-15.5,14.7-28.2,26.9-36.8,35.2c0,1.7,0.5,2.4,0.9,2.6c1.1,0.7,2.5-0.9,3.9,0c0.5,0.3,1.4,1.1,1.7,2.3
	c0.2,0.9,0,1.5,0.6,2.1c0.3,0.4,0.6,0.2,1,0.6c0.9,0.9,0.5,1.8,1.3,2.4c0.8,0.7,2,0.2,2.3,0.9c0.2,0.4-0.2,0.7-0.1,1.3
	c0.2,0.7,0.8,0.7,1,1.3c0.2,0.9-1.4,1.5-1.8,3.1c-0.3,1.1,0.4,1.3,0.3,2.5c-0.1,2.4-2.9,3-2.8,4.9c0.1,1.1,1.2,2.3,2.3,2.5
	c1.8,0.2,2.4-2.2,4.3-2.2c2.2,0,3,3.1,4.8,2.8c1.3-0.2,1.5-1.9,3.1-1.9c1-0.1,1.5,0.6,2.2,0.2c0.7-0.4,0.6-1.2,1.3-1.4
	c0.4-0.1,0.6,0.1,1,0.1c1.3,0.1,2.9-2,3.6-4.1c0.6-1.9,0.1-2.6,0.9-4.1c0.6-1.1,1.5-1.7,1.9-2c2.9-2,6.2-5.2,9.4-8.2
	c4.3-4.1,4.7-5.7,7.6-7.2c0.4-0.2,1.4-0.7,2.5-1.6c1.6-1.5,2.2-3,2.9-4.3c2.1-4.1,4.4-4.2,8.7-10.6c0.2-0.3,1.1-1.7,0.9-1.9
	c-0.5-0.4-6.1,5.9-7.4,5c-0.4-0.3-0.3-1-0.3-1.3c0.3-3,4.3-4.1,9.9-8.9c1.4-1.2,0.9-1,2.6-2.4c4.3-3.8,8.9-6.7,10.2-9.1
	c0.7-1.4,1.2-2.9,1.2-2.9c0.1-0.5,0.2-0.7,0.3-0.9c0.5-1.4,1.2-1.9,3.5-4.5C190.2,125.9,190.4,125.3,190.3,124.9z M102.2,120.9
	c-1.6,2-3.3,3.4-4.9,4.5c0.8-1.4,2.1-3.2,4.1-4.9c0.8-0.7,1.6-1.2,2.3-1.6C103.2,119.5,102.8,120.2,102.2,120.9z M101,114.5
	c2.5-2.8,5-5.1,7.3-7.2c-1.8,2.4-4,5-6.6,7.6c-1.6,1.7-3.3,3.2-4.9,4.5C98.1,117.9,99.5,116.2,101,114.5z M72.1,114.3
	c0.5-0.9,1.2-2.2,2.2-3.3c0.4-0.4,0.8-0.8,1.2-1.1c-0.2,0.4-0.5,0.9-0.8,1.4C73.9,112.6,73,113.6,72.1,114.3z M76.5,156.6
	c-0.5,0.6-1.1,0.9-1.4,1c0-0.2,0-0.9,0.5-1.6c0.6-0.8,1.4-0.9,1.6-0.9C77.1,155.3,77,156,76.5,156.6z M74.8,132.5
	c1.7-2.1,3.4-4.1,5.1-6.2c0.1,0.5,0.1,1,0.2,1.5C78.4,129.4,76.6,130.9,74.8,132.5z M83.8,163.8c-0.2,0.1-0.9-1.1-2.7-3.1
	c-0.5-0.5-0.9-1-0.8-1.5c0.1-0.4,0.6-0.6,1.1-0.9c0.6-0.4,1.5-1,2.2-2.4c0,1-0.3,1.7-0.5,2.2c-0.3,0.5-0.6,1-0.4,1.3
	c0.1,0.3,0.5,0.2,0.7,0.5c0.3,0.4,0.1,0.8,0,1.4C83.2,162.7,84,163.6,83.8,163.8z M83.3,105c0.5-0.9,1.2-2.2,2.2-3.3
	c0.4-0.4,0.9-0.8,1.2-1.1c-0.2,0.4-0.5,0.9-0.8,1.4C85.1,103.4,84.2,104.3,83.3,105z M97.9,139.3c5.5-6.9,12-14.4,19.9-22
	c5.7-5.5,11.2-10.3,16.5-14.5c-3.8,3.6-7.7,7.4-11.6,11.2C114.1,122.5,105.8,131,97.9,139.3z M123.5,117.4
	c4.3-4.3,8.5-7.8,12.3-10.5c-2.3,2.7-4.7,5.4-7.1,8.1c-5.9,6.4-11.8,12.3-17.6,17.6C114.1,127.9,118.2,122.7,123.5,117.4z
	 M133,126.7c5.7-4.9,11.3-9.5,16.7-13.6c-3.6,3.7-7.5,7.4-11.6,11.2c-8.2,7.5-16.2,14.1-23.9,19.9
	C119.9,138.5,126.2,132.6,133,126.7z M141.8,127.3c-8.2,7.5-16.2,14.1-23.9,20c5.7-5.7,12-11.6,18.8-17.5
	c5.7-4.9,11.3-9.5,16.7-13.6C149.8,119.9,145.9,123.6,141.8,127.3z M171.8,119.3c-3.6,3.7-7.5,7.4-11.6,11.2
	c-8.2,7.5-16.2,14.1-23.9,19.9c5.7-5.7,12-11.5,18.8-17.5C160.8,128,166.3,123.4,171.8,119.3z M122.5,159.6
	c7.5-8.8,16.3-18.1,26.6-27.4c4.6-4.2,9.2-8,13.6-11.6c-5,5.1-10,10.1-14.9,15.2C139.3,143.7,130.9,151.6,122.5,159.6z M124.4,168.1
	c8.1-8,16.9-16.2,26.2-24.4c7.3-6.5,14.6-12.6,21.7-18.4c-5.8,5.5-11.7,11-17.8,16.6C144.3,151,134.3,159.8,124.4,168.1z
	 M125.7,173.3c5.7-6.7,12.7-14,21.4-21.4c7.2-6.2,14.2-11.2,20.6-15.4c-5.6,5-11.3,9.9-16.9,14.9C142.5,158.7,134.1,166,125.7,173.3
	z M167.6,143.7c-7.2,6.7-14.4,12.6-21.3,18c-5.7,5-11.4,9.5-16.9,13.6c5.7-5.7,12-11.5,18.8-17.5c5.2-4.5,10.2-8.6,15.2-12.4
	c5.4-4.6,10.6-8.9,15.8-12.8C175.5,136.2,171.7,139.9,167.6,143.7z M164.9,144.2c-0.5,0.4-1,0.8-1.5,1.2c-0.3,0.3-0.6,0.5-0.9,0.8
	c-6.8,5.9-13.1,11.8-18.8,17.5c0.9-0.7,1.7-1.3,2.6-2c2.3-2,4.7-4.1,7.1-6.3C157.4,151.6,161.3,147.8,164.9,144.2z M163.4,145.3
	c-0.3,0.3-0.6,0.5-0.9,0.8c-6.8,5.9-13.1,11.8-18.8,17.5c0.9-0.7,1.7-1.3,2.6-2c2.3-2,4.7-4.1,7.1-6.3c4.1-3.8,7.9-7.5,11.6-11.2
	C164.4,144.5,163.9,144.9,163.4,145.3z M163.4,145.3c-0.3,0.3-0.6,0.5-0.9,0.8c-6.8,5.9-13.1,11.8-18.8,17.5c0.9-0.7,1.7-1.3,2.6-2
	c2.3-2,4.7-4.1,7.1-6.3c4.1-3.8,7.9-7.5,11.6-11.2C164.4,144.5,163.9,144.9,163.4,145.3z M163.4,145.3c-0.3,0.3-0.6,0.5-0.9,0.8
	c-6.8,5.9-13.1,11.8-18.8,17.5c0.9-0.7,1.7-1.3,2.6-2c2.3-2,4.7-4.1,7.1-6.3c4.1-3.8,7.9-7.5,11.6-11.2
	C164.4,144.5,163.9,144.9,163.4,145.3z M163.4,145.3c-0.3,0.3-0.6,0.5-0.9,0.8c-6.8,5.9-13.1,11.8-18.8,17.5c0.9-0.7,1.7-1.3,2.6-2
	c2.3-2,4.7-4.1,7.1-6.3c4.1-3.8,7.9-7.5,11.6-11.2C164.4,144.5,163.9,144.9,163.4,145.3z M163.4,145.3c-0.3,0.3-0.6,0.5-0.9,0.8
	c-6.8,5.9-13.1,11.8-18.8,17.5c0.9-0.7,1.7-1.3,2.6-2c2.3-2,4.7-4.1,7.1-6.3c4.1-3.8,7.9-7.5,11.6-11.2
	C164.4,144.5,163.9,144.9,163.4,145.3z M163.4,145.3c-0.3,0.3-0.6,0.5-0.9,0.8c-6.8,5.9-13.1,11.8-18.8,17.5c0.9-0.7,1.7-1.3,2.6-2
	c2.3-2,4.7-4.1,7.1-6.3c4.1-3.8,7.9-7.5,11.6-11.2C164.4,144.5,163.9,144.9,163.4,145.3z M163.4,145.3c-0.3,0.3-0.6,0.5-0.9,0.8
	c-6.8,5.9-13.1,11.8-18.8,17.5c0.9-0.7,1.7-1.3,2.6-2c2.3-2,4.7-4.1,7.1-6.3c4.1-3.8,7.9-7.5,11.6-11.2
	C164.4,144.5,163.9,144.9,163.4,145.3z M163.4,145.3c-0.3,0.3-0.6,0.5-0.9,0.8c-6.8,5.9-13.1,11.8-18.8,17.5c0.9-0.7,1.7-1.3,2.6-2
	c2.3-2,4.7-4.1,7.1-6.3c4.1-3.8,7.9-7.5,11.6-11.2C164.4,144.5,163.9,144.9,163.4,145.3z"/>
</svg>
