<?xml version="1.0" encoding="utf-8"?>
<!-- Generator: Adobe Illustrator 23.0.0, SVG Export Plug-In . SVG Version: 6.00 Build 0)  -->
<svg version="1.1" id="Layer_1" xmlns="http://www.w3.org/2000/svg" xmlns:xlink="http://www.w3.org/1999/xlink" x="0px" y="0px"
	 viewBox="0 0 256 256" style="enable-background:new 0 0 256 256;" xml:space="preserve">
<style type="text/css">
	.st0{fill:#F75049;}
	.st1{fill-rule:evenodd;clip-rule:evenodd;fill:#F75049;}
</style>
<path class="st0" d="M112.5,203.7c0,0.2-0.1,0.3-0.3,0.3h-0.5C112,203.8,112.2,203.7,112.5,203.7z"/>
<path class="st0" d="M120.8,203.9h-0.5c-0.2,0-0.3-0.1-0.3-0.3C120.3,203.7,120.5,203.8,120.8,203.9z"/>
<g>
	<path class="st1" d="M90.9,236.3C90.9,236.3,90.9,236.3,90.9,236.3c-4.3,0-8.6,0-12.9-0.1c-0.3,0-0.5,0-0.8,0
		c-0.5,1.5-1.4,2.8-2.5,3.9c1.1,0,2.1,0.1,3.2,0.1c2,0,4,0.1,5.9,0.1c2.3,0,4.7,0,7,0h43.5c0.7-1.3,1.2-2.6,1.7-4H90.9z M6.3,72.1
		c0,0.1,0,0.3,0,0.4c0,0.3,0,0.5,0,0.7c1.5-1.3,2.9-2.6,4.3-3.9c0-0.6,0.1-1.2,0.1-1.8C9.2,69,7.8,70.5,6.3,72.1z M222,22.6
		c0.1,0,0.1,0,0.2,0.1c0.4-0.4,0.8-0.8,1.1-1.2C222.8,21.9,222.4,22.3,222,22.6z M45.6,19.1c0.7-0.1,1.3-0.3,1.9-0.4
		c0.2,0,0.4-0.1,0.6-0.1c0.5-0.8,1-1.5,1.5-2.2C48.4,17.1,47,18,45.6,19.1z"/>
</g>
<path class="st0" d="M6.3,72.1C6.3,72.1,6.3,72.1,6.3,72.1c1.5-1.6,3-3.1,4.4-4.6c19.9-20.9,35.4-37.4,47.5-50.3
	c1.4-1.5,2.8-3,4.1-4.4c0,0,0.1-0.1,0.1-0.1C20.4,15.8,8.7,28.6,6.3,72.1z M48.1,18.6c-0.9,1.2-1.9,2.5-2.9,3.8
	c-4.8,5.8-9.9,10.1-14.3,13.3c2.5-4.2,6.3-9.5,12.1-14.5c0.9-0.8,1.8-1.5,2.6-2.1c0,0,0,0,0,0c1.4-1,2.7-1.9,4-2.7
	C49.2,17.1,48.7,17.8,48.1,18.6z"/>
<path class="st0" d="M167.6,70.1c-10.7,10.2-20.9,20.3-30.5,30.4c-2.9-1-6-1.5-9.2-1.5c-0.1,0-0.2,0-0.3,0
	c8.3-7.9,17-16.1,25.9-24.7c2.9-2.7,5.6-5.3,8.3-7.9C163.9,67.6,165.8,68.8,167.6,70.1z"/>
<path class="st0" d="M171.8,73.3c2,1.7,3.9,3.5,5.7,5.4c-10.4,9.5-20.2,19-29.6,28.2c-2-1.9-4.3-3.5-6.8-4.8
	C151.3,92.5,161.5,82.9,171.8,73.3z"/>
<path class="st0" d="M237.1,27.8c-0.1,0.1-0.2,0.2-0.4,0.3c-1,0.8-2.1,1.7-3.1,2.5c-10.7,8.5-21.6,17.6-32.6,27.1
	c-6.1,5.3-12.1,10.6-17.9,15.8c-1.8-1.9-3.8-3.8-5.8-5.5c0.7-0.6,1.4-1.3,2-1.9c14.3-14.5,28.6-29,42.9-43.5
	c0.4-0.4,0.8-0.8,1.1-1.2c-0.5,0.4-0.9,0.7-1.3,1.1c-12.7,10.2-25.6,21.2-38.7,33c-3.4,3.1-6.8,6.1-10,9.2c-1.8-1.3-3.6-2.6-5.6-3.8
	c19-18,33.3-31.6,44-41.8c1.2-1.1,2.3-2.2,3.4-3.3c0.1-0.1,0.1-0.1,0.2-0.2C224.8,18.3,231.9,22.1,237.1,27.8z"/>
<path class="st0" d="M180.3,81.8c2.3,2.7,4.4,5.6,6.3,8.7c-10.6,9.4-21,18.8-31.1,28.1c-1.5-4.4-4-8.3-7.2-11.4
	C158.7,99.3,169.4,90.8,180.3,81.8z"/>
<path class="st0" d="M244.6,40.9c-0.1,0.1-0.2,0.1-0.3,0.2c-1.1,0.9-2.2,1.8-3.3,2.7c-16.1,13.2-32.3,27.1-48.8,41.6
	c-1.9-3-4-5.8-6.2-8.5c9.9-8.4,19.9-17.1,30-26.4c6.6-6,13-12.1,19.1-18.1c1-0.9,1.9-1.9,2.9-2.8c0.1-0.1,0.2-0.2,0.3-0.3
	C240.9,32.6,243,36.4,244.6,40.9z"/>
<path class="st0" d="M188.4,93.8c1.4,2.6,2.6,5.3,3.6,8c-4.8,3.8-9.7,7.8-14.5,12c-7.3,6.3-14.3,12.5-20.8,18.8
	c0.2-1.5,0.4-3,0.4-4.6c0-2-0.2-4-0.6-5.9C167,112.9,177.7,103.4,188.4,93.8z"/>
<path class="st0" d="M249.9,74C249.8,74,249.8,74,249.9,74c-1.3,1.1-2.6,2.1-3.9,3.2c-6.8,5.5-13.6,11.3-20.5,17.2
	c-7.5,5.8-15.1,11.9-22.8,18.2c-0.6-3.6-1.5-7.1-2.7-10.5c12.7-11.1,25.3-22.3,38-33.4c-12.6,8.2-26,17.6-39.9,28.4
	c-1.2-2.9-2.5-5.7-4.1-8.4c1.7-1.5,3.4-3.1,5.1-4.6c14.4-13.1,28.5-26.1,42.2-39.1c1.1-1,2.2-2,3.2-3l0.2-0.2
	C247.7,50,249.2,60.6,249.9,74z"/>
<path class="st0" d="M100.9,197.3H65.4c-0.8-1.5-0.5-3.1-1.1-5.2c-0.1-0.3-0.2-0.7-0.3-1h-7.9v-6.5c-2.5,0.2-5,1.7-7.2,1.3
	c-0.4-0.1-0.8-0.2-1.1-0.4c-1.2-0.8-2.6-2.6-2.6-7.7c1.9-1.8,3.8-3.7,5.8-5.6c3.1-3,6.4-6.2,9.9-9.5
	C69.7,178.6,83.8,190.9,100.9,197.3z"/>
<path class="st0" d="M196.4,126c0,37.9-30.8,68.7-68.7,68.7c-26.6,0-49.7-15.2-61.1-37.3c2.2-2.1,4.5-4.3,6.8-6.5
	c7.9-7.6,16.5-15.8,25.6-24.5c0,0.5,0,1.1,0,1.7c0,10.8,5.9,20.3,14.8,25.3c1.6,0.9,3.3,1.6,5,2.2v10.2l1.4-1.3l6.1-5.7l1.7-1.6h0.1
	c4.5,0,8.7-1,12.4-2.8c0,0,0,0,0,0c1.9-0.9,3.7-2,5.3-3.3h12.7c7.2-6.6,14.6-13.2,22.3-19.9c5.1-4.4,10.1-8.7,15.2-12.9
	C196.3,120.7,196.4,123.4,196.4,126z"/>
<path class="st0" d="M66.6,235.7c3.5,0.2,7.1,0.3,10.7,0.4c-0.5,1.5-1.4,2.8-2.5,3.9c-2.8-0.1-5.6-0.2-8.4-0.4
	c-3.5-0.2-6.9-0.5-10.4-0.9c-3.1-0.3-6.1-0.8-9.1-1.3c-2.7-0.5-5.4-1.1-8.1-1.9c-2.4-0.7-4.8-1.6-7-2.6c-2.1-0.9-4.1-2.1-6.1-3.3
	c-1.8-1.2-3.6-2.7-5.1-4.2c-1.6-1.6-3-3.3-4.2-5.1c-1.3-1.9-2.4-3.9-3.4-6c-1-2.3-1.9-4.6-2.6-7c-0.8-2.7-1.4-5.3-1.9-8
	c-0.6-3-1-6.1-1.3-9.1c-0.4-3.4-0.7-6.9-0.9-10.3c0-0.6-0.1-1.1-0.1-1.7c-0.2-3.3-0.3-6.6-0.4-9.9c-0.1-3.8-0.1-7.6-0.1-11.4V95.5
	c0-8.2,0.2-15.6,0.5-22.2c0,0,0,0,0,0c1.5-1.3,2.9-2.6,4.3-3.9C38.2,44,55.5,27.4,66,16.6c1.5-1.5,2.8-2.9,4-4.2c0,0,0,0,0,0
	c4.2-0.2,8.7-0.3,13.5-0.3c1.9,0,3.9,0,5.9,0h1.7c-1.4,1.3-2.8,2.7-4.1,4C65.8,37,47.8,57.6,32.8,76.7C51.7,56.6,71.4,36.3,91.8,16
	c1.3-1.3,2.7-2.7,4-4h12.2c0,0,0,0,0,0c-1.3,1.3-2.6,2.6-3.9,4C90.4,30.3,79.7,44.3,71.3,56.6c13.6-12.5,27.4-26,41.3-40.6
	c1.3-1.3,2.5-2.7,3.8-4h50.1c0.8,0,1.7,0,2.5,0c-1.7,1.3-3.3,2.7-5,4c-9.2,7.5-18.6,15.3-28.1,23.5c-4,3.5-8,7-11.9,10.5
	C83.7,51.8,51.5,85.2,51.5,126c0,11.1,2.4,21.6,6.6,31.1c-1.9,2-3.8,3.9-5.6,5.8l0,0c-5.7,5.9-10.8,11.1-15.3,15.6
	c-2.1,0.8-5.2,1.6-8.2,0.4c-3.3-1.2-3.4-3.6-6-4.2c-4.5-1-6.8,5.6-12.4,5.4c-0.1,0-0.3,0-0.4,0c0.2,3.2,0.5,6.3,0.8,9.5
	c0.3,3,0.8,5.9,1.3,8.8c0.5,2.6,1.1,5.1,1.8,7.6c0.7,2.2,1.5,4.4,2.4,6.5c0.8,1.9,1.9,3.7,3,5.4c1.1,1.6,2.4,3.1,3.7,4.5
	c1.4,1.4,2.9,2.6,4.5,3.7c1.7,1.2,3.6,2.2,5.5,3c2.1,1,4.3,1.8,6.5,2.4c2.5,0.7,5.1,1.4,7.7,1.8c2.9,0.5,5.9,1,8.9,1.3
	C59.8,235.2,63.2,235.5,66.6,235.7z"/>
<path class="st0" d="M150.2,61.1c-10.1,9.7-16.9,17.1-32.5,33.6l-1.5-2.7l-6.4,11.1c-0.7,0.7-1.4,1.5-2.1,2.2
	c-0.2,0.3-0.5,0.5-0.7,0.8c-1.2,1.2-2.3,2.4-3.4,3.6C89,125.2,75.7,139,64.2,150.9c-0.1,0.1-0.3,0.3-0.4,0.4
	c-3.1-7.8-4.8-16.3-4.8-25.3c0-33.4,23.8-61.2,55.4-67.4c-11.9,10.9-23.2,21.7-33.8,32.3c13.6-10.3,27.6-21.4,41.7-33.4
	c1.8-0.1,3.6-0.2,5.4-0.2c3,0,5.9,0.2,8.7,0.5c-16.1,14.3-31,28.4-44.9,42.3c16.5-12.5,33.5-26.2,50.8-41.2
	C145.1,59.5,147.7,60.2,150.2,61.1z"/>
<path class="st0" d="M143.7,51.5c-4-0.9-8.2-1.4-12.4-1.6c6.6-5.7,13.2-11.6,19.8-17.7c5.9-5.4,11.7-10.9,17.3-16.3
	c1.4-1.3,2.8-2.6,4.1-4c0,0,0,0,0,0c0,0,0,0,0,0c6.7,0.1,12.8,0.3,18.4,0.6c0,0,0,0-0.1,0c-1.6,1.2-3.2,2.5-4.8,3.8
	c-12.8,10.1-25.8,20.8-39.1,32.3C145.8,49.6,144.8,50.5,143.7,51.5z"/>
<path class="st0" d="M204.9,13.9c0,0-0.1,0.1-0.1,0.1c-1.4,1.1-2.9,2.3-4.4,3.5c-13.3,10.5-28.7,23.5-44.1,37.9
	c-2.3-0.9-4.6-1.8-7-2.5c4.2-3.8,8.5-7.6,12.8-11.5c9.1-8.4,17.8-16.7,26.2-24.9c1.3-1.3,2.5-2.5,3.8-3.8c0,0,0,0,0.1-0.1
	C196.7,12.9,200.9,13.3,204.9,13.9z"/>
<path class="st0" d="M63.8,151.3c0.8,2.1,1.8,4.1,2.8,6.1c-1.1,1.1-2.3,2.2-3.4,3.2c-0.8,0.7-1.5,1.5-2.3,2.2c-1-1.8-2-3.7-2.8-5.6
	c0.8-0.8,1.6-1.7,2.4-2.5C61.6,153.5,62.7,152.4,63.8,151.3z"/>
<path class="st0" d="M150.2,61.1c-10.1,9.7-16.9,17.1-32.5,33.6l-1.5-2.7l-6.4,11.1c-0.7,0.7-1.4,1.5-2.1,2.2
	c-0.2,0.3-0.5,0.5-0.7,0.8c-1.2,1.2-2.3,2.4-3.4,3.6C89,125.2,75.7,139,64.2,150.9c-0.1,0.1-0.3,0.3-0.4,0.4
	c-3.1-7.8-4.8-16.3-4.8-25.3c0-33.4,23.8-61.2,55.4-67.4c-11.9,10.9-23.2,21.7-33.8,32.3c13.6-10.3,27.6-21.4,41.7-33.4
	c1.8-0.1,3.6-0.2,5.4-0.2c3,0,5.9,0.2,8.7,0.5c-16.1,14.3-31,28.4-44.9,42.3c16.5-12.5,33.5-26.2,50.8-41.2
	C145.1,59.5,147.7,60.2,150.2,61.1z"/>
<path class="st0" d="M127.7,99c8.3-7.9,17-16.1,25.9-24.7c2.9-2.7,5.6-5.3,8.3-7.9c1.9,1.1,3.8,2.3,5.7,3.6
	c-10.7,10.2-20.9,20.3-30.5,30.4c-2.9-1-6-1.5-9.2-1.5C127.9,99,127.8,99,127.7,99z"/>
<path class="st0" d="M180.8,131c5.1-4.4,10.1-8.7,15.2-12.9c0.3,2.6,0.5,5.2,0.5,7.8c0,37.9-30.8,68.7-68.7,68.7
	c-26.6,0-49.7-15.2-61.1-37.3c2.2-2.1,4.5-4.3,6.8-6.5c7.9-7.6,16.5-15.8,25.6-24.5c0,0.5,0,1.1,0,1.7c0,10.8,5.9,20.3,14.8,25.3
	c1.6,0.9,3.3,1.6,5,2.2v10.2l1.4-1.3l6.1-5.7l1.7-1.6h0.1c4.5,0,8.7-1,12.4-2.8c0,0,0,0,0,0c1.9-0.9,3.7-2,5.3-3.3h12.7
	C165.7,144.3,173.1,137.7,180.8,131z"/>
<path class="st0" d="M147.9,106.9c-2-1.9-4.3-3.5-6.8-4.8c10.2-9.6,20.4-19.2,30.6-28.9c2,1.7,3.9,3.5,5.7,5.4
	C167.1,88.2,157.3,97.7,147.9,106.9z"/>
<path class="st0" d="M148.2,107.2c10.5-8,21.2-16.4,32-25.5c2.3,2.7,4.4,5.6,6.3,8.7c-10.6,9.4-21,18.8-31.1,28.1
	C154,114.3,151.5,110.4,148.2,107.2z"/>
<path class="st0" d="M156.4,122.1c10.6-9.3,21.3-18.7,32-28.4c1.4,2.6,2.6,5.3,3.6,8c-4.8,3.8-9.7,7.8-14.5,12
	c-7.3,6.3-14.3,12.5-20.8,18.8c0.2-1.5,0.4-3,0.4-4.6C157,126,156.8,124,156.4,122.1z"/>
<path class="st0" d="M203.9,126c0,42.1-34.1,76.2-76.2,76.2c-9.4,0-18.5-1.7-26.8-4.9h5.9c6.7,2.1,13.8,3.2,21.2,3.2
	s14.5-1.1,21.2-3.2c9.1-2.8,17.4-7.3,24.5-13.1c16.3-13.3,26.8-33.5,26.8-56.2c0-4.3-0.4-8.6-1.1-12.7c1.1-0.9,2.2-1.8,3.3-2.8
	C203.5,116.9,203.9,121.4,203.9,126z"/>
<path class="st0" d="M150.2,61.1c-10.1,9.7-16.9,17.1-32.5,33.6l-1.5-2.7l-6.4,11.1c-0.7,0.7-1.4,1.5-2.1,2.2
	c-0.2,0.3-0.5,0.5-0.7,0.8c-1.2,1.2-2.3,2.4-3.4,3.6C89,125.2,75.7,139,64.2,150.9c-0.1,0.1-0.3,0.3-0.4,0.4
	c-3.1-7.8-4.8-16.3-4.8-25.3c0-33.4,23.8-61.2,55.4-67.4c-11.9,10.9-23.2,21.7-33.8,32.3c13.6-10.3,27.6-21.4,41.7-33.4
	c1.8-0.1,3.6-0.2,5.4-0.2c3,0,5.9,0.2,8.7,0.5c-16.1,14.3-31,28.4-44.9,42.3c16.5-12.5,33.5-26.2,50.8-41.2
	C145.1,59.5,147.7,60.2,150.2,61.1z"/>
<path class="st0" d="M127.7,99c8.3-7.9,17-16.1,25.9-24.7c2.9-2.7,5.6-5.3,8.3-7.9c1.9,1.1,3.8,2.3,5.7,3.6
	c-10.7,10.2-20.9,20.3-30.5,30.4c-2.9-1-6-1.5-9.2-1.5C127.9,99,127.8,99,127.7,99z"/>
<path class="st0" d="M177.5,78.7c-10.4,9.5-20.2,19-29.6,28.2c-2-1.9-4.3-3.5-6.8-4.8c10.2-9.6,20.4-19.2,30.6-28.9
	C173.8,75,175.7,76.8,177.5,78.7z"/>
<path class="st0" d="M186.5,90.5c-10.6,9.4-21,18.8-31.1,28.1c-1.5-4.4-4-8.3-7.2-11.4c10.5-8,21.2-16.4,32-25.5
	C182.6,84.5,184.7,87.4,186.5,90.5z"/>
<path class="st0" d="M192,101.8c-4.8,3.8-9.7,7.8-14.5,12c-7.3,6.3-14.3,12.5-20.8,18.8c0.2-1.5,0.4-3,0.4-4.6c0-2-0.2-4-0.6-5.9
	c10.6-9.3,21.3-18.7,32-28.4C189.8,96.3,191,99,192,101.8z"/>
<path class="st0" d="M196.4,126c0,37.9-30.8,68.7-68.7,68.7c-26.6,0-49.7-15.2-61.1-37.3c2.2-2.1,4.5-4.3,6.8-6.5
	c7.9-7.6,16.5-15.8,25.6-24.5c0,0.5,0,1.1,0,1.7c0,10.8,5.9,20.3,14.8,25.3c1.6,0.9,3.3,1.6,5,2.2v10.2l1.4-1.3l6.1-5.7l1.7-1.6h0.1
	c4.5,0,8.7-1,12.4-2.8c0,0,0,0,0,0c1.9-0.9,3.7-2,5.3-3.3h12.7c7.2-6.6,14.6-13.2,22.3-19.9c5.1-4.4,10.1-8.7,15.2-12.9
	C196.3,120.7,196.4,123.4,196.4,126z"/>
</svg>
