<?xml version="1.0" encoding="utf-8"?>
<!-- Generator: Adobe Illustrator 23.0.0, SVG Export Plug-In . SVG Version: 6.00 Build 0)  -->
<svg version="1.1" id="Layer_1" xmlns="http://www.w3.org/2000/svg" xmlns:xlink="http://www.w3.org/1999/xlink" x="0px" y="0px"
	 viewBox="0 0 256 256" style="enable-background:new 0 0 256 256;" xml:space="preserve">
<style type="text/css">
	.st0{opacity:0.4;}
	.st1{fill-rule:evenodd;clip-rule:evenodd;fill:url(#SVGID_1_);}
	.st2{fill:#F75049;}
</style>
<g class="st0">
	
		<linearGradient id="SVGID_1_" gradientUnits="userSpaceOnUse" x1="-551.2897" y1="511.8596" x2="-551.2897" y2="510.8788" gradientTransform="matrix(244.65 0 0 -228.34 134987.7813 116894.3672)">
		<stop  offset="0" style="stop-color:#FFFFFF"/>
		<stop  offset="0.125" style="stop-color:#FFFFFF;stop-opacity:9.800000e-02"/>
		<stop  offset="0.925" style="stop-color:#000000;stop-opacity:9.800000e-02"/>
		<stop  offset="1" style="stop-color:#000000;stop-opacity:0.498"/>
	</linearGradient>
	<path class="st1" d="M90.9,236.3C90.9,236.3,90.9,236.3,90.9,236.3c-4.3,0-8.6,0-12.9-0.1c-0.3,0-0.5,0-0.8,0
		c-0.5,1.5-1.4,2.8-2.5,3.9c1.1,0,2.1,0.1,3.2,0.1c2,0,4,0.1,5.9,0.1c2.3,0,4.7,0,7,0h43.5c0.7-1.3,1.2-2.6,1.7-4H90.9z M6.3,72.1
		c0,0.1,0,0.3,0,0.4c0,0.3,0,0.5,0,0.7c1.5-1.3,2.9-2.6,4.3-3.9c0-0.6,0.1-1.2,0.1-1.8C9.2,69,7.8,70.5,6.3,72.1z M222,22.6
		c0.1,0,0.1,0,0.2,0.1c0.4-0.4,0.8-0.8,1.1-1.2C222.8,21.9,222.4,22.3,222,22.6z M45.6,19.1c0.7-0.1,1.3-0.3,1.9-0.4
		c0.2,0,0.4-0.1,0.6-0.1c0.5-0.8,1-1.5,1.5-2.2C48.4,17.1,47,18,45.6,19.1z"/>
</g>
<path class="st2" d="M249.9,74C249.8,74,249.8,74,249.9,74c-1.3,1.1-2.6,2.1-3.9,3.2c-6.8,5.5-13.6,11.3-20.5,17.2
	c-14.5,11.3-29.5,23.5-44.7,36.6c-7.7,6.7-15.1,13.3-22.3,19.9h-14.3c14.7-12.8,29.4-25.7,44.1-38.6c16.6-14.6,33.2-29.1,49.8-43.7
	c-18.8,12.2-39.4,27.1-60.6,45.2c-14.6,12.5-27.7,25-39.4,37.1H123c25.1-21.3,50.5-43.6,76.1-66.9c14.4-13.1,28.5-26.1,42.2-39.1
	c1.1-1,2.2-2,3.2-3l0.2-0.2C247.7,50,249.2,60.6,249.9,74z"/>
<path class="st2" d="M238.3,29.4c-0.1,0.1-0.2,0.2-0.3,0.3c-1,0.9-1.9,1.9-2.9,2.8c-6.2,6-12.5,12-19.1,18.1
	c-24,22-47.7,41.5-70.4,58.7c16.8-16.8,35.2-34,55.4-51.5c11-9.5,21.9-18.6,32.6-27.1c1-0.8,2.1-1.7,3.1-2.5
	c0.1-0.1,0.3-0.2,0.4-0.3c-5.2-5.8-12.2-9.6-21.8-12c-0.1,0.1-0.1,0.1-0.2,0.2c-1.1,1.1-2.3,2.2-3.4,3.3
	c-13.1,12.5-31.9,30.3-57.9,55c-30.9,29.4-58.1,55.3-80.3,76.5h48c20.9-20.2,43-40.8,66.3-61.5c18-15.9,35.8-31.1,53.3-45.6
	c1.1-0.9,2.2-1.8,3.3-2.7c0.1-0.1,0.2-0.1,0.3-0.2C243,36.4,240.9,32.6,238.3,29.4z M104.9,136.3c22.1-26,48-53.4,78.3-80.7
	c13.1-11.8,26.1-22.8,38.7-33c0.4-0.4,0.9-0.7,1.3-1.1c-0.4,0.4-0.8,0.8-1.1,1.2c-14.3,14.5-28.6,29-42.9,43.5
	C154.5,89.6,129.7,113,104.9,136.3z"/>
<path class="st2" d="M204.9,13.9c0,0-0.1,0.1-0.1,0.1c-1.4,1.1-2.9,2.3-4.4,3.5c-14.2,11.2-30.8,25.3-47.2,40.9
	c-13.9,13.2-20.5,20.7-45.4,47c-16.3,17.2-31,32.5-43.5,45.5H58c-2,0-3.9,1.6-4.2,3.5l-1.3,8.5l0,0c-5.7,5.9-10.8,11.1-15.3,15.6
	c-2.1,0.8-5.2,1.6-8.2,0.4c-3.3-1.2-3.4-3.6-6-4.2c-4.5-1-6.8,5.6-12.4,5.4c-0.1,0-0.3,0-0.4,0c0.2,3.2,0.5,6.3,0.8,9.5
	c0.3,3,0.8,5.9,1.3,8.8c0.5,2.6,1.1,5.1,1.8,7.6c0.7,2.2,1.5,4.4,2.4,6.5c0.8,1.9,1.9,3.7,3,5.4c1.1,1.6,2.4,3.1,3.7,4.5
	c1.4,1.4,2.9,2.6,4.5,3.7c1.7,1.2,3.6,2.2,5.5,3c2.1,1,4.3,1.8,6.5,2.4c2.5,0.7,5.1,1.4,7.7,1.8c2.9,0.5,5.9,1,8.9,1.3
	c3.4,0.4,6.7,0.6,10.1,0.8c3.5,0.2,7.1,0.3,10.7,0.4c-0.5,1.5-1.4,2.8-2.5,3.9c-2.8-0.1-5.6-0.2-8.4-0.4c-3.5-0.2-6.9-0.5-10.4-0.9
	c-3.1-0.3-6.1-0.8-9.1-1.3c-2.7-0.5-5.4-1.1-8.1-1.9c-2.4-0.7-4.8-1.6-7-2.6c-2.1-0.9-4.1-2.1-6.1-3.3c-1.8-1.2-3.6-2.7-5.1-4.2
	c-1.6-1.6-3-3.3-4.2-5.1c-1.3-1.9-2.4-3.9-3.4-6c-1-2.3-1.9-4.6-2.6-7c-0.8-2.7-1.4-5.3-1.9-8c-0.6-3-1-6.1-1.3-9.1
	c-0.4-3.4-0.7-6.9-0.9-10.3c0-0.6-0.1-1.1-0.1-1.7c-0.2-3.3-0.3-6.6-0.4-9.9c-0.1-3.8-0.1-7.6-0.1-11.4V95.5
	c0-8.2,0.2-15.6,0.5-22.2c0,0,0,0,0,0c1.5-1.3,2.9-2.6,4.3-3.9C38.2,44,55.5,27.4,66,16.6c1.5-1.5,2.8-2.9,4-4.2c0,0,0,0,0,0
	c4.2-0.2,8.7-0.3,13.5-0.3c1.9,0,3.9,0,5.9,0h1.7c-1.4,1.3-2.8,2.7-4.1,4C65.8,37,47.8,57.6,32.8,76.7C51.7,56.6,71.4,36.3,91.8,16
	c1.3-1.3,2.7-2.7,4-4h12.2c0,0,0,0,0,0c-1.3,1.3-2.6,2.6-3.9,4C90.4,30.3,79.7,44.3,71.3,56.6c13.6-12.5,27.4-26,41.3-40.6
	c1.3-1.3,2.5-2.7,3.8-4h50.1c0.8,0,1.7,0,2.5,0c-1.7,1.3-3.3,2.7-5,4c-9.2,7.5-18.6,15.3-28.1,23.5c-20.1,17.5-38.5,34.7-55.3,51.5
	C103.3,73.8,127,54.3,151,32.2c5.9-5.4,11.7-10.9,17.3-16.3c1.4-1.3,2.8-2.6,4.1-4c0,0,0,0,0,0c0,0,0,0,0,0
	c6.7,0.1,12.8,0.3,18.4,0.6c0,0,0,0-0.1,0c-1.6,1.2-3.2,2.5-4.8,3.8c-12.8,10.1-25.8,20.8-39.1,32.3c-20.1,17.4-38.6,34.7-55.4,51.5
	C114.3,82.9,138,63.4,162,41.4c9.1-8.4,17.8-16.7,26.2-24.9c1.3-1.3,2.5-2.5,3.8-3.8c0,0,0,0,0.1-0.1
	C196.7,12.9,200.9,13.3,204.9,13.9z"/>
<path class="st2" d="M6.3,72.1C6.3,72.1,6.3,72.1,6.3,72.1c1.5-1.6,3-3.1,4.4-4.6c19.9-20.9,35.4-37.4,47.5-50.3
	c1.4-1.5,2.8-3,4.1-4.4c0,0,0.1-0.1,0.1-0.1C20.4,15.8,8.7,28.6,6.3,72.1z M48.1,18.6c-0.9,1.2-1.9,2.5-2.9,3.8
	c-4.8,5.8-9.9,10.1-14.3,13.3c2.5-4.2,6.3-9.5,12.1-14.5c0.9-0.8,1.8-1.5,2.6-2.1c0,0,0,0,0,0c1.4-1,2.7-1.9,4-2.7
	C49.2,17.1,48.7,17.8,48.1,18.6z"/>
<path class="st2" d="M166.5,12c0.8,0,1.7,0,2.5,0c0,0,0,0,0,0C168.2,12,167.4,12,166.5,12z M58,150.9c-2,0-3.9,1.6-4.2,3.5l-1.3,8.5
	c3.6-3.8,7.5-7.8,11.6-12H58z M5.8,168.2c-0.1-3.8-0.1-7.6-0.1-11.4c0,7.8,0.1,14.8,0.5,21.3c0,0,0,0,0,0
	C6,174.8,5.9,171.5,5.8,168.2z M58,150.9c-2,0-3.9,1.6-4.2,3.5l-1.3,8.5c3.6-3.8,7.5-7.8,11.6-12H58z M58,150.9
	c-2,0-3.9,1.6-4.2,3.5l-1.3,8.5c3.6-3.8,7.5-7.8,11.6-12H58z M58,150.9c-2,0-3.9,1.6-4.2,3.5l-1.3,8.5c3.6-3.8,7.5-7.8,11.6-12H58z
	 M58,150.9c-2,0-3.9,1.6-4.2,3.5l-1.3,8.5c3.6-3.8,7.5-7.8,11.6-12H58z M58,150.9c-2,0-3.9,1.6-4.2,3.5l-1.3,8.5
	c3.6-3.8,7.5-7.8,11.6-12H58z M58,150.9c-2,0-3.9,1.6-4.2,3.5l-1.3,8.5c3.6-3.8,7.5-7.8,11.6-12H58z M76.2,202h-3.9
	c-0.2,0-0.3,0.1-0.3,0.3v1.4c0,0.2,0.1,0.3,0.3,0.3h3.9c0.2,0,0.3-0.1,0.3-0.3v-1.4C76.5,202.1,76.4,202,76.2,202z M76.2,205h-3.9
	c-0.2,0-0.3,0.1-0.3,0.3v0.9c0.2,0.3,0.4,0.5,0.6,0.8h3.6c0.2,0,0.3-0.1,0.3-0.3v-1.4C76.5,205.1,76.4,205,76.2,205z M76.2,208h-2
	c0.8,0.3,1.5,0.4,2.3,0.5v-0.2C76.5,208.1,76.4,208,76.2,208z M82.2,202h-3.9c-0.2,0-0.3,0.1-0.3,0.3v1.4c0,0.2,0.1,0.3,0.3,0.3h3.9
	c0.2,0,0.3-0.1,0.3-0.3v-1.4C82.5,202.1,82.4,202,82.2,202z M82.2,205h-3.9c-0.2,0-0.3,0.1-0.3,0.3v1.4c0,0.2,0.1,0.3,0.3,0.3h3.9
	c0.2,0,0.3-0.1,0.3-0.3v-1.4C82.5,205.1,82.4,205,82.2,205z M82.2,208h-3.9c-0.2,0-0.3,0.1-0.3,0.3v0.4c0.7,0.2,1.2,0.4,1.5,1.1
	c0,0.1,0,0.1,0.1,0.2h2.7c0.2,0,0.3-0.1,0.3-0.3v-1.4C82.5,208.1,82.4,208,82.2,208z M88.2,202h-3.9c-0.2,0-0.3,0.1-0.3,0.3v1.4
	c0,0.2,0.1,0.3,0.3,0.3h3.9c0.2,0,0.3-0.1,0.3-0.3v-1.4C88.5,202.1,88.4,202,88.2,202z M88.2,205h-3.9c-0.2,0-0.3,0.1-0.3,0.3v1.4
	c0,0.2,0.1,0.3,0.3,0.3h3.9c0.2,0,0.3-0.1,0.3-0.3v-1.4C88.5,205.1,88.4,205,88.2,205z M88.2,208h-3.9c-0.2,0-0.3,0.1-0.3,0.3v1.4
	c0,0.2,0.1,0.3,0.3,0.3h3.9c0.2,0,0.3-0.1,0.3-0.3v-1.4C88.5,208.1,88.4,208,88.2,208z M94.2,202h-3.9c-0.2,0-0.3,0.1-0.3,0.3v1.4
	c0,0.2,0.1,0.3,0.3,0.3h3.9c0.2,0,0.3-0.1,0.3-0.3v-1.4C94.5,202.1,94.4,202,94.2,202z M94.2,205h-3.9c-0.2,0-0.3,0.1-0.3,0.3v1.4
	c0,0.2,0.1,0.3,0.3,0.3h3.9c0.2,0,0.3-0.1,0.3-0.3v-1.4C94.5,205.1,94.4,205,94.2,205z M94.2,208h-3.9c-0.2,0-0.3,0.1-0.3,0.3v1.4
	c0,0.2,0.1,0.3,0.3,0.3h3.9c0.2,0,0.3-0.1,0.3-0.3v-1.4C94.5,208.1,94.4,208,94.2,208z M100.2,202h-3.9c-0.2,0-0.3,0.1-0.3,0.3v1.4
	c0,0.2,0.1,0.3,0.3,0.3h3.9c0.2,0,0.3-0.1,0.3-0.3v-1.4C100.5,202.1,100.4,202,100.2,202z M100.2,205h-3.9c-0.2,0-0.3,0.1-0.3,0.3
	v1.4c0,0.2,0.1,0.3,0.3,0.3h3.9c0.2,0,0.3-0.1,0.3-0.3v-1.4C100.5,205.1,100.4,205,100.2,205z M100.2,208h-3.9
	c-0.2,0-0.3,0.1-0.3,0.3v1.4c0,0.2,0.1,0.3,0.3,0.3h3.9c0.2,0,0.3-0.1,0.3-0.3v-1.4C100.5,208.1,100.4,208,100.2,208z M106.2,202
	h-3.9c-0.2,0-0.3,0.1-0.3,0.3v1.4c0,0.2,0.1,0.3,0.3,0.3h3.9c0.2,0,0.3-0.1,0.3-0.3v-1.4C106.5,202.1,106.4,202,106.2,202z
	 M106.2,205h-3.9c-0.2,0-0.3,0.1-0.3,0.3v1.4c0,0.2,0.1,0.3,0.3,0.3h3.9c0.2,0,0.3-0.1,0.3-0.3v-1.4
	C106.5,205.1,106.4,205,106.2,205z M106.2,208h-3.9c-0.2,0-0.3,0.1-0.3,0.3v1.4c0,0.2,0.1,0.3,0.3,0.3h3.9c0.2,0,0.3-0.1,0.3-0.3
	v-1.4C106.5,208.1,106.4,208,106.2,208z M112.2,202h-3.9c-0.2,0-0.3,0.1-0.3,0.3v1.4c0,0.2,0.1,0.3,0.3,0.3h3.9
	c0.2,0,0.3-0.1,0.3-0.3v-1.4C112.5,202.1,112.4,202,112.2,202z M112.2,205h-3.9c-0.2,0-0.3,0.1-0.3,0.3v1.4c0,0.2,0.1,0.3,0.3,0.3
	h3.9c0.2,0,0.3-0.1,0.3-0.3v-1.4C112.5,205.1,112.4,205,112.2,205z M112.2,208h-3.9c-0.2,0-0.3,0.1-0.3,0.3v1.4
	c0,0.2,0.1,0.3,0.3,0.3h3.9c0.2,0,0.3-0.1,0.3-0.3v-1.4C112.5,208.1,112.4,208,112.2,208z M118.2,202h-3.9c-0.2,0-0.3,0.1-0.3,0.3
	v1.4c0,0.2,0.1,0.3,0.3,0.3h3.9c0.2,0,0.3-0.1,0.3-0.3v-1.4C118.5,202.1,118.4,202,118.2,202z M118.2,205h-3.9
	c-0.2,0-0.3,0.1-0.3,0.3v1.4c0,0.2,0.1,0.3,0.3,0.3h3.9c0.2,0,0.3-0.1,0.3-0.3v-1.4C118.5,205.1,118.4,205,118.2,205z M118.2,208
	h-3.9c-0.2,0-0.3,0.1-0.3,0.3v1.4c0,0.2,0.1,0.3,0.3,0.3h3.9c0.2,0,0.3-0.1,0.3-0.3v-1.4C118.5,208.1,118.4,208,118.2,208z
	 M124.2,202h-3.9c-0.2,0-0.3,0.1-0.3,0.3v1.4c0,0.2,0.1,0.3,0.3,0.3h3.9c0.2,0,0.3-0.1,0.3-0.3v-1.4
	C124.5,202.1,124.4,202,124.2,202z M124.2,205h-3.9c-0.2,0-0.3,0.1-0.3,0.3v1.4c0,0.2,0.1,0.3,0.3,0.3h3.9c0.2,0,0.3-0.1,0.3-0.3
	v-1.4C124.5,205.1,124.4,205,124.2,205z M124.2,208h-3.9c-0.2,0-0.3,0.1-0.3,0.3v1.4c0,0.2,0.1,0.3,0.3,0.3h3.9
	c0.2,0,0.3-0.1,0.3-0.3v-1.4C124.5,208.1,124.4,208,124.2,208z M130.2,202h-3.9c-0.2,0-0.3,0.1-0.3,0.3v1.4c0,0.2,0.1,0.3,0.3,0.3
	h3.9c0.2,0,0.3-0.1,0.3-0.3v-1.4C130.5,202.1,130.4,202,130.2,202z M130.2,205h-3.9c-0.2,0-0.3,0.1-0.3,0.3v1.4
	c0,0.2,0.1,0.3,0.3,0.3h3.9c0.2,0,0.3-0.1,0.3-0.3v-1.4C130.5,205.1,130.4,205,130.2,205z M130.2,208h-3.9c-0.2,0-0.3,0.1-0.3,0.3
	v1.4c0,0.2,0.1,0.3,0.3,0.3h3.9c0.2,0,0.3-0.1,0.3-0.3v-1.4C130.5,208.1,130.4,208,130.2,208z M136.2,202h-3.9
	c-0.2,0-0.3,0.1-0.3,0.3v1.4c0,0.2,0.1,0.3,0.3,0.3h3.9c0.2,0,0.3-0.1,0.3-0.3v-1.4C136.5,202.1,136.4,202,136.2,202z M136.2,205
	h-3.9c-0.2,0-0.3,0.1-0.3,0.3v1.4c0,0.2,0.1,0.3,0.3,0.3h3.9c0.2,0,0.3-0.1,0.3-0.3v-1.4C136.5,205.1,136.4,205,136.2,205z
	 M136.2,208h-3.9c-0.2,0-0.3,0.1-0.3,0.3v1.4c0,0.2,0.1,0.3,0.3,0.3h3.9c0.2,0,0.3-0.1,0.3-0.3v-1.4
	C136.5,208.1,136.4,208,136.2,208z M142.2,202h-3.9c-0.2,0-0.3,0.1-0.3,0.3v1.4c0,0.2,0.1,0.3,0.3,0.3h3.9c0.2,0,0.3-0.1,0.3-0.3
	v-1.4C142.5,202.1,142.4,202,142.2,202z M142.2,205h-3.9c-0.2,0-0.3,0.1-0.3,0.3v1.4c0,0.2,0.1,0.3,0.3,0.3h3.9
	c0.2,0,0.3-0.1,0.3-0.3v-1.4C142.5,205.1,142.4,205,142.2,205z M142.2,208h-3.9c-0.2,0-0.3,0.1-0.3,0.3v1.4c0,0.2,0.1,0.3,0.3,0.3
	h3.9c0.2,0,0.3-0.1,0.3-0.3v-1.4C142.5,208.1,142.4,208,142.2,208z M148.2,202h-3.9c-0.2,0-0.3,0.1-0.3,0.3v1.4
	c0,0.2,0.1,0.3,0.3,0.3h3.9c0.2,0,0.3-0.1,0.3-0.3v-1.4C148.5,202.1,148.4,202,148.2,202z M148.2,205h-3.9c-0.2,0-0.3,0.1-0.3,0.3
	v1.4c0,0.2,0.1,0.3,0.3,0.3h3.9c0.2,0,0.3-0.1,0.3-0.3v-1.4C148.5,205.1,148.4,205,148.2,205z M148.2,208h-3.9
	c-0.2,0-0.3,0.1-0.3,0.3v1.4c0,0.2,0.1,0.3,0.3,0.3h3.9c0.2,0,0.3-0.1,0.3-0.3v-1.4C148.5,208.1,148.4,208,148.2,208z M90.9,236.3
	C90.9,236.3,90.9,236.3,90.9,236.3c-4.3,0-8.6,0-12.9-0.1c-0.3,0-0.5,0-0.8,0c-0.5,1.5-1.4,2.8-2.5,3.9c0,0,0,0,0,0
	c2.9,0.1,6,0.1,9.2,0.2c2.3,0,4.7,0,7,0h43.5c0.7-1.3,1.2-2.6,1.7-4H90.9z M79.4,214.5c0.7,1.5,2.2,1.7,2.6,3.1
	c0.2,0.7,0,1.3-0.4,1.9c-0.2,0.4-0.6,0.8-1,1.2c-0.2,0.2-0.4,0.4-0.6,0.6c-0.3,0.3-0.6,0.7-0.9,1c-0.5,0.5-0.9,1.1-1.3,1.8
	c-0.1,0.2-0.3,0.4-0.4,0.7c-0.1,0.2-0.2,0.4-0.3,0.6h61.1c0.2-0.4,0.4-0.8,0.6-1.2c0,0,0,0,0,0c0.1-0.1,0.1-0.2,0.2-0.3
	c0.7-1.1,1.4-2,2.1-2.7c0.6-0.7,1.2-1.2,1.8-1.6c0.6-0.5,1.2-0.9,1.6-1.2c1.6-1.2,3.3-2.4,5-3.8H79.4z M154.2,202h-3.9
	c-0.2,0-0.3,0.1-0.3,0.3v1.4c0,0.2,0.1,0.3,0.3,0.3h3.9c0.2,0,0.3-0.1,0.3-0.3v-1.4C154.5,202.1,154.4,202,154.2,202z M154.2,205
	h-3.9c-0.2,0-0.3,0.1-0.3,0.3v1.4c0,0.2,0.1,0.3,0.3,0.3h3.9c0.2,0,0.3-0.1,0.3-0.3v-1.4C154.5,205.1,154.4,205,154.2,205z
	 M154.2,208h-3.9c-0.2,0-0.3,0.1-0.3,0.3v1.4c0,0.2,0.1,0.3,0.3,0.3h3.9c0.2,0,0.3-0.1,0.3-0.3v-1.4
	C154.5,208.1,154.4,208,154.2,208z M165,150.9c-3.1,2.6-6.2,5.2-9.2,7.7h5.9c1.7,0,3,0.6,4,1.8c0.7,0.9,1.1,2,1.1,3.2
	c0,0.4,0,0.8-0.1,1.1l-3.4,19.4c-0.3,1.7-1.2,3.1-2.6,4.3c-1.4,1.2-3,1.8-4.7,1.8h-25.4l2.4-13.5c-1.9,1.4-3.7,2.8-5.5,4.2L127,184
	c-0.3,1.7-1.1,3.1-2.5,4.3c-1.4,1.2-2.9,1.8-4.6,1.8h-19.4c-1.7,0-3-0.6-4-1.8c-0.8-0.9-1.1-1.9-1.1-3.2c0-0.4,0.1-0.8,0.1-1.2
	l0.4-2.4h5.8l-0.4,2.4c0,0,0,0.1,0,0.1c0,0.1,0.1,0.2,0.3,0.2h19.4c0.2,0,0.3-0.1,0.3-0.3l1.2-6.5v-0.1c0-0.1-0.1-0.2-0.2-0.2h-19.4
	c-1.7,0-3-0.6-4-1.8c-0.8-0.9-1.1-2-1.1-3.1c0-0.4,0.1-0.8,0.1-1.2l1.1-6.5c0.3-1.7,1.2-3.1,2.6-4.3s2.9-1.8,4.6-1.8h7.5
	c2.6-2.5,5.2-5.1,7.9-7.7h-48c-8.1,7.8-15.6,14.9-22.3,21.4c-2,1.9-3.9,3.8-5.8,5.6c-0.1,5.1,1.4,6.9,2.6,7.7
	c0.4,0.2,0.7,0.4,1.1,0.4c3,0.6,6.7-2.8,10.3-0.6c0-0.1,0-0.2,0-0.3c0-0.4,0.1-0.8,0.1-1.2l0.4-2.4h5.8l-0.4,2.4c0,0,0,0,0,0.1
	c0,0.2,0.1,0.3,0.3,0.3h19.4c0.2,0,0.3-0.1,0.3-0.3l1.2-6.5v-0.1c0-0.1-0.1-0.2-0.2-0.2H66.7c-1.7,0-3.1-0.6-4-1.8
	c-0.8-0.9-1.1-2-1.1-3.1c0-0.4,0.1-0.8,0.1-1.2l1.1-6.5c0.3-1.7,1.2-3.1,2.6-4.3c1.4-1.2,2.9-1.8,4.6-1.8h19.4c1.7,0,3,0.6,4,1.8
	c0.8,0.9,1.1,2,1.1,3.2c0,0.4,0,0.8-0.1,1.1l-0.4,2.4h-5.8l0.4-2.4v-0.1c0-0.2-0.1-0.2-0.2-0.2H69c-0.2,0-0.3,0.1-0.4,0.3l-1.2,6.5
	c0,0,0,0,0,0.1c0,0.2,0.1,0.3,0.3,0.3h19.4c1.6,0,3,0.6,4,1.8c0.7,0.9,1.1,2,1.1,3.2c0,0.3,0,0.7-0.1,1.1l-1.2,6.5
	c-0.3,1.7-1.2,3.1-2.5,4.3c-1.4,1.2-3,1.8-4.6,1.8H64.4c-0.3,0-0.6,0-0.9-0.1c0.4,0.7,0.7,1.4,0.9,2.2c0.6,2.1,0.3,3.7,1.1,5.2h95.5
	c6,0,11.5-4.8,12.5-10.7l5.5-35.8H165z M160.7,164.3h-12c-3,2.4-6,4.8-8.9,7.1l-2.2,12.6c0,0,0,0,0,0.1c0,0.2,0.1,0.3,0.3,0.3h19.3
	c0.2,0,0.3-0.1,0.4-0.3l3.4-19.4c0,0,0-0.1,0-0.1C160.9,164.4,160.8,164.3,160.7,164.3z M123,150.9c-3,2.6-6,5.1-9.1,7.7h11.4
	c1.6,0,2.9,0.5,3.9,1.7c2.8-3.1,5.8-6.2,8.8-9.3H123z M124.4,164.3H105c-0.2,0-0.3,0.1-0.4,0.3l-1.2,6.5c0,0,0,0,0,0.1
	c0,0.2,0.1,0.3,0.3,0.3h15.4c1.7-2,3.5-3.9,5.3-5.9l0.2-0.9v-0.1C124.6,164.4,124.5,164.3,124.4,164.3z M144.2,150.9
	c-4.6,4-9.2,8-13.8,12c0,0.2,0,0.4,0,0.6c0,0.4,0,0.8-0.1,1.1l-0.4,2.4h-4.3c-1.7,1.5-3.4,2.9-5,4.4h2.5c1.7,0,3,0.6,4,1.8
	c0.8,0.9,1.1,2,1.1,3.2c0,0.3,0,0.7-0.1,1.1l-0.5,2.8c1.9-1.9,3.8-3.8,5.8-5.7l2.8-16h13.9c2.7-2.5,5.5-5.1,8.3-7.7H144.2z
	 M141.3,164.3c-0.2,0-0.3,0.1-0.4,0.3l-0.6,3.2c1.2-1.2,2.4-2.3,3.7-3.5H141.3z M124.4,164.3H105c-0.2,0-0.3,0.1-0.4,0.3l-1.2,6.5
	c0,0,0,0,0,0.1c0,0.2,0.1,0.3,0.3,0.3h15.4c1.7-2,3.5-3.9,5.3-5.9l0.2-0.9v-0.1C124.6,164.4,124.5,164.3,124.4,164.3z M124.4,164.3
	H105c-0.2,0-0.3,0.1-0.4,0.3l-1.2,6.5c0,0,0,0,0,0.1c0,0.2,0.1,0.3,0.3,0.3h15.4c1.7-2,3.5-3.9,5.3-5.9l0.2-0.9v-0.1
	C124.6,164.4,124.5,164.3,124.4,164.3z M58,150.9c-2,0-3.9,1.6-4.2,3.5l-1.3,8.5c3.6-3.8,7.5-7.8,11.6-12H58z M58,150.9
	c-2,0-3.9,1.6-4.2,3.5l-1.3,8.5c3.6-3.8,7.5-7.8,11.6-12H58z M58,150.9c-2,0-3.9,1.6-4.2,3.5l-1.3,8.5c3.6-3.8,7.5-7.8,11.6-12H58z
	 M58,150.9c-2,0-3.9,1.6-4.2,3.5l-1.3,8.5c3.6-3.8,7.5-7.8,11.6-12H58z M58,150.9c-2,0-3.9,1.6-4.2,3.5l-1.3,8.5
	c3.6-3.8,7.5-7.8,11.6-12H58z"/>
</svg>
