<?xml version="1.0" encoding="utf-8"?>
<!-- Generator: Adobe Illustrator 23.0.0, SVG Export Plug-In . SVG Version: 6.00 Build 0)  -->
<svg version="1.1" id="Layer_1" xmlns="http://www.w3.org/2000/svg" xmlns:xlink="http://www.w3.org/1999/xlink" x="0px" y="0px"
	 viewBox="0 0 16 16" style="enable-background:new 0 0 16 16;" xml:space="preserve">
<style type="text/css">
	.st0{fill:#F75049;}
	.st1{fill-rule:evenodd;clip-rule:evenodd;fill:#F75049;}
</style>
<path class="st0" d="M7.8,16L7.8,16L8,16C7.9,16,7.9,16,7.8,16z M8,2.5v1.2h1.2V2.5H8z M8,0v1.2h1.2V0H8z M6.8,13.5v-0.7
	c-0.3,0.3-0.6,0.5-0.9,0.8c-0.1,0.1-0.2,0.2-0.3,0.3c0,0.3,0.2,0.6,0.4,0.9c0.3-0.3,0.7-0.5,1-0.8C6.8,13.9,6.8,13.7,6.8,13.5z
	 M8.2,6.1c0.5-0.1,0.9-0.5,1-1C9,5.4,8.6,5.7,8.2,6.1z M8,4.9v0.5c0.3-0.2,0.5-0.4,0.8-0.5H8z M8,6.2c0,0,0.1,0,0.2,0c0,0,0,0,0,0
	C8.1,6.1,8.1,6.2,8,6.2z M6.8,1.2v1.2H8V1.2H6.8z"/>
<path class="st1" d="M8,0v1.2h1.2V0H8z M6.8,1.2v1.2H8V1.2H6.8z M8,2.5v1.2h1.2V2.5H8z M8.2,6.1c0.5-0.1,0.9-0.5,1-1
	C9,5.4,8.6,5.7,8.2,6.1z M8,4.9v0.5c0.3-0.2,0.5-0.4,0.8-0.5H8z M6.8,13.5v-0.7c-0.3,0.3-0.6,0.5-0.9,0.8c-0.1,0.1-0.2,0.2-0.3,0.3
	c0,0.3,0.2,0.6,0.4,0.9c0.3-0.3,0.7-0.5,1-0.8C6.8,13.9,6.8,13.7,6.8,13.5z"/>
<path class="st0" d="M6.8,13.5v-0.7c-0.3,0.3-0.6,0.5-0.9,0.8c-0.1,0.1-0.2,0.2-0.3,0.3c0,0.3,0.2,0.6,0.4,0.9
	c0.3-0.3,0.7-0.5,1-0.8C6.8,13.9,6.8,13.7,6.8,13.5z M7.8,16L7.8,16L8,16C7.9,16,7.9,16,7.8,16z M8,2.5v1.2h1.2V2.5H8z M8,0v1.2h1.2
	V0H8z M8,4.9v0.5c0.3-0.2,0.5-0.4,0.8-0.5H8z M8.2,6.1c0.5-0.1,0.9-0.5,1-1C9,5.4,8.6,5.7,8.2,6.1z M6.8,1.2v1.2H8V1.2H6.8z"/>
<path class="st0" d="M6.8,8.6C6.4,9,6,9.3,5.5,9.7V8.6c0-1.3,1.1-2.5,2.5-2.5c0,0,0.1,0,0.2,0c0.9,0.1,1.7,0.6,2.1,1.4
	c-0.3,0.3-0.7,0.5-1,0.8c-0.1-0.5-0.5-0.9-0.9-1c0,0,0,0,0,0c-0.1,0-0.2,0-0.3,0C7.3,7.4,6.8,7.9,6.8,8.6L6.8,8.6z"/>
<path class="st0" d="M8.6,11.2c0.6-0.6,1.3-1.2,1.9-1.8v3.7c-0.6,0.5-1.3,1-1.9,1.6c-0.1,0.1-0.2,0.2-0.3,0.2
	c-0.4,0.3-0.7,0.6-1,0.9c0,0,0,0,0,0c0,0-0.1,0-0.1,0c-0.3-0.1-0.7-0.3-0.9-0.6c0.3-0.3,0.6-0.5,1-0.8c0.2,0.2,0.5,0.3,0.8,0.3
	c0.7,0,1.2-0.6,1.2-1.2v-0.9c0.2-0.2,0.4-0.3,0.6-0.5c-0.2,0.1-0.4,0.3-0.6,0.4v-0.2C9.2,11.8,9,11.4,8.6,11.2z"/>
<path class="st0" d="M9.8,14.2c0.2-0.2,0.5-0.4,0.7-0.6c0,1.3-1.1,2.4-2.5,2.4c-0.1,0-0.1,0-0.2,0C8.5,15.4,9.1,14.8,9.8,14.2z"/>
<path class="st0" d="M10.5,8.6v0.7C9.8,9.9,9,10.5,8.3,11.1c-0.1,0-0.2,0-0.3,0c-0.7,0-1.2,0.5-1.2,1.2v0.1
	c-0.4,0.3-0.8,0.7-1.2,1.1v-1.4c0.7-0.6,1.4-1.2,2-1.8c0.2-0.1,0.3-0.3,0.5-0.5c0.6,0,1.1-0.5,1.1-1.1c0.4-0.4,0.7-0.7,1.1-1
	C10.4,8,10.5,8.3,10.5,8.6z"/>
<path class="st0" d="M6,11c-0.2,0.1-0.3,0.3-0.5,0.4v-1.3C6,9.8,6.4,9.3,6.8,8.9c0.1,0.4,0.4,0.7,0.8,0.8C7.1,10.2,6.6,10.6,6,11z"
	/>
<rect x="6.8" y="3.7" class="st0" width="1.2" height="1.2"/>
</svg>
