<?xml version="1.0" encoding="utf-8"?>
<!-- Generator: Adobe Illustrator 23.0.0, SVG Export Plug-In . SVG Version: 6.00 Build 0)  -->
<svg version="1.1" id="Layer_1" xmlns="http://www.w3.org/2000/svg" xmlns:xlink="http://www.w3.org/1999/xlink" x="0px" y="0px"
	 viewBox="0 0 16 16" style="enable-background:new 0 0 16 16;" xml:space="preserve">
<style type="text/css">
	.st0{fill-rule:evenodd;clip-rule:evenodd;fill:#F75049;}
</style>
<path class="st0" d="M14.5,14.8l0.2,1.1H16v-1.1H14.5z M14.1,13.9l-0.4,0.4c0,0-0.5,0.5-0.8,0.9c0.5-0.4,1-0.7,1.3-1.1L14.1,13.9z
	 M10.3,14.8v0.4l0.5-0.4H10.3z M13.2,11.5l-0.3-0.7l-0.7,0.7l-1.1,0.8l0.3,0.8l0.3,0.9l1.4-1.2l0.5-0.3L13.2,11.5z M6.2,10.2L5,11.3
	h0.5l0.6-0.5l0.7-0.7H6.2z M5,5.2l0,0.1v0l-1.6,4l1.4-0.2L5.7,7l0-0.1L5,5.2z M12.4,9.4l-0.5-1.3v0l-0.1-0.2l-0.5-1.4l-0.2-0.4
	L11,5.9l0-0.1l-0.4,0.3C10.4,6.1,10.2,6,10,6C9.9,6,9.8,5.9,9.7,5.9c-0.1,0-0.2-0.1-0.4-0.1l0.9-2.2l0,0L9.9,3.1L9,3.3l0.1-0.1
	l-0.2,0l0.8-0.7L9.6,2.2v0l0,0L7.8,3.8l0,0l0.1,0.3l1-0.8L8.2,4.8l0.7,1.8l0.2-0.1l0.2-0.4c0.2,0,0.3,0,0.5,0.1
	c0.2,0.1,0.4,0.2,0.6,0.3l-1.2,1l0.1,0.2l0,0l1.3-1.2c0.3,0.2,0.6,0.4,0.8,0.7L9.7,8.6l0,0L10,9.5l0,0.1L11.7,8
	c0.1,0.1,0.1,0.3,0.2,0.4c0,0,0,0.1,0,0.1l-0.1,0.1l-1.5,1.5l0,0h-0.1l-1.2,1.1h0.6L11,10l0.9-0.8c0,0.4-0.2,0.8-0.4,1.1
	c-0.1,0.1-0.1,0.2-0.2,0.3c-0.1,0.2-0.3,0.3-0.3,0.4c0.1,0,0.1,0,0.2-0.1c0,0,0.1,0,0.2-0.1c0.1-0.1,0.3-0.3,0.3-0.4
	c0,0,0.1-0.1,0.1-0.2c0.2-0.2,0.3-0.4,0.6-0.6v0L12.4,9.4z M7.8,0.1L6.5,1.3L6.3,2v0L6.2,2.1l2.1-2H7.8z M7,0.1L6.6,1.2l1.1-1.1H7z
	 M9.3,1.5l-0.4-1l-3.2,3L5.1,5l0,0c0.1,0.1,0.2,0.1,0.3,0.2C5.6,5.3,5.8,5.5,6,5.5L5.8,5.8v0.4l0.3-0.3l0.1-0.2l0.2-0.5L6.3,5.3
	C6,5,5.7,4.8,5.5,4.5l1.6-1.2l0-0.1v0l0.2-0.6L7.5,3l0,0l1.2-0.9L9.3,1.5L9.3,1.5z M7.8,10.2l-1.1,1.1h1.5l1.2-1.1H7.8z M4,11.3h0.1
	L4,11.1l1-1H4.6l-0.8,0.8l-0.7-0.7l-1.7,4.5H0v1.1h4.4v-1.1H2.7L4,11.3z M11.2,11c-0.2-0.1-0.3,0.2-0.3,0.2c0,0.3,0.3,0.4,0.3,0.2
	S11.3,11.1,11.2,11z M10.8,11.6L10.8,11.6L10.8,11.6C10.8,11.7,10.9,11.6,10.8,11.6z M13.6,12.7l-1.8,1.6l0.2,0.5h-0.8l-0.9,0.8v0.3
	h0.1c0-0.1,0.1-0.1,0.2-0.2c0.5,0,1-0.1,1.4-0.2l2.1-2L13.6,12.7z"/>
</svg>
