<?xml version="1.0" encoding="utf-8"?>
<!-- Generator: Adobe Illustrator 23.0.0, SVG Export Plug-In . SVG Version: 6.00 Build 0)  -->
<svg version="1.1" id="Layer_1" xmlns="http://www.w3.org/2000/svg" xmlns:xlink="http://www.w3.org/1999/xlink" x="0px" y="0px"
	 viewBox="0 0 16 16" style="enable-background:new 0 0 16 16;" xml:space="preserve">
<style type="text/css">
	.st0{fill:#F75049;}
</style>
<g transform="translate(-332,-60.000004)">
	<path class="st0" d="M343.1,63c-0.2,0.3-0.5,0.6-0.7,0.9c0.1,0.2,0.3,0.4,0.5,0.5c0,0,0,0,0,0c0.2-0.2,0.4-0.5,0.6-0.7
		C343.3,63.4,343.2,63.2,343.1,63z M343.2,73.3c-0.2,0.3-0.4,0.5-0.7,0.8c0,0,0.1,0.1,0.1,0.1c0.2-0.2,0.4-0.5,0.7-0.8
		C343.3,73.4,343.2,73.3,343.2,73.3z M341.7,64.6C341.7,64.6,341.7,64.6,341.7,64.6L341.7,64.6C341.7,64.6,341.7,64.6,341.7,64.6z
		 M343.1,63c-0.2,0.3-0.5,0.6-0.7,0.9c0.1,0.2,0.3,0.4,0.5,0.5c0,0,0,0,0,0c0.2-0.2,0.4-0.5,0.6-0.7C343.3,63.4,343.2,63.2,343.1,63
		z"/>
</g>
<path class="st0" d="M11.3,13.4c-0.2,0.3-0.4,0.5-0.7,0.8c0,0-0.1-0.1-0.1-0.1c0.2-0.3,0.4-0.5,0.7-0.8
	C11.2,13.3,11.3,13.4,11.3,13.4z"/>
<path class="st0" d="M11.3,13.4c-0.2,0.3-0.4,0.5-0.7,0.8c0,0-0.1-0.1-0.1-0.1c0.2-0.3,0.4-0.5,0.7-0.8
	C11.2,13.3,11.3,13.4,11.3,13.4z"/>
<path class="st0" d="M11.3,13.4c-0.2,0.3-0.4,0.5-0.7,0.8c0,0-0.1-0.1-0.1-0.1c0.2-0.3,0.4-0.5,0.7-0.8
	C11.2,13.3,11.3,13.4,11.3,13.4z"/>
<path class="st0" d="M11.3,13.4c-0.2,0.3-0.4,0.5-0.7,0.8c0,0-0.1-0.1-0.1-0.1c0.2-0.3,0.4-0.5,0.7-0.8
	C11.2,13.3,11.3,13.4,11.3,13.4z"/>
<path class="st0" d="M11.3,13.4c-0.2,0.3-0.4,0.5-0.7,0.8c0,0-0.1-0.1-0.1-0.1c0.2-0.3,0.4-0.5,0.7-0.8
	C11.2,13.3,11.3,13.4,11.3,13.4z"/>
<path class="st0" d="M11.3,13.4c-0.2,0.3-0.4,0.5-0.7,0.8c0,0-0.1-0.1-0.1-0.1c0.2-0.3,0.4-0.5,0.7-0.8
	C11.2,13.3,11.3,13.4,11.3,13.4z"/>
<path class="st0" d="M11.3,13.4c-0.2,0.3-0.4,0.5-0.7,0.8c0,0-0.1-0.1-0.1-0.1c0.2-0.3,0.4-0.5,0.7-0.8
	C11.2,13.3,11.3,13.4,11.3,13.4z"/>
<path class="st0" d="M11.3,13.4c-0.2,0.3-0.4,0.5-0.7,0.8c0,0-0.1-0.1-0.1-0.1c0.2-0.3,0.4-0.5,0.7-0.8
	C11.2,13.3,11.3,13.4,11.3,13.4z"/>
<path class="st0" d="M11.3,13.4c-0.2,0.3-0.4,0.5-0.7,0.8c0,0-0.1-0.1-0.1-0.1c0.2-0.3,0.4-0.5,0.7-0.8
	C11.2,13.3,11.3,13.4,11.3,13.4z"/>
<path class="st0" d="M11.3,13.4c-0.2,0.3-0.4,0.5-0.7,0.8c0,0-0.1-0.1-0.1-0.1c0.2-0.3,0.4-0.5,0.7-0.8
	C11.2,13.3,11.3,13.4,11.3,13.4z"/>
<path class="st0" d="M3.8,6C4,5.8,4.3,5.5,4.5,5.2c0.3,0.2,0.6,0.4,0.8,0.6C5.2,6.1,4.9,6.4,4.7,6.6C4.5,6.3,4.2,6.1,3.8,6z"/>
<path class="st0" d="M9.7,4.6L9.7,4.6C9.7,4.6,9.7,4.6,9.7,4.6C9.7,4.6,9.7,4.6,9.7,4.6z"/>
<path class="st0" d="M11.5,3.6c-0.2,0.2-0.4,0.5-0.6,0.7c0,0,0,0,0,0c-0.2-0.1-0.3-0.3-0.5-0.5c0.2-0.3,0.5-0.6,0.7-0.9
	C11.2,3.2,11.3,3.4,11.5,3.6z"/>
<path class="st0" d="M13.3,3.8c0.2-0.2,0.3-0.4,0.5-0.6C13.7,3.4,13.5,3.6,13.3,3.8z"/>
<path class="st0" d="M11,2.5c0,0.2,0,0.3,0.1,0.5c-0.2,0.3-0.5,0.6-0.7,0.9C10.1,3.4,10,3,10,2.5c0,0,0-0.1,0-0.2
	c0.1-1.2,1-2.2,2.2-2.3c0.1,0,0.2,0,0.3,0c0.3,0,0.6,0.1,0.9,0.2c0.3,0.1,0.6,0.3,0.8,0.5c-0.2,0.2-0.5,0.5-0.7,0.7
	C13.3,1.2,13,1,12.7,1c0,0-0.1,0-0.2,0C11.7,1,11,1.7,11,2.5z"/>
<path class="st0" d="M13.3,3.8C13,4,12.8,4.3,12.5,4.6c-0.1,0.1-0.2,0.3-0.4,0.4c-0.3,0-0.7-0.2-1-0.3c0.2-0.3,0.4-0.5,0.6-0.8
	C12,4,12.3,4,12.5,4C12.8,4,13.1,3.9,13.3,3.8z"/>
<path class="st0" d="M15,2.5C15,2.5,15,2.5,15,2.5c0,1.3-0.9,2.3-2.1,2.5c0.4-0.4,0.7-0.8,1.1-1.3C14.3,3.3,14.7,2.9,15,2.5z"/>
<path class="st0" d="M13.6,1.5C13.8,1.3,14,1,14.2,0.7C14.6,1.1,14.8,1.5,15,2c-0.4,0.4-0.8,0.8-1.1,1.2C13.9,3,14,2.8,14,2.5
	C14,2.1,13.9,1.8,13.6,1.5z"/>
<path class="st0" d="M11.2,13.3c-0.2,0.3-0.4,0.5-0.7,0.8c0,0,0.1,0.1,0.1,0.1c0.2-0.2,0.4-0.5,0.7-0.8
	C11.3,13.4,11.2,13.3,11.2,13.3z"/>
<path class="st0" d="M13.8,3.2c-0.1,0.2-0.3,0.4-0.5,0.6C13.5,3.6,13.6,3.4,13.8,3.2z"/>
<path class="st0" d="M11.3,13.4c-0.2,0.3-0.4,0.5-0.7,0.8c0,0-0.1-0.1-0.1-0.1c0.2-0.3,0.4-0.5,0.7-0.8
	C11.2,13.3,11.3,13.4,11.3,13.4z"/>
<path class="st0" d="M11.3,13.4c-0.2,0.3-0.4,0.5-0.7,0.8c0,0-0.1-0.1-0.1-0.1c0.2-0.3,0.4-0.5,0.7-0.8
	C11.2,13.3,11.3,13.4,11.3,13.4z"/>
<path class="st0" d="M11.3,13.4c-0.2,0.3-0.4,0.5-0.7,0.8c0,0-0.1-0.1-0.1-0.1c0.2-0.3,0.4-0.5,0.7-0.8
	C11.2,13.3,11.3,13.4,11.3,13.4z"/>
<path class="st0" d="M11.3,13.4c-0.2,0.3-0.4,0.5-0.7,0.8c0,0-0.1-0.1-0.1-0.1c0.2-0.3,0.4-0.5,0.7-0.8
	C11.2,13.3,11.3,13.4,11.3,13.4z"/>
<path class="st0" d="M11.3,13.4c-0.2,0.3-0.4,0.5-0.7,0.8c0,0-0.1-0.1-0.1-0.1c0.2-0.3,0.4-0.5,0.7-0.8
	C11.2,13.3,11.3,13.4,11.3,13.4z"/>
<path class="st0" d="M11.3,13.4c-0.2,0.3-0.4,0.5-0.7,0.8c0,0-0.1-0.1-0.1-0.1c0.2-0.3,0.4-0.5,0.7-0.8
	C11.2,13.3,11.3,13.4,11.3,13.4z"/>
<path class="st0" d="M11.3,13.4c-0.2,0.3-0.4,0.5-0.7,0.8c0,0-0.1-0.1-0.1-0.1c0.2-0.3,0.4-0.5,0.7-0.8
	C11.2,13.3,11.3,13.4,11.3,13.4z"/>
<path class="st0" d="M11.3,13.4c-0.2,0.3-0.4,0.5-0.7,0.8c0,0-0.1-0.1-0.1-0.1c0.2-0.3,0.4-0.5,0.7-0.8
	C11.2,13.3,11.3,13.4,11.3,13.4z"/>
<path class="st0" d="M11.3,13.4c-0.2,0.3-0.4,0.5-0.7,0.8c0,0-0.1-0.1-0.1-0.1c0.2-0.3,0.4-0.5,0.7-0.8
	C11.2,13.3,11.3,13.4,11.3,13.4z"/>
<path class="st0" d="M11.3,13.4c-0.2,0.3-0.4,0.5-0.7,0.8c0,0-0.1-0.1-0.1-0.1c0.2-0.3,0.4-0.5,0.7-0.8
	C11.2,13.3,11.3,13.4,11.3,13.4z"/>
<path class="st0" d="M8.5,9.7l1.2,0.6c-0.2,0.3-0.5,0.5-0.7,0.8l-1.2-0.7C8,10.2,8.2,9.9,8.5,9.7z"/>
<path class="st0" d="M14.9,13.2c-0.3,1-1.3,1.8-2.4,1.8c-0.7,0-1.3-0.3-1.8-0.8c0.2-0.2,0.5-0.5,0.7-0.7c0.3,0.3,0.7,0.5,1.1,0.5
	c0.8,0,1.5-0.7,1.5-1.5c0-0.5-0.2-0.9-0.5-1.2c0.2-0.2,0.4-0.5,0.7-0.7c0.4,0.3,0.7,0.7,0.8,1.2c-0.6,0.5-0.9,0.9-1,1.5
	c0,0.1,0,0.4,0.1,0.5C14.2,13.9,14.5,13.6,14.9,13.2z"/>
<path class="st0" d="M1.2,8.5C1.1,8.2,1,7.9,1,7.5C1,6.1,2.1,5,3.5,5c0.2,0,0.4,0,0.6,0.1C3.8,5.4,3.5,5.7,3.3,6
	C2.5,6.1,2,6.8,2,7.5c0,0,0,0.1,0,0.1C1.7,7.9,1.5,8.2,1.2,8.5z"/>
<path class="st0" d="M2.9,8.9C2.7,9.1,2.5,9.4,2.3,9.7C1.8,9.4,1.5,9,1.2,8.6C1.5,8.3,1.8,8,2,7.8C2.1,8.3,2.5,8.7,2.9,8.9z"/>
<path class="st0" d="M11.1,13c-0.2,0.2-0.3,0.3-0.4,0.5c-0.1,0.1-0.2,0.2-0.3,0.3c-0.2-0.3-0.3-0.7-0.3-1.1c0.5-0.5,0.9-1,1.3-1.5
	c0.4-0.4,0.7-0.8,1-1.2h0.1c0.4,0,0.8,0.1,1.1,0.3c-0.2,0.3-0.5,0.5-0.8,0.8c-0.1,0-0.2,0-0.4,0c-0.8,0-1.5,0.7-1.5,1.5
	C11,12.7,11,12.8,11.1,13z"/>
<path class="st0" d="M13,11.1c0.2-0.3,0.4-0.5,0.7-0.8c0.1,0,0.1,0.1,0.1,0.1c-0.2,0.3-0.4,0.5-0.6,0.8C13.2,11.2,13.1,11.1,13,11.1
	z"/>
<path class="st0" d="M8.3,9.6c-0.2,0.3-0.4,0.5-0.6,0.8L6.9,10c0.2-0.3,0.4-0.5,0.6-0.8L8.3,9.6z"/>
<path class="st0" d="M7.1,9C6.9,9.2,6.7,9.5,6.5,9.8L5.8,9.4C6,9.1,6.3,8.8,6.5,8.6L7.1,9z"/>
<path class="st0" d="M10.3,11.4c0,0-0.1,0.1-0.1,0.1c0.2-0.5,0.6-1,1.1-1.2C11,10.6,10.7,11,10.3,11.4z"/>
<path class="st0" d="M9.2,3.7C9.4,4,9.5,4.3,9.7,4.6c0,0,0,0,0,0L6.8,6.2L5.9,6.8C5.9,6.9,6,7.1,6,7.3C5.5,8,4.9,8.8,4.1,9.9
	C3.9,10,3.7,10,3.5,10C3,10,2.6,9.9,2.3,9.7C2.5,9.4,2.8,9.2,3,8.9C3.2,9,3.3,9,3.5,9C4.3,9,5,8.3,5,7.5C5,7.3,5,7.2,4.9,7
	C5.5,6.4,6,5.8,6.5,5.2l1.9-1L9.2,3.7z"/>
</svg>
