<?xml version="1.0" encoding="utf-8"?>
<!-- Generator: Adobe Illustrator 23.0.0, SVG Export Plug-In . SVG Version: 6.00 Build 0)  -->
<svg version="1.1" id="Layer_1" xmlns="http://www.w3.org/2000/svg" xmlns:xlink="http://www.w3.org/1999/xlink" x="0px" y="0px"
	 viewBox="0 0 16 16" style="enable-background:new 0 0 16 16;" xml:space="preserve">
<style type="text/css">
	.st0{fill:#CBA6F7;}
	.st1{fill:#F75049;}
</style>
<path class="st0" d="M9.7,7.9c0.6-0.5,1.2-1,1.7-1.5L9.7,7.9z M12.2,7.1c-0.5,0.5-1,1-1.6,1.5c-2.3,2.1-4.7,4.1-6.9,6
	c1.9-1.8,3.9-3.7,6-5.6c0.8-0.7,1.6-1.4,2.4-2l-0.6-0.6L9.7,7.9l-2.5,2.8l0.7-1.3c-0.5,0.4-1,0.8-1.5,1.2C7,10,7.5,9.4,8.2,8.8
	L9,7.2C7,9.1,5.1,10.9,3.2,12.7c1.7-2,3.6-4,5.9-6.1L8.8,6.1C8.3,6.7,7.7,7.2,7,7.8c-2,1.9-3.8,3.6-5.3,5.1c0.8,1,1.7,1.8,2.9,2.3
	c1.2-1.4,2.6-2.8,4.3-4.3c1.4-1.2,2.7-2.2,4-3L12.2,7.1z M13.5,8.6L12.9,8c-1.1,1-2.1,1.9-3.2,2.8c-1.7,1.5-3.4,3-5.1,4.5
	c0.3,0.1,0.6,0.3,0.9,0.3c1.1-1.1,2.3-2.2,3.6-3.3c1.1-1,2.2-1.9,3.3-2.7c-1.6,1.4-3,2.7-4.3,4c0.2-0.1,0.4-0.3,0.6-0.5
	c0.5-0.5,1.1-1,1.6-1.5c0.9-0.9,1.8-1.7,2.7-2.6c-0.1,0.1-0.2,0.2-0.3,0.3C12.9,9.1,13.2,8.9,13.5,8.6z M15.9,6.8
	c-0.4,0.4-0.8,0.8-1.3,1.3c0,0.5-0.1,1.1-0.2,1.6l-0.7-0.8c0,0-0.1,0.1-0.1,0.1c-1.7,1.5-3.3,2.9-4.9,4.1c-1,0.9-2,1.7-3,2.5
	C6.4,15.9,7.2,16,8,16c0.6,0,1.2-0.1,1.8-0.2c0.1-0.1,0.2-0.2,0.4-0.2c0.1,0,0.3-0.2,0.6-0.4c0.4-0.3,0.5-0.7,0.7-1
	c0.5-0.9,1-1,2-2.4c0-0.1,0.3-0.4,0.2-0.4c-0.1-0.1-1.4,1.4-1.7,1.1c-0.1-0.1-0.1-0.2-0.1-0.3c0.1-0.7,1-0.9,2.3-2
	c0.3-0.3,0.2-0.2,0.6-0.6c0.4-0.4,0.9-0.7,1.3-1c0-0.2,0-0.4,0-0.6C16,7.6,16,7.2,15.9,6.8z M9.7,7.9c0.6-0.5,1.2-1,1.7-1.5L9.7,7.9
	z M9.7,7.9c0.6-0.5,1.2-1,1.7-1.5L9.7,7.9z M13.5,4.3c0,0,0.1,0.1,0.1,0.1c0.3-0.3,0.7-0.7,1-1C14.2,3.7,13.8,4,13.5,4.3z M1.3,9.1
	c0,0,0.1-0.1,0.1-0.1c0,0,0,0,0,0C1.4,9,1.3,9.1,1.3,9.1z M13.5,4.3c0,0,0.1,0.1,0.1,0.1c0.3-0.3,0.7-0.7,1-1
	C14.2,3.7,13.8,4,13.5,4.3z M1.3,9.1c0,0,0.1-0.1,0.1-0.1c0,0,0,0,0,0C1.4,9,1.3,9.1,1.3,9.1z M14.5,3.4c-0.4-0.5-0.8-1-1.3-1.5
	c-0.2,0.2-0.5,0.5-1,1c0.5,0.4,0.9,0.9,1.3,1.4c0,0,0.1,0.1,0.1,0.1c0.2,0.3,0.3,0.6,0.5,0.9c0.2-0.2,0.4-0.4,0.6-0.5
	c-0.2,0.2-0.4,0.4-0.6,0.6c0.3,0.7,0.5,1.5,0.5,2.4c0.4-0.3,0.8-0.7,1.3-1C15.7,5.5,15.2,4.4,14.5,3.4z M1.1,4
	c0.3-0.3,0.7-0.7,1-1.1c0.8-0.8,1.6-1.5,2.3-2.1C3,1.5,1.9,2.6,1.1,4z M8.2,5.1l-1.7,2C6.6,6.9,6.8,6.8,7,6.6
	c0.5-0.4,0.9-0.9,1.4-1.3L8.2,5.1z M8,0C6.9,0,5.8,0.2,4.8,0.7c-0.5,0.5-1.1,1-1.6,1.5C2.4,3,1.5,3.9,0.7,4.8C0.2,5.8,0,6.8,0,8
	c0,1.6,0.5,3.2,1.3,4.4c0.3-0.3,0.6-0.7,1-1C1.9,10.7,1.6,9.9,1.4,9c0,0,0,0,0,0v0c0-0.3-0.1-0.6-0.1-1c0-1.1,0.3-2.1,0.7-3
	c-0.5,0.5-1,1-1.5,1.4c0.7-1,1.6-2.3,2.9-3.5c1-1,2-1.8,2.8-2.4C5.8,1.1,5.3,1.6,4.8,2.2c0.9-0.5,2-0.8,3.2-0.8
	c1.4,0,2.7,0.4,3.8,1.2c0.5-0.3,0.9-0.6,1.2-0.8C11.6,0.6,9.9,0,8,0z M1.3,9.1c0,0,0.1-0.1,0.1-0.1c0,0,0,0,0,0
	C1.4,9,1.3,9.1,1.3,9.1z M13.5,4.3c0,0,0.1,0.1,0.1,0.1c0.3-0.3,0.7-0.7,1-1C14.2,3.7,13.8,4,13.5,4.3z M1.3,9.1
	c0,0,0.1-0.1,0.1-0.1c0,0,0,0,0,0C1.4,9,1.3,9.1,1.3,9.1z"/>
<path class="st1" d="M12.6,9.4c-0.1,0.1-0.2,0.1-0.2,0.2c-1.6,1.4-3,2.7-4.3,4c0.2-0.1,0.4-0.3,0.6-0.5c0.5-0.5,1.1-1,1.6-1.5
	c0.9-0.9,1.8-1.7,2.7-2.6C12.9,9.2,12.8,9.3,12.6,9.4z M12.6,9.4c-0.1,0.1-0.2,0.1-0.2,0.2c-1.6,1.4-3,2.7-4.3,4
	c0.2-0.1,0.4-0.3,0.6-0.5c0.5-0.5,1.1-1,1.6-1.5c0.9-0.9,1.8-1.7,2.7-2.6C12.9,9.2,12.8,9.3,12.6,9.4z M12.6,9.4
	c-0.1,0.1-0.2,0.1-0.2,0.2c-1.6,1.4-3,2.7-4.3,4c0.2-0.1,0.4-0.3,0.6-0.5c0.5-0.5,1.1-1,1.6-1.5c0.9-0.9,1.8-1.7,2.7-2.6
	C12.9,9.2,12.8,9.3,12.6,9.4z M12.6,9.4c-0.1,0.1-0.2,0.1-0.2,0.2c-1.6,1.4-3,2.7-4.3,4c0.2-0.1,0.4-0.3,0.6-0.5
	c0.5-0.5,1.1-1,1.6-1.5c0.9-0.9,1.8-1.7,2.7-2.6C12.9,9.2,12.8,9.3,12.6,9.4z M12.6,9.4c-0.1,0.1-0.2,0.1-0.2,0.2
	c-1.6,1.4-3,2.7-4.3,4c0.2-0.1,0.4-0.3,0.6-0.5c0.5-0.5,1.1-1,1.6-1.5c0.9-0.9,1.8-1.7,2.7-2.6C12.9,9.2,12.8,9.3,12.6,9.4z
	 M12.6,9.4c-0.1,0.1-0.2,0.1-0.2,0.2c-1.6,1.4-3,2.7-4.3,4c0.2-0.1,0.4-0.3,0.6-0.5c0.5-0.5,1.1-1,1.6-1.5c0.9-0.9,1.8-1.7,2.7-2.6
	C12.9,9.2,12.8,9.3,12.6,9.4z M12.6,9.4c-0.1,0.1-0.2,0.1-0.2,0.2c-1.6,1.4-3,2.7-4.3,4c0.2-0.1,0.4-0.3,0.6-0.5
	c0.5-0.5,1.1-1,1.6-1.5c0.9-0.9,1.8-1.7,2.7-2.6C12.9,9.2,12.8,9.3,12.6,9.4z M12.6,9.4c-0.1,0.1-0.2,0.1-0.2,0.2
	c-1.6,1.4-3,2.7-4.3,4c0.2-0.1,0.4-0.3,0.6-0.5c0.5-0.5,1.1-1,1.6-1.5c0.9-0.9,1.8-1.7,2.7-2.6C12.9,9.2,12.8,9.3,12.6,9.4z
	 M12.6,9.4c-0.1,0.1-0.2,0.1-0.2,0.2c-1.6,1.4-3,2.7-4.3,4c0.2-0.1,0.4-0.3,0.6-0.5c0.5-0.5,1.1-1,1.6-1.5c0.9-0.9,1.8-1.7,2.7-2.6
	C12.9,9.2,12.8,9.3,12.6,9.4z M12.6,9.4c-0.1,0.1-0.2,0.1-0.2,0.2c-1.6,1.4-3,2.7-4.3,4c0.2-0.1,0.4-0.3,0.6-0.5
	c0.5-0.5,1.1-1,1.6-1.5c0.9-0.9,1.8-1.7,2.7-2.6C12.9,9.2,12.8,9.3,12.6,9.4z M12.2,7.1c-0.5,0.5-1,1-1.6,1.5
	c-2.3,2.1-4.7,4.1-6.9,6c1.9-1.8,3.9-3.7,6-5.6c0.8-0.7,1.6-1.4,2.4-2l-0.6-0.6c-0.6,0.5-1.2,1-1.7,1.5l-2.5,2.8l0.7-1.3
	c-0.5,0.4-1,0.8-1.5,1.2C7,10,7.5,9.4,8.2,8.8L9,7.2C7,9.1,5.1,10.9,3.2,12.7c1.7-2,3.6-4,5.9-6.1L8.8,6.1C8.3,6.7,7.7,7.2,7,7.8
	c-2,1.9-3.8,3.6-5.3,5.1c0.8,1,1.7,1.8,2.9,2.3c1.2-1.4,2.6-2.8,4.3-4.3c1.4-1.2,2.7-2.2,4-3L12.2,7.1z M13.5,8.6L12.9,8
	c-1.1,1-2.1,1.9-3.2,2.8c-1.7,1.5-3.4,3-5.1,4.5c0.3,0.1,0.6,0.3,0.9,0.3c1.1-1.1,2.3-2.2,3.6-3.3c1.1-1,2.2-1.9,3.3-2.7
	c-1.6,1.4-3,2.7-4.3,4c0.2-0.1,0.4-0.3,0.6-0.5c0.5-0.5,1.1-1,1.6-1.5c0.9-0.9,1.8-1.7,2.7-2.6c-0.1,0.1-0.2,0.2-0.3,0.3
	C12.9,9.1,13.2,8.9,13.5,8.6z M13.2,1.9c-0.2,0.2-0.5,0.5-1,1c0.5,0.4,0.9,0.9,1.3,1.4c0.4-0.3,0.7-0.6,1.1-0.8
	C14.2,2.9,13.7,2.4,13.2,1.9z M14.5,3.4c-0.3,0.3-0.6,0.7-1,1c0.2,0.3,0.3,0.6,0.5,0.9c0.2-0.2,0.4-0.4,0.6-0.5
	c-0.2,0.2-0.4,0.4-0.6,0.6c0.3,0.7,0.5,1.5,0.5,2.4c0.4-0.3,0.8-0.7,1.3-1C15.7,5.5,15.2,4.4,14.5,3.4z M15.9,6.8
	c-0.4,0.4-0.8,0.8-1.3,1.3c0,0.5-0.1,1.1-0.2,1.6l-0.7-0.8c0,0-0.1,0.1-0.1,0.1c-1.7,1.5-3.3,2.9-4.9,4.1c-1,0.9-2,1.7-3,2.5
	C6.4,15.9,7.2,16,8,16c0.6,0,1.2-0.1,1.8-0.2c0.1-0.1,0.2-0.2,0.4-0.2c0.1,0,0.3-0.2,0.6-0.4c0.4-0.3,0.5-0.7,0.7-1
	c0.5-0.9,1-1,2-2.4c0-0.1,0.3-0.4,0.2-0.4c-0.1-0.1-1.4,1.4-1.7,1.1c-0.1-0.1-0.1-0.2-0.1-0.3c0.1-0.7,1-0.9,2.3-2
	c0.3-0.3,0.2-0.2,0.6-0.6c0.4-0.4,0.9-0.7,1.3-1c0-0.2,0-0.4,0-0.6C16,7.6,16,7.2,15.9,6.8z M8,0C6.9,0,5.8,0.2,4.8,0.7
	c-0.5,0.5-1.1,1-1.6,1.5C2.4,3,1.5,3.9,0.7,4.8C0.2,5.8,0,6.8,0,8c0,1.6,0.5,3.2,1.3,4.4c0.3-0.3,0.6-0.7,1-1
	C1.9,10.7,1.6,9.9,1.4,9c0,0-0.1,0.1-0.1,0.1c0,0,0.1-0.1,0.1-0.1v0c0-0.3-0.1-0.6-0.1-1c0-1.1,0.3-2.1,0.7-3c-0.5,0.5-1,1-1.5,1.4
	c0.7-1,1.6-2.3,2.9-3.5c1-1,2-1.8,2.8-2.4C5.8,1.1,5.3,1.6,4.8,2.2c0.9-0.5,2-0.8,3.2-0.8c1.4,0,2.7,0.4,3.8,1.2
	c0.5-0.3,0.9-0.6,1.2-0.8C11.6,0.6,9.9,0,8,0z M8.2,5.1l-1.7,2C6.6,6.9,6.8,6.8,7,6.6c0.5-0.4,0.9-0.9,1.4-1.3L8.2,5.1z M1.1,4
	c0.3-0.3,0.7-0.7,1-1.1c0.8-0.8,1.6-1.5,2.3-2.1C3,1.5,1.9,2.6,1.1,4z M12.6,9.4c-0.1,0.1-0.2,0.1-0.2,0.2c-1.6,1.4-3,2.7-4.3,4
	c0.2-0.1,0.4-0.3,0.6-0.5c0.5-0.5,1.1-1,1.6-1.5c0.9-0.9,1.8-1.7,2.7-2.6C12.9,9.2,12.8,9.3,12.6,9.4z M12.6,9.4
	c-0.1,0.1-0.2,0.1-0.2,0.2c-1.6,1.4-3,2.7-4.3,4c0.2-0.1,0.4-0.3,0.6-0.5c0.5-0.5,1.1-1,1.6-1.5c0.9-0.9,1.8-1.7,2.7-2.6
	C12.9,9.2,12.8,9.3,12.6,9.4z M12.6,9.4c-0.1,0.1-0.2,0.1-0.2,0.2c-1.6,1.4-3,2.7-4.3,4c0.2-0.1,0.4-0.3,0.6-0.5
	c0.5-0.5,1.1-1,1.6-1.5c0.9-0.9,1.8-1.7,2.7-2.6C12.9,9.2,12.8,9.3,12.6,9.4z M12.6,9.4c-0.1,0.1-0.2,0.1-0.2,0.2
	c-1.6,1.4-3,2.7-4.3,4c0.2-0.1,0.4-0.3,0.6-0.5c0.5-0.5,1.1-1,1.6-1.5c0.9-0.9,1.8-1.7,2.7-2.6C12.9,9.2,12.8,9.3,12.6,9.4z
	 M12.6,9.4c-0.1,0.1-0.2,0.1-0.2,0.2c-1.6,1.4-3,2.7-4.3,4c0.2-0.1,0.4-0.3,0.6-0.5c0.5-0.5,1.1-1,1.6-1.5c0.9-0.9,1.8-1.7,2.7-2.6
	C12.9,9.2,12.8,9.3,12.6,9.4z M12.6,9.4c-0.1,0.1-0.2,0.1-0.2,0.2c-1.6,1.4-3,2.7-4.3,4c0.2-0.1,0.4-0.3,0.6-0.5
	c0.5-0.5,1.1-1,1.6-1.5c0.9-0.9,1.8-1.7,2.7-2.6C12.9,9.2,12.8,9.3,12.6,9.4z M12.6,9.4c-0.1,0.1-0.2,0.1-0.2,0.2
	c-1.6,1.4-3,2.7-4.3,4c0.2-0.1,0.4-0.3,0.6-0.5c0.5-0.5,1.1-1,1.6-1.5c0.9-0.9,1.8-1.7,2.7-2.6C12.9,9.2,12.8,9.3,12.6,9.4z
	 M12.6,9.4c-0.1,0.1-0.2,0.1-0.2,0.2c-1.6,1.4-3,2.7-4.3,4c0.2-0.1,0.4-0.3,0.6-0.5c0.5-0.5,1.1-1,1.6-1.5c0.9-0.9,1.8-1.7,2.7-2.6
	C12.9,9.2,12.8,9.3,12.6,9.4z M12.6,9.4c-0.1,0.1-0.2,0.1-0.2,0.2c-1.6,1.4-3,2.7-4.3,4c0.2-0.1,0.4-0.3,0.6-0.5
	c0.5-0.5,1.1-1,1.6-1.5c0.9-0.9,1.8-1.7,2.7-2.6C12.9,9.2,12.8,9.3,12.6,9.4z M12.6,9.4c-0.1,0.1-0.2,0.1-0.2,0.2
	c-1.6,1.4-3,2.7-4.3,4c0.2-0.1,0.4-0.3,0.6-0.5c0.5-0.5,1.1-1,1.6-1.5c0.9-0.9,1.8-1.7,2.7-2.6C12.9,9.2,12.8,9.3,12.6,9.4z"/>
<path class="st1" d="M13,9.1c-0.8,0.8-1.7,1.7-2.7,2.6c-0.5,0.5-1.1,1-1.6,1.5c-0.2,0.2-0.4,0.3-0.6,0.5c1.3-1.3,2.8-2.7,4.3-4
	c0.1-0.1,0.2-0.1,0.2-0.2C12.8,9.3,12.9,9.2,13,9.1z"/>
<path class="st1" d="M13,9.1c-0.8,0.8-1.7,1.7-2.7,2.6c-0.5,0.5-1.1,1-1.6,1.5c-0.2,0.2-0.4,0.3-0.6,0.5c1.3-1.3,2.8-2.7,4.3-4
	c0.1-0.1,0.2-0.1,0.2-0.2C12.8,9.3,12.9,9.2,13,9.1z"/>
<path class="st1" d="M-0.9,3L-0.9,3z"/>
</svg>
