<?xml version="1.0" encoding="utf-8"?>
<!-- Generator: Adobe Illustrator 23.0.0, SVG Export Plug-In . SVG Version: 6.00 Build 0)  -->
<svg version="1.1" id="Layer_1" xmlns="http://www.w3.org/2000/svg" xmlns:xlink="http://www.w3.org/1999/xlink" x="0px" y="0px"
	 viewBox="0 0 16 16" style="enable-background:new 0 0 16 16;" xml:space="preserve">
<style type="text/css">
	.st0{fill:none;}
	.st1{fill:#CBA6F7;}
	.st2{fill:#F75049;}
</style>
<path class="st0" d="M13.3,3.1c0.3,0,0.3,0.3,0.3,0.7v0.3"/>
<path class="st0" d="M11.2,3.3l1.1-0.1c0.2,0,0.3,0,0.4,0"/>
<line class="st0" x1="5.4" y1="6.1" x2="5.4" y2="4.9"/>
<path class="st0" d="M4.6,12.4c-0.3-0.1-0.6-0.2-1-0.2c-0.8,0-1.3,0.3-1.5,0.7c-0.3,0.4-0.4,0.9-0.4,1.2c0,0.4,0.2,0.9,0.5,1.3
	C2.5,15.8,3,16,3.8,16c0.9,0,1.5-0.2,1.8-0.7c0.2-0.2,0.3-0.5,0.4-0.9c0-0.1,0-0.2,0.1-0.3c0-0.1,0-0.2,0-0.3c0-0.1,0-0.1,0-0.2
	c0-0.1,0-0.3,0-0.3v-0.5"/>
<polyline class="st0" points="6.1,12.4 6.1,11.2 6.1,10.9 6.1,8.2 6.1,7.7 6.1,6.8 "/>
<path class="st0" d="M5.4,11.6V8.9C4.7,9.6,3.9,10.3,3.2,11c0.7-0.8,1.5-1.7,2.3-2.5v-1"/>
<path class="st0" d="M10.5,3.4L9.4,3.6L7.6,3.8l-0.2,0C6.9,3.9,6.5,4,6.3,4.1c-0.1,0-0.1,0.1-0.1,0.1C6.1,4.4,6.1,4.7,6.1,5.1v0.2"
	/>
<line class="st0" x1="5.4" y1="4.4" x2="5.4" y2="3.3"/>
<path class="st0" d="M9,0H8.6c-0.3,0.3-0.7,0.6-1,0.9L6.8,1C5.4,1.2,5.4,1.3,5.4,2.4v0.3"/>
<path class="st0" d="M13.8,0c0.6,0,0.6,0.3,0.6,1.2v0.6v0.4v1.4v0.2"/>
<path class="st0" d="M14.3,7L14.3,7c-0.1,0.1-0.1,0.1-0.2,0.2C14.2,7.1,14.3,7,14.3,7z"/>
<path class="st0" d="M14.3,7L14.3,7c0.1-0.1,0.1-0.1,0.2-0.2C14.5,6.9,14.4,7,14.3,7z"/>
<path class="st0" d="M14.3,9.2c-0.3,0.2-0.5,0.3-0.7,0.5V8.2c0.2-0.2,0.4-0.4,0.7-0.6V9.2z"/>
<path class="st0" d="M13.7,11.5L13.7,11.5C13.7,11.6,13.6,11.6,13.7,11.5L13.7,11.5z"/>
<path class="st1" d="M6.1,6.8v1C5.8,8,5.6,8.2,5.4,8.5v-1C5.6,7.2,5.9,7,6.1,6.8z"/>
<path class="st1" d="M5.4,8.9c0.2-0.2,0.5-0.4,0.7-0.6v2.7c-0.2,0.2-0.5,0.4-0.7,0.6V8.9z"/>
<path class="st1" d="M6.1,12.4c-0.8,0.8-1.4,1.5-2.1,2.3c0.7-0.6,1.4-1.2,2.1-1.8v0.5c0,0,0,0.2,0,0.3c0,0.1,0,0.2,0,0.2
	c0,0.1,0,0.2,0,0.3c0,0.1,0,0.2-0.1,0.3c-0.1,0.3-0.2,0.6-0.4,0.9C5.3,15.8,4.7,16,3.8,16c-0.8,0-1.3-0.3-1.6-0.6
	c-0.3-0.4-0.5-0.8-0.5-1.3c0-0.4,0.1-0.8,0.4-1.2c0.3-0.4,0.8-0.7,1.5-0.7c0.4,0,0.7,0.1,1,0.2C4.3,12.7,4,13,3.7,13.3
	c0.3-0.3,0.6-0.5,1-0.8c0.2,0.1,0.3,0.2,0.5,0.3c0.1,0.1,0.2,0.1,0.3,0.2v-1.1c0.2-0.2,0.5-0.4,0.7-0.6V12.4z"/>
<path class="st1" d="M5.4,4.9c0.3-0.2,0.5-0.4,0.8-0.7C6.1,4.4,6.1,4.7,6.1,5.1v0.2C5.9,5.6,5.7,5.8,5.4,6.1V4.9z"/>
<path class="st1" d="M6,2.2C5.8,2.3,5.6,2.5,5.4,2.7V2.4c0-1.1,0-1.2,1.4-1.5l0.8-0.1C7,1.3,6.5,1.7,6,2.2z"/>
<path class="st1" d="M10,0.5C9,1.3,8,2.1,7,3c-0.5,0.5-1,0.9-1.6,1.4V3.3C6,2.7,6.7,2.1,7.3,1.5C7.6,1.3,7.9,1,8.2,0.8L10,0.5z"/>
<path class="st1" d="M11.7,0.3c-1.2,1-2.7,2.2-4.1,3.6l-0.2,0C6.9,3.9,6.5,4,6.3,4.1C7,3.6,7.7,3,8.3,2.4c0.7-0.6,1.4-1.3,2-1.9
	L11.7,0.3z"/>
<path class="st1" d="M14.3,1.2v0.6c-0.5,0.4-1.1,0.9-1.6,1.3c-0.1,0-0.3,0-0.4,0l-1.1,0.2c0.9-0.9,1.8-1.9,2.8-2.8
	c-1.1,0.9-2.3,1.9-3.4,2.9L9.5,3.6C11.1,2,12.3,0.9,13.2,0c0.2,0,0.4,0,0.6,0C14.3,0,14.3,0.3,14.3,1.2z"/>
<path class="st1" d="M14.3,2.2v1.4c-0.2,0.2-0.5,0.4-0.7,0.6V3.8c0-0.4,0-0.7-0.4-0.7C13.7,2.8,14,2.5,14.3,2.2z"/>
<path class="st1" d="M14.3,7L14.3,7c-0.1,0.1-0.1,0.1-0.2,0.2C14.2,7.1,14.3,7,14.3,7z"/>
<path class="st1" d="M14.3,9.2c-0.3,0.2-0.5,0.3-0.7,0.5V8.2c0.2-0.2,0.4-0.4,0.7-0.6V9.2z"/>
<path class="st2" d="M14.5,6.9C14.5,6.9,14.4,7,14.3,7v0C14.4,7,14.5,6.9,14.5,6.9z"/>
<path class="st2" d="M14.5,6.9C14.5,6.9,14.4,7,14.3,7v0C14.4,7,14.5,6.9,14.5,6.9z"/>
<path class="st2" d="M14.5,6.9C14.5,6.9,14.4,7,14.3,7v0C14.4,7,14.5,6.9,14.5,6.9z"/>
<path class="st2" d="M14.5,6.9C14.5,6.9,14.4,7,14.3,7v0C14.4,7,14.5,6.9,14.5,6.9z"/>
<path class="st2" d="M14.5,6.9C14.5,6.9,14.4,7,14.3,7v0C14.4,7,14.5,6.9,14.5,6.9z"/>
<path class="st2" d="M14.5,6.9C14.5,6.9,14.4,7,14.3,7v0C14.4,7,14.5,6.9,14.5,6.9z"/>
<path class="st2" d="M14.5,6.9C14.5,6.9,14.4,7,14.3,7v0C14.4,7,14.5,6.9,14.5,6.9z"/>
<path class="st2" d="M14.5,6.9C14.5,6.9,14.4,7,14.3,7v0C14.4,7,14.5,6.9,14.5,6.9z"/>
<path class="st2" d="M14.5,6.9C14.5,6.9,14.4,7,14.3,7v0C14.4,7,14.5,6.9,14.5,6.9z"/>
<path class="st2" d="M14.5,6.9C14.5,6.9,14.4,7,14.3,7v0C14.4,7,14.5,6.9,14.5,6.9z"/>
<path class="st2" d="M5.4,4.9c0.3-0.2,0.5-0.4,0.8-0.7C6.1,4.4,6.1,4.7,6.1,5.1v0.2C5.9,5.6,5.7,5.8,5.4,6.1V4.9z"/>
<path class="st2" d="M6.8,1l0.8-0.1C7,1.3,6.5,1.7,6,2.2C5.8,2.3,5.6,2.5,5.4,2.7V2.4C5.4,1.3,5.4,1.2,6.8,1z"/>
<path class="st2" d="M9,0C8.7,0.3,8.4,0.5,8.2,0.8L7.5,0.8c0.4-0.3,0.7-0.6,1-0.8H9z"/>
<path class="st2" d="M8.2,0.8L10,0.5C9,1.3,8,2.1,7,3c-0.5,0.5-1,0.9-1.6,1.4V3.3C6,2.7,6.7,2.1,7.3,1.5C7.6,1.3,7.9,1,8.2,0.8z"/>
<path class="st2" d="M11.7,0.3c-1.2,1-2.7,2.2-4.1,3.6l-0.2,0C6.9,3.9,6.5,4,6.3,4.1C7,3.6,7.7,3,8.3,2.4c0.7-0.6,1.4-1.3,2-1.9
	L11.7,0.3z"/>
<path class="st2" d="M5.4,8.5v0.4C4.7,9.6,3.9,10.3,3.2,11C3.9,10.2,4.6,9.3,5.4,8.5z"/>
<path class="st2" d="M6.1,7.7C5.8,8,5.6,8.2,5.4,8.5v-1C5.6,7.2,5.9,7,6.1,6.8V7.7z"/>
<path class="st2" d="M5.4,11.6V8.9c0.2-0.2,0.5-0.4,0.7-0.6v2.7C5.9,11.2,5.6,11.4,5.4,11.6z"/>
<path class="st2" d="M6.1,12.4c-0.8,0.8-1.4,1.5-2.1,2.3c0.7-0.6,1.4-1.2,2.1-1.8v0.5c0,0,0,0.2,0,0.3c0,0.1,0,0.2,0,0.2
	c0,0.1,0,0.2,0,0.3c0,0.1,0,0.2-0.1,0.3c-0.1,0.3-0.2,0.6-0.4,0.9C5.3,15.8,4.7,16,3.8,16c-0.8,0-1.3-0.3-1.6-0.6
	c-0.3-0.4-0.5-0.8-0.5-1.3c0-0.4,0.1-0.8,0.4-1.2c0.3-0.4,0.8-0.7,1.5-0.7c0.4,0,0.7,0.1,1,0.2C4.3,12.7,4,13,3.7,13.3
	c0.3-0.3,0.6-0.5,1-0.8c0.2,0.1,0.3,0.2,0.5,0.3c0.1,0.1,0.2,0.1,0.3,0.2v-1.1c0.2-0.2,0.5-0.4,0.7-0.6V12.4z"/>
<path class="st2" d="M14.3,3.8v1.6c-0.2,0.1-0.5,0.3-0.7,0.5V4.5L14.3,3.8z"/>
<path class="st2" d="M14.3,5.7V5.5C14.7,5.2,15,5,15.3,4.8C15,5.1,14.6,5.4,14.3,5.7z"/>
<path class="st2" d="M14.3,1.2v0.6c-0.5,0.4-1.1,0.9-1.6,1.3c-0.1,0-0.3,0-0.4,0l-1.1,0.2c0.9-0.9,1.8-1.9,2.8-2.8
	c-1.1,0.9-2.3,1.9-3.4,2.9L9.5,3.6C11.1,2,12.3,0.9,13.2,0c0.2,0,0.4,0,0.6,0C14.3,0,14.3,0.3,14.3,1.2z"/>
<path class="st2" d="M14.3,2.2v1.4c-0.2,0.2-0.5,0.4-0.7,0.6V3.8c0-0.4,0-0.7-0.4-0.7C13.7,2.8,14,2.5,14.3,2.2z"/>
<path class="st2" d="M14.3,7.5v1.6c-0.3,0.2-0.5,0.3-0.7,0.5V8.2C13.9,8,14.1,7.8,14.3,7.5z"/>
<path class="st2" d="M14.3,7c-0.1,0.1-0.2,0.1-0.2,0.2c-0.1,0.1-0.3,0.2-0.5,0.4V6.2c0.2-0.2,0.4-0.4,0.7-0.6V7z"/>
<path class="st2" d="M13.9,7.4C14,7.3,14,7.2,14.1,7.2c0.1,0,0.2-0.1,0.2-0.2v0c-0.2,0.2-0.5,0.5-0.7,0.7V7.6
	C13.7,7.5,13.8,7.5,13.9,7.4z"/>
<path class="st2" d="M14.3,7L14.3,7c-0.1,0.1-0.1,0.1-0.2,0.2C14.2,7.1,14.3,7,14.3,7z"/>
<path class="st2" d="M14.3,7L14.3,7c0.1-0.1,0.1-0.1,0.2-0.2C14.5,6.9,14.4,7,14.3,7z"/>
<path class="st2" d="M14.3,10.8V12c0,0,0,0.2,0,0.3c0,0.1,0,0.2,0,0.2c0,0.6-0.2,1.1-0.5,1.4c-0.3,0.5-0.9,0.7-1.8,0.7
	c-0.4,0-0.8-0.1-1-0.2c-0.2-0.1-0.4-0.3-0.6-0.4c-0.3-0.4-0.5-0.8-0.5-1.3c0-0.4,0.1-0.9,0.4-1.2c0.3-0.4,0.8-0.7,1.5-0.7
	c0.6,0,1.1,0.2,1.5,0.5c0.1,0.1,0.2,0.1,0.3,0.2c0,0,0,0,0,0v-0.9c0.2-0.1,0.4-0.3,0.7-0.5c0.5-0.4,0.9-0.8,1-0.8
	c0.1,0-0.2,0.4-0.3,0.5C14.8,10.3,14.5,10.6,14.3,10.8z"/>
<path class="st2" d="M9,0C8.7,0.3,8.4,0.5,8.2,0.8L7.5,0.8c0.4-0.3,0.7-0.6,1-0.8H9z"/>
<path class="st2" d="M5.4,8.5v0.4C4.7,9.6,3.9,10.3,3.2,11C3.9,10.2,4.6,9.3,5.4,8.5z"/>
<path class="st0" d="M6,14.2c0,0.1,0,0.2-0.1,0.3"/>
<path class="st2" d="M14.3,7L14.3,7c-0.1,0.1-0.1,0.1-0.2,0.2C14.2,7.1,14.3,7,14.3,7z"/>
<path class="st2" d="M14.3,7L14.3,7c0.1-0.1,0.1-0.1,0.2-0.2C14.5,6.9,14.4,7,14.3,7z"/>
<path class="st2" d="M14.5,6.9C14.5,6.9,14.4,7,14.3,7v0C14.4,7,14.5,6.9,14.5,6.9z"/>
<path class="st2" d="M14.5,6.9C14.5,6.9,14.4,7,14.3,7v0C14.4,7,14.5,6.9,14.5,6.9z"/>
<path class="st2" d="M14.5,6.9C14.5,6.9,14.4,7,14.3,7v0C14.4,7,14.5,6.9,14.5,6.9z"/>
<path class="st2" d="M14.5,6.9C14.5,6.9,14.4,7,14.3,7v0C14.4,7,14.5,6.9,14.5,6.9z"/>
<path class="st2" d="M14.5,6.9C14.5,6.9,14.4,7,14.3,7v0C14.4,7,14.5,6.9,14.5,6.9z"/>
<path class="st2" d="M14.5,6.9C14.5,6.9,14.4,7,14.3,7v0C14.4,7,14.5,6.9,14.5,6.9z"/>
<path class="st2" d="M14.5,6.9C14.5,6.9,14.4,7,14.3,7v0C14.4,7,14.5,6.9,14.5,6.9z"/>
<path class="st2" d="M14.5,6.9C14.5,6.9,14.4,7,14.3,7v0C14.4,7,14.5,6.9,14.5,6.9z"/>
<path class="st2" d="M14.5,6.9C14.5,6.9,14.4,7,14.3,7v0C14.4,7,14.5,6.9,14.5,6.9z"/>
</svg>
