<?xml version="1.0" encoding="utf-8"?>
<!-- Generator: Adobe Illustrator 23.0.0, SVG Export Plug-In . SVG Version: 6.00 Build 0)  -->
<svg version="1.1" id="Layer_1" xmlns="http://www.w3.org/2000/svg" xmlns:xlink="http://www.w3.org/1999/xlink" x="0px" y="0px"
	 viewBox="0 0 16 16" style="enable-background:new 0 0 16 16;" xml:space="preserve">
<style type="text/css">
	.st0{fill:#F75049;}
</style>
<g transform="translate(-552 -52)">
	<path class="st0" d="M563.5,59c-0.4,0.3-0.9,0.7-1.3,1h1.5c0.1-0.1,0.2-0.2,0.3-0.2V59H563.5z M563.5,59c-0.4,0.3-0.9,0.7-1.3,1
		h1.5c0.1-0.1,0.2-0.2,0.3-0.2V59H563.5z M563.5,59c-0.4,0.3-0.9,0.7-1.3,1h1.5c0.1-0.1,0.2-0.2,0.3-0.2V59H563.5z M563.5,59
		c-0.4,0.3-0.9,0.7-1.3,1h1.5c0.1-0.1,0.2-0.2,0.3-0.2V59H563.5z M563.5,59c-0.4,0.3-0.9,0.7-1.3,1h1.5c0.1-0.1,0.2-0.2,0.3-0.2V59
		H563.5z M563.5,59c-0.4,0.3-0.9,0.7-1.3,1h1.5c0.1-0.1,0.2-0.2,0.3-0.2V59H563.5z M563.5,59c-0.4,0.3-0.9,0.7-1.3,1h1.5
		c0.1-0.1,0.2-0.2,0.3-0.2V59H563.5z M563.5,59c-0.4,0.3-0.9,0.7-1.3,1h1.5c0.1-0.1,0.2-0.2,0.3-0.2V59H563.5z M563.5,59
		c-0.4,0.3-0.9,0.7-1.3,1h1.5c0.1-0.1,0.2-0.2,0.3-0.2V59H563.5z M563.5,59c-0.4,0.3-0.9,0.7-1.3,1h1.5c0.1-0.1,0.2-0.2,0.3-0.2V59
		H563.5z M563.5,59c-0.4,0.3-0.9,0.7-1.3,1h1.5c0.1-0.1,0.2-0.2,0.3-0.2V59H563.5z M563.5,59c-0.4,0.3-0.9,0.7-1.3,1h1.5
		c0.1-0.1,0.2-0.2,0.3-0.2V59H563.5z M563.5,59c-0.4,0.3-0.9,0.7-1.3,1h1.5c0.1-0.1,0.2-0.2,0.3-0.2V59H563.5z M563.5,59
		c-0.4,0.3-0.9,0.7-1.3,1h1.5c0.1-0.1,0.2-0.2,0.3-0.2V59H563.5z M563.5,59c-0.4,0.3-0.9,0.7-1.3,1h1.5c0.1-0.1,0.2-0.2,0.3-0.2V59
		H563.5z M563.5,59c-0.4,0.3-0.9,0.7-1.3,1h1.5c0.1-0.1,0.2-0.2,0.3-0.2V59H563.5z M563.5,59c-0.4,0.3-0.9,0.7-1.3,1h1.5
		c0.1-0.1,0.2-0.2,0.3-0.2V59H563.5z M563.5,59c-0.4,0.3-0.9,0.7-1.3,1h1.5c0.1-0.1,0.2-0.2,0.3-0.2V59H563.5z M563.5,59
		c-0.4,0.3-0.9,0.7-1.3,1h1.5c0.1-0.1,0.2-0.2,0.3-0.2V59H563.5z M563.5,59c-0.4,0.3-0.9,0.7-1.3,1h1.5c0.1-0.1,0.2-0.2,0.3-0.2V59
		H563.5z M563.5,59c-0.4,0.3-0.9,0.7-1.3,1h1.5c0.1-0.1,0.2-0.2,0.3-0.2V59H563.5z M558.8,61c-0.3,0.3-0.7,0.7-1,1h0.5
		c0.3-0.2,0.5-0.5,0.8-0.7V61H558.8z M556.4,61c-0.1,0.1-0.3,0.3-0.4,0.4V62h0.6c0.4-0.3,0.8-0.7,1.1-1H556.4z M560,59
		c-0.2,0.1-0.3,0.3-0.5,0.5c-0.2,0.2-0.4,0.4-0.6,0.5h0.9c0.4-0.3,0.7-0.7,1.1-1H560z M561.7,59c-0.4,0.3-0.8,0.7-1.1,1h1.1
		c0.4-0.3,0.8-0.7,1.2-1H561.7z M557.3,59l-1.3,1h1.4c0.4-0.4,0.7-0.7,1-1H557.3z M556,59v0.6c0.2-0.2,0.5-0.4,0.7-0.6H556z
		 M563.8,57c-0.4,0.3-0.7,0.7-1.1,1h1.3v-1H563.8z M559.8,57c-0.4,0.3-0.8,0.7-1.2,1h1c0.4-0.3,0.8-0.7,1.2-1H559.8z M562.3,57
		c-0.4,0.3-0.7,0.6-1.1,1h0.9l0.2-0.2c0.3-0.3,0.7-0.5,1-0.8H562.3z M556,57v0.9c0.4-0.3,0.7-0.6,1.1-0.9H556z M557.8,57
		c-0.4,0.3-0.8,0.7-1.2,1h1.4c0.3-0.3,0.6-0.5,1-0.8c0.1-0.1,0.2-0.1,0.3-0.2H557.8z M556,55v1h2.4c0.4-0.3,0.9-0.7,1.3-1H556z
		 M562.1,55c-0.4,0.3-0.7,0.7-1.1,1h1c0.5-0.3,0.9-0.7,1.3-1H562.1z M563.5,56h0.5v-0.5C563.8,55.7,563.7,55.8,563.5,56z M560.2,55
		c-0.3,0.3-0.6,0.5-0.9,0.8c-0.1,0.1-0.2,0.2-0.3,0.2h1.4c0.5-0.3,0.9-0.7,1.3-1H560.2z M562.5,63c-0.2,0.1-0.4,0.3-0.5,0.4v1.1
		c0,0,0.1,0,0.1-0.1c0.6-0.5,1.2-0.9,1.8-1.4H562.5z M560,59c-0.2,0.1-0.3,0.3-0.5,0.5c-0.2,0.2-0.4,0.4-0.6,0.5h0.9
		c0.4-0.3,0.7-0.7,1.1-1H560z M561.7,59c-0.4,0.3-0.8,0.7-1.1,1h1.1c0.4-0.3,0.8-0.7,1.2-1H561.7z M557.3,59l-1.3,1h1.4
		c0.4-0.4,0.7-0.7,1-1H557.3z M556,59v0.6c0.2-0.2,0.5-0.4,0.7-0.6H556z M556,55v1h2.4c0.4-0.3,0.9-0.7,1.3-1H556z M562.1,55
		c-0.4,0.3-0.7,0.7-1.1,1h1c0.5-0.3,0.9-0.7,1.3-1H562.1z M563.5,56h0.5v-0.5C563.8,55.7,563.7,55.8,563.5,56z M560.2,55
		c-0.3,0.3-0.6,0.5-0.9,0.8c-0.1,0.1-0.2,0.2-0.3,0.2h1.4c0.5-0.3,0.9-0.7,1.3-1H560.2z M563.8,57c-0.4,0.3-0.7,0.7-1.1,1h1.3v-1
		H563.8z M559.8,57c-0.4,0.3-0.8,0.7-1.2,1h1c0.4-0.3,0.8-0.7,1.2-1H559.8z M562.3,57c-0.4,0.3-0.7,0.6-1.1,1h0.9l0.2-0.2
		c0.3-0.3,0.7-0.5,1-0.8H562.3z M556,57v0.9c0.4-0.3,0.7-0.6,1.1-0.9H556z M557.8,57c-0.4,0.3-0.8,0.7-1.2,1h1.4
		c0.3-0.3,0.6-0.5,1-0.8c0.1-0.1,0.2-0.1,0.3-0.2H557.8z M558.8,61c-0.3,0.3-0.7,0.7-1,1h0.5c0.3-0.2,0.5-0.5,0.8-0.7V61H558.8z
		 M556.4,61c-0.1,0.1-0.3,0.3-0.4,0.4V62h0.6c0.4-0.3,0.8-0.7,1.1-1H556.4z M558.8,61c-0.3,0.3-0.7,0.7-1,1h0.5
		c0.3-0.2,0.5-0.5,0.8-0.7V61H558.8z M556.4,61c-0.1,0.1-0.3,0.3-0.4,0.4V62h0.6c0.4-0.3,0.8-0.7,1.1-1H556.4z M556,55v1h2.4
		c0.4-0.3,0.9-0.7,1.3-1H556z M562.1,55c-0.4,0.3-0.7,0.7-1.1,1h1c0.5-0.3,0.9-0.7,1.3-1H562.1z M563.5,56h0.5v-0.5
		C563.8,55.7,563.7,55.8,563.5,56z M560.2,55c-0.3,0.3-0.6,0.5-0.9,0.8c-0.1,0.1-0.2,0.2-0.3,0.2h1.4c0.5-0.3,0.9-0.7,1.3-1H560.2z
		 M560,59c-0.2,0.1-0.3,0.3-0.5,0.5c-0.2,0.2-0.4,0.4-0.6,0.5h0.9c0.4-0.3,0.7-0.7,1.1-1H560z M561.7,59c-0.4,0.3-0.8,0.7-1.1,1h1.1
		c0.4-0.3,0.8-0.7,1.2-1H561.7z M557.3,59l-1.3,1h1.4c0.4-0.4,0.7-0.7,1-1H557.3z M556,59v0.6c0.2-0.2,0.5-0.4,0.7-0.6H556z
		 M563.8,57c-0.4,0.3-0.7,0.7-1.1,1h1.3v-1H563.8z M559.8,57c-0.4,0.3-0.8,0.7-1.2,1h1c0.4-0.3,0.8-0.7,1.2-1H559.8z M562.3,57
		c-0.4,0.3-0.7,0.6-1.1,1h0.9l0.2-0.2c0.3-0.3,0.7-0.5,1-0.8H562.3z M556,57v0.9c0.4-0.3,0.7-0.6,1.1-0.9H556z M557.8,57
		c-0.4,0.3-0.8,0.7-1.2,1h1.4c0.3-0.3,0.6-0.5,1-0.8c0.1-0.1,0.2-0.1,0.3-0.2H557.8z M562.5,63c-0.2,0.1-0.4,0.3-0.5,0.4v1.1
		c0,0,0.1,0,0.1-0.1c0.6-0.5,1.2-0.9,1.8-1.4H562.5z M560,59c-0.2,0.1-0.3,0.3-0.5,0.5c-0.2,0.2-0.4,0.4-0.6,0.5h0.9
		c0.4-0.3,0.7-0.7,1.1-1H560z M561.7,59c-0.4,0.3-0.8,0.7-1.1,1h1.1c0.4-0.3,0.8-0.7,1.2-1H561.7z M557.3,59l-1.3,1h1.4
		c0.4-0.4,0.7-0.7,1-1H557.3z M556,59v0.6c0.2-0.2,0.5-0.4,0.7-0.6H556z M556,55v1h2.4c0.4-0.3,0.9-0.7,1.3-1H556z M562.1,55
		c-0.4,0.3-0.7,0.7-1.1,1h1c0.5-0.3,0.9-0.7,1.3-1H562.1z M563.5,56h0.5v-0.5C563.8,55.7,563.7,55.8,563.5,56z M560.2,55
		c-0.3,0.3-0.6,0.5-0.9,0.8c-0.1,0.1-0.2,0.2-0.3,0.2h1.4c0.5-0.3,0.9-0.7,1.3-1H560.2z M563.8,57c-0.4,0.3-0.7,0.7-1.1,1h1.3v-1
		H563.8z M559.8,57c-0.4,0.3-0.8,0.7-1.2,1h1c0.4-0.3,0.8-0.7,1.2-1H559.8z M562.3,57c-0.4,0.3-0.7,0.6-1.1,1h0.9l0.2-0.2
		c0.3-0.3,0.7-0.5,1-0.8H562.3z M556,57v0.9c0.4-0.3,0.7-0.6,1.1-0.9H556z M557.8,57c-0.4,0.3-0.8,0.7-1.2,1h1.4
		c0.3-0.3,0.6-0.5,1-0.8c0.1-0.1,0.2-0.1,0.3-0.2H557.8z M558.8,61c-0.3,0.3-0.7,0.7-1,1h0.5c0.3-0.2,0.5-0.5,0.8-0.7V61H558.8z
		 M556.4,61c-0.1,0.1-0.3,0.3-0.4,0.4V62h0.6c0.4-0.3,0.8-0.7,1.1-1H556.4z M558.8,61c-0.3,0.3-0.7,0.7-1,1h0.5
		c0.3-0.2,0.5-0.5,0.8-0.7V61H558.8z M556.4,61c-0.1,0.1-0.3,0.3-0.4,0.4V62h0.6c0.4-0.3,0.8-0.7,1.1-1H556.4z M556,55v1h2.4
		c0.4-0.3,0.9-0.7,1.3-1H556z M562.1,55c-0.4,0.3-0.7,0.7-1.1,1h1c0.5-0.3,0.9-0.7,1.3-1H562.1z M563.5,56h0.5v-0.5
		C563.8,55.7,563.7,55.8,563.5,56z M560.2,55c-0.3,0.3-0.6,0.5-0.9,0.8c-0.1,0.1-0.2,0.2-0.3,0.2h1.4c0.5-0.3,0.9-0.7,1.3-1H560.2z
		 M560,59c-0.2,0.1-0.3,0.3-0.5,0.5c-0.2,0.2-0.4,0.4-0.6,0.5h0.9c0.4-0.3,0.7-0.7,1.1-1H560z M561.7,59c-0.4,0.3-0.8,0.7-1.1,1h1.1
		c0.4-0.3,0.8-0.7,1.2-1H561.7z M557.3,59l-1.3,1h1.4c0.4-0.4,0.7-0.7,1-1H557.3z M556,59v0.6c0.2-0.2,0.5-0.4,0.7-0.6H556z
		 M563.8,57c-0.4,0.3-0.7,0.7-1.1,1h1.3v-1H563.8z M559.8,57c-0.4,0.3-0.8,0.7-1.2,1h1c0.4-0.3,0.8-0.7,1.2-1H559.8z M562.3,57
		c-0.4,0.3-0.7,0.6-1.1,1h0.9l0.2-0.2c0.3-0.3,0.7-0.5,1-0.8H562.3z M556,57v0.9c0.4-0.3,0.7-0.6,1.1-0.9H556z M557.8,57
		c-0.4,0.3-0.8,0.7-1.2,1h1.4c0.3-0.3,0.6-0.5,1-0.8c0.1-0.1,0.2-0.1,0.3-0.2H557.8z M562.5,63c-0.2,0.1-0.4,0.3-0.5,0.4v1.1
		c0,0,0.1,0,0.1-0.1c0.6-0.5,1.2-0.9,1.8-1.4H562.5z M560,59c-0.2,0.1-0.3,0.3-0.5,0.5c-0.2,0.2-0.4,0.4-0.6,0.5h0.9
		c0.4-0.3,0.7-0.7,1.1-1H560z M561.7,59c-0.4,0.3-0.8,0.7-1.1,1h1.1c0.4-0.3,0.8-0.7,1.2-1H561.7z M557.3,59l-1.3,1h1.4
		c0.4-0.4,0.7-0.7,1-1H557.3z M556,59v0.6c0.2-0.2,0.5-0.4,0.7-0.6H556z M556,55v1h2.4c0.4-0.3,0.9-0.7,1.3-1H556z M562.1,55
		c-0.4,0.3-0.7,0.7-1.1,1h1c0.5-0.3,0.9-0.7,1.3-1H562.1z M563.5,56h0.5v-0.5C563.8,55.7,563.7,55.8,563.5,56z M560.2,55
		c-0.3,0.3-0.6,0.5-0.9,0.8c-0.1,0.1-0.2,0.2-0.3,0.2h1.4c0.5-0.3,0.9-0.7,1.3-1H560.2z M563.8,57c-0.4,0.3-0.7,0.7-1.1,1h1.3v-1
		H563.8z M559.8,57c-0.4,0.3-0.8,0.7-1.2,1h1c0.4-0.3,0.8-0.7,1.2-1H559.8z M562.3,57c-0.4,0.3-0.7,0.6-1.1,1h0.9l0.2-0.2
		c0.3-0.3,0.7-0.5,1-0.8H562.3z M556,57v0.9c0.4-0.3,0.7-0.6,1.1-0.9H556z M557.8,57c-0.4,0.3-0.8,0.7-1.2,1h1.4
		c0.3-0.3,0.6-0.5,1-0.8c0.1-0.1,0.2-0.1,0.3-0.2H557.8z M558.8,61c-0.3,0.3-0.7,0.7-1,1h0.5c0.3-0.2,0.5-0.5,0.8-0.7V61H558.8z
		 M556.4,61c-0.1,0.1-0.3,0.3-0.4,0.4V62h0.6c0.4-0.3,0.8-0.7,1.1-1H556.4z M558.8,61c-0.3,0.3-0.7,0.7-1,1h0.5
		c0.3-0.2,0.5-0.5,0.8-0.7V61H558.8z M556.4,61c-0.1,0.1-0.3,0.3-0.4,0.4V62h0.6c0.4-0.3,0.8-0.7,1.1-1H556.4z M556,55v1h2.4
		c0.4-0.3,0.9-0.7,1.3-1H556z M562.1,55c-0.4,0.3-0.7,0.7-1.1,1h1c0.5-0.3,0.9-0.7,1.3-1H562.1z M563.5,56h0.5v-0.5
		C563.8,55.7,563.7,55.8,563.5,56z M560.2,55c-0.3,0.3-0.6,0.5-0.9,0.8c-0.1,0.1-0.2,0.2-0.3,0.2h1.4c0.5-0.3,0.9-0.7,1.3-1H560.2z
		 M560,59c-0.2,0.1-0.3,0.3-0.5,0.5c-0.2,0.2-0.4,0.4-0.6,0.5h0.9c0.4-0.3,0.7-0.7,1.1-1H560z M561.7,59c-0.4,0.3-0.8,0.7-1.1,1h1.1
		c0.4-0.3,0.8-0.7,1.2-1H561.7z M557.3,59l-1.3,1h1.4c0.4-0.4,0.7-0.7,1-1H557.3z M556,59v0.6c0.2-0.2,0.5-0.4,0.7-0.6H556z
		 M563.8,57c-0.4,0.3-0.7,0.7-1.1,1h1.3v-1H563.8z M559.8,57c-0.4,0.3-0.8,0.7-1.2,1h1c0.4-0.3,0.8-0.7,1.2-1H559.8z M562.3,57
		c-0.4,0.3-0.7,0.6-1.1,1h0.9l0.2-0.2c0.3-0.3,0.7-0.5,1-0.8H562.3z M556,57v0.9c0.4-0.3,0.7-0.6,1.1-0.9H556z M557.8,57
		c-0.4,0.3-0.8,0.7-1.2,1h1.4c0.3-0.3,0.6-0.5,1-0.8c0.1-0.1,0.2-0.1,0.3-0.2H557.8z M566,61.4L566,61.4C566,61.4,566,61.4,566,61.4
		c0.1-0.1,0.2-0.2,0.3-0.2C566.2,61.3,566.1,61.3,566,61.4z M563.8,57c-0.4,0.3-0.7,0.7-1.1,1h1.3v-1H563.8z M559.8,57
		c-0.4,0.3-0.8,0.7-1.2,1h1c0.4-0.3,0.8-0.7,1.2-1H559.8z M562.3,57c-0.4,0.3-0.7,0.6-1.1,1h0.9l0.2-0.2c0.3-0.3,0.7-0.5,1-0.8
		H562.3z M556,57v0.9c0.4-0.3,0.7-0.6,1.1-0.9H556z M557.8,57c-0.4,0.3-0.8,0.7-1.2,1h1.4c0.3-0.3,0.6-0.5,1-0.8
		c0.1-0.1,0.2-0.1,0.3-0.2H557.8z M560,59c-0.2,0.1-0.3,0.3-0.5,0.5c-0.2,0.2-0.4,0.4-0.6,0.5h0.9c0.4-0.3,0.7-0.7,1.1-1H560z
		 M561.7,59c-0.4,0.3-0.8,0.7-1.1,1h1.1c0.4-0.3,0.8-0.7,1.2-1H561.7z M557.3,59l-1.3,1h1.4c0.4-0.4,0.7-0.7,1-1H557.3z M556,59v0.6
		c0.2-0.2,0.5-0.4,0.7-0.6H556z M556,55v1h2.4c0.4-0.3,0.9-0.7,1.3-1H556z M562.1,55c-0.4,0.3-0.7,0.7-1.1,1h1
		c0.5-0.3,0.9-0.7,1.3-1H562.1z M563.5,56h0.5v-0.5C563.8,55.7,563.7,55.8,563.5,56z M560.2,55c-0.3,0.3-0.6,0.5-0.9,0.8
		c-0.1,0.1-0.2,0.2-0.3,0.2h1.4c0.5-0.3,0.9-0.7,1.3-1H560.2z M562.5,63c-0.2,0.1-0.4,0.3-0.5,0.4v1.1c0,0,0.1,0,0.1-0.1
		c0.6-0.5,1.2-0.9,1.8-1.4H562.5z M558.8,61c-0.3,0.3-0.7,0.7-1,1h0.5c0.3-0.2,0.5-0.5,0.8-0.7V61H558.8z M556.4,61
		c-0.1,0.1-0.3,0.3-0.4,0.4V62h0.6c0.4-0.3,0.8-0.7,1.1-1H556.4z M558.8,61c-0.3,0.3-0.7,0.7-1,1h0.5c0.3-0.2,0.5-0.5,0.8-0.7V61
		H558.8z M556.4,61c-0.1,0.1-0.3,0.3-0.4,0.4V62h0.6c0.4-0.3,0.8-0.7,1.1-1H556.4z M563.8,57c-0.4,0.3-0.7,0.7-1.1,1h1.3v-1H563.8z
		 M559.8,57c-0.4,0.3-0.8,0.7-1.2,1h1c0.4-0.3,0.8-0.7,1.2-1H559.8z M562.3,57c-0.4,0.3-0.7,0.6-1.1,1h0.9l0.2-0.2
		c0.3-0.3,0.7-0.5,1-0.8H562.3z M556,57v0.9c0.4-0.3,0.7-0.6,1.1-0.9H556z M557.8,57c-0.4,0.3-0.8,0.7-1.2,1h1.4
		c0.3-0.3,0.6-0.5,1-0.8c0.1-0.1,0.2-0.1,0.3-0.2H557.8z M556,55v1h2.4c0.4-0.3,0.9-0.7,1.3-1H556z M562.1,55
		c-0.4,0.3-0.7,0.7-1.1,1h1c0.5-0.3,0.9-0.7,1.3-1H562.1z M563.5,56h0.5v-0.5C563.8,55.7,563.7,55.8,563.5,56z M560.2,55
		c-0.3,0.3-0.6,0.5-0.9,0.8c-0.1,0.1-0.2,0.2-0.3,0.2h1.4c0.5-0.3,0.9-0.7,1.3-1H560.2z M562.5,63c-0.2,0.1-0.4,0.3-0.5,0.4v1.1
		c0,0,0.1,0,0.1-0.1c0.6-0.5,1.2-0.9,1.8-1.4H562.5z M560,59c-0.2,0.1-0.3,0.3-0.5,0.5c-0.2,0.2-0.4,0.4-0.6,0.5h0.9
		c0.4-0.3,0.7-0.7,1.1-1H560z M561.7,59c-0.4,0.3-0.8,0.7-1.1,1h1.1c0.4-0.3,0.8-0.7,1.2-1H561.7z M557.3,59l-1.3,1h1.4
		c0.4-0.4,0.7-0.7,1-1H557.3z M556,59v0.6c0.2-0.2,0.5-0.4,0.7-0.6H556z M564.1,63c-0.7,0.6-1.5,1.2-2.1,1.8V65
		c0.5-0.4,1-0.8,1.5-1.3c0.3-0.3,0.6-0.5,0.9-0.8H564.1z M566,61.4L566,61.4C566,61.4,566,61.4,566,61.4c0.1-0.1,0.2-0.2,0.3-0.2
		C566.2,61.3,566.1,61.3,566,61.4z M564.1,63c-0.7,0.6-1.5,1.2-2.1,1.8V65c0.5-0.4,1-0.8,1.5-1.3c0.3-0.3,0.6-0.5,0.9-0.8H564.1z
		 M560,59c-0.2,0.1-0.3,0.3-0.5,0.5c-0.2,0.2-0.4,0.4-0.6,0.5h0.9c0.4-0.3,0.7-0.7,1.1-1H560z M561.7,59c-0.4,0.3-0.8,0.7-1.1,1h1.1
		c0.4-0.3,0.8-0.7,1.2-1H561.7z M557.3,59l-1.3,1h1.4c0.4-0.4,0.7-0.7,1-1H557.3z M556,59v0.6c0.2-0.2,0.5-0.4,0.7-0.6H556z
		 M562.5,63c-0.2,0.1-0.4,0.3-0.5,0.4v1.1c0,0,0.1,0,0.1-0.1c0.6-0.5,1.2-0.9,1.8-1.4H562.5z M556,55v1h2.4c0.4-0.3,0.9-0.7,1.3-1
		H556z M562.1,55c-0.4,0.3-0.7,0.7-1.1,1h1c0.5-0.3,0.9-0.7,1.3-1H562.1z M563.5,56h0.5v-0.5C563.8,55.7,563.7,55.8,563.5,56z
		 M560.2,55c-0.3,0.3-0.6,0.5-0.9,0.8c-0.1,0.1-0.2,0.2-0.3,0.2h1.4c0.5-0.3,0.9-0.7,1.3-1H560.2z M563.8,57c-0.4,0.3-0.7,0.7-1.1,1
		h1.3v-1H563.8z M559.8,57c-0.4,0.3-0.8,0.7-1.2,1h1c0.4-0.3,0.8-0.7,1.2-1H559.8z M562.3,57c-0.4,0.3-0.7,0.6-1.1,1h0.9l0.2-0.2
		c0.3-0.3,0.7-0.5,1-0.8H562.3z M556,57v0.9c0.4-0.3,0.7-0.6,1.1-0.9H556z M557.8,57c-0.4,0.3-0.8,0.7-1.2,1h1.4
		c0.3-0.3,0.6-0.5,1-0.8c0.1-0.1,0.2-0.1,0.3-0.2H557.8z M558.8,61c-0.3,0.3-0.7,0.7-1,1h0.5c0.3-0.2,0.5-0.5,0.8-0.7V61H558.8z
		 M556.4,61c-0.1,0.1-0.3,0.3-0.4,0.4V62h0.6c0.4-0.3,0.8-0.7,1.1-1H556.4z M558.8,61c-0.3,0.3-0.7,0.7-1,1h0.5
		c0.3-0.2,0.5-0.5,0.8-0.7V61H558.8z M556.4,61c-0.1,0.1-0.3,0.3-0.4,0.4V62h0.6c0.4-0.3,0.8-0.7,1.1-1H556.4z M560,59
		c-0.2,0.1-0.3,0.3-0.5,0.5c-0.2,0.2-0.4,0.4-0.6,0.5h0.9c0.4-0.3,0.7-0.7,1.1-1H560z M561.7,59c-0.4,0.3-0.8,0.7-1.1,1h1.1
		c0.4-0.3,0.8-0.7,1.2-1H561.7z M557.3,59l-1.3,1h1.4c0.4-0.4,0.7-0.7,1-1H557.3z M556,59v0.6c0.2-0.2,0.5-0.4,0.7-0.6H556z
		 M563.8,57c-0.4,0.3-0.7,0.7-1.1,1h1.3v-1H563.8z M559.8,57c-0.4,0.3-0.8,0.7-1.2,1h1c0.4-0.3,0.8-0.7,1.2-1H559.8z M562.3,57
		c-0.4,0.3-0.7,0.6-1.1,1h0.9l0.2-0.2c0.3-0.3,0.7-0.5,1-0.8H562.3z M556,57v0.9c0.4-0.3,0.7-0.6,1.1-0.9H556z M557.8,57
		c-0.4,0.3-0.8,0.7-1.2,1h1.4c0.3-0.3,0.6-0.5,1-0.8c0.1-0.1,0.2-0.1,0.3-0.2H557.8z M556,55v1h2.4c0.4-0.3,0.9-0.7,1.3-1H556z
		 M562.1,55c-0.4,0.3-0.7,0.7-1.1,1h1c0.5-0.3,0.9-0.7,1.3-1H562.1z M563.5,56h0.5v-0.5C563.8,55.7,563.7,55.8,563.5,56z M560.2,55
		c-0.3,0.3-0.6,0.5-0.9,0.8c-0.1,0.1-0.2,0.2-0.3,0.2h1.4c0.5-0.3,0.9-0.7,1.3-1H560.2z M562.5,63c-0.2,0.1-0.4,0.3-0.5,0.4v1.1
		c0,0,0.1,0,0.1-0.1c0.6-0.5,1.2-0.9,1.8-1.4H562.5z M564.1,63c-0.7,0.6-1.5,1.2-2.1,1.8V65c0.5-0.4,1-0.8,1.5-1.3
		c0.3-0.3,0.6-0.5,0.9-0.8H564.1z M556,57v0.9c0.4-0.3,0.7-0.6,1.1-0.9H556z M554,67v-2.7c-0.3,0.3-0.7,0.6-1,0.9V68h3.2
		c0.3-0.3,0.6-0.7,1-1H554z M563.8,57c-0.4,0.3-0.7,0.7-1.1,1h1.3v-1H563.8z M562.3,57c-0.4,0.3-0.7,0.6-1.1,1h0.9l0.2-0.2
		c0.3-0.3,0.7-0.5,1-0.8H562.3z M556,55v1h2.4c0.4-0.3,0.9-0.7,1.3-1H556z M562.1,55c-0.4,0.3-0.7,0.7-1.1,1h1
		c0.5-0.3,0.9-0.7,1.3-1H562.1z M563.5,56h0.5v-0.5C563.8,55.7,563.7,55.8,563.5,56z M560.2,55c-0.3,0.3-0.6,0.5-0.9,0.8
		c-0.1,0.1-0.2,0.2-0.3,0.2h1.4c0.5-0.3,0.9-0.7,1.3-1H560.2z M556,57v0.9c0.4-0.3,0.7-0.6,1.1-0.9H556z M563.8,57
		c-0.4,0.3-0.7,0.7-1.1,1h1.3v-1H563.8z M562.3,57c-0.4,0.3-0.7,0.6-1.1,1h0.9l0.2-0.2c0.3-0.3,0.7-0.5,1-0.8H562.3z M556,55v1h2.4
		c0.4-0.3,0.9-0.7,1.3-1H556z M562.1,55c-0.4,0.3-0.7,0.7-1.1,1h1c0.5-0.3,0.9-0.7,1.3-1H562.1z M563.5,56h0.5v-0.5
		C563.8,55.7,563.7,55.8,563.5,56z M560.2,55c-0.3,0.3-0.6,0.5-0.9,0.8c-0.1,0.1-0.2,0.2-0.3,0.2h1.4c0.5-0.3,0.9-0.7,1.3-1H560.2z
		 M563.8,57c-0.4,0.3-0.7,0.7-1.1,1h1.3v-1H563.8z M562.3,57c-0.4,0.3-0.7,0.6-1.1,1h0.9l0.2-0.2c0.3-0.3,0.7-0.5,1-0.8H562.3z
		 M563.5,56h0.5v-0.5C563.8,55.7,563.7,55.8,563.5,56z M567,59.4c-0.3,0.3-0.7,0.5-1,0.8v1.4c0.3-0.2,0.5-0.5,0.7-0.7
		c-0.1,0.1-0.3,0.2-0.4,0.3c0.2-0.2,0.5-0.4,0.7-0.5V59.4z M566,56.9v1.3c0.3-0.3,0.7-0.5,1-0.8V56C566.7,56.3,566.3,56.6,566,56.9z
		 M566,53.8v2.7c0.3-0.3,0.7-0.5,1-0.8v-2.8C566.8,53.1,566.4,53.4,566,53.8z M556.3,52c-0.4,0.3-0.7,0.7-1.1,1h1.2
		c0.4-0.4,0.9-0.7,1.3-1H556.3z M558,52c-0.3,0.3-0.6,0.7-1,1h9v0.1c0.4-0.3,0.8-0.5,1-0.6V52H558z M553.5,52
		c-0.2,0.2-0.4,0.3-0.5,0.5v2.1c0.2-0.2,0.4-0.4,0.6-0.6c0.1-0.1,0.2-0.2,0.4-0.3V53h0.8c0.4-0.3,0.8-0.7,1.2-1H553.5z M553,56.8
		v3.8c0.3-0.3,0.7-0.6,1-0.9v-3.8C553.7,56.2,553.3,56.5,553,56.8z M554,59.9c-0.3,0.3-0.7,0.5-1,0.7v3.6c0.3-0.3,0.7-0.6,1-1v-1.9
		c-0.1,0.1-0.2,0.2-0.3,0.2c0.1-0.1,0.2-0.2,0.3-0.3V59.9z M553,55v1.3c0.3-0.4,0.6-0.7,1-1.1v-1.2C553.7,54.4,553.3,54.7,553,55z
		 M566,58.5v1.4l1-0.6v-1.7C566.7,57.9,566.3,58.2,566,58.5z M567,62.8v-1.7c-0.3,0.3-0.7,0.6-1,0.8v1h-1.3
		c-0.9,0.7-1.8,1.4-2.7,2.1V67h-2.5c-0.4,0.3-0.9,0.7-1.3,1h4.6l4.3-4.3v0c-0.5,0.4-1.3,1.1-1.5,0.9c-0.1-0.1-0.1-0.3-0.1-0.3
		C565.5,63.7,566.1,63.4,567,62.8z M563.5,56h0.5v-0.5C563.8,55.7,563.7,55.8,563.5,56z M563.8,57c-0.4,0.3-0.7,0.7-1.1,1h1.3v-1
		H563.8z M562.3,57c-0.4,0.3-0.7,0.6-1.1,1h0.9l0.2-0.2c0.3-0.3,0.7-0.5,1-0.8H562.3z M556,55v1h2.4c0.4-0.3,0.9-0.7,1.3-1H556z
		 M562.1,55c-0.4,0.3-0.7,0.7-1.1,1h1c0.5-0.3,0.9-0.7,1.3-1H562.1z M563.5,56h0.5v-0.5C563.8,55.7,563.7,55.8,563.5,56z M560.2,55
		c-0.3,0.3-0.6,0.5-0.9,0.8c-0.1,0.1-0.2,0.2-0.3,0.2h1.4c0.5-0.3,0.9-0.7,1.3-1H560.2z M563.8,57c-0.4,0.3-0.7,0.7-1.1,1h1.3v-1
		H563.8z M562.3,57c-0.4,0.3-0.7,0.6-1.1,1h0.9l0.2-0.2c0.3-0.3,0.7-0.5,1-0.8H562.3z M556,57v0.9c0.4-0.3,0.7-0.6,1.1-0.9H556z
		 M556,55v1h2.4c0.4-0.3,0.9-0.7,1.3-1H556z M562.1,55c-0.4,0.3-0.7,0.7-1.1,1h1c0.5-0.3,0.9-0.7,1.3-1H562.1z M563.5,56h0.5v-0.5
		C563.8,55.7,563.7,55.8,563.5,56z M560.2,55c-0.3,0.3-0.6,0.5-0.9,0.8c-0.1,0.1-0.2,0.2-0.3,0.2h1.4c0.5-0.3,0.9-0.7,1.3-1H560.2z
		 M563.8,57c-0.4,0.3-0.7,0.7-1.1,1h1.3v-1H563.8z M562.3,57c-0.4,0.3-0.7,0.6-1.1,1h0.9l0.2-0.2c0.3-0.3,0.7-0.5,1-0.8H562.3z
		 M556,57v0.9c0.4-0.3,0.7-0.6,1.1-0.9H556z M556,55v1h2.4c0.4-0.3,0.9-0.7,1.3-1H556z M562.1,55c-0.4,0.3-0.7,0.7-1.1,1h1
		c0.5-0.3,0.9-0.7,1.3-1H562.1z M563.5,56h0.5v-0.5C563.8,55.7,563.7,55.8,563.5,56z M560.2,55c-0.3,0.3-0.6,0.5-0.9,0.8
		c-0.1,0.1-0.2,0.2-0.3,0.2h1.4c0.5-0.3,0.9-0.7,1.3-1H560.2z M563.8,57c-0.4,0.3-0.7,0.7-1.1,1h1.3v-1H563.8z M562.3,57
		c-0.4,0.3-0.7,0.6-1.1,1h0.9l0.2-0.2c0.3-0.3,0.7-0.5,1-0.8H562.3z M557.6,67c-0.4,0.3-0.8,0.7-1.2,1h1.5c0.4-0.3,0.7-0.7,1.1-1
		H557.6z M556,57v0.9c0.4-0.3,0.7-0.6,1.1-0.9H556z M558.8,61c-0.3,0.3-0.7,0.7-1,1h0.5c0.3-0.2,0.5-0.5,0.8-0.7V61H558.8z
		 M556.4,61c-0.1,0.1-0.3,0.3-0.4,0.4V62h0.6c0.4-0.3,0.8-0.7,1.1-1H556.4z M563.8,57c-0.4,0.3-0.7,0.7-1.1,1h1.3v-1H563.8z
		 M559.8,57c-0.4,0.3-0.8,0.7-1.2,1h1c0.4-0.3,0.8-0.7,1.2-1H559.8z M562.3,57c-0.4,0.3-0.7,0.6-1.1,1h0.9l0.2-0.2
		c0.3-0.3,0.7-0.5,1-0.8H562.3z M556,57v0.9c0.4-0.3,0.7-0.6,1.1-0.9H556z M557.8,57c-0.4,0.3-0.8,0.7-1.2,1h1.4
		c0.3-0.3,0.6-0.5,1-0.8c0.1-0.1,0.2-0.1,0.3-0.2H557.8z M556,55v1h2.4c0.4-0.3,0.9-0.7,1.3-1H556z M562.1,55
		c-0.4,0.3-0.7,0.7-1.1,1h1c0.5-0.3,0.9-0.7,1.3-1H562.1z M563.5,56h0.5v-0.5C563.8,55.7,563.7,55.8,563.5,56z M560.2,55
		c-0.3,0.3-0.6,0.5-0.9,0.8c-0.1,0.1-0.2,0.2-0.3,0.2h1.4c0.5-0.3,0.9-0.7,1.3-1H560.2z M562.5,63c-0.2,0.1-0.4,0.3-0.5,0.4v1.1
		c0,0,0.1,0,0.1-0.1c0.6-0.5,1.2-0.9,1.8-1.4H562.5z M560,59c-0.2,0.1-0.3,0.3-0.5,0.5c-0.2,0.2-0.4,0.4-0.6,0.5h0.9
		c0.4-0.3,0.7-0.7,1.1-1H560z M561.7,59c-0.4,0.3-0.8,0.7-1.1,1h1.1c0.4-0.3,0.8-0.7,1.2-1H561.7z M557.3,59l-1.3,1h1.4
		c0.4-0.4,0.7-0.7,1-1H557.3z M556,59v0.6c0.2-0.2,0.5-0.4,0.7-0.6H556z M564.1,63c-0.7,0.6-1.5,1.2-2.1,1.8V65
		c0.5-0.4,1-0.8,1.5-1.3c0.3-0.3,0.6-0.5,0.9-0.8H564.1z M566,61.4L566,61.4C566,61.4,566,61.4,566,61.4c0.1-0.1,0.2-0.2,0.3-0.2
		C566.2,61.3,566.1,61.3,566,61.4z M564.1,63c-0.7,0.6-1.5,1.2-2.1,1.8V65c0.5-0.4,1-0.8,1.5-1.3c0.3-0.3,0.6-0.5,0.9-0.8H564.1z
		 M560,59c-0.2,0.1-0.3,0.3-0.5,0.5c-0.2,0.2-0.4,0.4-0.6,0.5h0.9c0.4-0.3,0.7-0.7,1.1-1H560z M561.7,59c-0.4,0.3-0.8,0.7-1.1,1h1.1
		c0.4-0.3,0.8-0.7,1.2-1H561.7z M557.3,59l-1.3,1h1.4c0.4-0.4,0.7-0.7,1-1H557.3z M556,59v0.6c0.2-0.2,0.5-0.4,0.7-0.6H556z
		 M562.5,63c-0.2,0.1-0.4,0.3-0.5,0.4v1.1c0,0,0.1,0,0.1-0.1c0.6-0.5,1.2-0.9,1.8-1.4H562.5z M556,55v1h2.4c0.4-0.3,0.9-0.7,1.3-1
		H556z M562.1,55c-0.4,0.3-0.7,0.7-1.1,1h1c0.5-0.3,0.9-0.7,1.3-1H562.1z M563.5,56h0.5v-0.5C563.8,55.7,563.7,55.8,563.5,56z
		 M560.2,55c-0.3,0.3-0.6,0.5-0.9,0.8c-0.1,0.1-0.2,0.2-0.3,0.2h1.4c0.5-0.3,0.9-0.7,1.3-1H560.2z M563.8,57c-0.4,0.3-0.7,0.7-1.1,1
		h1.3v-1H563.8z M559.8,57c-0.4,0.3-0.8,0.7-1.2,1h1c0.4-0.3,0.8-0.7,1.2-1H559.8z M562.3,57c-0.4,0.3-0.7,0.6-1.1,1h0.9l0.2-0.2
		c0.3-0.3,0.7-0.5,1-0.8H562.3z M556,57v0.9c0.4-0.3,0.7-0.6,1.1-0.9H556z M557.8,57c-0.4,0.3-0.8,0.7-1.2,1h1.4
		c0.3-0.3,0.6-0.5,1-0.8c0.1-0.1,0.2-0.1,0.3-0.2H557.8z M558.8,61c-0.3,0.3-0.7,0.7-1,1h0.5c0.3-0.2,0.5-0.5,0.8-0.7V61H558.8z
		 M556.4,61c-0.1,0.1-0.3,0.3-0.4,0.4V62h0.6c0.4-0.3,0.8-0.7,1.1-1H556.4z M558.8,61c-0.3,0.3-0.7,0.7-1,1h0.5
		c0.3-0.2,0.5-0.5,0.8-0.7V61H558.8z M556.4,61c-0.1,0.1-0.3,0.3-0.4,0.4V62h0.6c0.4-0.3,0.8-0.7,1.1-1H556.4z M562.5,63
		c-0.2,0.1-0.4,0.3-0.5,0.4v1.1c0,0,0.1,0,0.1-0.1c0.6-0.5,1.2-0.9,1.8-1.4H562.5z M556,55v1h2.4c0.4-0.3,0.9-0.7,1.3-1H556z
		 M562.1,55c-0.4,0.3-0.7,0.7-1.1,1h1c0.5-0.3,0.9-0.7,1.3-1H562.1z M563.5,56h0.5v-0.5C563.8,55.7,563.7,55.8,563.5,56z M560.2,55
		c-0.3,0.3-0.6,0.5-0.9,0.8c-0.1,0.1-0.2,0.2-0.3,0.2h1.4c0.5-0.3,0.9-0.7,1.3-1H560.2z M560,59c-0.2,0.1-0.3,0.3-0.5,0.5
		c-0.2,0.2-0.4,0.4-0.6,0.5h0.9c0.4-0.3,0.7-0.7,1.1-1H560z M561.7,59c-0.4,0.3-0.8,0.7-1.1,1h1.1c0.4-0.3,0.8-0.7,1.2-1H561.7z
		 M557.3,59l-1.3,1h1.4c0.4-0.4,0.7-0.7,1-1H557.3z M556,59v0.6c0.2-0.2,0.5-0.4,0.7-0.6H556z M563.8,57c-0.4,0.3-0.7,0.7-1.1,1h1.3
		v-1H563.8z M559.8,57c-0.4,0.3-0.8,0.7-1.2,1h1c0.4-0.3,0.8-0.7,1.2-1H559.8z M562.3,57c-0.4,0.3-0.7,0.6-1.1,1h0.9l0.2-0.2
		c0.3-0.3,0.7-0.5,1-0.8H562.3z M556,57v0.9c0.4-0.3,0.7-0.6,1.1-0.9H556z M557.8,57c-0.4,0.3-0.8,0.7-1.2,1h1.4
		c0.3-0.3,0.6-0.5,1-0.8c0.1-0.1,0.2-0.1,0.3-0.2H557.8z M566,61.4L566,61.4C566,61.4,566,61.4,566,61.4c0.1-0.1,0.2-0.2,0.3-0.2
		C566.2,61.3,566.1,61.3,566,61.4z M563.8,57c-0.4,0.3-0.7,0.7-1.1,1h1.3v-1H563.8z M559.8,57c-0.4,0.3-0.8,0.7-1.2,1h1
		c0.4-0.3,0.8-0.7,1.2-1H559.8z M562.3,57c-0.4,0.3-0.7,0.6-1.1,1h0.9l0.2-0.2c0.3-0.3,0.7-0.5,1-0.8H562.3z M556,57v0.9
		c0.4-0.3,0.7-0.6,1.1-0.9H556z M557.8,57c-0.4,0.3-0.8,0.7-1.2,1h1.4c0.3-0.3,0.6-0.5,1-0.8c0.1-0.1,0.2-0.1,0.3-0.2H557.8z
		 M560,59c-0.2,0.1-0.3,0.3-0.5,0.5c-0.2,0.2-0.4,0.4-0.6,0.5h0.9c0.4-0.3,0.7-0.7,1.1-1H560z M561.7,59c-0.4,0.3-0.8,0.7-1.1,1h1.1
		c0.4-0.3,0.8-0.7,1.2-1H561.7z M557.3,59l-1.3,1h1.4c0.4-0.4,0.7-0.7,1-1H557.3z M556,59v0.6c0.2-0.2,0.5-0.4,0.7-0.6H556z M556,55
		v1h2.4c0.4-0.3,0.9-0.7,1.3-1H556z M562.1,55c-0.4,0.3-0.7,0.7-1.1,1h1c0.5-0.3,0.9-0.7,1.3-1H562.1z M563.5,56h0.5v-0.5
		C563.8,55.7,563.7,55.8,563.5,56z M560.2,55c-0.3,0.3-0.6,0.5-0.9,0.8c-0.1,0.1-0.2,0.2-0.3,0.2h1.4c0.5-0.3,0.9-0.7,1.3-1H560.2z
		 M562.5,63c-0.2,0.1-0.4,0.3-0.5,0.4v1.1c0,0,0.1,0,0.1-0.1c0.6-0.5,1.2-0.9,1.8-1.4H562.5z M558.8,61c-0.3,0.3-0.7,0.7-1,1h0.5
		c0.3-0.2,0.5-0.5,0.8-0.7V61H558.8z M556.4,61c-0.1,0.1-0.3,0.3-0.4,0.4V62h0.6c0.4-0.3,0.8-0.7,1.1-1H556.4z M558.8,61
		c-0.3,0.3-0.7,0.7-1,1h0.5c0.3-0.2,0.5-0.5,0.8-0.7V61H558.8z M556.4,61c-0.1,0.1-0.3,0.3-0.4,0.4V62h0.6c0.4-0.3,0.8-0.7,1.1-1
		H556.4z M563.8,57c-0.4,0.3-0.7,0.7-1.1,1h1.3v-1H563.8z M559.8,57c-0.4,0.3-0.8,0.7-1.2,1h1c0.4-0.3,0.8-0.7,1.2-1H559.8z
		 M562.3,57c-0.4,0.3-0.7,0.6-1.1,1h0.9l0.2-0.2c0.3-0.3,0.7-0.5,1-0.8H562.3z M556,57v0.9c0.4-0.3,0.7-0.6,1.1-0.9H556z M557.8,57
		c-0.4,0.3-0.8,0.7-1.2,1h1.4c0.3-0.3,0.6-0.5,1-0.8c0.1-0.1,0.2-0.1,0.3-0.2H557.8z M556,55v1h2.4c0.4-0.3,0.9-0.7,1.3-1H556z
		 M562.1,55c-0.4,0.3-0.7,0.7-1.1,1h1c0.5-0.3,0.9-0.7,1.3-1H562.1z M563.5,56h0.5v-0.5C563.8,55.7,563.7,55.8,563.5,56z M560.2,55
		c-0.3,0.3-0.6,0.5-0.9,0.8c-0.1,0.1-0.2,0.2-0.3,0.2h1.4c0.5-0.3,0.9-0.7,1.3-1H560.2z M562.5,63c-0.2,0.1-0.4,0.3-0.5,0.4v1.1
		c0,0,0.1,0,0.1-0.1c0.6-0.5,1.2-0.9,1.8-1.4H562.5z M560,59c-0.2,0.1-0.3,0.3-0.5,0.5c-0.2,0.2-0.4,0.4-0.6,0.5h0.9
		c0.4-0.3,0.7-0.7,1.1-1H560z M561.7,59c-0.4,0.3-0.8,0.7-1.1,1h1.1c0.4-0.3,0.8-0.7,1.2-1H561.7z M557.3,59l-1.3,1h1.4
		c0.4-0.4,0.7-0.7,1-1H557.3z M556,59v0.6c0.2-0.2,0.5-0.4,0.7-0.6H556z M566,61.4L566,61.4C566,61.4,566,61.4,566,61.4
		c0.1-0.1,0.2-0.2,0.3-0.2C566.2,61.3,566.1,61.3,566,61.4z M563.8,57c-0.4,0.3-0.7,0.7-1.1,1h1.3v-1H563.8z M559.8,57
		c-0.4,0.3-0.8,0.7-1.2,1h1c0.4-0.3,0.8-0.7,1.2-1H559.8z M562.3,57c-0.4,0.3-0.7,0.6-1.1,1h0.9l0.2-0.2c0.3-0.3,0.7-0.5,1-0.8
		H562.3z M556,57v0.9c0.4-0.3,0.7-0.6,1.1-0.9H556z M557.8,57c-0.4,0.3-0.8,0.7-1.2,1h1.4c0.3-0.3,0.6-0.5,1-0.8
		c0.1-0.1,0.2-0.1,0.3-0.2H557.8z M560,59c-0.2,0.1-0.3,0.3-0.5,0.5c-0.2,0.2-0.4,0.4-0.6,0.5h0.9c0.4-0.3,0.7-0.7,1.1-1H560z
		 M561.7,59c-0.4,0.3-0.8,0.7-1.1,1h1.1c0.4-0.3,0.8-0.7,1.2-1H561.7z M557.3,59l-1.3,1h1.4c0.4-0.4,0.7-0.7,1-1H557.3z M556,59v0.6
		c0.2-0.2,0.5-0.4,0.7-0.6H556z M556,55v1h2.4c0.4-0.3,0.9-0.7,1.3-1H556z M562.1,55c-0.4,0.3-0.7,0.7-1.1,1h1
		c0.5-0.3,0.9-0.7,1.3-1H562.1z M563.5,56h0.5v-0.5C563.8,55.7,563.7,55.8,563.5,56z M560.2,55c-0.3,0.3-0.6,0.5-0.9,0.8
		c-0.1,0.1-0.2,0.2-0.3,0.2h1.4c0.5-0.3,0.9-0.7,1.3-1H560.2z M558.8,61c-0.3,0.3-0.7,0.7-1,1h0.5c0.3-0.2,0.5-0.5,0.8-0.7V61H558.8
		z M556.4,61c-0.1,0.1-0.3,0.3-0.4,0.4V62h0.6c0.4-0.3,0.8-0.7,1.1-1H556.4z M558.8,61c-0.3,0.3-0.7,0.7-1,1h0.5
		c0.3-0.2,0.5-0.5,0.8-0.7V61H558.8z M556.4,61c-0.1,0.1-0.3,0.3-0.4,0.4V62h0.6c0.4-0.3,0.8-0.7,1.1-1H556.4z M563.8,57
		c-0.4,0.3-0.7,0.7-1.1,1h1.3v-1H563.8z M559.8,57c-0.4,0.3-0.8,0.7-1.2,1h1c0.4-0.3,0.8-0.7,1.2-1H559.8z M562.3,57
		c-0.4,0.3-0.7,0.6-1.1,1h0.9l0.2-0.2c0.3-0.3,0.7-0.5,1-0.8H562.3z M556,57v0.9c0.4-0.3,0.7-0.6,1.1-0.9H556z M557.8,57
		c-0.4,0.3-0.8,0.7-1.2,1h1.4c0.3-0.3,0.6-0.5,1-0.8c0.1-0.1,0.2-0.1,0.3-0.2H557.8z M556,55v1h2.4c0.4-0.3,0.9-0.7,1.3-1H556z
		 M562.1,55c-0.4,0.3-0.7,0.7-1.1,1h1c0.5-0.3,0.9-0.7,1.3-1H562.1z M563.5,56h0.5v-0.5C563.8,55.7,563.7,55.8,563.5,56z M560.2,55
		c-0.3,0.3-0.6,0.5-0.9,0.8c-0.1,0.1-0.2,0.2-0.3,0.2h1.4c0.5-0.3,0.9-0.7,1.3-1H560.2z M560,59c-0.2,0.1-0.3,0.3-0.5,0.5
		c-0.2,0.2-0.4,0.4-0.6,0.5h0.9c0.4-0.3,0.7-0.7,1.1-1H560z M561.7,59c-0.4,0.3-0.8,0.7-1.1,1h1.1c0.4-0.3,0.8-0.7,1.2-1H561.7z
		 M557.3,59l-1.3,1h1.4c0.4-0.4,0.7-0.7,1-1H557.3z M556,59v0.6c0.2-0.2,0.5-0.4,0.7-0.6H556z M562.5,63c-0.2,0.1-0.4,0.3-0.5,0.4
		v1.1c0,0,0.1,0,0.1-0.1c0.6-0.5,1.2-0.9,1.8-1.4H562.5z M563.8,57c-0.4,0.3-0.7,0.7-1.1,1h1.3v-1H563.8z M559.8,57
		c-0.4,0.3-0.8,0.7-1.2,1h1c0.4-0.3,0.8-0.7,1.2-1H559.8z M562.3,57c-0.4,0.3-0.7,0.6-1.1,1h0.9l0.2-0.2c0.3-0.3,0.7-0.5,1-0.8
		H562.3z M556,57v0.9c0.4-0.3,0.7-0.6,1.1-0.9H556z M557.8,57c-0.4,0.3-0.8,0.7-1.2,1h1.4c0.3-0.3,0.6-0.5,1-0.8
		c0.1-0.1,0.2-0.1,0.3-0.2H557.8z M560,59c-0.2,0.1-0.3,0.3-0.5,0.5c-0.2,0.2-0.4,0.4-0.6,0.5h0.9c0.4-0.3,0.7-0.7,1.1-1H560z
		 M561.7,59c-0.4,0.3-0.8,0.7-1.1,1h1.1c0.4-0.3,0.8-0.7,1.2-1H561.7z M557.3,59l-1.3,1h1.4c0.4-0.4,0.7-0.7,1-1H557.3z M556,59v0.6
		c0.2-0.2,0.5-0.4,0.7-0.6H556z M556,55v1h2.4c0.4-0.3,0.9-0.7,1.3-1H556z M562.1,55c-0.4,0.3-0.7,0.7-1.1,1h1
		c0.5-0.3,0.9-0.7,1.3-1H562.1z M563.5,56h0.5v-0.5C563.8,55.7,563.7,55.8,563.5,56z M560.2,55c-0.3,0.3-0.6,0.5-0.9,0.8
		c-0.1,0.1-0.2,0.2-0.3,0.2h1.4c0.5-0.3,0.9-0.7,1.3-1H560.2z M558.8,61c-0.3,0.3-0.7,0.7-1,1h0.5c0.3-0.2,0.5-0.5,0.8-0.7V61H558.8
		z M556.4,61c-0.1,0.1-0.3,0.3-0.4,0.4V62h0.6c0.4-0.3,0.8-0.7,1.1-1H556.4z M558.8,61c-0.3,0.3-0.7,0.7-1,1h0.5
		c0.3-0.2,0.5-0.5,0.8-0.7V61H558.8z M556.4,61c-0.1,0.1-0.3,0.3-0.4,0.4V62h0.6c0.4-0.3,0.8-0.7,1.1-1H556.4z M563.8,57
		c-0.4,0.3-0.7,0.7-1.1,1h1.3v-1H563.8z M559.8,57c-0.4,0.3-0.8,0.7-1.2,1h1c0.4-0.3,0.8-0.7,1.2-1H559.8z M562.3,57
		c-0.4,0.3-0.7,0.6-1.1,1h0.9l0.2-0.2c0.3-0.3,0.7-0.5,1-0.8H562.3z M556,57v0.9c0.4-0.3,0.7-0.6,1.1-0.9H556z M557.8,57
		c-0.4,0.3-0.8,0.7-1.2,1h1.4c0.3-0.3,0.6-0.5,1-0.8c0.1-0.1,0.2-0.1,0.3-0.2H557.8z M556,55v1h2.4c0.4-0.3,0.9-0.7,1.3-1H556z
		 M562.1,55c-0.4,0.3-0.7,0.7-1.1,1h1c0.5-0.3,0.9-0.7,1.3-1H562.1z M563.5,56h0.5v-0.5C563.8,55.7,563.7,55.8,563.5,56z M560.2,55
		c-0.3,0.3-0.6,0.5-0.9,0.8c-0.1,0.1-0.2,0.2-0.3,0.2h1.4c0.5-0.3,0.9-0.7,1.3-1H560.2z M560,59c-0.2,0.1-0.3,0.3-0.5,0.5
		c-0.2,0.2-0.4,0.4-0.6,0.5h0.9c0.4-0.3,0.7-0.7,1.1-1H560z M561.7,59c-0.4,0.3-0.8,0.7-1.1,1h1.1c0.4-0.3,0.8-0.7,1.2-1H561.7z
		 M557.3,59l-1.3,1h1.4c0.4-0.4,0.7-0.7,1-1H557.3z M556,59v0.6c0.2-0.2,0.5-0.4,0.7-0.6H556z M562.5,63c-0.2,0.1-0.4,0.3-0.5,0.4
		v1.1c0,0,0.1,0,0.1-0.1c0.6-0.5,1.2-0.9,1.8-1.4H562.5z M563.8,57c-0.4,0.3-0.7,0.7-1.1,1h1.3v-1H563.8z M559.8,57
		c-0.4,0.3-0.8,0.7-1.2,1h1c0.4-0.3,0.8-0.7,1.2-1H559.8z M562.3,57c-0.4,0.3-0.7,0.6-1.1,1h0.9l0.2-0.2c0.3-0.3,0.7-0.5,1-0.8
		H562.3z M556,57v0.9c0.4-0.3,0.7-0.6,1.1-0.9H556z M557.8,57c-0.4,0.3-0.8,0.7-1.2,1h1.4c0.3-0.3,0.6-0.5,1-0.8
		c0.1-0.1,0.2-0.1,0.3-0.2H557.8z M560,59c-0.2,0.1-0.3,0.3-0.5,0.5c-0.2,0.2-0.4,0.4-0.6,0.5h0.9c0.4-0.3,0.7-0.7,1.1-1H560z
		 M561.7,59c-0.4,0.3-0.8,0.7-1.1,1h1.1c0.4-0.3,0.8-0.7,1.2-1H561.7z M557.3,59l-1.3,1h1.4c0.4-0.4,0.7-0.7,1-1H557.3z M556,59v0.6
		c0.2-0.2,0.5-0.4,0.7-0.6H556z M556,55v1h2.4c0.4-0.3,0.9-0.7,1.3-1H556z M562.1,55c-0.4,0.3-0.7,0.7-1.1,1h1
		c0.5-0.3,0.9-0.7,1.3-1H562.1z M563.5,56h0.5v-0.5C563.8,55.7,563.7,55.8,563.5,56z M560.2,55c-0.3,0.3-0.6,0.5-0.9,0.8
		c-0.1,0.1-0.2,0.2-0.3,0.2h1.4c0.5-0.3,0.9-0.7,1.3-1H560.2z M558.8,61c-0.3,0.3-0.7,0.7-1,1h0.5c0.3-0.2,0.5-0.5,0.8-0.7V61H558.8
		z M556.4,61c-0.1,0.1-0.3,0.3-0.4,0.4V62h0.6c0.4-0.3,0.8-0.7,1.1-1H556.4z"/>
</g>
<path class="st0" d="M5.3,7L4,8h1.4c0.4-0.4,0.7-0.7,1-1H5.3z M14.3,9.2c-0.1,0.1-0.2,0.1-0.3,0.2c0,0,0,0,0,0v0.1
	c0.3-0.2,0.5-0.5,0.7-0.7C14.6,9,14.5,9.1,14.3,9.2z M12.1,11c-0.7,0.6-1.5,1.2-2.1,1.8V13c0.5-0.4,1-0.8,1.5-1.3
	c0.3-0.3,0.6-0.5,0.9-0.8H12.1z M14.3,9.2c-0.1,0.1-0.2,0.1-0.3,0.2c0,0,0,0,0,0v0.1c0.3-0.2,0.5-0.5,0.7-0.7
	C14.6,9,14.5,9.1,14.3,9.2z M12.1,11c-0.7,0.6-1.5,1.2-2.1,1.8V13c0.5-0.4,1-0.8,1.5-1.3c0.3-0.3,0.6-0.5,0.9-0.8H12.1z M14.3,9.2
	c-0.1,0.1-0.2,0.1-0.3,0.2c0,0,0,0,0,0v0.1c0.3-0.2,0.5-0.5,0.7-0.7C14.6,9,14.5,9.1,14.3,9.2z M12.1,11c-0.7,0.6-1.5,1.2-2.1,1.8
	V13c0.5-0.4,1-0.8,1.5-1.3c0.3-0.3,0.6-0.5,0.9-0.8H12.1z M14.3,9.2c-0.1,0.1-0.2,0.1-0.3,0.2c0,0,0,0,0,0v0.1
	c0.3-0.2,0.5-0.5,0.7-0.7C14.6,9,14.5,9.1,14.3,9.2z M12.1,11c-0.7,0.6-1.5,1.2-2.1,1.8V13c0.5-0.4,1-0.8,1.5-1.3
	c0.3-0.3,0.6-0.5,0.9-0.8H12.1z M14.3,9.2c-0.1,0.1-0.2,0.1-0.3,0.2c0,0,0,0,0,0v0.1c0.3-0.2,0.5-0.5,0.7-0.7
	C14.6,9,14.5,9.1,14.3,9.2z M12.1,11c-0.7,0.6-1.5,1.2-2.1,1.8V13c0.5-0.4,1-0.8,1.5-1.3c0.3-0.3,0.6-0.5,0.9-0.8H12.1z M14.3,9.2
	c-0.1,0.1-0.2,0.1-0.3,0.2c0,0,0,0,0,0v0.1c0.3-0.2,0.5-0.5,0.7-0.7C14.6,9,14.5,9.1,14.3,9.2z M12.1,11c-0.7,0.6-1.5,1.2-2.1,1.8
	V13c0.5-0.4,1-0.8,1.5-1.3c0.3-0.3,0.6-0.5,0.9-0.8H12.1z M14.3,9.2c-0.1,0.1-0.2,0.1-0.3,0.2c0,0,0,0,0,0v0.1
	c0.3-0.2,0.5-0.5,0.7-0.7C14.6,9,14.5,9.1,14.3,9.2z M12.1,11c-0.7,0.6-1.5,1.2-2.1,1.8V13c0.5-0.4,1-0.8,1.5-1.3
	c0.3-0.3,0.6-0.5,0.9-0.8H12.1z M14.3,9.2c-0.1,0.1-0.2,0.1-0.3,0.2c0,0,0,0,0,0v0.1c0.3-0.2,0.5-0.5,0.7-0.7
	C14.6,9,14.5,9.1,14.3,9.2z M12.1,11c-0.7,0.6-1.5,1.2-2.1,1.8V13c0.5-0.4,1-0.8,1.5-1.3c0.3-0.3,0.6-0.5,0.9-0.8H12.1z M14.3,9.2
	c-0.1,0.1-0.2,0.1-0.3,0.2c0,0,0,0,0,0v0.1c0.3-0.2,0.5-0.5,0.7-0.7C14.6,9,14.5,9.1,14.3,9.2z M12.1,11c-0.7,0.6-1.5,1.2-2.1,1.8
	V13c0.5-0.4,1-0.8,1.5-1.3c0.3-0.3,0.6-0.5,0.9-0.8H12.1z M14.3,9.2c-0.1,0.1-0.2,0.1-0.3,0.2c0,0,0,0,0,0v0.1
	c0.3-0.2,0.5-0.5,0.7-0.7C14.6,9,14.5,9.1,14.3,9.2z M12.1,11c-0.7,0.6-1.5,1.2-2.1,1.8V13c0.5-0.4,1-0.8,1.5-1.3
	c0.3-0.3,0.6-0.5,0.9-0.8H12.1z M8,7C7.9,7.1,7.7,7.3,7.5,7.5C7.3,7.6,7.1,7.8,6.9,8h0.9C8.2,7.7,8.6,7.3,9,7H8z M1.5,0
	C1.3,0.2,1.1,0.3,1,0.5v2.1C1.2,2.4,1.4,2.2,1.6,2C1.8,1.9,1.9,1.8,2,1.7V1h0.8C3.2,0.7,3.6,0.3,4,0H1.5z M4.3,0
	C3.9,0.3,3.5,0.7,3.2,1h1.2c0.4-0.4,0.9-0.7,1.3-1H4.3z M1,3v1.3C1.3,4,1.6,3.6,2,3.2V2.1C1.7,2.4,1.3,2.7,1,3z M6,0
	C5.7,0.3,5.3,0.7,5,1h5.4c0,0,0.1-0.1,0.1-0.1c0,0-0.1,0.1-0.1,0.1H14v0.1c0.4-0.3,0.8-0.5,1-0.6V0H6z M10.1,3C9.8,3.3,9.4,3.7,9,4
	h1c0.5-0.3,0.9-0.7,1.3-1H10.1z M7.8,5C7.4,5.3,7,5.7,6.6,6h1c0.4-0.3,0.8-0.7,1.2-1H7.8z M8.2,3C7.9,3.3,7.6,3.5,7.3,3.8
	C7.2,3.8,7.1,3.9,7,4h1.4c0.5-0.3,0.9-0.7,1.3-1H8.2z M5.8,5C5.4,5.3,5,5.7,4.6,6h1.4c0.3-0.3,0.6-0.5,1-0.8C7,5.1,7.1,5.1,7.2,5
	H5.8z M4,3v1h2.4c0.4-0.3,0.9-0.7,1.3-1H4z M4,5v0.9C4.4,5.6,4.7,5.3,5.1,5H4z M4,7v0.6C4.2,7.4,4.5,7.2,4.7,7H4z M2,7.9
	C1.7,8.2,1.3,8.4,1,8.7v3.6c0.3-0.3,0.7-0.6,1-1V9.5C1.9,9.6,1.8,9.6,1.7,9.7C1.8,9.6,1.9,9.5,2,9.4V7.9z M1,4.8v3.8
	C1.3,8.3,1.7,8,2,7.7V3.9C1.7,4.2,1.3,4.5,1,4.8z M14.3,9.2c-0.1,0.1-0.2,0.1-0.3,0.2c0,0,0,0,0,0v0.1c0.3-0.2,0.5-0.5,0.7-0.7
	C14.6,9,14.5,9.1,14.3,9.2z M12.1,11c-0.7,0.6-1.5,1.2-2.1,1.8V13c0.5-0.4,1-0.8,1.5-1.3c0.3-0.3,0.6-0.5,0.9-0.8H12.1z M8,7
	C7.9,7.1,7.7,7.3,7.5,7.5C7.3,7.6,7.1,7.8,6.9,8h0.9C8.2,7.7,8.6,7.3,9,7H8z M12.1,11c-0.7,0.6-1.5,1.2-2.1,1.8V13
	c0.5-0.4,1-0.8,1.5-1.3c0.3-0.3,0.6-0.5,0.9-0.8H12.1z M12.1,11c-0.7,0.6-1.5,1.2-2.1,1.8V13c0.5-0.4,1-0.8,1.5-1.3
	c0.3-0.3,0.6-0.5,0.9-0.8H12.1z M12.1,11c-0.7,0.6-1.5,1.2-2.1,1.8V13c0.5-0.4,1-0.8,1.5-1.3c0.3-0.3,0.6-0.5,0.9-0.8H12.1z
	 M15,10.8V9.2c-0.3,0.3-0.7,0.6-1,0.8v1h-1.3c-0.9,0.7-1.8,1.4-2.7,2.1V15H7.5c-0.4,0.3-0.9,0.7-1.3,1h4.6l4.3-4.3v0
	c-0.5,0.4-1.3,1.1-1.5,0.9c-0.1-0.1-0.1-0.3-0.1-0.3C13.5,11.7,14.1,11.4,15,10.8z M12.1,11c-0.7,0.6-1.5,1.2-2.1,1.8V13
	c0.5-0.4,1-0.8,1.5-1.3c0.3-0.3,0.6-0.5,0.9-0.8H12.1z M12.1,11c-0.7,0.6-1.5,1.2-2.1,1.8V13c0.5-0.4,1-0.8,1.5-1.3
	c0.3-0.3,0.6-0.5,0.9-0.8H12.1z M14,8.2v1.3c0.1-0.1,0.2-0.2,0.3-0.2C14.5,9,14.8,8.8,15,8.7V7.4C14.7,7.6,14.3,7.9,14,8.2z
	 M10.5,11c-0.2,0.1-0.4,0.3-0.5,0.4v1.1c0,0,0.1,0,0.1-0.1c0.6-0.5,1.2-0.9,1.8-1.4H10.5z M5.6,15c-0.4,0.3-0.8,0.7-1.2,1h1.5
	c0.4-0.3,0.7-0.7,1.1-1H5.6z M12.1,11c-0.7,0.6-1.5,1.2-2.1,1.8V13c0.5-0.4,1-0.8,1.5-1.3c0.3-0.3,0.6-0.5,0.9-0.8H12.1z M7.8,5
	C7.4,5.3,7,5.7,6.6,6h1c0.4-0.3,0.8-0.7,1.2-1H7.8z M8,7C7.9,7.1,7.7,7.3,7.5,7.5C7.3,7.6,7.1,7.8,6.9,8h0.9C8.2,7.7,8.6,7.3,9,7H8z
	 M14,1.8v1.2c0,0,0.1,0,0.1-0.1c0,0-0.1,0.1-0.1,0.1v1.5c0.3-0.3,0.7-0.5,1-0.8V0.8C14.8,1.1,14.4,1.4,14,1.8z M11.8,5
	c-0.4,0.3-0.7,0.7-1.1,1H12V5H11.8z M11.5,4H12V3.5C11.8,3.7,11.7,3.8,11.5,4z M9.7,7C9.3,7.3,8.9,7.7,8.5,8h1.1
	c0.4-0.3,0.8-0.7,1.2-1H9.7z M8,7C7.9,7.1,7.7,7.3,7.5,7.5C7.3,7.6,7.1,7.8,6.9,8h0.9C8.2,7.7,8.6,7.3,9,7H8z M10.3,5
	C10,5.3,9.6,5.6,9.2,6h0.9l0.2-0.2c0.3-0.3,0.7-0.5,1-0.8H10.3z M14,4.9v1.3c0.3-0.3,0.7-0.5,1-0.8V4C14.7,4.3,14.3,4.6,14,4.9z
	 M11.5,7c-0.4,0.3-0.9,0.7-1.3,1h1.5c0.1-0.1,0.2-0.2,0.3-0.2V7H11.5z M7.8,5C7.4,5.3,7,5.7,6.6,6h1c0.4-0.3,0.8-0.7,1.2-1H7.8z
	 M2,15v-2.7c-0.3,0.3-0.7,0.6-1,0.9V16h3.2c0.3-0.3,0.6-0.7,1-1H2z M8,7C7.9,7.1,7.7,7.3,7.5,7.5C7.3,7.6,7.1,7.8,6.9,8h0.9
	C8.2,7.7,8.6,7.3,9,7H8z M7.8,5C7.4,5.3,7,5.7,6.6,6h1c0.4-0.3,0.8-0.7,1.2-1H7.8z M8,7C7.9,7.1,7.7,7.3,7.5,7.5
	C7.3,7.6,7.1,7.8,6.9,8h0.9C8.2,7.7,8.6,7.3,9,7H8z M14.3,9.2c-0.1,0.1-0.2,0.1-0.3,0.2c0,0,0,0,0,0v0.1c0.3-0.2,0.5-0.5,0.7-0.7
	C14.6,9,14.5,9.1,14.3,9.2z M12.1,11c-0.7,0.6-1.5,1.2-2.1,1.8V13c0.5-0.4,1-0.8,1.5-1.3c0.3-0.3,0.6-0.5,0.9-0.8H12.1z M14.3,9.2
	c-0.1,0.1-0.2,0.1-0.3,0.2c0,0,0,0,0,0v0.1c0.3-0.2,0.5-0.5,0.7-0.7C14.6,9,14.5,9.1,14.3,9.2z M12.1,11c-0.7,0.6-1.5,1.2-2.1,1.8
	V13c0.5-0.4,1-0.8,1.5-1.3c0.3-0.3,0.6-0.5,0.9-0.8H12.1z M14.3,9.2c-0.1,0.1-0.2,0.1-0.3,0.2c0,0,0,0,0,0v0.1
	c0.3-0.2,0.5-0.5,0.7-0.7C14.6,9,14.5,9.1,14.3,9.2z M12.1,11c-0.7,0.6-1.5,1.2-2.1,1.8V13c0.5-0.4,1-0.8,1.5-1.3
	c0.3-0.3,0.6-0.5,0.9-0.8H12.1z M14.3,9.2c-0.1,0.1-0.2,0.1-0.3,0.2c0,0,0,0,0,0v0.1c0.3-0.2,0.5-0.5,0.7-0.7
	C14.6,9,14.5,9.1,14.3,9.2z M12.1,11c-0.7,0.6-1.5,1.2-2.1,1.8V13c0.5-0.4,1-0.8,1.5-1.3c0.3-0.3,0.6-0.5,0.9-0.8H12.1z M14.3,9.2
	c-0.1,0.1-0.2,0.1-0.3,0.2c0,0,0,0,0,0v0.1c0.3-0.2,0.5-0.5,0.7-0.7C14.6,9,14.5,9.1,14.3,9.2z M12.1,11c-0.7,0.6-1.5,1.2-2.1,1.8
	V13c0.5-0.4,1-0.8,1.5-1.3c0.3-0.3,0.6-0.5,0.9-0.8H12.1z M14.3,9.2c-0.1,0.1-0.2,0.1-0.3,0.2c0,0,0,0,0,0v0.1
	c0.3-0.2,0.5-0.5,0.7-0.7C14.6,9,14.5,9.1,14.3,9.2z M12.1,11c-0.7,0.6-1.5,1.2-2.1,1.8V13c0.5-0.4,1-0.8,1.5-1.3
	c0.3-0.3,0.6-0.5,0.9-0.8H12.1z M14.3,9.2c-0.1,0.1-0.2,0.1-0.3,0.2c0,0,0,0,0,0v0.1c0.3-0.2,0.5-0.5,0.7-0.7
	C14.6,9,14.5,9.1,14.3,9.2z M12.1,11c-0.7,0.6-1.5,1.2-2.1,1.8V13c0.5-0.4,1-0.8,1.5-1.3c0.3-0.3,0.6-0.5,0.9-0.8H12.1z M14.3,9.2
	c-0.1,0.1-0.2,0.1-0.3,0.2c0,0,0,0,0,0v0.1c0.3-0.2,0.5-0.5,0.7-0.7C14.6,9,14.5,9.1,14.3,9.2z M12.1,11c-0.7,0.6-1.5,1.2-2.1,1.8
	V13c0.5-0.4,1-0.8,1.5-1.3c0.3-0.3,0.6-0.5,0.9-0.8H12.1z M14.3,9.2c-0.1,0.1-0.2,0.1-0.3,0.2c0,0,0,0,0,0v0.1
	c0.3-0.2,0.5-0.5,0.7-0.7C14.6,9,14.5,9.1,14.3,9.2z M12.1,11c-0.7,0.6-1.5,1.2-2.1,1.8V13c0.5-0.4,1-0.8,1.5-1.3
	c0.3-0.3,0.6-0.5,0.9-0.8H12.1z M14.3,9.2c-0.1,0.1-0.2,0.1-0.3,0.2c0,0,0,0,0,0v0.1c0.3-0.2,0.5-0.5,0.7-0.7
	C14.6,9,14.5,9.1,14.3,9.2z M12.1,11c-0.7,0.6-1.5,1.2-2.1,1.8V13c0.5-0.4,1-0.8,1.5-1.3c0.3-0.3,0.6-0.5,0.9-0.8H12.1z M14.3,9.2
	c-0.1,0.1-0.2,0.1-0.3,0.2c0,0,0,0,0,0v0.1c0.3-0.2,0.5-0.5,0.7-0.7C14.6,9,14.5,9.1,14.3,9.2z M12.1,11c-0.7,0.6-1.5,1.2-2.1,1.8
	V13c0.5-0.4,1-0.8,1.5-1.3c0.3-0.3,0.6-0.5,0.9-0.8H12.1z M14.3,9.2c-0.1,0.1-0.2,0.1-0.3,0.2c0,0,0,0,0,0v0.1
	c0.3-0.2,0.5-0.5,0.7-0.7C14.6,9,14.5,9.1,14.3,9.2z M12.1,11c-0.7,0.6-1.5,1.2-2.1,1.8V13c0.5-0.4,1-0.8,1.5-1.3
	c0.3-0.3,0.6-0.5,0.9-0.8H12.1z M14,6.5v1.4l1-0.6V5.6C14.7,5.9,14.3,6.2,14,6.5z"/>
</svg>
