<?xml version="1.0" encoding="utf-8"?>
<!-- Generator: Adobe Illustrator 23.0.0, SVG Export Plug-In . SVG Version: 6.00 Build 0)  -->
<svg version="1.1" id="Layer_1" xmlns="http://www.w3.org/2000/svg" xmlns:xlink="http://www.w3.org/1999/xlink" x="0px" y="0px"
	 viewBox="0 0 16 16" style="enable-background:new 0 0 16 16;" xml:space="preserve">
<style type="text/css">
	.st0{fill-rule:evenodd;clip-rule:evenodd;fill:#F75049;}
	.st1{fill:#F75049;}
</style>
<path class="st0" d="M2.4,11.9l-0.6,0.1L2.4,11.9C2.3,11.8,2.4,11.9,2.4,11.9z"/>
<path class="st0" d="M2.7,12.2l-1.5,0.3c0,0,0-0.1,0-0.1L2.6,12C2.7,12.1,2.7,12.1,2.7,12.2L2.7,12.2z"/>
<path class="st0" d="M6,15.6c0,0.2-0.2,0.5-0.6,0.4c-1.8-0.6-3.2-1.8-4.2-3.4l1.6-0.4c0.1,0.2,0.3,0.5,0.5,0.8c0,0,0.5,1.6,2.7,1.1
	C6,14.9,6,15.4,6,15.6z"/>
<path class="st0" d="M6.5,11.8C6.3,12,6.1,12.4,6,12.9c-0.5,0.2-1.6,0.6-2.3-0.7c0,0-0.2-0.4-0.7-0.7l-0.1,0c0,0-0.1,0-0.1,0
	l0.3-0.1l0.1-0.2l-2.5,0.5c-0.2-0.3-0.3-0.7-0.4-1.1l2.6-2.4C3.1,11,4.8,11.6,6.5,11.8z"/>
<path class="st0" d="M12.6,6.1C12.6,6.1,12.6,6,12.6,6.1L13.1,6L12.6,6.1z"/>
<path class="st0" d="M15.5,5.3l-2.1,0.4V5.6L15.5,5.3C15.5,5.2,15.5,5.2,15.5,5.3z"/>
<path class="st0" d="M12.7,6.2C12.7,6.2,12.7,6.2,12.7,6.2l2.9-0.6c0,0,0,0,0,0.1L12.7,6.2z"/>
<path class="st0" d="M9.5,11.8c0.1,0.1,0.2,0.2,0.2,0.3l0.4-0.4C9.8,11.8,9.7,11.8,9.5,11.8z"/>
<path class="st0" d="M15.7,5.8l-2.8,0.6c0.2,0.4,0.3,0.8,0.3,1.3v0.1c0,2.6-1.4,3.5-2.9,3.8h0l-0.5,0.5c0.2,0.3,0.3,0.7,0.3,1.2
	c0,1.1,0,2,0,2.3c0,0.2,0.2,0.5,0.6,0.4c0.4-0.1,0.7-0.3,1-0.4l0,0l3.3-3.2c0.2-0.4,0.4-0.7,0.5-1.1v0c0.3-0.9,0.5-1.9,0.5-2.9
	C16,7.4,15.9,6.6,15.7,5.8z M12.2,12.7l2.4-2l-2.2,2.1l-1.7,1.4L12.2,12.7z"/>
<path class="st1" d="M3,8.1L2.9,8.2c0-0.1,0-0.3,0-0.4c0-0.1,0-0.2,0-0.3l0,0L3,8.1z"/>
<path class="st1" d="M2.4,11.9l-0.6,0.1L2.4,11.9C2.3,11.8,2.4,11.9,2.4,11.9z"/>
<path class="st1" d="M2.7,12.1L2.7,12.1l-1.5,0.4c0,0,0-0.1,0-0.1L2.7,12.1C2.7,12.1,2.7,12.1,2.7,12.1z"/>
<polygon class="st1" points="3,11.5 3,11.6 3,11.5 "/>
<path class="st1" d="M2.7,12.1L2.7,12.1l-1.5,0.4c0,0,0-0.1,0-0.1L2.7,12.1C2.7,12.1,2.7,12.1,2.7,12.1z"/>
<path class="st1" d="M2.4,11.9l-0.6,0.1L2.4,11.9C2.3,11.8,2.4,11.9,2.4,11.9z"/>
<path class="st1" d="M11.8,3.3L11.8,3.3l0,0.1c-0.3,0.1-0.7,0.2-1.2,0.5C10.3,4,10.2,4.1,10,4.2C9.4,4.1,8.7,4,8,4S6.7,4.1,6,4.2
	C4.5,3.2,3.8,3.4,3.8,3.4c-0.4,1.1-0.2,2-0.1,2.2C3.3,6.1,3,6.7,2.9,7.5L0.2,10c0-0.1,0-0.2,0-0.3l2.7-2.6L2.5,5.6L0,8.1
	C0,8,0,7.9,0,7.8v0l2.4-2.5L2.3,4.8L0.1,7c0-0.3,0.1-0.5,0.1-0.8l1.7-1.6l0.4-0.3L2.1,3.5L0.7,4.8c0.1-0.1,0.1-0.3,0.2-0.4l1.1-1
	L1.9,2.9C3.4,1.1,5.6,0,8,0c0.6,0,1.2,0.1,1.7,0.2c0.5,0.1,1.1,0.3,1.6,0.5L11.8,3.3z"/>
<path class="st1" d="M13.2,1.9l-1.3,1.2l-0.1,0.1l-0.5-2.5C12,1,12.6,1.5,13.2,1.9z"/>
<path class="st1" d="M13.1,6l-0.5,0.1c0,0,0,0,0,0L13.1,6z"/>
<path class="st1" d="M15.5,5.3l-2.1,0.4V5.6L15.5,5.3C15.5,5.2,15.5,5.2,15.5,5.3z"/>
<path class="st1" d="M15.6,5.6l-2.9,0.6c0,0,0,0,0,0L15.6,5.6C15.6,5.6,15.6,5.6,15.6,5.6z"/>
<path class="st1" d="M15.3,4.9C15.3,4.9,15.3,4.9,15.3,4.9l-3,0.7c0,0,0-0.1-0.1-0.1c0,0,0-0.1,0.1-0.2c0,0,0,0,0-0.1
	c0.1-0.4,0.2-1.1-0.2-1.9c0,0,0,0-0.1,0l1.3-1.2c0.2,0.2,0.3,0.3,0.5,0.5L13.6,3L13.5,3h0.2L14,2.8c0.3,0.3,0.5,0.6,0.7,1l-1.1,1
	l0.2,0l1-0.9c0.1,0.2,0.2,0.3,0.3,0.5l-0.2,0.2l-0.1,0.1h0l-1.3,0.3L13.6,5l-0.8,0.3l2.5-0.5C15.3,4.8,15.3,4.9,15.3,4.9z"/>
<path class="st1" d="M15.5,5.3l-2.1,0.4V5.6L15.5,5.3C15.5,5.2,15.5,5.2,15.5,5.3z"/>
<path class="st1" d="M13.1,6l-0.5,0.1c0,0,0,0,0,0L13.1,6z"/>
<path class="st1" d="M15.6,5.6l-2.9,0.6c0,0,0,0,0,0L15.6,5.6C15.6,5.6,15.6,5.6,15.6,5.6z"/>
<path class="st1" d="M9.5,11.8c0.1,0.1,0.2,0.2,0.2,0.3l0.4-0.4C9.8,11.8,9.7,11.8,9.5,11.8z"/>
</svg>
