<?xml version="1.0" encoding="utf-8"?>
<!-- Generator: Adobe Illustrator 23.0.0, SVG Export Plug-In . SVG Version: 6.00 Build 0)  -->
<svg version="1.1" id="Layer_1" xmlns="http://www.w3.org/2000/svg" xmlns:xlink="http://www.w3.org/1999/xlink" x="0px" y="0px"
	 viewBox="0 0 16 16" style="enable-background:new 0 0 16 16;" xml:space="preserve">
<style type="text/css">
	.st0{fill:#F75049;}
</style>
<g transform="translate(-532 -32)">
	<path class="st0" d="M535,34v0.2c0.1-0.1,0.1-0.2,0.2-0.2H535z"/>
</g>
<path class="st0" d="M3.2,2c0,0.1-0.1,0.1-0.2,0.2V2H3.2z"/>
<path class="st0" d="M9.3,8h0.9C9.8,8.3,9.3,8.6,8.9,9H8.2C8.6,8.7,8.9,8.3,9.3,8z"/>
<path class="st0" d="M2,5C1.6,5.3,1.3,5.7,1,6.1V4.8c0.8-0.8,1.3-1.3,1.5-1.6c0,0,0.1-0.1,0.2-0.2H3V2.6C3.2,2.3,3.5,2.1,3.7,2
	c0,0,0.1,0,0.1,0h1.3C4.8,2.3,4.4,2.6,4,3C3.7,3.2,3.5,3.5,3.2,3.8L2.9,4H2V5z"/>
<path class="st0" d="M2.4,11c-0.5,0.5-1,1-1.4,1.4V6.3C1.4,5.8,1.8,5.4,2.2,5H3V4.2c0.3-0.3,0.7-0.7,1-1v0.7C3.3,4.6,2.7,5.3,2.3,6
	H2v1h1V6H2.4C2.9,5.5,3.5,5,4,4.4v2.5C3.6,7.3,3.3,7.7,2.9,8H2v1h1V8h0c0.3-0.3,0.7-0.5,1-0.8V8h0.1C3.8,8.3,3.5,8.6,3.2,8.8
	C3.6,8.6,3.9,8.3,4.3,8h1.8C5.7,8.3,5.4,8.7,5,9H4.3c0,0-0.1,0.1-0.1,0.1S4,9.2,4,9.3c-0.3,0.4-0.7,0.7-1,1V10H2v1H2.4z"/>
<path class="st0" d="M11.5,8c-0.2,0.2-0.4,0.3-0.6,0.5c0.1-0.1,0.2-0.1,0.3-0.2c-0.2,0.2-0.5,0.5-0.7,0.7H9.4c0.4-0.3,0.8-0.7,1.1-1
	H11.5z"/>
<path class="st0" d="M13,5.7v1.1c0.2-0.2,0.4-0.3,0.6-0.5c-0.2,0.2-0.4,0.4-0.6,0.6V8h-1.1c-0.1,0.1-0.2,0.2-0.2,0.2
	C11.3,8.5,11,8.7,10.8,9h2l2.2-2H14V6h1v0.9L16,6V5.1L13,5.7z M15.8,13.2L14.9,14H15v1h1v-2L15.8,13.2z M13.9,15H14v-0.1L13.9,15z
	 M13,10.2v2.2l1.4-1.4H14v-1h1v0.4l1-1V7.3L13,10.2z M15,2v1h-1V2.2c-0.1,0.1-0.2,0.1-0.2,0.1c0,0,0.1-0.1,0.2-0.2V2H6.2
	C5.9,2.3,5.6,2.7,5.3,3h5.6c0.4-0.3,0.7-0.4,0.7-0.4c0,0,0,0.1-0.3,0.4H13v1.4l3-0.7V2H15z"/>
<path class="st0" d="M6.7,8h0.4C6.7,8.3,6.4,8.7,6,9H5.7C6,8.7,6.3,8.3,6.7,8z"/>
<path class="st0" d="M8,8h1C8.9,8.1,8.8,8.2,8.7,8.2C8.5,8.5,8.2,8.7,7.9,9H6.8C7.2,8.7,7.6,8.3,8,8z"/>
<path class="st0" d="M2.3,3C2,3.4,1.5,3.8,1,4.4V2.8c0.2-0.2,0.4-0.5,0.6-0.7C1.4,2.2,1.2,2.4,1,2.6V2h1v1H2.3z"/>
<path class="st0" d="M4.2,3c0.4-0.3,0.7-0.7,1-1h0.9C5.8,2.3,5.4,2.6,5,3H4.2z"/>
<polygon class="st0" points="16,7.3 16,9.4 15,10.4 15,10 14,10 14,11 14.4,11 13,12.4 13,10.2 "/>
<polygon class="st0" points="14,14.9 14,15 13.9,15 "/>
<polygon class="st0" points="15,6.9 15,7 14.9,7 "/>
<path class="st0" d="M14,13h1v-0.6l1-1v1.3l-0.4,0.4l-1,0.9H14v0.6L13.5,15H3v-1H2v1H1v-2.1c0.6-0.5,1.2-1.2,2-1.9c0,0,0,0,0,0
	c0.3-0.3,0.7-0.6,1-1v4h9v-1.2l1.8-1.8H15v-0.2l1-1v0.8l-0.2,0.1L14.6,12H14V13z"/>
<polygon class="st0" points="15,10.8 15,11 14.8,11 "/>
<polygon class="st0" points="16,13 16,15 15,15 15,14 14.9,14 15.8,13.2 "/>
</svg>
