<?xml version="1.0" encoding="utf-8"?>
<!-- Generator: Adobe Illustrator 23.0.0, SVG Export Plug-In . SVG Version: 6.00 Build 0)  -->
<svg version="1.1" id="Layer_1" xmlns="http://www.w3.org/2000/svg" xmlns:xlink="http://www.w3.org/1999/xlink" x="0px" y="0px"
	 viewBox="0 0 16 16" style="enable-background:new 0 0 16 16;" xml:space="preserve">
<style type="text/css">
	.st0{clip-path:url(#SVGID_2_);}
	.st1{fill:#F75049;}
</style>
<g>
	<defs>
		<path id="SVGID_1_" d="M21.4,5.9c-0.1-0.1-0.3,0-0.6-0.2c-0.2-0.2-0.2-0.4-0.3-0.5c-0.4-0.3-1.3,0.5-1.4,0.5c0,0,0.4-0.3,0.8-0.7
			c0.2-0.3,0.7-0.7,0.5-1.1c-0.1-0.2-0.3-0.2-0.3-0.4c0-0.3,0.5-0.4,0.5-0.8c0-0.2-0.2-0.3-0.3-0.4c-0.4-0.1-0.8,0.3-0.8,0.2
			c0,0,0.3-0.2,0.4-0.5c0-0.1,0.2-0.4,0.1-0.5c-0.1-0.1-0.3-0.1-0.4-0.1c-0.1,0-0.2,0.1-0.2,0.1c0,0,0-0.1,0-0.2
			c0-0.2-0.4-0.3-0.6-0.3c-0.5-0.1-1,0.5-1.1,0.4C17.5,1.5,18.1,1,18,0.7c-0.1-0.2-0.2-0.3-0.4-0.3c-0.3,0-0.4,0.3-0.5,0.3
			c-0.2-0.1,0.1-0.7-0.1-0.9c-0.1-0.1-0.3,0.1-0.6,0c-0.2-0.1-0.2-0.2-0.3-0.2c-0.3-0.1-0.8,0.4-1.4,1c-0.3,0.2-0.6,0.5-1.2,0.9
			c0.3-0.3,0.5-0.6,0.7-0.8c0.4-0.5,0.7-0.7,0.7-1c0-0.1,0-0.4-0.2-0.5c-0.2-0.1-0.4,0.2-1.1,0.7c-0.2,0.1-0.3,0.2-0.4,0.3
			c0,0,0.3-0.4,0.2-0.7c0,0-0.1-0.2-0.2-0.3c-0.4-0.4-1.2-0.2-1.3-0.2C11-0.9,10.8-0.2,9.7,0.3c0,0-0.2,0.1-0.3,0.2
			C8.9,0.7,8.7,0.8,8.6,0.9C8.3,1.1,8.1,1.2,8,1.5C7.9,1.8,7.9,1.9,7.8,2.1C7.6,2.3,7.5,2.3,7.4,2.3C6.8,2.5,6,3.6,5.9,3.7
			C5.5,4.3,4.1,5.7,0.4,9C5.4,3.8,6.9,2.1,7,2c0,0,0,0,0,0c0-0.1,0.2-0.5,0-0.6c-0.1-0.1-0.2,0-0.3-0.2c0,0,0-0.1,0-0.2
			c0-0.2,0.4-0.3,0.4-0.4c0,0-0.1-0.1-0.2-0.1C6.6,0.5,6.6,0.4,6.5,0.4C6.2,0.3,5.9,0.5,5.8,0.6C5.5,0.7,5.4,0.8,5.4,0.8
			c-0.1,0,0-0.2,0-0.3C5.3,0.4,5.1,0.4,5,0.4c-0.4,0-0.5,0.3-0.7,0.2c-0.1,0,0-0.2-0.1-0.3C4.2,0.2,4.1,0.2,3.9,0.1
			C3.7,0,3.8-0.2,3.6-0.5C3.5-0.6,3.4-0.7,3.2-0.8c-0.2-0.1-0.3,0-0.5-0.1C2.3-1,2.3-1.1,2.1-1.2c-0.2,0-0.3,0-0.4,0.1
			C1.4-0.9,1.4-0.8,1.2-0.7C1-0.7,0.9-0.9,0.6-1C0.5-1,0.4-1,0.3-1c-0.1,0.1,0,0.4-0.1,0.5C0.2-0.4,0-0.4,0-0.5
			c-0.1-0.1-0.1-0.2-0.1-0.2C-0.4-0.9-1.4-0.6-1.7,0c0,0.1-0.1,0.2-0.2,0.3c-0.2,0.1-0.3,0-0.5,0c-0.3,0-0.5,0.3-1.1,1
			c0,0-0.1,0.2-0.6,0.7C-5,3-5.2,3.1-5.2,3.5c0,0.5,0,0.8,0,0.8c0,0.1,0.1,0.3,0,0.4c-0.1,0.1-0.1,0-0.2,0.1c-0.1,0.1,0.1,0.4,0,0.8
			c0,0,0,0-0.1,0.3c-0.1,0.6-0.1,0.7,0,0.7c0.1,0.1,0.2,0.1,0.3,0.1c0.2,0,0.3-0.1,0.4-0.1C-4.3,6-3.9,5.5-3.5,5
			C-3.7,5.4-3.9,5.6-4,5.8c-0.2,0.2-0.3,0.4-0.5,0.8c0,0.1-0.1,0.2-0.2,0.4c-0.1,0.2-0.2,0.5-0.1,0.8c0,0.1,0.1,0.2,0.1,0.3
			c0,0.2-0.1,0.3,0,0.4c0.1,0.1,0.1,0.1,0.2,0.1c0.1,0.1,0,0.3,0,0.6c0,0.2,0.1,0.1,0.1,0.3c0.1,0.3-0.1,0.4,0,0.7
			c0,0.2,0,0.2,0.1,0.3c0.2,0.1,0.4-0.1,0.6,0.1c0.2,0.1,0.1,0.3,0.3,0.4c0.1,0,0.2-0.1,0.4,0c0,0,0.3,0,0.4,0.1
			c0,0.1-0.1,0.3-0.3,0.4c-0.4,0.2-0.8-0.1-0.9,0c0,0.1,0.1,0.2,0.2,0.3c1.1,1,1.1,1.1,1.4,1.3c0.3,0.2,0.3,0.1,0.7,0.3
			c0.6,0.3,1.1,0.6,1.2,1.1c0,0.2-0.2,0.3-0.2,0.6c0,0.2,0.1,0.6,0.3,0.7c0.2,0.1,0.3-0.1,0.6-0.1c0.3,0,0.4,0.3,0.6,0.3
			c0.4,0,0.5-0.4,0.8-0.4c0.2,0,0.2,0.2,0.4,0.3c0.2,0.1,0.4,0,0.6,0c1.1-1.1,2.8-2.9,4.8-5C9.6,9,10.1,8.5,11,7.6
			c2.8-2.6,5.7-4.7,5.8-4.5c0.1,0.1-1.2,1.3-5.8,5.6c-3.1,3-5.7,5.4-7.4,7.1c0,0.4,0.1,0.5,0.2,0.5c0.2,0.1,0.5-0.2,0.8,0
			c0.1,0.1,0.3,0.2,0.3,0.5c0,0.2,0,0.3,0.1,0.4c0.1,0.1,0.1,0,0.2,0.1c0.2,0.2,0.1,0.4,0.3,0.5c0.2,0.1,0.4,0,0.5,0.2
			c0,0.1-0.1,0.1,0,0.3c0,0.2,0.2,0.2,0.2,0.3c0,0.2-0.3,0.3-0.4,0.6c-0.1,0.2,0.1,0.3,0.1,0.5c0,0.5-0.6,0.6-0.6,1
			c0,0.2,0.2,0.5,0.5,0.5c0.4,0,0.5-0.4,0.9-0.4c0.4,0,0.6,0.6,1,0.6c0.3,0,0.3-0.4,0.6-0.4c0.2,0,0.3,0.1,0.4,0
			c0.1-0.1,0.1-0.2,0.3-0.3c0.1,0,0.1,0,0.2,0c0.3,0,0.6-0.4,0.7-0.8c0.1-0.4,0-0.5,0.2-0.8c0.1-0.2,0.3-0.3,0.4-0.4
			c0.6-0.4,1.3-1.1,1.9-1.7c0.9-0.8,1-1.2,1.5-1.5c0.1,0,0.3-0.1,0.5-0.3c0.3-0.3,0.4-0.6,0.6-0.9c0.4-0.8,0.9-0.9,1.8-2.1
			c0-0.1,0.2-0.3,0.2-0.4c-0.1-0.1-1.2,1.2-1.5,1c-0.1-0.1-0.1-0.2-0.1-0.3c0.1-0.6,0.9-0.8,2-1.8c0.3-0.3,0.2-0.2,0.5-0.5
			c0.9-0.8,1.8-1.4,2.1-1.8c0.1-0.3,0.2-0.6,0.2-0.6c0-0.1,0-0.1,0.1-0.2c0.1-0.3,0.3-0.4,0.7-0.9C21.4,6.1,21.5,6,21.4,5.9z
			 M3.6,5.1C3.3,5.5,2.9,5.8,2.6,6c0.2-0.3,0.4-0.7,0.8-1c0.2-0.1,0.3-0.2,0.5-0.3C3.8,4.8,3.7,5,3.6,5.1z M3.4,3.8
			c0.5-0.6,1-1,1.5-1.5C4.5,2.8,4,3.4,3.5,3.9c-0.3,0.3-0.7,0.6-1,0.9C2.8,4.5,3.1,4.2,3.4,3.8z M-2.5,3.8C-2.4,3.6-2.2,3.3-2,3.1
			C-1.9,3-1.8,2.9-1.8,2.9c0,0.1-0.1,0.2-0.2,0.3C-2.1,3.4-2.3,3.6-2.5,3.8z M-1.6,12.3c-0.1,0.1-0.2,0.2-0.3,0.2c0,0,0-0.2,0.1-0.3
			C-1.6,12-1.5,12-1.4,12C-1.5,12.1-1.5,12.2-1.6,12.3z M-1.9,7.4c0.3-0.4,0.7-0.8,1-1.3c0,0.1,0,0.2,0,0.3
			C-1.2,6.8-1.6,7.1-1.9,7.4z M-0.1,13.8c0,0-0.2-0.2-0.5-0.6c-0.1-0.1-0.2-0.2-0.2-0.3c0-0.1,0.1-0.1,0.2-0.2
			c0.1-0.1,0.3-0.2,0.4-0.5c0,0.2-0.1,0.3-0.1,0.4c-0.1,0.1-0.1,0.2-0.1,0.3c0,0.1,0.1,0,0.1,0.1c0.1,0.1,0,0.2,0,0.3
			C-0.2,13.6-0.1,13.7-0.1,13.8z M-0.2,1.9C-0.1,1.7,0,1.5,0.3,1.2C0.3,1.1,0.4,1.1,0.5,1C0.5,1.1,0.4,1.2,0.3,1.3
			C0.2,1.6,0,1.8-0.2,1.9z M2.8,8.8c1.1-1.4,2.4-2.9,4-4.5C7.9,3.3,9,2.3,10.1,1.5C9.3,2.2,8.6,2.9,7.8,3.7C6,5.4,4.3,7.1,2.8,8.8z
			 M7.9,4.4c0.9-0.9,1.7-1.6,2.5-2.1C9.9,2.8,9.5,3.3,9,3.9C7.8,5.2,6.6,6.4,5.4,7.4C6,6.5,6.9,5.5,7.9,4.4z M9.8,6.3
			c1.2-1,2.3-1.9,3.4-2.8c-0.7,0.7-1.5,1.5-2.3,2.3C9.2,7.3,7.6,8.6,6,9.8C7.2,8.7,8.5,7.5,9.8,6.3z M11.6,6.4
			c-1.7,1.5-3.3,2.9-4.8,4c1.2-1.2,2.4-2.3,3.8-3.5c1.2-1,2.3-1.9,3.4-2.8C13.2,4.9,12.5,5.6,11.6,6.4z M17.7,4.8
			c-0.7,0.7-1.5,1.5-2.3,2.3c-1.6,1.5-3.3,2.9-4.8,4c1.2-1.2,2.4-2.3,3.8-3.5C15.5,6.5,16.6,5.6,17.7,4.8z M7.7,12.9
			c1.5-1.8,3.3-3.7,5.4-5.5C14,6.5,14.9,5.8,15.8,5c-1,1-2,2-3,3.1C11.1,9.7,9.4,11.3,7.7,12.9z M8.1,14.6c1.6-1.6,3.4-3.3,5.3-4.9
			c1.5-1.3,3-2.6,4.4-3.7c-1.2,1.1-2.4,2.2-3.6,3.4C12.1,11.2,10.1,13,8.1,14.6z M8.4,15.7c1.2-1.3,2.6-2.8,4.3-4.3
			c1.5-1.2,2.9-2.3,4.2-3.1c-1.1,1-2.3,2-3.4,3C11.8,12.8,10.1,14.2,8.4,15.7z M16.8,9.7c-1.3,1.2-2.5,2.2-3.7,3.2
			c0.2-0.2,0.4-0.4,0.7-0.6c0.8-0.8,1.6-1.5,2.3-2.3c-0.1,0.1-0.2,0.2-0.3,0.2c-0.1,0.1-0.1,0.1-0.2,0.2c-1.3,1.2-2.6,2.3-3.7,3.4
			c-1,0.8-1.9,1.6-2.8,2.2c1.2-1.2,2.4-2.3,3.8-3.5c1-0.9,2.1-1.7,3.1-2.5c1.1-0.9,2.2-1.8,3.2-2.6C18.4,8.2,17.7,8.9,16.8,9.7z"/>
	</defs>
	<clipPath id="SVGID_2_">
		<use xlink:href="#SVGID_1_"  style="overflow:visible;"/>
	</clipPath>
	<g transform="translate(-452,-140)" class="st0">
		<path class="st1" d="M460,140c-1.4,0-2.6,0.3-3.5,0.7c-0.2,0.1-0.4,0.2-0.6,0.3c0,0-0.1,0.1-0.1,0.1c-0.1,0.1-0.2,0.1-0.4,0.2
			c-0.1,0.1-0.2,0.1-0.3,0.2c-0.6,0.5-1.1,1.1-1.4,1.8c0,0,0,0.1-0.1,0.1c0,0,0,0.1,0,0.1c-0.2,0.4-0.4,0.9-0.5,1.4
			c0,0.1,0,0.2,0,0.3c0,0.2-0.1,0.5-0.1,0.7c0,0,0,0,0,0.1c0,0.3,0,0.5,0,0.8c0,0.1,0,0.2,0,0.3c0,0.3,0,0.5,0.1,0.8
			c0,0.2,0,0.3,0.1,0.5c0,0,0,0.1,0,0.1v0l0,0.1c0,0.2,0.1,0.3,0.1,0.5l0.1,0.5l0,0l1.1,5l1.2-0.2c0.7-0.1,1.1-0.2,1.3-0.4
			c0.1-0.1,0.2-0.2,0.2-0.4c0-0.2,0-0.4,0-0.8l-0.8-3.7c-0.1-0.3-0.2-0.6-0.3-0.7s-0.2-0.2-0.3-0.3c-0.3-0.1-0.8,0-1.4,0.1l-0.2,0
			c-0.2-1.1-0.2-2.2,0-3.2c0.2-1.2,0.8-2.2,1.8-2.9c1-0.7,2.5-1.1,4-1.1c1.5,0,3,0.4,4,1.1c1,0.7,1.6,1.8,1.8,2.9
			c0.2,1,0.2,2.1,0,3.2l-0.2,0c-0.7-0.1-1.1-0.2-1.4-0.1c-0.1,0-0.2,0.1-0.3,0.3s-0.2,0.4-0.3,0.7l-0.8,3.7c-0.1,0.3-0.1,0.6,0,0.8
			s0.1,0.3,0.2,0.4c0.2,0.2,0.7,0.3,1.3,0.4l1.2,0.2l1.1-5l0,0l0.1-0.5c0-0.2,0.1-0.3,0.1-0.5l0-0.1v0c0,0,0-0.1,0-0.1
			c0-0.2,0.1-0.3,0.1-0.5c0-0.3,0.1-0.5,0.1-0.8c0-0.1,0-0.2,0-0.3c0-0.3,0-0.5,0-0.8c0,0,0,0,0-0.1c0-0.2-0.1-0.5-0.1-0.7
			c0-0.1,0-0.2,0-0.3c-0.1-0.5-0.3-0.9-0.5-1.4c0,0,0-0.1,0-0.1c0,0,0-0.1-0.1-0.1c-0.3-0.7-0.8-1.3-1.4-1.8
			c-0.1-0.1-0.2-0.1-0.3-0.2c-0.1-0.1-0.2-0.2-0.4-0.2c0,0-0.1-0.1-0.1-0.1c-0.2-0.1-0.4-0.2-0.6-0.3C462.6,140.3,461.4,140,460,140
			z"/>
	</g>
</g>
</svg>
