<?xml version="1.0" encoding="utf-8"?>
<!-- Generator: Adobe Illustrator 23.0.0, SVG Export Plug-In . SVG Version: 6.00 Build 0)  -->
<svg version="1.1" id="Layer_1" xmlns="http://www.w3.org/2000/svg" xmlns:xlink="http://www.w3.org/1999/xlink" x="0px" y="0px"
	 viewBox="0 0 256 256" style="enable-background:new 0 0 256 256;" xml:space="preserve">
<style type="text/css">
	.st0{clip-path:url(#SVGID_2_);fill:#0E0E17;}
	.st1{clip-path:url(#SVGID_2_);fill:none;stroke:#F75049;stroke-miterlimit:10;}
	.st2{fill:#F75049;}
	.st3{fill-rule:evenodd;clip-rule:evenodd;fill:#F75049;}
</style>
<g>
	<defs>
		<path id="SVGID_1_" d="M262,161.9c-1,0.8-2,1.7-3,2.5c-21.9,19-41.9,37.8-60.3,56c2.8-2.1,5.6-4.2,8.3-6.4
			c7.5-6.5,15.1-13.3,22.7-20.2c13.1-12,25.4-23.9,37.1-35.8C265.3,159.3,263.6,160.6,262,161.9z M262,161.9c-1,0.8-2,1.7-3,2.5
			c-21.9,19-41.9,37.8-60.3,56c2.8-2.1,5.6-4.2,8.3-6.4c7.5-6.5,15.1-13.3,22.7-20.2c13.1-12,25.4-23.9,37.1-35.8
			C265.3,159.3,263.6,160.6,262,161.9z M262,161.9c-1,0.8-2,1.7-3,2.5c-21.9,19-41.9,37.8-60.3,56c2.8-2.1,5.6-4.2,8.3-6.4
			c7.5-6.5,15.1-13.3,22.7-20.2c13.1-12,25.4-23.9,37.1-35.8C265.3,159.3,263.6,160.6,262,161.9z M262,161.9c-1,0.8-2,1.7-3,2.5
			c-21.9,19-41.9,37.8-60.3,56c2.8-2.1,5.6-4.2,8.3-6.4c7.5-6.5,15.1-13.3,22.7-20.2c13.1-12,25.4-23.9,37.1-35.8
			C265.3,159.3,263.6,160.6,262,161.9z M262,161.9c-1,0.8-2,1.7-3,2.5c-21.9,19-41.9,37.8-60.3,56c2.8-2.1,5.6-4.2,8.3-6.4
			c7.5-6.5,15.1-13.3,22.7-20.2c13.1-12,25.4-23.9,37.1-35.8C265.3,159.3,263.6,160.6,262,161.9z M262,161.9c-1,0.8-2,1.7-3,2.5
			c-21.9,19-41.9,37.8-60.3,56c2.8-2.1,5.6-4.2,8.3-6.4c7.5-6.5,15.1-13.3,22.7-20.2c13.1-12,25.4-23.9,37.1-35.8
			C265.3,159.3,263.6,160.6,262,161.9z M262,161.9c-1,0.8-2,1.7-3,2.5c-21.9,19-41.9,37.8-60.3,56c2.8-2.1,5.6-4.2,8.3-6.4
			c7.5-6.5,15.1-13.3,22.7-20.2c13.1-12,25.4-23.9,37.1-35.8C265.3,159.3,263.6,160.6,262,161.9z M262,161.9c-1,0.8-2,1.7-3,2.5
			c-21.9,19-41.9,37.8-60.3,56c2.8-2.1,5.6-4.2,8.3-6.4c7.5-6.5,15.1-13.3,22.7-20.2c13.1-12,25.4-23.9,37.1-35.8
			C265.3,159.3,263.6,160.6,262,161.9z M262,161.9c-1,0.8-2,1.7-3,2.5c-21.9,19-41.9,37.8-60.3,56c2.8-2.1,5.6-4.2,8.3-6.4
			c7.5-6.5,15.1-13.3,22.7-20.2c13.1-12,25.4-23.9,37.1-35.8C265.3,159.3,263.6,160.6,262,161.9z M262,161.9c-1,0.8-2,1.7-3,2.5
			c-21.9,19-41.9,37.8-60.3,56c2.8-2.1,5.6-4.2,8.3-6.4c7.5-6.5,15.1-13.3,22.7-20.2c13.1-12,25.4-23.9,37.1-35.8
			C265.3,159.3,263.6,160.6,262,161.9z M348,96.3c-1-2.2-5.3-0.5-9.6-3.8c-3.5-2.8-2.6-5.7-5.1-7.3c-6.3-4-21.2,8.4-21.6,7.9
			c0-0.5,6.1-4.7,12-11c3.7-4.1,10.6-11.5,8.5-16.7c-1.2-3.1-4.6-2.8-5.1-5.6c-0.7-4.4,7.8-7.1,7.4-12.3c-0.2-2.6-2.7-4.9-4.9-5.7
			c-5.8-2.1-12.9,4-13.3,3.4c-0.2-0.4,4.4-2.8,7.1-8c0.5-0.9,2.9-5.6,1-7.8c-1.3-1.5-4.4-1.6-6.3-1.2c-2,0.4-3.1,1.4-3.9,0.8
			c-0.6-0.5-0.2-1.6-0.5-2.6c-0.5-2.8-5.7-4.6-9.3-4.9c-8.7-0.8-15.8,7.8-16.8,6.8c-1.1-1.1,8.2-8.8,6.1-14.7
			c-0.8-2.4-3.6-4.3-6.1-4.4c-4.3-0.1-6.6,5.2-8.3,4.4c-2.4-1.1,1.8-11.8-1.7-14.3c-2.2-1.4-5,1.5-9.4-0.2c-2.6-1-2.7-2.4-4.4-3.1
			c-5.1-2-12.6,7.1-21.8,15.2c-4,3.5-10.2,8.4-18.8,13.5c4.4-5.3,8.1-9.5,10.8-12.5c6.9-7.5,10.4-10.4,10.5-15.4
			c0.1-2.1-0.4-6.2-2.8-7.3c-2.8-1.2-6.4,2.8-17.5,10.3c-2.9,2-5.3,3.5-6.8,4.4c0.5-0.6,5.2-6.1,3.3-11.6c-0.2-0.6-0.9-2.5-3.3-4.4
			c-7.1-5.7-18.7-3-20.2-2.6c-14.3,3.5-18,13.5-35.6,22.1c-0.1,0-2.4,1.3-5.5,2.9c-6.6,3.6-9.9,5.4-11.4,6.4c-4.3,3-7.6,5.4-9.5,9.7
			c-1.8,4.2-0.9,7-3.6,9.8c-2.2,2.3-5,2.9-5.9,3.1c-9.8,2.5-22,19.8-23.6,22c-6.6,9.2-28.4,31.6-86.7,84.3
			c79-83.1,102.9-109.4,103.9-111.8c0,0,0-0.1,0-0.1c0.3-0.9,2.7-7.2,0.4-9.2c-1.3-1.2-3.8-0.6-4.9-2.5c-0.1-0.1-0.7-1.2-0.5-2.5
			c0.6-3.3,7-4,6.9-5.6c0-0.6-1.2-0.8-3.3-1.6c-4.7-1.8-4.6-3.2-7.2-3.9c-3.9-1-7.9,1.2-10.8,2.8c-3.5,1.9-5.5,4.1-6.4,3.4
			c-0.8-0.6,0.7-2.9-0.5-4.6c-1.1-1.6-3.9-1.4-4.9-1.3c-5.8,0.4-8.6,4.7-10.3,3.6c-1.1-0.7,0.1-2.7-1.3-4.9
			c-1.4-2.2-3.5-1.5-6.1-3.4c-3-2.3-1.7-4.4-5.1-8.9c-1.1-1.5-3.2-4.3-6.7-5.6c-3.7-1.4-4.7,0.4-8.5-0.8c-4.3-1.4-4.4-4.2-8.1-4.7
			c-2.6-0.4-4.8,0.6-6.8,1.5c-5,2.3-5.1,4.9-7.8,5c-3.1,0.1-3.7-3.1-8.8-4.1c-1.7-0.3-3.5-0.6-4.7,0.3c-2,1.9,0.5,6.2-1.5,8
			C11.1-3.8,9-4,7.8-4.7C6.2-5.6,6.5-7.1,5.6-8.1C2.3-11.5-13.4-7.2-18,2.3c-0.8,1.6-1.5,3.8-3.7,5c-2.7,1.4-4.8,0-7.6,0
			c-4.8,0-7.7,4-18.2,16c0,0-2.1,2.4-9.2,10.5c-14.5,16.5-17.4,18.6-17.5,23.6c-0.2,8.6,0.8,12,0.8,12c0.5,1.7,1.6,4.4,0.3,6.1
			c-0.8,1.2-1.8,0.6-2.8,1.6c-2,2.1,1.1,6,0.6,12.7c0,0.2,0,0-0.8,4.6c-1.5,8.9-1.8,10.7-0.6,11.8c1,1,2.6,1,4.3,1
			c2.9,0,5-1.3,5.9-2c6.3-7.5,12.6-15,18.9-22.5c-2.6,5.4-5.3,9.4-7.3,12.2c-2.8,3.8-5.3,6.6-8,11.9c-0.8,1.6-1.7,3.4-2.6,6
			c-1.3,3.9-3.2,8.5-1.2,12.7c0.8,1.7,1.9,2.6,2.3,5c0.4,3-0.8,4.7,0.4,6.6c0.8,1.3,1.6,0.8,2.6,2.1c1.8,2.3-0.4,5.1,0.5,9.6
			c0.5,2.7,1.4,2,2,4.7c1.1,4.4-1,6.3-0.2,11.8c0.3,2.4,0.5,3.6,1.5,4.5c2.4,2.1,6-1.1,9.3,0.8c3,1.7,2,5.3,4.9,6.3
			c2,0.7,3-0.9,6.6-0.7c0.6,0,4.9,0.3,5.6,2.3c0.6,1.7-1.7,4.5-4.3,5.9c-6,3.3-13.4-1-14.3,0.6c-0.6,1.1,2,3.6,3.6,5.1
			c16.6,15.6,16.6,16.6,22.1,19.9c5.5,3.2,4.5,1.6,11.3,5.5c8.7,4.9,17.8,10,18.2,16.8c0.2,3.9-2.6,4.6-2.5,9.8
			c0.1,3.6,1.6,9.1,5.3,10.5c3.3,1.2,4.9-2.1,10-1.6c5.2,0.4,5.6,4.1,9.8,4.3c6.1,0.2,8.5-7,13.5-5.9c2.8,0.6,2.9,3.2,6.6,4.6
			c3.3,1.2,6.6,0.4,8.9-0.4c17.4-17.7,44.1-45.2,76.7-79.6c27.1-28.7,34.3-36.9,49.4-51.2c44-41.7,89.9-74.2,91.9-71.7
			c1.4,1.7-19.7,21.1-91.3,89.2c-49.7,47.2-90.4,86.2-118,112.7c0,5.6,1.5,7.6,2.8,8.4c3.5,2.2,8.1-2.9,12.6-0.1
			c1.5,1,4.4,3.5,5.4,7.3c0.7,2.7,0.1,4.8,1.9,6.6c1.1,1.2,1.8,0.6,3.2,1.8c3,2.8,1.7,5.7,4.2,7.8c2.7,2.3,6.3,0.7,7.3,2.9
			c0.6,1.3-0.8,2.2-0.3,4.3c0.5,2.4,2.6,2.4,3.1,4.2c0.7,2.9-4.4,4.7-5.7,9.8c-0.8,3.5,1.2,4.1,1,7.9c-0.4,7.7-9.3,9.6-9,15.6
			c0.2,3.7,3.8,7.5,7.4,7.9c5.7,0.8,7.6-7.1,13.9-7.1c7,0,9.5,9.9,15.5,9c4.3-0.7,4.9-6,10-6.2c3.2-0.2,4.9,1.8,7.1,0.6
			c2.1-1.1,2-3.7,4.3-4.4c1.3-0.3,2,0.2,3.1,0.3c4.1,0.3,9.3-6.5,11.5-13.3c2-6.1,0.2-8.3,2.9-13c2-3.5,4.8-5.4,6.1-6.4
			c9.1-6.6,19.8-16.7,30-26.4c13.7-13,15.1-18.3,24.3-23c1.4-0.7,4.5-2.2,7.9-5.3c5.3-4.7,7-9.5,9.2-13.8
			c6.8-13.1,14.1-13.5,27.9-33.8c0.6-0.9,3.7-5.4,3-6c-1.6-1.4-19.4,19-23.8,16c-1.2-0.8-1-3.1-0.9-4.1c1-9.7,13.8-13.1,31.6-28.4
			c4.6-4,3-3.1,8.2-7.7c13.8-12.2,28.7-21.5,32.6-29.1c2.3-4.5,3.8-9.4,3.8-9.4c0.4-1.5,0.5-2.2,0.8-2.9c1.6-4.5,4-6.2,11.3-14.3
			C347.7,99.6,348.6,97.6,348,96.3z M65.8,83.5c-5.2,6.4-10.7,11-15.5,14.5c2.7-4.6,6.8-10.4,13.1-15.7c2.5-2.1,5-3.9,7.3-5.3
			C69.2,79,67.6,81.2,65.8,83.5z M61.9,63.2c7.9-8.8,15.9-16.5,23.4-23c-5.8,7.7-12.7,16-21,24.4C59.1,69.9,53.9,74.7,48.8,79
			C52.8,73.8,57.1,68.5,61.9,63.2z M-30.5,62.5c1.5-3,3.7-6.9,7.2-10.5c1.3-1.4,2.7-2.6,4-3.5c-0.8,1.4-1.6,2.9-2.6,4.4
			C-24.8,57.1-27.9,60.2-30.5,62.5z M-16.5,198.1c-1.6,2-3.6,2.8-4.4,3.1c0-0.7,0-2.9,1.5-5.1c1.8-2.4,4.5-2.9,5.1-3
			C-14.4,193.9-14.8,196.1-16.5,198.1z M-21.8,120.7c5.4-6.6,10.8-13.3,16.3-19.9c0.2,1.6,0.4,3.3,0.6,4.9
			C-10.6,110.7-16.2,115.7-21.8,120.7z M7,220.9c-0.7,0.4-2.7-3.4-8.6-9.8c-1.5-1.7-3-3.1-2.6-4.7c0.3-1.4,2-2,3.6-2.9
			c2-1.2,4.7-3.3,7.1-7.6c-0.1,3.2-1,5.5-1.7,7c-0.8,1.6-2,3.1-1.4,4.3c0.4,0.8,1.5,0.6,2.2,1.5c0.9,1.1,0.2,2.6,0,4.4
			C4.9,217.5,7.7,220.5,7,220.9z M5.4,32.8c1.5-3,3.7-6.9,7.2-10.5c1.4-1.4,2.7-2.5,4-3.5c-0.8,1.4-1.6,2.9-2.6,4.4
			C11.1,27.4,8.1,30.5,5.4,32.8z M52.2,142.6c17.5-22.2,38.5-46.2,63.6-70.5c18.2-17.6,36-32.9,52.9-46.3
			c-12.3,11.7-24.7,23.6-37.1,35.8C103.9,88.7,77.4,115.9,52.2,142.6z M134.1,72.2c13.7-13.8,27.2-24.9,39.3-33.8
			c-7.3,8.6-14.9,17.2-22.9,25.9c-18.9,20.7-37.8,39.4-56.3,56.3C104.1,106.1,117.1,89.3,134.1,72.2z M164.6,102
			c18.2-15.8,36.1-30.3,53.5-43.6c-11.7,11.8-24,23.7-37.1,35.8c-26.1,24-51.9,45.2-76.6,63.9C122.6,139.8,142.7,121.1,164.6,102z
			 M192.9,104.2c-26.1,24-51.9,45.2-76.6,63.9c18.3-18.3,38.3-37.1,60.3-56c18.2-15.8,36.2-30.3,53.5-43.7
			C218.4,80.2,206,92.2,192.9,104.2z M288.7,78.4c-11.7,11.8-24,23.7-37.1,35.8c-26.1,24-51.9,45.2-76.6,63.9
			c18.3-18.2,38.3-37,60.3-56C253.5,106.2,271.4,91.7,288.7,78.4z M130.7,207.5c24.1-28.3,52.3-58.1,85.2-87.8
			c14.8-13.3,29.4-25.7,43.6-37.1c-15.9,16.2-31.9,32.4-47.9,48.6C184.7,156.6,157.7,182.1,130.7,207.5z M137,234.8
			c26.1-25.7,54-51.9,83.9-78.3c23.5-20.9,46.8-40.5,69.5-59.1c-18.5,17.6-37.5,35.4-57.1,53.1C200.9,180.1,168.7,208.1,137,234.8z
			 M141.3,251.5c18.2-21.3,40.8-44.9,68.4-68.5c23.1-19.7,45.5-36,66-49.2c-18,15.9-36.1,31.7-54.1,47.6
			C194.8,204.8,168,228.2,141.3,251.5z M275.4,156.5c-23.2,21.3-46.1,40.4-68.3,57.6c-18.4,15.9-36.5,30.4-54,43.7
			c18.3-18.2,38.3-37,60.3-56c16.5-14.3,32.8-27.6,48.6-39.9c17.2-14.9,34.1-28.5,50.5-41.1C300.9,132.5,288.5,144.5,275.4,156.5z
			 M266.8,158.1c-1.6,1.2-3.2,2.5-4.9,3.8c-1,0.8-2,1.7-3,2.5c-21.9,19-41.9,37.8-60.3,56c2.8-2.1,5.6-4.2,8.3-6.4
			c7.5-6.5,15.1-13.3,22.7-20.2C242.9,181.8,255.2,169.9,266.8,158.1z M262,161.9c-1,0.8-2,1.7-3,2.5c-21.9,19-41.9,37.8-60.3,56
			c2.8-2.1,5.6-4.2,8.3-6.4c7.5-6.5,15.1-13.3,22.7-20.2c13.1-12,25.4-23.9,37.1-35.8C265.3,159.3,263.6,160.6,262,161.9z
			 M262,161.9c-1,0.8-2,1.7-3,2.5c-21.9,19-41.9,37.8-60.3,56c2.8-2.1,5.6-4.2,8.3-6.4c7.5-6.5,15.1-13.3,22.7-20.2
			c13.1-12,25.4-23.9,37.1-35.8C265.3,159.3,263.6,160.6,262,161.9z M262,161.9c-1,0.8-2,1.7-3,2.5c-21.9,19-41.9,37.8-60.3,56
			c2.8-2.1,5.6-4.2,8.3-6.4c7.5-6.5,15.1-13.3,22.7-20.2c13.1-12,25.4-23.9,37.1-35.8C265.3,159.3,263.6,160.6,262,161.9z
			 M262,161.9c-1,0.8-2,1.7-3,2.5c-21.9,19-41.9,37.8-60.3,56c2.8-2.1,5.6-4.2,8.3-6.4c7.5-6.5,15.1-13.3,22.7-20.2
			c13.1-12,25.4-23.9,37.1-35.8C265.3,159.3,263.6,160.6,262,161.9z M262,161.9c-1,0.8-2,1.7-3,2.5c-21.9,19-41.9,37.8-60.3,56
			c2.8-2.1,5.6-4.2,8.3-6.4c7.5-6.5,15.1-13.3,22.7-20.2c13.1-12,25.4-23.9,37.1-35.8C265.3,159.3,263.6,160.6,262,161.9z
			 M262,161.9c-1,0.8-2,1.7-3,2.5c-21.9,19-41.9,37.8-60.3,56c2.8-2.1,5.6-4.2,8.3-6.4c7.5-6.5,15.1-13.3,22.7-20.2
			c13.1-12,25.4-23.9,37.1-35.8C265.3,159.3,263.6,160.6,262,161.9z M262,161.9c-1,0.8-2,1.7-3,2.5c-21.9,19-41.9,37.8-60.3,56
			c2.8-2.1,5.6-4.2,8.3-6.4c7.5-6.5,15.1-13.3,22.7-20.2c13.1-12,25.4-23.9,37.1-35.8C265.3,159.3,263.6,160.6,262,161.9z
			 M262,161.9c-1,0.8-2,1.7-3,2.5c-21.9,19-41.9,37.8-60.3,56c2.8-2.1,5.6-4.2,8.3-6.4c7.5-6.5,15.1-13.3,22.7-20.2
			c13.1-12,25.4-23.9,37.1-35.8C265.3,159.3,263.6,160.6,262,161.9z"/>
	</defs>
	<clipPath id="SVGID_2_">
		<use xlink:href="#SVGID_1_"  style="overflow:visible;"/>
	</clipPath>
	<path class="st0" d="M215.3,21.9v189.9c-2.8,3-5.5,6.1-8.3,9.2c-2.7,3-5.5,6-8.2,9c-0.4,0.4-0.7,0.8-1.1,1.2
		c-2.4,2.7-4.9,5.4-7.3,8H46.3l-7-7V21.9c2.3-2.2,4.6-4.5,6.9-6.7h162.2C210.7,17.4,213,19.7,215.3,21.9z"/>
	<path class="st1" d="M215.3,21.9v189.9c-2.8,3-5.5,6.1-8.3,9.2c-2.7,3-5.5,6-8.2,9c-0.4,0.4-0.7,0.8-1.1,1.2
		c-2.4,2.7-4.9,5.4-7.3,8H46.3l-7-7V21.9c2.3-2.2,4.6-4.5,6.9-6.7h162.2C210.7,17.4,213,19.7,215.3,21.9z"/>
</g>
<path class="st2" d="M79.3,46c-4,0-7.3,3.3-7.3,7.3v54.4c0,4,3.3,7.3,7.3,7.3h10v12.9l12.9,12.9h12.9v10c0,4,3.3,7.3,7.3,7.3h54.4
	c4,0,7.3-3.3,7.3-7.3V96.3c0-4-3.3-7.3-7.3-7.3h-35.8V53.3c0-4-3.3-7.3-7.3-7.3H79.3L79.3,46z M80.6,54.6h51.7v34.5h-10
	c-1.7,0-3.2,0.5-4.4,1.5c-1.8-1-3.4-2-4.8-3c3.9-4,7.2-8.6,9.7-13.6c0.4-0.7,0.6-1.4,0.5-2.2h4.7v-8.6h-17.2v-4.3h-8.6v4.3H84.9v8.6
	h9.2c-2.2,0.8-3.4,3.3-2.6,5.5c0,0.1,0.1,0.3,0.2,0.4c0,0,1.4,3,4.8,6.9c0.9,1,1.9,2.1,3.1,3.2c-6.1,4.5-11.3,6.5-11.3,6.5
	c-1.6,0.4-2.9,1.6-3.3,3.2c-0.5,2.3,0.9,4.6,3.2,5.2c1,0.2,2,0.1,2.8-0.3c0,0,7.2-2.7,15.3-9c2.2,1.6,4.6,3.3,7.5,5
	c0.3,0.2,0.7,0.3,1.1,0.4v7.5H97.8l-2.2-2.2l-2.2,2.2H80.6C80.6,106.3,80.6,54.6,80.6,54.6z M97,71.8h17c-2.1,3.8-4.7,7.3-7.8,10.4
	c-1.1-1-2.2-2.1-3.2-3.2c-2.8-3.1-3.5-4.7-3.5-4.7C99,73.2,98.1,72.3,97,71.8L97,71.8L97,71.8z M145.1,103.3h9l14.8,40.1h-9.3
	l-3-8.6h-14.3l-3,8.6h-9.3L145.1,103.3L145.1,103.3z M149.4,114.4l-4.8,14.1h10l-4.8-14.1H149.4L149.4,114.4z M102.2,114.9h12.9
	v12.9h-12.9C102.2,127.8,102.2,114.9,102.2,114.9z"/>
<path class="st3" d="M108.3,227h-4.8v-28h11.6c3.2,0,5.6,0.8,7.1,2.5c1.5,1.7,2.3,3.7,2.3,6.2c0,2.3-0.8,4.3-2.4,6.1s-3.9,2.6-7,2.6
	h-6.8V227z M108.3,211.8h7.1c1.4,0,2.5-0.4,3.2-1.2c0.7-0.8,1-1.8,1-2.9c0-1.1-0.3-2-1-2.9s-1.7-1.3-3.2-1.3h-7.1V211.8z
	 M140.2,227.5c-1.7,0-3.3-0.3-4.7-0.8s-2.6-1.3-3.5-2.3s-1.7-2-2.3-3.3c-0.6-1.3-1.1-2.6-1.3-3.9c-0.3-1.3-0.4-2.7-0.4-4.2
	c0-1.4,0.1-2.8,0.4-4.2c0.3-1.3,0.7-2.6,1.3-3.9c0.6-1.3,1.4-2.4,2.3-3.3s2.1-1.7,3.5-2.3s3-0.8,4.7-0.8c2.2,0,4.1,0.4,5.7,1.3
	c1.6,0.8,2.9,2,3.8,3.4c0.9,1.4,1.6,3,2.1,4.6c0.5,1.7,0.7,3.4,0.7,5.2c0,1.8-0.2,3.5-0.7,5.2c-0.5,1.7-1.1,3.2-2.1,4.6
	c-0.9,1.4-2.2,2.6-3.8,3.4C144.3,227.1,142.4,227.5,140.2,227.5z M140.2,222.9c1.3,0,2.4-0.3,3.4-0.9s1.8-1.4,2.3-2.4
	c0.5-1,1-2.1,1.2-3.2c0.3-1.1,0.4-2.2,0.4-3.4c0-1.2-0.1-2.4-0.4-3.5c-0.3-1.1-0.7-2.2-1.2-3.1c-0.5-1-1.3-1.8-2.3-2.4
	s-2.1-0.9-3.4-0.9c-1.7,0-3.1,0.5-4.3,1.6c-1.1,1.1-1.9,2.3-2.4,3.7s-0.7,2.9-0.7,4.5c0,1.2,0.1,2.4,0.4,3.5s0.7,2.2,1.2,3.2
	s1.3,1.8,2.3,2.4C137.8,222.6,138.9,222.9,140.2,222.9L140.2,222.9z"/>
</svg>
