<?xml version="1.0" encoding="utf-8"?>
<!-- Generator: Adobe Illustrator 23.0.0, SVG Export Plug-In . SVG Version: 6.00 Build 0)  -->
<svg version="1.1" id="Layer_1" xmlns="http://www.w3.org/2000/svg" xmlns:xlink="http://www.w3.org/1999/xlink" x="0px" y="0px"
	 viewBox="0 0 256 256" style="enable-background:new 0 0 256 256;" xml:space="preserve">
<style type="text/css">
	.st0{clip-path:url(#SVGID_2_);fill:#0E0E17;}
	.st1{clip-path:url(#SVGID_2_);fill:none;stroke:#F75049;stroke-miterlimit:10;}
	.st2{fill-rule:evenodd;clip-rule:evenodd;fill:none;stroke:#F75049;stroke-miterlimit:10;}
</style>
<g>
	<defs>
		<path id="SVGID_1_" d="M262,161.9c-1,0.8-2,1.7-3,2.5c-21.9,19-41.9,37.8-60.3,56c2.8-2.1,5.6-4.2,8.3-6.4
			c7.5-6.5,15.1-13.3,22.7-20.2c13.1-12,25.4-23.9,37.1-35.8C265.3,159.3,263.6,160.6,262,161.9z M262,161.9c-1,0.8-2,1.7-3,2.5
			c-21.9,19-41.9,37.8-60.3,56c2.8-2.1,5.6-4.2,8.3-6.4c7.5-6.5,15.1-13.3,22.7-20.2c13.1-12,25.4-23.9,37.1-35.8
			C265.3,159.3,263.6,160.6,262,161.9z M262,161.9c-1,0.8-2,1.7-3,2.5c-21.9,19-41.9,37.8-60.3,56c2.8-2.1,5.6-4.2,8.3-6.4
			c7.5-6.5,15.1-13.3,22.7-20.2c13.1-12,25.4-23.9,37.1-35.8C265.3,159.3,263.6,160.6,262,161.9z M262,161.9c-1,0.8-2,1.7-3,2.5
			c-21.9,19-41.9,37.8-60.3,56c2.8-2.1,5.6-4.2,8.3-6.4c7.5-6.5,15.1-13.3,22.7-20.2c13.1-12,25.4-23.9,37.1-35.8
			C265.3,159.3,263.6,160.6,262,161.9z M262,161.9c-1,0.8-2,1.7-3,2.5c-21.9,19-41.9,37.8-60.3,56c2.8-2.1,5.6-4.2,8.3-6.4
			c7.5-6.5,15.1-13.3,22.7-20.2c13.1-12,25.4-23.9,37.1-35.8C265.3,159.3,263.6,160.6,262,161.9z M262,161.9c-1,0.8-2,1.7-3,2.5
			c-21.9,19-41.9,37.8-60.3,56c2.8-2.1,5.6-4.2,8.3-6.4c7.5-6.5,15.1-13.3,22.7-20.2c13.1-12,25.4-23.9,37.1-35.8
			C265.3,159.3,263.6,160.6,262,161.9z M262,161.9c-1,0.8-2,1.7-3,2.5c-21.9,19-41.9,37.8-60.3,56c2.8-2.1,5.6-4.2,8.3-6.4
			c7.5-6.5,15.1-13.3,22.7-20.2c13.1-12,25.4-23.9,37.1-35.8C265.3,159.3,263.6,160.6,262,161.9z M262,161.9c-1,0.8-2,1.7-3,2.5
			c-21.9,19-41.9,37.8-60.3,56c2.8-2.1,5.6-4.2,8.3-6.4c7.5-6.5,15.1-13.3,22.7-20.2c13.1-12,25.4-23.9,37.1-35.8
			C265.3,159.3,263.6,160.6,262,161.9z M262,161.9c-1,0.8-2,1.7-3,2.5c-21.9,19-41.9,37.8-60.3,56c2.8-2.1,5.6-4.2,8.3-6.4
			c7.5-6.5,15.1-13.3,22.7-20.2c13.1-12,25.4-23.9,37.1-35.8C265.3,159.3,263.6,160.6,262,161.9z M262,161.9c-1,0.8-2,1.7-3,2.5
			c-21.9,19-41.9,37.8-60.3,56c2.8-2.1,5.6-4.2,8.3-6.4c7.5-6.5,15.1-13.3,22.7-20.2c13.1-12,25.4-23.9,37.1-35.8
			C265.3,159.3,263.6,160.6,262,161.9z M348,96.3c-1-2.2-5.3-0.5-9.6-3.8c-3.5-2.8-2.6-5.7-5.1-7.3c-6.3-4-21.2,8.4-21.6,7.9
			c0-0.5,6.1-4.7,12-11c3.7-4.1,10.6-11.5,8.5-16.7c-1.2-3.1-4.6-2.8-5.1-5.6c-0.7-4.4,7.8-7.1,7.4-12.3c-0.2-2.6-2.7-4.9-4.9-5.7
			c-5.8-2.1-12.9,4-13.3,3.4c-0.2-0.4,4.4-2.8,7.1-8c0.5-0.9,2.9-5.6,1-7.8c-1.3-1.5-4.4-1.6-6.3-1.2c-2,0.4-3.1,1.4-3.9,0.8
			c-0.6-0.5-0.2-1.6-0.5-2.6c-0.5-2.8-5.7-4.6-9.3-4.9c-8.7-0.8-15.8,7.8-16.8,6.8c-1.1-1.1,8.2-8.8,6.1-14.7
			c-0.8-2.4-3.6-4.3-6.1-4.4c-4.3-0.1-6.6,5.2-8.3,4.4c-2.4-1.1,1.8-11.8-1.7-14.3c-2.2-1.4-5,1.5-9.4-0.2c-2.6-1-2.7-2.4-4.4-3.1
			c-5.1-2-12.6,7.1-21.8,15.2c-4,3.5-10.2,8.4-18.8,13.5c4.4-5.3,8.1-9.5,10.8-12.5c6.9-7.5,10.4-10.4,10.5-15.4
			c0.1-2.1-0.4-6.2-2.8-7.3c-2.8-1.2-6.4,2.8-17.5,10.3c-2.9,2-5.3,3.5-6.8,4.4c0.5-0.6,5.2-6.1,3.3-11.6c-0.2-0.6-0.9-2.5-3.3-4.4
			c-7.1-5.7-18.7-3-20.2-2.6c-14.3,3.5-18,13.5-35.6,22.1c-0.1,0-2.4,1.3-5.5,2.9c-6.6,3.6-9.9,5.4-11.4,6.4c-4.3,3-7.6,5.4-9.5,9.7
			c-1.8,4.2-0.9,7-3.6,9.8c-2.2,2.3-5,2.9-5.9,3.1c-9.8,2.5-22,19.8-23.6,22c-6.6,9.2-28.4,31.6-86.7,84.3
			c79-83.1,102.9-109.4,103.9-111.8c0,0,0-0.1,0-0.1c0.3-0.9,2.7-7.2,0.4-9.2c-1.3-1.2-3.8-0.6-4.9-2.5c-0.1-0.1-0.7-1.2-0.5-2.5
			c0.6-3.3,7-4,6.9-5.6c0-0.6-1.2-0.8-3.3-1.6c-4.7-1.8-4.6-3.2-7.2-3.9c-3.9-1-7.9,1.2-10.8,2.8c-3.5,1.9-5.5,4.1-6.4,3.4
			c-0.8-0.6,0.7-2.9-0.5-4.6c-1.1-1.6-3.9-1.4-4.9-1.3c-5.8,0.4-8.6,4.7-10.3,3.6c-1.1-0.7,0.1-2.7-1.3-4.9
			c-1.4-2.2-3.5-1.5-6.1-3.4c-3-2.3-1.7-4.4-5.1-8.9c-1.1-1.5-3.2-4.3-6.7-5.6c-3.7-1.4-4.7,0.4-8.5-0.8c-4.3-1.4-4.4-4.2-8.1-4.7
			c-2.6-0.4-4.8,0.6-6.8,1.5c-5,2.3-5.1,4.9-7.8,5c-3.1,0.1-3.7-3.1-8.8-4.1c-1.7-0.3-3.5-0.6-4.7,0.3c-2,1.9,0.5,6.2-1.5,8
			C11.1-3.8,9-4,7.8-4.7C6.2-5.6,6.5-7.1,5.6-8.1C2.3-11.5-13.4-7.2-18,2.3c-0.8,1.6-1.5,3.8-3.7,5c-2.7,1.4-4.8,0-7.6,0
			c-4.8,0-7.7,4-18.2,16c0,0-2.1,2.4-9.2,10.5c-14.5,16.5-17.4,18.6-17.5,23.6c-0.2,8.6,0.8,12,0.8,12c0.5,1.7,1.6,4.4,0.3,6.1
			c-0.8,1.2-1.8,0.6-2.8,1.6c-2,2.1,1.1,6,0.6,12.7c0,0.2,0,0-0.8,4.6c-1.5,8.9-1.8,10.7-0.6,11.8c1,1,2.6,1,4.3,1
			c2.9,0,5-1.3,5.9-2c6.3-7.5,12.6-15,18.9-22.5c-2.6,5.4-5.3,9.4-7.3,12.2c-2.8,3.8-5.3,6.6-8,11.9c-0.8,1.6-1.7,3.4-2.6,6
			c-1.3,3.9-3.2,8.5-1.2,12.7c0.8,1.7,1.9,2.6,2.3,5c0.4,3-0.8,4.7,0.4,6.6c0.8,1.3,1.6,0.8,2.6,2.1c1.8,2.3-0.4,5.1,0.5,9.6
			c0.5,2.7,1.4,2,2,4.7c1.1,4.4-1,6.3-0.2,11.8c0.3,2.4,0.5,3.6,1.5,4.5c2.4,2.1,6-1.1,9.3,0.8c3,1.7,2,5.3,4.9,6.3
			c2,0.7,3-0.9,6.6-0.7c0.6,0,4.9,0.3,5.6,2.3c0.6,1.7-1.7,4.5-4.3,5.9c-6,3.3-13.4-1-14.3,0.6c-0.6,1.1,2,3.6,3.6,5.1
			c16.6,15.6,16.6,16.6,22.1,19.9c5.5,3.2,4.5,1.6,11.3,5.5c8.7,4.9,17.8,10,18.2,16.8c0.2,3.9-2.6,4.6-2.5,9.8
			c0.1,3.6,1.6,9.1,5.3,10.5c3.3,1.2,4.9-2.1,10-1.6c5.2,0.4,5.6,4.1,9.8,4.3c6.1,0.2,8.5-7,13.5-5.9c2.8,0.6,2.9,3.2,6.6,4.6
			c3.3,1.2,6.6,0.4,8.9-0.4c17.4-17.7,44.1-45.2,76.7-79.6c27.1-28.7,34.3-36.9,49.4-51.2c44-41.7,89.9-74.2,91.9-71.7
			c1.4,1.7-19.7,21.1-91.3,89.2c-49.7,47.2-90.4,86.2-118,112.7c0,5.6,1.5,7.6,2.8,8.4c3.5,2.2,8.1-2.9,12.6-0.1
			c1.5,1,4.4,3.5,5.4,7.3c0.7,2.7,0.1,4.8,1.9,6.6c1.1,1.2,1.8,0.6,3.2,1.8c3,2.8,1.7,5.7,4.2,7.8c2.7,2.3,6.3,0.7,7.3,2.9
			c0.6,1.3-0.8,2.2-0.3,4.3c0.5,2.4,2.6,2.4,3.1,4.2c0.7,2.9-4.4,4.7-5.7,9.8c-0.8,3.5,1.2,4.1,1,7.9c-0.4,7.7-9.3,9.6-9,15.6
			c0.2,3.7,3.8,7.5,7.4,7.9c5.7,0.8,7.6-7.1,13.9-7.1c7,0,9.5,9.9,15.5,9c4.3-0.7,4.9-6,10-6.2c3.2-0.2,4.9,1.8,7.1,0.6
			c2.1-1.1,2-3.7,4.3-4.4c1.3-0.3,2,0.2,3.1,0.3c4.1,0.3,9.3-6.5,11.5-13.3c2-6.1,0.2-8.3,2.9-13c2-3.5,4.8-5.4,6.1-6.4
			c9.1-6.6,19.8-16.7,30-26.4c13.7-13,15.1-18.3,24.3-23c1.4-0.7,4.5-2.2,7.9-5.3c5.3-4.7,7-9.5,9.2-13.8
			c6.8-13.1,14.1-13.5,27.9-33.8c0.6-0.9,3.7-5.4,3-6c-1.6-1.4-19.4,19-23.8,16c-1.2-0.8-1-3.1-0.9-4.1c1-9.7,13.8-13.1,31.6-28.4
			c4.6-4,3-3.1,8.2-7.7c13.8-12.2,28.7-21.5,32.6-29.1c2.3-4.5,3.8-9.4,3.8-9.4c0.4-1.5,0.5-2.2,0.8-2.9c1.6-4.5,4-6.2,11.3-14.3
			C347.7,99.6,348.6,97.6,348,96.3z M65.8,83.5c-5.2,6.4-10.7,11-15.5,14.5c2.7-4.6,6.8-10.4,13.1-15.7c2.5-2.1,5-3.9,7.3-5.3
			C69.2,79,67.6,81.2,65.8,83.5z M61.9,63.2c7.9-8.8,15.9-16.5,23.4-23c-5.8,7.7-12.7,16-21,24.4C59.1,69.9,53.9,74.7,48.8,79
			C52.8,73.8,57.1,68.5,61.9,63.2z M-30.5,62.5c1.5-3,3.7-6.9,7.2-10.5c1.3-1.4,2.7-2.6,4-3.5c-0.8,1.4-1.6,2.9-2.6,4.4
			C-24.8,57.1-27.9,60.2-30.5,62.5z M-16.5,198.1c-1.6,2-3.6,2.8-4.4,3.1c0-0.7,0-2.9,1.5-5.1c1.8-2.4,4.5-2.9,5.1-3
			C-14.4,193.9-14.8,196.1-16.5,198.1z M-21.8,120.7c5.4-6.6,10.8-13.3,16.3-19.9c0.2,1.6,0.4,3.3,0.6,4.9
			C-10.6,110.7-16.2,115.7-21.8,120.7z M7,220.9c-0.7,0.4-2.7-3.4-8.6-9.8c-1.5-1.7-3-3.1-2.6-4.7c0.3-1.4,2-2,3.6-2.9
			c2-1.2,4.7-3.3,7.1-7.6c-0.1,3.2-1,5.5-1.7,7c-0.8,1.6-2,3.1-1.4,4.3c0.4,0.8,1.5,0.6,2.2,1.5c0.9,1.1,0.2,2.6,0,4.4
			C4.9,217.5,7.7,220.5,7,220.9z M5.4,32.8c1.5-3,3.7-6.9,7.2-10.5c1.4-1.4,2.7-2.5,4-3.5c-0.8,1.4-1.6,2.9-2.6,4.4
			C11.1,27.4,8.1,30.5,5.4,32.8z M52.2,142.6c17.5-22.2,38.5-46.2,63.6-70.5c18.2-17.6,36-32.9,52.9-46.3
			c-12.3,11.7-24.7,23.6-37.1,35.8C103.9,88.7,77.4,115.9,52.2,142.6z M134.1,72.2c13.7-13.8,27.2-24.9,39.3-33.8
			c-7.3,8.6-14.9,17.2-22.9,25.9c-18.9,20.7-37.8,39.4-56.3,56.3C104.1,106.1,117.1,89.3,134.1,72.2z M164.6,102
			c18.2-15.8,36.1-30.3,53.5-43.6c-11.7,11.8-24,23.7-37.1,35.8c-26.1,24-51.9,45.2-76.6,63.9C122.6,139.8,142.7,121.1,164.6,102z
			 M192.9,104.2c-26.1,24-51.9,45.2-76.6,63.9c18.3-18.3,38.3-37.1,60.3-56c18.2-15.8,36.2-30.3,53.5-43.7
			C218.4,80.2,206,92.2,192.9,104.2z M288.7,78.4c-11.7,11.8-24,23.7-37.1,35.8c-26.1,24-51.9,45.2-76.6,63.9
			c18.3-18.2,38.3-37,60.3-56C253.5,106.2,271.4,91.7,288.7,78.4z M130.7,207.5c24.1-28.3,52.3-58.1,85.2-87.8
			c14.8-13.3,29.4-25.7,43.6-37.1c-15.9,16.2-31.9,32.4-47.9,48.6C184.7,156.6,157.7,182.1,130.7,207.5z M137,234.8
			c26.1-25.7,54-51.9,83.9-78.3c23.5-20.9,46.8-40.5,69.5-59.1c-18.5,17.6-37.5,35.4-57.1,53.1C200.9,180.1,168.7,208.1,137,234.8z
			 M141.3,251.5c18.2-21.3,40.8-44.9,68.4-68.5c23.1-19.7,45.5-36,66-49.2c-18,15.9-36.1,31.7-54.1,47.6
			C194.8,204.8,168,228.2,141.3,251.5z M275.4,156.5c-23.2,21.3-46.1,40.4-68.3,57.6c-18.4,15.9-36.5,30.4-54,43.7
			c18.3-18.2,38.3-37,60.3-56c16.5-14.3,32.8-27.6,48.6-39.9c17.2-14.9,34.1-28.5,50.5-41.1C300.9,132.5,288.5,144.5,275.4,156.5z
			 M266.8,158.1c-1.6,1.2-3.2,2.5-4.9,3.8c-1,0.8-2,1.7-3,2.5c-21.9,19-41.9,37.8-60.3,56c2.8-2.1,5.6-4.2,8.3-6.4
			c7.5-6.5,15.1-13.3,22.7-20.2C242.9,181.8,255.2,169.9,266.8,158.1z M262,161.9c-1,0.8-2,1.7-3,2.5c-21.9,19-41.9,37.8-60.3,56
			c2.8-2.1,5.6-4.2,8.3-6.4c7.5-6.5,15.1-13.3,22.7-20.2c13.1-12,25.4-23.9,37.1-35.8C265.3,159.3,263.6,160.6,262,161.9z
			 M262,161.9c-1,0.8-2,1.7-3,2.5c-21.9,19-41.9,37.8-60.3,56c2.8-2.1,5.6-4.2,8.3-6.4c7.5-6.5,15.1-13.3,22.7-20.2
			c13.1-12,25.4-23.9,37.1-35.8C265.3,159.3,263.6,160.6,262,161.9z M262,161.9c-1,0.8-2,1.7-3,2.5c-21.9,19-41.9,37.8-60.3,56
			c2.8-2.1,5.6-4.2,8.3-6.4c7.5-6.5,15.1-13.3,22.7-20.2c13.1-12,25.4-23.9,37.1-35.8C265.3,159.3,263.6,160.6,262,161.9z
			 M262,161.9c-1,0.8-2,1.7-3,2.5c-21.9,19-41.9,37.8-60.3,56c2.8-2.1,5.6-4.2,8.3-6.4c7.5-6.5,15.1-13.3,22.7-20.2
			c13.1-12,25.4-23.9,37.1-35.8C265.3,159.3,263.6,160.6,262,161.9z M262,161.9c-1,0.8-2,1.7-3,2.5c-21.9,19-41.9,37.8-60.3,56
			c2.8-2.1,5.6-4.2,8.3-6.4c7.5-6.5,15.1-13.3,22.7-20.2c13.1-12,25.4-23.9,37.1-35.8C265.3,159.3,263.6,160.6,262,161.9z
			 M262,161.9c-1,0.8-2,1.7-3,2.5c-21.9,19-41.9,37.8-60.3,56c2.8-2.1,5.6-4.2,8.3-6.4c7.5-6.5,15.1-13.3,22.7-20.2
			c13.1-12,25.4-23.9,37.1-35.8C265.3,159.3,263.6,160.6,262,161.9z M262,161.9c-1,0.8-2,1.7-3,2.5c-21.9,19-41.9,37.8-60.3,56
			c2.8-2.1,5.6-4.2,8.3-6.4c7.5-6.5,15.1-13.3,22.7-20.2c13.1-12,25.4-23.9,37.1-35.8C265.3,159.3,263.6,160.6,262,161.9z
			 M262,161.9c-1,0.8-2,1.7-3,2.5c-21.9,19-41.9,37.8-60.3,56c2.8-2.1,5.6-4.2,8.3-6.4c7.5-6.5,15.1-13.3,22.7-20.2
			c13.1-12,25.4-23.9,37.1-35.8C265.3,159.3,263.6,160.6,262,161.9z"/>
	</defs>
	<clipPath id="SVGID_2_">
		<use xlink:href="#SVGID_1_"  style="overflow:visible;"/>
	</clipPath>
	<path class="st0" d="M215.3,21.9v189.9c-2.8,3-5.5,6.1-8.3,9.2c-2.7,3-5.5,6-8.2,9c-0.4,0.4-0.7,0.8-1.1,1.2
		c-2.4,2.7-4.9,5.4-7.3,8H46.3l-7-7V21.9c2.3-2.2,4.6-4.5,6.9-6.7h162.2C210.7,17.4,213,19.7,215.3,21.9z"/>
	<path class="st1" d="M215.3,21.9v189.9c-2.8,3-5.5,6.1-8.3,9.2c-2.7,3-5.5,6-8.2,9c-0.4,0.4-0.7,0.8-1.1,1.2
		c-2.4,2.7-4.9,5.4-7.3,8H46.3l-7-7V21.9c2.3-2.2,4.6-4.5,6.9-6.7h162.2C210.7,17.4,213,19.7,215.3,21.9z"/>
</g>
<g>
	<path class="st2" d="M147.3,178.1h-1.2v-5.2h1.2v0.5c0.2-0.4,0.6-0.7,1.1-0.7c0.4,0,0.7,0.1,1,0.4l-0.2,1.1
		c-0.3-0.2-0.6-0.3-0.9-0.3c-0.3,0-0.5,0.1-0.7,0.3c-0.2,0.2-0.3,0.5-0.3,1L147.3,178.1L147.3,178.1z M152.4,178.3
		c-0.7,0-1.3-0.2-1.8-0.7c-0.4-0.5-0.6-1.2-0.6-2c0-0.8,0.2-1.5,0.7-2c0.4-0.5,1-0.7,1.8-0.7c0.7,0,1.2,0.2,1.6,0.6
		c0.4,0.4,0.6,1,0.6,1.8c0,0.3,0,0.5,0,0.7h-3.5c0,0.4,0.1,0.7,0.4,0.9c0.2,0.2,0.5,0.3,0.8,0.3c0.5,0,0.8-0.2,1.1-0.5l0.8,0.8
		C153.8,178,153.2,178.3,152.4,178.3z M151.2,175h2.3c0-0.4-0.1-0.7-0.3-0.9c-0.2-0.2-0.5-0.3-0.7-0.3c-0.3,0-0.6,0.1-0.8,0.3
		C151.3,174.3,151.2,174.6,151.2,175L151.2,175z M157.1,178.1h-1.2v-6.8l1.2-0.6L157.1,178.1L157.1,178.1z M160.9,178.3
		c-0.7,0-1.3-0.2-1.8-0.7c-0.4-0.5-0.6-1.2-0.6-2c0-0.8,0.2-1.5,0.7-2c0.4-0.5,1-0.7,1.8-0.7c0.7,0,1.2,0.2,1.6,0.6
		c0.4,0.4,0.6,1,0.6,1.8c0,0.3,0,0.5,0,0.7h-3.5c0,0.4,0.1,0.7,0.4,0.9c0.2,0.2,0.5,0.3,0.8,0.3c0.5,0,0.8-0.2,1.1-0.5l0.8,0.8
		C162.3,178,161.7,178.3,160.9,178.3L160.9,178.3z M159.7,175h2.3c0-0.4-0.1-0.7-0.3-0.9c-0.2-0.2-0.5-0.3-0.7-0.3
		c-0.3,0-0.6,0.1-0.8,0.3C159.8,174.3,159.7,174.6,159.7,175L159.7,175z M168.5,178.1h-1.2v-0.4c-0.3,0.4-0.8,0.5-1.4,0.5
		c-0.6,0-1-0.2-1.4-0.5c-0.4-0.3-0.5-0.7-0.5-1.3c0-0.6,0.2-1,0.6-1.3c0.4-0.3,0.9-0.4,1.4-0.4c0.5,0,0.9,0.1,1.2,0.3v-0.3
		c0-0.3-0.1-0.6-0.3-0.7c-0.2-0.1-0.4-0.2-0.8-0.2c-0.6,0-1.1,0.2-1.6,0.5l-0.4-1c0.6-0.4,1.2-0.6,2-0.6c0.3,0,0.5,0,0.7,0.1
		c0.2,0,0.4,0.1,0.6,0.3c0.2,0.1,0.4,0.3,0.5,0.6c0.1,0.3,0.2,0.6,0.2,1L168.5,178.1L168.5,178.1z M166.2,177.2
		c0.5,0,0.8-0.2,1.2-0.5V176c-0.3-0.1-0.6-0.2-1-0.2c-0.3,0-0.6,0.1-0.8,0.2c-0.2,0.1-0.3,0.3-0.3,0.5c0,0.2,0.1,0.4,0.2,0.5
		C165.7,177.2,165.9,177.2,166.2,177.2L166.2,177.2z M171.6,178.3c-0.4,0-0.8-0.1-1.2-0.2c-0.4-0.2-0.7-0.4-0.8-0.7l0.8-0.7
		c0.4,0.4,0.8,0.6,1.2,0.6c0.6,0,0.8-0.2,0.8-0.5c0-0.1,0-0.2-0.1-0.3s-0.2-0.2-0.3-0.2s-0.3-0.1-0.5-0.2c-0.6-0.2-1-0.4-1.3-0.7
		c-0.3-0.3-0.4-0.6-0.4-1c0-0.5,0.2-0.8,0.5-1.1s0.8-0.4,1.3-0.4c0.8,0,1.4,0.3,1.9,0.8l-0.8,0.7c-0.3-0.3-0.7-0.4-1-0.4
		c-0.5,0-0.7,0.1-0.7,0.4c0,0.1,0.1,0.3,0.3,0.4c0.2,0.1,0.4,0.2,0.8,0.3c0.6,0.2,1,0.4,1.3,0.7c0.3,0.3,0.4,0.6,0.4,1.1
		c0,0.5-0.2,0.9-0.5,1.1C172.7,178.1,172.3,178.3,171.6,178.3z M177.1,178.3c-0.7,0-1.3-0.2-1.8-0.7c-0.4-0.5-0.6-1.2-0.6-2
		c0-0.8,0.2-1.5,0.7-2c0.4-0.5,1-0.7,1.8-0.7c0.7,0,1.2,0.2,1.6,0.6c0.4,0.4,0.6,1,0.6,1.8c0,0.3,0,0.5,0,0.7h-3.5
		c0,0.4,0.1,0.7,0.4,0.9c0.2,0.2,0.5,0.3,0.8,0.3c0.5,0,0.8-0.2,1.1-0.5l0.8,0.8C178.5,178,177.9,178.3,177.1,178.3z M175.9,175h2.3
		c0-0.4-0.1-0.7-0.3-0.9c-0.2-0.2-0.5-0.3-0.7-0.3c-0.3,0-0.6,0.1-0.8,0.3C176,174.3,175.9,174.6,175.9,175L175.9,175z M182.5,178.3
		c-0.7,0-1.2-0.2-1.6-0.7c-0.4-0.5-0.6-1.2-0.6-2c0-0.8,0.2-1.5,0.6-2c0.4-0.5,0.9-0.7,1.6-0.7c0.5,0,0.9,0.2,1.2,0.5v-2l1.2-0.5
		v7.4h-1.2v-0.4C183.4,178.1,183,178.3,182.5,178.3z M182.7,177.1c0.4,0,0.8-0.2,1-0.5v-2.2c-0.2-0.3-0.6-0.5-1-0.5
		c-0.4,0-0.7,0.1-0.9,0.4c-0.2,0.3-0.3,0.7-0.3,1.2c0,0.5,0.1,0.9,0.3,1.2C182,177,182.3,177.1,182.7,177.1L182.7,177.1z M137,172
		c-0.1,0.1-0.3,0.2-0.5,0.2c-0.2,0-0.4-0.1-0.5-0.2c-0.1-0.1-0.2-0.3-0.2-0.5c0-0.2,0.1-0.4,0.2-0.5c0.1-0.1,0.3-0.2,0.5-0.2
		c0.2,0,0.4,0.1,0.5,0.2c0.1,0.1,0.2,0.3,0.2,0.5C137.2,171.7,137.1,171.9,137,172z M137.1,178.1h-1.2v-5.2h1.2V178.1z M140.3,178.3
		c-0.4,0-0.8-0.1-1.2-0.2c-0.4-0.2-0.7-0.4-0.8-0.7l0.8-0.7c0.4,0.4,0.8,0.6,1.2,0.6c0.6,0,0.8-0.2,0.8-0.5c0-0.1,0-0.2-0.1-0.3
		c-0.1-0.1-0.2-0.2-0.3-0.2c-0.1-0.1-0.3-0.1-0.5-0.2c-0.6-0.2-1-0.4-1.3-0.7c-0.3-0.3-0.4-0.6-0.4-1c0-0.5,0.2-0.8,0.5-1.1
		c0.4-0.3,0.8-0.4,1.3-0.4c0.8,0,1.4,0.3,1.9,0.8l-0.8,0.7c-0.3-0.3-0.7-0.4-1-0.4c-0.5,0-0.7,0.1-0.7,0.4c0,0.1,0.1,0.3,0.3,0.4
		c0.2,0.1,0.4,0.2,0.8,0.3c0.6,0.2,1,0.4,1.3,0.7c0.3,0.3,0.4,0.6,0.4,1.1c0,0.5-0.2,0.9-0.5,1.1
		C141.4,178.1,140.9,178.3,140.3,178.3L140.3,178.3z M116.2,178.1h-4.9c0-1.7,0.8-3,2.5-3.9c0.3-0.2,0.6-0.4,0.8-0.6
		c0.2-0.2,0.3-0.4,0.3-0.7c0-0.3-0.1-0.5-0.3-0.7c-0.2-0.2-0.5-0.3-0.8-0.3c-0.6,0-1.1,0.3-1.3,0.9l-1.1-0.5
		c0.2-0.5,0.5-0.8,0.9-1.1c0.4-0.3,0.9-0.4,1.5-0.4c0.7,0,1.3,0.2,1.7,0.6c0.4,0.4,0.6,0.9,0.6,1.5c0,0.6-0.1,1-0.4,1.3
		c-0.3,0.3-0.7,0.6-1.3,1c-0.5,0.3-0.9,0.5-1.1,0.8c-0.3,0.3-0.4,0.6-0.5,0.9h3.5L116.2,178.1L116.2,178.1z M120.2,178.3
		c-0.4,0-0.7-0.1-1-0.2s-0.6-0.3-0.7-0.6c-0.2-0.2-0.3-0.5-0.5-0.8c-0.1-0.3-0.2-0.7-0.3-1c-0.1-0.3-0.1-0.7-0.1-1.1
		c0-0.4,0-0.7,0.1-1c0-0.3,0.1-0.7,0.3-1c0.1-0.3,0.3-0.6,0.5-0.9c0.2-0.2,0.4-0.4,0.7-0.6s0.7-0.2,1-0.2c0.5,0,0.9,0.1,1.3,0.3
		c0.4,0.2,0.6,0.5,0.8,0.9c0.2,0.4,0.3,0.8,0.4,1.2c0.1,0.4,0.1,0.9,0.1,1.3c0,0.5,0,0.9-0.1,1.3c-0.1,0.4-0.2,0.8-0.4,1.2
		c-0.2,0.4-0.5,0.7-0.8,0.9C121.1,178.2,120.7,178.3,120.2,178.3L120.2,178.3z M120.2,177.1c0.3,0,0.5-0.1,0.7-0.2s0.3-0.3,0.4-0.6
		c0.1-0.3,0.2-0.5,0.2-0.8c0-0.3,0.1-0.6,0.1-0.9c0-0.3,0-0.7-0.1-0.9c0-0.3-0.1-0.5-0.2-0.8c-0.1-0.2-0.2-0.4-0.4-0.6
		c-0.2-0.1-0.4-0.2-0.7-0.2c-0.3,0-0.5,0.1-0.7,0.2c-0.2,0.1-0.3,0.3-0.4,0.6c-0.1,0.3-0.2,0.5-0.2,0.8c0,0.3-0.1,0.6-0.1,0.9
		c0,0.3,0,0.6,0.1,0.9c0,0.3,0.1,0.6,0.2,0.8c0.1,0.2,0.2,0.4,0.4,0.6C119.7,177,119.9,177.1,120.2,177.1z M125.3,178
		c-0.2,0.2-0.4,0.2-0.6,0.2c-0.2,0-0.4-0.1-0.6-0.2c-0.2-0.2-0.2-0.3-0.2-0.6c0-0.2,0.1-0.4,0.2-0.6c0.2-0.2,0.4-0.2,0.6-0.2
		c0.2,0,0.4,0.1,0.6,0.2c0.2,0.2,0.2,0.3,0.2,0.6C125.5,177.7,125.4,177.9,125.3,178z M129.2,178.3c-0.4,0-0.7-0.1-1-0.2
		s-0.6-0.3-0.7-0.6c-0.2-0.2-0.3-0.5-0.5-0.8c-0.1-0.3-0.2-0.7-0.3-1c-0.1-0.3-0.1-0.7-0.1-1.1c0-0.4,0-0.7,0.1-1
		c0-0.3,0.1-0.7,0.3-1c0.1-0.3,0.3-0.6,0.5-0.9c0.2-0.2,0.4-0.4,0.7-0.6c0.3-0.2,0.7-0.2,1-0.2c0.5,0,0.9,0.1,1.3,0.3
		c0.4,0.2,0.6,0.5,0.8,0.9c0.2,0.4,0.3,0.8,0.4,1.2c0.1,0.4,0.1,0.9,0.1,1.3c0,0.5,0,0.9-0.1,1.3c-0.1,0.4-0.2,0.8-0.4,1.2
		c-0.2,0.4-0.5,0.7-0.8,0.9C130.1,178.2,129.7,178.3,129.2,178.3L129.2,178.3z M129.2,177.1c0.3,0,0.5-0.1,0.7-0.2s0.3-0.3,0.4-0.6
		c0.1-0.3,0.2-0.5,0.2-0.8c0-0.3,0.1-0.6,0.1-0.9c0-0.3,0-0.7-0.1-0.9c0-0.3-0.1-0.5-0.2-0.8c-0.1-0.2-0.2-0.4-0.4-0.6
		c-0.2-0.1-0.4-0.2-0.7-0.2c-0.3,0-0.5,0.1-0.7,0.2c-0.2,0.1-0.3,0.3-0.4,0.6c-0.1,0.3-0.2,0.5-0.2,0.8c0,0.3-0.1,0.6-0.1,0.9
		c0,0.3,0,0.6,0.1,0.9c0,0.3,0.1,0.6,0.2,0.8c0.1,0.2,0.2,0.4,0.4,0.6C128.8,177,129,177.1,129.2,177.1L129.2,177.1z M76.1,178.3
		c-0.7,0-1.2-0.2-1.7-0.5c-0.5-0.3-0.8-0.8-1-1.4l1.1-0.4c0.2,0.3,0.4,0.6,0.6,0.8c0.3,0.2,0.6,0.3,1,0.3c0.4,0,0.7-0.1,0.9-0.3
		c0.2-0.2,0.3-0.4,0.3-0.7c0-0.1,0-0.3-0.1-0.4c-0.1-0.1-0.1-0.2-0.2-0.3c-0.1-0.1-0.2-0.2-0.4-0.2c-0.2-0.1-0.3-0.1-0.4-0.2
		c-0.1,0-0.3-0.1-0.5-0.2c-0.3-0.1-0.5-0.2-0.6-0.2c-0.1-0.1-0.3-0.1-0.6-0.3c-0.2-0.1-0.4-0.3-0.5-0.4c-0.1-0.1-0.2-0.3-0.3-0.5
		c-0.1-0.2-0.1-0.5-0.1-0.7c0-0.5,0.2-1,0.6-1.4c0.4-0.4,1-0.6,1.7-0.6c0.6,0,1.1,0.1,1.5,0.4c0.4,0.3,0.7,0.7,0.8,1.1l-1.1,0.4
		c-0.2-0.5-0.6-0.7-1.3-0.7c-0.3,0-0.6,0.1-0.8,0.2c-0.2,0.1-0.3,0.3-0.3,0.6c0,0.2,0.1,0.3,0.2,0.4c0.1,0.1,0.3,0.2,0.4,0.3
		c0.2,0.1,0.4,0.1,0.7,0.3l0.5,0.2c0.1,0,0.3,0.1,0.4,0.2c0.2,0.1,0.3,0.2,0.4,0.2c0.1,0.1,0.2,0.2,0.4,0.3c0.1,0.1,0.2,0.3,0.3,0.4
		c0.1,0.1,0.1,0.3,0.2,0.5c0.1,0.2,0.1,0.4,0.1,0.6c0,0.7-0.2,1.2-0.7,1.6C77.5,178.1,76.9,178.3,76.1,178.3L76.1,178.3z
		 M84.3,178.1h-1.2v-0.5c-0.3,0.4-0.8,0.6-1.4,0.6c-0.5,0-1-0.2-1.3-0.5c-0.3-0.3-0.5-0.9-0.5-1.6v-3.2h1.2v3c0,0.8,0.3,1.2,1,1.2
		c0.7,0,1.1-0.4,1.1-1.2v-3h1.2V178.1L84.3,178.1z M87.1,178.1h-1.2v-5.2h1.2v0.5c0.2-0.4,0.6-0.7,1.1-0.7c0.4,0,0.7,0.1,1,0.4
		l-0.2,1.1c-0.3-0.2-0.6-0.3-0.9-0.3c-0.3,0-0.5,0.1-0.7,0.3c-0.2,0.2-0.3,0.5-0.3,1L87.1,178.1L87.1,178.1z M94.4,178.1h-1.2v-0.5
		c-0.3,0.4-0.8,0.6-1.4,0.6c-0.5,0-1-0.2-1.3-0.5c-0.3-0.3-0.5-0.9-0.5-1.6v-3.2h1.2v3c0,0.8,0.3,1.2,1,1.2c0.7,0,1.1-0.4,1.1-1.2
		v-3h1.2L94.4,178.1L94.4,178.1z M100.8,175.2H99v1.8h-1.2v-1.8H96v-1.2h1.8v-1.8H99v1.8h1.8L100.8,175.2L100.8,175.2z M107.3,175.2
		h-1.8v1.8h-1.2v-1.8h-1.8v-1.2h1.8v-1.8h1.2v1.8h1.8V175.2z M67.1,176.6c-0.1,0-0.1,0-0.1-0.1c0,0,0-0.1,0.1-0.2l0.5-1.3l-4.5,0.1
		v-1.2l4.5,0.1l-0.5-1.3c0-0.1-0.1-0.2-0.1-0.2c0-0.1,0-0.1,0.1-0.1c0,0,0.1,0,0.2,0.1l2.8,1.9c0.1,0,0.1,0.1,0.1,0.2
		c0,0.1,0,0.1-0.1,0.2l-2.8,1.9C67.2,176.6,67.1,176.6,67.1,176.6L67.1,176.6z"/>
	<path class="st2" d="M68.9,164.5h-5.6c0-1.9,1-3.4,2.9-4.4c0.4-0.2,0.7-0.4,0.9-0.6c0.2-0.2,0.3-0.5,0.3-0.8c0-0.3-0.1-0.6-0.3-0.8
		c-0.2-0.2-0.5-0.3-0.9-0.3c-0.7,0-1.2,0.3-1.5,1l-1.2-0.6c0.2-0.5,0.6-1,1.1-1.3c0.5-0.3,1.1-0.5,1.7-0.5c0.8,0,1.4,0.2,1.9,0.7
		c0.5,0.4,0.7,1,0.7,1.7c0,0.6-0.2,1.1-0.5,1.5c-0.3,0.4-0.8,0.7-1.5,1.1c-0.6,0.3-1,0.6-1.3,0.9c-0.3,0.3-0.5,0.6-0.6,1h3.9
		L68.9,164.5L68.9,164.5z M73.4,164.6c-0.4,0-0.8-0.1-1.2-0.2c-0.3-0.2-0.6-0.4-0.8-0.6c-0.2-0.3-0.4-0.6-0.5-1
		c-0.1-0.4-0.2-0.7-0.3-1.1c-0.1-0.4-0.1-0.8-0.1-1.2c0-0.4,0-0.8,0.1-1.2c0.1-0.4,0.2-0.7,0.3-1.1c0.1-0.4,0.3-0.7,0.5-1
		c0.2-0.3,0.5-0.5,0.8-0.7c0.3-0.2,0.7-0.3,1.2-0.3c0.5,0,1,0.1,1.4,0.4c0.4,0.2,0.7,0.6,0.9,1s0.4,0.9,0.5,1.3
		c0.1,0.5,0.1,1,0.1,1.5c0,0.5,0,1-0.1,1.5c-0.1,0.5-0.2,0.9-0.5,1.3c-0.2,0.4-0.5,0.8-0.9,1C74.4,164.5,73.9,164.6,73.4,164.6
		L73.4,164.6z M73.4,163.3c0.3,0,0.5-0.1,0.7-0.2c0.2-0.2,0.4-0.4,0.5-0.7c0.1-0.3,0.2-0.6,0.2-0.9c0-0.3,0.1-0.7,0.1-1
		c0-0.4,0-0.7-0.1-1.1c0-0.3-0.1-0.6-0.2-0.9s-0.3-0.5-0.5-0.7c-0.2-0.2-0.5-0.2-0.7-0.2c-0.3,0-0.5,0.1-0.7,0.2
		c-0.2,0.2-0.4,0.4-0.5,0.7c-0.1,0.3-0.2,0.6-0.2,0.9c0,0.3-0.1,0.7-0.1,1c0,0.4,0,0.7,0.1,1c0,0.3,0.1,0.6,0.2,0.9s0.3,0.5,0.5,0.7
		C72.9,163.2,73.1,163.3,73.4,163.3L73.4,163.3z M80.2,164.5h-1.4v-6.1h-1.3v-1.1c0.9,0,1.4-0.3,1.6-0.9h1.1L80.2,164.5L80.2,164.5z
		 M87.5,163.9c-0.5,0.5-1.2,0.7-2.1,0.7s-1.5-0.2-2.1-0.7c-0.5-0.5-0.8-1.1-0.8-1.8c0-0.9,0.4-1.6,1.3-2c-0.7-0.4-1-0.9-1-1.7
		c0-0.6,0.2-1.1,0.7-1.5c0.5-0.4,1.1-0.6,1.8-0.6s1.4,0.2,1.8,0.6c0.5,0.4,0.7,0.9,0.7,1.5c0,0.7-0.3,1.3-1,1.7
		c0.4,0.2,0.7,0.5,1,0.8c0.2,0.3,0.4,0.7,0.4,1.2C88.3,162.8,88,163.4,87.5,163.9z M84.6,159.2c0.2,0.2,0.5,0.3,0.8,0.3
		s0.6-0.1,0.8-0.3c0.2-0.2,0.3-0.4,0.3-0.7c0-0.3-0.1-0.5-0.3-0.7c-0.2-0.2-0.5-0.3-0.8-0.3s-0.6,0.1-0.8,0.3
		c-0.2,0.2-0.3,0.4-0.3,0.7C84.3,158.8,84.4,159,84.6,159.2z M84.4,163c0.3,0.2,0.6,0.4,1,0.4c0.4,0,0.8-0.1,1-0.4
		c0.3-0.2,0.4-0.6,0.4-0.9c0-0.4-0.1-0.7-0.4-0.9c-0.3-0.3-0.6-0.4-1-0.4c-0.4,0-0.8,0.1-1,0.4c-0.3,0.2-0.4,0.6-0.4,0.9
		C84,162.4,84.1,162.7,84.4,163L84.4,163z M92.8,161.7h-2.9v-1.3h2.9L92.8,161.7L92.8,161.7z M97.4,164.6c-0.4,0-0.8-0.1-1.2-0.2
		c-0.3-0.2-0.6-0.4-0.8-0.6c-0.2-0.3-0.4-0.6-0.5-1c-0.1-0.4-0.2-0.7-0.3-1.1c-0.1-0.4-0.1-0.8-0.1-1.2c0-0.4,0-0.8,0.1-1.2
		c0.1-0.4,0.2-0.8,0.3-1.1c0.1-0.4,0.3-0.7,0.5-1c0.2-0.3,0.5-0.5,0.8-0.7s0.7-0.3,1.2-0.3c0.5,0,1,0.1,1.4,0.4
		c0.4,0.2,0.7,0.6,0.9,1c0.2,0.4,0.4,0.9,0.5,1.3c0.1,0.5,0.1,1,0.1,1.5c0,0.5,0,1-0.1,1.5c-0.1,0.5-0.2,0.9-0.5,1.3
		c-0.2,0.4-0.5,0.8-0.9,1C98.4,164.5,97.9,164.6,97.4,164.6L97.4,164.6z M97.4,163.3c0.3,0,0.5-0.1,0.7-0.2c0.2-0.2,0.4-0.4,0.5-0.7
		c0.1-0.3,0.2-0.6,0.2-0.9c0.1-0.3,0.1-0.7,0.1-1c0-0.4,0-0.7-0.1-1.1c0-0.3-0.1-0.6-0.2-0.9c-0.1-0.3-0.3-0.5-0.5-0.7
		c-0.2-0.2-0.5-0.2-0.7-0.2c-0.3,0-0.5,0.1-0.7,0.2c-0.2,0.2-0.4,0.4-0.5,0.7s-0.2,0.6-0.2,0.9c0,0.3-0.1,0.7-0.1,1
		c0,0.4,0,0.7,0.1,1c0.1,0.3,0.1,0.6,0.2,0.9c0.1,0.3,0.3,0.5,0.5,0.7C96.9,163.2,97.1,163.3,97.4,163.3L97.4,163.3z M103.1,164.6
		v-1.3c1.5-0.1,2.5-0.8,2.8-2.3c-0.3,0.3-0.8,0.5-1.5,0.5c-0.8,0-1.4-0.2-1.9-0.7c-0.5-0.5-0.7-1.1-0.7-1.9c0-0.8,0.3-1.4,0.8-1.9
		c0.5-0.5,1.2-0.7,2.1-0.7c1,0,1.7,0.3,2.1,0.9c0.5,0.6,0.7,1.3,0.7,2.3c0,1.6-0.4,2.8-1.1,3.7C105.6,164.1,104.5,164.6,103.1,164.6
		L103.1,164.6z M103.5,159.8c0.3,0.2,0.6,0.3,1,0.3c0.4,0,0.8-0.1,1.1-0.3c0.3-0.2,0.4-0.5,0.4-0.9c0-0.4-0.1-0.7-0.4-0.9
		c-0.3-0.2-0.6-0.3-1-0.3s-0.8,0.1-1,0.3c-0.3,0.2-0.4,0.5-0.4,0.9C103.1,159.3,103.2,159.6,103.5,159.8L103.5,159.8z M111.9,161.7
		H109v-1.3h2.9L111.9,161.7L111.9,161.7z M116.5,164.6c-0.4,0-0.8-0.1-1.2-0.2c-0.3-0.2-0.6-0.4-0.8-0.6c-0.2-0.3-0.4-0.6-0.5-1
		c-0.1-0.4-0.2-0.7-0.3-1.1c-0.1-0.4-0.1-0.8-0.1-1.2c0-0.4,0-0.8,0.1-1.2c0.1-0.4,0.2-0.8,0.3-1.1c0.1-0.4,0.3-0.7,0.5-1
		c0.2-0.3,0.5-0.5,0.8-0.7c0.3-0.2,0.7-0.3,1.2-0.3c0.5,0,1,0.1,1.4,0.4c0.4,0.2,0.7,0.6,0.9,1c0.2,0.4,0.4,0.9,0.5,1.3
		c0.1,0.5,0.1,1,0.1,1.5c0,0.5,0,1-0.1,1.5c-0.1,0.5-0.2,0.9-0.5,1.3c-0.2,0.4-0.5,0.8-0.9,1C117.5,164.5,117.1,164.6,116.5,164.6
		L116.5,164.6z M116.5,163.3c0.3,0,0.5-0.1,0.7-0.2c0.2-0.2,0.4-0.4,0.5-0.7c0.1-0.3,0.2-0.6,0.2-0.9c0-0.3,0.1-0.7,0.1-1
		c0-0.4,0-0.7-0.1-1.1c-0.1-0.3-0.1-0.6-0.2-0.9c-0.1-0.3-0.3-0.5-0.5-0.7c-0.2-0.2-0.5-0.2-0.7-0.2c-0.3,0-0.5,0.1-0.7,0.2
		c-0.2,0.2-0.4,0.4-0.5,0.7s-0.2,0.6-0.2,0.9c0,0.3-0.1,0.7-0.1,1c0,0.4,0,0.7,0.1,1c0,0.3,0.1,0.6,0.2,0.9c0.1,0.3,0.3,0.5,0.5,0.7
		C116,163.2,116.2,163.3,116.5,163.3L116.5,163.3z M123.3,164.5h-1.4v-6.1h-1.3v-1.1c0.9,0,1.4-0.3,1.6-0.9h1.1L123.3,164.5
		L123.3,164.5z"/>
	<path class="st2" d="M170,149h-1.2v-0.4c-0.3,0.4-0.8,0.5-1.4,0.5c-0.6,0-1-0.2-1.4-0.5c-0.4-0.3-0.5-0.7-0.5-1.3
		c0-0.6,0.2-1,0.6-1.3c0.4-0.3,0.9-0.4,1.4-0.4c0.5,0,0.9,0.1,1.2,0.3v-0.3c0-0.3-0.1-0.6-0.3-0.7c-0.2-0.2-0.4-0.2-0.8-0.2
		c-0.6,0-1.1,0.2-1.6,0.5l-0.4-1c0.6-0.4,1.2-0.6,2-0.6c0.3,0,0.5,0,0.7,0.1c0.2,0,0.4,0.1,0.6,0.3c0.2,0.1,0.4,0.3,0.5,0.6
		c0.1,0.3,0.2,0.6,0.2,1L170,149L170,149z M167.7,148.1c0.5,0,0.8-0.2,1.2-0.5v-0.7c-0.3-0.1-0.6-0.2-1-0.2c-0.3,0-0.6,0.1-0.8,0.2
		c-0.2,0.1-0.3,0.3-0.3,0.5c0,0.2,0.1,0.4,0.2,0.5C167.1,148,167.4,148.1,167.7,148.1z M173.3,149.1c-0.7,0-1.2-0.2-1.6-0.7
		c-0.4-0.5-0.6-1.2-0.6-2c0-0.8,0.2-1.5,0.6-2c0.4-0.5,0.9-0.7,1.6-0.7c0.5,0,0.9,0.2,1.2,0.5v-2l1.2-0.5v7.4h-1.2v-0.4
		C174.2,149,173.9,149.1,173.3,149.1L173.3,149.1z M173.5,148c0.4,0,0.8-0.2,1-0.5v-2.2c-0.2-0.3-0.6-0.5-1-0.5
		c-0.4,0-0.7,0.1-0.9,0.4c-0.2,0.3-0.3,0.7-0.3,1.2c0,0.5,0.1,0.9,0.3,1.2C172.9,147.9,173.2,148,173.5,148L173.5,148z M179.2,149.1
		c-0.7,0-1.2-0.2-1.6-0.7c-0.4-0.5-0.6-1.2-0.6-2c0-0.8,0.2-1.5,0.6-2s0.9-0.7,1.6-0.7c0.5,0,0.9,0.2,1.2,0.5v-2l1.2-0.5v7.4h-1.2
		v-0.4C180.1,149,179.7,149.1,179.2,149.1L179.2,149.1z M179.3,148c0.4,0,0.8-0.2,1-0.5v-2.2c-0.2-0.3-0.6-0.5-1-0.5
		c-0.4,0-0.7,0.1-0.9,0.4c-0.2,0.3-0.3,0.7-0.3,1.2c0,0.5,0.1,0.9,0.3,1.2C178.7,147.9,179,148,179.3,148L179.3,148z M185.2,149.1
		c-0.7,0-1.3-0.2-1.8-0.7c-0.4-0.5-0.6-1.2-0.6-2c0-0.8,0.2-1.5,0.7-2c0.4-0.5,1-0.7,1.8-0.7c0.7,0,1.2,0.2,1.6,0.6
		c0.4,0.4,0.6,1,0.6,1.8c0,0.3,0,0.5,0,0.7H184c0,0.4,0.1,0.7,0.4,0.9c0.2,0.2,0.5,0.3,0.8,0.3c0.5,0,0.8-0.2,1.1-0.5l0.8,0.8
		C186.6,148.9,186,149.1,185.2,149.1L185.2,149.1z M184,145.9h2.3c0-0.4-0.1-0.7-0.3-0.9c-0.2-0.2-0.5-0.3-0.7-0.3
		c-0.3,0-0.6,0.1-0.8,0.3C184.1,145.2,184,145.5,184,145.9L184,145.9z M190.6,149.1c-0.7,0-1.2-0.2-1.6-0.7c-0.4-0.5-0.6-1.2-0.6-2
		c0-0.8,0.2-1.5,0.6-2s0.9-0.7,1.6-0.7c0.5,0,0.9,0.2,1.2,0.5v-2l1.2-0.5v7.4h-1.2v-0.4C191.5,149,191.2,149.1,190.6,149.1
		L190.6,149.1z M190.8,148c0.4,0,0.8-0.2,1-0.5v-2.2c-0.2-0.3-0.6-0.5-1-0.5c-0.4,0-0.7,0.1-0.9,0.4c-0.2,0.3-0.3,0.7-0.3,1.2
		c0,0.5,0.1,0.9,0.3,1.2C190.2,147.9,190.5,148,190.8,148L190.8,148z M156.8,142.9c-0.1,0.1-0.3,0.2-0.5,0.2c-0.2,0-0.4-0.1-0.5-0.2
		c-0.1-0.1-0.2-0.3-0.2-0.5c0-0.2,0.1-0.4,0.2-0.5c0.1-0.1,0.3-0.2,0.5-0.2c0.2,0,0.4,0.1,0.5,0.2c0.1,0.1,0.2,0.3,0.2,0.5
		C157,142.6,156.9,142.7,156.8,142.9L156.8,142.9z M156.8,149h-1.2v-5.2h1.2V149z M160.1,149.1c-0.4,0-0.8-0.1-1.2-0.2
		c-0.4-0.2-0.7-0.4-0.8-0.7l0.8-0.7c0.4,0.4,0.8,0.6,1.2,0.6c0.6,0,0.8-0.2,0.8-0.5c0-0.1,0-0.2-0.1-0.3s-0.2-0.2-0.3-0.2
		c-0.1-0.1-0.3-0.1-0.5-0.2c-0.6-0.2-1-0.4-1.3-0.7c-0.3-0.3-0.4-0.6-0.4-1c0-0.5,0.2-0.8,0.5-1.1c0.4-0.3,0.8-0.4,1.3-0.4
		c0.8,0,1.4,0.3,1.9,0.8l-0.8,0.7c-0.3-0.3-0.7-0.4-1-0.4c-0.5,0-0.7,0.1-0.7,0.4c0,0.1,0.1,0.3,0.3,0.4s0.4,0.2,0.8,0.3
		c0.6,0.2,1,0.4,1.3,0.7c0.3,0.3,0.4,0.6,0.4,1.1c0,0.5-0.2,0.9-0.5,1.1C161.2,149,160.7,149.1,160.1,149.1L160.1,149.1z M116.3,143
		h-2v6H113v-6h-2v-1.2h5.3C116.3,141.9,116.3,143,116.3,143z M119.6,149.1c-0.7,0-1.3-0.2-1.8-0.7c-0.4-0.5-0.6-1.2-0.7-2
		c0-0.8,0.2-1.5,0.7-2c0.4-0.5,1-0.7,1.8-0.7c0.7,0,1.2,0.2,1.6,0.6c0.4,0.4,0.6,1,0.6,1.8c0,0.3,0,0.5,0,0.7h-3.5
		c0,0.4,0.1,0.7,0.4,0.9c0.2,0.2,0.5,0.3,0.8,0.3c0.5,0,0.8-0.2,1.1-0.5l0.8,0.8C121,148.9,120.4,149.1,119.6,149.1L119.6,149.1z
		 M118.4,145.9h2.3c0-0.4-0.1-0.7-0.3-0.9c-0.2-0.2-0.5-0.3-0.7-0.3c-0.3,0-0.6,0.1-0.8,0.3C118.5,145.2,118.4,145.5,118.4,145.9z
		 M124.4,149h-1.2v-6.8l1.2-0.6L124.4,149L124.4,149z M127.1,142.9c-0.1,0.1-0.3,0.2-0.5,0.2c-0.2,0-0.4-0.1-0.5-0.2
		c-0.1-0.1-0.2-0.3-0.2-0.5c0-0.2,0.1-0.4,0.2-0.5c0.1-0.1,0.3-0.2,0.5-0.2s0.4,0.1,0.5,0.2c0.1,0.1,0.2,0.3,0.2,0.5
		C127.3,142.6,127.2,142.7,127.1,142.9z M127.2,149H126v-5.2h1.2V149z M133.1,149h-1.2v-3c0-0.8-0.3-1.2-1-1.2
		c-0.7,0-1.1,0.4-1.1,1.2v3h-1.2v-5.2h1.2v0.5c0.3-0.4,0.8-0.6,1.4-0.6c0.5,0,1,0.2,1.3,0.5c0.3,0.3,0.5,0.9,0.5,1.6L133.1,149
		L133.1,149z M137.2,145.3l1.9,3.7h-1.3l-1.5-2.9l-0.6,0.6v2.3h-1.2v-6.8l1.2-0.6v3.7l1.5-1.5h1.5L137.2,145.3L137.2,145.3z
		 M141.5,149h-1.2v-5.2h1.2v0.5c0.2-0.4,0.6-0.7,1.1-0.7c0.4,0,0.7,0.1,1,0.4l-0.2,1.1c-0.3-0.2-0.6-0.3-0.9-0.3
		c-0.3,0-0.5,0.1-0.7,0.3s-0.3,0.5-0.3,1L141.5,149L141.5,149z M145.6,142.9c-0.1,0.1-0.3,0.2-0.5,0.2c-0.2,0-0.4-0.1-0.5-0.2
		c-0.1-0.1-0.2-0.3-0.2-0.5c0-0.2,0.1-0.4,0.2-0.5c0.1-0.1,0.3-0.2,0.5-0.2s0.4,0.1,0.5,0.2c0.1,0.1,0.2,0.3,0.2,0.5
		C145.8,142.6,145.7,142.7,145.6,142.9z M145.7,149h-1.2v-5.2h1.2V149z M151.7,149h-1.2v-3c0-0.8-0.3-1.2-1-1.2
		c-0.7,0-1.1,0.4-1.1,1.2v3h-1.2v-5.2h1.2v0.5c0.3-0.4,0.8-0.6,1.4-0.6c0.5,0,1,0.2,1.3,0.5s0.5,0.9,0.5,1.6L151.7,149L151.7,149z
		 M76.1,149.1c-0.7,0-1.2-0.2-1.7-0.5c-0.5-0.3-0.8-0.8-1-1.4l1.1-0.4c0.2,0.3,0.4,0.6,0.6,0.8c0.3,0.2,0.6,0.3,1,0.3
		c0.4,0,0.7-0.1,0.9-0.3c0.2-0.2,0.3-0.4,0.3-0.7c0-0.1,0-0.3-0.1-0.4s-0.1-0.2-0.2-0.3c-0.1-0.1-0.2-0.1-0.4-0.2
		c-0.2-0.1-0.3-0.1-0.4-0.2c-0.1,0-0.3-0.1-0.5-0.2c-0.3-0.1-0.5-0.2-0.6-0.2c-0.1-0.1-0.3-0.1-0.6-0.3c-0.2-0.1-0.4-0.3-0.5-0.4
		c-0.1-0.1-0.2-0.3-0.3-0.5c-0.1-0.2-0.1-0.5-0.1-0.7c0-0.5,0.2-1,0.6-1.4c0.4-0.4,1-0.6,1.7-0.6c0.6,0,1.1,0.1,1.5,0.4
		c0.4,0.3,0.7,0.7,0.8,1.1l-1.1,0.4c-0.2-0.5-0.6-0.7-1.3-0.7c-0.3,0-0.6,0.1-0.8,0.2c-0.2,0.1-0.3,0.3-0.3,0.6
		c0,0.2,0.1,0.3,0.2,0.4c0.1,0.1,0.3,0.2,0.4,0.3s0.4,0.1,0.7,0.3c0.2,0.1,0.4,0.1,0.5,0.2c0.1,0,0.3,0.1,0.4,0.2
		c0.2,0.1,0.3,0.2,0.4,0.2c0.1,0.1,0.2,0.2,0.4,0.3c0.1,0.1,0.2,0.3,0.3,0.4c0.1,0.1,0.1,0.3,0.2,0.5c0.1,0.2,0.1,0.4,0.1,0.6
		c0,0.7-0.2,1.2-0.7,1.6C77.5,149,76.9,149.1,76.1,149.1L76.1,149.1z M84.3,149h-1.2v-0.5c-0.3,0.4-0.8,0.6-1.4,0.6
		c-0.5,0-1-0.2-1.3-0.5c-0.3-0.3-0.5-0.9-0.5-1.6v-3.2h1.2v3c0,0.8,0.3,1.2,1,1.2c0.7,0,1.1-0.4,1.1-1.2v-3h1.2V149z M87.1,149h-1.2
		v-5.2h1.2v0.5c0.2-0.4,0.6-0.7,1.1-0.7c0.4,0,0.7,0.1,1,0.4l-0.2,1.1c-0.3-0.2-0.6-0.3-0.9-0.3c-0.3,0-0.5,0.1-0.7,0.3
		c-0.2,0.2-0.3,0.5-0.3,1L87.1,149L87.1,149z M94.4,149h-1.2v-0.5c-0.3,0.4-0.8,0.6-1.4,0.6c-0.5,0-1-0.2-1.3-0.5
		c-0.3-0.3-0.5-0.9-0.5-1.6v-3.2h1.2v3c0,0.8,0.3,1.2,1,1.2c0.7,0,1.1-0.4,1.1-1.2v-3h1.2C94.4,143.8,94.4,149,94.4,149z
		 M100.8,146.1H99v1.8h-1.2v-1.8H96v-1.2h1.8v-1.8H99v1.8h1.8L100.8,146.1L100.8,146.1z M107.3,146.1h-1.8v1.8h-1.2v-1.8h-1.8v-1.2
		h1.8v-1.8h1.2v1.8h1.8V146.1z M67.1,147.5c-0.1,0-0.1,0-0.1-0.1c0,0,0-0.1,0.1-0.2l0.5-1.3L63,146v-1.2l4.5,0.1l-0.5-1.3
		c0-0.1-0.1-0.2-0.1-0.2c0-0.1,0-0.1,0.1-0.1c0,0,0.1,0,0.2,0.1l2.8,1.9c0.1,0,0.1,0.1,0.1,0.2c0,0.1,0,0.1-0.1,0.2l-2.8,1.9
		C67.2,147.5,67.1,147.5,67.1,147.5L67.1,147.5z"/>
	<path class="st2" d="M68.9,135.4h-5.6c0-1.9,1-3.4,2.9-4.4c0.4-0.2,0.7-0.4,0.9-0.6c0.2-0.2,0.3-0.5,0.3-0.8c0-0.3-0.1-0.6-0.3-0.8
		c-0.2-0.2-0.5-0.3-0.9-0.3c-0.7,0-1.2,0.3-1.5,1l-1.2-0.6c0.2-0.5,0.6-0.9,1.1-1.3c0.5-0.3,1.1-0.5,1.7-0.5c0.8,0,1.4,0.2,1.9,0.7
		c0.5,0.4,0.7,1,0.7,1.7c0,0.6-0.2,1.1-0.5,1.5c-0.3,0.4-0.8,0.7-1.5,1.1c-0.6,0.3-1,0.6-1.3,0.9c-0.3,0.3-0.5,0.6-0.6,1h3.9
		L68.9,135.4L68.9,135.4z M73.4,135.5c-0.4,0-0.8-0.1-1.2-0.2c-0.3-0.2-0.6-0.4-0.8-0.6c-0.2-0.3-0.4-0.6-0.5-1s-0.2-0.7-0.3-1.1
		c-0.1-0.4-0.1-0.8-0.1-1.2c0-0.4,0-0.8,0.1-1.2c0.1-0.4,0.2-0.7,0.3-1.1c0.1-0.4,0.3-0.7,0.5-1c0.2-0.3,0.5-0.5,0.8-0.7
		c0.3-0.2,0.7-0.3,1.2-0.3c0.5,0,1,0.1,1.4,0.4c0.4,0.2,0.7,0.6,0.9,1c0.2,0.4,0.4,0.9,0.5,1.3c0.1,0.5,0.1,1,0.1,1.5
		c0,0.5,0,1-0.1,1.5c-0.1,0.5-0.2,0.9-0.5,1.3c-0.2,0.4-0.5,0.8-0.9,1S73.9,135.5,73.4,135.5L73.4,135.5z M73.4,134.2
		c0.3,0,0.5-0.1,0.7-0.2c0.2-0.2,0.4-0.4,0.5-0.7c0.1-0.3,0.2-0.6,0.2-0.9c0-0.3,0.1-0.7,0.1-1c0-0.4,0-0.7-0.1-1.1
		c0-0.3-0.1-0.6-0.2-0.9c-0.1-0.3-0.3-0.5-0.5-0.7c-0.2-0.2-0.5-0.2-0.7-0.2c-0.3,0-0.5,0.1-0.7,0.2c-0.2,0.2-0.4,0.4-0.5,0.7
		c-0.1,0.3-0.2,0.6-0.2,0.9c0,0.3-0.1,0.7-0.1,1c0,0.4,0,0.7,0.1,1c0,0.3,0.1,0.6,0.2,0.9s0.3,0.5,0.5,0.7
		C72.9,134.1,73.1,134.2,73.4,134.2L73.4,134.2z M80.2,135.4h-1.4v-6.1h-1.3v-1.1c0.9,0,1.4-0.3,1.6-0.9h1.1L80.2,135.4L80.2,135.4z
		 M87.5,134.8c-0.5,0.5-1.2,0.7-2.1,0.7s-1.5-0.2-2.1-0.7c-0.5-0.5-0.8-1.1-0.8-1.8c0-0.9,0.4-1.6,1.3-2c-0.7-0.4-1-0.9-1-1.7
		c0-0.6,0.2-1.1,0.7-1.5c0.5-0.4,1.1-0.6,1.8-0.6s1.4,0.2,1.8,0.6c0.5,0.4,0.7,0.9,0.7,1.5c0,0.7-0.3,1.3-1,1.7
		c0.4,0.2,0.7,0.5,1,0.8c0.2,0.3,0.4,0.7,0.4,1.2C88.3,133.7,88,134.3,87.5,134.8L87.5,134.8z M84.6,130.1c0.2,0.2,0.5,0.3,0.8,0.3
		s0.6-0.1,0.8-0.3c0.2-0.2,0.3-0.4,0.3-0.7c0-0.3-0.1-0.5-0.3-0.7c-0.2-0.2-0.5-0.3-0.8-0.3s-0.6,0.1-0.8,0.3
		c-0.2,0.2-0.3,0.4-0.3,0.7S84.4,129.9,84.6,130.1z M84.4,133.9c0.3,0.2,0.6,0.4,1,0.4c0.4,0,0.8-0.1,1-0.4c0.3-0.2,0.4-0.6,0.4-0.9
		c0-0.4-0.1-0.7-0.4-0.9c-0.3-0.3-0.6-0.4-1-0.4c-0.4,0-0.8,0.1-1,0.4c-0.3,0.2-0.4,0.6-0.4,0.9C84,133.3,84.1,133.6,84.4,133.9z
		 M92.8,132.6h-2.9v-1.3h2.9L92.8,132.6L92.8,132.6z M97.4,135.5c-0.4,0-0.8-0.1-1.2-0.2c-0.3-0.2-0.6-0.4-0.8-0.6
		c-0.2-0.3-0.4-0.6-0.5-1c-0.1-0.4-0.2-0.7-0.3-1.1c-0.1-0.4-0.1-0.8-0.1-1.2c0-0.4,0-0.8,0.1-1.2c0.1-0.4,0.2-0.7,0.3-1.1
		c0.1-0.4,0.3-0.7,0.5-1c0.2-0.3,0.5-0.5,0.8-0.7c0.3-0.2,0.7-0.3,1.2-0.3c0.5,0,1,0.1,1.4,0.4c0.4,0.2,0.7,0.6,0.9,1
		c0.2,0.4,0.4,0.9,0.5,1.3c0.1,0.5,0.1,1,0.1,1.5c0,0.5,0,1-0.1,1.5c-0.1,0.5-0.2,0.9-0.5,1.3c-0.2,0.4-0.5,0.8-0.9,1
		S97.9,135.5,97.4,135.5L97.4,135.5z M97.4,134.2c0.3,0,0.5-0.1,0.7-0.2c0.2-0.2,0.4-0.4,0.5-0.7c0.1-0.3,0.2-0.6,0.2-0.9
		c0.1-0.3,0.1-0.7,0.1-1c0-0.4,0-0.7-0.1-1.1c0-0.3-0.1-0.6-0.2-0.9c-0.1-0.3-0.3-0.5-0.5-0.7c-0.2-0.2-0.5-0.2-0.7-0.2
		c-0.3,0-0.5,0.1-0.7,0.2c-0.2,0.2-0.4,0.4-0.5,0.7s-0.2,0.6-0.2,0.9c0,0.3-0.1,0.7-0.1,1c0,0.4,0,0.7,0.1,1
		c0.1,0.3,0.1,0.6,0.2,0.9c0.1,0.3,0.3,0.5,0.5,0.7C96.9,134.1,97.1,134.2,97.4,134.2L97.4,134.2z M104.5,135.4h-1.4
		c0-1.3,0.2-2.5,0.5-3.6c0.4-1.1,0.9-2.1,1.7-3.1h-3.9v-1.3h5.5v1.3c-0.8,0.9-1.4,2-1.8,3.3C104.7,133.2,104.5,134.3,104.5,135.4
		L104.5,135.4z M111.1,132.6h-2.9v-1.3h2.9L111.1,132.6L111.1,132.6z M115.7,135.5c-0.4,0-0.8-0.1-1.2-0.2c-0.3-0.2-0.6-0.4-0.8-0.6
		c-0.2-0.3-0.4-0.6-0.5-1s-0.2-0.7-0.3-1.1c-0.1-0.4-0.1-0.8-0.1-1.2c0-0.4,0-0.8,0.1-1.2c0.1-0.4,0.2-0.7,0.3-1.1
		c0.1-0.4,0.3-0.7,0.5-1c0.2-0.3,0.5-0.5,0.8-0.7c0.3-0.2,0.7-0.3,1.2-0.3c0.5,0,1,0.1,1.4,0.4c0.4,0.2,0.7,0.6,0.9,1
		c0.2,0.4,0.4,0.9,0.5,1.3c0.1,0.5,0.1,1,0.1,1.5c0,0.5,0,1-0.1,1.5c-0.1,0.5-0.2,0.9-0.5,1.3c-0.2,0.4-0.5,0.8-0.9,1
		S116.3,135.5,115.7,135.5L115.7,135.5z M115.7,134.2c0.3,0,0.5-0.1,0.7-0.2c0.2-0.2,0.4-0.4,0.5-0.7c0.1-0.3,0.2-0.6,0.2-0.9
		c0-0.3,0.1-0.7,0.1-1c0-0.4,0-0.7-0.1-1.1c0-0.3-0.1-0.6-0.2-0.9c-0.1-0.3-0.3-0.5-0.5-0.7c-0.2-0.2-0.5-0.2-0.7-0.2
		c-0.3,0-0.5,0.1-0.7,0.2c-0.2,0.2-0.4,0.4-0.5,0.7c-0.1,0.3-0.2,0.6-0.2,0.9c0,0.3-0.1,0.7-0.1,1c0,0.4,0,0.7,0.1,1
		c0,0.3,0.1,0.6,0.2,0.9s0.3,0.5,0.5,0.7C115.2,134.1,115.5,134.2,115.7,134.2L115.7,134.2z M125.3,135.4h-1.4v-1.7h-4.3v-0.9
		l4.1-5.5h1.5v5.1h1v1.3h-1C125.3,133.6,125.3,135.4,125.3,135.4z M121.5,132.4h2.5v-3.3L121.5,132.4L121.5,132.4z"/>
	<path class="st2" d="M145.5,119.3c-0.7,0-1.2-0.2-1.7-0.5c-0.5-0.3-0.8-0.8-1-1.4l1.1-0.4c0.2,0.3,0.4,0.6,0.6,0.8
		c0.3,0.2,0.6,0.3,1,0.3c0.4,0,0.7-0.1,0.9-0.3c0.2-0.2,0.3-0.4,0.3-0.7c0-0.1,0-0.3-0.1-0.4c-0.1-0.1-0.1-0.2-0.2-0.3
		c-0.1-0.1-0.2-0.2-0.4-0.2c-0.2-0.1-0.3-0.1-0.4-0.2c-0.1,0-0.3-0.1-0.5-0.2c-0.3-0.1-0.5-0.2-0.6-0.2c-0.1-0.1-0.3-0.1-0.6-0.3
		c-0.2-0.1-0.4-0.3-0.5-0.4c-0.1-0.1-0.2-0.3-0.3-0.5c-0.1-0.2-0.1-0.5-0.1-0.7c0-0.5,0.2-1,0.6-1.4s1-0.6,1.7-0.6
		c0.6,0,1.1,0.1,1.5,0.4c0.4,0.3,0.7,0.7,0.8,1.1l-1.1,0.4c-0.2-0.5-0.6-0.7-1.3-0.7c-0.3,0-0.6,0.1-0.8,0.2
		c-0.2,0.1-0.3,0.3-0.3,0.6c0,0.2,0.1,0.3,0.2,0.4c0.1,0.1,0.3,0.2,0.4,0.3c0.2,0.1,0.4,0.1,0.7,0.3c0.2,0.1,0.4,0.1,0.5,0.2
		c0.1,0,0.3,0.1,0.4,0.2c0.2,0.1,0.3,0.2,0.4,0.2c0.1,0.1,0.2,0.2,0.4,0.3s0.2,0.3,0.3,0.4c0.1,0.1,0.1,0.3,0.2,0.5
		c0.1,0.2,0.1,0.4,0.1,0.6c0,0.7-0.2,1.2-0.7,1.6C146.8,119.1,146.2,119.3,145.5,119.3L145.5,119.3z M153.7,119.2h-1.2v-0.5
		c-0.3,0.4-0.8,0.6-1.4,0.6c-0.5,0-1-0.2-1.3-0.5c-0.3-0.3-0.5-0.9-0.5-1.6V114h1.2v3c0,0.8,0.3,1.2,1,1.2c0.7,0,1.1-0.4,1.1-1.2v-3
		h1.2V119.2L153.7,119.2z M156.4,119.2h-1.2V114h1.2v0.5c0.2-0.4,0.6-0.7,1.1-0.7c0.4,0,0.7,0.1,1,0.4l-0.2,1.1
		c-0.3-0.2-0.6-0.3-0.9-0.3c-0.3,0-0.5,0.1-0.7,0.3c-0.2,0.2-0.3,0.5-0.3,1C156.4,116.3,156.4,119.2,156.4,119.2z M163.8,119.2h-1.2
		v-0.5c-0.3,0.4-0.8,0.6-1.4,0.6c-0.5,0-1-0.2-1.3-0.5c-0.3-0.3-0.5-0.9-0.5-1.6V114h1.2v3c0,0.8,0.3,1.2,1,1.2
		c0.7,0,1.1-0.4,1.1-1.2v-3h1.2V119.2L163.8,119.2z M170.2,116.3h-1.8v1.8h-1.2v-1.8h-1.8v-1.2h1.8v-1.8h1.2v1.8h1.8L170.2,116.3
		L170.2,116.3z M176.6,116.3h-1.8v1.8h-1.2v-1.8h-1.8v-1.2h1.8v-1.8h1.2v1.8h1.8V116.3z M126.6,119.3c-0.8,0-1.2-0.4-1.2-1.3v-3
		h-0.8v-1h0.8v-1.6l1.2-0.6v2.2h1.2v1h-1.2v2.7c0,0.3,0.1,0.5,0.4,0.5c0.3,0,0.5-0.1,0.8-0.2l-0.1,1.1
		C127.4,119.2,127,119.3,126.6,119.3z M130.2,119.2H129v-6.8l1.2-0.6v2.6c0.3-0.4,0.8-0.6,1.4-0.6c0.5,0,1,0.2,1.3,0.5
		c0.3,0.3,0.5,0.9,0.5,1.6v3.2h-1.2v-3c0-0.8-0.3-1.2-1-1.2c-0.7,0-1.1,0.4-1.1,1.2L130.2,119.2L130.2,119.2z M137.1,119.3
		c-0.7,0-1.3-0.2-1.8-0.7c-0.4-0.5-0.6-1.2-0.6-2c0-0.8,0.2-1.5,0.7-2c0.4-0.5,1-0.7,1.8-0.7c0.7,0,1.2,0.2,1.6,0.6
		c0.4,0.4,0.6,1,0.6,1.8c0,0.3,0,0.5,0,0.7h-3.5c0,0.4,0.1,0.7,0.4,0.9c0.2,0.2,0.5,0.3,0.8,0.3c0.5,0,0.8-0.2,1.1-0.5l0.8,0.8
		C138.5,119,137.9,119.3,137.1,119.3L137.1,119.3z M135.9,116h2.3c0-0.4-0.1-0.7-0.3-0.9c-0.2-0.2-0.5-0.3-0.7-0.3
		c-0.3,0-0.6,0.1-0.8,0.3C136,115.4,135.9,115.6,135.9,116L135.9,116z M77.7,119.2h-1.2V112h1.2L77.7,119.2L77.7,119.2z M83.8,119.2
		h-1.2v-3c0-0.8-0.3-1.2-1-1.2c-0.7,0-1.1,0.4-1.1,1.2v3h-1.2V114h1.2v0.5c0.3-0.4,0.8-0.6,1.4-0.6c0.5,0,1,0.2,1.3,0.5
		c0.3,0.3,0.5,0.9,0.5,1.6C83.8,116,83.8,119.2,83.8,119.2z M86.4,113c-0.1,0.1-0.3,0.2-0.5,0.2c-0.2,0-0.4-0.1-0.5-0.2
		c-0.1-0.1-0.2-0.3-0.2-0.5s0.1-0.4,0.2-0.5c0.1-0.1,0.3-0.2,0.5-0.2c0.2,0,0.4,0.1,0.5,0.2c0.1,0.1,0.2,0.3,0.2,0.5
		C86.6,112.7,86.6,112.9,86.4,113z M86.5,119.2h-1.2V114h1.2V119.2z M89.6,119.3c-0.8,0-1.2-0.4-1.2-1.3v-3h-0.8v-1h0.8v-1.6
		l1.2-0.6v2.2h1.2v1h-1.2v2.7c0,0.3,0.1,0.5,0.4,0.5c0.3,0,0.5-0.1,0.8-0.2l-0.1,1.1C90.4,119.2,90,119.3,89.6,119.3z M96.1,119.2
		H95v-0.4c-0.3,0.4-0.8,0.5-1.4,0.5c-0.6,0-1-0.2-1.4-0.5c-0.4-0.3-0.5-0.7-0.5-1.3c0-0.6,0.2-1,0.6-1.3c0.4-0.3,0.9-0.4,1.4-0.4
		c0.5,0,0.9,0.1,1.2,0.3v-0.3c0-0.3-0.1-0.6-0.3-0.7c-0.2-0.2-0.4-0.2-0.8-0.2c-0.6,0-1.1,0.2-1.6,0.5l-0.4-1c0.6-0.4,1.2-0.6,2-0.6
		c0.3,0,0.5,0,0.7,0.1c0.2,0,0.4,0.1,0.6,0.3c0.2,0.1,0.4,0.3,0.5,0.6c0.1,0.3,0.2,0.6,0.2,1C96.1,115.8,96.1,119.2,96.1,119.2z
		 M93.8,118.3c0.5,0,0.8-0.2,1.2-0.5v-0.7c-0.3-0.1-0.6-0.2-1-0.2c-0.3,0-0.6,0.1-0.8,0.2c-0.2,0.1-0.3,0.3-0.3,0.5
		c0,0.2,0.1,0.4,0.2,0.5C93.3,118.2,93.5,118.3,93.8,118.3z M98.8,119.2h-1.2v-6.8l1.2-0.6V119.2z M101.5,113
		c-0.1,0.1-0.3,0.2-0.5,0.2c-0.2,0-0.4-0.1-0.5-0.2c-0.1-0.1-0.2-0.3-0.2-0.5s0.1-0.4,0.2-0.5c0.1-0.1,0.3-0.2,0.5-0.2
		c0.2,0,0.4,0.1,0.5,0.2c0.1,0.1,0.2,0.3,0.2,0.5C101.7,112.7,101.6,112.9,101.5,113z M101.6,119.2h-1.2V114h1.2V119.2z
		 M104.8,119.3c-0.4,0-0.8-0.1-1.2-0.2c-0.4-0.2-0.7-0.4-0.8-0.7l0.8-0.7c0.4,0.4,0.8,0.6,1.2,0.6c0.6,0,0.8-0.2,0.8-0.5
		c0-0.1,0-0.2-0.1-0.3s-0.2-0.2-0.3-0.2s-0.3-0.1-0.5-0.2c-0.6-0.2-1-0.4-1.3-0.7c-0.3-0.3-0.4-0.6-0.4-1c0-0.5,0.2-0.8,0.5-1.1
		c0.4-0.3,0.8-0.4,1.3-0.4c0.8,0,1.4,0.3,1.9,0.8l-0.8,0.7c-0.3-0.3-0.7-0.4-1-0.4c-0.5,0-0.7,0.1-0.7,0.4c0,0.1,0.1,0.3,0.3,0.4
		c0.2,0.1,0.4,0.2,0.8,0.3c0.6,0.2,1,0.4,1.3,0.7c0.3,0.3,0.4,0.6,0.4,1.1c0,0.5-0.2,0.9-0.5,1.2
		C105.9,119.2,105.4,119.3,104.8,119.3z M109.2,113c-0.1,0.1-0.3,0.2-0.5,0.2c-0.2,0-0.4-0.1-0.5-0.2c-0.1-0.1-0.2-0.3-0.2-0.5
		c0-0.2,0.1-0.4,0.2-0.5c0.1-0.1,0.3-0.2,0.5-0.2c0.2,0,0.4,0.1,0.5,0.2c0.1,0.1,0.2,0.3,0.2,0.5C109.4,112.7,109.4,112.9,109.2,113
		L109.2,113z M109.3,119.2h-1.2V114h1.2V119.2z M115.3,119.2h-1.2v-3c0-0.8-0.3-1.2-1-1.2c-0.7,0-1.1,0.4-1.1,1.2v3h-1.2V114h1.2
		v0.5c0.3-0.4,0.8-0.6,1.4-0.6c0.5,0,1,0.2,1.3,0.5c0.3,0.3,0.5,0.9,0.5,1.6C115.3,116,115.3,119.2,115.3,119.2z M118.6,121.2
		l-0.6-1c0.7,0,1.2-0.2,1.5-0.3c0.3-0.2,0.4-0.4,0.4-0.8v-0.3c-0.3,0.3-0.7,0.5-1.2,0.5c-0.6,0-1.2-0.2-1.6-0.7
		c-0.4-0.5-0.6-1.1-0.6-2c0-0.8,0.2-1.5,0.6-2c0.4-0.5,0.9-0.7,1.6-0.7c0.5,0,0.9,0.1,1.2,0.4V114h1.2v4.7c0,0.9-0.2,1.5-0.6,1.9
		C120.1,120.9,119.5,121.2,118.6,121.2z M118.9,118.2c0.4,0,0.8-0.2,1-0.5v-2.2c-0.2-0.3-0.6-0.5-1-0.5c-0.4,0-0.7,0.1-0.9,0.4
		c-0.2,0.3-0.3,0.7-0.3,1.2c0,0.5,0.1,0.9,0.3,1.2C118.2,118,118.5,118.2,118.9,118.2z M68.2,117.3c-0.1,0-0.2,0-0.2-0.1
		c0,0,0-0.1,0.1-0.3l0.6-1.6l-5.6,0.1v-1.5l5.6,0.1l-0.6-1.6c-0.1-0.1-0.1-0.2-0.1-0.3c0-0.1,0.1-0.1,0.2-0.1c0,0,0.1,0,0.2,0.1
		l3.4,2.4c0.1,0.1,0.1,0.1,0.1,0.2c0,0.1,0,0.2-0.1,0.2l-3.4,2.4C68.3,117.2,68.3,117.3,68.2,117.3z"/>
	<path class="st2" d="M68.9,103h-5.6c0-1.9,1-3.4,2.9-4.4c0.4-0.2,0.7-0.4,0.9-0.6c0.2-0.2,0.3-0.5,0.3-0.8c0-0.3-0.1-0.6-0.3-0.8
		c-0.2-0.2-0.5-0.3-0.9-0.3c-0.7,0-1.2,0.3-1.5,1l-1.2-0.6c0.2-0.5,0.6-1,1.1-1.3c0.5-0.3,1.1-0.5,1.7-0.5c0.8,0,1.4,0.2,1.9,0.7
		c0.5,0.4,0.7,1,0.7,1.7c0,0.6-0.2,1.1-0.5,1.5s-0.8,0.7-1.5,1.1c-0.6,0.3-1,0.6-1.3,0.9c-0.3,0.3-0.5,0.6-0.6,1h3.9L68.9,103
		L68.9,103z M73.4,103.1c-0.4,0-0.8-0.1-1.2-0.2c-0.3-0.2-0.6-0.4-0.8-0.6c-0.2-0.3-0.4-0.6-0.5-1c-0.1-0.4-0.2-0.7-0.3-1.1
		c-0.1-0.4-0.1-0.8-0.1-1.2c0-0.4,0-0.8,0.1-1.2c0.1-0.4,0.2-0.7,0.3-1.1c0.1-0.4,0.3-0.7,0.5-1c0.2-0.3,0.5-0.5,0.8-0.7
		c0.3-0.2,0.7-0.3,1.2-0.3c0.5,0,1,0.1,1.4,0.4c0.4,0.2,0.7,0.6,0.9,1c0.2,0.4,0.4,0.9,0.5,1.3c0.1,0.5,0.1,1,0.1,1.5
		c0,0.5,0,1-0.1,1.5c-0.1,0.5-0.2,0.9-0.5,1.3c-0.2,0.4-0.5,0.8-0.9,1S73.9,103.1,73.4,103.1z M73.4,101.8c0.3,0,0.5-0.1,0.7-0.2
		c0.2-0.2,0.4-0.4,0.5-0.7c0.1-0.3,0.2-0.6,0.2-0.9s0.1-0.7,0.1-1c0-0.4,0-0.7-0.1-1.1c0-0.3-0.1-0.6-0.2-0.9s-0.3-0.5-0.5-0.7
		c-0.2-0.2-0.5-0.2-0.7-0.2c-0.3,0-0.5,0.1-0.7,0.2c-0.2,0.2-0.4,0.4-0.5,0.7c-0.1,0.3-0.2,0.6-0.2,0.9c0,0.3-0.1,0.7-0.1,1
		c0,0.4,0,0.7,0.1,1c0,0.3,0.1,0.6,0.2,0.9s0.3,0.5,0.5,0.7C72.9,101.8,73.1,101.8,73.4,101.8z M80.2,103h-1.4v-6.1h-1.3v-1.1
		c0.9,0,1.4-0.3,1.6-0.9h1.1L80.2,103L80.2,103z M87.5,102.4c-0.5,0.5-1.2,0.7-2.1,0.7s-1.5-0.2-2.1-0.7c-0.5-0.5-0.8-1.1-0.8-1.8
		c0-0.9,0.4-1.6,1.3-2c-0.7-0.4-1-0.9-1-1.7c0-0.6,0.2-1.1,0.7-1.5c0.5-0.4,1.1-0.6,1.8-0.6c0.8,0,1.4,0.2,1.8,0.6
		c0.5,0.4,0.7,0.9,0.7,1.5c0,0.7-0.3,1.3-1,1.7c0.4,0.2,0.7,0.5,1,0.8c0.2,0.3,0.4,0.7,0.4,1.2C88.3,101.4,88,102,87.5,102.4z
		 M84.6,97.7c0.2,0.2,0.5,0.3,0.8,0.3s0.6-0.1,0.8-0.3c0.2-0.2,0.3-0.4,0.3-0.7c0-0.3-0.1-0.5-0.3-0.7c-0.2-0.2-0.5-0.3-0.8-0.3
		s-0.6,0.1-0.8,0.3c-0.2,0.2-0.3,0.4-0.3,0.7C84.3,97.3,84.4,97.5,84.6,97.7z M84.4,101.5c0.3,0.2,0.6,0.4,1,0.4
		c0.4,0,0.8-0.1,1-0.4c0.3-0.2,0.4-0.6,0.4-0.9c0-0.4-0.1-0.7-0.4-0.9c-0.3-0.3-0.6-0.4-1-0.4c-0.4,0-0.8,0.1-1,0.4
		c-0.3,0.2-0.4,0.6-0.4,0.9C84,101,84.1,101.3,84.4,101.5z M92.8,100.2h-2.9v-1.3h2.9L92.8,100.2L92.8,100.2z M97.4,103.1
		c-0.4,0-0.8-0.1-1.2-0.2c-0.3-0.2-0.6-0.4-0.8-0.6c-0.2-0.3-0.4-0.6-0.5-1c-0.1-0.4-0.2-0.7-0.3-1.1c-0.1-0.4-0.1-0.8-0.1-1.2
		c0-0.4,0-0.8,0.1-1.2c0.1-0.4,0.2-0.7,0.3-1.1c0.1-0.4,0.3-0.7,0.5-1c0.2-0.3,0.5-0.5,0.8-0.7c0.3-0.2,0.7-0.3,1.2-0.3
		c0.5,0,1,0.1,1.4,0.4c0.4,0.2,0.7,0.6,0.9,1c0.2,0.4,0.4,0.9,0.5,1.3c0.1,0.5,0.1,1,0.1,1.5c0,0.5,0,1-0.1,1.5
		c-0.1,0.5-0.2,0.9-0.5,1.3c-0.2,0.4-0.5,0.8-0.9,1S97.9,103.1,97.4,103.1z M97.4,101.8c0.3,0,0.5-0.1,0.7-0.2
		c0.2-0.2,0.4-0.4,0.5-0.7c0.1-0.3,0.2-0.6,0.2-0.9c0.1-0.3,0.1-0.7,0.1-1c0-0.4,0-0.7-0.1-1.1c0-0.3-0.1-0.6-0.2-0.9
		c-0.1-0.3-0.3-0.5-0.5-0.7c-0.2-0.2-0.5-0.2-0.7-0.2c-0.3,0-0.5,0.1-0.7,0.2c-0.2,0.2-0.4,0.4-0.5,0.7c-0.1,0.3-0.2,0.6-0.2,0.9
		c0,0.3-0.1,0.7-0.1,1c0,0.4,0,0.7,0.1,1c0.1,0.3,0.1,0.6,0.2,0.9c0.1,0.3,0.3,0.5,0.5,0.7C96.9,101.8,97.1,101.8,97.4,101.8z
		 M106.9,103h-1.4v-1.7h-4.3v-0.9l4.1-5.4h1.5v5.1h1v1.3h-1C106.9,101.3,106.9,103,106.9,103z M103.1,100h2.5v-3.3L103.1,100
		L103.1,100z M112.4,100.2h-2.9v-1.3h2.9V100.2z M116.3,103h-1.4v-6.1h-1.3v-1.1c0.9,0,1.4-0.3,1.6-0.9h1.1L116.3,103L116.3,103z
		 M123.7,103h-1.4v-1.7h-4.3v-0.9l4.1-5.4h1.5v5.1h1v1.3h-1C123.7,101.3,123.7,103,123.7,103z M119.9,100h2.5v-3.3L119.9,100
		L119.9,100z"/>
	<path class="st2" d="M67.1,87c-0.5,0-1-0.1-1.5-0.3c-0.4-0.2-0.8-0.4-1.1-0.7c-0.3-0.3-0.5-0.7-0.7-1.1c-0.2-0.4-0.3-0.8-0.4-1.3
		c-0.1-0.4-0.1-0.9-0.1-1.3c0-0.5,0.1-1.1,0.2-1.6c0.1-0.5,0.3-1,0.6-1.5c0.3-0.5,0.7-0.8,1.2-1.1c0.5-0.3,1.1-0.4,1.7-0.4
		c0.8,0,1.5,0.2,2,0.6c0.5,0.4,0.9,0.8,1.1,1.3l-1.4,0.6c-0.2-0.4-0.5-0.6-0.7-0.8c-0.3-0.2-0.6-0.3-1-0.3c-0.4,0-0.7,0.1-1,0.3
		c-0.3,0.2-0.5,0.4-0.7,0.8c-0.2,0.3-0.3,0.7-0.3,1c-0.1,0.4-0.1,0.7-0.1,1.1c0,0.8,0.2,1.6,0.6,2.2c0.4,0.6,0.9,0.9,1.6,0.9
		c0.7,0,1.3-0.4,1.7-1.2l1.4,0.5C69.6,86.3,68.6,87,67.1,87L67.1,87z M78.9,86.8h-1.5v-3.9h-3.9v3.9h-1.5v-8.9h1.5v3.6h3.9v-3.6h1.5
		V86.8z M88.6,86.8H87l-0.7-2h-3.5l-0.7,2h-1.6l3.3-8.9h1.5L88.6,86.8L88.6,86.8z M83.3,83.5h2.6l-1-2.7c-0.1-0.3-0.2-0.6-0.3-0.9
		c-0.1,0.2-0.2,0.5-0.3,0.9L83.3,83.5z M97.1,77.9v8.9h-1.4L92,81.2c-0.1-0.2-0.2-0.4-0.4-0.7c0,0.2,0,0.4,0,0.7v5.6h-1.5v-8.9h1.5
		l3.6,5.6c0.1,0.1,0.2,0.4,0.4,0.7c0-0.2,0-0.5,0-0.7v-5.6H97.1L97.1,77.9z M102.9,87c-0.7,0-1.3-0.1-1.8-0.4
		c-0.5-0.3-0.9-0.6-1.2-1.1c-0.3-0.4-0.5-0.9-0.7-1.5S99,83,99,82.4c0-0.4,0-0.9,0.1-1.3c0.1-0.4,0.3-0.9,0.5-1.3s0.5-0.8,0.8-1.1
		c0.3-0.3,0.7-0.5,1.1-0.7c0.4-0.2,0.9-0.3,1.4-0.3c0.8,0,1.4,0.2,1.9,0.5c0.5,0.3,0.9,0.8,1.2,1.3l-1.4,0.8
		c-0.5-0.7-1.1-1.1-1.8-1.1c-0.4,0-0.8,0.1-1.1,0.3c-0.3,0.2-0.6,0.4-0.7,0.8c-0.2,0.3-0.3,0.7-0.4,1c-0.1,0.3-0.1,0.7-0.1,1.1
		c0,0.9,0.2,1.6,0.6,2.2c0.4,0.6,1,0.9,1.8,0.9c0.5,0,0.9-0.2,1.2-0.5c0.3-0.3,0.5-0.7,0.5-1.2v-0.1h-1.6v-1.4h3.1v1.2
		c0,1.1-0.3,2-0.9,2.6C104.7,86.7,103.9,87,102.9,87L102.9,87z M114.1,86.8H108v-8.9h5.8v1.4h-4.3v2.2h2.6v1.4h-2.6v2.5h4.6
		C114.1,85.4,114.1,86.8,114.1,86.8z M121.7,86.8h-5.9v-8.9h1.5v7.5h4.3V86.8z M126.7,87c-0.6,0-1.1-0.1-1.5-0.3
		c-0.5-0.2-0.8-0.4-1.1-0.7c-0.3-0.3-0.5-0.7-0.7-1.1c-0.2-0.4-0.3-0.8-0.4-1.2c-0.1-0.4-0.1-0.9-0.1-1.3s0-0.9,0.1-1.3
		c0.1-0.4,0.2-0.8,0.4-1.2c0.2-0.4,0.4-0.8,0.7-1.1c0.3-0.3,0.7-0.5,1.1-0.7c0.5-0.2,1-0.3,1.5-0.3c0.7,0,1.3,0.1,1.8,0.4
		c0.5,0.3,0.9,0.6,1.2,1.1c0.3,0.5,0.5,0.9,0.7,1.5c0.1,0.5,0.2,1.1,0.2,1.7s-0.1,1.1-0.2,1.7s-0.4,1-0.7,1.5
		c-0.3,0.5-0.7,0.8-1.2,1.1C128,86.9,127.4,87,126.7,87L126.7,87z M126.7,85.5c0.4,0,0.8-0.1,1.1-0.3c0.3-0.2,0.6-0.5,0.7-0.8
		c0.2-0.3,0.3-0.7,0.4-1s0.1-0.7,0.1-1.1c0-0.4,0-0.8-0.1-1.1c-0.1-0.4-0.2-0.7-0.4-1c-0.2-0.3-0.4-0.6-0.7-0.8
		c-0.3-0.2-0.7-0.3-1.1-0.3c-0.5,0-1,0.2-1.4,0.5c-0.4,0.3-0.6,0.7-0.8,1.2c-0.1,0.5-0.2,0.9-0.2,1.4c0,0.4,0,0.8,0.1,1.1
		c0.1,0.4,0.2,0.7,0.4,1c0.2,0.3,0.4,0.6,0.7,0.8C125.9,85.4,126.3,85.5,126.7,85.5z M136,87c-0.7,0-1.3-0.1-1.8-0.4
		c-0.5-0.3-0.9-0.6-1.2-1.1c-0.3-0.4-0.5-0.9-0.7-1.5c-0.2-0.5-0.2-1.1-0.2-1.7c0-0.4,0-0.9,0.1-1.3c0.1-0.4,0.3-0.9,0.5-1.3
		c0.2-0.4,0.5-0.8,0.8-1.1c0.3-0.3,0.7-0.5,1.1-0.7c0.4-0.2,0.9-0.3,1.4-0.3c0.8,0,1.4,0.2,1.9,0.5c0.5,0.3,0.9,0.8,1.2,1.3
		l-1.4,0.8c-0.5-0.7-1.1-1.1-1.8-1.1c-0.4,0-0.8,0.1-1.1,0.3c-0.3,0.2-0.6,0.4-0.7,0.8c-0.2,0.3-0.3,0.7-0.4,1s-0.1,0.7-0.1,1.1
		c0,0.9,0.2,1.6,0.6,2.2c0.4,0.6,1,0.9,1.8,0.9c0.5,0,0.9-0.2,1.2-0.5c0.3-0.3,0.5-0.7,0.5-1.2v-0.1h-1.6v-1.4h3.1v1.2
		c0,1.1-0.3,2-0.9,2.6C137.8,86.7,137,87,136,87L136,87z"/>
</g>
</svg>
