<?xml version="1.0" encoding="utf-8"?>
<!-- Generator: Adobe Illustrator 23.0.0, SVG Export Plug-In . SVG Version: 6.00 Build 0)  -->
<svg version="1.1" id="Layer_1" xmlns="http://www.w3.org/2000/svg" xmlns:xlink="http://www.w3.org/1999/xlink" x="0px" y="0px"
	 viewBox="0 0 256 256" style="enable-background:new 0 0 256 256;" xml:space="preserve">
<style type="text/css">
	.st0{fill:#F75049;}
	.st1{fill-rule:evenodd;clip-rule:evenodd;fill:#F75049;}
	.st2{fill:url(#SVGID_1_);}
	.st3{fill:url(#SVGID_2_);}
	.st4{opacity:0.4;}
	.st5{fill:url(#SVGID_3_);}
	.st6{fill:url(#SVGID_4_);}
	.st7{fill:url(#SVGID_5_);}
	.st8{opacity:0.2;}
	.st9{fill:#FFFFFF;}
	.st10{fill:url(#SVGID_6_);}
	.st11{fill:url(#SVGID_7_);}
	.st12{fill:url(#SVGID_8_);}
	.st13{fill:url(#SVGID_9_);}
	.st14{fill:url(#SVGID_10_);}
	.st15{fill:url(#SVGID_11_);}
	.st16{fill:url(#SVGID_12_);}
	.st17{fill:url(#SVGID_13_);}
	.st18{fill:url(#SVGID_14_);}
	.st19{fill:url(#SVGID_15_);}
	.st20{fill:url(#SVGID_16_);}
	.st21{fill:url(#SVGID_17_);}
	.st22{fill:url(#SVGID_18_);}
	.st23{fill:url(#SVGID_19_);}
	.st24{fill:url(#SVGID_20_);}
</style>
<path class="st0" d="M51.4,180.9c0.1-0.5,0.2-1,0.4-1.5C51.7,179.9,51.5,180.3,51.4,180.9z"/>
<path class="st0" d="M55.8,174.3c0,0,0.1-0.1,0.2-0.1c-0.1,0.1-0.2,0.1-0.3,0.2C55.7,174.4,55.8,174.4,55.8,174.3z"/>
<path class="st0" d="M80.3,172.6c-0.6,0.4-1.3,0.6-2,0.6h-7.6c-0.7,0-1.4-0.2-2-0.6H80.3z"/>
<path class="st0" d="M113.8,112.3v1.3h-1.3C112.9,113.2,113.3,112.8,113.8,112.3z"/>
<g>
	<path class="st1" d="M45.6,19.1c0.7-0.1,1.3-0.3,1.9-0.4c0.2,0,0.4-0.1,0.6-0.1c0.5-0.8,1-1.5,1.5-2.2C48.4,17.1,47,18,45.6,19.1z
		 M222,22.6c0.1,0,0.1,0,0.2,0.1c0.4-0.4,0.8-0.8,1.1-1.2C222.8,21.9,222.4,22.3,222,22.6z M6.3,72.1c0,0.1,0,0.3,0,0.4
		c0,0.3,0,0.5,0,0.7c1.5-1.3,2.9-2.6,4.3-3.9c0-0.6,0.1-1.2,0.1-1.8C9.2,69,7.8,70.5,6.3,72.1z M90.9,236.3
		C90.9,236.3,90.9,236.3,90.9,236.3c-4.3,0-8.6,0-12.9-0.1c-0.3,0-0.5,0-0.8,0c-0.5,1.5-1.4,2.8-2.5,3.9c1.1,0,2.1,0.1,3.2,0.1
		c2,0,4,0.1,5.9,0.1c2.3,0,4.7,0,7,0h43.5c0.7-1.3,1.2-2.6,1.7-4H90.9z"/>
</g>
<polygon class="st0" points="121.8,162.8 120.2,164.3 118.8,164.3 118.8,162.8 "/>
<path class="st0" d="M244.6,40.9c-0.1,0.1-0.2,0.1-0.3,0.2c-1.1,0.9-2.2,1.8-3.3,2.7c-17.5,14.4-35.3,29.6-53.3,45.6
	c-8.2,7.2-16.1,14.4-24,21.6h-32c15.8-14.9,31.7-29.9,47.5-44.8c14.3-14.5,28.6-29,42.9-43.5c0.4-0.4,0.8-0.8,1.1-1.2
	c-0.5,0.4-0.9,0.7-1.3,1.1c-12.7,10.2-25.6,21.2-38.7,33c-20.6,18.6-39.2,37.2-55.9,55.4h-8.6v-3.5c0.1-0.1,0.2-0.2,0.4-0.3h5.9
	l-0.2-0.3h3.2v-8.1c8.2-7.8,16.8-16,25.7-24.4c26.1-24.8,44.8-42.5,57.9-55c1.2-1.1,2.3-2.2,3.4-3.3c0.1-0.1,0.1-0.1,0.2-0.2
	c9.6,2.4,16.7,6.2,21.8,12c-0.1,0.1-0.2,0.2-0.4,0.3c-1,0.8-2.1,1.7-3.1,2.5c-10.7,8.5-21.6,17.6-32.6,27.1
	c-20.2,17.5-38.6,34.7-55.4,51.5C168.3,92.1,192,72.6,216,50.6c6.6-6,13-12.1,19.1-18.1c1-0.9,1.9-1.9,2.9-2.8
	c0.1-0.1,0.2-0.2,0.3-0.3C240.9,32.6,243,36.4,244.6,40.9z"/>
<path class="st0" d="M160.5,136.7c-0.1,0.2-0.1,0.3-0.2,0.5c0,0.1-0.1,0.2-0.1,0.3c-0.1,0.2-0.1,0.5-0.1,0.7c-0.1-0.3-0.1-0.7-0.1-1
	C160.1,137,160.3,136.8,160.5,136.7z"/>
<path class="st0" d="M192.6,116.1c-0.6-0.5-1.2-0.9-1.8-1.3C191.5,115.2,192.1,115.6,192.6,116.1z"/>
<path class="st0" d="M195,119C195,119,195,119,195,119C194.9,119,194.9,118.9,195,119C194.9,118.9,194.9,119,195,119z"/>
<path class="st0" d="M249.9,74C249.8,74,249.8,74,249.9,74c-1.3,1.1-2.6,2.1-3.9,3.2c-6.8,5.5-13.6,11.3-20.5,17.2
	c-9.7,7.5-19.6,15.5-29.7,23.9c0,0,0,0-0.1,0c-1-3.2-3.4-5.7-6.6-6.8c0,0,0,0,0.1-0.1c16.3-14.3,32.5-28.6,48.8-42.9
	c-17.8,11.5-37.2,25.6-57.3,42.4h-11.7c10-8.9,20-17.9,30.1-27c14.4-13.1,28.5-26.1,42.2-39.1c1.1-1,2.2-2,3.2-3l0.2-0.2
	C247.7,50,249.2,60.6,249.9,74z"/>
<path class="st0" d="M196,121.9c-0.1-0.5-0.3-1-0.4-1.5c-0.1-0.2-0.1-0.4-0.2-0.5c-0.1-0.2-0.2-0.3-0.3-0.5c0-0.1-0.1-0.2-0.2-0.3
	c0,0,0-0.1,0-0.1c-0.1-0.2-0.2-0.4-0.3-0.5c-0.1-0.2-0.2-0.3-0.4-0.5c-0.1-0.2-0.3-0.3-0.4-0.5c-0.2-0.3-0.4-0.5-0.7-0.7
	c-0.2-0.2-0.4-0.3-0.5-0.5c-0.6-0.5-1.2-0.9-1.8-1.3c-0.3-0.1-0.5-0.3-0.8-0.4c-0.2-0.1-0.4-0.2-0.6-0.3c-0.2-0.1-0.5-0.2-0.7-0.2
	s-0.5-0.1-0.8-0.2c-0.4-0.1-0.7-0.1-1.1-0.2c-0.3,0-0.7,0-1,0H61.6c-0.7,0-1.4,0.1-2.1,0.2c-0.3,0-0.5,0.1-0.8,0.2s-0.5,0.2-0.7,0.2
	c-0.2,0.1-0.4,0.2-0.6,0.3c-0.3,0.1-0.5,0.2-0.8,0.4c-0.7,0.4-1.3,0.8-1.8,1.3c-0.2,0.2-0.4,0.3-0.5,0.5c-0.3,0.2-0.5,0.5-0.7,0.7
	c-0.1,0.2-0.3,0.3-0.4,0.5c-0.1,0.2-0.2,0.3-0.3,0.5c-0.1,0.2-0.2,0.4-0.3,0.5c-0.1,0.2-0.3,0.5-0.4,0.7c-0.1,0.2-0.2,0.5-0.3,0.8
	c0,0,0,0,0,0c-0.2,0.5-0.3,1-0.4,1.5c-0.1,0.7-0.2,1.4-0.2,2.1v28.8c0,3.1,1.4,5.9,3.7,7.7c1.7,1.4,3.8,2.2,6.1,2.3h5.7v6.4
	c0,0.3,0,0.6,0.1,0.8h15.3c0.1-0.3,0.1-0.5,0.1-0.8v-6.4h82.9v6.4c0,0.3,0,0.6,0.1,0.8c0.2,1.1,0.9,2,1.9,2.6h11.6
	c0.9-0.6,1.6-1.5,1.9-2.6c0.1-0.3,0.1-0.5,0.1-0.8v-3.8h-4l0.4-2.6h9.1c5.5,0,10-4.5,10-10V124C196.2,123.2,196.1,122.5,196,121.9z
	 M175.5,139.5c0,4.3-3.5,7.8-7.8,7.8c-1.5,0-2.8-0.4-4-1.1c-2.3-1.4-3.8-3.8-3.8-6.7c0-0.4,0-0.9,0.1-1.3c-0.1-0.3-0.1-0.7-0.1-1
	c0-0.1,0-0.2,0-0.2c0-4.3,3.5-7.8,7.8-7.8c0.4,0,0.9,0,1.3,0.1c3.3,0.5,5.9,3.2,6.4,6.5c0.1,0.4,0.1,0.8,0.1,1.2
	c0,0.4,0,0.9-0.1,1.3C175.5,138.6,175.5,139,175.5,139.5z"/>
<path class="st0" d="M51.8,120.4c-0.2,0.5-0.3,1-0.4,1.5C51.5,121.3,51.7,120.9,51.8,120.4z"/>
<path class="st0" d="M56.6,114.8c-0.7,0.4-1.3,0.8-1.8,1.3C55.3,115.6,56,115.2,56.6,114.8z"/>
<path class="st0" d="M204.9,13.9c0,0-0.1,0.1-0.1,0.1c-1.4,1.1-2.9,2.3-4.4,3.5c-14.2,11.2-30.8,25.3-47.2,40.9
	c-10.7,10.2-17.2,17-31,31.8c-1.4,1.5-2.8,3-4.3,4.6l-1.5-2.7l-2.5,4.3l-3.9,6.8c-0.7,0.7-1.4,1.5-2.1,2.2c-1.8,1.9-3.6,3.8-5.3,5.6
	H61.6c-5.7,0-10.4,4.6-10.4,10.3v31.4c0,3.1,1.4,5.9,3.7,7.7c-0.4,0.4-0.8,0.8-1.2,1.2c-0.4,0.4-0.8,0.8-1.1,1.2l0,0
	c-5.7,5.9-10.8,11.1-15.3,15.6c-2.1,0.8-5.2,1.6-8.2,0.4c-3.3-1.2-3.4-3.6-6-4.2c-4.5-1-6.8,5.6-12.4,5.4c-0.1,0-0.3,0-0.4,0
	c0.2,3.2,0.5,6.3,0.8,9.5c0.3,3,0.8,5.9,1.3,8.8c0.5,2.6,1.1,5.1,1.8,7.6c0.7,2.2,1.5,4.4,2.4,6.5c0.8,1.9,1.9,3.7,3,5.4
	c1.1,1.6,2.4,3.1,3.7,4.5c1.4,1.4,2.9,2.6,4.5,3.7c1.7,1.2,3.6,2.2,5.5,3c2.1,1,4.3,1.8,6.5,2.4c2.5,0.7,5.1,1.4,7.7,1.8
	c2.9,0.5,5.9,1,8.9,1.3c3.4,0.4,6.7,0.6,10.1,0.8c3.5,0.2,7.1,0.3,10.7,0.4c-0.5,1.5-1.4,2.8-2.5,3.9c-2.8-0.1-5.6-0.2-8.4-0.4
	c-3.5-0.2-6.9-0.5-10.4-0.9c-3.1-0.3-6.1-0.8-9.1-1.3c-2.7-0.5-5.4-1.1-8.1-1.9c-2.4-0.7-4.8-1.6-7-2.6c-2.1-0.9-4.1-2.1-6.1-3.3
	c-1.8-1.2-3.6-2.7-5.1-4.2c-1.6-1.6-3-3.3-4.2-5.1c-1.3-1.9-2.4-3.9-3.4-6c-1-2.3-1.9-4.6-2.6-7c-0.8-2.7-1.4-5.3-1.9-8
	c-0.6-3-1-6.1-1.3-9.1c-0.4-3.4-0.7-6.9-0.9-10.3c0-0.6-0.1-1.1-0.1-1.7c-0.2-3.3-0.3-6.6-0.4-9.9c-0.1-3.8-0.1-7.6-0.1-11.4V95.5
	c0-8.2,0.2-15.6,0.5-22.2c0,0,0,0,0,0c1.5-1.3,2.9-2.6,4.3-3.9C38.2,44,55.5,27.4,66,16.6c1.5-1.5,2.8-2.9,4-4.2c0,0,0,0,0,0
	c4.2-0.2,8.7-0.3,13.5-0.3c1.9,0,3.9,0,5.9,0h1.7c-1.4,1.3-2.8,2.7-4.1,4C65.8,37,47.8,57.6,32.8,76.7C51.7,56.6,71.4,36.3,91.8,16
	c1.3-1.3,2.7-2.7,4-4h12.2c0,0,0,0,0,0c-1.3,1.3-2.6,2.6-3.9,4C90.4,30.3,79.7,44.3,71.3,56.6c13.6-12.5,27.4-26,41.3-40.6
	c1.3-1.3,2.5-2.7,3.8-4h50.1c0.8,0,1.7,0,2.5,0c-1.7,1.3-3.3,2.7-5,4c-9.2,7.5-18.6,15.3-28.1,23.5c-20.1,17.5-38.5,34.7-55.3,51.5
	C103.3,73.8,127,54.3,151,32.2c5.9-5.4,11.7-10.9,17.3-16.3c1.4-1.3,2.8-2.6,4.1-4c0,0,0,0,0,0c0,0,0,0,0,0
	c6.7,0.1,12.8,0.3,18.4,0.6c0,0,0,0-0.1,0c-1.6,1.2-3.2,2.5-4.8,3.8c-12.8,10.1-25.8,20.8-39.1,32.3c-16.1,14-31.2,27.8-45.2,41.5
	c-0.6,0.5-1.1,1.1-1.7,1.6c-2.9,2.8-5.7,5.6-8.5,8.4c2.8-2.1,5.6-4.3,8.5-6.5c1.5-1.2,3-2.3,4.5-3.5c18.7-14.7,37.9-30.8,57.4-48.7
	c9.1-8.4,17.8-16.7,26.2-24.9c1.3-1.3,2.5-2.5,3.8-3.8c0,0,0,0,0.1-0.1C196.7,12.9,200.9,13.3,204.9,13.9z"/>
<path class="st0" d="M6.3,72.1C6.3,72.1,6.3,72.1,6.3,72.1c1.5-1.6,3-3.1,4.4-4.6c19.9-20.9,35.4-37.4,47.5-50.3
	c1.4-1.5,2.8-3,4.1-4.4c0,0,0.1-0.1,0.1-0.1C20.4,15.8,8.7,28.6,6.3,72.1z M48.1,18.6c-0.9,1.2-1.9,2.5-2.9,3.8
	c-4.8,5.8-9.9,10.1-14.3,13.3c2.5-4.2,6.3-9.5,12.1-14.5c0.9-0.8,1.8-1.5,2.6-2.1c0,0,0,0,0,0c1.4-1,2.7-1.9,4-2.7
	C49.2,17.1,48.7,17.8,48.1,18.6z"/>
<path class="st0" d="M166.5,12c0.8,0,1.7,0,2.5,0c0,0,0,0,0,0C168.2,12,167.4,12,166.5,12z M5.8,168.2c-0.1-3.8-0.1-7.6-0.1-11.4
	c0,7.8,0.1,14.8,0.5,21.3c0,0,0,0,0,0C6,174.8,5.9,171.5,5.8,168.2z M76.2,202h-3.9c-0.2,0-0.3,0.1-0.3,0.3v1.4
	c0,0.2,0.1,0.3,0.3,0.3h3.9c0.2,0,0.3-0.1,0.3-0.3v-1.4C76.5,202.1,76.4,202,76.2,202z M82.2,202h-3.9c-0.2,0-0.3,0.1-0.3,0.3v1.4
	c0,0.2,0.1,0.3,0.3,0.3h3.9c0.2,0,0.3-0.1,0.3-0.3v-1.4C82.5,202.1,82.4,202,82.2,202z M120,203.7c0,0.2,0.1,0.3,0.3,0.3h0.5
	C120.5,203.8,120.3,203.7,120,203.7z M124.2,205h-1.3c0.5,0.3,1.1,0.7,1.6,1.2v-0.9C124.5,205.1,124.4,205,124.2,205z M130.2,202
	h-3.9c-0.2,0-0.3,0.1-0.3,0.3v1.4c0,0.2,0.1,0.3,0.3,0.3h3.9c0.2,0,0.3-0.1,0.3-0.3v-1.4C130.5,202.1,130.4,202,130.2,202z
	 M90.9,236.3C90.9,236.3,90.9,236.3,90.9,236.3c-4.3,0-8.6,0-12.9-0.1c-0.3,0-0.5,0-0.8,0c-0.5,1.5-1.4,2.8-2.5,3.9c0,0,0,0,0,0
	c2.9,0.1,6,0.1,9.2,0.2c2.3,0,4.7,0,7,0h43.5c0.7-1.3,1.2-2.6,1.7-4H90.9z M107,224.4H77.7c-0.1,0.2-0.2,0.3-0.3,0.5
	c-0.1,0.2-0.2,0.4-0.3,0.6h31C107.7,225.1,107.4,224.8,107,224.4z M118.8,165.4v0.3l0.3-0.3H118.8z M118.8,165.4v0.3l0.3-0.3H118.8z
	 M118.8,165.4v0.3l0.3-0.3H118.8z"/>
<path class="st0" d="M120.8,203.9h-0.5c-0.2,0-0.3-0.1-0.3-0.3C120.3,203.7,120.5,203.8,120.8,203.9z"/>
<path class="st0" d="M124.4,225.4c-2.2,1.9-5,3-8.1,3s-5.9-1.1-8.1-3H124.4z"/>
<path class="st0" d="M160.1,197.3L160.1,197.3c0-0.1,0-0.1,0-0.2C160.1,197.2,160.1,197.3,160.1,197.3z"/>
<path class="st0" d="M172.4,189.7c-0.3,0.7-0.7,1.3-1.1,1.9c-1.1-0.6-2.3-0.9-3.6-0.9c-3.8,0-7,2.8-7.7,6.5
	c-0.1-0.4-0.1-0.8-0.1-1.3c0-4.3,3.5-7.8,7.8-7.8C169.5,188.1,171.1,188.7,172.4,189.7z"/>
<path class="st0" d="M175.5,172.6l-0.1,0.6h-6.4c-0.7,0-1.4-0.2-2-0.6H175.5z"/>
<path class="st0" d="M122.1,90.1c-1.4,1.5-2.8,3-4.3,4.6l-1.5-2.7l-2.5,4.3h-13.7v-6.2H122.1z"/>
<g>
	<g>
		<linearGradient id="SVGID_1_" gradientUnits="userSpaceOnUse" x1="172.905" y1="173.15" x2="172.905" y2="172.59">
			<stop  offset="0" style="stop-color:#4C5561"/>
			<stop  offset="1" style="stop-color:#2E3842"/>
		</linearGradient>
		<path class="st2" d="M178.7,172.6c-0.6,0.4-1.3,0.6-2,0.6h-7.6c-0.7,0-1.4-0.2-2-0.6H178.7z"/>
		<linearGradient id="SVGID_2_" gradientUnits="userSpaceOnUse" x1="74.515" y1="173.15" x2="74.515" y2="172.59">
			<stop  offset="0" style="stop-color:#4C5561"/>
			<stop  offset="1" style="stop-color:#2E3842"/>
		</linearGradient>
		<path class="st3" d="M80.3,172.6c-0.6,0.4-1.3,0.6-2,0.6h-7.6c-0.7,0-1.4-0.2-2-0.6H80.3z"/>
		<g class="st4">
			<path d="M118.8,162.8v1.6h1.4l1.6-1.6H118.8z M160,137.1c0,0.4,0,0.7,0.1,1c0-0.2,0.1-0.5,0.1-0.7c0-0.1,0.1-0.2,0.1-0.3
				c0-0.2,0.1-0.3,0.2-0.5C160.3,136.8,160.1,137,160,137.1z M175.4,135.7c-0.2,0.2-0.4,0.4-0.6,0.5c0.1,0.2,0.2,0.5,0.3,0.7
				c0.1,0.2,0.1,0.4,0.2,0.5c0.1,0.2,0.1,0.5,0.2,0.7c0.1-0.4,0.1-0.8,0.1-1.3C175.5,136.5,175.5,136.1,175.4,135.7z M51.2,152.8
				v2.2c0,2.6,0.9,4.9,2.5,6.7c0.4-0.4,0.8-0.8,1.2-1.2C52.6,158.7,51.2,155.9,51.2,152.8z"/>
		</g>
		<linearGradient id="SVGID_3_" gradientUnits="userSpaceOnUse" x1="51.21" y1="124.6" x2="233.04" y2="124.6">
			<stop  offset="0" style="stop-color:#BFC1C1"/>
			<stop  offset="1" style="stop-color:#F1F2F3"/>
		</linearGradient>
		<path class="st5" d="M160,137.1c0,0.4,0,0.7,0.1,1c0-0.2,0.1-0.5,0.1-0.7c0-0.1,0.1-0.2,0.1-0.3c0-0.2,0.1-0.3,0.2-0.5
			C160.3,136.8,160.1,137,160,137.1z M175.4,135.7c-0.2,0.2-0.4,0.4-0.6,0.5c0.1,0.2,0.2,0.5,0.3,0.7c0.1,0.2,0.1,0.4,0.2,0.5
			c0.1,0.2,0.1,0.5,0.2,0.7c0.1-0.4,0.1-0.8,0.1-1.3C175.5,136.5,175.5,136.1,175.4,135.7z M61.2,111c-5.5,0-10,4.5-10,10v0.3
			c0-5.7,4.6-10.3,10.4-10.3H61.2z M56.6,114.8c-0.7,0.3-1.3,0.8-1.8,1.3C55.3,115.6,56,115.2,56.6,114.8z M51.8,120.4
			c-0.2,0.5-0.3,1-0.4,1.5C51.5,121.3,51.7,120.9,51.8,120.4z M112.4,113.6h1.3v-1.3C113.3,112.8,112.9,113.2,112.4,113.6z
			 M196.2,120.8c0-0.2,0-0.4,0-0.5c0-0.7-0.1-1.4-0.3-2c-0.9-3.2-3.4-5.8-6.5-6.8c-0.9-0.3-1.9-0.5-2.9-0.5c1,0,1.9,0.2,2.8,0.5
			c3.1,1.1,5.6,3.6,6.6,6.8c-0.3,0.2-0.5,0.5-0.8,0.7c0,0,0-0.1-0.1-0.1c0,0,0,0.1,0,0.1c0.1,0.1,0.1,0.2,0.2,0.3
			c0.1,0.2,0.2,0.3,0.3,0.5c0.1,0.2,0.2,0.4,0.2,0.5c0.2,0.5,0.3,1,0.4,1.5c0.1,0.7,0.2,1.4,0.2,2.1V121
			C196.2,121,196.2,120.9,196.2,120.8z M190.8,114.8c0.7,0.4,1.3,0.8,1.8,1.3C192.1,115.6,191.5,115.2,190.8,114.8z"/>
		<linearGradient id="SVGID_4_" gradientUnits="userSpaceOnUse" x1="160.23" y1="138.19" x2="160.23" y2="136.69">
			<stop  offset="0" style="stop-color:#00F260"/>
			<stop  offset="1" style="stop-color:#0575E6"/>
		</linearGradient>
		<path class="st6" d="M160.5,136.7c-0.1,0.2-0.1,0.3-0.2,0.5c0,0.1-0.1,0.2-0.1,0.3c-0.1,0.2-0.1,0.5-0.1,0.7
			c-0.1-0.3-0.1-0.7-0.1-1C160.1,137,160.3,136.8,160.5,136.7z"/>
		<linearGradient id="SVGID_5_" gradientUnits="userSpaceOnUse" x1="175.15" y1="138.19" x2="175.15" y2="135.74">
			<stop  offset="0" style="stop-color:#00F260"/>
			<stop  offset="1" style="stop-color:#0575E6"/>
		</linearGradient>
		<path class="st7" d="M175.5,136.9c0,0.4,0,0.9-0.1,1.3c0-0.2-0.1-0.5-0.2-0.7c0-0.2-0.1-0.4-0.2-0.5c-0.1-0.2-0.2-0.5-0.3-0.7
			c0.2-0.2,0.4-0.4,0.6-0.5C175.5,136.1,175.5,136.5,175.5,136.9z"/>
		<g class="st8">
			<path class="st9" d="M113.8,112.3v1.3h-1.3C112.9,113.2,113.3,112.8,113.8,112.3z"/>
			<path class="st9" d="M196.2,121.4v2.6c0-0.7-0.1-1.4-0.2-2.1c-0.1-0.5-0.2-1-0.4-1.5c-0.1-0.2-0.1-0.4-0.2-0.5
				c-0.1-0.2-0.2-0.4-0.3-0.5c0-0.1-0.1-0.2-0.2-0.3c0.3-0.2,0.5-0.5,0.8-0.7c0.2,0.6,0.3,1.3,0.4,2c0,0.2,0,0.4,0,0.5
				C196.2,121,196.2,121.2,196.2,121.4z"/>
		</g>
	</g>
	<g>
		<linearGradient id="SVGID_6_" gradientUnits="userSpaceOnUse" x1="79.705" y1="225.43" x2="79.705" y2="224.38">
			<stop  offset="0" style="stop-color:#4C5561"/>
			<stop  offset="1" style="stop-color:#2E3842"/>
		</linearGradient>
		<path class="st10" d="M82.3,224.4v1h-5.2c0.1-0.2,0.2-0.4,0.3-0.6c0.1-0.2,0.2-0.3,0.3-0.5H82.3z"/>
		<g class="st4">
			<path d="M76.5,202.3v1.4c0,0.2-0.1,0.3-0.3,0.3h-3.9c-0.2,0-0.3-0.1-0.3-0.3v-1.4c0-0.2,0.1-0.3,0.3-0.3h3.9
				C76.4,202,76.5,202.1,76.5,202.3z"/>
			<path d="M80.3,172.6c-0.6,0.4-1.3,0.6-2,0.6h-7.6c-0.7,0-1.4-0.2-2-0.6H80.3z"/>
			<path d="M82.5,202.3v1.4c0,0.2-0.1,0.3-0.3,0.3h-3.9c-0.2,0-0.3-0.1-0.3-0.3v-1.4c0-0.2,0.1-0.3,0.3-0.3h3.9
				C82.4,202,82.5,202.1,82.5,202.3z"/>
			<path d="M120.8,203.9h-0.5c-0.2,0-0.3-0.1-0.3-0.3C120.3,203.7,120.5,203.8,120.8,203.9z"/>
			<path d="M124.5,205.3v0.9c-0.5-0.4-1-0.8-1.6-1.2h1.3C124.4,205,124.5,205.1,124.5,205.3z"/>
			<path d="M130.5,202.3v1.4c0,0.2-0.1,0.3-0.3,0.3h-3.9c-0.2,0-0.3-0.1-0.3-0.3v-1.4c0-0.2,0.1-0.3,0.3-0.3h3.9
				C130.4,202,130.5,202.1,130.5,202.3z"/>
			<path d="M160.1,197.3L160.1,197.3c0-0.1,0-0.1,0-0.2C160.1,197.2,160.1,197.3,160.1,197.3z"/>
			<path d="M175.5,195.9c0,0.4,0,0.9-0.1,1.3c-0.4-2.4-1.9-4.5-4-5.6c-1.1-0.6-2.3-0.9-3.6-0.9c-3.8,0-7,2.8-7.7,6.5
				c-0.1-0.4-0.1-0.8-0.1-1.3c0-4.3,3.5-7.8,7.8-7.8c1.8,0,3.4,0.6,4.7,1.6C174.3,191.1,175.5,193.4,175.5,195.9z"/>
			<path d="M178.7,172.6c-0.6,0.4-1.3,0.6-2,0.6h-7.6c-0.7,0-1.4-0.2-2-0.6H178.7z"/>
		</g>
		<path class="st0" d="M55.8,174.3c0,0-0.1,0.1-0.2,0.1c0.1-0.1,0.2-0.1,0.3-0.2C55.9,174.3,55.9,174.3,55.8,174.3z M191.6,174.3
			c0,0-0.1-0.1-0.2-0.1c0.1,0.1,0.2,0.1,0.3,0.2C191.7,174.4,191.7,174.4,191.6,174.3z"/>
		<path class="st0" d="M196,180.9c-0.1-0.5-0.3-1-0.4-1.5c-0.1-0.3-0.2-0.6-0.4-0.9c-0.4-0.8-0.8-1.5-1.3-2.1
			c-0.2-0.3-0.4-0.5-0.7-0.7c-0.3-0.3-0.6-0.6-1-0.9c-0.1,0-0.1-0.1-0.2-0.2c0,0,0,0,0,0c0,0,0,0,0,0c0,0-0.1-0.1-0.2-0.1h0
			c-0.1-0.1-0.2-0.1-0.3-0.2c0,0-0.1-0.1-0.2-0.1c-0.2-0.1-0.3-0.2-0.5-0.3c-0.5-0.2-0.9-0.5-1.4-0.6c-0.5-0.2-1-0.3-1.5-0.4
			c-0.7-0.1-1.4-0.2-2.1-0.2h-7.1c-0.6,0.4-1.3,0.6-2,0.6h-7.6c-0.7,0-1.4-0.2-2-0.6H80.3c-0.6,0.4-1.3,0.6-2,0.6h-7.6
			c-0.7,0-1.4-0.2-2-0.6h-7.1c-0.7,0-1.4,0.1-2.1,0.2c-0.5,0.1-1,0.2-1.5,0.4c-0.5,0.2-0.9,0.4-1.4,0.6c-0.2,0.1-0.3,0.2-0.5,0.3
			c0,0-0.1,0.1-0.2,0.1c-0.1,0.1-0.2,0.1-0.3,0.2h0c-0.1,0-0.1,0.1-0.2,0.1c0,0,0,0,0,0c0,0,0,0,0,0c-0.1,0-0.1,0.1-0.2,0.2
			c-0.3,0.3-0.7,0.5-1,0.9c-0.3,0.2-0.5,0.5-0.7,0.7c-0.5,0.6-1,1.3-1.3,2.1c-0.1,0.3-0.3,0.6-0.4,0.9c-0.2,0.5-0.3,1-0.4,1.5
			c-0.1,0.7-0.2,1.4-0.2,2.1V214c0,5.7,4.6,10.4,10.4,10.4h5.2v3.8c0,2.2,1.8,4,4,4h7.6c2.2,0,4-1.8,4-4v-2.8h-5.2
			c0.1-0.2,0.2-0.4,0.3-0.6c0.1-0.2,0.2-0.3,0.3-0.5H107c0.3,0.4,0.7,0.7,1.1,1h30.1c0.1-0.3,0.3-0.7,0.5-1h26.4v3.8
			c0,2.2,1.8,4,4,4h7.6c2.2,0,4-1.8,4-4v-3.8h5.2c5.7,0,10.4-4.6,10.4-10.4V183C196.2,182.2,196.1,181.5,196,180.9z M76.5,203.7
			c0,0.2-0.1,0.3-0.3,0.3h-3.9c-0.2,0-0.3-0.1-0.3-0.3v-1.4c0-0.2,0.1-0.3,0.3-0.3h3.9c0.2,0,0.3,0.1,0.3,0.3V203.7z M82.5,203.7
			c0,0.2-0.1,0.3-0.3,0.3h-3.9c-0.2,0-0.3-0.1-0.3-0.3v-1.4c0-0.2,0.1-0.3,0.3-0.3h3.9c0.2,0,0.3,0.1,0.3,0.3V203.7z M120.3,203.9
			c-0.2,0-0.3-0.1-0.3-0.3c0.3,0.1,0.5,0.2,0.8,0.3H120.3z M124.5,206.2c-0.5-0.4-1-0.8-1.6-1.2h1.3c0.2,0,0.3,0.1,0.3,0.3V206.2z
			 M130.5,203.7c0,0.2-0.1,0.3-0.3,0.3h-3.9c-0.2,0-0.3-0.1-0.3-0.3v-1.4c0-0.2,0.1-0.3,0.3-0.3h3.9c0.2,0,0.3,0.1,0.3,0.3V203.7z
			 M175.5,198.5c0,4.3-3.5,7.8-7.8,7.8c-4.3,0-7.8-3.5-7.8-7.8c0-0.4,0-0.8,0.1-1.1c0-0.1,0-0.1,0-0.2c-0.1-0.4-0.1-0.8-0.1-1.3
			c0-4.3,3.5-7.8,7.8-7.8c1.8,0,3.4,0.6,4.7,1.6c1.9,1.4,3.1,3.7,3.1,6.2c0,0.4,0,0.9-0.1,1.3C175.5,197.6,175.5,198,175.5,198.5z"
			/>
		<linearGradient id="SVGID_7_" gradientUnits="userSpaceOnUse" x1="72" y1="202.97" x2="77.643" y2="202.97">
			<stop  offset="0" style="stop-color:#BFC1C1"/>
			<stop  offset="1" style="stop-color:#F1F2F3"/>
		</linearGradient>
		<path class="st11" d="M76.5,202.3v1.4c0,0.2-0.1,0.3-0.3,0.3h-3.9c-0.2,0-0.3-0.1-0.3-0.3v-1.4c0-0.2,0.1-0.3,0.3-0.3h3.9
			C76.4,202,76.5,202.1,76.5,202.3z"/>
		<linearGradient id="SVGID_8_" gradientUnits="userSpaceOnUse" x1="78" y1="202.97" x2="83.643" y2="202.97">
			<stop  offset="0" style="stop-color:#BFC1C1"/>
			<stop  offset="1" style="stop-color:#F1F2F3"/>
		</linearGradient>
		<path class="st12" d="M82.5,202.3v1.4c0,0.2-0.1,0.3-0.3,0.3h-3.9c-0.2,0-0.3-0.1-0.3-0.3v-1.4c0-0.2,0.1-0.3,0.3-0.3h3.9
			C82.4,202,82.5,202.1,82.5,202.3z"/>
		<linearGradient id="SVGID_9_" gradientUnits="userSpaceOnUse" x1="120" y1="203.8" x2="121.0283" y2="203.8">
			<stop  offset="0" style="stop-color:#BFC1C1"/>
			<stop  offset="1" style="stop-color:#F1F2F3"/>
		</linearGradient>
		<path class="st13" d="M120.8,203.9h-0.5c-0.2,0-0.3-0.1-0.3-0.3C120.3,203.7,120.5,203.8,120.8,203.9z"/>
		<linearGradient id="SVGID_10_" gradientUnits="userSpaceOnUse" x1="122.92" y1="205.575" x2="124.9013" y2="205.575">
			<stop  offset="0" style="stop-color:#BFC1C1"/>
			<stop  offset="1" style="stop-color:#F1F2F3"/>
		</linearGradient>
		<path class="st14" d="M124.5,205.3v0.9c-0.5-0.4-1-0.8-1.6-1.2h1.3C124.4,205,124.5,205.1,124.5,205.3z"/>
		<linearGradient id="SVGID_11_" gradientUnits="userSpaceOnUse" x1="126" y1="202.97" x2="131.643" y2="202.97">
			<stop  offset="0" style="stop-color:#BFC1C1"/>
			<stop  offset="1" style="stop-color:#F1F2F3"/>
		</linearGradient>
		<path class="st15" d="M130.5,202.3v1.4c0,0.2-0.1,0.3-0.3,0.3h-3.9c-0.2,0-0.3-0.1-0.3-0.3v-1.4c0-0.2,0.1-0.3,0.3-0.3h3.9
			C130.4,202,130.5,202.1,130.5,202.3z"/>
		<linearGradient id="SVGID_12_" gradientUnits="userSpaceOnUse" x1="160.04" y1="197.265" x2="160.1152" y2="197.265">
			<stop  offset="0" style="stop-color:#BFC1C1"/>
			<stop  offset="1" style="stop-color:#F1F2F3"/>
		</linearGradient>
		<path class="st16" d="M160.1,197.3L160.1,197.3c0-0.1,0-0.1,0-0.2C160.1,197.2,160.1,197.3,160.1,197.3z"/>
		<linearGradient id="SVGID_13_" gradientUnits="userSpaceOnUse" x1="159.96" y1="192.66" x2="179.4472" y2="192.66">
			<stop  offset="0" style="stop-color:#BFC1C1"/>
			<stop  offset="1" style="stop-color:#F1F2F3"/>
		</linearGradient>
		<path class="st17" d="M175.5,195.9c0,0.4,0,0.9-0.1,1.3c-0.4-2.4-1.9-4.5-4-5.6c-1.1-0.6-2.3-0.9-3.6-0.9c-3.8,0-7,2.8-7.7,6.5
			c-0.1-0.4-0.1-0.8-0.1-1.3c0-4.3,3.5-7.8,7.8-7.8c1.8,0,3.4,0.6,4.7,1.6C174.3,191.1,175.5,193.4,175.5,195.9z"/>
		<linearGradient id="SVGID_14_" gradientUnits="userSpaceOnUse" x1="51.42" y1="180.125" x2="51.9467" y2="180.125">
			<stop  offset="0" style="stop-color:#BFC1C1"/>
			<stop  offset="1" style="stop-color:#F1F2F3"/>
		</linearGradient>
		<path class="st18" d="M51.4,180.9c0.1-0.5,0.2-1,0.4-1.5C51.7,179.9,51.5,180.3,51.4,180.9z"/>
		<linearGradient id="SVGID_15_" gradientUnits="userSpaceOnUse" x1="55.67" y1="174.335" x2="56.0587" y2="174.335">
			<stop  offset="0" style="stop-color:#BFC1C1"/>
			<stop  offset="1" style="stop-color:#F1F2F3"/>
		</linearGradient>
		<path class="st19" d="M55.8,174.3c0,0,0.1-0.1,0.2-0.1c-0.1,0.1-0.2,0.1-0.3,0.2C55.7,174.4,55.8,174.4,55.8,174.3z"/>
		<linearGradient id="SVGID_16_" gradientUnits="userSpaceOnUse" x1="68.7" y1="172.87" x2="83.284" y2="172.87">
			<stop  offset="0" style="stop-color:#BFC1C1"/>
			<stop  offset="1" style="stop-color:#F1F2F3"/>
		</linearGradient>
		<path class="st20" d="M80.3,172.6c-0.6,0.4-1.3,0.6-2,0.6h-7.6c-0.7,0-1.4-0.2-2-0.6H80.3z"/>
		<linearGradient id="SVGID_17_" gradientUnits="userSpaceOnUse" x1="167.09" y1="172.87" x2="181.674" y2="172.87">
			<stop  offset="0" style="stop-color:#BFC1C1"/>
			<stop  offset="1" style="stop-color:#F1F2F3"/>
		</linearGradient>
		<path class="st21" d="M178.7,172.6c-0.6,0.4-1.3,0.6-2,0.6h-7.6c-0.7,0-1.4-0.2-2-0.6H178.7z"/>
		<linearGradient id="SVGID_18_" gradientUnits="userSpaceOnUse" x1="191.44" y1="174.335" x2="191.8287" y2="174.335">
			<stop  offset="0" style="stop-color:#BFC1C1"/>
			<stop  offset="1" style="stop-color:#F1F2F3"/>
		</linearGradient>
		<path class="st22" d="M191.6,174.3c0.1,0,0.1,0.1,0.2,0.1c-0.1-0.1-0.2-0.1-0.3-0.2C191.5,174.3,191.5,174.3,191.6,174.3z"/>
		<linearGradient id="SVGID_19_" gradientUnits="userSpaceOnUse" x1="195.58" y1="180.125" x2="196.1067" y2="180.125">
			<stop  offset="0" style="stop-color:#BFC1C1"/>
			<stop  offset="1" style="stop-color:#F1F2F3"/>
		</linearGradient>
		<path class="st23" d="M196,180.9c-0.1-0.5-0.3-1-0.4-1.5C195.8,179.9,195.9,180.3,196,180.9z"/>
		<g class="st4">
			<path d="M160.1,197.3L160.1,197.3c0-0.1,0-0.1,0-0.2C160.1,197.2,160.1,197.3,160.1,197.3z"/>
		</g>
		<linearGradient id="SVGID_20_" gradientUnits="userSpaceOnUse" x1="167.73" y1="197.19" x2="167.73" y2="188.13">
			<stop  offset="0" style="stop-color:#00F260"/>
			<stop  offset="1" style="stop-color:#0575E6"/>
		</linearGradient>
		<path class="st24" d="M175.5,195.9c0,0.4,0,0.9-0.1,1.3c-0.4-2.4-1.9-4.5-4-5.6c-1.1-0.6-2.3-0.9-3.6-0.9c-3.8,0-7,2.8-7.7,6.5
			c-0.1-0.4-0.1-0.8-0.1-1.3c0-4.3,3.5-7.8,7.8-7.8c1.8,0,3.4,0.6,4.7,1.6C174.3,191.1,175.5,193.4,175.5,195.9z"/>
	</g>
</g>
</svg>
