<?xml version="1.0" encoding="utf-8"?>
<!-- Generator: Adobe Illustrator 23.0.0, SVG Export Plug-In . SVG Version: 6.00 Build 0)  -->
<svg version="1.1" id="Layer_1" xmlns="http://www.w3.org/2000/svg" xmlns:xlink="http://www.w3.org/1999/xlink" x="0px" y="0px"
	 viewBox="0 0 256 256" style="enable-background:new 0 0 256 256;" xml:space="preserve">
<style type="text/css">
	.st0{fill:#F75049;}
	.st1{fill-rule:evenodd;clip-rule:evenodd;fill:#F75049;}
</style>
<path class="st0" d="M106.5,208.3v1.4c0,0.2-0.1,0.3-0.3,0.3H105c0.3-0.7,0.8-1.3,1.2-1.9C106.4,208,106.5,208.1,106.5,208.3z"/>
<path class="st0" d="M112.5,203.7c0,0.2-0.1,0.3-0.3,0.3h-0.5C112,203.8,112.2,203.7,112.5,203.7z"/>
<path class="st0" d="M120.8,203.9h-0.5c-0.2,0-0.3-0.1-0.3-0.3C120.3,203.7,120.5,203.8,120.8,203.9z"/>
<path class="st0" d="M124.4,225.4c-2.2,1.9-5,3-8.1,3s-5.9-1.1-8.1-3H124.4z"/>
<path class="st0" d="M127.5,209.9h-1.2c-0.2,0-0.3-0.1-0.3-0.3v-1.4c0-0.1,0.1-0.3,0.3-0.3C126.7,208.6,127.1,209.3,127.5,209.9z"/>
<path class="st0" d="M146.5,130.7v3h-3.5C144.3,132.7,145.4,131.7,146.5,130.7z"/>
<g>
	<path class="st1" d="M45.6,19.1c0.7-0.1,1.3-0.3,1.9-0.4c0.2,0,0.4-0.1,0.6-0.1c0.5-0.8,1-1.5,1.5-2.2C48.4,17.1,47,18,45.6,19.1z
		 M222,22.6c0.1,0,0.1,0,0.2,0.1c0.4-0.4,0.8-0.8,1.1-1.2C222.8,21.9,222.4,22.3,222,22.6z M6.3,72.1c0,0.1,0,0.3,0,0.4
		c0,0.3,0,0.5,0,0.7c1.5-1.3,2.9-2.6,4.3-3.9c0-0.6,0.1-1.2,0.1-1.8C9.2,69,7.8,70.5,6.3,72.1z M90.9,236.3
		C90.9,236.3,90.9,236.3,90.9,236.3c-4.3,0-8.6,0-12.9-0.1c-0.3,0-0.5,0-0.8,0c-0.5,1.5-1.4,2.8-2.5,3.9c1.1,0,2.1,0.1,3.2,0.1
		c2,0,4,0.1,5.9,0.1c2.3,0,4.7,0,7,0h43.5c0.7-1.3,1.2-2.6,1.7-4H90.9z"/>
</g>
<path class="st0" d="M244.6,40.9c-0.1,0.1-0.2,0.1-0.3,0.2c-1.1,0.9-2.2,1.8-3.3,2.7c-17.5,14.4-35.3,29.6-53.3,45.6
	c-14.2,12.6-27.9,25.1-41.2,37.5v-8.3h-15.1v15.2h5.1c0,0,0,0.8,0,2.7v9.5c0,1.7-0.8,3.4-1.8,4.7l-0.3,0.3l-8.2,7.7l-6.1,5.7h-1.4
	v-41.1c20.2-19,40.3-38.1,60.5-57.1c14.3-14.5,28.6-29,42.9-43.5c0.4-0.4,0.8-0.8,1.1-1.2c-0.5,0.4-0.9,0.7-1.3,1.1
	c-12.7,10.2-25.6,21.2-38.7,33c-24.2,21.8-45.6,43.7-64.5,64.8v-12.9c0.1-0.1,0.2-0.2,0.4-0.3h5.9l-2.1-3.6
	c9.8-9.3,20-19.1,30.7-29.2c26.1-24.8,44.8-42.5,57.9-55c1.2-1.1,2.3-2.2,3.4-3.3c0.1-0.1,0.1-0.1,0.2-0.2c9.6,2.4,16.7,6.2,21.8,12
	c-0.1,0.1-0.2,0.2-0.4,0.3c-1,0.8-2.1,1.7-3.1,2.5c-10.7,8.5-21.6,17.6-32.6,27.1c-20.2,17.5-38.6,34.7-55.4,51.5
	C168.3,92.1,192,72.6,216,50.6c6.6-6,13-12.1,19.1-18.1c1-0.9,1.9-1.9,2.9-2.8c0.1-0.1,0.2-0.2,0.3-0.3
	C240.9,32.6,243,36.4,244.6,40.9z"/>
<path class="st0" d="M249.9,74C249.8,74,249.8,74,249.9,74c-1.3,1.1-2.6,2.1-3.9,3.2c-6.8,5.5-13.6,11.3-20.5,17.2
	c-14.5,11.3-29.5,23.5-44.7,36.6c-7.7,6.7-15.1,13.3-22.3,19.9h-14.3c14.7-12.8,29.4-25.7,44.1-38.6c16.6-14.6,33.2-29.1,49.8-43.7
	c-18.8,12.2-39.4,27.1-60.6,45.2c-13.3,11.4-25.3,22.8-36.2,33.8c0.1-0.6,0.2-1.2,0.2-1.9v-10.7c0.6-0.5,1.1-1,1.6-1.4
	c1.2-1,2.3-2,3.5-3c17.4-15.1,35-30.7,52.6-46.8c14.4-13.1,28.5-26.1,42.2-39.1c1.1-1,2.2-2,3.2-3l0.2-0.2
	C247.7,50,249.2,60.6,249.9,74z"/>
<path class="st0" d="M113.8,126.1c-3,3.4-6,6.8-8.8,10.2c2.9-2.8,5.9-5.5,8.8-8.3v56.4h-0.3l-7.5-7.1l-8-7.6l-0.1-0.1
	c-1-1.3-1.8-3-1.8-4.7v-12.7c0.8-0.3,1.6-0.7,2.3-1.3c1.7-1.4,2.8-3.5,2.8-5.8c0-4.2-3.4-7.6-7.6-7.6c-4.2,0-7.6,3.4-7.6,7.6
	c0,2.3,1.1,4.4,2.8,5.8c0.7,0.6,1.5,1,2.3,1.3v6.6c-0.3-0.1-0.7-0.2-1-0.2v8.5h1.3c0.6,2.6,2,5.1,3.7,6.8c0,0,0,0,0,0
	c0,0,0,0,0.1,0.1c0,0,6.2,5.8,11,10.4c3.2,3,5.9,5.6,5.9,5.6c0.1,0.1,0.1,0.1,0.2,0.2c0.9,1.3,1.6,2.8,1.6,4.5v2.8H65.4
	c-0.8-1.5-0.5-3.1-1.1-5.2c-0.1-0.3-0.2-0.7-0.3-1h-7.9v-6.5c-2.5,0.2-5,1.7-7.2,1.3c-0.4-0.1-0.8-0.2-1.1-0.4
	c-1.2-0.8-2.6-2.6-2.6-7.7c1.9-1.8,3.8-3.7,5.8-5.6c6.7-6.5,14.2-13.6,22.3-21.4c12-11.5,25.5-24.5,40.3-38.6V126.1z"/>
<path class="st0" d="M204.9,13.9c0,0-0.1,0.1-0.1,0.1c-1.4,1.1-2.9,2.3-4.4,3.5c-14.2,11.2-30.8,25.3-47.2,40.9
	c-11.8,11.2-18.4,18.3-35.4,36.4l-1.5-2.7l-6.4,11.1c-0.7,0.7-1.4,1.5-2.1,2.2c-16.3,17.2-31,32.5-43.5,45.5c-4.1,4.3-8,8.3-11.6,12
	l0,0c-5.7,5.9-10.8,11.1-15.3,15.6c-2.1,0.8-5.2,1.6-8.2,0.4c-3.3-1.2-3.4-3.6-6-4.2c-4.5-1-6.8,5.6-12.4,5.4c-0.1,0-0.3,0-0.4,0
	c0.2,3.2,0.5,6.3,0.8,9.5c0.3,3,0.8,5.9,1.3,8.8c0.5,2.6,1.1,5.1,1.8,7.6c0.7,2.2,1.5,4.4,2.4,6.5c0.8,1.9,1.9,3.7,3,5.4
	c1.1,1.6,2.4,3.1,3.7,4.5c1.4,1.4,2.9,2.6,4.5,3.7c1.7,1.2,3.6,2.2,5.5,3c2.1,1,4.3,1.8,6.5,2.4c2.5,0.7,5.1,1.4,7.7,1.8
	c2.9,0.5,5.9,1,8.9,1.3c3.4,0.4,6.7,0.6,10.1,0.8c3.5,0.2,7.1,0.3,10.7,0.4c-0.5,1.5-1.4,2.8-2.5,3.9c-2.8-0.1-5.6-0.2-8.4-0.4
	c-3.5-0.2-6.9-0.5-10.4-0.9c-3.1-0.3-6.1-0.8-9.1-1.3c-2.7-0.5-5.4-1.1-8.1-1.9c-2.4-0.7-4.8-1.6-7-2.6c-2.1-0.9-4.1-2.1-6.1-3.3
	c-1.8-1.2-3.6-2.7-5.1-4.2c-1.6-1.6-3-3.3-4.2-5.1c-1.3-1.9-2.4-3.9-3.4-6c-1-2.3-1.9-4.6-2.6-7c-0.8-2.7-1.4-5.3-1.9-8
	c-0.6-3-1-6.1-1.3-9.1c-0.4-3.4-0.7-6.9-0.9-10.3c0-0.6-0.1-1.1-0.1-1.7c-0.2-3.3-0.3-6.6-0.4-9.9c-0.1-3.8-0.1-7.6-0.1-11.4V95.5
	c0-8.2,0.2-15.6,0.5-22.2c0,0,0,0,0,0c1.5-1.3,2.9-2.6,4.3-3.9C38.2,44,55.5,27.4,66,16.6c1.5-1.5,2.8-2.9,4-4.2c0,0,0,0,0,0
	c4.2-0.2,8.7-0.3,13.5-0.3c1.9,0,3.9,0,5.9,0h1.7c-1.4,1.3-2.8,2.7-4.1,4C65.8,37,47.8,57.6,32.8,76.7C51.7,56.6,71.4,36.3,91.8,16
	c1.3-1.3,2.7-2.7,4-4h12.2c0,0,0,0,0,0c-1.3,1.3-2.6,2.6-3.9,4C90.4,30.3,79.7,44.3,71.3,56.6c13.6-12.5,27.4-26,41.3-40.6
	c1.3-1.3,2.5-2.7,3.8-4h50.1c0.8,0,1.7,0,2.5,0c-1.7,1.3-3.3,2.7-5,4c-9.2,7.5-18.6,15.3-28.1,23.5c-20.1,17.5-38.5,34.7-55.3,51.5
	C103.3,73.8,127,54.3,151,32.2c5.9-5.4,11.7-10.9,17.3-16.3c1.4-1.3,2.8-2.6,4.1-4c0,0,0,0,0,0c0,0,0,0,0,0
	c6.7,0.1,12.8,0.3,18.4,0.6c0,0,0,0-0.1,0c-1.6,1.2-3.2,2.5-4.8,3.8c-12.8,10.1-25.8,20.8-39.1,32.3c-20.1,17.4-38.6,34.7-55.4,51.5
	C114.3,82.9,138,63.4,162,41.4c9.1-8.4,17.8-16.7,26.2-24.9c1.3-1.3,2.5-2.5,3.8-3.8c0,0,0,0,0.1-0.1
	C196.7,12.9,200.9,13.3,204.9,13.9z"/>
<path class="st0" d="M6.3,72.1C6.3,72.1,6.3,72.1,6.3,72.1c1.5-1.6,3-3.1,4.4-4.6c19.9-20.9,35.4-37.4,47.5-50.3
	c1.4-1.5,2.8-3,4.1-4.4c0,0,0.1-0.1,0.1-0.1C20.4,15.8,8.7,28.6,6.3,72.1z M48.1,18.6c-0.9,1.2-1.9,2.5-2.9,3.8
	c-4.8,5.8-9.9,10.1-14.3,13.3c2.5-4.2,6.3-9.5,12.1-14.5c0.9-0.8,1.8-1.5,2.6-2.1c0,0,0,0,0,0c1.4-1,2.7-1.9,4-2.7
	C49.2,17.1,48.7,17.8,48.1,18.6z"/>
<path class="st0" d="M118.8,164.3v1.3l1.4-1.3H118.8z M118.8,164.3v1.3l1.4-1.3H118.8z M118.8,164.3v1.3l1.4-1.3H118.8z M154.2,208
	h-3.9c-0.2,0-0.3,0.1-0.3,0.3v1.4c0,0.2,0.1,0.3,0.3,0.3h3.9c0.2,0,0.3-0.1,0.3-0.3v-1.4C154.5,208.1,154.4,208,154.2,208z
	 M154.2,205h-3.9c-0.2,0-0.3,0.1-0.3,0.3v1.4c0,0.2,0.1,0.3,0.3,0.3h3.9c0.2,0,0.3-0.1,0.3-0.3v-1.4
	C154.5,205.1,154.4,205,154.2,205z M154.2,202h-3.9c-0.2,0-0.3,0.1-0.3,0.3v1.4c0,0.2,0.1,0.3,0.3,0.3h3.9c0.2,0,0.3-0.1,0.3-0.3
	v-1.4C154.5,202.1,154.4,202,154.2,202z M103.6,215.7c0-0.4,0-0.8,0.1-1.3H79.4c0.7,1.5,2.2,1.7,2.6,3.1c0.2,0.7,0,1.3-0.4,1.9
	c-0.2,0.4-0.6,0.8-1,1.2c-0.2,0.2-0.4,0.4-0.6,0.6c-0.3,0.3-0.6,0.7-0.9,1c-0.5,0.5-0.9,1.1-1.3,1.8c-0.1,0.2-0.3,0.4-0.4,0.7
	c-0.1,0.2-0.2,0.4-0.3,0.6h31C105.4,223.1,103.6,219.6,103.6,215.7z M128.8,214.5c0,0.4,0.1,0.8,0.1,1.3c0,3.9-1.8,7.4-4.5,9.7h13.8
	c0.2-0.4,0.4-0.8,0.6-1.2c0,0,0,0,0,0c0.1-0.1,0.1-0.2,0.2-0.3c0.7-1.1,1.4-2,2.1-2.7c0.6-0.7,1.2-1.2,1.8-1.6
	c0.6-0.5,1.2-0.9,1.6-1.2c1.6-1.2,3.3-2.4,5-3.8H128.8z M90.9,236.3C90.9,236.3,90.9,236.3,90.9,236.3c-4.3,0-8.6,0-12.9-0.1
	c-0.3,0-0.5,0-0.8,0c-0.5,1.5-1.4,2.8-2.5,3.9c0,0,0,0,0,0c2.9,0.1,6,0.1,9.2,0.2c2.3,0,4.7,0,7,0h43.5c0.7-1.3,1.2-2.6,1.7-4H90.9z
	 M148.2,208h-3.9c-0.2,0-0.3,0.1-0.3,0.3v1.4c0,0.2,0.1,0.3,0.3,0.3h3.9c0.2,0,0.3-0.1,0.3-0.3v-1.4
	C148.5,208.1,148.4,208,148.2,208z M148.2,205h-3.9c-0.2,0-0.3,0.1-0.3,0.3v1.4c0,0.2,0.1,0.3,0.3,0.3h3.9c0.2,0,0.3-0.1,0.3-0.3
	v-1.4C148.5,205.1,148.4,205,148.2,205z M148.2,202h-3.9c-0.2,0-0.3,0.1-0.3,0.3v1.4c0,0.2,0.1,0.3,0.3,0.3h3.9
	c0.2,0,0.3-0.1,0.3-0.3v-1.4C148.5,202.1,148.4,202,148.2,202z M142.2,208h-3.9c-0.2,0-0.3,0.1-0.3,0.3v1.4c0,0.2,0.1,0.3,0.3,0.3
	h3.9c0.2,0,0.3-0.1,0.3-0.3v-1.4C142.5,208.1,142.4,208,142.2,208z M142.2,205h-3.9c-0.2,0-0.3,0.1-0.3,0.3v1.4
	c0,0.2,0.1,0.3,0.3,0.3h3.9c0.2,0,0.3-0.1,0.3-0.3v-1.4C142.5,205.1,142.4,205,142.2,205z M142.2,202h-3.9c-0.2,0-0.3,0.1-0.3,0.3
	v1.4c0,0.2,0.1,0.3,0.3,0.3h3.9c0.2,0,0.3-0.1,0.3-0.3v-1.4C142.5,202.1,142.4,202,142.2,202z M136.2,208h-3.9
	c-0.2,0-0.3,0.1-0.3,0.3v1.4c0,0.2,0.1,0.3,0.3,0.3h3.9c0.2,0,0.3-0.1,0.3-0.3v-1.4C136.5,208.1,136.4,208,136.2,208z M136.2,205
	h-3.9c-0.2,0-0.3,0.1-0.3,0.3v1.4c0,0.2,0.1,0.3,0.3,0.3h3.9c0.2,0,0.3-0.1,0.3-0.3v-1.4C136.5,205.1,136.4,205,136.2,205z
	 M136.2,202h-3.9c-0.2,0-0.3,0.1-0.3,0.3v1.4c0,0.2,0.1,0.3,0.3,0.3h3.9c0.2,0,0.3-0.1,0.3-0.3v-1.4
	C136.5,202.1,136.4,202,136.2,202z M130.2,208h-3.9c0,0,0,0,0,0c-0.2,0-0.3,0.1-0.3,0.3v1.4c0,0.2,0.1,0.3,0.3,0.3h3.9
	c0.2,0,0.3-0.1,0.3-0.3v-1.4C130.5,208.1,130.4,208,130.2,208z M130.2,205h-3.9c-0.2,0-0.3,0.1-0.3,0.3v1.4c0,0.2,0.1,0.3,0.3,0.3
	h3.9c0.2,0,0.3-0.1,0.3-0.3v-1.4C130.5,205.1,130.4,205,130.2,205z M130.2,202h-3.9c-0.2,0-0.3,0.1-0.3,0.3v1.4
	c0,0.2,0.1,0.3,0.3,0.3h3.9c0.2,0,0.3-0.1,0.3-0.3v-1.4C130.5,202.1,130.4,202,130.2,202z M124.2,205h-1.3c0.5,0.3,1.1,0.7,1.6,1.2
	v-0.9C124.5,205.1,124.4,205,124.2,205z M124.2,202h-3.9c-0.2,0-0.3,0.1-0.3,0.3v1.4c0,0.2,0.1,0.3,0.3,0.3h3.9
	c0.2,0,0.3-0.1,0.3-0.3v-1.4C124.5,202.1,124.4,202,124.2,202z M108.3,205c-0.2,0-0.3,0.1-0.3,0.3v0.9c0.5-0.4,1-0.8,1.6-1.2H108.3z
	 M112.2,202h-3.9c-0.2,0-0.3,0.1-0.3,0.3v1.4c0,0.2,0.1,0.3,0.3,0.3h3.9c0.2,0,0.3-0.1,0.3-0.3v-1.4
	C112.5,202.1,112.4,202,112.2,202z M106.2,208C106.2,208,106.2,208,106.2,208l-4,0c-0.2,0-0.3,0.1-0.3,0.3v1.4
	c0,0.2,0.1,0.3,0.3,0.3h3.9c0.2,0,0.3-0.1,0.3-0.3v-1.4C106.5,208.1,106.4,208,106.2,208z M106.2,205h-3.9c-0.2,0-0.3,0.1-0.3,0.3
	v1.4c0,0.2,0.1,0.3,0.3,0.3h3.9c0.2,0,0.3-0.1,0.3-0.3v-1.4C106.5,205.1,106.4,205,106.2,205z M106.2,202h-3.9
	c-0.2,0-0.3,0.1-0.3,0.3v1.4c0,0.2,0.1,0.3,0.3,0.3h3.9c0.2,0,0.3-0.1,0.3-0.3v-1.4C106.5,202.1,106.4,202,106.2,202z M100.2,208
	h-3.9c-0.2,0-0.3,0.1-0.3,0.3v1.4c0,0.2,0.1,0.3,0.3,0.3h3.9c0.2,0,0.3-0.1,0.3-0.3v-1.4C100.5,208.1,100.4,208,100.2,208z
	 M100.2,205h-3.9c-0.2,0-0.3,0.1-0.3,0.3v1.4c0,0.2,0.1,0.3,0.3,0.3h3.9c0.2,0,0.3-0.1,0.3-0.3v-1.4
	C100.5,205.1,100.4,205,100.2,205z M100.2,202h-3.9c-0.2,0-0.3,0.1-0.3,0.3v1.4c0,0.2,0.1,0.3,0.3,0.3h3.9c0.2,0,0.3-0.1,0.3-0.3
	v-1.4C100.5,202.1,100.4,202,100.2,202z M94.2,208h-3.9c-0.2,0-0.3,0.1-0.3,0.3v1.4c0,0.2,0.1,0.3,0.3,0.3h3.9
	c0.2,0,0.3-0.1,0.3-0.3v-1.4C94.5,208.1,94.4,208,94.2,208z M94.2,205h-3.9c-0.2,0-0.3,0.1-0.3,0.3v1.4c0,0.2,0.1,0.3,0.3,0.3h3.9
	c0.2,0,0.3-0.1,0.3-0.3v-1.4C94.5,205.1,94.4,205,94.2,205z M94.2,202h-3.9c-0.2,0-0.3,0.1-0.3,0.3v1.4c0,0.2,0.1,0.3,0.3,0.3h3.9
	c0.2,0,0.3-0.1,0.3-0.3v-1.4C94.5,202.1,94.4,202,94.2,202z M88.2,208h-3.9c-0.2,0-0.3,0.1-0.3,0.3v1.4c0,0.2,0.1,0.3,0.3,0.3h3.9
	c0.2,0,0.3-0.1,0.3-0.3v-1.4C88.5,208.1,88.4,208,88.2,208z M88.2,205h-3.9c-0.2,0-0.3,0.1-0.3,0.3v1.4c0,0.2,0.1,0.3,0.3,0.3h3.9
	c0.2,0,0.3-0.1,0.3-0.3v-1.4C88.5,205.1,88.4,205,88.2,205z M88.2,202h-3.9c-0.2,0-0.3,0.1-0.3,0.3v1.4c0,0.2,0.1,0.3,0.3,0.3h3.9
	c0.2,0,0.3-0.1,0.3-0.3v-1.4C88.5,202.1,88.4,202,88.2,202z M82.2,208h-3.9c-0.2,0-0.3,0.1-0.3,0.3v0.4c0.7,0.2,1.2,0.4,1.5,1.1
	c0,0.1,0,0.1,0.1,0.2h2.7c0.2,0,0.3-0.1,0.3-0.3v-1.4C82.5,208.1,82.4,208,82.2,208z M82.2,205h-3.9c-0.2,0-0.3,0.1-0.3,0.3v1.4
	c0,0.2,0.1,0.3,0.3,0.3h3.9c0.2,0,0.3-0.1,0.3-0.3v-1.4C82.5,205.1,82.4,205,82.2,205z M82.2,202h-3.9c-0.2,0-0.3,0.1-0.3,0.3v1.4
	c0,0.2,0.1,0.3,0.3,0.3h3.9c0.2,0,0.3-0.1,0.3-0.3v-1.4C82.5,202.1,82.4,202,82.2,202z M76.2,208h-2c0.8,0.3,1.5,0.4,2.3,0.5v-0.2
	C76.5,208.1,76.4,208,76.2,208z M76.2,205h-3.9c-0.2,0-0.3,0.1-0.3,0.3v0.9c0.2,0.3,0.4,0.5,0.6,0.8h3.6c0.2,0,0.3-0.1,0.3-0.3v-1.4
	C76.5,205.1,76.4,205,76.2,205z M76.2,202h-3.9c-0.2,0-0.3,0.1-0.3,0.3v1.4c0,0.2,0.1,0.3,0.3,0.3h3.9c0.2,0,0.3-0.1,0.3-0.3v-1.4
	C76.5,202.1,76.4,202,76.2,202z M5.8,168.2c-0.1-3.8-0.1-7.6-0.1-11.4c0,7.8,0.1,14.8,0.5,21.3c0,0,0,0,0,0
	C6,174.8,5.9,171.5,5.8,168.2z M166.5,12c0.8,0,1.7,0,2.5,0c0,0,0,0,0,0C168.2,12,167.4,12,166.5,12z"/>
<path class="st0" d="M178.9,150.9l-5.5,35.8c-0.9,5.9-6.5,10.7-12.5,10.7h-42.1v-21.7c0-1.7,0.8-3.4,1.8-4.7c0,0,1.5-1.4,3.6-3.4h1
	c0.2-0.2,0.4-0.4,0.6-0.5h4.3l0.4-2.4c0.1-0.4,0.1-0.8,0.1-1.1c0-0.2,0-0.4,0-0.6c4.6-4,9.2-8,13.8-12h14.3
	c-1.3,1.2-2.6,2.4-3.8,3.5h6.1c1.4-1.2,2.8-2.3,4.2-3.5H178.9z"/>
<polygon class="st0" points="113.8,106.1 113.8,115.9 108.5,115.9 108.5,109.8 103.3,109.8 103.3,106.1 "/>
</svg>
