<?xml version="1.0" encoding="utf-8"?>
<!-- Generator: Adobe Illustrator 23.0.0, SVG Export Plug-In . SVG Version: 6.00 Build 0)  -->
<svg version="1.1" id="Layer_1" xmlns="http://www.w3.org/2000/svg" xmlns:xlink="http://www.w3.org/1999/xlink" x="0px" y="0px"
	 viewBox="0 0 256 256" style="enable-background:new 0 0 256 256;" xml:space="preserve">
<style type="text/css">
	.st0{clip-path:url(#SVGID_2_);fill:#F75049;}
	.st1{clip-path:url(#SVGID_2_);}
	.st2{fill:#F75049;}
	.st3{opacity:0.2;}
	.st4{fill-rule:evenodd;clip-rule:evenodd;fill:#F75049;}
</style>
<g>
	<defs>
		<path id="SVGID_1_" d="M339.1,89.4c-1-2.2-5.3-0.5-9.5-3.8c-3.5-2.8-2.6-5.6-5-7.2c-6.3-4-21,8.3-21.4,7.8
			c0-0.5,6.1-4.6,11.8-10.9c3.7-4,10.5-11.4,8.5-16.6c-1.2-3.1-4.6-2.8-5.1-5.6c-0.7-4.4,7.8-7,7.3-12.2c-0.2-2.6-2.7-4.8-4.9-5.7
			c-5.7-2.1-12.8,4-13.2,3.4c-0.2-0.4,4.4-2.8,7-8c0.5-0.9,2.8-5.6,1-7.7c-1.3-1.5-4.3-1.6-6.2-1.2c-2,0.4-3.1,1.4-3.9,0.8
			c-0.6-0.5-0.2-1.6-0.5-2.6c-0.5-2.8-5.6-4.5-9.2-4.9c-8.6-0.8-15.7,7.7-16.6,6.7c-1.1-1.1,8.2-8.8,6.1-14.5
			c-0.8-2.4-3.5-4.3-6.1-4.4c-4.2-0.1-6.5,5.1-8.2,4.4c-2.4-1.1,1.8-11.7-1.7-14.1c-2.2-1.4-4.9,1.5-9.3-0.2c-2.5-1-2.7-2.4-4.3-3
			c-5.1-2-12.4,7-21.6,15.1c-3.9,3.5-10.1,8.4-18.6,13.4c4.3-5.3,8.1-9.5,10.7-12.4c6.8-7.4,10.3-10.3,10.4-15.3
			c0.1-2.1-0.4-6.1-2.8-7.2c-2.8-1.2-6.4,2.8-17.4,10.2c-2.9,2-5.3,3.4-6.7,4.3c0.5-0.6,5.1-6,3.2-11.5c-0.2-0.6-0.9-2.5-3.2-4.4
			c-7-5.6-18.5-2.9-20-2.6C175.7-16.7,172-6.9,154.5,1.7c-0.1,0-2.4,1.3-5.5,2.9c-6.5,3.6-9.8,5.3-11.3,6.3c-4.2,3-7.5,5.3-9.4,9.6
			c-1.8,4.2-0.9,6.9-3.6,9.7c-2.2,2.3-4.9,2.8-5.9,3.1c-9.7,2.5-21.8,19.6-23.4,21.8C89,64.2,67.4,86.4,9.7,138.6
			C87.9,56.3,111.6,30.3,112.6,27.9c0,0,0-0.1,0-0.1c0.4-0.9,2.7-7.1,0.4-9.2c-1.3-1.2-3.7-0.6-4.9-2.5c-0.1-0.1-0.7-1.2-0.5-2.4
			c0.6-3.3,6.9-4,6.8-5.5c0-0.6-1.2-0.8-3.2-1.6c-4.6-1.8-4.6-3.2-7.1-3.9c-3.9-1-7.9,1.2-10.7,2.8c-3.4,1.9-5.5,4-6.4,3.4
			c-0.8-0.6,0.7-2.9-0.5-4.5C85.5,2.8,82.7,3,81.7,3C76,3.4,73.2,7.7,71.5,6.6c-1.1-0.7,0.1-2.7-1.3-4.9c-1.4-2.2-3.5-1.5-6.1-3.4
			c-3-2.3-1.7-4.4-5-8.8c-1.1-1.5-3.2-4.2-6.6-5.5c-3.7-1.4-4.7,0.4-8.5-0.8c-4.3-1.4-4.4-4.1-8.1-4.6c-2.6-0.4-4.8,0.6-6.7,1.5
			c-5,2.3-5.1,4.9-7.8,5c-3.1,0.1-3.6-3.1-8.7-4.1c-1.7-0.3-3.5-0.6-4.6,0.4c-2,1.9,0.5,6.1-1.5,7.9c-1.1,1-3.2,0.8-4.4,0.1
			C0.6-11.5,0.9-13-0.1-14c-3.2-3.3-18.8,0.9-23.4,10.3c-0.8,1.6-1.5,3.8-3.7,5c-2.7,1.4-4.8,0-7.6,0c-4.7,0-7.7,3.9-18,15.9
			c0,0-2.1,2.4-9.1,10.4C-76.2,44-79.1,46-79.2,51c-0.3,8.5,0.8,11.8,0.8,11.8c0.5,1.7,1.6,4.3,0.4,6c-0.8,1.2-1.8,0.6-2.8,1.6
			c-2,2.1,1.1,5.9,0.6,12.6c0,0.2,0,0-0.8,4.5c-1.5,8.8-1.8,10.6-0.7,11.7c1,1,2.6,1,4.2,1c2.9,0,5-1.3,5.9-2
			c6.2-7.4,12.5-14.9,18.7-22.3c-2.6,5.3-5.2,9.3-7.2,12.1c-2.8,3.8-5.2,6.5-7.9,11.8c-0.8,1.6-1.7,3.4-2.5,5.9
			c-1.3,3.9-3.2,8.5-1.2,12.6c0.8,1.7,1.9,2.6,2.3,5c0.4,3-0.8,4.6,0.4,6.5c0.8,1.3,1.6,0.8,2.5,2.1c1.8,2.3-0.4,5,0.5,9.5
			c0.5,2.7,1.4,2,2,4.7c1.1,4.4-1,6.2-0.3,11.7c0.4,2.4,0.5,3.6,1.5,4.4c2.4,2.1,5.9-1.1,9.3,0.8c2.9,1.7,2,5.2,4.9,6.2
			c2,0.7,2.9-0.9,6.5-0.7c0.6,0,4.9,0.3,5.6,2.3c0.6,1.7-1.7,4.5-4.2,5.8c-6,3.2-13.2-1-14.1,0.7c-0.6,1.1,2,3.5,3.6,5
			c16.5,15.5,16.5,16.5,21.9,19.7c5.5,3.2,4.4,1.6,11.2,5.4c8.7,4.9,17.7,9.9,18.1,16.7c0.2,3.9-2.6,4.5-2.4,9.7
			c0.1,3.6,1.6,9.1,5.2,10.4c3.2,1.2,4.9-2,9.9-1.6c5.2,0.4,5.5,4.1,9.7,4.2c6.1,0.2,8.5-6.9,13.3-5.8c2.8,0.6,2.9,3.2,6.5,4.5
			c3.2,1.2,6.5,0.4,8.8-0.4c17.3-17.6,43.7-44.8,76-78.9c26.8-28.4,34-36.5,49-50.7c43.5-41.3,89-73.5,91-71
			c1.4,1.7-19.5,20.9-90.5,88.3c-49.2,46.7-89.6,85.4-116.8,111.6c-0.1,5.5,1.5,7.5,2.8,8.3c3.5,2.2,8.1-2.9,12.4-0.1
			c1.5,1,4.3,3.5,5.4,7.2c0.7,2.7,0.1,4.7,1.9,6.5c1.1,1.2,1.8,0.6,3.2,1.8c3,2.8,1.7,5.6,4.1,7.8c2.6,2.3,6.2,0.7,7.2,2.8
			c0.6,1.3-0.8,2.2-0.4,4.3c0.5,2.4,2.6,2.4,3.1,4.1c0.7,2.9-4.4,4.7-5.7,9.7c-0.8,3.4,1.2,4.1,1,7.8c-0.4,7.6-9.3,9.6-8.9,15.5
			c0.2,3.6,3.8,7.4,7.3,7.9c5.6,0.8,7.6-7,13.7-7c6.9,0,9.4,9.8,15.4,8.9c4.2-0.7,4.9-5.9,9.9-6.1c3.2-0.2,4.9,1.8,7,0.6
			c2.1-1.1,2-3.7,4.2-4.4c1.3-0.3,2,0.3,3.1,0.4c4.1,0.3,9.3-6.4,11.4-13.1c2-6.1,0.2-8.2,2.9-12.9c2-3.5,4.7-5.3,6.1-6.3
			c9.1-6.5,19.6-16.6,29.7-26.1c13.5-12.9,15-18.1,24.1-22.8c1.4-0.7,4.5-2.2,7.8-5.2c5.2-4.7,6.9-9.4,9.1-13.6
			c6.7-13,13.9-13.4,27.6-33.5c0.6-0.9,3.6-5.3,2.9-6c-1.6-1.4-19.2,18.8-23.6,15.8c-1.2-0.8-1-3.1-0.9-4.1
			c1-9.6,13.7-12.9,31.3-28.1c4.5-3.9,2.9-3.1,8.2-7.7c13.7-12.1,28.4-21.3,32.3-28.8c2.3-4.5,3.8-9.3,3.8-9.3
			c0.4-1.5,0.5-2.2,0.8-2.9c1.6-4.4,3.9-6.1,11.2-14.2C338.8,92.7,339.7,90.8,339.1,89.4z M59.6,76.8C54.4,83,48.9,87.7,44.2,91.1
			c2.7-4.5,6.8-10.3,13-15.6c2.5-2.1,4.9-3.8,7.2-5.2C63,72.4,61.4,74.5,59.6,76.8z M55.8,56.6c7.9-8.8,15.7-16.3,23.2-22.8
			c-5.7,7.6-12.6,15.8-20.8,24.2C52.9,63.3,47.8,68,42.7,72.3C46.7,67.2,51,61.9,55.8,56.6z M-35.8,55.9c1.5-3,3.7-6.9,7.1-10.4
			c1.3-1.4,2.7-2.6,3.9-3.5c-0.8,1.4-1.6,2.9-2.6,4.3C-30.2,50.6-33.2,53.7-35.8,55.9z M-21.9,190.3c-1.6,2-3.5,2.8-4.3,3.1
			c0-0.7,0-2.9,1.5-5c1.8-2.4,4.4-2.9,5-3C-19.9,186.2-20.3,188.3-21.9,190.3z M-27.2,113.6c5.4-6.5,10.7-13.1,16.2-19.7
			c0.2,1.6,0.4,3.2,0.6,4.9C-16.1,103.7-21.6,108.7-27.2,113.6z M1.4,212.8c-0.7,0.4-2.7-3.3-8.6-9.7c-1.5-1.7-2.9-3.1-2.6-4.7
			c0.4-1.4,2-2,3.6-2.9c2-1.2,4.7-3.3,7-7.5c-0.2,3.2-1,5.5-1.7,6.9c-0.8,1.6-2,3.1-1.4,4.2c0.4,0.8,1.5,0.6,2.2,1.5
			c0.9,1.1,0.2,2.6,0,4.3C-0.8,209.5,2,212.4,1.4,212.8z M-0.2,26.5c1.5-3,3.7-6.8,7.1-10.4c1.4-1.4,2.7-2.5,3.9-3.4
			c-0.8,1.4-1.6,2.8-2.6,4.3C5.4,21.2,2.4,24.3-0.2,26.5z M46.1,135.3c17.3-22,38.1-45.8,63-69.9c18-17.4,35.6-32.6,52.4-45.9
			c-12.2,11.6-24.4,23.4-36.8,35.5C97.3,82,71.1,108.8,46.1,135.3z M127.3,65.6c13.6-13.6,26.9-24.7,38.9-33.5
			c-7.2,8.5-14.7,17.1-22.7,25.7c-18.7,20.5-37.5,39-55.8,55.8C97.6,99.1,110.4,82.5,127.3,65.6z M157.4,95.1
			c18.1-15.6,35.8-30,53-43.2c-11.6,11.7-23.8,23.5-36.8,35.4c-25.9,23.8-51.4,44.8-75.9,63.3C115.9,132.6,135.7,114,157.4,95.1z
			 M185.5,97.3c-25.9,23.8-51.4,44.8-75.9,63.3c18.1-18.1,38-36.7,59.7-55.5c18.1-15.6,35.8-30,53-43.3
			C210.7,73.6,198.5,85.4,185.5,97.3z M280.4,71.7c-11.6,11.7-23.8,23.5-36.8,35.4c-25.9,23.8-51.4,44.8-75.9,63.3
			c18.1-18.1,37.9-36.7,59.7-55.5C245.5,99.3,263.2,84.9,280.4,71.7z M123.9,199.6c23.9-28,51.8-57.5,84.4-87
			c14.6-13.2,29.1-25.4,43.2-36.8c-15.8,16-31.6,32.1-47.4,48.1C177.4,149.2,150.6,174.4,123.9,199.6z M130.1,226.6
			c25.8-25.4,53.5-51.4,83.1-77.6c23.3-20.7,46.3-40.1,68.9-58.5c-18.3,17.4-37.1,35-56.5,52.6C193.4,172.5,161.5,200.2,130.1,226.6
			z M134.3,243.2c18.1-21.1,40.5-44.4,67.8-67.8c22.9-19.5,45.1-35.6,65.3-48.8c-17.9,15.8-35.7,31.4-53.6,47.1
			C187.4,196.9,160.9,220.1,134.3,243.2z M267.2,149.1c-19.8,18.2-39.5,34.8-58.6,49.9c3.5-3.1,7-6.3,10.6-9.6
			c13-11.9,25.2-23.7,36.8-35.4c-1.6,1.2-3.2,2.5-4.8,3.7c-1,0.8-2,1.7-2.9,2.5c-21,18.2-40.3,36.3-58,53.9
			c-15,12.7-29.7,24.4-44.1,35.3c18.1-18.1,38-36.7,59.7-55.5c16.4-14.2,32.5-27.4,48.2-39.5c17.1-14.7,33.8-28.3,50-40.7
			C292.4,125.4,280.2,137.2,267.2,149.1z"/>
	</defs>
	<clipPath id="SVGID_2_">
		<use xlink:href="#SVGID_1_"  style="overflow:visible;"/>
	</clipPath>
	<path class="st0" d="M196,198.5H60c-0.7,0-1.3-0.1-2-0.2c-0.5-0.1-0.9-0.2-1.4-0.4c-0.1,0-0.3-0.1-0.4-0.2
		c-0.3-0.1-0.6-0.3-0.8-0.4c0,0,0,0,0,0c-0.7-0.4-1.3-0.8-1.9-1.4c-0.1-0.1-0.2-0.2-0.3-0.3c-0.7-0.6-1.2-1.4-1.7-2.2c0,0,0,0,0,0
		c-0.2-0.4-0.4-0.8-0.6-1.3c0,0,0,0,0,0c-0.2-0.5-0.3-0.9-0.4-1.4c-0.1-0.6-0.2-1.3-0.2-2V115c0-5.4,4.4-9.7,9.7-9.7h136
		c5.4,0,9.7,4.4,9.7,9.7v73.8c0,1.2-0.2,2.3-0.6,3.4c-0.1,0.3-0.2,0.6-0.4,0.9c-0.3,0.7-0.8,1.4-1.3,2c-0.2,0.3-0.4,0.5-0.6,0.7
		c-0.1,0.1-0.2,0.2-0.3,0.3c-0.6,0.5-1.2,1-1.9,1.4c-0.3,0.1-0.6,0.3-0.8,0.4c-0.2,0.1-0.3,0.1-0.4,0.2c-0.5,0.2-0.9,0.3-1.4,0.4
		C197.3,198.4,196.7,198.5,196,198.5z"/>
	<g class="st1">
		<path class="st2" d="M196,198.5H60c-0.7,0-1.3-0.1-2-0.2c-0.5-0.1-0.9-0.2-1.4-0.4c-0.1,0-0.3-0.1-0.4-0.2
			c-0.3-0.1-0.6-0.3-0.8-0.4c0,0,0,0,0,0c-0.7-0.4-1.3-0.8-1.9-1.4c-0.1-0.1-0.2-0.2-0.3-0.3c-0.7-0.6-1.2-1.4-1.7-2.2c0,0,0,0,0,0
			c-0.2-0.4-0.4-0.8-0.6-1.3c0,0,0,0,0,0c-0.2-0.5-0.3-0.9-0.4-1.4c-0.1-0.6-0.2-1.3-0.2-2V115c0-5.4,4.4-9.7,9.7-9.7h136
			c5.4,0,9.7,4.4,9.7,9.7v73.8c0,1.2-0.2,2.3-0.6,3.4c-0.1,0.3-0.2,0.6-0.4,0.9c-0.3,0.7-0.8,1.4-1.3,2c-0.2,0.3-0.4,0.5-0.6,0.7
			c-0.1,0.1-0.2,0.2-0.3,0.3c-0.6,0.5-1.2,1-1.9,1.4c-0.3,0.1-0.6,0.3-0.8,0.4c-0.2,0.1-0.3,0.1-0.4,0.2c-0.5,0.2-0.9,0.3-1.4,0.4
			C197.3,198.4,196.7,198.5,196,198.5z"/>
		<path class="st2" d="M250.3,89.7c-0.6-58.6-9.8-74-58.3-77.1c-0.1,0-0.2,0-0.4,0c-5.3-0.3-11.2-0.5-17.5-0.6c-1.5,0-3,0-4.5,0
			c-1,0-2,0-3.1,0h-77c-1,0-2.1,0-3.1,0c-1.5,0-3,0-4.5,0c-0.2,0-0.4,0-0.6,0C15.7,12.9,5.8,25.5,5.7,95.5v61.3
			c0.1,70.9,10.3,82.8,78.2,83.5c2.3,0,4.7,0,7,0h74.1c2.3,0,4.7,0,7,0c66-0.6,77.5-12,78.2-77.8c0-2.4,0-4.8,0-7.3V97
			C250.3,94.6,250.3,92.2,250.3,89.7z M182.4,74.2h-23.3c-4.3,0-7.8-3.5-7.8-7.8V39.2c0-4.3,3.5-7.8,7.8-7.8h23.3
			c4.3,0,7.8,3.5,7.8,7.8v27.2C190.2,70.7,186.7,74.2,182.4,74.2z M165.1,236.3C165.1,236.3,165.1,236.3,165.1,236.3H90.9
			c0,0,0,0,0,0c-4.3,0-8.6,0-12.9-0.1c-3.8-0.1-7.7-0.2-11.5-0.5c-3.4-0.2-6.8-0.5-10.1-0.8c-3-0.3-5.9-0.8-8.9-1.3
			c-2.6-0.5-5.1-1.1-7.7-1.8c-2.2-0.6-4.4-1.4-6.5-2.4c-1.9-0.9-3.7-1.9-5.5-3c-1.6-1.1-3.1-2.3-4.5-3.7c-1.4-1.4-2.6-2.9-3.7-4.5
			c-1.2-1.7-2.2-3.5-3-5.4c-1-2.1-1.8-4.3-2.4-6.5c-0.8-2.5-1.3-5.1-1.8-7.6c-0.5-2.9-1-5.9-1.3-8.8c-0.4-3.4-0.7-6.7-0.8-10.1
			c-0.2-3.8-0.4-7.6-0.5-11.5c-0.1-4.3-0.1-8.6-0.1-12.9V97c0-4.3,0-8.6,0.1-12.9c0.1-3.8,0.2-7.6,0.5-11.5
			c0.2-3.4,0.5-6.8,0.8-10.1c0.3-3,0.8-5.9,1.3-8.8c0.5-2.6,1.1-5.1,1.8-7.6c0.7-2.2,1.5-4.4,2.4-6.5c0.8-1.9,1.9-3.7,3-5.4
			c1.1-1.6,2.4-3.1,3.7-4.5c1.4-1.4,2.9-2.6,4.5-3.7c1.7-1.2,3.6-2.2,5.5-3c2.1-1,4.3-1.8,6.5-2.4c2.5-0.7,5.1-1.3,7.7-1.8
			c2.9-0.5,5.9-1,8.9-1.3c3.4-0.4,6.7-0.6,10.1-0.8c3.8-0.2,7.7-0.4,11.5-0.4c1.1,0,2.2,0,3.3-0.1v67.8c0,5.4,4.3,9.7,9.7,9.7H196
			c5.4,0,9.7-4.3,9.7-9.7V18.2c0.9,0.1,1.8,0.3,2.7,0.5c2.6,0.5,5.1,1.1,7.6,1.8c2.2,0.7,4.4,1.5,6.5,2.4c1.9,0.8,3.7,1.9,5.5,3
			c1.6,1.1,3.1,2.3,4.5,3.7c1.4,1.4,2.6,2.9,3.7,4.5c1.2,1.7,2.2,3.5,3,5.4c1,2.1,1.8,4.3,2.4,6.5c0.8,2.5,1.3,5.1,1.8,7.6
			c0.5,2.9,1,5.9,1.3,8.8c0.4,3.4,0.6,6.7,0.8,10.1c0.2,3.8,0.4,7.6,0.5,11.5c0.1,4.3,0.1,8.6,0.1,12.9v58.2c0,4.3,0,8.6-0.1,12.9
			c-0.1,3.8-0.2,7.6-0.5,11.5c-0.2,3.4-0.5,6.8-0.8,10.1c-0.3,3-0.8,5.9-1.3,8.8c-0.5,2.6-1.1,5.1-1.8,7.6c-0.7,2.2-1.5,4.4-2.4,6.5
			c-0.8,1.9-1.9,3.7-3,5.4c-1.1,1.6-2.4,3.1-3.7,4.5c-1.4,1.4-2.9,2.6-4.5,3.7c-1.7,1.2-3.6,2.2-5.5,3c-2.1,1-4.3,1.8-6.5,2.4
			c-2.5,0.7-5.1,1.4-7.6,1.8c-2.9,0.5-5.9,1-8.9,1.3c-3.4,0.4-6.7,0.6-10.1,0.8c-3.8,0.2-7.7,0.4-11.5,0.5
			C173.7,236.3,169.4,236.3,165.1,236.3z"/>
	</g>
	<g class="st1">
		<path class="st2" d="M205.7,115v73.8c0,1.2-0.2,2.3-0.6,3.4c-0.1,0.3-0.2,0.6-0.4,0.9c-0.3,0.7-0.8,1.4-1.3,2
			c-0.2,0.2-0.4,0.5-0.6,0.7c-0.1,0.1-0.2,0.2-0.3,0.3c-0.6,0.5-1.2,1-1.9,1.4c-0.3,0.1-0.6,0.3-0.8,0.4c-0.2,0.1-0.3,0.1-0.4,0.2
			c-0.5,0.2-0.9,0.3-1.4,0.4c-0.6,0.1-1.3,0.2-2,0.2H60c-0.7,0-1.3-0.1-2-0.2c-0.5-0.1-0.9-0.2-1.4-0.4c-0.1,0-0.3-0.1-0.4-0.2
			c-0.3-0.1-0.6-0.3-0.8-0.4c0,0,0,0,0,0c-0.7-0.4-1.3-0.8-1.9-1.4c-0.1-0.1-0.2-0.2-0.3-0.3c-0.7-0.7-1.2-1.4-1.7-2.2c0,0,0,0,0,0
			c-0.2-0.4-0.4-0.8-0.6-1.3c0,0,0,0,0,0c-0.2-0.5-0.3-0.9-0.4-1.4c-0.1-0.6-0.2-1.3-0.2-2V115c0-5.4,4.4-9.7,9.7-9.7h136
			C201.4,105.3,205.7,109.6,205.7,115z"/>
		<path class="st2" d="M205.7,175.2v13.6c0,1.2-0.2,2.3-0.6,3.4c-0.1,0.3-0.2,0.6-0.4,0.9c-0.3,0.7-0.8,1.4-1.3,2
			c-0.2,0.3-0.4,0.5-0.6,0.7c-0.1,0.1-0.2,0.2-0.3,0.3c-0.6,0.5-1.2,1-1.9,1.4c-0.3,0.1-0.6,0.3-0.8,0.4c-0.2,0.1-0.3,0.1-0.4,0.2
			c-0.5,0.2-0.9,0.3-1.4,0.4c-0.6,0.1-1.3,0.2-2,0.2H60c-0.7,0-1.3-0.1-2-0.2c-0.5-0.1-0.9-0.2-1.4-0.4c-0.1,0-0.3-0.1-0.4-0.2
			c-0.3-0.1-0.6-0.3-0.8-0.4c0,0,0,0,0,0c-0.7-0.4-1.3-0.8-1.9-1.4c-0.1-0.1-0.2-0.2-0.3-0.3c-0.7-0.6-1.2-1.4-1.7-2.2c0,0,0,0,0,0
			c-0.2-0.4-0.4-0.8-0.6-1.3c0,0,0,0,0,0c-0.2-0.5-0.3-0.9-0.4-1.4c-0.1-0.6-0.2-1.3-0.2-2v-13.6H205.7z"/>
		<g class="st3">
			<path class="st2" d="M81.4,15.9v68c0,5.4,4.3,9.7,9.7,9.7H196c5.4,0,9.7-4.3,9.7-9.7v-68H81.4z M151.3,39.2
				c0-4.3,3.5-7.8,7.8-7.8h23.3c4.3,0,7.8,3.5,7.8,7.8v31.1c0,4.3-3.5,7.8-7.8,7.8h-23.3c-4.3,0-7.8-3.5-7.8-7.8V39.2z"/>
		</g>
		<path class="st2" d="M201,13.5c-0.1,0-0.2,0-0.3,0c-0.3,0-0.5-0.1-0.7-0.1c-0.1,0-0.1,0-0.2,0c-2.3-0.3-4.9-0.5-7.9-0.8
			c-0.1,0-0.2,0-0.4,0c-3.4-0.3-7.2-0.5-11.3-0.6H81.4v68c0,5.4,4.3,9.7,9.7,9.7H196c5.4,0,9.7-4.3,9.7-9.7V14.3
			C204.3,14,202.8,13.7,201,13.5z M190.2,66.4c0,4.3-3.5,7.8-7.8,7.8h-23.3c-4.3,0-7.8-3.5-7.8-7.8V35.3c0-4.3,3.5-7.8,7.8-7.8h23.3
			c4.3,0,7.8,3.5,7.8,7.8V66.4z"/>
	</g>
	<g class="st1">
		<path class="st4" d="M250.3,89.7c0-1.9-0.1-3.8-0.1-5.7c-0.1-3.9-0.2-7.7-0.5-11.6c-0.2-3.5-0.5-6.9-0.9-10.3
			c-0.3-3.1-0.8-6.1-1.3-9.1c-0.5-2.7-1.1-5.4-1.9-8c-0.7-2.4-1.6-4.7-2.6-7c-1-2.1-2.1-4.1-3.4-6c-1.2-1.8-2.7-3.5-4.2-5.1
			c-1.6-1.6-3.3-3-5.1-4.2c-1.9-1.3-3.9-2.4-6.1-3.4c-2.3-1-4.6-1.9-7-2.6c-2.6-0.8-5.3-1.4-8-1.9c-2.7-0.5-5.4-0.9-8.1-1.2
			c-0.1,0-0.2,0-0.3,0c-0.3,0-0.5-0.1-0.7-0.1c-0.1,0-0.1,0-0.2,0c-3.4-0.4-6.8-0.6-10.2-0.8c-3.9-0.2-7.8-0.4-11.6-0.4
			c-1.8,0-3.6-0.1-5.3-0.1c-1,0-2.1,0-3.1,0c-1,0-2,0-3.1,0h-77c-1,0-2.1,0-3.1,0c-1,0-2.1,0-3.1,0c-0.6,0-1.3,0-1.9,0
			c-1.1,0-2.3,0-3.4,0.1c-3.9,0.1-7.8,0.2-11.6,0.4c-3.5,0.2-6.9,0.5-10.4,0.9c-3.1,0.3-6.1,0.8-9.1,1.3c-2.7,0.5-5.4,1.1-8.1,1.9
			c-2.4,0.7-4.8,1.6-7,2.6c-2.1,0.9-4.1,2.1-6.1,3.4c-1.8,1.2-3.6,2.6-5.1,4.2c-1.6,1.6-3,3.3-4.2,5.1c-1.3,1.9-2.4,4-3.4,6
			c-1,2.3-1.9,4.6-2.6,7c-0.8,2.7-1.4,5.3-1.9,8c-0.6,3-1,6.1-1.3,9.1C6.8,65.6,6.5,69,6.3,72.5C6,76.3,5.9,80.2,5.8,84.1
			c-0.1,3.8-0.1,7.6-0.1,11.4v61.3c0,3.8,0,7.6,0.1,11.4c0.1,3.9,0.2,7.7,0.5,11.6c0.2,3.4,0.5,6.9,0.9,10.3
			c0.3,3.1,0.8,6.1,1.3,9.1c0.5,2.7,1.1,5.4,1.9,8c0.7,2.4,1.6,4.7,2.6,7c1,2.1,2.1,4.1,3.4,6c1.2,1.8,2.7,3.5,4.2,5.1
			c1.6,1.6,3.3,3,5.1,4.2c1.9,1.3,3.9,2.4,6.1,3.3c2.3,1,4.6,1.9,7,2.6c2.7,0.8,5.3,1.4,8.1,1.9c3,0.6,6.1,1,9.1,1.3
			c3.5,0.4,6.9,0.7,10.4,0.9c3.9,0.2,7.8,0.4,11.6,0.5c2,0,4,0.1,5.9,0.1c2.3,0,4.7,0,7,0h74.1c2.3,0,4.7,0,7,0c2,0,4-0.1,5.9-0.1
			c3.9-0.1,7.8-0.2,11.6-0.5c3.5-0.2,6.9-0.5,10.4-0.9c3.1-0.3,6.1-0.8,9.1-1.3c2.7-0.5,5.4-1.1,8-1.9c2.4-0.7,4.8-1.6,7-2.6
			c2.1-0.9,4.1-2.1,6.1-3.3c1.8-1.2,3.6-2.7,5.1-4.2c1.6-1.6,3-3.3,4.2-5.1c1.3-1.9,2.4-3.9,3.4-6c1-2.3,1.9-4.6,2.6-7
			c0.8-2.7,1.4-5.3,1.9-8c0.6-3,1-6.1,1.3-9.1c0.4-3.4,0.7-6.9,0.9-10.3c0.2-3.9,0.4-7.7,0.5-11.6c0-1.9,0.1-3.8,0.1-5.7
			c0-2.4,0-4.8,0-7.3V97C250.3,94.6,250.3,92.2,250.3,89.7z M246.3,155.2c0,4.3,0,8.6-0.1,12.9c-0.1,3.8-0.2,7.6-0.5,11.5
			c-0.2,3.4-0.5,6.8-0.8,10.1c-0.3,3-0.8,5.9-1.3,8.8c-0.5,2.6-1.1,5.1-1.8,7.6c-0.7,2.2-1.5,4.4-2.4,6.5c-0.8,1.9-1.9,3.7-3,5.4
			c-1.1,1.6-2.4,3.1-3.7,4.5c-1.4,1.4-2.9,2.6-4.5,3.7c-1.7,1.2-3.6,2.2-5.5,3c-2.1,1-4.3,1.8-6.5,2.4c-2.5,0.7-5.1,1.4-7.6,1.8
			c-2.9,0.5-5.9,1-8.9,1.3c-3.4,0.4-6.7,0.6-10.1,0.8c-3.8,0.2-7.7,0.4-11.5,0.5c-4.3,0.1-8.6,0.1-12.9,0.1c0,0,0,0,0,0H90.9
			c0,0,0,0,0,0c-4.3,0-8.6,0-12.9-0.1c-3.8-0.1-7.7-0.2-11.5-0.5c-3.4-0.2-6.8-0.5-10.1-0.8c-3-0.3-5.9-0.8-8.9-1.3
			c-2.6-0.5-5.1-1.1-7.7-1.8c-2.2-0.6-4.4-1.4-6.5-2.4c-1.9-0.9-3.7-1.9-5.5-3c-1.6-1.1-3.1-2.3-4.5-3.7c-1.4-1.4-2.6-2.9-3.7-4.5
			c-1.2-1.7-2.2-3.5-3-5.4c-1-2.1-1.8-4.3-2.4-6.5c-0.8-2.5-1.3-5.1-1.8-7.6c-0.5-2.9-1-5.9-1.3-8.8c-0.4-3.4-0.7-6.7-0.8-10.1
			c-0.2-3.8-0.4-7.6-0.5-11.5c-0.1-4.3-0.1-8.6-0.1-12.9V97c0-4.3,0-8.6,0.1-12.9c0.1-3.8,0.2-7.6,0.5-11.5
			c0.2-3.4,0.5-6.8,0.8-10.1c0.3-3,0.8-5.9,1.3-8.8c0.5-2.6,1.1-5.1,1.8-7.6c0.7-2.2,1.5-4.4,2.4-6.5c0.8-1.9,1.9-3.7,3-5.4
			c1.1-1.6,2.4-3.1,3.7-4.5c1.4-1.4,2.9-2.6,4.5-3.7c1.7-1.2,3.6-2.2,5.5-3c2.1-1,4.3-1.8,6.5-2.4c2.5-0.7,5.1-1.3,7.7-1.8
			c2.9-0.5,5.9-1,8.9-1.3c3.4-0.4,6.7-0.6,10.1-0.8c3.8-0.2,7.7-0.4,11.5-0.4c1.1,0,2.2,0,3.3-0.1c3.2-0.1,6.4-0.1,9.6-0.1
			c0,0,0,0,0,0h74.1c0,0,0,0,0,0c4.3,0,8.6,0,12.9,0.1c3.8,0.1,7.7,0.2,11.5,0.4c3.4,0.2,6.8,0.5,10.1,0.8c2,0.2,4.1,0.5,6.1,0.8
			c0.9,0.1,1.8,0.3,2.7,0.5c2.6,0.5,5.1,1.1,7.6,1.8c2.2,0.7,4.4,1.5,6.5,2.4c1.9,0.8,3.7,1.9,5.5,3c1.6,1.1,3.1,2.3,4.5,3.7
			c1.4,1.4,2.6,2.9,3.7,4.5c1.2,1.7,2.2,3.5,3,5.4c1,2.1,1.8,4.3,2.4,6.5c0.8,2.5,1.3,5.1,1.8,7.6c0.5,2.9,1,5.9,1.3,8.8
			c0.4,3.4,0.6,6.7,0.8,10.1c0.2,3.8,0.4,7.6,0.5,11.5c0.1,4.3,0.1,8.6,0.1,12.9V155.2z"/>
	</g>
</g>
</svg>
