<?xml version="1.0" encoding="utf-8"?>
<!-- Generator: Adobe Illustrator 23.0.0, SVG Export Plug-In . SVG Version: 6.00 Build 0)  -->
<svg version="1.1" id="Layer_1" xmlns="http://www.w3.org/2000/svg" xmlns:xlink="http://www.w3.org/1999/xlink" x="0px" y="0px"
	 viewBox="0 0 256 256" style="enable-background:new 0 0 256 256;" xml:space="preserve">
<style type="text/css">
	.st0{fill:#F75049;}
</style>
<g>
	<polygon class="st0" points="161.8,172.6 160.8,178.6 158.3,195.2 157.6,199.3 98.4,199.3 97.7,195.2 95.2,178.6 94.2,172.6 	"/>
	<path class="st0" d="M167.8,197.7c0,1.4-1.1,2.5-2.5,2.5H90.7c-1.4,0-2.5-1.1-2.5-2.5c0-1.4,1.1-2.5,2.5-2.5h74.5
		c0.9,0,1.7,0.5,2.1,1.2c0.2,0.2,0.3,0.5,0.3,0.8C167.8,197.4,167.8,197.6,167.8,197.7z"/>
	<path class="st0" d="M50.7,55.7c-1.8,2-3.6,4-5.5,6.1h60.3c3.8-2.8,7-4.8,9.1-6.1H50.7z M27.9,79.9c-3.8,3.8-7.6,7.5-11.4,11v55
		c3.6-3.8,7.4-7.8,11.4-11.9v-24.6c-3.5,2.8-6.9,5.4-10.4,8c3.4-3.3,6.8-6.7,10.4-10.1V79.9z M38.7,55.7c-1.7,1.7-3.4,3.4-5.2,5.1
		c-0.3,0.3-0.7,0.7-1,1h7.9c2.3-2.2,4.6-4.2,6.8-6.1H38.7z M21.1,55.7c-0.3,0-0.6,0-1,0.1c-1.7,2-3.1,3.8-3.7,4.7v14.3
		c2.5-2.6,5.1-5.2,7.8-7.8c1.5-1.5,3-2.9,4.5-4.3c0.1-0.1,0.1-0.1,0.2-0.2c2.5-2.3,4.9-4.6,7.4-6.8H21.1z M16.5,77.8v10.8
		c3.3-4.5,7.1-9.2,11.4-14v-8.2C24,70.2,20.2,74,16.5,77.8z M232.6,150.4c-0.6,0.5-1.2,1-1.7,1.5c-0.9,0.8-1.8,1.6-2.8,2.4v1.2
		c2.5-2.4,5-4.9,7.4-7.3C234.5,148.9,233.6,149.7,232.6,150.4z M228.1,144.4v8.8c2.1-1.6,4.1-3.2,6.2-4.8c1.8-1.5,3.5-3,5.3-4.5
		v-9.6C235.7,137.8,231.9,141.1,228.1,144.4z M228.2,120.4C228.2,120.4,228.1,120.5,228.2,120.4l-0.1,9.2c3.8-3.3,7.6-6.5,11.4-9.6
		v-10.3C235.9,113.3,232.1,116.8,228.2,120.4z M234.9,55.7H117.2c-0.9,1.1-2.7,3-5.8,6.1H225c1.7,0,3.1,1.4,3.1,3.1v19.6h10.7
		c-2.1,1.2-5.3,3.3-9.1,6.1c-0.5,0.4-1.1,0.8-1.6,1.2v14c1.6-1.3,3.2-2.6,4.8-3.9c-1.6,1.6-3.2,3.2-4.8,4.8v10.2
		c3.8-3.2,7.6-6.3,11.4-9.3V60.3C239.5,57.8,237.5,55.7,234.9,55.7z M228.1,132v9.6c3.9-2.8,7.7-5.4,11.4-7.9v-12.4
		C235.8,124.9,232,128.5,228.1,132z M239.5,159.8v-12.2c-3.8,3.5-7.6,6.9-11.4,10.1v11.8c0,1.7-1.4,3.1-3.1,3.1H31
		c-1.7,0-3.1-1.4-3.1-3.1v-28.2c-4,3.8-7.8,7.5-11.4,10.9V174c0,2.6,2.1,4.6,4.6,4.6h213.8c2.6,0,4.6-2.1,4.6-4.6v-7.9
		c-3.6,3.1-9.2,8.6-11,7.4c-0.7-0.5-0.6-1.8-0.5-2.4C228.5,166.7,232.9,164.5,239.5,159.8z"/>
</g>
</svg>
