<?xml version="1.0" encoding="utf-8"?>
<!-- Generator: Adobe Illustrator 23.0.0, SVG Export Plug-In . SVG Version: 6.00 Build 0)  -->
<svg version="1.1" id="Layer_1" xmlns="http://www.w3.org/2000/svg" xmlns:xlink="http://www.w3.org/1999/xlink" x="0px" y="0px"
	 viewBox="0 0 256 256" style="enable-background:new 0 0 256 256;" xml:space="preserve">
<style type="text/css">
	.st0{fill-rule:evenodd;clip-rule:evenodd;fill:#F75049;}
	.st1{fill:#F75049;}
</style>
<g>
	<path class="st0" d="M104.3,56.4c-0.6,0-1.1,0.5-1.1,1.1c0,0.6,0.5,1.1,1.1,1.1c0.6,0,1.1-0.5,1.1-1.1
		C105.3,56.9,104.8,56.4,104.3,56.4z M127.7,79.8c-0.6,0-1.1,0.5-1.1,1.1c0,0.6,0.5,1.1,1.1,1.1c0.6,0,1.1-0.5,1.1-1.1
		C128.7,80.3,128.2,79.8,127.7,79.8z M127.8,32.4c-0.6,0-1.1,0.5-1.1,1.1c0,0.6,0.5,1.1,1.1,1.1c0.6,0,1.1-0.5,1.1-1.1
		C128.9,32.9,128.4,32.4,127.8,32.4z M127.5,44.8c-7,0-12.7,5.7-12.7,12.7c0,7,5.7,12.7,12.7,12.7c7,0,12.7-5.7,12.7-12.7
		C140.2,50.5,134.6,44.8,127.5,44.8z M139.8,100.2l0,3l2.9-1.6L139.8,100.2z M144.4,100.2v3h0.9v-3H144.4z M146,100.2v3h0.9v-3H146z
		 M151.2,56.4c-0.6,0-1.1,0.5-1.1,1.1c0,0.6,0.5,1.1,1.1,1.1c0.6,0,1.1-0.5,1.1-1.1C152.3,56.9,151.8,56.4,151.2,56.4z M146,100.2v3
		h0.9v-3H146z M144.4,103.3h0.9v-3h-0.9V103.3z M139.8,103.3l2.9-1.6l-2.9-1.5L139.8,103.3z M151.2,56.4c-0.6,0-1.1,0.5-1.1,1.1
		c0,0.6,0.5,1.1,1.1,1.1c0.6,0,1.1-0.5,1.1-1.1C152.3,56.9,151.8,56.4,151.2,56.4z M127.5,44.8c-7,0-12.7,5.7-12.7,12.7
		c0,7,5.7,12.7,12.7,12.7c7,0,12.7-5.7,12.7-12.7C140.2,50.5,134.6,44.8,127.5,44.8z M127.8,34.6c0.6,0,1.1-0.5,1.1-1.1
		c0-0.6-0.5-1.1-1.1-1.1c-0.6,0-1.1,0.5-1.1,1.1C126.7,34.1,127.2,34.6,127.8,34.6z M127.7,79.8c-0.6,0-1.1,0.5-1.1,1.1
		c0,0.6,0.5,1.1,1.1,1.1c0.6,0,1.1-0.5,1.1-1.1C128.7,80.3,128.2,79.8,127.7,79.8z M104.3,56.4c-0.6,0-1.1,0.5-1.1,1.1
		c0,0.6,0.5,1.1,1.1,1.1c0.6,0,1.1-0.5,1.1-1.1C105.3,56.9,104.8,56.4,104.3,56.4z M149.1,8h-42.3c-4.6,0-8.3,3.7-8.3,8.3V143
		c5.7-5.3,11.2-10,16.6-14.2c-4.7,4.5-9.4,9-14.2,13.7c-0.8,0.8-1.6,1.6-2.4,2.4v5.2c1.1-1.2,2.2-2.3,3.4-3.5
		c5.2-5.3,10.4-9.5,15-12.9c-2.8,3.3-5.7,6.6-8.7,9.9c-3.2,3.5-6.4,6.9-9.6,10.1v17.9c4.7-4.5,9.7-9,15-13.6
		c7-6,13.8-11.6,20.4-16.6c-4.5,4.5-9.2,9.1-14.2,13.7c-7.2,6.6-14.3,12.6-21.2,18.1v6.6c6-5.9,12.5-11.9,19.5-18
		c7-6,13.8-11.6,20.4-16.7c-4.4,4.5-9.2,9.1-14.2,13.7c-8.8,8-17.4,15.3-25.8,21.7v8.3c1.1-1.1,2.1-2.3,3.2-3.4
		c10.3-10.9,13.1-14.1,18.9-19.5c16.8-15.9,34.3-28.3,35.1-27.4c0.5,0.6-7.5,8-34.9,34c-8.1,7.7-15.6,14.8-22.3,21.2v44.1
		c0,4.5,3.6,8.2,8.2,8.3h42.4c4.6,0,8.3-3.7,8.3-8.3v-60.4c-0.5,0.5-1,0.9-1.5,1.4c-7.6,7-15.2,13.4-22.6,19.2
		c1.4-1.2,2.7-2.4,4.1-3.7c5-4.6,9.7-9.2,14.2-13.7c-0.6,0.5-1.2,1-1.9,1.4c-0.4,0.3-0.8,0.7-1.1,1c-8.1,7-15.5,14-22.4,20.7
		c-5.8,4.9-11.5,9.4-17,13.6c7-7,14.6-14.1,23-21.4c6.3-5.5,12.5-10.5,18.6-15.2c2.2-1.9,4.5-3.8,6.7-5.6v-15
		c-5.7,5.4-11.6,10.8-17.6,16.3c-12.4,11.3-24.7,22-36.8,32.2c10-9.8,20.6-19.8,32-29.9c7.5-6.7,15-13,22.3-19.1v-7.1
		c-3.4,3.3-6.9,6.7-10.6,10.1c-10,9.2-19.8,17.2-29.2,24.4c7-7,14.6-14.1,23-21.4c5.7-5,11.4-9.6,16.9-13.9V16.3
		C157.4,11.7,153.7,8,149.1,8z M130.8,188.8c8.8-7.5,17.4-13.7,25.2-18.8c-6.9,6.1-13.8,12.1-20.7,18.2c-10.2,9-20.4,17.9-30.6,26.8
		C111.6,206.8,120.3,197.9,130.8,188.8z M131.5,169c-10.3,9.7-20.6,19.4-30.9,29.1c9.2-10.8,20-22.2,32.5-33.5
		c5.6-5.1,11.2-9.8,16.6-14.2C143.8,156.7,137.6,162.9,131.5,169z M127.8,30c14.9,0,27,12.1,27,27c0,14.9-12.1,27-27,27
		c-14.9,0-27-12.1-27-27C100.8,42.1,112.9,30,127.8,30z M142.9,113c-6.2,0-11.2-5-11.2-11.3c0-6.2,5-11.2,11.2-11.2
		s11.3,5,11.3,11.2C154.1,108,149.1,113,142.9,113z M112.3,113c-6.2,0-11.2-5-11.2-11.3c0-6.2,5-11.2,11.2-11.2
		c6.2,0,11.3,5,11.3,11.2C123.5,108,118.5,113,112.3,113z M151.2,58.5c0.6,0,1.1-0.5,1.1-1.1c0-0.6-0.5-1.1-1.1-1.1
		c-0.6,0-1.1,0.5-1.1,1.1C150.1,58.1,150.6,58.5,151.2,58.5z M146,103.3h0.9v-3H146V103.3z M144.4,103.3h0.9v-3h-0.9V103.3z
		 M139.8,103.3l2.9-1.6l-2.9-1.5L139.8,103.3z M127.5,70.2c7,0,12.7-5.7,12.7-12.7c0-7-5.7-12.7-12.7-12.7c-7,0-12.7,5.7-12.7,12.7
		C114.8,64.5,120.5,70.2,127.5,70.2z M127.8,34.6c0.6,0,1.1-0.5,1.1-1.1c0-0.6-0.5-1.1-1.1-1.1c-0.6,0-1.1,0.5-1.1,1.1
		C126.7,34.1,127.2,34.6,127.8,34.6z M127.7,79.8c-0.6,0-1.1,0.5-1.1,1.1c0,0.6,0.5,1.1,1.1,1.1c0.6,0,1.1-0.5,1.1-1.1
		C128.7,80.3,128.2,79.8,127.7,79.8z M117.1,102c0,0.1,0,0.3-0.1,0.3c0,0.1-0.2,0.2-0.3,0.2h-0.1c-0.3,0-0.4-0.2-0.4-0.5v-2
		l-0.8,0.1v2c0,0.2,0.1,0.4,0.2,0.6c0.1,0.2,0.3,0.3,0.4,0.4c0.2,0.1,0.4,0.1,0.6,0.1h0.1c0.4,0,0.6-0.1,0.9-0.3
		c0.2-0.2,0.3-0.5,0.3-0.9v-2l-0.8,0.1V102z M114.3,101.6l-1.9-1.7v3.3l0.8-0.1v-1.5l1.9,1.7V100l-0.8,0.1V101.6z M110.8,101.9h0.9
		v-0.7h-0.8v-0.5h1.2l-0.2-0.7H110v3h1.8l0.2-0.7h-1.3V101.9z M107.9,101.9l-1-2l-0.8,3.2l0.8,0.1l0.3-1.4l0.8,1.5l0.8-1.5l0.3,1.3
		l0.8-0.1l-0.8-3.2L107.9,101.9z M104.3,56.4c-0.6,0-1.1,0.5-1.1,1.1c0,0.6,0.5,1.1,1.1,1.1c0.6,0,1.1-0.5,1.1-1.1
		C105.3,56.9,104.8,56.4,104.3,56.4z M104.3,56.4c-0.6,0-1.1,0.5-1.1,1.1c0,0.6,0.5,1.1,1.1,1.1c0.6,0,1.1-0.5,1.1-1.1
		C105.3,56.9,104.8,56.4,104.3,56.4z M127.7,79.8c-0.6,0-1.1,0.5-1.1,1.1c0,0.6,0.5,1.1,1.1,1.1c0.6,0,1.1-0.5,1.1-1.1
		C128.7,80.3,128.2,79.8,127.7,79.8z M127.8,32.4c-0.6,0-1.1,0.5-1.1,1.1c0,0.6,0.5,1.1,1.1,1.1c0.6,0,1.1-0.5,1.1-1.1
		C128.9,32.9,128.4,32.4,127.8,32.4z M127.5,44.8c-7,0-12.7,5.7-12.7,12.7c0,7,5.7,12.7,12.7,12.7c7,0,12.7-5.7,12.7-12.7
		C140.2,50.5,134.6,44.8,127.5,44.8z M151.2,56.4c-0.6,0-1.1,0.5-1.1,1.1c0,0.6,0.5,1.1,1.1,1.1c0.6,0,1.1-0.5,1.1-1.1
		C152.3,56.9,151.8,56.4,151.2,56.4z M151.2,56.4c-0.6,0-1.1,0.5-1.1,1.1c0,0.6,0.5,1.1,1.1,1.1c0.6,0,1.1-0.5,1.1-1.1
		C152.3,56.9,151.8,56.4,151.2,56.4z M127.5,44.8c-7,0-12.7,5.7-12.7,12.7c0,7,5.7,12.7,12.7,12.7c7,0,12.7-5.7,12.7-12.7
		C140.2,50.5,134.6,44.8,127.5,44.8z M127.8,32.4c-0.6,0-1.1,0.5-1.1,1.1c0,0.6,0.5,1.1,1.1,1.1c0.6,0,1.1-0.5,1.1-1.1
		C128.9,32.9,128.4,32.4,127.8,32.4z M127.7,79.8c-0.6,0-1.1,0.5-1.1,1.1c0,0.6,0.5,1.1,1.1,1.1c0.6,0,1.1-0.5,1.1-1.1
		C128.7,80.3,128.2,79.8,127.7,79.8z M104.3,56.4c-0.6,0-1.1,0.5-1.1,1.1c0,0.6,0.5,1.1,1.1,1.1c0.6,0,1.1-0.5,1.1-1.1
		C105.3,56.9,104.8,56.4,104.3,56.4z"/>
	<polygon class="st0" points="139.8,100.2 142.7,101.7 139.8,103.3 	"/>
	<rect x="144.4" y="100.2" class="st0" width="0.9" height="3"/>
	<rect x="146" y="100.2" class="st0" width="0.9" height="3"/>
	<path class="st0" d="M105.3,57.5c0,0.6-0.5,1.1-1.1,1.1c-0.6,0-1.1-0.5-1.1-1.1c0-0.6,0.5-1.1,1.1-1.1
		C104.8,56.4,105.3,56.9,105.3,57.5z"/>
	<path class="st0" d="M128.7,80.9c0,0.6-0.5,1.1-1.1,1.1c-0.6,0-1.1-0.5-1.1-1.1c0-0.6,0.5-1.1,1.1-1.1
		C128.2,79.8,128.7,80.3,128.7,80.9z"/>
	<path class="st0" d="M126.7,33.5c0-0.6,0.5-1.1,1.1-1.1c0.6,0,1.1,0.5,1.1,1.1c0,0.6-0.5,1.1-1.1,1.1
		C127.2,34.6,126.7,34.1,126.7,33.5z"/>
	<ellipse transform="matrix(0.2298 -0.9732 0.9732 0.2298 42.295 168.402)" class="st0" cx="127.5" cy="57.5" rx="12.7" ry="12.7"/>
	<path class="st0" d="M152.3,57.5c0,0.6-0.5,1.1-1.1,1.1c-0.6,0-1.1-0.5-1.1-1.1c0-0.6,0.5-1.1,1.1-1.1
		C151.8,56.4,152.3,56.9,152.3,57.5z"/>
	<polygon class="st0" points="108.9,100 109.7,103.1 108.9,103.2 108.7,101.8 107.9,103.4 107.2,101.8 106.9,103.2 106.1,103.1 
		106.9,99.9 107.9,101.9 	"/>
	<polygon class="st0" points="110.8,102.5 112.1,102.5 111.9,103.1 110,103.1 110,100.1 111.8,100.1 112,100.8 110.8,100.8 
		110.8,101.3 111.7,101.3 111.7,101.9 110.8,101.9 	"/>
	<polygon class="st0" points="114.3,100.1 115.1,100 115.1,103.3 113.2,101.6 113.2,103.1 112.4,103.2 112.4,99.9 114.3,101.6 	"/>
	<path class="st0" d="M117.9,100v2c0,0.4-0.1,0.7-0.3,0.9c-0.2,0.2-0.5,0.3-0.9,0.3h-0.1c-0.2,0-0.4,0-0.6-0.1
		c-0.2-0.1-0.3-0.2-0.4-0.4c-0.1-0.2-0.2-0.4-0.2-0.6v-2l0.8-0.1v2c0,0.3,0.1,0.5,0.4,0.5h0.1c0.2,0,0.3-0.1,0.3-0.2
		c0-0.1,0.1-0.2,0.1-0.3v-1.9L117.9,100z"/>
	<ellipse transform="matrix(0.2298 -0.9732 0.9732 0.2298 42.295 168.402)" class="st0" cx="127.5" cy="57.5" rx="12.7" ry="12.7"/>
	<path class="st1" d="M117.1,100.1v1.9c0,0.1,0,0.3-0.1,0.3c0,0.1-0.2,0.2-0.3,0.2h-0.1c-0.3,0-0.4-0.2-0.4-0.5v-2l-0.8,0.1v2
		c0,0.2,0.1,0.4,0.2,0.6c0.1,0.2,0.3,0.3,0.4,0.4c0.2,0.1,0.4,0.1,0.6,0.1h0.1c0.4,0,0.6-0.1,0.9-0.3c0.2-0.2,0.3-0.5,0.3-0.9v-2
		L117.1,100.1z M114.3,100.1v1.5l-1.9-1.7v3.3l0.8-0.1v-1.5l1.9,1.7V100L114.3,100.1z M110.8,102.5v-0.6h0.9v-0.7h-0.8v-0.5h1.2
		l-0.2-0.7H110v3h1.8l0.2-0.7H110.8z M108.9,100l-1,2l-1-2l-0.8,3.2l0.8,0.1l0.3-1.4l0.8,1.5l0.8-1.5l0.3,1.3l0.8-0.1L108.9,100z"/>
	<path class="st1" d="M139.8,100.2l0,3l2.9-1.6L139.8,100.2z M144.4,100.2v3h0.9v-3H144.4z M146,100.2v3h0.9v-3H146z"/>
	<path class="st0" d="M128.9,33.5c0,0.6-0.5,1.1-1.1,1.1c-0.6,0-1.1-0.5-1.1-1.1c0-0.6,0.5-1.1,1.1-1.1
		C128.4,32.4,128.9,32.9,128.9,33.5z"/>
	<path class="st0" d="M152.3,57.5c0,0.6-0.5,1.1-1.1,1.1c-0.6,0-1.1-0.5-1.1-1.1c0-0.6,0.5-1.1,1.1-1.1
		C151.8,56.4,152.3,56.9,152.3,57.5z"/>
	<path class="st0" d="M105.3,57.5c0,0.6-0.5,1.1-1.1,1.1c-0.6,0-1.1-0.5-1.1-1.1c0-0.6,0.5-1.1,1.1-1.1
		C104.8,56.4,105.3,56.9,105.3,57.5z"/>
	<path class="st0" d="M128.7,80.9c0,0.6-0.5,1.1-1.1,1.1c-0.6,0-1.1-0.5-1.1-1.1c0-0.6,0.5-1.1,1.1-1.1
		C128.2,79.8,128.7,80.3,128.7,80.9z"/>
</g>
</svg>
