<?xml version="1.0" encoding="utf-8"?>
<!-- Generator: Adobe Illustrator 23.0.0, SVG Export Plug-In . SVG Version: 6.00 Build 0)  -->
<svg version="1.1" id="Layer_1" xmlns="http://www.w3.org/2000/svg" xmlns:xlink="http://www.w3.org/1999/xlink" x="0px" y="0px"
	 viewBox="0 0 16 16" style="enable-background:new 0 0 16 16;" xml:space="preserve">
<style type="text/css">
	.st0{clip-path:url(#SVGID_2_);fill:#F75049;}
</style>
<g>
	<defs>
		<path id="SVGID_1_" d="M22.7,5.3c-0.1-0.1-0.3,0-0.6-0.2c-0.2-0.2-0.2-0.4-0.3-0.5c-0.4-0.3-1.4,0.5-1.4,0.5c0,0,0.4-0.3,0.8-0.7
			c0.2-0.3,0.7-0.7,0.5-1.1c-0.1-0.2-0.3-0.2-0.3-0.4c0-0.3,0.5-0.5,0.5-0.8c0-0.2-0.2-0.3-0.3-0.4C21.2,1.6,20.7,2,20.7,2
			c0,0,0.3-0.2,0.5-0.5c0-0.1,0.2-0.4,0.1-0.5c-0.1-0.1-0.3-0.1-0.4-0.1c-0.1,0-0.2,0.1-0.3,0.1c0,0,0-0.1,0-0.2
			c0-0.2-0.4-0.3-0.6-0.3c-0.6-0.1-1,0.5-1.1,0.4c-0.1-0.1,0.5-0.6,0.4-0.9c-0.1-0.2-0.2-0.3-0.4-0.3c-0.3,0-0.4,0.3-0.5,0.3
			c-0.2-0.1,0.1-0.8-0.1-0.9c-0.1-0.1-0.3,0.1-0.6,0c-0.2-0.1-0.2-0.2-0.3-0.2c-0.3-0.1-0.8,0.5-1.4,1c-0.3,0.2-0.7,0.5-1.2,0.9
			c0.3-0.3,0.5-0.6,0.7-0.8c0.4-0.5,0.7-0.7,0.7-1c0-0.1,0-0.4-0.2-0.5c-0.2-0.1-0.4,0.2-1.1,0.7c-0.2,0.1-0.3,0.2-0.4,0.3
			c0,0,0.3-0.4,0.2-0.7c0,0-0.1-0.2-0.2-0.3C13.9-2,13.1-1.8,13-1.8c-0.9,0.2-1.2,0.9-2.3,1.4c0,0-0.2,0.1-0.4,0.2
			C10,0,9.8,0.1,9.7,0.2C9.4,0.4,9.2,0.5,9.1,0.8C9,1.1,9,1.3,8.8,1.4C8.7,1.6,8.5,1.6,8.5,1.6C7.8,1.8,7.1,2.9,7,3
			c-0.4,0.6-1.8,2-5.6,5.4c5.1-5.3,6.6-7,6.7-7.2c0,0,0,0,0,0c0-0.1,0.2-0.5,0-0.6C8,0.6,7.8,0.7,7.8,0.5c0,0,0-0.1,0-0.2
			c0-0.2,0.4-0.3,0.4-0.4C8.2,0,8.1,0,8-0.1C7.7-0.2,7.7-0.3,7.5-0.3C7.3-0.4,7-0.3,6.8-0.2C6.6,0,6.5,0.1,6.4,0.1
			c-0.1,0,0-0.2,0-0.3C6.3-0.3,6.1-0.3,6.1-0.3C5.7-0.3,5.5,0,5.4-0.1c-0.1,0,0-0.2-0.1-0.3C5.2-0.5,5.1-0.5,4.9-0.6
			C4.7-0.8,4.8-0.9,4.6-1.2C4.5-1.3,4.4-1.5,4.2-1.5c-0.2-0.1-0.3,0-0.5-0.1C3.3-1.7,3.3-1.9,3.1-1.9c-0.2,0-0.3,0-0.4,0.1
			C2.3-1.7,2.3-1.5,2.2-1.5C2-1.5,1.9-1.7,1.6-1.7c-0.1,0-0.2,0-0.3,0c-0.1,0.1,0,0.4-0.1,0.5C1.1-1.1,1-1.2,0.9-1.2
			C0.8-1.3,0.8-1.4,0.8-1.4C0.6-1.6-0.4-1.4-0.7-0.8C-0.8-0.7-0.8-0.5-1-0.4c-0.2,0.1-0.3,0-0.5,0c-0.3,0-0.5,0.3-1.2,1
			c0,0-0.1,0.2-0.6,0.7c-0.9,1.1-1.1,1.2-1.1,1.5c0,0.5,0.1,0.8,0.1,0.8c0,0.1,0.1,0.3,0,0.4C-4.3,4-4.4,4-4.5,4
			c-0.1,0.1,0.1,0.4,0,0.8c0,0,0,0-0.1,0.3c-0.1,0.6-0.1,0.7,0,0.8C-4.4,6-4.3,6-4.2,6C-4,6-3.9,5.9-3.9,5.8c0.4-0.5,0.8-1,1.2-1.4
			C-2.8,4.7-3,5-3.1,5.2c-0.2,0.2-0.3,0.4-0.5,0.8C-3.7,6-3.7,6.2-3.8,6.3C-3.9,6.6-4,6.9-3.9,7.1c0.1,0.1,0.1,0.2,0.1,0.3
			c0,0.2-0.1,0.3,0,0.4C-3.6,8-3.6,7.9-3.5,8c0.1,0.1,0,0.3,0,0.6c0,0.2,0.1,0.1,0.1,0.3c0.1,0.3-0.1,0.4,0,0.8c0,0.2,0,0.2,0.1,0.3
			c0.2,0.1,0.4-0.1,0.6,0.1c0.2,0.1,0.1,0.3,0.3,0.4c0.1,0,0.2-0.1,0.4,0c0,0,0.3,0,0.4,0.1c0,0.1-0.1,0.3-0.3,0.4
			c-0.4,0.2-0.9-0.1-0.9,0c0,0.1,0.1,0.2,0.2,0.3c1.1,1,1.1,1.1,1.4,1.3c0.4,0.2,0.3,0.1,0.7,0.3c0.6,0.3,1.1,0.6,1.2,1.1
			c0,0.3-0.2,0.3-0.2,0.6c0,0.2,0.1,0.6,0.3,0.7c0.2,0.1,0.3-0.1,0.6-0.1c0.3,0,0.4,0.3,0.6,0.3c0.4,0,0.5-0.4,0.9-0.4
			c0.2,0,0.2,0.2,0.4,0.3c0.2,0.1,0.4,0,0.6,0c1.1-1.1,2.8-2.9,4.9-5.1c1.7-1.8,2.2-2.4,3.2-3.3C15,4.3,17.9,2.2,18,2.4
			c0.1,0.1-1.3,1.3-5.9,5.7c-3.2,3-5.8,5.5-7.6,7.2c0,0.4,0.1,0.5,0.2,0.5c0.2,0.1,0.5-0.2,0.8,0C5.7,15.9,5.9,16,6,16.3
			c0,0.2,0,0.3,0.1,0.4c0.1,0.1,0.1,0,0.2,0.1c0.2,0.2,0.1,0.4,0.3,0.5c0.2,0.1,0.4,0,0.5,0.2c0,0.1-0.1,0.1,0,0.3
			c0,0.2,0.2,0.2,0.2,0.3c0,0.2-0.3,0.3-0.4,0.6c-0.1,0.2,0.1,0.3,0.1,0.5c0,0.5-0.6,0.6-0.6,1c0,0.2,0.2,0.5,0.5,0.5
			c0.4,0.1,0.5-0.5,0.9-0.5c0.4,0,0.6,0.6,1,0.6c0.3,0,0.3-0.4,0.6-0.4c0.2,0,0.3,0.1,0.5,0c0.1-0.1,0.1-0.2,0.3-0.3
			c0.1,0,0.1,0,0.2,0c0.3,0,0.6-0.4,0.7-0.8c0.1-0.4,0-0.5,0.2-0.8c0.1-0.2,0.3-0.3,0.4-0.4c0.6-0.4,1.3-1.1,1.9-1.7
			c0.9-0.8,1-1.2,1.6-1.5c0.1,0,0.3-0.1,0.5-0.3c0.3-0.3,0.4-0.6,0.6-0.9c0.4-0.8,0.9-0.9,1.8-2.2c0-0.1,0.2-0.3,0.2-0.4
			c-0.1-0.1-1.2,1.2-1.5,1c-0.1-0.1-0.1-0.2-0.1-0.3c0.1-0.6,0.9-0.8,2-1.8c0.3-0.3,0.2-0.2,0.5-0.5c0.9-0.8,1.8-1.4,2.1-1.9
			c0.2-0.3,0.2-0.6,0.2-0.6c0-0.1,0-0.1,0.1-0.2c0.1-0.3,0.3-0.4,0.7-0.9C22.7,5.5,22.7,5.4,22.7,5.3z M4.6,4.4
			c-0.3,0.4-0.7,0.7-1,0.9c0.2-0.3,0.4-0.7,0.8-1C4.6,4.2,4.8,4.1,4.9,4C4.8,4.2,4.7,4.3,4.6,4.4z M4.4,3.1c0.5-0.6,1-1.1,1.5-1.5
			c-0.4,0.5-0.8,1-1.3,1.6c-0.3,0.3-0.7,0.7-1,0.9C3.8,3.8,4.1,3.5,4.4,3.1z M-1.5,3.1c0.1-0.2,0.2-0.4,0.5-0.7
			C-1,2.3-0.9,2.3-0.8,2.2C-0.9,2.3-0.9,2.4-1,2.5C-1.2,2.8-1.4,3-1.5,3.1z M-0.6,11.8C-0.7,11.9-0.9,12-0.9,12c0,0,0-0.2,0.1-0.3
			c0.1-0.2,0.3-0.2,0.3-0.2C-0.5,11.5-0.5,11.7-0.6,11.8z M-1,6.8c0.3-0.4,0.7-0.8,1-1.3c0,0.1,0,0.2,0,0.3C-0.3,6.2-0.6,6.5-1,6.8z
			 M0.9,13.2c0,0-0.2-0.2-0.6-0.6c-0.1-0.1-0.2-0.2-0.2-0.3c0-0.1,0.1-0.1,0.2-0.2c0.1-0.1,0.3-0.2,0.5-0.5c0,0.2-0.1,0.4-0.1,0.4
			c-0.1,0.1-0.1,0.2-0.1,0.3c0,0.1,0.1,0,0.1,0.1c0.1,0.1,0,0.2,0,0.3C0.7,13,0.9,13.2,0.9,13.2z M0.8,1.2C0.9,1,1,0.8,1.2,0.5
			c0.1-0.1,0.2-0.2,0.3-0.2C1.4,0.4,1.4,0.5,1.3,0.6C1.1,0.9,0.9,1.1,0.8,1.2z M3.8,8.2c1.1-1.4,2.5-3,4.1-4.5
			c1.2-1.1,2.3-2.1,3.4-3C10.4,1.5,9.6,2.3,8.8,3C7.1,4.8,5.4,6.5,3.8,8.2z M9,3.7c0.9-0.9,1.7-1.6,2.5-2.2c-0.5,0.6-1,1.1-1.5,1.7
			C8.8,4.5,7.6,5.7,6.4,6.8C7.1,5.9,7.9,4.8,9,3.7z M11,5.6c1.2-1,2.3-1.9,3.4-2.8c-0.7,0.8-1.5,1.5-2.4,2.3C10.3,6.7,8.7,8,7.1,9.2
			C8.3,8.1,9.6,6.9,11,5.6z M12.8,5.8c-1.7,1.5-3.3,2.9-4.9,4.1c1.2-1.2,2.5-2.4,3.9-3.6c1.2-1,2.3-1.9,3.4-2.8
			C14.4,4.2,13.6,5,12.8,5.8z M18.9,4.1c-0.7,0.8-1.5,1.5-2.4,2.3c-1.7,1.5-3.3,2.9-4.9,4.1c1.2-1.2,2.5-2.4,3.9-3.6
			C16.7,5.9,17.8,5,18.9,4.1z M8.8,12.4c1.5-1.8,3.4-3.7,5.5-5.6c0.9-0.9,1.9-1.6,2.8-2.4c-1,1-2,2.1-3.1,3.1
			C12.2,9.1,10.5,10.8,8.8,12.4z M9.2,14.1c1.7-1.6,3.5-3.3,5.4-5c1.5-1.3,3-2.6,4.5-3.8c-1.2,1.1-2.4,2.3-3.7,3.4
			C13.3,10.6,11.2,12.4,9.2,14.1z M9.5,15.2c1.2-1.4,2.6-2.9,4.4-4.4c1.5-1.3,2.9-2.3,4.2-3.2c-1.2,1-2.3,2-3.5,3
			C12.9,12.2,11.2,13.7,9.5,15.2z M18.1,9.1c-1.3,1.2-2.6,2.3-3.8,3.2c0.2-0.2,0.5-0.4,0.7-0.6c0.8-0.8,1.6-1.5,2.4-2.3
			c-0.1,0.1-0.2,0.2-0.3,0.2c-0.1,0.1-0.1,0.1-0.2,0.2c-1.4,1.2-2.6,2.3-3.8,3.5c-1,0.8-1.9,1.6-2.9,2.3c1.2-1.2,2.5-2.4,3.9-3.6
			c1.1-0.9,2.1-1.8,3.1-2.6c1.1-1,2.2-1.8,3.2-2.6C19.7,7.6,18.9,8.4,18.1,9.1z"/>
	</defs>
	<clipPath id="SVGID_2_">
		<use xlink:href="#SVGID_1_"  style="overflow:visible;"/>
	</clipPath>
	<circle class="st0" cx="13.5" cy="7" r="0.5"/>
	<path class="st0" d="M16,7.5v3c0,0.7-0.1,1.2-0.2,1.6c-0.2,0.4-0.5,0.8-0.8,1c-0.8,0.4-1.7,0.4-2.9,0.4H9v1h5v1H2v-1h5v-1H4
		c-1.3,0-2.2,0-2.9-0.4c-0.4-0.2-0.7-0.5-0.8-1c-0.2-0.4-0.2-1-0.2-1.6v-3c0-0.7,0.1-1.2,0.2-1.6c0.2-0.4,0.5-0.8,0.8-1
		C1.6,4.6,2.3,4.5,3,4.5v-4h8.8v1H4v3h7.8v1H4c-1.3,0-2.1,0.1-2.5,0.3C1.4,5.9,1.3,6,1.2,6.2C1.1,6.5,1,6.9,1,7.5v3
		c0,0.6,0.1,1,0.2,1.3c0.1,0.3,0.2,0.4,0.4,0.5c0.4,0.2,1.2,0.2,2.5,0.3h8c1.3,0,2.1-0.1,2.5-0.3c0.2-0.1,0.3-0.2,0.4-0.5
		c0.1-0.3,0.2-0.7,0.2-1.3v-3c0-0.6-0.1-1-0.2-1.3c-0.1-0.3-0.2-0.4-0.4-0.5c-0.3-0.2-1.1-0.2-2.2-0.3v-5H13v4
		c0.8,0,1.4,0.1,1.9,0.4c0.4,0.2,0.7,0.5,0.8,1C15.9,6.3,16,6.8,16,7.5z"/>
	<circle class="st0" cx="13.5" cy="7" r="0.5"/>
	<circle class="st0" cx="13.5" cy="7" r="0.5"/>
	<rect x="3" y="10.5" class="st0" width="10" height="1"/>
</g>
</svg>
