<?xml version="1.0" encoding="utf-8"?>
<!-- Generator: Adobe Illustrator 23.0.0, SVG Export Plug-In . SVG Version: 6.00 Build 0)  -->
<svg version="1.1" id="Layer_1" xmlns="http://www.w3.org/2000/svg" xmlns:xlink="http://www.w3.org/1999/xlink" x="0px" y="0px"
	 viewBox="0 0 256 256" style="enable-background:new 0 0 256 256;" xml:space="preserve">
<style type="text/css">
	.st0{opacity:0.8;fill:#0E0E17;}
	.st1{fill:#0E0E17;}
	.st2{fill:none;stroke:#F75049;stroke-miterlimit:10;}
	.st3{fill:#F75049;}
</style>
<g>
	<g>
		<path class="st0" d="M218.1,40.1h-67.5c-6.8-6.3-13.6-12.7-20.4-19.1H37.7c-2.3,2.2-4.6,4.5-6.9,6.7v200.1l8,8h160.9
			c9-9.8,17.9-19.7,26.8-29.5V46.8C223.7,44.6,220.9,42.4,218.1,40.1z M218.3,168c-2.7,3.4-5.4,7-8.1,10.4v40.6
			c-2.6,2.6-5.3,5.1-7.9,7.7H48.9c-2.6-2.6-5.2-5.2-7.8-7.9v-40.4c-2.6-3.4-5.3-7-7.9-10.4V95.5c2.6-2.3,5.3-4.5,7.9-6.8V50.3
			c2.6-2.6,5.2-5.3,7.8-7.9h153.3c2.7,2.7,5.3,5.4,8,8.1v38.3c2.6,2.2,5.3,4.5,8,6.8V168z"/>
		<path class="st1" d="M218.1,40.1h-67.5c-6.8-6.3-13.6-12.7-20.4-19.1H37.7c-2.3,2.2-4.6,4.5-6.9,6.7v200.1l8,8h160.9
			c9-9.8,17.9-19.7,26.8-29.5V46.8C223.7,44.6,220.9,42.4,218.1,40.1z M218.3,168c-2.7,3.4-5.4,7-8.1,10.4v40.6
			c-2.6,2.6-5.3,5.1-7.9,7.7H48.9c-2.6-2.6-5.2-5.2-7.8-7.9v-40.4c-2.6-3.4-5.3-7-7.9-10.4V95.5c2.6-2.3,5.3-4.5,7.9-6.8V50.3
			c2.6-2.6,5.2-5.3,7.8-7.9h153.3c2.7,2.7,5.3,5.4,8,8.1v38.3c2.6,2.2,5.3,4.5,8,6.8V168z"/>
		<g>
			<path class="st1" d="M218.3,95.7V168c-2.7,3.4-5.4,7-8.1,10.4v40.6c-2.6,2.6-5.3,5.1-7.9,7.7H48.9c-2.6-2.6-5.2-5.2-7.8-7.9
				v-40.4c-2.6-3.4-5.3-7-7.9-10.4V95.5c2.6-2.3,5.3-4.5,7.9-6.8V50.3c2.6-2.6,5.2-5.3,7.8-7.9h153.3c2.7,2.7,5.3,5.4,8,8.1v38.3
				C212.9,91.1,215.6,93.4,218.3,95.7z"/>
		</g>
	</g>
	<path class="st2" d="M218.1,40.1h-67.5c-6.8-6.3-13.6-12.7-20.4-19.1H37.7c-2.3,2.2-4.6,4.5-6.9,6.7v200.1l8,8h160.9
		c9-9.8,17.9-19.7,26.8-29.5V46.8C223.7,44.6,220.9,42.4,218.1,40.1z M218.3,168c-2.7,3.4-5.4,7-8.1,10.4v40.6
		c-2.6,2.6-5.3,5.1-7.9,7.7H48.9c-2.6-2.6-5.2-5.2-7.8-7.9v-40.4c-2.6-3.4-5.3-7-7.9-10.4V95.5c2.6-2.3,5.3-4.5,7.9-6.8V50.3
		c2.6-2.6,5.2-5.3,7.8-7.9h153.3c2.7,2.7,5.3,5.4,8,8.1v38.3c2.6,2.2,5.3,4.5,8,6.8V168z"/>
</g>
<path class="st3" d="M170.1,145.3c-0.4,0.3-0.7,0.6-1.1,0.9c-8,6.9-15.3,13.8-22,20.5c1-0.8,2-1.5,3-2.3c2.7-2.4,5.5-4.8,8.3-7.4
	c4.8-4.4,9.3-8.7,13.5-13.1C171.3,144.4,170.7,144.9,170.1,145.3z M170.1,145.3c-0.4,0.3-0.7,0.6-1.1,0.9c-8,6.9-15.3,13.8-22,20.5
	c1-0.8,2-1.5,3-2.3c2.7-2.4,5.5-4.8,8.3-7.4c4.8-4.4,9.3-8.7,13.5-13.1C171.3,144.4,170.7,144.9,170.1,145.3z M170.1,145.3
	c-0.4,0.3-0.7,0.6-1.1,0.9c-8,6.9-15.3,13.8-22,20.5c1-0.8,2-1.5,3-2.3c2.7-2.4,5.5-4.8,8.3-7.4c4.8-4.4,9.3-8.7,13.5-13.1
	C171.3,144.4,170.7,144.9,170.1,145.3z M170.1,145.3c-0.4,0.3-0.7,0.6-1.1,0.9c-8,6.9-15.3,13.8-22,20.5c1-0.8,2-1.5,3-2.3
	c2.7-2.4,5.5-4.8,8.3-7.4c4.8-4.4,9.3-8.7,13.5-13.1C171.3,144.4,170.7,144.9,170.1,145.3z M170.1,145.3c-0.4,0.3-0.7,0.6-1.1,0.9
	c-8,6.9-15.3,13.8-22,20.5c1-0.8,2-1.5,3-2.3c2.7-2.4,5.5-4.8,8.3-7.4c4.8-4.4,9.3-8.7,13.5-13.1
	C171.3,144.4,170.7,144.9,170.1,145.3z M170.1,145.3c-0.4,0.3-0.7,0.6-1.1,0.9c-8,6.9-15.3,13.8-22,20.5c1-0.8,2-1.5,3-2.3
	c2.7-2.4,5.5-4.8,8.3-7.4c4.8-4.4,9.3-8.7,13.5-13.1C171.3,144.4,170.7,144.9,170.1,145.3z M170.1,145.3c-0.4,0.3-0.7,0.6-1.1,0.9
	c-8,6.9-15.3,13.8-22,20.5c1-0.8,2-1.5,3-2.3c2.7-2.4,5.5-4.8,8.3-7.4c4.8-4.4,9.3-8.7,13.5-13.1
	C171.3,144.4,170.7,144.9,170.1,145.3z M170.1,145.3c-0.4,0.3-0.7,0.6-1.1,0.9c-8,6.9-15.3,13.8-22,20.5c1-0.8,2-1.5,3-2.3
	c2.7-2.4,5.5-4.8,8.3-7.4c4.8-4.4,9.3-8.7,13.5-13.1C171.3,144.4,170.7,144.9,170.1,145.3z M170.1,145.3c-0.4,0.3-0.7,0.6-1.1,0.9
	c-8,6.9-15.3,13.8-22,20.5c1-0.8,2-1.5,3-2.3c2.7-2.4,5.5-4.8,8.3-7.4c4.8-4.4,9.3-8.7,13.5-13.1
	C171.3,144.4,170.7,144.9,170.1,145.3z M170.1,145.3c-0.4,0.3-0.7,0.6-1.1,0.9c-8,6.9-15.3,13.8-22,20.5c1-0.8,2-1.5,3-2.3
	c2.7-2.4,5.5-4.8,8.3-7.4c4.8-4.4,9.3-8.7,13.5-13.1C171.3,144.4,170.7,144.9,170.1,145.3z M201.5,121.4c-0.4-0.8-1.9-0.2-3.5-1.4
	c-1.3-1-1-2.1-1.8-2.6c-2.3-1.5-7.7,3.1-7.9,2.9c0-0.2,2.2-1.7,4.4-4c1.4-1.5,3.9-4.2,3.1-6.1c-0.5-1.1-1.7-1-1.9-2
	c-0.3-1.6,2.9-2.6,2.7-4.5c-0.1-1-1-1.8-1.8-2.1c-2.1-0.8-4.7,1.5-4.9,1.3c-0.1-0.2,1.6-1,2.6-2.9c0.2-0.3,1.1-2,0.4-2.8
	c-0.5-0.6-1.6-0.6-2.3-0.5c-0.7,0.2-1.1,0.5-1.4,0.3c-0.2-0.2-0.1-0.6-0.2-1c-0.2-1-2.1-1.7-3.4-1.8c-3.2-0.3-5.8,2.8-6.1,2.5
	c-0.4-0.4,3-3.2,2.2-5.3c-0.3-0.9-1.3-1.6-2.2-1.6c-1.6,0-2.4,1.9-3,1.6c-0.9-0.4,0.7-4.3-0.6-5.2c-0.8-0.5-1.8,0.5-3.4-0.1
	c-0.9-0.4-1-0.9-1.6-1.1c-1.9-0.7-4.6,2.6-8,5.6c-1.5,1.3-3.7,3.1-6.9,4.9c1.6-1.9,3-3.5,4-4.6c2.5-2.7,3.8-3.8,3.8-5.6
	c0-0.8-0.1-2.2-1-2.6c-1-0.5-2.3,1-6.4,3.8c-1.1,0.7-1.9,1.3-2.5,1.6c0.2-0.2,1.9-2.2,1.2-4.2c-0.1-0.2-0.3-0.9-1.2-1.6
	c-2.6-2.1-6.8-1.1-7.4-1c-5.2,1.3-6.6,4.9-13,8.1c0,0-0.9,0.5-2,1.1c-2.4,1.3-3.6,2-4.2,2.3c-1.6,1.1-2.8,2-3.5,3.5
	c-0.7,1.5-0.3,2.5-1.3,3.6c-0.8,0.9-1.8,1.1-2.2,1.1c-3.6,0.9-8,7.2-8.6,8c-2.4,3.4-10.4,11.5-31.6,30.8
	c28.8-30.3,37.5-39.9,37.9-40.8c0,0,0,0,0,0c0.1-0.3,1-2.6,0.2-3.4c-0.5-0.5-1.4-0.2-1.8-0.9c0,0-0.3-0.4-0.2-0.9
	c0.2-1.2,2.6-1.5,2.5-2c0-0.2-0.5-0.3-1.2-0.6c-1.7-0.7-1.7-1.2-2.6-1.4c-1.4-0.4-2.9,0.4-4,1c-1.3,0.7-2,1.5-2.3,1.3
	c-0.3-0.2,0.3-1.1-0.2-1.7c-0.4-0.6-1.4-0.5-1.8-0.5c-2.1,0.1-3.1,1.7-3.8,1.3c-0.4-0.3,0-1-0.5-1.8c-0.5-0.8-1.3-0.6-2.2-1.3
	c-1.1-0.8-0.6-1.6-1.8-3.2c-0.4-0.6-1.2-1.6-2.4-2c-1.4-0.5-1.7,0.2-3.1-0.3c-1.6-0.5-1.6-1.5-3-1.7c-1-0.1-1.8,0.2-2.5,0.6
	c-1.8,0.8-1.9,1.8-2.9,1.8c-1.1,0-1.3-1.1-3.2-1.5c-0.6-0.1-1.3-0.2-1.7,0.1c-0.7,0.7,0.2,2.2-0.6,2.9c-0.4,0.4-1.2,0.3-1.6,0
	c-0.6-0.3-0.5-0.9-0.8-1.3c-1.2-1.2-6.9,0.3-8.6,3.8c-0.3,0.6-0.5,1.4-1.4,1.8c-1,0.5-1.8,0-2.8,0c-1.7,0-2.8,1.5-6.6,5.9
	c0,0-0.8,0.9-3.4,3.8c-5.3,6-6.4,6.8-6.4,8.6c-0.1,3.1,0.3,4.4,0.3,4.4c0.2,0.6,0.6,1.6,0.1,2.2c-0.3,0.4-0.7,0.2-1,0.6
	c-0.7,0.8,0.4,2.2,0.2,4.6c0,0.1,0,0-0.3,1.7c-0.6,3.2-0.7,3.9-0.2,4.3c0.4,0.4,1,0.4,1.6,0.4c1.1,0,1.8-0.5,2.2-0.7
	c2.3-2.7,4.6-5.5,6.9-8.2c-1,2-1.9,3.4-2.6,4.4c-1,1.4-1.9,2.4-2.9,4.3c-0.3,0.6-0.6,1.3-0.9,2.2c-0.5,1.4-1.2,3.1-0.4,4.6
	c0.3,0.6,0.7,1,0.8,1.8c0.2,1.1-0.3,1.7,0.2,2.4c0.3,0.5,0.6,0.3,0.9,0.8c0.7,0.9-0.1,1.8,0.2,3.5c0.2,1,0.5,0.7,0.7,1.7
	c0.4,1.6-0.4,2.3-0.1,4.3c0.1,0.9,0.2,1.3,0.5,1.6c0.9,0.8,2.2-0.4,3.4,0.3c1.1,0.6,0.7,1.9,1.8,2.3c0.7,0.3,1.1-0.3,2.4-0.3
	c0.2,0,1.8,0.1,2,0.9c0.2,0.6-0.6,1.6-1.6,2.2c-2.2,1.2-4.9-0.4-5.2,0.2c-0.2,0.4,0.7,1.3,1.3,1.8c6.1,5.7,6.1,6.1,8.1,7.3
	c2,1.2,1.6,0.6,4.1,2c3.2,1.8,6.5,3.6,6.7,6.1c0.1,1.4-1,1.7-0.9,3.6c0,1.3,0.6,3.3,1.9,3.8c1.2,0.5,1.8-0.8,3.6-0.6
	c1.9,0.2,2,1.5,3.6,1.6c2.2,0.1,3.1-2.6,4.9-2.2c1,0.2,1.1,1.2,2.4,1.7c1.2,0.5,2.4,0.2,3.2-0.2c6.4-6.5,16.1-16.5,28-29.1
	c9.9-10.5,12.5-13.5,18-18.7c16-15.2,32.8-27.1,33.5-26.2c0.5,0.6-7.2,7.7-33.3,32.5c-18.1,17.2-33,31.5-43.1,41.1
	c0,2,0.5,2.8,1,3.1c1.3,0.8,3-1.1,4.6,0c0.6,0.4,1.6,1.3,2,2.6c0.3,1,0.1,1.7,0.7,2.4c0.4,0.4,0.7,0.2,1.2,0.7
	c1.1,1,0.6,2.1,1.5,2.9c1,0.9,2.3,0.3,2.6,1.1c0.2,0.5-0.3,0.8-0.1,1.6c0.2,0.9,0.9,0.9,1.1,1.5c0.3,1.1-1.6,1.7-2.1,3.6
	c-0.3,1.3,0.5,1.5,0.4,2.9c-0.2,2.8-3.4,3.5-3.3,5.7c0.1,1.3,1.4,2.7,2.7,2.9c2.1,0.3,2.8-2.6,5.1-2.6c2.5,0,3.5,3.6,5.7,3.3
	c1.6-0.3,1.8-2.2,3.6-2.3c1.2-0.1,1.8,0.7,2.6,0.2c0.8-0.4,0.7-1.4,1.6-1.6c0.5-0.1,0.7,0.1,1.1,0.1c1.5,0.1,3.4-2.4,4.2-4.8
	c0.7-2.2,0.1-3,1.1-4.8c0.7-1.3,1.7-2,2.2-2.3c3.3-2.4,7.2-6.1,11-9.6c5-4.8,5.5-6.7,8.9-8.4c0.5-0.3,1.6-0.8,2.9-1.9
	c1.9-1.7,2.5-3.5,3.4-5c2.5-4.8,5.1-4.9,10.2-12.3c0.2-0.3,1.3-2,1.1-2.2c-0.6-0.5-7.1,6.9-8.7,5.8c-0.5-0.3-0.4-1.1-0.3-1.5
	c0.4-3.5,5-4.8,11.5-10.4c1.7-1.5,1.1-1.1,3-2.8c5-4.4,10.5-7.8,11.9-10.6c0.9-1.6,1.4-3.4,1.4-3.4c0.2-0.6,0.2-0.8,0.3-1.1
	c0.6-1.6,1.5-2.3,4.1-5.2C201.4,122.6,201.7,121.9,201.5,121.4z M98.5,116.7c-1.9,2.3-3.9,4-5.7,5.3c1-1.7,2.5-3.8,4.8-5.7
	c0.9-0.8,1.8-1.4,2.6-1.9C99.7,115.1,99.2,115.9,98.5,116.7z M97.1,109.3c2.9-3.2,5.8-6,8.5-8.4c-2.1,2.8-4.6,5.8-7.7,8.9
	c-1.9,2-3.8,3.7-5.7,5.3C93.7,113.2,95.3,111.3,97.1,109.3z M63.4,109.1c0.5-1.1,1.4-2.5,2.6-3.8c0.5-0.5,1-0.9,1.5-1.3
	c-0.3,0.5-0.6,1.1-1,1.6C65.4,107.1,64.3,108.2,63.4,109.1z M68.5,158.6c-0.6,0.7-1.3,1-1.6,1.1c0-0.3,0-1.1,0.5-1.8
	c0.7-0.9,1.6-1.1,1.8-1.1C69.2,157.1,69.1,157.8,68.5,158.6z M66.5,130.3c2-2.4,4-4.8,5.9-7.3c0.1,0.6,0.2,1.2,0.2,1.8
	C70.6,126.7,68.6,128.5,66.5,130.3z M77,166.9c-0.3,0.2-1-1.2-3.2-3.6c-0.6-0.6-1.1-1.1-1-1.7c0.1-0.5,0.7-0.7,1.3-1.1
	c0.7-0.4,1.7-1.2,2.6-2.8c-0.1,1.2-0.4,2-0.6,2.6c-0.3,0.6-0.7,1.1-0.5,1.6c0.2,0.3,0.5,0.2,0.8,0.6c0.3,0.4,0.1,1,0,1.6
	C76.3,165.6,77.3,166.7,77,166.9z M76.5,98.2c0.5-1.1,1.4-2.5,2.6-3.8c0.5-0.5,1-0.9,1.5-1.3c-0.3,0.5-0.6,1.1-1,1.6
	C78.5,96.3,77.4,97.4,76.5,98.2z M93.5,138.3c6.4-8.1,14.1-16.9,23.2-25.7c6.6-6.4,13.1-12,19.3-16.9c-4.5,4.3-9,8.6-13.5,13.1
	C112.4,118.7,102.8,128.6,93.5,138.3z M123.4,112.6c5-5,9.9-9.1,14.3-12.3c-2.7,3.1-5.4,6.3-8.4,9.5c-6.9,7.5-13.8,14.4-20.6,20.6
	C112.5,125,117.2,118.9,123.4,112.6z M134.6,123.5c6.7-5.8,13.2-11.1,19.5-15.9c-4.3,4.3-8.8,8.7-13.5,13.1
	c-9.5,8.8-18.9,16.5-28,23.3C119.2,137.3,126.6,130.5,134.6,123.5z M144.9,124.3c-9.5,8.8-18.9,16.5-28,23.3
	c6.7-6.7,14-13.5,22-20.5c6.7-5.8,13.2-11.1,19.5-15.9C154.2,115.6,149.7,119.9,144.9,124.3z M179.9,114.9
	c-4.3,4.3-8.8,8.7-13.5,13.1c-9.5,8.8-18.9,16.5-28,23.3c6.7-6.7,14-13.5,22-20.5C167,125,173.5,119.7,179.9,114.9z M122.2,162
	c8.8-10.3,19.1-21.2,31.1-32.1c5.4-4.9,10.7-9.4,15.9-13.5c-5.8,5.9-11.7,11.8-17.5,17.7C141.9,143.4,132.1,152.7,122.2,162z
	 M124.5,172c9.5-9.4,19.7-18.9,30.6-28.6c8.6-7.6,17.1-14.8,25.4-21.6c-6.7,6.4-13.7,12.9-20.8,19.4
	C147.8,152,136.1,162.2,124.5,172z M126.1,178.1c6.7-7.8,14.9-16.4,25-25c8.4-7.2,16.6-13.1,24.1-18c-6.6,5.8-13.2,11.6-19.8,17.4
	C145.6,161,135.8,169.5,126.1,178.1z M175,143.4c-8.5,7.8-16.8,14.8-24.9,21c-6.7,5.8-13.3,11.1-19.7,15.9c6.7-6.7,14-13.5,22-20.4
	c6-5.2,12-10.1,17.8-14.6c6.3-5.4,12.5-10.4,18.4-15C184.3,134.6,179.8,139,175,143.4z M171.9,144c-0.6,0.5-1.2,0.9-1.8,1.4
	c-0.4,0.3-0.7,0.6-1.1,0.9c-8,6.9-15.3,13.8-22,20.5c1-0.8,2-1.5,3-2.3c2.7-2.4,5.5-4.8,8.3-7.4C163.1,152.6,167.6,148.3,171.9,144z
	 M170.1,145.3c-0.4,0.3-0.7,0.6-1.1,0.9c-8,6.9-15.3,13.8-22,20.5c1-0.8,2-1.5,3-2.3c2.7-2.4,5.5-4.8,8.3-7.4
	c4.8-4.4,9.3-8.7,13.5-13.1C171.3,144.4,170.7,144.9,170.1,145.3z M170.1,145.3c-0.4,0.3-0.7,0.6-1.1,0.9c-8,6.9-15.3,13.8-22,20.5
	c1-0.8,2-1.5,3-2.3c2.7-2.4,5.5-4.8,8.3-7.4c4.8-4.4,9.3-8.7,13.5-13.1C171.3,144.4,170.7,144.9,170.1,145.3z M170.1,145.3
	c-0.4,0.3-0.7,0.6-1.1,0.9c-8,6.9-15.3,13.8-22,20.5c1-0.8,2-1.5,3-2.3c2.7-2.4,5.5-4.8,8.3-7.4c4.8-4.4,9.3-8.7,13.5-13.1
	C171.3,144.4,170.7,144.9,170.1,145.3z M170.1,145.3c-0.4,0.3-0.7,0.6-1.1,0.9c-8,6.9-15.3,13.8-22,20.5c1-0.8,2-1.5,3-2.3
	c2.7-2.4,5.5-4.8,8.3-7.4c4.8-4.4,9.3-8.7,13.5-13.1C171.3,144.4,170.7,144.9,170.1,145.3z M170.1,145.3c-0.4,0.3-0.7,0.6-1.1,0.9
	c-8,6.9-15.3,13.8-22,20.5c1-0.8,2-1.5,3-2.3c2.7-2.4,5.5-4.8,8.3-7.4c4.8-4.4,9.3-8.7,13.5-13.1
	C171.3,144.4,170.7,144.9,170.1,145.3z M170.1,145.3c-0.4,0.3-0.7,0.6-1.1,0.9c-8,6.9-15.3,13.8-22,20.5c1-0.8,2-1.5,3-2.3
	c2.7-2.4,5.5-4.8,8.3-7.4c4.8-4.4,9.3-8.7,13.5-13.1C171.3,144.4,170.7,144.9,170.1,145.3z M170.1,145.3c-0.4,0.3-0.7,0.6-1.1,0.9
	c-8,6.9-15.3,13.8-22,20.5c1-0.8,2-1.5,3-2.3c2.7-2.4,5.5-4.8,8.3-7.4c4.8-4.4,9.3-8.7,13.5-13.1
	C171.3,144.4,170.7,144.9,170.1,145.3z M170.1,145.3c-0.4,0.3-0.7,0.6-1.1,0.9c-8,6.9-15.3,13.8-22,20.5c1-0.8,2-1.5,3-2.3
	c2.7-2.4,5.5-4.8,8.3-7.4c4.8-4.4,9.3-8.7,13.5-13.1C171.3,144.4,170.7,144.9,170.1,145.3z"/>
</svg>
