<?xml version="1.0" encoding="utf-8"?>
<!-- Generator: Adobe Illustrator 23.0.0, SVG Export Plug-In . SVG Version: 6.00 Build 0)  -->
<svg version="1.1" id="Layer_1" xmlns="http://www.w3.org/2000/svg" xmlns:xlink="http://www.w3.org/1999/xlink" x="0px" y="0px"
	 viewBox="0 0 256 256" style="enable-background:new 0 0 256 256;" xml:space="preserve">
<style type="text/css">
	.st0{opacity:0.8;fill:#0E0E17;}
	.st1{fill:#0E0E17;}
	.st2{fill:none;stroke:#F75049;stroke-miterlimit:10;}
	.st3{fill:#F75049;}
</style>
<g>
	<g>
		<path class="st0" d="M218.1,40.1h-67.5c-6.8-6.3-13.6-12.7-20.4-19.1H37.7c-2.3,2.2-4.6,4.5-6.9,6.7v200.1l8,8h160.9
			c9-9.8,17.9-19.7,26.8-29.5V46.8C223.7,44.6,220.9,42.4,218.1,40.1z M218.3,168c-2.7,3.4-5.4,7-8.1,10.4v40.6
			c-2.6,2.6-5.3,5.1-7.9,7.7H48.9c-2.6-2.6-5.2-5.2-7.8-7.9v-40.4c-2.6-3.4-5.3-7-7.9-10.4V95.5c2.6-2.3,5.3-4.5,7.9-6.8V50.3
			c2.6-2.6,5.2-5.3,7.8-7.9h153.3c2.7,2.7,5.3,5.4,8,8.1v38.3c2.6,2.2,5.3,4.5,8,6.8V168z"/>
		<path class="st1" d="M218.1,40.1h-67.5c-6.8-6.3-13.6-12.7-20.4-19.1H37.7c-2.3,2.2-4.6,4.5-6.9,6.7v200.1l8,8h160.9
			c9-9.8,17.9-19.7,26.8-29.5V46.8C223.7,44.6,220.9,42.4,218.1,40.1z M218.3,168c-2.7,3.4-5.4,7-8.1,10.4v40.6
			c-2.6,2.6-5.3,5.1-7.9,7.7H48.9c-2.6-2.6-5.2-5.2-7.8-7.9v-40.4c-2.6-3.4-5.3-7-7.9-10.4V95.5c2.6-2.3,5.3-4.5,7.9-6.8V50.3
			c2.6-2.6,5.2-5.3,7.8-7.9h153.3c2.7,2.7,5.3,5.4,8,8.1v38.3c2.6,2.2,5.3,4.5,8,6.8V168z"/>
		<g>
			<path class="st1" d="M218.3,95.7V168c-2.7,3.4-5.4,7-8.1,10.4v40.6c-2.6,2.6-5.3,5.1-7.9,7.7H48.9c-2.6-2.6-5.2-5.2-7.8-7.9
				v-40.4c-2.6-3.4-5.3-7-7.9-10.4V95.5c2.6-2.3,5.3-4.5,7.9-6.8V50.3c2.6-2.6,5.2-5.3,7.8-7.9h153.3c2.7,2.7,5.3,5.4,8,8.1v38.3
				C212.9,91.1,215.6,93.4,218.3,95.7z"/>
		</g>
	</g>
	<path class="st2" d="M218.1,40.1h-67.5c-6.8-6.3-13.6-12.7-20.4-19.1H37.7c-2.3,2.2-4.6,4.5-6.9,6.7v200.1l8,8h160.9
		c9-9.8,17.9-19.7,26.8-29.5V46.8C223.7,44.6,220.9,42.4,218.1,40.1z M218.3,168c-2.7,3.4-5.4,7-8.1,10.4v40.6
		c-2.6,2.6-5.3,5.1-7.9,7.7H48.9c-2.6-2.6-5.2-5.2-7.8-7.9v-40.4c-2.6-3.4-5.3-7-7.9-10.4V95.5c2.6-2.3,5.3-4.5,7.9-6.8V50.3
		c2.6-2.6,5.2-5.3,7.8-7.9h153.3c2.7,2.7,5.3,5.4,8,8.1v38.3c2.6,2.2,5.3,4.5,8,6.8V168z"/>
</g>
<path class="st3" d="M162.2,95l-1.6,1.6c0.8,0,1.6,0,2.4,0L162.2,95z"/>
<path class="st3" d="M185.7,134c-4.1-17.9-11.4-31.7-18.7-35.8c-1.6-0.8-2.4-0.8-3.3-1.6c-0.8,0-1.6,0-2.4,0l-21.1,19.5L111.8,143
	l26-27.6l19.5-17.9c-0.8,0-1.6,0.8-1.6,0.8c-3.3,1.6-7.3,3.3-13.8,4.9l0,0l-13,13l-16.3,13v5.7h-7.3v7.3H98v-7.3h-8.1v-8.1h7.3v-7.3
	h7.3v7.3h7.3v1.6l13.8-13.8l13-11.4c-1.6,0.8-5.7,0.8-10.6,0.8c-9.8,0-16.3-0.8-21.1-2.4l-16.3,16.3v-1.6l14.6-15.4
	c-1.6-0.8-3.3-1.6-4.1-2.4l-0.8-0.8l-16.3,17.1l-0.8,1.6l-0.8-3.3l0.8-0.8l15.4-15.4c-0.8,0-1.6,0-2.4,0c-2.4,0-4.1,0.8-6.5,1.6
	c-6.5,3.3-12.2,11.4-16.3,23.6c2.4-2.4,4.9-4.1,7.3-6.5v2.4l-8.1,8.1c-0.8,2.4-1.6,4.9-2.4,8.1l0,0c-3.3,14.6-4.9,35.8-2.4,43.9
	c1.6,7.3,4.9,10.6,10.6,10.6c1.6,0,3.3,0,4.1-0.8c4.1-1.6,8.9-4.9,12.2-9.8l0.8-0.8v-2.4l0.8-0.8l4.9-4.1c0.8-0.8,0.8-1.6,1.6-3.3
	c1.6-2.4,4.9-4.9,8.9-6.5l26-23.6l5.7-5.7l0,0c0-2.4,1.6-4.1,4.1-4.1l0,0c1.6,0,3.3,1.6,4.1,3.3l0,0c0,2.4-1.6,4.1-4.1,4.1l0,0
	L124,157.6c0.8,0,2.4,0,3.3,0h0.8c5.7,0,11.4,0.8,16.3,2.4c0.8,0,1.6,0.8,2.4,0.8l25.2-22.8l1.6,6.5l-21.1,19.5
	c0.8,0.8,1.6,1.6,1.6,2.4c3.3,5.7,7.3,11.4,11.4,14.6l10.6-2.4l-1.6,2.4l-6.5,1.6h0.8l4.9-0.8l-0.8,2.4c2.4,0.8,4.1,1.6,5.7,1.6
	c5.7,0,8.1-3.3,10.6-10.6C189.8,169,189,148.7,185.7,134z M154.8,142.2c-1.6,0-2.4,0-3.3-0.8c-0.8-0.8-0.8-1.6-0.8-2.4
	c0-2.4,1.6-4.1,4.1-4.1c2.4,0,4.1,1.6,4.1,4.1C158.9,141.4,156.5,142.2,154.8,142.2z M162.2,134.9c-0.8,0-2.4,0-2.4-0.8
	c-0.8-0.8-0.8-1.6-0.8-2.4c0-2.4,1.6-4.1,4.1-4.1s4.1,1.6,4.1,4.1C167,134,163.8,134.9,162.2,134.9z M158.1,122.7
	C158.1,122.7,158.1,123.5,158.1,122.7c0,2.4-1.6,4.1-4.1,4.1l0,0c-0.8,0-1.6,0-2.4-0.8s-0.8-1.6-0.8-2.4l0,0c0-2.4,1.6-4.1,4.1-4.1
	l10.6-10.6l0.8,5.7L158.1,122.7z"/>
</svg>
