<?xml version="1.0" encoding="utf-8"?>
<!-- Generator: Adobe Illustrator 23.0.0, SVG Export Plug-In . SVG Version: 6.00 Build 0)  -->
<svg version="1.1" id="Layer_1" xmlns="http://www.w3.org/2000/svg" xmlns:xlink="http://www.w3.org/1999/xlink" x="0px" y="0px"
	 viewBox="0 0 256 256" style="enable-background:new 0 0 256 256;" xml:space="preserve">
<style type="text/css">
	.st0{opacity:0.8;fill:#0E0E17;}
	.st1{fill:#0E0E17;}
	.st2{fill:none;stroke:#F75049;stroke-miterlimit:10;}
	.st3{fill:none;}
	.st4{fill-opacity:0;}
	.st5{fill:#F75049;}
</style>
<g>
	<g>
		<path class="st0" d="M218.1,40.1h-67.5c-6.8-6.3-13.6-12.7-20.4-19.1H37.7c-2.3,2.2-4.6,4.5-6.9,6.7v200.1l8,8h160.9
			c9-9.8,17.9-19.7,26.8-29.5V46.8C223.7,44.6,220.9,42.4,218.1,40.1z M218.3,168c-2.7,3.4-5.4,7-8.1,10.4v40.6
			c-2.6,2.6-5.3,5.1-7.9,7.7H48.9c-2.6-2.6-5.2-5.2-7.8-7.9v-40.4c-2.6-3.4-5.3-7-7.9-10.4V95.5c2.6-2.3,5.3-4.5,7.9-6.8V50.3
			c2.6-2.6,5.2-5.3,7.8-7.9h153.3c2.7,2.7,5.3,5.4,8,8.1v38.3c2.6,2.2,5.3,4.5,8,6.8V168z"/>
		<path class="st1" d="M218.1,40.1h-67.5c-6.8-6.3-13.6-12.7-20.4-19.1H37.7c-2.3,2.2-4.6,4.5-6.9,6.7v200.1l8,8h160.9
			c9-9.8,17.9-19.7,26.8-29.5V46.8C223.7,44.6,220.9,42.4,218.1,40.1z M218.3,168c-2.7,3.4-5.4,7-8.1,10.4v40.6
			c-2.6,2.6-5.3,5.1-7.9,7.7H48.9c-2.6-2.6-5.2-5.2-7.8-7.9v-40.4c-2.6-3.4-5.3-7-7.9-10.4V95.5c2.6-2.3,5.3-4.5,7.9-6.8V50.3
			c2.6-2.6,5.2-5.3,7.8-7.9h153.3c2.7,2.7,5.3,5.4,8,8.1v38.3c2.6,2.2,5.3,4.5,8,6.8V168z"/>
		<g>
			<path class="st1" d="M218.3,95.7V168c-2.7,3.4-5.4,7-8.1,10.4v40.6c-2.6,2.6-5.3,5.1-7.9,7.7H48.9c-2.6-2.6-5.2-5.2-7.8-7.9
				v-40.4c-2.6-3.4-5.3-7-7.9-10.4V95.5c2.6-2.3,5.3-4.5,7.9-6.8V50.3c2.6-2.6,5.2-5.3,7.8-7.9h153.3c2.7,2.7,5.3,5.4,8,8.1v38.3
				C212.9,91.1,215.6,93.4,218.3,95.7z"/>
		</g>
	</g>
	<path class="st2" d="M218.1,40.1h-67.5c-6.8-6.3-13.6-12.7-20.4-19.1H37.7c-2.3,2.2-4.6,4.5-6.9,6.7v200.1l8,8h160.9
		c9-9.8,17.9-19.7,26.8-29.5V46.8C223.7,44.6,220.9,42.4,218.1,40.1z M218.3,168c-2.7,3.4-5.4,7-8.1,10.4v40.6
		c-2.6,2.6-5.3,5.1-7.9,7.7H48.9c-2.6-2.6-5.2-5.2-7.8-7.9v-40.4c-2.6-3.4-5.3-7-7.9-10.4V95.5c2.6-2.3,5.3-4.5,7.9-6.8V50.3
		c2.6-2.6,5.2-5.3,7.8-7.9h153.3c2.7,2.7,5.3,5.4,8,8.1v38.3c2.6,2.2,5.3,4.5,8,6.8V168z"/>
</g>
<g>
	<path class="st3" d="M136.1,67.7c0,0,0,0-0.1,0.1c0,0,0,0-0.1,0L136.1,67.7z"/>
	<path class="st3" d="M108.3,153.5c1.1,0.3,0.3,1,0,2c-0.3,1-2.2,0.5-2.2-1.1C106.1,154.3,107.2,153.2,108.3,153.5z"/>
	<path class="st3" d="M160.1,160.1c0,0.1-0.3,0.6-0.6,1.2c-0.3-0.1-0.5-0.2-0.8-0.3L160.1,160.1z"/>
	<path class="st4" d="M136.1,67.7c0,0,0,0-0.1,0.1c0,0,0,0-0.1,0L136.1,67.7z"/>
	<path class="st4" d="M108.3,153.5c1.1,0.3,0.3,1,0,2c-0.3,1-2.2,0.5-2.2-1.1C106.1,154.3,107.2,153.2,108.3,153.5z"/>
	<path class="st4" d="M160.1,160.1c0,0.1-0.3,0.6-0.6,1.2c-0.3-0.1-0.5-0.2-0.8-0.3L160.1,160.1z"/>
	<path class="st5" d="M141.9,157.8c1.4,0.1,2.8,0.3,4.2,0.5l-9.7,8.4c-1.4-0.1-3-0.2-4.5-0.3L141.9,157.8z"/>
	<path class="st5" d="M184.4,203.2h-9.3c0-8-0.7-12.1-2.2-17c-1.5-5-3.8-8.4-7.6-11.3c-2.1-1.6-4.6-3-7.7-4.2c2.1-2.5,3.8-5.2,5.1-8
		c3,1.3,5.6,2.9,8.1,4.8c5.3,4,8.9,9.5,10.8,15.9C183.8,189.8,184.4,194.7,184.4,203.2z"/>
	<path class="st5" d="M67.8,167.5c5.1-3.9,11.1-6.5,18.9-8.1l-31.5,30.8c0.4-2.2,1-4.4,1.7-6.8C58.9,177,62.5,171.5,67.8,167.5z"/>
	<path class="st5" d="M128.9,157l-10.6,9.2c-4.1,0-7.9,0.1-11.4,0.3l9.8-9.5c1,0,2,0,3,0C122.9,156.9,126,157,128.9,157z"/>
	<path class="st5" d="M96.9,162.6c-0.2,0.5-1.4,0.3-1.4-0.6c0,0,0.7-0.6,1.4-0.5C97.6,161.7,97.1,162.1,96.9,162.6z"/>
	<path class="st5" d="M159.5,161.4c-1.1,2.1-3.1,6.2-3.4,6.6c-0.2,0.2-0.9,0.9-1.7,1.6c-1.4-0.4-3-0.8-4.6-1.1l4.8-4.6l4.2-2.8
		C158.9,161.2,159.2,161.3,159.5,161.4z"/>
	<path class="st5" d="M132.2,73.8c0.3-0.3,3.4-5.3,3.9-6.1c3.1,1.6,5.9,3.8,8.3,6.4c1.1,1.2,2.2,2.5,3.1,3.8l-7.3,5.8
		c-0.8-1.2-1.6-2.3-2.6-3.2v-0.1c-2.1-2.3-4.7-4.1-7.8-5.4l-0.1,0l-0.1,0c0,0-0.1,0-0.1,0C130.7,74.7,132,74.1,132.2,73.8z"/>
	<path class="st5" d="M142.8,89.3l7.2-6.8c0.6,1.2,1.1,2.4,1.5,3.6c0.5,1.2,0.8,2.4,1.2,3.7l-3.9,2.7l-4.3,5.3
		C144.4,94.7,143.8,91.9,142.8,89.3L142.8,89.3z"/>
	<path class="st5" d="M153.8,95l-0.1,0.1l-9,6.5c-0.1,4.2-0.7,7.8-1.9,11v0c-1.2,3.2-3,6.2-5.3,8.7l-0.1,0v0c-1.5,1.6-3.2,3-5.2,4.1
		c-1.1,1.4-2.2,2.7-3.2,3.8c-0.8,1.2-2.2,2.8-4.2,4.2c-1.4,1-2.7,1.6-3.8,2c0.9-0.9,3.6-3.7,6-7.8c-2.5,0.7-5,1.1-7.6,1
		c-0.5,0-0.9,0-1.4,0c-3.3-0.1-6.2-0.8-9-1.9h0c-3-1.3-5.6-3.1-7.8-5.4l-0.5-0.6l-0.1,0c-0.7-0.8-1.3-1.6-1.9-2.5l-6.8,6.6
		c0.7,1,1.5,1.9,2.3,2.8l0,0l0,0c3.1,3.3,6.9,5.9,11.2,7.7l0,0l0,0c1.4,0.6,2.8,1,4.2,1.4c3.1,0.8,6.3,1.2,9.7,1.2c0.5,0,1,0,1.5,0
		c0.6-0.7,1.4-1.5,2.3-1.1c0.4,0.2,0.6,0.5,0.7,0.9c3.3-0.4,6.4-1.2,9.4-2.4v0c4.2-1.8,8-4.4,11.1-7.8c2.1-2.3,3.9-4.8,5.4-7.6
		c-0.4-0.2-0.8-0.5-0.8-0.9c0,0,0.7-0.4,1.5-0.6c0.4-0.9,0.8-1.8,1.1-2.7c0-0.1,0.1-0.3,0.1-0.4c-1,0.8-2.6,1.8-4.5,3.3
		c-2.8,2.1-2.1,0.4,2.4-3.2c0,0,1.6-1,2.5-1.4c1.3-4.1,1.9-8.5,1.9-13.3h0.1C154.1,98.9,154,97,153.8,95z M143,122.8
		c-0.2,0.7-1.7,0.4-1.7-0.8c0,0,0.9-0.9,1.7-0.6C143.8,121.6,143.2,122,143,122.8z"/>
	<path class="st5" d="M95.3,111l-7.4,6.9c-0.3-0.6-0.6-1.3-0.8-2c-1.7-4.6-2.5-9.6-2.5-15c-0.1-5.1,0.8-10.1,2.5-14.9
		c1-2.7,2.3-5.3,3.8-7.5c1-1.6,2.1-3,3.4-4.4l0,0l0,0c3.2-3.3,6.9-5.9,11.2-7.6c4.3-1.8,9-2.7,13.9-2.7c4.8,0,9.5,0.9,13.9,2.7
		c0.9,0.4,1.8,0.8,2.7,1.3l-9.1,6.2l0.5-0.1c0,0,0,0.2,0,0.4c-2.5-0.8-5.1-1.2-8-1.2c-3.8,0-7.2,0.7-10.2,2l-0.1,0l0,0
		c-2.6,1.1-4.9,2.5-6.9,4.4c-0.3,0.3-0.7,0.7-1,1l-0.1,0.1c-2.1,2.3-3.9,5.2-5.2,8.7v0l0,0c-1.3,3.4-1.9,7.2-1.9,11.6
		C93.8,104.3,94.3,107.7,95.3,111z"/>
</g>
</svg>
