<?xml version="1.0" encoding="utf-8"?>
<!-- Generator: Adobe Illustrator 23.0.0, SVG Export Plug-In . SVG Version: 6.00 Build 0)  -->
<svg version="1.1" id="Layer_1" xmlns="http://www.w3.org/2000/svg" xmlns:xlink="http://www.w3.org/1999/xlink" x="0px" y="0px"
	 viewBox="0 0 256 256" style="enable-background:new 0 0 256 256;" xml:space="preserve">
<style type="text/css">
	.st0{opacity:0.8;fill:#0E0E17;}
	.st1{fill:#0E0E17;}
	.st2{fill:none;stroke:#F75049;stroke-miterlimit:10;}
	.st3{fill-rule:evenodd;clip-rule:evenodd;fill:#F75049;}
</style>
<g>
	<g>
		<path class="st0" d="M218.1,40.1h-67.5c-6.8-6.3-13.6-12.7-20.4-19.1H37.7c-2.3,2.2-4.6,4.5-6.9,6.7v200.1l8,8h160.9
			c9-9.8,17.9-19.7,26.8-29.5V46.8C223.7,44.6,220.9,42.4,218.1,40.1z M218.3,168c-2.7,3.4-5.4,7-8.1,10.4v40.6
			c-2.6,2.6-5.3,5.1-7.9,7.7H48.9c-2.6-2.6-5.2-5.2-7.8-7.9v-40.4c-2.6-3.4-5.3-7-7.9-10.4V95.5c2.6-2.3,5.3-4.5,7.9-6.8V50.3
			c2.6-2.6,5.2-5.3,7.8-7.9h153.3c2.7,2.7,5.3,5.4,8,8.1v38.3c2.6,2.2,5.3,4.5,8,6.8V168z"/>
		<path class="st1" d="M218.1,40.1h-67.5c-6.8-6.3-13.6-12.7-20.4-19.1H37.7c-2.3,2.2-4.6,4.5-6.9,6.7v200.1l8,8h160.9
			c9-9.8,17.9-19.7,26.8-29.5V46.8C223.7,44.6,220.9,42.4,218.1,40.1z M218.3,168c-2.7,3.4-5.4,7-8.1,10.4v40.6
			c-2.6,2.6-5.3,5.1-7.9,7.7H48.9c-2.6-2.6-5.2-5.2-7.8-7.9v-40.4c-2.6-3.4-5.3-7-7.9-10.4V95.5c2.6-2.3,5.3-4.5,7.9-6.8V50.3
			c2.6-2.6,5.2-5.3,7.8-7.9h153.3c2.7,2.7,5.3,5.4,8,8.1v38.3c2.6,2.2,5.3,4.5,8,6.8V168z"/>
		<g>
			<path class="st1" d="M218.3,95.7V168c-2.7,3.4-5.4,7-8.1,10.4v40.6c-2.6,2.6-5.3,5.1-7.9,7.7H48.9c-2.6-2.6-5.2-5.2-7.8-7.9
				v-40.4c-2.6-3.4-5.3-7-7.9-10.4V95.5c2.6-2.3,5.3-4.5,7.9-6.8V50.3c2.6-2.6,5.2-5.3,7.8-7.9h153.3c2.7,2.7,5.3,5.4,8,8.1v38.3
				C212.9,91.1,215.6,93.4,218.3,95.7z"/>
		</g>
	</g>
	<path class="st2" d="M218.1,40.1h-67.5c-6.8-6.3-13.6-12.7-20.4-19.1H37.7c-2.3,2.2-4.6,4.5-6.9,6.7v200.1l8,8h160.9
		c9-9.8,17.9-19.7,26.8-29.5V46.8C223.7,44.6,220.9,42.4,218.1,40.1z M218.3,168c-2.7,3.4-5.4,7-8.1,10.4v40.6
		c-2.6,2.6-5.3,5.1-7.9,7.7H48.9c-2.6-2.6-5.2-5.2-7.8-7.9v-40.4c-2.6-3.4-5.3-7-7.9-10.4V95.5c2.6-2.3,5.3-4.5,7.9-6.8V50.3
		c2.6-2.6,5.2-5.3,7.8-7.9h153.3c2.7,2.7,5.3,5.4,8,8.1v38.3c2.6,2.2,5.3,4.5,8,6.8V168z"/>
</g>
<path class="st3" d="M178.4,143.9c-0.1,1.5-0.3,3-0.6,4.5c-2.4,11.5-11,20.7-23.3,26.4c4.1-4.4,9.6-10.4,9.6-10.4s4.2-3.6,4.6-4.2
	c0.4-0.6,3.9-7.6,4.1-8l-5.7,3.9L143,179c-5.2,1.3-10.7,2.2-16.5,2.5c-4.3,5.2-9.2,9.5-14.5,12.9c4.4,1,9,1.6,13.8,1.6
	c32.2,0,58.6-24.8,61.2-56.2C184.3,141.3,181.5,142.7,178.4,143.9z M106.1,76.4C89.5,82.1,76,94.7,69.2,110.8
	c-0.9,2.1-1.7,4.3-2.3,6.5l43.6-40.7l0.8-1.7C109.6,75.4,107.8,75.9,106.1,76.4z M105.6,137.7L74.3,168c0.9,1.3,1.8,2.6,2.7,3.9
	l30-29.3C106.4,141,105.9,139.4,105.6,137.7z M155.4,112.6c-0.8-0.3-1.7,0.6-1.7,0.6c0,1.2,1.5,1.6,1.7,0.8
	C155.7,113.3,156.3,112.8,155.4,112.6z M164.4,109.8c-1.4-0.3-2.9,0.6-2.9,0.6c0,1.2,2.5,1.5,2.9,0.8
	C164.8,110.5,165.8,110,164.4,109.8z M160.7,84l-4,5l-3.8,3.8l-1.7,1.5c-0.7-2.6-1.9-5-3.5-7.3l7-6.6c-2-1.1-4.2-2.1-6.3-2.9
	l-5.6,4.4c-3-2.5-6.7-4.8-10.7-6.6l1.7-1.5c-1.4-0.2-2.9-0.3-4.3-0.4c-0.7,0-1.5-0.1-2.3-0.1c-0.4,0-0.9,0-1.3,0
	c-2.5,0-5,0.2-7.5,0.5c2.4,0.9,4.8,1.9,7.2,3.2l-61.1,56.5c0,0.4,0,0.8,0,1.2c0,0.9,0,1.8,0.1,2.7l11.8-10.7l52.2-48
	c3.3,2,6.4,4.6,8.9,7.6l-35.6,28.1l-35.6,34.9c0.9,3.8,2.2,7.5,3.8,11l38.3-36.1c1.9-3.2,4.7-5.9,8.1-7.6l25.2-23.7
	c1,2.2,1.7,4.6,2,7.2c0.1,0.3,0.1,0.7,0.1,1l-1,0.9l-13.1,12.7c1.6,0.3,3.2,0.8,4.7,1.5l9.2-8.4c-0.7,4.4-2.5,8.3-4.3,11.5
	c0.7,0.6,1.3,1.2,1.9,1.8c0,0,0.1-0.1,0.1-0.1c2.1-2.2,4.7-5.3,6.8-9c2.1-3.7,3.7-7.9,3.9-12.3l4.8-6.6l8.2-5.9
	C163.4,86,162.1,85,160.7,84z M162.2,106.7c-4.7,3.7-5.3,5.4-2.5,3.3c2.9-2.1,5-3.3,5.6-4.5C165.9,104.4,162.2,106.7,162.2,106.7z
	 M170.7,99.6c-4.7,3.7-5.3,5.4-2.4,3.3c2.9-2.1,5-3.3,5.6-4.5C174.4,97.3,170.7,99.6,170.7,99.6z M180.5,106.5l-11.2,7.2l-21.5,21.2
	l-1.5,1.1c-0.7,10.6-9.6,19-20.4,19c-1.1,0-2.2-0.1-3.3-0.3l-31.3,30.6c1.7,1.2,3.5,2.2,5.3,3.2l31.4-28.1l21.8-18.9l26.1-25.9
	l6.2-5.6C181.6,108.9,181.1,107.7,180.5,106.5z M108.3,153.8c-0.7-0.2-1.5,0.5-1.5,0.5c0,0.9,1.3,1.1,1.5,0.6
	C108.5,154.3,109,154,108.3,153.8z M99.2,162.2c-1.4-0.7-2.9,1.8-2.9,1.8c0,3.3,2.5,4.2,2.9,2.2C99.6,164.2,100.6,162.9,99.2,162.2z
	 M92.7,168.1c-1.4-0.8-2.9,2.1-2.9,2.1c0,3.9,2.5,4.9,2.9,2.6C93.1,170.4,94.1,168.9,92.7,168.1z M87.8,175.2c-1.4-0.4-2.9,1-2.9,1
	c0,1.8,2.5,2.3,2.9,1.2C88.2,176.3,89.2,175.5,87.8,175.2z M84.5,178.3c-0.5-0.1-1.1,0.2-1.3,0.4c0.3,0.3,0.7,0.6,1,1
	c0.1,0,0.3-0.1,0.3-0.2C84.7,178.9,85.2,178.5,84.5,178.3z M157.1,147.6l-52,44.8c1.6,0.6,3.3,1.1,4.9,1.5l10.3-10.1l63.4-55.3
	L157.1,147.6z"/>
</svg>
