<?xml version="1.0" encoding="utf-8"?>
<!-- Generator: Adobe Illustrator 23.0.0, SVG Export Plug-In . SVG Version: 6.00 Build 0)  -->
<svg version="1.1" id="Layer_1" xmlns="http://www.w3.org/2000/svg" xmlns:xlink="http://www.w3.org/1999/xlink" x="0px" y="0px"
	 viewBox="0 0 256 256" style="enable-background:new 0 0 256 256;" xml:space="preserve">
<style type="text/css">
	.st0{opacity:0.8;fill:#0E0E17;enable-background:new    ;}
	.st1{fill:#0E0E17;}
	.st2{fill:none;stroke:#F75049;stroke-miterlimit:10;}
	.st3{fill:#F75049;}
</style>
<g>
	<g>
		<path class="st0" d="M218.1,40.1h-67.5c-6.8-6.3-13.6-12.7-20.4-19.1H37.7c-2.3,2.2-4.6,4.5-6.9,6.7v200.1l8,8h160.9
			c9-9.8,17.9-19.7,26.8-29.5V46.8C223.7,44.6,220.9,42.4,218.1,40.1z M218.3,168c-2.7,3.4-5.4,7-8.1,10.4V219
			c-2.6,2.6-5.3,5.1-7.9,7.7H48.9c-2.6-2.6-5.2-5.2-7.8-7.9v-40.4c-2.6-3.4-5.3-7-7.9-10.4V95.5c2.6-2.3,5.3-4.5,7.9-6.8V50.3
			c2.6-2.6,5.2-5.3,7.8-7.9h153.3c2.7,2.7,5.3,5.4,8,8.1v38.3c2.6,2.2,5.3,4.5,8,6.8L218.3,168L218.3,168z"/>
		<path class="st1" d="M218.1,40.1h-67.5c-6.8-6.3-13.6-12.7-20.4-19.1H37.7c-2.3,2.2-4.6,4.5-6.9,6.7v200.1l8,8h160.9
			c9-9.8,17.9-19.7,26.8-29.5V46.8C223.7,44.6,220.9,42.4,218.1,40.1z M218.3,168c-2.7,3.4-5.4,7-8.1,10.4V219
			c-2.6,2.6-5.3,5.1-7.9,7.7H48.9c-2.6-2.6-5.2-5.2-7.8-7.9v-40.4c-2.6-3.4-5.3-7-7.9-10.4V95.5c2.6-2.3,5.3-4.5,7.9-6.8V50.3
			c2.6-2.6,5.2-5.3,7.8-7.9h153.3c2.7,2.7,5.3,5.4,8,8.1v38.3c2.6,2.2,5.3,4.5,8,6.8L218.3,168L218.3,168z"/>
		<g>
			<path class="st1" d="M218.3,95.7V168c-2.7,3.4-5.4,7-8.1,10.4V219c-2.6,2.6-5.3,5.1-7.9,7.7H48.9c-2.6-2.6-5.2-5.2-7.8-7.9v-40.4
				c-2.6-3.4-5.3-7-7.9-10.4V95.5c2.6-2.3,5.3-4.5,7.9-6.8V50.3c2.6-2.6,5.2-5.3,7.8-7.9h153.3c2.7,2.7,5.3,5.4,8,8.1v38.3
				C212.9,91.1,215.6,93.4,218.3,95.7z"/>
		</g>
	</g>
	<path class="st2" d="M218.1,40.1h-67.5c-6.8-6.3-13.6-12.7-20.4-19.1H37.7c-2.3,2.2-4.6,4.5-6.9,6.7v200.1l8,8h160.9
		c9-9.8,17.9-19.7,26.8-29.5V46.8C223.7,44.6,220.9,42.4,218.1,40.1z M218.3,168c-2.7,3.4-5.4,7-8.1,10.4V219
		c-2.6,2.6-5.3,5.1-7.9,7.7H48.9c-2.6-2.6-5.2-5.2-7.8-7.9v-40.4c-2.6-3.4-5.3-7-7.9-10.4V95.5c2.6-2.3,5.3-4.5,7.9-6.8V50.3
		c2.6-2.6,5.2-5.3,7.8-7.9h153.3c2.7,2.7,5.3,5.4,8,8.1v38.3c2.6,2.2,5.3,4.5,8,6.8L218.3,168L218.3,168z"/>
</g>
<g transform="translate(-332,-60.000004)">
	<path class="st3" d="M481.8,149.7c-1.9,2.8-4.6,5.6-6.5,8.4c0.9,1.9,2.8,3.7,4.6,4.6l0,0c1.9-1.9,3.7-4.6,5.6-6.5
		C483.6,153.4,482.7,151.6,481.8,149.7z M482.7,245.4c-1.9,2.8-3.7,4.6-6.5,7.4l0.9,0.9c1.9-1.9,3.7-4.6,6.5-7.4
		C483.6,246.3,482.7,245.4,482.7,245.4z M468.8,164.6L468.8,164.6L468.8,164.6L468.8,164.6z M481.8,149.7c-1.9,2.8-4.6,5.6-6.5,8.4
		c0.9,1.9,2.8,3.7,4.6,4.6l0,0c1.9-1.9,3.7-4.6,5.6-6.5C483.6,153.4,482.7,151.6,481.8,149.7z"/>
</g>
<path class="st3" d="M151.6,186.3c-1.9,2.8-3.7,4.6-6.5,7.4l-0.9-0.9c1.9-2.8,3.7-4.6,6.5-7.4C150.7,185.4,151.6,186.3,151.6,186.3z
	"/>
<path class="st3" d="M151.6,186.3c-1.9,2.8-3.7,4.6-6.5,7.4l-0.9-0.9c1.9-2.8,3.7-4.6,6.5-7.4C150.7,185.4,151.6,186.3,151.6,186.3z
	"/>
<path class="st3" d="M151.6,186.3c-1.9,2.8-3.7,4.6-6.5,7.4l-0.9-0.9c1.9-2.8,3.7-4.6,6.5-7.4C150.7,185.4,151.6,186.3,151.6,186.3z
	"/>
<path class="st3" d="M151.6,186.3c-1.9,2.8-3.7,4.6-6.5,7.4l-0.9-0.9c1.9-2.8,3.7-4.6,6.5-7.4C150.7,185.4,151.6,186.3,151.6,186.3z
	"/>
<path class="st3" d="M151.6,186.3c-1.9,2.8-3.7,4.6-6.5,7.4l-0.9-0.9c1.9-2.8,3.7-4.6,6.5-7.4C150.7,185.4,151.6,186.3,151.6,186.3z
	"/>
<path class="st3" d="M151.6,186.3c-1.9,2.8-3.7,4.6-6.5,7.4l-0.9-0.9c1.9-2.8,3.7-4.6,6.5-7.4C150.7,185.4,151.6,186.3,151.6,186.3z
	"/>
<path class="st3" d="M151.6,186.3c-1.9,2.8-3.7,4.6-6.5,7.4l-0.9-0.9c1.9-2.8,3.7-4.6,6.5-7.4C150.7,185.4,151.6,186.3,151.6,186.3z
	"/>
<path class="st3" d="M151.6,186.3c-1.9,2.8-3.7,4.6-6.5,7.4l-0.9-0.9c1.9-2.8,3.7-4.6,6.5-7.4C150.7,185.4,151.6,186.3,151.6,186.3z
	"/>
<path class="st3" d="M151.6,186.3c-1.9,2.8-3.7,4.6-6.5,7.4l-0.9-0.9c1.9-2.8,3.7-4.6,6.5-7.4C150.7,185.4,151.6,186.3,151.6,186.3z
	"/>
<path class="st3" d="M151.6,186.3c-1.9,2.8-3.7,4.6-6.5,7.4l-0.9-0.9c1.9-2.8,3.7-4.6,6.5-7.4C150.7,185.4,151.6,186.3,151.6,186.3z
	"/>
<path class="st3" d="M82,117.6c1.9-1.9,4.6-4.6,6.5-7.4c2.8,1.9,5.6,3.7,7.4,5.6c-0.9,2.8-3.7,5.6-5.6,7.4
	C88.5,120.4,85.7,118.5,82,117.6z"/>
<path class="st3" d="M136.8,104.6L136.8,104.6L136.8,104.6L136.8,104.6z"/>
<path class="st3" d="M153.5,95.3c-1.9,1.9-3.7,4.6-5.6,6.5l0,0c-1.9-0.9-2.8-2.8-4.6-4.6c1.9-2.8,4.6-5.6,6.5-8.4
	C150.7,91.6,151.6,93.4,153.5,95.3z"/>
<path class="st3" d="M170.2,97.1c1.9-1.9,2.8-3.7,4.6-5.6C173.9,93.4,172.1,95.3,170.2,97.1z"/>
<path class="st3" d="M148.9,85.1c0,1.9,0,2.8,0.9,4.6c-1.9,2.8-4.6,5.6-6.5,8.4c-2.8-4.6-3.7-8.4-3.7-13c0,0,0-0.9,0-1.9
	c0.9-11.1,9.3-20.4,20.4-21.4c0.9,0,1.9,0,2.8,0c2.8,0,5.6,0.9,8.4,1.9c2.8,0.9,5.6,2.8,7.4,4.6c-1.9,1.9-4.6,4.6-6.5,6.5
	c-1.9-1.9-4.6-3.7-7.4-3.7c0,0-0.9,0-1.9,0C155.4,71.1,148.9,77.6,148.9,85.1z"/>
<path class="st3" d="M170.2,97.1c-2.8,1.9-4.6,4.6-7.4,7.4c-0.9,0.9-1.9,2.8-3.7,3.7c-2.8,0-6.5-1.9-9.3-2.8
	c1.9-2.8,3.7-4.6,5.6-7.4c2.8,0.9,5.6,0.9,7.4,0.9C165.6,99,168.4,98.1,170.2,97.1z"/>
<path class="st3" d="M186,85.1L186,85.1c0,12.1-8.4,21.4-19.5,23.2c3.7-3.7,6.5-7.4,10.2-12.1C179.5,92.5,183.2,88.8,186,85.1z"/>
<path class="st3" d="M173,75.8c1.9-1.9,3.7-4.6,5.6-7.4c3.7,3.7,5.6,7.4,7.4,12.1c-3.7,3.7-7.4,7.4-10.2,11.1c0-1.9,0.9-3.7,0.9-6.5
	C176.7,81.3,175.8,78.6,173,75.8z"/>
<path class="st3" d="M150.7,185.4c-1.9,2.8-3.7,4.6-6.5,7.4l0.9,0.9c1.9-1.9,3.7-4.6,6.5-7.4C151.6,186.3,150.7,185.4,150.7,185.4z"
	/>
<path class="st3" d="M174.9,91.6c-0.9,1.9-2.8,3.7-4.6,5.6C172.1,95.3,173,93.4,174.9,91.6z"/>
<path class="st3" d="M151.6,186.3c-1.9,2.8-3.7,4.6-6.5,7.4l-0.9-0.9c1.9-2.8,3.7-4.6,6.5-7.4C150.7,185.4,151.6,186.3,151.6,186.3z
	"/>
<path class="st3" d="M151.6,186.3c-1.9,2.8-3.7,4.6-6.5,7.4l-0.9-0.9c1.9-2.8,3.7-4.6,6.5-7.4C150.7,185.4,151.6,186.3,151.6,186.3z
	"/>
<path class="st3" d="M151.6,186.3c-1.9,2.8-3.7,4.6-6.5,7.4l-0.9-0.9c1.9-2.8,3.7-4.6,6.5-7.4C150.7,185.4,151.6,186.3,151.6,186.3z
	"/>
<path class="st3" d="M151.6,186.3c-1.9,2.8-3.7,4.6-6.5,7.4l-0.9-0.9c1.9-2.8,3.7-4.6,6.5-7.4C150.7,185.4,151.6,186.3,151.6,186.3z
	"/>
<path class="st3" d="M151.6,186.3c-1.9,2.8-3.7,4.6-6.5,7.4l-0.9-0.9c1.9-2.8,3.7-4.6,6.5-7.4C150.7,185.4,151.6,186.3,151.6,186.3z
	"/>
<path class="st3" d="M151.6,186.3c-1.9,2.8-3.7,4.6-6.5,7.4l-0.9-0.9c1.9-2.8,3.7-4.6,6.5-7.4C150.7,185.4,151.6,186.3,151.6,186.3z
	"/>
<path class="st3" d="M151.6,186.3c-1.9,2.8-3.7,4.6-6.5,7.4l-0.9-0.9c1.9-2.8,3.7-4.6,6.5-7.4C150.7,185.4,151.6,186.3,151.6,186.3z
	"/>
<path class="st3" d="M151.6,186.3c-1.9,2.8-3.7,4.6-6.5,7.4l-0.9-0.9c1.9-2.8,3.7-4.6,6.5-7.4C150.7,185.4,151.6,186.3,151.6,186.3z
	"/>
<path class="st3" d="M151.6,186.3c-1.9,2.8-3.7,4.6-6.5,7.4l-0.9-0.9c1.9-2.8,3.7-4.6,6.5-7.4C150.7,185.4,151.6,186.3,151.6,186.3z
	"/>
<path class="st3" d="M151.6,186.3c-1.9,2.8-3.7,4.6-6.5,7.4l-0.9-0.9c1.9-2.8,3.7-4.6,6.5-7.4C150.7,185.4,151.6,186.3,151.6,186.3z
	"/>
<path class="st3" d="M125.6,151.9l11.1,5.6c-1.9,2.8-4.6,4.6-6.5,7.4l-11.1-6.5C121,156.6,122.9,153.8,125.6,151.9z"/>
<path class="st3" d="M185.1,184.4c-2.8,9.3-12.1,16.7-22.3,16.7c-6.5,0-12.1-2.8-16.7-7.4c1.9-1.9,4.6-4.6,6.5-6.5
	c2.8,2.8,6.5,4.6,10.2,4.6c7.4,0,13.9-6.5,13.9-13.9c0-4.6-1.9-8.4-4.6-11.1c1.9-1.9,3.7-4.6,6.5-6.5c3.7,2.8,6.5,6.5,7.4,11.1
	c-5.6,4.6-8.4,8.4-9.3,13.9c0,0.9,0,3.7,0.9,4.6C178.6,190.9,181.4,188.2,185.1,184.4z"/>
<path class="st3" d="M57.8,140.8c-0.9-2.8-1.9-5.6-1.9-9.3c0-13,10.2-23.2,23.2-23.2c1.9,0,3.7,0,5.6,0.9c-2.8,2.8-5.6,5.6-7.4,8.4
	c-7.4,0.9-12.1,7.4-12.1,13.9v0.9C62.5,135.2,60.6,138,57.8,140.8z"/>
<path class="st3" d="M73.6,144.5c-1.9,1.9-3.7,4.6-5.6,7.4c-4.6-2.8-7.4-6.5-10.2-10.2c2.8-2.8,5.6-5.6,7.4-7.4
	C66.2,138.9,69.9,142.6,73.6,144.5z"/>
<path class="st3" d="M149.8,182.6c-1.9,1.9-2.8,2.8-3.7,4.6c-0.9,0.9-1.9,1.9-2.8,2.8c-1.9-2.8-2.8-6.5-2.8-10.2
	c4.6-4.6,8.4-9.3,12.1-13.9c3.7-3.7,6.5-7.4,9.3-11.1h0.9c3.7,0,7.4,0.9,10.2,2.8c-1.9,2.8-4.6,4.6-7.4,7.4c-0.9,0-1.9,0-3.7,0
	c-7.4,0-13.9,6.5-13.9,13.9C148.9,179.8,148.9,180.7,149.8,182.6z"/>
<path class="st3" d="M167.4,164.9c1.9-2.8,3.7-4.6,6.5-7.4c0.9,0,0.9,0.9,0.9,0.9c-1.9,2.8-3.7,4.6-5.6,7.4
	C169.3,165.9,168.4,164.9,167.4,164.9z"/>
<path class="st3" d="M123.8,151c-1.9,2.8-3.7,4.6-5.6,7.4l-7.4-3.7c1.9-2.8,3.7-4.6,5.6-7.4L123.8,151z"/>
<path class="st3" d="M112.6,145.4c-1.9,1.9-3.7,4.6-5.6,7.4l-6.5-3.7c1.9-2.8,4.6-5.6,6.5-7.4L112.6,145.4z"/>
<path class="st3" d="M142.4,167.7l-0.9,0.9c1.9-4.6,5.6-9.3,10.2-11.1C148.9,160.3,146.1,164,142.4,167.7z"/>
<path class="st3" d="M132.1,96.2c1.9,2.8,2.8,5.6,4.6,8.4l0,0l-26.9,14.9l-8.4,5.6c0,0.9,0.9,2.8,0.9,4.6
	c-4.6,6.5-10.2,13.9-17.6,24.1c-1.9,0.9-3.7,0.9-5.6,0.9c-4.6,0-8.4-0.9-11.1-2.8c1.9-2.8,4.6-4.6,6.5-7.4c1.9,0.9,2.8,0.9,4.6,0.9
	c7.4,0,13.9-6.5,13.9-13.9c0-1.9,0-2.8-0.9-4.6c5.6-5.6,10.2-11.1,14.9-16.7l17.6-9.3L132.1,96.2z"/>
</svg>
