<svg xmlns="http://www.w3.org/2000/svg" viewBox="0 0 265.05 89.55"><defs><style>.cls-1{fill:#f0b537;}.cls-2{fill:none;stroke:#fb932e;stroke-miterlimit:10;}</style></defs><title>mntAsset 186</title><g id="Layer_2" data-name="Layer 2"><g id="Layer_11" data-name="Layer 11"><path class="cls-1" d="M0,1.78,0,0,11.6,0l0,1.78h-.4V4.56h-1V3.37H9.77V1.78h-1V3.37H8V1.78H7V3.37H6.19V1.78h-1V3.37H4.4V1.78h-1V3.37H2.61V1.78h-1V3.57H.82V1.78Z"/><polygon class="cls-1" points="263.66 78.01 265.05 78.01 265.05 89.55 263.66 89.55 263.66 89.15 260.88 89.15 260.88 88.36 262.07 88.36 262.07 87.96 263.66 87.96 263.66 86.76 262.07 86.76 262.07 85.97 263.66 85.97 263.66 84.97 262.07 84.97 262.07 84.18 263.66 84.18 263.66 83.19 262.07 83.19 262.07 82.39 263.66 82.39 263.66 81.39 262.07 81.39 262.07 80.6 263.66 80.6 263.66 79.61 261.87 79.61 261.87 78.81 263.66 78.81 263.66 78.01"/><path class="cls-2" d="M2.11,1.58V5.5L3.5,7.06V17l12,11.78H192.55l52.89,52.9,1.79,1.79L249,85.27l2,2,1.79,1.79h5.93l.78-.89.79-.9h3.84"/><path class="cls-2" d="M7.48,1.58v3.9L9.07,7.07v7.7l8.66,8.65h177l1.79,1.79L198.35,27,253,81.69l1.79,1.79h3.88l1.59-1.59h3.84"/><path class="cls-2" d="M3.9,1.58v3.9L5.49,7.07v9.16L16.24,27H193.29l1.79,1.79L248,81.69l1.79,1.79,3.78,3.78h5.18L259.86,86l.44-.51,3.86,0"/><path class="cls-2" d="M264.14,83.68h-3.83l-1.37,1.38-.22.21h-4.63l-3.58-3.58-52.9-52.9L194,25.21H17L7.28,15.52V7.07L5.69,5.48V1.58"/><path class="cls-2" d="M9.27,1.58V5.5l1.59,1.56v7l7.62,7.6h177l3.58,3.58,56.48,56.48h3.15l1.59-1.59h3.83"/></g></g></svg>