<svg xmlns="http://www.w3.org/2000/svg" viewBox="0 0 32.19 53.66"><defs><style>.cls-1{fill:#f0b537;}.cls-2{fill:none;stroke:#fb932e;stroke-miterlimit:10;}</style></defs><title>sbinAsset 204</title><g id="Layer_2" data-name="Layer 2"><g id="Layer_11" data-name="Layer 11"><path class="cls-1" d="M11.7,53.47,10,53.66l-10-11c.06-.6.12-1.19.17-1.79l2.27,2.29,1.84-1.74.58.57L4,42.88l.35.35L3.2,44.36l.68.68L5,43.9l.57.57L4.45,45.61l.55.61,1.19-1.13.75.74c-.36.39-.71.79-1.07,1.19l.56.57,1.13-1.14.57.58L7,48.16l.58.59,1.16-1.11.82.8-1.2,1.13.59.54,1.2-1.19.64.7L9.42,51Z"/><polygon class="cls-1" points="20.65 1.59 20.65 0 32.19 0 32.19 1.59 31.79 1.59 31.79 4.38 30.99 4.38 30.99 2.98 30.6 2.98 30.6 1.39 29.6 1.39 29.6 2.98 28.81 2.98 28.81 1.39 27.61 1.39 27.61 2.98 26.82 2.98 26.82 1.39 25.82 1.39 25.82 2.98 25.03 2.98 25.03 1.39 24.03 1.39 24.03 3.18 23.24 3.18 23.24 1.39 22.24 1.39 22.24 3.18 21.45 3.18 21.45 1.39 20.65 1.59"/><path class="cls-2" d="M3.34,44.91,6,42.21V40l18.3-18.55V6L22.74,4.42V.6"/><path class="cls-2" d="M24.53.6V4.41L26.12,6V22.06L7.23,41.27v2.21l-2.7,2.7"/><path class="cls-2" d="M26.52.6V4.41L28.11,6V22.9L8.62,42.59v2.16l-2.7,2.7"/><path class="cls-2" d="M28.31.6V4.41L29.9,6V23.67q-10,10.11-20.09,20.24V46l-2.7,2.69"/><path class="cls-2" d="M30.1.6V4.4L31.69,6V24.51Q21.45,34.8,11.21,45.1v2.2L8.51,50"/></g></g></svg>