<svg xmlns="http://www.w3.org/2000/svg" viewBox="0 0 100.04 110.79"><defs><style>.cls-1{fill:#f0b537;}.cls-2{fill:none;stroke:#fb932e;stroke-miterlimit:10;}</style></defs><title>srvAsset 203</title><g id="Layer_2" data-name="Layer 2"><g id="Layer_11" data-name="Layer 11"><polygon class="cls-1" points="98.65 0 100.04 0 100.04 11.54 98.65 11.54 98.65 10.94 95.86 10.94 95.86 10.14 97.06 10.14 97.06 9.74 98.65 9.74 98.65 8.75 97.06 8.75 97.06 7.96 98.65 7.96 98.65 6.96 97.06 6.96 97.06 6.17 98.65 6.17 98.65 5.17 97.06 5.17 97.06 4.38 98.65 4.38 98.65 3.38 97.06 3.38 97.06 2.59 98.65 2.59 98.65 1.59 96.86 1.59 96.86 0.8 98.65 0.8 98.65 0"/><path class="cls-2" d="M1.6,108.89H5l1.59-1.59,9,0,9.56-9.72V77.87l43-42.95V18.24l7.44-7.6H93.93l1.56-1.39h3.75"/><path class="cls-2" d="M1.6,106.9H5l1.59-1.59,8.17.08,8.58-8.58V77.13l43-42.95V17.5l8.48-8.45H93.91L95.5,7.46h3.74"/><path class="cls-2" d="M1.29,105.11H5l1.59-1.59h7.28l7.68-7.68V76.38l43-42.95V16.75l9.53-9.49H93.9l1.59-1.59h3.75"/><path class="cls-2" d="M1.6,103.32H5l1.59-1.58h6.6l6.37-6.5V75.85l43-43.16V16L73.33,5.47H94l1.56-1.79h3.73"/><path class="cls-2" d="M1.16,101.53H5l1.59-1.59h5.64l5.54-5.53q0-9.64,0-19.27L60.77,32V15.26L72.59,3.68H93.93l1.56-1.79h3.75"/><path class="cls-1" d="M1.54,110.79H0V99.28l1.53,0v.48H4.37v.81H3.14v.5H1.54v.85H3.12l0,.9-1.51,0,.05.83,1.44-.07,0,1H1.54l-.13.85,1.71,0,0,1-1.48,0v.85l1.47,0c0,.37,0,.73,0,1.1l-1.53,0v.84l1.57,0,0,.7H1.54Z"/></g></g></svg>