<svg xmlns="http://www.w3.org/2000/svg" viewBox="0 0 433.84 162.85"><defs><style>.cls-1{fill:#f0b537;}.cls-2{fill:none;stroke:#fb932e;stroke-miterlimit:10;}</style></defs><title>user-geanyAsset 223</title><g id="Layer_2" data-name="Layer 2"><g id="Layer_11" data-name="Layer 11"><polygon class="cls-1" points="4.37 0.4 4.37 1.2 3.18 1.2 3.18 1.59 1.59 1.59 1.59 2.59 3.18 2.59 3.18 3.38 1.59 3.38 1.59 4.38 3.18 4.38 3.18 5.17 1.59 5.17 1.59 6.37 3.18 6.37 3.18 7.16 1.59 7.16 1.49 7.66 1.39 8.16 3.18 8.16 3.18 8.95 1.39 8.95 1.39 9.95 3.18 9.95 3.18 10.74 1.39 10.74 1.39 11.54 0 11.54 0 0 1.39 0 1.39 0.4 4.37 0.4"/><polygon class="cls-1" points="432.45 162.85 433.84 162.85 433.84 151.32 432.45 151.32 432.45 151.72 429.47 151.72 429.47 152.51 430.66 152.51 430.66 152.91 432.25 152.91 432.25 153.9 430.66 153.9 430.66 154.7 432.25 154.7 432.25 155.69 430.66 155.69 430.66 156.49 432.25 156.49 432.25 157.68 430.66 157.68 430.66 158.48 432.25 158.48 432.45 159.47 430.66 159.47 430.66 160.27 432.45 160.27 432.45 161.26 430.66 161.26 430.66 162.06 432.45 162.06 432.45 162.85"/><path class="cls-2" d="M432.45,153.61h-3.77l-.95-1-.63-.63h-9.63l-7.86-7.86v-38.7l-1.79-1.79L406,101.88l-1.79-1.79-1.79-1.79L378.6,74.45,375,70.87l-1.79-1.79-1.79-1.79H86.64L27.21,7.85,25.42,6.06,23.63,4.28,21.85,2.49,20.06.7H6.74L5.16,2.29H1.39"/><polyline class="cls-2" points="376.06 74.45 404.24 102.63 406.03 104.42 407.82 106.21 407.82 113.81"/><path class="cls-2" d="M1.39,4.08H5.16L6.74,2.5H19.32l5.37,5.37L84.12,67.29l1.79,1.79H370.69l1.79,1.79,1.79,1.79,1.79,1.79"/><polyline class="cls-2" points="409.61 146.69 407.82 144.9 407.82 142.37"/><path class="cls-2" d="M407.82,113.81v28.56"/><polyline class="cls-2" points="419.26 153.81 416.73 153.81 414.94 152.02 409.61 146.69"/><path class="cls-2" d="M419.26,153.81h7.84l.58.58,1,1h3.77"/><path class="cls-2" d="M432.45,157.19h-3.77l-1.05-1.05-.53-.53H416l-1.79-1.79L412.41,152l-2.8-2.8h0l-1.79-1.79L406,145.64v-5.06h0V106.94l-1.79-1.79-1.79-1.79L373.54,74.45l-1.8-1.79L370,70.87H85.16l-1.79-1.79-1.79-1.79L22.15,7.86,20.36,6.07,18.57,4.28H6.74L5.16,5.87H1.39"/><path class="cls-2" d="M432.45,159h-3.77l-1.1-1.1-.48-.48H415.25l-3.58-3.58L409.88,152l-.27-.27h0l-5.37-5.37v-7.59h0v-31.1L371,74.45l-1.79-1.79H84.43l-5.37-5.37L19.63,7.86,17.84,6.07H6.74L5.16,7.66H1.39"/><path class="cls-2" d="M432.45,160.77h-3.77l-.82-.82-.1-.09-.23-.24-.43-.43H414.51l-1.79-1.79-3.11-3.11-.48-.48h0l-1.31-1.31-.48-.48L406,150.7l-1.79-1.79-1.79-1.79V108.44l-34-34H83.68l-1.79-1.79L80.1,70.87l-1.79-1.79-1.79-1.79L17.09,7.86H6.74L5.16,9.45H1.39"/></g></g></svg>