<svg xmlns="http://www.w3.org/2000/svg" viewBox="0 0 166.19 89.12"><defs><style>.cls-1{fill:#f0b537;}.cls-2{fill:none;stroke:#fb932e;stroke-miterlimit:10;}</style></defs><title>user-vimAsset 224</title><g id="Layer_2" data-name="Layer 2"><g id="Layer_11" data-name="Layer 11"><path class="cls-1" d="M4.37.4v.79H3.18v.4H1.59v1H3.18v.79H1.59v1H3.18v.79H1.59v1.2H3.18v.79H1.59l0,1.11,1.62-.11V9H1.39v1H3.18v.79H1.39v.8H0V0H1.39V.4Z"/><path class="cls-2" d="M162.23,89.12V85.39l-1.57-1.58V80.12c0-.84,0-1.69,0-2.53l-1.8-1.8L157.07,74l-1.79-1.79-1-1-1.79-1.79-1.79-1.79-1.79-1.79H110.78L109,64.07l-2.62-2.62-1.79-1.79L101,56.08H62.33L46.6,40.35l-1.79-1.79V17L43,15.18l-1.79-1.79L39.44,11.6,30.32,2.48H6.74L5.16,4.08H1.59"/><path class="cls-2" d="M1.59,5.87H5.16L6.74,4.29H29.57l1.79,1.79,1.79,1.79L43,17.72V39.31l1.79,1.79,1.79,1.79L58,54.29l1.79,1.79,1.79,1.79h38.69l9.78,9.78h38.13l3.58,3.58,3.52,3.51h0l1.8,1.79,1.79,1.79v5.48l1.57,1.58v3.73"/><path class="cls-2" d="M158.65,89.12V85.39l-1.57-1.58V79.08l-1.79-1.79h0l-6-6-1.79-1.79H109.3l-1.79-1.79-1.79-1.79-1.79-1.79-2.62-2.62-1.79-1.79q-15.36.17-31.08,0l-7.63-.1-19.7-19.7.14-21.2L28.74,6.06,6.7,6.2,5,7.89,1.48,7.73"/><path class="cls-2" d="M156.86,89.12V85.39l-1.57-1.58v-4l-8.59-8.59H108.56l-1.79-1.79L105,67.65l-1.79-1.79-4.41-4.41H60.1l-3.58-3.58-1.79-1.79-1.79-1.79L43,44.37l-1.79-1.79-1.79-1.79V19.2L28.09,7.85H6.74L5.16,9.45H1.39"/><path class="cls-2" d="M164,89.12V85.39l-1.57-1.58V79.38c0-.84,0-1.69,0-2.53l-1.8-1.8-1.79-1.79-1.79-1.79-5.61-5.61-1.79-1.79H111.53l-6.2-6.2-1.79-1.79-1.79-1.79H63.07L46.6,37.82V16.23l-1.79-1.79L43,12.65l-1.79-1.79L39.44,9.07,38.21,7.84h0L36.42,6.05h0L32.84,2.48,31.05.69H6.74L5.16,2.29H1.59"/><polygon class="cls-1" points="166.19 87.72 166.19 89.11 154.65 89.11 154.65 87.72 155.25 87.72 155.25 84.94 156.04 84.94 156.04 86.13 156.44 86.13 156.44 87.72 157.44 87.72 157.44 86.13 158.23 86.13 158.23 87.72 159.23 87.72 159.23 86.13 160.02 86.13 160.02 87.72 161.02 87.72 161.02 86.13 161.81 86.13 161.81 87.72 162.81 87.72 162.81 86.13 163.6 86.13 163.6 87.72 164.6 87.72 164.6 85.93 165.39 85.93 165.39 87.72 166.19 87.72"/></g></g></svg>