<svg xmlns="http://www.w3.org/2000/svg" viewBox="0 0 816.44 214.22"><defs><style>.cls-1{fill:#f0b537;}.cls-2{fill:none;stroke:#fb932e;stroke-miterlimit:10;}</style></defs><title>user-alaAsset 216</title><g id="Layer_2" data-name="Layer 2"><g id="Layer_11" data-name="Layer 11"><polygon class="cls-1" points="4.38 59.97 4.38 60.76 3.18 60.76 3.18 61.16 1.59 61.16 1.59 62.16 3.18 62.16 3.18 62.95 1.59 62.95 1.59 63.95 3.18 63.95 3.18 64.74 1.59 64.74 1.59 65.93 3.18 65.93 3.18 66.73 1.59 66.73 1.49 67.23 1.39 67.72 3.18 67.72 3.18 68.52 1.39 68.52 1.39 69.51 3.18 69.51 3.18 70.31 1.39 70.31 1.39 71.11 0 71.11 0 59.57 1.39 59.57 1.39 59.97 4.38 59.97"/><line class="cls-2" x1="797.21" y1="210.26" x2="795.82" y2="210.26"/><polygon class="cls-1" points="797.21 205.47 798.8 205.47 798.8 206.27 797.21 206.27 797.21 207.26 798.8 207.26 798.8 208.06 797.21 208.06 797.21 209.05 798.8 209.05 798.8 209.85 797.21 209.85 797.21 212.63 799 212.63 799 213.43 797.21 213.43 797.21 214.22 795.82 214.22 795.82 202.69 797.21 202.69 797.21 203.28 800 203.28 800 204.08 798.8 204.08 798.8 204.48 797.21 204.48 797.21 205.47"/><path class="cls-2" d="M1.4,61.86H5.17l1.58-1.58,25,0,26-26,1.79-1.79,1.79-1.79,1.79-1.79L65,27.07H166.64L186.05,7.66l1.79-1.79,1.79-1.79,1.79-1.79L193.21.5H565.06l7.16,7.16,13,13.05H722.89l14.46,14.46V43L753.2,58.85,755,60.64V102l22.31,22.32h21.16l1.79,1.79,1.79,1.79,1.79,1.79,1.79,1.79,6.74,6.74,1.79,1.79,1.79,1.79v61.63l-1.63,1.63-.16.16-1.63,1.63-3.32,3.32h-7.9L800,211.53l-3.07,0"/><path class="cls-2" d="M1.4,63.65H5.17l1.58-1.58,23.22,0h2.54l1.79-1.79,26-26,1.79-1.79,1.79-1.79,1.79-1.79H167.38l21.2-21.2,1.79-1.79,1.79-1.79L194,2.29H564.32l1.79,1.79,1.79,1.79,1.79,1.79,13,13.05,1.79,1.79H722.15l11.62,11.62,1.79,1.79v7.84L751.41,59.6l1.79,1.79v41.39l1.79,1.79,19.79,19.78,1.79,1.79h21.15l16.43,16.43v60.15l-.58.58-1.79,1.79-1.21,1.21-.58.58-1.21,1.21-.59.59h-7.06l-1.58,1.57h-2.34"/><path class="cls-2" d="M795.82,208.47h3.73l1.58-1.57h3.78c.84,0,1.69,0,2.54,0l1.33-1.34,2.25-2.25,1.33-1.33V143.33l-1.79-1.79-1.79-1.79-8.23-8.23-1.79-1.79L797,127.94H775.82l-3.58-3.58L755,107.09l-1.79-1.79-1.79-1.79V62.12l-1.79-1.79-1.79-1.79L737.35,48.06l-1.79-1.79-1.79-1.79V36.65L721.41,24.29H583.79L582,22.5l-1.79-1.79-13.05-13-3.58-3.58H194.69L192.9,5.87l-1.79,1.79L171.7,27.07l-1.79,1.79-1.79,1.79H66.44l-1.79,1.79-1.79,1.79-26,26-3.57,3.57H6.66L4.9,65.57H1.19"/><path class="cls-2" d="M795.82,206.68h3.73l1.58-1.57h5.57l2.08-2.08,1.79-1.79V144.06l-1.79-1.79L798,131.52l-1.79-1.79H775.08l-1.79-1.79-1.79-1.79-1.79-1.79L755,109.63l-1.79-1.79-3.58-3.58V62.87l-1.79-1.79L732,45.23V37.39l-1.79-1.79-7.73-7.73-1.79-1.79H583l-1.79-1.79-1.79-1.79-1.79-1.79-13-13-1.79-1.79H195.44l-1.79,1.79L174.23,27.07l-5.37,5.37H67.18l-1.79,1.79-26,26L37.58,62l-1.8,1.8L34,65.62H6.75L5.17,67.23H1.49"/><path class="cls-2" d="M1.4,69H5.17l1.58-1.58h28l1.8-1.79,1.78-1.79L40.12,62l1.79-1.79,26-26H169.61l1.79-1.79,1.79-1.79L175,28.86l21.19-21.2H562.09l13.06,13.05,7.16,7.16H719.93l10.26,10.26V46L732,47.76l1.79,1.79,1.79,1.79,1.79,1.79,9.58,9.58.9.9V105l1.79,1.79,1.79,1.79,3.58,3.58,12.19,12.19,1.79,1.79,5.37,5.37h21.15l13.29,13.29V200.5L806,203.32h-4.83l-1.58,1.57h-3.73"/></g></g></svg>