<svg xmlns="http://www.w3.org/2000/svg" viewBox="0 0 473.88 244.05"><defs><style>.cls-1{fill:#f0b537;}.cls-2{fill:none;stroke:#fb932e;stroke-miterlimit:10;}</style></defs><title>userAsset 201</title><g id="Layer_2" data-name="Layer 2"><g id="Layer_11" data-name="Layer 11"><path class="cls-1" d="M1.73,244l-1.71,0c0-3.85,0-7.7,0-11.55l1.73,0V233H4.56v.81H3.33v.5H1.73v.95h1.6v.87l-1.5,0v.9h1.5v.88H1.85l0,.93,1.48-.05,0,.92-1.58.06,0,.93,1.59-.09,0,.9H1.73l.06.91,1.63,0v.89H1.73Z"/><polygon class="cls-1" points="462.34 1.39 462.34 0 473.88 0 473.88 1.39 473.28 1.39 473.28 4.38 472.49 4.38 472.49 3.18 472.09 3.18 472.09 1.59 471.09 1.59 471.09 3.18 470.3 3.18 470.3 1.59 469.3 1.59 469.3 3.18 468.51 3.18 468.51 1.59 467.51 1.59 467.51 3.18 466.72 3.18 466.72 1.59 465.72 1.39 465.72 3.18 464.93 3.18 464.93 1.39 463.93 1.39 463.93 3.18 463.14 3.18 463.14 1.39 462.34 1.39"/><path class="cls-2" d="M464.44,1.39V5.23l1.39,1.57V95.13l-25.21,25.21-1.79,1.79L437,123.92l-1.79,1.79-1.79,1.79-35.19,35.19H380.8l-64.71,0-240.74.16L38.23,200v22.28l-11,10.9H7.13c-.59.54-1.19,1.07-1.79,1.6H1.07"/><path class="cls-2" d="M466.23,1.39V5.23l1.39,1.57V95.87l-1.79,1.79-25.21,25.21-1.79,1.79L437,126.45l-1.79,1.79L433.46,130,400.8,162.69,399,164.48H380.8l-64.71,0-239.95.16L40,200.87v22.27L29.9,233.19,28.1,235H6.92l-1.56,1.57H1.79"/><path class="cls-2" d="M468,1.39V5.23l1.39,1.57V96.61l-1.79,1.79-1.79,1.79L440.62,125.4l-1.79,1.79L437,129l-1.79,1.79-1.79,1.79-30.12,30.12h0l-1.79,1.8-1.79,1.79H380.8l-64.71,0-239.21.16L41.74,201.61v22.27l-9.31,9.31-3.6,3.6H6.92l-1.56,1.57H1.81"/><path class="cls-2" d="M469.81,1.39V5.23L471.2,6.8V97.35l-5.37,5.37-25.21,25.21-1.79,1.79L437,131.51l-1.79,1.79-1.79,1.79-27.59,27.59-5.38,5.38H380.8l-64.71,0-238.47.15-34.09,34.1v22.27L35,233.19l-1.8,1.8-1.81,1.8c-.6.61-1.2,1.21-1.81,1.81H13.77l-6.94,0-1.37,1.45-3.76.15"/><path class="cls-2" d="M1.61,242H5.35c.55-.56,1.09-1.13,1.63-1.69l6.79,0H30.19l1.6-1.6c.6-.6,1.21-1.2,1.81-1.81l1.81-1.8,1.8-1.8,7.91-7.89V203l33.21-33,237.76-.15,64.71,0h20.43l1.8-1.79,1.79-1.8,1.79-1.79,1.79-1.79,25.06-25.06,1.79-1.79L437,134l1.79-1.79,1.79-1.79,25.21-25.21,1.79-1.79,1.79-1.79,1.79-1.79L473,98.09V6.8L471.6,5.23V1.39"/></g></g></svg>