<svg xmlns="http://www.w3.org/2000/svg" viewBox="0 0 129.87 96.59"><defs><style>.cls-1{fill:#f0b537;}.cls-2{fill:none;stroke:#fb932e;stroke-miterlimit:10;}</style></defs><title>user-libAsset 212</title><g id="Layer_2" data-name="Layer 2"><g id="Layer_11" data-name="Layer 11"><polygon class="cls-1" points="129.87 95.19 129.87 96.59 118.34 96.59 118.34 95.19 118.94 95.19 118.94 92.41 119.73 92.41 119.73 93.6 120.13 93.6 120.13 95.19 121.12 95.19 121.12 93.6 121.92 93.6 121.92 95.19 122.91 95.19 122.91 93.6 123.71 93.6 123.71 95.19 124.7 95.19 124.7 93.6 125.5 93.6 125.5 95.19 126.49 95.19 126.49 93.6 127.29 93.6 127.29 95.19 128.28 95.19 128.28 93.4 129.08 93.4 129.08 95.19 129.87 95.19"/><polygon class="cls-1" points="1.59 0 0 0 0 11.54 1.59 11.54 1.59 10.94 4.38 10.94 4.38 10.14 2.98 10.14 2.98 9.74 1.39 9.74 1.39 8.75 2.98 8.75 2.98 7.96 1.39 7.96 1.39 6.96 2.98 6.96 2.98 6.17 1.39 6.17 1.39 5.17 2.98 5.17 2.98 4.38 1.39 4.38 1.39 3.38 3.18 3.38 3.18 2.59 1.39 2.59 1.39 1.59 3.18 1.59 3.18 0.8 1.39 0.8 1.59 0"/><path class="cls-2" d="M1.39,9.24H5.18l1.6,1.59,13.76,0q5.63,5.71,11.22,11.43V40.77l1.79,1.79,1.79,1.79,1.79,1.79,1.53,1.53L44,53l1.79,1.79h64.61l8.6,8.6V89.91l1.59,1.54v3.74"/><path class="cls-2" d="M1.39,7.45H5.18L6.78,9c4.83,0,9.67,0,14.5,0L23,10.8,33.55,21.51V40l1.79,1.79,1.79,1.79,1.79,1.79,2.28,2.28L43,49.46l1.79,1.79L46.57,53h64.6l9.65,9.65V89.81l1.59,1.64v3.74"/><path class="cls-2" d="M124.2,95.19V91.45l-1.59-1.59V61.94l-1.79-1.79L119,58.36l-3.53-3.53L113.71,53l-1.79-1.79H47.31l-3.58-3.58-8.39-8.39V20.79q-4.89-5-9.81-10C25,10.2,24.36,9.61,23.77,9L22,7.22c-5.08,0-10.16,0-15.24,0L5.18,5.66H1.39"/><path class="cls-2" d="M126,95.19V91.45l-1.59-1.67V61.2l-3.58-3.58L116.24,53l-1.79-1.79-1.79-1.79H48.05l-1.79-1.79-9.13-9.13V20q-4.55-4.62-9.08-9.23c-.59-.6-1.18-1.19-1.76-1.79L24.53,7.22c-.59-.6-1.18-1.19-1.76-1.79-5.33,0-10.66,0-16,0L5.18,3.87H1.39"/><path class="cls-2" d="M127.78,95.19V91.45l-1.59-1.66V60.46l-1.79-1.79-3.84-3.84L118.77,53,117,51.25l-1.79-1.79-1.79-1.79H48.8l-9.88-9.88V19.28l-8.36-8.49L25.28,5.43,23.52,3.64l-16.74,0L5.18,2.08H1.39"/></g></g></svg>