<svg xmlns="http://www.w3.org/2000/svg" viewBox="0 0 229.99 126.21"><defs><style>.cls-1{fill:#f0b537;}.cls-2{fill:none;stroke:#fb932e;stroke-miterlimit:10;}</style></defs><title>user-incAsset 213</title><g id="Layer_2" data-name="Layer 2"><g id="Layer_11" data-name="Layer 11"><polygon class="cls-1" points="228.4 114.67 229.99 114.67 229.99 126.21 228.4 126.21 228.4 125.81 225.61 125.81 225.61 125.02 227 125.02 227 124.62 228.59 124.62 228.59 123.62 227 123.62 227 122.83 228.59 122.83 228.59 121.83 227 121.83 227 121.04 228.59 121.04 228.59 119.84 227 119.84 227 119.05 228.59 119.05 228.59 118.05 227 118.05 227 117.26 228.59 117.26 228.59 116.26 226.81 116.26 226.81 115.47 228.59 115.47 228.4 114.67"/><polygon class="cls-1" points="4.38 10.14 4.38 10.94 1.39 10.94 1.39 11.54 0 11.54 0 0 1.39 0 1.39 0.8 3.18 0.8 3.18 1.59 1.39 1.59 1.39 2.59 3.18 2.59 3.18 3.38 1.39 3.38 1.39 4.38 3.18 4.38 3.18 5.17 1.39 5.17 1.39 6.17 3.18 6.17 3.18 6.96 1.39 6.96 1.39 7.96 3.18 7.96 3.18 8.75 1.39 8.75 1.39 9.74 3.18 9.74 3.18 10.14 4.38 10.14"/><path class="cls-2" d="M1.39,9.25H5.22l1.57,1.39H23l9.08,9.27V70.58L46.37,84.82h142.9l15.88,15.87v4.89c0,.85,0,1.69,0,2.54s0,1.69,0,2.53v5.07l1.78,1.78,1,1,6.88,6.88h8.76L225,124l3.59.12h.11"/><path class="cls-2" d="M1.39,7.46H5.22L6.79,8.85h17L33.91,19.17V69.84L47.11,83H190L206.94,100v15l1.79,1.79,1.79,1.78,0,0,1.55,1.55.39.39,1.4,1.4,1.71,1.71h7.92l1.58-1.52c1.17.05,2.32.09,3.48.12h.19"/><path class="cls-2" d="M1.39,5.67H5.22L6.79,7.06H24.51L35.7,18.43V69.11L47.85,81.24H190.74q9,9,18,18v15l1.86,1.86,1.92,1.93,3.92,3.92h7.07l1.54-1.5h4.06"/><path class="cls-2" d="M228.67,118.47h-.07l-3.86.08-1.56,1.6h-6l-1.6-1.6-3.07-3.07-1.9-1.9c0-.84,0-1.67,0-2.51l.09-12.56-19.07-19H48.59L37.49,68.36V17.66L25.31,5.46H6.86L5.27,3.88H.86"/><path class="cls-2" d="M.86,2.1H5.22L6.79,3.48H26L39.28,17V67.63l10,10H192.42l20.09,20.1v15.18l5.59,5.6h5.08l1.56-1.79,3.86,0h.11"/></g></g></svg>