<svg xmlns="http://www.w3.org/2000/svg" viewBox="0 0 26.09 62.23"><defs><style>.cls-1{fill:#f0b537;}.cls-2{fill:none;stroke:#fb932e;stroke-miterlimit:10;}</style></defs><title>user-sbinAsset 211</title><g id="Layer_2" data-name="Layer 2"><g id="Layer_11" data-name="Layer 11"><polygon class="cls-1" points="10.84 3.4 10.27 3.97 9.4 3.1 9.05 3.45 7.91 2.31 7.6 2.63 7.24 2.99 8.38 4.13 7.8 4.7 6.67 3.56 6.33 3.9 5.97 4.26 7.1 5.39 6.53 5.97 5.4 4.83 5.06 5.17 4.69 5.54 5.82 6.67 5.25 7.25 4.12 6.11 3.79 6.44 3.41 6.82 4.56 7.96 3.99 8.54 2.84 7.39 2.52 7.72 2.16 8.07 3.36 9.26 2.79 9.84 1.59 8.64 1.05 9.18 0 8.13 8.13 0 9.18 1.05 8.84 1.39 10.84 3.4"/><polygon class="cls-1" points="26.09 60.84 26.09 62.23 14.55 62.23 14.55 60.84 15.15 60.84 15.15 57.85 15.94 57.85 15.94 59.05 16.34 59.05 16.34 60.64 17.34 60.64 17.34 59.05 18.13 59.05 18.13 60.64 19.13 60.64 19.13 59.05 19.92 59.05 19.92 60.64 20.91 60.64 20.91 59.05 21.71 59.05 21.71 60.64 22.9 60.84 22.9 59.05 23.7 59.05 23.7 60.84 24.49 60.84 24.49 59.05 25.29 59.05 25.29 60.84 26.09 60.84"/><path class="cls-2" d="M24.19,60.84V57L22.6,55.38V19.61l-1.79-1.79-1.9-1.9-1.79-1.79-1.78-1.78-5-5c0-.74,0-1.48,0-2.23L7.73,2.52"/><path class="cls-2" d="M22.4,60.84V57l-1.59-1.59V20.62L18.9,18.71l-1.79-1.79-1.78-1.78L9.25,9.06,9,6.54,6.32,3.93"/><path class="cls-2" d="M18.62,60.84V57L17,55.38q0-15.42.07-30.83V22l-1.78-1.79L6.43,11.31V9.06L3.79,6.46"/><path class="cls-2" d="M20.41,60.84V57l-1.59-1.59.06-29.05c0-.86,0-1.71,0-2.57s0-1.65,0-2.48c-.59-.6-1.19-1.19-1.78-1.78s-1.19-1.2-1.79-1.79L7.67,10.06V7.81L5.06,5.19"/><path class="cls-2" d="M2.53,7.72l2.61,2.62v2.25L15.31,22.76q0,16.32-.07,32.62L16.83,57v3.87"/></g></g></svg>