<svg xmlns="http://www.w3.org/2000/svg" viewBox="0 0 355.98 145.98"><defs><style>.cls-1{fill:none;stroke:#fb932e;stroke-miterlimit:10;}.cls-2{fill:#f0b537;}</style></defs><title>var-tempAsset 210</title><g id="Layer_2" data-name="Layer 2"><g id="Layer_11" data-name="Layer 11"><path class="cls-1" d="M354.79,9.25h-3.9l-1.57,1.39H327.94l-5,5.07V63l-16,16-235.87.2L59.62,90.55v24.88L32.68,142.31l-13.25.08-5,.07-7.6,0L5.25,143.9H1.39"/><path class="cls-1" d="M354.79,7.46h-3.9l-1.57,1.39H327.19l-6,6.12V62.3l-15,15-235.88.2L57.83,89.8v24.89L31.94,140.52l-12.51.08-5,.07-7.6.05-1.56,1.39H1.57"/><path class="cls-1" d="M354.79,2.09h-3.9l-1.55,1.65H325l-9.21,9V60.07L304,71.9l-235.87.2L52.46,87.57v24.88L29.7,135.15l-23,.21-1.45,1.38H1.39"/><path class="cls-1" d="M1.39,138.53H5.23l1.47-1.2,23.75-.19,23.8-23.94V88.31L68.83,73.69l236,.2,12.8-13.08V13.48l8.15-8h23.58l1.59-1.59h3.67"/><path class="cls-2" d="M1.39,146H0V134.45H1.39V135h3v.8H3.18v.4H1.59v1H3.18v.8H1.59v1H3.18v.8H1.59v1H3.18v.8H1.59l-.05.95,1.64,0v.8H1.39v1H3.18v.8H1.39Z"/><polygon class="cls-2" points="354.59 0 355.98 0 355.98 11.54 354.59 11.54 354.59 10.94 351.81 10.94 351.81 10.14 353 10.14 353 9.74 354.59 9.74 354.59 8.75 353 8.75 353 7.96 354.59 7.96 354.59 6.96 353 6.96 353 6.17 354.59 6.17 354.59 5.17 353 5.17 353 4.38 354.59 4.38 354.59 3.38 353 3.38 353 2.59 354.59 2.59 354.59 1.59 352.8 1.59 352.8 0.8 354.59 0.8 354.59 0"/><path class="cls-1" d="M354.79,5.67h-3.9l-1.57,1.39H326.41q-3.53,3.59-7,7.16V61.56L305.45,75.48l-235.87.2L56,89.06v24.88L31.19,138.73l-24.38.2-1.56,1.39H1.39"/></g></g></svg>