<svg xmlns="http://www.w3.org/2000/svg" viewBox="0 0 433.24 199.42"><defs><style>.cls-1{isolation:isolate;}.cls-2{fill:#0e0e17;opacity:0.4;mix-blend-mode:multiply;}.cls-3{fill:#f0b537;}.cls-4{fill:none;stroke:#fb932e;stroke-miterlimit:10;}</style></defs><title>varAsset 192</title><g class="cls-1"><g id="Layer_2" data-name="Layer 2"><g id="Layer_11" data-name="Layer 11"><path class="cls-2" d="M424,195.68l-2.42,0-.27-.33,5.8-5.95h2.45l.26.27Z"/><path class="cls-3" d="M433.21,189.94l0,1.73-7.9,7.73-1.85,0,1.28-1.17-2-2,.57-.57.87.86.35-.35,1.14,1.14.67-.67-1.13-1.14.57-.57,1.13,1.13.7-.69-1.13-1.14.57-.57,1.13,1.13.71-.71L427.79,193l.57-.57,1.13,1.13.71-.7-1.15-1.15.57-.57,1.15,1.15.68-.68-1.2-1.2.57-.57L432,191Z"/><polygon class="cls-3" points="10.84 3.4 10.27 3.97 9.4 3.1 9.05 3.45 7.91 2.31 7.6 2.63 7.24 2.99 8.38 4.13 7.8 4.7 6.67 3.56 6.33 3.9 5.97 4.26 7.1 5.39 6.53 5.97 5.4 4.83 5.06 5.17 4.69 5.54 5.82 6.67 5.25 7.25 4.12 6.11 3.79 6.44 3.41 6.82 4.56 7.96 3.99 8.54 2.84 7.39 2.52 7.72 2.16 8.07 3.36 9.26 2.79 9.84 1.59 8.64 1.05 9.18 0 8.13 8.13 0 9.18 1.05 8.84 1.39 10.84 3.4"/><path class="cls-4" d="M430.65,193.91l-2.7-2.7h-2.3l-25.89-25.89c-.59-.6-1.19-1.19-1.79-1.79l-1.79-1.79L394.39,160H381.08l-1.79-1.79-17.4-17.4L360.1,139V89.16L303.05,32.27H32.46l-1.79-1.79L9.25,9.06,9,6.54,6.32,3.93"/><path class="cls-4" d="M431.92,192.71l-2.7-2.7H427l-24.69-24.69-1.79-1.79c-.6-.59-1.19-1.19-1.79-1.79s-1.19-1.19-1.79-1.79l-1.79-1.79H381.82l-19.93-19.93V88.45l-58-58H33.47L10.36,7.37c0-.74,0-1.48,0-2.23L7.73,2.52"/><path class="cls-4" d="M2.53,7.72l2.61,2.62v2.25L23,30.48l7.16,7.16H300.55l54.18,54v49.56l5.37,5.37,18.75,18.76h13.22l29.86,29.86h2.21L426,197"/><path class="cls-4" d="M5.06,5.19,7.67,7.81v2.25q10.21,10.2,20.42,20.42c.6.59,1.19,1.19,1.79,1.79l2,2H302.12l56.19,55.81v49.64l1.79,1.79,1.79,1.79L378.55,160l1.79,1.79H393.5l1.79,1.79,1.79,1.79,27.28,27.28h2.32l2.7,2.7"/><path class="cls-4" d="M3.79,6.46l2.64,2.6v2.25L25.61,30.48l1.79,1.79,2,2L31,35.85H301.4l55.13,54.87v49.74l1.79,1.79L360.1,144l19.5,19.49h13.18l1.78,1.79L423.2,194h2.18l1.91,1.78L425.41,194h0"/></g></g></g></svg>