<?xml version="1.0" encoding="utf-8"?>
<!-- Generator: Adobe Illustrator 23.0.0, SVG Export Plug-In . SVG Version: 6.00 Build 0)  -->
<svg version="1.1" id="Layer_1" xmlns="http://www.w3.org/2000/svg" xmlns:xlink="http://www.w3.org/1999/xlink" x="0px" y="0px"
	 viewBox="0 0 256 256" style="enable-background:new 0 0 256 256;" xml:space="preserve">
<style type="text/css">
	.st0{clip-path:url(#SVGID_2_);}
	.st1{fill:#F75049;}
	.st2{opacity:0.4;}
	.st3{fill-rule:evenodd;clip-rule:evenodd;fill:#F75049;}
	.st4{opacity:0.7;}
	.st5{fill:#F75049;fill-opacity:7.800000e-02;}
</style>
<g>
	<defs>
		<path id="SVGID_1_" d="M337.9,88.8c-1-2.2-5.2-0.5-9.4-3.8c-3.5-2.8-2.6-5.6-5-7.1c-6.2-4-20.9,8.3-21.2,7.8
			c0-0.5,6-4.6,11.8-10.8c3.7-4,10.4-11.4,8.4-16.5c-1.2-3.1-4.5-2.8-5-5.5c-0.7-4.4,7.7-7,7.3-12.1c-0.2-2.6-2.6-4.8-4.8-5.6
			c-5.7-2.1-12.7,4-13.1,3.4c-0.2-0.4,4.4-2.8,7-7.9c0.5-0.9,2.8-5.5,1-7.7c-1.3-1.5-4.3-1.6-6.2-1.2c-1.9,0.4-3.1,1.4-3.9,0.8
			c-0.6-0.5-0.2-1.6-0.5-2.6c-0.5-2.8-5.6-4.5-9.2-4.8c-8.6-0.8-15.6,7.7-16.6,6.6c-1.1-1.1,8.1-8.7,6-14.4c-0.8-2.4-3.5-4.2-6-4.4
			c-4.2-0.1-6.5,5.1-8.2,4.4c-2.3-1.1,1.8-11.6-1.7-14c-2.2-1.4-4.9,1.5-9.3-0.2c-2.5-1-2.6-2.3-4.3-3c-5-2-12.4,7-21.5,15
			c-3.9,3.4-10,8.3-18.5,13.3c4.3-5.2,8-9.4,10.7-12.3c6.7-7.3,10.2-10.2,10.3-15.2c0.1-2.1-0.4-6.1-2.7-7.1
			c-2.8-1.2-6.3,2.8-17.3,10.2c-2.9,1.9-5.2,3.4-6.6,4.3c0.5-0.6,5.1-6,3.2-11.4c-0.2-0.6-0.9-2.5-3.2-4.4c-7-5.6-18.4-2.9-19.9-2.6
			c-14,3.4-17.7,13.3-35.1,21.7c-0.1,0-2.3,1.3-5.4,2.9c-6.5,3.5-9.8,5.3-11.2,6.3c-4.2,3-7.5,5.3-9.4,9.5c-1.8,4.2-0.9,6.9-3.5,9.7
			c-2.2,2.3-4.9,2.8-5.8,3.1c-9.7,2.5-21.7,19.5-23.2,21.7c-6.5,9.1-28,31.2-85.4,83.1C88.2,55.9,111.7,30,112.7,27.7
			c0,0,0-0.1,0-0.1c0.4-0.9,2.7-7,0.4-9.1c-1.3-1.2-3.7-0.6-4.8-2.5c-0.1-0.1-0.7-1.2-0.5-2.4c0.6-3.3,6.9-4,6.7-5.5
			c0-0.6-1.2-0.8-3.2-1.6c-4.6-1.8-4.6-3.2-7.1-3.9c-3.9-1-7.8,1.2-10.7,2.7c-3.4,1.8-5.4,4-6.3,3.4c-0.8-0.6,0.7-2.9-0.5-4.5
			C85.7,2.7,83,2.8,82,2.9c-5.7,0.4-8.5,4.7-10.2,3.6c-1.1-0.7,0.1-2.6-1.3-4.8c-1.4-2.2-3.5-1.5-6-3.4c-3-2.2-1.7-4.4-5-8.8
			c-1.1-1.5-3.2-4.2-6.6-5.5c-3.7-1.4-4.7,0.4-8.4-0.8c-4.3-1.4-4.4-4.1-8-4.6c-2.6-0.4-4.7,0.6-6.7,1.5c-4.9,2.2-5,4.8-7.7,4.9
			c-3,0.1-3.6-3-8.7-4c-1.7-0.3-3.5-0.6-4.6,0.4c-2,1.8,0.5,6.1-1.5,7.9c-1.1,1-3.2,0.8-4.4,0.1c-1.6-0.9-1.3-2.4-2.2-3.4
			C-2.6-17.4-18-13.1-22.6-3.8C-23.4-2.2-24,0-26.2,1.2c-2.6,1.4-4.8,0-7.5,0c-4.7,0-7.6,3.9-17.9,15.8c0,0-2.1,2.4-9,10.3
			C-75,43.6-77.9,45.6-78,50.6c-0.3,8.5,0.8,11.8,0.8,11.8c0.5,1.7,1.6,4.3,0.4,6c-0.8,1.2-1.8,0.6-2.7,1.6c-2,2.1,1.1,5.9,0.6,12.5
			c0,0.2,0,0-0.8,4.5c-1.5,8.8-1.8,10.5-0.7,11.7c1,1,2.6,1,4.2,1c2.9,0,4.9-1.3,5.8-1.9c6.2-7.4,12.4-14.8,18.6-22.2
			c-2.6,5.3-5.2,9.2-7.1,12c-2.7,3.8-5.2,6.5-7.9,11.7c-0.8,1.5-1.7,3.4-2.5,5.9c-1.3,3.9-3.1,8.4-1.2,12.5c0.8,1.7,1.9,2.6,2.2,4.9
			c0.4,3-0.8,4.6,0.4,6.5c0.8,1.3,1.6,0.8,2.5,2.1c1.8,2.3-0.4,5,0.5,9.4c0.5,2.6,1.4,2,2,4.7c1.1,4.4-1,6.2-0.3,11.6
			c0.4,2.4,0.5,3.6,1.5,4.4c2.4,2.1,5.9-1.1,9.2,0.8c2.9,1.7,2,5.2,4.8,6.2c2,0.7,2.9-0.9,6.5-0.7c0.6,0,4.8,0.3,5.5,2.3
			c0.6,1.7-1.7,4.4-4.2,5.8c-5.9,3.2-13.2-1-14,0.7c-0.6,1.1,2,3.5,3.6,5c16.4,15.4,16.4,16.4,21.8,19.6c5.4,3.2,4.4,1.6,11.1,5.4
			c8.6,4.8,17.6,9.8,18,16.6c0.2,3.9-2.6,4.5-2.4,9.7c0.1,3.6,1.5,9,5.2,10.4c3.2,1.2,4.8-2,9.8-1.6c5.1,0.4,5.5,4.1,9.7,4.2
			c6,0.2,8.4-6.9,13.3-5.8c2.8,0.6,2.9,3.2,6.5,4.5c3.2,1.2,6.5,0.4,8.8-0.4c17.2-17.5,43.4-44.5,75.5-78.4
			c26.7-28.2,33.8-36.3,48.7-50.4c43.3-41.1,88.5-73,90.5-70.6c1.4,1.7-19.4,20.7-90,87.8c-49,46.5-89,84.9-116.2,111
			c-0.1,5.5,1.5,7.4,2.7,8.3c3.5,2.2,8-2.9,12.4-0.1c1.5,1,4.3,3.5,5.3,7.1c0.7,2.7,0.1,4.7,1.8,6.5c1.1,1.2,1.8,0.6,3.1,1.8
			c3,2.7,1.7,5.6,4.1,7.7c2.6,2.3,6.2,0.7,7.1,2.8c0.6,1.3-0.8,2.2-0.4,4.3c0.5,2.3,2.6,2.3,3,4.1c0.7,2.9-4.4,4.6-5.6,9.6
			c-0.8,3.4,1.2,4,1,7.8c-0.4,7.6-9.2,9.5-8.9,15.4c0.2,3.6,3.8,7.3,7.3,7.8c5.6,0.8,7.5-7,13.6-7c6.9,0,9.4,9.8,15.3,8.9
			c4.2-0.7,4.8-5.9,9.8-6.1c3.2-0.2,4.8,1.8,7,0.6c2.1-1.1,1.9-3.7,4.2-4.4c1.3-0.3,1.9,0.3,3.1,0.4c4.1,0.3,9.2-6.4,11.3-13.1
			c1.9-6,0.2-8.2,2.9-12.8c2-3.5,4.7-5.3,6-6.3c9-6.5,19.5-16.5,29.5-26c13.5-12.8,14.9-18,23.9-22.6c1.4-0.7,4.4-2.2,7.8-5.2
			c5.2-4.6,6.9-9.3,9.1-13.5c6.6-12.9,13.8-13.3,27.4-33.3c0.6-0.9,3.6-5.3,2.9-5.9c-1.5-1.4-19.1,18.7-23.5,15.8
			c-1.2-0.8-1-3-0.9-4.1c1-9.5,13.6-12.9,31.1-28c4.5-3.9,2.9-3.1,8.1-7.6c13.6-12,28.2-21.1,32.1-28.6c2.3-4.4,3.8-9.2,3.8-9.2
			c0.4-1.5,0.5-2.2,0.8-2.9c1.6-4.4,3.9-6.1,11.1-14.1C337.6,92.1,338.5,90.1,337.9,88.8z M59.9,76.2C54.8,82.4,49.4,87,44.6,90.4
			c2.6-4.5,6.7-10.2,12.9-15.5c2.5-2.1,4.9-3.8,7.1-5.2C63.3,71.8,61.8,74,59.9,76.2z M56.2,56.2c7.8-8.7,15.6-16.2,23-22.7
			c-5.7,7.6-12.5,15.8-20.7,24c-5.2,5.3-10.3,10-15.3,14.2C47.1,66.7,51.4,61.5,56.2,56.2z M-34.9,55.5c1.5-3,3.7-6.8,7.1-10.3
			c1.3-1.4,2.6-2.6,3.9-3.5c-0.8,1.4-1.6,2.9-2.6,4.3C-29.3,50.2-32.3,53.3-34.9,55.5z M-21.1,189c-1.6,2-3.5,2.8-4.3,3.1
			c0-0.7,0-2.9,1.5-5c1.8-2.4,4.4-2.9,5-3C-19.1,185-19.4,187.1-21.1,189z M-26.4,112.8c5.3-6.5,10.7-13.1,16.1-19.6
			c0.2,1.6,0.4,3.2,0.6,4.8C-15.2,103-20.8,107.9-26.4,112.8z M2.1,211.5c-0.7,0.4-2.7-3.3-8.5-9.7c-1.5-1.7-2.9-3.1-2.6-4.6
			c0.4-1.4,2-2,3.6-2.9c2-1.2,4.6-3.3,7-7.4c-0.2,3.2-1,5.4-1.7,6.9c-0.8,1.6-2,3.1-1.4,4.2c0.4,0.8,1.5,0.6,2.2,1.5
			c0.9,1.1,0.2,2.6,0,4.3C0,208.2,2.7,211.1,2.1,211.5z M0.5,26.2c1.5-3,3.7-6.8,7.1-10.3c1.4-1.4,2.7-2.5,3.9-3.4
			c-0.8,1.4-1.6,2.8-2.6,4.3C6.1,20.9,3.1,24,0.5,26.2z M46.6,134.4C63.8,112.6,84.5,89,109.3,65c17.9-17.3,35.4-32.4,52.1-45.6
			c-12.1,11.5-24.3,23.2-36.5,35.3C97.5,81.4,71.4,108.1,46.6,134.4z M127.3,65.1C140.8,51.5,154,40.6,166,31.8
			c-7.2,8.5-14.7,17-22.5,25.5c-18.6,20.3-37.3,38.8-55.5,55.5C97.7,98.4,110.5,81.9,127.3,65.1z M157.2,94.5
			c18-15.5,35.6-29.9,52.7-43c-11.5,11.6-23.6,23.4-36.5,35.2c-25.7,23.6-51.1,44.5-75.5,62.9C115.9,131.7,135.7,113.2,157.2,94.5z
			 M185.2,96.6c-25.8,23.6-51.1,44.5-75.5,63c18-18,37.8-36.5,59.4-55.2c18-15.5,35.6-29.8,52.7-43C210.2,73,198.1,84.7,185.2,96.6z
			 M279.6,71.2c-11.5,11.6-23.6,23.4-36.5,35.2c-25.7,23.6-51.1,44.5-75.5,62.9c18-18,37.7-36.5,59.4-55.2
			C244.8,98.6,262.4,84.3,279.6,71.2z M124,198.3c23.7-27.9,51.5-57.2,83.9-86.5c14.5-13.1,28.9-25.3,43-36.5
			c-15.7,15.9-31.5,31.9-47.2,47.9C177.1,148.2,150.5,173.3,124,198.3z M130.1,225.2c25.7-25.3,53.2-51.1,82.6-77.1
			c23.2-20.6,46.1-39.9,68.5-58.2c-18.2,17.3-36.9,34.8-56.2,52.3C193,171.3,161.3,198.9,130.1,225.2z M134.3,241.7
			c18-21,40.2-44.2,67.4-67.5c22.8-19.4,44.8-35.4,65-48.5c-17.8,15.7-35.5,31.3-53.3,46.9C187.1,195.7,160.7,218.7,134.3,241.7z
			 M266.4,148.1c-19.7,18.1-39.3,34.7-58.3,49.7c3.5-3.1,7-6.3,10.5-9.5c12.9-11.8,25.1-23.6,36.5-35.2c-1.6,1.2-3.2,2.5-4.8,3.7
			c-1,0.8-1.9,1.7-2.9,2.5c-20.9,18.1-40.1,36.1-57.7,53.5c-14.9,12.6-29.6,24.2-43.9,35c18-18,37.8-36.5,59.3-55.1
			c16.3-14.1,32.3-27.2,47.9-39.3c17-14.6,33.6-28.1,49.8-40.5C291.5,124.5,279.3,136.3,266.4,148.1z"/>
	</defs>
	<clipPath id="SVGID_2_">
		<use xlink:href="#SVGID_1_"  style="overflow:visible;"/>
	</clipPath>
	<g class="st0">
		<g>
			<rect x="139.1" y="218.3" class="st1" width="4" height="4"/>
			<rect x="143.2" y="214.2" class="st1" width="4" height="4"/>
			<rect x="147.2" y="218.3" class="st1" width="4" height="4"/>
			<rect x="151.2" y="214.2" class="st1" width="4" height="4"/>
			<rect x="155.2" y="218.3" class="st1" width="4" height="4"/>
			<rect x="159.3" y="214.2" class="st1" width="4" height="4"/>
			<rect x="163.3" y="218.3" class="st1" width="4" height="4"/>
			<rect x="167.3" y="214.2" class="st1" width="4" height="4"/>
			<rect x="171.3" y="218.3" class="st1" width="4" height="4"/>
			<rect x="175.4" y="214.2" class="st1" width="4" height="4"/>
			<rect x="179.4" y="218.3" class="st1" width="4" height="4"/>
			<rect x="183.4" y="214.2" class="st1" width="4" height="4"/>
			<rect x="187.5" y="218.3" class="st1" width="4" height="4"/>
			<rect x="191.5" y="214.2" class="st1" width="4" height="4"/>
			<rect x="195.5" y="218.3" class="st1" width="4" height="4"/>
			<rect x="199.5" y="214.2" class="st1" width="4" height="4"/>
			<rect x="215.6" y="109.6" class="st1" width="4" height="4"/>
			<rect x="215.6" y="117.6" class="st1" width="4" height="4"/>
			<rect x="215.6" y="165.9" class="st1" width="4" height="4"/>
			<rect x="215.6" y="174" class="st1" width="4" height="4"/>
			<rect x="215.6" y="182" class="st1" width="4" height="4"/>
			<rect x="215.6" y="190.1" class="st1" width="4" height="4"/>
			<rect x="215.6" y="198.1" class="st1" width="4" height="4"/>
			<polygon class="st1" points="219.7,214.2 219.7,222.3 211.6,222.3 			"/>
			<rect x="219.7" y="113.6" class="st1" width="4" height="4"/>
			<rect x="219.7" y="121.7" class="st1" width="4" height="4"/>
			<rect x="219.7" y="170" class="st1" width="4" height="4"/>
			<rect x="219.7" y="178" class="st1" width="4" height="4"/>
			<rect x="219.7" y="186.1" class="st1" width="4" height="4"/>
			<rect x="219.7" y="194.1" class="st1" width="4" height="4"/>
			<path class="st1" d="M42.5,214.2v4h4v-4H42.5z M46.6,218.3v4h4v-4H46.6z M50.6,214.2v4h4v-4H50.6z M54.6,218.3v4h4v-4H54.6z
				 M58.6,214.2v4h4v-4H58.6z M62.7,218.3v4h4v-4H62.7z M66.7,214.2v4h4v-4H66.7z M70.7,218.3v4h4v-4H70.7z M74.7,214.2v4h4v-4H74.7
				z M78.8,218.3v4h4v-4H78.8z M82.8,214.2v4h4v-4H82.8z M86.8,218.3v4h4v-4H86.8z M90.8,214.2v4h4v-4H90.8z M94.9,218.3v4h4v-4
				H94.9z M98.9,214.2v4h4v-4H98.9z M102.9,218.3v4h4v-4H102.9z M178.9,68.1H78.3c-0.2,0-0.5,0-0.7,0c-0.3,0-0.5,0-0.7,0.1
				c-0.2,0-0.5,0.1-0.7,0.1c0,0,0,0,0,0c-0.2,0-0.4,0.1-0.6,0.2c-0.2,0.1-0.4,0.2-0.6,0.2c-0.2,0.1-0.3,0.1-0.5,0.2
				c-0.9,0.5-1.7,1.1-2.2,1.8C72.1,70.9,72,71,72,71.1c-0.1,0.2-0.2,0.3-0.3,0.5c-0.1,0.1-0.1,0.2-0.2,0.4c0,0.1-0.1,0.2-0.1,0.3
				c0,0.1-0.1,0.2-0.1,0.4c0,0.2-0.1,0.4-0.1,0.6c0,0.2,0,0.4,0,0.5v103.5c0,3.2,3.2,5.8,7.2,5.8h100.6c4,0,7.2-2.6,7.2-5.8V73.9
				C186.1,70.7,182.9,68.1,178.9,68.1z M134.2,160.8c0,3.4-2.7,6.1-6.1,6.1h0c-3.4,0-6.1-2.7-6.1-6.1v-42.8c0-3.4,2.7-6.1,6.1-6.1h0
				c3.4,0,6.1,2.7,6.1,6.1V160.8z M128,99.6c-3.4,0-6.1-2.7-6.1-6.1s2.7-6.1,6.1-6.1s6.1,2.7,6.1,6.1S131.4,99.6,128,99.6z
				 M215.6,61.3v4h4v-4H215.6z M215.6,69.3v4h4v-4H215.6z M215.6,77.4v4h4v-4H215.6z M215.6,85.4v4h4v-4H215.6z M215.6,93.5v4h4v-4
				H215.6z M220.7,105.5l-1.1-1.1v-3h-4v4h4v4h4v-4H220.7z M219.7,65.3v4h4v-4H219.7z M219.7,73.3v4h4v-4H219.7z M219.7,81.4v4h4v-4
				H219.7z M219.7,89.5v4h4v-4H219.7z M219.7,97.5v4h4v-4H219.7z M223.7,101.5v-4h-4v4H223.7z M223.7,93.5v-4h-4v4H223.7z
				 M223.7,85.4v-4h-4v4H223.7z M223.7,77.4v-4h-4v4H223.7z M223.7,65.3h-4v4h4V65.3z M215.6,101.5v4h4v4h4v-4h-3l-1.1-1.1v-3H215.6
				z M215.6,97.5h4v-4h-4V97.5z M215.6,89.5h4v-4h-4V89.5z M215.6,81.4h4v-4h-4V81.4z M215.6,69.3v4h4v-4H215.6z M215.6,61.3v4h4v-4
				H215.6z M178.9,68.1H78.3c-0.2,0-0.5,0-0.7,0c-0.3,0-0.5,0-0.7,0.1c-0.2,0-0.5,0.1-0.7,0.1c0,0,0,0,0,0c-0.2,0-0.4,0.1-0.6,0.2
				c-0.2,0.1-0.4,0.2-0.6,0.2c-0.2,0.1-0.3,0.1-0.5,0.2c-0.9,0.5-1.7,1.1-2.2,1.8C72.1,70.9,72,71,72,71.1c-0.1,0.2-0.2,0.3-0.3,0.5
				c-0.1,0.1-0.1,0.2-0.2,0.4c0,0.1-0.1,0.2-0.1,0.3c0,0.1-0.1,0.2-0.1,0.4c0,0.2-0.1,0.4-0.1,0.6c0,0.2,0,0.4,0,0.5v103.5
				c0,3.2,3.2,5.8,7.2,5.8h100.6c4,0,7.2-2.6,7.2-5.8V73.9C186.1,70.7,182.9,68.1,178.9,68.1z M134.2,160.8c0,3.4-2.7,6.1-6.1,6.1h0
				c-3.4,0-6.1-2.7-6.1-6.1v-42.8c0-3.4,2.7-6.1,6.1-6.1h0c3.4,0,6.1,2.7,6.1,6.1V160.8z M128,99.6c-3.4,0-6.1-2.7-6.1-6.1
				s2.7-6.1,6.1-6.1s6.1,2.7,6.1,6.1S131.4,99.6,128,99.6z M102.9,222.3h4v-4h-4V222.3z M98.9,214.2v4h4v-4H98.9z M94.9,222.3h4v-4
				h-4V222.3z M90.8,214.2v4h4v-4H90.8z M86.8,222.3h4v-4h-4V222.3z M82.8,214.2v4h4v-4H82.8z M78.8,222.3h4v-4h-4V222.3z
				 M74.7,214.2v4h4v-4H74.7z M70.7,222.3h4v-4h-4V222.3z M66.7,214.2v4h4v-4H66.7z M62.7,222.3h4v-4h-4V222.3z M58.6,214.2v4h4v-4
				H58.6z M54.6,222.3h4v-4h-4V222.3z M50.6,214.2v4h4v-4H50.6z M46.6,222.3h4v-4h-4V222.3z M42.5,214.2v4h4v-4H42.5z M250.3,89.7
				c-0.7-67.4-12.7-77.6-83.2-77.8H88.9c-1.6,0-3.2,0-4.7,0c-64.3,0.6-77,11.2-78.4,72v0c0,0.1,0,0.3,0,0.4c0,1.2,0,2.4-0.1,3.7
				c0,0.3,0,0.6,0,1c0,0.3,0,0.6,0,0.8c0,1.6,0,3.2,0,4.8c0,0.2,0,0.5,0,0.7v61.3c0,0.3,0,0.5,0,0.7c0,1.6,0,3.2,0,4.8
				c0,0.3,0,0.6,0,0.8c0,0.3,0,0.7,0,1c0,1.2,0,2.4,0.1,3.6c0,0.1,0,0.3,0,0.4v0c1.3,60.7,14,71.4,78.1,72c2.3,0,4.7,0,7,0h74.1
				c2.3,0,4.7,0,7,0c1.8,0,3.5,0,5.2-0.1h0c59.2-1.2,71.5-12.8,72.9-70.8c0-0.1,0-0.2,0-0.3c0-0.1,0-0.2,0-0.2
				c0-2.1,0.1-4.2,0.1-6.4c0-2.4,0-4.8,0-7.3V97C250.3,94.6,250.3,92.2,250.3,89.7z M246.3,155.2c0,4.3,0,8.6-0.1,12.9
				c-0.1,3.8-0.2,7.6-0.5,11.5c-0.2,3.4-0.5,6.8-0.8,10.1c-0.3,3-0.8,5.9-1.3,8.8c-0.5,2.6-1.1,5.1-1.8,7.6
				c-0.7,2.2-1.5,4.4-2.4,6.5c-0.8,1.9-1.9,3.7-3,5.4c-1.1,1.6-2.4,3.1-3.7,4.5c-1.4,1.4-2.9,2.6-4.5,3.7c-1.7,1.2-3.6,2.2-5.5,3
				c-2.1,1-4.3,1.8-6.5,2.4c-2.5,0.7-5.1,1.4-7.6,1.8c-2.9,0.5-5.9,1-8.9,1.3c-3.4,0.4-6.7,0.6-10.1,0.8c-3.8,0.2-7.7,0.4-11.5,0.5
				c-4.3,0.1-8.6,0.1-12.9,0.1c0,0,0,0,0,0H90.9c0,0,0,0,0,0c-4.3,0-8.6,0-12.9-0.1c-3.8-0.1-7.7-0.2-11.5-0.5
				c-3.4-0.2-6.8-0.5-10.1-0.8c-3-0.3-5.9-0.8-8.9-1.3c-2.6-0.5-5.1-1.1-7.7-1.8c-2.2-0.6-4.4-1.4-6.5-2.4c-1.9-0.9-3.7-1.9-5.5-3
				c-1.6-1.1-3.1-2.3-4.5-3.7c-1.4-1.4-2.6-2.9-3.7-4.5c-1.2-1.7-2.2-3.5-3-5.4c-1-2.1-1.8-4.3-2.4-6.5c-0.8-2.5-1.3-5.1-1.8-7.6
				c-0.5-2.9-1-5.9-1.3-8.8c-0.4-3.4-0.7-6.7-0.8-10.1c-0.2-3.8-0.4-7.6-0.5-11.5c-0.1-4.3-0.1-8.6-0.1-12.9V97
				c0-4.3,0-8.6,0.1-12.9c0.1-3.8,0.2-7.6,0.5-11.5c0.2-3.4,0.5-6.8,0.8-10.1c0.3-3,0.8-5.9,1.3-8.8c0.5-2.6,1.1-5.1,1.8-7.6
				c0.7-2.2,1.5-4.4,2.4-6.5c0.8-1.9,1.9-3.7,3-5.4c1.1-1.6,2.4-3.1,3.7-4.5c1.4-1.4,2.9-2.6,4.5-3.7c1.7-1.2,3.6-2.2,5.5-3
				c2.1-1,4.3-1.8,6.5-2.4c2.5-0.7,5.1-1.3,7.7-1.8c2.9-0.5,5.9-1,8.9-1.3c3.4-0.4,6.7-0.6,10.1-0.8c3.8-0.2,7.7-0.4,11.5-0.4
				C82.3,16,86.6,16,90.9,16c0,0,0,0,0,0h74.1c0,0,0,0,0,0c4.3,0,8.6,0,12.9,0.1c3.8,0.1,7.7,0.2,11.5,0.4c3.4,0.2,6.8,0.5,10.1,0.8
				c3,0.3,5.9,0.8,8.9,1.3c2.6,0.5,5.1,1.1,7.6,1.8c2.2,0.7,4.4,1.5,6.5,2.4c1.9,0.8,3.7,1.9,5.5,3c1.6,1.1,3.1,2.3,4.5,3.7
				c1.4,1.4,2.6,2.9,3.7,4.5c1.2,1.7,2.2,3.5,3,5.4c1,2.1,1.8,4.3,2.4,6.5c0.8,2.5,1.3,5.1,1.8,7.6c0.5,2.9,1,5.9,1.3,8.8
				c0.4,3.4,0.6,6.7,0.8,10.1c0.2,3.8,0.4,7.6,0.5,11.5c0.1,4.3,0.1,8.6,0.1,12.9V155.2z M223.7,101.5v-4h-4v4H223.7z M223.7,93.5
				v-4h-4v4H223.7z M223.7,85.4v-4h-4v4H223.7z M223.7,77.4v-4h-4v4H223.7z M219.7,69.3h4v-4h-4V69.3z M215.6,101.5v4h4v4h4v-4h-3
				l-1.1-1.1v-3H215.6z M215.6,97.5h4v-4h-4V97.5z M215.6,89.5h4v-4h-4V89.5z M215.6,81.4h4v-4h-4V81.4z M215.6,73.3h4v-4h-4V73.3z
				 M215.6,61.3v4h4v-4H215.6z M178.9,68.1H78.3c-0.2,0-0.5,0-0.7,0c-0.3,0-0.5,0-0.7,0.1c-0.2,0-0.5,0.1-0.7,0.1c0,0,0,0,0,0
				c-0.2,0-0.4,0.1-0.6,0.2c-0.2,0.1-0.4,0.2-0.6,0.2c-0.2,0.1-0.3,0.1-0.5,0.2c-0.9,0.5-1.7,1.1-2.2,1.8C72.1,70.9,72,71,72,71.1
				c-0.1,0.2-0.2,0.3-0.3,0.5c-0.1,0.1-0.1,0.2-0.2,0.4c0,0.1-0.1,0.2-0.1,0.3c0,0.1-0.1,0.2-0.1,0.4c0,0.2-0.1,0.4-0.1,0.6
				c0,0.2,0,0.4,0,0.5v103.5c0,3.2,3.2,5.8,7.2,5.8h100.6c4,0,7.2-2.6,7.2-5.8V73.9C186.1,70.7,182.9,68.1,178.9,68.1z M134.2,160.8
				c0,3.4-2.7,6.1-6.1,6.1h0c-3.4,0-6.1-2.7-6.1-6.1v-42.8c0-3.4,2.7-6.1,6.1-6.1h0c3.4,0,6.1,2.7,6.1,6.1V160.8z M128,99.6
				c-3.4,0-6.1-2.7-6.1-6.1s2.7-6.1,6.1-6.1s6.1,2.7,6.1,6.1S131.4,99.6,128,99.6z M102.9,222.3h4v-4h-4V222.3z M98.9,214.2v4h4v-4
				H98.9z M94.9,222.3h4v-4h-4V222.3z M90.8,214.2v4h4v-4H90.8z M86.8,222.3h4v-4h-4V222.3z M82.8,214.2v4h4v-4H82.8z M78.8,222.3h4
				v-4h-4V222.3z M74.7,214.2v4h4v-4H74.7z M70.7,222.3h4v-4h-4V222.3z M66.7,214.2v4h4v-4H66.7z M62.7,222.3h4v-4h-4V222.3z
				 M58.6,214.2v4h4v-4H58.6z M54.6,222.3h4v-4h-4V222.3z M50.6,214.2v4h4v-4H50.6z M46.6,222.3h4v-4h-4V222.3z M42.5,214.2v4h4v-4
				H42.5z M42.5,214.2v4h4v-4H42.5z M46.6,218.3v4h4v-4H46.6z M50.6,214.2v4h4v-4H50.6z M54.6,218.3v4h4v-4H54.6z M58.6,214.2v4h4
				v-4H58.6z M62.7,218.3v4h4v-4H62.7z M66.7,214.2v4h4v-4H66.7z M70.7,218.3v4h4v-4H70.7z M74.7,214.2v4h4v-4H74.7z M78.8,218.3v4
				h4v-4H78.8z M82.8,214.2v4h4v-4H82.8z M86.8,218.3v4h4v-4H86.8z M90.8,214.2v4h4v-4H90.8z M94.9,218.3v4h4v-4H94.9z M98.9,214.2
				v4h4v-4H98.9z M102.9,218.3v4h4v-4H102.9z M178.9,68.1H78.3c-0.2,0-0.5,0-0.7,0c-0.3,0-0.5,0-0.7,0.1c-0.2,0-0.5,0.1-0.7,0.1
				c0,0,0,0,0,0c-0.2,0-0.4,0.1-0.6,0.2c-0.2,0.1-0.4,0.2-0.6,0.2c-0.2,0.1-0.3,0.1-0.5,0.2c-0.9,0.5-1.7,1.1-2.2,1.8
				C72.1,70.9,72,71,72,71.1c-0.1,0.2-0.2,0.3-0.3,0.5c-0.1,0.1-0.1,0.2-0.2,0.4c0,0.1-0.1,0.2-0.1,0.3c0,0.1-0.1,0.2-0.1,0.4
				c0,0.2-0.1,0.4-0.1,0.6c0,0.2,0,0.4,0,0.5v103.5c0,3.2,3.2,5.8,7.2,5.8h100.6c4,0,7.2-2.6,7.2-5.8V73.9
				C186.1,70.7,182.9,68.1,178.9,68.1z M134.2,160.8c0,3.4-2.7,6.1-6.1,6.1h0c-3.4,0-6.1-2.7-6.1-6.1v-42.8c0-3.4,2.7-6.1,6.1-6.1h0
				c3.4,0,6.1,2.7,6.1,6.1V160.8z M128,99.6c-3.4,0-6.1-2.7-6.1-6.1s2.7-6.1,6.1-6.1s6.1,2.7,6.1,6.1S131.4,99.6,128,99.6z
				 M215.6,61.3v4h4v-4H215.6z M215.6,69.3v4h4v-4H215.6z M215.6,77.4v4h4v-4H215.6z M215.6,85.4v4h4v-4H215.6z M215.6,93.5v4h4v-4
				H215.6z M220.7,105.5l-1.1-1.1v-3h-4v4h4v4h4v-4H220.7z M219.7,65.3v4h4v-4H219.7z M219.7,73.3v4h4v-4H219.7z M219.7,81.4v4h4v-4
				H219.7z M219.7,89.5v4h4v-4H219.7z M219.7,97.5v4h4v-4H219.7z M219.7,97.5v4h4v-4H219.7z M219.7,89.5v4h4v-4H219.7z M219.7,81.4
				v4h4v-4H219.7z M219.7,73.3v4h4v-4H219.7z M219.7,65.3v4h4v-4H219.7z M220.7,105.5l-1.1-1.1v-3h-4v4h4v4h4v-4H220.7z M215.6,93.5
				v4h4v-4H215.6z M215.6,85.4v4h4v-4H215.6z M215.6,77.4v4h4v-4H215.6z M215.6,69.3v4h4v-4H215.6z M215.6,61.3v4h4v-4H215.6z
				 M178.9,68.1H78.3c-0.2,0-0.5,0-0.7,0c-0.3,0-0.5,0-0.7,0.1c-0.2,0-0.5,0.1-0.7,0.1c0,0,0,0,0,0c-0.2,0-0.4,0.1-0.6,0.2
				c-0.2,0.1-0.4,0.2-0.6,0.2c-0.2,0.1-0.3,0.1-0.5,0.2c-0.9,0.5-1.7,1.1-2.2,1.8C72.1,70.9,72,71,72,71.1c-0.1,0.2-0.2,0.3-0.3,0.5
				c-0.1,0.1-0.1,0.2-0.2,0.4c0,0.1-0.1,0.2-0.1,0.3c0,0.1-0.1,0.2-0.1,0.4c0,0.2-0.1,0.4-0.1,0.6c0,0.2,0,0.4,0,0.5v103.5
				c0,3.2,3.2,5.8,7.2,5.8h100.6c4,0,7.2-2.6,7.2-5.8V73.9C186.1,70.7,182.9,68.1,178.9,68.1z M134.2,160.8c0,3.4-2.7,6.1-6.1,6.1h0
				c-3.4,0-6.1-2.7-6.1-6.1v-42.8c0-3.4,2.7-6.1,6.1-6.1h0c3.4,0,6.1,2.7,6.1,6.1V160.8z M128,99.6c-3.4,0-6.1-2.7-6.1-6.1
				s2.7-6.1,6.1-6.1s6.1,2.7,6.1,6.1S131.4,99.6,128,99.6z M102.9,218.3v4h4v-4H102.9z M98.9,214.2v4h4v-4H98.9z M94.9,218.3v4h4v-4
				H94.9z M90.8,214.2v4h4v-4H90.8z M86.8,218.3v4h4v-4H86.8z M82.8,214.2v4h4v-4H82.8z M78.8,218.3v4h4v-4H78.8z M74.7,214.2v4h4
				v-4H74.7z M70.7,218.3v4h4v-4H70.7z M66.7,214.2v4h4v-4H66.7z M62.7,218.3v4h4v-4H62.7z M58.6,214.2v4h4v-4H58.6z M54.6,218.3v4
				h4v-4H54.6z M50.6,214.2v4h4v-4H50.6z M46.6,218.3v4h4v-4H46.6z M42.5,214.2v4h4v-4H42.5z"/>
		</g>
		<g class="st2">
			<path class="st3" d="M250.3,89.7c0-1.9-0.1-3.8-0.1-5.7c-0.1-3.9-0.2-7.7-0.5-11.6c-0.2-3.5-0.5-6.9-0.9-10.3
				c-0.3-3.1-0.8-6.1-1.3-9.1c-0.5-2.7-1.1-5.4-1.9-8c-0.7-2.4-1.6-4.7-2.6-7c-1-2.1-2.1-4.1-3.4-6c-1.2-1.8-2.7-3.5-4.2-5.1
				c-1.6-1.6-3.3-3-5.1-4.2c-1.9-1.3-3.9-2.4-6.1-3.4c-2.3-1-4.6-1.9-7-2.6c-2.6-0.8-5.3-1.4-8-1.9c-3-0.6-6.1-1-9.1-1.3
				c-3.5-0.4-6.9-0.7-10.4-0.9c-3.9-0.2-7.8-0.4-11.6-0.4c-3.6-0.1-7.3-0.1-10.9-0.1H88.9c-1.6,0-3.2,0-4.7,0C82.1,12,80,12,78,12.1
				c-3.9,0.1-7.8,0.2-11.6,0.4c-3.5,0.2-6.9,0.5-10.4,0.9c-3.1,0.3-6.1,0.8-9.1,1.3c-2.7,0.5-5.4,1.1-8.1,1.9
				c-2.4,0.7-4.8,1.6-7,2.6c-2.1,0.9-4.1,2.1-6.1,3.4c-1.8,1.2-3.6,2.6-5.1,4.2c-1.6,1.6-3,3.3-4.2,5.1c-1.3,1.9-2.4,4-3.4,6
				c-1,2.3-1.9,4.6-2.6,7c-0.8,2.7-1.4,5.3-1.9,8c-0.6,3-1,6.1-1.3,9.1C6.8,65.6,6.5,69,6.3,72.5C6,76.3,5.9,80.2,5.8,84v0
				c0,0.1,0,0.3,0,0.4c0,1.2,0,2.4-0.1,3.7c0,0.3,0,0.6,0,1c0,0.3,0,0.6,0,0.8c0,1.6,0,3.2,0,4.8c0,0.2,0,0.5,0,0.7v61.3
				c0,0.3,0,0.5,0,0.7c0,1.6,0,3.2,0,4.8c0,0.3,0,0.6,0,0.8c0,0.3,0,0.7,0,1c0,1.2,0,2.4,0.1,3.6c0,0.1,0,0.3,0,0.4v0
				c0.1,3.9,0.2,7.7,0.5,11.6c0.2,3.4,0.5,6.9,0.9,10.3c0.3,3.1,0.8,6.1,1.3,9.1c0.5,2.7,1.1,5.4,1.9,8c0.7,2.4,1.6,4.7,2.6,7
				c1,2.1,2.1,4.1,3.4,6c1.2,1.8,2.7,3.5,4.2,5.1c1.6,1.6,3.3,3,5.1,4.2c1.9,1.3,3.9,2.4,6.1,3.3c2.3,1,4.6,1.9,7,2.6
				c2.7,0.8,5.3,1.4,8.1,1.9c3,0.6,6.1,1,9.1,1.3c3.5,0.4,6.9,0.7,10.4,0.9c3.9,0.2,7.8,0.4,11.6,0.5c2,0,4,0.1,5.9,0.1
				c2.3,0,4.7,0,7,0h74.1c2.3,0,4.7,0,7,0c2,0,4-0.1,5.9-0.1c0.1,0,0.2,0,0.3,0c3.8-0.1,7.6-0.2,11.3-0.5c3.5-0.2,6.9-0.5,10.4-0.9
				c3.1-0.3,6.1-0.8,9.1-1.3c2.7-0.5,5.4-1.1,8-1.9c2.4-0.7,4.8-1.6,7-2.6c2.1-0.9,4.1-2.1,6.1-3.3c1.4-1,2.7-2,4-3.1c0,0,0,0,0,0
				c0.4-0.3,0.8-0.7,1.1-1.1c1.6-1.6,3-3.3,4.2-5.1c0.4-0.6,0.7-1.1,1.1-1.7c0,0,0,0,0,0c0.8-1.4,1.6-2.8,2.3-4.3
				c1-2.3,1.9-4.6,2.6-7c0.8-2.7,1.4-5.3,1.9-8c0.6-3,1-6.1,1.3-9.1c0.4-3.4,0.7-6.9,0.9-10.3c0.2-3.5,0.3-7,0.4-10.4
				c0-0.1,0-0.2,0-0.3c0-0.3,0-0.6,0-0.9c0-1.9,0.1-3.8,0.1-5.7c0-2.4,0-4.8,0-7.3V97C250.3,94.6,250.3,92.2,250.3,89.7z
				 M246.3,155.2c0,4.3,0,8.6-0.1,12.9c-0.1,3.8-0.2,7.6-0.5,11.5c-0.2,3.4-0.5,6.8-0.8,10.1c-0.3,3-0.8,5.9-1.3,8.8
				c-0.5,2.6-1.1,5.1-1.8,7.6c-0.7,2.2-1.5,4.4-2.4,6.5c-0.8,1.9-1.9,3.7-3,5.4c-1.1,1.6-2.4,3.1-3.7,4.5c-1.4,1.4-2.9,2.6-4.5,3.7
				c-1.7,1.2-3.6,2.2-5.5,3c-2.1,1-4.3,1.8-6.5,2.4c-2.5,0.7-5.1,1.4-7.6,1.8c-2.9,0.5-5.9,1-8.9,1.3c-3.4,0.4-6.7,0.6-10.1,0.8
				c-3.8,0.2-7.7,0.4-11.5,0.5c-4.3,0.1-8.6,0.1-12.9,0.1c0,0,0,0,0,0H90.9c0,0,0,0,0,0c-4.3,0-8.6,0-12.9-0.1
				c-3.8-0.1-7.7-0.2-11.5-0.5c-3.4-0.2-6.8-0.5-10.1-0.8c-3-0.3-5.9-0.8-8.9-1.3c-2.6-0.5-5.1-1.1-7.7-1.8
				c-2.2-0.6-4.4-1.4-6.5-2.4c-1.9-0.9-3.7-1.9-5.5-3c-1.6-1.1-3.1-2.3-4.5-3.7c-1.4-1.4-2.6-2.9-3.7-4.5c-1.2-1.7-2.2-3.5-3-5.4
				c-1-2.1-1.8-4.3-2.4-6.5c-0.8-2.5-1.3-5.1-1.8-7.6c-0.5-2.9-1-5.9-1.3-8.8c-0.4-3.4-0.7-6.7-0.8-10.1c-0.2-3.8-0.4-7.6-0.5-11.5
				c-0.1-4.3-0.1-8.6-0.1-12.9V97c0-4.3,0-8.6,0.1-12.9c0.1-3.8,0.2-7.6,0.5-11.5c0.2-3.4,0.5-6.8,0.8-10.1c0.3-3,0.8-5.9,1.3-8.8
				c0.5-2.6,1.1-5.1,1.8-7.6c0.7-2.2,1.5-4.4,2.4-6.5c0.8-1.9,1.9-3.7,3-5.4c1.1-1.6,2.4-3.1,3.7-4.5c1.4-1.4,2.9-2.6,4.5-3.7
				c1.7-1.2,3.6-2.2,5.5-3c2.1-1,4.3-1.8,6.5-2.4c2.5-0.7,5.1-1.3,7.7-1.8c2.9-0.5,5.9-1,8.9-1.3c3.4-0.4,6.7-0.6,10.1-0.8
				c3.8-0.2,7.7-0.4,11.5-0.4C82.3,16,86.6,16,90.9,16c0,0,0,0,0,0h74.1c0,0,0,0,0,0c4.3,0,8.6,0,12.9,0.1c3.8,0.1,7.7,0.2,11.5,0.4
				c3.4,0.2,6.8,0.5,10.1,0.8c3,0.3,5.9,0.8,8.9,1.3c2.6,0.5,5.1,1.1,7.6,1.8c2.2,0.7,4.4,1.5,6.5,2.4c1.9,0.8,3.7,1.9,5.5,3
				c1.6,1.1,3.1,2.3,4.5,3.7c1.4,1.4,2.6,2.9,3.7,4.5c1.2,1.7,2.2,3.5,3,5.4c1,2.1,1.8,4.3,2.4,6.5c0.8,2.5,1.3,5.1,1.8,7.6
				c0.5,2.9,1,5.9,1.3,8.8c0.4,3.4,0.6,6.7,0.8,10.1c0.2,3.8,0.4,7.6,0.5,11.5c0.1,4.3,0.1,8.6,0.1,12.9V155.2z"/>
		</g>
		<g>
			<g>
				<g class="st4">
					<path class="st1" d="M139.1,218.3v4h4v-4H139.1z M143.2,214.2v4h4v-4H143.2z M147.2,218.3v4h4v-4H147.2z M151.2,214.2v4h4v-4
						H151.2z M155.2,218.3v4h4v-4H155.2z M159.3,214.2v4h4v-4H159.3z M163.3,218.3v4h4v-4H163.3z M167.3,214.2v4h4v-4H167.3z
						 M171.3,218.3v4h4v-4H171.3z M175.4,214.2v4h4v-4H175.4z M179.4,218.3v4h4v-4H179.4z M183.4,214.2v4h4v-4H183.4z M187.5,218.3
						v4h4v-4H187.5z M191.5,214.2v4h4v-4H191.5z M195.5,218.3v4h4v-4H195.5z M199.5,214.2v4h4v-4H199.5z"/>
				</g>
				<g class="st4">
					<polygon class="st3" points="219.7,214.2 219.7,222.3 211.6,222.3 					"/>
				</g>
				<g class="st4">
					<path class="st1" d="M102.9,218.3v4h4v-4H102.9z M98.9,214.2v4h4v-4H98.9z M94.9,218.3v4h4v-4H94.9z M90.8,214.2v4h4v-4H90.8z
						 M86.8,218.3v4h4v-4H86.8z M82.8,214.2v4h4v-4H82.8z M78.8,218.3v4h4v-4H78.8z M74.7,214.2v4h4v-4H74.7z M70.7,218.3v4h4v-4
						H70.7z M66.7,214.2v4h4v-4H66.7z M62.7,218.3v4h4v-4H62.7z M58.6,214.2v4h4v-4H58.6z M54.6,218.3v4h4v-4H54.6z M50.6,214.2v4h4
						v-4H50.6z M46.6,218.3v4h4v-4H46.6z M42.5,214.2v4h4v-4H42.5z"/>
				</g>
				<g class="st4">
					<path class="st1" d="M215.6,61.3v4h4v-4H215.6z M219.7,65.3v4h4v-4H219.7z M215.6,69.3v4h4v-4H215.6z M219.7,73.3v4h4v-4H219.7
						z M215.6,77.4v4h4v-4H215.6z M219.7,81.4v4h4v-4H219.7z M215.6,85.4v4h4v-4H215.6z M219.7,89.5v4h4v-4H219.7z M215.6,93.5v4h4
						v-4H215.6z M219.7,97.5v4h4v-4H219.7z M215.6,101.5v4h4v-4H215.6z M219.7,105.5v4h4v-4H219.7z M215.6,109.6v4h4v-4H215.6z
						 M219.7,113.6v4h4v-4H219.7z M215.6,117.6v4h4v-4H215.6z M219.7,121.7v4h4v-4H219.7z"/>
				</g>
				<g class="st4">
					<path class="st1" d="M215.6,198.1v4h4v-4H215.6z M219.7,194.1v4h4v-4H219.7z M215.6,190.1v4h4v-4H215.6z M219.7,186.1v4h4v-4
						H219.7z M215.6,182v4h4v-4H215.6z M219.7,178v4h4v-4H219.7z M215.6,174v4h4v-4H215.6z M219.7,170v4h4v-4H219.7z M215.6,165.9v4
						h4v-4H215.6z"/>
				</g>
			</g>
			<rect x="139.1" y="218.3" class="st5" width="4" height="4"/>
			<rect x="143.2" y="214.2" class="st5" width="4" height="4"/>
			<rect x="147.2" y="218.3" class="st5" width="4" height="4"/>
			<rect x="151.2" y="214.2" class="st5" width="4" height="4"/>
			<rect x="155.2" y="218.3" class="st5" width="4" height="4"/>
			<rect x="159.3" y="214.2" class="st5" width="4" height="4"/>
			<rect x="163.3" y="218.3" class="st5" width="4" height="4"/>
			<rect x="167.3" y="214.2" class="st5" width="4" height="4"/>
			<rect x="171.3" y="218.3" class="st5" width="4" height="4"/>
			<rect x="175.4" y="214.2" class="st5" width="4" height="4"/>
			<rect x="179.4" y="218.3" class="st5" width="4" height="4"/>
			<path class="st5" d="M178.9,68.1H78.3c-0.2,0-0.5,0-0.7,0c-0.3,0-0.5,0-0.7,0.1c-0.2,0-0.5,0.1-0.7,0.1c0,0,0,0,0,0
				c-0.2,0-0.4,0.1-0.6,0.2c-0.2,0.1-0.4,0.2-0.6,0.2c-0.2,0.1-0.3,0.1-0.5,0.2c-0.9,0.5-1.7,1.1-2.2,1.8C72.1,70.9,72,71,72,71.1
				c-0.1,0.2-0.2,0.3-0.3,0.5c-0.1,0.1-0.1,0.2-0.2,0.4c0,0.1-0.1,0.2-0.1,0.3c0,0.1-0.1,0.2-0.1,0.4c0,0.2-0.1,0.4-0.1,0.6
				c0,0.2,0,0.4,0,0.5v103.5c0,3.2,3.2,5.8,7.2,5.8h100.6c4,0,7.2-2.6,7.2-5.8V73.9C186.1,70.7,182.9,68.1,178.9,68.1z M134.2,160.8
				c0,3.4-2.7,6.1-6.1,6.1h0c-3.4,0-6.1-2.7-6.1-6.1v-42.8c0-3.4,2.7-6.1,6.1-6.1h0c3.4,0,6.1,2.7,6.1,6.1V160.8z M128,99.6
				c-3.4,0-6.1-2.7-6.1-6.1s2.7-6.1,6.1-6.1s6.1,2.7,6.1,6.1S131.4,99.6,128,99.6z"/>
			<rect x="183.4" y="214.2" class="st5" width="4" height="4"/>
			<rect x="187.5" y="218.3" class="st5" width="4" height="4"/>
			<rect x="191.5" y="214.2" class="st5" width="4" height="4"/>
			<rect x="195.5" y="218.3" class="st5" width="4" height="4"/>
			<rect x="199.5" y="214.2" class="st5" width="4" height="4"/>
			<rect x="215.6" y="109.6" class="st5" width="4" height="4"/>
			<rect x="215.6" y="117.6" class="st5" width="4" height="4"/>
			<rect x="215.6" y="165.9" class="st5" width="4" height="4"/>
			<rect x="215.6" y="174" class="st5" width="4" height="4"/>
			<rect x="215.6" y="182" class="st5" width="4" height="4"/>
			<rect x="215.6" y="190.1" class="st5" width="4" height="4"/>
			<rect x="215.6" y="198.1" class="st5" width="4" height="4"/>
			<polygon class="st5" points="219.7,214.2 219.7,222.3 211.6,222.3 			"/>
			<polygon class="st5" points="223.7,108.5 223.7,109.6 219.7,109.6 219.7,105.5 215.6,105.5 215.6,101.5 216.7,101.5 219.7,104.5 
				220.7,105.5 			"/>
			<rect x="219.7" y="113.6" class="st5" width="4" height="4"/>
			<rect x="219.7" y="121.7" class="st5" width="4" height="4"/>
			<rect x="219.7" y="170" class="st5" width="4" height="4"/>
			<rect x="219.7" y="178" class="st5" width="4" height="4"/>
			<rect x="219.7" y="186.1" class="st5" width="4" height="4"/>
			<rect x="219.7" y="194.1" class="st5" width="4" height="4"/>
			<path class="st5" d="M250.2,168.9c0,0.1,0,0.2,0,0.2c0,0.1,0,0.2,0,0.3c-1.1,22.8-4.2,39.2-9.4,49.2c0,0,0,0,0,0
				c-1.6,3.1-3.3,5.5-5.3,7.4c-0.4,0.2-0.8,0.3-1.2,0.5c0,0,0,0,0,0c-16.7,7.2-12.4,12.1-56,13.6c-0.1,0-0.2,0-0.3,0
				c-0.2,0-0.5,0-0.7,0h0c-11.6,0.4-26.4,0.6-45.7,0.5l-0.4-0.4l-4-4h38c0,0,0,0,0,0c4.3,0,8.6,0,12.9-0.1c3.8-0.1,7.7-0.2,11.5-0.5
				c3.4-0.2,6.8-0.5,10.1-0.8c3-0.3,5.9-0.8,8.9-1.3c2.6-0.5,5.1-1.1,7.6-1.8c2.2-0.6,4.4-1.4,6.5-2.4c1.9-0.9,3.7-1.9,5.5-3
				c1.6-1.1,3.1-2.3,4.5-3.7c1.4-1.4,2.6-2.9,3.7-4.5c1.2-1.7,2.2-3.5,3-5.4c1-2.1,1.8-4.3,2.4-6.5c0.8-2.5,1.3-5.1,1.8-7.6
				c0.5-2.9,1-5.9,1.3-8.8c0.4-3.4,0.6-6.7,0.8-10.1c0.2-3.8,0.4-7.6,0.5-11.5c0.1-4.3,0.1-8.6,0.1-12.9v-24.1l4,4l0.1,0.1
				C250.8,147.7,250.7,158.9,250.2,168.9z"/>
			<path class="st1" d="M178.9,68.1H78.3c-0.2,0-0.5,0-0.7,0c-0.3,0-0.5,0-0.7,0.1c-0.2,0-0.5,0.1-0.7,0.1c0,0,0,0,0,0
				c-0.2,0-0.4,0.1-0.6,0.2c-0.2,0.1-0.4,0.2-0.6,0.2c-0.2,0.1-0.3,0.1-0.5,0.2c-0.9,0.5-1.7,1.1-2.2,1.8C72.1,70.9,72,71,72,71.1
				c-0.1,0.2-0.2,0.3-0.3,0.5c-0.1,0.1-0.1,0.2-0.2,0.4c0,0.1-0.1,0.2-0.1,0.3c0,0.1-0.1,0.2-0.1,0.4c0,0.2-0.1,0.4-0.1,0.6
				c0,0.2,0,0.4,0,0.5v103.5c0,3.2,3.2,5.8,7.2,5.8h100.6c4,0,7.2-2.6,7.2-5.8V73.9C186.1,70.7,182.9,68.1,178.9,68.1z M134.2,160.8
				c0,3.4-2.7,6.1-6.1,6.1h0c-3.4,0-6.1-2.7-6.1-6.1v-42.8c0-3.4,2.7-6.1,6.1-6.1h0c3.4,0,6.1,2.7,6.1,6.1V160.8z M128,99.6
				c-3.4,0-6.1-2.7-6.1-6.1s2.7-6.1,6.1-6.1s6.1,2.7,6.1,6.1S131.4,99.6,128,99.6z"/>
		</g>
	</g>
</g>
</svg>
