<?xml version="1.0" encoding="utf-8"?>
<!-- Generator: Adobe Illustrator 23.0.0, SVG Export Plug-In . SVG Version: 6.00 Build 0)  -->
<svg version="1.1" id="Layer_1" xmlns="http://www.w3.org/2000/svg" xmlns:xlink="http://www.w3.org/1999/xlink" x="0px" y="0px"
	 viewBox="0 0 256 256" style="enable-background:new 0 0 256 256;" xml:space="preserve">
<style type="text/css">
	.st0{fill-rule:evenodd;clip-rule:evenodd;fill:#F75049;}
</style>
<path class="st0" d="M60.6,10L19.1,51.5L34.6,67l41.5-41.5L60.6,10z M170.6,137.8c-11.8,11.2-23.1,21.9-33.7,32.1
	c6.6-1.1,12.8-3.6,18.3-7c5.5-5.7,11.1-11.4,16.9-17.2c2.8-4.6,4.8-9.7,6.1-15.1C175.7,133,173.2,135.4,170.6,137.8z M138.2,69
	c-7.6,8.3-15.3,16.2-22.8,23.9c3.8-1.9,8.1-2.9,12.7-2.9c10.1,0,19,5.1,24.3,12.8c0.1-0.1,0.3-0.2,0.4-0.3c5.5-4.8,11-9.4,16.4-13.9
	C161.7,78.7,150.8,71.6,138.2,69z M177.6,105.8c-6.9,6.3-13.8,12.4-20.6,18.3c-2.3,14-14.4,24.6-29,24.6c-0.2,0-0.5,0-0.7,0
	c-6.6,5.3-13.1,10.3-19.6,15.2c5.1-5.1,10.4-10.3,15.9-15.5c-4.6-0.7-8.8-2.4-12.4-5c-0.6-0.4-1.2-0.9-1.8-1.3
	c-6.6-5.4-10.8-13.5-10.8-22.7c0-4.7,1.1-9.2,3.1-13.2c-4.9,4.7-9.7,9.2-14.5,13.6c9.2-13.6,21.3-29.2,37.1-45.1
	c2.3-2.3,4.5-4.5,6.8-6.6c-1-0.1-2.1-0.1-3.2-0.1c-3.5,0-6.9,0.4-10.2,1c-13.7,13.5-27.1,27-40.2,40.5c-0.6,3.2-1,6.5-1,9.8
	c0,26.6,20.3,48.5,46.3,51.1c0.4-0.4,0.8-0.8,1.2-1.2c25.2-26.6,31.9-34.2,45.9-47.6c3-2.8,6-5.6,9-8.4
	C178.7,110.7,178.2,108.2,177.6,105.8z M79.1,103.9c8.8-9.6,18.2-19.4,28.4-29.2c1.4-1.3,2.7-2.6,4.1-3.9
	C96.1,76,84,88.3,79.1,103.9z M86.5,35.9L45,77.4l1.6,1.6c3.3-4.1,6.8-8.4,10.7-12.7c7.4-8.2,14.7-15.3,21.7-21.4
	c-5.4,7.2-11.8,14.9-19.5,22.7c-4.2,4.3-8.4,8.2-12.5,11.8l8,8c1.1-1.1,2.3-2.2,3.6-3.4c2.3-2,4.6-3.6,6.7-4.9c-1.3,2-2.8,4-4.5,6.1
	c-1.2,1.5-2.5,2.9-3.8,4.3l3.5,3.5l19.2-19.2c9.6-10.2,16.5-17.8,21.4-23.2L86.5,35.9z M212.6,27.2c-1.7,1.1-3.5,2.3-5.5,3.4
	c1.4-1.7,2.8-3.3,4.1-4.8L195.4,10l-41.5,41.5l27.2,27.2c7.2-5.8,14.2-11.4,21.3-16.7c-6.2,6.2-12.6,12.5-19.1,18.8l8,8
	c7.5-6.1,14.9-11.9,22.2-17.5c-6.4,6.6-13.1,13.1-20,19.7l2,2l41.5-41.5L212.6,27.2z M98.7,222v22h58.7v-22H98.7z M137.3,185.3
	c-5.4,5.1-10.7,10.1-16.1,15.2c4.3-5,8.7-10.1,13.2-15.2h-13.8c-7.7,7.4-15.1,14.4-22,21v1h47.4c3.7-3.6,7.5-7.1,11.3-10.7v-11.3
	H137.3z M148.9,207.3h8.5V200C154.5,202.5,151.7,204.9,148.9,207.3z M98.7,185.3v10.6c3.3-3.4,6.6-6.9,10.1-10.6H98.7z"/>
</svg>
