<?xml version="1.0" encoding="utf-8"?>
<!-- Generator: Adobe Illustrator 23.0.0, SVG Export Plug-In . SVG Version: 6.00 Build 0)  -->
<svg version="1.1" id="Layer_1" xmlns="http://www.w3.org/2000/svg" xmlns:xlink="http://www.w3.org/1999/xlink" x="0px" y="0px"
	 viewBox="0 0 32 32" style="enable-background:new 0 0 32 32;" xml:space="preserve">
<style type="text/css">
	.st0{opacity:0.2;enable-background:new    ;}
	.st1{fill:#E84040;}
	.st2{fill:#FFDC40;}
	.st3{opacity:0.2;fill:#FFFFFF;enable-background:new    ;}
	.st4{fill:#F75049;}
</style>
<path class="st0" d="M11.2,15.3C11.2,15.3,11.2,15.3,11.2,15.3c0,0.1-0.1,0.2-0.1,0.4C11.2,15.5,11.2,15.4,11.2,15.3
	C11.2,15.3,11.2,15.3,11.2,15.3z"/>
<path class="st0" d="M20.8,15.7c0-0.1,0-0.2-0.1-0.3c0,0,0,0,0,0s0,0,0,0C20.8,15.4,20.8,15.5,20.8,15.7z"/>
<polygon class="st0" points="14.7,5 14.7,5 14.3,6.3 "/>
<polygon class="st0" points="17.8,6.4 17.5,5.5 17.3,5 17.3,5 17.5,5.5 "/>
<path class="st1" d="M11.2,15.3C11.2,15.3,11.2,15.3,11.2,15.3c0,0.1-0.1,0.2-0.1,0.4C11.2,15.5,11.2,15.4,11.2,15.3
	C11.2,15.3,11.2,15.3,11.2,15.3z"/>
<path class="st1" d="M20.8,15.7c0-0.1,0-0.2-0.1-0.3c0,0,0,0,0,0s0,0,0,0C20.8,15.4,20.8,15.5,20.8,15.7z"/>
<polygon class="st1" points="14.7,5 14.7,5 14.3,6.3 "/>
<polygon class="st1" points="17.8,6.4 17.5,5.5 17.3,5 17.3,5 17.5,5.5 "/>
<polygon class="st2" points="14.7,5 14.7,5 14.3,6.3 "/>
<polygon class="st2" points="17.8,6.4 17.5,5.5 17.3,5 17.3,5 17.5,5.5 "/>
<path class="st3" d="M13.3,8h0.5l0.2-0.7C13.7,7.5,13.5,7.8,13.3,8z M13.3,8h0.5l0.2-0.7C13.7,7.5,13.5,7.8,13.3,8z M20.2,28.3
	L25,31v-6.4C23.4,25.9,21.8,27.2,20.2,28.3z M19.3,2c-0.7,0.6-1.3,1.3-2,2c-0.1,0.1-0.3,0.3-0.4,0.4c0.2,0.2,0.3,0.4,0.4,0.6v0
	l0.2,0.5c0-0.1,0.1-0.1,0.2-0.2C18.9,4,20.1,2.9,21.3,2H19.3z M13.3,8h0.5l0.2-0.7C13.7,7.5,13.5,7.8,13.3,8z M8.8,2
	C8.8,2,7,2,7,3.9v6.8c4.2-3.9,6-5.8,6.6-6.7c0.1-0.2,0.9-1.2,1.7-2H8.8z M23.2,2h-1.5c-0.7,0.8-1.3,1.5-2,2.3
	C19,5,18.4,5.7,17.8,6.4v0L18.3,8h3.3c0,0,0,0,0,0c0.3,0,0.5,0.1,0.7,0.2C23.3,7.5,24.1,6.8,25,6V3.9C25,3.9,25,2,23.2,2z
	 M20.2,13.5l0.5,1.3l0.2,0.5v0c0,0,0,0,0,0c0,0.1,0.1,0.2,0.1,0.4c0,0.2,0,0.4-0.1,0.5c0,0,0,0,0,0l0,0.1c0,0,0,0,0,0
	c0,0.1,0.1,0.2,0.1,0.3c1-0.9,2-1.9,3-2.9c0.4-0.4,0.8-0.7,1.1-1.1V9.3C23.4,10.8,21.8,12.2,20.2,13.5z M23.5,8
	c-0.2,0.2-0.5,0.4-0.7,0.7c0.1,0.1,0.1,0.2,0.1,0.3c0,0.1,0,0.1,0,0.2c0,0.1,0,0.2,0,0.3c0,0,0,0.1,0,0.1v0c0,0.1,0,0.1-0.1,0.2
	c0,0,0,0,0,0v0c0,0.1,0.1,0.2,0.1,0.4c0.7-0.6,1.4-1.2,2-1.7V6.6C24.5,7.1,24,7.6,23.5,8z M13.3,8h0.5l0.2-0.7
	C13.7,7.5,13.5,7.8,13.3,8z M13.3,8h0.5l0.2-0.7C13.7,7.5,13.5,7.8,13.3,8z"/>
<path class="st3" d="M11.2,15.3c0,0.1-0.1,0.2-0.1,0.4C11.2,15.5,11.2,15.4,11.2,15.3C11.2,15.3,11.2,15.3,11.2,15.3
	C11.2,15.3,11.2,15.3,11.2,15.3z M20.8,15.3C20.8,15.3,20.8,15.3,20.8,15.3C20.8,15.3,20.8,15.3,20.8,15.3c0,0.1,0.1,0.2,0.1,0.4
	C20.8,15.5,20.8,15.4,20.8,15.3z"/>
<path class="st4" d="M14.5,2c-1.3,1.4-3.6,3.9-7.5,8.1V3.9C7,2,8.8,2,8.8,2H14.5z"/>
<path class="st4" d="M17.5,5.5c-2,2.1-3.6,4.1-4.8,5.9c1.7-1.5,3.4-3.2,5.1-5v0L17.5,5.5z M22.7,8.5c-0.1-0.1-0.2-0.2-0.3-0.3
	c-0.3,0.3-0.6,0.5-0.9,0.8c-2.8,2.4-5.3,4.7-7.5,7c2.9-2.2,5.9-4.6,8.9-7.3C22.8,8.6,22.7,8.5,22.7,8.5z M23.2,2h-1.5
	c-0.7,0.8-1.3,1.5-2,2.3C19,5,18.4,5.7,17.8,6.4l-0.3-0.9c0-0.1,0.1-0.1,0.2-0.2C18.9,4,20.1,2.9,21.3,2h-2c-0.7,0.6-1.3,1.3-2,2
	c-0.1,0.1-0.3,0.3-0.4,0.4c0.2,0.2,0.3,0.4,0.4,0.6l0.2,0.5c-2,2.1-3.6,4.1-4.8,5.9c1.7-1.5,3.4-3.2,5.1-5L18.3,8h3.3c0,0,0,0,0,0
	c0.3,0,0.5,0.1,0.7,0.2C23.3,7.5,24.1,6.8,25,6V3.9C25,3.9,25,2,23.2,2z M23.5,8c-0.2,0.2-0.5,0.4-0.7,0.7c0.1,0.1,0.1,0.2,0.1,0.3
	c0,0.1,0,0.1,0,0.2c0,0.1,0,0.2,0,0.3c0,0,0,0.1,0,0.1v0c0,0.1,0,0.1-0.1,0.2c0,0,0,0,0,0v0c0,0.1,0.1,0.2,0.1,0.4
	c0.7-0.6,1.4-1.2,2-1.7V6.6C24.5,7.1,24,7.6,23.5,8z M11.2,15.3c0,0.1-0.1,0.2-0.1,0.4C11.2,15.5,11.2,15.4,11.2,15.3
	C11.2,15.3,11.2,15.3,11.2,15.3C11.2,15.3,11.2,15.3,11.2,15.3z M14.3,6.3L14.7,5v0L14.3,6.3z M12.6,8c-1.1,1.2-2.1,2.3-3.1,3.5
	c0,0,0,0,0.1,0l0.1,0.1c1.2-1.2,2.3-2.4,3.5-3.6H12.6z M13.3,8h0.5l0.2-0.7C13.7,7.5,13.5,7.8,13.3,8z M16.5,4.1
	c-0.4,0.4-0.8,0.8-1.2,1.2c-0.4,0.3-0.7,0.7-1.1,1c0,0,0,0,0,0l-0.1,0.3L14,7.3c1-1,2-2,3-2.9C16.8,4.3,16.7,4.2,16.5,4.1z
	 M20.2,13.5c-1.2,1-2.4,1.9-3.5,2.8l1.5,1.1c1-1.1,1.8-1.9,2.4-2.6c1.2-1.3,2-2.1,3.2-3.2c0.4-0.4,0.8-0.8,1.2-1.1V9.3
	C23.4,10.8,21.8,12.2,20.2,13.5z M17.5,5.5c-2,2.1-3.6,4.1-4.8,5.9c1.7-1.5,3.4-3.2,5.1-5v0L17.5,5.5z"/>
<path class="st4" d="M17.2,22.2c2.6-2.5,5.2-4.9,7.8-7.3v1.5c-0.8,0.7-1.5,1.5-2.2,2.2c0.7-0.6,1.5-1.1,2.2-1.7V19
	c-2.5,2.2-4.8,4.5-7,6.7c2.3-1.9,4.7-4,7-6V21c-2.4,2.2-4.5,4.4-6.3,6.5L16,26l-5.2,2.9L7,31V10.6c4.2-3.9,6-5.8,6.6-6.7
	c0.1-0.2,0.9-1.2,1.7-2h3.6c-0.8,0.7-1.6,1.4-2.4,2.1C16.4,4,16.2,4,16,4c-0.1,0-0.2,0-0.3,0v0c-0.5,0.1-0.8,0.4-1,0.9v0l-0.4,1.4
	c0,0,0,0,0,0c-0.6,0.6-1.1,1.1-1.6,1.7h-2.3c0,0,0,0,0,0c-0.4,0-0.8,0.2-1,0.5C9.2,8.6,9.1,8.8,9.1,9C9,9,9,9.1,9,9.2
	c0,0.1,0,0.2,0,0.3c0,0,0,0.1,0,0.1v0c0,0.1,0,0.1,0.1,0.2c0,0,0,0,0,0v0c-0.2,0.5-0.1,1.2,0.4,1.6c-0.8,0.9-1.5,1.8-2.2,2.7
	c0.8-0.8,1.6-1.7,2.4-2.5l2.2,1.6l-0.7,2.1v0c0,0,0,0,0,0c0,0.1-0.1,0.2-0.1,0.4c0,0.2,0,0.4,0.1,0.5c0,0,0,0,0,0l0,0.1c0,0,0,0,0,0
	c-0.2,0.5,0,1,0.4,1.3c0,0,0,0,0,0c0.3,0.2,0.6,0.3,0.9,0.3c0.3,0,0.5-0.1,0.8-0.2c0,0,0,0,0,0l2.7-1.9l0.5,0.3
	c-0.4,0.4-0.7,0.7-1.1,1.1c0.4-0.3,0.8-0.6,1.3-1l1.5,1.1l0.5,0.4c0,0,0,0,0,0c0.2,0.1,0.5,0.2,0.7,0.2c0.4,0,0.7-0.1,1-0.3
	c0,0,0,0,0,0c0.3-0.3,0.4-0.6,0.4-1c1-0.9,2-1.9,3-2.9c0.4-0.4,0.8-0.7,1.1-1.1v1.2C22.1,16.8,19.5,19.5,17.2,22.2z"/>
<path class="st4" d="M20.8,16.7c0,0.4-0.1,0.7-0.4,1c0,0,0,0,0,0c-0.3,0.2-0.6,0.4-1,0.3C19.9,17.6,20.4,17.1,20.8,16.7z"/>
<path class="st4" d="M20.2,28.3L20.2,28.3c-0.1,0.1-0.1,0.1-0.2,0.2C20.1,28.5,20.1,28.4,20.2,28.3z"/>
<path class="st4" d="M18.8,27.5c-0.1,0.1-0.2,0.2-0.3,0.2C18.6,27.7,18.7,27.6,18.8,27.5L18.8,27.5z"/>
<path class="st4" d="M20.2,28.3c1.6-1.2,3.2-2.4,4.8-3.8V31L20.2,28.3z"/>
<path class="st4" d="M12.6,8h0.6c-1.2,1.2-2.4,2.4-3.5,3.6l-0.1-0.1c0,0,0,0-0.1,0C10.5,10.3,11.5,9.2,12.6,8z"/>
<path class="st4" d="M16.9,4.4c-1,1-2,2-3,2.9l0.2-0.7l0.1-0.3c0,0,0,0,0,0c0.3-0.4,0.7-0.7,1.1-1c0.4-0.4,0.8-0.8,1.2-1.2
	C16.7,4.2,16.8,4.3,16.9,4.4z"/>
<path class="st4" d="M17.8,6.4L17.8,6.4c-1.7,1.8-3.4,3.5-5.1,5c1.2-1.8,2.8-3.8,4.8-5.9l0,0L17.8,6.4z"/>
<path class="st4" d="M22.8,8.7c-3,2.7-6,5.2-8.9,7.3c2.3-2.3,4.8-4.6,7.5-7c0.3-0.3,0.6-0.5,0.9-0.8c0.1,0.1,0.2,0.2,0.3,0.3
	C22.7,8.5,22.8,8.6,22.8,8.7z"/>
<path class="st4" d="M18.8,27.5c-0.1,0.1-0.2,0.2-0.3,0.2C18.6,27.7,18.7,27.6,18.8,27.5L18.8,27.5z"/>
<path class="st4" d="M20.2,28.3c-0.1,0.1-0.1,0.1-0.2,0.2C20.1,28.5,20.1,28.4,20.2,28.3L20.2,28.3z"/>
</svg>
