<?xml version="1.0" encoding="utf-8"?>
<!-- Generator: Adobe Illustrator 23.0.0, SVG Export Plug-In . SVG Version: 6.00 Build 0)  -->
<svg version="1.1" id="Layer_1" xmlns="http://www.w3.org/2000/svg" xmlns:xlink="http://www.w3.org/1999/xlink" x="0px" y="0px"
	 viewBox="0 0 32 32" style="enable-background:new 0 0 32 32;" xml:space="preserve">
<style type="text/css">
	.st0{fill:#0E0E17;stroke:#F75049;stroke-width:0.25;stroke-miterlimit:10;}
	.st1{fill:#F75049;}
</style>
<g>
	<path class="st0" d="M18.9,3.9v12.7c-0.7,0.8-1.4,1.6-2.1,2.3H4l-0.6-0.6V2.3C3.5,2.2,3.7,2,3.9,1.8h7.3c0.5,0.5,1.1,1,1.6,1.5h5.4
		C18.4,3.5,18.7,3.7,18.9,3.9z"/>
</g>
<g>
	<path class="st1" d="M7.1,12.7c-0.5,0.5-1,0.9-1.5,1.3v-1c1-0.8,2.1-1.8,3.2-2.8c0.4-0.3,0.7-0.7,1.1-1c0.3,0,0.6,0.1,0.9,0.3
		c-0.5,0.4-0.9,0.8-1.4,1.2H9.3C8.1,10.8,7.2,11.6,7.1,12.7z"/>
	<path class="st1" d="M13,13c0,2-1.7,3.7-3.7,3.7c-0.3,0-0.5,0-0.8-0.1c-0.5-0.1-1-0.3-1.4-0.6v0.7H5.6v-0.1
		c0.3-0.2,0.5-0.5,0.8-0.7c0.4-0.3,0.8-0.7,1.2-1.1c0-0.1,0.1-0.1,0.1-0.1c0,0,0.1,0,0.1,0.1c0.3,0.2,0.6,0.4,1,0.5
		c0,0.1,0,0.2,0,0.2c0.1,0.1,0.2,0,0.4-0.1h0c0.2,0,0.3,0,0.5,0c1-0.2,1.8-1.1,1.8-2.2c0-0.1,0-0.2,0-0.3c0-0.3-0.2-0.7-0.4-1
		c0.4-0.3,0.7-0.7,1-1c-0.4,0.3-0.8,0.6-1.1,0.9c-0.4-0.5-0.9-0.8-1.5-0.8c0.4-0.4,0.8-0.8,1.2-1.2c0.9,0.4,1.6,1.1,1.9,2
		C12.9,12,13,12.5,13,13z"/>
	<path class="st1" d="M7.9,10.8c-0.8,0.7-1.6,1.4-2.3,2.1v-0.6c0.4-0.3,0.7-0.7,1-1l1.9-1.9c0.2,0,0.5-0.1,0.7-0.1
		c0.2,0,0.3,0,0.4,0C9.1,9.8,8.5,10.3,7.9,10.8z"/>
	<path class="st1" d="M7.1,8.3c-0.5,0.4-1,0.8-1.5,1.2V8.7c0.5-0.5,1-0.9,1.4-1.4C6.5,7.7,6.1,8,5.6,8.4V6.4h1.5V8.3z"/>
	<path class="st1" d="M6.5,14.1c-0.3,0.3-0.6,0.6-0.9,0.8v-0.6c0.5-0.4,1-0.9,1.5-1.3c0,0.2,0,0.4,0.1,0.6C7,13.8,6.8,14,6.5,14.1z"
		/>
	<path class="st1" d="M7.1,9.1c-0.5,0.4-1,0.8-1.5,1.3V9.9c0,0,0,0,0,0c0.5-0.5,1-0.9,1.5-1.4V9.1z"/>
	<path class="st1" d="M6.9,10.7c-0.4,0.4-0.9,0.8-1.3,1.2v-0.5c0.5-0.5,1-1,1.5-1.4V10c0.4-0.3,0.8-0.5,1.2-0.6
		C7.8,9.8,7.4,10.2,6.9,10.7z"/>
	<path class="st1" d="M6.7,15.2c-0.4,0.3-0.8,0.7-1.1,1v-0.7C6.1,15,6.7,14.5,7.2,14c0,0,0.1-0.1,0.1-0.1c0.1,0.2,0.2,0.3,0.3,0.5
		C7.3,14.7,7,14.9,6.7,15.2z"/>
	<path class="st1" d="M11,9.5c-0.1,0-0.1,0.1-0.2,0.2c0,0,0,0,0,0C10.8,9.6,10.9,9.5,11,9.5z"/>
	<path class="st1" d="M11,9.5c-0.1,0-0.1,0.1-0.2,0.2c0,0,0,0,0,0C10.8,9.6,10.9,9.5,11,9.5z"/>
</g>
<g>
	<path class="st0" d="M30,15.2v12.7c-0.7,0.8-1.4,1.6-2.1,2.3H15.1l-0.6-0.6V13.7c0.2-0.2,0.4-0.4,0.5-0.5h7.3
		c0.5,0.5,1.1,1,1.6,1.5h5.4C29.6,14.8,29.8,15,30,15.2z"/>
</g>
<g>
	<path class="st1" d="M18.2,24.1c-0.5,0.5-1,0.9-1.5,1.3v-1c1-0.8,2.1-1.8,3.2-2.8c0.4-0.3,0.7-0.7,1.1-1c0.3,0,0.6,0.1,0.9,0.3
		c-0.5,0.4-0.9,0.8-1.4,1.2h-0.1C19.3,22.1,18.3,22.9,18.2,24.1z"/>
	<path class="st1" d="M24.1,24.3c0,2-1.7,3.7-3.7,3.7c-0.3,0-0.5,0-0.8-0.1c-0.5-0.1-1-0.3-1.4-0.6V28h-1.5v-0.1
		c0.3-0.2,0.5-0.5,0.8-0.7c0.4-0.3,0.8-0.7,1.2-1.1c0-0.1,0.1-0.1,0.1-0.1c0,0,0.1,0,0.1,0.1c0.3,0.2,0.6,0.4,1,0.5
		c0,0.1,0,0.2,0,0.2c0.1,0.1,0.2,0,0.4-0.1h0c0.2,0,0.3,0,0.5,0c1-0.2,1.8-1.1,1.8-2.2c0-0.1,0-0.2,0-0.3c0-0.3-0.2-0.7-0.4-1
		c0.4-0.3,0.7-0.7,1-1c-0.4,0.3-0.8,0.6-1.1,0.9c-0.4-0.5-0.9-0.8-1.5-0.8c0.4-0.4,0.8-0.8,1.2-1.2c0.9,0.4,1.6,1.1,1.9,2
		C24,23.4,24.1,23.8,24.1,24.3z"/>
	<path class="st1" d="M19.1,22.1c-0.8,0.7-1.6,1.4-2.3,2.1v-0.6c0.4-0.3,0.7-0.7,1-1l1.9-1.9c0.2,0,0.5-0.1,0.7-0.1
		c0.2,0,0.3,0,0.4,0C20.3,21.1,19.7,21.6,19.1,22.1z"/>
	<path class="st1" d="M18.2,19.6c-0.5,0.4-1,0.8-1.5,1.2V20c0.5-0.5,1-0.9,1.4-1.4c-0.5,0.3-0.9,0.7-1.4,1.1v-2.1h1.5V19.6z"/>
	<path class="st1" d="M17.7,25.4c-0.3,0.3-0.6,0.6-0.9,0.8v-0.6c0.5-0.4,1-0.9,1.5-1.3c0,0.2,0,0.4,0.1,0.6
		C18.1,25.1,17.9,25.3,17.7,25.4z"/>
	<path class="st1" d="M18.2,20.4c-0.5,0.4-1,0.8-1.5,1.3v-0.5c0,0,0,0,0,0c0.5-0.5,1-0.9,1.5-1.4V20.4z"/>
	<path class="st1" d="M18,22c-0.4,0.4-0.9,0.8-1.3,1.2v-0.5c0.5-0.5,1-1,1.5-1.4v0.1c0.4-0.3,0.8-0.5,1.2-0.6
		C19,21.1,18.5,21.6,18,22z"/>
	<path class="st1" d="M17.9,26.5c-0.4,0.3-0.8,0.7-1.1,1v-0.7c0.5-0.5,1.1-0.9,1.6-1.4c0,0,0.1-0.1,0.1-0.1c0.1,0.2,0.2,0.3,0.3,0.5
		C18.5,26,18.2,26.2,17.9,26.5z"/>
	<path class="st1" d="M22.1,20.8c-0.1,0-0.1,0.1-0.2,0.2c0,0,0,0,0,0C22,20.9,22,20.8,22.1,20.8z"/>
	<path class="st1" d="M22.1,20.8c-0.1,0-0.1,0.1-0.2,0.2c0,0,0,0,0,0C22,20.9,22,20.8,22.1,20.8z"/>
</g>
</svg>
