<?xml version="1.0" encoding="utf-8"?>
<!-- Generator: Adobe Illustrator 23.0.0, SVG Export Plug-In . SVG Version: 6.00 Build 0)  -->
<svg version="1.1" id="Layer_1" xmlns="http://www.w3.org/2000/svg" xmlns:xlink="http://www.w3.org/1999/xlink" x="0px" y="0px"
	 viewBox="0 0 256 256" style="enable-background:new 0 0 256 256;" xml:space="preserve">
<style type="text/css">
	.st0{opacity:0.8;fill:#0E0E17;}
	.st1{fill:#0E0E17;}
	.st2{fill:none;stroke:#F75049;stroke-miterlimit:10;}
	.st3{fill:#F75049;}
</style>
<g>
	<g>
		<path class="st0" d="M218.1,40.1h-67.5c-6.8-6.3-13.6-12.7-20.4-19.1H37.7c-2.3,2.2-4.6,4.5-6.9,6.7v200.1l8,8h160.9
			c9-9.8,17.9-19.7,26.8-29.5V46.8C223.7,44.6,220.9,42.4,218.1,40.1z M218.3,168c-2.7,3.4-5.4,7-8.1,10.4v40.6
			c-2.6,2.6-5.3,5.1-7.9,7.7H48.9c-2.6-2.6-5.2-5.2-7.8-7.9v-40.4c-2.6-3.4-5.3-7-7.9-10.4V95.5c2.6-2.3,5.3-4.5,7.9-6.8V50.3
			c2.6-2.6,5.2-5.3,7.8-7.9h153.3c2.7,2.7,5.3,5.4,8,8.1v38.3c2.6,2.2,5.3,4.5,8,6.8V168z"/>
		<path class="st1" d="M218.1,40.1h-67.5c-6.8-6.3-13.6-12.7-20.4-19.1H37.7c-2.3,2.2-4.6,4.5-6.9,6.7v200.1l8,8h160.9
			c9-9.8,17.9-19.7,26.8-29.5V46.8C223.7,44.6,220.9,42.4,218.1,40.1z M218.3,168c-2.7,3.4-5.4,7-8.1,10.4v40.6
			c-2.6,2.6-5.3,5.1-7.9,7.7H48.9c-2.6-2.6-5.2-5.2-7.8-7.9v-40.4c-2.6-3.4-5.3-7-7.9-10.4V95.5c2.6-2.3,5.3-4.5,7.9-6.8V50.3
			c2.6-2.6,5.2-5.3,7.8-7.9h153.3c2.7,2.7,5.3,5.4,8,8.1v38.3c2.6,2.2,5.3,4.5,8,6.8V168z"/>
		<g>
			<path class="st1" d="M218.3,95.7V168c-2.7,3.4-5.4,7-8.1,10.4v40.6c-2.6,2.6-5.3,5.1-7.9,7.7H48.9c-2.6-2.6-5.2-5.2-7.8-7.9
				v-40.4c-2.6-3.4-5.3-7-7.9-10.4V95.5c2.6-2.3,5.3-4.5,7.9-6.8V50.3c2.6-2.6,5.2-5.3,7.8-7.9h153.3c2.7,2.7,5.3,5.4,8,8.1v38.3
				C212.9,91.1,215.6,93.4,218.3,95.7z"/>
		</g>
	</g>
	<path class="st2" d="M218.1,40.1h-67.5c-6.8-6.3-13.6-12.7-20.4-19.1H37.7c-2.3,2.2-4.6,4.5-6.9,6.7v200.1l8,8h160.9
		c9-9.8,17.9-19.7,26.8-29.5V46.8C223.7,44.6,220.9,42.4,218.1,40.1z M218.3,168c-2.7,3.4-5.4,7-8.1,10.4v40.6
		c-2.6,2.6-5.3,5.1-7.9,7.7H48.9c-2.6-2.6-5.2-5.2-7.8-7.9v-40.4c-2.6-3.4-5.3-7-7.9-10.4V95.5c2.6-2.3,5.3-4.5,7.9-6.8V50.3
		c2.6-2.6,5.2-5.3,7.8-7.9h153.3c2.7,2.7,5.3,5.4,8,8.1v38.3c2.6,2.2,5.3,4.5,8,6.8V168z"/>
</g>
<g transform="translate(-532 -32)">
	<path class="st3" d="M605.3,105.9v1.9c0.9-0.9,0.9-1.9,1.9-1.9H605.3z"/>
</g>
<path class="st3" d="M75.2,73.9c0,0.9-0.9,0.9-1.9,1.9v-1.9H75.2z"/>
<path class="st3" d="M132.2,129.9h8.4c-3.7,2.8-8.4,5.6-12.1,9.3h-6.5C125.6,136.5,128.4,132.7,132.2,129.9z"/>
<path class="st3" d="M64,101.9c-3.7,2.8-6.5,6.5-9.3,10.3V100c7.5-7.5,12.1-12.1,14-14.9c0,0,0.9-0.9,1.9-1.9h2.8v-3.7
	c1.9-2.8,4.7-4.7,6.5-5.6h0.9h12.1c-2.8,2.8-6.5,5.6-10.3,9.3c-2.8,1.9-4.7,4.7-7.5,7.5l-2.8,1.9H64V101.9z"/>
<path class="st3" d="M67.7,158c-4.7,4.7-9.3,9.3-13.1,13.1v-57c3.7-4.7,7.5-8.4,11.2-12.1h7.5v-7.5c2.8-2.8,6.5-6.5,9.3-9.3v6.5
	c-6.5,6.5-12.1,13.1-15.9,19.6H64v9.3h9.3v-9.3h-5.6c4.7-4.7,10.3-9.3,15-14.9v23.4c-3.7,3.7-6.5,7.5-10.3,10.3H64v9.3h9.3v-9.3l0,0
	c2.8-2.8,6.5-4.7,9.3-7.5v7.5h0.9c-2.8,2.8-5.6,5.6-8.4,7.5c3.7-1.9,6.5-4.7,10.3-7.5h16.8c-3.7,2.8-6.5,6.5-10.3,9.3h-6.5l-0.9,0.9
	c0,0-1.9,0.9-1.9,1.9c-2.8,3.7-6.5,6.5-9.3,9.3v-2.8H64v9.3H67.7z"/>
<path class="st3" d="M152.7,129.9c-1.9,1.9-3.7,2.8-5.6,4.7c0.9-0.9,1.9-0.9,2.8-1.9c-1.9,1.9-4.7,4.7-6.5,6.5h-10.3
	c3.7-2.8,7.5-6.5,10.3-9.3H152.7z"/>
<path class="st3" d="M166.7,108.4v10.3c1.9-1.9,3.7-2.8,5.6-4.7c-1.9,1.9-3.7,3.7-5.6,5.6v10.3h-10.3c-0.9,0.9-1.9,1.9-1.9,1.9
	c-3.7,2.8-6.5,4.7-8.4,7.5h18.7l20.6-18.7h-9.3v-9.3h9.3v8.4l9.3-8.4v-8.4L166.7,108.4z M192.9,178.5l-8.4,7.5h0.9v9.3h9.3v-18.7
	L192.9,178.5z M175.2,195.3h0.9v-0.9L175.2,195.3z M166.7,150.5V171l13.1-13.1h-3.7v-9.3h9.3v3.7l9.3-9.3v-19.6L166.7,150.5z
	 M185.4,73.9v9.3h-9.3v-7.5c-0.9,0.9-1.9,0.9-1.9,0.9s0.9-0.9,1.9-1.9v-0.9h-72.9c-2.8,2.8-5.6,6.5-8.4,9.3h52.3
	c3.7-2.8,6.5-3.7,6.5-3.7s0,0.9-2.8,3.7h15.9v13.1l28-6.5V73.9H185.4z"/>
<path class="st3" d="M107.9,129.9h3.7c-3.7,2.8-6.5,6.5-10.3,9.3h-2.8C101.3,136.5,104.1,132.7,107.9,129.9z"/>
<path class="st3" d="M120,129.9h9.3c-0.9,0.9-1.9,1.9-2.8,1.9c-1.9,2.8-4.7,4.7-7.5,7.5h-10.3C112.5,136.5,116.3,132.7,120,129.9z"
	/>
<path class="st3" d="M66.8,83.2c-2.8,3.7-7.5,7.5-12.1,13.1v-15c1.9-1.9,3.7-4.7,5.6-6.5c-1.9,0.9-3.7,2.8-5.6,4.7v-5.6H64v9.3H66.8
	z"/>
<path class="st3" d="M84.5,83.2c3.7-2.8,6.5-6.5,9.3-9.3h8.4c-2.8,2.8-6.5,5.6-10.3,9.3H84.5z"/>
<polygon class="st3" points="194.8,123.4 194.8,143 185.4,152.4 185.4,148.6 176.1,148.6 176.1,158 179.8,158 166.7,171 
	166.7,150.5 "/>
<polygon class="st3" points="176.1,194.4 176.1,195.3 175.2,195.3 "/>
<polygon class="st3" points="185.4,119.7 185.4,120.6 184.5,120.6 "/>
<path class="st3" d="M176.1,176.6h9.3V171l9.3-9.3v12.1l-3.7,3.7l-9.3,8.4h-5.6v5.6l-4.7,3.7H73.3V186H64v9.3h-9.3v-19.6
	c5.6-4.7,11.2-11.2,18.7-17.8l0,0c2.8-2.8,6.5-5.6,9.3-9.3V186h84.1v-11.2l16.8-16.8h1.9v-1.9l9.3-9.3v7.5l-1.9,0.9l-11.2,12.1h-5.6
	V176.6z"/>
<polygon class="st3" points="185.4,156.1 185.4,158 183.6,158 "/>
<polygon class="st3" points="194.8,176.6 194.8,195.3 185.4,195.3 185.4,186 184.5,186 192.9,178.5 "/>
</svg>
