<?xml version="1.0" encoding="utf-8"?>
<!-- Generator: Adobe Illustrator 23.0.0, SVG Export Plug-In . SVG Version: 6.00 Build 0)  -->
<svg version="1.1" id="Layer_1" xmlns="http://www.w3.org/2000/svg" xmlns:xlink="http://www.w3.org/1999/xlink" x="0px" y="0px"
	 viewBox="0 0 256 256" style="enable-background:new 0 0 256 256;" xml:space="preserve">
<style type="text/css">
	.st0{opacity:0.8;fill:#0E0E17;}
	.st1{fill:#0E0E17;}
	.st2{fill:none;stroke:#F75049;stroke-miterlimit:10;}
	.st3{fill:#F75049;}
</style>
<g>
	<g>
		<path class="st0" d="M218.1,40.1h-67.5c-6.8-6.3-13.6-12.7-20.4-19.1H37.7c-2.3,2.2-4.6,4.5-6.9,6.7v200.1l8,8h160.9
			c9-9.8,17.9-19.7,26.8-29.5V46.8C223.7,44.6,220.9,42.4,218.1,40.1z M218.3,168c-2.7,3.4-5.4,7-8.1,10.4v40.6
			c-2.6,2.6-5.3,5.1-7.9,7.7H48.9c-2.6-2.6-5.2-5.2-7.8-7.9v-40.4c-2.6-3.4-5.3-7-7.9-10.4V95.5c2.6-2.3,5.3-4.5,7.9-6.8V50.3
			c2.6-2.6,5.2-5.3,7.8-7.9h153.3c2.7,2.7,5.3,5.4,8,8.1v38.3c2.6,2.2,5.3,4.5,8,6.8V168z"/>
		<path class="st1" d="M218.1,40.1h-67.5c-6.8-6.3-13.6-12.7-20.4-19.1H37.7c-2.3,2.2-4.6,4.5-6.9,6.7v200.1l8,8h160.9
			c9-9.8,17.9-19.7,26.8-29.5V46.8C223.7,44.6,220.9,42.4,218.1,40.1z M218.3,168c-2.7,3.4-5.4,7-8.1,10.4v40.6
			c-2.6,2.6-5.3,5.1-7.9,7.7H48.9c-2.6-2.6-5.2-5.2-7.8-7.9v-40.4c-2.6-3.4-5.3-7-7.9-10.4V95.5c2.6-2.3,5.3-4.5,7.9-6.8V50.3
			c2.6-2.6,5.2-5.3,7.8-7.9h153.3c2.7,2.7,5.3,5.4,8,8.1v38.3c2.6,2.2,5.3,4.5,8,6.8V168z"/>
		<g>
			<path class="st1" d="M218.3,95.7V168c-2.7,3.4-5.4,7-8.1,10.4v40.6c-2.6,2.6-5.3,5.1-7.9,7.7H48.9c-2.6-2.6-5.2-5.2-7.8-7.9
				v-40.4c-2.6-3.4-5.3-7-7.9-10.4V95.5c2.6-2.3,5.3-4.5,7.9-6.8V50.3c2.6-2.6,5.2-5.3,7.8-7.9h153.3c2.7,2.7,5.3,5.4,8,8.1v38.3
				C212.9,91.1,215.6,93.4,218.3,95.7z"/>
		</g>
	</g>
	<path class="st2" d="M218.1,40.1h-67.5c-6.8-6.3-13.6-12.7-20.4-19.1H37.7c-2.3,2.2-4.6,4.5-6.9,6.7v200.1l8,8h160.9
		c9-9.8,17.9-19.7,26.8-29.5V46.8C223.7,44.6,220.9,42.4,218.1,40.1z M218.3,168c-2.7,3.4-5.4,7-8.1,10.4v40.6
		c-2.6,2.6-5.3,5.1-7.9,7.7H48.9c-2.6-2.6-5.2-5.2-7.8-7.9v-40.4c-2.6-3.4-5.3-7-7.9-10.4V95.5c2.6-2.3,5.3-4.5,7.9-6.8V50.3
		c2.6-2.6,5.2-5.3,7.8-7.9h153.3c2.7,2.7,5.3,5.4,8,8.1v38.3c2.6,2.2,5.3,4.5,8,6.8V168z"/>
</g>
<g transform="translate(-192,-180)">
	<path class="st3" d="M387.9,369.9c-5-9-13-21-16-23.1l-1-1l-4,3c-3,1-5,3-5,3c0,1,3,10,5,14c3,7,6,14,8,16c1,1,2,2,4,2c3,0,6-1,8-3
		c2-2,2-3,2-5C389.9,374,389.9,374,387.9,369.9z M250.6,353.9c0,0-1,6-3,13c-2,7-3,13-3,14c0,0,0,0,11-9c5-4,9-8,9-8
		C265.6,363.9,251.6,353.9,250.6,353.9z M303.7,300.8l-26.1,28.1l0,0l0,0c0-2,0-3,0-4c1-5,6-9,12-10c-2-4-1-7,0-8c0-1,0-1,1-2
		c1,0,1,0,2-1c1-1,2-1,3-2c0-1,2,0,2-2c1,0,2-1,2-1c-5-3-10-6-10-6s-7,12-15,24.1c3,3,4,6,4,9c0,7-5,12-14,16c0,1,0,1,0,2
		c-1,4-4,8-8,10c1,1,3,2,4,3c4,3,8,5,8,5s7-12,15-25.1c-1-2-2-1-4-1l-1-1c0-1,0-2,0-3l0,0l0,0l21-20l0,0
		C302.7,303.8,303.7,301.8,303.7,300.8L303.7,300.8z M300.7,300.8C300.7,300.8,300.7,301.8,300.7,300.8L300.7,300.8
		C300.7,299.8,300.7,300.8,300.7,300.8z M299.7,300.8C299.7,301.8,299.7,301.8,299.7,300.8C299.7,301.8,299.7,302.8,299.7,300.8
		L299.7,300.8z M299.7,302.8c-1,0,0-1-2,1c-1,1-7,7-7,7c1,0,1,1,1,0s6-6,6-7C298.7,303.8,300.7,302.8,299.7,302.8z M269.7,322.8
		c0,1-1,1-1,2l4-4L269.7,322.8z M259.6,338.9c0,1-1,1-1,2l8-7L259.6,338.9z M259.6,345.9l-5,5c0,0,1,1,2,1c1-2,3-3,3-3s2-1,2-2l2-3
		L259.6,345.9z M369.9,341.9c-1,0-2,1-3,1c1-1,1-2,2-2c0,0-1-1-1-2l-6,6c-1,0-3,1-4,1c1,2,2,3,2,3s9-5,10-6
		C369.9,342.9,369.9,341.9,369.9,341.9z M365.9,333.9l-10,8l0,0c0,0,0,1,1,1l9-8V333.9z M352.8,330.9
		C351.8,330.9,351.8,331.9,352.8,330.9C351.8,331.9,352.8,331.9,352.8,330.9C352.8,331.9,352.8,330.9,352.8,330.9z M354.8,328.9
		L354.8,328.9C353.8,328.9,353.8,329.9,354.8,328.9C353.8,329.9,354.8,329.9,354.8,328.9C354.8,329.9,354.8,328.9,354.8,328.9z
		 M354.8,328.9C355.8,328.9,355.8,328.9,354.8,328.9C355.8,328.9,355.8,328.9,354.8,328.9C355.8,328.9,355.8,328.9,354.8,328.9z
		 M362.9,327.9l-6,5l-4,4c0,1,1,2,2,3l2-2l8-7C363.9,328.9,362.9,328.9,362.9,327.9z M242.6,338.9L242.6,338.9
		C242.6,338.9,242.6,339.9,242.6,338.9C242.6,338.9,243.6,338.9,242.6,338.9z M244.6,337.9c-1,0-1,0-1,0
		C242.6,338.9,243.6,338.9,244.6,337.9L244.6,337.9z M246.6,334.9c-1,0-1,1-1,1c0,2,1,2,1,1C246.6,335.9,246.6,334.9,246.6,334.9z
		 M254.6,327.9C254.6,327.9,253.6,328.9,254.6,327.9C253.6,328.9,254.6,328.9,254.6,327.9C254.6,328.9,254.6,327.9,254.6,327.9z
		 M258.6,326.9c-1,0-1,0-1,0C256.6,327.9,257.6,327.9,258.6,326.9L258.6,326.9z M257.6,325.9c-2,2-2,2-1,1c1-1,2-1,2-2L257.6,325.9z
		 M259.6,328.9l-9,9l-5,4h5l1-1l5-5l4-7L259.6,328.9z M260.6,322.8c-2,1-2,2-1,1c1-1,2-1,2-2C262.6,321.8,260.6,322.8,260.6,322.8z
		 M262.6,311.8l-6,4l-2,2l-2,2l-1,1c0-1-1-2-1-3l6-6h-4l-5,4c-1-1-3-2-4-3l1-1l0,0h-4v4l2-2c1,1,3,2,4,3l-5,4v5l7-7c0,1,1,2,1,3l0,0
		l0,0l-8,7c0,1,0,2,0,3l3-3l4-4c-1,4-4,7-4,8c0,0,1,0,2-1c1-1,1-1,2-2c1-1,2-2,3-4c1-2,2-3,2-5l2-3l4-3l2-3l4-3
		C263.6,311.8,263.6,311.8,262.6,311.8z M264.6,317.8c0,0-1,1,0,2h1c0,0,0,0,0-1C266.6,317.8,264.6,317.8,264.6,317.8z M266.6,315.8
		h2l1-1L266.6,315.8z M269.7,311.8C269.7,311.8,269.7,312.8,269.7,311.8C269.7,312.8,269.7,312.8,269.7,311.8
		C270.7,311.8,270.7,311.8,269.7,311.8C270.7,311.8,270.7,311.8,269.7,311.8z M357.8,317.8l-10,10c0,1,1,1,1,2l9-9l0,0
		C357.8,318.8,357.8,317.8,357.8,317.8z M357.8,317.8l-10,10c0,1,1,1,1,2l9-9l0,0C357.8,318.8,357.8,317.8,357.8,317.8z
		 M357.8,317.8l-10,10c0,1,1,1,1,2l9-9l0,0C357.8,318.8,357.8,317.8,357.8,317.8z M357.8,317.8l-10,10c0,1,1,1,1,2l9-9l0,0
		C357.8,318.8,357.8,317.8,357.8,317.8z M357.8,317.8l-10,10c0,1,1,1,1,2l9-9l0,0C357.8,318.8,357.8,317.8,357.8,317.8z
		 M357.8,317.8l-10,10c0,1,1,1,1,2l9-9l0,0C357.8,318.8,357.8,317.8,357.8,317.8z M357.8,317.8l-10,10c0,1,1,1,1,2l9-9l0,0
		C357.8,318.8,357.8,317.8,357.8,317.8z M357.8,317.8l-10,10c0,1,1,1,1,2l9-9l0,0C357.8,318.8,357.8,317.8,357.8,317.8z
		 M357.8,317.8l-10,10c0,1,1,1,1,2l9-9l0,0C357.8,318.8,357.8,317.8,357.8,317.8z M357.8,317.8l-10,10c0,1,1,1,1,2l9-9l0,0
		C357.8,318.8,357.8,317.8,357.8,317.8z M290.7,331.9C290.7,331.9,289.7,331.9,290.7,331.9L290.7,331.9L290.7,331.9z M293.7,336.9
		c-1,0-2,1-4,1l-1-1c-1-1-1-1-1-1c-1,2-2,4-2,4s3,0,9,0C293.7,339.9,293.7,338.9,293.7,336.9z M320.8,328.9
		C320.8,329.9,319.8,329.9,320.8,328.9C320.8,329.9,320.8,329.9,320.8,328.9L320.8,328.9z M306.7,311.8l-1,1l-1,1l-2,2l-7,8l-1,2
		c-1,1-2,3-2,4l0,0l9-9c0,1,0,3,1,5c1,0,1,0,1,0l0,0c0-1-1-3,0-5c1-5,7-8,9-8c0,0,0,0,1,0l-5,6v1l1-1l2-2l5-5c1,0,3,0,5,0
		c1,0,2,0,3,0c1,0,1,0,2,0l0,0c0,0,0,0,0-1h-20V311.8z M334.8,313.8l-13,12l-1,1l1,1l14-13L334.8,313.8z M337.8,318.8l-9,8l-1,1
		l-6,7h1l6-6l6-6l4-3L337.8,318.8z M357.8,317.8l-10,10c0,1,1,1,1,2l9-9l0,0C357.8,318.8,357.8,317.8,357.8,317.8z M357.8,317.8
		l-10,10c0,1,1,1,1,2l9-9l0,0C357.8,318.8,357.8,317.8,357.8,317.8z M357.8,317.8l-10,10c0,1,1,1,1,2l9-9l0,0
		C357.8,318.8,357.8,317.8,357.8,317.8z M350.8,339.9c0,0,0,0-1-1l-2,2L350.8,339.9L350.8,339.9z M347.8,334.9L347.8,334.9
		L347.8,334.9L347.8,334.9z M357.8,317.8l-10,10c0,1,1,1,1,2l9-9l0,0C357.8,318.8,357.8,317.8,357.8,317.8z M344.8,329.9l-11,11h3
		l9-9C345.8,330.9,344.8,330.9,344.8,329.9z M357.8,317.8l-10,10c0,1,1,1,1,2l9-9l0,0C357.8,318.8,357.8,317.8,357.8,317.8z
		 M357.8,317.8l-10,10c0,1,1,1,1,2l9-9l0,0C357.8,318.8,357.8,317.8,357.8,317.8z M344.8,337.9c-1,0-1,1-1,1c0,1,1,2,1,1
		C344.8,338.9,344.8,337.9,344.8,337.9z M341.8,339.9C341.8,339.9,340.8,339.9,341.8,339.9L341.8,339.9
		C341.8,340.9,341.8,339.9,341.8,339.9z M357.8,317.8l-10,10c0,1,1,1,1,2l9-9l0,0C357.8,318.8,357.8,317.8,357.8,317.8z
		 M341.8,325.9l-2-2l-18,18h6l14-14C342.8,326.9,342.8,325.9,341.8,325.9z M357.8,317.8l-10,10c0,1,1,1,1,2l9-9l0,0
		C357.8,318.8,357.8,317.8,357.8,317.8z M357.8,317.8l-10,10c0,1,1,1,1,2l9-9l0,0C357.8,318.8,357.8,317.8,357.8,317.8z
		 M357.8,317.8l-10,10c0,1,1,1,1,2l9-9l0,0C357.8,318.8,357.8,317.8,357.8,317.8z M357.8,317.8l-10,10c0,1,1,1,1,2l9-9l0,0
		C357.8,318.8,357.8,317.8,357.8,317.8z M357.8,317.8l-10,10c0,1,1,1,1,2l9-9l0,0C357.8,318.8,357.8,317.8,357.8,317.8z
		 M357.8,317.8l-10,10c0,1,1,1,1,2l9-9l0,0C357.8,318.8,357.8,317.8,357.8,317.8z M357.8,317.8l-10,10c0,1,1,1,1,2l9-9l0,0
		C357.8,318.8,357.8,317.8,357.8,317.8z M357.8,317.8l-10,10c0,1,1,1,1,2l9-9l0,0C357.8,318.8,357.8,317.8,357.8,317.8z
		 M357.8,317.8l-10,10c0,1,1,1,1,2l9-9l0,0C357.8,318.8,357.8,317.8,357.8,317.8z M357.8,317.8l-10,10c0,1,1,1,1,2l9-9l0,0
		C357.8,318.8,357.8,317.8,357.8,317.8z M357.8,317.8l-10,10c0,1,1,1,1,2l9-9l0,0C357.8,318.8,357.8,317.8,357.8,317.8z
		 M357.8,317.8l-10,10c0,1,1,1,1,2l9-9l0,0C357.8,318.8,357.8,317.8,357.8,317.8z M361.9,311.8C362.9,311.8,362.9,311.8,361.9,311.8
		c0,1,0,1,0,1l0,0l-2,2l1,2v1l1,2c0-1,1-1,1-2c1-2,2-3,2-5l0,0h-3V311.8z M366.9,317.8L366.9,317.8
		C366.9,318.8,366.9,318.8,366.9,317.8C366.9,317.8,367.9,317.8,366.9,317.8z M370.9,316.8c-1,0-1,0-1,0
		C369.9,316.8,370.9,316.8,370.9,316.8S371.9,316.8,370.9,316.8z M369.9,314.8c-2,2-2,2-1,1c1-1,2-1,2-2
		C371.9,313.8,369.9,314.8,369.9,314.8z M374.9,311.8C373.9,311.8,373.9,311.8,374.9,311.8c-3,2-3,3-2,2
		C373.9,312.8,374.9,311.8,374.9,311.8L374.9,311.8z M389.9,311.8c0,1,0,2,0,3c0,7-5,13-14,16c0,1,0,1,0,2c-1,3-2,5-4,7l1,1h19
		v-29.1L389.9,311.8z M382.9,311.8l-10,6l-7,7c0,1,1,2,1,2l9-9L382.9,311.8L382.9,311.8z M368.9,331.9c0,0,0,1,1,1l10-8L368.9,331.9
		z M371.9,335.9l-1,1l1,2l1-1l2-3L371.9,335.9z M306.7,311.8l-1,1l-1,1l-2,2l-7,8l-1,2c-1,1-2,3-2,4l0,0l9-9c0,1,0,3,1,5
		c1,0,1,0,1,0l0,0c0-1-1-3,0-5c1-5,7-8,9-8c0,0,0,0,1,0l-5,6v1l1-1l2-2l5-5c1,0,3,0,5,0c1,0,2,0,3,0c1,0,1,0,2,0l0,0c0,0,0,0,0-1
		h-20V311.8z M306.7,311.8l-1,1l-1,1l-2,2l-7,8l-1,2c-1,1-2,3-2,4l0,0l9-9c0,1,0,3,1,5c1,0,1,0,1,0l0,0c0-1-1-3,0-5c1-5,7-8,9-8
		c0,0,0,0,1,0l-5,6v1l1-1l2-2l5-5c1,0,3,0,5,0c1,0,2,0,3,0c1,0,1,0,2,0l0,0c0,0,0,0,0-1h-20V311.8z M306.7,311.8l-1,1l-1,1l-2,2
		l-7,8l-1,2c-1,1-2,3-2,4l0,0l9-9c0,1,0,3,1,5c1,0,1,0,1,0l0,0c0-1-1-3,0-5c1-5,7-8,9-8c0,0,0,0,1,0l-5,6v1l1-1l2-2l5-5c1,0,3,0,5,0
		c1,0,2,0,3,0c1,0,1,0,2,0l0,0c0,0,0,0,0-1h-20V311.8z M306.7,311.8l-1,1l-1,1l-2,2l-7,8l-1,2c-1,1-2,3-2,4l0,0l9-9c0,1,0,3,1,5
		c1,0,1,0,1,0l0,0c0-1-1-3,0-5c1-5,7-8,9-8c0,0,0,0,1,0l-5,6v1l1-1l2-2l5-5c1,0,3,0,5,0c1,0,2,0,3,0c1,0,1,0,2,0l0,0c0,0,0,0,0-1
		h-20V311.8z M306.7,311.8l-1,1l-1,1l-2,2l-7,8l-1,2c-1,1-2,3-2,4l0,0l9-9c0,1,0,3,1,5c1,0,1,0,1,0l0,0c0-1-1-3,0-5c1-5,7-8,9-8
		c0,0,0,0,1,0l-5,6v1l1-1l2-2l5-5c1,0,3,0,5,0c1,0,2,0,3,0c1,0,1,0,2,0l0,0c0,0,0,0,0-1h-20V311.8z M306.7,311.8l-1,1l-1,1l-2,2
		l-7,8l-1,2c-1,1-2,3-2,4l0,0l9-9c0,1,0,3,1,5c1,0,1,0,1,0l0,0c0-1-1-3,0-5c1-5,7-8,9-8c0,0,0,0,1,0l-5,6v1l1-1l2-2l5-5c1,0,3,0,5,0
		c1,0,2,0,3,0c1,0,1,0,2,0l0,0c0,0,0,0,0-1h-20V311.8z M306.7,311.8l-1,1l-1,1l-2,2l-7,8l-1,2c-1,1-2,3-2,4l0,0l9-9c0,1,0,3,1,5
		c1,0,1,0,1,0l0,0c0-1-1-3,0-5c1-5,7-8,9-8c0,0,0,0,1,0l-5,6v1l1-1l2-2l5-5c1,0,3,0,5,0c1,0,2,0,3,0c1,0,1,0,2,0l0,0c0,0,0,0,0-1
		h-20V311.8z M306.7,311.8l-1,1l-1,1l-2,2l-7,8l-1,2c-1,1-2,3-2,4l0,0l9-9c0,1,0,3,1,5c1,0,1,0,1,0l0,0c0-1-1-3,0-5c1-5,7-8,9-8
		c0,0,0,0,1,0l-5,6v1l1-1l2-2l5-5c1,0,3,0,5,0c1,0,2,0,3,0c1,0,1,0,2,0l0,0c0,0,0,0,0-1h-20V311.8z M348.8,300.8l-11,10c0,0,0,1,1,1
		l10-10V300.8C349.8,301.8,348.8,301.8,348.8,300.8z M339.8,293.8C339.8,293.8,338.8,293.8,339.8,293.8c0,2,0,3,0,2
		C340.8,293.8,339.8,293.8,339.8,293.8z M327.8,263.7c-9-16-16-23.1-19-23.1c-2,1-1,6,2,15c2,6,8,19,14,31.1c2-1,4-1,6-1l-4,4
		c1,2,2,4,3,6l8-9c2,1,3,1,4,2c0,1,0,1,0,2c0,0-1,3,0,1c1-1,1-1,2-1C337.8,280.7,331.8,270.7,327.8,263.7z M348.8,299.8
		c-2,0-4,0-6,0c-3,0-6,2-9,3c0,0,0,1,1,1c1-1,2-1,2-1C338.8,301.8,342.8,299.8,348.8,299.8C348.8,300.8,348.8,299.8,348.8,299.8z
		 M359.9,321.8c-1,1-1,2-2,2C358.8,323.8,358.8,322.8,359.9,321.8C359.9,322.8,359.9,322.8,359.9,321.8L359.9,321.8z M355.8,314.8
		c-1-1-1-2-2-3l-9,7l-2,2c1,1,2,3,3,4L355.8,314.8L355.8,314.8z M351.8,305.8l-11,10c0,0,0,1,1,1l11-10
		C351.8,306.8,351.8,306.8,351.8,305.8z M357.8,317.8l-10,10c0,1,1,1,1,2l9-9l0,0C357.8,318.8,357.8,317.8,357.8,317.8z
		 M306.7,311.8l-1,1l-1,1l-2,2l-7,8l-1,2c-1,1-2,3-2,4l0,0l9-9c0,1,0,3,1,5c1,0,1,0,1,0l0,0c0-1-1-3,0-5c1-5,7-8,9-8c0,0,0,0,1,0
		l-5,6v1l1-1l2-2l5-5c1,0,3,0,5,0c1,0,2,0,3,0c1,0,1,0,2,0l0,0c0,0,0,0,0-1h-20V311.8z M306.7,311.8l-1,1l-1,1l-2,2l-7,8l-1,2
		c-1,1-2,3-2,4l0,0l9-9c0,1,0,3,1,5c1,0,1,0,1,0l0,0c0-1-1-3,0-5c1-5,7-8,9-8c0,0,0,0,1,0l-5,6v1l1-1l2-2l5-5c1,0,3,0,5,0
		c1,0,2,0,3,0c1,0,1,0,2,0l0,0c0,0,0,0,0-1h-20V311.8z M306.7,311.8l-1,1l-1,1l-2,2l-7,8l-1,2c-1,1-2,3-2,4l0,0l9-9c0,1,0,3,1,5
		c1,0,1,0,1,0l0,0c0-1-1-3,0-5c1-5,7-8,9-8c0,0,0,0,1,0l-5,6v1l1-1l2-2l5-5c1,0,3,0,5,0c1,0,2,0,3,0c1,0,1,0,2,0l0,0c0,0,0,0,0-1
		h-20V311.8z M306.7,311.8l-1,1l-1,1l-2,2l-7,8l-1,2c-1,1-2,3-2,4l0,0l9-9c0,1,0,3,1,5c1,0,1,0,1,0l0,0c0-1-1-3,0-5c1-5,7-8,9-8
		c0,0,0,0,1,0l-5,6v1l1-1l2-2l5-5c1,0,3,0,5,0c1,0,2,0,3,0c1,0,1,0,2,0l0,0c0,0,0,0,0-1h-20V311.8z M306.7,311.8l-1,1l-1,1l-2,2
		l-7,8l-1,2c-1,1-2,3-2,4l0,0l9-9c0,1,0,3,1,5c1,0,1,0,1,0l0,0c0-1-1-3,0-5c1-5,7-8,9-8c0,0,0,0,1,0l-5,6v1l1-1l2-2l5-5c1,0,3,0,5,0
		c1,0,2,0,3,0c1,0,1,0,2,0l0,0c0,0,0,0,0-1h-20V311.8z M306.7,311.8l-1,1l-1,1l-2,2l-7,8l-1,2c-1,1-2,3-2,4l0,0l9-9c0,1,0,3,1,5
		c1,0,1,0,1,0l0,0c0-1-1-3,0-5c1-5,7-8,9-8c0,0,0,0,1,0l-5,6v1l1-1l2-2l5-5c1,0,3,0,5,0c1,0,2,0,3,0c1,0,1,0,2,0l0,0c0,0,0,0,0-1
		h-20V311.8z M306.7,311.8l-1,1l-1,1l-2,2l-7,8l-1,2c-1,1-2,3-2,4l0,0l9-9c0,1,0,3,1,5c1,0,1,0,1,0l0,0c0-1-1-3,0-5c1-5,7-8,9-8
		c0,0,0,0,1,0l-5,6v1l1-1l2-2l5-5c1,0,3,0,5,0c1,0,2,0,3,0c1,0,1,0,2,0l0,0c0,0,0,0,0-1h-20V311.8z M306.7,278.7c-4-3-8-5-8-5
		s-2,3-4,6s-4,7-5,7l-1,1l8,5c2,1,3,2,4,3c2-1,4-1,6-1c0-1,1-2,2-3c2-3,4-6,4-7l1-2L306.7,278.7z M314.8,271.7c-3-3-7-5-10-4
		c-2,0-5,3-5,5c0,0,3,3,7,5c4,3,7,5,8,5c0,0,2-4,2-5C316.8,274.7,316.8,273.7,314.8,271.7z"/>
</g>
<path class="st3" d="M156.8,120.8L156.8,120.8L156.8,120.8L156.8,120.8z M128.8,148.9C128.8,149.9,127.8,149.9,128.8,148.9
	C128.8,149.9,128.8,149.9,128.8,148.9L128.8,148.9z"/>
<path class="st3" d="M169.9,137.8l-1-1"/>
<path class="st3" d="M128.8,149.9L128.8,149.9C127.8,149.9,128.8,149.9,128.8,149.9C128.8,148.9,128.8,148.9,128.8,149.9z"/>
<path class="st3" d="M117.7,130.8L117.7,130.8z"/>
<path class="st3" d="M49.6,131.8c0,0,1,0,2,1v-1H49.6z"/>
</svg>
