<?xml version="1.0" encoding="utf-8"?>
<!-- Generator: Adobe Illustrator 23.0.0, SVG Export Plug-In . SVG Version: 6.00 Build 0)  -->
<svg version="1.1" id="Layer_1" xmlns="http://www.w3.org/2000/svg" xmlns:xlink="http://www.w3.org/1999/xlink" x="0px" y="0px"
	 viewBox="0 0 16 16" style="enable-background:new 0 0 16 16;" xml:space="preserve">
<style type="text/css">
	.st0{fill:#F75049;}
</style>
<path class="st0" d="M12.7,8.3c0,0-0.1,0.1-0.1,0.1c-0.8,0.7-1.5,1.4-2.2,2c0.1-0.1,0.2-0.1,0.3-0.2c0.3-0.2,0.5-0.5,0.8-0.7
	c0.5-0.4,0.9-0.9,1.4-1.3C12.8,8.3,12.7,8.3,12.7,8.3z M12.7,8.3c0,0-0.1,0.1-0.1,0.1c-0.8,0.7-1.5,1.4-2.2,2
	c0.1-0.1,0.2-0.1,0.3-0.2c0.3-0.2,0.5-0.5,0.8-0.7c0.5-0.4,0.9-0.9,1.4-1.3C12.8,8.3,12.7,8.3,12.7,8.3z M12.7,8.3
	c0,0-0.1,0.1-0.1,0.1c-0.8,0.7-1.5,1.4-2.2,2c0.1-0.1,0.2-0.1,0.3-0.2c0.3-0.2,0.5-0.5,0.8-0.7c0.5-0.4,0.9-0.9,1.4-1.3
	C12.8,8.3,12.7,8.3,12.7,8.3z M12.7,8.3c0,0-0.1,0.1-0.1,0.1c-0.8,0.7-1.5,1.4-2.2,2c0.1-0.1,0.2-0.1,0.3-0.2
	c0.3-0.2,0.5-0.5,0.8-0.7c0.5-0.4,0.9-0.9,1.4-1.3C12.8,8.3,12.7,8.3,12.7,8.3z M12.7,8.3c0,0-0.1,0.1-0.1,0.1
	c-0.8,0.7-1.5,1.4-2.2,2c0.1-0.1,0.2-0.1,0.3-0.2c0.3-0.2,0.5-0.5,0.8-0.7c0.5-0.4,0.9-0.9,1.4-1.3C12.8,8.3,12.7,8.3,12.7,8.3z
	 M12.7,8.3c0,0-0.1,0.1-0.1,0.1c-0.8,0.7-1.5,1.4-2.2,2c0.1-0.1,0.2-0.1,0.3-0.2c0.3-0.2,0.5-0.5,0.8-0.7c0.5-0.4,0.9-0.9,1.4-1.3
	C12.8,8.3,12.7,8.3,12.7,8.3z M12.7,8.3c0,0-0.1,0.1-0.1,0.1c-0.8,0.7-1.5,1.4-2.2,2c0.1-0.1,0.2-0.1,0.3-0.2
	c0.3-0.2,0.5-0.5,0.8-0.7c0.5-0.4,0.9-0.9,1.4-1.3C12.8,8.3,12.7,8.3,12.7,8.3z M12.7,8.3c0,0-0.1,0.1-0.1,0.1
	c-0.8,0.7-1.5,1.4-2.2,2c0.1-0.1,0.2-0.1,0.3-0.2c0.3-0.2,0.5-0.5,0.8-0.7c0.5-0.4,0.9-0.9,1.4-1.3C12.8,8.3,12.7,8.3,12.7,8.3z
	 M12.7,8.3c0,0-0.1,0.1-0.1,0.1c-0.8,0.7-1.5,1.4-2.2,2c0.1-0.1,0.2-0.1,0.3-0.2c0.3-0.2,0.5-0.5,0.8-0.7c0.5-0.4,0.9-0.9,1.4-1.3
	C12.8,8.3,12.7,8.3,12.7,8.3z M12.7,8.3c0,0-0.1,0.1-0.1,0.1c-0.8,0.7-1.5,1.4-2.2,2c0.1-0.1,0.2-0.1,0.3-0.2
	c0.3-0.2,0.5-0.5,0.8-0.7c0.5-0.4,0.9-0.9,1.4-1.3C12.8,8.3,12.7,8.3,12.7,8.3z M15.8,6c0-0.1-0.2,0-0.4-0.1
	c-0.1-0.1-0.1-0.2-0.2-0.3c-0.2-0.1-0.8,0.3-0.8,0.3c0,0,0.2-0.2,0.4-0.4C15,5.3,15.3,5,15.2,4.8C15.2,4.7,15,4.7,15,4.6
	c0-0.2,0.3-0.3,0.3-0.5c0-0.1-0.1-0.2-0.2-0.2c-0.2-0.1-0.5,0.2-0.5,0.1c0,0,0.2-0.1,0.3-0.3c0,0,0.1-0.2,0-0.3
	c0-0.1-0.2-0.1-0.2-0.1c-0.1,0-0.1,0.1-0.1,0c0,0,0,0,0-0.1c0-0.1-0.2-0.2-0.3-0.2c-0.3,0-0.6,0.3-0.6,0.3c0,0,0.3-0.3,0.2-0.5
	c0-0.1-0.1-0.2-0.2-0.2c-0.2,0-0.2,0.2-0.3,0.2c-0.1,0,0.1-0.4-0.1-0.5c-0.1,0-0.2,0.1-0.3,0c-0.1,0-0.1-0.1-0.2-0.1
	c-0.2-0.1-0.5,0.3-0.8,0.6c-0.1,0.1-0.4,0.3-0.7,0.5c0.2-0.2,0.3-0.3,0.4-0.5C11.9,2.6,12,2.5,12,2.3c0-0.1,0-0.2-0.1-0.3
	c-0.1,0-0.2,0.1-0.6,0.4c-0.1,0.1-0.2,0.1-0.3,0.2c0,0,0.2-0.2,0.1-0.4c0,0,0-0.1-0.1-0.2c-0.3-0.2-0.7-0.1-0.7-0.1
	c-0.1,0-0.1,0-0.2,0.1L8.9,3.7C9,3.6,9.1,3.5,9.3,3.4C9.1,3.5,8.9,3.7,8.8,3.8L7.6,5.5C7.7,5.4,7.8,5.2,8,5.1c0.5-0.5,1-0.9,1.4-1.2
	C9.2,4.2,8.9,4.5,8.6,4.8C8.4,5,8.2,5.2,8.1,5.3l2-0.7L9.4,5.9C10,5.4,10.5,5,11,4.6C10.6,5,10.2,5.4,9.7,5.9C9.5,6,9.4,6.2,9.2,6.3
	L8.8,7.2C9,7,9.3,6.8,9.5,6.5c0.7-0.6,1.3-1.1,1.9-1.6c-0.4,0.4-0.9,0.9-1.3,1.3c-0.5,0.4-1,0.9-1.4,1.3l0.6-0.2l0,0.2
	c0.2-0.2,0.4-0.4,0.6-0.6c1.6-1.5,3.3-2.7,3.3-2.6c0,0.1-0.7,0.8-3.3,3.3c0,0-0.1,0.1-0.1,0.1L9.4,8.3c0.5-0.5,1-1,1.6-1.5
	c0.5-0.5,1.1-0.9,1.6-1.3C12,6,11.4,6.6,10.8,7.2c-0.5,0.5-1.1,1-1.6,1.5l-0.9,2.1c0.9-0.9,1.9-1.8,2.9-2.7C12,7.4,12.8,6.7,13.7,6
	c-0.7,0.6-1.4,1.3-2.1,1.9c-1.1,1-2.2,2-3.3,2.9l-0.2,0.3v0L8,11.6l0.2-1.9C8.1,9.8,8,9.9,7.9,10C8,9.9,8.1,9.7,8.2,9.6L8.3,9
	c-1.1,1.1-2.1,2-2.8,2.7c0,0.2,0,0.3,0.1,0.3c0.1,0.1,0.3-0.1,0.5,0c0.1,0,0.2,0.1,0.2,0.3c0,0.1,0,0.2,0.1,0.2c0,0,0.1,0,0.1,0.1
	c0.1,0.1,0.1,0.2,0.2,0.3c0.1,0.1,0.2,0,0.3,0.1c0,0,0,0.1,0,0.2c0,0.1,0.1,0.1,0.1,0.1c0,0.1-0.2,0.2-0.2,0.4c0,0.1,0,0.1,0,0.3
	c0,0.3-0.3,0.3-0.3,0.6c0,0.1,0.1,0.3,0.3,0.3c0.2,0,0.3-0.3,0.5-0.3c0.3,0,0.4,0.4,0.6,0.3c0.2,0,0.2-0.2,0.4-0.2
	c0.1,0,0.2,0.1,0.3,0c0.1,0,0.1-0.1,0.2-0.2c0,0,0.1,0,0.1,0c0.2,0,0.3-0.2,0.4-0.5c0.1-0.2,0-0.3,0.1-0.5c0.1-0.1,0.2-0.2,0.2-0.2
	c0.3-0.2,0.7-0.6,1.1-1c0.5-0.5,0.5-0.7,0.9-0.8c0.1,0,0.2-0.1,0.3-0.2c0.2-0.2,0.3-0.4,0.3-0.5c0.3-0.5,0.5-0.5,1-1.2
	c0,0,0.1-0.2,0.1-0.2c-0.1,0-0.7,0.7-0.9,0.6c0,0,0-0.1,0-0.2c0-0.3,0.5-0.5,1.1-1c0.2-0.1,0.1-0.1,0.3-0.3c0.5-0.4,1-0.8,1.2-1.1
	C15,7.2,15,7,15,7c0-0.1,0-0.1,0-0.1c0.1-0.2,0.1-0.2,0.4-0.5C15.8,6.1,15.8,6,15.8,6z M12.3,6.6c-1,0.9-1.9,1.7-2.8,2.3
	c0.7-0.7,1.4-1.3,2.2-2c0.7-0.6,1.3-1.1,2-1.6C13.2,5.7,12.8,6.2,12.3,6.6z M8.3,11.6c0.7-0.8,1.5-1.6,2.5-2.5
	c0.8-0.7,1.7-1.3,2.4-1.8c-0.7,0.6-1.3,1.2-2,1.7C10.2,9.9,9.2,10.8,8.3,11.6z M13.1,8.2c-0.9,0.8-1.7,1.5-2.5,2.1
	c-0.7,0.6-1.3,1.1-2,1.6c0.7-0.7,1.4-1.4,2.2-2c0.6-0.5,1.1-1,1.7-1.4c-0.8,0.7-1.5,1.4-2.2,2c0.1-0.1,0.2-0.1,0.3-0.2
	c0.3-0.2,0.5-0.5,0.8-0.7c0.5-0.4,0.9-0.9,1.4-1.3c0.6-0.5,1.1-0.9,1.7-1.4C14.1,7.3,13.6,7.7,13.1,8.2z M7.3,8.8l0-0.2l0,0l0.2-0.8
	C7.3,7.9,7.1,8,6.9,8.2C7.1,8,7.4,7.7,7.6,7.5l0.3-1.1L6.7,6.7C6.7,6.7,6.6,6.8,6.5,6.8c0,0,0.1-0.1,0.1-0.2L6,6.8l0.2-0.4
	C5.8,6.8,5.4,7.3,5,7.7c0.4-0.5,0.8-1,1.3-1.5L7,4.5C6.9,4.6,6.8,4.7,6.8,4.7C6.6,5,5.8,5.8,3.7,7.8c2-2.1,3-3.2,3.5-3.7l0,0
	C7.2,4,7.3,3.9,7.4,3.8l0,0c0-0.1,0.1-0.1,0.1-0.1c0,0,0,0,0,0c0,0,0.1-0.3,0-0.3c0,0,0,0,0,0c0,0-0.1,0-0.1-0.1c0,0,0-0.1,0-0.1
	C7.3,3,7.5,3,7.5,3c0,0-0.1,0-0.1-0.1C7.2,2.8,7.2,2.8,7.1,2.8c-0.1,0-0.3,0-0.4,0.1C6.6,2.9,6.5,3,6.5,3c0,0,0-0.1,0-0.2
	c0-0.1-0.1,0-0.2,0C6.1,2.8,6,3,5.9,2.9c0,0,0-0.1,0-0.2c0-0.1-0.1,0-0.2-0.1C5.6,2.5,5.6,2.5,5.5,2.3c0-0.1-0.1-0.2-0.2-0.2
	c-0.1,0-0.2,0-0.3,0C4.8,2,4.8,1.9,4.6,1.9c-0.1,0-0.2,0-0.3,0.1C4.2,2,4.2,2.1,4.1,2.1C4,2.1,4,2,3.8,2C3.7,2,3.7,2,3.6,2
	C3.5,2,3.6,2.2,3.5,2.3c0,0-0.1,0-0.2,0c-0.1,0,0-0.1-0.1-0.1C3.2,2,2.6,2.2,2.5,2.5c0,0.1-0.1,0.1-0.1,0.2c-0.1,0.1-0.2,0-0.3,0
	c-0.2,0-0.3,0.1-0.7,0.6c0,0-0.1,0.1-0.3,0.4C0.5,4.3,0.4,4.4,0.4,4.5c0,0.3,0,0.4,0,0.4c0,0.1,0,0.2,0,0.2c0,0-0.1,0-0.1,0.1
	c-0.1,0.1,0,0.2,0,0.5c0,0,0,0,0,0.2c-0.1,0.3-0.1,0.4,0,0.4c0,0,0.1,0,0.2,0c0.1,0,0.2,0,0.2-0.1C0.9,6,1.1,5.7,1.4,5.5
	C1.3,5.7,1.2,5.8,1.1,5.9C1,6,0.9,6.2,0.8,6.3c0,0.1-0.1,0.1-0.1,0.2c0,0.1-0.1,0.3,0,0.5c0,0.1,0.1,0.1,0.1,0.2c0,0.1,0,0.2,0,0.2
	c0,0,0.1,0,0.1,0.1c0.1,0.1,0,0.2,0,0.3C0.9,8,0.9,7.9,1,8c0,0.2,0,0.2,0,0.4C1,8.6,1,8.6,1,8.6c0.1,0.1,0.2,0,0.3,0
	c0.1,0.1,0.1,0.2,0.2,0.2c0.1,0,0.1,0,0.2,0c0,0,0.2,0,0.2,0.1C2,9,1.9,9.1,1.8,9.2c-0.2,0.1-0.5,0-0.5,0c0,0,0.1,0.1,0.1,0.2
	C2,9.9,2,10,2.2,10.1c0.2,0.1,0.2,0.1,0.4,0.2c0.3,0.2,0.6,0.4,0.7,0.6c0,0.1-0.1,0.2-0.1,0.4c0,0.1,0.1,0.3,0.2,0.4
	c0.1,0,0.2-0.1,0.4-0.1c0.2,0,0.2,0.1,0.4,0.2c0.2,0,0.3-0.3,0.5-0.2c0.1,0,0.1,0.1,0.2,0.2c0.1,0,0.2,0,0.3,0C5.8,11,6.8,10,8,8.8
	c0.2-0.2,0.3-0.3,0.4-0.4v0L7.3,8.8z M5.5,5.5C5.3,5.7,5.1,5.9,4.9,6C5,5.8,5.2,5.6,5.5,5.5c0-0.1,0.1-0.2,0.2-0.2
	C5.6,5.3,5.6,5.4,5.5,5.5z M5.4,4.8c0.3-0.3,0.6-0.6,0.9-0.8C6,4.2,5.8,4.5,5.4,4.8C5.3,5,5.1,5.2,4.9,5.3C5,5.1,5.2,5,5.4,4.8z
	 M2,4.7C2,4.6,2.1,4.5,2.3,4.3c0-0.1,0.1-0.1,0.2-0.1c0,0.1-0.1,0.1-0.1,0.2C2.2,4.5,2.1,4.6,2,4.7z M2.5,9.7
	C2.4,9.7,2.4,9.8,2.3,9.8C2.3,9.8,2.3,9.7,2.5,9.7c0-0.2,0.1-0.2,0.1-0.2C2.6,9.5,2.6,9.6,2.5,9.7z M2.3,6.8
	c0.2-0.2,0.4-0.5,0.6-0.7c0,0.1,0,0.1,0,0.2C2.7,6.5,2.5,6.7,2.3,6.8z M3,10.1C3,10.1,2.9,10,3,10C3,9.9,3,9.9,3.1,9.9
	c0.1,0,0.2-0.1,0.3-0.3c0,0.1,0,0.2-0.1,0.3c0,0.1-0.1,0.1-0.1,0.1c0,0,0.1,0,0.1,0.1c0,0,0,0.1,0,0.2c0,0.2,0.1,0.3,0.1,0.3
	C3.3,10.5,3.3,10.4,3,10.1z M3.3,3.6c0-0.1,0.1-0.3,0.3-0.4c0,0,0.1-0.1,0.2-0.1c0,0-0.1,0.1-0.1,0.1C3.5,3.5,3.4,3.6,3.3,3.6z
	 M12.7,8.3c0,0-0.1,0.1-0.1,0.1c-0.8,0.7-1.5,1.4-2.2,2c0.1-0.1,0.2-0.1,0.3-0.2c0.3-0.2,0.5-0.5,0.8-0.7c0.5-0.4,0.9-0.9,1.4-1.3
	C12.8,8.3,12.7,8.3,12.7,8.3z M12.7,8.3c0,0-0.1,0.1-0.1,0.1c-0.8,0.7-1.5,1.4-2.2,2c0.1-0.1,0.2-0.1,0.3-0.2
	c0.3-0.2,0.5-0.5,0.8-0.7c0.5-0.4,0.9-0.9,1.4-1.3C12.8,8.3,12.7,8.3,12.7,8.3z M12.7,8.3c0,0-0.1,0.1-0.1,0.1
	c-0.8,0.7-1.5,1.4-2.2,2c0.1-0.1,0.2-0.1,0.3-0.2c0.3-0.2,0.5-0.5,0.8-0.7c0.5-0.4,0.9-0.9,1.4-1.3C12.8,8.3,12.7,8.3,12.7,8.3z
	 M12.7,8.3c0,0-0.1,0.1-0.1,0.1c-0.8,0.7-1.5,1.4-2.2,2c0.1-0.1,0.2-0.1,0.3-0.2c0.3-0.2,0.5-0.5,0.8-0.7c0.5-0.4,0.9-0.9,1.4-1.3
	C12.8,8.3,12.7,8.3,12.7,8.3z M12.7,8.3c0,0-0.1,0.1-0.1,0.1c-0.8,0.7-1.5,1.4-2.2,2c0.1-0.1,0.2-0.1,0.3-0.2
	c0.3-0.2,0.5-0.5,0.8-0.7c0.5-0.4,0.9-0.9,1.4-1.3C12.8,8.3,12.7,8.3,12.7,8.3z M12.7,8.3c0,0-0.1,0.1-0.1,0.1
	c-0.8,0.7-1.5,1.4-2.2,2c0.1-0.1,0.2-0.1,0.3-0.2c0.3-0.2,0.5-0.5,0.8-0.7c0.5-0.4,0.9-0.9,1.4-1.3C12.8,8.3,12.7,8.3,12.7,8.3z
	 M12.7,8.3c0,0-0.1,0.1-0.1,0.1c-0.8,0.7-1.5,1.4-2.2,2c0.1-0.1,0.2-0.1,0.3-0.2c0.3-0.2,0.5-0.5,0.8-0.7c0.5-0.4,0.9-0.9,1.4-1.3
	C12.8,8.3,12.7,8.3,12.7,8.3z M12.7,8.3c0,0-0.1,0.1-0.1,0.1c-0.8,0.7-1.5,1.4-2.2,2c0.1-0.1,0.2-0.1,0.3-0.2
	c0.3-0.2,0.5-0.5,0.8-0.7c0.5-0.4,0.9-0.9,1.4-1.3C12.8,8.3,12.7,8.3,12.7,8.3z M12.7,8.3c0,0-0.1,0.1-0.1,0.1
	c-0.8,0.7-1.5,1.4-2.2,2c0.1-0.1,0.2-0.1,0.3-0.2c0.3-0.2,0.5-0.5,0.8-0.7c0.5-0.4,0.9-0.9,1.4-1.3C12.8,8.3,12.7,8.3,12.7,8.3z
	 M12.7,8.3c0,0-0.1,0.1-0.1,0.1c-0.8,0.7-1.5,1.4-2.2,2c0.1-0.1,0.2-0.1,0.3-0.2c0.3-0.2,0.5-0.5,0.8-0.7c0.5-0.4,0.9-0.9,1.4-1.3
	C12.8,8.3,12.7,8.3,12.7,8.3z"/>
<path class="st0" d="M7.5,3.7c0,0-0.1,0.1-0.3,0.4l0.3-0.7c0,0,0,0,0,0C7.5,3.4,7.5,3.7,7.5,3.7C7.5,3.7,7.5,3.7,7.5,3.7z"/>
<path class="st0" d="M7.5,3.7C7.4,3.7,7.4,3.7,7.5,3.7l0-0.3C7.5,3.4,7.5,3.7,7.5,3.7C7.5,3.7,7.5,3.7,7.5,3.7z"/>
</svg>
