<?xml version="1.0" encoding="utf-8"?>
<!-- Generator: Adobe Illustrator 23.0.0, SVG Export Plug-In . SVG Version: 6.00 Build 0)  -->
<svg version="1.1" id="Layer_1" xmlns="http://www.w3.org/2000/svg" xmlns:xlink="http://www.w3.org/1999/xlink" x="0px" y="0px"
	 viewBox="0 0 16 16" style="enable-background:new 0 0 16 16;" xml:space="preserve">
<style type="text/css">
	.st0{fill:#F75049;}
</style>
<g transform="translate(-332 -80)">
	<path class="st0" d="M341,83.3v0.6c0.3-0.3,0.7-0.6,1-0.8v-0.7C341.7,82.6,341.4,82.9,341,83.3z M341,83.3v0.6
		c0.3-0.3,0.7-0.6,1-0.8v-0.7C341.7,82.6,341.4,82.9,341,83.3z M341,83.3v0.6c0.3-0.3,0.7-0.6,1-0.8v-0.7
		C341.7,82.6,341.4,82.9,341,83.3z M342.9,86.5l-0.1,0.1c-0.6,0.5-1.2,1.1-1.8,1.6v0.2c0.1-0.1,0.1-0.1,0.2-0.2
		c0.7-0.6,1.3-1.3,2-1.9C343.1,86.4,343,86.5,342.9,86.5z M344,80h-2c-1,0-1,1-1,1v1.5c0.4-0.3,0.7-0.6,1-0.8V81h0.9
		c0.4-0.3,0.7-0.4,0.7-0.4s-0.1,0.1-0.3,0.4h0.7v1.4c0.1-0.1,0.2-0.2,0.3-0.3c-0.1,0.1-0.2,0.2-0.3,0.3V83h-0.6
		c-0.3,0.3-0.7,0.7-1.1,1c-0.5,0.4-0.9,0.8-1.4,1.2V86c1.2-1,2.3-2,3.4-2.9c-1,0.9-2,1.9-3,2.8c-0.1,0.1-0.3,0.2-0.4,0.4V87
		c0.9-0.7,1.8-1.4,2.7-1.9c-0.9,0.8-1.8,1.6-2.7,2.3v0.7c0.7-0.5,1.3-1.1,1.9-1.6c0.7-0.6,1.4-1.2,2.1-1.7V81C345,80,344,80,344,80z
		 M341,83.3v0.6c0.3-0.3,0.7-0.6,1-0.8v-0.7C341.7,82.6,341.4,82.9,341,83.3z M342.1,83c-0.4,0.4-0.8,0.8-1.1,1.1v0.7
		c0.2-0.1,0.3-0.3,0.5-0.4c0.6-0.5,1.1-1,1.7-1.4C343.2,83,342.1,83,342.1,83z M344.5,86.7c-0.3,0.3-0.2,0.2-0.4,0.4
		c-0.9,0.8-1.6,1-1.7,1.5v0.2c0.2,0.2,1.2-0.9,1.3-0.8c0,0-0.1,0.3-0.2,0.3c-0.7,1.1-1.1,1.1-1.5,1.8c-0.1,0.2-0.2,0.5-0.5,0.7
		c-0.2,0.2-0.3,0.2-0.4,0.3c0,0-0.1,0-0.1,0.1c0.1,0.4,0.2,0.8,0.4,1.3c0.3,0.9,0.7,1.8,1.1,2.7L343,96l0.5-0.9
		c0.4-0.9,0.8-1.8,1.1-2.7c0.2-0.7,0.4-1.1,0.4-1.3V91v-4.9C344.8,86.4,344.7,86.5,344.5,86.7z M343.6,92.1
		c-0.1,0.3-0.2,0.6-0.4,0.9h-0.4c-0.1-0.3-0.3-0.7-0.4-0.9c-0.2-0.7-0.4-1.1-0.4-1.1h2C344,91,343.8,91.4,343.6,92.1z M341,83.3v0.6
		c0.3-0.3,0.7-0.6,1-0.8v-0.7C341.7,82.6,341.4,82.9,341,83.3z M341,83.3v0.6c0.3-0.3,0.7-0.6,1-0.8v-0.7
		C341.7,82.6,341.4,82.9,341,83.3z"/>
	<path class="st0" d="M338,86v0.7c0.2-0.2,0.5-0.5,0.7-0.7H338z M338.7,84.5c-0.2,0.2-0.4,0.4-0.6,0.5h0.8v0.7c0.3-0.3,0.7-0.6,1-1
		v-1.4C339.6,83.7,339.2,84,338.7,84.5z M338,87h0.7c0.4-0.4,0.8-0.8,1.3-1.2v-0.6C339.3,85.8,338.7,86.4,338,87z M338,90v0.8
		c0.3-0.3,0.5-0.5,0.8-0.8H338z M338,88v0.8c0.3-0.3,0.5-0.5,0.8-0.8H338z M338,86v0.7c0.2-0.2,0.5-0.5,0.7-0.7H338z M338.7,84.5
		c-0.2,0.2-0.4,0.4-0.6,0.5h0.8v0.7c0.3-0.3,0.7-0.6,1-1v-1.4C339.6,83.7,339.2,84,338.7,84.5z M338,87h0.7c0.4-0.4,0.8-0.8,1.3-1.2
		v-0.6C339.3,85.8,338.7,86.4,338,87z M338,90v0.8c0.3-0.3,0.5-0.5,0.8-0.8H338z M338,88v0.8c0.3-0.3,0.5-0.5,0.8-0.8H338z
		 M339.6,89.7c0.2-0.1,0.3-0.2,0.4-0.3v-0.1C339.8,89.4,339.7,89.5,339.6,89.7z M338,90v0.8c0.3-0.3,0.5-0.5,0.8-0.8H338z M338,88
		v0.8c0.3-0.3,0.5-0.5,0.8-0.8H338z M338,86v0.7c0.2-0.2,0.5-0.5,0.7-0.7H338z M338,87h0.7c0.4-0.4,0.8-0.8,1.3-1.2v-0.6
		C339.3,85.8,338.7,86.4,338,87z M339.6,89.7c0.2-0.1,0.3-0.2,0.4-0.3v-0.1C339.8,89.4,339.7,89.5,339.6,89.7z M338,88v0.8
		c0.3-0.3,0.5-0.5,0.8-0.8H338z M338.8,87h0.2v0.8c0.3-0.3,0.7-0.6,1-0.9V86C339.6,86.4,339.2,86.7,338.8,87z M338,86v0.7
		c0.2-0.2,0.5-0.5,0.7-0.7H338z M338,91L338,91h1v1h-1v1h1v1h-3v-6c-0.3,0.3-0.7,0.6-1,1v6h5v-5.7C339.3,89.9,338.7,90.5,338,91z
		 M336,85.2c-0.3,0.3-0.7,0.5-1,0.8v2.4c0.3-0.3,0.7-0.7,1-1v-1.1c-0.3,0.2-0.6,0.4-0.8,0.7c0.3-0.3,0.5-0.5,0.8-0.8V85.2z
		 M338.7,84.5c-0.2,0.2-0.4,0.4-0.6,0.5h0.8v0.7c0.3-0.3,0.7-0.6,1-1v-1.4C339.6,83.7,339.2,84,338.7,84.5z M336,81.2
		c-0.3,0.3-0.7,0.6-1,1V83c0.3-0.4,0.6-0.7,1-1.1V81.2L336,81.2z M335,80L335,80h0.1H335z M335.8,80l-0.8,0.5v1.4
		c0,0,0.1-0.1,0.2-0.1c0.7-0.6,1.3-1.2,1.9-1.8H335.8z M338.2,80c-0.3,0.3-0.6,0.7-0.9,1h1.7v1h-1v1h0.2c0.6-0.5,1.2-1,1.8-1.5V80
		H338.2z M338.6,82.9C338.6,83,338.6,83,338.6,82.9L339,83v0.7c0.1-0.1,0.2-0.1,0.3-0.2c0.3-0.2,0.5-0.5,0.8-0.7v-1.2
		C339.6,82.1,339.1,82.5,338.6,82.9z M337.2,80c-0.3,0.3-0.7,0.7-1,1h0.8c0.4-0.4,0.8-0.7,1.2-1H337.2z M335,83.4v2.5
		c0.3-0.3,0.7-0.6,1-1v-2.5C335.7,82.8,335.3,83.1,335,83.4z M338.3,84c-0.1,0.1-0.2,0.1-0.3,0.2v0.4c0.2-0.2,0.4-0.4,0.7-0.6H338.3
		z M338,87h0.7c0.4-0.4,0.8-0.8,1.3-1.2v-0.6C339.3,85.8,338.7,86.4,338,87z M338,88.9L338,88.9l0.7,0.1c0.4-0.4,0.9-0.8,1.3-1.2
		v-0.6C339.3,87.8,338.7,88.4,338,88.9z M339,89.1v0.7c0.3-0.3,0.7-0.6,1-0.9v-0.7C339.7,88.5,339.3,88.8,339,89.1z M338,90v0.8
		c0.3-0.3,0.5-0.5,0.8-0.8H338z M338,88v0.8c0.3-0.3,0.5-0.5,0.8-0.8H338z M339.6,89.7c0.2-0.1,0.3-0.2,0.4-0.3v-0.1
		C339.8,89.4,339.7,89.5,339.6,89.7z M338,90v0.8c0.3-0.3,0.5-0.5,0.8-0.8H338z M338,86v0.7c0.2-0.2,0.5-0.5,0.7-0.7H338z
		 M338.7,84.5c-0.2,0.2-0.4,0.4-0.6,0.5h0.8v0.7c0.3-0.3,0.7-0.6,1-1v-1.4C339.6,83.7,339.2,84,338.7,84.5z M338,87h0.7
		c0.4-0.4,0.8-0.8,1.3-1.2v-0.6C339.3,85.8,338.7,86.4,338,87z M338,88v0.8c0.3-0.3,0.5-0.5,0.8-0.8H338z M338,90v0.8
		c0.3-0.3,0.5-0.5,0.8-0.8H338z M338,86v0.7c0.2-0.2,0.5-0.5,0.7-0.7H338z M338.7,84.5c-0.2,0.2-0.4,0.4-0.6,0.5h0.8v0.7
		c0.3-0.3,0.7-0.6,1-1v-1.4C339.6,83.7,339.2,84,338.7,84.5z M338,87h0.7c0.4-0.4,0.8-0.8,1.3-1.2v-0.6
		C339.3,85.8,338.7,86.4,338,87z"/>
</g>
<path class="st0" d="M10.9,6.5l-0.1,0.1C10.2,7.2,9.6,7.7,9,8.3v0.2c0.1-0.1,0.1-0.1,0.2-0.2c0.7-0.6,1.3-1.3,2-1.9
	C11.1,6.4,11,6.5,10.9,6.5z M7.6,9.7C7.7,9.5,7.9,9.4,8,9.3V9.2C7.8,9.4,7.7,9.5,7.6,9.7z M10.9,6.5l-0.1,0.1
	C10.2,7.2,9.6,7.7,9,8.3v0.2c0.1-0.1,0.1-0.1,0.2-0.2c0.7-0.6,1.3-1.3,2-1.9C11.1,6.4,11,6.5,10.9,6.5z M7.6,9.7
	C7.7,9.5,7.9,9.4,8,9.3V9.2C7.8,9.4,7.7,9.5,7.6,9.7z M10.9,6.5l-0.1,0.1C10.2,7.2,9.6,7.7,9,8.3v0.2c0.1-0.1,0.1-0.1,0.2-0.2
	c0.7-0.6,1.3-1.3,2-1.9C11.1,6.4,11,6.5,10.9,6.5z M7.6,9.7C7.7,9.5,7.9,9.4,8,9.3V9.2C7.8,9.4,7.7,9.5,7.6,9.7z M10.9,6.5l-0.1,0.1
	C10.2,7.2,9.6,7.7,9,8.3v0.2c0.1-0.1,0.1-0.1,0.2-0.2c0.7-0.6,1.3-1.3,2-1.9C11.1,6.4,11,6.5,10.9,6.5z M7.6,9.7
	C7.7,9.5,7.9,9.4,8,9.3V9.2C7.8,9.4,7.7,9.5,7.6,9.7z M10.9,6.5l-0.1,0.1C10.2,7.2,9.6,7.7,9,8.3v0.2c0.1-0.1,0.1-0.1,0.2-0.2
	c0.7-0.6,1.3-1.3,2-1.9C11.1,6.4,11,6.5,10.9,6.5z M7.6,9.7C7.7,9.5,7.9,9.4,8,9.3V9.2C7.8,9.4,7.7,9.5,7.6,9.7z M10.9,6.5l-0.1,0.1
	C10.2,7.2,9.6,7.7,9,8.3v0.2c0.1-0.1,0.1-0.1,0.2-0.2c0.7-0.6,1.3-1.3,2-1.9C11.1,6.4,11,6.5,10.9,6.5z M7.6,9.7
	C7.7,9.5,7.9,9.4,8,9.3V9.2C7.8,9.4,7.7,9.5,7.6,9.7z M10.9,6.5l-0.1,0.1C10.2,7.2,9.6,7.7,9,8.3v0.2c0.1-0.1,0.1-0.1,0.2-0.2
	c0.7-0.6,1.3-1.3,2-1.9C11.1,6.4,11,6.5,10.9,6.5z M7.6,9.7C7.7,9.5,7.9,9.4,8,9.3V9.2C7.8,9.4,7.7,9.5,7.6,9.7z M10.9,6.5l-0.1,0.1
	C10.2,7.2,9.6,7.7,9,8.3v0.2c0.1-0.1,0.1-0.1,0.2-0.2c0.7-0.6,1.3-1.3,2-1.9C11.1,6.4,11,6.5,10.9,6.5z M7.6,9.7
	C7.7,9.5,7.9,9.4,8,9.3V9.2C7.8,9.4,7.7,9.5,7.6,9.7z M10.9,6.5l-0.1,0.1C10.2,7.2,9.6,7.7,9,8.3v0.2c0.1-0.1,0.1-0.1,0.2-0.2
	c0.7-0.6,1.3-1.3,2-1.9C11.1,6.4,11,6.5,10.9,6.5z M7.6,9.7C7.7,9.5,7.9,9.4,8,9.3V9.2C7.8,9.4,7.7,9.5,7.6,9.7z M10.9,6.5l-0.1,0.1
	C10.2,7.2,9.6,7.7,9,8.3v0.2c0.1-0.1,0.1-0.1,0.2-0.2c0.7-0.6,1.3-1.3,2-1.9C11.1,6.4,11,6.5,10.9,6.5z M7.6,9.7
	C7.7,9.5,7.9,9.4,8,9.3V9.2C7.8,9.4,7.7,9.5,7.6,9.7z M10.1,3C9.8,3.4,9.4,3.8,9,4.1v0.7c0.2-0.1,0.3-0.3,0.5-0.4
	c0.6-0.5,1.1-1,1.7-1.4C11.2,3,10.1,3,10.1,3z M10.9,6.5l-0.1,0.1C10.2,7.2,9.6,7.7,9,8.3v0.2c0.1-0.1,0.1-0.1,0.2-0.2
	c0.7-0.6,1.3-1.3,2-1.9C11.1,6.4,11,6.5,10.9,6.5z M7.6,9.7C7.7,9.5,7.9,9.4,8,9.3V9.2C7.8,9.4,7.7,9.5,7.6,9.7z M10.9,6.5l-0.1,0.1
	C10.2,7.2,9.6,7.7,9,8.3v0.2c0.1-0.1,0.1-0.1,0.2-0.2c0.7-0.6,1.3-1.3,2-1.9C11.1,6.4,11,6.5,10.9,6.5z M7.6,9.7
	C7.7,9.5,7.9,9.4,8,9.3V9.2C7.8,9.4,7.7,9.5,7.6,9.7z M10.1,3C9.8,3.4,9.4,3.8,9,4.1v0.7c0.2-0.1,0.3-0.3,0.5-0.4
	c0.6-0.5,1.1-1,1.7-1.4C11.2,3,10.1,3,10.1,3z M4,1.2c-0.3,0.3-0.7,0.6-1,1V3c0.3-0.4,0.6-0.7,1-1.1V1.2L4,1.2z M5.2,0
	c-0.3,0.3-0.7,0.7-1,1H5c0.4-0.4,0.8-0.7,1.2-1H5.2z M3,3.4v2.5c0.3-0.3,0.7-0.6,1-1V2.4C3.7,2.8,3.3,3.1,3,3.4z M6.2,0
	C5.9,0.3,5.6,0.7,5.3,1H7v1H6v1h0.2C6.8,2.5,7.4,2,8,1.5V0H6.2z M6,11L6,11h1v1H6v1h1v0.1c0.3-0.2,0.6-0.5,0.8-0.8
	c0.1,0,0.2-0.1,0.2-0.2V9.3C7.3,9.9,6.7,10.5,6,11z M10.9,6.5l-0.1,0.1C10.2,7.2,9.6,7.7,9,8.3v0.2c0.1-0.1,0.1-0.1,0.2-0.2
	c0.7-0.6,1.3-1.3,2-1.9C11.1,6.4,11,6.5,10.9,6.5z M12,0h-2C9,0,9,1,9,1v0.7c0.1-0.1,0.2-0.1,0.2-0.2c0,0.1-0.1,0.2-0.2,0.3v0.7
	c0.4-0.3,0.7-0.6,1-0.8V1h0.9c0.4-0.3,0.7-0.4,0.7-0.4S11.5,0.7,11.3,1H12v1.4c0.1-0.1,0.2-0.2,0.3-0.3c-0.1,0.1-0.2,0.2-0.3,0.3V3
	h-0.6c-0.3,0.3-0.7,0.7-1.1,1C9.9,4.4,9.5,4.8,9,5.2V6c1.2-1,2.3-2,3.4-2.9c-1,0.9-2,1.9-3,2.8C9.3,6,9.1,6.2,9,6.3V7
	c0.9-0.7,1.8-1.4,2.7-1.9C10.8,5.8,9.9,6.6,9,7.4v0.7c0.7-0.5,1.3-1.1,1.9-1.6c0.7-0.6,1.4-1.2,2.1-1.7V1C13,0,12,0,12,0z M10.1,3
	C9.8,3.4,9.4,3.8,9,4.1v0.7c0.2-0.1,0.3-0.3,0.5-0.4c0.6-0.5,1.1-1,1.7-1.4C11.2,3,10.1,3,10.1,3z M9,3.3v0.6C9.3,3.5,9.7,3.3,10,3
	V2.3C9.7,2.6,9.4,2.9,9,3.3z M6,7h0.7C7.1,6.6,7.5,6.2,8,5.8V5.1C7.3,5.8,6.7,6.4,6,7z M6,8.9L6,8.9L6.7,9C7.1,8.6,7.5,8.2,8,7.8
	V7.2C7.3,7.8,6.7,8.4,6,8.9z M6.8,7H7v0.8c0.3-0.3,0.7-0.6,1-0.9V6C7.6,6.4,7.2,6.7,6.8,7z M4,5.2C3.7,5.5,3.3,5.7,3,6v2.4
	c0.3-0.3,0.7-0.7,1-1V6.2C3.7,6.5,3.4,6.7,3.2,6.9C3.4,6.6,3.7,6.3,4,6.1V5.2z M6.6,2.9C6.6,3,6.6,3,6.6,2.9L7,3v0.3
	C7.3,3,7.7,2.8,8,2.5V1.6C7.6,2.1,7.1,2.5,6.6,2.9z M7,9.1C6.7,9.4,6.3,9.7,6,10v0.8c0.3-0.3,0.5-0.5,0.8-0.8c0,0,0.1-0.1,0.2-0.2
	C7.3,9.6,7.7,9.3,8,9V8.3C7.7,8.5,7.3,8.8,7,9.1z M7,5.2v0.5c0.3-0.3,0.7-0.6,1-1V4.2C7.7,4.5,7.4,4.8,7,5.2z M4,14V8
	C3.7,8.3,3.3,8.7,3,9v6h2.6c0-0.1,0.1-0.2,0.1-0.3c0.1-0.3,0-0.4,0.2-0.7c0,0,0,0,0-0.1H4V14z M6.1,6L6.1,6L6,6.7
	C6.2,6.5,6.5,6.2,6.7,6H6.1z M10.9,6.5l-0.1,0.1C10.2,7.2,9.6,7.7,9,8.3v0.2c0.1-0.1,0.1-0.1,0.2-0.2c0.7-0.6,1.3-1.3,2-1.9
	C11.1,6.4,11,6.5,10.9,6.5z M7.6,9.7C7.7,9.5,7.9,9.4,8,9.3V9.2C7.8,9.4,7.7,9.5,7.6,9.7z M6,8v0.8C6.3,8.5,6.5,8.3,6.8,8H6z
	 M10.1,3C9.8,3.4,9.4,3.8,9,4.1v0.7c0.2-0.1,0.3-0.3,0.5-0.4c0.6-0.5,1.1-1,1.7-1.4C11.2,3,10.1,3,10.1,3z M10.9,6.5l-0.1,0.1
	C10.2,7.2,9.6,7.7,9,8.3v0.2c0.1-0.1,0.1-0.1,0.2-0.2c0.7-0.6,1.3-1.3,2-1.9C11.1,6.4,11,6.5,10.9,6.5z M7.6,9.7
	C7.7,9.5,7.9,9.4,8,9.3V9.2C7.8,9.4,7.7,9.5,7.6,9.7z M10.9,6.5l-0.1,0.1C10.2,7.2,9.6,7.7,9,8.3v0.2c0.1-0.1,0.1-0.1,0.2-0.2
	c0.7-0.6,1.3-1.3,2-1.9C11.1,6.4,11,6.5,10.9,6.5z M7.6,9.7C7.7,9.5,7.9,9.4,8,9.3V9.2C7.8,9.4,7.7,9.5,7.6,9.7z M3,0v0.1V0L3,0z
	 M10.9,6.5l-0.1,0.1C10.2,7.2,9.6,7.7,9,8.3v0.2c0.1-0.1,0.1-0.1,0.2-0.2c0.7-0.6,1.3-1.3,2-1.9C11.1,6.4,11,6.5,10.9,6.5z M7.6,9.7
	C7.7,9.5,7.9,9.4,8,9.3V9.2C7.8,9.4,7.7,9.5,7.6,9.7z M10.9,6.5l-0.1,0.1C10.2,7.2,9.6,7.7,9,8.3v0.2c0.1-0.1,0.1-0.1,0.2-0.2
	c0.7-0.6,1.3-1.3,2-1.9C11.1,6.4,11,6.5,10.9,6.5z M7.6,9.7C7.7,9.5,7.9,9.4,8,9.3V9.2C7.8,9.4,7.7,9.5,7.6,9.7z M10.9,6.5l-0.1,0.1
	C10.2,7.2,9.6,7.7,9,8.3v0.2c0.1-0.1,0.1-0.1,0.2-0.2c0.7-0.6,1.3-1.3,2-1.9C11.1,6.4,11,6.5,10.9,6.5z M7.6,9.7
	C7.7,9.5,7.9,9.4,8,9.3V9.2C7.8,9.4,7.7,9.5,7.6,9.7z M10.9,6.5l-0.1,0.1C10.2,7.2,9.6,7.7,9,8.3v0.2c0.1-0.1,0.1-0.1,0.2-0.2
	c0.7-0.6,1.3-1.3,2-1.9C11.1,6.4,11,6.5,10.9,6.5z M7.6,9.7C7.7,9.5,7.9,9.4,8,9.3V9.2C7.8,9.4,7.7,9.5,7.6,9.7z M10.9,6.5l-0.1,0.1
	C10.2,7.2,9.6,7.7,9,8.3v0.2c0.1-0.1,0.1-0.1,0.2-0.2c0.7-0.6,1.3-1.3,2-1.9C11.1,6.4,11,6.5,10.9,6.5z M7.6,9.7
	C7.7,9.5,7.9,9.4,8,9.3V9.2C7.8,9.4,7.7,9.5,7.6,9.7z M10.9,6.5l-0.1,0.1C10.2,7.2,9.6,7.7,9,8.3v0.2c0.1-0.1,0.1-0.1,0.2-0.2
	c0.7-0.6,1.3-1.3,2-1.9C11.1,6.4,11,6.5,10.9,6.5z M7.6,9.7C7.7,9.5,7.9,9.4,8,9.3V9.2C7.8,9.4,7.7,9.5,7.6,9.7z M10.9,6.5l-0.1,0.1
	C10.2,7.2,9.6,7.7,9,8.3v0.2c0.1-0.1,0.1-0.1,0.2-0.2c0.7-0.6,1.3-1.3,2-1.9C11.1,6.4,11,6.5,10.9,6.5z M7.6,9.7
	C7.7,9.5,7.9,9.4,8,9.3V9.2C7.8,9.4,7.7,9.5,7.6,9.7z M10.9,6.5l-0.1,0.1C10.2,7.2,9.6,7.7,9,8.3v0.2c0.1-0.1,0.1-0.1,0.2-0.2
	c0.7-0.6,1.3-1.3,2-1.9C11.1,6.4,11,6.5,10.9,6.5z M7.6,9.7C7.7,9.5,7.9,9.4,8,9.3V9.2C7.8,9.4,7.7,9.5,7.6,9.7z M10.9,6.5l-0.1,0.1
	C10.2,7.2,9.6,7.7,9,8.3v0.2c0.1-0.1,0.1-0.1,0.2-0.2c0.7-0.6,1.3-1.3,2-1.9C11.1,6.4,11,6.5,10.9,6.5z M7.6,9.7
	C7.7,9.5,7.9,9.4,8,9.3V9.2C7.8,9.4,7.7,9.5,7.6,9.7z M10.9,6.5l-0.1,0.1C10.2,7.2,9.6,7.7,9,8.3v0.2c0.1-0.1,0.1-0.1,0.2-0.2
	c0.7-0.6,1.3-1.3,2-1.9C11.1,6.4,11,6.5,10.9,6.5z M7.6,9.7C7.7,9.5,7.9,9.4,8,9.3V9.2C7.8,9.4,7.7,9.5,7.6,9.7z M3.8,0L3,0.5v1.4
	c0,0,0.1-0.1,0.2-0.1C3.8,1.1,4.5,0.5,5.1,0H3.8z"/>
</svg>
