<?xml version="1.0" encoding="utf-8"?>
<!-- Generator: Adobe Illustrator 23.0.0, SVG Export Plug-In . SVG Version: 6.00 Build 0)  -->
<svg version="1.1" id="Layer_1" xmlns="http://www.w3.org/2000/svg" xmlns:xlink="http://www.w3.org/1999/xlink" x="0px" y="0px"
	 viewBox="0 0 16 16" style="enable-background:new 0 0 16 16;" xml:space="preserve">
<style type="text/css">
	.st0{fill:#F75049;}
</style>
<path class="st0" d="M0.8,4.1L0.6,3.9c0.1-0.1,0.2-0.2,0.3-0.3L1.9,3l2.8-1.7l0,0C4,1.9,3.2,2.6,2.5,3.4C2.1,3.8,1.7,4.1,1.4,4.5
	L0.8,4.1z"/>
<path class="st0" d="M2.3,7.5C1.7,8,1.2,8.5,0.7,9L0.5,8.9L2.3,7.5z"/>
<path class="st0" d="M4.6,6.8c-1,0.9-2,1.8-3,2.8L0.8,9c1-0.8,2.1-1.7,3.2-2.6L4.6,6.8z"/>
<path class="st0" d="M5,7l0.5,0.3c-0.8,0.7-1.3,1.4-2.8,2.9L1.8,9.6C2.8,8.8,3.9,8,5,7z"/>
<path class="st0" d="M3.7,6.3l-2-1.5c0.6-0.6,1.2-1.3,1.9-2C4,2.4,4.4,1.9,4.8,1.4l2.4,1.8C6.4,4,5.5,4.7,4.6,5.5
	C4.3,5.7,4,6,3.7,6.3z"/>
<path class="st0" d="M5.7,4.9c0.6-0.5,1.1-1,1.6-1.5L8,3.8l-3.3,2C5,5.6,5.4,5.2,5.7,4.9z"/>
<path class="st0" d="M3.9,10.9l-0.6-0.4C4.1,9.8,5,9,5.9,8.1C6,8,6.1,7.9,6.2,7.8l0.5,0.3C5.7,9,4.8,10,3.9,10.9z"/>
<path class="st0" d="M7.8,8.8L8,8.9l-3.3,2.5l-0.6-0.3c1-0.9,2-1.8,2.9-2.8l0.5,0.3C6.8,9.3,6,10.1,5.3,10.8C6.1,10.2,7,9.5,7.8,8.8
	z"/>
<path class="st0" d="M7.7,11.1c-0.8,0.7-1.5,1.4-2.2,2l-0.6-0.4l-0.2-0.1c1.1-1,2.2-2,3.3-3l0.2,0.2l0.5,0.4
	C8.5,10.5,8.1,10.8,7.7,11.1z"/>
<path class="st0" d="M8,12.4c-0.5,0.4-1,0.9-1.5,1.3l-0.6-0.4c0.9-0.8,1.8-1.6,2.7-2.4c0.2-0.2,0.4-0.3,0.6-0.5L9.8,11
	C9.2,11.4,8.6,11.9,8,12.4z"/>
<path class="st0" d="M9.1,11.9c-0.5,0.5-1.1,1-1.6,1.4c-0.2,0.2-0.4,0.3-0.6,0.4c0.9-0.9,1.9-1.8,2.9-2.7l0.1,0.1
	C9.7,11.4,9.4,11.6,9.1,11.9z"/>
<path class="st0" d="M12.2,11.7v0.5l-0.3,0.2L8,14.7l-1.2-0.7c0.3-0.2,0.5-0.4,0.8-0.6c0.8-0.6,1.7-1.3,2.6-2.1l0.8,0.6
	c-0.1,0.1-0.2,0.3-0.3,0.5c0,0.1,0,0.2,0.1,0.3C10.9,12.8,11.7,12.1,12.2,11.7C12.1,11.7,12.1,11.7,12.2,11.7L12.2,11.7z"/>
<path class="st0" d="M11.3,6.9c-0.9,0.8-1.8,1.6-2.7,2.4L8,8.9L11.3,6.9z"/>
<path class="st0" d="M11.2,9.8l0.2-0.2c0.1-0.1,0.2-0.2,0.3-0.3c-0.4,0.4-0.9,0.9-1.3,1.3l-0.1-0.1C10.6,10.3,10.9,10.1,11.2,9.8z"
	/>
<path class="st0" d="M11.3,1.3l0.9,0.5c-0.3,0.1-1.7,1-3.4,2.5L8.3,4c0.3-0.3,0.6-0.6,0.9-0.9c-0.3,0.3-0.7,0.5-1,0.8L8,3.8
	L11.3,1.3z"/>
<path class="st0" d="M12.3,1.9C12.3,1.9,12.3,1.9,12.3,1.9L12.3,1.9C12.3,1.9,12.3,1.9,12.3,1.9z"/>
<path class="st0" d="M12.2,6.4l1.7,1.3c-0.8,0.6-1.6,1.3-2.4,2c-0.4,0.3-0.8,0.6-1.2,0.9l-0.6-0.5c0.9-0.8,1.8-1.6,2.8-2.4
	c-1,0.6-2,1.4-3.1,2.2L8.7,9.4C9,9.2,9.2,9,9.4,8.8c0.9-0.8,1.7-1.6,2.6-2.4C12,6.4,12.1,6.4,12.2,6.4c0.4-0.4,0.8-0.8,1.2-1.2
	c-0.5,0.4-0.9,0.8-1.4,1.1l-0.8-0.5c0.7-0.7,1.4-1.3,2.1-2C12.5,4.4,11.8,5,11,5.6l-0.8-0.5c0.4-0.4,0.7-0.7,1-1.1
	c-0.4,0.3-0.8,0.6-1.2,1L9.5,4.7c2-1.9,2.8-2.6,2.8-2.8l3.2,1.9L12.2,6.4z"/>
<path class="st0" d="M15,8.5c-0.4,0.4-1,0.8-1.6,1.3c-0.4,0.3-0.3,0.3-0.6,0.5c-0.3,0.2-0.5,0.4-0.7,0.6l-0.8,0.5l-0.8-0.6
	c0.6-0.5,1.2-1,1.8-1.6c0.6-0.5,1.1-1,1.6-1.6L15,8.5z"/>
<path class="st0" d="M9.2,10.5C9,10.7,8.8,10.8,8.6,11c-0.9,0.8-1.8,1.6-2.7,2.4l0.6,0.4c0.5-0.4,1-0.9,1.5-1.3
	c0.6-0.5,1.2-1,1.8-1.5L9.2,10.5z M9.8,11c-1,0.9-2,1.8-2.9,2.7c0.2-0.1,0.4-0.3,0.6-0.4c0.5-0.5,1.1-0.9,1.6-1.4
	c0.3-0.3,0.5-0.5,0.8-0.8L9.8,11z M12.1,11.7C12.1,11.7,12.1,11.7,12.1,11.7c-0.4,0.4-1.2,1.1-1.4,1c-0.1-0.1-0.1-0.2-0.1-0.3
	c0-0.2,0.1-0.4,0.3-0.5l-0.8-0.6c-0.9,0.7-1.7,1.4-2.6,2.1c-0.3,0.2-0.5,0.4-0.8,0.6L8,14.7l3.9-2.4l0.3-0.2L12.1,11.7L12.1,11.7z
	 M8.3,9.8L8.1,9.7c-1.1,1-2.2,2-3.3,3l0.2,0.1l0.6,0.4c0.7-0.7,1.4-1.4,2.2-2c0.4-0.3,0.7-0.6,1.1-0.9L8.3,9.8z M8,8.9l0.5,0.4
	c0.9-0.8,1.8-1.6,2.7-2.4L8,8.9z M12.2,6.4L12,6.5c-0.8,0.8-1.7,1.6-2.6,2.4C9.2,9,9,9.2,8.7,9.4l0.6,0.4c1.1-0.8,2.1-1.5,3.1-2.2
	c-0.9,0.8-1.8,1.6-2.8,2.4l0.6,0.5c0.4-0.3,0.8-0.6,1.2-0.9c0.8-0.7,1.6-1.4,2.4-2L12.2,6.4z M11.4,9.6l-0.2,0.2
	c-0.3,0.3-0.6,0.5-0.9,0.8l0.1,0.1c0.5-0.5,0.9-0.9,1.3-1.3C11.6,9.5,11.5,9.5,11.4,9.6z M14,7.7c-0.5,0.5-1.1,1-1.6,1.6
	c-0.6,0.5-1.2,1.1-1.8,1.6l0.8,0.6l0.8-0.5c0.2-0.2,0.5-0.3,0.7-0.6c0.3-0.3,0.2-0.2,0.6-0.5C14,9.3,14.6,8.9,15,8.5L14,7.7z
	 M12.3,1.9c-0.1,0.2-0.8,0.9-2.8,2.8L10,5.1c0.4-0.3,0.8-0.7,1.2-1c-0.3,0.4-0.7,0.7-1,1.1L11,5.6c0.8-0.7,1.5-1.3,2.3-1.8
	c-0.7,0.7-1.3,1.3-2.1,2L12,6.3c0.5-0.4,0.9-0.8,1.4-1.1c-0.4,0.4-0.8,0.8-1.3,1.2l0,0l3.3-2.5L12.3,1.9z M11.3,1.3L8,3.8l0.1,0.1
	c0.3-0.3,0.7-0.5,1-0.8C8.9,3.4,8.6,3.7,8.3,4l0.5,0.3c1.7-1.4,3.1-2.4,3.4-2.5L11.3,1.3z M4.8,1.4C4.4,1.9,4,2.4,3.6,2.8
	C3,3.5,2.3,4.2,1.7,4.8l2,1.5C4,6,4.3,5.7,4.6,5.5C5.5,4.7,6.4,4,7.2,3.3L4.8,1.4z M7.4,3.4c-0.5,0.5-1.1,1-1.6,1.5
	C5.4,5.2,5,5.6,4.7,5.9l3.3-2L7.4,3.4z M4.7,1.3L1.9,3L0.9,3.6C0.8,3.7,0.7,3.8,0.6,3.9l0.2,0.2l0.6,0.4c0.3-0.4,0.7-0.8,1.1-1.1
	C3.2,2.6,4,1.9,4.7,1.3L4.7,1.3z M7.8,8.8c-0.9,0.7-1.7,1.4-2.5,2C6,10.1,6.8,9.3,7.6,8.6L7,8.3c-1,0.9-2,1.8-2.9,2.8l0.6,0.3L8,8.9
	L7.8,8.8z M6.2,7.8C6.1,7.9,6,8,5.9,8.1C5,9,4.1,9.8,3.3,10.6l0.6,0.4C4.8,10,5.7,9,6.7,8.1L6.2,7.8z M0.5,8.9L0.7,9
	c0.5-0.5,1-1,1.5-1.5L0.5,8.9z M4,6.5C2.9,7.4,1.8,8.3,0.8,9l0.9,0.5c0.9-0.9,1.9-1.8,3-2.8L4,6.5z M5,7C3.9,8,2.8,8.8,1.8,9.6
	l0.9,0.6c1.4-1.5,2-2.1,2.8-2.9L5,7z"/>
<path class="st0" d="M11.4,9.6l-0.2,0.2c-0.3,0.3-0.6,0.5-0.9,0.8l0.1,0.1c0.5-0.5,0.9-0.9,1.3-1.3C11.6,9.5,11.5,9.5,11.4,9.6z
	 M9.8,11c-1,0.9-2,1.8-2.9,2.7c0.2-0.1,0.4-0.3,0.6-0.4c0.5-0.5,1.1-0.9,1.6-1.4c0.3-0.3,0.5-0.5,0.8-0.8L9.8,11z M11.4,9.6
	l-0.2,0.2c-0.3,0.3-0.6,0.5-0.9,0.8l0.1,0.1c0.5-0.5,0.9-0.9,1.3-1.3C11.6,9.5,11.5,9.5,11.4,9.6z M9.8,11c-1,0.9-2,1.8-2.9,2.7
	c0.2-0.1,0.4-0.3,0.6-0.4c0.5-0.5,1.1-0.9,1.6-1.4c0.3-0.3,0.5-0.5,0.8-0.8L9.8,11z M11.4,9.6l-0.2,0.2c-0.3,0.3-0.6,0.5-0.9,0.8
	l0.1,0.1c0.5-0.5,0.9-0.9,1.3-1.3C11.6,9.5,11.5,9.5,11.4,9.6z M9.8,11c-1,0.9-2,1.8-2.9,2.7c0.2-0.1,0.4-0.3,0.6-0.4
	c0.5-0.5,1.1-0.9,1.6-1.4c0.3-0.3,0.5-0.5,0.8-0.8L9.8,11z M11.4,9.6l-0.2,0.2c-0.3,0.3-0.6,0.5-0.9,0.8l0.1,0.1
	c0.5-0.5,0.9-0.9,1.3-1.3C11.6,9.5,11.5,9.5,11.4,9.6z M9.8,11c-1,0.9-2,1.8-2.9,2.7c0.2-0.1,0.4-0.3,0.6-0.4
	c0.5-0.5,1.1-0.9,1.6-1.4c0.3-0.3,0.5-0.5,0.8-0.8L9.8,11z M11.4,9.6l-0.2,0.2c-0.3,0.3-0.6,0.5-0.9,0.8l0.1,0.1
	c0.5-0.5,0.9-0.9,1.3-1.3C11.6,9.5,11.5,9.5,11.4,9.6z M9.8,11c-1,0.9-2,1.8-2.9,2.7c0.2-0.1,0.4-0.3,0.6-0.4
	c0.5-0.5,1.1-0.9,1.6-1.4c0.3-0.3,0.5-0.5,0.8-0.8L9.8,11z M11.4,9.6l-0.2,0.2c-0.3,0.3-0.6,0.5-0.9,0.8l0.1,0.1
	c0.5-0.5,0.9-0.9,1.3-1.3C11.6,9.5,11.5,9.5,11.4,9.6z M9.8,11c-1,0.9-2,1.8-2.9,2.7c0.2-0.1,0.4-0.3,0.6-0.4
	c0.5-0.5,1.1-0.9,1.6-1.4c0.3-0.3,0.5-0.5,0.8-0.8L9.8,11z M11.4,9.6l-0.2,0.2c-0.3,0.3-0.6,0.5-0.9,0.8l0.1,0.1
	c0.5-0.5,0.9-0.9,1.3-1.3C11.6,9.5,11.5,9.5,11.4,9.6z M9.8,11c-1,0.9-2,1.8-2.9,2.7c0.2-0.1,0.4-0.3,0.6-0.4
	c0.5-0.5,1.1-0.9,1.6-1.4c0.3-0.3,0.5-0.5,0.8-0.8L9.8,11z M11.4,9.6l-0.2,0.2c-0.3,0.3-0.6,0.5-0.9,0.8l0.1,0.1
	c0.5-0.5,0.9-0.9,1.3-1.3C11.6,9.5,11.5,9.5,11.4,9.6z M9.8,11c-1,0.9-2,1.8-2.9,2.7c0.2-0.1,0.4-0.3,0.6-0.4
	c0.5-0.5,1.1-0.9,1.6-1.4c0.3-0.3,0.5-0.5,0.8-0.8L9.8,11z M11.4,9.6l-0.2,0.2c-0.3,0.3-0.6,0.5-0.9,0.8l0.1,0.1
	c0.5-0.5,0.9-0.9,1.3-1.3C11.6,9.5,11.5,9.5,11.4,9.6z M9.8,11c-1,0.9-2,1.8-2.9,2.7c0.2-0.1,0.4-0.3,0.6-0.4
	c0.5-0.5,1.1-0.9,1.6-1.4c0.3-0.3,0.5-0.5,0.8-0.8L9.8,11z M11.4,9.6l-0.2,0.2c-0.3,0.3-0.6,0.5-0.9,0.8l0.1,0.1
	c0.5-0.5,0.9-0.9,1.3-1.3C11.6,9.5,11.5,9.5,11.4,9.6z M9.8,11c-1,0.9-2,1.8-2.9,2.7c0.2-0.1,0.4-0.3,0.6-0.4
	c0.5-0.5,1.1-0.9,1.6-1.4c0.3-0.3,0.5-0.5,0.8-0.8L9.8,11z M0.5,8.9L0.7,9c0.5-0.5,1-1,1.5-1.5L0.5,8.9z M11.4,9.6l-0.2,0.2
	c-0.3,0.3-0.6,0.5-0.9,0.8l0.1,0.1c0.5-0.5,0.9-0.9,1.3-1.3C11.6,9.5,11.5,9.5,11.4,9.6z M9.8,11c-1,0.9-2,1.8-2.9,2.7
	c0.2-0.1,0.4-0.3,0.6-0.4c0.5-0.5,1.1-0.9,1.6-1.4c0.3-0.3,0.5-0.5,0.8-0.8L9.8,11z M4.7,1.3L1.9,3c-0.4,0.3-0.7,0.7-1.1,1l0.6,0.4
	c0.3-0.4,0.7-0.8,1.1-1.1C3.2,2.6,4,1.9,4.7,1.3L4.7,1.3z M4,6.5C2.9,7.4,1.8,8.3,0.8,9l0.9,0.5c0.9-0.9,1.9-1.8,3-2.8L4,6.5z M5,7
	C3.9,8,2.8,8.8,1.8,9.6l0.9,0.6c1.4-1.5,2-2.1,2.8-2.9L5,7z M7.4,3.4c-0.5,0.5-1.1,1-1.6,1.5C5.4,5.2,5,5.6,4.7,5.9l3.3-2L7.4,3.4z
	 M11.3,1.3L8,3.8l0.1,0.1c0.3-0.3,0.7-0.5,1-0.8C8.9,3.4,8.6,3.7,8.3,4l0.5,0.3c1.7-1.4,3.1-2.4,3.4-2.5L11.3,1.3z M4.8,1.4
	C4.4,1.9,4,2.4,3.6,2.8C3,3.5,2.3,4.2,1.7,4.8l2,1.5C4,6,4.3,5.7,4.6,5.5C5.5,4.7,6.4,4,7.2,3.3L4.8,1.4z M11.4,9.6l-0.2,0.2
	c-0.3,0.3-0.6,0.5-0.9,0.8l0.1,0.1c0.5-0.5,0.9-0.9,1.3-1.3C11.6,9.5,11.5,9.5,11.4,9.6z M14,7.7c-0.5,0.5-1.1,1-1.6,1.6
	c-0.6,0.5-1.2,1.1-1.8,1.6l0.8,0.6l0.8-0.5c0.2-0.2,0.5-0.3,0.7-0.6c0.3-0.3,0.2-0.2,0.6-0.5C14,9.3,14.6,8.9,15,8.5L14,7.7z
	 M12.1,11.7C12.1,11.7,12.1,11.7,12.1,11.7c-0.4,0.4-1.2,1.1-1.4,1c-0.1-0.1-0.1-0.2-0.1-0.3c0-0.2,0.1-0.4,0.3-0.5l-0.8-0.6
	c-0.9,0.7-1.7,1.4-2.6,2.1c-0.3,0.2-0.5,0.4-0.8,0.6L8,14.7l3.9-2.4c0.1-0.1,0.2-0.2,0.3-0.4L12.1,11.7L12.1,11.7z M6.2,7.8
	C6.1,7.9,6,8,5.9,8.1C5,9,4.1,9.8,3.3,10.6l0.6,0.4C4.8,10,5.7,9,6.7,8.1L6.2,7.8z M7.8,8.8c-0.9,0.7-1.7,1.4-2.5,2
	C6,10.1,6.8,9.3,7.6,8.6L7,8.3c-1,0.9-2,1.8-2.9,2.8l0.6,0.3L8,8.9L7.8,8.8z M8,8.9l0.5,0.4c0.9-0.8,1.8-1.6,2.7-2.4L8,8.9z
	 M15.5,3.8l-3.2-1.9c-0.1,0.2-0.8,0.9-2.8,2.8L10,5.1c0.4-0.3,0.8-0.7,1.2-1c-0.3,0.4-0.7,0.7-1,1.1L11,5.6c0.8-0.7,1.5-1.3,2.3-1.8
	c-0.7,0.7-1.3,1.3-2.1,2L12,6.3c0.5-0.4,0.9-0.8,1.4-1.1c-0.4,0.4-0.8,0.8-1.3,1.2c0,0.1-0.1,0.1-0.2,0.1c-0.8,0.8-1.7,1.6-2.6,2.4
	C9.2,9,9,9.2,8.7,9.4l0.6,0.4c1.1-0.8,2.1-1.5,3.1-2.2c-0.9,0.8-1.8,1.6-2.8,2.4l0.6,0.5c0.4-0.3,0.8-0.6,1.2-0.9
	c0.8-0.7,1.6-1.4,2.4-2l-1.7-1.3L15.5,3.8z M9.2,10.5C9,10.7,8.8,10.8,8.6,11c-0.9,0.8-1.8,1.6-2.7,2.4l0.6,0.4
	c0.5-0.4,1-0.9,1.5-1.3c0.6-0.5,1.2-1,1.8-1.5L9.2,10.5z M8.3,9.8c-1.1,1-2.2,2-3.4,3l0.6,0.4c0.7-0.7,1.4-1.4,2.2-2
	c0.4-0.3,0.7-0.6,1.1-0.9L8.3,9.8z M11.4,9.6l-0.2,0.2c-0.3,0.3-0.6,0.5-0.9,0.8l0.1,0.1c0.5-0.5,0.9-0.9,1.3-1.3
	C11.6,9.5,11.5,9.5,11.4,9.6z M11.4,9.6l-0.2,0.2c-0.3,0.3-0.6,0.5-0.9,0.8l0.1,0.1c0.5-0.5,0.9-0.9,1.3-1.3
	C11.6,9.5,11.5,9.5,11.4,9.6z M9.8,11c-1,0.9-2,1.8-2.9,2.7c0.2-0.1,0.4-0.3,0.6-0.4c0.5-0.5,1.1-0.9,1.6-1.4
	c0.3-0.3,0.5-0.5,0.8-0.8L9.8,11z M11.4,9.6l-0.2,0.2c-0.3,0.3-0.6,0.5-0.9,0.8l0.1,0.1c0.5-0.5,0.9-0.9,1.3-1.3
	C11.6,9.5,11.5,9.5,11.4,9.6z M9.8,11c-1,0.9-2,1.8-2.9,2.7c0.2-0.1,0.4-0.3,0.6-0.4c0.5-0.5,1.1-0.9,1.6-1.4
	c0.3-0.3,0.5-0.5,0.8-0.8L9.8,11z M11.4,9.6l-0.2,0.2c-0.3,0.3-0.6,0.5-0.9,0.8l0.1,0.1c0.5-0.5,0.9-0.9,1.3-1.3
	C11.6,9.5,11.5,9.5,11.4,9.6z M9.8,11c-1,0.9-2,1.8-2.9,2.7c0.2-0.1,0.4-0.3,0.6-0.4c0.5-0.5,1.1-0.9,1.6-1.4
	c0.3-0.3,0.5-0.5,0.8-0.8L9.8,11z M11.4,9.6l-0.2,0.2c-0.3,0.3-0.6,0.5-0.9,0.8l0.1,0.1c0.5-0.5,0.9-0.9,1.3-1.3
	C11.6,9.5,11.5,9.5,11.4,9.6z M9.8,11c-1,0.9-2,1.8-2.9,2.7c0.2-0.1,0.4-0.3,0.6-0.4c0.5-0.5,1.1-0.9,1.6-1.4
	c0.3-0.3,0.5-0.5,0.8-0.8L9.8,11z M11.4,9.6l-0.2,0.2c-0.3,0.3-0.6,0.5-0.9,0.8l0.1,0.1c0.5-0.5,0.9-0.9,1.3-1.3
	C11.6,9.5,11.5,9.5,11.4,9.6z M9.8,11c-1,0.9-2,1.8-2.9,2.7c0.2-0.1,0.4-0.3,0.6-0.4c0.5-0.5,1.1-0.9,1.6-1.4
	c0.3-0.3,0.5-0.5,0.8-0.8L9.8,11z M11.4,9.6l-0.2,0.2c-0.3,0.3-0.6,0.5-0.9,0.8l0.1,0.1c0.5-0.5,0.9-0.9,1.3-1.3
	C11.6,9.5,11.5,9.5,11.4,9.6z M9.8,11c-1,0.9-2,1.8-2.9,2.7c0.2-0.1,0.4-0.3,0.6-0.4c0.5-0.5,1.1-0.9,1.6-1.4
	c0.3-0.3,0.5-0.5,0.8-0.8L9.8,11z M11.4,9.6l-0.2,0.2c-0.3,0.3-0.6,0.5-0.9,0.8l0.1,0.1c0.5-0.5,0.9-0.9,1.3-1.3
	C11.6,9.5,11.5,9.5,11.4,9.6z M9.8,11c-1,0.9-2,1.8-2.9,2.7c0.2-0.1,0.4-0.3,0.6-0.4c0.5-0.5,1.1-0.9,1.6-1.4
	c0.3-0.3,0.5-0.5,0.8-0.8L9.8,11z M11.4,9.6l-0.2,0.2c-0.3,0.3-0.6,0.5-0.9,0.8l0.1,0.1c0.5-0.5,0.9-0.9,1.3-1.3
	C11.6,9.5,11.5,9.5,11.4,9.6z M9.8,11c-1,0.9-2,1.8-2.9,2.7c0.2-0.1,0.4-0.3,0.6-0.4c0.5-0.5,1.1-0.9,1.6-1.4
	c0.3-0.3,0.5-0.5,0.8-0.8L9.8,11z M11.4,9.6l-0.2,0.2c-0.3,0.3-0.6,0.5-0.9,0.8l0.1,0.1c0.5-0.5,0.9-0.9,1.3-1.3
	C11.6,9.5,11.5,9.5,11.4,9.6z M9.8,11c-1,0.9-2,1.8-2.9,2.7c0.2-0.1,0.4-0.3,0.6-0.4c0.5-0.5,1.1-0.9,1.6-1.4
	c0.3-0.3,0.5-0.5,0.8-0.8L9.8,11z M11.4,9.6l-0.2,0.2c-0.3,0.3-0.6,0.5-0.9,0.8l0.1,0.1c0.5-0.5,0.9-0.9,1.3-1.3
	C11.6,9.5,11.5,9.5,11.4,9.6z M9.8,11c-1,0.9-2,1.8-2.9,2.7c0.2-0.1,0.4-0.3,0.6-0.4c0.5-0.5,1.1-0.9,1.6-1.4
	c0.3-0.3,0.5-0.5,0.8-0.8L9.8,11z M11.4,9.6l-0.2,0.2c-0.3,0.3-0.6,0.5-0.9,0.8l0.1,0.1c0.5-0.5,0.9-0.9,1.3-1.3
	C11.6,9.5,11.5,9.5,11.4,9.6z M9.8,11c-1,0.9-2,1.8-2.9,2.7c0.2-0.1,0.4-0.3,0.6-0.4c0.5-0.5,1.1-0.9,1.6-1.4
	c0.3-0.3,0.5-0.5,0.8-0.8L9.8,11z M11.4,9.6l-0.2,0.2c-0.3,0.3-0.6,0.5-0.9,0.8l0.1,0.1c0.5-0.5,0.9-0.9,1.3-1.3
	C11.6,9.5,11.5,9.5,11.4,9.6z M9.8,11c-1,0.9-2,1.8-2.9,2.7c0.2-0.1,0.4-0.3,0.6-0.4c0.5-0.5,1.1-0.9,1.6-1.4
	c0.3-0.3,0.5-0.5,0.8-0.8L9.8,11z"/>
</svg>
