<?xml version="1.0" encoding="utf-8"?>
<!-- Generator: Adobe Illustrator 23.0.0, SVG Export Plug-In . SVG Version: 6.00 Build 0)  -->
<svg version="1.1" id="Layer_1" xmlns="http://www.w3.org/2000/svg" xmlns:xlink="http://www.w3.org/1999/xlink" x="0px" y="0px"
	 viewBox="0 0 16 16" style="enable-background:new 0 0 16 16;" xml:space="preserve">
<style type="text/css">
	.st0{fill:#F75049;}
</style>
<g transform="translate(-592 -32)">
	<path class="st0" d="M596.6,47c-0.4,0.3-0.8,0.7-1.2,1h1.6c0.3-0.3,0.7-0.7,1.1-1H596.6z M594,47v0.4c0.1-0.1,0.3-0.3,0.4-0.4H594z
		 M594.5,47c-0.2,0.1-0.3,0.3-0.5,0.4V48h1.2c0.3-0.3,0.6-0.7,0.9-1H594.5z M598.7,47c-0.4,0.3-0.8,0.7-1.2,1h8.5v-1H598.7z
		 M597.2,38h0.8v-0.8C597.7,37.5,597.5,37.8,597.2,38z M600.3,45.7c-0.2,0.1-0.3,0.3-0.5,0.4c0,0,0,0,0,0c0.1,0.1,0.1,0.2,0.2,0.3
		c0.2-0.3,0.5-0.6,0.7-1c0,0,0-0.1,0.1-0.1C600.6,45.4,600.5,45.5,600.3,45.7z M597.2,38h0.8v-0.8C597.7,37.5,597.5,37.8,597.2,38z
		 M597.2,38h0.8v-0.8C597.7,37.5,597.5,37.8,597.2,38z M597.2,38h0.8v-0.8C597.7,37.5,597.5,37.8,597.2,38z M602,35.1v1
		c0.3-0.3,0.7-0.6,1-0.9v-1.1C602.7,34.5,602.4,34.8,602,35.1z M601.3,33c-0.4,0.3-0.8,0.7-1.3,1h1.6c0.4-0.4,0.8-0.7,1.2-1H601.3z
		 M603,37v-1.3c-0.3,0.3-0.7,0.7-1,1v1.3C602.3,37.6,602.6,37.4,603,37C603,37.1,603,37,603,37L603,37z M605.4,37h-1.7
		c-0.4,0.3-0.8,0.7-1.1,1h1.2c-0.1,0.2-0.2,0.4-0.3,0.6C604.2,38.1,604.8,37.5,605.4,37z M603.1,39.5c-0.4,0.7-0.8,1.5-1.4,2.3
		c0.7-0.6,1.4-1.1,2.1-1.6c0.7-1.2,1.1-2.2,1.4-2.7L603.1,39.5z M597.2,38h0.8v-0.8C597.7,37.5,597.5,37.8,597.2,38z M597.2,38h0.8
		v-0.8C597.7,37.5,597.5,37.8,597.2,38z M597.2,38h0.8v-0.8C597.7,37.5,597.5,37.8,597.2,38z M597.2,38h0.8v-0.8
		C597.7,37.5,597.5,37.8,597.2,38z M595.3,38.6c0.1,0.3,0.3,0.5,0.5,0.9c0.3-0.3,0.5-0.5,0.7-0.8c-0.1-0.3-0.3-0.5-0.4-0.7h1.8v-1.7
		C597.1,37.1,596.2,37.9,595.3,38.6z M597.1,39.8c-0.3,0.2-0.5,0.5-0.8,0.7c0.1,0.2,0.2,0.4,0.4,0.7c0.2-0.3,0.5-0.5,0.7-0.8
		C597.3,40.2,597.2,40,597.1,39.8z M594.5,37c0,0,0,0.1,0.1,0.3c0.1,0.2,0.3,0.5,0.5,0.9c0.5-0.4,0.9-0.8,1.4-1.3H594.5z
		 M598.2,41.7c-0.3,0.2-0.5,0.4-0.8,0.6c0.2,0.4,0.5,0.8,0.7,1.2c0.3-0.3,0.5-0.5,0.8-0.7C598.6,42.4,598.4,42,598.2,41.7z
		 M597.7,40.8c-0.3,0.2-0.5,0.5-0.8,0.7c0.1,0.2,0.3,0.5,0.4,0.7c0.3-0.3,0.5-0.5,0.8-0.7C598,41.3,597.8,41.1,597.7,40.8z M597,33
		v1.7c0.7-0.6,1.4-1.2,2-1.7H597z M599,43.1c-0.3,0.2-0.5,0.5-0.8,0.7c0.1,0.2,0.3,0.5,0.4,0.7c0.3-0.2,0.5-0.5,0.8-0.7
		C599.3,43.5,599.2,43.3,599,43.1z M601.7,42.6c-0.3,0.3-0.6,0.6-1,0.9c0,0,0,0,0,0c-0.2,0.3-0.5,0.7-0.7,1.1
		c-0.1-0.1-0.1-0.2-0.2-0.3c-0.3,0.2-0.5,0.5-0.8,0.7c0.2,0.3,0.3,0.5,0.5,0.8c0.4-0.4,0.9-0.8,1.4-1.2c0.3-0.2,0.5-0.4,0.8-0.6v0
		c0.6-0.9,1.1-1.8,1.6-2.6C602.7,41.7,602.2,42.2,601.7,42.6z"/>
</g>
<path class="st0" d="M7,11.1c-0.3,0.2-0.5,0.5-0.8,0.7c0.1,0.2,0.3,0.5,0.4,0.7C7,12.2,7.2,12,7.5,11.7C7.3,11.5,7.2,11.3,7,11.1z
	 M2,15v0.4c0.1-0.1,0.3-0.3,0.4-0.4H2z M5.1,7.8C4.8,8,4.6,8.3,4.3,8.5c0.1,0.2,0.2,0.4,0.4,0.7C5,8.9,5.2,8.7,5.5,8.4
	C5.3,8.2,5.2,8,5.1,7.8z M10,3.1v1c0.3-0.3,0.7-0.6,1-0.9V2.2C10.7,2.5,10.4,2.8,10,3.1z M6.2,9.7c-0.3,0.2-0.5,0.4-0.8,0.6
	c0.2,0.4,0.5,0.8,0.7,1.2c0.3-0.3,0.5-0.5,0.8-0.7C6.6,10.4,6.4,10,6.2,9.7z M13.4,5h-1.7c-0.4,0.3-0.8,0.7-1.1,1h1.2
	c-0.1,0.2-0.2,0.4-0.3,0.6C12.2,6.1,12.8,5.5,13.4,5z M7,11.1c-0.3,0.2-0.5,0.5-0.8,0.7c0.1,0.2,0.3,0.5,0.4,0.7
	C7,12.2,7.2,12,7.5,11.7C7.3,11.5,7.2,11.3,7,11.1z M9.7,10.6c-0.3,0.3-0.6,0.6-1,0.9c0,0,0,0,0,0c-0.2,0.3-0.5,0.7-0.7,1.1
	c-0.1-0.1-0.1-0.2-0.2-0.3c-0.3,0.2-0.5,0.5-0.8,0.7c0.2,0.3,0.3,0.5,0.5,0.8c0.4-0.4,0.9-0.8,1.4-1.2c0.3-0.2,0.5-0.4,0.8-0.6v0
	c0.6-0.9,1.1-1.8,1.6-2.6C10.7,9.7,10.2,10.2,9.7,10.6z M7,11.1c-0.3,0.2-0.5,0.5-0.8,0.7c0.1,0.2,0.3,0.5,0.4,0.7
	C7,12.2,7.2,12,7.5,11.7C7.3,11.5,7.2,11.3,7,11.1z M4.6,15c-0.4,0.3-0.8,0.7-1.2,1h1.6c0.3-0.3,0.7-0.7,1.1-1H4.6z M7,11.1
	c-0.3,0.2-0.5,0.5-0.8,0.7c0.1,0.2,0.3,0.5,0.4,0.7C7,12.2,7.2,12,7.5,11.7C7.3,11.5,7.2,11.3,7,11.1z M5.7,8.8
	C5.4,9.1,5.2,9.3,4.9,9.5c0.1,0.2,0.3,0.5,0.4,0.7C5.6,10,5.9,9.8,6.1,9.5C6,9.3,5.8,9.1,5.7,8.8z M11,5V3.7c-0.3,0.3-0.7,0.7-1,1
	v1.3C10.3,5.6,10.6,5.4,11,5C11,5.1,11,5,11,5L11,5z M7,11.1c-0.3,0.2-0.5,0.5-0.8,0.7c0.1,0.2,0.3,0.5,0.4,0.7
	C7,12.2,7.2,12,7.5,11.7C7.3,11.5,7.2,11.3,7,11.1z M2.5,15c-0.2,0.1-0.3,0.3-0.5,0.4V16h1.2c0.3-0.3,0.6-0.7,0.9-1H2.5z M6.7,15
	c-0.4,0.3-0.8,0.7-1.2,1h5.8c0.3-0.3,0.4-0.7,0.6-1H6.7z M3.3,6.6c0.1,0.3,0.3,0.5,0.5,0.9C4.1,7.2,4.3,7,4.5,6.7
	C4.4,6.5,4.3,6.2,4.2,6h1.1C5.5,5.8,5.7,5.5,6,5.3V4.3C5.1,5.1,4.2,5.9,3.3,6.6z M9.6,1c-0.3,0.3-0.7,0.7-1,1h1.1
	c0.4-0.4,0.8-0.7,1.2-1H9.6z M8.3,13.7c-0.2,0.1-0.3,0.3-0.5,0.4c0.1,0.1,0.1,0.2,0.2,0.3c0.2-0.3,0.5-0.6,0.7-1
	C8.5,13.5,8.4,13.6,8.3,13.7z M5,1v1.7C5.7,2.1,6.4,1.5,7,1H5z M3.1,5C2.9,5.1,2.8,5.2,2.7,5.3c0.1,0.2,0.3,0.5,0.5,0.9
	C3.6,5.8,4,5.4,4.5,5H3.1z M5.9,2.5C5.6,2.8,5.3,3,5,3.3v1.3c0.2-0.1,0.3-0.3,0.5-0.4C5.7,4,5.8,3.9,6,3.7L5.9,2.5
	C6,2.4,5.9,2.5,5.9,2.5z M11.1,7.5c-0.4,0.7-0.8,1.5-1.4,2.3c0.7-0.6,1.4-1.1,2.1-1.6C12.5,7,13,6,13.3,5.5L11.1,7.5z"/>
</svg>
