<?xml version="1.0" encoding="utf-8"?>
<!-- Generator: Adobe Illustrator 23.0.0, SVG Export Plug-In . SVG Version: 6.00 Build 0)  -->
<svg version="1.1" id="Layer_1" xmlns="http://www.w3.org/2000/svg" xmlns:xlink="http://www.w3.org/1999/xlink" x="0px" y="0px"
	 viewBox="0 0 16 16" style="enable-background:new 0 0 16 16;" xml:space="preserve">
<style type="text/css">
	.st0{fill:#0E0E17;stroke:#F75049;stroke-width:0.25;stroke-miterlimit:10;}
	.st1{fill:#F75049;stroke:#0E0E17;stroke-width:0.25;stroke-miterlimit:10;}
</style>
<g>
	<path class="st0" d="M15,2.2v11.4c-0.6,0.7-1.3,1.4-1.9,2.1H1.6L1,15.1V0.8c0.2-0.2,0.3-0.3,0.5-0.5h6.6c0.5,0.5,1,0.9,1.5,1.4h4.8
		C14.6,1.9,14.8,2,15,2.2z"/>
</g>
<g>
	<path class="st1" d="M5.7,9.4c0,0.8-0.6,1.4-1.4,1.4C3.6,10.7,3,10.1,3,9.4C3,8.6,3.6,8,4.4,8c0.2,0,0.4,0,0.5,0.1L4.2,9.2l1-1
		C5.5,8.5,5.7,8.9,5.7,9.4z"/>
	<path class="st1" d="M9.4,9.4c0,0.8-0.6,1.4-1.4,1.4s-1.4-0.6-1.4-1.4c0-0.3,0.1-0.5,0.2-0.8l0.5,0.8L7.2,8.3C7.4,8.1,7.7,8,8,8
		c0.4,0,0.8,0.2,1,0.5L8.7,9.2l0.5-0.5C9.3,8.9,9.4,9.1,9.4,9.4z"/>
	<path class="st1" d="M13,9.4c0,0.6-0.4,1.1-1,1.3l-0.5-0.4l0.3,0.4h-0.1c-0.8,0-1.4-0.6-1.4-1.4c0-0.4,0.2-0.7,0.4-1L11.1,9
		l-0.2-0.8C11.1,8.1,11.4,8,11.6,8C12.4,8,13,8.6,13,9.4z"/>
</g>
</svg>
