<?xml version="1.0" encoding="utf-8"?>
<!-- Generator: Adobe Illustrator 23.0.0, SVG Export Plug-In . SVG Version: 6.00 Build 0)  -->
<svg version="1.1" id="Layer_1" xmlns="http://www.w3.org/2000/svg" xmlns:xlink="http://www.w3.org/1999/xlink" x="0px" y="0px"
	 viewBox="0 0 16 16" style="enable-background:new 0 0 16 16;" xml:space="preserve">
<style type="text/css">
	.st0{fill:#F75049;}
</style>
<g transform="translate(-512 -52)">
	<path class="st0" d="M519,61.7v1.1c0.2-0.2,0.3-0.3,0.5-0.5c0.2-0.1,0.3-0.3,0.5-0.4v-1.1C519.7,61.2,519.3,61.4,519,61.7z
		 M519,60.1V61l1-0.8v-1C519.7,59.5,519.3,59.8,519,60.1z M521.3,58c0,0-0.1,0.1-0.2,0.1c-0.1,0.1-0.1,0.1-0.2,0.2v1.1
		c0.3-0.3,0.7-0.5,1-0.8V58H521.3z M521,61.8V64h1v-3C521.7,61.3,521.3,61.5,521,61.8z M521,60v1.1c0.3-0.3,0.7-0.6,1-0.8v-1.2
		C521.7,59.4,521.3,59.7,521,60z M521,61.3v0.3c0.3-0.3,0.7-0.6,1-0.9v-0.3C521.7,60.7,521.3,61,521,61.3z M519,61.7v1.1
		c0.2-0.2,0.3-0.3,0.5-0.5c0.2-0.1,0.3-0.3,0.5-0.4v-1.1C519.7,61.2,519.3,61.4,519,61.7z M519,60.1V61l1-0.8v-1
		C519.7,59.5,519.3,59.8,519,60.1z M519,61.7v1.1c0.2-0.2,0.3-0.3,0.5-0.5c0.2-0.1,0.3-0.3,0.5-0.4v-1.1
		C519.7,61.2,519.3,61.4,519,61.7z M519,60.1V61l1-0.8v-1C519.7,59.5,519.3,59.8,519,60.1z M519.4,58c-0.1,0.1-0.3,0.2-0.4,0.3v1.3
		c0.3-0.3,0.7-0.6,1-0.9V58H519.4z M519,63.4C519,63.4,519,63.4,519,63.4l0,0.6h1v-1.4C519.7,62.9,519.3,63.1,519,63.4z M519,61.7
		v1.1c0.2-0.2,0.3-0.3,0.5-0.5c0.2-0.1,0.3-0.3,0.5-0.4v-1.1C519.7,61.2,519.3,61.4,519,61.7z M519,60.1V61l1-0.8v-1
		C519.7,59.5,519.3,59.8,519,60.1z M517,58v0.2c0.1-0.1,0.1-0.1,0.2-0.2H517z M517,61.9v1c0.3-0.3,0.7-0.6,1-0.9V61
		C517.7,61.3,517.3,61.6,517,61.9z M517,59.9v1.6c0.3-0.3,0.7-0.6,1-0.9v-1.4C517.7,59.4,517.3,59.7,517,59.9z M517,63.5V64h0.7
		c0.1-0.1,0.2-0.2,0.3-0.3v-1.1C517.7,62.9,517.3,63.2,517,63.5z M517.8,58c-0.3,0.3-0.6,0.5-0.8,0.8v1c0.3-0.3,0.7-0.7,1-1V58
		H517.8z M517,58v0.2c0.1-0.1,0.1-0.1,0.2-0.2H517z M517,61.9v1c0.3-0.3,0.7-0.6,1-0.9V61C517.7,61.3,517.3,61.6,517,61.9z
		 M517,59.9v1.6c0.3-0.3,0.7-0.6,1-0.9v-1.4C517.7,59.4,517.3,59.7,517,59.9z M517,63.5V64h0.7c0.1-0.1,0.2-0.2,0.3-0.3v-1.1
		C517.7,62.9,517.3,63.2,517,63.5z M517.8,58c-0.3,0.3-0.6,0.5-0.8,0.8v1c0.3-0.3,0.7-0.7,1-1V58H517.8z M519.4,58
		c-0.1,0.1-0.3,0.2-0.4,0.3v1.3c0.3-0.3,0.7-0.6,1-0.9V58H519.4z M517,58v0.2c0.1-0.1,0.1-0.1,0.2-0.2H517z M517,61.9v1
		c0.3-0.3,0.7-0.6,1-0.9V61C517.7,61.3,517.3,61.6,517,61.9z M517,59.9v1.6c0.3-0.3,0.7-0.6,1-0.9v-1.4
		C517.7,59.4,517.3,59.7,517,59.9z M517,63.5V64h0.7c0.1-0.1,0.2-0.2,0.3-0.3v-1.1C517.7,62.9,517.3,63.2,517,63.5z M517.8,58
		c-0.3,0.3-0.6,0.5-0.8,0.8v1c0.3-0.3,0.7-0.7,1-1V58H517.8z M519.4,58c-0.1,0.1-0.3,0.2-0.4,0.3v1.3c0.3-0.3,0.7-0.6,1-0.9V58
		H519.4z M513,56v0.4c0.2-0.1,0.3-0.3,0.4-0.4H513z M517.3,52.3l-0.3,0.1v0.5c0.3-0.2,0.5-0.5,0.8-0.7
		C517.5,52.3,517.3,52.3,517.3,52.3z M520.3,52c-0.3,0.3-0.7,0.7-1,1c0.1,0,0.2,0,0.3,0c0.3,0,0.5,0,0.7,0c0.4-0.3,0.7-0.6,1-0.8
		C521,52.1,520.7,52.1,520.3,52z M521,53.6V54c-0.1,0-0.3,0-0.4,0c-0.9,0.8-2,1.9-3.2,3.1h0.9c0.5-0.5,1-0.9,1.5-1.4
		c0.8-0.7,1.5-1.3,2.3-2v-1C521.7,52.9,521.4,53.2,521,53.6z M518.3,53.9c-0.1,0.1-0.3,0.3-0.4,0.4c-1.3,1.2-2.6,2.3-3.8,3.3V59
		c0.4-0.4,0.7-0.8,1-1.1V57h0.9c0.4-0.4,0.7-0.7,1.2-1.2c0.7-0.7,1.5-1.3,2.2-2C518.9,53.9,518.6,53.9,518.3,53.9z M524.7,58.6
		c-0.2,0.2-0.4,0.4-0.7,0.6v2.6c0.3-0.3,0.6-0.6,0.7-0.5c0.1,0.1-0.2,0.4-0.3,0.5c-0.2,0.2-0.3,0.4-0.5,0.6V66c0,0.4,0,0.6-0.1,0.7
		c0,0.1-0.1,0.1-0.1,0.2c-0.2,0.1-0.6,0.1-1.5,0.1h-5.7c-0.9,0-1.3,0-1.5-0.1c0,0-0.1-0.1-0.1-0.2c0,0,0-0.1,0-0.1
		c-0.2,0.1-0.3,0.3-0.5,0.4c0.2-0.1,0.3-0.3,0.5-0.5c0-0.1,0-0.3,0-0.5v-0.8c-0.3,0.3-0.7,0.6-1,0.9c0,0.4,0,0.7,0.2,1
		c0.1,0.3,0.3,0.5,0.6,0.7c0.5,0.3,1.1,0.3,2,0.3h5.7c0.8,0,1.5,0,2-0.3c0.3-0.1,0.5-0.4,0.6-0.7c0.1-0.3,0.2-0.6,0.2-1.1v-7.7
		C524.9,58.4,524.8,58.5,524.7,58.6z M524,58v0.7c0.3-0.2,0.5-0.5,0.8-0.7H524z M514,64.4V66c0.3-0.4,0.7-0.7,1-1.1v-1.3
		C514.7,63.9,514.3,64.2,514,64.4z M514,61.6v2.7c0.3-0.3,0.7-0.6,1-1v-2.7C514.7,61,514.3,61.3,514,61.6z M514,60.2v1.2
		c0.3-0.4,0.7-0.7,1-1.1v-1C514.7,59.6,514.3,59.9,514,60.2z M525,56v-1c-0.1,0-0.2-0.1-0.3-0.1c-0.8,0.7-1.5,1.4-2.3,2.1h1.9
		c0.1-0.1,0.3-0.2,0.4-0.2c-0.1,0.1-0.2,0.2-0.3,0.2h1.6v-1H525z M522,54.1v-0.2c-0.9,0.9-1.7,1.8-2.6,2.6c-0.2,0.2-0.3,0.3-0.5,0.5
		h1.1c0.5-0.4,0.9-0.8,1.4-1.2c0.6-0.5,1.1-1,1.7-1.5C522.7,54.3,522.3,54.2,522,54.1z M523.4,54.4c-0.3,0.2-0.5,0.5-0.8,0.7
		c-0.7,0.7-1.4,1.3-2.1,1.9h1.4c0.9-0.7,1.7-1.5,2.5-2.2C524.2,54.7,523.8,54.6,523.4,54.4z M519.5,52c-0.4,0-0.8,0-1.1,0.1
		c-0.4,0.4-0.9,0.8-1.4,1.3v0.7c-0.4,0.1-0.7,0.1-1.1,0.2c-0.6,0.6-1.3,1.1-1.9,1.7c-0.3,0.3-0.7,0.6-1,0.8V57h1v0.2
		c0.8-0.7,1.6-1.5,2.5-2.2c0.5-0.4,1-0.9,1.5-1.3v-0.5c0.2,0,0.4-0.1,0.8-0.2c0.4-0.4,0.9-0.7,1.3-1C519.9,52,519.7,52,519.5,52z
		 M514,55v0.5c0.3-0.3,0.6-0.6,1-0.9C514.6,54.8,514.3,54.9,514,55z M519.4,58c-0.1,0.1-0.3,0.2-0.4,0.3v1.3c0.3-0.3,0.7-0.6,1-0.9
		V58H519.4z M517,58v0.2c0.1-0.1,0.1-0.1,0.2-0.2H517z M517,61.9v1c0.3-0.3,0.7-0.6,1-0.9V61C517.7,61.3,517.3,61.6,517,61.9z
		 M517,59.9v1.6c0.3-0.3,0.7-0.6,1-0.9v-1.4C517.7,59.4,517.3,59.7,517,59.9z M517,63.5V64h0.7c0.1-0.1,0.2-0.2,0.3-0.3v-1.1
		C517.7,62.9,517.3,63.2,517,63.5z M517.8,58c-0.3,0.3-0.6,0.5-0.8,0.8v1c0.3-0.3,0.7-0.7,1-1V58H517.8z M521,61.8V64h1v-3
		C521.7,61.3,521.3,61.5,521,61.8z M519,63.4C519,63.4,519,63.4,519,63.4l0,0.6h1v-1.4C519.7,62.9,519.3,63.1,519,63.4z M519.4,58
		c-0.1,0.1-0.3,0.2-0.4,0.3v1.3c0.3-0.3,0.7-0.6,1-0.9V58H519.4z M517,58v0.2c0.1-0.1,0.1-0.1,0.2-0.2H517z M517,61.9v1
		c0.3-0.3,0.7-0.6,1-0.9V61C517.7,61.3,517.3,61.6,517,61.9z M517,59.9v1.6c0.3-0.3,0.7-0.6,1-0.9v-1.4
		C517.7,59.4,517.3,59.7,517,59.9z M517,63.5V64h0.7c0.1-0.1,0.2-0.2,0.3-0.3v-1.1C517.7,62.9,517.3,63.2,517,63.5z M517.8,58
		c-0.3,0.3-0.6,0.5-0.8,0.8v1c0.3-0.3,0.7-0.7,1-1V58H517.8z"/>
</g>
<path class="st0" d="M10,8.4v0.3C9.7,9,9.3,9.3,9,9.6V9.3C9.3,9,9.7,8.7,10,8.4z"/>
<path class="st0" d="M10,8.4v0.3C9.7,9,9.3,9.3,9,9.6V9.3C9.3,9,9.7,8.7,10,8.4z"/>
<path class="st0" d="M10,8.4v0.3C9.7,9,9.3,9.3,9,9.6V9.3C9.3,9,9.7,8.7,10,8.4z"/>
<path class="st0" d="M10,8.4v0.3C9.7,9,9.3,9.3,9,9.6V9.3C9.3,9,9.7,8.7,10,8.4z"/>
<path class="st0" d="M10,8.4v0.3C9.7,9,9.3,9.3,9,9.6V9.3C9.3,9,9.7,8.7,10,8.4z"/>
<path class="st0" d="M10,8.4v0.3C9.7,9,9.3,9.3,9,9.6V9.3C9.3,9,9.7,8.7,10,8.4z"/>
<path class="st0" d="M10,8.4v0.3C9.7,9,9.3,9.3,9,9.6V9.3C9.3,9,9.7,8.7,10,8.4z"/>
<path class="st0" d="M10,8.4v0.3C9.7,9,9.3,9.3,9,9.6V9.3C9.3,9,9.7,8.7,10,8.4z"/>
<path class="st0" d="M10,8.4v0.3C9.7,9,9.3,9.3,9,9.6V9.3C9.3,9,9.7,8.7,10,8.4z"/>
<path class="st0" d="M10,8.4v0.3C9.7,9,9.3,9.3,9,9.6V9.3C9.3,9,9.7,8.7,10,8.4z"/>
<path class="st0" d="M7.2,1.9C6.5,2.5,5.8,3.1,5,3.8C4.6,4.3,4.3,4.6,3.9,5H3v0.9C2.7,6.2,2.4,6.6,2,7V5.6c1.3-1,2.5-2.1,3.8-3.3
	C6,2.2,6.1,2.1,6.3,1.9C6.6,1.9,6.9,1.9,7.2,1.9z"/>
<path class="st0" d="M3,2.6C2.6,2.9,2.3,3.2,2,3.5V3C2.3,2.9,2.6,2.8,3,2.6z"/>
<path class="st0" d="M1.4,4C1.3,4.1,1.2,4.3,1,4.4V4H1.4z"/>
<path class="st0" d="M5.8,0.2C5.5,0.4,5.3,0.6,5,0.9V0.4l0.3-0.1C5.3,0.3,5.5,0.3,5.8,0.2z"/>
<path class="st0" d="M8.1,0c-0.4,0.3-0.9,0.7-1.3,1C6.4,1.1,6.2,1.2,6,1.2v0.5C5.5,2.1,5,2.5,4.5,3C3.6,3.7,2.8,4.5,2,5.2V5H1V4.8
	C1.3,4.6,1.7,4.3,2,4c0.6-0.5,1.3-1.1,1.9-1.7C4.3,2.3,4.6,2.2,5,2.1V1.4c0.5-0.4,0.9-0.9,1.4-1.3C6.7,0,7.1,0,7.5,0
	C7.7,0,7.9,0,8.1,0z"/>
<path class="st0" d="M9.3,0.2C8.9,0.5,8.6,0.7,8.2,1C8,1,7.8,1,7.5,1C7.4,1,7.3,1,7.2,1c0.3-0.3,0.7-0.6,1-1C8.7,0.1,9,0.1,9.3,0.2z
	"/>
<path class="st0" d="M3,8.3C2.7,8.7,2.3,9,2,9.4V8.2c0.3-0.3,0.7-0.6,1-1V8.3z"/>
<path class="st0" d="M3,8.7v2.7c-0.3,0.3-0.7,0.6-1,1V9.6C2.3,9.3,2.7,9,3,8.7z"/>
<path class="st0" d="M2,12.4c0.3-0.3,0.7-0.6,1-0.9v1.3c-0.3,0.4-0.7,0.7-1,1.1V12.4z"/>
<path class="st0" d="M7.7,15c-0.2,0.3-0.5,0.6-1,1H4.7c-0.8,0-1.5,0-2-0.3c-0.3-0.1-0.4-0.4-0.6-0.7C2,14.8,2,14.5,2,14.1
	c0.3-0.3,0.7-0.6,1-0.9V14c0,0.2,0,0.4,0,0.5c-0.2,0.2-0.3,0.3-0.5,0.5c0.2-0.1,0.3-0.2,0.5-0.4c0,0,0,0.1,0,0.1
	c0,0.1,0.1,0.1,0.1,0.2C3.4,15,3.8,15,4.7,15H7.7z"/>
<path class="st0" d="M5.2,6C5.1,6.1,5.1,6.1,5,6.2V6H5.2z"/>
<path class="st0" d="M6,6v0.8c-0.3,0.3-0.7,0.6-1,1v-1C5.3,6.5,5.6,6.3,5.8,6H6z"/>
<path class="st0" d="M6,7.2v1.4C5.7,8.9,5.3,9.2,5,9.5V7.9C5.3,7.7,5.7,7.4,6,7.2z"/>
<path class="st0" d="M5,9.9C5.3,9.6,5.7,9.3,6,9v0.9c-0.3,0.3-0.7,0.6-1,0.9V9.9z"/>
<path class="st0" d="M6,10.6v1.1c-0.1,0.1-0.2,0.2-0.3,0.3H5v-0.5C5.3,11.2,5.7,10.9,6,10.6z"/>
<path class="st0" d="M8,6v0.8C7.7,7.1,7.3,7.4,7,7.7V6.3C7.1,6.2,7.3,6.1,7.4,6H8z"/>
<path class="st0" d="M8,7.2v1L7,9V8.1C7.3,7.8,7.7,7.5,8,7.2z"/>
<path class="st0" d="M8,8.9V10c-0.2,0.1-0.3,0.3-0.5,0.4c-0.2,0.1-0.4,0.3-0.5,0.5V9.7C7.3,9.4,7.7,9.2,8,8.9z"/>
<path class="st0" d="M8,10.6V12H7v-0.6c0,0,0,0,0,0C7.3,11.1,7.7,10.9,8,10.6z"/>
<path class="st0" d="M10,6v0.6C9.7,6.9,9.3,7.1,9,7.4V6.3c0.1,0,0.1-0.1,0.2-0.2c0,0,0.1-0.1,0.2-0.1H10z"/>
<path class="st0" d="M10,7.1v1.2C9.7,8.6,9.3,8.8,9,9.1V8C9.3,7.7,9.7,7.4,10,7.1z"/>
<path class="st0" d="M9,9.3C9.3,9,9.7,8.7,10,8.4v0.3C9.7,9,9.3,9.3,9,9.6V9.3z"/>
<path class="st0" d="M9,9.8C9.3,9.5,9.7,9.3,10,9v3H9V9.8z"/>
<path class="st0" d="M10,0.6v1c-0.7,0.6-1.5,1.3-2.3,2C7.2,4.1,6.7,4.5,6.3,5H5.4c1.3-1.2,2.3-2.2,3.2-3.1c0.1,0,0.3,0,0.4,0V1.6
	C9.4,1.2,9.7,0.9,10,0.6z"/>
<path class="st0" d="M9.3,3.8C8.9,4.2,8.4,4.6,8,5H6.9c0.2-0.2,0.3-0.3,0.5-0.5C8.3,3.7,9.1,2.8,10,1.9v0.2c0.3,0.1,0.7,0.1,1,0.2
	C10.5,2.8,9.9,3.3,9.3,3.8z"/>
<path class="st0" d="M12.6,2.8C11.7,3.5,10.9,4.3,10,5H8.6c0.7-0.6,1.4-1.2,2.1-1.9c0.3-0.2,0.5-0.5,0.8-0.7
	C11.8,2.6,12.2,2.7,12.6,2.8z"/>
<path class="st0" d="M14,4v1h-1.6c0.1-0.1,0.2-0.2,0.3-0.2c-0.1,0.1-0.2,0.2-0.4,0.2h-1.9c0.8-0.7,1.5-1.4,2.3-2.1
	C12.8,2.9,12.9,3,13,3v1H14z"/>
<path class="st0" d="M12.8,6c-0.3,0.2-0.5,0.4-0.8,0.7V6H12.8z"/>
<path class="st0" d="M13,6.3v1.8c-0.4,0.3-0.7,0.5-1,0.7V7.2c0.2-0.2,0.4-0.4,0.7-0.6C12.8,6.5,12.9,6.4,13,6.3z"/>
<path class="st0" d="M10,8.4v0.3C9.7,9,9.3,9.3,9,9.6V9.3C9.3,9,9.7,8.7,10,8.4z"/>
<path class="st0" d="M10,8.4v0.3C9.7,9,9.3,9.3,9,9.6V9.3C9.3,9,9.7,8.7,10,8.4z"/>
<path class="st0" d="M10,8.4v0.3C9.7,9,9.3,9.3,9,9.6V9.3C9.3,9,9.7,8.7,10,8.4z"/>
<path class="st0" d="M10,8.4v0.3C9.7,9,9.3,9.3,9,9.6V9.3C9.3,9,9.7,8.7,10,8.4z"/>
<path class="st0" d="M10,8.4v0.3C9.7,9,9.3,9.3,9,9.6V9.3C9.3,9,9.7,8.7,10,8.4z"/>
<path class="st0" d="M10,8.4v0.3C9.7,9,9.3,9.3,9,9.6V9.3C9.3,9,9.7,8.7,10,8.4z"/>
<path class="st0" d="M10,8.4v0.3C9.7,9,9.3,9.3,9,9.6V9.3C9.3,9,9.7,8.7,10,8.4z"/>
<path class="st0" d="M10,8.4v0.3C9.7,9,9.3,9.3,9,9.6V9.3C9.3,9,9.7,8.7,10,8.4z"/>
<path class="st0" d="M10,8.4v0.3C9.7,9,9.3,9.3,9,9.6V9.3C9.3,9,9.7,8.7,10,8.4z"/>
<path class="st0" d="M10,8.4v0.3C9.7,9,9.3,9.3,9,9.6V9.3C9.3,9,9.7,8.7,10,8.4z"/>
</svg>
