<?xml version="1.0" encoding="utf-8"?>
<!-- Generator: Adobe Illustrator 23.0.0, SVG Export Plug-In . SVG Version: 6.00 Build 0)  -->
<svg version="1.1" id="Layer_1" xmlns="http://www.w3.org/2000/svg" xmlns:xlink="http://www.w3.org/1999/xlink" x="0px" y="0px"
	 viewBox="0 0 48 48" style="enable-background:new 0 0 48 48;" xml:space="preserve">
<style type="text/css">
	.st0{clip-path:url(#SVGID_2_);fill:#F75049;}
</style>
<g>
	<defs>
		<path id="SVGID_1_" d="M65.6,16.8c-0.2-0.4-0.9-0.1-1.6-0.7c-0.6-0.5-0.4-1-0.9-1.2c-1.1-0.7-3.6,1.4-3.7,1.3c0-0.1,1-0.8,2-1.9
			c0.6-0.7,1.8-2,1.5-2.8c-0.2-0.5-0.8-0.5-0.9-1c-0.1-0.8,1.3-1.2,1.3-2.1c0-0.4-0.5-0.8-0.8-1c-1-0.4-2.2,0.7-2.3,0.6
			c0-0.1,0.8-0.5,1.2-1.4c0.1-0.2,0.5-1,0.2-1.3c-0.2-0.3-0.7-0.3-1.1-0.2c-0.3,0.1-0.5,0.2-0.7,0.1c-0.1-0.1,0-0.3-0.1-0.4
			c-0.1-0.5-1-0.8-1.6-0.8c-1.5-0.1-2.7,1.3-2.9,1.1c-0.2-0.2,1.4-1.5,1-2.5c-0.1-0.4-0.6-0.7-1-0.8c-0.7,0-1.1,0.9-1.4,0.8
			c-0.4-0.2,0.3-2-0.3-2.4c-0.4-0.2-0.8,0.3-1.6,0c-0.4-0.2-0.5-0.4-0.7-0.5c-0.9-0.3-2.1,1.2-3.7,2.6c-0.7,0.6-1.7,1.4-3.2,2.3
			c0.7-0.9,1.4-1.6,1.8-2.1c1.2-1.3,1.8-1.8,1.8-2.6c0-0.4-0.1-1-0.5-1.2c-0.5-0.2-1.1,0.5-3,1.8C44,0.7,43.6,1,43.3,1.1
			c0.1-0.1,0.9-1,0.6-2c0-0.1-0.2-0.4-0.6-0.8c-1.2-1-3.2-0.5-3.4-0.4c-2.4,0.6-3.1,2.3-6.1,3.8c0,0-0.4,0.2-0.9,0.5
			c-1.1,0.6-1.7,0.9-1.9,1.1c-0.7,0.5-1.3,0.9-1.6,1.6c-0.3,0.7-0.2,1.2-0.6,1.7c-0.4,0.4-0.8,0.5-1,0.5c-1.7,0.4-3.7,3.4-4,3.7
			c-1.1,1.6-4.8,5.4-14.8,14.4c13.4-14.1,17.5-18.6,17.7-19c0,0,0,0,0,0C26.7,6,27.1,5,26.7,4.6c-0.2-0.2-0.6-0.1-0.8-0.4
			c0,0-0.1-0.2-0.1-0.4C25.9,3.2,27,3.1,27,2.8c0-0.1-0.2-0.1-0.6-0.3c-0.8-0.3-0.8-0.6-1.2-0.7c-0.7-0.2-1.4,0.2-1.8,0.5
			c-0.6,0.3-0.9,0.7-1.1,0.6c-0.1-0.1,0.1-0.5-0.1-0.8c-0.2-0.3-0.7-0.2-0.8-0.2c-1,0.1-1.5,0.8-1.8,0.6c-0.2-0.1,0-0.5-0.2-0.8
			c-0.2-0.4-0.6-0.3-1-0.6c-0.5-0.4-0.3-0.8-0.9-1.5c-0.2-0.3-0.6-0.7-1.1-0.9c-0.6-0.2-0.8,0.1-1.5-0.1c-0.7-0.2-0.8-0.7-1.4-0.8
			C13-2.3,12.7-2.2,12.3-2c-0.9,0.4-0.9,0.8-1.3,0.9c-0.5,0-0.6-0.5-1.5-0.7c-0.3,0-0.6-0.1-0.8,0.1c-0.3,0.3,0.1,1-0.3,1.4
			c-0.2,0.2-0.6,0.1-0.8,0C7.4-0.6,7.4-0.8,7.3-1c-0.6-0.6-3.2,0.2-4,1.8C3.1,1.1,3,1.4,2.6,1.6c-0.5,0.2-0.8,0-1.3,0
			C0.5,1.6,0,2.3-1.8,4.4c0,0-0.4,0.4-1.6,1.8c-2.5,2.8-3,3.2-3,4c0,1.5,0.1,2,0.1,2c0.1,0.3,0.3,0.7,0.1,1
			c-0.1,0.2-0.3,0.1-0.5,0.3c-0.3,0.4,0.2,1,0.1,2.2c0,0,0,0-0.1,0.8c-0.3,1.5-0.3,1.8-0.1,2c0.2,0.2,0.4,0.2,0.7,0.2
			c0.5,0,0.9-0.2,1-0.3c1.1-1.3,2.1-2.6,3.2-3.8c-0.4,0.9-0.9,1.6-1.2,2.1c-0.5,0.7-0.9,1.1-1.4,2c-0.1,0.3-0.3,0.6-0.4,1
			C-5,20.3-5.4,21.1-5,21.8c0.1,0.3,0.3,0.4,0.4,0.9c0.1,0.5-0.1,0.8,0.1,1.1c0.1,0.2,0.3,0.1,0.4,0.4c0.3,0.4-0.1,0.9,0.1,1.6
			c0.1,0.5,0.2,0.3,0.3,0.8c0.2,0.8-0.2,1.1,0,2c0.1,0.4,0.1,0.6,0.3,0.8c0.4,0.4,1-0.2,1.6,0.1c0.5,0.3,0.3,0.9,0.8,1.1
			c0.3,0.1,0.5-0.2,1.1-0.1c0.1,0,0.8,0,1,0.4c0.1,0.3-0.3,0.8-0.7,1c-1,0.6-2.3-0.2-2.4,0.1c-0.1,0.2,0.3,0.6,0.6,0.9
			c2.8,2.7,2.8,2.8,3.8,3.4c0.9,0.5,0.8,0.3,1.9,0.9c1.5,0.8,3,1.7,3.1,2.9c0,0.7-0.4,0.8-0.4,1.7c0,0.6,0.3,1.6,0.9,1.8
			c0.6,0.2,0.8-0.4,1.7-0.3c0.9,0.1,0.9,0.7,1.7,0.7c1,0,1.5-1.2,2.3-1c0.5,0.1,0.5,0.5,1.1,0.8c0.6,0.2,1.1,0.1,1.5-0.1
			c3-3,7.5-7.7,13.1-13.6c4.6-4.9,5.8-6.3,8.4-8.7C45,14.2,52.8,8.6,53.2,9.1c0.2,0.3-3.4,3.6-15.5,15.2c-8.5,8-15.4,14.7-20.1,19.2
			c0,0.9,0.3,1.3,0.5,1.4c0.6,0.4,1.4-0.5,2.1,0c0.3,0.2,0.7,0.6,0.9,1.2c0.1,0.5,0,0.8,0.3,1.1c0.2,0.2,0.3,0.1,0.5,0.3
			c0.5,0.5,0.3,1,0.7,1.3c0.5,0.4,1.1,0.1,1.2,0.5c0.1,0.2-0.1,0.4-0.1,0.7c0.1,0.4,0.4,0.4,0.5,0.7c0.1,0.5-0.8,0.8-1,1.7
			c-0.1,0.6,0.2,0.7,0.2,1.3c-0.1,1.3-1.6,1.6-1.5,2.7c0,0.6,0.7,1.3,1.3,1.4c1,0.1,1.3-1.2,2.4-1.2c1.2,0,1.6,1.7,2.6,1.5
			c0.7-0.1,0.8-1,1.7-1.1c0.6,0,0.8,0.3,1.2,0.1c0.4-0.2,0.3-0.6,0.7-0.8c0.2-0.1,0.3,0,0.5,0.1c0.7,0.1,1.6-1.1,2-2.3
			c0.3-1,0-1.4,0.5-2.2c0.3-0.6,0.8-0.9,1-1.1c1.6-1.1,3.4-2.8,5.1-4.5c2.3-2.2,2.6-3.1,4.1-3.9c0.2-0.1,0.8-0.4,1.3-0.9
			c0.9-0.8,1.2-1.6,1.6-2.3c1.1-2.2,2.4-2.3,4.7-5.8c0.1-0.2,0.6-0.9,0.5-1c-0.3-0.2-3.3,3.2-4.1,2.7c-0.2-0.1-0.2-0.5-0.1-0.7
			c0.2-1.6,2.4-2.2,5.4-4.8c0.8-0.7,0.5-0.5,1.4-1.3c2.3-2.1,4.9-3.7,5.5-4.9c0.4-0.8,0.7-1.6,0.7-1.6c0.1-0.3,0.1-0.4,0.1-0.5
			c0.3-0.8,0.7-1.1,1.9-2.4C65.5,17.4,65.7,17,65.6,16.8z M17.5,14.6c-0.9,1.1-1.8,1.9-2.6,2.5c0.5-0.8,1.2-1.8,2.2-2.7
			c0.4-0.4,0.8-0.7,1.2-0.9C18.1,13.9,17.8,14.2,17.5,14.6z M16.9,11.1c1.4-1.5,2.7-2.8,4-3.9c-1,1.3-2.2,2.7-3.6,4.2
			c-0.9,0.9-1.8,1.7-2.6,2.5C15.3,13,16.1,12.1,16.9,11.1z M1.1,11c0.3-0.5,0.6-1.2,1.2-1.8C2.6,9,2.8,8.8,3,8.6
			C2.9,8.9,2.8,9.1,2.6,9.4C2.1,10.1,1.6,10.6,1.1,11z M3.5,34.1c-0.3,0.3-0.6,0.5-0.7,0.5c0-0.1,0-0.5,0.3-0.9
			c0.3-0.4,0.8-0.5,0.9-0.5C3.9,33.4,3.8,33.8,3.5,34.1z M2.6,20.9c0.9-1.1,1.8-2.3,2.8-3.4c0,0.3,0.1,0.6,0.1,0.8
			C4.5,19.2,3.6,20.1,2.6,20.9z M7.5,38c-0.1,0.1-0.5-0.6-1.5-1.7c-0.3-0.3-0.5-0.5-0.4-0.8c0.1-0.2,0.3-0.3,0.6-0.5
			c0.3-0.2,0.8-0.6,1.2-1.3c0,0.6-0.2,0.9-0.3,1.2c-0.1,0.3-0.3,0.5-0.2,0.7c0.1,0.1,0.3,0.1,0.4,0.3c0.1,0.2,0,0.4,0,0.7
			C7.2,37.4,7.6,37.9,7.5,38z M7.3,6c0.3-0.5,0.6-1.2,1.2-1.8C8.7,4,8.9,3.8,9.2,3.6C9,3.8,8.9,4.1,8.7,4.3C8.2,5.1,7.7,5.6,7.3,6z
			 M15.2,24.7c3-3.8,6.6-7.9,10.8-12c3.1-3,6.1-5.6,9-7.9c-2.1,2-4.2,4-6.3,6.1C24,15.5,19.5,20.1,15.2,24.7z M29.2,12.7
			c2.3-2.3,4.6-4.2,6.7-5.7c-1.2,1.5-2.5,2.9-3.9,4.4c-3.2,3.5-6.4,6.7-9.6,9.6C24.1,18.5,26.3,15.6,29.2,12.7z M34.3,17.8
			c3.1-2.7,6.2-5.2,9.1-7.4c-2,2-4.1,4-6.3,6.1c-4.4,4.1-8.8,7.7-13,10.9C27.2,24.2,30.6,21,34.3,17.8z M39.2,18.1
			c-4.5,4.1-8.8,7.7-13,10.9c3.1-3.1,6.5-6.3,10.3-9.5c3.1-2.7,6.2-5.2,9.1-7.4C43.5,14.1,41.4,16.1,39.2,18.1z M55.5,13.7
			c-2,2-4.1,4-6.3,6.1c-4.4,4.1-8.8,7.7-13,10.9c3.1-3.1,6.5-6.3,10.3-9.5C49.5,18.5,52.5,16,55.5,13.7z M28.6,35.7
			c4.1-4.8,8.9-9.9,14.5-14.9c2.5-2.3,5-4.4,7.4-6.3c-2.7,2.8-5.4,5.5-8.2,8.3C37.8,27.1,33.2,31.4,28.6,35.7z M29.7,40.4
			c4.4-4.4,9.2-8.8,14.3-13.3c4-3.6,8-6.9,11.8-10.1c-3.1,3-6.4,6-9.7,9C40.5,31.1,35,35.8,29.7,40.4z M30.4,43.2
			c3.1-3.6,7-7.6,11.7-11.7c3.9-3.4,7.7-6.1,11.2-8.4c-3.1,2.7-6.1,5.4-9.2,8.1C39.5,35.3,34.9,39.2,30.4,43.2z M53.2,27
			c-3.4,3.1-6.8,6-10.1,8.6c0.6-0.5,1.2-1.1,1.8-1.6c2.2-2,4.3-4.1,6.3-6.1c-0.3,0.2-0.6,0.4-0.8,0.6c-0.2,0.1-0.3,0.3-0.5,0.4
			c-3.6,3.1-6.9,6.2-10,9.3c-2.6,2.2-5.1,4.2-7.6,6.1c3.1-3.1,6.5-6.3,10.3-9.5c2.8-2.4,5.6-4.7,8.3-6.8c2.9-2.5,5.8-4.9,8.6-7
			C57.5,23,55.4,25,53.2,27z"/>
	</defs>
	<clipPath id="SVGID_2_">
		<use xlink:href="#SVGID_1_"  style="overflow:visible;"/>
	</clipPath>
	<path class="st0" d="M44,24c0,11-9,20-20,20S4,35,4,24S13,4,24,4c7.6,0,14.1,4.2,17.5,10.4h-6.6l-1.3-1.3L18.8,27.9l-4.2-4.2
		L11,27.2l4.2,4.2l3.5,3.5l18.4-18.4l-0.3-0.3h5.6C43.5,18.7,44,21.3,44,24z"/>
</g>
</svg>
