<svg xmlns="http://www.w3.org/2000/svg" viewBox="0 0 431.86 161.07"><defs><style>.cls-1{fill:none;stroke:#fb932e;stroke-miterlimit:10;}</style></defs><title>root-icon-passAsset 236</title><g id="Layer_2" data-name="Layer 2"><g id="Layer_11" data-name="Layer 11"><path class="cls-1" d="M431.46,153.41h-3.77l-.95-.95-.63-.63h-9.63L408.62,144v-38.7l-1.79-1.79L405,101.68l-1.79-1.79-1.79-1.79L377.61,74.25,374,70.67l-1.79-1.79-1.79-1.79H85.65L26.22,7.65,24.43,5.86,22.64,4.08,20.86,2.29,19.07.5H5.75L4.17,2.09H.4"/><path class="cls-1" d="M431.46,157h-3.77l-1.05-1.05-.53-.53H415l-1.79-1.79-1.79-1.79-2.8-2.8h0l-1.79-1.79L405,145.44v-5.06h0V106.74L403.25,105l-1.79-1.79L372.55,74.25l-1.8-1.79L369,70.67H84.17l-1.79-1.79-1.79-1.79L21.16,7.66,19.37,5.87,17.58,4.08H5.75L4.17,5.67H.4"/><path class="cls-1" d="M431.46,158.78h-3.77l-1.1-1.1-.48-.48H414.26l-3.58-3.58-1.79-1.79-.27-.27h0l-5.37-5.37v-7.59h0v-31.1L370,74.25l-1.79-1.79H83.44l-5.37-5.37L18.64,7.66,16.85,5.87H5.75L4.17,7.46H.4"/><path class="cls-1" d="M431.46,160.57h-3.77l-.82-.82-.1-.09-.23-.24-.43-.43H413.52l-1.79-1.79-3.11-3.11-.48-.48h0l-1.31-1.31-.48-.48L405,150.5l-1.79-1.79-1.79-1.79V108.24l-34-34H82.69L80.9,72.46l-1.79-1.79-1.79-1.79-1.79-1.79L16.1,7.66H5.75L4.17,9.25H.4"/><path class="cls-1" d="M.4,3.88H4.17L5.75,2.3H18.33L23.7,7.66,83.13,67.09l1.79,1.79H369.7l1.79,1.79,1.79,1.79,1.79,1.79,28.18,28.18,1.79,1.79,1.79,1.79v36.16h0v2.53l1.79,1.79h0l5.33,5.33,1.79,1.79h10.37l.58.58,1,1h3.77"/></g></g></svg>