<svg xmlns="http://www.w3.org/2000/svg" viewBox="0 0 98.04 97.44"><defs><style>.cls-1{fill:none;stroke:#b8bbc9;stroke-miterlimit:10;stroke-width:0.25px;}</style></defs><title>root-icon-passAsset 55</title><g id="Layer_2" data-name="Layer 2"><g id="ITEM"><g id="Layer_7" data-name="Layer 7"><path class="cls-1" d="M88,32.58V63.19c-1.17,1.47-2.33,2.94-3.51,4.4v8.54L73.41,88h-57l-3.28-3.33V67.59L9.84,63.2V37h0V32.59l3.3-2.86v-9.5L23.31,10.11H81l3.45,3.43V29.73Z"/><path class="cls-1" d="M97.92,17.12V82.44H90.59L83,90.52v6.8H15.62v-5.5l.32.33H77.62V85.7l7.54-7.81h7.13V17.61L81.93,6.18H20.6l-.1,5.17-9.07,8.89H6.32V81.68l.52.55H.13V14.55l5.72,0,8.3-8.1L14,.18,82.3.13l-.42,6q5.19,5.75,10.37,11.48Z"/><line class="cls-1" x1="6.08" y1="81.73" x2="15.77" y2="92.09"/></g></g></g></svg>