<?xml version="1.0" encoding="UTF-8"?>
<svg version="1.1" xmlns="http://www.w3.org/2000/svg" width="194" height="37">
<path d="M0 0 C6.79948371 -0.04583922 13.59843427 -0.08568637 20.39794922 -0.10986328 C22.71242079 -0.11993892 25.02687959 -0.13359975 27.34130859 -0.15087891 C30.66246693 -0.17505865 33.9834574 -0.1864673 37.3046875 -0.1953125 C38.34430634 -0.20563507 39.38392517 -0.21595764 40.45504761 -0.22659302 C41.41589264 -0.22674408 42.37673767 -0.22689514 43.36669922 -0.22705078 C44.63910965 -0.23371262 44.63910965 -0.23371262 45.93722534 -0.24050903 C48 0 48 0 50 2 C52.60935916 2.31538518 52.60935916 2.31538518 55.70730591 2.2784729 C57.52888718 2.29521812 57.52888718 2.29521812 59.38726807 2.31230164 C60.740112 2.31466682 62.09295627 2.31684243 63.44580078 2.31884766 C64.8648028 2.32814184 66.28379933 2.33830975 67.70278931 2.34928894 C71.56204024 2.37666061 75.42125454 2.39175946 79.28057718 2.40471697 C83.31118902 2.42031628 87.34172566 2.44711662 91.37228394 2.4727478 C99.00787168 2.51959244 106.64347348 2.55630895 114.27913177 2.58942068 C122.97071573 2.62760199 131.66222428 2.67702254 140.35374475 2.72740483 C158.23577469 2.83080919 176.11785062 2.92004185 194 3 C194.23402847 7.16570674 194.37498061 11.32971046 194.5 15.5 C194.56703125 16.67304688 194.6340625 17.84609375 194.703125 19.0546875 C194.83057443 24.72618707 194.69326025 29.21081595 191.09265137 33.7869873 C184.61807854 39.1536313 175.95057549 38.04490672 168.01757812 37.90820312 C166.18391011 37.90594464 164.35023486 37.90721691 162.51657104 37.91174316 C157.55375472 37.91403352 152.59249308 37.86708401 147.63003731 37.8111515 C142.43845684 37.76105576 137.24683858 37.75643497 132.05505371 37.74694824 C122.23058797 37.72210814 112.40683654 37.65649277 102.58268499 37.57615232 C91.39538902 37.48665518 80.20805849 37.44272758 69.02049351 37.40258884 C46.01317539 37.31902426 23.00683617 37.17234578 0 37 C0 24.79 0 12.58 0 0 Z M2 2 C2 12.89 2 23.78 2 35 C25.73923921 35.1620528 49.47834516 35.28696697 73.21802616 35.3626852 C84.24083856 35.39877729 95.26330094 35.4479822 106.28588867 35.52807617 C115.89337807 35.59785426 125.50061398 35.64300946 135.10834974 35.65861946 C140.19556428 35.66774418 145.28205365 35.68918242 150.36903572 35.7401104 C155.15855423 35.78767125 159.94704985 35.80227143 164.73678207 35.79175377 C166.49319839 35.79367746 168.24964936 35.80757485 170.00586128 35.83443832 C180.41388075 36.32140761 180.41388075 36.32140761 189.57225037 32.19642639 C193.25742611 27.34937194 192.76622704 21.88205225 192.4375 16.0625 C192.39012695 14.46438477 192.39012695 14.46438477 192.34179688 12.83398438 C192.25973625 10.21976725 192.14502211 7.6113542 192 5 C190.8972898 4.99503478 190.8972898 4.99503478 189.77230263 4.98996925 C171.90445617 4.90883346 154.0366968 4.81677223 136.16897011 4.71247292 C127.52835494 4.66229994 118.88774949 4.61585768 110.24707031 4.578125 C102.71795797 4.545237 95.18891997 4.50542368 87.65988958 4.45720994 C83.67142187 4.43191305 79.68300368 4.41014133 75.69447708 4.39665604 C71.94343775 4.38386444 68.19256798 4.3618419 64.44162178 4.33261681 C63.06213141 4.3235182 61.68261371 4.3178455 60.30309486 4.31578636 C58.42513898 4.31248004 56.54722038 4.29585609 54.66934204 4.2784729 C53.09031066 4.27017676 53.09031066 4.27017676 51.47937965 4.26171303 C49 4 49 4 47 2 C44.97990192 1.70848578 44.97990192 1.70848578 42.64208984 1.77294922 C41.29091568 1.77317581 41.29091568 1.77317581 39.91244507 1.77340698 C38.93844757 1.78372955 37.96445007 1.79405212 36.9609375 1.8046875 C35.46694931 1.80893234 35.46694931 1.80893234 33.94277954 1.81326294 C30.75339882 1.8244816 27.56429622 1.84958919 24.375 1.875 C22.21614988 1.88502762 20.05729537 1.89415385 17.8984375 1.90234375 C12.59876429 1.92272711 7.29969443 1.9618727 2 2 Z " fill="#F75049" transform="translate(0,0)"/>
</svg>
