<svg xmlns="http://www.w3.org/2000/svg" width="194" height="37">
    <path
        d="M0 0c6.8-.046 13.598-.086 20.398-.11 2.314-.01 4.629-.024 6.943-.04 3.321-.025 6.642-.036 9.964-.045l3.15-.032h2.912l2.57-.014C48 0 48 0 50 2c2.61.315 2.61.315 5.707.278l3.68.034 4.059.007 4.257.03c3.859.028 7.718.043 11.578.056 4.03.015 8.06.042 12.091.068 7.636.047 15.271.083 22.907.116 8.692.039 17.383.088 26.075.138 17.882.104 35.764.193 53.646.273.234 4.166.375 8.33.5 12.5l.203 3.555c.128 5.671-.01 10.156-3.61 14.732-6.475 5.367-15.142 4.258-23.075 4.121-1.834-.002-3.668 0-5.501.004-4.963.002-9.925-.045-14.887-.1-5.192-.05-10.383-.056-15.575-.065a5217.01 5217.01 0 01-29.472-.17c-11.188-.09-22.375-.134-33.563-.174C46.013 37.319 23.007 37.173 0 37V0zm2 2v33c23.74.162 47.478.287 71.218.363 11.023.036 22.045.085 33.068.165 9.607.07 19.215.115 28.822.13 5.088.01 10.174.031 15.261.082 4.79.048 9.578.062 14.368.052 1.756.002 3.513.016 5.269.042 10.408.487 10.408.487 19.566-3.638 3.685-4.847 3.194-10.314 2.865-16.133l-.095-3.229A325.21 325.21 0 00192 5l-2.228-.01a41348.87 41348.87 0 01-53.603-.278c-8.64-.05-17.281-.096-25.922-.134-7.529-.033-15.058-.073-22.587-.12-3.989-.026-7.977-.048-11.966-.061-3.75-.013-7.501-.035-11.252-.064-1.38-.01-2.76-.015-4.139-.017-1.878-.004-3.756-.02-5.634-.038l-3.19-.016C49 4 49 4 47 2c-2.02-.292-2.02-.292-4.358-.227h-2.73l-2.951.032-3.018.008c-3.19.011-6.379.037-9.568.062-2.159.01-4.318.02-6.477.027C12.598 1.922 7.3 1.962 2 2z"
        fill="#ffffff" />
</svg>