<?xml version="1.0" encoding="utf-8"?>
<!-- Generator: Adobe Illustrator 23.0.0, SVG Export Plug-In . SVG Version: 6.00 Build 0)  -->
<svg version="1.1" id="Layer_1" xmlns="http://www.w3.org/2000/svg" xmlns:xlink="http://www.w3.org/1999/xlink" x="0px" y="0px"
	 viewBox="0 0 256 256" style="enable-background:new 0 0 256 256;" xml:space="preserve">
<style type="text/css">
	.st0{opacity:0.8;}
	.st1{fill:#C49239;}
	.st2{fill:#EF514A;stroke:#E02526;stroke-width:0.25;stroke-miterlimit:10;}
	.st3{opacity:0.1;fill:#C49239;}
	.st4{fill:none;}
	.st5{opacity:0.4;fill:#C49239;}
	.st6{fill:none;stroke:#C49239;stroke-width:0.25;stroke-miterlimit:10;}
</style>
<g class="st0">
	<g>
		<path class="st1" d="M114,164.3c3.5,0.3,7.7-1.1,9.7-3.1l0.6-0.7l-0.8-2.8c-3-10.3,2.4-17.6,11.7-15.7c6.7,1.4,13.8,8.3,16.2,15.9
			c0.6,1.8,0.6,1.8,0.4,0.5c-0.6-3.8-2.3-7.9-5.1-11.8c-2.9-4.1-6.4-7.1-10.6-9.3c-1.3-0.7-1.4-0.7-1.9,0c-0.8,1-3,2.4-4.6,2.9
			c-4.4,1.2-11.2-1.4-15.6-5.9c-5-5.1-7.8-12.3-6.9-17.7c0.5-2.9,1.8-5.2,4-6.7c1.6-1.1,1.7-1.3,0.8-1.1c-1.5,0.3-5,2.9-6.1,4.5
			c-1.2,1.8-2.1,5.3-2.1,7.8c0,2.2,0.6,5.3,1.4,7.7c0.5,1.4,0.5,1.5,2.3,2.4c1,0.5,2.6,1.5,3.6,2.2c8.4,6.1,12.3,17.5,8.4,24.1
			c-2.7,4.5-8.8,5.7-14.6,2.7c-2.3-1.2-2.1-0.8,0.5,0.9C107.6,162.6,111.8,164.1,114,164.3L114,164.3z"/>
		<path class="st1" d="M121.9,105.1c-20.3-7.4-36.8,3.2-36.8,23.6s16.5,43.6,36.8,51.7s36.8-2.5,36.8-23.6S142.2,112.5,121.9,105.1z
			 M121.9,109.2c18.2,6.6,32.9,27.2,32.9,46.1s-14.7,28.3-32.9,21.1s-32.9-27.9-32.9-46.1S103.7,102.6,121.9,109.2z"/>
	</g>
</g>
<g>
	<g>
		<path class="st1" d="M86.6,188.2l-0.4-0.3c-0.2-0.1-0.3-0.3-0.4-0.5c-0.1-0.2-0.1-0.4-0.1-0.6v-1.3c0-0.2,0-0.3,0.1-0.4
			c0.1,0,0.2,0,0.4,0.1l0.4,0.3c0.2,0.1,0.3,0.3,0.4,0.5c0.1,0.2,0.1,0.4,0.1,0.6v1.3c0,0.2,0,0.3-0.1,0.4
			C87,188.4,86.8,188.3,86.6,188.2z M86.3,187.5l0.2,0.2c0.1,0.1,0.1,0.1,0.2,0.1c0,0,0-0.1,0-0.2v-1.2c0-0.1,0-0.2,0-0.2
			c0-0.1-0.1-0.1-0.2-0.2l-0.2-0.2c-0.1,0-0.1-0.1-0.2,0c0,0,0,0.1,0,0.2v1.2c0,0.1,0,0.2,0,0.2C86.2,187.4,86.2,187.5,86.3,187.5z"
			/>
		<path class="st1" d="M88,189.1l-0.3-0.2c0,0-0.1-0.1-0.1-0.1v-2.5c0-0.1,0-0.1,0.1,0l0.3,0.2c0,0,0.1,0.1,0.1,0.1l0.7,2l0,0v-1.5
			c0-0.1,0-0.1,0.1,0l0.3,0.2c0,0,0.1,0.1,0.1,0.1v2.5c0,0.1,0,0.1-0.1,0l-0.3-0.2c-0.1,0-0.1-0.1-0.1-0.2l-0.7-2l0,0L88,189.1
			C88.1,189.1,88,189.2,88,189.1z"/>
		<path class="st1" d="M90.9,191.1l-1.1-0.8c0,0-0.1-0.1-0.1-0.1v-2.5c0-0.1,0-0.1,0.1,0l0.3,0.2c0,0,0.1,0.1,0.1,0.1v2.1
			c0,0,0,0.1,0,0.1l0.7,0.5c0,0,0.1,0.1,0.1,0.1L90.9,191.1C91,191.1,90.9,191.1,90.9,191.1z"/>
		<path class="st1" d="M92,191.9l-0.3-0.2c0,0-0.1-0.1-0.1-0.1v-0.9l-0.6-2c0,0,0-0.1,0-0.1c0,0,0,0,0,0l0.4,0.2
			c0,0,0.1,0.1,0.1,0.1l0.3,1.2l0,0l0.3-0.8c0,0,0-0.1,0.1,0l0.4,0.2c0,0,0,0,0.1,0.1c0,0,0,0,0,0.1l-0.6,1.2L92,191.9
			C92.1,191.9,92.1,191.9,92,191.9z"/>
		<path class="st1" d="M94.9,193.8l-0.3-0.2c0,0-0.1-0.1-0.1-0.1V191c0-0.1,0-0.1,0.1,0l0.8,0.6c0.2,0.1,0.3,0.3,0.4,0.5
			c0.1,0.2,0.2,0.4,0.2,0.6v0.3c0,0.3-0.1,0.5-0.3,0.4v0l0.4,1.2c0,0.1,0,0.1-0.1,0.1l-0.3-0.2c0,0-0.1-0.1-0.1-0.1c0,0,0-0.1,0-0.1
			l-0.3-1.2l-0.2-0.2c0,0,0,0,0,0L94.9,193.8C95,193.9,95,193.9,94.9,193.8z M95,192.5l0.3,0.2c0.1,0,0.1,0.1,0.2,0.1
			c0,0,0.1-0.1,0.1-0.1v-0.3c0-0.1,0-0.2-0.1-0.2c0-0.1-0.1-0.1-0.2-0.2l-0.3-0.2c0,0,0,0,0,0L95,192.5C95,192.4,95,192.5,95,192.5z
			"/>
		<path class="st1" d="M97.4,195.5l-0.4-0.3c-0.2-0.1-0.3-0.3-0.4-0.5c-0.1-0.2-0.1-0.4-0.1-0.6v-1.4c0-0.2,0-0.4,0.1-0.4
			c0.1-0.1,0.2,0,0.4,0.1l0.4,0.3c0.2,0.1,0.3,0.3,0.4,0.5c0.1,0.2,0.1,0.4,0.1,0.6v1.4c0,0.2,0,0.4-0.1,0.4
			C97.7,195.7,97.6,195.6,97.4,195.5z M97.1,194.8l0.2,0.2c0.1,0.1,0.1,0.1,0.2,0c0,0,0-0.1,0-0.2v-1.3c0-0.1,0-0.2,0-0.2
			c0-0.1-0.1-0.1-0.2-0.2l-0.2-0.2c-0.1,0-0.1-0.1-0.2,0c0,0,0,0.1,0,0.2v1.3c0,0.1,0,0.2,0,0.2C96.9,194.7,97,194.8,97.1,194.8z"/>
		<path class="st1" d="M99.3,196.8l-0.4-0.3c-0.2-0.1-0.3-0.3-0.4-0.5c-0.1-0.2-0.1-0.4-0.1-0.6v-1.4c0-0.2,0-0.4,0.1-0.4
			c0.1-0.1,0.2,0,0.4,0.1l0.4,0.3c0.2,0.1,0.3,0.3,0.4,0.5c0.1,0.2,0.1,0.4,0.1,0.6v1.4c0,0.2,0,0.4-0.1,0.4
			C99.6,197,99.5,196.9,99.3,196.8z M99,196.1l0.2,0.2c0.1,0.1,0.1,0.1,0.2,0c0,0,0-0.1,0-0.2v-1.3c0-0.1,0-0.2,0-0.2
			s-0.1-0.1-0.2-0.2l-0.2-0.2c-0.1,0-0.1-0.1-0.2,0c0,0,0,0.1,0,0.2v1.3c0,0.1,0,0.2,0,0.2C98.9,196,98.9,196.1,99,196.1z"/>
		<path class="st1" d="M101,198l-0.3-0.2c-0.1,0-0.1-0.1-0.1-0.1v-2.2c0,0,0-0.1,0-0.1l-0.4-0.3c0,0-0.1-0.1-0.1-0.1v-0.3
			c0-0.1,0-0.1,0.1,0l1.3,0.9c0,0,0.1,0.1,0.1,0.1v0.3c0,0.1,0,0.1-0.1,0l-0.4-0.3c0,0,0,0,0,0L101,198C101.1,198,101,198,101,198z"
			/>
		<path class="st1" d="M103,199.3l-0.3-0.2c0,0-0.1-0.1-0.1-0.1v-2.6c0-0.1,0-0.1,0.1,0l0.8,0.6c0.2,0.1,0.3,0.3,0.4,0.5
			c0.1,0.2,0.1,0.4,0.1,0.6v0.4c0,0.2,0,0.4-0.1,0.4c-0.1,0.1-0.2,0-0.4-0.1l-0.4-0.3c0,0,0,0,0,0L103,199.3
			C103.1,199.3,103,199.3,103,199.3z M103.1,197.9l0.4,0.2c0.1,0,0.1,0.1,0.2,0c0,0,0-0.1,0-0.2v-0.4c0-0.1,0-0.2,0-0.2
			s-0.1-0.1-0.2-0.2l-0.4-0.2c0,0,0,0,0,0L103.1,197.9C103.1,197.9,103.1,197.9,103.1,197.9z"/>
		<path class="st1" d="M105.7,201.1l-1.1-0.8c0,0-0.1-0.1-0.1-0.1v-2.7c0-0.1,0-0.1,0.1,0l1.1,0.8c0,0,0.1,0.1,0.1,0.1v0.3
			c0,0.1,0,0.1-0.1,0l-0.7-0.5c0,0,0,0,0,0v0.6c0,0,0,0.1,0,0.1l0.6,0.4c0,0,0.1,0.1,0.1,0.1v0.3c0,0.1,0,0.1-0.1,0l-0.6-0.4
			c0,0,0,0,0,0v0.6c0,0,0,0.1,0,0.1l0.7,0.5c0,0,0.1,0.1,0.1,0.1L105.7,201.1C105.7,201.1,105.7,201.2,105.7,201.1z"/>
		<path class="st1" d="M106.5,201.7l-0.3-0.2c0,0-0.1-0.1-0.1-0.1v-2.7c0-0.1,0-0.1,0.1,0l0.8,0.6c0.2,0.1,0.3,0.3,0.4,0.5
			c0.1,0.2,0.2,0.4,0.2,0.6v0.4c0,0.3-0.1,0.5-0.3,0.5v0l0.4,1.3c0,0.1,0,0.1-0.1,0.1l-0.3-0.2c0,0-0.1-0.1-0.1-0.1c0,0,0-0.1,0-0.1
			l-0.3-1.2l-0.2-0.2c0,0,0,0,0,0L106.5,201.7C106.6,201.7,106.5,201.7,106.5,201.7z M106.6,200.2l0.3,0.2c0.1,0,0.1,0.1,0.2,0
			c0,0,0.1-0.1,0.1-0.2V200c0-0.1,0-0.2-0.1-0.2c0-0.1-0.1-0.1-0.2-0.2l-0.3-0.2c0,0,0,0,0,0L106.6,200.2
			C106.6,200.2,106.6,200.2,106.6,200.2z"/>
		<path class="st1" d="M109.5,200.8l0.5,0.3c0,0,0.1,0.1,0.1,0.1v2.7c0,0.1,0,0.1-0.1,0l-0.3-0.2c0,0-0.1-0.1-0.1-0.1v-2.2l0,0
			l-0.4,1.3c0,0.1,0,0.1-0.1,0l-0.3-0.2c0,0-0.1-0.1-0.1-0.1l-0.4-1.8l0,0v2.2c0,0,0,0.1,0,0.1c0,0,0,0-0.1,0l-0.3-0.2
			c0,0-0.1-0.1-0.1-0.1v-2.7c0-0.1,0-0.1,0.1,0l0.5,0.3c0,0,0.1,0.1,0.1,0.1l0.4,1.8l0,0L109.5,200.8
			C109.5,200.8,109.5,200.8,109.5,200.8z"/>
		<path class="st1" d="M111,201.9v2.8c0,0.1,0,0.1-0.1,0l-0.3-0.2c0,0-0.1-0.1-0.1-0.1v-2.8c0-0.1,0-0.1,0.1,0l0.3,0.2
			C111,201.8,111,201.8,111,201.9z"/>
		<path class="st1" d="M112.2,205.6l-0.3-0.2c-0.1,0-0.1-0.1-0.1-0.1v-2.3c0,0,0-0.1,0-0.1l-0.4-0.3c0,0-0.1-0.1-0.1-0.1v-0.3
			c0-0.1,0-0.1,0.1,0l1.3,0.9c0,0,0.1,0.1,0.1,0.1v0.3c0,0.1,0,0.1-0.1,0l-0.4-0.3c0,0,0,0,0,0L112.2,205.6
			C112.3,205.6,112.2,205.6,112.2,205.6z"/>
		<path class="st1" d="M113.5,203.6v2.8c0,0.1,0,0.1-0.1,0l-0.3-0.2c0,0-0.1-0.1-0.1-0.1v-2.8c0-0.1,0-0.1,0.1,0l0.3,0.2
			C113.5,203.4,113.5,203.5,113.5,203.6z"/>
		<path class="st1" d="M114.9,207.4l-0.4-0.3c-0.2-0.1-0.3-0.3-0.4-0.5c-0.1-0.2-0.1-0.4-0.1-0.7v-1.5c0-0.2,0-0.4,0.1-0.5
			c0.1-0.1,0.2,0,0.4,0.1l0.4,0.3c0.2,0.1,0.3,0.3,0.4,0.5c0.1,0.2,0.1,0.4,0.1,0.7v1.5c0,0.2,0,0.4-0.1,0.5
			C115.2,207.5,115.1,207.5,114.9,207.4z M114.6,206.7l0.2,0.2c0.1,0.1,0.1,0.1,0.2,0s0-0.1,0-0.2v-1.4c0-0.1,0-0.2,0-0.2
			c0-0.1-0.1-0.1-0.2-0.2l-0.2-0.2c-0.1,0-0.1-0.1-0.2,0c0,0,0,0.1,0,0.2v1.4c0,0.1,0,0.2,0,0.2
			C114.4,206.6,114.5,206.6,114.6,206.7z"/>
		<path class="st1" d="M116.2,208.3l-0.3-0.2c0,0-0.1-0.1-0.1-0.1v-2.8c0-0.1,0-0.1,0.1,0l0.3,0.2c0,0,0.1,0.1,0.1,0.1l0.7,2.3l0,0
			v-1.8c0-0.1,0-0.1,0.1-0.1l0.3,0.2c0,0,0.1,0.1,0.1,0.1v2.8c0,0.1,0,0.1-0.1,0l-0.3-0.2c-0.1,0-0.1-0.1-0.1-0.2l-0.7-2.2l0,0
			L116.2,208.3C116.3,208.3,116.3,208.3,116.2,208.3z"/>
		<path class="st1" d="M120.2,211l-0.5-0.3c-0.1,0-0.1-0.1-0.1-0.2l-0.4-3.1c0-0.1,0-0.1,0.1-0.1l0.4,0.2c0.1,0,0.1,0.1,0.1,0.2
			l0.2,2.5l0,0l0.3-2.1c0-0.1,0-0.1,0.1,0l0.4,0.3c0,0,0.1,0.1,0.1,0.1l0.3,2.6l0,0l0.2-2.2c0-0.1,0-0.1,0.1-0.1l0.4,0.2
			c0.1,0,0.1,0.1,0.1,0.2l-0.4,2.6c0,0.1,0,0.1-0.1,0l-0.5-0.3c0,0-0.1-0.1-0.1-0.2l-0.3-2.5l0,0L120.2,211
			C120.3,211,120.3,211,120.2,211z"/>
		<path class="st1" d="M122.7,209.7v2.9c0,0.1,0,0.1-0.1,0.1l-0.3-0.2c0,0-0.1-0.1-0.1-0.2v-2.9c0-0.1,0-0.1,0.1-0.1l0.3,0.2
			C122.7,209.6,122.7,209.6,122.7,209.7z"/>
		<path class="st1" d="M123.9,213.5l-0.3-0.2c-0.1,0-0.1-0.1-0.1-0.2v-2.4c0,0,0-0.1,0-0.1l-0.4-0.3c0,0-0.1-0.1-0.1-0.2v-0.3
			c0-0.1,0-0.1,0.1-0.1l1.3,0.9c0,0,0.1,0.1,0.1,0.2v0.3c0,0.1,0,0.1-0.1,0.1L124,211c0,0,0,0,0,0L123.9,213.5
			C124,213.5,123.9,213.5,123.9,213.5z"/>
		<path class="st1" d="M125.1,214.3l-0.3-0.2c0,0-0.1-0.1-0.1-0.2V211c0-0.1,0-0.1,0.1-0.1l0.3,0.2c0,0,0.1,0.1,0.1,0.2v1.1
			c0,0,0,0.1,0,0.1l0.6,0.4c0,0,0,0,0,0v-1.2c0-0.1,0-0.1,0.1-0.1l0.3,0.2c0,0,0.1,0.1,0.1,0.2v2.9c0,0.1,0,0.1-0.1,0.1l-0.3-0.2
			c0,0-0.1-0.1-0.1-0.2v-1.1c0,0,0-0.1,0-0.1l-0.6-0.4c0,0,0,0,0,0L125.1,214.3C125.2,214.3,125.2,214.4,125.1,214.3z"/>
		<path class="st1" d="M128.4,216.6l-0.4-0.3c-0.2-0.1-0.3-0.3-0.4-0.5c-0.1-0.2-0.1-0.4-0.1-0.7v-1.6c0-0.3,0-0.4,0.1-0.5
			c0.1-0.1,0.2,0,0.4,0.1l0.4,0.3c0.2,0.1,0.3,0.3,0.4,0.5c0.1,0.2,0.2,0.4,0.2,0.7v0.2c0,0.1,0,0.1-0.1,0.1l-0.3-0.2
			c0,0-0.1-0.1-0.1-0.2v-0.2c0-0.1,0-0.2,0-0.3c0-0.1-0.1-0.1-0.2-0.2l-0.2-0.2c-0.1,0-0.1-0.1-0.2,0s0,0.1,0,0.2v1.5
			c0,0.1,0,0.2,0,0.3c0,0.1,0.1,0.1,0.2,0.2l0.2,0.2c0.1,0.1,0.1,0.1,0.2,0c0,0,0-0.1,0-0.2v-0.2c0-0.1,0-0.1,0.1-0.1l0.3,0.2
			c0.1,0,0.1,0.1,0.1,0.2v0.2c0,0.3,0,0.4-0.2,0.5C128.7,216.7,128.6,216.7,128.4,216.6z"/>
		<path class="st1" d="M130.6,218.1l-1.1-0.8c0,0-0.1-0.1-0.1-0.2v-3c0-0.1,0-0.1,0.1-0.1l0.3,0.2c0,0,0.1,0.1,0.1,0.2v2.5
			c0,0,0,0.1,0,0.1l0.7,0.5c0,0,0.1,0.1,0.1,0.2L130.6,218.1C130.7,218.1,130.6,218.1,130.6,218.1z"/>
		<path class="st1" d="M131.2,218.4l-0.3-0.2c0,0-0.1-0.1,0-0.1l0.5-2.6c0-0.1,0.1-0.1,0.1,0l0.5,0.3c0.1,0,0.1,0.1,0.1,0.2l0.5,3.4
			c0,0.1,0,0.1,0,0.1l-0.3-0.2c0,0,0,0-0.1-0.1c0,0,0-0.1,0-0.1l-0.1-0.6l-0.7-0.5L131.2,218.4C131.2,218.4,131.2,218.5,131.2,218.4
			C131.2,218.5,131.2,218.5,131.2,218.4z M131.7,216.2l-0.3,1.3l0.5,0.3L131.7,216.2L131.7,216.2z"/>
		<path class="st1" d="M132.8,218.7v-0.1c0-0.1,0-0.1,0.1-0.1l0.3,0.2c0,0,0.1,0.1,0.1,0.2v0c0,0.1,0,0.2,0.1,0.3s0.1,0.1,0.2,0.2
			l0.2,0.1c0.1,0.1,0.2,0.1,0.2,0.1c0,0,0.1-0.1,0.1-0.2v-0.1c0-0.1,0-0.2-0.1-0.3c-0.1-0.1-0.1-0.2-0.2-0.2s-0.2-0.1-0.3-0.2
			c-0.1-0.1-0.2-0.2-0.3-0.3c-0.1-0.1-0.1-0.2-0.2-0.4c-0.1-0.2-0.1-0.4-0.1-0.6v-0.2c0-0.3,0.1-0.4,0.2-0.5
			c0.1-0.1,0.2-0.1,0.4,0.1l0.3,0.2c0.2,0.1,0.3,0.3,0.4,0.5c0.1,0.2,0.2,0.5,0.2,0.7v0.1c0,0.1,0,0.1-0.1,0.1l-0.3-0.2
			c0,0-0.1-0.1-0.1-0.2v0c0-0.1,0-0.2-0.1-0.3c0-0.1-0.1-0.1-0.2-0.2l-0.1-0.1c-0.1-0.1-0.2-0.1-0.2-0.1c0,0-0.1,0.1-0.1,0.3v0.1
			c0,0.2,0.1,0.3,0.3,0.5c0.2,0.2,0.4,0.3,0.5,0.5c0.1,0.1,0.1,0.2,0.2,0.4c0.1,0.2,0.1,0.4,0.1,0.6v0.2c0,0.3-0.1,0.4-0.2,0.5
			c-0.1,0.1-0.2,0.1-0.4-0.1l-0.4-0.3c-0.2-0.1-0.3-0.3-0.4-0.5C132.9,219.2,132.8,219,132.8,218.7z"/>
		<path class="st1" d="M134.7,220v-0.1c0-0.1,0-0.1,0.1-0.1l0.3,0.2c0,0,0.1,0.1,0.1,0.2v0c0,0.1,0,0.2,0.1,0.3
			c0,0.1,0.1,0.1,0.2,0.2l0.2,0.1c0.1,0.1,0.2,0.1,0.2,0.1c0,0,0.1-0.1,0.1-0.2v-0.1c0-0.1,0-0.2-0.1-0.3c-0.1-0.1-0.1-0.2-0.2-0.2
			s-0.2-0.1-0.3-0.2c-0.1-0.1-0.2-0.2-0.3-0.3c-0.1-0.1-0.1-0.2-0.2-0.4c-0.1-0.2-0.1-0.4-0.1-0.6v-0.2c0-0.3,0.1-0.4,0.2-0.5
			c0.1-0.1,0.2-0.1,0.4,0.1l0.3,0.2c0.2,0.1,0.3,0.3,0.4,0.5c0.1,0.2,0.2,0.5,0.2,0.7v0.1c0,0.1,0,0.1-0.1,0.1l-0.3-0.2
			c0,0-0.1-0.1-0.1-0.2v0c0-0.1,0-0.2-0.1-0.3c0-0.1-0.1-0.1-0.2-0.2l-0.1-0.1c-0.1-0.1-0.2-0.1-0.2,0c0,0-0.1,0.1-0.1,0.3v0.1
			c0,0.2,0.1,0.3,0.3,0.5c0.2,0.2,0.4,0.3,0.5,0.5c0.1,0.1,0.1,0.2,0.2,0.4c0.1,0.2,0.1,0.4,0.1,0.6v0.2c0,0.3-0.1,0.4-0.2,0.5
			c-0.1,0.1-0.2,0.1-0.4-0.1l-0.4-0.3c-0.2-0.1-0.3-0.3-0.4-0.5C134.8,220.5,134.7,220.3,134.7,220z"/>
		<path class="st1" d="M138.3,223.3l-0.4-0.3c-0.2-0.1-0.3-0.3-0.4-0.5c-0.1-0.2-0.1-0.5-0.1-0.7v-1.6c0-0.3,0-0.4,0.1-0.5
			c0.1-0.1,0.2-0.1,0.4,0.1l0.4,0.3c0.2,0.1,0.3,0.3,0.4,0.5c0.1,0.2,0.1,0.5,0.1,0.7v1.6c0,0.3,0,0.4-0.1,0.5
			C138.7,223.5,138.5,223.4,138.3,223.3z M138,222.5l0.2,0.2c0.1,0.1,0.1,0.1,0.2,0c0,0,0-0.1,0-0.2v-1.6c0-0.1,0-0.2,0-0.3
			s-0.1-0.1-0.2-0.2l-0.2-0.2c-0.1,0-0.1-0.1-0.2,0s0,0.1,0,0.2v1.6c0,0.1,0,0.2,0,0.3S137.9,222.5,138,222.5z"/>
		<path class="st1" d="M139.7,224.2l-0.3-0.2c0,0-0.1-0.1-0.1-0.2v-3.1c0-0.1,0-0.1,0.1-0.1l1.1,0.7c0,0,0.1,0.1,0.1,0.2v0.4
			c0,0.1,0,0.1-0.1,0.1l-0.7-0.5c0,0,0,0,0,0v0.8c0,0,0,0.1,0,0.1l0.6,0.4c0,0,0.1,0.1,0.1,0.2v0.3c0,0.1,0,0.1-0.1,0.1l-0.6-0.4
			c0,0,0,0,0,0L139.7,224.2C139.8,224.2,139.7,224.3,139.7,224.2z"/>
		<path class="st1" d="M141.3,225.3l-0.3-0.2c0,0-0.1-0.1-0.1-0.2v-3.1c0-0.1,0-0.1,0.1-0.1l1.1,0.7c0,0,0.1,0.1,0.1,0.2v0.4
			c0,0.1,0,0.1-0.1,0.1l-0.7-0.5c0,0,0,0,0,0v0.8c0,0,0,0.1,0,0.1l0.6,0.4c0,0,0.1,0.1,0.1,0.2v0.4c0,0.1,0,0.1-0.1,0.1l-0.6-0.4
			c0,0,0,0,0,0L141.3,225.3C141.3,225.3,141.3,225.3,141.3,225.3z"/>
		<path class="st1" d="M142.9,223.1v3.2c0,0.1,0,0.1-0.1,0.1l-0.3-0.2c0,0-0.1-0.1-0.1-0.2v-3.2c0-0.1,0-0.1,0.1-0.1l0.3,0.2
			C142.9,223,142.9,223.1,142.9,223.1z"/>
		<path class="st1" d="M144.3,227.4l-0.4-0.3c-0.2-0.1-0.3-0.3-0.4-0.5c-0.1-0.2-0.1-0.5-0.1-0.7v-1.7c0-0.3,0-0.5,0.1-0.5
			c0.1-0.1,0.2-0.1,0.4,0.1l0.4,0.3c0.2,0.1,0.3,0.3,0.4,0.5c0.1,0.2,0.2,0.5,0.2,0.7v0.2c0,0.1,0,0.1-0.1,0.1l-0.3-0.2
			c0,0-0.1-0.1-0.1-0.2v-0.2c0-0.1,0-0.2,0-0.3c0-0.1-0.1-0.1-0.2-0.2l-0.2-0.2c-0.1,0-0.1-0.1-0.2,0s0,0.1,0,0.2v1.6
			c0,0.1,0,0.2,0,0.3s0.1,0.1,0.2,0.2l0.2,0.2c0.1,0.1,0.1,0.1,0.2,0c0,0,0-0.1,0-0.2v-0.2c0-0.1,0-0.1,0.1-0.1l0.3,0.2
			c0.1,0,0.1,0.1,0.1,0.2v0.2c0,0.3,0,0.5-0.2,0.5C144.6,227.5,144.5,227.5,144.3,227.4z"/>
		<path class="st1" d="M146.2,228.6l-0.4-0.3c-0.2-0.1-0.3-0.3-0.4-0.5c-0.1-0.2-0.1-0.5-0.1-0.7v-1.7c0-0.3,0-0.5,0.1-0.5
			c0.1-0.1,0.2-0.1,0.4,0.1l0.4,0.3c0.2,0.1,0.3,0.3,0.4,0.5c0.1,0.2,0.2,0.5,0.2,0.7v0.3c0,0.1,0,0.1-0.1,0.1l-0.3-0.2
			c0,0-0.1-0.1-0.1-0.2v-0.2c0-0.1,0-0.2,0-0.3c0-0.1-0.1-0.1-0.2-0.2l-0.2-0.2c-0.1,0-0.1-0.1-0.2,0s0,0.1,0,0.2v1.6
			c0,0.1,0,0.2,0,0.3c0,0.1,0.1,0.1,0.2,0.2l0.2,0.2c0.1,0.1,0.1,0.1,0.2,0s0-0.1,0-0.2v-0.2c0-0.1,0-0.1,0.1-0.1l0.3,0.2
			c0.1,0,0.1,0.1,0.1,0.2v0.3c0,0.3,0,0.5-0.2,0.5C146.5,228.8,146.4,228.8,146.2,228.6z"/>
		<path class="st1" d="M148.3,230.1l-1.1-0.8c0,0-0.1-0.1-0.1-0.2V226c0-0.1,0-0.1,0.1-0.1l1.1,0.8c0,0,0.1,0.1,0.1,0.2v0.4
			c0,0.1,0,0.1-0.1,0.1l-0.7-0.5c0,0,0,0,0,0v0.7c0,0,0,0.1,0,0.1l0.6,0.4c0,0,0.1,0.1,0.1,0.2v0.4c0,0.1,0,0.1-0.1,0.1l-0.6-0.4
			c0,0,0,0,0,0v0.7c0,0,0,0.1,0,0.1l0.7,0.5c0,0,0.1,0.1,0.1,0.2L148.3,230.1C148.4,230.1,148.4,230.1,148.3,230.1z"/>
		<path class="st1" d="M149.2,230.7l-0.3-0.2c0,0-0.1-0.1-0.1-0.2v-3.2c0-0.1,0-0.1,0.1-0.1l0.8,0.6c0.2,0.1,0.3,0.3,0.4,0.5
			c0.1,0.2,0.2,0.5,0.2,0.8v0.4c0,0.4-0.1,0.6-0.3,0.6v0l0.4,1.5c0,0.1,0,0.1-0.1,0.1l-0.3-0.2c0,0-0.1-0.1-0.1-0.1s0-0.1,0-0.1
			l-0.3-1.4l-0.2-0.2c0,0,0,0,0,0L149.2,230.7C149.2,230.7,149.2,230.7,149.2,230.7z M149.3,228.9l0.3,0.2c0.1,0,0.1,0.1,0.2,0
			c0,0,0.1-0.1,0.1-0.2v-0.4c0-0.1,0-0.2-0.1-0.3c0-0.1-0.1-0.1-0.2-0.2l-0.3-0.2c0,0,0,0,0,0L149.3,228.9
			C149.2,228.9,149.3,228.9,149.3,228.9z"/>
		<path class="st1" d="M150.6,230.8v-0.1c0-0.1,0-0.1,0.1-0.1l0.3,0.2c0,0,0.1,0.1,0.1,0.2v0c0,0.1,0,0.2,0.1,0.3
			c0,0.1,0.1,0.1,0.2,0.2l0.2,0.1c0.1,0.1,0.2,0.1,0.2,0s0.1-0.1,0.1-0.3v-0.1c0-0.1,0-0.2-0.1-0.3c-0.1-0.1-0.1-0.2-0.2-0.2
			c-0.1-0.1-0.2-0.1-0.3-0.2c-0.1-0.1-0.2-0.2-0.3-0.3c-0.1-0.1-0.1-0.2-0.2-0.4c-0.1-0.2-0.1-0.4-0.1-0.6v-0.2
			c0-0.3,0.1-0.5,0.2-0.6c0.1-0.1,0.2-0.1,0.4,0l0.3,0.2c0.2,0.1,0.3,0.3,0.4,0.5c0.1,0.2,0.2,0.5,0.2,0.8v0.1c0,0.1,0,0.1-0.1,0.1
			l-0.3-0.2c0,0-0.1-0.1-0.1-0.2v0c0-0.1,0-0.2-0.1-0.3c0-0.1-0.1-0.1-0.2-0.2l-0.1-0.1c-0.1-0.1-0.2-0.1-0.2,0c0,0-0.1,0.1-0.1,0.3
			v0.1c0,0.2,0.1,0.3,0.3,0.5c0.2,0.2,0.4,0.3,0.5,0.5c0.1,0.1,0.1,0.3,0.2,0.4c0.1,0.2,0.1,0.4,0.1,0.6v0.2c0,0.3-0.1,0.5-0.2,0.6
			c-0.1,0.1-0.2,0.1-0.4-0.1l-0.4-0.3c-0.2-0.1-0.3-0.3-0.4-0.5C150.7,231.3,150.6,231.1,150.6,230.8z"/>
		<path class="st1" d="M85.9,192.6l-0.3-0.2c0,0-0.1-0.1,0-0.1l0.6-2.1c0,0,0.1-0.1,0.1,0l0.5,0.3c0.1,0,0.1,0.1,0.1,0.2l0.5,2.8
			c0,0.1,0,0.1,0,0.1l-0.3-0.2c0,0,0,0-0.1-0.1c0,0,0,0,0-0.1l-0.1-0.5l-0.7-0.5L85.9,192.6C86,192.6,86,192.6,85.9,192.6
			C86,192.6,86,192.6,85.9,192.6z M86.4,190.8l-0.3,1l0.5,0.4L86.4,190.8L86.4,190.8z"/>
		<path class="st1" d="M88,194.1l-0.3-0.2c0,0-0.1-0.1-0.1-0.1v-2.5c0-0.1,0-0.1,0.1,0l0.8,0.6c0.2,0.1,0.3,0.3,0.4,0.5
			c0.1,0.2,0.2,0.4,0.2,0.6v0.3c0,0.3-0.1,0.4-0.3,0.4v0l0.4,1.2c0,0.1,0,0.1-0.1,0.1l-0.3-0.2c0,0-0.1-0.1-0.1-0.1s0-0.1,0-0.1
			l-0.3-1.1l-0.2-0.2c0,0,0,0,0,0L88,194.1C88.1,194.1,88.1,194.1,88,194.1z M88.1,192.8l0.3,0.2c0.1,0.1,0.1,0.1,0.2,0.1
			c0,0,0.1-0.1,0.1-0.1v-0.3c0-0.1,0-0.2-0.1-0.2c0-0.1-0.1-0.1-0.2-0.2l-0.3-0.2c0,0,0,0,0,0L88.1,192.8
			C88.1,192.7,88.1,192.7,88.1,192.8z"/>
		<path class="st1" d="M90.8,196l-1.1-0.8c0,0-0.1-0.1-0.1-0.1v-2.5c0-0.1,0-0.1,0.1,0l1.1,0.8c0,0,0.1,0.1,0.1,0.1v0.3
			c0,0.1,0,0.1-0.1,0l-0.7-0.5c0,0,0,0,0,0v0.5c0,0,0,0.1,0,0.1l0.6,0.4c0,0,0.1,0.1,0.1,0.1v0.3c0,0.1,0,0.1-0.1,0l-0.6-0.4
			c0,0,0,0,0,0v0.6c0,0,0,0.1,0,0.1l0.7,0.5c0,0,0.1,0.1,0.1,0.1L90.8,196C90.8,196,90.8,196,90.8,196z"/>
		<path class="st1" d="M92.2,197l-0.3-0.2c0,0-0.1-0.1,0-0.1l0.6-2.1c0,0,0.1-0.1,0.1,0l0.5,0.3c0.1,0,0.1,0.1,0.1,0.2l0.5,2.9
			c0,0.1,0,0.1,0,0.1l-0.3-0.2c0,0,0,0-0.1-0.1c0,0,0,0,0-0.1l-0.1-0.5l-0.7-0.5L92.2,197C92.3,197,92.3,197,92.2,197
			C92.3,197,92.2,197,92.2,197z M92.7,195.2l-0.3,1l0.5,0.4L92.7,195.2L92.7,195.2z"/>
		<path class="st1" d="M95.1,199.1l-1.1-0.8c0,0-0.1-0.1-0.1-0.1v-2.5c0-0.1,0-0.1,0.1,0l0.3,0.2c0,0,0.1,0.1,0.1,0.1v2.1
			c0,0,0,0.1,0,0.1l0.7,0.5c0,0,0.1,0.1,0.1,0.1L95.1,199.1C95.2,199.1,95.2,199.1,95.1,199.1z"/>
		<path class="st1" d="M96.7,200.2l-1.1-0.8c0,0-0.1-0.1-0.1-0.1v-2.6c0-0.1,0-0.1,0.1,0l0.3,0.2c0,0,0.1,0.1,0.1,0.1v2.1
			c0,0,0,0.1,0,0.1l0.7,0.5c0,0,0.1,0.1,0.1,0.1L96.7,200.2C96.8,200.2,96.8,200.2,96.7,200.2z"/>
		<path class="st1" d="M98,201.1l-0.4-0.3c-0.2-0.1-0.3-0.3-0.4-0.5c-0.1-0.2-0.1-0.4-0.1-0.6v-1.4c0-0.2,0-0.4,0.1-0.4
			c0.1-0.1,0.2,0,0.4,0.1l0.4,0.3c0.2,0.1,0.3,0.3,0.4,0.5c0.1,0.2,0.1,0.4,0.1,0.6v1.4c0,0.2,0,0.4-0.1,0.4
			C98.3,201.2,98.2,201.2,98,201.1z M97.7,200.4l0.2,0.2c0.1,0.1,0.1,0.1,0.2,0.1c0,0,0-0.1,0-0.2v-1.3c0-0.1,0-0.2,0-0.2
			c0-0.1-0.1-0.1-0.2-0.2l-0.2-0.2c-0.1-0.1-0.1-0.1-0.2-0.1c0,0,0,0.1,0,0.2v1.3c0,0.1,0,0.2,0,0.2
			C97.5,200.3,97.6,200.3,97.7,200.4z"/>
		<path class="st1" d="M99.7,202.3l-0.5-0.3c-0.1,0-0.1-0.1-0.1-0.2l-0.4-2.9c0-0.1,0-0.1,0.1,0l0.4,0.2c0.1,0,0.1,0.1,0.1,0.1
			l0.2,2.3l0,0l0.3-1.9c0,0,0-0.1,0.1,0l0.4,0.3c0,0,0.1,0.1,0.1,0.1l0.3,2.4l0,0l0.2-2c0-0.1,0-0.1,0.1,0l0.4,0.3
			c0.1,0,0.1,0.1,0.1,0.1l-0.4,2.4c0,0.1,0,0.1-0.1,0l-0.5-0.3c0,0-0.1-0.1-0.1-0.2l-0.3-2.3l0,0L99.7,202.3
			C99.8,202.3,99.8,202.4,99.7,202.3z"/>
		<path class="st1" d="M103,204.6l-1.1-0.8c0,0-0.1-0.1-0.1-0.1V201c0-0.1,0-0.1,0.1,0l1.1,0.8c0,0,0.1,0.1,0.1,0.1v0.3
			c0,0.1,0,0.1-0.1,0l-0.7-0.5c0,0,0,0,0,0v0.6c0,0,0,0.1,0,0.1l0.6,0.4c0,0,0.1,0.1,0.1,0.1v0.3c0,0.1,0,0.1-0.1,0l-0.6-0.4
			c0,0,0,0,0,0v0.6c0,0,0,0.1,0,0.1l0.7,0.5c0,0,0.1,0.1,0.1,0.1L103,204.6C103.1,204.6,103,204.6,103,204.6z"/>
		<path class="st1" d="M103.4,204.8v-2.7c0-0.1,0-0.1,0.1,0l0.9,0.6c0.2,0.1,0.3,0.3,0.4,0.5c0.1,0.2,0.2,0.4,0.2,0.6v1.4
			c0,0.2-0.1,0.4-0.2,0.4c-0.1,0.1-0.2,0-0.4-0.1l-0.9-0.6C103.5,204.9,103.4,204.9,103.4,204.8z M103.9,204.8l0.4,0.3
			c0.1,0.1,0.1,0.1,0.2,0.1c0,0,0-0.1,0-0.2v-1.4c0-0.1,0-0.2,0-0.2c0-0.1-0.1-0.1-0.2-0.2l-0.4-0.3c0,0,0,0,0,0L103.9,204.8
			C103.9,204.7,103.9,204.8,103.9,204.8z"/>
		<path class="st1" d="M107.6,207.9l-0.3-0.2c-0.1,0-0.1-0.1-0.1-0.1v-2.3c0,0,0-0.1,0-0.1l-0.4-0.3c0,0-0.1-0.1-0.1-0.1v-0.3
			c0-0.1,0-0.1,0.1,0l1.3,0.9c0,0,0.1,0.1,0.1,0.1v0.3c0,0.1,0,0.1-0.1,0l-0.4-0.3c0,0,0,0,0,0L107.6,207.9
			C107.7,207.9,107.6,207.9,107.6,207.9z"/>
		<path class="st1" d="M109.4,209.1l-0.4-0.3c-0.2-0.1-0.3-0.3-0.4-0.5c-0.1-0.2-0.1-0.4-0.1-0.7v-1.4c0-0.2,0-0.4,0.1-0.4
			c0.1-0.1,0.2,0,0.4,0.1l0.4,0.3c0.2,0.1,0.3,0.3,0.4,0.5c0.1,0.2,0.1,0.4,0.1,0.7v1.4c0,0.2,0,0.4-0.1,0.4
			C109.7,209.3,109.6,209.2,109.4,209.1z M109.1,208.4l0.2,0.2c0.1,0.1,0.1,0.1,0.2,0c0,0,0-0.1,0-0.2V207c0-0.1,0-0.2,0-0.2
			c0-0.1-0.1-0.1-0.2-0.2l-0.2-0.2c-0.1-0.1-0.1-0.1-0.2,0c0,0,0,0.1,0,0.2v1.4c0,0.1,0,0.2,0,0.2
			C108.9,208.3,109,208.3,109.1,208.4z"/>
		<path class="st1" d="M112.6,208.4l0.5,0.4c0,0,0.1,0.1,0.1,0.1v2.8c0,0.1,0,0.1-0.1,0l-0.3-0.2c0,0-0.1-0.1-0.1-0.1v-2.2l0,0
			l-0.4,1.3c0,0.1,0,0.1-0.1,0l-0.3-0.2c0,0-0.1-0.1-0.1-0.2l-0.4-1.8l0,0v2.2c0,0,0,0.1,0,0.1c0,0,0,0-0.1,0l-0.3-0.2
			c0,0-0.1-0.1-0.1-0.1v-2.8c0-0.1,0-0.1,0.1,0l0.5,0.4c0,0,0.1,0.1,0.1,0.1l0.4,1.9l0,0L112.6,208.4
			C112.6,208.4,112.6,208.4,112.6,208.4z"/>
		<path class="st1" d="M113.9,212.3l-0.3-0.2c0,0-0.1-0.1,0-0.1l0.6-2.4c0-0.1,0.1-0.1,0.1,0l0.5,0.3c0.1,0,0.1,0.1,0.1,0.2l0.5,3.2
			c0,0.1,0,0.1,0,0.1l-0.3-0.2c0,0,0,0-0.1-0.1c0,0,0-0.1,0-0.1l-0.1-0.6l-0.7-0.5L113.9,212.3C114,212.3,114,212.3,113.9,212.3
			C113.9,212.3,113.9,212.3,113.9,212.3z M114.4,210.2l-0.3,1.2l0.5,0.4L114.4,210.2L114.4,210.2z"/>
		<path class="st1" d="M116,213.7l-0.3-0.2c0,0-0.1-0.1-0.1-0.1v-2.8c0-0.1,0-0.1,0.1,0l0.3,0.2c0,0,0.1,0.1,0.1,0.1l0.7,2.3l0,0
			v-1.8c0-0.1,0-0.1,0.1,0l0.3,0.2c0,0,0.1,0.1,0.1,0.1v2.8c0,0.1,0,0.1-0.1,0l-0.3-0.2c-0.1,0-0.1-0.1-0.1-0.2l-0.7-2.2l0,0
			L116,213.7C116,213.8,116,213.8,116,213.7z"/>
		<path class="st1" d="M118.1,212.3v2.8c0,0.1,0,0.1-0.1,0l-0.3-0.2c0,0-0.1-0.1-0.1-0.2V212c0-0.1,0-0.1,0.1,0l0.3,0.2
			C118.1,212.2,118.1,212.2,118.1,212.3z"/>
		<path class="st1" d="M118.9,215.8l-0.3-0.2c0,0-0.1-0.1-0.1-0.2v-2.9c0-0.1,0-0.1,0.1,0l0.8,0.6c0.2,0.1,0.3,0.3,0.4,0.5
			c0.1,0.2,0.1,0.4,0.1,0.7v0.5c0,0.2,0,0.4-0.1,0.5c-0.1,0.1-0.2,0-0.4-0.1l-0.4-0.3c0,0,0,0,0,0L118.9,215.8
			C119,215.9,119,215.9,118.9,215.8z M119,214.3l0.4,0.3c0.1,0.1,0.1,0.1,0.2,0c0,0,0-0.1,0-0.2v-0.4c0-0.1,0-0.2,0-0.2
			c0-0.1-0.1-0.1-0.2-0.2l-0.4-0.3c0,0,0,0,0,0L119,214.3C119,214.3,119,214.3,119,214.3z"/>
		<path class="st1" d="M121.6,214.6l0.3,0.2c0.1,0,0.1,0.1,0.1,0.1v2.2c0,0.2-0.1,0.4-0.2,0.5c-0.1,0.1-0.2,0-0.4-0.1l-0.4-0.3
			c-0.2-0.1-0.3-0.3-0.4-0.5c-0.1-0.2-0.1-0.4-0.1-0.7v-2.2c0-0.1,0-0.1,0.1,0l0.3,0.2c0,0,0.1,0.1,0.1,0.2v2.2c0,0.1,0,0.2,0,0.3
			c0,0.1,0.1,0.1,0.2,0.2l0.2,0.2c0.1,0.1,0.1,0.1,0.2,0c0,0,0-0.1,0-0.2L121.6,214.6C121.5,214.6,121.5,214.6,121.6,214.6z"/>
		<path class="st1" d="M123.6,219.1l-1.1-0.8c0,0-0.1-0.1-0.1-0.2v-2.9c0-0.1,0-0.1,0.1-0.1l0.3,0.2c0,0,0.1,0.1,0.1,0.2v2.4
			c0,0,0,0.1,0,0.1l0.7,0.5c0,0,0.1,0.1,0.1,0.2L123.6,219.1C123.7,219.1,123.6,219.1,123.6,219.1z"/>
		<path class="st1" d="M124.2,219.5l-0.3-0.2c0,0-0.1-0.1,0-0.1l0.6-2.5c0-0.1,0.1-0.1,0.1,0l0.5,0.3c0.1,0,0.1,0.1,0.1,0.2l0.5,3.3
			c0,0.1,0,0.1,0,0.1l-0.3-0.2c0,0,0,0-0.1-0.1c0,0,0-0.1,0-0.1l-0.1-0.6l-0.7-0.5L124.2,219.5C124.2,219.5,124.2,219.5,124.2,219.5
			C124.2,219.5,124.2,219.5,124.2,219.5z M124.7,217.3l-0.3,1.2l0.5,0.4L124.7,217.3L124.7,217.3z"/>
		<path class="st1" d="M126.6,221.2l-0.3-0.2c-0.1,0-0.1-0.1-0.1-0.2v-2.5c0,0,0-0.1,0-0.1l-0.4-0.3c0,0-0.1-0.1-0.1-0.2v-0.3
			c0-0.1,0-0.1,0.1-0.1l1.3,0.9c0,0,0.1,0.1,0.1,0.2v0.3c0,0.1,0,0.1-0.1,0.1l-0.4-0.3c0,0,0,0,0,0L126.6,221.2
			C126.6,221.2,126.6,221.2,126.6,221.2z"/>
		<path class="st1" d="M128.6,222.7l-1.1-0.8c0,0-0.1-0.1-0.1-0.2v-3c0-0.1,0-0.1,0.1-0.1l1.1,0.8c0,0,0.1,0.1,0.1,0.2v0.3
			c0,0.1,0,0.1-0.1,0.1l-0.7-0.5c0,0,0,0,0,0v0.6c0,0,0,0.1,0,0.1l0.6,0.4c0,0,0.1,0.1,0.1,0.2v0.3c0,0.1,0,0.1-0.1,0.1l-0.6-0.4
			c0,0,0,0,0,0v0.7c0,0,0,0.1,0,0.1l0.7,0.5c0,0,0.1,0.1,0.1,0.2L128.6,222.7C128.7,222.7,128.7,222.7,128.6,222.7z"/>
		<path class="st1" d="M129.1,222.9v-3c0-0.1,0-0.1,0.1-0.1l0.9,0.6c0.2,0.1,0.3,0.3,0.4,0.5c0.1,0.2,0.2,0.4,0.2,0.7v1.6
			c0,0.3,0,0.4-0.2,0.5c-0.1,0.1-0.2,0-0.4-0.1l-0.9-0.6C129.1,223,129.1,222.9,129.1,222.9z M129.6,222.8l0.4,0.3
			c0.1,0.1,0.1,0.1,0.2,0c0,0,0-0.1,0-0.2v-1.5c0-0.1,0-0.2,0-0.3c0-0.1-0.1-0.1-0.2-0.2l-0.4-0.3c0,0,0,0,0,0L129.6,222.8
			C129.5,222.7,129.5,222.8,129.6,222.8z"/>
		<path class="st1" d="M131.4,223.9v0.4c0,0.1,0,0.2-0.1,0.3l-0.2,0.3c0,0,0,0-0.1,0c0,0-0.1-0.1-0.1-0.1v-1.2c0-0.1,0-0.1,0.1,0
			l0.3,0.2C131.3,223.8,131.4,223.8,131.4,223.9z"/>
		<path class="st1" d="M132.7,225.5l-0.3-0.2c0,0-0.1-0.1,0-0.1l0.5-2.6c0-0.1,0.1-0.1,0.1,0l0.5,0.3c0.1,0,0.1,0.1,0.1,0.2l0.5,3.4
			c0,0.1,0,0.1,0,0.1l-0.3-0.2c0,0,0,0-0.1-0.1c0,0,0-0.1,0-0.1l-0.1-0.6l-0.7-0.5L132.7,225.5C132.8,225.5,132.8,225.5,132.7,225.5
			C132.8,225.6,132.7,225.6,132.7,225.5z M133.2,223.3l-0.3,1.3l0.5,0.4L133.2,223.3L133.2,223.3z"/>
		<path class="st1" d="M135.3,227.4l-0.4-0.3c-0.2-0.1-0.3-0.3-0.4-0.5c-0.1-0.2-0.1-0.5-0.1-0.7v-1.6c0-0.3,0-0.4,0.1-0.5
			c0.1-0.1,0.2,0,0.4,0.1l0.4,0.3c0.2,0.1,0.3,0.3,0.4,0.5c0.1,0.2,0.2,0.5,0.2,0.7v0.2c0,0.1,0,0.1-0.1,0.1l-0.3-0.2
			c0,0-0.1-0.1-0.1-0.2v-0.2c0-0.1,0-0.2,0-0.3s-0.1-0.1-0.2-0.2l-0.2-0.2c-0.1-0.1-0.1-0.1-0.2,0s0,0.1,0,0.2v1.6
			c0,0.1,0,0.2,0,0.3s0.1,0.1,0.2,0.2l0.2,0.2c0.1,0.1,0.1,0.1,0.2,0c0,0,0-0.1,0-0.2v-0.2c0-0.1,0-0.1,0.1-0.1l0.3,0.2
			c0.1,0,0.1,0.1,0.1,0.2v0.2c0,0.3,0,0.4-0.2,0.5C135.7,227.5,135.5,227.5,135.3,227.4z"/>
		<path class="st1" d="M137.2,228.7l-0.4-0.3c-0.2-0.1-0.3-0.3-0.4-0.5c-0.1-0.2-0.1-0.5-0.1-0.7v-1.6c0-0.3,0-0.4,0.1-0.5
			c0.1-0.1,0.2,0,0.4,0.1l0.4,0.3c0.2,0.1,0.3,0.3,0.4,0.5c0.1,0.2,0.2,0.5,0.2,0.7v0.2c0,0.1,0,0.1-0.1,0.1l-0.3-0.2
			c0,0-0.1-0.1-0.1-0.2v-0.2c0-0.1,0-0.2,0-0.3s-0.1-0.1-0.2-0.2l-0.2-0.2c-0.1-0.1-0.1-0.1-0.2,0c0,0,0,0.1,0,0.2v1.6
			c0,0.1,0,0.2,0,0.3c0,0.1,0.1,0.1,0.2,0.2l0.2,0.2c0.1,0.1,0.1,0.1,0.2,0c0,0,0-0.1,0-0.2v-0.2c0-0.1,0-0.1,0.1-0.1l0.3,0.2
			c0.1,0,0.1,0.1,0.1,0.2v0.2c0,0.3,0,0.4-0.2,0.5C137.5,228.9,137.4,228.8,137.2,228.7z"/>
		<path class="st1" d="M139.4,230.2l-1.1-0.8c0,0-0.1-0.1-0.1-0.2v-3.1c0-0.1,0-0.1,0.1-0.1l1.1,0.8c0,0,0.1,0.1,0.1,0.2v0.4
			c0,0.1,0,0.1-0.1,0.1l-0.7-0.5c0,0,0,0,0,0v0.7c0,0,0,0.1,0,0.1l0.6,0.4c0,0,0.1,0.1,0.1,0.2v0.4c0,0.1,0,0.1-0.1,0.1l-0.6-0.4
			c0,0,0,0,0,0v0.7c0,0,0,0.1,0,0.1l0.7,0.5c0,0,0.1,0.1,0.1,0.2L139.4,230.2C139.4,230.2,139.4,230.3,139.4,230.2z"/>
		<path class="st1" d="M139.8,229.7v-0.1c0-0.1,0-0.1,0.1-0.1l0.3,0.2c0,0,0.1,0.1,0.1,0.2v0c0,0.1,0,0.2,0.1,0.3s0.1,0.1,0.2,0.2
			l0.2,0.1c0.1,0.1,0.2,0.1,0.2,0.1s0.1-0.1,0.1-0.3v-0.1c0-0.1,0-0.2-0.1-0.3c-0.1-0.1-0.1-0.2-0.2-0.2c-0.1-0.1-0.2-0.1-0.3-0.2
			c-0.1-0.1-0.2-0.2-0.3-0.3c-0.1-0.1-0.1-0.2-0.2-0.4c-0.1-0.2-0.1-0.4-0.1-0.6V228c0-0.3,0.1-0.4,0.2-0.5c0.1-0.1,0.2-0.1,0.4,0.1
			l0.3,0.2c0.2,0.1,0.3,0.3,0.4,0.5c0.1,0.2,0.2,0.5,0.2,0.7v0.1c0,0.1,0,0.1-0.1,0.1l-0.3-0.2c0,0-0.1-0.1-0.1-0.2v0
			c0-0.1,0-0.2-0.1-0.3c0-0.1-0.1-0.1-0.2-0.2l-0.1-0.1c-0.1-0.1-0.2-0.1-0.2-0.1c0,0-0.1,0.1-0.1,0.3v0.1c0,0.2,0.1,0.3,0.3,0.5
			c0.2,0.2,0.4,0.3,0.5,0.5c0.1,0.1,0.1,0.2,0.2,0.4c0.1,0.2,0.1,0.4,0.1,0.6v0.2c0,0.3-0.1,0.4-0.2,0.5c-0.1,0.1-0.2,0.1-0.4-0.1
			l-0.4-0.3c-0.2-0.1-0.3-0.3-0.4-0.5C139.8,230.2,139.8,229.9,139.8,229.7z"/>
		<path class="st1" d="M141.7,231v-0.1c0-0.1,0-0.1,0.1-0.1l0.3,0.2c0,0,0.1,0.1,0.1,0.2v0c0,0.1,0,0.2,0.1,0.3
			c0,0.1,0.1,0.1,0.2,0.2l0.2,0.1c0.1,0.1,0.2,0.1,0.2,0.1c0,0,0.1-0.1,0.1-0.3v-0.1c0-0.1,0-0.2-0.1-0.3c-0.1-0.1-0.1-0.2-0.2-0.2
			s-0.2-0.1-0.3-0.2c-0.1-0.1-0.2-0.2-0.3-0.3c-0.1-0.1-0.1-0.2-0.2-0.4c-0.1-0.2-0.1-0.4-0.1-0.6v-0.2c0-0.3,0.1-0.4,0.2-0.5
			c0.1-0.1,0.2-0.1,0.4,0.1l0.3,0.2c0.2,0.1,0.3,0.3,0.4,0.5c0.1,0.2,0.2,0.5,0.2,0.7v0.1c0,0.1,0,0.1-0.1,0.1l-0.3-0.2
			c0,0-0.1-0.1-0.1-0.2v0c0-0.1,0-0.2-0.1-0.3c0-0.1-0.1-0.1-0.2-0.2l-0.1-0.1c-0.1-0.1-0.2-0.1-0.2-0.1c0,0-0.1,0.1-0.1,0.3v0.1
			c0,0.2,0.1,0.3,0.3,0.5c0.2,0.2,0.4,0.3,0.5,0.5c0.1,0.1,0.1,0.2,0.2,0.4c0.1,0.2,0.1,0.4,0.1,0.6v0.2c0,0.3-0.1,0.5-0.2,0.5
			c-0.1,0.1-0.2,0.1-0.4-0.1l-0.4-0.3c-0.2-0.1-0.3-0.3-0.4-0.5C141.7,231.5,141.7,231.3,141.7,231z"/>
		<path class="st1" d="M145.3,234.4l-0.4-0.3c-0.2-0.1-0.3-0.3-0.4-0.5c-0.1-0.2-0.1-0.5-0.1-0.7v-1.7c0-0.3,0-0.5,0.1-0.5
			c0.1-0.1,0.2-0.1,0.4,0.1l0.4,0.3c0.2,0.1,0.3,0.3,0.4,0.5c0.1,0.2,0.1,0.5,0.1,0.7v1.7c0,0.3,0,0.5-0.1,0.5
			C145.6,234.5,145.5,234.5,145.3,234.4z M145,233.6l0.2,0.2c0.1,0.1,0.1,0.1,0.2,0s0-0.1,0-0.2V232c0-0.1,0-0.2,0-0.3
			s-0.1-0.1-0.2-0.2l-0.2-0.2c-0.1-0.1-0.1-0.1-0.2,0c0,0,0,0.1,0,0.2v1.6c0,0.1,0,0.2,0,0.3S144.9,233.5,145,233.6z"/>
		<path class="st1" d="M146.6,235.4l-0.3-0.2c0,0-0.1-0.1-0.1-0.2v-3.2c0-0.1,0-0.1,0.1-0.1l1.1,0.8c0,0,0.1,0.1,0.1,0.2v0.4
			c0,0.1,0,0.1-0.1,0.1l-0.7-0.5c0,0,0,0,0,0v0.8c0,0,0,0.1,0,0.1l0.6,0.4c0,0,0.1,0.1,0.1,0.2v0.4c0,0.1,0,0.1-0.1,0.1l-0.6-0.4
			c0,0,0,0,0,0L146.6,235.4C146.7,235.4,146.7,235.4,146.6,235.4z"/>
		<path class="st1" d="M85.7,197.2v-2.4c0-0.1,0-0.1,0.1,0l0.9,0.6c0.2,0.1,0.3,0.3,0.4,0.5c0.1,0.2,0.2,0.4,0.2,0.6v1.3
			c0,0.2-0.1,0.3-0.2,0.4c-0.1,0-0.2,0-0.4-0.1l-0.9-0.6C85.7,197.3,85.7,197.3,85.7,197.2z M86.2,197.2l0.4,0.3
			c0.1,0.1,0.1,0.1,0.2,0.1s0-0.1,0-0.2v-1.2c0-0.1,0-0.2,0-0.2c0-0.1-0.1-0.1-0.2-0.2l-0.4-0.3c0,0,0,0,0,0L86.2,197.2
			C86.1,197.2,86.2,197.2,86.2,197.2z"/>
		<path class="st1" d="M88.1,196.5v2.5c0,0.1,0,0.1-0.1,0l-0.3-0.2c0,0-0.1-0.1-0.1-0.1v-2.5c0-0.1,0-0.1,0.1,0l0.3,0.2
			C88.1,196.4,88.1,196.4,88.1,196.5z"/>
		<path class="st1" d="M88.5,198.7L88.5,198.7c0-0.1,0-0.2,0.1-0.1l0.3,0.2c0,0,0.1,0.1,0.1,0.1v0c0,0.1,0,0.2,0.1,0.3
			c0,0.1,0.1,0.1,0.2,0.2l0.2,0.1c0.1,0.1,0.2,0.1,0.2,0.1c0,0,0.1-0.1,0.1-0.2v0c0-0.1,0-0.2-0.1-0.2c-0.1-0.1-0.1-0.2-0.2-0.2
			c-0.1-0.1-0.2-0.1-0.3-0.2c-0.1-0.1-0.2-0.2-0.3-0.3c-0.1-0.1-0.1-0.2-0.2-0.4c-0.1-0.1-0.1-0.3-0.1-0.5v-0.1
			c0-0.2,0.1-0.3,0.2-0.4c0.1,0,0.2,0,0.4,0.1l0.3,0.2c0.2,0.1,0.3,0.3,0.4,0.5c0.1,0.2,0.2,0.4,0.2,0.6v0.1c0,0.1,0,0.1-0.1,0
			l-0.3-0.2c0,0-0.1-0.1-0.1-0.1v0c0-0.1,0-0.2-0.1-0.3c0-0.1-0.1-0.1-0.2-0.2l-0.1-0.1c-0.1-0.1-0.2-0.1-0.2-0.1
			c0,0-0.1,0.1-0.1,0.2v0.1c0,0.1,0.1,0.3,0.3,0.4c0.2,0.2,0.4,0.3,0.5,0.5c0.1,0.1,0.1,0.2,0.2,0.4c0.1,0.1,0.1,0.3,0.1,0.5v0.1
			c0,0.2-0.1,0.3-0.2,0.4c-0.1,0-0.2,0-0.4-0.1l-0.4-0.3c-0.2-0.1-0.3-0.3-0.4-0.5C88.6,199.1,88.5,198.9,88.5,198.7z"/>
		<path class="st1" d="M90.7,200.9l-0.3-0.2c0,0-0.1-0.1,0-0.1l0.6-2.1c0,0,0.1-0.1,0.1,0l0.5,0.3c0.1,0,0.1,0.1,0.1,0.2l0.5,2.9
			c0,0.1,0,0.1,0,0.1l-0.3-0.2c0,0,0,0-0.1-0.1c0,0,0,0,0-0.1l-0.1-0.5l-0.7-0.5L90.7,200.9C90.7,200.9,90.7,200.9,90.7,200.9
			C90.7,200.9,90.7,200.9,90.7,200.9z M91.2,199.1l-0.3,1l0.5,0.4L91.2,199.1L91.2,199.1z"/>
		<path class="st1" d="M92.4,202.1v-2.5c0-0.1,0-0.1,0.1,0l0.8,0.6c0.2,0.1,0.3,0.3,0.4,0.5c0.1,0.2,0.1,0.4,0.1,0.6v0.2
			c0,0.2-0.1,0.3-0.3,0.3c0.1,0.1,0.2,0.2,0.2,0.3c0.1,0.1,0.1,0.2,0.1,0.4v0.3c0,0.2,0,0.4-0.1,0.4c-0.1,0-0.2,0-0.4-0.1l-0.9-0.6
			C92.4,202.2,92.4,202.1,92.4,202.1z M92.9,200.9l0.4,0.3c0.1,0.1,0.1,0.1,0.2,0.1s0.1-0.1,0.1-0.1v-0.2c0-0.1,0-0.2-0.1-0.2
			c0-0.1-0.1-0.1-0.2-0.2l-0.4-0.3c0,0,0,0,0,0L92.9,200.9C92.8,200.9,92.8,200.9,92.9,200.9z M92.9,202.1l0.4,0.3
			c0.1,0.1,0.1,0.1,0.2,0.1c0,0,0.1-0.1,0.1-0.2V202c0-0.1,0-0.2-0.1-0.2c0-0.1-0.1-0.1-0.2-0.2l-0.4-0.3c0,0,0,0,0,0L92.9,202.1
			C92.8,202,92.8,202.1,92.9,202.1z"/>
		<path class="st1" d="M95.5,204.5l-1.1-0.8c0,0-0.1-0.1-0.1-0.1v-2.5c0-0.1,0-0.1,0.1,0l0.3,0.2c0,0,0.1,0.1,0.1,0.1v2.1
			c0,0,0,0.1,0,0.1l0.7,0.5c0,0,0.1,0.1,0.1,0.1L95.5,204.5C95.6,204.5,95.6,204.5,95.5,204.5z"/>
		<path class="st1" d="M97.1,205.6l-1.1-0.8c0,0-0.1-0.1-0.1-0.1v-2.6c0-0.1,0-0.1,0.1,0l1.1,0.8c0,0,0.1,0.1,0.1,0.1v0.3
			c0,0.1,0,0.1-0.1,0l-0.7-0.5c0,0,0,0,0,0v0.6c0,0,0,0.1,0,0.1l0.6,0.4c0,0,0.1,0.1,0.1,0.1v0.3c0,0.1,0,0.1-0.1,0l-0.6-0.4
			c0,0,0,0,0,0v0.6c0,0,0,0.1,0,0.1l0.7,0.5c0,0,0.1,0.1,0.1,0.1L97.1,205.6C97.2,205.6,97.1,205.6,97.1,205.6z"/>
		<path class="st1" d="M99,207l-0.3-0.2c-0.1,0-0.1-0.1-0.1-0.1v-2.2c0,0,0-0.1,0-0.1l-0.4-0.3c0,0-0.1-0.1-0.1-0.1v-0.3
			c0-0.1,0-0.1,0.1,0l1.3,0.9c0,0,0.1,0.1,0.1,0.1v0.3c0,0.1,0,0.1-0.1,0l-0.4-0.3c0,0,0,0,0,0L99,207C99.1,207,99,207,99,207z"/>
		<path class="st1" d="M100.2,207.9l-0.3-0.2c0,0-0.1-0.1-0.1-0.1v-2.6c0-0.1,0-0.1,0.1,0l0.3,0.2c0,0,0.1,0.1,0.1,0.1v1
			c0,0,0,0.1,0,0.1l0.6,0.4c0,0,0,0,0,0v-1c0-0.1,0-0.1,0.1,0l0.3,0.2c0,0,0.1,0.1,0.1,0.1v2.6c0,0.1,0,0.1-0.1,0l-0.3-0.2
			c0,0-0.1-0.1-0.1-0.1v-1c0,0,0-0.1,0-0.1l-0.6-0.4c0,0,0,0,0,0L100.2,207.9C100.3,207.9,100.3,207.9,100.2,207.9z"/>
		<path class="st1" d="M102.3,206.7v2.6c0,0.1,0,0.1-0.1,0l-0.3-0.2c0,0-0.1-0.1-0.1-0.1v-2.6c0-0.1,0-0.1,0.1,0l0.3,0.2
			C102.3,206.6,102.3,206.6,102.3,206.7z"/>
		<path class="st1" d="M102.7,209L102.7,209c0-0.2,0-0.2,0.1-0.1l0.3,0.2c0,0,0.1,0.1,0.1,0.1v0c0,0.1,0,0.2,0.1,0.3
			s0.1,0.1,0.2,0.2l0.2,0.1c0.1,0.1,0.2,0.1,0.2,0.1c0,0,0.1-0.1,0.1-0.2v-0.1c0-0.1,0-0.2-0.1-0.3c-0.1-0.1-0.1-0.2-0.2-0.2
			c-0.1-0.1-0.2-0.1-0.3-0.2c-0.1-0.1-0.2-0.2-0.3-0.3c-0.1-0.1-0.1-0.2-0.2-0.4c-0.1-0.2-0.1-0.3-0.1-0.5v-0.2
			c0-0.2,0.1-0.4,0.2-0.4c0.1-0.1,0.2,0,0.4,0.1l0.3,0.2c0.2,0.1,0.3,0.3,0.4,0.5c0.1,0.2,0.2,0.4,0.2,0.6v0.1c0,0.1,0,0.1-0.1,0
			l-0.3-0.2c0,0-0.1-0.1-0.1-0.1v0c0-0.1,0-0.2-0.1-0.3c0-0.1-0.1-0.1-0.2-0.2l-0.1-0.1c-0.1-0.1-0.2-0.1-0.2-0.1
			c0,0-0.1,0.1-0.1,0.2v0.1c0,0.1,0.1,0.3,0.3,0.4c0.2,0.2,0.4,0.3,0.5,0.5c0.1,0.1,0.1,0.2,0.2,0.4c0.1,0.2,0.1,0.3,0.1,0.5v0.2
			c0,0.2-0.1,0.4-0.2,0.4c-0.1,0.1-0.2,0-0.4-0.1l-0.4-0.3c-0.2-0.1-0.3-0.3-0.4-0.5C102.8,209.4,102.7,209.2,102.7,209z"/>
		<path class="st1" d="M105.8,212l-0.3-0.2c0,0-0.1-0.1-0.1-0.1v-2.7c0-0.1,0-0.1,0.1,0l1.1,0.8c0,0,0.1,0.1,0.1,0.1v0.3
			c0,0.1,0,0.1-0.1,0l-0.7-0.5c0,0,0,0,0,0v0.7c0,0,0,0.1,0,0.1l0.6,0.4c0,0,0.1,0.1,0.1,0.1v0.3c0,0.1,0,0.1-0.1,0l-0.6-0.4
			c0,0,0,0,0,0L105.8,212C105.9,212,105.8,212,105.8,212z"/>
		<path class="st1" d="M107.5,210.4v2.7c0,0.1,0,0.1-0.1,0l-0.3-0.2c0,0-0.1-0.1-0.1-0.1V210c0-0.1,0-0.1,0.1,0l0.3,0.2
			C107.4,210.2,107.5,210.3,107.5,210.4z"/>
		<path class="st1" d="M109.1,214.4l-1.1-0.8c0,0-0.1-0.1-0.1-0.1v-2.7c0-0.1,0-0.1,0.1,0l0.3,0.2c0,0,0.1,0.1,0.1,0.1v2.3
			c0,0,0,0.1,0,0.1l0.7,0.5c0,0,0.1,0.1,0.1,0.2L109.1,214.4C109.2,214.4,109.2,214.4,109.1,214.4z"/>
		<path class="st1" d="M110.7,215.5l-1.1-0.8c0,0-0.1-0.1-0.1-0.1v-2.7c0-0.1,0-0.1,0.1,0l1.1,0.8c0,0,0.1,0.1,0.1,0.1v0.3
			c0,0.1,0,0.1-0.1,0l-0.7-0.5c0,0,0,0,0,0v0.6c0,0,0,0.1,0,0.1l0.6,0.4c0,0,0.1,0.1,0.1,0.1v0.3c0,0.1,0,0.1-0.1,0l-0.6-0.4
			c0,0,0,0,0,0v0.6c0,0,0,0.1,0,0.1l0.7,0.5c0,0,0.1,0.1,0.1,0.1L110.7,215.5C110.8,215.5,110.7,215.6,110.7,215.5z"/>
		<path class="st1" d="M111.1,215.1L111.1,215.1c0-0.2,0-0.2,0.1-0.1l0.3,0.2c0,0,0.1,0.1,0.1,0.1v0c0,0.1,0,0.2,0.1,0.3
			c0,0.1,0.1,0.1,0.2,0.2l0.2,0.1c0.1,0.1,0.2,0.1,0.2,0.1c0,0,0.1-0.1,0.1-0.2v-0.1c0-0.1,0-0.2-0.1-0.3c-0.1-0.1-0.1-0.2-0.2-0.2
			c-0.1-0.1-0.2-0.1-0.3-0.2c-0.1-0.1-0.2-0.2-0.3-0.3c-0.1-0.1-0.1-0.2-0.2-0.4c-0.1-0.2-0.1-0.3-0.1-0.5v-0.2
			c0-0.2,0.1-0.4,0.2-0.4c0.1-0.1,0.2,0,0.4,0.1l0.3,0.2c0.2,0.1,0.3,0.3,0.4,0.5c0.1,0.2,0.2,0.4,0.2,0.7v0.1c0,0.1,0,0.1-0.1,0
			l-0.3-0.2c0,0-0.1-0.1-0.1-0.1v0c0-0.1,0-0.2-0.1-0.3c0-0.1-0.1-0.1-0.2-0.2l-0.1-0.1c-0.1-0.1-0.2-0.1-0.2-0.1
			c0,0-0.1,0.1-0.1,0.2v0.1c0,0.1,0.1,0.3,0.3,0.5c0.2,0.2,0.4,0.3,0.5,0.5c0.1,0.1,0.1,0.2,0.2,0.4c0.1,0.2,0.1,0.3,0.1,0.5v0.2
			c0,0.2-0.1,0.4-0.2,0.4c-0.1,0.1-0.2,0-0.4-0.1l-0.4-0.3c-0.2-0.1-0.3-0.3-0.4-0.5C111.1,215.5,111.1,215.3,111.1,215.1z"/>
		<path class="st1" d="M113.4,216.8v0.6c0,0.1,0,0.1-0.1,0l-0.3-0.2c0,0-0.1-0.1-0.1-0.1v-0.6c0-0.1,0-0.1,0.1,0l0.3,0.2
			C113.4,216.7,113.4,216.8,113.4,216.8z"/>
	</g>
</g>
<g>
	<g>
		<path class="st2" d="M89.7,35.6l-1.8-1.3c-0.8-0.5-1.4-1.2-1.8-1.9c-0.4-0.7-0.6-1.5-0.6-2.2v-5.3c0-0.8,0.2-1.2,0.6-1.4
			c0.4-0.1,1,0,1.8,0.6l1.8,1.2c0.8,0.5,1.4,1.1,1.8,1.9c0.4,0.7,0.6,1.5,0.6,2.3v5.3c0,0.8-0.2,1.2-0.6,1.4S90.4,36.1,89.7,35.6z
			 M88.1,33.1l1.3,0.9c0.8,0.5,1.1,0.4,1.1-0.4v-5.2c0-0.8-0.4-1.4-1.1-2l-1.3-0.9C87.3,25.1,87,25.2,87,26v5.2
			C87,32,87.3,32.6,88.1,33.1z"/>
		<path class="st2" d="M94.2,38.4v-9.8c0-0.2,0.1-0.2,0.3-0.1l3.7,2.5c0.8,0.5,1.4,1.1,1.8,1.9c0.4,0.7,0.6,1.5,0.6,2.3V36
			c0,0.9-0.4,1.3-1.3,1c0.4,0.3,0.7,0.7,1,1.2c0.3,0.5,0.4,1,0.4,1.5v1c0,0.8-0.2,1.3-0.6,1.4c-0.4,0.1-1-0.1-1.8-0.6l-3.8-2.7
			C94.3,38.8,94.2,38.6,94.2,38.4z M95.8,33.9l2,1.4c0.8,0.5,1.2,0.4,1.2-0.4v-0.7c0-0.8-0.4-1.4-1.1-1.9l-2-1.4
			c-0.1-0.1-0.2-0.1-0.2,0v2.8C95.7,33.8,95.7,33.8,95.8,33.9z M95.8,38.5l2.2,1.5c0.8,0.5,1.2,0.4,1.2-0.4v-1c0-0.8-0.4-1.5-1.2-2
			l-2.1-1.5c-0.1-0.1-0.2-0.1-0.2,0v3C95.7,38.4,95.7,38.5,95.8,38.5z"/>
		<path class="st2" d="M102.5,42v-0.4c0-0.2,0.1-0.2,0.3-0.1l1,0.7c0.2,0.1,0.3,0.3,0.3,0.5v0.3c0,0.5,0.1,0.9,0.3,1.2
			c0.2,0.3,0.5,0.7,1,1l1.1,0.7c0.4,0.3,0.8,0.4,1,0.3c0.2-0.1,0.3-0.4,0.3-0.8v-0.4c0-0.4-0.1-0.7-0.4-1.1c-0.3-0.4-0.6-0.7-0.9-1
			c-0.4-0.3-0.8-0.7-1.2-1.1c-0.4-0.4-0.9-0.8-1.2-1.2c-0.4-0.4-0.7-0.9-0.9-1.4c-0.3-0.6-0.4-1.2-0.4-1.8v-0.7
			c0-0.8,0.2-1.3,0.6-1.4c0.4-0.2,1,0,1.8,0.5l1.6,1.1c0.8,0.5,1.4,1.1,1.8,1.9c0.4,0.7,0.6,1.5,0.6,2.3v0.4c0,0.2-0.1,0.2-0.3,0.1
			l-1-0.7c-0.2-0.1-0.3-0.3-0.3-0.5v-0.2c0-0.5-0.1-0.9-0.3-1.2c-0.2-0.3-0.5-0.7-1-1l-1-0.7c-0.4-0.3-0.8-0.4-1-0.3
			c-0.2,0.1-0.3,0.4-0.3,0.9v0.5c0,0.5,0.3,1.1,1,1.7c0.3,0.3,0.6,0.6,1,0.9c0.4,0.3,0.7,0.6,1.1,1c0.4,0.4,0.7,0.7,1,1.1
			c0.3,0.4,0.5,0.8,0.7,1.3c0.2,0.5,0.3,1,0.3,1.5v0.6c0,0.8-0.2,1.3-0.6,1.4c-0.4,0.2-1,0-1.8-0.6l-1.7-1.2
			c-0.8-0.5-1.3-1.2-1.8-1.9C102.8,43.6,102.5,42.8,102.5,42z"/>
		<path class="st2" d="M114.7,50.4V50c0-0.2,0.1-0.2,0.3-0.1l1,0.7c0.2,0.1,0.3,0.3,0.3,0.5v0.3c0,0.5,0.1,0.9,0.3,1.2
			c0.2,0.3,0.5,0.7,1,1l1.1,0.7c0.4,0.3,0.8,0.4,1,0.3c0.2-0.1,0.3-0.4,0.3-0.9v-0.4c0-0.4-0.1-0.7-0.4-1.1
			c-0.3-0.4-0.6-0.7-0.9-1.1c-0.4-0.3-0.8-0.7-1.2-1.1c-0.4-0.4-0.9-0.8-1.2-1.2c-0.4-0.4-0.7-0.9-0.9-1.5c-0.3-0.6-0.4-1.2-0.4-1.8
			v-0.7c0-0.8,0.2-1.3,0.6-1.5c0.4-0.2,1,0,1.8,0.5l1.6,1.1c0.8,0.5,1.4,1.2,1.8,1.9c0.4,0.8,0.6,1.6,0.6,2.4v0.4
			c0,0.2-0.1,0.2-0.3,0.1l-1-0.7c-0.2-0.1-0.3-0.3-0.3-0.5v-0.2c0-0.5-0.1-0.9-0.3-1.2c-0.2-0.3-0.5-0.7-1-1l-1-0.7
			c-0.4-0.3-0.8-0.4-1-0.3c-0.2,0.1-0.3,0.4-0.3,0.9v0.5c0,0.5,0.3,1.1,1,1.7c0.3,0.3,0.6,0.6,1,0.9c0.4,0.3,0.7,0.6,1.1,1
			c0.4,0.4,0.7,0.7,1,1.1c0.3,0.4,0.5,0.8,0.7,1.3c0.2,0.5,0.3,1,0.3,1.6V55c0,0.8-0.2,1.3-0.6,1.5c-0.4,0.2-1,0-1.8-0.5l-1.7-1.2
			c-0.8-0.5-1.3-1.2-1.8-1.9C114.9,52,114.7,51.2,114.7,50.4z"/>
		<path class="st2" d="M126.1,61l-1-0.7c-0.2-0.1-0.3-0.3-0.3-0.5v-9.1c0-0.1-0.1-0.2-0.2-0.3l-2-1.3c-0.2-0.1-0.3-0.3-0.3-0.5v-0.9
			c0-0.2,0.1-0.2,0.3-0.1l5.8,3.9c0.2,0.1,0.3,0.3,0.3,0.5V53c0,0.2-0.1,0.2-0.3,0.1l-2-1.3c-0.1-0.1-0.2-0.1-0.2,0.1v9.1
			C126.4,61.1,126.3,61.1,126.1,61z"/>
		<path class="st2" d="M135.3,56.2l1,0.7c0.2,0.1,0.3,0.3,0.3,0.5v8.2c0,0.8-0.2,1.4-0.6,1.5c-0.4,0.2-1,0-1.8-0.5l-1.7-1.2
			c-0.8-0.5-1.3-1.2-1.8-1.9c-0.4-0.8-0.6-1.6-0.6-2.4V53c0-0.2,0.1-0.2,0.3-0.1l1,0.7c0.2,0.1,0.3,0.3,0.3,0.5V62
			c0,0.9,0.4,1.5,1.1,2.1l1.3,0.9c0.8,0.5,1.1,0.4,1.1-0.5v-8.1C135.1,56.2,135.2,56.1,135.3,56.2z"/>
		<path class="st2" d="M138.8,69.5V58.9c0-0.2,0.1-0.2,0.3-0.1l3.8,2.6c0.8,0.5,1.3,1.1,1.8,1.9c0.4,0.8,0.6,1.6,0.6,2.5v5.9
			c0,0.9-0.2,1.4-0.6,1.6c-0.4,0.2-1,0-1.8-0.5L139,70C138.9,69.9,138.8,69.7,138.8,69.5z M140.4,69.5l2.2,1.5
			c0.7,0.5,1.1,0.3,1.1-0.5v-5.7c0-0.9-0.4-1.6-1.1-2.1l-2.2-1.5c-0.1-0.1-0.2-0.1-0.2,0.1v7.9C140.3,69.3,140.3,69.4,140.4,69.5z"
			/>
		<path class="st2" d="M149,65.8v10.8c0,0.2-0.1,0.2-0.3,0.1l-1-0.7c-0.2-0.1-0.3-0.3-0.3-0.5V64.7c0-0.2,0.1-0.2,0.3-0.1l1,0.7
			C148.9,65.4,149,65.5,149,65.8z"/>
		<path class="st2" d="M155.3,81.3l-1.8-1.3c-0.8-0.5-1.4-1.2-1.8-2c-0.4-0.8-0.6-1.6-0.6-2.5v-6c0-0.9,0.2-1.4,0.6-1.6
			c0.4-0.2,1,0,1.8,0.5l1.8,1.2c0.8,0.5,1.4,1.2,1.8,1.9c0.4,0.8,0.6,1.6,0.6,2.5v6c0,0.9-0.2,1.4-0.6,1.6
			C156.7,82.1,156.1,81.9,155.3,81.3z M153.8,78.7l1.3,0.9c0.8,0.5,1.1,0.3,1.1-0.5v-5.9c0-0.9-0.4-1.6-1.1-2.1l-1.3-0.9
			c-0.7-0.5-1.1-0.3-1.1,0.6v5.8C152.6,77.5,153,78.2,153.8,78.7z"/>
	</g>
</g>
<g>
	<path class="st3" d="M169.6,236.2v8.5c-4.9,3-9.7,5.9-14.6,8.9v-18c2.4,1.7,4.8,3.3,7.3,5C164.7,239.2,167.2,237.7,169.6,236.2z"/>
	<path class="st3" d="M176.9,58.5v23.4c-4.9,3-9.7,5.9-14.6,8.9V67.4C167.1,64.4,172,61.5,176.9,58.5z"/>
	<path class="st3" d="M176.9,206.3c-4.9,3-9.7,5.9-14.6,8.9l-2.7-1.8v-16.7l2.7,1.8c4-2.4,7.9-4.8,11.9-7.3v13.2L176.9,206.3z"/>
	<path class="st3" d="M176.9,206.3v25.4c-4.9,3-9.7,5.9-14.6,8.9v-25.4C167.1,212.3,172,209.3,176.9,206.3z"/>
	<path class="st3" d="M176.9,58.5c-4.9,3-9.7,5.9-14.6,8.9C135,48.7,107.6,30,80.3,11.3c4.8-3,9.7-5.9,14.5-8.9
		C122.2,21.1,149.5,39.8,176.9,58.5z"/>
	<path class="st3" d="M176.9,88.3v101.4c-4.9,3-9.7,5.9-14.6,8.9V97.2C167.1,94.2,172,91.3,176.9,88.3z"/>
	<path class="st4" d="M159.6,213.4c4.9-3,9.7-5.9,14.6-8.9"/>
	<path class="st3" d="M83.8,156.6v4.5l-3.5-2.4C81.5,158,82.7,157.3,83.8,156.6z"/>
	<path class="st5" d="M162.3,67.4v23.4c-27.3-18.7-54.7-37.4-82-56.1c0-7.8,0-15.6,0-23.4C107.6,30,135,48.7,162.3,67.4z"/>
	<path class="st5" d="M159.6,196.8v16.6l0,0l2.6,1.8v25.4c-2.4-1.6-4.8-3.3-7.3-5v17.9c-24.9-17-49.8-34.1-74.7-51.1v-43.7l3.5,2.4
		v-6.5l-3.5-2.4V41.1c12.2,8.4,24.5,16.8,36.7,25.2c15.1,10.3,30.1,20.6,45.2,31v101.4L159.6,196.8z"/>
	<path class="st3" d="M176.9,88.3c-4.9,3-9.7,5.9-14.6,8.9c-15.1-10.3-30.2-20.7-45.2-31c-12.2-8.4-24.5-16.8-36.7-25.1
		c1.7-1,3.3-2,5-3c25.7,17.6,51.3,35.2,77,52.7c3.2-2,6.4-3.9,9.6-5.9L176.9,88.3z"/>
	<path class="st6" d="M159.6,196.8v16.6l0,0l2.6,1.8v25.4c-2.4-1.6-4.8-3.3-7.3-5v17.9c-24.9-17-49.8-34.1-74.7-51.1v-43.7l3.5,2.4
		v-6.5l-3.5-2.4V41.1c12.2,8.4,24.5,16.8,36.7,25.2c15.1,10.3,30.1,20.6,45.2,31v101.4L159.6,196.8z"/>
	<path class="st6" d="M162.3,67.4v23.4c-27.3-18.7-54.7-37.4-82-56.1c0-7.8,0-15.6,0-23.4C107.6,30,135,48.7,162.3,67.4z"/>
	<path class="st6" d="M176.9,88.3v101.4c-4.9,3-9.7,5.9-14.6,8.9V97.2C167.1,94.2,172,91.3,176.9,88.3z"/>
	<path class="st6" d="M176.9,58.5v23.4c-4.9,3-9.7,5.9-14.6,8.9V67.4C167.1,64.4,172,61.5,176.9,58.5z"/>
	<path class="st6" d="M176.9,88.3c-4.9,3-9.7,5.9-14.6,8.9c-15.1-10.3-30.2-20.7-45.2-31c-12.2-8.4-24.5-16.8-36.7-25.1
		c1.7-1,3.3-2,5-3c25.7,17.6,51.3,35.2,77,52.7c3.2-2,6.4-3.9,9.6-5.9L176.9,88.3z"/>
	<path class="st6" d="M176.9,58.5c-4.9,3-9.7,5.9-14.6,8.9C135,48.7,107.6,30,80.3,11.3c4.8-3,9.7-5.9,14.5-8.9
		C122.2,21.1,149.5,39.8,176.9,58.5z"/>
	<path class="st6" d="M169.6,236.2v8.5c-4.9,3-9.7,5.9-14.6,8.9v-18c2.4,1.7,4.8,3.3,7.3,5C164.7,239.2,167.2,237.7,169.6,236.2z"/>
	<path class="st6" d="M176.9,206.3c-4.9,3-9.7,5.9-14.6,8.9l-2.7-1.8v-16.7l2.7,1.8c4-2.4,7.9-4.8,11.9-7.3v13.2L176.9,206.3z"/>
	<path class="st6" d="M176.9,206.3v25.4c-4.9,3-9.7,5.9-14.6,8.9v-25.4C167.1,212.3,172,209.3,176.9,206.3z"/>
	<path class="st6" d="M159.6,213.4c4.9-3,9.7-5.9,14.6-8.9"/>
	<path class="st6" d="M83.8,156.6v4.5l-3.5-2.4C81.5,158,82.7,157.3,83.8,156.6z"/>
</g>
</svg>
