<svg xmlns="http://www.w3.org/2000/svg" viewBox="0 0 54.58 55.33"><defs><style>.cls-1{fill:#ff0303;}</style></defs><title>1Asset 6</title><g id="Layer_2" data-name="Layer 2"><g id="power_menu_1" data-name="power menu 1"><path class="cls-1" d="M8.69,9.5c.18,1.32.33,2.46.48,3.59.28,2.08.78,2.5,2.87,2.55A9.3,9.3,0,0,1,18.2,18c1.77,1.56,3.67,3,5.57,4.49a10.32,10.32,0,0,1-6.63-.9,12.34,12.34,0,0,0-10.06-.34c-2.2.92-2.26,1.36-.93,3.37A6.6,6.6,0,0,0,10,27.4a2.35,2.35,0,0,1,2,2.34c.82,6.57,5.27,10,11,12,5,1.79,10,1,14.79-1.15a23.58,23.58,0,0,0,12.69-13c0-.11.15-.21.56-.28-.13,1.51-.13,3.05-.41,4.54A22.59,22.59,0,0,1,31.37,50.61,26.72,26.72,0,0,1,9.81,44.74,25.74,25.74,0,0,1,.29,29.62a17.93,17.93,0,0,1,.9-9.33A22.67,22.67,0,0,1,8.69,9.5Z"/><path class="cls-1" d="M45,32.73c.24-3.52-.14-6.68-2-9.33s-3.94-4.94-6-7.32C32.88,11.41,32.33,5.55,35.64,0c.46.67.83,1.31,1.29,1.88,2.81,3.49,5.73,6.88,8.42,10.46a23.15,23.15,0,0,1,3.91,6.58c1.34,4.27-.09,8.26-2.56,11.88-.31.44-.65.86-1,1.28C45.56,32.24,45.38,32.37,45,32.73Z"/><path class="cls-1" d="M51.33,15.71c4.11,8,4.43,16.35.32,24.41C46.13,51,36.87,56.07,24.82,55.25c-9-.62-16-5.2-20.92-12.8l.23-.32c.45.45.91.89,1.34,1.35a29.05,29.05,0,0,0,15,8.59c8.46,1.85,16.44.63,23.31-4.92a23.82,23.82,0,0,0,8.76-15.42,30.18,30.18,0,0,0-1.21-13.38c-.25-.84-.37-1.72-.56-2.58Z"/><path class="cls-1" d="M35.62,39.26c5.34-5.78,5.5-11.89,1-18.46a7,7,0,0,1,4.57,3.35c2.29,3.35,2.32,7,1.31,10.77A2,2,0,0,1,41.75,36c-1.92,1.26-3.89,2.46-5.84,3.68Z"/><path class="cls-1" d="M13.72,29.16c.58-2.8-1.13-3.08-3.08-3.52-1.2-.27-2.23-1.32-3.66-2.22a7.6,7.6,0,0,1,5.81-1.1c1.91.44,3.73,1.26,5.64,1.74,1.5.39,3.08.5,4.67.8C19.51,25.1,16.22,26,13.72,29.16Z"/><path class="cls-1" d="M33.07,13.91l-5.95-1.24a20.2,20.2,0,0,1,5-10.1A16.9,16.9,0,0,0,33.07,13.91Z"/><path class="cls-1" d="M12.66,13.69l3.25-2.39v3.07Z"/></g></g></svg>