<svg xmlns="http://www.w3.org/2000/svg" viewBox="0 0 48.52 55.95"><defs><style>.cls-1{fill:#ef1856;}.cls-2{fill:none;stroke:#e0d1d1;stroke-miterlimit:10;stroke-width:0.75px;}</style></defs><title>1Asset 4</title><g id="Layer_2" data-name="Layer 2"><g id="Layer_22" data-name="Layer 22"><path class="cls-1" d="M37.16,14.61s.61,2.2-.19,3.46-.79,2.84-.1,3.53A4,4,0,0,1,37.56,19,3,3,0,0,0,37.16,14.61Z"/><path class="cls-1" d="M48.12,18.27S45.59,20,46.17,24s1.95,5.67.82,7.37c0,0,2.65-1.74,1-6.53S48.12,18.27,48.12,18.27Z"/><path class="cls-1" d="M43.87,42a9.48,9.48,0,0,1-.49,3.42A7.32,7.32,0,0,1,42,47.83s0-1.34-.23-5.2c0-.18,0-.36,0-.54V42a4.86,4.86,0,0,1,.12-1,3.29,3.29,0,0,1,.22-.75,4.42,4.42,0,0,1,2.45-2.51C44.45,37.84,43.72,38.39,43.87,42Z"/><path class="cls-1" d="M44.57,37.78A4.25,4.25,0,0,0,43,38.85c-.06-.61-.12-1.19-.18-1.75,0,0-.05.08-.07.13a8.18,8.18,0,0,0-.65,3.06c0,.65,0,1.12,0,1.12A3.79,3.79,0,0,1,41.9,41a8.49,8.49,0,0,1-.44-4.83c.43-2.65.15-2.82-.71-4.9a2.76,2.76,0,0,1,.8-3.61c1.09-1,2.61-1.74,2.81-3.48C44.72,21,43.11,21.15,43,18.4c0,0-.6.29-.5,2.47.09,1.91-1.22,2-1.66,3.89a5.68,5.68,0,0,0-.13.91c-.17,2.75-2.49,3.74-1.83,6s1.17,2.3,1.28,4.64A20.52,20.52,0,0,0,41.78,42l.08.19-.08-.11a13.76,13.76,0,0,1-2.11-4c-.32-1.6-.07-5.31-2.25-6.66a1.23,1.23,0,0,1,1,.5,8.74,8.74,0,0,0-.87-3.35,3.69,3.69,0,0,1,0-3.6,1.69,1.69,0,0,0,.1-.27,5.87,5.87,0,0,0-.49-4h0a4.63,4.63,0,0,0-.36-.65C36,18.77,37,17,37.47,16.3a3,3,0,0,1,.18-.26,1.12,1.12,0,0,0-.46.18c-.6.35-1.71,1.42-2.79,4.66-1.6,4.8-5,3.92-5.33,2.94-.05-.17-.1-.38-.15-.62-.22-1.14-.36-2.85-.36-2.85A12.3,12.3,0,0,1,27,23.15c-.18.17-.34.25-.48.17a.26.26,0,0,1-.1-.18c-.23-1,1.68-5.71,2.94-5.6s.43,3,.43,3,2.63-3.4,2-7.17c0,0-1.69,3.11-3.38,2s-1.33-5.6-1.31-5.95c-.05.28-.57,3.25-1.84,2.84s-2.36-4.26,1.06-7.17C28.41,3.36,30.21,2.6,30.06,0A8.6,8.6,0,0,1,24.6,3.58c-3.59.6-5.08,5.95-5.06,9.33s-.16,6.13-2.27,5.66a3.31,3.31,0,0,1-1.12-.48h0A4,4,0,0,1,15,16.79a4.2,4.2,0,0,1-.6-2.7c.25-1.44.85-1.82.93-1.87a2.16,2.16,0,0,0-1.68,2.42c0,.47.06,1,.1,1.49.17,1.83.35,3.7-.72,4-.77.21-1.16-.34-1.58-.91a2.34,2.34,0,0,0-1.25-1.07,11.66,11.66,0,0,1,.9,2.11,6.2,6.2,0,0,1,.19,3.65A19,19,0,0,1,9.46,28a6.93,6.93,0,0,0,.16-2.62,3.3,3.3,0,0,0-.79-1.74s.05,2.62-.8,2.82A11,11,0,0,0,5.7,18.89c-2.78-3.6-.94-8-.87-8.13C4.75,10.81,1.78,13,3,18s2.47,3.4,2.67,9.2a13,13,0,0,0,.91,4.84,3.39,3.39,0,0,0,1.3,1.68l.06,0-.08,0c-.55-.23-3.12-1.55-3.86-6.39a7.65,7.65,0,0,0-.57,5.56A16.34,16.34,0,0,0,0,28.28a40.34,40.34,0,0,1,2.43,5.3c.5,1.73,2.37,3.17,2.57,4.73a6,6,0,0,0,1.26,3.57,2,2,0,0,0,1,.74c.35,0,.55-.37.31-1.54l-.14-.63c-.37-1.53-.65-1.68-.6-2.54a6.1,6.1,0,0,1,.73,1.24c1.38,3-.51,4.93,0,8.81.09.74.55,4.18,2.91,5.31a3.64,3.64,0,0,0,1.24.34,16.14,16.14,0,0,0,3.59,1.57,17.08,17.08,0,0,0,9.42,0c-2.85-1.87-3.48-2.93-3.64-3.53a2,2,0,0,0-1.49-1.75c.14,0,2.53.49,5.19,3.63.52.62,1,1.16,1.52,1.65h8a9.62,9.62,0,0,0,6.58-2.6A7.32,7.32,0,0,0,42.45,50a14.72,14.72,0,0,0,.93-4.61A9.48,9.48,0,0,0,43.87,42C43.72,38.39,44.45,37.84,44.57,37.78ZM31.73,30.12a2.51,2.51,0,0,0,.3-2.07,8.57,8.57,0,0,1,2.27,4.46,2.23,2.23,0,0,0-1.23-.7,2.45,2.45,0,0,0-2,.71A4.8,4.8,0,0,1,31.73,30.12ZM9.52,41.41a10.18,10.18,0,0,0-1-3.44A2.92,2.92,0,0,1,9.52,41.41Zm5.78-6.08a1,1,0,0,0-1-.88c-.1.35.15,4.1.16,4.38A5,5,0,0,0,12,36c-2.1-1.34-1.7-4.14-1.7-4.14a6.88,6.88,0,0,0,2.48,2,2.48,2.48,0,0,1,.89,1.14,7.33,7.33,0,0,0-.37-2.57s.43,0,1.33,1.1A2.09,2.09,0,0,1,15.3,35.33ZM16.51,33a3.84,3.84,0,0,1,1.23-2.17c1.2-1.09,2.15-1.43,2.55-3.47a4.49,4.49,0,0,1,.76,2.89c-.05,1.95.22,2.27.22,2.27a5,5,0,0,1,1.52-2.91c1.49-1.62,2-.87,3.25-2.76A19.15,19.15,0,0,1,25.6,38.1a5.09,5.09,0,0,0,1.58-2.44c.33-1.42,2-1.42,2-1.42s-1.18.06-1.63,2.19-2.11,2.21-2.06,3.63.55,1.53.55,1.53-1.82.4-1.42-2.51,2.2-5.07,1.25-10.24c0,0-3.87,2.26-4.13,5.26,0,0-1.61-.93-1.31-3.84a5.26,5.26,0,0,0-3.32,3.36,9.4,9.4,0,0,0-.51,1.71A5.14,5.14,0,0,1,16.51,33Zm3.29,10A3.21,3.21,0,0,0,22,45.71a3.05,3.05,0,0,1-2.87-2.9,4.64,4.64,0,0,1,.26-2.35,5.08,5.08,0,0,1,1.51-2.11,8,8,0,0,0-.65,1.25A5.86,5.86,0,0,0,19.8,43.05ZM35.4,54.54c-4.34,1.1-7.22.63-11.43-3.06a43.52,43.52,0,0,0-4.19-3.3,14.24,14.24,0,0,1,4.55,2.73c2.67,2.2,4.3,3.13,8.07,2.9s8.5-4.17,8.5-4.17A7.88,7.88,0,0,1,35.4,54.54Zm-3.47-3.06c-8.92,0-10.48-3.4-10.53-3.5.08.09,2.69,3.19,10.5,3.06s9.43-6.43,9.43-6.43S41,51.48,31.93,51.48Zm10.24-20.8s0,.21,0,.52A6,6,0,0,0,42.38,33l-.06-.43,1.41-.35A2.15,2.15,0,0,1,42.17,30.68Z"/><path class="cls-1" d="M0,23.91a2.27,2.27,0,0,0,.77,2c1,1,1.05,1.4,1.05,1.4a2.9,2.9,0,0,0-.74-2A6.93,6.93,0,0,1,0,23.91Z"/><path class="cls-1" d="M12.28,51.23c-.26-.07-1,.2-1.11,1.18s.95.77,1.24-.23C12.58,51.59,12.51,51.29,12.28,51.23Z"/><path class="cls-1" d="M13.93,52.78c-.39,0-.62.81-.64,1.71s-.35,1.21-.15,1.39,1.35.17,1.43-1.4S14.32,52.75,13.93,52.78Z"/><path class="cls-1" d="M25.82,46.11l-.35.38s1.07,1.76,2.22.88a2.19,2.19,0,0,0,1-2s-.49.07-.6.2c-.34.37-.56,1.19-1.1,1.19A1.43,1.43,0,0,1,25.82,46.11Z"/><path class="cls-1" d="M28.23,44.46s-.87.2-.81.51,1.18.11,1.15-.14S28.35,44.43,28.23,44.46Z"/><path class="cls-1" d="M8.18,46.25c0,.13.09.72,0,1s.09.38.26.26.4-1,0-1.23C8.49,46.21,8.23,46.12,8.18,46.25Z"/><path class="cls-2" d="M43,39.07a1.49,1.49,0,0,0,0-.21c-.06-.61-.12-1.19-.18-1.75s-.14-1.26-.2-1.84-.11-1-.17-1.52L42.38,33l-.06-.43c0-.47-.12-.92-.18-1.36-.17-1.23-.36-2.36-.59-3.5-.13-.66-.28-1.33-.44-2-.08-.32-.15-.63-.23-.93-.59-2.3-1.19-4.21-1.67-5.64l0-.07a5,5,0,0,0-1.51-2.68l-.21-.07-.28-.08-.34-.11a5.15,5.15,0,0,0-2.58,2.38.39.39,0,0,0-.06.11l-2.27,4.67-3-.07-2-.05h-.58l-.77,0H25l-6.32.15-2.27-4.67-.06-.11a3.81,3.81,0,0,0-.23-.4h0A5.23,5.23,0,0,0,15,16.8a5.87,5.87,0,0,0-1.16-.68.32.32,0,0,0-.09,0l-.74.23a5,5,0,0,0-1.51,2.68l0,.07,0,.1c-.11.32-.23.67-.35,1-.45,1.39-1,3.11-1.44,5.08,0,.12-.06.23-.08.35a57.73,57.73,0,0,0-1.21,6.8c-.05.4-.1.82-.15,1.25s-.12,1-.18,1.57c-.12,1.13-.25,2.37-.4,3.75v.09c0,.45-.09.88-.13,1.31-.07.75-.13,1.47-.17,2.16A17.2,17.2,0,0,0,8.19,50a7.51,7.51,0,0,0,1.56,2.57,8,8,0,0,0,3.53,2.11,10.65,10.65,0,0,0,1.21.3,12.09,12.09,0,0,0,1.84.19h18a9.57,9.57,0,0,0,6.58-2.6A7.32,7.32,0,0,0,42.45,50a14.67,14.67,0,0,0,.93-4.61A42.67,42.67,0,0,0,43,39.07Zm-5.2-16.72.64,3.12a6.3,6.3,0,0,0-.78-.77,6.23,6.23,0,0,0-3.57-1.38l.62-1.27A5,5,0,0,1,36.62,20a4,4,0,0,1,.58.77h0A5,5,0,0,1,37.84,22.35Zm-21.94-.3.62,1.27a6.12,6.12,0,0,0-4.35,2.15l.63-3.12A5,5,0,0,1,14,20,5.1,5.1,0,0,1,15.9,22.05Z"/><polyline class="cls-2" points="13.92 30.42 21.66 38.16 14.1 45.72"/><line class="cls-2" x1="18.65" y1="45.78" x2="35.23" y2="45.78"/><polyline class="cls-2" points="42.32 32.56 43.73 32.21 44.16 32.1 45.09 31.88"/><line class="cls-2" x1="45.18" y1="33.62" x2="42.42" y2="33.62"/><line class="cls-2" x1="44.74" y1="35.64" x2="42.64" y2="35.26"/><line class="cls-2" x1="5.86" y1="31.87" x2="8.62" y2="32.56"/><line class="cls-2" x1="5.93" y1="33.62" x2="8.42" y2="33.62"/><line class="cls-2" x1="6.2" y1="35.64" x2="8.31" y2="35.26"/></g></g></svg>