<svg xmlns="http://www.w3.org/2000/svg" viewBox="0 0 56.38 56.69"><defs><style>.cls-1{fill:#ff0303;}.cls-2{fill:#fff;}</style></defs><title>1Asset 7</title><g id="Layer_2" data-name="Layer 2"><g id="power_menu_1" data-name="power menu 1"><path class="cls-1" d="M6.73,19.1l2-3.69C6.34,15,5.73,15.92,6.73,19.1ZM18.79,5.6a32.35,32.35,0,0,0-3.37,1.1c-.25.1-.4.9-.27,1.25a1.27,1.27,0,0,0,1.16.32c1-.46,1.92-1.08,2.86-1.63C19.05,6.3,18.92,6,18.79,5.6ZM35.17,7.07C35.6,5,36.25,3.21,39,3.88a25.58,25.58,0,0,0-4-1.4c-.64.54-.9,1.59-1.51,3.81-.84,3,2.11,2.27,3.07,3.37,0,1.95-1.14,1.78-2.51,1.69-1-.06-2.6.07-3.05.71-2.09,3-1.22,5.06,2.34,6.26.08,0,.1.23.19.44-2.93.86-3.75,3.47-4.74,5.88a.19.19,0,0,0,0,.08l-.68,0a.07.07,0,0,0,0,0c-1.31-2.23-2.76-4.38-4-6.34.62-.46,2.34-1.09,2.71-2.17.93-2.74-1.49-5.21-4.35-4.86-.25,0-.56.19-.72.09s-.42-.24-.62-.38a8.84,8.84,0,0,0-.68,1,8.73,8.73,0,0,0-.49,1.08c.45.36,1.13.46,2.24.07,2.32-.81,2.54.81,2.64,2.62-.69.19-1.3.37-1.93.53a2.12,2.12,0,0,0-1,3.7c1.36,1.44,2.73,2.87,4.19,4.4a9.33,9.33,0,0,1-4.13-2.17,8.41,8.41,0,0,0,1.91,1.46,8.79,8.79,0,0,0,2.45,1h0a9.41,9.41,0,0,0,1.75.22c.27,0,.55,0,.82,0a8.94,8.94,0,0,0,1.79-.31h0l.26-.08.26-.09.52-.2a7,7,0,0,0,.73-.35,8.3,8.3,0,0,0,2-1.51,8.86,8.86,0,0,1-3.52,2L35,20a2.11,2.11,0,0,0-1.12-3.67c-.62-.15-1.23-.36-2-.58.25-1,.47-1.83.72-2.82,1.38.17,2.79.78,3.73.36s1.38-1.83,1.77-2.9C39.09,7.73,36.37,8.06,35.17,7.07Zm1.88-.64,4.28,2.34C41.65,6.27,40.21,5.4,37.05,6.43Zm12.76,8.76c-.11-.21-1,0-2.09,0l2.39,4,1-.43A33.86,33.86,0,0,0,49.81,15.19ZM37.58,50.1c.12.32.24.64.37,1a18.91,18.91,0,0,0,3.28-1c.33-.17.26-1.13.51-2.43Zm12.83-13-2.5,4.2C50.55,41.67,51.25,40.58,50.41,37.1Zm-43.82.45c-.82,3.12-.36,3.89,2.38,3.94ZM15.44,48c-.43,2.46,1,3.34,4.3,2.36Zm11.09-14a9.37,9.37,0,0,0-.4-2.07,9,9,0,0,0-.64-1.53,8.61,8.61,0,0,0-.69-1.08,8.4,8.4,0,0,0-1.72-1.75,8.23,8.23,0,0,0-1.66-1A8,8,0,0,0,20,26a8.49,8.49,0,0,1,1.82.81,4.76,4.76,0,0,0,.51.32h0a9.17,9.17,0,0,1,2.13,2c-1.89-.22-4.24,1.41-5.81,4-.78-1.06-1.43-2.84-2.57-3.26-2.4-.88-5.07,1.65-4.76,4.22.17,1.49,0,2.42-1.82,2.39a6.23,6.23,0,0,1-.45-1.09c-.27-1.31-.77-2.69-2.36-2.07-1.37.54-3.51.23-4.36,1.55a28.07,28.07,0,0,0,1.34,4,.46.46,0,0,0,.12-.33c-.52-2.81,1.39-3,3.35-3.39.17.48.31.86.45,1.23.56,1.54,1.44,2.3,3.19,1.6,1.53-.6,3.33-.78,2.46-3.25S14,32,15.9,31.94a7,7,0,0,0,.39,1.22c.45.84,1,1.65,1.44,2.48,1.05-.62,2.14-1.18,3.11-1.89s1.63-1.56,2.53-2.22a15.06,15.06,0,0,1,1.94-1.1,9.52,9.52,0,0,1,.7,1.64,14.75,14.75,0,0,1-2.65,3.51c-1.19,1-2.75,1.75-2.05,3.36.35.82,1.83,1.15,2.89,1.67A8.55,8.55,0,0,0,25.39,39a9.22,9.22,0,0,0,.88-2.18,8.87,8.87,0,0,0,.26-1.57h0A9.4,9.4,0,0,0,26.53,33.94Zm14.37-8a10.58,10.58,0,0,0-1.79-.29c.25.74.8,1.33,2.28,1.12.48-.07.9-.14,1.27-.22A10.12,10.12,0,0,0,40.9,25.94Zm0,0a10.58,10.58,0,0,0-1.79-.29c.25.74.8,1.33,2.28,1.12.48-.07.9-.14,1.27-.22A10.12,10.12,0,0,0,40.9,25.94Zm12.21,8.31a25.69,25.69,0,0,0-3.82-.87s0,0,0,0a13.79,13.79,0,0,0-3.92-10.75c.08-.82.13-1.82.19-3,1,.93,1.61,1.44,2.18,2s1.27,1.67,2,1.72A4.72,4.72,0,0,0,54,21.64h0a25.74,25.74,0,0,0-.92-2.9c.12,1.93-1.44,2.33-3,2.16-1.12-.81-2.23-2.3-3.35-2.31-2.25,0-3.09.95-3.26,2.31A13.65,13.65,0,0,0,39.83,19c-1.46-.53-2.44-.5-3.36.67.74-.61,1.57-.55,2.71-.14A13.24,13.24,0,0,1,43.37,22c.33.28.64.59,1,.9l.44.48.42.5h0a13.09,13.09,0,0,1,2.94,7.81,10.46,10.46,0,0,1,.4,1.56c0,.16.06.31.1.47a4.73,4.73,0,0,0-.68.84,11.24,11.24,0,0,0-.77,2.14L45.27,36c.61-4.78.56-4.64-3.27-5.9-3.38-1.11-2.77,1.95-3.75,3.4-1.8-3.05-4.57-4.8-6.15-4.54l.07-.09a8.86,8.86,0,0,1,4.08-3A8.27,8.27,0,0,0,32,28.86l-.17.21c-.17.23-.34.46-.49.7a9.67,9.67,0,0,0-.85,1.62,7.75,7.75,0,0,0-.6,3h0a7.68,7.68,0,0,0,.26,1.89,7.89,7.89,0,0,1-.16-1.74c.07.09.12.18.18.26a21.1,21.1,0,0,0,3.21,3.56,12,12,0,0,1-2.07.6,3.08,3.08,0,0,1,.26.84c.17,1-.35,1.76-1.29,2.59h0a12.68,12.68,0,0,1-2.77,1.86,10,10,0,0,1-.94.43,14.9,14.9,0,0,1-1.42.49h0a9.63,9.63,0,0,1-1.18.28h0a6.17,6.17,0,0,1-.62.1l-.26,0-.71.07-.6,0c-.39,0-.77,0-1.16,0a14,14,0,0,1-1.72-.23A11.16,11.16,0,0,1,15,44h0c-.8-.09-1.57-.19-2.3-.24a11.35,11.35,0,0,0,5.79,2.84c-.25,1.33.5,2,1.86,2.52.44.16.86.4,1.22.57-.5,2.25-1,4.31-4.13,3l0,.12a26.09,26.09,0,0,0,4.36,1.5c.66-.57,1-1.71,1.53-3.76.68-2.74-1.35-2.67-3.11-3.24,0-.17.08-.35.13-.52a14.21,14.21,0,0,0,10-3.49l.06-.05c.66,2.68,1.32,2.59,5.62,2,.2.63.41,1.29.63,2-1.47.84-3.93.38-3.18,3.23.53,2.06.88,3.22,1.44,3.84A27.35,27.35,0,0,0,38.62,53c-2.64.11-2.83-.29-3.24-3.47.36-.14.73-.33,1.12-.44,1.86-.54,2.14-1.73,1.51-3.41-.56-1.5-.82-3-3.17-2.14S32,42.81,32,40.84a4.19,4.19,0,0,0,.91-.23c.93-.5,2.34-.84,2.65-1.61.62-1.52-.59-2.45-1.88-3.28a8.18,8.18,0,0,1-2-2.36,18.36,18.36,0,0,1-1-1.75h0a9.82,9.82,0,0,1,.88-1.7c1.82,1.74,3.54,3.42,5.3,5.06,1.47,1.37,3.2.85,3.7-1.1.17-.67.29-1.35.46-2.15l2.77.89c-.14,2.4-1.29,5,2.6,5.59,2.71.41,2.44-1.88,3.49-2.92,2.06.08,3.22.88,3.29,2.58a28.44,28.44,0,0,0,1-3.21A3,3,0,0,0,53.11,34.25ZM41.39,26.77c.48-.07.9-.14,1.27-.22a10.12,10.12,0,0,0-1.76-.61,10.58,10.58,0,0,0-1.79-.29C39.36,26.39,39.91,27,41.39,26.77Zm-.49-.83a10.58,10.58,0,0,0-1.79-.29c.25.74.8,1.33,2.28,1.12.48-.07.9-.14,1.27-.22A10.12,10.12,0,0,0,40.9,25.94Zm0,0a10.58,10.58,0,0,0-1.79-.29c.25.74.8,1.33,2.28,1.12.48-.07.9-.14,1.27-.22A10.12,10.12,0,0,0,40.9,25.94ZM23.23,6.38c-.5-1.29-.29-3.14-1.44-4h0a25.37,25.37,0,0,0-4.4,1.51l.09.28c3.21-1.27,3.63.79,4.15,3.09a5.51,5.51,0,0,0-1,.27c-1.05.54-2.42.81-2.16,2.3a14.36,14.36,0,0,0-4,13.32,4.39,4.39,0,0,0,.64,1.55L13,24.08c.73-2.74.95-5.1-2.72-5.63-2.57-.38-2.24,1.88-3.16,3C4.56,21.36,3.31,20.19,4,17.36h0a26,26,0,0,0-1.52,4.37c.11.12.23.23.33.32,2.8,2.14,5.45,1.46,6.84-1.73C12,20,11.4,21.69,11.31,23c-.19,2.72.13,3,3.9,3.74a1.92,1.92,0,0,0,2.39-1,3.48,3.48,0,0,1-.88-.19,1.82,1.82,0,0,1-.88-.65,3.85,3.85,0,0,1-.62-1.47A13.53,13.53,0,0,1,18.82,11,11.59,11.59,0,0,1,20.67,9.5a7.31,7.31,0,0,1,.7-.43l0,0a9.55,9.55,0,0,1,1.67-.74C23.47,7.9,23.59,7.31,23.23,6.38Z"/><path class="cls-2" d="M48.12,31.7a10.44,10.44,0,0,1-.38,3c-.16-.77-.27-1.26-.36-1.75a8.32,8.32,0,0,0-4.72-6.44h0a10.12,10.12,0,0,0-1.76-.61,10.58,10.58,0,0,0-1.79-.29A8,8,0,0,0,32,28.86l-.17.21c-.17.23-.34.46-.49.7a9.67,9.67,0,0,0-.85,1.62,7.75,7.75,0,0,0-.6,3h0a7.68,7.68,0,0,0,.26,1.89,9.77,9.77,0,0,0,.91,2.2c.1.17.18.33.25.48a3.08,3.08,0,0,1,.26.84c.17,1-.35,1.76-1.29,2.59h0a12.68,12.68,0,0,1-2.77,1.86,10,10,0,0,1-.94.43,14.9,14.9,0,0,1-1.42.49h0a9.63,9.63,0,0,1-1.18.28h0a6.17,6.17,0,0,1-.62.1l-.26,0-.71.07-.6,0c-.39,0-.77,0-1.16,0a14,14,0,0,1-1.72-.23A11.16,11.16,0,0,1,15,44h0a9.46,9.46,0,0,1-1.43-1.11c1.81.11,3.91.6,5.88.29a8.21,8.21,0,0,0,4.75-2.54A8.55,8.55,0,0,0,25.39,39a9.22,9.22,0,0,0,.88-2.18,8.87,8.87,0,0,0,.26-1.57h0a8.94,8.94,0,0,0-.4-3.37,9,9,0,0,0-.64-1.53,8.61,8.61,0,0,0-.69-1.08,8.4,8.4,0,0,0-1.72-1.75,8.23,8.23,0,0,0-1.66-1A8,8,0,0,0,20,26h0a8.1,8.1,0,0,0-2-.25l-.44,0a3.48,3.48,0,0,1-.88-.19,1.82,1.82,0,0,1-.88-.65,3.85,3.85,0,0,1-.62-1.47A13.53,13.53,0,0,1,18.82,11,11.59,11.59,0,0,1,20.67,9.5a7.31,7.31,0,0,1,.7-.43l0,0a9.55,9.55,0,0,1,1.67-.74l.44-.14C22.74,9.11,21.8,10,21.05,11a8.84,8.84,0,0,0-.68,1A8.63,8.63,0,0,0,21.89,22.3a8.41,8.41,0,0,0,1.91,1.46,8.79,8.79,0,0,0,2.45,1h0a9.41,9.41,0,0,0,1.75.22c.27,0,.55,0,.82,0a8.94,8.94,0,0,0,1.79-.31h0l.26-.08.26-.09.52-.2a7,7,0,0,0,.73-.35,8.3,8.3,0,0,0,2-1.51h0a8.31,8.31,0,0,0,1.21-1.6,4.09,4.09,0,0,1,.88-1.11c.74-.61,1.57-.55,2.71-.14A13.24,13.24,0,0,1,43.37,22c.33.28.64.59,1,.9l.44.48.42.5h0A13.09,13.09,0,0,1,48.12,31.7Z"/><path class="cls-1" d="M41.66,25.8a10.46,10.46,0,0,0-2.61-.34,8.69,8.69,0,0,0-2.8.45,8.22,8.22,0,0,1,2.86-.26,10.58,10.58,0,0,1,1.79.29,10.12,10.12,0,0,1,1.76.61h0l.36-.08.17,0,.17-.05A10.59,10.59,0,0,0,41.66,25.8ZM31,38.53a9.77,9.77,0,0,1-.91-2.2,9.53,9.53,0,0,0,1,2.73l.13-.05C31.19,38.86,31.11,38.7,31,38.53ZM25.39,39a.38.38,0,0,1,.13.06,9.23,9.23,0,0,0,.75-2.24A9.22,9.22,0,0,1,25.39,39ZM19.88,13.15a2,2,0,0,1-.55-.75,9.24,9.24,0,0,0,2.56,9.9A8.72,8.72,0,0,1,19.88,13.15Zm-13.15,6,2-3.69C6.34,15,5.73,15.92,6.73,19.1ZM18.79,5.6a32.35,32.35,0,0,0-3.37,1.1c-.25.1-.4.9-.27,1.25a1.27,1.27,0,0,0,1.16.32c1-.46,1.92-1.08,2.86-1.63C19.05,6.3,18.92,6,18.79,5.6Zm3.07,21.24a4.76,4.76,0,0,0,.51.32C22.21,27.05,22,26.94,21.86,26.84Zm19.8-1a10.46,10.46,0,0,0-2.61-.34,8.69,8.69,0,0,0-2.8.45,8.22,8.22,0,0,1,2.86-.26,10.58,10.58,0,0,1,1.79.29,10.12,10.12,0,0,1,1.76.61h0l.36-.08.17,0,.17-.05A10.59,10.59,0,0,0,41.66,25.8ZM31,38.53a9.77,9.77,0,0,1-.91-2.2,9.53,9.53,0,0,0,1,2.73l.13-.05C31.19,38.86,31.11,38.7,31,38.53ZM25.39,39a.38.38,0,0,1,.13.06,9.23,9.23,0,0,0,.75-2.24A9.22,9.22,0,0,1,25.39,39ZM21.86,26.84a4.76,4.76,0,0,0,.51.32C22.21,27.05,22,26.94,21.86,26.84Zm-2-13.69a2,2,0,0,1-.55-.75,9.24,9.24,0,0,0,2.56,9.9A8.72,8.72,0,0,1,19.88,13.15ZM18.79,5.6a32.35,32.35,0,0,0-3.37,1.1c-.25.1-.4.9-.27,1.25a1.27,1.27,0,0,0,1.16.32c1-.46,1.92-1.08,2.86-1.63C19.05,6.3,18.92,6,18.79,5.6Zm-1.13,20-.06.13.44,0A8.1,8.1,0,0,1,20,26,9.18,9.18,0,0,0,17.66,25.62ZM6.73,19.1l2-3.69C6.34,15,5.73,15.92,6.73,19.1Zm0,0,2-3.69C6.34,15,5.73,15.92,6.73,19.1ZM18.79,5.6a32.35,32.35,0,0,0-3.37,1.1c-.25.1-.4.9-.27,1.25a1.27,1.27,0,0,0,1.16.32c1-.46,1.92-1.08,2.86-1.63C19.05,6.3,18.92,6,18.79,5.6Zm3.07,21.24a4.76,4.76,0,0,0,.51.32C22.21,27.05,22,26.94,21.86,26.84Zm13.73-6.07a8.31,8.31,0,0,1-1.21,1.6A8.59,8.59,0,0,0,36,20.31a6.1,6.1,0,0,1,.44-.65A4.09,4.09,0,0,0,35.59,20.77ZM37.05,6.43l4.28,2.34C41.65,6.27,40.21,5.4,37.05,6.43Zm12.76,8.76c-.11-.21-1,0-2.09,0l2.39,4,1-.43A33.86,33.86,0,0,0,49.81,15.19Zm0,0c-.11-.21-1,0-2.09,0l2.39,4,1-.43A33.86,33.86,0,0,0,49.81,15.19ZM43.36,26.37h0a10.59,10.59,0,0,0-1.7-.57,10.46,10.46,0,0,0-2.61-.34,8.69,8.69,0,0,0-2.8.45,8.22,8.22,0,0,1,2.86-.26,10.58,10.58,0,0,1,1.79.29,10.12,10.12,0,0,1,1.76.61h0A8.32,8.32,0,0,1,47.38,33c.09.49.2,1,.36,1.75a10.44,10.44,0,0,0,.38-3A8.45,8.45,0,0,0,43.36,26.37ZM37.05,6.43l4.28,2.34C41.65,6.27,40.21,5.4,37.05,6.43ZM35.59,20.77a8.31,8.31,0,0,1-1.21,1.6A8.59,8.59,0,0,0,36,20.31a6.1,6.1,0,0,1,.44-.65A4.09,4.09,0,0,0,35.59,20.77ZM31.26,39c-.07-.15-.15-.31-.25-.48a9.77,9.77,0,0,1-.91-2.2,9.53,9.53,0,0,0,1,2.73l.05.07a5.67,5.67,0,0,1,.34.72A3.08,3.08,0,0,0,31.26,39ZM28.07,24.69c-1.31-2.23-2.76-4.38-4-6.34.62-.46,2.34-1.09,2.71-2.17.93-2.74-1.49-5.21-4.35-4.86-.25,0-.56.19-.72.09s-.42-.24-.62-.38c.75-1,1.69-1.92,2.46-2.86l-.44.14a9.55,9.55,0,0,0-1.67.74l0,0a14,14,0,0,0-1,1.27h0a7.31,7.31,0,0,0-.46.76,7.49,7.49,0,0,0-.58,1.3h0a9.24,9.24,0,0,0,2.56,9.9,8.72,8.72,0,0,1-2-9.15c.45.36,1.13.46,2.24.07,2.32-.81,2.54.81,2.64,2.62-.69.19-1.3.37-1.93.53a2.12,2.12,0,0,0-1,3.7c1.36,1.44,2.73,2.87,4.19,4.4h0a9.1,9.1,0,0,0,2.06.27A.07.07,0,0,0,28.07,24.69ZM25.39,39a8.55,8.55,0,0,1-1.19,1.62l.16.08.1.06a8.5,8.5,0,0,0,1.06-1.7,9.23,9.23,0,0,0,.75-2.24A9.22,9.22,0,0,1,25.39,39ZM21.86,26.84a4.76,4.76,0,0,0,.51.32C22.21,27.05,22,26.94,21.86,26.84ZM21,43.26h-.47l-.11,0-.13,0-.06,0-.08,0-.07,0-.07,0-.06,0,0,0h0l-.06,0-.06.05a2,2,0,0,0-.23.27,8.25,8.25,0,0,0,1.71-.6ZM18.79,5.6a32.35,32.35,0,0,0-3.37,1.1c-.25.1-.4.9-.27,1.25a1.27,1.27,0,0,0,1.16.32c1-.46,1.92-1.08,2.86-1.63C19.05,6.3,18.92,6,18.79,5.6Zm-1.13,20h-.22a5.31,5.31,0,0,1-.72-.05,3.48,3.48,0,0,0,.88.19l.44,0A8.1,8.1,0,0,1,20,26,9.18,9.18,0,0,0,17.66,25.62ZM6.73,19.1l2-3.69C6.34,15,5.73,15.92,6.73,19.1Zm0,0,2-3.69C6.34,15,5.73,15.92,6.73,19.1ZM18.79,5.6a32.35,32.35,0,0,0-3.37,1.1c-.25.1-.4.9-.27,1.25a1.27,1.27,0,0,0,1.16.32c1-.46,1.92-1.08,2.86-1.63C19.05,6.3,18.92,6,18.79,5.6Zm3.07,21.24a4.76,4.76,0,0,0,.51.32C22.21,27.05,22,26.94,21.86,26.84Zm13.73-6.07a8.31,8.31,0,0,1-1.21,1.6A8.59,8.59,0,0,0,36,20.31a6.1,6.1,0,0,1,.44-.65A4.09,4.09,0,0,0,35.59,20.77ZM37.05,6.43l4.28,2.34C41.65,6.27,40.21,5.4,37.05,6.43Zm.53,43.67c.12.32.24.64.37,1a18.91,18.91,0,0,0,3.28-1c.33-.17.26-1.13.51-2.43Zm12.83-13-2.5,4.2C50.55,41.67,51.25,40.58,50.41,37.1Zm-.6-21.91c-.11-.21-1,0-2.09,0l2.39,4,1-.43A33.86,33.86,0,0,0,49.81,15.19Zm0,0c-.11-.21-1,0-2.09,0l2.39,4,1-.43A33.86,33.86,0,0,0,49.81,15.19Zm.6,21.91-2.5,4.2C50.55,41.67,51.25,40.58,50.41,37.1Zm-7-10.73h0a10.59,10.59,0,0,0-1.7-.57,10.46,10.46,0,0,0-2.61-.34,8.69,8.69,0,0,0-2.8.45,8.22,8.22,0,0,1,2.86-.26,10.58,10.58,0,0,1,1.79.29,10.12,10.12,0,0,1,1.76.61h0A8.32,8.32,0,0,1,47.38,33c.09.49.2,1,.36,1.75a10.44,10.44,0,0,0,.38-3A8.45,8.45,0,0,0,43.36,26.37ZM37.58,50.1c.12.32.24.64.37,1a18.91,18.91,0,0,0,3.28-1c.33-.17.26-1.13.51-2.43ZM37.05,6.43l4.28,2.34C41.65,6.27,40.21,5.4,37.05,6.43ZM35.59,20.77a8.31,8.31,0,0,1-1.21,1.6A8.59,8.59,0,0,0,36,20.31a6.1,6.1,0,0,1,.44-.65A4.09,4.09,0,0,0,35.59,20.77ZM31.26,39c-.07-.15-.15-.31-.25-.48a9.77,9.77,0,0,1-.91-2.2,9.53,9.53,0,0,0,1,2.73l.05.07a5.67,5.67,0,0,1,.34.72A3.08,3.08,0,0,0,31.26,39ZM28.07,24.69c-1.31-2.23-2.76-4.38-4-6.34.62-.46,2.34-1.09,2.71-2.17.93-2.74-1.49-5.21-4.35-4.86-.25,0-.56.19-.72.09s-.42-.24-.62-.38c.75-1,1.69-1.92,2.46-2.86l-.44.14a9.55,9.55,0,0,0-1.67.74l0,0a14,14,0,0,0-1,1.27h0a7.31,7.31,0,0,0-.46.76,7.49,7.49,0,0,0-.58,1.3h0a9.24,9.24,0,0,0,2.56,9.9,8.72,8.72,0,0,1-2-9.15c.45.36,1.13.46,2.24.07,2.32-.81,2.54.81,2.64,2.62-.69.19-1.3.37-1.93.53a2.12,2.12,0,0,0-1,3.7c1.36,1.44,2.73,2.87,4.19,4.4h0a9.1,9.1,0,0,0,2.06.27A.07.07,0,0,0,28.07,24.69ZM25.39,39a8.55,8.55,0,0,1-1.19,1.62l.16.08.1.06a8.5,8.5,0,0,0,1.06-1.7,9.23,9.23,0,0,0,.75-2.24A9.22,9.22,0,0,1,25.39,39ZM21.86,26.84a4.76,4.76,0,0,0,.51.32C22.21,27.05,22,26.94,21.86,26.84ZM21,43.26h-.47l-.11,0-.13,0-.06,0-.08,0-.07,0-.07,0-.06,0,0,0h0l-.06,0-.06.05a2,2,0,0,0-.23.27,8.25,8.25,0,0,0,1.71-.6ZM18.79,5.6a32.35,32.35,0,0,0-3.37,1.1c-.25.1-.4.9-.27,1.25a1.27,1.27,0,0,0,1.16.32c1-.46,1.92-1.08,2.86-1.63C19.05,6.3,18.92,6,18.79,5.6Zm-1.13,20h-.22a5.31,5.31,0,0,1-.72-.05,3.48,3.48,0,0,0,.88.19l.44,0A8.1,8.1,0,0,1,20,26,9.18,9.18,0,0,0,17.66,25.62ZM6.73,19.1l2-3.69C6.34,15,5.73,15.92,6.73,19.1ZM6.59,37.55c-.82,3.12-.36,3.89,2.38,3.94ZM6.73,19.1l2-3.69C6.34,15,5.73,15.92,6.73,19.1ZM15.44,48c-.43,2.46,1,3.34,4.3,2.36ZM18.79,5.6a32.35,32.35,0,0,0-3.37,1.1c-.25.1-.4.9-.27,1.25a1.27,1.27,0,0,0,1.16.32c1-.46,1.92-1.08,2.86-1.63C19.05,6.3,18.92,6,18.79,5.6Zm3.07,21.24a4.76,4.76,0,0,0,.51.32C22.21,27.05,22,26.94,21.86,26.84Zm4.57,7.43a10.07,10.07,0,0,0-.42-2.2,14.75,14.75,0,0,1-2.65,3.51c-1.19,1-2.75,1.75-2.05,3.36.35.82,1.83,1.15,2.89,1.67a8.21,8.21,0,0,1-4.75,2.54c-2,.31-4.07-.18-5.88-.29A9.46,9.46,0,0,0,15,44h0a14.37,14.37,0,0,0,3.93.06c.22,0,.44-.08.65-.13h0a8.25,8.25,0,0,0,1.71-.6,8.83,8.83,0,0,0,3.16-2.55,8.5,8.5,0,0,0,1.06-1.7,9.23,9.23,0,0,0,.75-2.24,8.59,8.59,0,0,0,.18-1.44A10.14,10.14,0,0,0,26.43,34.27Zm9.16-13.5a8.31,8.31,0,0,1-1.21,1.6A8.59,8.59,0,0,0,36,20.31a6.1,6.1,0,0,1,.44-.65A4.09,4.09,0,0,0,35.59,20.77ZM37.05,6.43l4.28,2.34C41.65,6.27,40.21,5.4,37.05,6.43Zm.53,43.67c.12.32.24.64.37,1a18.91,18.91,0,0,0,3.28-1c.33-.17.26-1.13.51-2.43Zm5.78-23.73h0a10.59,10.59,0,0,0-1.7-.57,10.46,10.46,0,0,0-2.61-.34,8.69,8.69,0,0,0-2.8.45,8.22,8.22,0,0,1,2.86-.26c.25.74.8,1.33,2.28,1.12.48-.07.9-.14,1.27-.22h0A8.32,8.32,0,0,1,47.38,33c.09.49.2,1,.36,1.75a10.44,10.44,0,0,0,.38-3A8.45,8.45,0,0,0,43.36,26.37Zm7,10.73-2.5,4.2C50.55,41.67,51.25,40.58,50.41,37.1Zm-.6-21.91c-.11-.21-1,0-2.09,0l2.39,4,1-.43A33.86,33.86,0,0,0,49.81,15.19Zm0,0c-.11-.21-1,0-2.09,0l2.39,4,1-.43A33.86,33.86,0,0,0,49.81,15.19Zm.6,21.91-2.5,4.2C50.55,41.67,51.25,40.58,50.41,37.1Zm-7-10.73h0a10.59,10.59,0,0,0-1.7-.57,10.46,10.46,0,0,0-2.61-.34,8.69,8.69,0,0,0-2.8.45,8.22,8.22,0,0,1,2.86-.26c.25.74.8,1.33,2.28,1.12.48-.07.9-.14,1.27-.22h0A8.32,8.32,0,0,1,47.38,33c.09.49.2,1,.36,1.75a10.44,10.44,0,0,0,.38-3A8.45,8.45,0,0,0,43.36,26.37ZM37.58,50.1c.12.32.24.64.37,1a18.91,18.91,0,0,0,3.28-1c.33-.17.26-1.13.51-2.43ZM37.05,6.43l4.28,2.34C41.65,6.27,40.21,5.4,37.05,6.43ZM35.59,20.77a8.31,8.31,0,0,1-1.21,1.6A8.59,8.59,0,0,0,36,20.31a6.1,6.1,0,0,1,.44-.65A4.09,4.09,0,0,0,35.59,20.77ZM31.26,39c-.07-.15-.15-.31-.25-.48a9.77,9.77,0,0,1-.91-2.2,9.53,9.53,0,0,0,1,2.73l.05.07a5.67,5.67,0,0,1,.34.72A3.08,3.08,0,0,0,31.26,39ZM28.07,24.69c-1.31-2.23-2.76-4.38-4-6.34.62-.46,2.34-1.09,2.71-2.17.93-2.74-1.49-5.21-4.35-4.86-.25,0-.56.19-.72.09s-.42-.24-.62-.38c.75-1,1.69-1.92,2.46-2.86l-.44.14a9.55,9.55,0,0,0-1.67.74l0,0a14,14,0,0,0-1,1.27h0a7.31,7.31,0,0,0-.46.76,7.49,7.49,0,0,0-.58,1.3h0a9.24,9.24,0,0,0,2.56,9.9,8.72,8.72,0,0,1-2-9.15c.45.36,1.13.46,2.24.07,2.32-.81,2.54.81,2.64,2.62-.69.19-1.3.37-1.93.53a2.12,2.12,0,0,0-1,3.7c1.36,1.44,2.73,2.87,4.19,4.4h0a9.1,9.1,0,0,0,2.06.27A.07.07,0,0,0,28.07,24.69Zm-1.64,9.58a10.07,10.07,0,0,0-.42-2.2,14.75,14.75,0,0,1-2.65,3.51c-1.19,1-2.75,1.75-2.05,3.36.35.82,1.83,1.15,2.89,1.67a8.21,8.21,0,0,1-4.75,2.54c-2,.31-4.07-.18-5.88-.29A9.46,9.46,0,0,0,15,44h0a14.37,14.37,0,0,0,3.93.06c.22,0,.44-.08.65-.13h0a8.25,8.25,0,0,0,1.71-.6,8.83,8.83,0,0,0,3.16-2.55,8.5,8.5,0,0,0,1.06-1.7,9.23,9.23,0,0,0,.75-2.24,8.59,8.59,0,0,0,.18-1.44A10.14,10.14,0,0,0,26.43,34.27Zm-4.57-7.43a4.76,4.76,0,0,0,.51.32C22.21,27.05,22,26.94,21.86,26.84ZM18.79,5.6a32.35,32.35,0,0,0-3.37,1.1c-.25.1-.4.9-.27,1.25a1.27,1.27,0,0,0,1.16.32c1-.46,1.92-1.08,2.86-1.63C19.05,6.3,18.92,6,18.79,5.6ZM15.44,48c-.43,2.46,1,3.34,4.3,2.36Zm2.22-22.33h-.22a5.31,5.31,0,0,1-.72-.05,3.48,3.48,0,0,0,.88.19l.44,0A8.1,8.1,0,0,1,20,26,9.18,9.18,0,0,0,17.66,25.62ZM6.73,19.1l2-3.69C6.34,15,5.73,15.92,6.73,19.1ZM6.59,37.55c-.82,3.12-.36,3.89,2.38,3.94Zm0,0c-.82,3.12-.36,3.89,2.38,3.94ZM6.73,19.1l2-3.69C6.34,15,5.73,15.92,6.73,19.1ZM15.44,48c-.43,2.46,1,3.34,4.3,2.36ZM18.79,5.6a32.35,32.35,0,0,0-3.37,1.1c-.25.1-.4.9-.27,1.25a1.27,1.27,0,0,0,1.16.32c1-.46,1.92-1.08,2.86-1.63C19.05,6.3,18.92,6,18.79,5.6Zm3.07,21.24a4.76,4.76,0,0,0,.51.32C22.21,27.05,22,26.94,21.86,26.84Zm4.57,7.43a10.07,10.07,0,0,0-.42-2.2,14.75,14.75,0,0,1-2.65,3.51c-1.19,1-2.75,1.75-2.05,3.36.35.82,1.83,1.15,2.89,1.67a8.21,8.21,0,0,1-4.75,2.54c-2,.31-4.07-.18-5.88-.29A9.46,9.46,0,0,0,15,44h0a14.37,14.37,0,0,0,3.93.06c.22,0,.44-.08.65-.13h0a8.25,8.25,0,0,0,1.71-.6,8.83,8.83,0,0,0,3.16-2.55,8.5,8.5,0,0,0,1.06-1.7,9.23,9.23,0,0,0,.75-2.24,8.59,8.59,0,0,0,.18-1.44A10.14,10.14,0,0,0,26.43,34.27Zm9.16-13.5a8.31,8.31,0,0,1-1.21,1.6A8.59,8.59,0,0,0,36,20.31a6.1,6.1,0,0,1,.44-.65A4.09,4.09,0,0,0,35.59,20.77ZM37.05,6.43l4.28,2.34C41.65,6.27,40.21,5.4,37.05,6.43Zm.53,43.67c.12.32.24.64.37,1a18.91,18.91,0,0,0,3.28-1c.33-.17.26-1.13.51-2.43Zm5.78-23.73h0a10.59,10.59,0,0,0-1.7-.57,10.46,10.46,0,0,0-2.61-.34,8.69,8.69,0,0,0-2.8.45,8.22,8.22,0,0,1,2.86-.26c.25.74.8,1.33,2.28,1.12.48-.07.9-.14,1.27-.22h0A8.32,8.32,0,0,1,47.38,33c.09.49.2,1,.36,1.75a10.44,10.44,0,0,0,.38-3A8.45,8.45,0,0,0,43.36,26.37Zm7,10.73-2.5,4.2C50.55,41.67,51.25,40.58,50.41,37.1Zm-.6-21.91c-.11-.21-1,0-2.09,0l2.39,4,1-.43A33.86,33.86,0,0,0,49.81,15.19Zm1.35,3.56a33.86,33.86,0,0,0-1.35-3.56c-.11-.21-1,0-2.09,0l2.39,4ZM47.91,41.3c2.64.37,3.34-.72,2.5-4.2ZM43.36,26.37h0a10.59,10.59,0,0,0-1.7-.57,10.46,10.46,0,0,0-2.61-.34,8.69,8.69,0,0,0-2.8.45,8.22,8.22,0,0,1,2.86-.26c.25.74.8,1.33,2.28,1.12.48-.07.9-.14,1.27-.22h0A8.32,8.32,0,0,1,47.38,33c.09.49.2,1,.36,1.75a10.44,10.44,0,0,0,.38-3A8.45,8.45,0,0,0,43.36,26.37ZM38,51.06a18.91,18.91,0,0,0,3.28-1c.33-.17.26-1.13.51-2.43L37.58,50.1C37.7,50.42,37.82,50.74,38,51.06Zm-.9-44.63,4.28,2.34C41.65,6.27,40.21,5.4,37.05,6.43ZM35.59,20.77a8.31,8.31,0,0,1-1.21,1.6A8.59,8.59,0,0,0,36,20.31a6.1,6.1,0,0,1,.44-.65A4.09,4.09,0,0,0,35.59,20.77ZM31,38.53a9.77,9.77,0,0,1-.91-2.2,9.53,9.53,0,0,0,1,2.73l.05.07a5.67,5.67,0,0,1,.34.72,3.08,3.08,0,0,0-.26-.84C31.19,38.86,31.11,38.7,31,38.53ZM24,18.35c.62-.46,2.34-1.09,2.71-2.17.93-2.74-1.49-5.21-4.35-4.86-.25,0-.56.19-.72.09s-.42-.24-.62-.38c.75-1,1.69-1.92,2.46-2.86l-.44.14a9.55,9.55,0,0,0-1.67.74l0,0a14,14,0,0,0-1,1.27h0a7.31,7.31,0,0,0-.46.76,7.49,7.49,0,0,0-.58,1.3h0a9.24,9.24,0,0,0,2.56,9.9,8.72,8.72,0,0,1-2-9.15c.45.36,1.13.46,2.24.07,2.32-.81,2.54.81,2.64,2.62-.69.19-1.3.37-1.93.53a2.12,2.12,0,0,0-1,3.7c1.36,1.44,2.73,2.87,4.19,4.4h0a9.1,9.1,0,0,0,2.06.27.07.07,0,0,0,0,0C26.76,22.46,25.31,20.31,24,18.35Zm2,13.72a14.75,14.75,0,0,1-2.65,3.51c-1.19,1-2.75,1.75-2.05,3.36.35.82,1.83,1.15,2.89,1.67a8.21,8.21,0,0,1-4.75,2.54c-2,.31-4.07-.18-5.88-.29A9.46,9.46,0,0,0,15,44h0a14.37,14.37,0,0,0,3.93.06c.22,0,.44-.08.65-.13h0a8.25,8.25,0,0,0,1.71-.6,8.83,8.83,0,0,0,3.16-2.55,8.5,8.5,0,0,0,1.06-1.7,9.23,9.23,0,0,0,.75-2.24,8.59,8.59,0,0,0,.18-1.44,9.81,9.81,0,0,0-.44-3.3Zm-3.64-4.91c-.16-.11-.33-.22-.51-.32A4.76,4.76,0,0,0,22.37,27.16ZM16.31,8.27c1-.46,1.92-1.08,2.86-1.63-.12-.34-.25-.69-.38-1a32.35,32.35,0,0,0-3.37,1.1c-.25.1-.4.9-.27,1.25A1.27,1.27,0,0,0,16.31,8.27Zm3.43,42L15.44,48C15,50.41,16.44,51.29,19.74,50.31ZM17.6,25.75l.44,0A8.1,8.1,0,0,1,20,26a9.18,9.18,0,0,0-2.37-.4h-.22a5.31,5.31,0,0,1-.72-.05A3.48,3.48,0,0,0,17.6,25.75ZM8.76,15.41c-2.42-.42-3,.51-2,3.69ZM9,41.49,6.59,37.55C5.77,40.67,6.23,41.44,9,41.49Zm46-22.16c-.26-.8-.57-1.59-.9-2.35A28.32,28.32,0,0,0,39.85,2.53c-.57-.26-1.16-.5-1.75-.72A28.19,28.19,0,0,0,19,1.52c-.72.25-1.43.53-2.12.83A28.28,28.28,0,0,0,2.42,16.86c-.28.64-.54,1.29-.78,2A28.75,28.75,0,0,0,0,28.34a28.08,28.08,0,0,0,1.62,9.52c.22.66.48,1.3.76,1.93A28.34,28.34,0,0,0,16.91,54.32c.57.25,1.16.48,1.75.7A28.28,28.28,0,0,0,28,56.68a27.93,27.93,0,0,0,10.05-1.77c.59-.23,1.17-.47,1.74-.73A28.23,28.23,0,0,0,54,39.74a25.18,25.18,0,0,0,.93-2.42h0a28.81,28.81,0,0,0,1.45-8.86A28.37,28.37,0,0,0,54.94,19.33ZM53.11,34.25a25.69,25.69,0,0,0-3.82-.87s0,0,0,0a12,12,0,0,1-.34,1.75c-.12-.58-.22-1-.29-1.4a4.73,4.73,0,0,0-.68.84,11.24,11.24,0,0,0-.77,2.14L45.27,36c.61-4.78.56-4.64-3.27-5.9-3.38-1.11-2.77,1.95-3.75,3.4-1.8-3.05-4.57-4.8-6.15-4.54q-.36.46-.66.93c1.82,1.74,3.54,3.42,5.3,5.06,1.47,1.37,3.2.85,3.7-1.1.17-.67.29-1.35.46-2.15l2.77.89c-.14,2.4-1.29,5,2.6,5.59,2.71.41,2.44-1.88,3.49-2.92,2.06.08,3.22.88,3.29,2.58h0A26.66,26.66,0,0,1,38.62,53c-2.64.11-2.83-.29-3.24-3.47.36-.14.73-.33,1.12-.44,1.86-.54,2.14-1.73,1.51-3.41-.56-1.5-.82-3-3.17-2.14S32,42.81,32,40.84a4.19,4.19,0,0,0,.91-.23c.93-.5,2.34-.84,2.65-1.61.62-1.52-.59-2.45-1.88-3.28a8.18,8.18,0,0,1-2-2.36,18.36,18.36,0,0,1-1-1.75,8.41,8.41,0,0,0-.62,3c.07.09.12.18.18.26a21.1,21.1,0,0,0,3.21,3.56,12,12,0,0,1-2.07.6c-.07-.15-.15-.31-.25-.48a9.77,9.77,0,0,1-.91-2.2,9.53,9.53,0,0,0,1,2.73l.05.07a5.67,5.67,0,0,1,.34.72c.57,1.44,0,2.34-1.11,3.38.66,2.68,1.32,2.59,5.62,2,.2.63.41,1.29.63,2-1.47.84-3.93.38-3.18,3.23.53,2.06.88,3.22,1.44,3.84a26.64,26.64,0,0,1-13.16,0c.66-.57,1-1.71,1.53-3.76.68-2.74-1.35-2.67-3.11-3.24,0-.17.08-.35.13-.52a13.51,13.51,0,0,1-1.82-.2c-.25,1.33.5,2,1.86,2.52.44.16.86.4,1.22.57-.5,2.25-1,4.31-4.13,3l0,.12A26.82,26.82,0,0,1,3.73,38.92a.46.46,0,0,0,.12-.33c-.52-2.81,1.39-3,3.35-3.39.17.48.31.86.45,1.23.56,1.54,1.44,2.3,3.19,1.6,1.53-.6,3.33-.78,2.46-3.25S14,32,15.9,31.94a7,7,0,0,0,.39,1.22c.45.84,1,1.65,1.44,2.48,1.05-.62,2.14-1.18,3.11-1.89s1.63-1.56,2.53-2.22a15.06,15.06,0,0,1,1.94-1.1,8.21,8.21,0,0,0-.79-1.22c-1.89-.22-4.24,1.41-5.81,4-.78-1.06-1.43-2.84-2.57-3.26-2.4-.88-5.07,1.65-4.76,4.22.17,1.49,0,2.42-1.82,2.39a6.23,6.23,0,0,1-.45-1.09c-.27-1.31-.77-2.69-2.36-2.07-1.37.54-3.51.23-4.36,1.55a26.65,26.65,0,0,1-.8-6.61,27.57,27.57,0,0,1,.83-6.61c.11.12.23.23.33.32,2.8,2.14,5.45,1.46,6.84-1.73C12,20,11.4,21.69,11.31,23c-.19,2.72.13,3,3.9,3.74a1.92,1.92,0,0,0,2.39-1l.44,0A8.1,8.1,0,0,1,20,26a9.18,9.18,0,0,0-2.37-.4h-.22a5.31,5.31,0,0,1-.72-.05,2.28,2.28,0,0,1-1.64-.87L13,24.08c.73-2.74.95-5.1-2.72-5.63-2.57-.38-2.24,1.88-3.16,3C4.56,21.36,3.31,20.19,4,17.36h0A26.66,26.66,0,0,1,17.39,3.88l.09.28c3.21-1.27,3.63.79,4.15,3.09a5.51,5.51,0,0,0-1,.27c-1.05.54-2.42.81-2.16,2.3A11.51,11.51,0,0,1,23.24,7c-.58.7-1.24,1.38-1.86,2.09v0a14,14,0,0,0-1,1.27h0a7.31,7.31,0,0,0-.46.76,7.49,7.49,0,0,0-.58,1.3h0a9.24,9.24,0,0,0,2.56,9.9,8.72,8.72,0,0,1-2-9.15c.45.36,1.13.46,2.24.07,2.32-.81,2.54.81,2.64,2.62-.69.19-1.3.37-1.93.53a2.12,2.12,0,0,0-1,3.7c1.36,1.44,2.73,2.87,4.19,4.4h0a9.1,9.1,0,0,0,2.06.27.07.07,0,0,0,0,0c-1.31-2.23-2.76-4.38-4-6.34.62-.46,2.34-1.09,2.71-2.17.93-2.74-1.49-5.21-4.35-4.86-.25,0-.56.19-.72.09s-.42-.24-.62-.38c.75-1,1.69-1.92,2.46-2.86l-.44.14c.4-.41.52-1,.16-1.93-.5-1.29-.29-3.14-1.44-4a26,26,0,0,1,6.64-.77A26.67,26.67,0,0,1,35,2.48c-.64.54-.9,1.59-1.51,3.81-.84,3,2.11,2.27,3.07,3.37,0,1.95-1.14,1.78-2.51,1.69-1-.06-2.6.07-3.05.71-2.09,3-1.22,5.06,2.34,6.26.08,0,.1.23.19.44-2.93.86-3.75,3.47-4.74,5.88a.19.19,0,0,0,0,.08,9.15,9.15,0,0,0,2.09-.36L35,20a2.11,2.11,0,0,0-1.12-3.67c-.62-.15-1.23-.36-2-.58.25-1,.47-1.83.72-2.82,1.38.17,2.79.78,3.73.36s1.38-1.83,1.77-2.9c1-2.69-1.74-2.36-2.94-3.35C35.6,5,36.25,3.21,39,3.88h0A26.73,26.73,0,0,1,53,18.74c.12,1.93-1.44,2.33-3,2.16-1.12-.81-2.23-2.3-3.35-2.31-2.25,0-3.09.95-3.26,2.31a14,14,0,0,1,1.95,1.73c.08-.82.13-1.82.19-3,1,.93,1.61,1.44,2.18,2s1.27,1.67,2,1.72A4.72,4.72,0,0,0,54,21.64a26.86,26.86,0,0,1,.83,6.81,28.13,28.13,0,0,1-.75,6.2A3,3,0,0,0,53.11,34.25Zm-2-15.5a33.86,33.86,0,0,0-1.35-3.56c-.11-.21-1,0-2.09,0l2.39,4ZM50.41,37.1l-2.5,4.2C50.55,41.67,51.25,40.58,50.41,37.1Zm-7-10.73h0a10.59,10.59,0,0,0-1.7-.57,10.46,10.46,0,0,0-2.61-.34,8.69,8.69,0,0,0-2.8.45,8.22,8.22,0,0,1,2.86-.26c.25.74.8,1.33,2.28,1.12.48-.07.9-.14,1.27-.22h0A8.32,8.32,0,0,1,47.38,33c.09.49.2,1,.36,1.75a10.44,10.44,0,0,0,.38-3A8.45,8.45,0,0,0,43.36,26.37ZM38,51.06a18.91,18.91,0,0,0,3.28-1c.33-.17.26-1.13.51-2.43L37.58,50.1C37.7,50.42,37.82,50.74,38,51.06Zm-.9-44.63,4.28,2.34C41.65,6.27,40.21,5.4,37.05,6.43ZM35.59,20.77a8.31,8.31,0,0,1-1.21,1.6A8.59,8.59,0,0,0,36,20.31a6.1,6.1,0,0,1,.44-.65A4.09,4.09,0,0,0,35.59,20.77ZM26,32.07a14.75,14.75,0,0,1-2.65,3.51c-1.19,1-2.75,1.75-2.05,3.36.35.82,1.83,1.15,2.89,1.67a8.21,8.21,0,0,1-4.75,2.54c-2,.31-4.07-.18-5.88-.29A9.46,9.46,0,0,0,15,44h0a14.37,14.37,0,0,0,3.93.06c.22,0,.44-.08.65-.13h0a8.25,8.25,0,0,0,1.71-.6,8.83,8.83,0,0,0,3.16-2.55,8.5,8.5,0,0,0,1.06-1.7,9.23,9.23,0,0,0,.75-2.24,8.59,8.59,0,0,0,.18-1.44,9.81,9.81,0,0,0-.44-3.3Zm-3.64-4.91c-.16-.11-.33-.22-.51-.32A4.76,4.76,0,0,0,22.37,27.16ZM18.79,5.6a32.35,32.35,0,0,0-3.37,1.1c-.25.1-.4.9-.27,1.25a1.27,1.27,0,0,0,1.16.32c1-.46,1.92-1.08,2.86-1.63C19.05,6.3,18.92,6,18.79,5.6Zm.95,44.71L15.44,48C15,50.41,16.44,51.29,19.74,50.31ZM6.73,19.1l2-3.69C6.34,15,5.73,15.92,6.73,19.1ZM9,41.49,6.59,37.55C5.77,40.67,6.23,41.44,9,41.49ZM6.59,37.55c-.82,3.12-.36,3.89,2.38,3.94ZM6.73,19.1l2-3.69C6.34,15,5.73,15.92,6.73,19.1Zm10.93,6.52h-.22a5.31,5.31,0,0,1-.72-.05,3.48,3.48,0,0,0,.88.19l.44,0A8.1,8.1,0,0,1,20,26,9.18,9.18,0,0,0,17.66,25.62ZM15.44,48c-.43,2.46,1,3.34,4.3,2.36ZM18.79,5.6a32.35,32.35,0,0,0-3.37,1.1c-.25.1-.4.9-.27,1.25a1.27,1.27,0,0,0,1.16.32c1-.46,1.92-1.08,2.86-1.63C19.05,6.3,18.92,6,18.79,5.6Zm3.07,21.24a4.76,4.76,0,0,0,.51.32C22.21,27.05,22,26.94,21.86,26.84Zm4.57,7.43a10.07,10.07,0,0,0-.42-2.2,14.75,14.75,0,0,1-2.65,3.51c-1.19,1-2.75,1.75-2.05,3.36.35.82,1.83,1.15,2.89,1.67a8.21,8.21,0,0,1-4.75,2.54c-2,.31-4.07-.18-5.88-.29A9.46,9.46,0,0,0,15,44h0a14.37,14.37,0,0,0,3.93.06c.22,0,.44-.08.65-.13h0a8.25,8.25,0,0,0,1.71-.6,8.83,8.83,0,0,0,3.16-2.55,8.5,8.5,0,0,0,1.06-1.7,9.23,9.23,0,0,0,.75-2.24,8.59,8.59,0,0,0,.18-1.44A10.14,10.14,0,0,0,26.43,34.27Zm1.64-9.58c-1.31-2.23-2.76-4.38-4-6.34.62-.46,2.34-1.09,2.71-2.17.93-2.74-1.49-5.21-4.35-4.86-.25,0-.56.19-.72.09s-.42-.24-.62-.38c.75-1,1.69-1.92,2.46-2.86l-.44.14a9.55,9.55,0,0,0-1.67.74l0,0a14,14,0,0,0-1,1.27h0a7.31,7.31,0,0,0-.46.76,7.49,7.49,0,0,0-.58,1.3h0a9.24,9.24,0,0,0,2.56,9.9,8.72,8.72,0,0,1-2-9.15c.45.36,1.13.46,2.24.07,2.32-.81,2.54.81,2.64,2.62-.69.19-1.3.37-1.93.53a2.12,2.12,0,0,0-1,3.7c1.36,1.44,2.73,2.87,4.19,4.4h0a9.1,9.1,0,0,0,2.06.27A.07.07,0,0,0,28.07,24.69ZM31.26,39c-.07-.15-.15-.31-.25-.48a9.77,9.77,0,0,1-.91-2.2,9.53,9.53,0,0,0,1,2.73l.05.07a5.67,5.67,0,0,1,.34.72A3.08,3.08,0,0,0,31.26,39Zm4.33-18.24a8.31,8.31,0,0,1-1.21,1.6A8.59,8.59,0,0,0,36,20.31a6.1,6.1,0,0,1,.44-.65A4.09,4.09,0,0,0,35.59,20.77ZM37.05,6.43l4.28,2.34C41.65,6.27,40.21,5.4,37.05,6.43Zm.53,43.67c.12.32.24.64.37,1a18.91,18.91,0,0,0,3.28-1c.33-.17.26-1.13.51-2.43Zm5.78-23.73h0a10.59,10.59,0,0,0-1.7-.57,10.46,10.46,0,0,0-2.61-.34,8.69,8.69,0,0,0-2.8.45,8.22,8.22,0,0,1,2.86-.26c.25.74.8,1.33,2.28,1.12.48-.07.9-.14,1.27-.22h0A8.32,8.32,0,0,1,47.38,33c.09.49.2,1,.36,1.75a10.44,10.44,0,0,0,.38-3A8.45,8.45,0,0,0,43.36,26.37Zm7,10.73-2.5,4.2C50.55,41.67,51.25,40.58,50.41,37.1Zm-.6-21.91c-.11-.21-1,0-2.09,0l2.39,4,1-.43A33.86,33.86,0,0,0,49.81,15.19Zm0,0c-.11-.21-1,0-2.09,0l2.39,4,1-.43A33.86,33.86,0,0,0,49.81,15.19Zm.6,21.91-2.5,4.2C50.55,41.67,51.25,40.58,50.41,37.1Zm-7-10.73h0a10.59,10.59,0,0,0-1.7-.57,10.46,10.46,0,0,0-2.61-.34,8.69,8.69,0,0,0-2.8.45,8.22,8.22,0,0,1,2.86-.26c.25.74.8,1.33,2.28,1.12.48-.07.9-.14,1.27-.22h0A8.32,8.32,0,0,1,47.38,33c.09.49.2,1,.36,1.75a10.44,10.44,0,0,0,.38-3A8.45,8.45,0,0,0,43.36,26.37ZM37.58,50.1c.12.32.24.64.37,1a18.91,18.91,0,0,0,3.28-1c.33-.17.26-1.13.51-2.43ZM37.05,6.43l4.28,2.34C41.65,6.27,40.21,5.4,37.05,6.43ZM35.59,20.77a8.31,8.31,0,0,1-1.21,1.6A8.59,8.59,0,0,0,36,20.31a6.1,6.1,0,0,1,.44-.65A4.09,4.09,0,0,0,35.59,20.77Zm-9.16,13.5a10.07,10.07,0,0,0-.42-2.2,14.75,14.75,0,0,1-2.65,3.51c-1.19,1-2.75,1.75-2.05,3.36.35.82,1.83,1.15,2.89,1.67a8.21,8.21,0,0,1-4.75,2.54c-2,.31-4.07-.18-5.88-.29A9.46,9.46,0,0,0,15,44h0a14.37,14.37,0,0,0,3.93.06c.22,0,.44-.08.65-.13h0a8.25,8.25,0,0,0,1.71-.6,8.83,8.83,0,0,0,3.16-2.55,8.5,8.5,0,0,0,1.06-1.7,9.23,9.23,0,0,0,.75-2.24,8.59,8.59,0,0,0,.18-1.44A10.14,10.14,0,0,0,26.43,34.27Zm-4.57-7.43a4.76,4.76,0,0,0,.51.32C22.21,27.05,22,26.94,21.86,26.84ZM18.79,5.6a32.35,32.35,0,0,0-3.37,1.1c-.25.1-.4.9-.27,1.25a1.27,1.27,0,0,0,1.16.32c1-.46,1.92-1.08,2.86-1.63C19.05,6.3,18.92,6,18.79,5.6ZM15.44,48c-.43,2.46,1,3.34,4.3,2.36ZM6.73,19.1l2-3.69C6.34,15,5.73,15.92,6.73,19.1ZM6.59,37.55c-.82,3.12-.36,3.89,2.38,3.94ZM6.73,19.1l2-3.69C6.34,15,5.73,15.92,6.73,19.1Zm10.93,6.52h-.22a5.31,5.31,0,0,1-.72-.05,3.48,3.48,0,0,0,.88.19l.44,0A8.1,8.1,0,0,1,20,26,9.18,9.18,0,0,0,17.66,25.62Zm1.13-20a32.35,32.35,0,0,0-3.37,1.1c-.25.1-.4.9-.27,1.25a1.27,1.27,0,0,0,1.16.32c1-.46,1.92-1.08,2.86-1.63C19.05,6.3,18.92,6,18.79,5.6ZM21,43.26h-.47l-.11,0-.13,0-.06,0-.08,0-.07,0-.07,0-.06,0,0,0h0l-.06,0-.06.05a2,2,0,0,0-.23.27,8.25,8.25,0,0,0,1.71-.6Zm.83-16.42a4.76,4.76,0,0,0,.51.32C22.21,27.05,22,26.94,21.86,26.84ZM25.39,39a8.55,8.55,0,0,1-1.19,1.62l.16.08.1.06a8.5,8.5,0,0,0,1.06-1.7,9.23,9.23,0,0,0,.75-2.24A9.22,9.22,0,0,1,25.39,39Zm2.68-14.3c-1.31-2.23-2.76-4.38-4-6.34.62-.46,2.34-1.09,2.71-2.17.93-2.74-1.49-5.21-4.35-4.86-.25,0-.56.19-.72.09s-.42-.24-.62-.38c.75-1,1.69-1.92,2.46-2.86l-.44.14a9.55,9.55,0,0,0-1.67.74l0,0a14,14,0,0,0-1,1.27h0a7.31,7.31,0,0,0-.46.76,7.49,7.49,0,0,0-.58,1.3h0a9.24,9.24,0,0,0,2.56,9.9,8.72,8.72,0,0,1-2-9.15c.45.36,1.13.46,2.24.07,2.32-.81,2.54.81,2.64,2.62-.69.19-1.3.37-1.93.53a2.12,2.12,0,0,0-1,3.7c1.36,1.44,2.73,2.87,4.19,4.4h0a9.1,9.1,0,0,0,2.06.27A.07.07,0,0,0,28.07,24.69ZM31.26,39c-.07-.15-.15-.31-.25-.48a9.77,9.77,0,0,1-.91-2.2,9.53,9.53,0,0,0,1,2.73l.05.07a5.67,5.67,0,0,1,.34.72A3.08,3.08,0,0,0,31.26,39Zm4.33-18.24a8.31,8.31,0,0,1-1.21,1.6A8.59,8.59,0,0,0,36,20.31a6.1,6.1,0,0,1,.44-.65A4.09,4.09,0,0,0,35.59,20.77ZM37.05,6.43l4.28,2.34C41.65,6.27,40.21,5.4,37.05,6.43Zm.53,43.67c.12.32.24.64.37,1a18.91,18.91,0,0,0,3.28-1c.33-.17.26-1.13.51-2.43Zm5.78-23.73h0a10.59,10.59,0,0,0-1.7-.57,10.46,10.46,0,0,0-2.61-.34,8.69,8.69,0,0,0-2.8.45,8.22,8.22,0,0,1,2.86-.26c.25.74.8,1.33,2.28,1.12.48-.07.9-.14,1.27-.22h0A8.32,8.32,0,0,1,47.38,33c.09.49.2,1,.36,1.75a10.44,10.44,0,0,0,.38-3A8.45,8.45,0,0,0,43.36,26.37Zm7,10.73-2.5,4.2C50.55,41.67,51.25,40.58,50.41,37.1Zm-.6-21.91c-.11-.21-1,0-2.09,0l2.39,4,1-.43A33.86,33.86,0,0,0,49.81,15.19Zm0,0c-.11-.21-1,0-2.09,0l2.39,4,1-.43A33.86,33.86,0,0,0,49.81,15.19Zm.6,21.91-2.5,4.2C50.55,41.67,51.25,40.58,50.41,37.1Zm-7-10.73h0a10.59,10.59,0,0,0-1.7-.57,10.46,10.46,0,0,0-2.61-.34,8.69,8.69,0,0,0-2.8.45,8.22,8.22,0,0,1,2.86-.26c.25.74.8,1.33,2.28,1.12.48-.07.9-.14,1.27-.22h0A8.32,8.32,0,0,1,47.38,33c.09.49.2,1,.36,1.75a10.44,10.44,0,0,0,.38-3A8.45,8.45,0,0,0,43.36,26.37ZM37.58,50.1c.12.32.24.64.37,1a18.91,18.91,0,0,0,3.28-1c.33-.17.26-1.13.51-2.43ZM37.05,6.43l4.28,2.34C41.65,6.27,40.21,5.4,37.05,6.43ZM35.59,20.77a8.31,8.31,0,0,1-1.21,1.6A8.59,8.59,0,0,0,36,20.31a6.1,6.1,0,0,1,.44-.65A4.09,4.09,0,0,0,35.59,20.77ZM21.86,26.84a4.76,4.76,0,0,0,.51.32C22.21,27.05,22,26.94,21.86,26.84ZM18.79,5.6a32.35,32.35,0,0,0-3.37,1.1c-.25.1-.4.9-.27,1.25a1.27,1.27,0,0,0,1.16.32c1-.46,1.92-1.08,2.86-1.63C19.05,6.3,18.92,6,18.79,5.6ZM6.73,19.1l2-3.69C6.34,15,5.73,15.92,6.73,19.1Zm0,0,2-3.69C6.34,15,5.73,15.92,6.73,19.1Zm10.93,6.52h-.22a5.31,5.31,0,0,1-.72-.05,3.48,3.48,0,0,0,.88.19l.44,0A8.1,8.1,0,0,1,20,26,9.18,9.18,0,0,0,17.66,25.62Zm1.13-20a32.35,32.35,0,0,0-3.37,1.1c-.25.1-.4.9-.27,1.25a1.27,1.27,0,0,0,1.16.32c1-.46,1.92-1.08,2.86-1.63C19.05,6.3,18.92,6,18.79,5.6ZM21,43.26h-.47l-.11,0-.13,0-.06,0-.08,0-.07,0-.07,0-.06,0,0,0h0l-.06,0-.06.05a2,2,0,0,0-.23.27,8.25,8.25,0,0,0,1.71-.6Zm.83-16.42a4.76,4.76,0,0,0,.51.32C22.21,27.05,22,26.94,21.86,26.84ZM25.39,39a8.55,8.55,0,0,1-1.19,1.62l.16.08.1.06a8.5,8.5,0,0,0,1.06-1.7,9.23,9.23,0,0,0,.75-2.24A9.22,9.22,0,0,1,25.39,39Zm2.68-14.3c-1.31-2.23-2.76-4.38-4-6.34.62-.46,2.34-1.09,2.71-2.17.93-2.74-1.49-5.21-4.35-4.86-.25,0-.56.19-.72.09s-.42-.24-.62-.38c.75-1,1.69-1.92,2.46-2.86l-.44.14a9.55,9.55,0,0,0-1.67.74l0,0a14,14,0,0,0-1,1.27h0a7.31,7.31,0,0,0-.46.76,7.49,7.49,0,0,0-.58,1.3h0a9.24,9.24,0,0,0,2.56,9.9,8.72,8.72,0,0,1-2-9.15c.45.36,1.13.46,2.24.07,2.32-.81,2.54.81,2.64,2.62-.69.19-1.3.37-1.93.53a2.12,2.12,0,0,0-1,3.7c1.36,1.44,2.73,2.87,4.19,4.4h0a9.1,9.1,0,0,0,2.06.27A.07.07,0,0,0,28.07,24.69ZM31.26,39c-.07-.15-.15-.31-.25-.48a9.77,9.77,0,0,1-.91-2.2,9.53,9.53,0,0,0,1,2.73l.05.07a5.67,5.67,0,0,1,.34.72A3.08,3.08,0,0,0,31.26,39Zm4.33-18.24a8.31,8.31,0,0,1-1.21,1.6A8.59,8.59,0,0,0,36,20.31a6.1,6.1,0,0,1,.44-.65A4.09,4.09,0,0,0,35.59,20.77ZM37.05,6.43l4.28,2.34C41.65,6.27,40.21,5.4,37.05,6.43Zm6.31,19.94h0a10.59,10.59,0,0,0-1.7-.57,10.46,10.46,0,0,0-2.61-.34,8.69,8.69,0,0,0-2.8.45,8.22,8.22,0,0,1,2.86-.26,10.58,10.58,0,0,1,1.79.29,10.12,10.12,0,0,1,1.76.61h0A8.32,8.32,0,0,1,47.38,33c.09.49.2,1,.36,1.75a10.44,10.44,0,0,0,.38-3A8.45,8.45,0,0,0,43.36,26.37Zm6.45-11.18c-.11-.21-1,0-2.09,0l2.39,4,1-.43A33.86,33.86,0,0,0,49.81,15.19Zm0,0c-.11-.21-1,0-2.09,0l2.39,4,1-.43A33.86,33.86,0,0,0,49.81,15.19ZM37.05,6.43l4.28,2.34C41.65,6.27,40.21,5.4,37.05,6.43ZM35.59,20.77a8.31,8.31,0,0,1-1.21,1.6A8.59,8.59,0,0,0,36,20.31a6.1,6.1,0,0,1,.44-.65A4.09,4.09,0,0,0,35.59,20.77ZM21.86,26.84a4.76,4.76,0,0,0,.51.32C22.21,27.05,22,26.94,21.86,26.84ZM18.79,5.6a32.35,32.35,0,0,0-3.37,1.1c-.25.1-.4.9-.27,1.25a1.27,1.27,0,0,0,1.16.32c1-.46,1.92-1.08,2.86-1.63C19.05,6.3,18.92,6,18.79,5.6ZM6.73,19.1l2-3.69C6.34,15,5.73,15.92,6.73,19.1Zm0,0,2-3.69C6.34,15,5.73,15.92,6.73,19.1Zm10.93,6.52-.06.13.44,0A8.1,8.1,0,0,1,20,26,9.18,9.18,0,0,0,17.66,25.62Zm1.13-20a32.35,32.35,0,0,0-3.37,1.1c-.25.1-.4.9-.27,1.25a1.27,1.27,0,0,0,1.16.32c1-.46,1.92-1.08,2.86-1.63C19.05,6.3,18.92,6,18.79,5.6Zm3.07,21.24a4.76,4.76,0,0,0,.51.32C22.21,27.05,22,26.94,21.86,26.84ZM25.39,39a.38.38,0,0,1,.13.06,9.23,9.23,0,0,0,.75-2.24A9.22,9.22,0,0,1,25.39,39Zm2.68-14.3c-1.31-2.23-2.76-4.38-4-6.34.62-.46,2.34-1.09,2.71-2.17.93-2.74-1.49-5.21-4.35-4.86-.25,0-.56.19-.72.09s-.42-.24-.62-.38c.75-1,1.69-1.92,2.46-2.86l-.44.14a9.55,9.55,0,0,0-1.67.74l0,0a14,14,0,0,0-1,1.27h0a7.31,7.31,0,0,0-.46.76,7.49,7.49,0,0,0-.58,1.3h0a9.24,9.24,0,0,0,2.56,9.9,8.72,8.72,0,0,1-2-9.15c.45.36,1.13.46,2.24.07,2.32-.81,2.54.81,2.64,2.62-.69.19-1.3.37-1.93.53a2.12,2.12,0,0,0-1,3.7c1.36,1.44,2.73,2.87,4.19,4.4h0a9.1,9.1,0,0,0,2.06.27A.07.07,0,0,0,28.07,24.69ZM31,38.53a9.77,9.77,0,0,1-.91-2.2,9.53,9.53,0,0,0,1,2.73l.13-.05C31.19,38.86,31.11,38.7,31,38.53ZM41.66,25.8a10.46,10.46,0,0,0-2.61-.34,8.69,8.69,0,0,0-2.8.45,8.22,8.22,0,0,1,2.86-.26,10.58,10.58,0,0,1,1.79.29,10.12,10.12,0,0,1,1.76.61h0l.36-.08.17,0,.17-.05A10.59,10.59,0,0,0,41.66,25.8Zm-19.8,1a4.76,4.76,0,0,0,.51.32C22.21,27.05,22,26.94,21.86,26.84ZM18.79,5.6a32.35,32.35,0,0,0-3.37,1.1c-.25.1-.4.9-.27,1.25a1.27,1.27,0,0,0,1.16.32c1-.46,1.92-1.08,2.86-1.63C19.05,6.3,18.92,6,18.79,5.6ZM6.73,19.1l2-3.69C6.34,15,5.73,15.92,6.73,19.1Zm10.93,6.52-.06.13.44,0A8.1,8.1,0,0,1,20,26,9.18,9.18,0,0,0,17.66,25.62Zm2.22-12.47a2,2,0,0,1-.55-.75,9.24,9.24,0,0,0,2.56,9.9A8.72,8.72,0,0,1,19.88,13.15Zm2,13.69a4.76,4.76,0,0,0,.51.32C22.21,27.05,22,26.94,21.86,26.84ZM25.39,39a.38.38,0,0,1,.13.06,9.23,9.23,0,0,0,.75-2.24A9.22,9.22,0,0,1,25.39,39ZM31,38.53a9.77,9.77,0,0,1-.91-2.2,9.53,9.53,0,0,0,1,2.73l.13-.05C31.19,38.86,31.11,38.7,31,38.53ZM41.66,25.8a10.46,10.46,0,0,0-2.61-.34,8.69,8.69,0,0,0-2.8.45,8.22,8.22,0,0,1,2.86-.26,10.58,10.58,0,0,1,1.79.29,10.12,10.12,0,0,1,1.76.61h0l.36-.08.17,0,.17-.05A10.59,10.59,0,0,0,41.66,25.8Zm-19.8,1a4.76,4.76,0,0,0,.51.32C22.21,27.05,22,26.94,21.86,26.84Z"/></g></g></svg>