<svg xmlns="http://www.w3.org/2000/svg" viewBox="0 0 191.67 41.84"><defs><style>.cls-1{fill:#f0b537;}.cls-2{fill:none;stroke:#fb932e;stroke-miterlimit:10;}</style></defs><title>bootAsset 200</title><g id="Layer_2" data-name="Layer 2"><g id="Layer_11" data-name="Layer 11"><polygon class="cls-1" points="1.39 0 0 0 0 11.54 1.39 11.54 1.39 10.94 4.18 10.94 4.18 10.14 2.98 10.14 2.98 9.74 1.39 9.74 1.39 8.75 2.98 8.75 2.98 7.96 1.39 7.96 1.39 6.96 2.98 6.96 2.98 6.17 1.39 6.17 1.39 5.17 2.98 5.17 2.98 4.38 1.39 4.38 1.39 3.38 2.98 3.38 2.98 2.59 1.39 2.59 1.39 1.59 3.18 1.59 3.18 0.8 1.39 0.8 1.39 0"/><polygon class="cls-1" points="180.13 17.58 180.13 16.19 191.67 16.19 191.67 17.58 191.07 17.58 191.07 20.36 190.27 20.36 190.27 19.17 189.88 19.17 189.88 17.58 188.88 17.58 188.88 19.17 188.09 19.17 188.09 17.58 187.09 17.58 187.09 19.17 186.3 19.17 186.3 17.58 185.3 17.58 185.3 19.17 184.51 19.17 184.51 17.58 183.51 17.58 183.51 19.17 182.72 19.17 182.72 17.58 181.72 17.58 181.72 19.37 180.93 19.37 180.93 17.58 180.13 17.58"/><path class="cls-2" d="M1.19,9.24H5l1.56,1.59h15L33.37,22.7v3.92l7.55,7.56c.59.6,1.19,1.19,1.79,1.79l1.78,1.79,3.58,3.58H180.92l1.79-1.79,1.71-1.71,3.66-3.66L191,31.29V21.92l-1.61-1.62V16.58"/><path class="cls-2" d="M1.19,7.45H5L6.57,9H22.48L35.16,21.72v4l8.41,8.44L45.35,36l1.79,1.79,1.78,1.79H180.18l2.91-2.91.67-.67.08-.08,1.71-1.71,1.3-1.3.54-.54.72-.72.78-.78.29-.29V21.89l-1.6-1.59V16.58"/><path class="cls-2" d="M1.19,5.66H5L6.56,7.25H23.42L37,21.06v4.07L46,34.18,47.82,36l1.79,1.79H179.44L183,34.18l.82-.82,3.55-3.55V21.9l-1.6-1.59V16.58"/><path class="cls-2" d="M1.68,3.87H5L6.55,5.46H24.28l14.46,14.8v4.15l9.8,9.77L50.33,36H178.7l1.79-1.79,3.35-3.35,1.75-1.75h0c0-.84,0-1.69,0-2.53V21.92L184,20.3V16.58"/><path class="cls-2" d="M182.21,16.58v3.73l1.63,1.61v6.37L178,34.18H51.33L40.61,23.42v-4L25.18,3.57H6.73L5.06,2.07H1.16"/></g></g></svg>