<svg xmlns="http://www.w3.org/2000/svg" viewBox="0 0 49.01 14.52"><defs><style>.cls-1{fill:#f0b537;}.cls-2{fill:none;stroke:#fb932e;stroke-miterlimit:10;}</style></defs><title>etcAsset 180</title><g id="Layer_2" data-name="Layer 2"><g id="Layer_11" data-name="Layer 11"><polygon class="cls-1" points="47.61 0 49.01 0 49.01 11.54 47.61 11.54 47.61 10.94 44.83 10.94 44.83 10.14 46.02 10.14 46.02 9.74 47.61 9.74 47.61 8.75 46.02 8.75 46.02 7.96 47.61 7.96 47.61 6.96 46.02 6.96 46.02 6.17 47.61 6.17 47.61 5.17 46.02 5.17 46.02 4.38 47.61 4.38 47.61 3.38 46.02 3.38 46.02 2.59 47.61 2.59 47.61 1.59 45.82 1.59 45.82 0.8 47.61 0.8 47.61 0"/><polygon class="cls-1" points="1.39 14.52 0 14.52 0 2.98 1.39 2.98 1.39 3.38 4.38 3.38 4.38 4.18 3.18 4.18 3.18 4.57 1.59 4.57 1.59 5.57 3.18 5.57 3.18 6.36 1.59 6.36 1.59 7.36 3.18 7.36 3.18 8.15 1.59 8.15 1.59 9.35 3.18 9.35 3.18 10.14 1.59 10.14 1.39 11.14 3.18 11.14 3.18 11.93 1.39 11.93 1.39 12.93 3.18 12.93 3.18 13.72 1.39 13.72 1.39 14.52"/><path class="cls-2" d="M48,2.09H44.24L42.66,3.66l-35.91,0L5.17,5.27H1.4"/><path class="cls-2" d="M48,3.88H44.24L42.66,5.45l-35.91,0L5.17,7.06H1.4"/><path class="cls-2" d="M48,5.67H44.24L42.66,7.24l-35.91,0L5.17,8.85H1.4"/><path class="cls-2" d="M48,7.46H44.24L42.66,9H6.75L5.17,10.64H1.4"/><path class="cls-2" d="M48,9.25H44.24l-1.58,1.57H6.75L5.17,12.43H1.4"/></g></g></svg>