<svg xmlns="http://www.w3.org/2000/svg" viewBox="0 0 184.63 53.31"><defs><style>.cls-1{isolation:isolate;}.cls-2{fill:#0e0e17;opacity:0.4;mix-blend-mode:multiply;}.cls-3{fill:none;stroke:#fb932e;stroke-miterlimit:10;}.cls-4{fill:#f0b537;}</style></defs><title>homeAsset 179</title><g class="cls-1"><g id="Layer_2" data-name="Layer 2"><g id="Layer_11" data-name="Layer 11"><path class="cls-2" d="M11.18,20.24l-.25-.4,0-2.08-.34-.49L4.42,23.18l.15,2.36.22.4Z"/><path class="cls-3" d="M7.66,15.21l2.61,2.62c0,.74,0,1.49,0,2.23L35.88,45.65h86Q133,34.54,144,23.43v-4q7.71-7.92,15.43-15.82h18.45l1.67-1.49h3.9"/><path class="cls-3" d="M6.25,16.62l2.63,2.6.3,2.53L34.87,47.44H122.8l23.08-23V20.27l14.46-14.8h17.73l1.56-1.59h3.31"/><path class="cls-3" d="M5,17.88,7.6,20.5v2.25Q20.85,36,34.08,49.23h89.44l24.15-24.09V21.07L161.2,7.26h16.86l1.57-1.59h3.8"/><path class="cls-3" d="M3.72,19.15l2.64,2.6V24l27,27h90.89l25.18-25.27v-4L162.14,9.05h15.91l1.56-1.59h3.82"/><path class="cls-3" d="M2.46,20.41,5.07,23v2.25L32.6,52.81h92.51l26.14-26.18V22.71L163,10.84h15l1.56-1.59h3.82"/><polygon class="cls-4" points="9.14 14.01 8.16 13.03 0 21.19 0.98 22.17 1.27 21.89 3.38 24 3.94 23.44 3.09 22.59 3.52 22.17 2.39 21.05 3.09 20.34 4.22 21.47 4.78 20.9 3.66 19.78 4.36 19.08 5.49 20.2 6.05 19.64 4.92 18.51 5.63 17.81 6.75 18.93 7.31 18.37 6.19 17.25 6.75 16.4 8.02 17.67 8.58 17.11 7.31 15.84 8.02 15.14 9.28 16.4 9.84 15.84 8.58 14.58 9.14 14.01"/><polygon class="cls-4" points="183.23 0 184.63 0 184.63 11.54 183.23 11.54 183.23 10.94 180.45 10.94 180.45 10.14 181.64 10.14 181.64 9.74 183.23 9.74 183.23 8.75 181.64 8.75 181.64 7.96 183.23 7.96 183.23 6.96 181.64 6.96 181.64 6.17 183.23 6.17 183.23 5.17 181.64 5.17 181.64 4.38 183.23 4.38 183.23 3.38 181.64 3.38 181.64 2.59 183.23 2.59 183.23 1.59 181.44 1.59 181.44 0.8 183.23 0.8 183.23 0"/></g></g></g></svg>