<svg xmlns="http://www.w3.org/2000/svg" viewBox="0 0 315.68 69.8"><defs><style>.cls-1{fill:#f0b537;}.cls-2{fill:none;stroke:#fb932e;stroke-miterlimit:10;}</style></defs><title>l-attAsset 127</title><g id="Layer_2" data-name="Layer 2"><g id="Layer_11" data-name="Layer 11"><path class="cls-1" d="M304.63,19.59H307l8.67,9.25c0,.71,0,1.42,0,2.13l-1.74-1.8-2,2-.56-.58.88-.85-.34-.36L313,28.24l-.63-.57-1.08,1-.67-.64L311.82,27l-.55-.61-1.17,1.09-.68-.67,1.08-1.12-.6-.66-1.06,1.17-.68-.7,1.16-1.11-.63-.63-1.09,1.16-.7-.71,1.17-1.12-.52-.54-1.25,1.14-.67-.7,1.22-1.18Z"/><polygon class="cls-1" points="1.39 11.54 0 11.54 0 0 1.39 0 1.39 0.6 4.18 0.6 4.18 1.39 2.98 1.39 2.98 1.79 1.39 1.79 1.39 2.78 2.98 2.78 2.98 3.58 1.39 3.58 1.39 4.57 2.98 4.57 2.98 5.37 1.39 5.37 1.39 6.56 2.98 6.56 2.98 7.36 1.39 7.36 1.39 8.35 2.98 8.35 2.98 9.15 1.39 9.15 1.39 10.14 3.18 10.14 3.18 10.94 1.39 10.94 1.39 11.54"/><path class="cls-2" d="M307.86,22.77l-2.7,2.7v2.2L270.72,62.14h-193L16.53.88H6.79L5.2,2.47H1.44"/><path class="cls-2" d="M309.05,24l-2.7,2.69V29l-34.87,35H77L15.81,2.7H6.73L5.16,4.26H1.44"/><path class="cls-2" d="M310.25,25.3l-2.7,2.7v2.2L272.12,65.72h-196L14.89,4.46H6.64L5.05,6.05H1.24"/><path class="cls-2" d="M311.64,26.56l-2.7,2.7v2.2L273,67.51H75.46L14.2,6.25H6.77L5.18,7.84H1.44"/><path class="cls-2" d="M312.83,27.83l-2.7,2.69v2.22L273.73,69.3h-199L13.47,8.06H6.69L5.12,9.63H1.24"/></g></g></svg>