<svg xmlns="http://www.w3.org/2000/svg" viewBox="0 0 157.29 113.41"><defs><style>.cls-1{fill:none;stroke:#fb932e;stroke-miterlimit:10;}.cls-2{fill:#f0b537;}</style></defs><title>logAsset 208</title><g id="Layer_2" data-name="Layer 2"><g id="Layer_11" data-name="Layer 11"><path class="cls-1" d="M156.09,7.46h-3.87l-1.56,1.39L131,9.05,118.6,21.4V54.56L87.94,85.22H18.8L9,94.87v0C9,96,9,97,9,98.1l.1,4.18c0,1.28,0,2.55,0,3.83L7.59,107.7v3.86"/><path class="cls-1" d="M156.09,5.67h-3.87l-1.56,1.39-20.45.2-13.4,13.4V53.82L87.21,83.43H18.06L7.39,94.12v12L5.8,107.7v3.86"/><path class="cls-1" d="M156.09,3.88h-3.87l-1.56,1.39-21.18.2L115,19.92V53.09Q100.76,67.37,86.47,81.64H17.32L5.4,93.38v.06l.06,4.66.09,4.18c0,1.28,0,2.55,0,3.83L4,107.7v3.86"/><path class="cls-1" d="M156.09,2.09h-3.87l-1.56,1.39-21.92.2-15.51,15.5V52.35L85.74,79.85H16.57l-13,12.79v.08c0,1.79.05,3.59.07,5.38l.08,4.18c0,1.28,0,2.55.05,3.83L2.22,107.7v3.86"/><path class="cls-1" d="M156.09,9.25h-3.87l-1.56,1.39-19,.2-11.3,11.29V55.3L88.68,87H19.55l0,0-8.76,8.58c0,.83,0,1.66,0,2.49l.1,4.18.06,3.83L9.38,107.7v3.86"/><path class="cls-2" d="M.13,111.36l-.13,2,11.68,0,0-2h-.59v-2.78h-.8v1.19h-.4v1.59h-1v-1.59h-.8v1.59h-1v-1.59h-.8v1.59h-1v-1.59H4.5v1.59H3.31v-1.59H2.52v1.59h-.8v-1.79H.92v1.79Z"/><polygon class="cls-2" points="155.9 0 157.29 0 157.29 11.54 155.9 11.54 155.9 10.94 153.11 10.94 153.11 10.14 154.31 10.14 154.31 9.74 155.9 9.74 155.9 8.75 154.31 8.75 154.31 7.96 155.9 7.96 155.9 6.96 154.31 6.96 154.31 6.17 155.9 6.17 155.9 5.17 154.31 5.17 154.31 4.38 155.9 4.38 155.9 3.38 154.31 3.38 154.31 2.59 155.9 2.59 155.9 1.59 154.11 1.59 154.11 0.8 155.9 0.8 155.9 0"/></g></g></svg>