<svg xmlns="http://www.w3.org/2000/svg" viewBox="0 0 376.81 87.06"><defs><style>.cls-1{fill:#f0b537;}.cls-2{fill:none;stroke:#fb932e;stroke-miterlimit:10;}</style></defs><title>mediaAsset 183</title><g id="Layer_2" data-name="Layer 2"><g id="Layer_11" data-name="Layer 11"><polygon class="cls-1" points="0 1.39 0 0 11.54 0 11.54 1.39 10.94 1.39 10.94 4.38 10.14 4.38 10.14 3.18 9.74 3.18 9.74 1.59 8.75 1.59 8.75 3.18 7.96 3.18 7.96 1.59 6.96 1.59 6.96 3.18 6.17 3.18 6.17 1.59 5.17 1.59 5.17 3.18 4.38 3.18 4.38 1.59 3.38 1.39 3.38 3.18 2.59 3.18 2.59 1.39 1.59 1.39 1.59 3.18 0.8 3.18 0.8 1.39 0 1.39"/><polygon class="cls-1" points="375.42 75.52 376.81 75.52 376.81 87.06 375.42 87.06 375.42 86.46 372.63 86.46 372.63 85.67 373.82 85.67 373.82 85.27 375.42 85.27 375.42 84.27 373.82 84.27 373.82 83.48 375.42 83.48 375.42 82.48 373.82 82.48 373.82 81.69 375.42 81.69 375.42 80.69 373.82 80.69 373.82 79.9 375.42 79.9 375.42 78.9 373.82 78.9 373.82 78.11 375.42 78.11 375.42 77.11 373.63 77.11 373.63 76.32 375.42 76.32 375.42 75.52"/><path class="cls-2" d="M372.89,84.77h-.62l-.95,1-.64.64h-6.32l-1.79-1.79-1.79-1.79-1.86-1.86L357,79,305.69,27.69h-20.6"/><path class="cls-2" d="M376,84.77h-3.06"/><path class="cls-2" d="M2.09,1.39V5.24L3.48,6.81V14q6.9,6.86,13.78,13.73H285.09"/><path class="cls-2" d="M3.88,1.39V5.24L5.27,6.81v6.4L18,25.9H283.3"/><path class="cls-2" d="M375.61,82.79h-2.85l-1.48,1.27-.6.51H365.1l-3.66-3.66L359.52,79l-51.29-51.3-1.79-1.79H283.3"/><path class="cls-2" d="M376,81.19h-3.69l-1.47,1.48-.12.11h-4.83L362.05,79l-51.3-51.3L309,25.9l-1.79-1.79h0L309,25.9l1.79,1.79"/><path class="cls-2" d="M5.67,1.39V5.24L7.06,6.81v5.66L18.75,24.11h265.3"/><path class="cls-2" d="M376,79.2h-3.89s-1,1.15-1.57,1.67h-4l-1.9-1.9-51.3-51.3L311.5,25.9l-3.58-3.58H19.54L8.85,11.72V6.81L7.46,5.24V1.39"/><path class="cls-2" d="M376,77.62h-4.14L370.47,79h-3.36L314,25.9l-1.79-1.79-1.79-1.79-1.82-1.82H285.53"/><path class="cls-2" d="M9.25,1.39V5.24l1.59,1.57V11l9.43,9.52h238.5"/></g></g></svg>