<svg xmlns="http://www.w3.org/2000/svg" viewBox="0 0 37.88 60.17"><defs><style>.cls-1{isolation:isolate;}.cls-2{fill:#0e0e17;opacity:0.4;mix-blend-mode:multiply;}.cls-3{fill:none;stroke:#fb932e;stroke-miterlimit:10;}.cls-4{fill:#f0b537;}</style></defs><title>optAsset 196</title><g class="cls-1"><g id="Layer_2" data-name="Layer 2"><g id="Layer_11" data-name="Layer 11"><path class="cls-2" d="M7.16,10.84H4.86l-.19-.16L10.3,4.84l2.31,0,.18.2Z"/><path class="cls-3" d="M2.37,7.66l2.74,2.7H7.36L27,29.72V53.27l1.59,1.57c0,1.4,0,2.8,0,4.21"/><path class="cls-3" d="M3.62,6.46l2.74,2.7H8.61L28.83,28.77V53.35l1.59,1.56v3.86"/><path class="cls-3" d="M4.87,5.27,7.62,8H9.87l20.75,19.8V53.43L32.21,55v3.78"/><path class="cls-3" d="M6.13,3.88l2.74,2.7h2.25L32.41,26.74V53.31L34,54.87v3.9"/><path class="cls-3" d="M7.38,2.68l2.75,2.7h2.25L34.2,26V53.38L35.79,55v3.82"/><polygon class="cls-4" points="37.88 58.77 37.88 60.16 26.35 60.16 26.35 58.77 26.94 58.77 26.94 55.99 27.74 55.99 27.74 57.18 28.14 57.18 28.14 58.77 29.13 58.77 29.13 57.18 29.93 57.18 29.93 58.77 30.92 58.77 30.92 57.18 31.72 57.18 31.72 58.77 32.71 58.77 32.71 57.18 33.51 57.18 33.51 58.77 34.5 58.77 34.5 57.18 35.3 57.18 35.3 58.77 36.29 58.77 36.29 56.98 37.09 56.98 37.09 58.77 37.88 58.77"/><path class="cls-4" d="M1.36,9.62,0,8.47,7.82,0,8.94,1l-.32.36,2.13,1.87-.53.61L9.29,3,9,3.38,7.76,2.32,7.13,3,8.34,4.1l-.54.61L6.6,3.65,6,4.39l1.2,1.06-.53.61L5.41,5l-.66.75L6,6.81l-.54.61L4.22,6.36l-.66.75L4.78,8.18l-.53.61L3,7.71l-.64.72L3.67,9.55l-.54.61L1.86,9Z"/></g></g></g></svg>