<svg xmlns="http://www.w3.org/2000/svg" viewBox="0 0 231.86 131.89"><defs><style>.cls-1{fill:none;stroke:#fb932e;stroke-miterlimit:10;}.cls-2{fill:#f0b537;}</style></defs><title>spoolAsset 209</title><g id="Layer_2" data-name="Layer 2"><g id="Layer_11" data-name="Layer 11"><path class="cls-1" d="M230.47,9.25h-3.81l-1.6,1.59H211.42q-3.64,3.75-7.31,7.49v34.3L191.58,65.14H66.33L46.6,84.82v26.49l-9.93,9.88-5.41,5.38-1.8,1.79H12l-2,0-3.16,0L5.25,129.8H1.39"/><path class="cls-1" d="M230.47,7.46h-3.81L225.1,9H210.72l-8.37,8.52,0,34.3-11.48,11.5H65.59L44.8,84.12v26.44L34.13,121.19,32.31,123l-1.79,1.78-1.8,1.79H12l-2,0-3.16,0L5.25,128H1.39"/><path class="cls-1" d="M230.47,5.67h-3.8L225.1,7.24H210q-4.71,4.77-9.4,9.55,0,17.16,0,34.32L190.1,61.56H64.85L43,83.42v26.4L31.58,121.19,29.76,123,28,124.78H12l-2,0-3.16,0-1.56,1.39H1.39"/><path class="cls-1" d="M1.39,124.43H5.25L6.81,123,10,123H27.12L29,121.19l12.28-12.12V82.68L64.11,59.77H189.36q4.69-4.69,9.38-9.4V16L209.21,5.27h15.87l1.56-1.39h3.83"/><path class="cls-1" d="M1.39,122.64H5.25l1.56-1.39c1.05,0,2.11,0,3.16,0H26.49l13-12.87V82L63.38,58H188.63L197,49.64V15.21L208.47,3.48h16.61l1.56-1.39h3.83"/><polygon class="cls-2" points="1.39 131.89 0 131.89 0 120.36 1.39 120.36 1.39 120.96 4.38 120.96 4.38 121.75 3.18 121.75 3.18 122.15 1.59 122.15 1.59 123.14 3.18 123.14 3.18 123.94 1.59 123.94 1.59 124.93 3.18 124.93 3.18 125.73 1.59 125.73 1.59 126.72 3.18 126.72 3.18 127.52 1.59 127.52 1.39 128.51 3.18 128.51 3.18 129.31 1.39 129.31 1.39 130.3 3.18 130.3 3.18 131.1 1.39 131.1 1.39 131.89"/><path class="cls-2" d="M230.47,0h1.39V11.54h-1.39v-.6h-3v-.8h1.2V9.75h1.59v-1h-1.59V8h1.59V7h-1.59V6.17h1.59v-1h-1.59V4.38h1.59l0-1h-1.62V2.59h1.79v-1h-1.79V.8h1.79Z"/></g></g></svg>