<svg xmlns="http://www.w3.org/2000/svg" viewBox="0 0 226.11 127.44"><defs><style>.cls-1{fill:#f0b537;}.cls-2{fill:none;stroke:#fb932e;stroke-miterlimit:10;}</style></defs><title>tmpAsset 202</title><g id="Layer_2" data-name="Layer 2"><g id="Layer_11" data-name="Layer 11"><polygon class="cls-1" points="224.51 0 226.11 0 226.11 11.54 224.51 11.54 224.51 11.14 221.73 11.14 221.73 10.34 222.92 10.34 222.92 9.74 224.51 9.74 224.51 8.75 222.92 8.75 222.92 7.96 224.51 7.96 224.51 6.96 222.92 6.96 222.92 6.17 224.51 6.17 224.51 5.17 222.92 5.17 222.92 4.38 224.51 4.38 224.51 3.38 222.92 3.38 222.92 2.59 224.51 2.59 224.51 1.59 222.92 1.59 222.92 0.8 224.51 0.8 224.51 0"/><path class="cls-2" d="M224.71,9.25h-3.87L219.27,11H197.55l-7.5,7.34V33.49q-6.28,6.28-12.56,12.56H80.26L35.32,90.94v24.63l-8.25,8.24H6.92l-1.56,1.57H1.83"/><path class="cls-2" d="M224.71,7.46h-3.86l-1.59,1.59H196.83q-4.28,4.38-8.57,8.75v15L176.75,44.26H79.53l-46,45.85v24.68l-7.13,7L6.93,122l-1.59,1.59H1.61"/><path class="cls-2" d="M1.63,121.82H5.38L7,120.27l18.63,0,6.15-6.14V89.46l47.05-47H176L186.47,32V16.9l9.59-9.44h23.21l1.57-1.79h3.87"/><path class="cls-2" d="M224.71,3.88h-3.86l-1.59,1.59H195.31L184.68,16.15v15l-9.44,9.31H78.07L30,88.65v24.76l-5,5H7L5.56,120H1.78"/><path class="cls-2" d="M224.71,2.09h-3.86l-1.59,1.59H194.57L182.89,15.41v15l-8.39,8.26H77.33L28.16,87.91v24.6l-4.1,4.1-17.52,0L5,118.24H1.07"/><path class="cls-1" d="M1.67,127.41l-1.67,0c0-3.83,0-7.66,0-11.49l1.66,0v.49H4.5v.81H3.27v.57H1.68l0,.86,1.61,0v1l-1.41-.08,0,.92H3.27v.94H1.67v.87h1.6l0,.9H1.66v.91H3.29v.9l-1.43,0,.06.87,1.43,0v.81H1.67Z"/></g></g></svg>