<svg xmlns="http://www.w3.org/2000/svg" viewBox="0 0 614.46 158.47"><defs><style>.cls-1{fill:none;stroke:#fb932e;stroke-miterlimit:10;}.cls-2{fill:#f0b537;}</style></defs><title>user-thunarAsset 218</title><g id="Layer_2" data-name="Layer 2"><g id="Layer_11" data-name="Layer 11"><path class="cls-1" d="M606.92,158.47v-3.73l-1.57-1.58V112.74l-2.28-2.28-1.79-1.79-1.79-1.79-1.79-1.79V51.89L595.9,50.1l-9.57-9.57-1.79-1.79L582.75,37,581,35.16v-8.8l-1.79-1.79-2-2-1.79-1.79h-141L419.47,5.87H73.09L71.3,7.66,26.23,52.72l-1.79,1.8-1.79,1.79-1.8,1.79H6.74L5.16,59.69H1.39"/><polygon class="cls-2" points="4.37 52.43 4.37 53.23 3.18 53.23 3.18 53.63 1.59 53.63 1.59 54.62 3.18 54.62 3.18 55.42 1.59 55.42 1.59 56.41 3.18 56.41 3.18 57.21 1.59 57.21 1.59 58.4 3.18 58.4 3.18 59.19 1.59 59.19 1.49 59.69 1.39 60.19 3.18 60.19 3.18 60.98 1.39 60.98 1.39 61.98 3.18 61.98 3.18 62.77 1.39 62.77 1.39 63.57 0 63.57 0 52.03 1.39 52.03 1.39 52.43 4.37 52.43"/><polygon class="cls-2" points="614.46 157.07 614.46 158.47 602.93 158.47 602.93 157.07 603.52 157.07 603.52 154.29 604.32 154.29 604.32 155.48 604.72 155.48 604.72 157.07 605.71 157.07 605.71 155.48 606.51 155.48 606.51 157.07 607.5 157.07 607.5 155.48 608.3 155.48 608.3 157.07 609.29 157.07 609.29 155.48 610.09 155.48 610.09 157.07 611.08 157.07 611.08 155.48 611.88 155.48 611.88 157.07 612.87 157.07 612.87 155.28 613.67 155.28 613.67 157.07 614.46 157.07"/><path class="cls-1" d="M612.29,158.47v-3.73l-1.57-1.58V110.51l-1.79-1.79-1.79-1.79-1.79-1.79h0l-2.27-2.27V49.66l-1.79-1.79L586.33,32.93v-8.8L583,20.76l-.21-.21L581.17,19l-1.79-1.79-1.79-1.79h-141l-7.73-7.73-1.79-1.79-1.79-1.79-1.79-1.79L421.7.5H70.86L69.07,2.29,67.28,4.08,65.49,5.87,63.7,7.66,18.64,52.73H6.74L5.16,54.32H1.39"/><path class="cls-1" d="M610.5,158.47v-3.73l-1.57-1.58V111.25l-1.79-1.79-1.79-1.79-1.79-1.79-.49-.49-1.79-1.79V50.4l-1.79-1.79L586.33,35.47l-1.79-1.79v-8.8l-1.79-1.79-.54-.54L581,21.3l-.54-.54-1.25-1.25-2.33-2.33h-141L421,2.29H71.61L69.82,4.08,68,5.87,66.24,7.66,21.16,52.73l-1.79,1.79H6.74L5.16,56.11H1.39"/><path class="cls-1" d="M608.71,158.47v-3.73l-1.57-1.58V112l-1.79-1.79-5.86-5.86V51.15l-1.79-1.79-1.79-1.79L582.75,34.42V25.61L576.11,19h-141l-1.79-1.79-1.79-1.79L423.8,7.66,422,5.87l-1.79-1.79H72.35L68.77,7.66,23.7,52.73l-1.79,1.79-1.79,1.79H6.74L5.16,57.9H1.39"/><path class="cls-1" d="M605.13,158.47v-3.73l-1.57-1.58V113.47l-7.65-7.65V52.63L579.17,35.9V27.1l-4.54-4.55h-141L430,19l-1.79-1.79-1.79-1.79-7.72-7.73H73.83L28.77,52.72,27,54.51,25.19,56.3l-1.8,1.8L21.6,59.89H6.74L5.16,61.48H1.39"/></g></g></svg>