<svg xmlns="http://www.w3.org/2000/svg" viewBox="0 0 32.28 107.83"><defs><style>.cls-1{fill:#f0b537;}.cls-2{fill:none;stroke:#fb932e;stroke-miterlimit:10;}</style></defs><title>user-sudoAsset 217</title><g id="Layer_2" data-name="Layer 2"><g id="Layer_11" data-name="Layer 11"><polygon class="cls-1" points="20.75 1.39 20.75 0 32.28 0 32.28 1.39 31.68 1.39 31.68 4.38 30.89 4.38 30.89 3.18 30.49 3.18 30.49 1.59 29.5 1.59 29.5 3.18 28.7 3.18 28.7 1.59 27.71 1.59 27.71 3.18 26.91 3.18 26.91 1.59 25.92 1.59 25.92 3.18 25.12 3.18 25.12 1.59 24.13 1.39 24.13 3.18 23.33 3.18 23.33 1.39 22.34 1.39 22.34 3.18 21.54 3.18 21.54 1.39 20.75 1.39"/><polygon class="cls-1" points="1.39 107.83 0 107.83 0 96.29 1.39 96.29 1.39 96.69 4.38 96.69 4.38 97.48 3.18 97.48 3.18 97.88 1.59 97.88 1.59 98.88 3.18 98.88 3.18 99.67 1.59 99.67 1.59 100.67 3.18 100.67 3.18 101.46 1.59 101.46 1.59 102.66 3.18 102.66 3.18 103.45 1.59 103.45 1.39 104.45 3.18 104.45 3.18 105.24 1.39 105.24 1.39 106.24 3.18 106.24 3.18 107.03 1.39 107.03 1.39 107.83"/><path class="cls-2" d="M1.39,98.58H5.16l1-1L6.74,97h9.63l7.86-7.86V6.8L22.84,5.23V1.39"/><path class="cls-2" d="M1.39,100.37H5.16l1-1,.58-.58H17.11L18.9,97l5.33-5.33h0L26,89.87V87.34h0V6.8L24.63,5.23V1.39"/><path class="cls-2" d="M1.39,102.16H5.16l1-1,.53-.53H17.85l1.79-1.79,4.59-4.59L26,92.4l1.79-1.79V85.55h0V6.8L26.42,5.23V1.39"/><path class="cls-2" d="M1.39,104H5.16l1.1-1.1.48-.48H18.59l3.58-3.58,2.06-2.06,5.37-5.37V83.76h0V6.8L28.21,5.23V1.39"/><path class="cls-2" d="M30,1.39V5.23L31.39,6.8V92.09L29.6,93.88l-1.79,1.79L26.5,97l-.48.48-1.31,1.31-.48.48-3.11,3.11-1.79,1.79H6.74l-.43.43-.23.24-.1.09-.82.82H1.39"/></g></g></svg>