<svg xmlns="http://www.w3.org/2000/svg" viewBox="0 0 35.53 61.31"><defs><style>.cls-1{fill:#f0b537;}.cls-2{fill:none;stroke:#fb932e;stroke-miterlimit:10;}</style></defs><title>user-codeAsset 219</title><g id="Layer_2" data-name="Layer 2"><g id="Layer_11" data-name="Layer 11"><polygon class="cls-1" points="4.38 0.39 4.38 1.19 3.18 1.19 3.18 1.59 1.59 1.59 1.59 2.58 3.18 2.58 3.18 3.38 1.59 3.38 1.59 4.37 3.18 4.37 3.18 5.17 1.59 5.17 1.59 6.36 3.18 6.36 3.18 7.16 1.59 7.16 1.49 7.65 1.39 8.15 3.18 8.15 3.18 8.95 1.39 8.95 1.39 9.94 3.18 9.94 3.18 10.74 1.39 10.74 1.39 11.53 0 11.53 0 0 1.39 0 1.39 0.39 4.38 0.39"/><polygon class="cls-1" points="35.53 59.91 35.53 61.3 24 61.3 24 59.91 24.59 59.91 24.59 57.13 25.39 57.13 25.39 58.32 25.79 58.32 25.79 59.91 26.78 59.91 26.78 58.32 27.58 58.32 27.58 59.91 28.57 59.91 28.57 58.32 29.37 58.32 29.37 59.91 30.36 59.91 30.36 58.32 31.16 58.32 31.16 59.91 32.15 59.91 32.15 58.32 32.95 58.32 32.95 59.91 33.94 59.91 33.94 58.12 34.74 58.12 34.74 59.91 35.53 59.91"/><path class="cls-2" d="M33.36,61.31V57.58L31.79,56c0-3.29,0-6.58,0-9.87v-5.3c0-5.53,0-11.08,0-16.62V21.69c0-.84,0-1.69,0-2.53V14.1L30,12.31,25.52,7.84,23.74,6.06,22,4.27,20.16,2.48,18.37.69H6.74L5.16,2.28H1.39"/><path class="cls-2" d="M31.57,61.31V57.58L30,56c0-3.29,0-6.58,0-9.87v-5.3c0-6.12,0-12.27,0-18.41V19.9c0-.84,0-1.69,0-2.53s0-1.69,0-2.54L28.2,13.05,23,7.85,17.64,2.48H6.74L5.16,4.07H1.39"/><path class="cls-2" d="M29.78,61.31V57.58L28.21,56c0-3.29,0-6.58,0-9.87v-5.3c0-6.71,0-13.46,0-20.2,0-.84,0-1.67,0-2.51V15.58l-1.8-1.8L24.61,12,20.47,7.85,18.68,6.06,16.89,4.27H6.74L5.16,5.86H1.39"/><path class="cls-2" d="M28,61.31V57.58L26.42,56q0-4.94,0-9.87V16.32l-1.79-1.79L17.93,7.85,16.14,6.06H6.74L5.16,7.65H1.39"/><path class="cls-2" d="M26.2,61.31V57.58L24.63,56q0-4.94,0-9.87V17.05L15.42,7.86H6.74L5.16,9.44H1.39"/></g></g></svg>