<svg xmlns="http://www.w3.org/2000/svg" viewBox="0 0 292 141.4"><defs><style>.cls-1{fill:#f0b537;}.cls-2{fill:none;stroke:#fb932e;stroke-miterlimit:10;}</style></defs><title>user-rangerAsset 221</title><g id="Layer_2" data-name="Layer 2"><g id="Layer_11" data-name="Layer 11"><polygon class="cls-1" points="290.61 132.65 289.02 132.65 289.02 133.45 290.61 133.45 290.61 134.44 289.02 134.44 289.02 135.24 290.61 135.24 290.61 136.23 289.02 136.23 289.02 137.03 290.61 137.03 290.61 139.81 288.82 139.81 288.82 140.61 290.61 140.61 290.61 141.4 292 141.4 292 129.87 290.61 129.87 290.61 130.46 287.82 130.46 287.82 131.26 289.02 131.26 289.02 131.66 290.61 131.66 290.61 132.65"/><polygon class="cls-1" points="4.38 0.4 4.38 1.2 3.18 1.2 3.18 1.59 1.59 1.59 1.59 2.59 3.18 2.59 3.18 3.38 1.59 3.38 1.59 4.38 3.18 4.38 3.18 5.17 1.59 5.17 1.59 6.37 3.18 6.37 3.18 7.16 1.59 7.16 1.49 7.66 1.39 8.16 3.18 8.16 3.18 8.95 1.39 8.95 1.39 9.95 3.18 9.95 3.18 10.74 1.39 10.74 1.39 11.54 0 11.54 0 0 1.39 0 1.39 0.4 4.38 0.4"/><path class="cls-2" d="M291,139l-3.57,0-1.57-1.61-7,0-6.9-6.75V120.52h0V95.91L232.44,56.47H74.94l-1.79-1.79-1.79-1.79L69.57,51.1l-1.79-1.79L26.32,7.85H6.75L5.17,9.45H1.4"/><path class="cls-2" d="M1.57,7.85l3.61-.08L7,6l20,0L75.69,54.67l157.47,0,40.56,40.5q0,13.59-.05,27.18v7.6l.58.58,1.21,1.21.58.58,1.21,1.21.58.58,1.21,1.21.59.59h7.06l1.58,1.57h2.34"/><path class="cls-2" d="M292,135.65h-3.73l-1.58-1.57h-3.78c-.84,0-1.69,0-2.54,0L279,132.74l-2.25-2.25-1.33-1.33V124.1h0V94.43l-1.79-1.79-1.79-1.79L237.5,56.47l-1.79-1.79-1.79-1.79H76.42L74.63,51.1l-45-45L27.8,4.27H22.75q-8,0-16,0L5.17,5.87H1.59"/><path class="cls-2" d="M292,133.86h-3.73l-1.58-1.57h-5.57L279,130.21l-1.79-1.79v-2.53h0V93.68l-5.37-5.37L240,56.47l-1.79-1.79-3.58-3.58H77.17l-1.79-1.79L33.91,7.84,32.13,6.06,28.55,2.48H6.75L5.17,4.08H1.59"/><path class="cls-2" d="M1.16,2.18l3.36.06L6.29.79H29.47L77.93,49.33l157.52-.11L241,54.75q19,19,37.94,37.94v35.07l2.9,2.9h5.39l1.4,1.41h2.82"/></g></g></svg>