<svg xmlns="http://www.w3.org/2000/svg" viewBox="0 0 356.23 101.54"><defs><style>.cls-1{fill:none;stroke:#fb932e;stroke-miterlimit:10;}.cls-2{fill:#f0b537;}</style></defs><title>user-binAsset 214</title><g id="Layer_2" data-name="Layer 2"><g id="Layer_11" data-name="Layer 11"><path class="cls-1" d="M1.39,2.09H5.22L6.78,3.48H8.09l2,0,2.35,0,5.85,0,3.14,0,5.44,0L54.57,31.52h95.89L171.17,52H309l20.1,19.88v9.39l12.23,12.2h1l5.11.18h1.9L351,92.09h3.84"/><path class="cls-1" d="M1.39,3.88H5.22L6.78,5.27H8.09l2,0,2.35,0,5.85,0,3.14,0,4.64,0L53.74,33.11H150L170.64,53.8H308.33l19,19v9.1l13.37,13.55h8.79l1.56-1.59h3.76"/><path class="cls-1" d="M1.39,5.67H5.22L6.78,7.06H8.09l2,0,2.35,0,5.85,0,3.14,0,3.9,0L53,34.9h96l20.69,20.69H307.4l18,18v9.06l14.42,14.64h9.54l1.56-1.59h3.95"/><path class="cls-1" d="M1.39,7.46H5.22L6.78,8.85H8.09l2,0,2.35,0L18.31,9l3.14,0,3.16,0L52.26,36.69h96L169,57.38H306.66l16.91,16.91v9l15.48,15.71h10.27l1.57-1.59h3.94"/><path class="cls-1" d="M1.39,9.25H5.22l1.56,1.39H8.09l2,0,2.35,0,5.85,0,3.14,0,2.33,0L51.62,38.68h95.93l20.68,20.69H305.92l15.86,15.86v9l16.61,16.39,4,0,5.11.17h1.9L351,99.25h3.84"/><polygon class="cls-2" points="1.39 0 0 0 0 11.54 1.39 11.54 1.39 10.94 4.38 10.94 4.38 10.14 3.18 10.14 3.18 9.74 1.59 9.74 1.59 8.75 3.18 8.75 3.18 7.96 1.59 7.96 1.59 6.96 3.18 6.96 3.18 6.17 1.59 6.17 1.59 5.17 3.18 5.17 3.18 4.38 1.59 4.38 1.39 3.38 3.18 3.38 3.18 2.59 1.39 2.59 1.39 1.59 3.18 1.59 3.18 0.8 1.39 0.8 1.39 0"/><polygon class="cls-2" points="354.64 90 356.23 90 356.23 101.54 354.64 101.54 354.64 100.94 351.85 100.94 351.85 100.14 353.25 100.14 353.25 99.75 354.84 99.75 354.84 98.75 353.25 98.75 353.25 97.96 354.84 97.96 354.84 96.96 353.25 96.96 353.25 96.17 354.84 96.17 354.84 95.17 353.25 95.17 353.25 94.38 354.84 94.38 354.84 93.38 353.25 93.38 353.25 92.59 354.84 92.59 354.84 91.59 353.05 91.59 353.05 90.8 354.84 90.8 354.64 90"/></g></g></svg>