<svg xmlns="http://www.w3.org/2000/svg" viewBox="0 0 50.92 97.68"><defs><style>.cls-1{isolation:isolate;}.cls-2{fill:#0e0e17;opacity:0.4;mix-blend-mode:multiply;}.cls-3{fill:none;stroke:#fb932e;stroke-miterlimit:10;}.cls-4{fill:#f0b537;}</style></defs><title>var-cacheAsset 195</title><g class="cls-1"><g id="Layer_2" data-name="Layer 2"><g id="Layer_11" data-name="Layer 11"><path class="cls-2" d="M3.17,90v.43L1.55,92l0,.55,8.17.15v-.29l1.63-1.61v-.51Z"/><path class="cls-3" d="M3.88,96.06h0V92.24l1.59-1.6q.11-35.41.2-70.83L20,5.27l24.12.2,1.59-1.59h3.86"/><path class="cls-3" d="M5.67,96.06h0V92.24l1.59-1.59q.11-35.06.2-70.09L20.69,7.06l23.38.2,1.59-1.59h3.86"/><path class="cls-3" d="M7.46,96.06h0V92.24l1.59-1.59q.1-34.68.2-69.35L21.44,8.85l22.63.2,1.59-1.59h3.86"/><path class="cls-3" d="M2.09,96.06h0V92.24l1.59-1.6q.1-35.77.2-71.57L19.2,3.48l24.87.2,1.59-1.59h3.86"/><path class="cls-3" d="M9.25,96.06h0V92.24l1.59-1.6q.11-34.29.2-68.59L22.18,10.64l21.89.2,1.59-1.59h3.86"/><path class="cls-4" d="M49.52,0h1.4V11.54h-1.4v-.6h-3v-.8h1.19V9.75h1.59v-1H47.73V8h1.59V7H47.73V6.17h1.59v-1H47.73V4.38h1.59v-1l-1.58.14V2.39h1.79v-.8H47.73V.8h1.79Z"/><path class="cls-4" d="M0,96.06v1.62H11.53V96.06h-.4V93.28h-.8v1.19H9.73l0,1.57H8.75V94.47H8v1.59H7V94.47H6.17v1.59h-1V94.47H4.38v1.59h-1V94.47H2.59v1.59h-1V94.27H.8v1.79Z"/></g></g></g></svg>