<svg xmlns="http://www.w3.org/2000/svg" viewBox="0 0 101.84 108.99"><defs><style>.cls-1{fill:#f0b537;}.cls-2{fill:none;stroke:#fb932e;stroke-miterlimit:10;}</style></defs><title>varAsset 190</title><g id="Layer_2" data-name="Layer 2"><g id="Layer_11" data-name="Layer 11"><polygon class="cls-1" points="100.45 97.45 101.84 97.45 101.84 108.99 100.45 108.99 100.45 108.39 97.66 108.39 97.66 107.6 98.86 107.6 98.86 107.2 100.45 107.2 100.45 106.21 98.86 106.21 98.86 105.41 100.45 105.41 100.45 104.42 98.86 104.42 98.86 103.62 100.45 103.62 100.45 102.63 98.86 102.63 98.86 101.83 100.45 101.83 100.45 100.84 98.86 100.84 98.86 100.04 100.45 100.04 100.45 99.05 98.66 99.05 98.66 98.25 100.45 98.25 100.45 97.45"/><polygon class="cls-2" points="31.42 45.94 27.84 42.36 26.05 40.57 26.05 32.98 26.05 40.57 27.84 42.36 31.42 45.94"/><path class="cls-2" d="M96.65,103.58l-1.14,1.13H92.72l-61.3-61.3,61.3,61.3h2.79Z"/><polygon class="cls-2" points="95.75 102.68 95.51 102.92 93.47 102.92 31.42 40.87 93.47 102.92 95.51 102.92 95.75 102.68"/><polygon class="cls-2" points="31.42 43.41 29.63 41.62 27.84 39.83 27.84 34.77 27.84 39.83 29.63 41.62 31.42 43.41"/><polygon class="cls-2" points="31.42 40.87 29.63 39.08 29.63 36.56 29.63 39.08 31.42 40.87"/><polygon class="cls-2" points="97.98 104.91 97.09 104.91 96.23 105.68 95.52 106.3 91.79 106.3 86.53 101.04 31.42 45.94 86.53 101.04 91.79 106.3 95.52 106.3 96.23 105.68 97.09 104.91 97.98 104.91"/><path class="cls-2" d="M.4,7.66H4.29L6,5.83l14.65,0,5.37,5.58V33"/><line class="cls-2" x1="100.93" y1="104.91" x2="97.98" y2="104.91"/><path class="cls-2" d="M96.65,103.58l.45-.46H101"/><path class="cls-2" d="M.4,5.87H4.29L5.85,4.08H21.4l6.44,6.57V34.77"/><polyline class="cls-2" points="95.75 102.68 97.1 101.33 100.93 101.33"/><path class="cls-2" d="M.4,4.08H4.29L5.85,2.29h16.3L29.63,9.9V36.56"/><path class="cls-2" d="M.4,2.29H4.29L5.85.5h17l5.8,5.84,2.79,2.82V38.35L94.11,101h1.41l1.57-1.5h3.82"/><polygon class="cls-1" points="1.39 11.54 0 11.54 0 0 1.39 0 1.39 0.4 4.38 0.4 4.38 1.19 3.18 1.19 3.18 1.79 1.59 1.79 1.59 2.78 3.18 2.78 3.18 3.58 1.59 3.58 1.59 4.57 3.18 4.57 3.18 5.37 1.59 5.37 1.59 6.36 3.18 6.36 3.18 7.16 1.59 7.16 1.39 8.15 3.18 8.15 3.18 8.95 1.39 8.95 1.39 9.94 3.18 9.94 3.18 10.74 1.39 10.74 1.39 11.54"/><path class="cls-2" d="M.4,9.45H4.11L5.85,7.72H19.91l4.35,4.47V41.31l1.79,1.79,1.79,1.79,1.79,1.79,1.79,1.79L91.1,108.15h4.41l.34-.31,1.24-1.14H101"/></g></g></svg>