<svg xmlns="http://www.w3.org/2000/svg" viewBox="0 0 101.84 108.99"><defs><style>.cls-1{fill:#f0b537;}.cls-2{fill:none;stroke:#fb932e;stroke-miterlimit:10;}</style></defs><title>varAsset 191</title><g id="Layer_2" data-name="Layer 2"><g id="Layer_11" data-name="Layer 11"><polygon class="cls-1" points="100.45 97.45 101.84 97.45 101.84 108.99 100.45 108.99 100.45 108.39 97.66 108.39 97.66 107.6 98.86 107.6 98.86 107.2 100.45 107.2 100.45 106.21 98.86 106.21 98.86 105.41 100.45 105.41 100.45 104.42 98.86 104.42 98.86 103.62 100.45 103.62 100.45 102.63 98.86 102.63 98.86 101.83 100.45 101.83 100.45 100.84 98.86 100.84 98.86 100.04 100.45 100.04 100.45 99.05 98.66 99.05 98.66 98.25 100.45 98.25 100.45 97.45"/><path class="cls-2" d="M.4,7.66H4.29L6,5.83l14.65,0,5.37,5.58V40.58l65.78,65.78h3.81l1.5-1.5,3.58,0"/><path class="cls-2" d="M.4,5.87H4.29L5.85,4.08H21.4l6.44,6.57V40l64.61,64.6h3c.53-.54,1-1.08,1.58-1.61l3.7,0"/><path class="cls-2" d="M.4,4.08H4.29L5.85,2.29h16.3L29.63,9.9V39.18L31.37,41l61.95,61.94h1.8l1.8-1.56h4"/><path class="cls-2" d="M.4,2.29H4.29L5.85.5h17l5.8,5.84,2.79,2.82V38.35L94.11,101h1.41l1.57-1.5h3.82"/><polygon class="cls-1" points="1.39 11.54 0 11.54 0 0 1.39 0 1.39 0.4 4.38 0.4 4.38 1.19 3.18 1.19 3.18 1.79 1.59 1.79 1.59 2.78 3.18 2.78 3.18 3.58 1.59 3.58 1.59 4.57 3.18 4.57 3.18 5.37 1.59 5.37 1.59 6.36 3.18 6.36 3.18 7.16 1.59 7.16 1.39 8.15 3.18 8.15 3.18 8.95 1.39 8.95 1.39 9.94 3.18 9.94 3.18 10.74 1.39 10.74 1.39 11.54"/><path class="cls-2" d="M.4,9.45H4.11L5.85,7.72H19.91l4.35,4.47V41.31l1.79,1.79,1.79,1.79,1.79,1.79,1.79,1.79L91.1,108.15h4.41l.34-.31,1.24-1.14H101"/></g></g></svg>