<?xml version="1.0" encoding="utf-8"?>
<!-- Generator: Adobe Illustrator 23.0.0, SVG Export Plug-In . SVG Version: 6.00 Build 0)  -->
<svg version="1.1" id="Layer_1" xmlns="http://www.w3.org/2000/svg" xmlns:xlink="http://www.w3.org/1999/xlink" x="0px" y="0px"
	 viewBox="0 0 256 256" style="enable-background:new 0 0 256 256;" xml:space="preserve">
<style type="text/css">
	.st0{fill:#EF514A;stroke:#E02526;stroke-width:0.25;stroke-miterlimit:10;}
	.st1{opacity:0.4;}
	.st2{fill:#C49239;}
	.st3{opacity:0.1;fill:#C49239;enable-background:new    ;}
	.st4{fill:none;}
	.st5{opacity:0.4;fill:#C49239;enable-background:new    ;}
	.st6{fill:none;stroke:#C49239;stroke-width:0.25;stroke-miterlimit:10;}
</style>
<g>
	<g>
		<path class="st0" d="M90.1,37.6l-1.2-0.8c-0.2-0.2-0.3-0.3-0.3-0.5v-8.4c0-0.1-0.1-0.2-0.2-0.3L86.1,26c-0.2-0.1-0.3-0.3-0.3-0.5
			v-0.8c0-0.2,0.1-0.2,0.3,0l6.9,4.6c0.2,0.1,0.3,0.3,0.3,0.5v0.8c0,0.2-0.1,0.2-0.3,0.1l-2.3-1.6c-0.1-0.1-0.2-0.1-0.2,0v8.5
			C90.4,37.8,90.3,37.8,90.1,37.6z"/>
		<path class="st0" d="M101.1,45.2l-5.9-4.1c-0.2-0.1-0.3-0.3-0.3-0.5v-9.8c0-0.2,0.1-0.2,0.3-0.1l5.9,3.9c0.2,0.1,0.3,0.3,0.3,0.5
			V36c0,0.2-0.1,0.2-0.3,0.1l-4.2-2.8c-0.1-0.1-0.2-0.1-0.2,0V36c0,0.1,0.1,0.2,0.2,0.3l3.6,2.4c0.2,0.1,0.3,0.3,0.3,0.5V40
			c0,0.2-0.1,0.2-0.3,0.1l-3.6-2.4c-0.1-0.1-0.2-0.1-0.2,0v2.9c0,0.1,0.1,0.2,0.2,0.3l4.2,2.9c0.2,0.1,0.3,0.3,0.3,0.5v0.8
			C101.4,45.3,101.3,45.3,101.1,45.2z"/>
		<path class="st0" d="M105.2,48l-1.2-0.8c-0.2-0.1-0.3-0.3-0.3-0.5v-10c0-0.2,0.1-0.2,0.3-0.1l4.3,2.9c0.9,0.6,1.6,1.3,2.1,2.1
			s0.8,1.6,0.8,2.4v1.4c0,1.3-0.6,1.7-1.8,1.2v0.1l2.1,5.3c0.1,0.3,0.1,0.4-0.2,0.2l-1.1-0.8c-0.3-0.2-0.5-0.4-0.6-0.7l-2-5.2
			l-1.9-1.3c-0.1-0.1-0.2-0.1-0.2,0v3.6C105.5,48.1,105.4,48.1,105.2,48z M105.8,43l2.4,1.6c0.9,0.6,1.4,0.5,1.4-0.3v-1.4
			c0-0.8-0.5-1.5-1.4-2.1l-2.4-1.6c-0.1-0.1-0.2-0.1-0.2,0v3.5C105.5,42.8,105.6,42.9,105.8,43z"/>
		<path class="st0" d="M121.9,48.6L124,50c0.2,0.1,0.3,0.3,0.3,0.5v10.4c0,0.2-0.1,0.2-0.3,0.1l-1.1-0.8c-0.2-0.1-0.3-0.3-0.3-0.5
			V51h-0.1l-2.4,4.6c-0.1,0.1-0.2,0.1-0.4,0l-1.2-0.8c-0.2-0.1-0.3-0.3-0.4-0.5l-2.5-7.8h-0.1V55c0,0.1,0,0.2-0.1,0.2
			c0,0-0.1,0-0.3-0.1l-1.1-0.8c-0.2-0.1-0.3-0.3-0.3-0.5V43.4c0-0.2,0.1-0.2,0.3-0.1l2.1,1.4c0.1,0.1,0.2,0.2,0.3,0.4l2.5,8.2
			l0.1,0.1l2.6-4.8C121.7,48.5,121.8,48.5,121.9,48.6z"/>
		<path class="st0" d="M128.9,53.5v10.4c0,0.2-0.1,0.2-0.3,0.1l-1.2-0.8c-0.2-0.1-0.3-0.3-0.3-0.5V52.3c0-0.2,0.1-0.2,0.3-0.1
			l1.2,0.8C128.8,53.1,128.9,53.3,128.9,53.5z"/>
		<path class="st0" d="M133.2,67.1l-1.1-0.8c-0.2-0.1-0.3-0.3-0.3-0.5V55.4c0-0.2,0.1-0.2,0.3-0.1l1,0.7c0.2,0.1,0.3,0.3,0.4,0.5
			l4.5,10.6l0-0.1v-7.5c0-0.2,0.1-0.2,0.3-0.1l1.1,0.8c0.2,0.1,0.3,0.3,0.3,0.5v10.6c0,0.2-0.1,0.2-0.3,0.1l-1-0.7
			c-0.2-0.1-0.4-0.3-0.5-0.6l-4.4-10.5h-0.1V67C133.5,67.3,133.4,67.3,133.2,67.1z"/>
		<path class="st0" d="M143.2,74l-1.3-0.9c-0.2-0.1-0.2-0.3-0.2-0.4l3.2-8.5c0.1-0.2,0.2-0.2,0.4,0l1.9,1.2c0.2,0.2,0.4,0.4,0.4,0.6
			l3.2,13c0,0.2,0,0.3-0.2,0.2l-1.3-0.9c-0.1-0.1-0.2-0.1-0.2-0.2s-0.1-0.2-0.1-0.3l-0.7-2.8l-4.1-2.8l-0.7,1.8
			C143.4,74.1,143.3,74.1,143.2,74z M146.2,66.4l-1.6,4.6l3.4,2.3L146.2,66.4L146.2,66.4z"/>
		<path class="st0" d="M159,84.8l-6-4.1c-0.2-0.1-0.3-0.3-0.3-0.5V69.3c0-0.2,0.1-0.2,0.3-0.1l1.2,0.8c0.2,0.1,0.3,0.3,0.3,0.5V80
			c0,0.1,0.1,0.2,0.2,0.3l4.3,2.9c0.2,0.1,0.3,0.3,0.3,0.5v0.9C159.3,84.9,159.2,85,159,84.8z"/>
	</g>
</g>
<g class="st1">
	<g>
		<path class="st2" d="M84.5,85.7l-1.9,4.2l19.6,22.3l-19.6-6.9l1.9,7.1l25.2,8.2v-5.7L84.5,85.7L84.5,85.7z M109.6,138.5v5.8
			l30.1,21.7v-5.6L109.6,138.5L109.6,138.5z"/>
		<path class="st2" d="M84.5,85.7l-1.9,4.2l0.2,0.3l1.7-3.7l25.2,29.2v-0.8L84.5,85.7L84.5,85.7z M101.1,111.8l-18.6-6.5l0.2,0.8
			l19.3,6.8L101.1,111.8L101.1,111.8z M109.6,138.5v0.8l30.1,21.8v-0.7L109.6,138.5L109.6,138.5z"/>
	</g>
</g>
<g>
	<path class="st3" d="M169.6,236.2v8.5c-4.9,3-9.7,5.9-14.6,8.9v-18c2.4,1.7,4.8,3.3,7.3,5C164.7,239.2,167.2,237.7,169.6,236.2z"/>
	<path class="st3" d="M176.9,58.5v23.4c-4.9,3-9.7,5.9-14.6,8.9V67.4C167.1,64.4,172,61.5,176.9,58.5z"/>
	<path class="st3" d="M176.9,206.3c-4.9,3-9.7,5.9-14.6,8.9l-2.7-1.8v-16.7l2.7,1.8c4-2.4,7.9-4.8,11.9-7.3v13.2L176.9,206.3z"/>
	<path class="st3" d="M176.9,206.3v25.4c-4.9,3-9.7,5.9-14.6,8.9v-25.4C167.1,212.3,172,209.3,176.9,206.3z"/>
	<path class="st3" d="M176.9,58.5c-4.9,3-9.7,5.9-14.6,8.9C135,48.7,107.6,30,80.3,11.3c4.8-3,9.7-5.9,14.5-8.9
		C122.2,21.1,149.5,39.8,176.9,58.5z"/>
	<path class="st3" d="M176.9,88.3v101.4c-4.9,3-9.7,5.9-14.6,8.9V97.2C167.1,94.2,172,91.3,176.9,88.3z"/>
	<path class="st4" d="M159.6,213.4c4.9-3,9.7-5.9,14.6-8.9"/>
	<path class="st3" d="M83.8,156.6v4.5l-3.5-2.4C81.5,158,82.7,157.3,83.8,156.6z"/>
	<path class="st5" d="M162.3,67.4v23.4c-27.3-18.7-54.7-37.4-82-56.1c0-7.8,0-15.6,0-23.4C107.6,30,135,48.7,162.3,67.4z"/>
	<path class="st5" d="M159.6,196.8v16.6l0,0l2.6,1.8v25.4c-2.4-1.6-4.8-3.3-7.3-5v17.9c-24.9-17-49.8-34.1-74.7-51.1v-43.7l3.5,2.4
		v-6.5l-3.5-2.4V41.1c12.2,8.4,24.5,16.8,36.7,25.2c15.1,10.3,30.1,20.6,45.2,31v101.4L159.6,196.8z"/>
	<path class="st3" d="M176.9,88.3c-4.9,3-9.7,5.9-14.6,8.9c-15.1-10.3-30.2-20.7-45.2-31c-12.2-8.4-24.5-16.8-36.7-25.1
		c1.7-1,3.3-2,5-3c25.7,17.6,51.3,35.2,77,52.7c3.2-2,6.4-3.9,9.6-5.9L176.9,88.3z"/>
	<path class="st6" d="M159.6,196.8v16.6l0,0l2.6,1.8v25.4c-2.4-1.6-4.8-3.3-7.3-5v17.9c-24.9-17-49.8-34.1-74.7-51.1v-43.7l3.5,2.4
		v-6.5l-3.5-2.4V41.1c12.2,8.4,24.5,16.8,36.7,25.2c15.1,10.3,30.1,20.6,45.2,31v101.4L159.6,196.8z"/>
	<path class="st6" d="M162.3,67.4v23.4c-27.3-18.7-54.7-37.4-82-56.1c0-7.8,0-15.6,0-23.4C107.6,30,135,48.7,162.3,67.4z"/>
	<path class="st6" d="M176.9,88.3v101.4c-4.9,3-9.7,5.9-14.6,8.9V97.2C167.1,94.2,172,91.3,176.9,88.3z"/>
	<path class="st6" d="M176.9,58.5v23.4c-4.9,3-9.7,5.9-14.6,8.9V67.4C167.1,64.4,172,61.5,176.9,58.5z"/>
	<path class="st6" d="M176.9,88.3c-4.9,3-9.7,5.9-14.6,8.9c-15.1-10.3-30.2-20.7-45.2-31c-12.2-8.4-24.5-16.8-36.7-25.1
		c1.7-1,3.3-2,5-3c25.7,17.6,51.3,35.2,77,52.7c3.2-2,6.4-3.9,9.6-5.9L176.9,88.3z"/>
	<path class="st6" d="M176.9,58.5c-4.9,3-9.7,5.9-14.6,8.9C135,48.7,107.6,30,80.3,11.3c4.8-3,9.7-5.9,14.5-8.9
		C122.2,21.1,149.5,39.8,176.9,58.5z"/>
	<path class="st6" d="M169.6,236.2v8.5c-4.9,3-9.7,5.9-14.6,8.9v-18c2.4,1.7,4.8,3.3,7.3,5C164.7,239.2,167.2,237.7,169.6,236.2z"/>
	<path class="st6" d="M176.9,206.3c-4.9,3-9.7,5.9-14.6,8.9l-2.7-1.8v-16.7l2.7,1.8c4-2.4,7.9-4.8,11.9-7.3v13.2L176.9,206.3z"/>
	<path class="st6" d="M176.9,206.3v25.4c-4.9,3-9.7,5.9-14.6,8.9v-25.4C167.1,212.3,172,209.3,176.9,206.3z"/>
	<path class="st6" d="M159.6,213.4c4.9-3,9.7-5.9,14.6-8.9"/>
	<path class="st6" d="M83.8,156.6v4.5l-3.5-2.4C81.5,158,82.7,157.3,83.8,156.6z"/>
</g>
<g>
	<g>
		<path class="st2" d="M86.6,187.9l-0.4-0.2c-0.2-0.1-0.3-0.3-0.4-0.4c-0.1-0.2-0.1-0.4-0.1-0.6v-1.2c0-0.2,0-0.3,0.1-0.4
			c0.1,0,0.2,0,0.4,0.1l0.4,0.2c0.2,0.1,0.3,0.3,0.4,0.4c0.1,0.2,0.1,0.4,0.1,0.6v1.2c0,0.2,0,0.3-0.1,0.4
			C86.9,188.1,86.8,188.1,86.6,187.9z M86.3,187.3l0.2,0.2c0.1,0,0.1,0.1,0.2,0c0,0,0-0.1,0-0.1v-1.2c0-0.1,0-0.1,0-0.2
			c0-0.1-0.1-0.1-0.2-0.1l-0.2-0.2c-0.1,0-0.1-0.1-0.2,0c0,0,0,0.1,0,0.1v1.2c0,0.1,0,0.1,0,0.2S86.2,187.3,86.3,187.3z"/>
		<path class="st2" d="M88,188.8l-0.3-0.2c0,0-0.1-0.1-0.1-0.1v-2.3c0-0.1,0-0.1,0.1,0l0.3,0.2c0,0,0.1,0.1,0.1,0.1l0.7,1.9l0,0
			v-1.4c0-0.1,0-0.1,0.1,0l0.3,0.2c0,0,0.1,0.1,0.1,0.1v2.3c0,0.1,0,0.1-0.1,0l-0.3-0.2c-0.1,0-0.1-0.1-0.1-0.1l-0.7-1.9l0,0
			L88,188.8C88,188.8,88,188.8,88,188.8z"/>
		<path class="st2" d="M90.8,190.6l-1.1-0.7c0,0-0.1-0.1-0.1-0.1v-2.3c0-0.1,0-0.1,0.1,0l0.3,0.2c0,0,0.1,0.1,0.1,0.1v1.9
			c0,0,0,0.1,0,0.1l0.7,0.5c0,0,0.1,0.1,0.1,0.1L90.8,190.6C90.9,190.7,90.9,190.7,90.8,190.6z"/>
		<path class="st2" d="M92,191.4l-0.3-0.2c0,0-0.1-0.1-0.1-0.1v-0.8l-0.6-1.9c0,0,0,0,0-0.1c0,0,0,0,0,0l0.4,0.2
			c0,0,0.1,0.1,0.1,0.1l0.3,1.2l0,0l0.3-0.7c0,0,0-0.1,0.1,0l0.4,0.2c0,0,0,0,0,0.1c0,0,0,0,0,0.1l-0.6,1.1L92,191.4
			C92.1,191.4,92,191.4,92,191.4z"/>
		<path class="st2" d="M94.9,193.2l-0.3-0.2c0,0-0.1-0.1-0.1-0.1v-2.4c0-0.1,0-0.1,0.1,0l0.8,0.5c0.2,0.1,0.3,0.3,0.4,0.4
			c0.1,0.2,0.2,0.4,0.2,0.6v0.3c0,0.3-0.1,0.4-0.3,0.4v0l0.4,1.1c0,0.1,0,0.1-0.1,0.1l-0.3-0.2c0,0-0.1-0.1-0.1-0.1c0,0,0-0.1,0-0.1
			l-0.3-1.1l-0.2-0.1c0,0,0,0,0,0L94.9,193.2C94.9,193.2,94.9,193.2,94.9,193.2z M95,191.9l0.3,0.2c0.1,0,0.1,0.1,0.2,0
			c0,0,0.1-0.1,0.1-0.1v-0.3c0-0.1,0-0.2-0.1-0.2c0-0.1-0.1-0.1-0.2-0.2l-0.3-0.2c0,0,0,0,0,0L95,191.9
			C94.9,191.9,94.9,191.9,95,191.9z"/>
		<path class="st2" d="M97.3,194.8l-0.4-0.2c-0.2-0.1-0.3-0.3-0.4-0.4c-0.1-0.2-0.1-0.4-0.1-0.6v-1.3c0-0.2,0-0.3,0.1-0.4
			c0.1-0.1,0.2,0,0.4,0.1l0.4,0.2c0.2,0.1,0.3,0.3,0.4,0.4c0.1,0.2,0.1,0.4,0.1,0.6v1.3c0,0.2,0,0.3-0.1,0.4
			C97.6,194.9,97.5,194.9,97.3,194.8z M97,194.1l0.2,0.2c0.1,0,0.1,0.1,0.2,0c0,0,0-0.1,0-0.2V193c0-0.1,0-0.2,0-0.2
			c0-0.1-0.1-0.1-0.2-0.2l-0.2-0.2c-0.1,0-0.1-0.1-0.2,0s0,0.1,0,0.2v1.2c0,0.1,0,0.2,0,0.2C96.9,194,96.9,194.1,97,194.1z"/>
		<path class="st2" d="M99.2,196l-0.4-0.2c-0.2-0.1-0.3-0.3-0.4-0.4c-0.1-0.2-0.1-0.4-0.1-0.6v-1.3c0-0.2,0-0.3,0.1-0.4
			c0.1-0.1,0.2,0,0.4,0.1l0.4,0.2c0.2,0.1,0.3,0.3,0.4,0.4c0.1,0.2,0.1,0.4,0.1,0.6v1.3c0,0.2,0,0.3-0.1,0.4
			C99.5,196.1,99.4,196.1,99.2,196z M98.9,195.4l0.2,0.2c0.1,0,0.1,0.1,0.2,0c0,0,0-0.1,0-0.2v-1.2c0-0.1,0-0.2,0-0.2
			c0-0.1-0.1-0.1-0.2-0.2l-0.2-0.2c-0.1,0-0.1-0.1-0.2,0c0,0,0,0.1,0,0.2v1.2c0,0.1,0,0.2,0,0.2S98.8,195.3,98.9,195.4z"/>
		<path class="st2" d="M100.9,197.1l-0.3-0.2c-0.1,0-0.1-0.1-0.1-0.1v-2c0,0,0-0.1,0-0.1l-0.4-0.2c0,0-0.1-0.1-0.1-0.1V194
			c0-0.1,0-0.1,0.1,0l1.3,0.8c0,0,0.1,0.1,0.1,0.1v0.3c0,0.1,0,0.1-0.1,0L101,195c0,0,0,0,0,0L100.9,197.1
			C100.9,197.1,100.9,197.1,100.9,197.1z"/>
		<path class="st2" d="M102.8,198.3l-0.3-0.2c0,0-0.1-0.1-0.1-0.1v-2.5c0-0.1,0-0.1,0.1,0l0.8,0.5c0.2,0.1,0.3,0.3,0.4,0.4
			c0.1,0.2,0.1,0.4,0.1,0.6v0.4c0,0.2,0,0.4-0.1,0.4c-0.1,0.1-0.2,0-0.4-0.1l-0.4-0.3c0,0,0,0,0,0L102.8,198.3
			C102.9,198.3,102.9,198.4,102.8,198.3z M103,197l0.4,0.2c0.1,0,0.1,0.1,0.2,0c0,0,0-0.1,0-0.2v-0.3c0-0.1,0-0.2,0-0.2
			c0-0.1-0.1-0.1-0.2-0.2l-0.4-0.2c0,0,0,0,0,0L103,197C102.9,197,102.9,197,103,197z"/>
		<path class="st2" d="M105.5,200l-1.1-0.7c0,0-0.1-0.1-0.1-0.1v-2.5c0-0.1,0-0.1,0.1,0l1.1,0.7c0,0,0.1,0.1,0.1,0.1v0.3
			c0,0.1,0,0.1-0.1,0l-0.7-0.5c0,0,0,0,0,0v0.5c0,0,0,0.1,0,0.1l0.6,0.4c0,0,0.1,0.1,0.1,0.1v0.3c0,0.1,0,0.1-0.1,0l-0.6-0.4
			c0,0,0,0,0,0v0.6c0,0,0,0.1,0,0.1l0.7,0.5c0,0,0.1,0.1,0.1,0.1L105.5,200C105.6,200.1,105.6,200.1,105.5,200z"/>
		<path class="st2" d="M106.3,200.6l-0.3-0.2c0,0-0.1-0.1-0.1-0.1v-2.5c0-0.1,0-0.1,0.1,0l0.8,0.5c0.2,0.1,0.3,0.3,0.4,0.4
			c0.1,0.2,0.2,0.4,0.2,0.6v0.3c0,0.3-0.1,0.5-0.3,0.4v0l0.4,1.2c0,0.1,0,0.1-0.1,0.1l-0.3-0.2c0,0-0.1-0.1-0.1-0.1c0,0,0-0.1,0-0.1
			l-0.3-1.1l-0.2-0.1c0,0,0,0,0,0L106.3,200.6C106.4,200.6,106.4,200.6,106.3,200.6z M106.4,199.2l0.3,0.2c0.1,0,0.1,0.1,0.2,0
			c0,0,0.1-0.1,0.1-0.1V199c0-0.1,0-0.2-0.1-0.2c0-0.1-0.1-0.1-0.2-0.2l-0.3-0.2c0,0,0,0,0,0L106.4,199.2
			C106.4,199.2,106.4,199.2,106.4,199.2z"/>
		<path class="st2" d="M109.3,199.7l0.5,0.3c0,0,0.1,0.1,0.1,0.1v2.6c0,0.1,0,0.1-0.1,0l-0.3-0.2c0,0-0.1-0.1-0.1-0.1v-2l0,0
			l-0.4,1.2c0,0,0,0.1-0.1,0l-0.3-0.2c0,0-0.1-0.1-0.1-0.1l-0.4-1.7l0,0v2c0,0,0,0.1,0,0.1c0,0,0,0-0.1,0l-0.3-0.2
			c0,0-0.1-0.1-0.1-0.1v-2.5c0-0.1,0-0.1,0.1,0l0.5,0.3c0,0,0.1,0.1,0.1,0.1l0.4,1.7l0,0L109.3,199.7
			C109.3,199.7,109.3,199.7,109.3,199.7z"/>
		<path class="st2" d="M110.8,200.8v2.6c0,0.1,0,0.1-0.1,0l-0.3-0.2c0,0-0.1-0.1-0.1-0.1v-2.6c0-0.1,0-0.1,0.1,0l0.3,0.2
			C110.8,200.7,110.8,200.7,110.8,200.8z"/>
		<path class="st2" d="M112,204.2l-0.3-0.2c-0.1,0-0.1-0.1-0.1-0.1v-2.2c0,0,0-0.1,0-0.1l-0.4-0.2c0,0-0.1-0.1-0.1-0.1v-0.3
			c0-0.1,0-0.1,0.1,0l1.3,0.8c0,0,0.1,0.1,0.1,0.1v0.3c0,0.1,0,0.1-0.1,0l-0.4-0.2c0,0,0,0,0,0L112,204.2
			C112,204.2,112,204.2,112,204.2z"/>
		<path class="st2" d="M113.3,202.3v2.6c0,0.1,0,0.1-0.1,0l-0.3-0.2c0,0-0.1-0.1-0.1-0.1V202c0-0.1,0-0.1,0.1,0l0.3,0.2
			C113.2,202.2,113.3,202.2,113.3,202.3z"/>
		<path class="st2" d="M114.7,205.9l-0.4-0.2c-0.2-0.1-0.3-0.3-0.4-0.5c-0.1-0.2-0.1-0.4-0.1-0.6v-1.4c0-0.2,0-0.4,0.1-0.4
			c0.1-0.1,0.2,0,0.4,0.1l0.4,0.2c0.2,0.1,0.3,0.3,0.4,0.4c0.1,0.2,0.1,0.4,0.1,0.6v1.4c0,0.2,0,0.4-0.1,0.4
			C115,206,114.8,206,114.7,205.9z M114.3,205.2l0.2,0.2c0.1,0,0.1,0.1,0.2,0c0,0,0-0.1,0-0.2v-1.3c0-0.1,0-0.2,0-0.2
			c0-0.1-0.1-0.1-0.2-0.2l-0.2-0.2c-0.1,0-0.1-0.1-0.2,0c0,0,0,0.1,0,0.2v1.3c0,0.1,0,0.2,0,0.2
			C114.2,205.1,114.3,205.2,114.3,205.2z"/>
		<path class="st2" d="M116,206.8l-0.3-0.2c0,0-0.1-0.1-0.1-0.1v-2.6c0-0.1,0-0.1,0.1,0l0.3,0.2c0,0,0.1,0.1,0.1,0.1l0.7,2.1l0,0
			v-1.6c0-0.1,0-0.1,0.1,0l0.3,0.2c0,0,0.1,0.1,0.1,0.1v2.7c0,0.1,0,0.1-0.1,0l-0.3-0.2c-0.1,0-0.1-0.1-0.1-0.2l-0.7-2.1l0,0
			L116,206.8C116.1,206.8,116,206.8,116,206.8z"/>
		<path class="st2" d="M119.9,209.3l-0.5-0.3c-0.1,0-0.1-0.1-0.1-0.1l-0.4-2.9c0-0.1,0-0.1,0.1,0l0.4,0.2c0.1,0,0.1,0.1,0.1,0.1
			l0.2,2.3l0,0l0.3-2c0,0,0-0.1,0.1,0l0.4,0.2c0,0,0.1,0.1,0.1,0.1l0.3,2.4l0,0l0.2-2.1c0-0.1,0-0.1,0.1,0l0.4,0.2
			c0.1,0,0.1,0.1,0.1,0.1l-0.4,2.5c0,0.1,0,0.1-0.1,0l-0.5-0.3c0,0-0.1-0.1-0.1-0.1l-0.3-2.3l0,0L119.9,209.3
			C120,209.3,120,209.3,119.9,209.3z"/>
		<path class="st2" d="M122.4,208.1v2.7c0,0.1,0,0.1-0.1,0l-0.3-0.2c0,0-0.1-0.1-0.1-0.1v-2.7c0-0.1,0-0.1,0.1,0l0.3,0.2
			C122.4,207.9,122.4,208,122.4,208.1z"/>
		<path class="st2" d="M123.6,211.6l-0.3-0.2c-0.1,0-0.1-0.1-0.1-0.1V209c0,0,0-0.1,0-0.1l-0.4-0.2c0,0-0.1-0.1-0.1-0.1v-0.3
			c0-0.1,0-0.1,0.1-0.1l1.3,0.8c0,0,0.1,0.1,0.1,0.1v0.3c0,0.1,0,0.1-0.1,0.1l-0.4-0.2c0,0,0,0,0,0L123.6,211.6
			C123.6,211.6,123.6,211.6,123.6,211.6z"/>
		<path class="st2" d="M124.8,212.4l-0.3-0.2c0,0-0.1-0.1-0.1-0.1v-2.7c0-0.1,0-0.1,0.1-0.1l0.3,0.2c0,0,0.1,0.1,0.1,0.1v1.1
			c0,0,0,0.1,0,0.1l0.6,0.4c0,0,0,0,0,0V210c0-0.1,0-0.1,0.1-0.1l0.3,0.2c0,0,0.1,0.1,0.1,0.1v2.8c0,0.1,0,0.1-0.1,0l-0.3-0.2
			c0,0-0.1-0.1-0.1-0.1v-1.1c0,0,0-0.1,0-0.1l-0.6-0.4c0,0,0,0,0,0L124.8,212.4C124.9,212.4,124.8,212.4,124.8,212.4z"/>
		<path class="st2" d="M128.1,214.5l-0.4-0.2c-0.2-0.1-0.3-0.3-0.4-0.5c-0.1-0.2-0.1-0.4-0.1-0.7v-1.5c0-0.2,0-0.4,0.1-0.5
			c0.1-0.1,0.2,0,0.4,0.1l0.4,0.2c0.2,0.1,0.3,0.3,0.4,0.5c0.1,0.2,0.2,0.4,0.2,0.7v0.2c0,0.1,0,0.1-0.1,0.1l-0.3-0.2
			c0,0-0.1-0.1-0.1-0.1v-0.2c0-0.1,0-0.2,0-0.2c0-0.1-0.1-0.1-0.2-0.2l-0.2-0.1c-0.1,0-0.1-0.1-0.2,0c0,0,0,0.1,0,0.2v1.4
			c0,0.1,0,0.2,0,0.2c0,0.1,0.1,0.1,0.2,0.2l0.2,0.1c0.1,0,0.1,0.1,0.2,0c0,0,0-0.1,0-0.2v-0.2c0-0.1,0-0.1,0.1-0.1l0.3,0.2
			c0.1,0,0.1,0.1,0.1,0.2v0.2c0,0.2-0.1,0.4-0.2,0.5C128.4,214.6,128.3,214.6,128.1,214.5z"/>
		<path class="st2" d="M130.2,215.9l-1.1-0.7c0,0-0.1-0.1-0.1-0.1v-2.8c0-0.1,0-0.1,0.1-0.1l0.3,0.2c0,0,0.1,0.1,0.1,0.1v2.3
			c0,0,0,0.1,0,0.1l0.7,0.5c0,0,0.1,0.1,0.1,0.1L130.2,215.9C130.3,215.9,130.3,215.9,130.2,215.9z"/>
		<path class="st2" d="M130.8,216.2l-0.3-0.2c0,0-0.1-0.1,0-0.1l0.5-2.5c0-0.1,0-0.1,0.1,0l0.5,0.3c0.1,0,0.1,0.1,0.1,0.2l0.5,3.2
			c0,0.1,0,0.1,0,0.1l-0.3-0.2c0,0,0,0-0.1-0.1c0,0,0-0.1,0-0.1l-0.1-0.6l-0.7-0.4L130.8,216.2C130.9,216.2,130.9,216.2,130.8,216.2
			C130.8,216.3,130.8,216.2,130.8,216.2z M131.3,214.1l-0.2,1.2l0.5,0.3L131.3,214.1L131.3,214.1z"/>
		<path class="st2" d="M132.4,216.5L132.4,216.5c0-0.2,0-0.2,0.1-0.1l0.3,0.2c0,0,0.1,0.1,0.1,0.1v0c0,0.1,0,0.2,0.1,0.3
			c0,0.1,0.1,0.1,0.2,0.2l0.2,0.1c0.1,0.1,0.2,0.1,0.2,0c0,0,0.1-0.1,0.1-0.2v-0.1c0-0.1,0-0.2-0.1-0.3c-0.1-0.1-0.1-0.2-0.2-0.2
			c-0.1-0.1-0.2-0.1-0.3-0.2c-0.1-0.1-0.2-0.2-0.3-0.3c-0.1-0.1-0.1-0.2-0.2-0.4c-0.1-0.2-0.1-0.3-0.1-0.5V215
			c0-0.2,0.1-0.4,0.2-0.5c0.1-0.1,0.2-0.1,0.4,0.1l0.3,0.2c0.2,0.1,0.3,0.3,0.4,0.5c0.1,0.2,0.2,0.4,0.2,0.7v0.1
			c0,0.1,0,0.1-0.1,0.1l-0.3-0.2c0,0-0.1-0.1-0.1-0.1v0c0-0.1,0-0.2-0.1-0.3c0-0.1-0.1-0.1-0.2-0.2l-0.1-0.1c-0.1-0.1-0.2-0.1-0.2,0
			c0,0,0,0.1,0,0.3v0.1c0,0.1,0.1,0.3,0.3,0.4c0.2,0.1,0.4,0.3,0.5,0.5c0.1,0.1,0.1,0.2,0.2,0.4c0.1,0.2,0.1,0.3,0.1,0.5v0.2
			c0,0.2-0.1,0.4-0.2,0.5c-0.1,0.1-0.2,0.1-0.4-0.1l-0.4-0.2c-0.2-0.1-0.3-0.3-0.4-0.5C132.5,217,132.4,216.8,132.4,216.5z"/>
		<path class="st2" d="M134.3,217.7L134.3,217.7c0-0.2,0-0.2,0.1-0.1l0.3,0.2c0,0,0.1,0.1,0.1,0.1v0c0,0.1,0,0.2,0.1,0.3
			c0,0.1,0.1,0.1,0.2,0.2l0.2,0.1c0.1,0.1,0.2,0.1,0.2,0c0,0,0.1-0.1,0.1-0.2v-0.1c0-0.1,0-0.2-0.1-0.3c-0.1-0.1-0.1-0.2-0.2-0.2
			c-0.1-0.1-0.2-0.1-0.3-0.2c-0.1-0.1-0.2-0.2-0.3-0.3c-0.1-0.1-0.1-0.2-0.2-0.4c-0.1-0.2-0.1-0.3-0.1-0.5v-0.2
			c0-0.2,0.1-0.4,0.2-0.5c0.1-0.1,0.2-0.1,0.4,0.1l0.3,0.2c0.2,0.1,0.3,0.3,0.4,0.5c0.1,0.2,0.2,0.4,0.2,0.7v0.1
			c0,0.1,0,0.1-0.1,0.1l-0.3-0.2c0,0-0.1-0.1-0.1-0.1v0c0-0.1,0-0.2-0.1-0.3c0-0.1-0.1-0.1-0.2-0.2l-0.1-0.1c-0.1-0.1-0.2-0.1-0.2,0
			s0,0.1,0,0.3v0.1c0,0.1,0.1,0.3,0.3,0.4c0.2,0.1,0.4,0.3,0.5,0.5c0.1,0.1,0.1,0.2,0.2,0.4c0.1,0.2,0.1,0.3,0.1,0.5v0.2
			c0,0.2-0.1,0.4-0.2,0.5c-0.1,0.1-0.2,0.1-0.4-0.1l-0.4-0.2c-0.2-0.1-0.3-0.3-0.4-0.5C134.4,218.2,134.3,217.9,134.3,217.7z"/>
		<path class="st2" d="M137.9,220.8l-0.4-0.2c-0.2-0.1-0.3-0.3-0.4-0.5c-0.1-0.2-0.1-0.4-0.1-0.7v-1.5c0-0.3,0-0.4,0.1-0.5
			c0.1-0.1,0.2-0.1,0.4,0.1l0.4,0.2c0.2,0.1,0.3,0.3,0.4,0.5c0.1,0.2,0.1,0.4,0.1,0.7v1.5c0,0.3,0,0.4-0.1,0.5
			C138.2,220.9,138.1,220.9,137.9,220.8z M137.6,220l0.2,0.2c0.1,0,0.1,0.1,0.2,0s0-0.1,0-0.2v-1.5c0-0.1,0-0.2,0-0.2
			c0-0.1-0.1-0.1-0.2-0.2l-0.2-0.2c-0.1,0-0.1-0.1-0.2,0c0,0,0,0.1,0,0.2v1.5c0,0.1,0,0.2,0,0.2C137.5,219.9,137.5,220,137.6,220z"
			/>
		<path class="st2" d="M139.3,221.6l-0.3-0.2c0,0-0.1-0.1-0.1-0.1v-2.9c0-0.1,0-0.1,0.1-0.1l1.1,0.7c0,0,0.1,0.1,0.1,0.1v0.3
			c0,0.1,0,0.1-0.1,0.1l-0.7-0.4c0,0,0,0,0,0v0.8c0,0,0,0.1,0,0.1l0.6,0.4c0,0,0.1,0.1,0.1,0.1v0.3c0,0.1,0,0.1-0.1,0.1l-0.6-0.4
			c0,0,0,0,0,0L139.3,221.6C139.3,221.7,139.3,221.7,139.3,221.6z"/>
		<path class="st2" d="M140.8,222.6l-0.3-0.2c0,0-0.1-0.1-0.1-0.1v-2.9c0-0.1,0-0.1,0.1-0.1l1.1,0.7c0,0,0.1,0.1,0.1,0.1v0.3
			c0,0.1,0,0.1-0.1,0.1l-0.7-0.4c0,0,0,0,0,0v0.8c0,0,0,0.1,0,0.1l0.6,0.4c0,0,0.1,0.1,0.1,0.1v0.3c0,0.1,0,0.1-0.1,0.1l-0.6-0.4
			c0,0,0,0,0,0L140.8,222.6C140.9,222.6,140.9,222.7,140.8,222.6z"/>
		<path class="st2" d="M142.5,220.6v3c0,0.1,0,0.1-0.1,0.1l-0.3-0.2c0,0-0.1-0.1-0.1-0.1v-3c0-0.1,0-0.1,0.1-0.1l0.3,0.2
			C142.4,220.5,142.5,220.6,142.5,220.6z"/>
		<path class="st2" d="M143.8,224.6l-0.4-0.2c-0.2-0.1-0.3-0.3-0.4-0.5c-0.1-0.2-0.1-0.4-0.1-0.7v-1.6c0-0.3,0-0.4,0.1-0.5
			c0.1-0.1,0.2-0.1,0.4,0.1l0.4,0.2c0.2,0.1,0.3,0.3,0.4,0.5c0.1,0.2,0.2,0.4,0.2,0.7v0.2c0,0.1,0,0.1-0.1,0.1l-0.3-0.2
			c0,0-0.1-0.1-0.1-0.2v-0.2c0-0.1,0-0.2,0-0.3c0-0.1-0.1-0.1-0.2-0.2l-0.2-0.1c-0.1,0-0.1-0.1-0.2,0c0,0,0,0.1,0,0.2v1.5
			c0,0.1,0,0.2,0,0.3c0,0.1,0.1,0.1,0.2,0.2l0.2,0.1c0.1,0,0.1,0.1,0.2,0c0,0,0-0.1,0-0.2v-0.2c0-0.1,0-0.1,0.1-0.1l0.3,0.2
			c0.1,0,0.1,0.1,0.1,0.2v0.2c0,0.3,0,0.4-0.2,0.5C144.1,224.7,144,224.7,143.8,224.6z"/>
		<path class="st2" d="M145.7,225.8l-0.4-0.2c-0.2-0.1-0.3-0.3-0.4-0.5c-0.1-0.2-0.1-0.4-0.1-0.7v-1.6c0-0.3,0-0.4,0.1-0.5
			c0.1-0.1,0.2-0.1,0.4,0.1l0.4,0.2c0.2,0.1,0.3,0.3,0.4,0.5c0.1,0.2,0.2,0.4,0.2,0.7v0.2c0,0.1,0,0.1-0.1,0.1l-0.3-0.2
			c0,0-0.1-0.1-0.1-0.2v-0.2c0-0.1,0-0.2,0-0.3c0-0.1-0.1-0.1-0.2-0.2l-0.2-0.1c-0.1,0-0.1-0.1-0.2,0c0,0,0,0.1,0,0.2v1.5
			c0,0.1,0,0.2,0,0.3c0,0.1,0.1,0.1,0.2,0.2l0.2,0.1c0.1,0,0.1,0.1,0.2,0c0,0,0-0.1,0-0.2v-0.2c0-0.1,0-0.1,0.1-0.1l0.3,0.2
			c0.1,0,0.1,0.1,0.1,0.2v0.2c0,0.3,0,0.4-0.2,0.5C146,225.9,145.9,225.9,145.7,225.8z"/>
		<path class="st2" d="M147.8,227.1l-1.1-0.7c0,0-0.1-0.1-0.1-0.2v-3c0-0.1,0-0.1,0.1-0.1l1.1,0.7c0,0,0.1,0.1,0.1,0.1v0.3
			c0,0.1,0,0.1-0.1,0.1l-0.7-0.5c0,0,0,0,0,0v0.7c0,0,0,0.1,0,0.1l0.6,0.4c0,0,0.1,0.1,0.1,0.2v0.3c0,0.1,0,0.1-0.1,0.1l-0.6-0.4
			c0,0,0,0,0,0v0.7c0,0,0,0.1,0,0.1l0.7,0.5c0,0,0.1,0.1,0.1,0.1L147.8,227.1C147.9,227.1,147.9,227.2,147.8,227.1z"/>
		<path class="st2" d="M148.7,227.7l-0.3-0.2c0,0-0.1-0.1-0.1-0.2v-3c0-0.1,0-0.1,0.1-0.1l0.8,0.5c0.2,0.1,0.3,0.3,0.4,0.5
			c0.1,0.2,0.2,0.4,0.2,0.7v0.4c0,0.4-0.1,0.6-0.3,0.6v0l0.4,1.4c0,0.1,0,0.1-0.1,0.1l-0.3-0.2c0,0-0.1-0.1-0.1-0.1c0,0,0-0.1,0-0.1
			l-0.3-1.3l-0.2-0.1c0,0,0,0,0,0L148.7,227.7C148.7,227.7,148.7,227.7,148.7,227.7z M148.8,226l0.3,0.2c0.1,0,0.1,0.1,0.2,0
			c0,0,0.1-0.1,0.1-0.2v-0.4c0-0.1,0-0.2-0.1-0.3c0-0.1-0.1-0.1-0.2-0.2l-0.3-0.2c0,0,0,0,0,0L148.8,226
			C148.7,226,148.7,226,148.8,226z"/>
		<path class="st2" d="M150.1,227.8v-0.1c0-0.1,0-0.1,0.1-0.1l0.3,0.2c0,0,0.1,0.1,0.1,0.2v0c0,0.1,0,0.2,0.1,0.3
			c0,0.1,0.1,0.1,0.2,0.2l0.2,0.1c0.1,0.1,0.2,0.1,0.2,0c0,0,0.1-0.1,0.1-0.3v-0.1c0-0.1,0-0.2-0.1-0.3c-0.1-0.1-0.1-0.2-0.2-0.2
			c-0.1-0.1-0.2-0.1-0.3-0.2c-0.1-0.1-0.2-0.2-0.3-0.3c-0.1-0.1-0.1-0.2-0.2-0.4c-0.1-0.2-0.1-0.4-0.1-0.6v-0.2
			c0-0.3,0.1-0.4,0.2-0.5c0.1-0.1,0.2-0.1,0.4,0l0.3,0.2c0.2,0.1,0.3,0.3,0.4,0.5c0.1,0.2,0.2,0.4,0.2,0.7v0.1c0,0.1,0,0.1-0.1,0.1
			l-0.3-0.2c0,0-0.1-0.1-0.1-0.2v0c0-0.1,0-0.2-0.1-0.3c0-0.1-0.1-0.1-0.2-0.2l-0.1-0.1c-0.1-0.1-0.2-0.1-0.2,0s0,0.1,0,0.3v0.1
			c0,0.2,0.1,0.3,0.3,0.5c0.2,0.1,0.4,0.3,0.5,0.5c0.1,0.1,0.1,0.2,0.2,0.4c0.1,0.2,0.1,0.3,0.1,0.6v0.2c0,0.3-0.1,0.4-0.2,0.5
			c-0.1,0.1-0.2,0.1-0.4,0l-0.4-0.2c-0.2-0.1-0.3-0.3-0.4-0.5C150.2,228.3,150.1,228,150.1,227.8z"/>
		<path class="st2" d="M85.9,192.1l-0.3-0.2c0,0-0.1-0.1,0-0.1l0.5-1.9c0,0,0.1,0,0.1,0l0.5,0.3c0.1,0,0.1,0.1,0.1,0.1l0.5,2.7
			c0,0.1,0,0.1,0,0.1l-0.3-0.2c0,0,0,0-0.1-0.1c0,0,0,0,0-0.1l-0.1-0.5l-0.7-0.4L85.9,192.1C86,192.1,86,192.1,85.9,192.1
			C86,192.1,86,192.1,85.9,192.1z M86.4,190.4l-0.2,0.9l0.5,0.3L86.4,190.4L86.4,190.4z"/>
		<path class="st2" d="M88,193.4l-0.3-0.2c0,0-0.1-0.1-0.1-0.1v-2.3c0-0.1,0-0.1,0.1,0l0.8,0.5c0.2,0.1,0.3,0.3,0.4,0.4
			c0.1,0.2,0.2,0.4,0.2,0.6v0.3c0,0.3-0.1,0.4-0.3,0.4v0l0.4,1.1c0,0.1,0,0.1-0.1,0.1l-0.3-0.2c0,0-0.1-0.1-0.1-0.1c0,0,0-0.1,0-0.1
			l-0.3-1.1l-0.2-0.2c0,0,0,0,0,0L88,193.4C88.1,193.4,88,193.5,88,193.4z M88.1,192.2l0.3,0.2c0.1,0,0.1,0.1,0.2,0.1
			c0,0,0.1-0.1,0.1-0.1V192c0-0.1,0-0.1-0.1-0.2c0-0.1-0.1-0.1-0.2-0.2l-0.3-0.2c0,0,0,0,0,0L88.1,192.2
			C88.1,192.2,88.1,192.2,88.1,192.2z"/>
		<path class="st2" d="M90.7,195.2l-1.1-0.8c0,0-0.1-0.1-0.1-0.1V192c0-0.1,0-0.1,0.1,0l1.1,0.7c0,0,0.1,0.1,0.1,0.1v0.3
			c0,0.1,0,0.1-0.1,0l-0.7-0.5c0,0,0,0,0,0v0.5c0,0,0,0.1,0,0.1l0.6,0.4c0,0,0.1,0.1,0.1,0.1v0.3c0,0.1,0,0.1-0.1,0l-0.6-0.4
			c0,0,0,0,0,0v0.5c0,0,0,0.1,0,0.1l0.7,0.5c0,0,0.1,0.1,0.1,0.1L90.7,195.2C90.8,195.3,90.8,195.3,90.7,195.2z"/>
		<path class="st2" d="M92.2,196.2l-0.3-0.2c0,0-0.1-0.1,0-0.1l0.5-2c0,0,0.1,0,0.1,0l0.5,0.3c0.1,0,0.1,0.1,0.1,0.2l0.5,2.7
			c0,0.1,0,0.1,0,0.1l-0.3-0.2c0,0,0,0-0.1-0.1c0,0,0,0,0-0.1l-0.1-0.5l-0.7-0.4L92.2,196.2C92.2,196.2,92.2,196.2,92.2,196.2
			C92.2,196.2,92.2,196.2,92.2,196.2z M92.7,194.5l-0.2,1l0.5,0.3L92.7,194.5L92.7,194.5z"/>
		<path class="st2" d="M95.1,198.1l-1.1-0.8c0,0-0.1-0.1-0.1-0.1v-2.4c0-0.1,0-0.1,0.1,0l0.3,0.2c0,0,0.1,0.1,0.1,0.1v2
			c0,0,0,0.1,0,0.1l0.7,0.5c0,0,0.1,0.1,0.1,0.1L95.1,198.1C95.1,198.1,95.1,198.1,95.1,198.1z"/>
		<path class="st2" d="M96.6,199.1l-1.1-0.8c0,0-0.1-0.1-0.1-0.1v-2.4c0-0.1,0-0.1,0.1,0l0.3,0.2c0,0,0.1,0.1,0.1,0.1v2
			c0,0,0,0.1,0,0.1l0.7,0.5c0,0,0.1,0.1,0.1,0.1L96.6,199.1C96.7,199.2,96.7,199.2,96.6,199.1z"/>
		<path class="st2" d="M97.9,200l-0.4-0.3c-0.2-0.1-0.3-0.3-0.4-0.4c-0.1-0.2-0.1-0.4-0.1-0.6v-1.3c0-0.2,0-0.3,0.1-0.4
			c0.1,0,0.2,0,0.4,0.1l0.4,0.3c0.2,0.1,0.3,0.3,0.4,0.4c0.1,0.2,0.1,0.4,0.1,0.6v1.3c0,0.2,0,0.3-0.1,0.4
			C98.2,200.1,98.1,200.1,97.9,200z M97.6,199.3l0.2,0.2c0.1,0,0.1,0.1,0.2,0c0,0,0-0.1,0-0.2v-1.2c0-0.1,0-0.2,0-0.2
			c0-0.1-0.1-0.1-0.2-0.2l-0.2-0.2c-0.1,0-0.1-0.1-0.2,0c0,0,0,0.1,0,0.2v1.2c0,0.1,0,0.2,0,0.2S97.5,199.3,97.6,199.3z"/>
		<path class="st2" d="M99.6,201.2l-0.5-0.3c-0.1,0-0.1-0.1-0.1-0.1l-0.4-2.7c0-0.1,0-0.1,0.1,0l0.4,0.2c0.1,0,0.1,0.1,0.1,0.1
			l0.2,2.1l0,0l0.3-1.8c0,0,0-0.1,0.1,0l0.4,0.3c0,0,0.1,0.1,0.1,0.1l0.3,2.3l0,0l0.2-1.9c0-0.1,0-0.1,0.1,0l0.4,0.2
			c0.1,0,0.1,0.1,0.1,0.1L101,202c0,0.1,0,0.1-0.1,0l-0.5-0.3c0,0-0.1-0.1-0.1-0.1l-0.3-2.1l0,0L99.6,201.2
			C99.7,201.2,99.7,201.2,99.6,201.2z"/>
		<path class="st2" d="M102.9,203.3l-1.1-0.8c0,0-0.1-0.1-0.1-0.1v-2.5c0-0.1,0-0.1,0.1,0l1.1,0.7c0,0,0.1,0.1,0.1,0.1v0.3
			c0,0.1,0,0.1-0.1,0l-0.7-0.5c0,0,0,0,0,0v0.5c0,0,0,0.1,0,0.1l0.6,0.4c0,0,0.1,0.1,0.1,0.1v0.3c0,0.1,0,0.1-0.1,0l-0.6-0.4
			c0,0,0,0,0,0v0.6c0,0,0,0.1,0,0.1l0.7,0.5c0,0,0.1,0.1,0.1,0.1L102.9,203.3C102.9,203.3,102.9,203.3,102.9,203.3z"/>
		<path class="st2" d="M103.3,203.5V201c0-0.1,0-0.1,0.1,0l0.9,0.6c0.2,0.1,0.3,0.3,0.4,0.5c0.1,0.2,0.1,0.4,0.1,0.6v1.3
			c0,0.2,0,0.4-0.1,0.4c-0.1,0.1-0.2,0-0.4-0.1l-0.9-0.6C103.3,203.6,103.3,203.6,103.3,203.5z M103.8,203.5l0.4,0.2
			c0.1,0,0.1,0.1,0.2,0c0,0,0-0.1,0-0.2v-1.3c0-0.1,0-0.2,0-0.2c0-0.1-0.1-0.1-0.2-0.2l-0.4-0.2c0,0,0,0,0,0L103.8,203.5
			C103.7,203.4,103.8,203.4,103.8,203.5z"/>
		<path class="st2" d="M107.4,206.3l-0.3-0.2c-0.1,0-0.1-0.1-0.1-0.1v-2.1c0,0,0-0.1,0-0.1l-0.4-0.3c0,0-0.1-0.1-0.1-0.1v-0.3
			c0-0.1,0-0.1,0.1,0l1.3,0.9c0,0,0.1,0.1,0.1,0.1v0.3c0,0.1,0,0.1-0.1,0l-0.4-0.3c0,0,0,0,0,0L107.4,206.3
			C107.5,206.3,107.5,206.4,107.4,206.3z"/>
		<path class="st2" d="M109.2,207.5l-0.4-0.3c-0.2-0.1-0.3-0.3-0.4-0.5c-0.1-0.2-0.1-0.4-0.1-0.6v-1.3c0-0.2,0-0.4,0.1-0.4
			c0.1-0.1,0.2,0,0.4,0.1l0.4,0.3c0.2,0.1,0.3,0.3,0.4,0.5c0.1,0.2,0.1,0.4,0.1,0.6v1.4c0,0.2,0,0.4-0.1,0.4
			C109.5,207.7,109.4,207.6,109.2,207.5z M108.9,206.8l0.2,0.2c0.1,0,0.1,0.1,0.2,0c0,0,0-0.1,0-0.2v-1.3c0-0.1,0-0.2,0-0.2
			c0-0.1-0.1-0.1-0.2-0.2l-0.2-0.2c-0.1,0-0.1-0.1-0.2,0c0,0,0,0.1,0,0.2v1.3c0,0.1,0,0.2,0,0.2S108.8,206.8,108.9,206.8z"/>
		<path class="st2" d="M112.4,206.9l0.5,0.3c0,0,0.1,0.1,0.1,0.1v2.6c0,0.1,0,0.1-0.1,0l-0.3-0.2c0,0-0.1-0.1-0.1-0.1v-2l0,0
			l-0.4,1.2c0,0,0,0.1-0.1,0l-0.3-0.2c0,0-0.1-0.1-0.1-0.1l-0.4-1.7l0,0v2c0,0,0,0.1,0,0.1c0,0,0,0-0.1,0l-0.3-0.2
			c0,0-0.1-0.1-0.1-0.1V206c0-0.1,0-0.1,0.1,0l0.5,0.3c0,0,0.1,0.1,0.1,0.1l0.4,1.8l0,0L112.4,206.9
			C112.3,206.8,112.4,206.8,112.4,206.9z"/>
		<path class="st2" d="M113.7,210.5l-0.3-0.2c0,0-0.1-0.1,0-0.1l0.5-2.3c0-0.1,0.1-0.1,0.1,0l0.5,0.3c0.1,0,0.1,0.1,0.1,0.2l0.5,3
			c0,0.1,0,0.1,0,0.1l-0.3-0.2c0,0,0,0-0.1-0.1c0,0,0,0,0-0.1l-0.1-0.5l-0.7-0.4L113.7,210.5C113.7,210.5,113.7,210.5,113.7,210.5
			C113.7,210.5,113.7,210.5,113.7,210.5z M114.2,208.5l-0.2,1.1l0.5,0.3L114.2,208.5L114.2,208.5z"/>
		<path class="st2" d="M115.7,211.8l-0.3-0.2c0,0-0.1-0.1-0.1-0.1v-2.6c0-0.1,0-0.1,0.1,0l0.3,0.2c0,0,0.1,0.1,0.1,0.1l0.7,2.1l0,0
			v-1.6c0-0.1,0-0.1,0.1,0l0.3,0.2c0,0,0.1,0.1,0.1,0.1v2.7c0,0.1,0,0.1-0.1,0l-0.3-0.2c-0.1,0-0.1-0.1-0.1-0.2l-0.7-2.1l0,0
			L115.7,211.8C115.8,211.9,115.8,211.9,115.7,211.8z"/>
		<path class="st2" d="M117.8,210.5v2.7c0,0.1,0,0.1-0.1,0l-0.3-0.2c0,0-0.1-0.1-0.1-0.1v-2.7c0-0.1,0-0.1,0.1,0l0.3,0.2
			C117.8,210.4,117.8,210.4,117.8,210.5z"/>
		<path class="st2" d="M118.7,213.8l-0.3-0.2c0,0-0.1-0.1-0.1-0.1v-2.7c0-0.1,0-0.1,0.1,0l0.8,0.5c0.2,0.1,0.3,0.3,0.4,0.5
			c0.1,0.2,0.1,0.4,0.1,0.6v0.4c0,0.2,0,0.4-0.1,0.4c-0.1,0.1-0.2,0-0.4-0.1l-0.4-0.3c0,0,0,0,0,0L118.7,213.8
			C118.7,213.8,118.7,213.8,118.7,213.8z M118.8,212.4l0.4,0.2c0.1,0,0.1,0.1,0.2,0c0,0,0-0.1,0-0.2v-0.4c0-0.1,0-0.2,0-0.2
			c0-0.1-0.1-0.1-0.2-0.2l-0.4-0.2c0,0,0,0,0,0L118.8,212.4C118.7,212.4,118.8,212.4,118.8,212.4z"/>
		<path class="st2" d="M121.3,212.6l0.3,0.2c0.1,0,0.1,0.1,0.1,0.1v2.1c0,0.2,0,0.4-0.1,0.4c-0.1,0.1-0.2,0-0.4-0.1l-0.4-0.3
			c-0.2-0.1-0.3-0.3-0.4-0.5c-0.1-0.2-0.1-0.4-0.1-0.6V212c0-0.1,0-0.1,0.1,0l0.3,0.2c0,0,0.1,0.1,0.1,0.1v2c0,0.1,0,0.2,0,0.2
			c0,0.1,0.1,0.1,0.2,0.2l0.2,0.2c0.1,0,0.1,0.1,0.2,0c0,0,0-0.1,0-0.2L121.3,212.6C121.2,212.6,121.2,212.6,121.3,212.6z"/>
		<path class="st2" d="M123.3,216.9l-1.1-0.8c0,0-0.1-0.1-0.1-0.1v-2.7c0-0.1,0-0.1,0.1,0l0.3,0.2c0,0,0.1,0.1,0.1,0.1v2.3
			c0,0,0,0.1,0,0.1l0.7,0.5c0,0,0.1,0.1,0.1,0.1L123.3,216.9C123.3,216.9,123.3,216.9,123.3,216.9z"/>
		<path class="st2" d="M123.8,217.2l-0.3-0.2c0,0-0.1-0.1,0-0.1l0.5-2.4c0-0.1,0.1-0.1,0.1,0l0.5,0.3c0.1,0,0.1,0.1,0.1,0.2l0.5,3.1
			c0,0.1,0,0.1,0,0.1l-0.3-0.2c0,0,0,0-0.1-0.1c0,0,0,0,0-0.1l-0.1-0.6l-0.7-0.4L123.8,217.2C123.9,217.2,123.9,217.2,123.8,217.2
			C123.9,217.3,123.9,217.3,123.8,217.2z M124.3,215.2l-0.2,1.2l0.5,0.3L124.3,215.2L124.3,215.2z"/>
		<path class="st2" d="M126.2,218.8l-0.3-0.2c-0.1,0-0.1-0.1-0.1-0.1v-2.3c0,0,0-0.1,0-0.1l-0.4-0.3c0,0-0.1-0.1-0.1-0.1v-0.3
			c0-0.1,0-0.1,0.1,0l1.3,0.9c0,0,0.1,0.1,0.1,0.1v0.3c0,0.1,0,0.1-0.1,0.1l-0.4-0.3c0,0,0,0,0,0L126.2,218.8
			C126.3,218.8,126.3,218.8,126.2,218.8z"/>
		<path class="st2" d="M128.3,220.2l-1.1-0.7c0,0-0.1-0.1-0.1-0.1v-2.8c0-0.1,0-0.1,0.1-0.1l1.1,0.7c0,0,0.1,0.1,0.1,0.1v0.3
			c0,0.1,0,0.1-0.1,0.1l-0.7-0.5c0,0,0,0,0,0v0.6c0,0,0,0.1,0,0.1l0.6,0.4c0,0,0.1,0.1,0.1,0.1v0.3c0,0.1,0,0.1-0.1,0l-0.6-0.4
			c0,0,0,0,0,0v0.6c0,0,0,0.1,0,0.1l0.7,0.5c0,0,0.1,0.1,0.1,0.1L128.3,220.2C128.3,220.2,128.3,220.2,128.3,220.2z"/>
		<path class="st2" d="M128.7,220.4v-2.8c0-0.1,0-0.1,0.1-0.1l0.9,0.6c0.2,0.1,0.3,0.3,0.4,0.5c0.1,0.2,0.2,0.4,0.2,0.7v1.5
			c0,0.2,0,0.4-0.2,0.5c-0.1,0.1-0.2,0-0.4-0.1l-0.9-0.6C128.7,220.5,128.7,220.4,128.7,220.4z M129.2,220.3l0.4,0.2
			c0.1,0,0.1,0.1,0.2,0c0,0,0-0.1,0-0.2V219c0-0.1,0-0.2,0-0.2c0-0.1-0.1-0.1-0.2-0.2l-0.4-0.2c0,0,0,0,0,0L129.2,220.3
			C129.2,220.2,129.2,220.3,129.2,220.3z"/>
		<path class="st2" d="M131,221.3v0.4c0,0.1,0,0.2-0.1,0.2l-0.2,0.3c0,0,0,0-0.1,0c0,0-0.1-0.1-0.1-0.1V221c0-0.1,0-0.1,0.1,0
			l0.3,0.2C131,221.2,131,221.2,131,221.3z"/>
		<path class="st2" d="M132.3,222.9l-0.3-0.2c0,0-0.1-0.1,0-0.1l0.5-2.5c0-0.1,0-0.1,0.1,0l0.5,0.3c0.1,0,0.1,0.1,0.1,0.2l0.5,3.2
			c0,0.1,0,0.1,0,0.1l-0.3-0.2c0,0,0,0-0.1-0.1c0,0,0-0.1,0-0.1l-0.1-0.6l-0.7-0.4L132.3,222.9C132.4,222.9,132.4,222.9,132.3,222.9
			C132.4,222.9,132.4,222.9,132.3,222.9z M132.8,220.7l-0.2,1.2l0.5,0.3L132.8,220.7L132.8,220.7z"/>
		<path class="st2" d="M134.9,224.6l-0.4-0.2c-0.2-0.1-0.3-0.3-0.4-0.5c-0.1-0.2-0.1-0.4-0.1-0.7v-1.5c0-0.2,0-0.4,0.1-0.5
			c0.1-0.1,0.2,0,0.4,0.1l0.4,0.2c0.2,0.1,0.3,0.3,0.4,0.5c0.1,0.2,0.2,0.4,0.2,0.7v0.2c0,0.1,0,0.1-0.1,0.1l-0.3-0.2
			c0,0-0.1-0.1-0.1-0.2v-0.2c0-0.1,0-0.2,0-0.2c0-0.1-0.1-0.1-0.2-0.2l-0.2-0.2c-0.1,0-0.1-0.1-0.2,0c0,0,0,0.1,0,0.2v1.5
			c0,0.1,0,0.2,0,0.2c0,0.1,0.1,0.1,0.2,0.2l0.2,0.2c0.1,0,0.1,0.1,0.2,0c0,0,0-0.1,0-0.2v-0.2c0-0.1,0-0.1,0.1-0.1l0.3,0.2
			c0.1,0,0.1,0.1,0.1,0.2v0.2c0,0.2,0,0.4-0.2,0.5C135.3,224.7,135.1,224.7,134.9,224.6z"/>
		<path class="st2" d="M136.8,225.8l-0.4-0.2c-0.2-0.1-0.3-0.3-0.4-0.5c-0.1-0.2-0.1-0.4-0.1-0.7v-1.5c0-0.3,0-0.4,0.1-0.5
			c0.1-0.1,0.2,0,0.4,0.1l0.4,0.2c0.2,0.1,0.3,0.3,0.4,0.5c0.1,0.2,0.2,0.4,0.2,0.7v0.2c0,0.1,0,0.1-0.1,0.1L137,224
			c0,0-0.1-0.1-0.1-0.2v-0.2c0-0.1,0-0.2,0-0.2c0-0.1-0.1-0.1-0.2-0.2l-0.2-0.2c-0.1,0-0.1-0.1-0.2,0c0,0,0,0.1,0,0.2v1.5
			c0,0.1,0,0.2,0,0.2c0,0.1,0.1,0.1,0.2,0.2l0.2,0.2c0.1,0,0.1,0.1,0.2,0c0,0,0-0.1,0-0.2v-0.2c0-0.1,0-0.1,0.1-0.1l0.3,0.2
			c0.1,0,0.1,0.1,0.1,0.2v0.2c0,0.3,0,0.4-0.2,0.5C137.1,226,137,226,136.8,225.8z"/>
		<path class="st2" d="M138.9,227.3l-1.1-0.7c0,0-0.1-0.1-0.1-0.1v-2.9c0-0.1,0-0.1,0.1-0.1l1.1,0.7c0,0,0.1,0.1,0.1,0.1v0.3
			c0,0.1,0,0.1-0.1,0.1l-0.7-0.5c0,0,0,0,0,0v0.6c0,0,0,0.1,0,0.1l0.6,0.4c0,0,0.1,0.1,0.1,0.1v0.3c0,0.1,0,0.1-0.1,0.1l-0.6-0.4
			c0,0,0,0,0,0v0.7c0,0,0,0.1,0,0.1l0.7,0.5c0,0,0.1,0.1,0.1,0.1L138.9,227.3C139,227.3,139,227.3,138.9,227.3z"/>
		<path class="st2" d="M139.3,226.7L139.3,226.7c0-0.2,0-0.2,0.1-0.2l0.3,0.2c0,0,0.1,0.1,0.1,0.2v0c0,0.1,0,0.2,0.1,0.3
			c0,0.1,0.1,0.1,0.2,0.2l0.2,0.1c0.1,0.1,0.2,0.1,0.2,0.1c0,0,0.1-0.1,0.1-0.2v-0.1c0-0.1,0-0.2-0.1-0.3c-0.1-0.1-0.1-0.2-0.2-0.2
			c-0.1-0.1-0.2-0.1-0.3-0.2c-0.1-0.1-0.2-0.2-0.3-0.3c-0.1-0.1-0.1-0.2-0.2-0.4c-0.1-0.2-0.1-0.3-0.1-0.5v-0.2
			c0-0.3,0.1-0.4,0.2-0.5c0.1-0.1,0.2-0.1,0.4,0.1l0.3,0.2c0.2,0.1,0.3,0.3,0.4,0.5c0.1,0.2,0.2,0.4,0.2,0.7v0.1
			c0,0.1,0,0.1-0.1,0.1l-0.3-0.2c0,0-0.1-0.1-0.1-0.1v0c0-0.1,0-0.2-0.1-0.3c0-0.1-0.1-0.1-0.2-0.2l-0.1-0.1c-0.1-0.1-0.2-0.1-0.2,0
			c0,0,0,0.1,0,0.3v0.1c0,0.2,0.1,0.3,0.3,0.4c0.2,0.2,0.4,0.3,0.5,0.5c0.1,0.1,0.1,0.2,0.2,0.4c0.1,0.2,0.1,0.3,0.1,0.5v0.2
			c0,0.3-0.1,0.4-0.2,0.5c-0.1,0.1-0.2,0.1-0.4-0.1l-0.4-0.3c-0.2-0.1-0.3-0.3-0.4-0.5C139.4,227.2,139.3,227,139.3,226.7z"/>
		<path class="st2" d="M141.2,228L141.2,228c0-0.2,0-0.2,0.1-0.2l0.3,0.2c0,0,0.1,0.1,0.1,0.2v0c0,0.1,0,0.2,0.1,0.3
			c0,0.1,0.1,0.1,0.2,0.2l0.2,0.1c0.1,0.1,0.2,0.1,0.2,0c0,0,0.1-0.1,0.1-0.2v-0.1c0-0.1,0-0.2-0.1-0.3c-0.1-0.1-0.1-0.2-0.2-0.2
			c-0.1-0.1-0.2-0.1-0.3-0.2c-0.1-0.1-0.2-0.2-0.3-0.3c-0.1-0.1-0.1-0.2-0.2-0.4c-0.1-0.2-0.1-0.3-0.1-0.5v-0.2
			c0-0.3,0.1-0.4,0.2-0.5c0.1-0.1,0.2-0.1,0.4,0.1l0.3,0.2c0.2,0.1,0.3,0.3,0.4,0.5c0.1,0.2,0.2,0.4,0.2,0.7v0.1
			c0,0.1,0,0.1-0.1,0.1l-0.3-0.2c0,0-0.1-0.1-0.1-0.2v0c0-0.1,0-0.2-0.1-0.3c0-0.1-0.1-0.1-0.2-0.2l-0.1-0.1c-0.1-0.1-0.2-0.1-0.2,0
			s0,0.1,0,0.3v0.1c0,0.2,0.1,0.3,0.3,0.5c0.2,0.2,0.4,0.3,0.5,0.5c0.1,0.1,0.1,0.2,0.2,0.4c0.1,0.2,0.1,0.3,0.1,0.5v0.2
			c0,0.3-0.1,0.4-0.2,0.5c-0.1,0.1-0.2,0.1-0.4-0.1l-0.4-0.3c-0.2-0.1-0.3-0.3-0.4-0.5C141.2,228.4,141.2,228.2,141.2,228z"/>
		<path class="st2" d="M144.8,231.1l-0.4-0.3c-0.2-0.1-0.3-0.3-0.4-0.5c-0.1-0.2-0.1-0.4-0.1-0.7v-1.6c0-0.3,0-0.4,0.1-0.5
			c0.1-0.1,0.2-0.1,0.4,0.1l0.4,0.3c0.2,0.1,0.3,0.3,0.4,0.5c0.1,0.2,0.1,0.4,0.1,0.7v1.6c0,0.3,0,0.4-0.1,0.5
			C145.1,231.3,145,231.3,144.8,231.1z M144.5,230.4l0.2,0.2c0.1,0,0.1,0.1,0.2,0c0,0,0-0.1,0-0.2v-1.5c0-0.1,0-0.2,0-0.3
			s-0.1-0.1-0.2-0.2l-0.2-0.2c-0.1,0-0.1-0.1-0.2,0c0,0,0,0.1,0,0.2v1.5c0,0.1,0,0.2,0,0.3C144.4,230.3,144.4,230.3,144.5,230.4z"/>
		<path class="st2" d="M146.1,232l-0.3-0.2c0,0-0.1-0.1-0.1-0.2v-3c0-0.1,0-0.1,0.1-0.1l1.1,0.7c0,0,0.1,0.1,0.1,0.2v0.3
			c0,0.1,0,0.1-0.1,0.1l-0.7-0.5c0,0,0,0,0,0v0.8c0,0,0,0.1,0,0.1l0.6,0.4c0,0,0.1,0.1,0.1,0.2v0.3c0,0.1,0,0.1-0.1,0.1l-0.6-0.4
			c0,0,0,0,0,0L146.1,232C146.2,232.1,146.2,232.1,146.1,232z"/>
		<path class="st2" d="M85.7,196.4v-2.3c0-0.1,0-0.1,0.1,0l0.9,0.6c0.2,0.1,0.3,0.3,0.4,0.4c0.1,0.2,0.1,0.4,0.1,0.6v1.2
			c0,0.2,0,0.3-0.1,0.4c-0.1,0-0.2,0-0.4-0.1l-0.9-0.6C85.7,196.5,85.7,196.4,85.7,196.4z M86.2,196.4l0.4,0.3
			c0.1,0.1,0.1,0.1,0.2,0.1c0,0,0-0.1,0-0.1v-1.2c0-0.1,0-0.1,0-0.2c0-0.1-0.1-0.1-0.2-0.2l-0.4-0.3c0,0,0,0,0,0L86.2,196.4
			C86.1,196.3,86.2,196.3,86.2,196.4z"/>
		<path class="st2" d="M88.1,195.7v2.3c0,0.1,0,0.1-0.1,0l-0.3-0.2c0,0-0.1-0.1-0.1-0.1v-2.3c0-0.1,0-0.1,0.1,0l0.3,0.2
			C88,195.6,88.1,195.6,88.1,195.7z"/>
		<path class="st2" d="M88.5,197.7L88.5,197.7c0-0.1,0-0.1,0.1-0.1l0.3,0.2c0,0,0.1,0.1,0.1,0.1v0c0,0.1,0,0.2,0.1,0.2
			c0,0.1,0.1,0.1,0.2,0.2l0.2,0.1c0.1,0.1,0.2,0.1,0.2,0.1c0,0,0.1-0.1,0.1-0.2v0c0-0.1,0-0.2-0.1-0.2c-0.1-0.1-0.1-0.1-0.2-0.2
			c-0.1-0.1-0.2-0.1-0.3-0.2c-0.1-0.1-0.2-0.2-0.3-0.3c-0.1-0.1-0.1-0.2-0.2-0.3c-0.1-0.1-0.1-0.3-0.1-0.4v-0.1
			c0-0.2,0.1-0.3,0.2-0.4c0.1,0,0.2,0,0.4,0.1l0.3,0.2c0.2,0.1,0.3,0.3,0.4,0.5c0.1,0.2,0.2,0.4,0.2,0.6v0.1c0,0.1,0,0.1-0.1,0
			l-0.3-0.2c0,0-0.1-0.1-0.1-0.1v0c0-0.1,0-0.2-0.1-0.2c0-0.1-0.1-0.1-0.2-0.2l-0.1-0.1c-0.1-0.1-0.2-0.1-0.2-0.1c0,0,0,0.1,0,0.2
			v0.1c0,0.1,0.1,0.3,0.3,0.4c0.2,0.2,0.4,0.3,0.5,0.5c0.1,0.1,0.1,0.2,0.2,0.3c0.1,0.1,0.1,0.3,0.1,0.4v0.1c0,0.2-0.1,0.3-0.2,0.4
			c-0.1,0-0.2,0-0.4-0.1l-0.4-0.3c-0.2-0.1-0.3-0.3-0.4-0.5C88.5,198.1,88.5,197.9,88.5,197.7z"/>
		<path class="st2" d="M90.6,199.8l-0.3-0.2c0,0-0.1-0.1,0-0.1l0.5-2c0,0,0.1,0,0.1,0l0.5,0.3c0.1,0,0.1,0.1,0.1,0.2l0.5,2.7
			c0,0.1,0,0.1,0,0.1l-0.3-0.2c0,0,0,0-0.1-0.1c0,0,0,0,0-0.1l-0.1-0.5l-0.7-0.5L90.6,199.8C90.7,199.8,90.7,199.9,90.6,199.8
			C90.7,199.9,90.7,199.9,90.6,199.8z M91.1,198.1l-0.2,1l0.5,0.3L91.1,198.1L91.1,198.1z"/>
		<path class="st2" d="M92.3,200.9v-2.4c0-0.1,0-0.1,0.1,0l0.8,0.6c0.2,0.1,0.3,0.3,0.4,0.5c0.1,0.2,0.1,0.4,0.1,0.6v0.2
			c0,0.2-0.1,0.3-0.3,0.2c0.1,0.1,0.2,0.2,0.2,0.3c0.1,0.1,0.1,0.2,0.1,0.4v0.2c0,0.2,0,0.3-0.1,0.4c-0.1,0-0.2,0-0.4-0.1l-0.9-0.6
			C92.3,201,92.3,201,92.3,200.9z M92.8,199.8l0.4,0.2c0.1,0.1,0.1,0.1,0.2,0.1c0,0,0.1-0.1,0.1-0.1v-0.2c0-0.1,0-0.2-0.1-0.2
			c0-0.1-0.1-0.1-0.2-0.2l-0.4-0.2c0,0,0,0,0,0L92.8,199.8C92.8,199.8,92.8,199.8,92.8,199.8z M92.8,200.9l0.4,0.3
			c0.1,0.1,0.1,0.1,0.2,0.1c0,0,0-0.1,0-0.1v-0.2c0-0.1,0-0.2-0.1-0.2c0-0.1-0.1-0.1-0.2-0.2l-0.4-0.3c0,0,0,0,0,0L92.8,200.9
			C92.8,200.9,92.8,200.9,92.8,200.9z"/>
		<path class="st2" d="M95.4,203.2l-1.1-0.8c0,0-0.1-0.1-0.1-0.1v-2.4c0-0.1,0-0.1,0.1,0l0.3,0.2c0,0,0.1,0.1,0.1,0.1v2
			c0,0,0,0.1,0,0.1l0.7,0.5c0,0,0.1,0.1,0.1,0.1L95.4,203.2C95.5,203.2,95.5,203.2,95.4,203.2z"/>
		<path class="st2" d="M97,204.2l-1.1-0.8c0,0-0.1-0.1-0.1-0.1v-2.4c0-0.1,0-0.1,0.1,0l1.1,0.8c0,0,0.1,0.1,0.1,0.1v0.3
			c0,0.1,0,0.1-0.1,0l-0.7-0.5c0,0,0,0,0,0v0.5c0,0,0,0.1,0,0.1l0.6,0.4c0,0,0.1,0.1,0.1,0.1v0.3c0,0.1,0,0.1-0.1,0l-0.6-0.4
			c0,0,0,0,0,0v0.6c0,0,0,0.1,0,0.1l0.7,0.5c0,0,0.1,0.1,0.1,0.1L97,204.2C97.1,204.2,97,204.2,97,204.2z"/>
		<path class="st2" d="M98.9,205.5l-0.3-0.2c-0.1,0-0.1-0.1-0.1-0.1v-2c0,0,0-0.1,0-0.1l-0.4-0.3c0,0-0.1-0.1-0.1-0.1v-0.3
			c0-0.1,0-0.1,0.1,0l1.3,0.9c0,0,0.1,0.1,0.1,0.1v0.3c0,0.1,0,0.1-0.1,0l-0.4-0.3c0,0,0,0,0,0L98.9,205.5
			C99,205.5,98.9,205.6,98.9,205.5z"/>
		<path class="st2" d="M100.1,206.4l-0.3-0.2c0,0-0.1-0.1-0.1-0.1v-2.4c0-0.1,0-0.1,0.1,0l0.3,0.2c0,0,0.1,0.1,0.1,0.1v1
			c0,0,0,0.1,0,0.1l0.6,0.4c0,0,0,0,0,0v-1c0-0.1,0-0.1,0.1,0l0.3,0.2c0,0,0.1,0.1,0.1,0.1v2.5c0,0.1,0,0.1-0.1,0l-0.3-0.2
			c0,0-0.1-0.1-0.1-0.1v-1c0,0,0-0.1,0-0.1l-0.6-0.4c0,0,0,0,0,0L100.1,206.4C100.2,206.4,100.1,206.4,100.1,206.4z"/>
		<path class="st2" d="M102.2,205.2v2.5c0,0.1,0,0.1-0.1,0l-0.3-0.2c0,0-0.1-0.1-0.1-0.1v-2.5c0-0.1,0-0.1,0.1,0l0.3,0.2
			C102.2,205.1,102.2,205.2,102.2,205.2z"/>
		<path class="st2" d="M102.6,207.4L102.6,207.4c0-0.1,0-0.2,0.1-0.1l0.3,0.2c0,0,0.1,0.1,0.1,0.1v0c0,0.1,0,0.2,0.1,0.2
			s0.1,0.1,0.2,0.2l0.2,0.1c0.1,0.1,0.2,0.1,0.2,0.1c0,0,0.1-0.1,0.1-0.2v0c0-0.1,0-0.2-0.1-0.2c-0.1-0.1-0.1-0.2-0.2-0.2
			c-0.1-0.1-0.2-0.1-0.3-0.2c-0.1-0.1-0.2-0.2-0.3-0.3c-0.1-0.1-0.1-0.2-0.2-0.4c-0.1-0.1-0.1-0.3-0.1-0.5v-0.1
			c0-0.2,0.1-0.3,0.2-0.4c0.1,0,0.2,0,0.4,0.1l0.3,0.2c0.2,0.1,0.3,0.3,0.4,0.5c0.1,0.2,0.2,0.4,0.2,0.6v0.1c0,0.1,0,0.1-0.1,0
			l-0.3-0.2c0,0-0.1-0.1-0.1-0.1v0c0-0.1,0-0.2-0.1-0.3c0-0.1-0.1-0.1-0.2-0.2l-0.1-0.1c-0.1-0.1-0.2-0.1-0.2-0.1c0,0,0,0.1,0,0.2
			v0.1c0,0.1,0.1,0.3,0.3,0.4c0.2,0.2,0.4,0.3,0.5,0.5c0.1,0.1,0.1,0.2,0.2,0.4c0.1,0.1,0.1,0.3,0.1,0.5v0.1c0,0.2-0.1,0.3-0.2,0.4
			c-0.1,0-0.2,0-0.4-0.1l-0.4-0.3c-0.2-0.1-0.3-0.3-0.4-0.5C102.6,207.8,102.6,207.6,102.6,207.4z"/>
		<path class="st2" d="M105.6,210.2l-0.3-0.2c0,0-0.1-0.1-0.1-0.1v-2.5c0-0.1,0-0.1,0.1,0l1.1,0.7c0,0,0.1,0.1,0.1,0.1v0.3
			c0,0.1,0,0.1-0.1,0l-0.7-0.5c0,0,0,0,0,0v0.6c0,0,0,0.1,0,0.1l0.6,0.4c0,0,0.1,0.1,0.1,0.1v0.3c0,0.1,0,0.1-0.1,0l-0.6-0.4
			c0,0,0,0,0,0L105.6,210.2C105.7,210.2,105.7,210.2,105.6,210.2z"/>
		<path class="st2" d="M107.3,208.7v2.5c0,0.1,0,0.1-0.1,0l-0.3-0.2c0,0-0.1-0.1-0.1-0.1v-2.5c0-0.1,0-0.1,0.1,0l0.3,0.2
			C107.2,208.6,107.3,208.6,107.3,208.7z"/>
		<path class="st2" d="M108.9,212.4l-1.1-0.8c0,0-0.1-0.1-0.1-0.1V209c0-0.1,0-0.1,0.1,0l0.3,0.2c0,0,0.1,0.1,0.1,0.1v2.1
			c0,0,0,0.1,0,0.1l0.7,0.5c0,0,0.1,0.1,0.1,0.1L108.9,212.4C109,212.5,109,212.5,108.9,212.4z"/>
		<path class="st2" d="M110.5,213.5l-1.1-0.8c0,0-0.1-0.1-0.1-0.1V210c0-0.1,0-0.1,0.1,0l1.1,0.8c0,0,0.1,0.1,0.1,0.1v0.3
			c0,0.1,0,0.1-0.1,0l-0.7-0.5c0,0,0,0,0,0v0.6c0,0,0,0.1,0,0.1l0.6,0.4c0,0,0.1,0.1,0.1,0.1v0.3c0,0.1,0,0.1-0.1,0l-0.6-0.4
			c0,0,0,0,0,0v0.6c0,0,0,0.1,0,0.1l0.7,0.5c0,0,0.1,0.1,0.1,0.1L110.5,213.5C110.6,213.5,110.5,213.5,110.5,213.5z"/>
		<path class="st2" d="M110.9,213.1L110.9,213.1c0-0.1,0-0.2,0.1-0.1l0.3,0.2c0,0,0.1,0.1,0.1,0.1v0c0,0.1,0,0.2,0.1,0.3
			c0,0.1,0.1,0.1,0.2,0.2l0.2,0.1c0.1,0.1,0.2,0.1,0.2,0.1c0,0,0.1-0.1,0.1-0.2v-0.1c0-0.1,0-0.2-0.1-0.2c-0.1-0.1-0.1-0.2-0.2-0.2
			c-0.1-0.1-0.2-0.1-0.3-0.2c-0.1-0.1-0.2-0.2-0.3-0.3c-0.1-0.1-0.1-0.2-0.2-0.4c-0.1-0.1-0.1-0.3-0.1-0.5v-0.2
			c0-0.2,0.1-0.4,0.2-0.4c0.1-0.1,0.2,0,0.4,0.1l0.3,0.2c0.2,0.1,0.3,0.3,0.4,0.5c0.1,0.2,0.2,0.4,0.2,0.6v0.1c0,0.1,0,0.1-0.1,0
			l-0.3-0.2c0,0-0.1-0.1-0.1-0.1v0c0-0.1,0-0.2-0.1-0.3c0-0.1-0.1-0.1-0.2-0.2l-0.1-0.1c-0.1-0.1-0.2-0.1-0.2-0.1c0,0,0,0.1,0,0.2
			v0.1c0,0.1,0.1,0.3,0.3,0.4c0.2,0.2,0.4,0.3,0.5,0.5c0.1,0.1,0.1,0.2,0.2,0.4c0.1,0.1,0.1,0.3,0.1,0.5v0.1c0,0.2-0.1,0.4-0.2,0.4
			c-0.1,0.1-0.2,0-0.4-0.1l-0.4-0.3c-0.2-0.1-0.3-0.3-0.4-0.5C110.9,213.5,110.9,213.3,110.9,213.1z"/>
		<path class="st2" d="M113.2,214.7v0.5c0,0.1,0,0.1-0.1,0l-0.3-0.2c0,0-0.1-0.1-0.1-0.1v-0.5c0-0.1,0-0.1,0.1,0l0.3,0.2
			C113.1,214.6,113.2,214.7,113.2,214.7z"/>
	</g>
</g>
</svg>
