<?xml version="1.0" encoding="utf-8"?>
<!-- Generator: Adobe Illustrator 23.0.0, SVG Export Plug-In . SVG Version: 6.00 Build 0)  -->
<svg version="1.1" id="Layer_1" xmlns="http://www.w3.org/2000/svg" xmlns:xlink="http://www.w3.org/1999/xlink" x="0px" y="0px"
	 viewBox="0 0 16 16" style="enable-background:new 0 0 16 16;" xml:space="preserve">
<style type="text/css">
	.st0{fill:none;}
	.st1{fill-opacity:0;}
	.st2{fill:#F75049;}
</style>
<g>
	<path class="st0" d="M10.1,1C10.1,1,10.1,1,10.1,1C10.1,1,10,1,10.1,1L10.1,1z"/>
	<path class="st0" d="M7.1,10.1c0.1,0,0,0.1,0,0.2c0,0.1-0.2,0.1-0.2-0.1C6.9,10.2,7,10.1,7.1,10.1z"/>
	<path class="st0" d="M12.6,10.8c0,0,0,0.1-0.1,0.1c0,0-0.1,0-0.1,0L12.6,10.8z"/>
	<path class="st1" d="M10.1,1C10.1,1,10.1,1,10.1,1C10.1,1,10,1,10.1,1L10.1,1z"/>
	<path class="st1" d="M7.1,10.1c0.1,0,0,0.1,0,0.2c0,0.1-0.2,0.1-0.2-0.1C6.9,10.2,7,10.1,7.1,10.1z"/>
	<path class="st1" d="M12.6,10.8c0,0,0,0.1-0.1,0.1c0,0-0.1,0-0.1,0L12.6,10.8z"/>
	<path class="st2" d="M10.7,10.6c0.2,0,0.3,0,0.4,0.1l-1,0.9c-0.2,0-0.3,0-0.5,0L10.7,10.6z"/>
	<path class="st2" d="M15.2,15.4h-1c0-0.9-0.1-1.3-0.2-1.8c-0.2-0.5-0.4-0.9-0.8-1.2c-0.2-0.2-0.5-0.3-0.8-0.4
		c0.2-0.3,0.4-0.5,0.5-0.9c0.3,0.1,0.6,0.3,0.9,0.5c0.6,0.4,0.9,1,1.2,1.7C15.1,14,15.2,14.5,15.2,15.4z"/>
	<path class="st2" d="M2.8,11.6c0.5-0.4,1.2-0.7,2-0.9L1.5,14c0-0.2,0.1-0.5,0.2-0.7C1.9,12.6,2.2,12,2.8,11.6z"/>
	<path class="st2" d="M9.3,10.5l-1.1,1c-0.4,0-0.8,0-1.2,0l1-1c0.1,0,0.2,0,0.3,0C8.7,10.5,9,10.5,9.3,10.5z"/>
	<path class="st2" d="M5.9,11.1c0,0.1-0.2,0-0.2-0.1c0,0,0.1-0.1,0.2-0.1C6,11,5.9,11,5.9,11.1z"/>
	<path class="st2" d="M12.5,11c-0.1,0.2-0.3,0.7-0.4,0.7c0,0-0.1,0.1-0.2,0.2c-0.2,0-0.3-0.1-0.5-0.1l0.5-0.5L12.5,11
		C12.5,10.9,12.5,11,12.5,11z"/>
	<path class="st2" d="M9.6,1.7c0,0,0.4-0.6,0.4-0.6c0.3,0.2,0.6,0.4,0.9,0.7c0.1,0.1,0.2,0.3,0.3,0.4l-0.8,0.6
		c-0.1-0.1-0.2-0.2-0.3-0.3v0C10,2.1,9.7,1.9,9.4,1.8l0,0l0,0c0,0,0,0,0,0C9.5,1.8,9.6,1.7,9.6,1.7z"/>
	<path class="st2" d="M10.8,3.3l0.8-0.7c0.1,0.1,0.1,0.3,0.2,0.4c0,0.1,0.1,0.3,0.1,0.4l-0.4,0.3L11,4.2C10.9,3.9,10.9,3.6,10.8,3.3
		L10.8,3.3z"/>
	<path class="st2" d="M11.9,3.9L11.9,3.9l-1,0.7c0,0.4-0.1,0.8-0.2,1.2v0c-0.1,0.3-0.3,0.7-0.6,0.9l0,0v0C10,6.9,9.9,7,9.6,7.2
		C9.5,7.3,9.4,7.4,9.3,7.6C9.2,7.7,9.1,7.9,8.9,8C8.7,8.1,8.6,8.2,8.5,8.2c0.1-0.1,0.4-0.4,0.6-0.8C8.8,7.5,8.6,7.5,8.3,7.5
		c0,0-0.1,0-0.1,0c-0.3,0-0.7-0.1-1-0.2h0C6.9,7.2,6.6,7,6.4,6.7L6.3,6.7l0,0C6.2,6.6,6.2,6.5,6.1,6.4L5.4,7.1
		c0.1,0.1,0.2,0.2,0.2,0.3l0,0l0,0C5.9,7.7,6.3,8,6.8,8.2l0,0l0,0C7,8.3,7.1,8.3,7.3,8.4c0.3,0.1,0.7,0.1,1,0.1c0.1,0,0.1,0,0.2,0
		c0.1-0.1,0.2-0.2,0.2-0.1c0,0,0.1,0.1,0.1,0.1c0.3,0,0.7-0.1,1-0.3v0c0.4-0.2,0.8-0.5,1.2-0.8c0.2-0.2,0.4-0.5,0.6-0.8
		c0,0-0.1-0.1-0.1-0.1c0,0,0.1,0,0.2-0.1c0-0.1,0.1-0.2,0.1-0.3c0,0,0,0,0,0c-0.1,0.1-0.3,0.2-0.5,0.3c-0.3,0.2-0.2,0,0.3-0.3
		c0,0,0.2-0.1,0.3-0.1C11.9,5.5,12,5,12,4.5h0C12,4.3,12,4.1,11.9,3.9z M10.8,6.9c0,0.1-0.2,0-0.2-0.1c0,0,0.1-0.1,0.2-0.1
		C10.9,6.7,10.8,6.8,10.8,6.9z"/>
	<path class="st2" d="M5.7,5.6L4.9,6.3c0-0.1-0.1-0.1-0.1-0.2c-0.2-0.5-0.3-1-0.3-1.6C4.6,4,4.7,3.5,4.9,3C5,2.7,5.1,2.4,5.3,2.2
		C5.4,2,5.5,1.8,5.6,1.7l0,0l0,0C6,1.3,6.4,1.1,6.8,0.9c0.5-0.2,1-0.3,1.5-0.3c0.5,0,1,0.1,1.5,0.3C9.9,0.9,10,1,10,1l-1,0.7l0,0
		c0,0,0,0,0,0C8.9,1.6,8.6,1.6,8.3,1.6c-0.4,0-0.8,0.1-1.1,0.2l0,0l0,0C6.9,1.9,6.7,2.1,6.5,2.3c0,0-0.1,0.1-0.1,0.1l0,0
		C6.1,2.6,5.9,2.9,5.8,3.3v0l0,0C5.6,3.7,5.6,4.1,5.6,4.5C5.6,4.9,5.6,5.3,5.7,5.6z"/>
</g>
</svg>
