<?xml version="1.0" encoding="utf-8"?>
<!-- Generator: Adobe Illustrator 23.0.0, SVG Export Plug-In . SVG Version: 6.00 Build 0)  -->
<svg version="1.1" id="Layer_1" xmlns="http://www.w3.org/2000/svg" xmlns:xlink="http://www.w3.org/1999/xlink" x="0px" y="0px"
	 viewBox="0 0 16 16" style="enable-background:new 0 0 16 16;" xml:space="preserve">
<style type="text/css">
	.st0{fill-rule:evenodd;clip-rule:evenodd;fill:#F75049;}
	.st1{fill:#F75049;}
</style>
<path class="st0" d="M6.2,9.4C6.2,9.4,6.2,9.4,6.2,9.4L6,9c0,0,0,0,0,0C5.8,9.2,5.5,9.5,5.2,9.7c0.2,0.4,0.4,0.7,0.6,1.1
	C6,10.5,6.3,10.3,6.6,10C6.5,9.8,6.3,9.6,6.2,9.4z M5.8,8.4C5.5,8.6,5.2,8.9,4.9,9.2C5,9.3,5,9.4,5.1,9.5c0,0,0,0.1,0,0.1
	C5.4,9.3,5.7,9,5.9,8.7C5.9,8.6,5.8,8.5,5.8,8.4z M6.6,13.3c-0.1-0.1-0.2-0.2-0.4-0.2c-0.1,0-0.3,0-0.4,0.1
	c-0.2,0.2-0.5,0.4-0.8,0.5c-0.2,0.1-0.3,0.1-0.5,0.1c-0.1,0-0.1,0-0.2,0c0,0,0,0,0,0c-0.2-0.1-0.3-0.2-0.3-0.4
	C4,13.2,3.9,13,3.9,12.7c0,0,0,0,0,0v-0.1c0-0.4,0-0.8,0.1-1.1c0.1-0.3,0.2-0.7,0.3-1C4.2,10.7,4,10.8,3.9,11
	c0.1-0.2,0.3-0.4,0.5-0.5c0-0.1,0.1-0.2,0.1-0.3c0.1-0.3,0.2-0.6,0.4-0.9c-0.6,0.6-1.2,1.1-1.7,1.6C3.1,11,3,11.2,3,11.3
	c-0.1,0.4-0.2,0.9-0.2,1.3v0.1c0,0.4,0.1,0.8,0.2,1.1c0.1,0.3,0.4,0.6,0.7,0.8c0.1,0.1,0.2,0.2,0.4,0.2c0.2,0,0.3,0.1,0.5,0.1
	c0.3,0,0.6-0.1,0.9-0.2c0.4-0.2,0.7-0.4,1-0.7c0.1-0.1,0.2-0.2,0.2-0.4C6.8,13.6,6.7,13.5,6.6,13.3z M9.2,5.1c-0.3,0.3-0.6,0.6-1,1
	c0.2,0,0.4,0,0.5,0c0.4-0.3,0.8-0.7,1.2-1C9.6,5.1,9.4,5.1,9.2,5.1z M15.8,7.5c-0.1-0.3-0.3-0.5-0.6-0.6c-0.2-0.2-0.5-0.4-0.8-0.5
	c-0.1-0.1-0.3-0.1-0.4-0.2C13.9,6.1,13.7,6,13.5,6c-0.8-0.3-1.6-0.5-2.4-0.6c0,0-0.1,0-0.1,0c-0.3,0.3-0.6,0.6-1,0.9
	c0.3,0,0.5,0.1,0.8,0.1c0.3-0.3,0.7-0.5,1-0.8c-0.3,0.3-0.6,0.5-0.9,0.8c0.6,0.1,1.2,0.3,1.8,0.4c0,0,0,0,0,0c0.1,0,0.3,0.1,0.4,0.1
	c0.1,0,0.3,0.1,0.4,0.2c0.2,0.1,0.3,0.1,0.5,0.2c0.2,0.1,0.4,0.2,0.6,0.4c0.1,0.1,0.2,0.2,0.3,0.4c0.1,0.1,0.1,0.2,0.1,0.3v0
	c0,0.1,0,0.2-0.1,0.3c-0.1,0.1-0.1,0.2-0.3,0.3c-0.1,0.1-0.3,0.3-0.5,0.4c-0.2,0.1-0.4,0.2-0.6,0.3c-0.1,0-0.2,0.1-0.3,0.3
	c-0.1,0.1-0.1,0.3,0,0.4s0.1,0.2,0.3,0.3s0.3,0.1,0.4,0c0.3-0.1,0.5-0.2,0.8-0.4c0.2-0.1,0.5-0.3,0.6-0.5c0.2-0.2,0.3-0.4,0.4-0.6
	C15.9,8.9,16,8.7,16,8.4c0,0,0,0,0,0V8.3c0,0,0,0,0,0C16,8,15.9,7.8,15.8,7.5z M9.9,5.2c-0.3,0.3-0.7,0.7-1,1c0.3,0,0.5,0,0.8,0.1
	c0.4-0.3,0.8-0.6,1.1-0.9C10.5,5.2,10.2,5.2,9.9,5.2z M8.1,5C8,5,8,5,7.9,5c-0.3,0.3-0.6,0.6-1,0.9C6.9,5.9,6.8,6,6.8,6
	c0.1,0,0.1,0,0.2,0h0c0.1,0,0.2,0,0.3,0c0.4-0.4,0.8-0.7,1.2-1C8.3,5,8.2,5,8.1,5z M13.1,2.2c-0.1,0-0.1,0.1-0.2,0c0,0,0-0.1,0-0.1
	c0-0.1-0.3-0.2-0.5-0.2c-0.4,0-0.7,0.3-0.8,0.3c0.1,0,0.1,0,0.2,0.1c0.1,0,0.2,0.1,0.2,0.2c0.1,0.1,0.1,0.3,0.1,0.4
	c0,0.1,0,0.3-0.1,0.4c-0.1,0.2-0.1,0.4-0.2,0.5c-0.1,0.1-0.1,0.3,0,0.4c0,0.1,0.1,0.3,0.3,0.3s0.3,0.1,0.4,0c0.1,0,0.3-0.1,0.3-0.3
	c0.1-0.2,0.2-0.5,0.3-0.8c0.1-0.2,0.1-0.4,0.1-0.7c0,0,0,0,0-0.1v0C13.2,2.6,13.1,2.4,13.1,2.2z M11.6,1.2c-0.2,0-0.3,0.3-0.4,0.2
	c-0.1,0,0-0.2,0-0.3c-0.2,0-0.3,0.1-0.5,0.1c-0.3,0.1-0.5,0.2-0.7,0.3C9.4,1.8,8.8,2.2,8.4,2.6c-0.6,0.5-1.1,1-1.6,1.6
	C6.6,4.4,6.3,4.7,6.1,5C5.7,5,5.3,5,4.8,5.1c0-0.2-0.1-0.4-0.1-0.5c0-0.1,0-0.3,0-0.4C4.4,4.5,4,4.8,3.8,5.1c0,0,0,0.1,0,0.1
	c0,0-0.1,0-0.1,0c-0.5,0.5-1,1-1.5,1.5c0.3-0.4,0.6-0.9,1-1.4C2.8,5.4,2.5,5.5,2.3,5.6c0,0-0.1,0-0.1,0C1.4,6.3,0.7,7.1,0,7.8
	c0.5-0.7,1.1-1.3,1.7-2C1.7,5.8,1.5,5.8,1.4,5.9C1.2,6,0.9,6.2,0.7,6.3C0.5,6.5,0.4,6.7,0.2,6.9C0.1,7.1,0,7.4,0,7.6c0,0,0,0,0,0
	v0.1C0,8,0.1,8.2,0.2,8.5C0.4,8.7,0.5,8.9,0.7,9c0.4,0.4,0.9,0.7,1.4,0.9c0.1,0,0.3,0,0.4,0c0.1-0.1,0.2-0.2,0.3-0.3s0-0.3,0-0.4
	S2.6,9,2.5,8.9C2.1,8.8,1.8,8.5,1.4,8.3C1.3,8.2,1.2,8,1.1,7.9c0-0.1-0.1-0.1-0.1-0.2v0c0-0.1,0-0.2,0.1-0.2
	c0.1-0.1,0.1-0.2,0.3-0.3C1.5,7,1.7,6.9,1.9,6.8c0.2-0.1,0.5-0.2,0.7-0.3C3,6.4,3.5,6.3,4,6.3c0,0,0,0,0,0C4,6.5,4.1,6.8,4.2,7
	c0.3-0.3,0.6-0.5,0.9-0.8c0,0,0-0.1,0-0.1c0,0,0.1,0,0.1,0C5.3,6,5.4,5.9,5.5,5.8C6.5,5,7.3,4.3,8.2,3.6C7.6,4.2,7,4.8,6.4,5.4
	C5.6,6,4.9,6.7,4.2,7.2c0.1,0.2,0.1,0.3,0.2,0.5c0,0.1-0.1,0.2-0.2,0.3c0.6-0.6,1.2-1.2,1.9-1.8c0.5-0.5,1-0.9,1.5-1.3
	C7.6,5,7.6,5,7.5,5c0,0,0.1-0.1,0.1-0.1c0.5-0.5,0.9-1,1.5-1.5C9.5,3,9.9,2.7,10.4,2.5c0.2-0.1,0.4-0.2,0.6-0.2
	c0.1,0,0.3-0.1,0.4-0.1h0.1c0,0,0,0,0,0c0,0,0.1,0,0.1,0c0-0.1,0.4-0.4,0.3-0.7C11.8,1.3,11.7,1.2,11.6,1.2z M4.6,3.3V3.1
	c0,0,0,0,0,0C4.4,3.3,4.2,3.6,3.9,3.8C3.8,3.9,3.7,4,3.6,4.1c0,0.2,0,0.4,0.1,0.6c0,0,0,0,0,0c0.1-0.1,0.3-0.3,0.4-0.4
	c0.2-0.2,0.4-0.4,0.6-0.6C4.6,3.6,4.6,3.4,4.6,3.3z M7.3,1.9C7,1.6,6.7,1.4,6.4,1.1C6.2,1,6.1,0.9,5.9,0.9C5.8,1,5.6,1.1,5.4,1.2
	c0,0-0.1,0.1-0.3,0.1C4.8,1.5,4.7,1.6,4.6,1.6C4.4,1.8,4.2,1.9,4.1,2.1C4,2.3,4.1,2.4,3.9,2.6C3.8,2.7,3.7,2.7,3.7,2.7
	c0,0-0.1,0-0.1,0c0,0.1,0,0.3,0,0.4v0.1c0,0,0,0,0,0c0,0.2,0,0.4,0,0.6c0.3-0.3,0.7-0.6,1-0.9c0-0.1,0-0.3,0-0.4
	c0-0.1,0.1-0.3,0.1-0.4c0-0.1,0.1-0.2,0.1-0.2c0,0,0.1-0.1,0.1-0.1c0.1,0,0.1,0,0.2-0.1h0c0.1,0,0.1,0,0.2,0c0.1,0,0.2,0.1,0.3,0.2
	c0.3,0.2,0.5,0.4,0.8,0.7c0.1,0.1,0.2,0.2,0.4,0.2c0.1,0,0.3-0.1,0.4-0.1c0.1-0.1,0.2-0.2,0.2-0.4C7.5,2.2,7.4,2,7.3,1.9z M4.1,8.3
	c-0.2,0.5-0.4,1-0.6,1.4c0,0.1-0.1,0.2-0.1,0.3C3.6,9.8,3.8,9.6,4,9.3C4.8,8.5,5.3,8,5.7,7.6C5.8,7.3,6,7.1,6.2,6.8
	c0.1-0.2,0.3-0.4,0.4-0.6C5.7,7,4.9,7.7,4.1,8.3z M6.7,10.2c-0.3,0.3-0.5,0.5-0.8,0.7C5.9,11,6,11.2,6.1,11.3
	c0.3-0.3,0.5-0.5,0.8-0.8C6.8,10.4,6.7,10.3,6.7,10.2z M12.3,11.7c-0.1-0.5-0.2-1-0.3-1.4c-0.1-0.5-0.2-0.9-0.4-1.4
	c-0.1-0.3-0.2-0.5-0.3-0.8c-0.1,0.1-0.3,0.3-0.4,0.4c-0.2,0.1-0.3,0.3-0.5,0.4c0.1,0.3,0.2,0.5,0.3,0.8c0,0.1,0.1,0.3,0.1,0.4
	C11,10,11,10,11,10c0,0,0,0.1-0.1,0.2c0,0.1,0.1,0.2,0.1,0.3c0.1,0.4,0.2,0.9,0.3,1.3c0,0.4,0.1,0.7,0.1,1.1c0,0.3,0,0.6-0.1,0.9
	c0,0.1-0.1,0.2-0.1,0.3c0,0,0,0.1-0.1,0.1c-0.1,0-0.1,0-0.2,0c-0.1,0-0.3,0-0.4-0.1c-0.2-0.1-0.4-0.2-0.5-0.3
	c-0.2-0.1-0.4-0.3-0.6-0.4c-0.2-0.2-0.4-0.4-0.6-0.6c0,0,0,0,0,0c-0.4-0.5-0.8-0.9-1.2-1.4c-0.3,0.2-0.5,0.5-0.8,0.7
	c0.4,0.5,0.8,1,1.2,1.5c0,0,0,0,0,0c0.2,0.2,0.5,0.5,0.7,0.7c0.2,0.2,0.5,0.4,0.7,0.5c0.2,0.1,0.5,0.3,0.7,0.3
	c0.2,0.1,0.5,0.1,0.8,0.1c0.3,0,0.6-0.1,0.8-0.2c0.2-0.1,0.3-0.3,0.4-0.4c0.1-0.2,0.2-0.3,0.2-0.5c0.1-0.4,0.2-0.8,0.2-1.2
	C12.5,12.5,12.4,12.1,12.3,11.7z M11,7.1c0-0.1-0.2-0.2-0.3-0.3c-0.1,0-0.2,0-0.2,0c-0.1,0-0.1,0-0.2,0C10.2,6.8,10,7,10,7.1
	c0,0,0,0.1,0,0.1c0,0.1,0,0.2,0,0.3c0.1,0.1,0.1,0.3,0.2,0.4c0.3-0.2,0.6-0.4,0.8-0.6c-0.3,0.2-0.5,0.5-0.8,0.7
	c0.1,0.2,0.2,0.4,0.2,0.6c0.3-0.3,0.6-0.5,0.9-0.7C11.2,7.6,11.1,7.3,11,7.1z M10.5,8.6C10.5,8.6,10.5,8.6,10.5,8.6
	c0,0,0.1-0.1,0.1-0.1C10.5,8.6,10.5,8.6,10.5,8.6z M7.4,11.4c-0.1,0.1-0.1,0.1-0.2,0.2C7.3,11.5,7.4,11.5,7.4,11.4
	C7.4,11.4,7.4,11.4,7.4,11.4z M7.3,11.2c-0.1-0.1-0.2-0.3-0.2-0.4c-0.3,0.2-0.5,0.5-0.8,0.7c0,0.1,0.1,0.2,0.2,0.3
	c0,0.1,0.1,0.1,0.1,0.2C6.8,11.7,7,11.5,7.3,11.2C7.3,11.2,7.3,11.2,7.3,11.2z"/>
<path class="st1" d="M7.7,7C7.5,7.2,7.2,7.4,7,7.7C7.1,7.3,7.4,7.1,7.7,7z"/>
<path class="st1" d="M8.6,7.1c-0.5,0.5-1,0.9-1.5,1.4C7,8.4,7,8.2,7,8.1c0.3-0.3,0.6-0.6,0.9-0.9C8,7.1,8,7,8.1,6.9
	C8.3,7,8.5,7,8.6,7.1z"/>
<path class="st1" d="M8.3,8.5C8.1,8.6,7.9,8.8,7.7,9C7.6,9,7.5,9,7.5,8.9C7.3,8.8,7.2,8.8,7.2,8.7c0.5-0.4,1.1-0.9,1.6-1.4
	C8.9,7.4,9,7.6,9,7.8C8.8,8,8.6,8.2,8.3,8.5z"/>
<path class="st1" d="M9.1,8c0,0.4-0.2,0.7-0.5,0.9C8.3,9,8.1,9.1,7.9,9c0.3-0.3,0.7-0.6,1-0.9C9,8.1,9,8.1,9.1,8z"/>
<path class="st1" d="M7.4,11.4c-0.1,0.1-0.1,0.1-0.2,0.2C7.3,11.5,7.4,11.5,7.4,11.4C7.4,11.4,7.4,11.4,7.4,11.4z M10.5,8.6
	C10.5,8.6,10.5,8.6,10.5,8.6c0,0,0.1-0.1,0.1-0.1C10.5,8.6,10.5,8.6,10.5,8.6z M7.4,11.4c-0.1,0.1-0.1,0.1-0.2,0.2
	C7.3,11.5,7.4,11.5,7.4,11.4C7.4,11.4,7.4,11.4,7.4,11.4z M10.5,8.6C10.5,8.6,10.5,8.6,10.5,8.6c0,0,0.1-0.1,0.1-0.1
	C10.5,8.6,10.5,8.6,10.5,8.6z M7.4,11.4c-0.1,0.1-0.1,0.1-0.2,0.2C7.3,11.5,7.4,11.5,7.4,11.4C7.4,11.4,7.4,11.4,7.4,11.4z
	 M10.5,8.6C10.5,8.6,10.5,8.6,10.5,8.6c0,0,0.1-0.1,0.1-0.1C10.5,8.6,10.5,8.6,10.5,8.6z M7.4,11.4c-0.1,0.1-0.1,0.1-0.2,0.2
	C7.3,11.5,7.4,11.5,7.4,11.4C7.4,11.4,7.4,11.4,7.4,11.4z M10.5,8.6C10.5,8.6,10.5,8.6,10.5,8.6c0,0,0.1-0.1,0.1-0.1
	C10.5,8.6,10.5,8.6,10.5,8.6z M7.4,11.4c-0.1,0.1-0.1,0.1-0.2,0.2C7.3,11.5,7.4,11.5,7.4,11.4C7.4,11.4,7.4,11.4,7.4,11.4z
	 M10.5,8.6C10.5,8.6,10.5,8.6,10.5,8.6c0,0,0.1-0.1,0.1-0.1C10.5,8.6,10.5,8.6,10.5,8.6z M7.4,11.4c-0.1,0.1-0.1,0.1-0.2,0.2
	C7.3,11.5,7.4,11.5,7.4,11.4C7.4,11.4,7.4,11.4,7.4,11.4z M10.5,8.6C10.5,8.6,10.5,8.6,10.5,8.6c0,0,0.1-0.1,0.1-0.1
	C10.5,8.6,10.5,8.6,10.5,8.6z M7.4,11.4c-0.1,0.1-0.1,0.1-0.2,0.2C7.3,11.5,7.4,11.5,7.4,11.4C7.4,11.4,7.4,11.4,7.4,11.4z
	 M10.5,8.6C10.5,8.6,10.5,8.6,10.5,8.6c0,0,0.1-0.1,0.1-0.1C10.5,8.6,10.5,8.6,10.5,8.6z M7.4,11.4c-0.1,0.1-0.1,0.1-0.2,0.2
	C7.3,11.5,7.4,11.5,7.4,11.4C7.4,11.4,7.4,11.4,7.4,11.4z M10.5,8.6C10.5,8.6,10.5,8.6,10.5,8.6c0,0,0.1-0.1,0.1-0.1
	C10.5,8.6,10.5,8.6,10.5,8.6z M7.4,11.4c-0.1,0.1-0.1,0.1-0.2,0.2C7.3,11.5,7.4,11.5,7.4,11.4C7.4,11.4,7.4,11.4,7.4,11.4z
	 M10.5,8.6C10.5,8.6,10.5,8.6,10.5,8.6c0,0,0.1-0.1,0.1-0.1C10.5,8.6,10.5,8.6,10.5,8.6z M7.4,11.4c-0.1,0.1-0.1,0.1-0.2,0.2
	C7.3,11.5,7.4,11.5,7.4,11.4C7.4,11.4,7.4,11.4,7.4,11.4z M10.5,8.6C10.5,8.6,10.5,8.6,10.5,8.6c0,0,0.1-0.1,0.1-0.1
	C10.5,8.6,10.5,8.6,10.5,8.6z M6.2,9.4c0,0-0.1,0.1-0.2,0.1C6.1,9.5,6.2,9.4,6.2,9.4L6,9c0,0,0,0,0,0C5.8,9.2,5.5,9.5,5.2,9.7
	c0.2,0.4,0.4,0.7,0.6,1.1C6,10.5,6.3,10.3,6.6,10C6.5,9.8,6.3,9.6,6.2,9.4z M5.8,8.4C5.5,8.6,5.2,8.9,4.9,9.2C5,9.3,5,9.4,5.1,9.5
	c0,0,0,0.1,0,0.1C5.4,9.3,5.7,9,5.9,8.7C5.9,8.6,5.8,8.5,5.8,8.4z M6.6,13.3c-0.1-0.1-0.2-0.2-0.4-0.2c-0.1,0-0.3,0-0.4,0.1
	c-0.2,0.2-0.5,0.4-0.8,0.5c-0.2,0.1-0.3,0.1-0.5,0.1c-0.1,0-0.1,0-0.2,0c0,0,0,0,0,0c-0.2-0.1-0.3-0.2-0.3-0.4
	C4,13.2,3.9,13,3.9,12.7c0,0,0,0,0,0v-0.1c0-0.4,0-0.8,0.1-1.1c0.1-0.3,0.2-0.7,0.3-1C4.2,10.7,4,10.8,3.9,11
	c0.1-0.2,0.3-0.4,0.5-0.5c0-0.1,0.1-0.2,0.1-0.3c0.1-0.3,0.2-0.6,0.4-0.9c-0.6,0.6-1.2,1.1-1.7,1.6C3.1,11,3,11.2,3,11.3
	c-0.1,0.4-0.2,0.9-0.2,1.3v0.1c0,0.4,0.1,0.8,0.2,1.1c0.1,0.3,0.4,0.6,0.7,0.8c0.1,0.1,0.2,0.2,0.4,0.2c0.2,0,0.3,0.1,0.5,0.1
	c0.3,0,0.6-0.1,0.9-0.2c0.4-0.2,0.7-0.4,1-0.7c0.1-0.1,0.2-0.2,0.2-0.4C6.8,13.6,6.7,13.5,6.6,13.3z M6.7,10.2
	c-0.3,0.3-0.5,0.5-0.8,0.7C5.9,11,6,11.2,6.1,11.3c0.3-0.3,0.5-0.5,0.8-0.8C6.8,10.4,6.7,10.3,6.7,10.2z M7.3,11.2
	c-0.1-0.1-0.2-0.3-0.2-0.4c-0.3,0.2-0.5,0.5-0.8,0.7c0,0.1,0.1,0.2,0.2,0.3c0,0.1,0.1,0.1,0.1,0.2C6.8,11.7,7,11.5,7.3,11.2
	C7.3,11.2,7.3,11.2,7.3,11.2z M7.4,11.4c-0.1,0.1-0.1,0.1-0.2,0.2C7.3,11.5,7.4,11.5,7.4,11.4C7.4,11.4,7.4,11.4,7.4,11.4z M7,7.7
	C7.2,7.4,7.5,7.2,7.7,7C7.4,7.1,7.1,7.3,7,7.7z M8.7,12.9c-0.4-0.5-0.8-0.9-1.2-1.4c-0.3,0.2-0.5,0.5-0.8,0.7c0.4,0.5,0.8,1,1.2,1.5
	c0,0,0,0,0,0C8.2,13.3,8.3,13.1,8.7,12.9C8.7,12.9,8.7,12.9,8.7,12.9C8.7,12.9,8.7,12.9,8.7,12.9z M8.9,8.2C8.6,8.5,8.3,8.8,7.9,9
	c0.2,0,0.4,0,0.6-0.1C8.9,8.7,9.1,8.4,9.1,8C9,8.1,9,8.1,8.9,8.2z M10.5,8.6C10.5,8.6,10.5,8.6,10.5,8.6c0,0,0.1-0.1,0.1-0.1
	C10.5,8.6,10.5,8.6,10.5,8.6z M7.3,1.9C7,1.6,6.7,1.4,6.4,1.1C6.2,1,6.1,0.9,5.9,0.9C5.8,1,5.6,1.1,5.4,1.2c0,0-0.1,0.1-0.3,0.1
	C4.8,1.5,4.7,1.6,4.6,1.6C4.4,1.8,4.2,1.9,4.1,2.1C4,2.3,4.1,2.4,3.9,2.6C3.8,2.7,3.7,2.7,3.7,2.7c0,0-0.1,0-0.1,0
	c0,0.1,0,0.3,0,0.4v0.1c0,0,0,0,0,0c0,0.2,0,0.4,0,0.6c0.3-0.3,0.7-0.6,1-0.9c0-0.1,0-0.3,0-0.4c0-0.1,0.1-0.3,0.1-0.4
	c0-0.1,0.1-0.2,0.1-0.2c0,0,0.1-0.1,0.1-0.1c0.1,0,0.1,0,0.2-0.1h0c0.1,0,0.1,0,0.2,0c0.1,0,0.2,0.1,0.3,0.2
	c0.3,0.2,0.5,0.4,0.8,0.7c0.1,0.1,0.2,0.2,0.4,0.2c0.1,0,0.3-0.1,0.4-0.1c0.1-0.1,0.2-0.2,0.2-0.4C7.5,2.2,7.4,2,7.3,1.9z M4.1,8.3
	c-0.2,0.5-0.4,1-0.6,1.4c0,0.1-0.1,0.2-0.1,0.3C3.6,9.8,3.8,9.6,4,9.3C4.8,8.5,5.3,8,5.7,7.6C5.8,7.3,6,7.1,6.2,6.8
	c0.1-0.2,0.3-0.4,0.4-0.6C5.7,7,4.9,7.7,4.1,8.3z M8.1,5C8,5,8,5,7.9,5c-0.3,0.3-0.6,0.6-1,0.9C6.9,5.9,6.8,6,6.8,6
	c0.1,0,0.1,0,0.2,0h0c0.1,0,0.2,0,0.3,0c0.4-0.4,0.8-0.7,1.2-1C8.3,5,8.2,5,8.1,5z M9.2,5.1c-0.3,0.3-0.6,0.6-1,1c0.2,0,0.4,0,0.5,0
	c0.4-0.3,0.8-0.7,1.2-1C9.6,5.1,9.4,5.1,9.2,5.1z M9.9,5.2c-0.3,0.3-0.7,0.7-1,1c0.3,0,0.5,0,0.8,0.1c0.4-0.3,0.8-0.6,1.1-0.9
	C10.5,5.2,10.2,5.2,9.9,5.2z M11.6,1.2c-0.2,0-0.3,0.3-0.4,0.2c-0.1,0,0-0.2,0-0.3c-0.2,0-0.3,0.1-0.5,0.1c-0.3,0.1-0.5,0.2-0.7,0.3
	C9.4,1.8,8.8,2.2,8.4,2.6c-0.6,0.5-1.1,1-1.6,1.6C6.6,4.4,6.3,4.7,6.1,5C5.7,5,5.3,5,4.8,5.1c0-0.2-0.1-0.4-0.1-0.5
	c0-0.1,0-0.3,0-0.4C4.4,4.5,4,4.8,3.8,5.1c0,0-0.1,0.1-0.1,0.1c-0.5,0.5-1,1-1.5,1.5c0.3-0.4,0.6-0.9,1-1.4C2.8,5.4,2.5,5.5,2.3,5.6
	c0,0-0.1,0-0.1,0C1.4,6.3,0.7,7.1,0,7.8c0.5-0.7,1.1-1.3,1.7-2C1.7,5.8,1.5,5.8,1.4,5.9C1.2,6,0.9,6.2,0.7,6.3
	C0.5,6.5,0.4,6.7,0.2,6.9C0.1,7.1,0,7.4,0,7.6c0,0,0,0,0,0v0.1C0,8,0.1,8.2,0.2,8.5C0.4,8.7,0.5,8.9,0.7,9c0.4,0.4,0.9,0.7,1.4,0.9
	c0.1,0,0.3,0,0.4,0c0.1-0.1,0.2-0.2,0.3-0.3s0-0.3,0-0.4S2.6,9,2.5,8.9C2.1,8.8,1.8,8.5,1.4,8.3C1.3,8.2,1.2,8,1.1,7.9
	c0-0.1-0.1-0.1-0.1-0.2v0c0-0.1,0-0.2,0.1-0.2c0.1-0.1,0.1-0.2,0.3-0.3C1.5,7,1.7,6.9,1.9,6.8c0.2-0.1,0.5-0.2,0.7-0.3
	C3,6.4,3.5,6.3,4,6.3c0,0,0,0,0,0C4,6.5,4.1,6.8,4.2,7c0.3-0.3,0.6-0.5,0.9-0.8c0,0,0.1-0.1,0.1-0.1C5.3,6,5.4,5.9,5.5,5.8
	C6.5,5,7.3,4.3,8.2,3.6C7.6,4.2,7,4.8,6.4,5.4C5.6,6,4.9,6.7,4.2,7.2c0.1,0.2,0.1,0.3,0.2,0.5c0,0.1-0.1,0.2-0.2,0.3
	c0.6-0.6,1.2-1.2,1.9-1.8c0.5-0.5,1-0.9,1.5-1.3C7.6,5,7.6,5,7.5,5c0,0,0.1-0.1,0.1-0.1c0.5-0.5,0.9-1,1.5-1.5
	C9.5,3,9.9,2.7,10.4,2.5c0.2-0.1,0.4-0.2,0.6-0.2c0.1,0,0.3-0.1,0.4-0.1h0.1c0,0,0,0,0,0c0,0,0.1,0,0.1,0c0-0.1,0.4-0.4,0.3-0.7
	C11.8,1.3,11.7,1.2,11.6,1.2z M13.2,2.8L13.2,2.8c0-0.2,0-0.5-0.1-0.7c-0.1,0-0.1,0.1-0.2,0c0,0,0-0.1,0-0.1c0-0.1-0.3-0.2-0.5-0.2
	c-0.4,0-0.7,0.3-0.8,0.3c0.1,0,0.1,0,0.2,0.1c0.1,0,0.2,0.1,0.2,0.2c0.1,0.1,0.1,0.3,0.1,0.4c0,0.1,0,0.3-0.1,0.4
	c-0.1,0.2-0.1,0.4-0.2,0.5c-0.1,0.1-0.1,0.3,0,0.4c0,0.1,0.1,0.3,0.3,0.3s0.3,0.1,0.4,0c0.1,0,0.3-0.1,0.3-0.3
	c0.1-0.2,0.2-0.5,0.3-0.8C13.1,3.4,13.2,3.2,13.2,2.8C13.1,3,13,3,13,3C13,3,13.1,2.9,13.2,2.8z M13.5,6c-0.8-0.3-1.6-0.5-2.4-0.6
	c0,0-0.1,0-0.1,0c-0.3,0.3-0.6,0.6-1,0.9c0.3,0,0.5,0.1,0.8,0.1c0.3-0.3,0.7-0.5,1-0.8c-0.3,0.3-0.6,0.5-0.9,0.8
	c0.6,0.1,1.2,0.3,1.8,0.4c0.1,0,0.1-0.1,0.2-0.1c0,0-0.1,0.1-0.1,0.1c0.1,0,0.3,0.1,0.4,0.1c0.1,0,0.3,0.1,0.4,0.2
	C13.5,7,13.6,7,13.6,7c0-0.1,0-0.1,0-0.2c0.1-0.2,0.2-0.3,0.5-0.6C13.9,6.1,13.7,6,13.5,6z M11.4,8.1c-0.1,0.1-0.3,0.3-0.4,0.4
	c-0.2,0.1-0.3,0.3-0.5,0.4c0.1,0.3,0.2,0.5,0.3,0.8c0.2-0.1,0.4-0.3,0.6-0.4C11.6,9,11.5,9,11.7,8.9C11.6,8.6,11.5,8.4,11.4,8.1z
	 M11,7.1c0-0.1-0.2-0.2-0.3-0.3c-0.1,0-0.2,0-0.2,0c-0.2,0.2-0.3,0.3-0.5,0.5c0,0.1,0,0.2,0,0.3c0.1,0.1,0.1,0.3,0.2,0.4
	c0.3-0.2,0.6-0.4,0.8-0.6c-0.3,0.2-0.5,0.5-0.8,0.7c0.1,0.2,0.2,0.4,0.2,0.6c0.3-0.3,0.6-0.5,0.9-0.7C11.2,7.6,11.1,7.3,11,7.1z
	 M4.6,3.3V3.1c0,0,0,0,0,0C4.4,3.3,4.2,3.6,3.9,3.8C3.8,3.9,3.7,4,3.6,4.1c0,0.2,0,0.4,0.1,0.6c0,0,0,0,0,0c0.1-0.1,0.3-0.3,0.4-0.4
	c0.2-0.2,0.4-0.4,0.6-0.6C4.6,3.6,4.6,3.4,4.6,3.3z M8.8,7.3C8.3,7.8,7.7,8.2,7.2,8.7c0.1,0.1,0.2,0.2,0.3,0.3C7.5,9,7.6,9,7.7,9
	c0.2-0.2,0.4-0.4,0.6-0.6C8.6,8.2,8.8,8,9,7.8C9,7.6,8.9,7.4,8.8,7.3z M8.1,6.9C8,7,8,7.1,7.9,7.2C7.6,7.5,7.3,7.8,7,8.1
	c0,0.2,0,0.3,0.1,0.5c0.5-0.5,1-0.9,1.5-1.4C8.5,7,8.3,7,8.1,6.9z M7.4,11.4c-0.1,0.1-0.1,0.1-0.2,0.2C7.3,11.5,7.4,11.5,7.4,11.4
	C7.4,11.4,7.4,11.4,7.4,11.4z M7.4,11.4c-0.1,0.1-0.1,0.1-0.2,0.2C7.3,11.5,7.4,11.5,7.4,11.4C7.4,11.4,7.4,11.4,7.4,11.4z
	 M10.5,8.6C10.5,8.6,10.5,8.6,10.5,8.6c0,0,0.1-0.1,0.1-0.1C10.5,8.6,10.5,8.6,10.5,8.6z M7.4,11.4c-0.1,0.1-0.1,0.1-0.2,0.2
	C7.3,11.5,7.4,11.5,7.4,11.4C7.4,11.4,7.4,11.4,7.4,11.4z M10.5,8.6C10.5,8.6,10.5,8.6,10.5,8.6c0,0,0.1-0.1,0.1-0.1
	C10.5,8.6,10.5,8.6,10.5,8.6z M7.4,11.4c-0.1,0.1-0.1,0.1-0.2,0.2C7.3,11.5,7.4,11.5,7.4,11.4C7.4,11.4,7.4,11.4,7.4,11.4z
	 M10.5,8.6C10.5,8.6,10.5,8.6,10.5,8.6c0,0,0.1-0.1,0.1-0.1C10.5,8.6,10.5,8.6,10.5,8.6z M7.4,11.4c-0.1,0.1-0.1,0.1-0.2,0.2
	C7.3,11.5,7.4,11.5,7.4,11.4C7.4,11.4,7.4,11.4,7.4,11.4z M10.5,8.6C10.5,8.6,10.5,8.6,10.5,8.6c0,0,0.1-0.1,0.1-0.1
	C10.5,8.6,10.5,8.6,10.5,8.6z M7.4,11.4c-0.1,0.1-0.1,0.1-0.2,0.2C7.3,11.5,7.4,11.5,7.4,11.4C7.4,11.4,7.4,11.4,7.4,11.4z
	 M10.5,8.6C10.5,8.6,10.5,8.6,10.5,8.6c0,0,0.1-0.1,0.1-0.1C10.5,8.6,10.5,8.6,10.5,8.6z M7.4,11.4c-0.1,0.1-0.1,0.1-0.2,0.2
	C7.3,11.5,7.4,11.5,7.4,11.4C7.4,11.4,7.4,11.4,7.4,11.4z M10.5,8.6C10.5,8.6,10.5,8.6,10.5,8.6c0,0,0.1-0.1,0.1-0.1
	C10.5,8.6,10.5,8.6,10.5,8.6z M7.4,11.4c-0.1,0.1-0.1,0.1-0.2,0.2C7.3,11.5,7.4,11.5,7.4,11.4C7.4,11.4,7.4,11.4,7.4,11.4z
	 M10.5,8.6C10.5,8.6,10.5,8.6,10.5,8.6c0,0,0.1-0.1,0.1-0.1C10.5,8.6,10.5,8.6,10.5,8.6z M7.4,11.4c-0.1,0.1-0.1,0.1-0.2,0.2
	C7.3,11.5,7.4,11.5,7.4,11.4C7.4,11.4,7.4,11.4,7.4,11.4z M10.5,8.6C10.5,8.6,10.5,8.6,10.5,8.6c0,0,0.1-0.1,0.1-0.1
	C10.5,8.6,10.5,8.6,10.5,8.6z M7.4,11.4c-0.1,0.1-0.1,0.1-0.2,0.2C7.3,11.5,7.4,11.5,7.4,11.4C7.4,11.4,7.4,11.4,7.4,11.4z
	 M10.5,8.6C10.5,8.6,10.5,8.6,10.5,8.6c0,0,0.1-0.1,0.1-0.1C10.5,8.6,10.5,8.6,10.5,8.6z M7.4,11.4c-0.1,0.1-0.1,0.1-0.2,0.2
	C7.3,11.5,7.4,11.5,7.4,11.4C7.4,11.4,7.4,11.4,7.4,11.4z M10.5,8.6C10.5,8.6,10.5,8.6,10.5,8.6c0,0,0.1-0.1,0.1-0.1
	C10.5,8.6,10.5,8.6,10.5,8.6z"/>
</svg>
