<?xml version="1.0" encoding="utf-8"?>
<!-- Generator: Adobe Illustrator 23.0.0, SVG Export Plug-In . SVG Version: 6.00 Build 0)  -->
<svg version="1.1" id="Layer_1" xmlns="http://www.w3.org/2000/svg" xmlns:xlink="http://www.w3.org/1999/xlink" x="0px" y="0px"
	 viewBox="0 0 16 16" style="enable-background:new 0 0 16 16;" xml:space="preserve">
<style type="text/css">
	.st0{fill:#F75049;}
</style>
<g transform="translate(-192,-180)">
	<path class="st0" d="M207.1,193.6c-0.5-0.9-1.3-2.1-1.6-2.3l-0.1-0.1l-0.4,0.3c-0.3,0.1-0.5,0.3-0.5,0.3c0,0.1,0.3,1,0.5,1.4
		c0.3,0.7,0.6,1.4,0.8,1.6c0.1,0.1,0.2,0.2,0.4,0.2c0.3,0,0.6-0.1,0.8-0.3c0.2-0.2,0.2-0.3,0.2-0.5C207.3,194,207.3,194,207.1,193.6
		z M193.4,192c0,0-0.1,0.6-0.3,1.3c-0.2,0.7-0.3,1.3-0.3,1.4c0,0,0,0,1.1-0.9c0.5-0.4,0.9-0.8,0.9-0.8
		C194.9,193,193.5,192,193.4,192z M198.7,186.7l-2.6,2.8c0,0,0,0,0,0c0,0,0,0,0,0c0-0.2,0-0.3,0-0.4c0.1-0.5,0.6-0.9,1.2-1
		c-0.2-0.4-0.1-0.7,0-0.8c0-0.1,0-0.1,0.1-0.2c0.1,0,0.1,0,0.2-0.1c0.1-0.1,0.2-0.1,0.3-0.2c0-0.1,0.2,0,0.2-0.2
		c0.1,0,0.2-0.1,0.2-0.1c-0.5-0.3-1-0.6-1-0.6c0,0-0.7,1.2-1.5,2.4c0.3,0.3,0.4,0.6,0.4,0.9c0,0.7-0.5,1.2-1.4,1.6
		c0,0.1,0,0.1,0,0.2c-0.1,0.4-0.4,0.8-0.8,1c0.1,0.1,0.3,0.2,0.4,0.3c0.4,0.3,0.8,0.5,0.8,0.5s0.7-1.2,1.5-2.5
		c-0.1-0.2-0.2-0.1-0.4-0.1c0,0-0.1-0.1-0.1-0.1c0-0.1,0-0.2,0-0.3c0,0,0,0,0,0l0,0l2.1-2v0C198.6,187,198.7,186.8,198.7,186.7
		C198.7,186.7,198.7,186.7,198.7,186.7z M198.4,186.7C198.4,186.7,198.4,186.8,198.4,186.7C198.4,186.7,198.4,186.7,198.4,186.7
		C198.4,186.6,198.4,186.7,198.4,186.7z M198.3,186.7C198.3,186.8,198.3,186.8,198.3,186.7C198.3,186.8,198.3,186.9,198.3,186.7
		C198.3,186.7,198.3,186.7,198.3,186.7z M198.3,186.9c-0.1,0,0-0.1-0.2,0.1c-0.1,0.1-0.7,0.7-0.7,0.7c0.1,0,0.1,0.1,0.1,0
		c0-0.1,0.6-0.6,0.6-0.7C198.2,187,198.4,186.9,198.3,186.9z M195.3,188.9c0,0.1-0.1,0.1-0.1,0.2l0.4-0.4L195.3,188.9z M194.3,190.5
		c0,0.1-0.1,0.1-0.1,0.2l0.8-0.7L194.3,190.5z M194.3,191.2l-0.5,0.5c0,0,0.1,0.1,0.2,0.1c0.1-0.2,0.3-0.3,0.3-0.3s0.2-0.1,0.2-0.2
		c0,0,0.2-0.3,0.2-0.3L194.3,191.2z M205.3,190.8c-0.1,0-0.2,0.1-0.3,0.1c0.1-0.1,0.1-0.2,0.2-0.2c0,0-0.1-0.1-0.1-0.2l-0.6,0.6
		c-0.1,0-0.3,0.1-0.4,0.1c0.1,0.2,0.2,0.3,0.2,0.3c0,0,0.9-0.5,1-0.6C205.3,190.9,205.3,190.8,205.3,190.8z M204.9,190l-1,0.8v0
		c0,0,0,0.1,0.1,0.1l0.9-0.8C204.9,190.1,204.9,190,204.9,190z M203.6,189.7C203.5,189.7,203.5,189.8,203.6,189.7
		C203.5,189.8,203.6,189.8,203.6,189.7C203.6,189.8,203.6,189.7,203.6,189.7z M203.8,189.5L203.8,189.5
		C203.7,189.5,203.7,189.6,203.8,189.5C203.7,189.6,203.8,189.6,203.8,189.5C203.8,189.6,203.8,189.5,203.8,189.5z M203.8,189.5
		C203.9,189.5,203.9,189.5,203.8,189.5C203.9,189.5,203.9,189.5,203.8,189.5C203.9,189.5,203.9,189.5,203.8,189.5z M204.6,189.4
		l-0.6,0.5l-0.4,0.4c0,0.1,0.1,0.2,0.2,0.3l0.2-0.2l0.8-0.7C204.7,189.5,204.6,189.5,204.6,189.4z M192.6,190.5
		C192.6,190.5,192.6,190.5,192.6,190.5C192.6,190.5,192.6,190.6,192.6,190.5C192.6,190.5,192.7,190.5,192.6,190.5z M192.8,190.4
		c-0.1,0-0.1,0-0.1,0C192.6,190.5,192.7,190.5,192.8,190.4C192.8,190.4,192.8,190.4,192.8,190.4z M193,190.1c-0.1,0-0.1,0.1-0.1,0.1
		c0,0.2,0.1,0.2,0.1,0.1C193,190.2,193,190.1,193,190.1z M193.8,189.4C193.8,189.4,193.7,189.5,193.8,189.4
		C193.7,189.5,193.8,189.5,193.8,189.4C193.8,189.5,193.8,189.4,193.8,189.4z M194.2,189.3c-0.1,0-0.1,0-0.1,0
		C194,189.4,194.1,189.4,194.2,189.3C194.2,189.3,194.2,189.3,194.2,189.3z M194.1,189.2c-0.2,0.2-0.2,0.2-0.1,0.1
		c0.1-0.1,0.2-0.1,0.2-0.2C194.2,189.1,194.1,189.2,194.1,189.2z M194.3,189.5l-0.9,0.9l-0.5,0.4h0.5l0.1-0.1l0.5-0.5l0.4-0.7
		L194.3,189.5z M194.4,188.9c-0.2,0.1-0.2,0.2-0.1,0.1c0.1-0.1,0.2-0.1,0.2-0.2C194.6,188.8,194.4,188.9,194.4,188.9z M194.6,187.8
		l-0.6,0.4l-0.2,0.2l-0.2,0.2l-0.1,0.1c0-0.1-0.1-0.2-0.1-0.3l0.6-0.6h-0.4l-0.5,0.4c-0.1-0.1-0.3-0.2-0.4-0.3l0.1-0.1v0h-0.4v0.4
		l0.2-0.2c0.1,0.1,0.3,0.2,0.4,0.3l-0.5,0.4v0.5l0.7-0.7c0,0.1,0.1,0.2,0.1,0.3v0l0,0l-0.8,0.7c0,0.1,0,0.2,0,0.3l0.3-0.3l0.4-0.4
		c-0.1,0.4-0.4,0.7-0.4,0.8c0,0,0.1,0,0.2-0.1c0.1-0.1,0.1-0.1,0.2-0.2c0.1-0.1,0.2-0.2,0.3-0.4c0.1-0.2,0.2-0.3,0.2-0.5l0.2-0.3
		l0.4-0.3l0.2-0.3l0.4-0.3C194.7,187.8,194.7,187.8,194.6,187.8z M194.8,188.4c0,0-0.1,0.1,0,0.2c0,0,0.1,0,0.1,0c0,0,0,0,0-0.1
		C195,188.4,194.8,188.4,194.8,188.4z M195,188.2l0.2,0c0,0,0.1-0.1,0.1-0.1L195,188.2z M195.3,187.8
		C195.3,187.8,195.3,187.9,195.3,187.8C195.3,187.9,195.3,187.9,195.3,187.8C195.4,187.8,195.4,187.8,195.3,187.8
		C195.4,187.8,195.4,187.8,195.3,187.8z M204.1,188.4l-1,1c0,0.1,0.1,0.1,0.1,0.2l0.9-0.9l0,0C204.1,188.5,204.1,188.4,204.1,188.4z
		 M204.1,188.4l-1,1c0,0.1,0.1,0.1,0.1,0.2l0.9-0.9l0,0C204.1,188.5,204.1,188.4,204.1,188.4z M204.1,188.4l-1,1
		c0,0.1,0.1,0.1,0.1,0.2l0.9-0.9l0,0C204.1,188.5,204.1,188.4,204.1,188.4z M204.1,188.4l-1,1c0,0.1,0.1,0.1,0.1,0.2l0.9-0.9l0,0
		C204.1,188.5,204.1,188.4,204.1,188.4z M204.1,188.4l-1,1c0,0.1,0.1,0.1,0.1,0.2l0.9-0.9l0,0C204.1,188.5,204.1,188.4,204.1,188.4z
		 M204.1,188.4l-1,1c0,0.1,0.1,0.1,0.1,0.2l0.9-0.9l0,0C204.1,188.5,204.1,188.4,204.1,188.4z M204.1,188.4l-1,1
		c0,0.1,0.1,0.1,0.1,0.2l0.9-0.9l0,0C204.1,188.5,204.1,188.4,204.1,188.4z M204.1,188.4l-1,1c0,0.1,0.1,0.1,0.1,0.2l0.9-0.9l0,0
		C204.1,188.5,204.1,188.4,204.1,188.4z M204.1,188.4l-1,1c0,0.1,0.1,0.1,0.1,0.2l0.9-0.9l0,0C204.1,188.5,204.1,188.4,204.1,188.4z
		 M204.1,188.4l-1,1c0,0.1,0.1,0.1,0.1,0.2l0.9-0.9l0,0C204.1,188.5,204.1,188.4,204.1,188.4z M197.4,189.8
		C197.4,189.8,197.3,189.8,197.4,189.8C197.4,189.8,197.4,189.8,197.4,189.8C197.4,189.8,197.4,189.8,197.4,189.8z M197.7,190.3
		c-0.1,0-0.2,0.1-0.4,0.1c0,0-0.1-0.1-0.1-0.1c-0.1-0.1-0.1-0.1-0.1-0.1c-0.1,0.2-0.2,0.4-0.2,0.4c0,0,0.3,0,0.9,0
		C197.7,190.6,197.7,190.5,197.7,190.3z M200.4,189.5C200.4,189.6,200.3,189.6,200.4,189.5C200.4,189.6,200.4,189.6,200.4,189.5
		C200.4,189.5,200.4,189.5,200.4,189.5z M199,187.8l-0.1,0.1l-0.1,0.1l-0.2,0.2l-0.7,0.8l-0.1,0.2c-0.1,0.1-0.2,0.3-0.2,0.4l0,0
		l0.9-0.9c0,0.1,0,0.3,0.1,0.5c0.1,0,0.1,0,0.1,0c0,0,0,0,0,0c0-0.1-0.1-0.3,0-0.5c0.1-0.5,0.7-0.8,0.9-0.8c0,0,0,0,0.1,0l-0.5,0.6
		l0,0.1l0.1-0.1l0.2-0.2l0.5-0.5c0.1,0,0.3,0,0.5,0c0.1,0,0.2,0,0.3,0c0.1,0,0.1,0,0.2,0c0,0,0,0,0,0c0,0,0,0,0-0.1H199z M201.8,188
		l-1.3,1.2l-0.1,0.1l0.1,0.1l1.4-1.3L201.8,188z M202.1,188.5l-0.9,0.8l-0.1,0.1l-0.6,0.7h0.1l0.6-0.6l0.6-0.6l0.4-0.3L202.1,188.5z
		 M204.1,188.4l-1,1c0,0.1,0.1,0.1,0.1,0.2l0.9-0.9l0,0C204.1,188.5,204.1,188.4,204.1,188.4z M204.1,188.4l-1,1
		c0,0.1,0.1,0.1,0.1,0.2l0.9-0.9l0,0C204.1,188.5,204.1,188.4,204.1,188.4z M204.1,188.4l-1,1c0,0.1,0.1,0.1,0.1,0.2l0.9-0.9l0,0
		C204.1,188.5,204.1,188.4,204.1,188.4z M203.4,190.6c0,0,0,0-0.1-0.1l-0.2,0.2L203.4,190.6L203.4,190.6z M203.1,190.1
		C203.1,190.1,203.1,190.1,203.1,190.1C203.1,190.1,203.1,190.1,203.1,190.1C203.1,190.1,203.1,190.1,203.1,190.1z M204.1,188.4
		l-1,1c0,0.1,0.1,0.1,0.1,0.2l0.9-0.9l0,0C204.1,188.5,204.1,188.4,204.1,188.4z M202.8,189.6l-1.1,1.1h0.3l0.9-0.9
		C202.9,189.7,202.8,189.7,202.8,189.6z M204.1,188.4l-1,1c0,0.1,0.1,0.1,0.1,0.2l0.9-0.9l0,0C204.1,188.5,204.1,188.4,204.1,188.4z
		 M204.1,188.4l-1,1c0,0.1,0.1,0.1,0.1,0.2l0.9-0.9l0,0C204.1,188.5,204.1,188.4,204.1,188.4z M202.8,190.4c-0.1,0-0.1,0.1-0.1,0.1
		c0,0.1,0.1,0.2,0.1,0.1C202.8,190.5,202.8,190.4,202.8,190.4z M202.5,190.6C202.5,190.6,202.4,190.6,202.5,190.6L202.5,190.6
		C202.5,190.7,202.5,190.6,202.5,190.6z M204.1,188.4l-1,1c0,0.1,0.1,0.1,0.1,0.2l0.9-0.9l0,0C204.1,188.5,204.1,188.4,204.1,188.4z
		 M202.5,189.2l-0.2-0.2l-1.8,1.8h0.6l1.4-1.4C202.6,189.3,202.6,189.2,202.5,189.2z M204.1,188.4l-1,1c0,0.1,0.1,0.1,0.1,0.2
		l0.9-0.9l0,0C204.1,188.5,204.1,188.4,204.1,188.4z M204.1,188.4l-1,1c0,0.1,0.1,0.1,0.1,0.2l0.9-0.9l0,0
		C204.1,188.5,204.1,188.4,204.1,188.4z M204.1,188.4l-1,1c0,0.1,0.1,0.1,0.1,0.2l0.9-0.9l0,0C204.1,188.5,204.1,188.4,204.1,188.4z
		 M204.1,188.4l-1,1c0,0.1,0.1,0.1,0.1,0.2l0.9-0.9l0,0C204.1,188.5,204.1,188.4,204.1,188.4z M204.1,188.4l-1,1
		c0,0.1,0.1,0.1,0.1,0.2l0.9-0.9l0,0C204.1,188.5,204.1,188.4,204.1,188.4z M204.1,188.4l-1,1c0,0.1,0.1,0.1,0.1,0.2l0.9-0.9l0,0
		C204.1,188.5,204.1,188.4,204.1,188.4z M204.1,188.4l-1,1c0,0.1,0.1,0.1,0.1,0.2l0.9-0.9l0,0C204.1,188.5,204.1,188.4,204.1,188.4z
		 M204.1,188.4l-1,1c0,0.1,0.1,0.1,0.1,0.2l0.9-0.9l0,0C204.1,188.5,204.1,188.4,204.1,188.4z M204.1,188.4l-1,1
		c0,0.1,0.1,0.1,0.1,0.2l0.9-0.9l0,0C204.1,188.5,204.1,188.4,204.1,188.4z M204.1,188.4l-1,1c0,0.1,0.1,0.1,0.1,0.2l0.9-0.9l0,0
		C204.1,188.5,204.1,188.4,204.1,188.4z M204.1,188.4l-1,1c0,0.1,0.1,0.1,0.1,0.2l0.9-0.9l0,0C204.1,188.5,204.1,188.4,204.1,188.4z
		 M204.1,188.4l-1,1c0,0.1,0.1,0.1,0.1,0.2l0.9-0.9l0,0C204.1,188.5,204.1,188.4,204.1,188.4z M204.5,187.8
		C204.6,187.8,204.6,187.8,204.5,187.8c0,0.1,0,0.1,0,0.1l0,0l-0.2,0.2l0.1,0.2l0,0.1l0.1,0.2c0-0.1,0.1-0.1,0.1-0.2
		c0.1-0.2,0.2-0.3,0.2-0.5l0,0H204.5z M205,188.4C205,188.4,205,188.4,205,188.4C205,188.5,205,188.5,205,188.4
		C205,188.4,205.1,188.4,205,188.4z M205.4,188.3c-0.1,0-0.1,0-0.1,0C205.3,188.3,205.4,188.3,205.4,188.3
		C205.4,188.3,205.5,188.3,205.4,188.3z M205.3,188.1c-0.2,0.2-0.2,0.2-0.1,0.1c0.1-0.1,0.2-0.1,0.2-0.2
		C205.5,188,205.3,188.1,205.3,188.1z M205.8,187.8C205.7,187.8,205.7,187.8,205.8,187.8c-0.3,0.2-0.3,0.3-0.2,0.2
		C205.7,187.9,205.8,187.8,205.8,187.8L205.8,187.8z M207.3,187.8c0,0.1,0,0.2,0,0.3c0,0.7-0.5,1.3-1.4,1.6c0,0.1,0,0.1,0,0.2
		c-0.1,0.3-0.2,0.5-0.4,0.7l0.1,0.1h1.9v-2.9L207.3,187.8z M206.6,187.8l-1,0.6l-0.7,0.7c0,0.1,0.1,0.2,0.1,0.2l0.9-0.9L206.6,187.8
		L206.6,187.8z M205.2,189.8c0,0,0,0.1,0.1,0.1l1-0.8L205.2,189.8z M205.5,190.2l-0.1,0.1l0.1,0.2c0,0,0.1-0.1,0.1-0.1
		c0,0,0.2-0.3,0.2-0.3L205.5,190.2z M199,187.8l-0.1,0.1l-0.1,0.1l-0.2,0.2l-0.7,0.8l-0.1,0.2c-0.1,0.1-0.2,0.3-0.2,0.4l0,0l0.9-0.9
		c0,0.1,0,0.3,0.1,0.5c0.1,0,0.1,0,0.1,0c0,0,0,0,0,0c0-0.1-0.1-0.3,0-0.5c0.1-0.5,0.7-0.8,0.9-0.8c0,0,0,0,0.1,0l-0.5,0.6l0,0.1
		l0.1-0.1l0.2-0.2l0.5-0.5c0.1,0,0.3,0,0.5,0c0.1,0,0.2,0,0.3,0c0.1,0,0.1,0,0.2,0c0,0,0,0,0,0c0,0,0,0,0-0.1H199z M199,187.8
		l-0.1,0.1l-0.1,0.1l-0.2,0.2l-0.7,0.8l-0.1,0.2c-0.1,0.1-0.2,0.3-0.2,0.4l0,0l0.9-0.9c0,0.1,0,0.3,0.1,0.5c0.1,0,0.1,0,0.1,0
		c0,0,0,0,0,0c0-0.1-0.1-0.3,0-0.5c0.1-0.5,0.7-0.8,0.9-0.8c0,0,0,0,0.1,0l-0.5,0.6l0,0.1l0.1-0.1l0.2-0.2l0.5-0.5
		c0.1,0,0.3,0,0.5,0c0.1,0,0.2,0,0.3,0c0.1,0,0.1,0,0.2,0c0,0,0,0,0,0c0,0,0,0,0-0.1H199z M199,187.8l-0.1,0.1l-0.1,0.1l-0.2,0.2
		l-0.7,0.8l-0.1,0.2c-0.1,0.1-0.2,0.3-0.2,0.4l0,0l0.9-0.9c0,0.1,0,0.3,0.1,0.5c0.1,0,0.1,0,0.1,0c0,0,0,0,0,0c0-0.1-0.1-0.3,0-0.5
		c0.1-0.5,0.7-0.8,0.9-0.8c0,0,0,0,0.1,0l-0.5,0.6l0,0.1l0.1-0.1l0.2-0.2l0.5-0.5c0.1,0,0.3,0,0.5,0c0.1,0,0.2,0,0.3,0
		c0.1,0,0.1,0,0.2,0c0,0,0,0,0,0c0,0,0,0,0-0.1H199z M199,187.8l-0.1,0.1l-0.1,0.1l-0.2,0.2l-0.7,0.8l-0.1,0.2
		c-0.1,0.1-0.2,0.3-0.2,0.4l0,0l0.9-0.9c0,0.1,0,0.3,0.1,0.5c0.1,0,0.1,0,0.1,0c0,0,0,0,0,0c0-0.1-0.1-0.3,0-0.5
		c0.1-0.5,0.7-0.8,0.9-0.8c0,0,0,0,0.1,0l-0.5,0.6l0,0.1l0.1-0.1l0.2-0.2l0.5-0.5c0.1,0,0.3,0,0.5,0c0.1,0,0.2,0,0.3,0
		c0.1,0,0.1,0,0.2,0c0,0,0,0,0,0c0,0,0,0,0-0.1H199z M199,187.8l-0.1,0.1l-0.1,0.1l-0.2,0.2l-0.7,0.8l-0.1,0.2
		c-0.1,0.1-0.2,0.3-0.2,0.4l0,0l0.9-0.9c0,0.1,0,0.3,0.1,0.5c0.1,0,0.1,0,0.1,0c0,0,0,0,0,0c0-0.1-0.1-0.3,0-0.5
		c0.1-0.5,0.7-0.8,0.9-0.8c0,0,0,0,0.1,0l-0.5,0.6l0,0.1l0.1-0.1l0.2-0.2l0.5-0.5c0.1,0,0.3,0,0.5,0c0.1,0,0.2,0,0.3,0
		c0.1,0,0.1,0,0.2,0c0,0,0,0,0,0c0,0,0,0,0-0.1H199z M199,187.8l-0.1,0.1l-0.1,0.1l-0.2,0.2l-0.7,0.8l-0.1,0.2
		c-0.1,0.1-0.2,0.3-0.2,0.4l0,0l0.9-0.9c0,0.1,0,0.3,0.1,0.5c0.1,0,0.1,0,0.1,0c0,0,0,0,0,0c0-0.1-0.1-0.3,0-0.5
		c0.1-0.5,0.7-0.8,0.9-0.8c0,0,0,0,0.1,0l-0.5,0.6l0,0.1l0.1-0.1l0.2-0.2l0.5-0.5c0.1,0,0.3,0,0.5,0c0.1,0,0.2,0,0.3,0
		c0.1,0,0.1,0,0.2,0c0,0,0,0,0,0c0,0,0,0,0-0.1H199z M199,187.8l-0.1,0.1l-0.1,0.1l-0.2,0.2l-0.7,0.8l-0.1,0.2
		c-0.1,0.1-0.2,0.3-0.2,0.4l0,0l0.9-0.9c0,0.1,0,0.3,0.1,0.5c0.1,0,0.1,0,0.1,0c0,0,0,0,0,0c0-0.1-0.1-0.3,0-0.5
		c0.1-0.5,0.7-0.8,0.9-0.8c0,0,0,0,0.1,0l-0.5,0.6l0,0.1l0.1-0.1l0.2-0.2l0.5-0.5c0.1,0,0.3,0,0.5,0c0.1,0,0.2,0,0.3,0
		c0.1,0,0.1,0,0.2,0c0,0,0,0,0,0c0,0,0,0,0-0.1H199z M199,187.8l-0.1,0.1l-0.1,0.1l-0.2,0.2l-0.7,0.8l-0.1,0.2
		c-0.1,0.1-0.2,0.3-0.2,0.4l0,0l0.9-0.9c0,0.1,0,0.3,0.1,0.5c0.1,0,0.1,0,0.1,0c0,0,0,0,0,0c0-0.1-0.1-0.3,0-0.5
		c0.1-0.5,0.7-0.8,0.9-0.8c0,0,0,0,0.1,0l-0.5,0.6l0,0.1l0.1-0.1l0.2-0.2l0.5-0.5c0.1,0,0.3,0,0.5,0c0.1,0,0.2,0,0.3,0
		c0.1,0,0.1,0,0.2,0c0,0,0,0,0,0c0,0,0,0,0-0.1H199z M203.2,186.7l-1.1,1c0,0,0,0.1,0.1,0.1l1-1L203.2,186.7
		C203.3,186.8,203.2,186.8,203.2,186.7z M202.3,186C202.3,186,202.2,186,202.3,186c0,0.2,0,0.3,0,0.2C202.4,186,202.3,186,202.3,186
		z M201.1,183c-0.9-1.6-1.6-2.3-1.9-2.3c-0.2,0.1-0.1,0.6,0.2,1.5c0.2,0.6,0.8,1.9,1.4,3.1c0.2-0.1,0.4-0.1,0.6-0.1l-0.4,0.4
		c0.1,0.2,0.2,0.4,0.3,0.6l0.8-0.9c0.2,0.1,0.3,0.1,0.4,0.2c0,0.1,0,0.1,0,0.2c0,0-0.1,0.3,0,0.1c0.1-0.1,0.1-0.1,0.2-0.1
		C202.1,184.7,201.5,183.7,201.1,183z M203.2,186.6c-0.2,0-0.4,0-0.6,0c-0.3,0-0.6,0.2-0.9,0.3c0,0,0,0.1,0.1,0.1
		c0.1-0.1,0.2-0.1,0.2-0.1C202.2,186.8,202.6,186.6,203.2,186.6C203.2,186.7,203.2,186.6,203.2,186.6z M204.3,188.8
		c-0.1,0.1-0.1,0.2-0.2,0.2C204.2,189,204.2,188.9,204.3,188.8C204.3,188.9,204.3,188.9,204.3,188.8L204.3,188.8z M203.9,188.1
		c-0.1-0.1-0.1-0.2-0.2-0.3l-0.9,0.7l-0.2,0.2c0.1,0.1,0.2,0.3,0.3,0.4L203.9,188.1C203.9,188.1,203.9,188.1,203.9,188.1z
		 M203.5,187.2l-1.1,1c0,0,0,0.1,0.1,0.1l1.1-1C203.5,187.3,203.5,187.3,203.5,187.2z M204.1,188.4l-1,1c0,0.1,0.1,0.1,0.1,0.2
		l0.9-0.9l0,0C204.1,188.5,204.1,188.4,204.1,188.4z M199,187.8l-0.1,0.1l-0.1,0.1l-0.2,0.2l-0.7,0.8l-0.1,0.2
		c-0.1,0.1-0.2,0.3-0.2,0.4l0,0l0.9-0.9c0,0.1,0,0.3,0.1,0.5c0.1,0,0.1,0,0.1,0c0,0,0,0,0,0c0-0.1-0.1-0.3,0-0.5
		c0.1-0.5,0.7-0.8,0.9-0.8c0,0,0,0,0.1,0l-0.5,0.6l0,0.1l0.1-0.1l0.2-0.2l0.5-0.5c0.1,0,0.3,0,0.5,0c0.1,0,0.2,0,0.3,0
		c0.1,0,0.1,0,0.2,0c0,0,0,0,0,0c0,0,0,0,0-0.1H199z M199,187.8l-0.1,0.1l-0.1,0.1l-0.2,0.2l-0.7,0.8l-0.1,0.2
		c-0.1,0.1-0.2,0.3-0.2,0.4l0,0l0.9-0.9c0,0.1,0,0.3,0.1,0.5c0.1,0,0.1,0,0.1,0c0,0,0,0,0,0c0-0.1-0.1-0.3,0-0.5
		c0.1-0.5,0.7-0.8,0.9-0.8c0,0,0,0,0.1,0l-0.5,0.6l0,0.1l0.1-0.1l0.2-0.2l0.5-0.5c0.1,0,0.3,0,0.5,0c0.1,0,0.2,0,0.3,0
		c0.1,0,0.1,0,0.2,0c0,0,0,0,0,0c0,0,0,0,0-0.1H199z M199,187.8l-0.1,0.1l-0.1,0.1l-0.2,0.2l-0.7,0.8l-0.1,0.2
		c-0.1,0.1-0.2,0.3-0.2,0.4l0,0l0.9-0.9c0,0.1,0,0.3,0.1,0.5c0.1,0,0.1,0,0.1,0c0,0,0,0,0,0c0-0.1-0.1-0.3,0-0.5
		c0.1-0.5,0.7-0.8,0.9-0.8c0,0,0,0,0.1,0l-0.5,0.6l0,0.1l0.1-0.1l0.2-0.2l0.5-0.5c0.1,0,0.3,0,0.5,0c0.1,0,0.2,0,0.3,0
		c0.1,0,0.1,0,0.2,0c0,0,0,0,0,0c0,0,0,0,0-0.1H199z M199,187.8l-0.1,0.1l-0.1,0.1l-0.2,0.2l-0.7,0.8l-0.1,0.2
		c-0.1,0.1-0.2,0.3-0.2,0.4l0,0l0.9-0.9c0,0.1,0,0.3,0.1,0.5c0.1,0,0.1,0,0.1,0c0,0,0,0,0,0c0-0.1-0.1-0.3,0-0.5
		c0.1-0.5,0.7-0.8,0.9-0.8c0,0,0,0,0.1,0l-0.5,0.6l0,0.1l0.1-0.1l0.2-0.2l0.5-0.5c0.1,0,0.3,0,0.5,0c0.1,0,0.2,0,0.3,0
		c0.1,0,0.1,0,0.2,0c0,0,0,0,0,0c0,0,0,0,0-0.1H199z M199,187.8l-0.1,0.1l-0.1,0.1l-0.2,0.2l-0.7,0.8l-0.1,0.2
		c-0.1,0.1-0.2,0.3-0.2,0.4l0,0l0.9-0.9c0,0.1,0,0.3,0.1,0.5c0.1,0,0.1,0,0.1,0c0,0,0,0,0,0c0-0.1-0.1-0.3,0-0.5
		c0.1-0.5,0.7-0.8,0.9-0.8c0,0,0,0,0.1,0l-0.5,0.6l0,0.1l0.1-0.1l0.2-0.2l0.5-0.5c0.1,0,0.3,0,0.5,0c0.1,0,0.2,0,0.3,0
		c0.1,0,0.1,0,0.2,0c0,0,0,0,0,0c0,0,0,0,0-0.1H199z M199,187.8l-0.1,0.1l-0.1,0.1l-0.2,0.2l-0.7,0.8l-0.1,0.2
		c-0.1,0.1-0.2,0.3-0.2,0.4l0,0l0.9-0.9c0,0.1,0,0.3,0.1,0.5c0.1,0,0.1,0,0.1,0c0,0,0,0,0,0c0-0.1-0.1-0.3,0-0.5
		c0.1-0.5,0.7-0.8,0.9-0.8c0,0,0,0,0.1,0l-0.5,0.6l0,0.1l0.1-0.1l0.2-0.2l0.5-0.5c0.1,0,0.3,0,0.5,0c0.1,0,0.2,0,0.3,0
		c0.1,0,0.1,0,0.2,0c0,0,0,0,0,0c0,0,0,0,0-0.1H199z M199,187.8l-0.1,0.1l-0.1,0.1l-0.2,0.2l-0.7,0.8l-0.1,0.2
		c-0.1,0.1-0.2,0.3-0.2,0.4l0,0l0.9-0.9c0,0.1,0,0.3,0.1,0.5c0.1,0,0.1,0,0.1,0c0,0,0,0,0,0c0-0.1-0.1-0.3,0-0.5
		c0.1-0.5,0.7-0.8,0.9-0.8c0,0,0,0,0.1,0l-0.5,0.6l0,0.1l0.1-0.1l0.2-0.2l0.5-0.5c0.1,0,0.3,0,0.5,0c0.1,0,0.2,0,0.3,0
		c0.1,0,0.1,0,0.2,0c0,0,0,0,0,0c0,0,0,0,0-0.1H199z M199,184.5c-0.4-0.3-0.8-0.5-0.8-0.5c0,0-0.2,0.3-0.4,0.6
		c-0.2,0.3-0.4,0.7-0.5,0.7l-0.1,0.1l0.8,0.5c0.2,0.1,0.3,0.2,0.4,0.3c0.2-0.1,0.4-0.1,0.6-0.1c0-0.1,0.1-0.2,0.2-0.3
		c0.2-0.3,0.4-0.6,0.4-0.7l0.1-0.2L199,184.5z M199.8,183.8c-0.3-0.3-0.7-0.5-1-0.4c-0.2,0-0.5,0.3-0.5,0.5c0,0,0.3,0.3,0.7,0.5
		c0.4,0.3,0.7,0.5,0.8,0.5c0,0,0.2-0.4,0.2-0.5C200,184.1,200,184,199.8,183.8z"/>
</g>
<path class="st0" d="M11.2,6.7C11.2,6.7,11.2,6.7,11.2,6.7L11.2,6.7C11.2,6.7,11.2,6.7,11.2,6.7z M8.4,9.5C8.4,9.6,8.3,9.6,8.4,9.5
	C8.4,9.6,8.4,9.6,8.4,9.5C8.4,9.5,8.4,9.5,8.4,9.5z"/>
<path class="st0" d="M12.5,8.4l-0.1-0.1"/>
<path class="st0" d="M8.4,9.6C8.4,9.6,8.4,9.6,8.4,9.6C8.3,9.6,8.4,9.6,8.4,9.6C8.4,9.5,8.4,9.5,8.4,9.6z"/>
<path class="st0" d="M7.3,7.7L7.3,7.7z"/>
<path class="st0" d="M-2.9,10.6C-2.9,10.6-2.9,10.6-2.9,10.6C-2.9,10.6-2.8,10.6-2.9,10.6C-2.8,10.6-2.9,10.6-2.9,10.6z M0.5,7.9
	L0.5,7.9L0.5,7.9C0.5,8,0.5,8,0.5,7.9z"/>
<path class="st0" d="M0.5,7.8c0,0,0.1,0,0.2,0.1l0-0.1H0.5z"/>
<path d="M-2.8,10.6C-2.8,10.6-2.9,10.6-2.8,10.6C-2.9,10.6-2.9,10.6-2.8,10.6C-2.9,10.6-2.8,10.6-2.8,10.6z"/>
<path d="M-4,8.8L-4,8.8z"/>
</svg>
