<?xml version="1.0" encoding="utf-8"?>
<!-- Generator: Adobe Illustrator 23.0.0, SVG Export Plug-In . SVG Version: 6.00 Build 0)  -->
<svg version="1.1" id="Layer_1" xmlns="http://www.w3.org/2000/svg" xmlns:xlink="http://www.w3.org/1999/xlink" x="0px" y="0px"
	 viewBox="0 0 16 16" style="enable-background:new 0 0 16 16;" xml:space="preserve">
<style type="text/css">
	.st0{fill:#F75049;}
</style>
<g transform="translate(-392 -112)">
	<path class="st0" d="M400,120.8v-1c-0.3,0.3-0.7,0.6-1,0.9v0.5l0.3,0.3C399.5,121.3,399.8,121,400,120.8L400,120.8z M401.6,122.3
		c-0.3,0.2-0.5,0.4-0.8,0.6l0.6,0.6l0.7-0.7L401.6,122.3z M400.5,121.3c-0.2,0.1-0.3,0.3-0.4,0.4c-0.1,0.1-0.2,0.2-0.3,0.3l0.7,0.7
		c0.3-0.2,0.5-0.4,0.8-0.6L400.5,121.3z M401.3,122c-0.3,0.2-0.5,0.5-0.7,0.7l0.2,0.2c0,0,0.1-0.1,0.1-0.1c0.2-0.2,0.4-0.4,0.6-0.6
		L401.3,122z M399,118.7v1.5c0.3-0.3,0.6-0.6,1-0.9c0,0,0,0,0,0v-1.4C399.7,118.2,399.3,118.4,399,118.7z M399.1,117
		C399.1,117,399,117,399.1,117l-0.1,1.2c0.3-0.3,0.7-0.6,1-0.9V116C399.7,116.3,399.4,116.7,399.1,117z M400,120.8v-1
		c-0.3,0.3-0.7,0.6-1,0.9v0.5l0.3,0.3C399.5,121.3,399.8,121,400,120.8L400,120.8z M401.6,122.3c-0.3,0.2-0.5,0.4-0.8,0.6l0.6,0.6
		l0.7-0.7L401.6,122.3z M400.5,121.3c-0.2,0.1-0.3,0.3-0.4,0.4c-0.1,0.1-0.2,0.2-0.3,0.3l0.7,0.7c0.3-0.2,0.5-0.4,0.8-0.6
		L400.5,121.3z M401.3,122c-0.3,0.2-0.5,0.5-0.7,0.7l0.2,0.2c0,0,0.1-0.1,0.1-0.1c0.2-0.2,0.4-0.4,0.6-0.6L401.3,122z M399,118.7
		v1.5c0.3-0.3,0.6-0.6,1-0.9c0,0,0,0,0,0v-1.4C399.7,118.2,399.3,118.4,399,118.7z M399.1,117C399.1,117,399,117,399.1,117l-0.1,1.2
		c0.3-0.3,0.7-0.6,1-0.9V116C399.7,116.3,399.4,116.7,399.1,117z M395.6,114.1c-1,0.9-2.1,1.8-3.1,2.7c-0.1,0.4-0.2,0.8-0.3,1.2
		c0.2,0,0.5-0.1,0.7-0.2c0.7-0.7,1.5-1.4,2.3-2.1l-0.1-0.1c0.3-0.3,0.6-0.5,1-0.7l0,0c0.8-0.6,1.5-1.3,2.2-1.9
		C397.3,113.3,396.4,113.6,395.6,114.1z M395.5,116.1c-0.6,0.5-1.2,1-1.8,1.5c0.2,0,0.3-0.1,0.5-0.1c0.5-0.1,0.9-0.3,1.3-0.4
		c0.1-0.1,0.3-0.3,0.4-0.4L395.5,116.1z M400,120.8v-1c-0.3,0.3-0.7,0.6-1,0.9v0.5l0.3,0.3C399.5,121.3,399.8,121,400,120.8
		L400,120.8z M401.6,122.3c-0.3,0.2-0.5,0.4-0.8,0.6l0.6,0.6l0.7-0.7L401.6,122.3z M400.5,121.3c-0.2,0.1-0.3,0.3-0.4,0.4
		c-0.1,0.1-0.2,0.2-0.3,0.3l0.7,0.7c0.3-0.2,0.5-0.4,0.8-0.6L400.5,121.3z M401.3,122c-0.3,0.2-0.5,0.5-0.7,0.7l0.2,0.2
		c0,0,0.1-0.1,0.1-0.1c0.2-0.2,0.4-0.4,0.6-0.6L401.3,122z M399,118.7v1.5c0.3-0.3,0.6-0.6,1-0.9c0,0,0,0,0,0v-1.4
		C399.7,118.2,399.3,118.4,399,118.7z M399.1,117C399.1,117,399,117,399.1,117l-0.1,1.2c0.3-0.3,0.7-0.6,1-0.9V116
		C399.7,116.3,399.4,116.7,399.1,117z M400,120.8v-1c-0.3,0.3-0.7,0.6-1,0.9v0.5l0.3,0.3C399.5,121.3,399.8,121,400,120.8L400,120.8
		z M401.6,122.3c-0.3,0.2-0.5,0.4-0.8,0.6l0.6,0.6l0.7-0.7L401.6,122.3z M400.5,121.3c-0.2,0.1-0.3,0.3-0.4,0.4
		c-0.1,0.1-0.2,0.2-0.3,0.3l0.7,0.7c0.3-0.2,0.5-0.4,0.8-0.6L400.5,121.3z M401.3,122c-0.3,0.2-0.5,0.5-0.7,0.7l0.2,0.2
		c0,0,0.1-0.1,0.1-0.1c0.2-0.2,0.4-0.4,0.6-0.6L401.3,122z M399,118.7v1.5c0.3-0.3,0.6-0.6,1-0.9c0,0,0,0,0,0v-1.4
		C399.7,118.2,399.3,118.4,399,118.7z M399.1,117C399.1,117,399,117,399.1,117l-0.1,1.2c0.3-0.3,0.7-0.6,1-0.9V116
		C399.7,116.3,399.4,116.7,399.1,117z M400,120.8v-1c-0.3,0.3-0.7,0.6-1,0.9v0.5l0.3,0.3C399.5,121.3,399.8,121,400,120.8L400,120.8
		z M401.6,122.3c-0.3,0.2-0.5,0.4-0.8,0.6l0.6,0.6l0.7-0.7L401.6,122.3z M400.5,121.3c-0.2,0.1-0.3,0.3-0.4,0.4
		c-0.1,0.1-0.2,0.2-0.3,0.3l0.7,0.7c0.3-0.2,0.5-0.4,0.8-0.6L400.5,121.3z M401.3,122c-0.3,0.2-0.5,0.5-0.7,0.7l0.2,0.2
		c0,0,0.1-0.1,0.1-0.1c0.2-0.2,0.4-0.4,0.6-0.6L401.3,122z M399,118.7v1.5c0.3-0.3,0.6-0.6,1-0.9c0,0,0,0,0,0v-1.4
		C399.7,118.2,399.3,118.4,399,118.7z M399.1,117C399.1,117,399,117,399.1,117l-0.1,1.2c0.3-0.3,0.7-0.6,1-0.9V116
		C399.7,116.3,399.4,116.7,399.1,117z M401.3,113.2c-0.3,0.3-0.6,0.5-0.9,0.8c0.3,0,0.6,0.1,0.9,0.2c0.3-0.3,0.6-0.5,0.9-0.8
		C401.9,113.4,401.6,113.3,401.3,113.2z M403.9,114.4c-0.2,0.2-0.5,0.5-0.7,0.7c0.3,0.2,0.6,0.5,0.9,0.7c0.3-0.2,0.5-0.4,0.8-0.7
		C404.5,114.9,404.2,114.6,403.9,114.4z M395.5,125.6c-0.3,0.2-0.5,0.5-0.8,0.7c0.3,0.2,0.5,0.4,0.8,0.6c0.3-0.2,0.5-0.5,0.8-0.7
		C396,126,395.7,125.8,395.5,125.6z M393.3,122.4c-0.3,0.3-0.5,0.5-0.8,0.8c0.3,0.7,0.6,1.4,1.1,2c0.2-0.2,0.5-0.5,0.7-0.7
		C393.9,123.9,393.5,123.2,393.3,122.4z M393,121h-1c0,0.3,0.1,0.6,0.1,0.9C392.4,121.7,392.7,121.4,393,121
		C393,121,393,121,393,121z M394.5,124.6c-0.3,0.2-0.5,0.4-0.8,0.6c0.2,0.3,0.5,0.5,0.7,0.8c0.2-0.2,0.5-0.5,0.7-0.7
		C394.9,125.1,394.7,124.9,394.5,124.6z M407,119.6c-0.1-0.6-0.2-1.2-0.4-1.7c-0.3,0.3-0.5,0.5-0.8,0.8c0.2,0.6,0.3,1.2,0.3,1.8v0
		c0,2.7-1.7,5-4,6c-0.8,0.3-1.6,0.5-2.5,0.5c-1,0-2-0.2-2.8-0.7c-0.3,0.2-0.6,0.5-0.8,0.7c1.1,0.6,2.3,1,3.7,1c0.3,0,0.5,0,0.8,0
		c3.8-0.4,6.7-3.6,6.7-7.5C407,120.2,407,119.9,407,119.6z M404.9,115.3c-0.2,0.2-0.5,0.4-0.7,0.7c0.6,0.6,1.1,1.4,1.4,2.3
		c0.3-0.2,0.6-0.5,0.8-0.7C406.1,116.7,405.5,116,404.9,115.3z M402.4,113.6c-0.3,0.3-0.5,0.5-0.8,0.8c0.4,0.1,0.8,0.3,1.1,0.5
		c0.3-0.2,0.5-0.5,0.8-0.7C403.2,114,402.8,113.8,402.4,113.6z M400,120.8v-1c-0.3,0.3-0.7,0.6-1,0.9v0.5l0.3,0.3
		C399.5,121.3,399.8,121,400,120.8L400,120.8z M401.6,122.3c-0.3,0.2-0.5,0.4-0.8,0.6l0.6,0.6l0.7-0.7L401.6,122.3z M400.5,121.3
		c-0.2,0.1-0.3,0.3-0.4,0.4c-0.1,0.1-0.2,0.2-0.3,0.3l0.7,0.7c0.3-0.2,0.5-0.4,0.8-0.6L400.5,121.3z M401.3,122
		c-0.3,0.2-0.5,0.5-0.7,0.7l0.2,0.2c0,0,0.1-0.1,0.1-0.1c0.2-0.2,0.4-0.4,0.6-0.6L401.3,122z M399,118.7v1.5c0.3-0.3,0.6-0.6,1-0.9
		c0,0,0,0,0,0v-1.4C399.7,118.2,399.3,118.4,399,118.7z M400,120.8v-1c-0.3,0.3-0.7,0.6-1,0.9v0.5l0.3,0.3
		C399.5,121.3,399.8,121,400,120.8L400,120.8z M401.6,122.3c-0.3,0.2-0.5,0.4-0.8,0.6l0.6,0.6l0.7-0.7L401.6,122.3z M400.5,121.3
		c-0.2,0.1-0.3,0.3-0.4,0.4c-0.1,0.1-0.2,0.2-0.3,0.3l0.7,0.7c0.3-0.2,0.5-0.4,0.8-0.6L400.5,121.3z M401.3,122
		c-0.3,0.2-0.5,0.5-0.7,0.7l0.2,0.2c0,0,0.1-0.1,0.1-0.1c0.2-0.2,0.4-0.4,0.6-0.6L401.3,122z M399,118.7v1.5c0.3-0.3,0.6-0.6,1-0.9
		c0,0,0,0,0,0v-1.4C399.7,118.2,399.3,118.4,399,118.7z M399.1,117C399.1,117,399,117,399.1,117l-0.1,1.2c0.3-0.3,0.7-0.6,1-0.9V116
		C399.7,116.3,399.4,116.7,399.1,117z M399.5,113c-0.2,0-0.4,0-0.6,0c-0.5,0.4-0.9,0.9-1.4,1.3c0.4-0.2,0.9-0.2,1.3-0.3
		c0.4-0.3,0.8-0.7,1.2-1C399.8,113,399.7,113,399.5,113z M400,120.8v-1c-0.3,0.3-0.7,0.6-1,0.9v0.5l0.3,0.3
		C399.5,121.3,399.8,121,400,120.8L400,120.8z M401.6,122.3c-0.3,0.2-0.5,0.4-0.8,0.6l0.6,0.6l0.7-0.7L401.6,122.3z M400.5,121.3
		c-0.2,0.1-0.3,0.3-0.4,0.4c-0.1,0.1-0.2,0.2-0.3,0.3l0.7,0.7c0.3-0.2,0.5-0.4,0.8-0.6L400.5,121.3z M401.3,122
		c-0.3,0.2-0.5,0.5-0.7,0.7l0.2,0.2c0,0,0.1-0.1,0.1-0.1c0.2-0.2,0.4-0.4,0.6-0.6L401.3,122z M399,118.7v1.5c0.3-0.3,0.6-0.6,1-0.9
		c0,0,0,0,0,0v-1.4C399.7,118.2,399.3,118.4,399,118.7z M399.1,117C399.1,117,399,117,399.1,117l-0.1,1.2c0.3-0.3,0.7-0.6,1-0.9V116
		C399.7,116.3,399.4,116.7,399.1,117z M400,120.8v-1c-0.3,0.3-0.7,0.6-1,0.9v0.5l0.3,0.3C399.5,121.3,399.8,121,400,120.8L400,120.8
		z M401.6,122.3c-0.3,0.2-0.5,0.4-0.8,0.6l0.6,0.6l0.7-0.7L401.6,122.3z M400.5,121.3c-0.2,0.1-0.3,0.3-0.4,0.4
		c-0.1,0.1-0.2,0.2-0.3,0.3l0.7,0.7c0.3-0.2,0.5-0.4,0.8-0.6L400.5,121.3z M401.3,122c-0.3,0.2-0.5,0.5-0.7,0.7l0.2,0.2
		c0,0,0.1-0.1,0.1-0.1c0.2-0.2,0.4-0.4,0.6-0.6L401.3,122z M399,118.7v1.5c0.3-0.3,0.6-0.6,1-0.9c0,0,0,0,0,0v-1.4
		C399.7,118.2,399.3,118.4,399,118.7z M399.1,117C399.1,117,399,117,399.1,117l-0.1,1.2c0.3-0.3,0.7-0.6,1-0.9V116
		C399.7,116.3,399.4,116.7,399.1,117z M393.4,114c-0.2,0.7-0.5,1.3-0.7,2c0,0,0,0.1,0,0.1c0.5-0.4,1-0.9,1.4-1.3L393.4,114z
		 M400,120.8v-1c-0.3,0.3-0.7,0.6-1,0.9v0.5l0.3,0.3C399.5,121.3,399.8,121,400,120.8L400,120.8z M401.6,122.3
		c-0.3,0.2-0.5,0.4-0.8,0.6l0.6,0.6l0.7-0.7L401.6,122.3z M400.5,121.3c-0.2,0.1-0.3,0.3-0.4,0.4c-0.1,0.1-0.2,0.2-0.3,0.3l0.7,0.7
		c0.3-0.2,0.5-0.4,0.8-0.6L400.5,121.3z M401.3,122c-0.3,0.2-0.5,0.5-0.7,0.7l0.2,0.2c0,0,0.1-0.1,0.1-0.1c0.2-0.2,0.4-0.4,0.6-0.6
		L401.3,122z M399,118.7v1.5c0.3-0.3,0.6-0.6,1-0.9c0,0,0,0,0,0v-1.4C399.7,118.2,399.3,118.4,399,118.7z M399.1,117
		C399.1,117,399,117,399.1,117l-0.1,1.2c0.3-0.3,0.7-0.6,1-0.9V116C399.7,116.3,399.4,116.7,399.1,117z M400,120.8v-1
		c-0.3,0.3-0.7,0.6-1,0.9v0.5l0.3,0.3C399.5,121.3,399.8,121,400,120.8L400,120.8z M401.6,122.3c-0.3,0.2-0.5,0.4-0.8,0.6l0.6,0.6
		l0.7-0.7L401.6,122.3z M400.5,121.3c-0.2,0.1-0.3,0.3-0.4,0.4c-0.1,0.1-0.2,0.2-0.3,0.3l0.7,0.7c0.3-0.2,0.5-0.4,0.8-0.6
		L400.5,121.3z M401.3,122c-0.3,0.2-0.5,0.5-0.7,0.7l0.2,0.2c0,0,0.1-0.1,0.1-0.1c0.2-0.2,0.4-0.4,0.6-0.6L401.3,122z M399,118.7
		v1.5c0.3-0.3,0.6-0.6,1-0.9c0,0,0,0,0,0v-1.4C399.7,118.2,399.3,118.4,399,118.7z M399,116v0.3c0.1-0.1,0.3-0.2,0.4-0.3H399z
		 M399.1,117C399.1,117,399,117,399.1,117l-0.1,1.2c0.3-0.3,0.7-0.6,1-0.9V116C399.7,116.3,399.4,116.7,399.1,117z"/>
</g>
<path class="st0" d="M9.4,10.2c-0.2,0.2-0.4,0.4-0.6,0.6c0,0-0.1,0.1-0.1,0.1l-0.2-0.2C8.8,10.5,9,10.3,9.3,10L9.4,10.2z"/>
<path class="st0" d="M9.4,10.2c-0.2,0.2-0.4,0.4-0.6,0.6c0,0-0.1,0.1-0.1,0.1l-0.2-0.2C8.8,10.5,9,10.3,9.3,10L9.4,10.2z"/>
<path class="st0" d="M9.4,10.2c-0.2,0.2-0.4,0.4-0.6,0.6c0,0-0.1,0.1-0.1,0.1l-0.2-0.2C8.8,10.5,9,10.3,9.3,10L9.4,10.2z"/>
<path class="st0" d="M9.4,10.2c-0.2,0.2-0.4,0.4-0.6,0.6c0,0-0.1,0.1-0.1,0.1l-0.2-0.2C8.8,10.5,9,10.3,9.3,10L9.4,10.2z"/>
<path class="st0" d="M9.4,10.2c-0.2,0.2-0.4,0.4-0.6,0.6c0,0-0.1,0.1-0.1,0.1l-0.2-0.2C8.8,10.5,9,10.3,9.3,10L9.4,10.2z"/>
<path class="st0" d="M9.4,10.2c-0.2,0.2-0.4,0.4-0.6,0.6c0,0-0.1,0.1-0.1,0.1l-0.2-0.2C8.8,10.5,9,10.3,9.3,10L9.4,10.2z"/>
<path class="st0" d="M9.4,10.2c-0.2,0.2-0.4,0.4-0.6,0.6c0,0-0.1,0.1-0.1,0.1l-0.2-0.2C8.8,10.5,9,10.3,9.3,10L9.4,10.2z"/>
<path class="st0" d="M9.4,10.2c-0.2,0.2-0.4,0.4-0.6,0.6c0,0-0.1,0.1-0.1,0.1l-0.2-0.2C8.8,10.5,9,10.3,9.3,10L9.4,10.2z"/>
<path class="st0" d="M9.4,10.2c-0.2,0.2-0.4,0.4-0.6,0.6c0,0-0.1,0.1-0.1,0.1l-0.2-0.2C8.8,10.5,9,10.3,9.3,10L9.4,10.2z"/>
<path class="st0" d="M9.4,10.2c-0.2,0.2-0.4,0.4-0.6,0.6c0,0-0.1,0.1-0.1,0.1l-0.2-0.2C8.8,10.5,9,10.3,9.3,10L9.4,10.2z"/>
<path class="st0" d="M2.1,2.8C1.7,3.2,1.2,3.6,0.7,4c0,0,0,0,0-0.1c0.2-0.7,0.4-1.3,0.7-2L2.1,2.8z"/>
<path class="st0" d="M4,4.6C3.8,4.8,3.7,4.9,3.6,5C3.1,5.2,2.7,5.3,2.2,5.5C2.1,5.5,1.9,5.6,1.7,5.6c0.6-0.5,1.2-1,1.8-1.5L4,4.6z"
	/>
<path class="st0" d="M6.3,1.1C5.6,1.7,4.8,2.3,4.1,3l0,0C4,3.1,3.9,3.1,3.8,3.2C3.6,3.4,3.4,3.6,3.2,3.8C2.4,4.5,1.6,5.2,0.9,5.8
	C0.7,5.9,0.4,6,0.2,6c0.1-0.4,0.2-0.8,0.3-1.2c1-0.8,2-1.7,3.1-2.7C4.4,1.6,5.3,1.3,6.3,1.1z"/>
<path class="st0" d="M8,1C7.6,1.3,7.2,1.7,6.8,2C6.3,2.1,5.9,2.2,5.5,2.3C6,1.9,6.4,1.5,6.9,1c0.2,0,0.4,0,0.6,0C7.7,1,7.8,1,8,1z"
	/>
<path class="st0" d="M7.4,4C7.3,4.1,7.1,4.2,7,4.3V4H7.4z"/>
<path class="st0" d="M8,4v1.2C7.7,5.5,7.3,5.8,7,6.2V5C7,5,7.1,5,7.1,5C7.4,4.7,7.7,4.3,8,4z"/>
<path class="st0" d="M8,7.3C7.6,7.6,7.3,7.9,7,8.2V6.7c0.3-0.3,0.7-0.5,1-0.8L8,7.3C8,7.3,8,7.3,8,7.3z"/>
<path class="st0" d="M8,8.8C7.8,9,7.5,9.3,7.3,9.5L7,9.2V8.7c0.3-0.3,0.7-0.6,1-0.9L8,8.8L8,8.8z"/>
<path class="st0" d="M9.1,9.9c-0.3,0.2-0.5,0.4-0.8,0.6L7.7,9.9C7.8,9.8,7.9,9.7,8,9.6c0.1-0.1,0.3-0.3,0.4-0.4L9.1,9.9z"/>
<path class="st0" d="M9.4,10.2c-0.2,0.2-0.4,0.4-0.6,0.6c0,0-0.1,0.1-0.1,0.1l-0.2-0.2C8.8,10.5,9,10.3,9.3,10L9.4,10.2z"/>
<path class="st0" d="M10.1,10.9l-0.7,0.7L8.8,11c0.3-0.2,0.5-0.4,0.8-0.6L10.1,10.9z"/>
<path class="st0" d="M2.4,12.5c-0.2,0.2-0.5,0.5-0.7,0.7c-0.5-0.6-0.9-1.3-1.1-2c0.3-0.3,0.5-0.5,0.8-0.8
	C1.5,11.2,1.9,11.9,2.4,12.5z"/>
<path class="st0" d="M3.1,13.3c-0.2,0.2-0.5,0.5-0.7,0.7c-0.3-0.2-0.5-0.5-0.7-0.8c0.3-0.2,0.5-0.4,0.8-0.6
	C2.7,12.9,2.9,13.1,3.1,13.3z"/>
<path class="st0" d="M4.3,14.2c-0.3,0.2-0.5,0.5-0.8,0.7c-0.3-0.2-0.6-0.4-0.8-0.6C3,14,3.2,13.8,3.5,13.6C3.7,13.8,4,14,4.3,14.2z"
	/>
<path class="st0" d="M10,14.5c-0.1,0.3-0.3,0.5-0.6,0.8c-0.3,0.3-0.6,0.4-0.7,0.5c-0.1,0.1-0.2,0.1-0.3,0.2c-0.3,0-0.5,0-0.8,0
	c-1.3,0-2.6-0.3-3.7-1c0.3-0.2,0.6-0.4,0.8-0.7C5.5,14.8,6.5,15,7.5,15C8.4,15,9.2,14.8,10,14.5z"/>
<path class="st0" d="M10.2,1.5C10,1.8,9.7,2,9.3,2.3C9,2.2,8.7,2.1,8.4,2.1C8.7,1.8,9,1.5,9.3,1.2C9.6,1.3,9.9,1.4,10.2,1.5z"/>
<path class="st0" d="M11.6,2.2c-0.3,0.2-0.5,0.4-0.8,0.7C10.4,2.7,10,2.5,9.7,2.4c0.3-0.3,0.5-0.5,0.8-0.8C10.8,1.8,11.2,2,11.6,2.2
	z"/>
<path class="st0" d="M12.8,3.2c-0.3,0.2-0.5,0.4-0.8,0.7c-0.3-0.3-0.6-0.5-0.9-0.7c0.3-0.2,0.5-0.5,0.7-0.7
	C12.2,2.6,12.5,2.9,12.8,3.2z"/>
<path class="st0" d="M14.4,5.6c-0.3,0.2-0.5,0.4-0.8,0.7c-0.3-0.9-0.8-1.7-1.4-2.3c0.3-0.2,0.5-0.5,0.7-0.7
	C13.5,4,14.1,4.7,14.4,5.6z"/>
<path class="st0" d="M15,7.6c-0.2,0.1-0.3,0.3-0.5,0.4c-0.3,0.3-0.4,0.3-0.5,0.5c0-0.6-0.1-1.3-0.3-1.8c0.3-0.3,0.5-0.5,0.8-0.8
	C14.7,6.5,14.9,7,15,7.6z"/>
<path class="st0" d="M9.4,10.2c-0.2,0.2-0.4,0.4-0.6,0.6c0,0-0.1,0.1-0.1,0.1l-0.2-0.2C8.8,10.5,9,10.3,9.3,10L9.4,10.2z"/>
<path class="st0" d="M9.4,10.2c-0.2,0.2-0.4,0.4-0.6,0.6c0,0-0.1,0.1-0.1,0.1l-0.2-0.2C8.8,10.5,9,10.3,9.3,10L9.4,10.2z"/>
<path class="st0" d="M9.4,10.2c-0.2,0.2-0.4,0.4-0.6,0.6c0,0-0.1,0.1-0.1,0.1l-0.2-0.2C8.8,10.5,9,10.3,9.3,10L9.4,10.2z"/>
<path class="st0" d="M9.4,10.2c-0.2,0.2-0.4,0.4-0.6,0.6c0,0-0.1,0.1-0.1,0.1l-0.2-0.2C8.8,10.5,9,10.3,9.3,10L9.4,10.2z"/>
<path class="st0" d="M9.4,10.2c-0.2,0.2-0.4,0.4-0.6,0.6c0,0-0.1,0.1-0.1,0.1l-0.2-0.2C8.8,10.5,9,10.3,9.3,10L9.4,10.2z"/>
<path class="st0" d="M9.4,10.2c-0.2,0.2-0.4,0.4-0.6,0.6c0,0-0.1,0.1-0.1,0.1l-0.2-0.2C8.8,10.5,9,10.3,9.3,10L9.4,10.2z"/>
<path class="st0" d="M9.4,10.2c-0.2,0.2-0.4,0.4-0.6,0.6c0,0-0.1,0.1-0.1,0.1l-0.2-0.2C8.8,10.5,9,10.3,9.3,10L9.4,10.2z"/>
<path class="st0" d="M9.4,10.2c-0.2,0.2-0.4,0.4-0.6,0.6c0,0-0.1,0.1-0.1,0.1l-0.2-0.2C8.8,10.5,9,10.3,9.3,10L9.4,10.2z"/>
<path class="st0" d="M9.4,10.2c-0.2,0.2-0.4,0.4-0.6,0.6c0,0-0.1,0.1-0.1,0.1l-0.2-0.2C8.8,10.5,9,10.3,9.3,10L9.4,10.2z"/>
<path class="st0" d="M9.4,10.2c-0.2,0.2-0.4,0.4-0.6,0.6c0,0-0.1,0.1-0.1,0.1l-0.2-0.2C8.8,10.5,9,10.3,9.3,10L9.4,10.2z"/>
</svg>
