<?xml version="1.0" encoding="utf-8"?>
<!-- Generator: Adobe Illustrator 23.0.0, SVG Export Plug-In . SVG Version: 6.00 Build 0)  -->
<svg version="1.1" id="Layer_1" xmlns="http://www.w3.org/2000/svg" xmlns:xlink="http://www.w3.org/1999/xlink" x="0px" y="0px"
	 viewBox="0 0 16 16" style="enable-background:new 0 0 16 16;" xml:space="preserve">
<style type="text/css">
	.st0{fill:#F75049;}
	.st1{fill-rule:evenodd;clip-rule:evenodd;fill:#F75049;}
</style>
<path class="st0" d="M0.9,3.7c0,0,0.1,0,0.1,0.1V3.6C1,3.6,0.9,3.7,0.9,3.7z M0.9,3.7c0,0,0.1,0,0.1,0.1V3.6C1,3.6,0.9,3.7,0.9,3.7z
	 M1.1,1.4C0.7,1.6,0.4,2,0.2,2.4c0,0.1,0,0.1-0.1,0.2c0.3-0.3,0.5-0.5,0.8-0.7c0.3-0.2,0.5-0.5,0.7-0.7C1.4,1.2,1.3,1.3,1.1,1.4z
	 M0.9,3.7c0,0,0.1,0,0.1,0.1V3.6C1,3.6,0.9,3.7,0.9,3.7z M2,1.1C2,1.1,2,1.1,2,1.1c-0.7,0.7-1.4,1.3-2,2C0,3.3,0,3.6,0,4v0.3
	c0.2-0.2,0.3-0.4,0.5-0.7V3.4l0,0c0,0,0.1,0.1,0.1,0.1C0.8,3.3,0.9,3.1,1.1,3c0,0,0,0,0,0c0-0.1,0-0.2,0.1-0.2
	c0.1-0.3,0.2-0.4,0.4-0.5c0.1,0,0.2-0.1,0.3-0.1C1.9,2.1,2,2,2.1,1.8C2.4,1.5,2.7,1.3,3,1C2.6,1,2.3,1,2,1.1z M7.6,1
	c-0.3,0.3-0.7,0.7-1,1h1.3c0.2-0.1,0.3-0.3,0.5-0.4C8.3,1.7,8.2,1.9,8,2h1c0.5-0.4,1-0.7,1.4-1H7.6z M3.4,14L3.4,14
	C3.4,14,3.4,14,3.4,14C3.4,14,3.4,14,3.4,14z M0.9,3.7c0,0,0.1,0,0.1,0.1V3.6C1,3.6,0.9,3.7,0.9,3.7z M0.9,3.7c0,0,0.1,0,0.1,0.1
	V3.6C1,3.6,0.9,3.7,0.9,3.7z M0.9,3.7c0,0,0.1,0,0.1,0.1V3.6C1,3.6,0.9,3.7,0.9,3.7z M0.9,3.7c0,0,0.1,0,0.1,0.1V3.6
	C1,3.6,0.9,3.7,0.9,3.7z M0.9,3.7c0,0,0.1,0,0.1,0.1V3.6C1,3.6,0.9,3.7,0.9,3.7z"/>
<g>
	<path class="st1" d="M11.8,4c0.1,0,0.2,0,0.3,0.1c0-0.1,0-0.3,0.1-0.4C12,3.8,11.9,4,11.8,4z M11.2,3.3c0,0.3-0.1,0.5-0.1,0.7
		C11.2,4,11.4,4,11.5,4c0.1,0,0.2,0,0.3,0h0c0.1-0.1,0.3-0.2,0.4-0.3c0.1-0.5,0.1-1,0.1-1.5C11.9,2.6,11.6,3,11.2,3.3z M5.3,4.6
		C5,4.9,4.6,5.2,4.3,5.5c0,0.1,0,0.2,0,0.2C4.5,5.6,4.7,5.5,5,5.5h0c0.1-0.1,0.2-0.2,0.3-0.3C5.3,5,5.3,4.8,5.3,4.6z M5.2,3.3
		C4.9,3.6,4.6,3.9,4.3,4.1c0,0.3,0,0.6,0,0.9c0.2-0.2,0.4-0.4,0.6-0.5C5,4.4,5.2,4.3,5.3,4.2C5.3,3.8,5.3,3.5,5.2,3.3L5.2,3.3z
		 M3.1,5.2C2.8,5.4,2.5,5.6,2.3,5.8C2.5,6,2.7,6.1,2.9,6.3C3.2,6,3.4,5.8,3.7,5.5C3.5,5.4,3.3,5.3,3.1,5.2z M4.1,5.8
		C4,5.8,4,5.8,4,5.7C3.7,6,3.4,6.2,3.1,6.4c0.1,0.1,0.2,0.1,0.3,0.2C3,6.7,2.7,6.9,2.3,7.1c0,0,0,0,0,0C1.9,7.5,1.4,7.8,1,8.1V9
		c0.5-0.3,1-0.6,1.5-0.8c0.4-0.2,0.8-0.4,1.2-0.6C3.5,7.4,3.5,7.2,3.5,7v0C3.5,6.5,3.7,6.1,4.1,5.8z M1,7.8v0.3
		c0.2-0.2,0.5-0.4,0.7-0.7C1.5,7.5,1.2,7.7,1,7.8z M7.6,5.4L7.6,5.4C7.5,5.5,7.3,5.6,7.2,5.7C7,6,6.7,6.3,6.4,6.5c0,0,0,0.1,0,0.2
		C6.7,6.6,7,6.5,7.3,6.5C7.8,6,8.2,5.6,8.7,5.2C8.3,5.2,8,5.3,7.6,5.4z M9.3,5.1c-0.5,0.4-1,0.8-1.4,1.3c0.5-0.1,0.9-0.2,1.4-0.2
		C9.5,5.9,9.8,5.7,10,5.5v0c0-0.2,0-0.3,0.1-0.5C9.8,5,9.6,5,9.3,5.1z M6,5.7c0,0-0.1,0-0.2,0C5.9,5.8,5.9,5.8,6,5.7
		C6,5.9,6.2,6,6.2,6.2c0.2-0.2,0.5-0.4,0.7-0.7C6.6,5.6,6.3,5.7,6,5.7z M11.3,6C11.3,6,11.3,6,11.3,6L11.3,6C11.4,6,11.4,5.9,11.3,6
		C11.4,5.9,11.4,6,11.3,6z M6.7,7.3C6.6,7.4,6.5,7.5,6.3,7.6C6.3,7.8,6.2,8,6,8.1c0.2,0.1,0.4,0.2,0.7,0.3C6.9,8.2,7.2,8,7.5,7.7
		C7.2,7.6,6.9,7.5,6.7,7.3z M8.3,8.1C8.1,8.1,7.9,8,7.7,7.9C7.4,8.1,7.2,8.3,6.9,8.6c0.2,0.1,0.4,0.2,0.5,0.3C7.6,8.9,7.7,9,7.9,9
		c0.3-0.2,0.5-0.5,0.8-0.7C8.6,8.3,8.4,8.2,8.3,8.1z M4.5,12L4.5,12c-0.4,0.3-0.8,0.7-1.2,1c0.3,0,0.6-0.1,1-0.2
		c0.1,0,0.3-0.1,0.4-0.1C4.6,12.5,4.5,12.3,4.5,12z M5.6,8.4c-0.1,0-0.2,0.1-0.3,0.1h0C5.1,8.6,5,8.7,4.8,8.8C4.9,8.7,5,8.6,5.2,8.5
		c-0.1,0-0.1,0-0.2,0c-0.2,0-0.3,0-0.5-0.1C4.6,9,4.8,9.5,4.9,10c0.3-0.3,0.6-0.5,0.9-0.8C5.7,9,5.6,8.7,5.6,8.4z"/>
</g>
<path class="st0" d="M6.5,11.1C6,11.5,5.5,12,5.1,12.4C5,12.3,5,12.1,5,12c0-0.3,0.1-0.5,0.3-0.7C5.5,11.1,5.7,11,6,11
	C6.2,11,6.3,11,6.5,11.1z"/>
<path class="st0" d="M7,12c0,0.5-0.5,1-1,1c-0.3,0-0.6-0.2-0.8-0.4c0.1-0.1,0.3-0.2,0.4-0.3c0,0,0,0,0,0.1c0.1,0.1,0.2,0.2,0.4,0.2
	s0.3,0,0.4-0.2c0.1-0.1,0.1-0.2,0.1-0.3s0-0.3-0.1-0.3c0.1-0.1,0.3-0.2,0.4-0.3C6.9,11.5,7,11.7,7,12z"/>
<path class="st0" d="M5.9,6.5C5.7,6.6,5.6,6.8,5.5,6.9c0-0.1,0-0.2-0.1-0.3C5.3,6.6,5.2,6.5,5.2,6.5c0,0-0.1,0-0.2,0
	c-0.1,0-0.3,0-0.4,0.2C4.5,6.7,4.5,6.9,4.5,7c0,0,0,0.1,0,0.1c0,0.1,0,0.2,0.1,0.2c0.1,0.1,0.2,0.1,0.3,0.1C4.8,7.6,4.6,7.7,4.5,7.9
	C4.3,7.8,4.2,7.7,4.1,7.5C4,7.3,4,7.2,4,7c0-0.5,0.5-1,1-1c0.2,0,0.4,0.1,0.5,0.2C5.7,6.3,5.8,6.4,5.9,6.5z"/>
<path class="st0" d="M6,7c0,0.5-0.5,1-1,1C4.9,8,4.9,8,4.8,8C5.2,7.6,5.6,7.3,6,6.9C6,6.9,6,7,6,7z"/>
<path class="st0" d="M11.1,4.6c-0.1,0.1-0.3,0.2-0.4,0.3C10.8,4.8,10.9,4.7,11.1,4.6z"/>
<path class="st0" d="M11.5,4.5c-0.1,0-0.1,0-0.2,0c-0.3,0.2-0.5,0.5-0.8,0.8h0c0,0.1,0,0.1,0,0.2c0,0.3,0.2,0.6,0.4,0.8
	C11,6.2,11.2,6.1,11.3,6c0,0-0.1,0-0.1,0C11.1,5.8,11,5.7,11,5.5c0-0.1,0-0.3,0.2-0.3C11.2,5,11.4,5,11.5,5c0.2,0,0.4,0.1,0.5,0.3
	C12,5.5,12,5.7,11.9,5.8c0,0-0.1,0-0.1,0c0,0,0,0.1,0,0.1C11.6,6,11.5,6,11.4,6c0,0,0,0,0.1-0.1c0,0-0.1,0-0.1,0.1c0,0,0,0,0,0
	c-0.1,0.1-0.3,0.2-0.4,0.4c0.2,0.1,0.3,0.2,0.5,0.2c0.5,0,1-0.5,1-1S12,4.5,11.5,4.5z"/>
<path class="st0" d="M9.6,8.6c0.1,0,0.2-0.1,0.3-0.1C9.6,8.8,9.3,9,9,9.3c0-0.1,0.1-0.2,0.1-0.3L9.6,8.6z"/>
<path class="st0" d="M10.2,8.5C9.8,8.9,9.4,9.2,9,9.5c0,0.5,0.4,0.9,0.8,1c0-0.1,0-0.1,0-0.2c0-0.1,0.1-0.3,0.1-0.4c0,0-0.1,0-0.1,0
	L9.8,10C9.6,9.9,9.5,9.7,9.5,9.5c0-0.1,0-0.3,0.2-0.4C9.7,9,9.9,9,10,9s0.3,0,0.3,0.1c0.1,0.1,0.1,0.2,0.1,0.3
	c0.1-0.1,0.3-0.2,0.5-0.3C10.8,8.8,10.5,8.6,10.2,8.5z M10.3,10.5c0.3-0.1,0.5-0.3,0.6-0.5C10.7,10.1,10.5,10.3,10.3,10.5z"/>
<path class="st0" d="M9.8,8.5C9.6,8.8,9.3,9,9,9.3C9,9.2,9.1,9.1,9.2,9c0.1-0.1,0.3-0.2,0.4-0.4C9.6,8.6,9.7,8.5,9.8,8.5z"/>
<path class="st0" d="M9.8,8.5C9.6,8.8,9.3,9,9,9.3C9,9.2,9.1,9.1,9.2,9c0.1-0.1,0.3-0.2,0.4-0.4C9.6,8.6,9.7,8.5,9.8,8.5z"/>
<path class="st0" d="M9.8,8.5C9.6,8.8,9.3,9,9,9.3C9,9.2,9.1,9.1,9.2,9c0.1-0.1,0.3-0.2,0.4-0.4C9.6,8.6,9.7,8.5,9.8,8.5z"/>
<path class="st0" d="M9.8,8.5C9.6,8.8,9.3,9,9,9.3C9,9.2,9.1,9.1,9.2,9c0.1-0.1,0.3-0.2,0.4-0.4C9.6,8.6,9.7,8.5,9.8,8.5z"/>
<path class="st0" d="M9.8,8.5C9.6,8.8,9.3,9,9,9.3C9,9.2,9.1,9.1,9.2,9c0.1-0.1,0.3-0.2,0.4-0.4C9.6,8.6,9.7,8.5,9.8,8.5z"/>
<path class="st0" d="M9.8,8.5C9.6,8.8,9.3,9,9,9.3C9,9.2,9.1,9.1,9.2,9c0.1-0.1,0.3-0.2,0.4-0.4C9.6,8.6,9.7,8.5,9.8,8.5z"/>
<path class="st0" d="M9.8,8.5C9.6,8.8,9.3,9,9,9.3C9,9.2,9.1,9.1,9.2,9c0.1-0.1,0.3-0.2,0.4-0.4C9.6,8.6,9.7,8.5,9.8,8.5z"/>
<path class="st0" d="M9.8,8.5C9.6,8.8,9.3,9,9,9.3C9,9.2,9.1,9.1,9.2,9c0.1-0.1,0.3-0.2,0.4-0.4C9.6,8.6,9.7,8.5,9.8,8.5z"/>
<path class="st0" d="M9.8,8.5C9.6,8.8,9.3,9,9,9.3C9,9.2,9.1,9.1,9.2,9c0.1-0.1,0.3-0.2,0.4-0.4C9.6,8.6,9.7,8.5,9.8,8.5z"/>
<path class="st0" d="M9.8,8.5C9.6,8.8,9.3,9,9,9.3C9,9.2,9.1,9.1,9.2,9c0.1-0.1,0.3-0.2,0.4-0.4C9.6,8.6,9.7,8.5,9.8,8.5z"/>
<path class="st0" d="M0.9,1.8C0.7,2.1,0.4,2.3,0.2,2.6c0-0.1,0-0.1,0.1-0.2c0.2-0.4,0.5-0.8,0.8-1c0.2-0.1,0.4-0.2,0.6-0.2
	C1.4,1.4,1.2,1.6,0.9,1.8z"/>
<path class="st0" d="M3,1C2.7,1.3,2.4,1.5,2.1,1.8C2,2,1.9,2.1,1.8,2.2c-0.1,0-0.2,0.1-0.3,0.1C1.4,2.4,1.3,2.5,1.2,2.7
	c0,0.1,0,0.1-0.1,0.2c0,0,0,0,0,0C0.9,3.1,0.8,3.3,0.6,3.5c0,0-0.1,0-0.1-0.1l0,0v0.2C0.3,3.9,0.2,4.1,0,4.3V4c0-0.4,0-0.7,0.1-1
	C0.7,2.4,1.3,1.8,2,1.2c0,0,0-0.1,0.1-0.1C2.3,1,2.6,1,3,1z"/>
<path class="st0" d="M2.9,6.3C2.7,6.1,2.5,6,2.3,5.8c0.3-0.2,0.5-0.4,0.8-0.7c0.2,0.1,0.4,0.3,0.6,0.4C3.4,5.8,3.2,6,2.9,6.3z"/>
<path class="st0" d="M1.7,7.4C1.5,7.7,1.2,7.9,1,8.1V7.8C1.2,7.7,1.5,7.5,1.7,7.4z"/>
<path class="st0" d="M1,3.6v0.2c0,0-0.1,0-0.1-0.1C0.9,3.7,1,3.6,1,3.6z"/>
<path class="st0" d="M2.8,5C2.5,5.2,2.3,5.5,2,5.7C1.7,5.5,1.3,5.2,1,5v1.7C0.7,6.9,0.4,7.2,0.2,7.5C0.4,7.3,0.7,7.1,1,6.8v2.8
	c-0.3,0.4-0.7,0.7-1,1V4.5c0.2-0.1,0.3-0.3,0.5-0.5C0.6,4,0.8,3.8,0.9,3.7c0,0,0.1,0,0.1,0.1C1.6,4.2,2.2,4.6,2.8,5z"/>
<path class="st0" d="M4.1,5.8C3.7,6.1,3.5,6.5,3.5,7v0c-0.3,0.3-0.6,0.7-1,1.1C2,8.4,1.5,8.7,1,9V8.1c0.4-0.3,0.9-0.7,1.3-1
	c0,0,0,0,0,0C2.7,6.9,3,6.7,3.4,6.6C3.3,6.5,3.2,6.5,3.1,6.4C3.4,6.2,3.7,6,4,5.7C4,5.8,4,5.8,4.1,5.8z"/>
<path class="st0" d="M5.3,5.2C5.2,5.3,5.1,5.4,5,5.5h0c-0.3,0-0.5,0.1-0.7,0.2c0-0.1,0-0.2,0-0.2c0.3-0.3,0.7-0.6,1-0.9
	C5.3,4.8,5.3,5,5.3,5.2z"/>
<path class="st0" d="M5.3,3.2c0,0.3,0,0.6,0,1C5.2,4.3,5,4.4,4.9,4.5C4.7,4.7,4.5,4.8,4.3,5c0-0.3,0-0.6,0-0.9
	C4.6,3.9,4.9,3.6,5.3,3.2L5.3,3.2z"/>
<path class="st0" d="M7.6,1C7.2,1.3,6.7,1.7,6.3,2H5.4c0,0.3,0,0.5,0,0.8C5,3.1,4.6,3.4,4.3,3.7c0-0.6,0-1.1,0.1-1.7H4
	C3.4,2,2.9,2,2.5,2C2.8,1.8,3,1.6,3.2,1.3C3.3,1.2,3.4,1.1,3.5,1C3.7,1,3.8,1,4,1H7.6z"/>
<path class="st0" d="M10.4,1C10,1.3,9.6,1.6,9,2H8c0.1-0.1,0.3-0.3,0.4-0.4C8.3,1.7,8.1,1.9,7.9,2H6.6c0.3-0.3,0.7-0.7,1-1H10.4z"/>
<path class="st0" d="M3.5,14C3.4,14,3.4,14,3.5,14L3.5,14C3.4,14,3.4,14,3.5,14z"/>
<path class="st0" d="M10.9,9.9c-0.1,0.3-0.4,0.5-0.6,0.5C10.5,10.3,10.7,10.1,10.9,9.9z"/>
<path class="st0" d="M4.7,12.7c-0.1,0-0.3,0.1-0.4,0.1C4,12.9,3.6,13,3.3,13c0.4-0.3,0.8-0.7,1.2-1v0C4.5,12.3,4.6,12.5,4.7,12.7z"
	/>
<path class="st0" d="M4.9,7.5C4.8,7.6,4.6,7.7,4.5,7.9C4.3,7.8,4.2,7.7,4.1,7.5c0.1-0.1,0.3-0.3,0.4-0.4c0,0.1,0,0.2,0.1,0.2
	C4.7,7.4,4.8,7.5,4.9,7.5z"/>
<path class="st0" d="M4.8,8C5.2,7.6,5.6,7.3,6,6.9C6,6.9,6,7,6,7c0,0.5-0.5,1-1,1C4.9,8,4.9,8,4.8,8z"/>
<path class="st0" d="M5.4,6.7C5.3,6.6,5.2,6.5,5.2,6.5c0.1-0.1,0.1-0.1,0.2-0.2c0.1,0,0.1-0.1,0.2-0.2c0.1,0.1,0.2,0.2,0.3,0.4
	C5.7,6.6,5.6,6.8,5.5,6.9C5.5,6.8,5.4,6.7,5.4,6.7z"/>
<path class="st0" d="M5.8,9.3C5.5,9.5,5.2,9.8,4.9,10C4.8,9.5,4.6,9,4.5,8.4c0.2,0,0.3,0.1,0.5,0.1c0,0,0.1,0,0.2,0
	C5,8.6,4.9,8.7,4.8,8.8C5,8.7,5.1,8.6,5.3,8.5h0c0.1,0,0.2,0,0.3-0.1C5.6,8.7,5.7,9,5.8,9.3z"/>
<path class="st0" d="M6.1,10.5C6,10.5,6,10.5,6.1,10.5c-0.3,0-0.4,0-0.6,0.1c0,0,0,0,0,0c-0.1,0-0.3,0.1-0.4,0.2
	c0-0.2-0.1-0.3-0.2-0.5C5.3,10,5.5,9.8,5.8,9.5c0,0.2,0.1,0.4,0.2,0.6C6,10.3,6,10.4,6.1,10.5z"/>
<path class="st0" d="M6.4,11.7c0.1-0.1,0.3-0.2,0.4-0.3C6.9,11.5,7,11.7,7,12c0,0.5-0.5,1-1,1c-0.3,0-0.6-0.2-0.8-0.4
	c0.1-0.1,0.3-0.2,0.4-0.3c0,0,0,0,0,0.1c0.1,0.1,0.2,0.2,0.4,0.2s0.3,0,0.4-0.2c0.1-0.1,0.1-0.2,0.1-0.3S6.5,11.7,6.4,11.7z"/>
<path class="st0" d="M6.5,11.1C6,11.5,5.5,12,5.1,12.4C5,12.3,5,12.1,5,12c0-0.3,0.1-0.5,0.3-0.7C5.5,11.1,5.7,11,6,11
	C6.2,11,6.3,11,6.5,11.1z"/>
<path class="st0" d="M7.5,7.7C7.2,8,6.9,8.2,6.7,8.5C6.4,8.3,6.2,8.2,6,8.1C6.2,8,6.3,7.8,6.3,7.6c0.1-0.1,0.2-0.2,0.3-0.3
	C6.9,7.5,7.2,7.6,7.5,7.7z"/>
<path class="st0" d="M8.7,8.3C8.4,8.5,8.2,8.8,7.9,9C7.7,9,7.6,8.9,7.4,8.8C7.3,8.8,7.1,8.7,6.9,8.6c0.3-0.2,0.5-0.5,0.8-0.7
	C7.9,8,8.1,8.1,8.3,8.1C8.4,8.2,8.6,8.3,8.7,8.3z"/>
<path class="st0" d="M9.1,10.7c-0.5,0.4-1,0.8-1.6,1.1c0-0.3-0.2-0.5-0.3-0.7c0,0,0,0,0,0c0.3-0.3,0.7-0.6,1-0.9
	C8.2,10,8.4,9.9,8.5,9.8c0,0,0,0,0,0.1C8.6,10.2,8.8,10.5,9.1,10.7z"/>
<path class="st0" d="M9.6,8.6c0.1,0,0.2-0.1,0.3-0.1C9.6,8.8,9.3,9,9,9.3c0-0.1,0.1-0.2,0.1-0.3L9.6,8.6z"/>
<path class="st0" d="M10.9,9.2c-0.2,0.1-0.3,0.2-0.5,0.3c0-0.1,0-0.2-0.1-0.3C10.3,9,10.1,9,10,9S9.7,9,9.7,9.1
	C9.5,9.2,9.5,9.4,9.5,9.5c0,0.2,0.1,0.4,0.3,0.5l0.1-0.1c0,0,0.1,0,0.1,0c-0.1,0.1-0.1,0.2-0.1,0.4c0,0,0,0.1,0,0.2
	C9.4,10.4,9,10,9,9.5c0.4-0.3,0.8-0.7,1.2-1C10.5,8.6,10.8,8.8,10.9,9.2z"/>
<path class="st0" d="M10.6,8.1C10.8,8,11,7.8,11.2,7.6c-0.1,0.3-0.2,0.5-0.3,0.8C10.8,8.3,10.7,8.2,10.6,8.1z"/>
<path class="st0" d="M11.4,7L11.4,7c-0.3,0.3-0.6,0.5-0.9,0.8c0.1-0.1,0.2-0.2,0.3-0.3c-0.2,0.2-0.4,0.4-0.5,0.5c0,0-0.1,0-0.1,0
	c0,0,0,0,0,0h0c-0.1,0-0.1,0-0.2,0h0c0.2-0.4,0.3-0.8,0.5-1.2c0,0,0.1-0.1,0.1-0.1C10.8,6.9,11.1,7,11.4,7z"/>
<path class="st0" d="M6.9,5.5C6.7,5.7,6.5,5.9,6.2,6.2C6.2,6,6,5.9,5.9,5.8L6,5.7C6.3,5.7,6.6,5.6,6.9,5.5z"/>
<path class="st0" d="M8.7,5.2C8.2,5.6,7.8,6,7.3,6.5C7,6.5,6.7,6.6,6.5,6.7c0-0.1,0-0.1,0-0.2C6.7,6.3,7,6,7.2,5.7
	c0.1-0.1,0.2-0.2,0.4-0.4h0C8,5.3,8.3,5.2,8.7,5.2z"/>
<path class="st0" d="M10.1,5C10,5.2,10,5.3,10,5.5v0C9.8,5.7,9.5,5.9,9.3,6.1c-0.5,0.1-1,0.1-1.4,0.2c0.5-0.4,1-0.8,1.4-1.3
	C9.6,5,9.8,5,10.1,5z"/>
<path class="st0" d="M11.1,4.6c-0.1,0.1-0.3,0.2-0.4,0.3C10.8,4.8,10.9,4.7,11.1,4.6z"/>
<path class="st0" d="M11.5,4.5c-0.1,0-0.1,0-0.2,0c-0.3,0.2-0.5,0.5-0.8,0.8h0c0,0.1,0,0.1,0,0.2c0,0.3,0.2,0.6,0.4,0.8
	C11,6.2,11.2,6.1,11.3,6c0,0-0.1,0-0.1,0C11.1,5.8,11,5.7,11,5.5c0-0.1,0-0.3,0.2-0.3C11.2,5,11.4,5,11.5,5c0.2,0,0.4,0.1,0.5,0.3
	C12,5.5,12,5.7,11.9,5.8c0,0-0.1,0-0.1,0c0,0,0,0.1,0,0.1C11.6,6,11.5,6,11.4,6c0,0,0,0,0.1-0.1c0,0-0.1,0-0.1,0.1c0,0,0,0,0,0
	c-0.1,0.1-0.3,0.2-0.4,0.4c0.2,0.1,0.3,0.2,0.5,0.2c0.5,0,1-0.5,1-1S12,4.5,11.5,4.5z"/>
<path class="st0" d="M16,3.8V12c0,0.7-0.1,1.2-0.2,1.6c-0.2,0.4-0.5,0.8-0.8,1C14.2,15,13.3,15,12,15H4c-1.3,0-2.2,0-2.9-0.4
	c-0.4-0.2-0.7-0.5-0.8-1C0.1,13.2,0,12.7,0,12v-0.5c0.3-0.3,0.7-0.6,1-1v1.6c0.2,0,0.4,0,0.6,0c0.3,0,0.8,0,1.2-0.1
	c-0.2,0.2-0.3,0.3-0.5,0.5c0.2-0.2,0.4-0.3,0.6-0.5c0.4,0,0.8-0.1,1.2-0.2c0,0,0.1,0,0.2,0c-0.4,0.4-0.8,0.8-1.1,1.2h0
	c-0.5,0.1-1,0.1-1.5,0.1c-0.2,0-0.4,0-0.5,0c0,0.1,0,0.1,0,0.2c0.1,0.3,0.2,0.4,0.4,0.5c0.3,0.2,1,0.2,1.9,0.3l-0.1,0.1
	c0,0,0.1,0,0.1-0.1c0.2,0,0.4,0,0.5,0h2.6c-0.1-0.2-0.2-0.3-0.3-0.5c0.3-0.1,0.6-0.3,0.9-0.5c0.2,0.3,0.4,0.6,0.6,0.9
	c0,0-0.1,0.1-0.2,0.2H12c1.3,0,2.1-0.1,2.5-0.3c0.2-0.1,0.3-0.2,0.4-0.5C14.9,13,15,12.6,15,12v-1c-1.3-0.1-2.5-0.3-3.8-0.7
	c0.2-0.2,0.3-0.5,0.3-0.8c0,0,0-0.1,0-0.1c1.1,0.3,2.3,0.6,3.5,0.7V5c0,0.1-0.1,0.1-0.1,0.2c0,0,0,0.1-0.1,0.2c0,0,0,0.1-0.1,0.3
	c-0.5,0-1.1,0-1.6,0.1c0.2-0.2,0.5-0.5,0.7-0.7c-0.3,0.2-0.6,0.5-0.9,0.7c0-0.1,0-0.1,0-0.2c0-0.3-0.1-0.5-0.2-0.7
	c0.7,0,1.5-0.1,2.2-0.1V4c0-0.6-0.1-1-0.2-1.3c0,0,0,0,0,0c0-0.1-0.1-0.2-0.2-0.3c-0.1-0.1-0.1-0.1-0.2-0.2c-0.3-0.2-1-0.2-2.1-0.3
	c0,0.1,0,0.2,0,0.3c-0.3,0.3-0.7,0.5-1.1,0.8c0-0.4,0.1-0.7,0.1-1.1H9.9c0.5-0.4,0.8-0.8,1-1H12c1.3,0,2.2,0,2.9,0.4
	c0.1,0,0.2,0.1,0.2,0.2c0.3,0.2,0.5,0.5,0.6,0.8c0.1,0.3,0.2,0.6,0.2,1C16,3.5,16,3.7,16,3.8z"/>
<path class="st0" d="M11.8,4C11.9,4,12,3.8,12.2,3.8c0,0.1,0,0.3-0.1,0.4C12,4.1,11.9,4.1,11.8,4z"/>
<path class="st0" d="M12.3,2.3c0,0.5-0.1,1-0.1,1.5C12,3.8,11.9,3.9,11.8,4h0c-0.1,0-0.2,0-0.3,0c-0.1,0-0.3,0-0.4,0.1
	c0-0.2,0.1-0.5,0.1-0.7C11.6,3,11.9,2.6,12.3,2.3z"/>
<path class="st0" d="M7.6,1C7.6,1,7.6,1,7.6,1L7.6,1C7.6,1,7.6,1,7.6,1z"/>
<path class="st0" d="M5.3,8.5C5.1,8.6,4.9,8.7,4.8,8.8C4.9,8.7,5,8.6,5.3,8.5"/>
<path class="st0" d="M8.3,8.1c0.1,0.1,0.3,0.1,0.4,0.2C8.4,8.5,8.2,8.8,7.9,9C7.7,9,7.6,8.9,7.4,8.8C7.7,8.6,8,8.4,8.3,8.1z"/>
<path class="st0" d="M11.4,5.9C11.4,5.9,11.4,6,11.4,5.9L11.4,5.9C11.3,6,11.3,6,11.4,5.9C11.4,6,11.4,5.9,11.4,5.9z"/>
<path class="st0" d="M3.5,14C3.4,14,3.4,14,3.5,14L3.5,14C3.4,14,3.4,14,3.5,14z"/>
<path class="st0" d="M9.6,8.6c0.1,0,0.2-0.1,0.3-0.1C9.6,8.8,9.3,9,9,9.3c0-0.1,0.1-0.2,0.1-0.3L9.6,8.6z"/>
<path class="st0" d="M9.8,8.5C9.6,8.8,9.3,9,9,9.3C9,9.2,9.1,9.1,9.2,9c0.1-0.1,0.3-0.2,0.4-0.4C9.6,8.6,9.7,8.5,9.8,8.5z"/>
<path class="st0" d="M9.8,8.5C9.6,8.8,9.3,9,9,9.3C9,9.2,9.1,9.1,9.2,9c0.1-0.1,0.3-0.2,0.4-0.4C9.6,8.6,9.7,8.5,9.8,8.5z"/>
<path class="st0" d="M9.8,8.5C9.6,8.8,9.3,9,9,9.3C9,9.2,9.1,9.1,9.2,9c0.1-0.1,0.3-0.2,0.4-0.4C9.6,8.6,9.7,8.5,9.8,8.5z"/>
<path class="st0" d="M9.8,8.5C9.6,8.8,9.3,9,9,9.3C9,9.2,9.1,9.1,9.2,9c0.1-0.1,0.3-0.2,0.4-0.4C9.6,8.6,9.7,8.5,9.8,8.5z"/>
<path class="st0" d="M9.8,8.5C9.6,8.8,9.3,9,9,9.3C9,9.2,9.1,9.1,9.2,9c0.1-0.1,0.3-0.2,0.4-0.4C9.6,8.6,9.7,8.5,9.8,8.5z"/>
<path class="st0" d="M9.8,8.5C9.6,8.8,9.3,9,9,9.3C9,9.2,9.1,9.1,9.2,9c0.1-0.1,0.3-0.2,0.4-0.4C9.6,8.6,9.7,8.5,9.8,8.5z"/>
<path class="st0" d="M9.8,8.5C9.6,8.8,9.3,9,9,9.3C9,9.2,9.1,9.1,9.2,9c0.1-0.1,0.3-0.2,0.4-0.4C9.6,8.6,9.7,8.5,9.8,8.5z"/>
<path class="st0" d="M9.8,8.5C9.6,8.8,9.3,9,9,9.3C9,9.2,9.1,9.1,9.2,9c0.1-0.1,0.3-0.2,0.4-0.4C9.6,8.6,9.7,8.5,9.8,8.5z"/>
<path class="st0" d="M9.8,8.5C9.6,8.8,9.3,9,9,9.3C9,9.2,9.1,9.1,9.2,9c0.1-0.1,0.3-0.2,0.4-0.4C9.6,8.6,9.7,8.5,9.8,8.5z"/>
</svg>
