<?xml version="1.0" encoding="utf-8"?>
<!-- Generator: Adobe Illustrator 23.0.0, SVG Export Plug-In . SVG Version: 6.00 Build 0)  -->
<svg version="1.1" id="Layer_1" xmlns="http://www.w3.org/2000/svg" xmlns:xlink="http://www.w3.org/1999/xlink" x="0px" y="0px"
	 viewBox="0 0 16 16" style="enable-background:new 0 0 16 16;" xml:space="preserve">
<style type="text/css">
	.st0{fill:#CBA6F7;}
	.st1{fill-rule:evenodd;clip-rule:evenodd;fill:#CBA6F7;}
	.st2{fill:#F75049;}
</style>
<g>
	<g transform="translate(-512 -32)">
		<path class="st0" d="M524.2,35L524.2,35H524H524.2z"/>
		<path class="st0" d="M525.2,42.9c0,0-0.1,0-0.2,0.1v0.3C525,43.1,525.2,42.9,525.2,42.9z M522.9,46.2L522.9,46.2L522.9,46.2
			C523,46.1,522.9,46.2,522.9,46.2z"/>
		<path class="st0" d="M523,46.1L523,46.1L523,46.1C522.9,46.2,523,46.1,523,46.1z"/>
		<path class="st1" d="M521.7,34.4c-0.2,0.2-0.3,0.3-0.5,0.5h-0.1C521.3,34.7,521.5,34.6,521.7,34.4z"/>
	</g>
	<path class="st2" d="M9.7,2.4C9.5,2.6,9.4,2.8,9.2,2.9H9.1C9.3,2.7,9.5,2.6,9.7,2.4z"/>
	<path class="st2" d="M10.4,11.2C10,11.7,9.5,12.1,9,12.5l1.9-2.1v0.1v0.1C10.8,10.8,10.6,11,10.4,11.2z"/>
	<path class="st2" d="M9.8,8.8C9.2,9.4,8.6,10,8,10.6V9.5c0.2-0.2,0.5-0.4,0.7-0.6c0.2,0,0.5,0,0.8,0C9.6,8.8,9.7,8.8,9.8,8.8z"/>
	<path class="st2" d="M9.2,10.5c-0.4,0.4-0.8,0.8-1.2,1.2V11c0.7-0.7,1.4-1.4,2.1-2.1h0.1c0.2,0.1,0.3,0.2,0.4,0.3
		C10.2,9.6,9.7,10.1,9.2,10.5z"/>
	<path class="st2" d="M8.3,8.9C8.2,9,8.1,9.2,8,9.3V9C8.1,9,8.2,8.9,8.3,8.9z"/>
	<path class="st2" d="M9.4,11.7c-0.5,0.5-1,0.9-1.4,1.4v-0.9c0.6-0.6,1.3-1.2,1.9-1.8c0.3-0.3,0.6-0.6,0.9-0.9
		c0,0.1,0.1,0.2,0.1,0.3c0,0.2,0.1,0.3,0.1,0.5C10.5,10.8,10,11.2,9.4,11.7z"/>
	<path class="st2" d="M8,13.5c0.3-0.3,0.7-0.6,1-1c0.6-0.5,1.3-1.1,2-1.7v3.3l-0.1,0.1H11V15H6.3c0.4-0.3,0.8-0.7,1.2-1H8V13.5z"/>
	<path class="st2" d="M13,11.2V11c0.1-0.1,0.1-0.1,0.2-0.1C13.2,10.9,13,11.1,13,11.2z"/>
	<path class="st2" d="M14,3v2l0,0c-0.2,0.2-0.4,0.4-0.7,0.6c-0.2,0.2-0.5,0.4-0.7,0.7L12,5.7c0.2-0.2,0.5-0.5,0.7-0.7
		s0.4-0.5,0.6-0.7c0.2-0.2,0.4-0.4,0.6-0.6c-0.2,0.2-0.4,0.4-0.6,0.6c-0.2,0.2-0.5,0.4-0.7,0.6c-0.3,0.2-0.5,0.4-0.8,0.7L11.3,5
		c0.2-0.3,0.4-0.5,0.7-0.7c0-0.1,0.1-0.2,0.2-0.3c-0.1,0.1-0.2,0.2-0.3,0.2c-0.2,0.2-0.5,0.4-0.7,0.7l-0.4-0.4
		C11,4.2,11.3,4,11.5,3.8c0.2-0.3,0.5-0.5,0.6-0.7L12.2,3H14z"/>
	<path class="st2" d="M12.2,4C12.1,4.1,12,4.2,12,4.2l0,0C12,4.1,12.1,4.1,12.2,4z"/>
	<path class="st2" d="M14,7v0.6l0,0c-0.3,0.3-0.6,0.6-1,0.8V6.7l-0.3-0.3C12.8,6.2,12.9,6.1,13,6L14,7z"/>
	<path class="st2" d="M14,7.9V15h-1v-3.8c0-0.1,0.2-0.3,0.2-0.4c0,0-0.1,0-0.2,0.1v-2l0.1-0.1C13.4,8.5,13.7,8.2,14,7.9z"/>
	<path class="st2" d="M15.8,8.2l-0.7,0.7l-0.3-0.3L14,7.8c0.2-0.2,0.5-0.5,0.7-0.7l0.8,0.8L15.8,8.2z"/>
	<path class="st2" d="M4.6,2.6C2.9,4.4,1.3,6.2-0.2,7.9c1-1.4,2.3-3,3.8-4.6c1.1-1.1,2.1-2.1,3.2-3C6,1.1,5.3,1.8,4.6,2.6z"/>
	<path class="st2" d="M11.1,3.4c-0.2,0.2-0.5,0.4-0.8,0.7L9.9,3.6c0.2-0.2,0.3-0.4,0.5-0.5C10.2,3.2,10,3.4,9.8,3.5L9.2,2.9
		c0.2-0.2,0.3-0.3,0.5-0.5C9.5,2.6,9.3,2.7,9.2,2.9L8,1.7l-5,5v5.2c-0.3,0.4-0.7,0.8-1,1.1V7.7L0.8,8.8L0.2,8.2l3.3-3.3
		c0.4-0.5,0.8-1,1.3-1.5c0.7-1,1.5-1.7,2.2-2.3C6.9,1.3,6.7,1.5,6.6,1.7L8,0.3L11.1,3.4z"/>
	<path class="st2" d="M9.7,2.4C9.5,2.6,9.4,2.8,9.2,2.9H9.1C9.3,2.7,9.5,2.6,9.7,2.4z"/>
	<path class="st2" d="M12.2,4C12.1,4.1,12,4.2,12,4.2l0,0C12,4.1,12.1,4.1,12.2,4z"/>
	<path class="st2" d="M5.1,15c0.3-0.3,0.7-0.6,1-1h1c-0.3,0.3-0.7,0.7-1,1H2v-1.4c0.3-0.3,0.7-0.7,1-1V14h2.9
		C5.6,14.3,5.4,14.7,5.1,15z"/>
	<path class="st2" d="M8,12.2c-0.6,0.6-1.2,1.2-1.8,1.8H5.9c0.6-0.7,1.3-1.5,2.1-2.3V12.2z"/>
</g>
</svg>
