<?xml version="1.0" encoding="utf-8"?>
<!-- Generator: Adobe Illustrator 23.0.0, SVG Export Plug-In . SVG Version: 6.00 Build 0)  -->
<svg version="1.1" id="Layer_1" xmlns="http://www.w3.org/2000/svg" xmlns:xlink="http://www.w3.org/1999/xlink" x="0px" y="0px"
	 viewBox="0 0 16 16" style="enable-background:new 0 0 16 16;" xml:space="preserve">
<style type="text/css">
	.st0{clip-path:url(#SVGID_2_);}
	.st1{fill:#F75049;}
</style>
<g>
	<defs>
		<path id="SVGID_1_" d="M22.3,5c-0.1-0.1-0.3,0-0.6-0.2c-0.2-0.2-0.2-0.4-0.3-0.5C21,4.1,20,4.8,20,4.8c0,0,0.4-0.3,0.8-0.7
			c0.2-0.3,0.7-0.7,0.5-1.1C21.2,2.9,21,2.9,21,2.7c0-0.3,0.5-0.4,0.5-0.8c0-0.2-0.2-0.3-0.3-0.4c-0.4-0.1-0.8,0.3-0.8,0.2
			c0,0,0.3-0.2,0.4-0.5c0-0.1,0.2-0.4,0.1-0.5c-0.1-0.1-0.3-0.1-0.4-0.1c-0.1,0-0.2,0.1-0.2,0.1c0,0,0-0.1,0-0.2
			c0-0.2-0.4-0.3-0.6-0.3c-0.5-0.1-1,0.5-1.1,0.4c-0.1-0.1,0.5-0.6,0.4-0.9c-0.1-0.2-0.2-0.3-0.4-0.3c-0.3,0-0.4,0.3-0.5,0.3
			c-0.2-0.1,0.1-0.7-0.1-0.9c-0.1-0.1-0.3,0.1-0.6,0c-0.2-0.1-0.2-0.2-0.3-0.2c-0.3-0.1-0.8,0.4-1.4,1c-0.3,0.2-0.6,0.5-1.2,0.9
			c0.3-0.3,0.5-0.6,0.7-0.8c0.4-0.5,0.7-0.7,0.7-1c0-0.1,0-0.4-0.2-0.5c-0.2-0.1-0.4,0.2-1.1,0.7c-0.2,0.1-0.3,0.2-0.4,0.3
			c0,0,0.3-0.4,0.2-0.7c0,0-0.1-0.2-0.2-0.3C13.6-2.2,12.9-2,12.8-2c-0.9,0.2-1.1,0.8-2.2,1.4c0,0-0.2,0.1-0.3,0.2
			C9.7-0.2,9.5-0.1,9.4,0C9.2,0.2,9,0.3,8.8,0.6C8.7,0.9,8.8,1.1,8.6,1.2C8.5,1.4,8.3,1.4,8.2,1.4C7.6,1.6,6.9,2.7,6.8,2.8
			C6.3,3.4,5,4.8,1.3,8.1c5-5.2,6.5-6.9,6.6-7.1c0,0,0,0,0,0c0-0.1,0.2-0.5,0-0.6c-0.1-0.1-0.2,0-0.3-0.2c0,0,0-0.1,0-0.2
			C7.6,0,8-0.1,8-0.2c0,0-0.1-0.1-0.2-0.1C7.5-0.4,7.5-0.5,7.3-0.5C7.1-0.6,6.8-0.4,6.6-0.3C6.4-0.2,6.3-0.1,6.2-0.1
			c-0.1,0,0-0.2,0-0.3C6.1-0.5,5.9-0.5,5.9-0.5c-0.4,0-0.5,0.3-0.7,0.2c-0.1,0,0-0.2-0.1-0.3C5.1-0.7,4.9-0.7,4.8-0.8
			C4.6-0.9,4.6-1.1,4.4-1.3C4.4-1.4,4.2-1.6,4-1.7c-0.2-0.1-0.3,0-0.5-0.1C3.2-1.8,3.2-2,3-2C2.8-2.1,2.7-2,2.5-2
			C2.2-1.8,2.2-1.6,2-1.6c-0.2,0-0.2-0.2-0.6-0.3c-0.1,0-0.2,0-0.3,0c-0.1,0.1,0,0.4-0.1,0.5C1-1.3,0.9-1.3,0.8-1.4
			C0.7-1.4,0.7-1.5,0.7-1.6C0.5-1.8-0.5-1.5-0.8-0.9c0,0.1-0.1,0.2-0.2,0.3c-0.2,0.1-0.3,0-0.5,0c-0.3,0-0.5,0.3-1.1,1
			c0,0-0.1,0.2-0.6,0.7c-0.9,1-1.1,1.2-1.1,1.5c0,0.5,0,0.8,0,0.8c0,0.1,0.1,0.3,0,0.4c-0.1,0.1-0.1,0-0.2,0.1
			c-0.1,0.1,0.1,0.4,0,0.8c0,0,0,0-0.1,0.3c-0.1,0.6-0.1,0.7,0,0.7c0.1,0.1,0.2,0.1,0.3,0.1c0.2,0,0.3-0.1,0.4-0.1
			c0.4-0.5,0.8-0.9,1.2-1.4C-2.9,4.5-3,4.7-3.2,4.9c-0.2,0.2-0.3,0.4-0.5,0.8c0,0.1-0.1,0.2-0.2,0.4C-3.9,6.3-4,6.6-3.9,6.9
			C-3.8,7-3.8,7-3.8,7.2c0,0.2-0.1,0.3,0,0.4c0.1,0.1,0.1,0.1,0.2,0.1c0.1,0.1,0,0.3,0,0.6c0,0.2,0.1,0.1,0.1,0.3
			c0.1,0.3-0.1,0.4,0,0.7c0,0.2,0,0.2,0.1,0.3c0.2,0.1,0.4-0.1,0.6,0.1c0.2,0.1,0.1,0.3,0.3,0.4c0.1,0,0.2-0.1,0.4,0
			c0,0,0.3,0,0.4,0.1c0,0.1-0.1,0.3-0.3,0.4c-0.4,0.2-0.8-0.1-0.9,0c0,0.1,0.1,0.2,0.2,0.3c1.1,1,1.1,1.1,1.4,1.3
			c0.3,0.2,0.3,0.1,0.7,0.3c0.6,0.3,1.1,0.6,1.2,1.1c0,0.2-0.2,0.3-0.2,0.6c0,0.2,0.1,0.6,0.3,0.7c0.2,0.1,0.3-0.1,0.6-0.1
			c0.3,0,0.4,0.3,0.6,0.3c0.4,0,0.5-0.4,0.8-0.4c0.2,0,0.2,0.2,0.4,0.3c0.2,0.1,0.4,0,0.6,0c1.1-1.1,2.8-2.9,4.8-5
			c1.7-1.8,2.2-2.3,3.1-3.2C14.7,4,17.5,2,17.7,2.1c0.1,0.1-1.2,1.3-5.8,5.6c-3.1,3-5.7,5.4-7.4,7.1c0,0.4,0.1,0.5,0.2,0.5
			c0.2,0.1,0.5-0.2,0.8,0c0.1,0.1,0.3,0.2,0.3,0.5c0,0.2,0,0.3,0.1,0.4c0.1,0.1,0.1,0,0.2,0.1c0.2,0.2,0.1,0.4,0.3,0.5
			c0.2,0.1,0.4,0,0.5,0.2c0,0.1-0.1,0.1,0,0.3c0,0.2,0.2,0.2,0.2,0.3c0,0.2-0.3,0.3-0.4,0.6c-0.1,0.2,0.1,0.3,0.1,0.5
			c0,0.5-0.6,0.6-0.6,1c0,0.2,0.2,0.5,0.5,0.5c0.4,0,0.5-0.4,0.9-0.4c0.4,0,0.6,0.6,1,0.6c0.3,0,0.3-0.4,0.6-0.4
			c0.2,0,0.3,0.1,0.4,0c0.1-0.1,0.1-0.2,0.3-0.3c0.1,0,0.1,0,0.2,0c0.3,0,0.6-0.4,0.7-0.8c0.1-0.4,0-0.5,0.2-0.8
			c0.1-0.2,0.3-0.3,0.4-0.4c0.6-0.4,1.3-1.1,1.9-1.7c0.9-0.8,1-1.2,1.5-1.5c0.1,0,0.3-0.1,0.5-0.3c0.3-0.3,0.4-0.6,0.6-0.9
			c0.4-0.8,0.9-0.9,1.8-2.1c0-0.1,0.2-0.3,0.2-0.4c-0.1-0.1-1.2,1.2-1.5,1c-0.1-0.1-0.1-0.2-0.1-0.3c0.1-0.6,0.9-0.8,2-1.8
			c0.3-0.3,0.2-0.2,0.5-0.5c0.9-0.8,1.8-1.4,2.1-1.8C20.9,7.2,21,6.9,21,6.9c0-0.1,0-0.1,0.1-0.2c0.1-0.3,0.3-0.4,0.7-0.9
			C22.3,5.2,22.3,5.1,22.3,5z M4.5,4.2c-0.3,0.4-0.7,0.7-1,0.9c0.2-0.3,0.4-0.7,0.8-1C4.5,4,4.6,3.9,4.8,3.8
			C4.7,3.9,4.6,4.1,4.5,4.2z M4.2,2.9c0.5-0.6,1-1,1.5-1.5C5.3,2,4.9,2.5,4.4,3C4,3.3,3.7,3.7,3.4,3.9C3.6,3.6,3.9,3.3,4.2,2.9z
			 M-1.6,2.9c0.1-0.2,0.2-0.4,0.5-0.7C-1.1,2.1-1,2.1-0.9,2C-1,2.1-1,2.2-1.1,2.3C-1.3,2.5-1.4,2.7-1.6,2.9z M-0.7,11.4
			C-0.8,11.6-1,11.6-1,11.6c0,0,0-0.2,0.1-0.3c0.1-0.2,0.3-0.2,0.3-0.2C-0.6,11.2-0.6,11.3-0.7,11.4z M-1.1,6.6
			c0.3-0.4,0.7-0.8,1-1.3c0,0.1,0,0.2,0,0.3C-0.4,5.9-0.7,6.2-1.1,6.6z M0.8,12.9c0,0-0.2-0.2-0.5-0.6C0.1,12.1,0,12.1,0,12
			c0-0.1,0.1-0.1,0.2-0.2c0.1-0.1,0.3-0.2,0.4-0.5c0,0.2-0.1,0.3-0.1,0.4c-0.1,0.1-0.1,0.2-0.1,0.3c0,0.1,0.1,0,0.1,0.1
			c0.1,0.1,0,0.2,0,0.3C0.6,12.7,0.8,12.8,0.8,12.9z M0.7,1c0.1-0.2,0.2-0.4,0.5-0.7c0.1-0.1,0.2-0.2,0.3-0.2
			C1.3,0.2,1.3,0.3,1.2,0.4C1,0.7,0.8,0.9,0.7,1z M3.6,7.9C4.7,6.5,6,5,7.6,3.5C8.8,2.4,9.9,1.4,11,0.6c-0.8,0.7-1.6,1.5-2.3,2.3
			C6.9,4.5,5.2,6.2,3.6,7.9z M8.8,3.5c0.9-0.9,1.7-1.6,2.5-2.1C10.8,1.9,10.3,2.4,9.8,3C8.6,4.3,7.4,5.5,6.3,6.6
			C6.9,5.6,7.7,4.6,8.8,3.5z M10.7,5.4c1.2-1,2.3-1.9,3.4-2.8c-0.7,0.7-1.5,1.5-2.3,2.3c-1.6,1.5-3.3,2.9-4.8,4
			C8.1,7.8,9.3,6.6,10.7,5.4z M12.5,5.5c-1.7,1.5-3.3,2.9-4.8,4c1.2-1.2,2.4-2.3,3.8-3.5c1.2-1,2.3-1.9,3.4-2.8
			C14.1,4,13.3,4.8,12.5,5.5z M18.5,3.9c-0.7,0.7-1.5,1.5-2.3,2.3c-1.6,1.5-3.3,2.9-4.8,4c1.2-1.2,2.4-2.3,3.8-3.5
			C16.3,5.6,17.4,4.7,18.5,3.9z M8.6,12c1.5-1.8,3.3-3.7,5.4-5.5c0.9-0.8,1.9-1.6,2.8-2.3c-1,1-2,2-3,3.1C12,8.8,10.3,10.4,8.6,12z
			 M9,13.8c1.6-1.6,3.4-3.3,5.3-4.9c1.5-1.3,3-2.6,4.4-3.7c-1.2,1.1-2.4,2.2-3.6,3.4C13,10.3,11,12.1,9,13.8z M9.2,14.8
			c1.2-1.3,2.6-2.8,4.3-4.3c1.5-1.2,2.9-2.3,4.2-3.1c-1.1,1-2.3,2-3.4,3C12.6,11.9,10.9,13.3,9.2,14.8z M17.7,8.8
			C16.4,10,15.2,11,14,12c0.2-0.2,0.4-0.4,0.7-0.6c0.8-0.8,1.6-1.5,2.3-2.3c-0.1,0.1-0.2,0.2-0.3,0.2c-0.1,0.1-0.1,0.1-0.2,0.2
			c-1.3,1.2-2.6,2.3-3.7,3.4c-1,0.8-1.9,1.6-2.8,2.2c1.2-1.2,2.4-2.3,3.8-3.5c1-0.9,2.1-1.7,3.1-2.5C17.9,8.2,19,7.4,20,6.6
			C19.3,7.3,18.5,8.1,17.7,8.8z"/>
	</defs>
	<clipPath id="SVGID_2_">
		<use xlink:href="#SVGID_1_"  style="overflow:visible;"/>
	</clipPath>
	<g transform="translate(-351.99997,-119.99994)" class="st0">
		<path class="st1" d="M357.5,120c-0.5,0-1,0.1-1.4,0.2c-0.4,0.2-0.7,0.5-0.8,0.8c-0.3,0.7-0.3,1.5-0.3,2.5v9c0,1,0,1.8,0.3,2.5
			c0.2,0.3,0.5,0.6,0.8,0.8s0.8,0.2,1.4,0.2h5c0.5,0,1-0.1,1.4-0.2c0.4-0.2,0.7-0.5,0.8-0.8c0.3-0.7,0.3-1.5,0.3-2.5v-9
			c0-1,0-1.8-0.3-2.5c-0.2-0.3-0.5-0.6-0.8-0.8c-0.4-0.2-0.8-0.2-1.4-0.2H357.5z M356.1,122h7.9c0.1,0.4,0.1,0.9,0.1,1.5v9
			c0,0.6,0,1.1-0.1,1.5h-7.9c-0.1-0.4-0.1-0.9-0.1-1.5v-9C356,122.9,356,122.4,356.1,122z"/>
	</g>
</g>
</svg>
