<?xml version="1.0" encoding="utf-8"?>
<!-- Generator: Adobe Illustrator 23.0.0, SVG Export Plug-In . SVG Version: 6.00 Build 0)  -->
<svg version="1.1" id="Layer_1" xmlns="http://www.w3.org/2000/svg" xmlns:xlink="http://www.w3.org/1999/xlink" x="0px" y="0px"
	 viewBox="0 0 256 256" style="enable-background:new 0 0 256 256;" xml:space="preserve">
<style type="text/css">
	.st0{opacity:0.8;fill:#0E0E17;}
	.st1{fill:#0E0E17;}
	.st2{fill:none;stroke:#F75049;stroke-miterlimit:10;}
	.st3{fill:#F75049;}
</style>
<g>
	<g>
		<path class="st0" d="M218.1,40.1h-67.5c-6.8-6.3-13.6-12.7-20.4-19.1H37.7c-2.3,2.2-4.6,4.5-6.9,6.7v200.1l8,8h160.9
			c9-9.8,17.9-19.7,26.8-29.5V46.8C223.7,44.6,220.9,42.4,218.1,40.1z M218.3,168c-2.7,3.4-5.4,7-8.1,10.4v40.6
			c-2.6,2.6-5.3,5.1-7.9,7.7H48.9c-2.6-2.6-5.2-5.2-7.8-7.9v-40.4c-2.6-3.4-5.3-7-7.9-10.4V95.5c2.6-2.3,5.3-4.5,7.9-6.8V50.3
			c2.6-2.6,5.2-5.3,7.8-7.9h153.3c2.7,2.7,5.3,5.4,8,8.1v38.3c2.6,2.2,5.3,4.5,8,6.8V168z"/>
		<path class="st1" d="M218.1,40.1h-67.5c-6.8-6.3-13.6-12.7-20.4-19.1H37.7c-2.3,2.2-4.6,4.5-6.9,6.7v200.1l8,8h160.9
			c9-9.8,17.9-19.7,26.8-29.5V46.8C223.7,44.6,220.9,42.4,218.1,40.1z M218.3,168c-2.7,3.4-5.4,7-8.1,10.4v40.6
			c-2.6,2.6-5.3,5.1-7.9,7.7H48.9c-2.6-2.6-5.2-5.2-7.8-7.9v-40.4c-2.6-3.4-5.3-7-7.9-10.4V95.5c2.6-2.3,5.3-4.5,7.9-6.8V50.3
			c2.6-2.6,5.2-5.3,7.8-7.9h153.3c2.7,2.7,5.3,5.4,8,8.1v38.3c2.6,2.2,5.3,4.5,8,6.8V168z"/>
		<g>
			<path class="st1" d="M218.3,95.7V168c-2.7,3.4-5.4,7-8.1,10.4v40.6c-2.6,2.6-5.3,5.1-7.9,7.7H48.9c-2.6-2.6-5.2-5.2-7.8-7.9
				v-40.4c-2.6-3.4-5.3-7-7.9-10.4V95.5c2.6-2.3,5.3-4.5,7.9-6.8V50.3c2.6-2.6,5.2-5.3,7.8-7.9h153.3c2.7,2.7,5.3,5.4,8,8.1v38.3
				C212.9,91.1,215.6,93.4,218.3,95.7z"/>
		</g>
	</g>
	<path class="st2" d="M218.1,40.1h-67.5c-6.8-6.3-13.6-12.7-20.4-19.1H37.7c-2.3,2.2-4.6,4.5-6.9,6.7v200.1l8,8h160.9
		c9-9.8,17.9-19.7,26.8-29.5V46.8C223.7,44.6,220.9,42.4,218.1,40.1z M218.3,168c-2.7,3.4-5.4,7-8.1,10.4v40.6
		c-2.6,2.6-5.3,5.1-7.9,7.7H48.9c-2.6-2.6-5.2-5.2-7.8-7.9v-40.4c-2.6-3.4-5.3-7-7.9-10.4V95.5c2.6-2.3,5.3-4.5,7.9-6.8V50.3
		c2.6-2.6,5.2-5.3,7.8-7.9h153.3c2.7,2.7,5.3,5.4,8,8.1v38.3c2.6,2.2,5.3,4.5,8,6.8V168z"/>
</g>
<path class="st3" d="M91.1,149.9l-0.9-0.9l-4.6-6.4c-1.8,1.8-2.7,3.7-4.6,4.6l5.5,6.4l0.9,0.9l10.9,13.7c1.8-1.8,2.7-2.7,4.6-4.6
	L91.1,149.9z M102.9,165.4c-1.8,1.8-2.7,2.7-4.6,4.6l5.5,6.4c1.8-1.8,2.7-2.7,4.6-4.6L102.9,165.4z M91.1,149.9l-0.9-0.9l-4.6-6.4
	c-1.8,1.8-2.7,3.7-4.6,4.6l5.5,6.4l0.9,0.9l10.9,13.7c1.8-1.8,2.7-2.7,4.6-4.6L91.1,149.9z M102.9,165.4c-1.8,1.8-2.7,2.7-4.6,4.6
	l5.5,6.4c1.8-1.8,2.7-2.7,4.6-4.6L102.9,165.4z M91.1,149.9l-0.9-0.9l-4.6-6.4c-1.8,1.8-2.7,3.7-4.6,4.6l5.5,6.4l0.9,0.9l10.9,13.7
	c1.8-1.8,2.7-2.7,4.6-4.6L91.1,149.9z M102.9,165.4c-1.8,1.8-2.7,2.7-4.6,4.6l5.5,6.4c1.8-1.8,2.7-2.7,4.6-4.6L102.9,165.4z
	 M102.9,165.4c-1.8,1.8-2.7,2.7-4.6,4.6l5.5,6.4c1.8-1.8,2.7-2.7,4.6-4.6L102.9,165.4z M94.7,172.7c-1.8,1.8-3.7,2.7-4.6,4.6
	l8.2,5.5c0.9-1.8,2.7-2.7,4.6-4.6L94.7,172.7z M187.8,118.9l-3.6-9.1c-6.4,5.5-12.8,10.9-18.3,16.4h13.7l0,0
	C182.3,123.4,185.1,120.7,187.8,118.9z M113.9,171.8l2.7,8.2c8.2-8.2,17.3-16.4,26.5-24.6l0,0l4.6-13.7
	C136.7,151.7,124.8,161.8,113.9,171.8z M198.8,147.2l-4.6-12.8l-4.6-12.8c-7.3,7.3-15.5,13.7-22.8,20.1l-31.9,41.1l5.5-20.1l0,0
	c-0.9,0.9-1.8,1.8-2.7,2.7c-7.3,6.4-13.7,11.9-21,17.3l0,0l0,0c-2.7,2.7-6.4,4.6-9.1,7.3l15.5,11.9l0,0l0,0l0,0l0,0l0,0l0,0l0,0l0,0
	l0,0l0,0l0,0l0,0l0,0l0,0h2.7l0,0l0,0l0,0l0,0l0,0l0,0l0,0l0,0l0,0l0,0l0,0l0,0l42.9-31l27.4-20.1
	C198.8,149.9,198.8,148.1,198.8,147.2z M188.7,149l-45.6,33.8l42.9-53.8l3.6,10l2.7,8.2L188.7,149z M179.6,97
	c-7.3,6.4-14.6,13.7-21.9,20.1c-15.5,14.6-31.9,29.2-47.4,42.9l2.7,7.3c8.2-8.2,17.3-17.3,28.3-25.5c3.6-2.7,6.4-5.5,10-8.2l1.8-7.3
	h7.3c8.2-6.4,16.4-11.9,23.7-17.3L179.6,97z M171.4,73.2c-3.6,3.7-8.2,8.2-11.9,11.9l-4.6,15.5c1.8-1.8,3.6-2.7,5.5-4.6
	c5.5-4.6,10-9.1,15.5-12.8L171.4,73.2z M169.6,70.5c0-0.9-1.8-1.8-2.7-1.8c-1.8,0-2.7,0.9-2.7,1.8l-2.7,9.1c3.6-2.7,6.4-5.5,10-8.2
	L169.6,70.5z M175.9,86c-1.8,1.8-2.7,2.7-4.6,3.7c-6.4,6.4-12.8,11.9-20.1,17.3l-3.6,11.9h-10c-7.3,7.3-15.5,13.7-23.7,19.2
	c6.4-6.4,12.8-12.8,19.2-18.2h-9.1c-7.3,6.4-13.7,12.8-21,19.2l6.4,18.3c12.8-11.9,25.6-23.7,39.2-36.5c10-9.1,20.1-18.3,30.1-26.5
	L175.9,86z M91.1,149.9l-0.9-0.9l-4.6-6.4c-1.8,1.8-2.7,3.7-4.6,4.6l5.5,6.4l0.9,0.9l10.9,13.7c1.8-1.8,2.7-2.7,4.6-4.6L91.1,149.9z
	 M71.9,156.3c-1.8,1.8-2.7,2.7-4.6,4.6l21.9,15.5c1.8-1.8,2.7-2.7,4.6-4.6L71.9,156.3z M70.1,130.7c0.9-0.9,1.8-2.7,3.7-3.6
	l-1.8-0.9h2.7c7.3-7.3,15.5-15.5,23.7-22.8l-2.7-8.2c-10.9,9.1-22.8,18.3-33.8,26.5l-9.1,25.5c0,0.9,0,2.7,0.9,3.7l8.2,5.5
	c1.8-1.8,2.7-2.7,4.6-4.6l-6.4-4.6l6.4-18.3l10,12.8c1.8-1.8,2.7-2.7,4.6-4.6l-7.3-9.1C72.8,128.9,71,129.8,70.1,130.7z M87.4,70.5
	c0-0.9-1.8-1.8-2.7-1.8s-2.7,0.9-2.7,1.8l-19.2,51.1l0,0c10-10,21-20.1,31.9-30.1L87.4,70.5z M110.2,119.8c-3.7,2.7-7.3,6.4-10,9.1
	l2.7,7.3c4.6-5.5,10-10.9,15.5-16.4H110.2z M99.3,107c-7.3,6.4-15.5,12.8-22.8,19.2H92c3.7-4.6,7.3-7.3,10-10.9L99.3,107z
	 M91.1,149.9l-0.9-0.9l-4.6-6.4c-1.8,1.8-2.7,3.7-4.6,4.6l5.5,6.4l0.9,0.9l10.9,13.7c1.8-1.8,2.7-2.7,4.6-4.6L91.1,149.9z
	 M102.9,165.4c-1.8,1.8-2.7,2.7-4.6,4.6l5.5,6.4c1.8-1.8,2.7-2.7,4.6-4.6L102.9,165.4z M91.1,149.9l-0.9-0.9l-4.6-6.4
	c-1.8,1.8-2.7,3.7-4.6,4.6l5.5,6.4l0.9,0.9l10.9,13.7c1.8-1.8,2.7-2.7,4.6-4.6L91.1,149.9z M102.9,165.4c-1.8,1.8-2.7,2.7-4.6,4.6
	l5.5,6.4c1.8-1.8,2.7-2.7,4.6-4.6L102.9,165.4z M91.1,149.9l-0.9-0.9l-4.6-6.4c-1.8,1.8-2.7,3.7-4.6,4.6l5.5,6.4l0.9,0.9l10.9,13.7
	c1.8-1.8,2.7-2.7,4.6-4.6L91.1,149.9z M102.9,165.4c-1.8,1.8-2.7,2.7-4.6,4.6l5.5,6.4c1.8-1.8,2.7-2.7,4.6-4.6L102.9,165.4z"/>
<path class="st3" d="M62.8,121.6L62.8,121.6c-0.9,0.9-0.9,0.9-1.8,1.8L62.8,121.6z"/>
<path class="st3" d="M73.7,128l7.3,9.1c-1.8,1.8-2.7,2.7-4.6,4.6l-10-12.8L60,147.2l7.3,5.5c-1.8,0.9-3.6,2.7-5.5,3.6l-8.2-5.5
	c-0.9-0.9-0.9-2.7-0.9-3.7l9.1-24.6c10.9-8.2,21.9-17.3,33.8-26.5l2.7,7.3c-8.2,7.3-16.4,15.5-23.7,22.8h-2.7L73.7,128
	c-1.8,0-2.7,1.8-3.7,2.7C71,129.8,72.8,128.9,73.7,128z"/>
<path class="st3" d="M93.8,91.5c-10.9,10-21.9,20.1-31,30.1l0,0l19.2-51.1c0.9-0.9,1.8-1.8,2.7-1.8s2.7,0.9,2.7,1.8L93.8,91.5z"/>
<path class="st3" d="M102,115.2c-2.7,2.7-6.4,6.4-10,10.9H76.5c7.3-5.5,15.5-11.9,22.8-18.3L102,115.2z"/>
<path class="st3" d="M102,164.5c-1.8,1.8-2.7,2.7-4.6,4.6l-11-13.7v-1.8l-5.5-6.4c1.8-0.9,2.7-2.7,4.6-4.6l4.6,6.4l0.9,0.9
	L102,164.5z"/>
<path class="st3" d="M94.7,171.8c-1.8,1.8-2.7,2.7-4.6,4.6l-22.8-16.4c1.8-1.8,2.7-2.7,4.6-4.6L94.7,171.8z"/>
<path class="st3" d="M102,178.2c-0.9,1.8-2.7,2.7-3.7,4.6l-8.2-5.5c1.8-1.8,3.7-2.7,4.6-4.6L102,178.2z"/>
<path class="st3" d="M108.4,171.8c-1.8,1.8-2.7,2.7-4.6,4.6l-5.5-6.4c1.8-1.8,3.7-2.7,4.6-4.6L108.4,171.8z"/>
<path class="st3" d="M187.8,118.9l-3.6-9.1c-6.4,5.5-12.8,10.9-18.3,16.4h13.7l0,0C182.3,123.4,185.1,120.7,187.8,118.9z
	 M113.9,171.8l2.7,8.2c8.2-8.2,17.3-16.4,26.5-24.6l0,0l4.6-13.7C136.7,151.7,124.8,161.8,113.9,171.8z M188.7,138.9
	c1.8-0.9,3.6-2.7,5.5-4.6l-4.6-12.8c-7.3,7.3-15.5,13.7-22.8,20.1l-31.9,41.1l5.5-20.1l0,0c-0.9,0.9-1.8,1.8-2.7,2.7
	c-7.3,6.4-13.7,11.9-21,17.3l0,0c-2.7,2.7-6.4,4.6-9.1,7.3l15.5,11.9l0,0l0,0l0,0l0,0l0,0l0,0l0,0l0,0l0,0l0,0l0,0l0,0l0,0l0,0h2.7
	l0,0l0,0l0,0l0,0l0,0l0,0l0,0l0,0l0,0l0,0l0,0l0,0l42.9-31c4.6-5.5,9.1-8.2,17.3-20.1c0,0,0-0.9,0.9-0.9l-45.6,33.8l42.9-53.8
	L188.7,138.9z M179.6,97c-7.3,6.4-14.6,13.7-21.9,20.1c-15.5,14.6-31.9,29.2-47.4,42.9l2.7,7.3c8.2-8.2,17.3-17.3,28.3-25.5
	c3.6-2.7,6.4-5.5,10-8.2l1.8-7.3h7.3c8.2-6.4,16.4-11.9,23.7-17.3L179.6,97z M171.4,73.2c-3.6,3.7-8.2,8.2-11.9,11.9l-4.6,15.5
	c1.8-1.8,3.6-2.7,5.5-4.6c5.5-4.6,10-9.1,15.5-12.8L171.4,73.2z M169.6,70.5c0-0.9-1.8-1.8-2.7-1.8c-1.8,0-2.7,0.9-2.7,1.8l-2.7,9.1
	c3.6-2.7,6.4-5.5,10-8.2L169.6,70.5z M175.9,86c-1.8,1.8-2.7,2.7-4.6,3.7c-6.4,6.4-12.8,11.9-20.1,17.3l-3.6,11.9h-10
	c-7.3,7.3-15.5,13.7-23.7,19.2c6.4-6.4,12.8-12.8,19.2-18.2h-9.1c-7.3,6.4-13.7,12.8-21,19.2l6.4,18.3
	c12.8-11.9,25.6-23.7,39.2-36.5c10-9.1,20.1-18.3,30.1-26.5L175.9,86z M110.2,119.8c-3.7,2.7-7.3,6.4-10,9.1l2.7,7.3
	c4.6-5.5,10-10.9,15.5-16.4H110.2z"/>
<path class="st3" d="M62.8,121.6L62.8,121.6c-0.9,0.9-0.9,0.9-1.8,1.8L62.8,121.6z"/>
<path class="st3" d="M91.1,149.9c-0.9,1.8-2.7,3.6-4.6,4.6v-0.9c0.9-0.9,2.7-2.7,3.7-4.6L91.1,149.9z"/>
<path class="st3" d="M141.3,162.7L141.3,162.7c-0.9,0.9-1.8,1.8-2.7,2.7C139.4,164.5,140.4,163.6,141.3,162.7z"/>
</svg>
