<?xml version="1.0" encoding="utf-8"?>
<!-- Generator: Adobe Illustrator 23.0.0, SVG Export Plug-In . SVG Version: 6.00 Build 0)  -->
<svg version="1.1" id="Layer_1" xmlns="http://www.w3.org/2000/svg" xmlns:xlink="http://www.w3.org/1999/xlink" x="0px" y="0px"
	 viewBox="0 0 256 256" style="enable-background:new 0 0 256 256;" xml:space="preserve">
<style type="text/css">
	.st0{opacity:0.8;fill:#0E0E17;}
	.st1{fill:#0E0E17;}
	.st2{fill:none;stroke:#F75049;stroke-miterlimit:10;}
	.st3{fill:#F75049;}
</style>
<g>
	<g>
		<path class="st0" d="M218.1,40.1h-67.5c-6.8-6.3-13.6-12.7-20.4-19.1H37.7c-2.3,2.2-4.6,4.5-6.9,6.7v200.1l8,8h160.9
			c9-9.8,17.9-19.7,26.8-29.5V46.8C223.7,44.6,220.9,42.4,218.1,40.1z M218.3,168c-2.7,3.4-5.4,7-8.1,10.4v40.6
			c-2.6,2.6-5.3,5.1-7.9,7.7H48.9c-2.6-2.6-5.2-5.2-7.8-7.9v-40.4c-2.6-3.4-5.3-7-7.9-10.4V95.5c2.6-2.3,5.3-4.5,7.9-6.8V50.3
			c2.6-2.6,5.2-5.3,7.8-7.9h153.3c2.7,2.7,5.3,5.4,8,8.1v38.3c2.6,2.2,5.3,4.5,8,6.8V168z"/>
		<path class="st1" d="M218.1,40.1h-67.5c-6.8-6.3-13.6-12.7-20.4-19.1H37.7c-2.3,2.2-4.6,4.5-6.9,6.7v200.1l8,8h160.9
			c9-9.8,17.9-19.7,26.8-29.5V46.8C223.7,44.6,220.9,42.4,218.1,40.1z M218.3,168c-2.7,3.4-5.4,7-8.1,10.4v40.6
			c-2.6,2.6-5.3,5.1-7.9,7.7H48.9c-2.6-2.6-5.2-5.2-7.8-7.9v-40.4c-2.6-3.4-5.3-7-7.9-10.4V95.5c2.6-2.3,5.3-4.5,7.9-6.8V50.3
			c2.6-2.6,5.2-5.3,7.8-7.9h153.3c2.7,2.7,5.3,5.4,8,8.1v38.3c2.6,2.2,5.3,4.5,8,6.8V168z"/>
		<g>
			<path class="st1" d="M218.3,95.7V168c-2.7,3.4-5.4,7-8.1,10.4v40.6c-2.6,2.6-5.3,5.1-7.9,7.7H48.9c-2.6-2.6-5.2-5.2-7.8-7.9
				v-40.4c-2.6-3.4-5.3-7-7.9-10.4V95.5c2.6-2.3,5.3-4.5,7.9-6.8V50.3c2.6-2.6,5.2-5.3,7.8-7.9h153.3c2.7,2.7,5.3,5.4,8,8.1v38.3
				C212.9,91.1,215.6,93.4,218.3,95.7z"/>
		</g>
	</g>
	<path class="st2" d="M218.1,40.1h-67.5c-6.8-6.3-13.6-12.7-20.4-19.1H37.7c-2.3,2.2-4.6,4.5-6.9,6.7v200.1l8,8h160.9
		c9-9.8,17.9-19.7,26.8-29.5V46.8C223.7,44.6,220.9,42.4,218.1,40.1z M218.3,168c-2.7,3.4-5.4,7-8.1,10.4v40.6
		c-2.6,2.6-5.3,5.1-7.9,7.7H48.9c-2.6-2.6-5.2-5.2-7.8-7.9v-40.4c-2.6-3.4-5.3-7-7.9-10.4V95.5c2.6-2.3,5.3-4.5,7.9-6.8V50.3
		c2.6-2.6,5.2-5.3,7.8-7.9h153.3c2.7,2.7,5.3,5.4,8,8.1v38.3c2.6,2.2,5.3,4.5,8,6.8V168z"/>
</g>
<g>
	<path class="st3" d="M51.8,101.3l-2.1-2.1c1-1,2.1-2.1,3.1-3.1L63.1,90l28.8-17.5l0,0c-7.2,6.2-15.4,13.4-22.6,21.6
		c-4.1,4.1-8.2,7.2-11.3,11.3L51.8,101.3z"/>
	<path class="st3" d="M67.2,136.2c-6.2,5.1-11.3,10.3-16.4,15.4l-2.1-1L67.2,136.2z"/>
	<path class="st3" d="M90.8,129c-10.3,9.2-20.5,18.5-30.8,28.8l-8.2-6.2c10.3-8.2,21.6-17.5,32.9-26.7L90.8,129z"/>
	<path class="st3" d="M94.9,131.1l5.1,3.1c-8.2,7.2-13.4,14.4-28.8,29.8l-9.2-6.2C72.3,149.6,83.6,141.4,94.9,131.1z"/>
	<path class="st3" d="M81.6,123.9L61,108.5c6.2-6.2,12.3-13.4,19.5-20.5c4.1-4.1,8.2-9.2,12.3-14.4l24.6,18.5
		c-8.2,8.2-17.5,15.4-26.7,23.6C87.8,117.7,84.7,120.8,81.6,123.9z"/>
	<path class="st3" d="M102.1,109.5c6.2-5.1,11.3-10.3,16.4-15.4l7.2,4.1l-33.9,20.5C94.9,116.7,99,112.6,102.1,109.5z"/>
	<path class="st3" d="M83.6,171.1l-6.2-4.1c8.2-7.2,17.5-15.4,26.7-24.6c1-1,2.1-2.1,3.1-3.1l5.1,3.1
		C102.1,151.6,92.9,161.9,83.6,171.1z"/>
	<path class="st3" d="M123.7,149.6l2.1,1l-33.9,25.7l-6.2-3.1c10.3-9.2,20.5-18.5,29.8-28.8l5.1,3.1c-7.2,7.2-15.4,15.4-22.6,22.6
		C106.2,163.9,115.5,156.8,123.7,149.6z"/>
	<path class="st3" d="M122.7,173.2c-8.2,7.2-15.4,14.4-22.6,20.5l-6.2-4.1l-2.1-1c11.3-10.3,22.6-20.5,33.9-30.8l2.1,2.1l5.1,4.1
		C130.9,167,126.8,170.1,122.7,173.2z"/>
	<path class="st3" d="M125.8,186.5c-5.1,4.1-10.3,9.2-15.4,13.4l-6.2-4.1c9.2-8.2,18.5-16.4,27.7-24.6c2.1-2.1,4.1-3.1,6.2-5.1
		l6.2,6.2C138.1,176.3,131.9,181.4,125.8,186.5z"/>
	<path class="st3" d="M137,181.4c-5.1,5.1-11.3,10.3-16.4,14.4c-2.1,2.1-4.1,3.1-6.2,4.1c9.2-9.2,19.5-18.5,29.8-27.7l1,1
		C143.2,176.3,140.1,178.3,137,181.4z"/>
	<path class="st3" d="M168.9,179.3v5.1l-3.1,2.1l-40.1,23.6l-12.3-7.2c3.1-2.1,5.1-4.1,8.2-6.2c8.2-6.2,17.5-13.4,26.7-21.6l8.2,6.2
		c-1,1-2.1,3.1-3.1,5.1c0,1,0,2.1,1,3.1C155.5,190.6,163.7,183.5,168.9,179.3C167.9,179.3,167.9,179.3,168.9,179.3L168.9,179.3z"/>
	<path class="st3" d="M159.6,130.1c-9.2,8.2-18.5,16.4-27.7,24.6l-6.2-4.1L159.6,130.1z"/>
	<path class="st3" d="M158.6,159.8l2.1-2.1c1-1,2.1-2.1,3.1-3.1c-4.1,4.1-9.2,9.2-13.4,13.4l-1-1C152.5,165,155.5,162.9,158.6,159.8
		z"/>
	<path class="st3" d="M159.6,72.5l9.2,5.1c-3.1,1-17.5,10.3-34.9,25.7l-5.1-3.1c3.1-3.1,6.2-6.2,9.2-9.2c-3.1,3.1-7.2,5.1-10.3,8.2
		l-2.1-1L159.6,72.5z"/>
	<path class="st3" d="M169.9,78.7L169.9,78.7L169.9,78.7L169.9,78.7z"/>
	<path class="st3" d="M168.9,124.9l17.5,13.4c-8.2,6.2-16.4,13.4-24.6,20.5c-4.1,3.1-8.2,6.2-12.3,9.2l-6.2-5.1
		c9.2-8.2,18.5-16.4,28.8-24.6c-10.3,6.2-20.5,14.4-31.8,22.6l-7.2-5.1c3.1-2.1,5.1-4.1,7.2-6.2c9.2-8.2,17.5-16.4,26.7-24.6
		C166.8,124.9,167.9,124.9,168.9,124.9c4.1-4.1,8.2-8.2,12.3-12.3c-5.1,4.1-9.2,8.2-14.4,11.3l-8.2-5.1c7.2-7.2,14.4-13.4,21.6-20.5
		c-8.2,6.2-15.4,12.3-23.6,18.5l-8.2-5.1c4.1-4.1,7.2-7.2,10.3-11.3c-4.1,3.1-8.2,6.2-12.3,10.3l-5.1-3.1
		c20.5-19.5,28.8-26.7,28.8-28.8l32.9,19.5L168.9,124.9z"/>
	<path class="st3" d="M197.6,146.5c-4.1,4.1-10.3,8.2-16.4,13.4c-4.1,3.1-3.1,3.1-6.2,5.1c-3.1,2.1-5.1,4.1-7.2,6.2l-8.2,5.1
		l-8.2-6.2c6.2-5.1,12.3-10.3,18.5-16.4c6.2-5.1,11.3-10.3,16.4-16.4L197.6,146.5z"/>
	<path class="st3" d="M138.1,167c-2.1,2.1-4.1,3.1-6.2,5.1c-9.2,8.2-18.5,16.4-27.7,24.6l6.2,4.1c5.1-4.1,10.3-9.2,15.4-13.4
		c6.2-5.1,12.3-10.3,18.5-15.4L138.1,167z M144.2,172.2c-10.3,9.2-20.5,18.5-29.8,27.7c2.1-1,4.1-3.1,6.2-4.1
		c5.1-5.1,11.3-9.2,16.4-14.4c3.1-3.1,5.1-5.1,8.2-8.2L144.2,172.2z M167.9,179.3L167.9,179.3c-4.1,4.1-12.3,11.3-14.4,10.3
		c-1-1-1-2.1-1-3.1c0-2.1,1-4.1,3.1-5.1l-8.2-6.2c-9.2,7.2-17.5,14.4-26.7,21.6c-3.1,2.1-5.1,4.1-8.2,6.2l13.4,7.2l40.1-24.6
		l3.1-2.1L167.9,179.3L167.9,179.3z M128.8,159.8l-2.1-1c-11.3,10.3-22.6,20.5-33.9,30.8l2.1,1l6.2,4.1c7.2-7.2,14.4-14.4,22.6-20.5
		c4.1-3.1,7.2-6.2,11.3-9.2L128.8,159.8z M125.8,150.6l5.1,4.1c9.2-8.2,18.5-16.4,27.7-24.6L125.8,150.6z M168.9,124.9l-2.1,1
		c-8.2,8.2-17.5,16.4-26.7,24.6c-2.1,1-4.1,3.1-7.2,5.1l6.2,4.1c11.3-8.2,21.6-15.4,31.8-22.6c-9.2,8.2-18.5,16.4-28.8,24.6l6.2,5.1
		c4.1-3.1,8.2-6.2,12.3-9.2c8.2-7.2,16.4-14.4,24.6-20.5L168.9,124.9z M160.7,157.8l-2.1,2.1c-3.1,3.1-6.2,5.1-9.2,8.2l1,1
		c5.1-5.1,9.2-9.2,13.4-13.4C162.7,156.8,161.7,156.8,160.7,157.8z M187.4,138.3c-5.1,5.1-11.3,10.3-16.4,16.4
		c-6.2,5.1-12.3,11.3-18.5,16.4l8.2,6.2l8.2-5.1c2.1-2.1,5.1-3.1,7.2-6.2c3.1-3.1,2.1-2.1,6.2-5.1c5.1-6.2,11.3-10.3,15.4-14.4
		L187.4,138.3z M169.9,78.7c-1,2.1-8.2,9.2-28.8,28.8l5.1,4.1c4.1-3.1,8.2-7.2,12.3-10.3c-3.1,4.1-7.2,7.2-10.3,11.3l8.2,4.1
		c8.2-7.2,15.4-13.4,23.6-18.5c-7.2,7.2-13.4,13.4-21.6,20.5l8.2,5.1c5.1-4.1,9.2-8.2,14.4-11.3c-4.1,4.1-8.2,8.2-13.4,12.3l0,0
		l33.9-25.7L169.9,78.7z M159.6,72.5l-33.9,25.7l1,1c3.1-3.1,7.2-5.1,10.3-8.2c-2.1,3.1-5.1,6.2-8.2,9.2l5.1,3.1
		c17.5-14.4,31.8-24.6,34.9-25.7L159.6,72.5z M92.9,73.6c-4.1,5.1-8.2,10.3-12.3,14.4c-6.2,7.2-13.4,14.4-19.5,20.5l20.5,15.4
		c3.1-3.1,6.2-6.2,9.2-8.2c9.2-8.2,18.5-15.4,26.7-22.6L92.9,73.6z M119.6,94.1c-5.1,5.1-11.3,10.3-16.4,15.4
		c-4.1,3.1-8.2,7.2-11.3,10.3l33.9-20.5L119.6,94.1z M91.9,72.5L63.1,90l-10.3,6.2c-1,1-2.1,2.1-3.1,3.1l2.1,2.1l6.2,4.1
		c3.1-4.1,7.2-8.2,11.3-11.3C76.5,85.9,84.7,78.7,91.9,72.5L91.9,72.5z M123.7,149.6c-9.2,7.2-17.5,14.4-25.7,20.5
		c7.2-7.2,15.4-15.4,23.6-22.6l-6.2-3.1c-10.3,9.2-20.5,18.5-29.8,28.8l6.2,3.1l33.9-25.7L123.7,149.6z M107.3,139.3
		c-1,1-2.1,2.1-3.1,3.1c-9.2,9.2-18.5,17.5-26.7,25.7l6.2,4.1c9.2-10.3,18.5-20.5,28.8-29.8L107.3,139.3z M48.7,150.6l2.1,1
		c5.1-5.1,10.3-10.3,15.4-15.4L48.7,150.6z M84.7,125.9c-11.3,9.2-22.6,18.5-32.9,25.7l9.2,5.1c9.2-9.2,19.5-18.5,30.8-28.8
		L84.7,125.9z M94.9,131.1c-11.3,10.3-22.6,18.5-32.9,26.7l9.2,6.2c14.4-15.4,20.5-21.6,28.8-29.8L94.9,131.1z"/>
	<path class="st3" d="M160.7,157.8l-2.1,2.1c-3.1,3.1-6.2,5.1-9.2,8.2l1,1c5.1-5.1,9.2-9.2,13.4-13.4
		C162.7,156.8,161.7,156.8,160.7,157.8z M144.2,172.2c-10.3,9.2-20.5,18.5-29.8,27.7c2.1-1,4.1-3.1,6.2-4.1
		c5.1-5.1,11.3-9.2,16.4-14.4c3.1-3.1,5.1-5.1,8.2-8.2L144.2,172.2z M160.7,157.8l-2.1,2.1c-3.1,3.1-6.2,5.1-9.2,8.2l1,1
		c5.1-5.1,9.2-9.2,13.4-13.4C162.7,156.8,161.7,156.8,160.7,157.8z M144.2,172.2c-10.3,9.2-20.5,18.5-29.8,27.7
		c2.1-1,4.1-3.1,6.2-4.1c5.1-5.1,11.3-9.2,16.4-14.4c3.1-3.1,5.1-5.1,8.2-8.2L144.2,172.2z M160.7,157.8l-2.1,2.1
		c-3.1,3.1-6.2,5.1-9.2,8.2l1,1c5.1-5.1,9.2-9.2,13.4-13.4C162.7,156.8,161.7,156.8,160.7,157.8z M144.2,172.2
		c-10.3,9.2-20.5,18.5-29.8,27.7c2.1-1,4.1-3.1,6.2-4.1c5.1-5.1,11.3-9.2,16.4-14.4c3.1-3.1,5.1-5.1,8.2-8.2L144.2,172.2z
		 M160.7,157.8l-2.1,2.1c-3.1,3.1-6.2,5.1-9.2,8.2l1,1c5.1-5.1,9.2-9.2,13.4-13.4C162.7,156.8,161.7,156.8,160.7,157.8z
		 M144.2,172.2c-10.3,9.2-20.5,18.5-29.8,27.7c2.1-1,4.1-3.1,6.2-4.1c5.1-5.1,11.3-9.2,16.4-14.4c3.1-3.1,5.1-5.1,8.2-8.2
		L144.2,172.2z M160.7,157.8l-2.1,2.1c-3.1,3.1-6.2,5.1-9.2,8.2l1,1c5.1-5.1,9.2-9.2,13.4-13.4C162.7,156.8,161.7,156.8,160.7,157.8
		z M144.2,172.2c-10.3,9.2-20.5,18.5-29.8,27.7c2.1-1,4.1-3.1,6.2-4.1c5.1-5.1,11.3-9.2,16.4-14.4c3.1-3.1,5.1-5.1,8.2-8.2
		L144.2,172.2z M160.7,157.8l-2.1,2.1c-3.1,3.1-6.2,5.1-9.2,8.2l1,1c5.1-5.1,9.2-9.2,13.4-13.4C162.7,156.8,161.7,156.8,160.7,157.8
		z M144.2,172.2c-10.3,9.2-20.5,18.5-29.8,27.7c2.1-1,4.1-3.1,6.2-4.1c5.1-5.1,11.3-9.2,16.4-14.4c3.1-3.1,5.1-5.1,8.2-8.2
		L144.2,172.2z M160.7,157.8l-2.1,2.1c-3.1,3.1-6.2,5.1-9.2,8.2l1,1c5.1-5.1,9.2-9.2,13.4-13.4C162.7,156.8,161.7,156.8,160.7,157.8
		z M144.2,172.2c-10.3,9.2-20.5,18.5-29.8,27.7c2.1-1,4.1-3.1,6.2-4.1c5.1-5.1,11.3-9.2,16.4-14.4c3.1-3.1,5.1-5.1,8.2-8.2
		L144.2,172.2z M160.7,157.8l-2.1,2.1c-3.1,3.1-6.2,5.1-9.2,8.2l1,1c5.1-5.1,9.2-9.2,13.4-13.4C162.7,156.8,161.7,156.8,160.7,157.8
		z M144.2,172.2c-10.3,9.2-20.5,18.5-29.8,27.7c2.1-1,4.1-3.1,6.2-4.1c5.1-5.1,11.3-9.2,16.4-14.4c3.1-3.1,5.1-5.1,8.2-8.2
		L144.2,172.2z M160.7,157.8l-2.1,2.1c-3.1,3.1-6.2,5.1-9.2,8.2l1,1c5.1-5.1,9.2-9.2,13.4-13.4C162.7,156.8,161.7,156.8,160.7,157.8
		z M144.2,172.2c-10.3,9.2-20.5,18.5-29.8,27.7c2.1-1,4.1-3.1,6.2-4.1c5.1-5.1,11.3-9.2,16.4-14.4c3.1-3.1,5.1-5.1,8.2-8.2
		L144.2,172.2z M160.7,157.8l-2.1,2.1c-3.1,3.1-6.2,5.1-9.2,8.2l1,1c5.1-5.1,9.2-9.2,13.4-13.4C162.7,156.8,161.7,156.8,160.7,157.8
		z M144.2,172.2c-10.3,9.2-20.5,18.5-29.8,27.7c2.1-1,4.1-3.1,6.2-4.1c5.1-5.1,11.3-9.2,16.4-14.4c3.1-3.1,5.1-5.1,8.2-8.2
		L144.2,172.2z M48.7,150.6l2.1,1c5.1-5.1,10.3-10.3,15.4-15.4L48.7,150.6z M160.7,157.8l-2.1,2.1c-3.1,3.1-6.2,5.1-9.2,8.2l1,1
		c5.1-5.1,9.2-9.2,13.4-13.4C162.7,156.8,161.7,156.8,160.7,157.8z M144.2,172.2c-10.3,9.2-20.5,18.5-29.8,27.7
		c2.1-1,4.1-3.1,6.2-4.1c5.1-5.1,11.3-9.2,16.4-14.4c3.1-3.1,5.1-5.1,8.2-8.2L144.2,172.2z M91.9,72.5L63.1,90
		c-4.1,3.1-7.2,7.2-11.3,10.3l6.2,4.1c3.1-4.1,7.2-8.2,11.3-11.3C76.5,85.9,84.7,78.7,91.9,72.5L91.9,72.5z M84.7,125.9
		c-11.3,9.2-22.6,18.5-32.9,25.7l9.2,5.1c9.2-9.2,19.5-18.5,30.8-28.8L84.7,125.9z M94.9,131.1c-11.3,10.3-22.6,18.5-32.9,26.7
		l9.2,6.2c14.4-15.4,20.5-21.6,28.8-29.8L94.9,131.1z M119.6,94.1c-5.1,5.1-11.3,10.3-16.4,15.4c-4.1,3.1-8.2,7.2-11.3,10.3
		l33.9-20.5L119.6,94.1z M159.6,72.5l-33.9,25.7l1,1c3.1-3.1,7.2-5.1,10.3-8.2c-2.1,3.1-5.1,6.2-8.2,9.2l5.1,3.1
		c17.5-14.4,31.8-24.6,34.9-25.7L159.6,72.5z M92.9,73.6c-4.1,5.1-8.2,10.3-12.3,14.4c-6.2,7.2-13.4,14.4-19.5,20.5l20.5,15.4
		c3.1-3.1,6.2-6.2,9.2-8.2c9.2-8.2,18.5-15.4,26.7-22.6L92.9,73.6z M160.7,157.8l-2.1,2.1c-3.1,3.1-6.2,5.1-9.2,8.2l1,1
		c5.1-5.1,9.2-9.2,13.4-13.4C162.7,156.8,161.7,156.8,160.7,157.8z M187.4,138.3c-5.1,5.1-11.3,10.3-16.4,16.4
		c-6.2,5.1-12.3,11.3-18.5,16.4l8.2,6.2l8.2-5.1c2.1-2.1,5.1-3.1,7.2-6.2c3.1-3.1,2.1-2.1,6.2-5.1c5.1-6.2,11.3-10.3,15.4-14.4
		L187.4,138.3z M167.9,179.3L167.9,179.3c-4.1,4.1-12.3,11.3-14.4,10.3c-1-1-1-2.1-1-3.1c0-2.1,1-4.1,3.1-5.1l-8.2-6.2
		c-9.2,7.2-17.5,14.4-26.7,21.6c-3.1,2.1-5.1,4.1-8.2,6.2l13.4,7.2l40.1-24.6c1-1,2.1-2.1,3.1-4.1L167.9,179.3L167.9,179.3z
		 M107.3,139.3c-1,1-2.1,2.1-3.1,3.1c-9.2,9.2-18.5,17.5-26.7,25.7l6.2,4.1c9.2-10.3,18.5-20.5,28.8-29.8L107.3,139.3z M123.7,149.6
		c-9.2,7.2-17.5,14.4-25.7,20.5c7.2-7.2,15.4-15.4,23.6-22.6l-6.2-3.1c-10.3,9.2-20.5,18.5-29.8,28.8l6.2,3.1l33.9-25.7L123.7,149.6
		z M125.8,150.6l5.1,4.1c9.2-8.2,18.5-16.4,27.7-24.6L125.8,150.6z M202.8,98.2l-32.9-19.5c-1,2.1-8.2,9.2-28.8,28.8l5.1,4.1
		c4.1-3.1,8.2-7.2,12.3-10.3c-3.1,4.1-7.2,7.2-10.3,11.3l8.2,4.1c8.2-7.2,15.4-13.4,23.6-18.5c-7.2,7.2-13.4,13.4-21.6,20.5l8.2,5.1
		c5.1-4.1,9.2-8.2,14.4-11.3c-4.1,4.1-8.2,8.2-13.4,12.3c0,1-1,1-2.1,1c-8.2,8.2-17.5,16.4-26.7,24.6c-1,1-3.1,3.1-6.2,5.1l6.2,4.1
		c11.3-8.2,21.6-15.4,31.8-22.6c-9.2,8.2-18.5,16.4-28.8,24.6l6.2,5.1c4.1-3.1,8.2-6.2,12.3-9.2c8.2-7.2,16.4-14.4,24.6-20.5
		l-17.5-13.4L202.8,98.2z M138.1,167c-2.1,2.1-4.1,3.1-6.2,5.1c-9.2,8.2-18.5,16.4-27.7,24.6l6.2,4.1c5.1-4.1,10.3-9.2,15.4-13.4
		c6.2-5.1,12.3-10.3,18.5-15.4L138.1,167z M128.8,159.8c-11.3,10.3-22.6,20.5-34.9,30.8l6.2,4.1c7.2-7.2,14.4-14.4,22.6-20.5
		c4.1-3.1,7.2-6.2,11.3-9.2L128.8,159.8z M160.7,157.8l-2.1,2.1c-3.1,3.1-6.2,5.1-9.2,8.2l1,1c5.1-5.1,9.2-9.2,13.4-13.4
		C162.7,156.8,161.7,156.8,160.7,157.8z M160.7,157.8l-2.1,2.1c-3.1,3.1-6.2,5.1-9.2,8.2l1,1c5.1-5.1,9.2-9.2,13.4-13.4
		C162.7,156.8,161.7,156.8,160.7,157.8z M144.2,172.2c-10.3,9.2-20.5,18.5-29.8,27.7c2.1-1,4.1-3.1,6.2-4.1
		c5.1-5.1,11.3-9.2,16.4-14.4c3.1-3.1,5.1-5.1,8.2-8.2L144.2,172.2z M160.7,157.8l-2.1,2.1c-3.1,3.1-6.2,5.1-9.2,8.2l1,1
		c5.1-5.1,9.2-9.2,13.4-13.4C162.7,156.8,161.7,156.8,160.7,157.8z M144.2,172.2c-10.3,9.2-20.5,18.5-29.8,27.7
		c2.1-1,4.1-3.1,6.2-4.1c5.1-5.1,11.3-9.2,16.4-14.4c3.1-3.1,5.1-5.1,8.2-8.2L144.2,172.2z M160.7,157.8l-2.1,2.1
		c-3.1,3.1-6.2,5.1-9.2,8.2l1,1c5.1-5.1,9.2-9.2,13.4-13.4C162.7,156.8,161.7,156.8,160.7,157.8z M144.2,172.2
		c-10.3,9.2-20.5,18.5-29.8,27.7c2.1-1,4.1-3.1,6.2-4.1c5.1-5.1,11.3-9.2,16.4-14.4c3.1-3.1,5.1-5.1,8.2-8.2L144.2,172.2z
		 M160.7,157.8l-2.1,2.1c-3.1,3.1-6.2,5.1-9.2,8.2l1,1c5.1-5.1,9.2-9.2,13.4-13.4C162.7,156.8,161.7,156.8,160.7,157.8z
		 M144.2,172.2c-10.3,9.2-20.5,18.5-29.8,27.7c2.1-1,4.1-3.1,6.2-4.1c5.1-5.1,11.3-9.2,16.4-14.4c3.1-3.1,5.1-5.1,8.2-8.2
		L144.2,172.2z M160.7,157.8l-2.1,2.1c-3.1,3.1-6.2,5.1-9.2,8.2l1,1c5.1-5.1,9.2-9.2,13.4-13.4C162.7,156.8,161.7,156.8,160.7,157.8
		z M144.2,172.2c-10.3,9.2-20.5,18.5-29.8,27.7c2.1-1,4.1-3.1,6.2-4.1c5.1-5.1,11.3-9.2,16.4-14.4c3.1-3.1,5.1-5.1,8.2-8.2
		L144.2,172.2z M160.7,157.8l-2.1,2.1c-3.1,3.1-6.2,5.1-9.2,8.2l1,1c5.1-5.1,9.2-9.2,13.4-13.4C162.7,156.8,161.7,156.8,160.7,157.8
		z M144.2,172.2c-10.3,9.2-20.5,18.5-29.8,27.7c2.1-1,4.1-3.1,6.2-4.1c5.1-5.1,11.3-9.2,16.4-14.4c3.1-3.1,5.1-5.1,8.2-8.2
		L144.2,172.2z M160.7,157.8l-2.1,2.1c-3.1,3.1-6.2,5.1-9.2,8.2l1,1c5.1-5.1,9.2-9.2,13.4-13.4C162.7,156.8,161.7,156.8,160.7,157.8
		z M144.2,172.2c-10.3,9.2-20.5,18.5-29.8,27.7c2.1-1,4.1-3.1,6.2-4.1c5.1-5.1,11.3-9.2,16.4-14.4c3.1-3.1,5.1-5.1,8.2-8.2
		L144.2,172.2z M160.7,157.8l-2.1,2.1c-3.1,3.1-6.2,5.1-9.2,8.2l1,1c5.1-5.1,9.2-9.2,13.4-13.4C162.7,156.8,161.7,156.8,160.7,157.8
		z M144.2,172.2c-10.3,9.2-20.5,18.5-29.8,27.7c2.1-1,4.1-3.1,6.2-4.1c5.1-5.1,11.3-9.2,16.4-14.4c3.1-3.1,5.1-5.1,8.2-8.2
		L144.2,172.2z M160.7,157.8l-2.1,2.1c-3.1,3.1-6.2,5.1-9.2,8.2l1,1c5.1-5.1,9.2-9.2,13.4-13.4C162.7,156.8,161.7,156.8,160.7,157.8
		z M144.2,172.2c-10.3,9.2-20.5,18.5-29.8,27.7c2.1-1,4.1-3.1,6.2-4.1c5.1-5.1,11.3-9.2,16.4-14.4c3.1-3.1,5.1-5.1,8.2-8.2
		L144.2,172.2z M160.7,157.8l-2.1,2.1c-3.1,3.1-6.2,5.1-9.2,8.2l1,1c5.1-5.1,9.2-9.2,13.4-13.4C162.7,156.8,161.7,156.8,160.7,157.8
		z M144.2,172.2c-10.3,9.2-20.5,18.5-29.8,27.7c2.1-1,4.1-3.1,6.2-4.1c5.1-5.1,11.3-9.2,16.4-14.4c3.1-3.1,5.1-5.1,8.2-8.2
		L144.2,172.2z M160.7,157.8l-2.1,2.1c-3.1,3.1-6.2,5.1-9.2,8.2l1,1c5.1-5.1,9.2-9.2,13.4-13.4C162.7,156.8,161.7,156.8,160.7,157.8
		z M144.2,172.2c-10.3,9.2-20.5,18.5-29.8,27.7c2.1-1,4.1-3.1,6.2-4.1c5.1-5.1,11.3-9.2,16.4-14.4c3.1-3.1,5.1-5.1,8.2-8.2
		L144.2,172.2z M160.7,157.8l-2.1,2.1c-3.1,3.1-6.2,5.1-9.2,8.2l1,1c5.1-5.1,9.2-9.2,13.4-13.4C162.7,156.8,161.7,156.8,160.7,157.8
		z M144.2,172.2c-10.3,9.2-20.5,18.5-29.8,27.7c2.1-1,4.1-3.1,6.2-4.1c5.1-5.1,11.3-9.2,16.4-14.4c3.1-3.1,5.1-5.1,8.2-8.2
		L144.2,172.2z"/>
</g>
</svg>
