<?xml version="1.0" encoding="utf-8"?>
<!-- Generator: Adobe Illustrator 23.0.0, SVG Export Plug-In . SVG Version: 6.00 Build 0)  -->
<svg version="1.1" id="Layer_1" xmlns="http://www.w3.org/2000/svg" xmlns:xlink="http://www.w3.org/1999/xlink" x="0px" y="0px"
	 viewBox="0 0 256 256" style="enable-background:new 0 0 256 256;" xml:space="preserve">
<style type="text/css">
	.st0{fill:#F75049;}
</style>
<g transform="translate(-512 -52)">
	<path class="st0" d="M637.7,200.5v13.7c2.5-2.5,3.7-3.7,6.2-6.2c2.5-1.2,3.7-3.7,6.2-5v-13.7C646.5,194.3,641.5,196.8,637.7,200.5z
		 M637.7,180.6v11.2l12.4-10v-12.4C646.5,173.2,641.5,176.9,637.7,180.6z M666.4,154.5c0,0-1.2,1.2-2.5,1.2
		c-1.2,1.2-1.2,1.2-2.5,2.5v13.7c3.7-3.7,8.7-6.2,12.4-10v-7.5H666.4z M662.6,201.8v27.4h12.4v-37.3
		C671.3,195.5,666.4,198,662.6,201.8z M662.6,179.4v13.7c3.7-3.7,8.7-7.5,12.4-10v-14.9C671.3,171.9,666.4,175.6,662.6,179.4z
		 M662.6,195.5v3.7c3.7-3.7,8.7-7.5,12.4-11.2v-3.7C671.3,188.1,666.4,191.8,662.6,195.5z M637.7,200.5v13.7
		c2.5-2.5,3.7-3.7,6.2-6.2c2.5-1.2,3.7-3.7,6.2-5v-13.7C646.5,194.3,641.5,196.8,637.7,200.5z M637.7,180.6v11.2l12.4-10v-12.4
		C646.5,173.2,641.5,176.9,637.7,180.6z M637.7,200.5v13.7c2.5-2.5,3.7-3.7,6.2-6.2c2.5-1.2,3.7-3.7,6.2-5v-13.7
		C646.5,194.3,641.5,196.8,637.7,200.5z M637.7,180.6v11.2l12.4-10v-12.4C646.5,173.2,641.5,176.9,637.7,180.6z M642.7,154.5
		c-1.2,1.2-3.7,2.5-5,3.7v16.2c3.7-3.7,8.7-7.5,12.4-11.2v-8.7H642.7z M637.7,221.7L637.7,221.7v7.5h12.4v-17.4
		C646.5,215.4,641.5,217.9,637.7,221.7z M637.7,200.5v13.7c2.5-2.5,3.7-3.7,6.2-6.2c2.5-1.2,3.7-3.7,6.2-5v-13.7
		C646.5,194.3,641.5,196.8,637.7,200.5z M637.7,180.6v11.2l12.4-10v-12.4C646.5,173.2,641.5,176.9,637.7,180.6z M612.9,154.5v2.5
		c1.2-1.2,1.2-1.2,2.5-2.5H612.9z M612.9,203v12.4c3.7-3.7,8.7-7.5,12.4-11.2v-12.4C621.6,195.5,616.6,199.3,612.9,203z
		 M612.9,178.1V198c3.7-3.7,8.7-7.5,12.4-11.2v-17.4C621.6,171.9,616.6,175.6,612.9,178.1z M612.9,222.9v6.2h8.7
		c1.2-1.2,2.5-2.5,3.7-3.7v-13.7C621.6,215.4,616.6,219.2,612.9,222.9z M622.8,154.5c-3.7,3.7-7.5,6.2-10,10v12.4
		c3.7-3.7,8.7-8.7,12.4-12.4v-10H622.8z M612.9,154.5v2.5c1.2-1.2,1.2-1.2,2.5-2.5H612.9z M612.9,203v12.4
		c3.7-3.7,8.7-7.5,12.4-11.2v-12.4C621.6,195.5,616.6,199.3,612.9,203z M612.9,178.1V198c3.7-3.7,8.7-7.5,12.4-11.2v-17.4
		C621.6,171.9,616.6,175.6,612.9,178.1z M612.9,222.9v6.2h8.7c1.2-1.2,2.5-2.5,3.7-3.7v-13.7C621.6,215.4,616.6,219.2,612.9,222.9z
		 M622.8,154.5c-3.7,3.7-7.5,6.2-10,10v12.4c3.7-3.7,8.7-8.7,12.4-12.4v-10H622.8z M642.7,154.5c-1.2,1.2-3.7,2.5-5,3.7v16.2
		c3.7-3.7,8.7-7.5,12.4-11.2v-8.7H642.7z M612.9,154.5v2.5c1.2-1.2,1.2-1.2,2.5-2.5H612.9z M612.9,203v12.4
		c3.7-3.7,8.7-7.5,12.4-11.2v-12.4C621.6,195.5,616.6,199.3,612.9,203z M612.9,178.1V198c3.7-3.7,8.7-7.5,12.4-11.2v-17.4
		C621.6,171.9,616.6,175.6,612.9,178.1z M612.9,222.9v6.2h8.7c1.2-1.2,2.5-2.5,3.7-3.7v-13.7C621.6,215.4,616.6,219.2,612.9,222.9z
		 M622.8,154.5c-3.7,3.7-7.5,6.2-10,10v12.4c3.7-3.7,8.7-8.7,12.4-12.4v-10H622.8z M642.7,154.5c-1.2,1.2-3.7,2.5-5,3.7v16.2
		c3.7-3.7,8.7-7.5,12.4-11.2v-8.7H642.7z M563.1,129.6v5c2.5-1.2,3.7-3.7,5-5H563.1z M616.6,83.6l-3.7,1.2v6.2
		c3.7-2.5,6.2-6.2,10-8.7C619.1,83.6,616.6,83.6,616.6,83.6z M653.9,79.9c-3.7,3.7-8.7,8.7-12.4,12.4c1.2,0,2.5,0,3.7,0
		c3.7,0,6.2,0,8.7,0c5-3.7,8.7-7.5,12.4-10C662.6,81.1,658.9,81.1,653.9,79.9z M662.6,99.8v5c-1.2,0-3.7,0-5,0
		c-11.2,10-24.9,23.6-39.8,38.6H629c6.2-6.2,12.4-11.2,18.7-17.4c10-8.7,18.7-16.2,28.6-24.9V88.6C671.3,91.1,667.6,94.8,662.6,99.8
		z M629,103.5c-1.2,1.2-3.7,3.7-5,5c-16.2,14.9-32.3,28.6-47.3,41v17.4c5-5,8.7-10,12.4-13.7v-11.2h11.2c5-5,8.7-8.7,14.9-14.9
		c8.7-8.7,18.7-16.2,27.4-24.9C636.5,103.5,632.8,103.5,629,103.5z M708.6,162c-2.5,2.5-5,5-8.7,7.5v32.3c3.7-3.7,7.5-7.5,8.7-6.2
		c1.2,1.2-2.5,5-3.7,6.2c-2.5,2.5-3.7,5-6.2,7.5V254c0,5,0,7.5-1.2,8.7c0,1.2-1.2,1.2-1.2,2.5c-2.5,1.2-7.5,1.2-18.7,1.2h-70.9
		c-11.2,0-16.2,0-18.7-1.2c0,0-1.2-1.2-1.2-2.5v-1.2c-2.5,1.2-3.7,3.7-6.2,5c2.5-1.2,3.7-3.7,6.2-6.2c0-1.2,0-3.7,0-6.2v-10
		c-3.7,3.7-8.7,7.5-12.4,11.2c0,5,0,8.7,2.5,12.4c1.2,3.7,3.7,6.2,7.5,8.7c6.2,3.7,13.7,3.7,24.9,3.7H680c10,0,18.7,0,24.9-3.7
		c3.7-1.2,6.2-5,7.5-8.7c1.2-3.7,2.5-7.5,2.5-13.7v-95.8C711.1,159.5,709.9,160.7,708.6,162z M699.9,154.5v8.7
		c3.7-2.5,6.2-6.2,10-8.7H699.9z M575.6,234.1V254c3.7-5,8.7-8.7,12.4-13.7v-16.2C584.3,227.9,579.3,231.6,575.6,234.1z
		 M575.6,199.3v33.6c3.7-3.7,8.7-7.5,12.4-12.4v-33.6C584.3,191.8,579.3,195.5,575.6,199.3z M575.6,181.9v14.9
		c3.7-5,8.7-8.7,12.4-13.7v-12.4C584.3,174.4,579.3,178.1,575.6,181.9z M712.4,129.6v-12.4c-1.2,0-2.5-1.2-3.7-1.2
		c-10,8.7-18.7,17.4-28.6,26.1h23.6c1.2-1.2,3.7-2.5,5-2.5c-1.2,1.2-2.5,2.5-3.7,2.5h19.9v-12.4H712.4z M675.1,106v-2.5
		c-11.2,11.2-21.1,22.4-32.3,32.3c-2.5,2.5-3.7,3.7-6.2,6.2h13.7c6.2-5,11.2-10,17.4-14.9c7.5-6.2,13.7-12.4,21.1-18.7
		C683.8,108.5,678.8,107.2,675.1,106z M692.5,109.7c-3.7,2.5-6.2,6.2-10,8.7c-8.7,8.7-17.4,16.2-26.1,23.6h17.4
		c11.2-8.7,21.1-18.7,31.1-27.4C702.4,113.5,697.5,112.2,692.5,109.7z M644,79.9c-5,0-10,0-13.7,1.2c-5,5-11.2,10-17.4,16.2v8.7
		c-5,1.2-8.7,1.2-13.7,2.5c-7.5,7.5-16.2,13.7-23.6,21.1c-3.7,3.7-8.7,7.5-12.4,10v2.5h12.4v2.5c10-8.7,19.9-18.7,31.1-27.4
		c6.2-5,12.4-11.2,18.7-16.2v-6.2c2.5,0,5-1.2,10-2.5c5-5,11.2-8.7,16.2-12.4C648.9,79.9,646.5,79.9,644,79.9z M575.6,117.2v6.2
		c3.7-3.7,7.5-7.5,12.4-11.2C583,114.7,579.3,115.9,575.6,117.2z M642.7,154.5c-1.2,1.2-3.7,2.5-5,3.7v16.2
		c3.7-3.7,8.7-7.5,12.4-11.2v-8.7H642.7z M612.9,154.5v2.5c1.2-1.2,1.2-1.2,2.5-2.5H612.9z M612.9,203v12.4
		c3.7-3.7,8.7-7.5,12.4-11.2v-12.4C621.6,195.5,616.6,199.3,612.9,203z M612.9,178.1V198c3.7-3.7,8.7-7.5,12.4-11.2v-17.4
		C621.6,171.9,616.6,175.6,612.9,178.1z M612.9,222.9v6.2h8.7c1.2-1.2,2.5-2.5,3.7-3.7v-13.7C621.6,215.4,616.6,219.2,612.9,222.9z
		 M622.8,154.5c-3.7,3.7-7.5,6.2-10,10v12.4c3.7-3.7,8.7-8.7,12.4-12.4v-10H622.8z M662.6,201.8v27.4h12.4v-37.3
		C671.3,195.5,666.4,198,662.6,201.8z M637.7,221.7L637.7,221.7v7.5h12.4v-17.4C646.5,215.4,641.5,217.9,637.7,221.7z M642.7,154.5
		c-1.2,1.2-3.7,2.5-5,3.7v16.2c3.7-3.7,8.7-7.5,12.4-11.2v-8.7H642.7z M612.9,154.5v2.5c1.2-1.2,1.2-1.2,2.5-2.5H612.9z M612.9,203
		v12.4c3.7-3.7,8.7-7.5,12.4-11.2v-12.4C621.6,195.5,616.6,199.3,612.9,203z M612.9,178.1V198c3.7-3.7,8.7-7.5,12.4-11.2v-17.4
		C621.6,171.9,616.6,175.6,612.9,178.1z M612.9,222.9v6.2h8.7c1.2-1.2,2.5-2.5,3.7-3.7v-13.7C621.6,215.4,616.6,219.2,612.9,222.9z
		 M622.8,154.5c-3.7,3.7-7.5,6.2-10,10v12.4c3.7-3.7,8.7-8.7,12.4-12.4v-10H622.8z"/>
</g>
<path class="st0" d="M163.1,132.4v3.7c-3.7,3.7-8.7,7.5-12.4,11.2v-3.7C154.4,139.8,159.3,136.1,163.1,132.4z"/>
<path class="st0" d="M163.1,132.4v3.7c-3.7,3.7-8.7,7.5-12.4,11.2v-3.7C154.4,139.8,159.3,136.1,163.1,132.4z"/>
<path class="st0" d="M163.1,132.4v3.7c-3.7,3.7-8.7,7.5-12.4,11.2v-3.7C154.4,139.8,159.3,136.1,163.1,132.4z"/>
<path class="st0" d="M163.1,132.4v3.7c-3.7,3.7-8.7,7.5-12.4,11.2v-3.7C154.4,139.8,159.3,136.1,163.1,132.4z"/>
<path class="st0" d="M163.1,132.4v3.7c-3.7,3.7-8.7,7.5-12.4,11.2v-3.7C154.4,139.8,159.3,136.1,163.1,132.4z"/>
<path class="st0" d="M163.1,132.4v3.7c-3.7,3.7-8.7,7.5-12.4,11.2v-3.7C154.4,139.8,159.3,136.1,163.1,132.4z"/>
<path class="st0" d="M163.1,132.4v3.7c-3.7,3.7-8.7,7.5-12.4,11.2v-3.7C154.4,139.8,159.3,136.1,163.1,132.4z"/>
<path class="st0" d="M163.1,132.4v3.7c-3.7,3.7-8.7,7.5-12.4,11.2v-3.7C154.4,139.8,159.3,136.1,163.1,132.4z"/>
<path class="st0" d="M163.1,132.4v3.7c-3.7,3.7-8.7,7.5-12.4,11.2v-3.7C154.4,139.8,159.3,136.1,163.1,132.4z"/>
<path class="st0" d="M163.1,132.4v3.7c-3.7,3.7-8.7,7.5-12.4,11.2v-3.7C154.4,139.8,159.3,136.1,163.1,132.4z"/>
<path class="st0" d="M128.2,51.5c-8.7,7.5-17.4,14.9-27.4,23.6c-5,6.2-8.7,10-13.7,14.9H76v11.2c-3.7,3.7-7.5,8.7-12.4,13.7V97.5
	c16.2-12.4,31.1-26.1,47.3-41c2.5-1.2,3.7-2.5,6.2-5C120.8,51.5,124.5,51.5,128.2,51.5z"/>
<path class="st0" d="M76,60.2c-5,3.7-8.7,7.5-12.4,11.2v-6.2C67.3,63.9,71,62.7,76,60.2z"/>
<path class="st0" d="M56.1,77.6c-1.2,1.2-2.5,3.7-5,5v-5H56.1z"/>
<path class="st0" d="M110.8,30.4c-3.7,2.5-6.2,5-10,8.7v-6.2l3.7-1.2C104.6,31.6,107.1,31.6,110.8,30.4z"/>
<path class="st0" d="M139.4,27.9c-5,3.7-11.2,8.7-16.2,12.4c-5,1.2-7.5,2.5-10,2.5V49c-6.2,5-12.4,10-18.7,16.2
	c-11.2,8.7-21.1,18.7-31.1,27.4v-2.5H51.1v-2.5c3.7-2.5,8.7-6.2,12.4-10c7.5-6.2,16.2-13.7,23.6-21.1c5,0,8.7-1.2,13.7-2.5v-8.7
	c6.2-5,11.2-11.2,17.4-16.2c3.7-1.2,8.7-1.2,13.7-1.2C134.5,27.9,136.9,27.9,139.4,27.9z"/>
<path class="st0" d="M154.4,30.4c-5,3.7-8.7,6.2-13.7,10c-2.5,0-5,0-8.7,0c-1.2,0-2.5,0-3.7,0c3.7-3.7,8.7-7.5,12.4-12.4
	C146.9,29.1,150.6,29.1,154.4,30.4z"/>
<path class="st0" d="M76,131.1c-3.7,5-8.7,8.7-12.4,13.7v-14.9c3.7-3.7,8.7-7.5,12.4-12.4V131.1z"/>
<path class="st0" d="M76,136.1v33.6c-3.7,3.7-8.7,7.5-12.4,12.4v-34.8C67.3,143.5,72.3,139.8,76,136.1z"/>
<path class="st0" d="M63.6,182.1c3.7-3.7,8.7-7.5,12.4-11.2v16.2c-3.7,5-8.7,8.7-12.4,13.7V182.1z"/>
<path class="st0" d="M134.5,214.4c-2.5,3.7-6.2,7.5-12.4,12.4H97.1c-10,0-18.7,0-24.9-3.7c-3.7-1.2-5-5-7.5-8.7
	c-1.2-2.5-1.2-6.2-1.2-11.2c3.7-3.7,8.7-7.5,12.4-11.2v10c0,2.5,0,5,0,6.2c-2.5,2.5-3.7,3.7-6.2,6.2c2.5-1.2,3.7-2.5,6.2-5v1.2
	c0,1.2,1.2,1.2,1.2,2.5c3.7,1.2,8.7,1.2,19.9,1.2H134.5z"/>
<path class="st0" d="M103.4,102.5c-1.2,1.2-1.2,1.2-2.5,2.5v-2.5H103.4z"/>
<path class="st0" d="M113.3,102.5v10c-3.7,3.7-8.7,7.5-12.4,12.4v-12.4c3.7-3.7,7.5-6.2,10-10H113.3z"/>
<path class="st0" d="M113.3,117.4v17.4c-3.7,3.7-8.7,7.5-12.4,11.2v-19.9C104.6,123.6,109.6,119.9,113.3,117.4z"/>
<path class="st0" d="M100.9,151c3.7-3.7,8.7-7.5,12.4-11.2V151c-3.7,3.7-8.7,7.5-12.4,11.2V151z"/>
<path class="st0" d="M113.3,159.7v13.7c-1.2,1.2-2.5,2.5-3.7,3.7h-8.7v-6.2C104.6,167.2,109.6,163.4,113.3,159.7z"/>
<path class="st0" d="M138.2,102.5v10c-3.7,3.7-8.7,7.5-12.4,11.2v-17.4c1.2-1.2,3.7-2.5,5-3.7H138.2z"/>
<path class="st0" d="M138.2,117.4v12.4l-12.4,10v-11.2C129.5,124.9,134.5,121.2,138.2,117.4z"/>
<path class="st0" d="M138.2,138.6v13.7c-2.5,1.2-3.7,3.7-6.2,5c-2.5,1.2-5,3.7-6.2,6.2v-14.9C129.5,144.8,134.5,142.3,138.2,138.6z"
	/>
<path class="st0" d="M138.2,159.7v17.4h-12.4v-7.5l0,0C129.5,165.9,134.5,163.4,138.2,159.7z"/>
<path class="st0" d="M163.1,102.5v7.5c-3.7,3.7-8.7,6.2-12.4,10v-13.7c1.2,0,1.2-1.2,2.5-2.5c0,0,1.2-1.2,2.5-1.2
	C155.6,102.5,163.1,102.5,163.1,102.5z"/>
<path class="st0" d="M163.1,116.2v14.9c-3.7,3.7-8.7,6.2-12.4,10v-13.7C154.4,123.6,159.3,119.9,163.1,116.2z"/>
<path class="st0" d="M150.6,143.5c3.7-3.7,8.7-7.5,12.4-11.2v3.7c-3.7,3.7-8.7,7.5-12.4,11.2V143.5z"/>
<path class="st0" d="M150.6,149.8c3.7-3.7,8.7-6.2,12.4-10v37.3h-12.4V149.8z"/>
<path class="st0" d="M163.1,35.3v12.4c-8.7,7.5-18.7,16.2-28.6,24.9c-6.2,6.2-12.4,11.2-17.4,17.4h-11.2
	c16.2-14.9,28.6-27.4,39.8-38.6c1.2,0,3.7,0,5,0v-3.7C155.6,42.8,159.3,39.1,163.1,35.3z"/>
<path class="st0" d="M154.4,75.1c-5,5-11.2,10-16.2,14.9h-13.7c2.5-2.5,3.7-3.7,6.2-6.2c11.2-10,21.1-21.1,32.3-32.3V54
	c3.7,1.2,8.7,1.2,12.4,2.5C169.3,62.7,161.8,68.9,154.4,75.1z"/>
<path class="st0" d="M195.4,62.7c-11.2,8.7-21.1,18.7-32.3,27.4h-17.4c8.7-7.5,17.4-14.9,26.1-23.6c3.7-2.5,6.2-6.2,10-8.7
	C185.5,60.2,190.4,61.5,195.4,62.7z"/>
<path class="st0" d="M212.8,77.6v12.4h-19.9c1.2-1.2,2.5-2.5,3.7-2.5c-1.2,1.2-2.5,2.5-5,2.5H168c10-8.7,18.7-17.4,28.6-26.1
	c1.2,0,2.5,1.2,3.7,1.2v12.4H212.8z"/>
<path class="st0" d="M197.9,102.5c-3.7,2.5-6.2,5-10,8.7v-8.7H197.9z"/>
<path class="st0" d="M200.4,106.2v22.4c-5,3.7-8.7,6.2-12.4,8.7v-19.9c2.5-2.5,5-5,8.7-7.5C197.9,108.7,199.1,107.5,200.4,106.2z"/>
<path class="st0" d="M163.1,132.4v3.7c-3.7,3.7-8.7,7.5-12.4,11.2v-3.7C154.4,139.8,159.3,136.1,163.1,132.4z"/>
<path class="st0" d="M163.1,132.4v3.7c-3.7,3.7-8.7,7.5-12.4,11.2v-3.7C154.4,139.8,159.3,136.1,163.1,132.4z"/>
<path class="st0" d="M163.1,132.4v3.7c-3.7,3.7-8.7,7.5-12.4,11.2v-3.7C154.4,139.8,159.3,136.1,163.1,132.4z"/>
<path class="st0" d="M163.1,132.4v3.7c-3.7,3.7-8.7,7.5-12.4,11.2v-3.7C154.4,139.8,159.3,136.1,163.1,132.4z"/>
<path class="st0" d="M163.1,132.4v3.7c-3.7,3.7-8.7,7.5-12.4,11.2v-3.7C154.4,139.8,159.3,136.1,163.1,132.4z"/>
<path class="st0" d="M163.1,132.4v3.7c-3.7,3.7-8.7,7.5-12.4,11.2v-3.7C154.4,139.8,159.3,136.1,163.1,132.4z"/>
<path class="st0" d="M163.1,132.4v3.7c-3.7,3.7-8.7,7.5-12.4,11.2v-3.7C154.4,139.8,159.3,136.1,163.1,132.4z"/>
<path class="st0" d="M163.1,132.4v3.7c-3.7,3.7-8.7,7.5-12.4,11.2v-3.7C154.4,139.8,159.3,136.1,163.1,132.4z"/>
<path class="st0" d="M163.1,132.4v3.7c-3.7,3.7-8.7,7.5-12.4,11.2v-3.7C154.4,139.8,159.3,136.1,163.1,132.4z"/>
<path class="st0" d="M163.1,132.4v3.7c-3.7,3.7-8.7,7.5-12.4,11.2v-3.7C154.4,139.8,159.3,136.1,163.1,132.4z"/>
</svg>
