<?xml version="1.0" encoding="utf-8"?>
<!-- Generator: Adobe Illustrator 23.0.0, SVG Export Plug-In . SVG Version: 6.00 Build 0)  -->
<svg version="1.1" id="Layer_1" xmlns="http://www.w3.org/2000/svg" xmlns:xlink="http://www.w3.org/1999/xlink" x="0px" y="0px"
	 viewBox="0 0 16 16" style="enable-background:new 0 0 16 16;" xml:space="preserve">
<style type="text/css">
	.st0{clip-path:url(#SVGID_2_);fill:#F75049;}
</style>
<g>
	<defs>
		<path id="SVGID_1_" d="M24.2,6.1c-0.1-0.2-0.4,0-0.7-0.3c-0.3-0.2-0.2-0.4-0.4-0.5c-0.5-0.3-1.5,0.6-1.6,0.6c0,0,0.4-0.3,0.9-0.8
			c0.3-0.3,0.8-0.8,0.6-1.2c-0.1-0.2-0.3-0.2-0.4-0.4c-0.1-0.3,0.6-0.5,0.5-0.9c0-0.2-0.2-0.4-0.4-0.4c-0.4-0.2-0.9,0.3-1,0.2
			c0,0,0.3-0.2,0.5-0.6c0-0.1,0.2-0.4,0.1-0.6c-0.1-0.1-0.3-0.1-0.5-0.1c-0.1,0-0.2,0.1-0.3,0.1c0,0,0-0.1,0-0.2
			c0-0.2-0.4-0.3-0.7-0.4c-0.6-0.1-1.1,0.6-1.2,0.5c-0.1-0.1,0.6-0.6,0.4-1.1c-0.1-0.2-0.3-0.3-0.4-0.3c-0.3,0-0.5,0.4-0.6,0.3
			c-0.2-0.1,0.1-0.9-0.1-1c-0.2-0.1-0.4,0.1-0.7,0c-0.2-0.1-0.2-0.2-0.3-0.2c-0.4-0.1-0.9,0.5-1.6,1.1c-0.3,0.3-0.7,0.6-1.4,1
			C15.5,0.5,15.8,0.2,16,0c0.5-0.5,0.7-0.7,0.8-1.1c0-0.2,0-0.4-0.2-0.5c-0.2-0.1-0.5,0.2-1.3,0.7c-0.2,0.1-0.4,0.3-0.5,0.3
			c0,0,0.4-0.4,0.2-0.8c0,0-0.1-0.2-0.2-0.3c-0.5-0.4-1.3-0.2-1.5-0.2c-1,0.3-1.3,1-2.6,1.6c0,0-0.2,0.1-0.4,0.2
			C9.9,0.2,9.7,0.3,9.6,0.4C9.3,0.6,9,0.7,8.9,1.1C8.7,1.4,8.8,1.6,8.6,1.8C8.5,1.9,8.3,2,8.2,2C7.5,2.2,6.6,3.4,6.5,3.6
			C6,4.2,4.5,5.9,0.3,9.6c5.7-6,7.4-7.9,7.5-8.1c0,0,0,0,0,0c0-0.1,0.2-0.5,0-0.7c-0.1-0.1-0.3,0-0.4-0.2c0,0-0.1-0.1,0-0.2
			c0-0.2,0.5-0.3,0.5-0.4c0,0-0.1-0.1-0.2-0.1C7.3-0.1,7.3-0.2,7.1-0.2C6.8-0.3,6.5-0.1,6.3,0C6.1,0.1,5.9,0.3,5.9,0.2
			c-0.1,0,0.1-0.2,0-0.3C5.8-0.2,5.6-0.2,5.5-0.2C5.1-0.2,4.9,0.1,4.7,0C4.7,0,4.8-0.1,4.7-0.3C4.5-0.5,4.4-0.4,4.2-0.6
			C4-0.7,4.1-0.9,3.8-1.2C3.8-1.3,3.6-1.5,3.4-1.6C3.1-1.7,3-1.6,2.7-1.7C2.4-1.8,2.4-2,2.2-2C2-2,1.8-1.9,1.7-1.9
			C1.3-1.7,1.3-1.5,1.1-1.5c-0.2,0-0.3-0.2-0.6-0.3c-0.1,0-0.3,0-0.3,0C0-1.7,0.2-1.3,0-1.2c-0.1,0.1-0.2,0.1-0.3,0
			c-0.1-0.1-0.1-0.2-0.2-0.2c-0.2-0.2-1.4,0.1-1.7,0.8c-0.1,0.1-0.1,0.3-0.3,0.4c-0.2,0.1-0.3,0-0.6,0c-0.3,0-0.6,0.3-1.3,1.2
			c0,0-0.2,0.2-0.7,0.8c-1,1.2-1.3,1.3-1.3,1.7c0,0.6,0.1,0.9,0.1,0.9c0,0.1,0.1,0.3,0,0.4c-0.1,0.1-0.1,0-0.2,0.1
			c-0.1,0.2,0.1,0.4,0,0.9c0,0,0,0-0.1,0.3c-0.1,0.6-0.1,0.8,0,0.9c0.1,0.1,0.2,0.1,0.3,0.1c0.2,0,0.4-0.1,0.4-0.1
			c0.5-0.5,0.9-1.1,1.4-1.6C-4.5,5.5-4.7,5.8-4.8,6C-5,6.2-5.2,6.4-5.4,6.8c-0.1,0.1-0.1,0.2-0.2,0.4c-0.1,0.3-0.2,0.6-0.1,0.9
			c0.1,0.1,0.1,0.2,0.2,0.4c0,0.2-0.1,0.3,0,0.5c0.1,0.1,0.1,0.1,0.2,0.2c0.1,0.2,0,0.4,0,0.7c0,0.2,0.1,0.1,0.1,0.3
			c0.1,0.3-0.1,0.5,0,0.9c0,0.2,0,0.3,0.1,0.3c0.2,0.2,0.4-0.1,0.7,0.1c0.2,0.1,0.1,0.4,0.4,0.5c0.1,0,0.2-0.1,0.5,0
			c0,0,0.4,0,0.4,0.2c0,0.1-0.1,0.3-0.3,0.4c-0.4,0.2-1-0.1-1,0c0,0.1,0.1,0.3,0.3,0.4C-3,14-3,14-2.6,14.3c0.4,0.2,0.3,0.1,0.8,0.4
			c0.6,0.4,1.3,0.7,1.3,1.2c0,0.3-0.2,0.3-0.2,0.7c0,0.3,0.1,0.7,0.4,0.8c0.2,0.1,0.4-0.1,0.7-0.1c0.4,0,0.4,0.3,0.7,0.3
			c0.4,0,0.6-0.5,1-0.4c0.2,0,0.2,0.2,0.5,0.3c0.2,0.1,0.5,0,0.6,0c1.3-1.3,3.2-3.3,5.5-5.7c2-2.1,2.5-2.7,3.6-3.7
			c3.2-3,6.5-5.3,6.6-5.2c0.1,0.1-1.4,1.5-6.6,6.4c-3.6,3.4-6.5,6.2-8.5,8.1c0,0.4,0.1,0.5,0.2,0.6c0.3,0.2,0.6-0.2,0.9,0
			c0.1,0.1,0.3,0.3,0.4,0.5c0.1,0.2,0,0.3,0.1,0.5c0.1,0.1,0.1,0,0.2,0.1C6,19.3,5.9,19.5,6,19.6c0.2,0.2,0.5,0.1,0.5,0.2
			c0,0.1-0.1,0.2,0,0.3c0,0.2,0.2,0.2,0.2,0.3c0.1,0.2-0.3,0.3-0.4,0.7c-0.1,0.3,0.1,0.3,0.1,0.6c0,0.6-0.7,0.7-0.7,1.1
			c0,0.3,0.3,0.5,0.5,0.6c0.4,0.1,0.6-0.5,1-0.5c0.5,0,0.7,0.7,1.1,0.6c0.3,0,0.4-0.4,0.7-0.4c0.2,0,0.4,0.1,0.5,0
			c0.2-0.1,0.1-0.3,0.3-0.3c0.1,0,0.1,0,0.2,0c0.3,0,0.7-0.5,0.8-1c0.1-0.4,0-0.6,0.2-0.9c0.1-0.3,0.3-0.4,0.4-0.5
			c0.7-0.5,1.4-1.2,2.2-1.9c1-0.9,1.1-1.3,1.8-1.7c0.1,0,0.3-0.2,0.6-0.4c0.4-0.3,0.5-0.7,0.7-1c0.5-0.9,1-1,2-2.4
			c0-0.1,0.3-0.4,0.2-0.4c-0.1-0.1-1.4,1.4-1.7,1.2c-0.1-0.1-0.1-0.2-0.1-0.3c0.1-0.7,1-0.9,2.3-2c0.3-0.3,0.2-0.2,0.6-0.6
			c1-0.9,2.1-1.5,2.3-2.1c0.2-0.3,0.3-0.7,0.3-0.7c0-0.1,0-0.2,0.1-0.2c0.1-0.3,0.3-0.4,0.8-1C24.2,6.3,24.3,6.2,24.2,6.1z M3.9,5.1
			c-0.4,0.5-0.8,0.8-1.1,1C3,5.9,3.2,5.4,3.7,5.1c0.2-0.2,0.4-0.3,0.5-0.4C4.1,4.8,4,5,3.9,5.1z M3.6,3.7C4.2,3,4.7,2.5,5.3,2
			C4.9,2.6,4.4,3.2,3.8,3.8C3.4,4.2,3,4.5,2.7,4.8C2.9,4.5,3.3,4.1,3.6,3.7z M-3.1,3.6c0.1-0.2,0.3-0.5,0.5-0.8
			c0.1-0.1,0.2-0.2,0.3-0.3c-0.1,0.1-0.1,0.2-0.2,0.3C-2.6,3.2-2.9,3.5-3.1,3.6z M-2,13.4c-0.1,0.1-0.3,0.2-0.3,0.2
			c0-0.1,0-0.2,0.1-0.4c0.1-0.2,0.3-0.2,0.4-0.2C-1.9,13.1-1.9,13.3-2,13.4z M-2.4,7.8c0.4-0.5,0.8-1,1.2-1.4c0,0.1,0,0.2,0,0.4
			C-1.6,7.1-2,7.5-2.4,7.8z M-0.4,15c-0.1,0-0.2-0.2-0.6-0.7c-0.1-0.1-0.2-0.2-0.2-0.3c0-0.1,0.1-0.1,0.3-0.2
			c0.1-0.1,0.3-0.2,0.5-0.5c0,0.2-0.1,0.4-0.1,0.5c-0.1,0.1-0.1,0.2-0.1,0.3c0,0.1,0.1,0,0.2,0.1c0.1,0.1,0,0.2,0,0.3
			C-0.5,14.8-0.3,15-0.4,15z M-0.5,1.5C-0.4,1.3-0.2,1,0.1,0.7c0.1-0.1,0.2-0.2,0.3-0.3C0.3,0.6,0.2,0.7,0.1,0.8
			C-0.1,1.1-0.3,1.3-0.5,1.5z M2.9,9.4c1.3-1.6,2.8-3.3,4.6-5.1C8.8,3.1,10.1,2,11.3,1c-0.9,0.8-1.8,1.7-2.7,2.6
			C6.6,5.5,4.7,7.5,2.9,9.4z M8.8,4.3c1-1,2-1.8,2.8-2.4c-0.5,0.6-1.1,1.2-1.6,1.9C8.6,5.3,7.3,6.6,5.9,7.8C6.6,6.8,7.6,5.6,8.8,4.3
			z M11,6.5c1.3-1.1,2.6-2.2,3.9-3.1c-0.8,0.8-1.7,1.7-2.7,2.6c-1.9,1.7-3.7,3.3-5.5,4.6C8,9.2,9.4,7.9,11,6.5z M13,6.6
			c-1.9,1.7-3.7,3.3-5.5,4.6c1.3-1.3,2.8-2.7,4.3-4c1.3-1.1,2.6-2.2,3.9-3.1C14.9,4.9,14,5.8,13,6.6z M19.9,4.8
			c-0.8,0.8-1.7,1.7-2.7,2.6c-1.9,1.7-3.7,3.3-5.5,4.6c1.3-1.3,2.8-2.7,4.3-4C17.4,6.8,18.7,5.7,19.9,4.8z M8.6,14.1
			c1.7-2,3.8-4.2,6.1-6.3c1.1-1,2.1-1.8,3.1-2.7c-1.1,1.2-2.3,2.3-3.5,3.5C12.4,10.4,10.5,12.2,8.6,14.1z M9,16
			c1.9-1.8,3.9-3.7,6-5.6c1.7-1.5,3.4-2.9,5-4.3C18.7,7.4,17.4,8.7,16,10C13.6,12.1,11.3,14.1,9,16z M9.3,17.3
			c1.3-1.5,2.9-3.2,4.9-4.9c1.7-1.4,3.3-2.6,4.8-3.5c-1.3,1.1-2.6,2.3-3.9,3.4C13.2,13.9,11.2,15.6,9.3,17.3z M19,10.4
			c-1.4,1.3-2.9,2.5-4.3,3.6c0.3-0.2,0.5-0.5,0.8-0.7c0.9-0.9,1.8-1.7,2.7-2.6c-0.1,0.1-0.2,0.2-0.4,0.3c-0.1,0.1-0.1,0.1-0.2,0.2
			c-1.5,1.3-2.9,2.6-4.2,3.9c-1.1,0.9-2.2,1.8-3.2,2.6c1.3-1.3,2.8-2.7,4.3-4c1.2-1,2.4-2,3.5-2.9c1.2-1.1,2.5-2.1,3.6-3
			C20.8,8.7,19.9,9.5,19,10.4z"/>
	</defs>
	<clipPath id="SVGID_2_">
		<use xlink:href="#SVGID_1_"  style="overflow:visible;"/>
	</clipPath>
	<path class="st0" d="M14,2H2C1,2,1,3,1,3v10c0,1,1,1,1,1h9.7v-2H3V9.5l2.5-2.9l3.3,3.8l2.1-2.1l2.1,2.1V14h1c0,0,1,0,1-1V3
		C15,2,14,2,14,2z"/>
</g>
</svg>
