<?xml version="1.0" encoding="utf-8"?>
<!-- Generator: Adobe Illustrator 23.0.0, SVG Export Plug-In . SVG Version: 6.00 Build 0)  -->
<svg version="1.1" id="Layer_1" xmlns="http://www.w3.org/2000/svg" xmlns:xlink="http://www.w3.org/1999/xlink" x="0px" y="0px"
	 viewBox="0 0 16 16" style="enable-background:new 0 0 16 16;" xml:space="preserve">
<style type="text/css">
	.st0{clip-path:url(#SVGID_2_);fill:#F75049;}
</style>
<g>
	<defs>
		<path id="SVGID_1_" d="M22.1,3.6c-0.1-0.2-0.4,0-0.7-0.3c-0.3-0.2-0.2-0.4-0.4-0.5c-0.5-0.3-1.5,0.6-1.6,0.6c0,0,0.4-0.3,0.9-0.8
			c0.3-0.3,0.8-0.8,0.6-1.2c-0.1-0.2-0.3-0.2-0.4-0.4c-0.1-0.3,0.6-0.5,0.5-0.9c0-0.2-0.2-0.4-0.4-0.4c-0.4-0.2-0.9,0.3-1,0.2
			c0,0,0.3-0.2,0.5-0.6c0-0.1,0.2-0.4,0.1-0.6c-0.1-0.1-0.3-0.1-0.5-0.1c-0.1,0-0.2,0.1-0.3,0.1c0,0,0-0.1,0-0.2
			c0-0.2-0.4-0.3-0.7-0.4c-0.6-0.1-1.1,0.6-1.2,0.5c-0.1-0.1,0.6-0.6,0.4-1.1c-0.1-0.2-0.3-0.3-0.4-0.3c-0.3,0-0.5,0.4-0.6,0.3
			c-0.2-0.1,0.1-0.9-0.1-1c-0.2-0.1-0.4,0.1-0.7,0c-0.2-0.1-0.2-0.2-0.3-0.2c-0.4-0.1-0.9,0.5-1.6,1.1c-0.3,0.3-0.7,0.6-1.4,1
			c0.3-0.4,0.6-0.7,0.8-0.9c0.5-0.5,0.7-0.7,0.8-1.1c0-0.2,0-0.4-0.2-0.5c-0.2-0.1-0.5,0.2-1.3,0.7C13-3.2,12.8-3.1,12.7-3
			c0,0,0.4-0.4,0.2-0.8c0,0-0.1-0.2-0.2-0.3c-0.5-0.4-1.3-0.2-1.5-0.2c-1,0.3-1.3,1-2.6,1.6c0,0-0.2,0.1-0.4,0.2
			C7.8-2.3,7.6-2.2,7.5-2.1C7.2-1.9,6.9-1.7,6.8-1.4C6.6-1.1,6.7-0.9,6.5-0.7C6.4-0.5,6.2-0.5,6.1-0.5C5.4-0.3,4.5,1,4.4,1.1
			c-0.5,0.7-2,2.3-6.2,6.1c5.7-6,7.4-7.9,7.5-8.1c0,0,0,0,0,0c0-0.1,0.2-0.5,0-0.7c-0.1-0.1-0.3,0-0.4-0.2c0,0-0.1-0.1,0-0.2
			c0-0.2,0.5-0.3,0.5-0.4c0,0-0.1-0.1-0.2-0.1C5.2-2.5,5.2-2.6,5-2.7C4.7-2.8,4.4-2.6,4.2-2.5C4-2.4,3.8-2.2,3.8-2.2
			c-0.1,0,0.1-0.2,0-0.3C3.7-2.7,3.5-2.7,3.4-2.7C3-2.6,2.8-2.3,2.6-2.4c-0.1-0.1,0-0.2-0.1-0.4C2.4-2.9,2.3-2.9,2.1-3
			C1.9-3.2,2-3.3,1.7-3.6C1.7-3.8,1.5-4,1.3-4C1-4.1,0.9-4,0.6-4.1C0.3-4.2,0.3-4.4,0.1-4.4c-0.2,0-0.3,0-0.5,0.1
			C-0.8-4.2-0.8-4-1-4c-0.2,0-0.3-0.2-0.6-0.3c-0.1,0-0.3,0-0.3,0c-0.1,0.1,0,0.4-0.1,0.6c-0.1,0.1-0.2,0.1-0.3,0
			c-0.1-0.1-0.1-0.2-0.2-0.2c-0.2-0.2-1.4,0.1-1.7,0.8C-4.3-3-4.4-2.9-4.5-2.8c-0.2,0.1-0.3,0-0.6,0c-0.3,0-0.6,0.3-1.3,1.2
			c0,0-0.2,0.2-0.7,0.8c-1,1.2-1.3,1.3-1.3,1.7c0,0.6,0.1,0.9,0.1,0.9c0,0.1,0.1,0.3,0,0.4c-0.1,0.1-0.1,0-0.2,0.1
			c-0.1,0.2,0.1,0.4,0,0.9c0,0,0,0-0.1,0.3c-0.1,0.6-0.1,0.8,0,0.9c0.1,0.1,0.2,0.1,0.3,0.1c0.2,0,0.4-0.1,0.4-0.1
			c0.5-0.5,0.9-1.1,1.4-1.6C-6.6,3-6.8,3.3-6.9,3.5C-7.1,3.8-7.3,4-7.5,4.4c-0.1,0.1-0.1,0.2-0.2,0.4c-0.1,0.3-0.2,0.6-0.1,0.9
			c0.1,0.1,0.1,0.2,0.2,0.4c0,0.2-0.1,0.3,0,0.5c0.1,0.1,0.1,0.1,0.2,0.2c0.1,0.2,0,0.4,0,0.7c0,0.2,0.1,0.1,0.1,0.3
			c0.1,0.3-0.1,0.5,0,0.9c0,0.2,0,0.3,0.1,0.3C-6.9,9.1-6.7,8.8-6.4,9c0.2,0.1,0.1,0.4,0.4,0.5c0.1,0,0.2-0.1,0.5,0
			c0,0,0.4,0,0.4,0.2c0,0.1-0.1,0.3-0.3,0.4c-0.4,0.2-1-0.1-1,0c0,0.1,0.1,0.3,0.3,0.4c1.2,1.1,1.2,1.2,1.6,1.4
			c0.4,0.2,0.3,0.1,0.8,0.4c0.6,0.4,1.3,0.7,1.3,1.2c0,0.3-0.2,0.3-0.2,0.7c0,0.3,0.1,0.7,0.4,0.8c0.2,0.1,0.4-0.1,0.7-0.1
			c0.4,0,0.4,0.3,0.7,0.3c0.4,0,0.6-0.5,1-0.4c0.2,0,0.2,0.2,0.5,0.3c0.2,0.1,0.5,0,0.6,0c1.3-1.3,3.2-3.3,5.5-5.7
			c2-2.1,2.5-2.7,3.6-3.7c3.2-3,6.5-5.3,6.6-5.2c0.1,0.1-1.4,1.5-6.6,6.4c-3.6,3.4-6.5,6.2-8.5,8.1c0,0.4,0.1,0.5,0.2,0.6
			c0.3,0.2,0.6-0.2,0.9,0C3,15.6,3.2,15.7,3.3,16c0.1,0.2,0,0.3,0.1,0.5c0.1,0.1,0.1,0,0.2,0.1c0.2,0.2,0.1,0.4,0.3,0.6
			c0.2,0.2,0.5,0.1,0.5,0.2c0,0.1-0.1,0.2,0,0.3c0,0.2,0.2,0.2,0.2,0.3c0.1,0.2-0.3,0.3-0.4,0.7C4.2,19,4.3,19,4.3,19.3
			c0,0.6-0.7,0.7-0.7,1.1c0,0.3,0.3,0.5,0.5,0.6c0.4,0.1,0.6-0.5,1-0.5c0.5,0,0.7,0.7,1.1,0.6c0.3,0,0.4-0.4,0.7-0.4
			c0.2,0,0.4,0.1,0.5,0c0.2-0.1,0.1-0.3,0.3-0.3c0.1,0,0.1,0,0.2,0c0.3,0,0.7-0.5,0.8-1c0.1-0.4,0-0.6,0.2-0.9
			c0.1-0.3,0.3-0.4,0.4-0.5c0.7-0.5,1.4-1.2,2.2-1.9c1-0.9,1.1-1.3,1.8-1.7c0.1,0,0.3-0.2,0.6-0.4c0.4-0.3,0.5-0.7,0.7-1
			c0.5-0.9,1-1,2-2.4c0-0.1,0.3-0.4,0.2-0.4c-0.1-0.1-1.4,1.4-1.7,1.2c-0.1-0.1-0.1-0.2-0.1-0.3c0.1-0.7,1-0.9,2.3-2
			c0.3-0.3,0.2-0.2,0.6-0.6c1-0.9,2.1-1.5,2.3-2.1c0.2-0.3,0.3-0.7,0.3-0.7c0-0.1,0-0.2,0.1-0.2c0.1-0.3,0.3-0.4,0.8-1
			C22.1,3.9,22.2,3.7,22.1,3.6z M1.8,2.7C1.4,3.2,1,3.5,0.7,3.7C0.9,3.4,1.2,3,1.6,2.6C1.8,2.4,2,2.3,2.1,2.2C2,2.4,1.9,2.5,1.8,2.7
			z M1.5,1.2C2.1,0.6,2.6,0,3.2-0.4C2.8,0.1,2.3,0.7,1.7,1.3c-0.4,0.4-0.8,0.7-1.1,1C0.8,2,1.2,1.6,1.5,1.2z M-5.2,1.2
			C-5,1-4.9,0.7-4.6,0.4c0.1-0.1,0.2-0.2,0.3-0.3c-0.1,0.1-0.1,0.2-0.2,0.3C-4.7,0.8-5,1-5.2,1.2z M-4.1,10.9
			c-0.1,0.1-0.3,0.2-0.3,0.2c0-0.1,0-0.2,0.1-0.4c0.1-0.2,0.3-0.2,0.4-0.2C-4,10.7-4,10.8-4.1,10.9z M-4.5,5.4
			c0.4-0.5,0.8-1,1.2-1.4c0,0.1,0,0.2,0,0.4C-3.7,4.7-4.1,5-4.5,5.4z M-2.5,12.6c-0.1,0-0.2-0.2-0.6-0.7c-0.1-0.1-0.2-0.2-0.2-0.3
			c0-0.1,0.1-0.1,0.3-0.2c0.1-0.1,0.3-0.2,0.5-0.5c0,0.2-0.1,0.4-0.1,0.5c-0.1,0.1-0.1,0.2-0.1,0.3c0,0.1,0.1,0,0.2,0.1
			c0.1,0.1,0,0.2,0,0.3C-2.6,12.3-2.4,12.6-2.5,12.6z M-2.6-1C-2.5-1.2-2.3-1.5-2-1.7C-1.9-1.8-1.9-1.9-1.8-2
			C-1.8-1.9-1.9-1.8-2-1.7C-2.2-1.3-2.4-1.1-2.6-1z M0.8,7c1.3-1.6,2.8-3.3,4.6-5.1C6.7,0.6,8-0.5,9.2-1.5C8.3-0.6,7.4,0.2,6.5,1.1
			C4.5,3.1,2.6,5,0.8,7z M6.7,1.9c1-1,2-1.8,2.8-2.4C9,0.1,8.5,0.7,7.9,1.3C6.5,2.8,5.2,4.2,3.8,5.4C4.5,4.3,5.5,3.1,6.7,1.9z
			 M8.9,4c1.3-1.1,2.6-2.2,3.9-3.1c-0.8,0.8-1.7,1.7-2.7,2.6C8.2,5.2,6.3,6.7,4.6,8.1C5.9,6.8,7.3,5.4,8.9,4z M10.9,4.2
			C9.1,5.9,7.2,7.4,5.4,8.8c1.3-1.3,2.8-2.7,4.3-4c1.3-1.1,2.6-2.2,3.9-3.1C12.8,2.5,11.9,3.3,10.9,4.2z M17.8,2.3
			C17,3.2,16.1,4,15.2,4.9c-1.9,1.7-3.7,3.3-5.5,4.6c1.3-1.3,2.8-2.7,4.3-4C15.3,4.3,16.6,3.3,17.8,2.3z M6.5,11.6
			c1.7-2,3.8-4.2,6.1-6.3c1.1-1,2.1-1.8,3.1-2.7c-1.1,1.2-2.3,2.3-3.5,3.5C10.3,8,8.4,9.8,6.5,11.6z M6.9,13.6
			c1.9-1.8,3.9-3.7,6-5.6c1.7-1.5,3.4-2.9,5-4.3c-1.3,1.3-2.7,2.5-4.1,3.8C11.5,9.7,9.2,11.7,6.9,13.6z M7.2,14.8
			c1.3-1.5,2.9-3.2,4.9-4.9c1.7-1.4,3.3-2.6,4.8-3.5c-1.3,1.1-2.6,2.3-3.9,3.4C11.1,11.4,9.1,13.1,7.2,14.8z M16.9,8
			c-1.4,1.3-2.9,2.5-4.3,3.6c0.3-0.2,0.5-0.5,0.8-0.7c0.9-0.9,1.8-1.7,2.7-2.6c-0.1,0.1-0.2,0.2-0.4,0.3c-0.1,0.1-0.1,0.1-0.2,0.2
			c-1.5,1.3-2.9,2.6-4.2,3.9c-1.1,0.9-2.2,1.8-3.2,2.6c1.3-1.3,2.8-2.7,4.3-4c1.2-1,2.4-2,3.5-2.9c1.2-1.1,2.5-2.1,3.6-3
			C18.7,6.2,17.8,7.1,16.9,8z"/>
	</defs>
	<clipPath id="SVGID_2_">
		<use xlink:href="#SVGID_1_"  style="overflow:visible;"/>
	</clipPath>
	<path class="st0" d="M12.8,3c-0.2,0-0.4,0.2-0.6,0.3L6,10.6L3.8,8.3c-0.4-0.4-1.1-0.4-1.4,0c-0.4,0.4-0.4,1.1,0,1.4l3,3l0.8,0.8
		l0.7-0.8l7-8C14.4,4.1,13.7,2.9,12.8,3z"/>
</g>
</svg>
