<?xml version="1.0" encoding="utf-8"?>
<!-- Generator: Adobe Illustrator 23.0.0, SVG Export Plug-In . SVG Version: 6.00 Build 0)  -->
<svg version="1.1" id="Layer_1" xmlns="http://www.w3.org/2000/svg" xmlns:xlink="http://www.w3.org/1999/xlink" x="0px" y="0px"
	 viewBox="0 0 16 16" style="enable-background:new 0 0 16 16;" xml:space="preserve">
<style type="text/css">
	.st0{clip-path:url(#SVGID_2_);fill:#F75049;}
</style>
<g>
	<defs>
		<path id="SVGID_1_" d="M23.5,4.8c-0.1-0.2-0.4,0-0.7-0.3c-0.3-0.2-0.2-0.4-0.4-0.5c-0.5-0.3-1.5,0.6-1.6,0.6c0,0,0.4-0.3,0.9-0.8
			C22,3.5,22.5,3,22.3,2.6C22.3,2.4,22,2.4,22,2.2c-0.1-0.3,0.6-0.5,0.5-0.9c0-0.2-0.2-0.4-0.4-0.4c-0.4-0.2-0.9,0.3-1,0.2
			c0,0,0.3-0.2,0.5-0.6c0-0.1,0.2-0.4,0.1-0.6c-0.1-0.1-0.3-0.1-0.5-0.1C21.2-0.1,21.1,0,21,0c0,0,0-0.1,0-0.2
			c0-0.2-0.4-0.3-0.7-0.4c-0.6-0.1-1.1,0.6-1.2,0.5c-0.1-0.1,0.6-0.6,0.4-1.1c-0.1-0.2-0.3-0.3-0.4-0.3c-0.3,0-0.5,0.4-0.6,0.3
			c-0.2-0.1,0.1-0.9-0.1-1c-0.2-0.1-0.4,0.1-0.7,0c-0.2-0.1-0.2-0.2-0.3-0.2c-0.4-0.1-0.9,0.5-1.6,1.1c-0.3,0.3-0.7,0.6-1.4,1
			c0.3-0.4,0.6-0.7,0.8-0.9C15.8-1.8,16-2,16-2.3c0-0.2,0-0.4-0.2-0.5c-0.2-0.1-0.5,0.2-1.3,0.7c-0.2,0.1-0.4,0.3-0.5,0.3
			c0,0,0.4-0.4,0.2-0.8c0,0-0.1-0.2-0.2-0.3c-0.5-0.4-1.3-0.2-1.5-0.2c-1,0.3-1.3,1-2.6,1.6c0,0-0.2,0.1-0.4,0.2
			C9.2-1.1,8.9-1,8.8-0.9C8.5-0.7,8.3-0.5,8.1-0.2C8,0.1,8.1,0.3,7.9,0.5C7.7,0.7,7.5,0.7,7.5,0.7C6.8,0.9,5.9,2.2,5.8,2.3
			C5.3,3,3.7,4.6-0.5,8.4c5.7-6,7.4-7.9,7.5-8.1c0,0,0,0,0,0c0-0.1,0.2-0.5,0-0.7c-0.1-0.1-0.3,0-0.4-0.2c0,0-0.1-0.1,0-0.2
			c0-0.2,0.5-0.3,0.5-0.4c0,0-0.1-0.1-0.2-0.1C6.6-1.3,6.6-1.4,6.4-1.5C6.1-1.6,5.8-1.4,5.6-1.3C5.4-1.1,5.2-1,5.1-1
			c-0.1,0,0.1-0.2,0-0.3C5-1.5,4.8-1.5,4.8-1.5C4.3-1.4,4.1-1.1,4-1.2C3.9-1.2,4-1.4,3.9-1.6C3.8-1.7,3.7-1.7,3.5-1.8
			C3.3-2,3.4-2.1,3.1-2.4C3-2.5,2.9-2.7,2.6-2.8C2.4-2.9,2.3-2.8,2-2.9C1.7-3,1.7-3.2,1.4-3.2c-0.2,0-0.3,0-0.5,0.1
			C0.6-3,0.6-2.8,0.4-2.8C0.1-2.8,0.1-3-0.3-3.1c-0.1,0-0.3,0-0.3,0c-0.1,0.1,0,0.4-0.1,0.6c-0.1,0.1-0.2,0.1-0.3,0
			c-0.1-0.1-0.1-0.2-0.2-0.2c-0.2-0.2-1.4,0.1-1.7,0.8C-2.9-1.8-3-1.7-3.2-1.6c-0.2,0.1-0.3,0-0.6,0c-0.3,0-0.6,0.3-1.3,1.2
			c0,0-0.2,0.2-0.7,0.8c-1,1.2-1.3,1.3-1.3,1.7c0,0.6,0.1,0.9,0.1,0.9c0,0.1,0.1,0.3,0,0.4c-0.1,0.1-0.1,0-0.2,0.1
			C-7.2,3.6-7,3.9-7,4.4c0,0,0,0-0.1,0.3c-0.1,0.6-0.1,0.8,0,0.9c0.1,0.1,0.2,0.1,0.3,0.1c0.2,0,0.4-0.1,0.4-0.1
			C-5.9,4.9-5.5,4.4-5,3.8c-0.2,0.4-0.4,0.7-0.5,0.9C-5.8,5-5.9,5.2-6.1,5.6C-6.2,5.7-6.3,5.8-6.3,6c-0.1,0.3-0.2,0.6-0.1,0.9
			c0.1,0.1,0.1,0.2,0.2,0.4c0,0.2-0.1,0.3,0,0.5C-6.1,7.9-6.1,7.8-6,7.9c0.1,0.2,0,0.4,0,0.7c0,0.2,0.1,0.1,0.1,0.3
			c0.1,0.3-0.1,0.5,0,0.9c0,0.2,0,0.3,0.1,0.3c0.2,0.2,0.4-0.1,0.7,0.1c0.2,0.1,0.1,0.4,0.4,0.5c0.1,0,0.2-0.1,0.5,0
			c0,0,0.4,0,0.4,0.2c0,0.1-0.1,0.3-0.3,0.4c-0.4,0.2-1-0.1-1,0c0,0.1,0.1,0.3,0.3,0.4c1.2,1.1,1.2,1.2,1.6,1.4
			c0.4,0.2,0.3,0.1,0.8,0.4c0.6,0.4,1.3,0.7,1.3,1.2c0,0.3-0.2,0.3-0.2,0.7c0,0.3,0.1,0.7,0.4,0.8c0.2,0.1,0.4-0.1,0.7-0.1
			c0.4,0,0.4,0.3,0.7,0.3c0.4,0,0.6-0.5,1-0.4c0.2,0,0.2,0.2,0.5,0.3c0.2,0.1,0.5,0,0.6,0c1.3-1.3,3.2-3.3,5.5-5.7
			c2-2.1,2.5-2.7,3.6-3.7c3.2-3,6.5-5.3,6.6-5.2c0.1,0.1-1.4,1.5-6.6,6.4c-3.6,3.4-6.5,6.2-8.5,8.1c0,0.4,0.1,0.5,0.2,0.6
			c0.3,0.2,0.6-0.2,0.9,0c0.1,0.1,0.3,0.3,0.4,0.5c0.1,0.2,0,0.3,0.1,0.5c0.1,0.1,0.1,0,0.2,0.1c0.2,0.2,0.1,0.4,0.3,0.6
			c0.2,0.2,0.5,0.1,0.5,0.2c0,0.1-0.1,0.2,0,0.3c0,0.2,0.2,0.2,0.2,0.3c0.1,0.2-0.3,0.3-0.4,0.7c-0.1,0.3,0.1,0.3,0.1,0.6
			C5.7,21,5,21.2,5,21.6c0,0.3,0.3,0.5,0.5,0.6c0.4,0.1,0.6-0.5,1-0.5c0.5,0,0.7,0.7,1.1,0.6c0.3,0,0.4-0.4,0.7-0.4
			c0.2,0,0.4,0.1,0.5,0c0.2-0.1,0.1-0.3,0.3-0.3c0.1,0,0.1,0,0.2,0c0.3,0,0.7-0.5,0.8-1c0.1-0.4,0-0.6,0.2-0.9
			c0.1-0.3,0.3-0.4,0.4-0.5c0.7-0.5,1.4-1.2,2.2-1.9c1-0.9,1.1-1.3,1.8-1.7c0.1,0,0.3-0.2,0.6-0.4c0.4-0.3,0.5-0.7,0.7-1
			c0.5-0.9,1-1,2-2.4c0-0.1,0.3-0.4,0.2-0.4c-0.1-0.1-1.4,1.4-1.7,1.2c-0.1-0.1-0.1-0.2-0.1-0.3c0.1-0.7,1-0.9,2.3-2
			C19.1,10,19,10,19.4,9.7c1-0.9,2.1-1.5,2.3-2.1C21.9,7.3,22,6.9,22,6.9c0-0.1,0-0.2,0.1-0.2c0.1-0.3,0.3-0.4,0.8-1
			C23.5,5.1,23.5,4.9,23.5,4.8z M3.1,3.9C2.8,4.4,2.4,4.7,2,4.9C2.2,4.6,2.5,4.2,3,3.8c0.2-0.2,0.4-0.3,0.5-0.4
			C3.4,3.6,3.3,3.7,3.1,3.9z M2.9,2.4C3.4,1.8,4,1.3,4.6,0.8C4.1,1.3,3.6,1.9,3,2.5c-0.4,0.4-0.8,0.7-1.1,1C2.2,3.2,2.5,2.8,2.9,2.4
			z M-3.8,2.4c0.1-0.2,0.3-0.5,0.5-0.8C-3.2,1.5-3.1,1.4-3,1.4C-3,1.5-3.1,1.6-3.2,1.7C-3.4,2-3.6,2.2-3.8,2.4z M-2.8,12.2
			c-0.1,0.1-0.3,0.2-0.3,0.2c0-0.1,0-0.2,0.1-0.4c0.1-0.2,0.3-0.2,0.4-0.2C-2.6,11.9-2.7,12-2.8,12.2z M-3.2,6.6
			c0.4-0.5,0.8-1,1.2-1.4c0,0.1,0,0.2,0,0.4C-2.4,5.9-2.8,6.2-3.2,6.6z M-1.1,13.8c-0.1,0-0.2-0.2-0.6-0.7c-0.1-0.1-0.2-0.2-0.2-0.3
			c0-0.1,0.1-0.1,0.3-0.2c0.1-0.1,0.3-0.2,0.5-0.5c0,0.2-0.1,0.4-0.1,0.5c-0.1,0.1-0.1,0.2-0.1,0.3c0,0.1,0.1,0,0.2,0.1
			c0.1,0.1,0,0.2,0,0.3C-1.2,13.6-1,13.8-1.1,13.8z M-1.2,0.2C-1.1,0-0.9-0.2-0.7-0.5c0.1-0.1,0.2-0.2,0.3-0.3
			c-0.1,0.1-0.1,0.2-0.2,0.3C-0.8-0.1-1,0.1-1.2,0.2z M2.2,8.2c1.3-1.6,2.8-3.3,4.6-5.1c1.3-1.3,2.6-2.4,3.8-3.3
			C9.7,0.6,8.8,1.4,7.9,2.3C5.9,4.3,4,6.2,2.2,8.2z M8.1,3.1c1-1,2-1.8,2.8-2.4c-0.5,0.6-1.1,1.2-1.6,1.9C7.9,4,6.5,5.4,5.2,6.6
			C5.9,5.5,6.8,4.3,8.1,3.1z M10.3,5.2c1.3-1.1,2.6-2.2,3.9-3.1c-0.8,0.8-1.7,1.7-2.7,2.6C9.6,6.4,7.7,7.9,5.9,9.3
			C7.2,8,8.7,6.6,10.3,5.2z M12.3,5.4C10.4,7.1,8.6,8.7,6.8,10c1.3-1.3,2.8-2.7,4.3-4c1.3-1.1,2.6-2.2,3.9-3.1
			C14.1,3.7,13.2,4.5,12.3,5.4z M19.2,3.5c-0.8,0.8-1.7,1.7-2.7,2.6c-1.9,1.7-3.7,3.3-5.5,4.6c1.3-1.3,2.8-2.7,4.3-4
			C16.7,5.5,18,4.5,19.2,3.5z M7.8,12.8c1.7-2,3.8-4.2,6.1-6.3c1.1-1,2.1-1.8,3.1-2.7C16,5,14.8,6.2,13.7,7.3
			C11.7,9.2,9.8,11,7.8,12.8z M8.3,14.8c1.9-1.8,3.9-3.7,6-5.6c1.7-1.5,3.4-2.9,5-4.3c-1.3,1.3-2.7,2.5-4.1,3.8
			C12.9,10.9,10.6,12.9,8.3,14.8z M8.6,16c1.3-1.5,2.9-3.2,4.9-4.9c1.7-1.4,3.3-2.6,4.8-3.5C17,8.7,15.7,9.8,14.4,11
			C12.4,12.6,10.5,14.3,8.6,16z M18.2,9.2c-1.4,1.3-2.9,2.5-4.3,3.6c0.3-0.2,0.5-0.5,0.8-0.7c0.9-0.9,1.8-1.7,2.7-2.6
			c-0.1,0.1-0.2,0.2-0.4,0.3C17,9.9,16.9,9.9,16.9,10c-1.5,1.3-2.9,2.6-4.2,3.9c-1.1,0.9-2.2,1.8-3.2,2.6c1.3-1.3,2.8-2.7,4.3-4
			c1.2-1,2.4-2,3.5-2.9c1.2-1.1,2.5-2.1,3.6-3C20.1,7.4,19.2,8.3,18.2,9.2z"/>
	</defs>
	<clipPath id="SVGID_2_">
		<use xlink:href="#SVGID_1_"  style="overflow:visible;"/>
	</clipPath>
	<path class="st0" d="M6.3,1L6.1,2.8C5.5,3.1,5,3.4,4.5,3.8L2.8,3L1.1,6l1.5,1.1C2.5,7.4,2.5,7.7,2.5,8c0,0.3,0,0.6,0.1,0.9l-1.5,1
		l1.8,3l1.7-0.8c0.5,0.4,1,0.7,1.6,0.9L6.3,15h3.5l0.1-1.8c0.6-0.2,1.1-0.5,1.6-0.9l1.7,0.8l1.8-3l-1.5-1c0.1-0.3,0.1-0.6,0.1-0.9
		c0-0.3,0-0.6-0.1-0.9L14.9,6l-1.8-3l-1.7,0.8c-0.5-0.4-1-0.7-1.6-0.9L9.8,1H6.3z"/>
	<circle class="st0" cx="8" cy="8" r="2"/>
</g>
</svg>
