<?xml version="1.0" encoding="utf-8"?>
<!-- Generator: Adobe Illustrator 23.0.0, SVG Export Plug-In . SVG Version: 6.00 Build 0)  -->
<svg version="1.1" id="Layer_1" xmlns="http://www.w3.org/2000/svg" xmlns:xlink="http://www.w3.org/1999/xlink" x="0px" y="0px"
	 viewBox="0 0 16 16" style="enable-background:new 0 0 16 16;" xml:space="preserve">
<style type="text/css">
	.st0{clip-path:url(#SVGID_2_);fill:#F75049;}
</style>
<g>
	<defs>
		<path id="SVGID_1_" d="M23.9,5.7c-0.1-0.2-0.4,0-0.7-0.3c-0.3-0.2-0.2-0.4-0.4-0.6c-0.5-0.3-1.6,0.6-1.7,0.6c0,0,0.5-0.4,0.9-0.8
			c0.3-0.3,0.8-0.9,0.7-1.3c-0.1-0.2-0.4-0.2-0.4-0.4c-0.1-0.3,0.6-0.5,0.6-1c0-0.2-0.2-0.4-0.4-0.4c-0.4-0.2-1,0.3-1,0.3
			c0,0,0.3-0.2,0.5-0.6c0-0.1,0.2-0.4,0.1-0.6c-0.1-0.1-0.3-0.1-0.5-0.1c-0.2,0-0.2,0.1-0.3,0.1c0,0,0-0.1,0-0.2
			c0-0.2-0.4-0.4-0.7-0.4c-0.7-0.1-1.2,0.6-1.3,0.5c-0.1-0.1,0.6-0.7,0.5-1.1C19.6-0.9,19.4-1,19.2-1c-0.3,0-0.5,0.4-0.6,0.3
			c-0.2-0.1,0.1-0.9-0.1-1.1c-0.2-0.1-0.4,0.1-0.7,0C17.5-1.9,17.5-2,17.4-2c-0.4-0.2-1,0.5-1.7,1.2c-0.3,0.3-0.8,0.7-1.5,1
			c0.3-0.4,0.6-0.7,0.8-1c0.5-0.6,0.8-0.8,0.8-1.2c0-0.2,0-0.5-0.2-0.6c-0.2-0.1-0.5,0.2-1.4,0.8c-0.2,0.2-0.4,0.3-0.5,0.3
			c0,0,0.4-0.5,0.3-0.9c0,0-0.1-0.2-0.3-0.3c-0.5-0.4-1.4-0.2-1.6-0.2c-1.1,0.3-1.4,1-2.7,1.7c0,0-0.2,0.1-0.4,0.2
			C8.6-0.6,8.3-0.5,8.2-0.4C7.9-0.2,7.6,0,7.5,0.3C7.3,0.7,7.4,0.9,7.2,1.1C7,1.3,6.8,1.3,6.7,1.3C6,1.5,5,2.9,4.9,3
			C4.4,3.8,2.7,5.5-1.8,9.6c6.1-6.4,7.9-8.4,8-8.6c0,0,0,0,0,0c0-0.1,0.2-0.6,0-0.7C6.2,0.1,6,0.2,5.9,0c0,0-0.1-0.1,0-0.2
			c0-0.3,0.5-0.3,0.5-0.4c0,0-0.1-0.1-0.3-0.1C5.8-0.9,5.8-1,5.6-1C5.3-1.1,5-0.9,4.7-0.8C4.5-0.7,4.3-0.5,4.2-0.6
			c-0.1,0,0.1-0.2,0-0.4C4.1-1,3.9-1,3.8-1C3.4-1,3.2-0.7,3-0.7C2.9-0.8,3-0.9,2.9-1.1C2.8-1.3,2.7-1.2,2.5-1.4
			C2.2-1.6,2.3-1.7,2.1-2.1C2-2.2,1.8-2.4,1.5-2.5c-0.3-0.1-0.4,0-0.7-0.1C0.6-2.7,0.5-2.9,0.3-2.9c-0.2,0-0.4,0-0.5,0.1
			c-0.4,0.2-0.4,0.4-0.6,0.4c-0.2,0-0.3-0.2-0.7-0.3c-0.1,0-0.3,0-0.4,0c-0.2,0.1,0,0.5-0.1,0.6C-2.1-2-2.3-2-2.4-2.1
			c-0.1-0.1-0.1-0.2-0.2-0.3C-2.8-2.6-4-2.3-4.4-1.5c-0.1,0.1-0.1,0.3-0.3,0.4c-0.2,0.1-0.4,0-0.6,0c-0.4,0-0.6,0.3-1.4,1.2
			c0,0-0.2,0.2-0.7,0.8c-1.1,1.3-1.3,1.4-1.4,1.8c0,0.7,0.1,0.9,0.1,0.9c0,0.1,0.1,0.3,0,0.5c-0.1,0.1-0.1,0-0.2,0.1
			c-0.2,0.2,0.1,0.5,0,1c0,0,0,0-0.1,0.4C-9,6.3-9,6.4-8.9,6.5c0.1,0.1,0.2,0.1,0.3,0.1c0.2,0,0.4-0.1,0.5-0.2
			c0.5-0.6,1-1.2,1.5-1.7c-0.2,0.4-0.4,0.7-0.6,0.9c-0.2,0.3-0.4,0.5-0.6,0.9C-7.9,6.7-8,6.8-8,7c-0.1,0.3-0.2,0.7-0.1,1
			C-8.1,8.1-8,8.2-8,8.4c0,0.2-0.1,0.4,0,0.5C-7.9,9-7.8,8.9-7.7,9c0.1,0.2,0,0.4,0,0.7c0,0.2,0.1,0.2,0.2,0.4
			c0.1,0.3-0.1,0.5,0,0.9c0,0.2,0,0.3,0.1,0.3c0.2,0.2,0.5-0.1,0.7,0.1c0.2,0.1,0.2,0.4,0.4,0.5c0.2,0.1,0.2-0.1,0.5-0.1
			c0,0,0.4,0,0.4,0.2c0,0.1-0.1,0.3-0.3,0.5c-0.5,0.3-1-0.1-1.1,0.1c0,0.1,0.2,0.3,0.3,0.4c1.3,1.2,1.3,1.3,1.7,1.5
			c0.4,0.2,0.3,0.1,0.9,0.4c0.7,0.4,1.4,0.8,1.4,1.3c0,0.3-0.2,0.4-0.2,0.8c0,0.3,0.1,0.7,0.4,0.8c0.3,0.1,0.4-0.2,0.8-0.1
			c0.4,0,0.4,0.3,0.8,0.3c0.5,0,0.7-0.5,1-0.5c0.2,0,0.2,0.2,0.5,0.4c0.3,0.1,0.5,0,0.7,0c1.3-1.4,3.4-3.5,5.9-6.1
			c2.1-2.2,2.7-2.8,3.8-4c3.4-3.2,6.9-5.7,7.1-5.5c0.1,0.1-1.5,1.6-7.1,6.9c-3.8,3.6-7,6.7-9.1,8.7c0,0.4,0.1,0.6,0.2,0.6
			c0.3,0.2,0.6-0.2,1,0c0.1,0.1,0.3,0.3,0.4,0.6c0.1,0.2,0,0.4,0.1,0.5c0.1,0.1,0.1,0,0.2,0.1c0.2,0.2,0.1,0.4,0.3,0.6
			c0.2,0.2,0.5,0.1,0.6,0.2c0,0.1-0.1,0.2,0,0.3C5,21,5.2,21,5.2,21.1c0.1,0.2-0.3,0.4-0.4,0.8c-0.1,0.3,0.1,0.3,0.1,0.6
			c0,0.6-0.7,0.7-0.7,1.2c0,0.3,0.3,0.6,0.6,0.6c0.4,0.1,0.6-0.5,1.1-0.5c0.5,0,0.7,0.8,1.2,0.7C7.3,24.4,7.3,24,7.7,24
			c0.2,0,0.4,0.1,0.5,0c0.2-0.1,0.2-0.3,0.3-0.3c0.1,0,0.2,0,0.2,0c0.3,0,0.7-0.5,0.9-1c0.2-0.5,0-0.6,0.2-1
			c0.2-0.3,0.4-0.4,0.5-0.5c0.7-0.5,1.5-1.3,2.3-2c1.1-1,1.2-1.4,1.9-1.8c0.1-0.1,0.3-0.2,0.6-0.4c0.4-0.4,0.5-0.7,0.7-1.1
			c0.5-1,1.1-1,2.2-2.6c0-0.1,0.3-0.4,0.2-0.5c-0.1-0.1-1.5,1.5-1.8,1.2c-0.1-0.1-0.1-0.2-0.1-0.3c0.1-0.7,1.1-1,2.4-2.2
			c0.4-0.3,0.2-0.2,0.6-0.6c1.1-0.9,2.2-1.7,2.5-2.2C22.2,8.4,22.3,8,22.3,8c0-0.1,0-0.2,0.1-0.2c0.1-0.3,0.3-0.5,0.9-1.1
			C23.9,6,23.9,5.8,23.9,5.7z M2.1,4.7C1.7,5.2,1.3,5.6,0.9,5.8c0.2-0.4,0.5-0.8,1-1.2c0.2-0.2,0.4-0.3,0.6-0.4
			C2.4,4.4,2.2,4.6,2.1,4.7z M1.8,3.2C2.4,2.5,3,1.9,3.6,1.4C3.2,2,2.6,2.6,2,3.3C1.6,3.7,1.2,4.1,0.8,4.4C1.1,4,1.4,3.6,1.8,3.2z
			 M-5.3,3.1C-5.2,2.9-5,2.6-4.8,2.3C-4.7,2.2-4.6,2.1-4.5,2c-0.1,0.1-0.1,0.2-0.2,0.3C-4.9,2.7-5.1,2.9-5.3,3.1z M-4.3,13.6
			c-0.1,0.2-0.3,0.2-0.3,0.2c0-0.1,0-0.2,0.1-0.4c0.1-0.2,0.3-0.2,0.4-0.2C-4.1,13.3-4.1,13.4-4.3,13.6z M-4.7,7.6
			c0.4-0.5,0.8-1,1.3-1.5c0,0.1,0,0.3,0,0.4C-3.8,6.8-4.2,7.2-4.7,7.6z M-2.4,15.3c-0.1,0-0.2-0.3-0.7-0.8c-0.1-0.1-0.2-0.2-0.2-0.4
			c0-0.1,0.2-0.2,0.3-0.2c0.2-0.1,0.4-0.3,0.5-0.6c0,0.2-0.1,0.4-0.1,0.5c-0.1,0.1-0.2,0.2-0.1,0.3c0,0.1,0.1,0,0.2,0.1
			c0.1,0.1,0,0.2,0,0.3C-2.6,15.1-2.4,15.3-2.4,15.3z M-2.6,0.8C-2.4,0.6-2.3,0.3-2,0c0.1-0.1,0.2-0.2,0.3-0.3
			C-1.8-0.2-1.8,0-1.9,0.1C-2.1,0.4-2.4,0.6-2.6,0.8z M1,9.3C2.4,7.6,4,5.7,6,3.9C7.4,2.5,8.7,1.3,10,0.3C9.1,1.2,8.1,2.1,7.2,3
			C5,5.1,3,7.2,1,9.3z M7.4,3.9c1.1-1.1,2.1-1.9,3-2.6c-0.6,0.7-1.1,1.3-1.8,2c-1.5,1.6-2.9,3-4.3,4.4C5.1,6.5,6.1,5.2,7.4,3.9z
			 M9.7,6.2c1.4-1.2,2.8-2.3,4.1-3.4C13,3.7,12,4.6,11,5.6C9,7.4,7,9,5.1,10.5C6.5,9.1,8,7.6,9.7,6.2z M11.9,6.3
			c-2,1.9-4,3.5-5.9,4.9c1.4-1.4,3-2.9,4.7-4.3c1.4-1.2,2.8-2.3,4.1-3.4C13.9,4.5,12.9,5.4,11.9,6.3z M19.3,4.3
			c-0.9,0.9-1.9,1.8-2.9,2.8c-2,1.9-4,3.5-5.9,4.9c1.4-1.4,3-2.9,4.7-4.3C16.6,6.5,18,5.4,19.3,4.3z M7.1,14.3
			c1.9-2.2,4-4.5,6.6-6.8c1.1-1,2.3-2,3.4-2.9c-1.2,1.2-2.5,2.5-3.7,3.8C11.3,10.4,9.2,12.3,7.1,14.3z M7.6,16.4c2-2,4.2-4,6.5-6
			c1.8-1.6,3.6-3.1,5.4-4.6C18,7.2,16.5,8.5,15,9.9C12.5,12.2,10,14.4,7.6,16.4z M7.9,17.7c1.4-1.6,3.2-3.5,5.3-5.3
			c1.8-1.5,3.5-2.8,5.1-3.8c-1.4,1.2-2.8,2.5-4.2,3.7C12.1,14.1,10,15.9,7.9,17.7z M18.3,10.4c-1.5,1.4-3.1,2.7-4.6,3.9
			c0.3-0.2,0.5-0.5,0.8-0.7c1-0.9,2-1.9,2.9-2.8c-0.1,0.1-0.2,0.2-0.4,0.3c-0.1,0.1-0.2,0.1-0.2,0.2c-1.6,1.4-3.1,2.8-4.5,4.2
			c-1.2,1-2.3,1.9-3.4,2.7c1.4-1.4,3-2.9,4.7-4.3c1.3-1.1,2.5-2.1,3.8-3.1c1.3-1.1,2.6-2.2,3.9-3.2C20.2,8.5,19.3,9.4,18.3,10.4z"/>
	</defs>
	<clipPath id="SVGID_2_">
		<use xlink:href="#SVGID_1_"  style="overflow:visible;"/>
	</clipPath>
	<path class="st0" d="M4.8,2C2.7,2,1,3.7,1,5.8c0,1.1,0.5,2.1,1.2,2.8L7.9,14l5.9-5.5C14.5,7.8,15,6.8,15,5.8C15,3.7,13.3,2,11.2,2
		C9.9,2,8.7,2.7,8,3.8C7.3,2.7,6.2,2,4.8,2z"/>
</g>
</svg>
