<?xml version="1.0" encoding="utf-8"?>
<!-- Generator: Adobe Illustrator 23.0.0, SVG Export Plug-In . SVG Version: 6.00 Build 0)  -->
<svg version="1.1" id="Layer_1" xmlns="http://www.w3.org/2000/svg" xmlns:xlink="http://www.w3.org/1999/xlink" x="0px" y="0px"
	 viewBox="0 0 16 16" style="enable-background:new 0 0 16 16;" xml:space="preserve">
<style type="text/css">
	.st0{clip-path:url(#SVGID_2_);fill:#F75049;}
</style>
<g>
	<defs>
		<path id="SVGID_1_" d="M24.1,4.2c-0.1-0.2-0.4,0-0.7-0.3c-0.3-0.2-0.2-0.4-0.4-0.5C22.6,3.1,21.5,4,21.5,4c0,0,0.4-0.3,0.9-0.8
			C22.6,2.9,23.1,2.4,23,2c-0.1-0.2-0.3-0.2-0.4-0.4c-0.1-0.3,0.6-0.5,0.5-0.9c0-0.2-0.2-0.4-0.4-0.4c-0.4-0.2-0.9,0.3-1,0.2
			c0,0,0.3-0.2,0.5-0.6c0-0.1,0.2-0.4,0.1-0.6c-0.1-0.1-0.3-0.1-0.5-0.1c-0.1,0-0.2,0.1-0.3,0.1c0,0,0-0.1,0-0.2
			c0-0.2-0.4-0.3-0.7-0.4c-0.6-0.1-1.1,0.6-1.2,0.5c-0.1-0.1,0.6-0.6,0.4-1.1c-0.1-0.2-0.3-0.3-0.4-0.3c-0.3,0-0.5,0.4-0.6,0.3
			c-0.2-0.1,0.1-0.9-0.1-1c-0.2-0.1-0.4,0.1-0.7,0C18.2-2.9,18.1-3,18-3c-0.4-0.1-0.9,0.5-1.6,1.1c-0.3,0.3-0.7,0.6-1.4,1
			c0.3-0.4,0.6-0.7,0.8-0.9c0.5-0.5,0.7-0.7,0.8-1.1c0-0.2,0-0.4-0.2-0.5c-0.2-0.1-0.5,0.2-1.3,0.7c-0.2,0.1-0.4,0.3-0.5,0.3
			c0,0,0.4-0.4,0.2-0.8c0,0-0.1-0.2-0.2-0.3c-0.5-0.4-1.3-0.2-1.5-0.2c-1,0.3-1.3,1-2.6,1.6c0,0-0.2,0.1-0.4,0.2
			C9.8-1.7,9.6-1.6,9.4-1.5C9.1-1.3,8.9-1.1,8.8-0.8C8.6-0.5,8.7-0.3,8.5-0.1C8.3,0.1,8.1,0.1,8.1,0.1C7.4,0.3,6.5,1.5,6.4,1.7
			C5.9,2.4,4.3,4,0.1,7.8c5.7-6,7.4-7.9,7.5-8.1c0,0,0,0,0,0c0-0.1,0.2-0.5,0-0.7C7.6-1,7.4-1,7.3-1.1c0,0-0.1-0.1,0-0.2
			c0-0.2,0.5-0.3,0.5-0.4c0,0-0.1-0.1-0.2-0.1C7.2-2,7.2-2.1,7-2.1C6.7-2.2,6.4-2,6.2-1.9C6-1.8,5.8-1.6,5.8-1.7
			c-0.1,0,0.1-0.2,0-0.3C5.6-2.1,5.4-2.1,5.4-2.1C5-2.1,4.7-1.7,4.6-1.8C4.5-1.9,4.6-2,4.5-2.2C4.4-2.3,4.3-2.3,4.1-2.4
			C3.9-2.6,4-2.7,3.7-3.1C3.6-3.2,3.5-3.4,3.2-3.5C3-3.6,2.9-3.4,2.6-3.5C2.3-3.6,2.3-3.8,2-3.9c-0.2,0-0.3,0-0.5,0.1
			C1.2-3.6,1.2-3.4,1-3.4c-0.2,0-0.3-0.2-0.6-0.3c-0.1,0-0.3,0-0.3,0c-0.1,0.1,0,0.4-0.1,0.6C-0.2-3-0.3-3-0.4-3.1
			c-0.1-0.1-0.1-0.2-0.2-0.2c-0.2-0.2-1.4,0.1-1.7,0.8c-0.1,0.1-0.1,0.3-0.3,0.4c-0.2,0.1-0.3,0-0.6,0c-0.3,0-0.6,0.3-1.3,1.2
			c0,0-0.2,0.2-0.7,0.8c-1,1.2-1.3,1.3-1.3,1.7c0,0.6,0.1,0.9,0.1,0.9c0,0.1,0.1,0.3,0,0.4c-0.1,0.1-0.1,0-0.2,0.1
			c-0.1,0.2,0.1,0.4,0,0.9c0,0,0,0-0.1,0.3c-0.1,0.6-0.1,0.8,0,0.9C-6.4,5-6.3,5-6.2,5C-6,5-5.8,4.9-5.8,4.8
			c0.5-0.5,0.9-1.1,1.4-1.6c-0.2,0.4-0.4,0.7-0.5,0.9C-5.1,4.4-5.3,4.6-5.5,5c-0.1,0.1-0.1,0.2-0.2,0.4C-5.8,5.7-5.9,6-5.8,6.3
			c0.1,0.1,0.1,0.2,0.2,0.4c0,0.2-0.1,0.3,0,0.5c0.1,0.1,0.1,0.1,0.2,0.2c0.1,0.2,0,0.4,0,0.7c0,0.2,0.1,0.1,0.1,0.3
			c0.1,0.3-0.1,0.5,0,0.9c0,0.2,0,0.3,0.1,0.3C-5,9.6-4.7,9.4-4.5,9.6c0.2,0.1,0.1,0.4,0.4,0.5c0.1,0,0.2-0.1,0.5,0
			c0,0,0.4,0,0.4,0.2c0,0.1-0.1,0.3-0.3,0.4c-0.4,0.2-1-0.1-1,0c0,0.1,0.1,0.3,0.3,0.4c1.2,1.1,1.2,1.2,1.6,1.4
			c0.4,0.2,0.3,0.1,0.8,0.4c0.6,0.4,1.3,0.7,1.3,1.2c0,0.3-0.2,0.3-0.2,0.7c0,0.3,0.1,0.7,0.4,0.8c0.2,0.1,0.4-0.1,0.7-0.1
			c0.4,0,0.4,0.3,0.7,0.3c0.4,0,0.6-0.5,1-0.4c0.2,0,0.2,0.2,0.5,0.3c0.2,0.1,0.5,0,0.6,0c1.3-1.3,3.2-3.3,5.5-5.7
			c2-2.1,2.5-2.7,3.6-3.7c3.2-3,6.5-5.3,6.6-5.2c0.1,0.1-1.4,1.5-6.6,6.4c-3.6,3.4-6.5,6.2-8.5,8.1c0,0.4,0.1,0.5,0.2,0.6
			c0.3,0.2,0.6-0.2,0.9,0c0.1,0.1,0.3,0.3,0.4,0.5c0.1,0.2,0,0.3,0.1,0.5c0.1,0.1,0.1,0,0.2,0.1c0.2,0.2,0.1,0.4,0.3,0.6
			c0.2,0.2,0.5,0.1,0.5,0.2c0,0.1-0.1,0.2,0,0.3c0,0.2,0.2,0.2,0.2,0.3c0.1,0.2-0.3,0.3-0.4,0.7c-0.1,0.3,0.1,0.3,0.1,0.6
			c0,0.6-0.7,0.7-0.7,1.1c0,0.3,0.3,0.5,0.5,0.6c0.4,0.1,0.6-0.5,1-0.5c0.5,0,0.7,0.7,1.1,0.6c0.3,0,0.4-0.4,0.7-0.4
			c0.2,0,0.4,0.1,0.5,0C9.7,21.2,9.7,21,9.8,21c0.1,0,0.1,0,0.2,0c0.3,0,0.7-0.5,0.8-1c0.1-0.4,0-0.6,0.2-0.9
			c0.1-0.3,0.3-0.4,0.4-0.5c0.7-0.5,1.4-1.2,2.2-1.9c1-0.9,1.1-1.3,1.8-1.7c0.1,0,0.3-0.2,0.6-0.4c0.4-0.3,0.5-0.7,0.7-1
			c0.5-0.9,1-1,2-2.4c0-0.1,0.3-0.4,0.2-0.4c-0.1-0.1-1.4,1.4-1.7,1.2c-0.1-0.1-0.1-0.2-0.1-0.3c0.1-0.7,1-0.9,2.3-2
			c0.3-0.3,0.2-0.2,0.6-0.6c1-0.9,2.1-1.5,2.3-2.1c0.2-0.3,0.3-0.7,0.3-0.7c0-0.1,0-0.2,0.1-0.2c0.1-0.3,0.3-0.4,0.8-1
			C24.1,4.4,24.1,4.3,24.1,4.2z M3.8,3.3C3.4,3.7,3,4.1,2.6,4.3C2.8,4,3.1,3.6,3.6,3.2C3.8,3,3.9,2.9,4.1,2.8C4,3,3.9,3.1,3.8,3.3z
			 M3.5,1.8c0.6-0.6,1.1-1.2,1.7-1.7C4.8,0.7,4.3,1.3,3.7,1.9C3.3,2.3,2.9,2.6,2.5,3C2.8,2.6,3.1,2.2,3.5,1.8z M-3.2,1.8
			C-3.1,1.5-2.9,1.3-2.7,1c0.1-0.1,0.2-0.2,0.3-0.3C-2.4,0.9-2.5,1-2.6,1.1C-2.8,1.4-3,1.6-3.2,1.8z M-2.2,11.5
			c-0.1,0.1-0.3,0.2-0.3,0.2c0-0.1,0-0.2,0.1-0.4c0.1-0.2,0.3-0.2,0.4-0.2C-2,11.2-2,11.4-2.2,11.5z M-2.6,6c0.4-0.5,0.8-1,1.2-1.4
			c0,0.1,0,0.2,0,0.4C-1.7,5.2-2.1,5.6-2.6,6z M-0.5,13.2c-0.1,0-0.2-0.2-0.6-0.7c-0.1-0.1-0.2-0.2-0.2-0.3c0-0.1,0.1-0.1,0.3-0.2
			c0.1-0.1,0.3-0.2,0.5-0.5c0,0.2-0.1,0.4-0.1,0.5c-0.1,0.1-0.1,0.2-0.1,0.3c0,0.1,0.1,0,0.2,0.1c0.1,0.1,0,0.2,0,0.3
			C-0.6,12.9-0.4,13.1-0.5,13.2z M-0.6-0.4c0.1-0.2,0.3-0.5,0.5-0.8C0-1.2,0.1-1.3,0.2-1.4C0.2-1.3,0.1-1.2,0-1.1
			C-0.2-0.8-0.4-0.5-0.6-0.4z M2.8,7.5C4,5.9,5.6,4.2,7.4,2.5c1.3-1.3,2.6-2.4,3.8-3.3C10.3,0,9.4,0.8,8.5,1.7
			C6.5,3.7,4.6,5.6,2.8,7.5z M8.7,2.5c1-1,2-1.8,2.8-2.4C11,0.7,10.4,1.3,9.9,1.9C8.5,3.4,7.1,4.7,5.8,6C6.5,4.9,7.5,3.7,8.7,2.5z
			 M10.9,4.6c1.3-1.1,2.6-2.2,3.9-3.1c-0.8,0.8-1.7,1.7-2.7,2.6c-1.9,1.7-3.7,3.3-5.5,4.6C7.9,7.3,9.3,6,10.9,4.6z M12.9,4.8
			C11,6.5,9.2,8,7.4,9.4c1.3-1.3,2.8-2.7,4.3-4c1.3-1.1,2.6-2.2,3.9-3.1C14.7,3,13.9,3.9,12.9,4.8z M19.8,2.9
			c-0.8,0.8-1.7,1.7-2.7,2.6c-1.9,1.7-3.7,3.3-5.5,4.6c1.3-1.3,2.8-2.7,4.3-4C17.3,4.9,18.6,3.9,19.8,2.9z M8.4,12.2
			c1.7-2,3.8-4.2,6.1-6.3c1.1-1,2.1-1.8,3.1-2.7c-1.1,1.2-2.3,2.3-3.5,3.5C12.3,8.5,10.4,10.4,8.4,12.2z M8.9,14.2
			c1.9-1.8,3.9-3.7,6-5.6c1.7-1.5,3.4-2.9,5-4.3c-1.3,1.3-2.7,2.5-4.1,3.8C13.5,10.2,11.2,12.3,8.9,14.2z M9.2,15.4
			c1.3-1.5,2.9-3.2,4.9-4.9c1.7-1.4,3.3-2.6,4.8-3.5C17.6,8,16.3,9.2,15,10.3C13.1,12,11.1,13.7,9.2,15.4z M18.9,8.5
			c-1.4,1.3-2.9,2.5-4.3,3.6c0.3-0.2,0.5-0.5,0.8-0.7c0.9-0.9,1.8-1.7,2.7-2.6c-0.1,0.1-0.2,0.2-0.4,0.3c-0.1,0.1-0.1,0.1-0.2,0.2
			c-1.5,1.3-2.9,2.6-4.2,3.9c-1.1,0.9-2.2,1.8-3.2,2.6c1.3-1.3,2.8-2.7,4.3-4c1.2-1,2.4-2,3.5-2.9c1.2-1.1,2.5-2.1,3.6-3
			C20.7,6.8,19.8,7.7,18.9,8.5z"/>
	</defs>
	<clipPath id="SVGID_2_">
		<use xlink:href="#SVGID_1_"  style="overflow:visible;"/>
	</clipPath>
	<path class="st0" d="M8,2C6.5,2,5,2.6,3.9,3.6l1.2,1.6C5.9,4.4,6.9,4,8,4c2.2,0,4,1.8,4,4h-2l3,4l3-4h-2C14,4.7,11.3,2,8,2z"/>
	<path class="st0" d="M3,4L0,8h2c0,3.3,2.7,6,6,6c1.5,0,3-0.6,4.1-1.6l-1.2-1.6C10.1,11.6,9.1,12,8,12c-2.2,0-4-1.8-4-4h2L3,4z"/>
</g>
</svg>
