<?xml version="1.0" encoding="utf-8"?>
<!-- Generator: Adobe Illustrator 23.0.0, SVG Export Plug-In . SVG Version: 6.00 Build 0)  -->
<svg version="1.1" id="Layer_1" xmlns="http://www.w3.org/2000/svg" xmlns:xlink="http://www.w3.org/1999/xlink" x="0px" y="0px"
	 viewBox="0 0 16 16" style="enable-background:new 0 0 16 16;" xml:space="preserve">
<style type="text/css">
	.st0{fill:#F75049;}
	.st1{fill-rule:evenodd;clip-rule:evenodd;fill:#F75049;}
</style>
<path class="st0" d="M9.3,19.8C9.3,19.8,9.3,19.8,9.3,19.8c0,0,0.1,0,0.1,0v0C9.4,19.7,9.4,19.7,9.3,19.8z"/>
<path class="st1" d="M12.8,1.9C12.9,1.9,12.9,1.9,12.8,1.9L12.8,1.9C12.9,1.9,12.9,1.9,12.8,1.9z"/>
<path class="st1" d="M6.2,1.4c0,0,0.1-0.1,0.3-0.2C6.4,1.3,6.3,1.3,6.2,1.4C6.2,1.4,6.2,1.4,6.2,1.4z"/>
<path class="st0" d="M15.3,10.8l-0.2-0.1c-0.3,0.2-0.6,0.5-0.7,0.4c-0.1,0-0.1-0.2-0.1-0.2c0-0.2,0.1-0.3,0.3-0.5
	c0.1-0.4,0.2-0.8,0.3-1.2c-0.5,0.4-0.9,0.8-1.4,1.2c-0.9,2.2-3,3.7-5.5,3.7c-1.1,0-2.1-0.3-3-0.8c-0.1-0.1-0.2-0.1-0.3-0.2
	c-0.8-0.5-1.4-1.1-1.9-1.9C2.3,10.4,2,9.3,2,8.1c0-3.2,2.5-5.8,5.6-6c0.1,0,0.2,0,0.4,0c0.1,0,0.2,0,0.3,0c0.5,0,0.9,0.1,1.3,0.2
	C9.8,2.2,9.9,2.1,10.1,2C9.9,2.1,9.8,2.2,9.7,2.3c1,0.3,1.9,0.8,2.6,1.5c0.1-0.1,0.2-0.2,0.3-0.3c-0.1,0.1-0.2,0.2-0.3,0.3
	c0.2,0.2,0.3,0.4,0.5,0.6c0.1-0.1,0.3-0.2,0.4-0.3l-0.4,0.4c0.1,0.1,0.2,0.3,0.3,0.4c0.3-0.2,0.5-0.4,0.8-0.6
	c-0.1-0.2-0.3-0.4-0.4-0.6l0.7-0.8l-1.2-1c0,0,0,0,0,0c0,0,0,0,0,0L12,1.2L11.4,2c-0.6-0.4-1.3-0.6-2-0.8c0,0,0,0,0,0V0L6.7,0.4v0.8
	c0,0-0.1,0-0.1,0C6.4,1.3,6.3,1.4,6.2,1.4c0,0,0,0,0-0.1C5.6,1.5,5.1,1.7,4.6,2L3.9,1.2l-2,1.7l0.6,0.8C2.3,4,2.1,4.3,1.9,4.6
	c-0.2,0.3-0.3,0.7-0.5,1l-1-0.2L0,8l1,0.2C1,9,1.1,9.7,1.4,10.4l-0.9,0.5L1,11.7c0.4,0.2,0.7,0.5,0.8,0.8c0,0.2-0.1,0.2-0.1,0.4
	l0.2,0.3l0.9-0.5c0.2,0.3,0.5,0.5,0.7,0.7c0.3,0.3,0.6,0.5,1,0.7l-0.4,1L6.5,16l0.2-0.4l2.4-0.5L9.5,16l1.2-0.4l1.3-0.5l-0.2-0.5
	l-0.2-0.4c0.6-0.4,1.2-0.9,1.7-1.4l0.3,0.2l0.5,0.3l1.3-2.3L15.3,10.8z M0.3,6.8c0.3-0.3,0.5-0.7,0.8-1c0,0.1,0,0.2,0,0.3
	C0.9,6.3,0.6,6.6,0.3,6.8z M1.8,11.9c0,0-0.1-0.1-0.3-0.3c-0.1,0-0.1-0.1-0.2-0.2c-0.1-0.1-0.1-0.2-0.1-0.2c0-0.1,0.1-0.1,0.2-0.2
	c0.1-0.1,0.2-0.2,0.4-0.4c0,0.2-0.1,0.3-0.1,0.4c0,0.1-0.1,0.2-0.1,0.2c0,0,0.1,0,0.1,0.1c0.1,0.1,0,0.1,0,0.2v0
	C1.7,11.8,1.8,11.9,1.8,11.9z"/>
<path class="st1" d="M14.1,4.7C14,4.6,14,4.4,13.9,4.3c-0.2,0.2-0.5,0.4-0.8,0.6c0.1,0.2,0.2,0.3,0.3,0.5c0.1,0.1,0.1,0.3,0.2,0.4
	c0.3-0.2,0.5-0.5,0.8-0.7C14.3,5,14.2,4.8,14.1,4.7z"/>
<path class="st1" d="M5,10.8C4.4,10.1,4,9.1,4,8.1c0-0.8,0.3-1.6,0.7-2.2C4.2,6.3,3.7,6.8,3,7.4C2.8,8.7,3.2,10,3.9,11
	c0.4,0.6,0.9,1,1.5,1.4h0C5.7,12.2,6,12,6.2,11.7C5.8,11.5,5.4,11.2,5,10.8z"/>
<g>
	<path class="st0" d="M3.7,5.6C3.3,6.1,3.2,6.7,3.1,7.2c1.9-2,3.1-3.3,3.7-4C5.5,3.5,4.3,4.4,3.7,5.6z"/>
	<path class="st0" d="M4,5.7c0.1-0.2,0.3-0.5,0.7-0.8C4.8,4.7,4.9,4.7,5,4.6C5,4.7,4.9,4.8,4.8,4.9C4.5,5.2,4.3,5.5,4,5.7z"/>
</g>
<path class="st0" d="M7.6,3.1c-0.2,0-0.3,0-0.4,0.1C6.9,3.4,6.7,3.7,6.7,3.8C6.5,4,6.3,4.3,5.8,4.7c0.5-0.3,1.1-0.6,1.8-0.6
	c0.4-0.3,0.7-0.7,1.1-1C8.3,3.1,8,3.1,7.6,3.1z"/>
<path class="st0" d="M8.8,3.2C8.6,3.4,8.4,3.6,8.2,3.8C8.1,3.9,8,4,7.9,4.1c0,0,0.1,0,0.1,0c0.2,0,0.4,0,0.5,0
	c0.3-0.3,0.6-0.6,0.9-0.8C9.2,3.2,9,3.2,8.8,3.2z"/>
<path class="st0" d="M10.5,3.8c-0.3-0.2-0.5-0.3-0.8-0.4C9.5,3.6,9.3,3.7,9.1,3.9C9.1,4,9,4.1,8.9,4.2c0.7,0.1,1.3,0.5,1.8,1
	c0.3-0.2,0.5-0.4,0.8-0.6C11.2,4.2,10.8,4,10.5,3.8z"/>
<path class="st0" d="M11.6,4.6c-0.2,0.2-0.5,0.5-0.7,0.7c0.1,0.1,0.3,0.3,0.4,0.4c0.3-0.2,0.5-0.4,0.8-0.6
	C11.9,4.9,11.7,4.8,11.6,4.6z"/>
<path class="st0" d="M12.1,5.2c-0.2,0.2-0.5,0.5-0.7,0.7c0.1,0.1,0.1,0.2,0.2,0.3C11.8,6,12,5.8,12.3,5.6
	C12.2,5.5,12.2,5.3,12.1,5.2z"/>
<path class="st0" d="M12.9,7.4c0-0.2-0.1-0.4-0.1-0.6c-0.2,0.2-0.4,0.4-0.5,0.5c-0.1,0.1-0.2,0.2-0.3,0.3c0,0.1,0,0.3,0,0.4
	c0,0,0,0.1,0,0.1C12.3,7.9,12.6,7.7,12.9,7.4z"/>
<path class="st0" d="M14.5,5.6c-0.1-0.1-0.1-0.3-0.2-0.4c-0.3,0.3-0.5,0.5-0.8,0.8c0.1,0.2,0.1,0.4,0.2,0.6c0.4-0.4,0.9-0.8,1.3-1.1
	L14.5,5.6z"/>
<path class="st0" d="M15,8.2L15.9,8C15.9,8,16,8,16,8l-0.3-1.7c-0.6,0.5-1.1,1.1-1.7,1.6c0,0.1,0,0.2,0,0.3c0,0.2,0,0.3,0,0.5
	c0.5-0.4,1.1-0.8,1.6-1.1c-0.4,0.4-0.8,0.8-1.3,1.1c-0.1,0.1-0.2,0.2-0.3,0.3c0,0.3-0.1,0.6-0.2,0.9c0.3-0.3,0.6-0.5,1-0.8
	c-0.3,0.3-0.7,0.6-1,0.9c0,0.1,0,0.2-0.1,0.2c0.5-0.4,0.9-0.9,1.3-1.3c0-0.1,0.1-0.1,0.1-0.2C15,8.8,15,8.8,15,8.8
	c0-0.1,0-0.3,0-0.4C15,8.4,15,8.3,15,8.2z"/>
<path class="st0" d="M12.7,9c-0.4,0.4-0.8,0.7-1.2,1c0,0,0,0,0,0c-0.5,0.8-1.2,1.5-2.1,1.8c-0.3,0.3-0.6,0.5-0.9,0.8
	c0.2-0.2,0.5-0.5,0.7-0.7C8.8,12,8.4,12.1,8,12.1c-0.5,0-1-0.1-1.4-0.3c-0.3,0.3-0.5,0.5-0.8,0.8C6.9,13.1,8,13.2,9.1,13
	c0.8-0.9,1.8-1.9,3-3c0.2-0.2,0.4-0.3,0.6-0.5c0.1-0.2,0.1-0.4,0.1-0.6c0-0.1,0-0.1,0-0.2C12.8,8.8,12.8,8.9,12.7,9z"/>
<path class="st0" d="M9.3,12.9c1.2-0.3,2.3-1.1,3-2.3c0.1-0.2,0.2-0.4,0.3-0.5C11.5,11,10.4,12,9.3,12.9z"/>
<path class="st0" d="M13,7.7c-0.3,0.3-0.7,0.6-1,0.8c0,0.2-0.1,0.5-0.1,0.7c0,0.1-0.1,0.3-0.1,0.4c0.2-0.2,0.4-0.3,0.6-0.5
	c0.2-0.1,0.3-0.3,0.5-0.4c0.1-0.1,0.2-0.1,0.2-0.2C13,8.2,13,7.9,13,7.7z"/>
</svg>
