<?xml version="1.0" encoding="utf-8"?>
<!-- Generator: Adobe Illustrator 23.0.0, SVG Export Plug-In . SVG Version: 6.00 Build 0)  -->
<svg version="1.1" id="Layer_1" xmlns="http://www.w3.org/2000/svg" xmlns:xlink="http://www.w3.org/1999/xlink" x="0px" y="0px"
	 viewBox="0 0 16 16" style="enable-background:new 0 0 16 16;" xml:space="preserve">
<style type="text/css">
	.st0{fill:#F75049;}
</style>
<g transform="translate(-552 -32)">
	<path class="st0" d="M563.4,35c-0.5,0.5-0.9,0.9-1.4,1.4C562,35.7,562.7,35,563.4,35z"/>
	<path class="st0" d="M565,36.5c0,0.8-0.7,1.5-1.5,1.5c-0.6,0-1.1-0.3-1.3-0.8c0.6-0.7,1.2-1.4,1.8-2.1
		C564.6,35.3,565,35.8,565,36.5z"/>
	<path class="st0" d="M560.7,44c-1,1-2,2-3,3h2.3c0.9-1,1.8-2,2.7-3H560.7z M566,41.4C566,41.4,566,41.4,566,41.4l0,2.6h-2.3
		c-1,1-2,2-2.9,3h6.3v-6.7C566.7,40.7,566.4,41,566,41.4z M566,38.2v2.3c0.3-0.3,0.7-0.7,1-1V37C566.7,37.4,566.3,37.8,566,38.2z
		 M562.9,33c-0.3,0.3-0.6,0.7-0.9,1h2.4c0.3-0.3,0.7-0.7,1-1H562.9z M559.8,33c-0.3,0.3-0.6,0.7-0.8,1h1.8c0.3-0.3,0.6-0.7,1-1
		H559.8z M553,33v1.4c0.3-0.5,0.7-0.9,1.1-1.4H553z M555.3,33c-0.3,0.3-0.5,0.7-0.8,1h4c0.3-0.3,0.6-0.7,0.9-1H555.3z M553,41.3V43
		c0.3-0.4,0.7-0.8,1-1.2v-1.8C553.7,40.5,553.3,40.9,553,41.3z M555.7,44c-0.9,0.9-1.8,1.8-2.7,2.6V47h4.1c0.9-1,1.7-2,2.6-3H555.7z
		 M554,44v-1.3c-0.3,0.3-0.7,0.6-1,1v2.7c0.7-0.8,1.3-1.6,2-2.3H554z M553,35.8v4.7c0.3-0.4,0.7-0.9,1-1.3v-4.7
		C553.7,35,553.3,35.4,553,35.8z M561.4,34h0.2c0.2-0.3,0.4-0.5,0.6-0.8C562,33.4,561.7,33.7,561.4,34z M562.3,33
		c0,0.1-0.1,0.1-0.1,0.2C562.3,33.1,562.3,33,562.3,33L562.3,33z M565.7,33c-0.3,0.3-0.5,0.7-0.8,1h1.1v3.4c0.3-0.3,0.7-0.7,1-1V33
		H565.7z"/>
	<path class="st0" d="M558.4,38.1c-0.6,0.6-1.1,1.2-1.7,1.8l1.3-2.5L558.4,38.1z"/>
	<path class="st0" d="M559.1,39.4c-1.1,1.2-2.2,2.4-3.3,3.6H555l1-1.9c0,0,0,0,0,0c0.8-0.9,1.6-1.9,2.4-2.9L559.1,39.4z"/>
	<path class="st0" d="M562.1,41.4c-0.5,0.5-1,1.1-1.5,1.6h-4c1.3-1.3,2.6-2.7,4-4.2L562.1,41.4z"/>
	<path class="st0" d="M563,43h-1.4c0.3-0.3,0.6-0.6,0.9-0.9L563,43z"/>
</g>
<path class="st0" d="M6.4,6.1C5.8,6.8,5.2,7.3,4.7,8L6,5.5L6.4,6.1z"/>
<path class="st0" d="M10.2,1.2C10,1.5,9.8,1.7,9.6,2H9.4C9.7,1.7,10,1.4,10.2,1.2z"/>
<path class="st0" d="M2,11.2v0.3c-0.1,0.2-0.3,0.3-0.4,0.5C1.7,11.7,1.9,11.4,2,11.2z"/>
<path class="st0" d="M6.4,6.1C5.8,6.8,5.2,7.3,4.7,8L6,5.5L6.4,6.1z"/>
<path class="st0" d="M10.2,1.2C10,1.5,9.8,1.7,9.6,2H9.4C9.7,1.7,10,1.4,10.2,1.2z"/>
</svg>
