<?xml version="1.0" encoding="utf-8"?>
<!-- Generator: Adobe Illustrator 23.0.0, SVG Export Plug-In . SVG Version: 6.00 Build 0)  -->
<svg version="1.1" id="Layer_1" xmlns="http://www.w3.org/2000/svg" xmlns:xlink="http://www.w3.org/1999/xlink" x="0px" y="0px"
	 viewBox="0 0 16 16" style="enable-background:new 0 0 16 16;" xml:space="preserve">
<style type="text/css">
	.st0{fill:none;}
	.st1{fill:#F75049;}
</style>
<path class="st0" d="M2.2,10.7c0,0-0.1,0-0.1,0c-0.1,0,0,0,0-0.1C2.1,10.6,2.2,10.6,2.2,10.7z"/>
<line class="st0" x1="9.4" y1="2.9" x2="9.4" y2="2.9"/>
<path class="st1" d="M11.4,0h-0.3h-0.1h-1L9.1,0.8L8.9,1C8.5,1.4,8.1,2,8,2.6C8,2.8,8,3,8,3.1L11.4,0z"/>
<path class="st1" d="M14.4,11.5c0,0-0.3,1.2-1.1,2.4c-0.7,1-1.3,2.1-2.4,2.1c-1.1,0-1.4-0.7-2.6-0.7c-1.2,0-1.6,0.7-2.6,0.7
	c-0.6,0-1.1-0.4-1.6-0.9c0,0,0,0,0,0c-0.2-0.2-0.4-0.5-0.6-0.8c-0.1-0.1-0.1-0.2-0.2-0.3l6.5-6.3l0.1-0.1c0,0,0-0.1,0-0.1
	c0-0.2-0.1-0.4-0.1-0.5L3,13.4c-0.1-0.2-0.2-0.5-0.4-0.7l4.1-4.1l2.7-2.1C9.3,6.2,9,6,8.8,5.9l-4,3.6l-1.2,1l-1.1,1.1H2.5l1.1-1.2
	l0.2-0.3l4.8-4.4c-0.3-0.2-0.7-0.3-1-0.4L7.4,5.7l-5,4.7l-0.2-0.2L2.4,10l5-4.7c0,0-0.1,0-0.1,0c-1.1-0.2-2,0.2-2.5,0.4
	c0,0-1.1,0.5-1.7,1.3C3,7.3,3,7.5,3,7.5c0,0,0,0,0,0c-0.1,0-0.2,0-0.3-0.1c-0.2,0-0.4-0.1-0.6-0.1c-0.1,0-0.3,0-0.4,0
	c0-0.1,0-0.3,0-0.4c0,0,0,0-0.1,0l0.1-0.1C1.8,6.4,2,5.8,2.3,5.4c0.6-1.2,1.7-2,2.9-2.1c0.1,0,0.2,0,0.3,0c0.2,0,0.4,0,0.6,0.1
	c0.3,0,0.5,0.1,0.7,0.2C7.3,3.8,7.8,4,8.1,4c0.6,0,1.5-0.7,2.6-0.8c0.2,0,0.3,0,0.5,0c0.3,0,0.9,0.1,1.6,0.4l0,0
	c0.5,0.2,0.9,0.6,1.3,1.2c0,0-0.1,0.1-0.3,0.3c-0.5,0.4-1.4,1.4-1.4,3c0,0.1,0,0.1,0,0.1c0,0.2,0,0.3,0,0.5l-2,1.9l-1.7,1.4l-3.3,3
	l-0.1,0.2c0.1,0,0.2,0,0.3,0l-0.1,0l0.3-0.1c0,0,0.1,0,0.2,0.1c0,0,0.1,0,0.2,0L6.4,15l4.6-3.9l1.8-1.3c0,0,0,0,0,0l-4.5,4l-1.1,1.1
	c0.6-0.3,1.1-0.7,1.6-1.2c0.4,0,0.8-0.1,1.2-0.2l1.8-1.7l0.4-0.3c0,0-0.3,0.6-0.3,0.6c0,0-0.3,0.3-0.3,0.3s-0.4,0.5-0.7,0.8
	c0.9-0.4,1.6-1.1,1.8-2c0-0.1,0-0.2,0-0.3c0.2-0.1,0.4-0.2,0.6-0.3C13.7,11.2,14.4,11.5,14.4,11.5z"/>
<path class="st1" d="M9,2.3l0.1-0.1l1-0.9l1.1-1c0-0.1,0-0.1,0-0.2c0,0-0.1,0-0.1,0L8.3,2.4L8,2.6C8,2.8,8,3,8,3.1
	C8.5,3,8.9,2.9,9.4,2.9l0,0c0.4-0.2,0.7-0.4,1-0.7C10.7,1.9,11,1.4,11.1,1C10.9,1,10.7,1,10.5,1C10.1,1.6,9.6,2,9,2.3z M2.1,10.6
	C2.1,10.7,2.1,10.7,2.1,10.6c0,0.1,0.1,0,0.1,0C2.2,10.6,2.1,10.6,2.1,10.6z M13.1,10.5c-0.2,0.1-0.4,0.2-0.6,0.3c0,0.1,0,0.2,0,0.3
	c-0.2,0.9-0.8,1.6-1.8,2c0.3-0.3,0.7-0.8,0.7-0.8s0.3-0.3,0.3-0.3c0,0,0.3-0.6,0.3-0.6l-0.4,0.3l-1.8,1.7c-0.4,0.1-0.8,0.2-1.2,0.2
	c-0.5,0.5-1,1-1.6,1.2l1.1-1.1l4.5-4c0,0,0,0,0,0l-1.8,1.3L6.4,15l-0.3,0.2c-0.1,0-0.1,0-0.2,0c-0.1-0.1-0.2-0.1-0.2-0.1l-0.3,0.1
	l0.1,0c-0.1,0-0.2,0-0.3,0l0.1-0.2l3.3-3l1.7-1.4l2-1.9c0-0.2,0-0.3,0-0.5c0,0,0-0.1,0-0.1c0-1.6,0.9-2.5,1.4-3
	C13.8,5,14,4.9,14,4.9c-0.4-0.6-0.8-1-1.3-1.2l0,0c-0.6-0.4-1.3-0.4-1.6-0.4c-0.1,0-0.3,0-0.5,0C9.6,3.3,8.7,4,8.1,4
	C7.8,4,7.3,3.8,6.8,3.6C6.6,3.5,6.3,3.4,6.1,3.3c-0.2,0-0.4-0.1-0.6-0.1c-0.1,0-0.2,0-0.3,0C4,3.4,2.9,4.2,2.3,5.4
	C2,5.8,1.8,6.4,1.7,6.9c0,0,0,0.1,0,0.1c0,0.1,0,0.3,0,0.4c0.1,0,0.3,0,0.4,0c0.1,0,0.4,0.1,0.6,0.1c0.1,0,0.2,0,0.3,0.1
	c0,0,0,0,0,0c0,0,0.1-0.2,0.2-0.4c0.6-0.8,1.7-1.3,1.7-1.3c0.5-0.3,1.4-0.7,2.5-0.4c0,0,0.1,0,0.1,0l-5,4.7l-0.2,0.2l0.2,0.2l5-4.7
	l0.2-0.4c0.3,0.1,0.6,0.2,1,0.4l-4.8,4.4l-0.2,0.3l-1.1,1.2h0.1l1.1-1.1l1.2-1l4-3.6C9,6,9.3,6.2,9.4,6.5L6.7,8.6l-4.1,4.1
	c0.1,0.3,0.2,0.5,0.4,0.7L9.8,7c0.1,0.2,0.1,0.3,0.1,0.5c0,0,0,0,0,0.1L9.8,7.6L3.3,14c0.1,0.1,0.1,0.2,0.2,0.3
	c0.2,0.3,0.4,0.5,0.6,0.8c0,0,0,0,0,0c0.5,0.5,1,0.9,1.6,0.9c1,0,1.4-0.7,2.6-0.7c1.2,0,1.5,0.7,2.6,0.7c1.1,0,1.7-1.1,2.4-2.1
	c0.8-1.2,1.1-2.3,1.1-2.4C14.4,11.5,13.7,11.2,13.1,10.5z"/>
<path d="M2.1,10.6C2.1,10.7,2.1,10.7,2.1,10.6c0,0.1,0.1,0,0.1,0C2.2,10.6,2.1,10.6,2.1,10.6z"/>
<path class="st1" d="M13.7,5.1c0-0.1-0.1-0.2-0.1-0.3c-0.2-0.5-0.5-0.8-0.9-1.1l0,0c-0.6-0.4-1.3-0.4-1.6-0.4c-0.1,0-0.3,0-0.5,0
	C9.6,3.3,8.7,4,8.1,4C7.8,4,7.3,3.8,6.8,3.6c-0.1,0-0.2,0.1-0.3,0.1c0,0,0,0-0.1-0.1C6.4,3.7,6.3,3.8,6.2,3.9c-0.2,0.3,0-0.2,0-0.2
	c0,0,0-0.2,0-0.3c0,0-0.1-0.1-0.1-0.1c-0.2,0-0.4-0.1-0.6-0.1c-0.1,0-0.2,0-0.3,0L1.7,6.9L1.6,7c0,0,0,0,0.1,0c0.5,0,0.8,0.2,1,0.3
	c0.3-0.4,1.5-1.9,3.4-2.1c0.5-0.1,1,0,1.5,0c0,0,0,0,0,0C8,5.3,8.4,5.4,8.8,5.5l0.4-0.4v0.3L9,5.6c0.3,0.1,0.6,0.3,0.8,0.5L12.5,4
	h0.2l-0.3,0.4l-2.2,2.1c0.1,0.2,0.2,0.4,0.3,0.6L10.6,7l0.3-0.3l0.4-0.4l1.3-0.9l0,0.1L11.9,6l-0.3,0.5L10.9,7l-0.4,0.5
	c0,0.3-0.1,0.6-0.3,0.9c-0.2,0.3-0.3,0.5-0.5,0.7C9.7,9.2,9.5,9.3,9.4,9.4C9.3,9.5,9.2,9.5,9.1,9.5c0.1-0.1,0.7-0.7,0.8-1.5L9.1,8.8
	l-5.6,5.4c0.2,0.3,0.4,0.5,0.6,0.8c0,0,0,0,0,0c0.1,0,0.3,0.1,0.4,0.1c0,0,0.1,0,0.1,0l4.1-4l1.4-1.1l1.6-1.6l0.5-0.3
	c0,0,0-0.1,0-0.1C12.3,6.5,13.2,5.6,13.7,5.1z M5.8,4.3c0,0.2-0.2,0-0.2-0.2c0,0,0.1-0.1,0.1-0.1C5.8,3.9,5.8,4.1,5.8,4.3z M10,4.8
	c0,0-0.3,0.1-0.3,0.1c0,0,0-0.1,0-0.1l0,0l0.7-0.5C10.3,4.3,10,4.7,10,4.8z M5,13.9c0,0-0.1,0-0.1,0C4.9,13.8,5,13.8,5,13.9
	C5.1,13.8,5,13.8,5,13.9z M5.2,13.7c0,0-0.1,0-0.1,0C5.1,13.7,5.2,13.6,5.2,13.7C5.3,13.6,5.2,13.7,5.2,13.7z M5.4,13.5
	c0,0-0.1,0-0.1,0C5.3,13.5,5.4,13.4,5.4,13.5C5.5,13.4,5.4,13.5,5.4,13.5z M5.7,13.3c0,0.1-0.2,0.1-0.2-0.1c0,0,0.1-0.1,0.2-0.1
	C5.8,13.2,5.7,13.3,5.7,13.3z M6.1,13c0,0.2-0.2,0.1-0.2-0.2c0,0,0.1-0.2,0.2-0.2C6.2,12.7,6.1,12.8,6.1,13z M6.5,12.5
	c0,0.1-0.2,0.1-0.2-0.2c0,0,0.1-0.2,0.2-0.1C6.7,12.3,6.6,12.4,6.5,12.5z M7.2,11.7c0,0-0.1,0-0.1,0C7.1,11.6,7.2,11.5,7.2,11.7
	C7.3,11.6,7.3,11.6,7.2,11.7z M8.1,11.1c0,0.1-0.2,0-0.2-0.1c0,0,0.1-0.1,0.2-0.1C8.2,11,8.1,11,8.1,11.1z M8.4,10.7
	c0,0-0.1,0-0.1-0.1C8.3,10.7,8.4,10.6,8.4,10.7C8.5,10.6,8.5,10.7,8.4,10.7z M8.6,10.5c0,0-0.1,0-0.1,0C8.5,10.5,8.6,10.4,8.6,10.5
	C8.7,10.5,8.7,10.5,8.6,10.5z M8.9,10.4c0,0.1-0.2,0-0.2-0.1c0,0,0.1-0.1,0.2-0.1C9,10.2,8.9,10.3,8.9,10.4z M9.3,10
	c0,0.2-0.2,0.1-0.2-0.2c0,0,0.1-0.2,0.2-0.2C9.4,9.7,9.3,9.8,9.3,10z M10.8,8.6c0,0.1-0.1,0-0.1-0.1c0,0,0.1-0.1,0.1,0
	C10.9,8.5,10.8,8.5,10.8,8.6z M11.5,8.3c0,0.1-0.2,0-0.2-0.1c0,0,0.1-0.1,0.2,0C11.6,8.3,11.5,8.3,11.5,8.3z M11.1,8.3
	c-0.2,0.2-0.2,0,0.2-0.3c0,0,0.3-0.2,0.2-0.1C11.5,8,11.3,8.1,11.1,8.3z M11.8,7.7c-0.2,0.2-0.2,0,0.2-0.3c0,0,0.3-0.2,0.2-0.1
	C12.2,7.5,12,7.5,11.8,7.7z"/>
<path d="M2.2,10.7c0,0-0.1,0-0.1,0c-0.1,0,0,0,0-0.1C2.1,10.6,2.2,10.6,2.2,10.7z"/>
<path d="M0.1,7.2L0.1,7.2z"/>
</svg>
