<?xml version="1.0" encoding="utf-8"?>
<!-- Generator: Adobe Illustrator 23.0.0, SVG Export Plug-In . SVG Version: 6.00 Build 0)  -->
<svg version="1.1" id="Layer_1" xmlns="http://www.w3.org/2000/svg" xmlns:xlink="http://www.w3.org/1999/xlink" x="0px" y="0px"
	 viewBox="0 0 256 256" style="enable-background:new 0 0 256 256;" xml:space="preserve">
<style type="text/css">
	.st0{fill:#F75049;}
</style>
<g transform="translate(-392 -112)">
	<path class="st0" d="M524.1,252.4v-10.3c-3.1,3.1-7.2,6.2-10.3,9.3v5.2l3.1,3.1C519,257.6,522.1,254.5,524.1,252.4L524.1,252.4z
		 M540.6,267.9c-3.1,2.1-5.2,4.1-8.3,6.2l6.2,6.2l7.2-7.2L540.6,267.9z M529.3,257.6c-2.1,1-3.1,3.1-4.1,4.1s-2.1,2.1-3.1,3.1
		l7.2,7.2c3.1-2.1,5.2-4.1,8.3-6.2L529.3,257.6z M537.5,264.8c-3.1,2.1-5.2,5.2-7.2,7.2l2.1,2.1l1-1c2.1-2.1,4.1-4.1,6.2-6.2
		L537.5,264.8z M513.8,230.7v15.5c3.1-3.1,6.2-6.2,10.3-9.3l0,0v-14.4C521,225.6,516.9,227.6,513.8,230.7z M514.8,213.2
		C514.8,213.2,513.8,213.2,514.8,213.2l-1,12.4c3.1-3.1,7.2-6.2,10.3-9.3v-13.4C521,206,517.9,210.1,514.8,213.2z M524.1,252.4
		v-10.3c-3.1,3.1-7.2,6.2-10.3,9.3v5.2l3.1,3.1C519,257.6,522.1,254.5,524.1,252.4L524.1,252.4z M540.6,267.9
		c-3.1,2.1-5.2,4.1-8.3,6.2l6.2,6.2l7.2-7.2L540.6,267.9z M529.3,257.6c-2.1,1-3.1,3.1-4.1,4.1s-2.1,2.1-3.1,3.1l7.2,7.2
		c3.1-2.1,5.2-4.1,8.3-6.2L529.3,257.6z M537.5,264.8c-3.1,2.1-5.2,5.2-7.2,7.2l2.1,2.1l1-1c2.1-2.1,4.1-4.1,6.2-6.2L537.5,264.8z
		 M513.8,230.7v15.5c3.1-3.1,6.2-6.2,10.3-9.3l0,0v-14.4C521,225.6,516.9,227.6,513.8,230.7z M514.8,213.2
		C514.8,213.2,513.8,213.2,514.8,213.2l-1,12.4c3.1-3.1,7.2-6.2,10.3-9.3v-13.4C521,206,517.9,210.1,514.8,213.2z M478.7,183.3
		c-10.3,9.3-21.7,18.6-32,27.9c-1,4.1-2.1,8.3-3.1,12.4c2.1,0,5.2-1,7.2-2.1c7.2-7.2,15.5-14.4,23.7-21.7l-1-1
		c3.1-3.1,6.2-5.2,10.3-7.2l0,0c8.3-6.2,15.5-13.4,22.7-19.6C496.3,175,487,178.1,478.7,183.3z M477.7,203.9
		c-6.2,5.2-12.4,10.3-18.6,15.5c2.1,0,3.1-1,5.2-1c5.2-1,9.3-3.1,13.4-4.1c1-1,3.1-3.1,4.1-4.1L477.7,203.9z M524.1,252.4v-10.3
		c-3.1,3.1-7.2,6.2-10.3,9.3v5.2l3.1,3.1C519,257.6,522.1,254.5,524.1,252.4L524.1,252.4z M540.6,267.9c-3.1,2.1-5.2,4.1-8.3,6.2
		l6.2,6.2l7.2-7.2L540.6,267.9z M529.3,257.6c-2.1,1-3.1,3.1-4.1,4.1s-2.1,2.1-3.1,3.1l7.2,7.2c3.1-2.1,5.2-4.1,8.3-6.2L529.3,257.6
		z M537.5,264.8c-3.1,2.1-5.2,5.2-7.2,7.2l2.1,2.1l1-1c2.1-2.1,4.1-4.1,6.2-6.2L537.5,264.8z M513.8,230.7v15.5
		c3.1-3.1,6.2-6.2,10.3-9.3l0,0v-14.4C521,225.6,516.9,227.6,513.8,230.7z M514.8,213.2C514.8,213.2,513.8,213.2,514.8,213.2
		l-1,12.4c3.1-3.1,7.2-6.2,10.3-9.3v-13.4C521,206,517.9,210.1,514.8,213.2z M524.1,252.4v-10.3c-3.1,3.1-7.2,6.2-10.3,9.3v5.2
		l3.1,3.1C519,257.6,522.1,254.5,524.1,252.4L524.1,252.4z M540.6,267.9c-3.1,2.1-5.2,4.1-8.3,6.2l6.2,6.2l7.2-7.2L540.6,267.9z
		 M529.3,257.6c-2.1,1-3.1,3.1-4.1,4.1s-2.1,2.1-3.1,3.1l7.2,7.2c3.1-2.1,5.2-4.1,8.3-6.2L529.3,257.6z M537.5,264.8
		c-3.1,2.1-5.2,5.2-7.2,7.2l2.1,2.1l1-1c2.1-2.1,4.1-4.1,6.2-6.2L537.5,264.8z M513.8,230.7v15.5c3.1-3.1,6.2-6.2,10.3-9.3l0,0
		v-14.4C521,225.6,516.9,227.6,513.8,230.7z M514.8,213.2C514.8,213.2,513.8,213.2,514.8,213.2l-1,12.4c3.1-3.1,7.2-6.2,10.3-9.3
		v-13.4C521,206,517.9,210.1,514.8,213.2z M524.1,252.4v-10.3c-3.1,3.1-7.2,6.2-10.3,9.3v5.2l3.1,3.1
		C519,257.6,522.1,254.5,524.1,252.4L524.1,252.4z M540.6,267.9c-3.1,2.1-5.2,4.1-8.3,6.2l6.2,6.2l7.2-7.2L540.6,267.9z
		 M529.3,257.6c-2.1,1-3.1,3.1-4.1,4.1s-2.1,2.1-3.1,3.1l7.2,7.2c3.1-2.1,5.2-4.1,8.3-6.2L529.3,257.6z M537.5,264.8
		c-3.1,2.1-5.2,5.2-7.2,7.2l2.1,2.1l1-1c2.1-2.1,4.1-4.1,6.2-6.2L537.5,264.8z M513.8,230.7v15.5c3.1-3.1,6.2-6.2,10.3-9.3l0,0
		v-14.4C521,225.6,516.9,227.6,513.8,230.7z M514.8,213.2C514.8,213.2,513.8,213.2,514.8,213.2l-1,12.4c3.1-3.1,7.2-6.2,10.3-9.3
		v-13.4C521,206,517.9,210.1,514.8,213.2z M537.5,174c-3.1,3.1-6.2,5.2-9.3,8.3c3.1,0,6.2,1,9.3,2.1c3.1-3.1,6.2-5.2,9.3-8.3
		C543.7,176,540.6,175,537.5,174z M564.4,186.4c-2.1,2.1-5.2,5.2-7.2,7.2c3.1,2.1,6.2,5.2,9.3,7.2c3.1-2.1,5.2-4.1,8.3-7.2
		C570.6,191.5,567.5,188.4,564.4,186.4z M477.7,301.9c-3.1,2.1-5.2,5.2-8.3,7.2c3.1,2.1,5.2,4.1,8.3,6.2c3.1-2.1,5.2-5.2,8.3-7.2
		C482.8,306.1,479.8,304,477.7,301.9z M455,268.9c-3.1,3.1-5.2,5.2-8.3,8.3c3.1,7.2,6.2,14.4,11.4,20.6c2.1-2.1,5.2-5.2,7.2-7.2
		C461.2,284.4,457,277.2,455,268.9z M451.9,254.5h-10.3c0,3.1,1,6.2,1,9.3C445.7,261.7,448.8,258.6,451.9,254.5L451.9,254.5z
		 M467.4,291.6c-3.1,2.1-5.2,4.1-8.3,6.2c2.1,3.1,5.2,5.2,7.2,8.3c2.1-2.1,5.2-5.2,7.2-7.2C471.5,296.8,469.4,294.7,467.4,291.6z
		 M596.4,240c-1-6.2-2.1-12.4-4.1-17.5c-3.1,3.1-5.2,5.2-8.3,8.3c2.1,6.2,3.1,12.4,3.1,18.6l0,0c0,27.9-17.5,51.6-41.3,61.9
		c-8.3,3.1-16.5,5.2-25.8,5.2c-10.3,0-20.6-2.1-28.9-7.2c-3.1,2.1-6.2,5.2-8.3,7.2c11.4,6.2,23.7,10.3,38.2,10.3c3.1,0,5.2,0,8.3,0
		c39.2-4.1,69.1-37.2,69.1-77.4C596.4,246.2,596.4,243.1,596.4,240z M574.7,195.6c-2.1,2.1-5.2,4.1-7.2,7.2
		c6.2,6.2,11.4,14.4,14.4,23.7c3.1-2.1,6.2-5.2,8.3-7.2C587.1,210.1,580.9,202.9,574.7,195.6z M548.9,178.1
		c-3.1,3.1-5.2,5.2-8.3,8.3c4.1,1,8.3,3.1,11.4,5.2c3.1-2.1,5.2-5.2,8.3-7.2C557.2,182.2,553,180.2,548.9,178.1z M524.1,252.4v-10.3
		c-3.1,3.1-7.2,6.2-10.3,9.3v5.2l3.1,3.1C519,257.6,522.1,254.5,524.1,252.4L524.1,252.4z M540.6,267.9c-3.1,2.1-5.2,4.1-8.3,6.2
		l6.2,6.2l7.2-7.2L540.6,267.9z M529.3,257.6c-2.1,1-3.1,3.1-4.1,4.1s-2.1,2.1-3.1,3.1l7.2,7.2c3.1-2.1,5.2-4.1,8.3-6.2L529.3,257.6
		z M537.5,264.8c-3.1,2.1-5.2,5.2-7.2,7.2l2.1,2.1l1-1c2.1-2.1,4.1-4.1,6.2-6.2L537.5,264.8z M513.8,230.7v15.5
		c3.1-3.1,6.2-6.2,10.3-9.3l0,0v-14.4C521,225.6,516.9,227.6,513.8,230.7z M524.1,252.4v-10.3c-3.1,3.1-7.2,6.2-10.3,9.3v5.2
		l3.1,3.1C519,257.6,522.1,254.5,524.1,252.4L524.1,252.4z M540.6,267.9c-3.1,2.1-5.2,4.1-8.3,6.2l6.2,6.2l7.2-7.2L540.6,267.9z
		 M529.3,257.6c-2.1,1-3.1,3.1-4.1,4.1s-2.1,2.1-3.1,3.1l7.2,7.2c3.1-2.1,5.2-4.1,8.3-6.2L529.3,257.6z M537.5,264.8
		c-3.1,2.1-5.2,5.2-7.2,7.2l2.1,2.1l1-1c2.1-2.1,4.1-4.1,6.2-6.2L537.5,264.8z M513.8,230.7v15.5c3.1-3.1,6.2-6.2,10.3-9.3l0,0
		v-14.4C521,225.6,516.9,227.6,513.8,230.7z M514.8,213.2C514.8,213.2,513.8,213.2,514.8,213.2l-1,12.4c3.1-3.1,7.2-6.2,10.3-9.3
		v-13.4C521,206,517.9,210.1,514.8,213.2z M519,171.9c-2.1,0-4.1,0-6.2,0c-5.2,4.1-9.3,9.3-14.4,13.4c4.1-2.1,9.3-2.1,13.4-3.1
		c4.1-3.1,8.3-7.2,12.4-10.3C522.1,171.9,521,171.9,519,171.9z M524.1,252.4v-10.3c-3.1,3.1-7.2,6.2-10.3,9.3v5.2l3.1,3.1
		C519,257.6,522.1,254.5,524.1,252.4L524.1,252.4z M540.6,267.9c-3.1,2.1-5.2,4.1-8.3,6.2l6.2,6.2l7.2-7.2L540.6,267.9z
		 M529.3,257.6c-2.1,1-3.1,3.1-4.1,4.1s-2.1,2.1-3.1,3.1l7.2,7.2c3.1-2.1,5.2-4.1,8.3-6.2L529.3,257.6z M537.5,264.8
		c-3.1,2.1-5.2,5.2-7.2,7.2l2.1,2.1l1-1c2.1-2.1,4.1-4.1,6.2-6.2L537.5,264.8z M513.8,230.7v15.5c3.1-3.1,6.2-6.2,10.3-9.3l0,0
		v-14.4C521,225.6,516.9,227.6,513.8,230.7z M514.8,213.2C514.8,213.2,513.8,213.2,514.8,213.2l-1,12.4c3.1-3.1,7.2-6.2,10.3-9.3
		v-13.4C521,206,517.9,210.1,514.8,213.2z M524.1,252.4v-10.3c-3.1,3.1-7.2,6.2-10.3,9.3v5.2l3.1,3.1
		C519,257.6,522.1,254.5,524.1,252.4L524.1,252.4z M540.6,267.9c-3.1,2.1-5.2,4.1-8.3,6.2l6.2,6.2l7.2-7.2L540.6,267.9z
		 M529.3,257.6c-2.1,1-3.1,3.1-4.1,4.1s-2.1,2.1-3.1,3.1l7.2,7.2c3.1-2.1,5.2-4.1,8.3-6.2L529.3,257.6z M537.5,264.8
		c-3.1,2.1-5.2,5.2-7.2,7.2l2.1,2.1l1-1c2.1-2.1,4.1-4.1,6.2-6.2L537.5,264.8z M513.8,230.7v15.5c3.1-3.1,6.2-6.2,10.3-9.3l0,0
		v-14.4C521,225.6,516.9,227.6,513.8,230.7z M514.8,213.2C514.8,213.2,513.8,213.2,514.8,213.2l-1,12.4c3.1-3.1,7.2-6.2,10.3-9.3
		v-13.4C521,206,517.9,210.1,514.8,213.2z M456,182.2c-2.1,7.2-5.2,13.4-7.2,20.6v1c5.2-4.1,10.3-9.3,14.4-13.4L456,182.2z
		 M524.1,252.4v-10.3c-3.1,3.1-7.2,6.2-10.3,9.3v5.2l3.1,3.1C519,257.6,522.1,254.5,524.1,252.4L524.1,252.4z M540.6,267.9
		c-3.1,2.1-5.2,4.1-8.3,6.2l6.2,6.2l7.2-7.2L540.6,267.9z M529.3,257.6c-2.1,1-3.1,3.1-4.1,4.1s-2.1,2.1-3.1,3.1l7.2,7.2
		c3.1-2.1,5.2-4.1,8.3-6.2L529.3,257.6z M537.5,264.8c-3.1,2.1-5.2,5.2-7.2,7.2l2.1,2.1l1-1c2.1-2.1,4.1-4.1,6.2-6.2L537.5,264.8z
		 M513.8,230.7v15.5c3.1-3.1,6.2-6.2,10.3-9.3l0,0v-14.4C521,225.6,516.9,227.6,513.8,230.7z M514.8,213.2
		C514.8,213.2,513.8,213.2,514.8,213.2l-1,12.4c3.1-3.1,7.2-6.2,10.3-9.3v-13.4C521,206,517.9,210.1,514.8,213.2z M524.1,252.4
		v-10.3c-3.1,3.1-7.2,6.2-10.3,9.3v5.2l3.1,3.1C519,257.6,522.1,254.5,524.1,252.4L524.1,252.4z M540.6,267.9
		c-3.1,2.1-5.2,4.1-8.3,6.2l6.2,6.2l7.2-7.2L540.6,267.9z M529.3,257.6c-2.1,1-3.1,3.1-4.1,4.1s-2.1,2.1-3.1,3.1l7.2,7.2
		c3.1-2.1,5.2-4.1,8.3-6.2L529.3,257.6z M537.5,264.8c-3.1,2.1-5.2,5.2-7.2,7.2l2.1,2.1l1-1c2.1-2.1,4.1-4.1,6.2-6.2L537.5,264.8z
		 M513.8,230.7v15.5c3.1-3.1,6.2-6.2,10.3-9.3l0,0v-14.4C521,225.6,516.9,227.6,513.8,230.7z M513.8,202.9v3.1c1-1,3.1-2.1,4.1-3.1
		H513.8z M514.8,213.2C514.8,213.2,513.8,213.2,514.8,213.2l-1,12.4c3.1-3.1,7.2-6.2,10.3-9.3v-13.4
		C521,206,517.9,210.1,514.8,213.2z"/>
</g>
<path class="st0" d="M146.6,154.8c-2.1,2.1-4.1,4.1-6.2,6.2l-1,1l-2.1-2.1c3.1-2.1,5.2-4.1,8.3-7.2L146.6,154.8z"/>
<path class="st0" d="M146.6,154.8c-2.1,2.1-4.1,4.1-6.2,6.2l-1,1l-2.1-2.1c3.1-2.1,5.2-4.1,8.3-7.2L146.6,154.8z"/>
<path class="st0" d="M146.6,154.8c-2.1,2.1-4.1,4.1-6.2,6.2l-1,1l-2.1-2.1c3.1-2.1,5.2-4.1,8.3-7.2L146.6,154.8z"/>
<path class="st0" d="M146.6,154.8c-2.1,2.1-4.1,4.1-6.2,6.2l-1,1l-2.1-2.1c3.1-2.1,5.2-4.1,8.3-7.2L146.6,154.8z"/>
<path class="st0" d="M146.6,154.8c-2.1,2.1-4.1,4.1-6.2,6.2l-1,1l-2.1-2.1c3.1-2.1,5.2-4.1,8.3-7.2L146.6,154.8z"/>
<path class="st0" d="M146.6,154.8c-2.1,2.1-4.1,4.1-6.2,6.2l-1,1l-2.1-2.1c3.1-2.1,5.2-4.1,8.3-7.2L146.6,154.8z"/>
<path class="st0" d="M146.6,154.8c-2.1,2.1-4.1,4.1-6.2,6.2l-1,1l-2.1-2.1c3.1-2.1,5.2-4.1,8.3-7.2L146.6,154.8z"/>
<path class="st0" d="M146.6,154.8c-2.1,2.1-4.1,4.1-6.2,6.2l-1,1l-2.1-2.1c3.1-2.1,5.2-4.1,8.3-7.2L146.6,154.8z"/>
<path class="st0" d="M146.6,154.8c-2.1,2.1-4.1,4.1-6.2,6.2l-1,1l-2.1-2.1c3.1-2.1,5.2-4.1,8.3-7.2L146.6,154.8z"/>
<path class="st0" d="M146.6,154.8c-2.1,2.1-4.1,4.1-6.2,6.2l-1,1l-2.1-2.1c3.1-2.1,5.2-4.1,8.3-7.2L146.6,154.8z"/>
<path class="st0" d="M71.2,78.5c-4.1,4.1-9.3,8.3-14.4,12.4c0,0,0,0,0-1c2.1-7.2,4.1-13.4,7.2-20.6L71.2,78.5z"/>
<path class="st0" d="M90.8,97.1c-2.1,2.1-3.1,3.1-4.1,4.1c-5.2,2.1-9.3,3.1-14.4,5.2c-1,0-3.1,1-5.2,1c6.2-5.2,12.4-10.3,18.6-15.5
	L90.8,97.1z"/>
<path class="st0" d="M114.6,60.9c-7.2,6.2-15.5,12.4-22.7,19.6l0,0c-1,1-2.1,1-3.1,2.1c-2.1,2.1-4.1,4.1-6.2,6.2
	c-8.3,7.2-16.5,14.4-23.7,20.6c-2.1,1-5.2,2.1-7.2,2.1c1-4.1,2.1-8.3,3.1-12.4c10.3-8.3,20.6-17.5,32-27.9
	C95,66.1,104.3,63,114.6,60.9z"/>
<path class="st0" d="M132.1,59.9c-4.1,3.1-8.3,7.2-12.4,10.3c-5.2,1-9.3,2.1-13.4,3.1c5.2-4.1,9.3-8.3,14.4-13.4c2.1,0,4.1,0,6.2,0
	S130.1,59.9,132.1,59.9z"/>
<path class="st0" d="M125.9,90.9c-1,1-3.1,2.1-4.1,3.1v-3.1H125.9z"/>
<path class="st0" d="M132.1,90.9v12.4c-3.1,3.1-7.2,6.2-10.3,10.3v-12.4h1C125.9,98.1,129,94,132.1,90.9z"/>
<path class="st0" d="M132.1,124.9c-4.1,3.1-7.2,6.2-10.3,9.3v-15.5c3.1-3.1,7.2-5.2,10.3-8.3V124.9L132.1,124.9z"/>
<path class="st0" d="M132.1,140.4c-2.1,2.1-5.2,5.2-7.2,7.2l-3.1-3.1v-5.2c3.1-3.1,7.2-6.2,10.3-9.3V140.4L132.1,140.4z"/>
<path class="st0" d="M143.5,151.8c-3.1,2.1-5.2,4.1-8.3,6.2l-6.2-6.2c1-1,2.1-2.1,3.1-3.1s3.1-3.1,4.1-4.1L143.5,151.8z"/>
<path class="st0" d="M146.6,154.8c-2.1,2.1-4.1,4.1-6.2,6.2l-1,1l-2.1-2.1c3.1-2.1,5.2-4.1,8.3-7.2L146.6,154.8z"/>
<path class="st0" d="M153.8,162.1l-7.2,7.2l-6.2-6.2c3.1-2.1,5.2-4.1,8.3-6.2L153.8,162.1z"/>
<path class="st0" d="M74.3,178.6c-2.1,2.1-5.2,5.2-7.2,7.2c-5.2-6.2-9.3-13.4-11.4-20.6c3.1-3.1,5.2-5.2,8.3-8.3
	C65,165.2,69.2,172.4,74.3,178.6z"/>
<path class="st0" d="M81.6,186.8c-2.1,2.1-5.2,5.2-7.2,7.2c-3.1-2.1-5.2-5.2-7.2-8.3c3.1-2.1,5.2-4.1,8.3-6.2
	C77.4,182.7,79.5,184.8,81.6,186.8z"/>
<path class="st0" d="M93.9,196.1c-3.1,2.1-5.2,5.2-8.3,7.2c-3.1-2.1-6.2-4.1-8.3-6.2c3.1-3.1,5.2-5.2,8.3-7.2
	C87.8,192,90.8,194.1,93.9,196.1z"/>
<path class="st0" d="M152.8,199.2c-1,3.1-3.1,5.2-6.2,8.3c-3.1,3.1-6.2,4.1-7.2,5.2c-1,1-2.1,1-3.1,2.1c-3.1,0-5.2,0-8.3,0
	c-13.4,0-26.8-3.1-38.2-10.3c3.1-2.1,6.2-4.1,8.3-7.2c8.3,5.2,18.6,7.2,28.9,7.2C136.3,204.4,144.5,202.3,152.8,199.2z"/>
<path class="st0" d="M154.8,65.1c-2.1,3.1-5.2,5.2-9.3,8.3c-3.1-1-6.2-2.1-9.3-2.1c3.1-3.1,6.2-6.2,9.3-9.3
	C148.6,63,151.7,64,154.8,65.1z"/>
<path class="st0" d="M169.3,72.3c-3.1,2.1-5.2,4.1-8.3,7.2c-4.1-2.1-8.3-4.1-11.4-5.2c3.1-3.1,5.2-5.2,8.3-8.3
	C161,68.2,165.2,70.2,169.3,72.3z"/>
<path class="st0" d="M181.7,82.6c-3.1,2.1-5.2,4.1-8.3,7.2c-3.1-3.1-6.2-5.2-9.3-7.2c3.1-2.1,5.2-5.2,7.2-7.2
	C175.5,76.4,178.6,79.5,181.7,82.6z"/>
<path class="st0" d="M198.2,107.4c-3.1,2.1-5.2,4.1-8.3,7.2c-3.1-9.3-8.3-17.5-14.4-23.7c3.1-2.1,5.2-5.2,7.2-7.2
	C188.9,90.9,195.1,98.1,198.2,107.4z"/>
<path class="st0" d="M146.6,154.8c-2.1,2.1-4.1,4.1-6.2,6.2l-1,1l-2.1-2.1c3.1-2.1,5.2-4.1,8.3-7.2L146.6,154.8z"/>
<path class="st0" d="M146.6,154.8c-2.1,2.1-4.1,4.1-6.2,6.2l-1,1l-2.1-2.1c3.1-2.1,5.2-4.1,8.3-7.2L146.6,154.8z"/>
<path class="st0" d="M146.6,154.8c-2.1,2.1-4.1,4.1-6.2,6.2l-1,1l-2.1-2.1c3.1-2.1,5.2-4.1,8.3-7.2L146.6,154.8z"/>
<path class="st0" d="M146.6,154.8c-2.1,2.1-4.1,4.1-6.2,6.2l-1,1l-2.1-2.1c3.1-2.1,5.2-4.1,8.3-7.2L146.6,154.8z"/>
<path class="st0" d="M146.6,154.8c-2.1,2.1-4.1,4.1-6.2,6.2l-1,1l-2.1-2.1c3.1-2.1,5.2-4.1,8.3-7.2L146.6,154.8z"/>
<path class="st0" d="M146.6,154.8c-2.1,2.1-4.1,4.1-6.2,6.2l-1,1l-2.1-2.1c3.1-2.1,5.2-4.1,8.3-7.2L146.6,154.8z"/>
<path class="st0" d="M146.6,154.8c-2.1,2.1-4.1,4.1-6.2,6.2l-1,1l-2.1-2.1c3.1-2.1,5.2-4.1,8.3-7.2L146.6,154.8z"/>
<path class="st0" d="M146.6,154.8c-2.1,2.1-4.1,4.1-6.2,6.2l-1,1l-2.1-2.1c3.1-2.1,5.2-4.1,8.3-7.2L146.6,154.8z"/>
<path class="st0" d="M146.6,154.8c-2.1,2.1-4.1,4.1-6.2,6.2l-1,1l-2.1-2.1c3.1-2.1,5.2-4.1,8.3-7.2L146.6,154.8z"/>
<path class="st0" d="M146.6,154.8c-2.1,2.1-4.1,4.1-6.2,6.2l-1,1l-2.1-2.1c3.1-2.1,5.2-4.1,8.3-7.2L146.6,154.8z"/>
</svg>
