<?xml version="1.0" encoding="utf-8"?>
<!-- Generator: Adobe Illustrator 23.0.0, SVG Export Plug-In . SVG Version: 6.00 Build 0)  -->
<svg version="1.1" id="Layer_1" xmlns="http://www.w3.org/2000/svg" xmlns:xlink="http://www.w3.org/1999/xlink" x="0px" y="0px"
	 viewBox="0 0 256 256" style="enable-background:new 0 0 256 256;" xml:space="preserve">
<style type="text/css">
	.st0{opacity:0.8;fill:#0E0E17;}
	.st1{fill:#0E0E17;}
	.st2{fill:none;stroke:#F75049;stroke-miterlimit:10;}
	.st3{fill:#F75049;}
</style>
<g>
	<g>
		<path class="st0" d="M218.1,40.1h-67.5c-6.8-6.3-13.6-12.7-20.4-19.1H37.7c-2.3,2.2-4.6,4.5-6.9,6.7v200.1l8,8h160.9
			c9-9.8,17.9-19.7,26.8-29.5V46.8C223.7,44.6,220.9,42.4,218.1,40.1z M218.3,168c-2.7,3.4-5.4,7-8.1,10.4v40.6
			c-2.6,2.6-5.3,5.1-7.9,7.7H48.9c-2.6-2.6-5.2-5.2-7.8-7.9v-40.4c-2.6-3.4-5.3-7-7.9-10.4V95.5c2.6-2.3,5.3-4.5,7.9-6.8V50.3
			c2.6-2.6,5.2-5.3,7.8-7.9h153.3c2.7,2.7,5.3,5.4,8,8.1v38.3c2.6,2.2,5.3,4.5,8,6.8V168z"/>
		<path class="st1" d="M218.1,40.1h-67.5c-6.8-6.3-13.6-12.7-20.4-19.1H37.7c-2.3,2.2-4.6,4.5-6.9,6.7v200.1l8,8h160.9
			c9-9.8,17.9-19.7,26.8-29.5V46.8C223.7,44.6,220.9,42.4,218.1,40.1z M218.3,168c-2.7,3.4-5.4,7-8.1,10.4v40.6
			c-2.6,2.6-5.3,5.1-7.9,7.7H48.9c-2.6-2.6-5.2-5.2-7.8-7.9v-40.4c-2.6-3.4-5.3-7-7.9-10.4V95.5c2.6-2.3,5.3-4.5,7.9-6.8V50.3
			c2.6-2.6,5.2-5.3,7.8-7.9h153.3c2.7,2.7,5.3,5.4,8,8.1v38.3c2.6,2.2,5.3,4.5,8,6.8V168z"/>
		<g>
			<path class="st1" d="M218.3,95.7V168c-2.7,3.4-5.4,7-8.1,10.4v40.6c-2.6,2.6-5.3,5.1-7.9,7.7H48.9c-2.6-2.6-5.2-5.2-7.8-7.9
				v-40.4c-2.6-3.4-5.3-7-7.9-10.4V95.5c2.6-2.3,5.3-4.5,7.9-6.8V50.3c2.6-2.6,5.2-5.3,7.8-7.9h153.3c2.7,2.7,5.3,5.4,8,8.1v38.3
				C212.9,91.1,215.6,93.4,218.3,95.7z"/>
		</g>
	</g>
	<path class="st2" d="M218.1,40.1h-67.5c-6.8-6.3-13.6-12.7-20.4-19.1H37.7c-2.3,2.2-4.6,4.5-6.9,6.7v200.1l8,8h160.9
		c9-9.8,17.9-19.7,26.8-29.5V46.8C223.7,44.6,220.9,42.4,218.1,40.1z M218.3,168c-2.7,3.4-5.4,7-8.1,10.4v40.6
		c-2.6,2.6-5.3,5.1-7.9,7.7H48.9c-2.6-2.6-5.2-5.2-7.8-7.9v-40.4c-2.6-3.4-5.3-7-7.9-10.4V95.5c2.6-2.3,5.3-4.5,7.9-6.8V50.3
		c2.6-2.6,5.2-5.3,7.8-7.9h153.3c2.7,2.7,5.3,5.4,8,8.1v38.3c2.6,2.2,5.3,4.5,8,6.8V168z"/>
</g>
<g>
	<g>
		<path class="st3" d="M129.2,90c-4.9-0.9-9.4-0.8-13.4,0c0.9,4,2.8,7.4,5,9l9.4-8.8C129.8,90.2,129.5,90.1,129.2,90z M131.4,90.6
			l-1.9,4l-5.8,5.5c3-0.2,6-4.3,7.9-9.4C131.5,90.6,131.4,90.6,131.4,90.6z M126.5,70.1c-0.4,0-0.9,0-1.4,0.1
			c-8.8,1.1-11,10.3-9.7,18.1c5.3-0.6,10.9-0.5,16.5,0.4c0.1,0,0.2,0,0.3,0C134.8,80.3,134.4,70.1,126.5,70.1z M106,92.9
			c-1.8,0.7-3.3,1.4-4.7,2c0,0-3.9,1.8-8.6,5.1c2.3,4.2,5.6,7.2,8.3,6.6C104.4,106,106.2,99.4,106,92.9z M99.2,80.2
			c-1-0.1-2,0.1-3.2,0.6c-6.9,2.9-6.8,10.7-4.2,17c4-2.8,8.7-5.5,14.2-7.3C105.3,85.1,103.2,80.4,99.2,80.2z M78.5,98.2
			c-1.1,0-2.3,0.4-3.6,1.3c-3.4,2.6-4.1,6.5-3.3,10.4c2.4,0.6,4.4,1.4,5.8,2c1.2-1.7,3.6-4.7,7-8C83,100.6,81,98.2,78.5,98.2z
			 M85.4,106.4c-1.1,1.1-2.1,2.4-3,3.7c-1.6,2.2-2.6,4.5-2.6,4.5c-0.1,0.3-0.2,0.5-0.3,0.6c-1.1-0.3-2.2-0.6-3.3-0.8
			c-0.8-0.2-2.1-0.4-3.3-0.6c2.7,5.9,8.2,10.7,11.4,9.2C87.4,121.5,87.5,113.1,85.4,106.4z M153,172c-2.1,0.3-4.1,0.8-6,1.5
			c-3.7,1.4-6.5,3.5-6.8,5.9v0c0,0.3,0,0.6,0,0.9c0.1,1,0.2,2,0.1,2.9L153,172z M164.6,174l-7.6,7.1c-4.4,1.1-9,1.9-13.9,2.2
			c-1.3,1.6-2.7,3.1-4.2,4.5c-0.9,1.6-2.2,2.7-3.8,3.3c-3,2.4-6.1,4.4-9.4,6l5.6-5.5c-1.3-0.1-2.6-0.5-3.9-1.2l-9.4,8.1l-3.2,2.3
			c-0.6,0.1-1.2,0.2-1.8,0.3c-1-0.5-1.9-0.9-1.9-0.9l-3,0.6c0.3,0.2,0.5,0.4,0.8,0.5c0.1,0.1,0.2,0.1,0.2,0.2
			c7.3,4.8,15.5,7.7,23.9,7.7c14,0,30.2-13.2,33.3-29.8C166.8,177,166,175.3,164.6,174z M103,184.6c-0.6-0.1-1.2,0.4-1.2,0.4
			c0,0.8,1.1,1,1.2,0.5C103.1,185.1,103.6,184.8,103,184.6z M105.2,182.7c-0.6-0.2-1.2,0.4-1.2,0.4c0,0.8,1.1,1,1.2,0.5
			C105.3,183.1,105.8,182.8,105.2,182.7z M107.4,180.6c-0.6-0.2-1.2,0.4-1.2,0.4c0,0.8,1.1,1,1.2,0.5
			C107.6,181.1,108,180.8,107.4,180.6z M110.2,178c-1.2-0.3-2.5,0.8-2.5,0.8c0,1.5,2.1,1.9,2.5,1C110.6,178.9,111.4,178.3,110.2,178
			z M114.4,171.9c-1.2-0.7-2.5,1.7-2.5,1.7c0,3.3,2.1,4.2,2.5,2.2C114.7,173.9,115.6,172.6,114.4,171.9z M119.9,167
			c-1.2-0.6-2.5,1.5-2.5,1.5c0,2.8,2.1,3.6,2.5,1.9C120.3,168.7,121.1,167.5,119.9,167z M119,181l-16.2,15.9c1.2,1,2.5,2,3.8,3
			l0.3-0.7l14.8-13.2C120.1,184.1,119.3,182.5,119,181z M127.6,159.8c-0.6-0.2-1.2,0.4-1.2,0.4c0,0.8,1.1,1,1.2,0.5
			C127.8,160.3,128.2,160,127.6,159.8z M137.5,152.8c-0.9-0.3-1.9,0.8-1.9,0.8c0,1.4,1.7,1.8,1.9,0.9
			C137.7,153.7,138.4,153.1,137.5,152.8z M141,149.3c-0.6-0.1-1.2,0.4-1.2,0.4c0,0.8,1.1,1,1.2,0.5
			C141.2,149.7,141.6,149.4,141,149.3z M143.3,147.2c-0.6-0.1-1.2,0.4-1.2,0.4c0,0.8,1.1,1,1.2,0.5
			C143.5,147.7,143.9,147.4,143.3,147.2z M146.1,144.6c-1.2-0.3-2.5,0.8-2.5,0.8c0,1.5,2.1,1.9,2.5,1
			C146.4,145.5,147.3,144.9,146.1,144.6z M150.3,138.6c-1.2-0.7-2.5,1.7-2.5,1.7c0,3.3,2.2,4.1,2.5,2.2
			C150.6,140.5,151.5,139.2,150.3,138.6z M144.8,155.8l-1.9,1.9c4.8-3.2,9.5-6.5,13.2-10.2L144.8,155.8z M153.7,118.8L89.4,181
			c0.7,1.2,1.4,2.3,2.2,3.4l56.5-55.3l9.2-8.4C156.3,120,155,119.4,153.7,118.8z M115.5,119.5l-26.4,24.4l-2.7,2.9l-4.2,4.7
			c-0.1,0.9-0.3,1.8-0.3,2.7l5.7-5.7l12.9-11.7L121,118C119.2,118.4,117.3,118.9,115.5,119.5z M138.3,116c-1,0-2.1,0-3.1,0h0
			l-13.1,10.3l-39.3,38.5c0.7,3.1,1.7,6.2,3,9.2l60.8-57.3C144,116.3,141.2,116.1,138.3,116z M157.4,120.8
			c-1.5,8.7-7.5,15.1-8.9,16.6c0.9-0.4,2.1-0.9,3.3-1.8c1.8-1.3,2.9-2.6,3.6-3.6c1.8-1.9,4-4.5,5.7-7.6c0,0,0-0.1,0.1-0.1
			C160.2,122.9,158.9,121.7,157.4,120.8z M178.1,66l-10.5-2.5c-15.6,1-23.6,16-24.3,28.1v0c0.6,0.2,1.2,0.4,1.7,0.6l4.6-4.3v3.7
			l-1.9,1.7c3.4,1.6,6.5,3.5,9.1,5.6l21.6-17.1C181.3,75.4,181.8,69.3,178.1,66z M158.1,83.9c-0.2,0.3-3.2,1.5-3.7,1.3
			c-0.5-0.2-0.5-1.3-0.5-1.3l-0.4,0.1l8-5.4C161.3,78.8,158.4,83.6,158.1,83.9z M170.6,94.2l-9.3,8.8
			C164.5,100.8,167.7,97.7,170.6,94.2z"/>
	</g>
	<path class="st3" d="M85.4,106.4c-1.1,1.1-2.1,2.4-3,3.7c-1.6,2.2-2.6,4.5-2.6,4.5c-0.1,0.3-0.2,0.5-0.3,0.6
		c-1.1-0.3-2.2-0.6-3.3-0.8c-0.8-0.2-2.1-0.4-3.3-0.6c2.7,5.9,8.2,10.7,11.4,9.2C87.4,121.5,87.5,113.1,85.4,106.4z M106,92.9
		c-1.8,0.7-3.3,1.4-4.7,2c0,0-3.9,1.8-8.6,5.1c2.3,4.2,5.6,7.2,8.3,6.6C104.4,106,106.2,99.4,106,92.9z M129.2,90
		c-4.9-0.9-9.4-0.8-13.4,0c0.9,4,2.8,7.4,5,9l9.4-8.8C129.8,90.2,129.5,90.1,129.2,90z M131.4,90.6l-1.9,4l-5.8,5.5
		c3-0.2,6-4.3,7.9-9.4C131.5,90.6,131.4,90.6,131.4,90.6z"/>
	<path class="st3" d="M140.2,179.4l6.8-5.9C143.3,174.9,140.5,177,140.2,179.4z M78.5,98.2c-1.1,0-2.3,0.4-3.6,1.3
		c-3.4,2.6-4.1,6.5-3.3,10.4c2.4,0.6,4.4,1.4,5.8,2c1.2-1.7,3.6-4.7,7-8C83,100.6,81,98.2,78.5,98.2z M99.2,80.2
		c-1-0.1-2,0.1-3.2,0.6c-6.9,2.9-6.8,10.7-4.2,17c4-2.8,8.7-5.5,14.2-7.3C105.3,85.1,103.2,80.4,99.2,80.2z M126.5,70.1
		c-0.4,0-0.9,0-1.4,0.1c-8.8,1.1-11,10.3-9.7,18.1c5.3-0.6,10.9-0.5,16.5,0.4c0.1,0,0.2,0,0.3,0C134.8,80.3,134.4,70.1,126.5,70.1z
		 M178.1,66c-3.3-1.2-6.8-2-10.5-2.5c-15.6,1-23.6,16-24.3,28.1v0c0.6,0.2,1.2,0.4,1.7,0.6l4.6-4.3v3.7l-1.9,1.7
		c3.4,1.6,6.5,3.5,9.1,5.6l21.6-17.1C181.3,75.4,181.8,69.3,178.1,66z M158.1,83.9c-0.2,0.3-3.2,1.5-3.7,1.3
		c-0.5-0.2-0.5-1.3-0.5-1.3l-0.4,0.1l8-5.4C161.3,78.8,158.4,83.6,158.1,83.9z M161.3,103c3.2-2.2,6.5-5.3,9.3-8.8L161.3,103z
		 M157.4,120.7C157.4,120.7,157.4,120.8,157.4,120.7C157.4,120.7,157.4,120.7,157.4,120.7L157.4,120.7z M109,201.5l-1.2-0.4l0.4-0.1
		c-0.5-0.4-1.1-0.7-1.6-1.1l-0.8,1.9c1.1,0,2.2,0,3.4,0c0,0,0.1,0,0.2,0L109,201.5z"/>
</g>
</svg>
