<?xml version="1.0" encoding="utf-8"?>
<!-- Generator: Adobe Illustrator 23.0.0, SVG Export Plug-In . SVG Version: 6.00 Build 0)  -->
<svg version="1.1" id="Layer_1" xmlns="http://www.w3.org/2000/svg" xmlns:xlink="http://www.w3.org/1999/xlink" x="0px" y="0px"
	 viewBox="0 0 256 256" style="enable-background:new 0 0 256 256;" xml:space="preserve">
<style type="text/css">
	.st0{opacity:0.8;fill:#0E0E17;}
	.st1{fill:#0E0E17;}
	.st2{fill:none;stroke:#F75049;stroke-miterlimit:10;}
	.st3{fill:none;}
	.st4{fill:#CBA6F7;}
	.st5{fill:#F75049;}
</style>
<g>
	<g>
		<path class="st0" d="M218.1,40.1h-67.5c-6.8-6.3-13.6-12.7-20.4-19.1H37.7c-2.3,2.2-4.6,4.5-6.9,6.7v200.1l8,8h160.9
			c9-9.8,17.9-19.7,26.8-29.5V46.8C223.7,44.6,220.9,42.4,218.1,40.1z M218.3,168c-2.7,3.4-5.4,7-8.1,10.4v40.6
			c-2.6,2.6-5.3,5.1-7.9,7.7H48.9c-2.6-2.6-5.2-5.2-7.8-7.9v-40.4c-2.6-3.4-5.3-7-7.9-10.4V95.5c2.6-2.3,5.3-4.5,7.9-6.8V50.3
			c2.6-2.6,5.2-5.3,7.8-7.9h153.3c2.7,2.7,5.3,5.4,8,8.1v38.3c2.6,2.2,5.3,4.5,8,6.8V168z"/>
		<path class="st1" d="M218.1,40.1h-67.5c-6.8-6.3-13.6-12.7-20.4-19.1H37.7c-2.3,2.2-4.6,4.5-6.9,6.7v200.1l8,8h160.9
			c9-9.8,17.9-19.7,26.8-29.5V46.8C223.7,44.6,220.9,42.4,218.1,40.1z M218.3,168c-2.7,3.4-5.4,7-8.1,10.4v40.6
			c-2.6,2.6-5.3,5.1-7.9,7.7H48.9c-2.6-2.6-5.2-5.2-7.8-7.9v-40.4c-2.6-3.4-5.3-7-7.9-10.4V95.5c2.6-2.3,5.3-4.5,7.9-6.8V50.3
			c2.6-2.6,5.2-5.3,7.8-7.9h153.3c2.7,2.7,5.3,5.4,8,8.1v38.3c2.6,2.2,5.3,4.5,8,6.8V168z"/>
		<g>
			<path class="st1" d="M218.3,95.7V168c-2.7,3.4-5.4,7-8.1,10.4v40.6c-2.6,2.6-5.3,5.1-7.9,7.7H48.9c-2.6-2.6-5.2-5.2-7.8-7.9
				v-40.4c-2.6-3.4-5.3-7-7.9-10.4V95.5c2.6-2.3,5.3-4.5,7.9-6.8V50.3c2.6-2.6,5.2-5.3,7.8-7.9h153.3c2.7,2.7,5.3,5.4,8,8.1v38.3
				C212.9,91.1,215.6,93.4,218.3,95.7z"/>
		</g>
	</g>
	<path class="st2" d="M218.1,40.1h-67.5c-6.8-6.3-13.6-12.7-20.4-19.1H37.7c-2.3,2.2-4.6,4.5-6.9,6.7v200.1l8,8h160.9
		c9-9.8,17.9-19.7,26.8-29.5V46.8C223.7,44.6,220.9,42.4,218.1,40.1z M218.3,168c-2.7,3.4-5.4,7-8.1,10.4v40.6
		c-2.6,2.6-5.3,5.1-7.9,7.7H48.9c-2.6-2.6-5.2-5.2-7.8-7.9v-40.4c-2.6-3.4-5.3-7-7.9-10.4V95.5c2.6-2.3,5.3-4.5,7.9-6.8V50.3
		c2.6-2.6,5.2-5.3,7.8-7.9h153.3c2.7,2.7,5.3,5.4,8,8.1v38.3c2.6,2.2,5.3,4.5,8,6.8V168z"/>
</g>
<path class="st3" d="M170.5,88.1c2.9,0,2.9,2.8,2.9,6.7v2.8"/>
<path class="st3" d="M150.6,90L161,89c1.9,0,2.9,0,3.8,0"/>
<line class="st3" x1="95.5" y1="116.6" x2="95.5" y2="105.2"/>
<path class="st3" d="M87.9,176.4c-2.8-1-5.7-1.9-9.5-1.9c-7.6,0-12.3,2.9-14.3,6.7c-2.8,3.8-3.8,8.5-3.8,11.4
	c0,3.8,1.9,8.5,4.7,12.4c2.9,3.8,7.6,5.7,15.2,5.7c8.5,0,14.3-1.9,17.1-6.6c1.9-1.9,2.8-4.8,3.8-8.6c0-0.9,0-1.9,0.9-2.9
	c0-0.9,0-1.9,0-2.8c0-1,0-1,0-1.9s0-2.8,0-2.8v-4.8"/>
<polyline class="st3" points="102.1,176.4 102.1,165 102.1,162.2 102.1,136.5 102.1,131.8 102.1,123.2 "/>
<path class="st3" d="M95.5,168.8v-25.6c-6.7,6.6-14.3,13.3-20.9,19.9c6.6-7.6,14.2-16.1,21.8-23.8v-9.5"/>
<path class="st3" d="M143.9,90.9l-10.4,1.9l-17.1,1.9h-1.9c-4.8,1-8.5,1.9-10.4,2.8c-0.9,0-0.9,1-0.9,1c-1,1.9-1,4.8-1,8.5v1.9"/>
<line class="st3" x1="95.5" y1="100.4" x2="95.5" y2="90"/>
<path class="st3" d="M129.7,58.6h-3.8c-2.9,2.8-6.7,5.7-9.5,8.6l-7.6,0.9C95.5,70,95.5,71,95.5,81.4v2.8"/>
<path class="st3" d="M175.3,58.6c5.7,0,5.7,2.8,5.7,11.4v5.7v3.8v13.3v1.9"/>
<path class="st3" d="M180,125.1L180,125.1c-0.9,0.9-0.9,0.9-1.9,1.9C179.1,126.1,180,125.1,180,125.1z"/>
<path class="st3" d="M180,125.1L180,125.1c1-0.9,1-0.9,1.9-1.9C181.9,124.2,181,125.1,180,125.1z"/>
<path class="st3" d="M180,146c-2.9,1.9-4.8,2.9-6.6,4.8v-14.3c1.9-1.9,3.8-3.8,6.6-5.7V146z"/>
<path class="st3" d="M174.3,167.9L174.3,167.9C174.3,168.8,173.4,168.8,174.3,167.9L174.3,167.9z"/>
<path class="st4" d="M102.1,123.2v9.5c-2.8,1.9-4.8,3.8-6.7,6.6v-9.5C97.4,127,100.2,125.1,102.1,123.2z"/>
<path class="st4" d="M95.5,143.2c1.9-1.9,4.8-3.8,6.7-5.7v25.6c-1.9,1.9-4.8,3.8-6.7,5.7V143.2z"/>
<path class="st4" d="M102.1,176.4c-7.6,7.6-13.3,14.3-19.9,21.8c6.6-5.7,13.3-11.4,19.9-17.1v4.8c0,0,0,1.9,0,2.8c0,1,0,1.9,0,1.9
	c0,0.9,0,1.9,0,2.8c0,1,0,1.9-0.9,2.9c-1,2.9-1.9,5.7-3.8,8.6c-2.8,3.8-8.6,5.7-17.1,5.7c-7.6,0-12.3-2.9-15.2-5.7
	c-2.8-3.8-4.7-7.6-4.7-12.4c0-3.8,0.9-7.6,3.8-11.4c2.8-3.8,7.6-6.7,14.3-6.7c3.8,0,6.7,1,9.5,1.9c-2.8,2.8-5.7,5.7-8.5,8.6
	c2.8-2.9,5.7-4.8,9.5-7.6c1.9,0.9,2.9,1.9,4.8,2.9c1,0.9,1.9,0.9,2.9,1.9v-10.4c1.9-1.9,4.8-3.8,6.6-5.7v10.5H102.1z"/>
<path class="st4" d="M95.5,105.2c2.9-1.9,4.8-3.8,7.6-6.7c-1,1.9-1,4.8-1,8.5v1.9c-1.9,2.8-3.8,4.8-6.7,7.6V105.2z"/>
<path class="st4" d="M101.2,79.5c-1.9,0.9-3.8,2.8-5.7,4.8v-2.8c0-10.5,0-11.4,13.3-14.3l7.6-1C110.7,71,105.9,74.8,101.2,79.5z"/>
<path class="st4" d="M139.2,63.4c-9.5,7.6-19,15.2-28.5,23.8c-4.8,4.8-9.5,8.6-15.2,13.3V90c5.7-5.7,12.3-11.4,18.1-17.1
	c2.8-1.9,5.7-4.8,8.5-6.7L139.2,63.4z"/>
<path class="st4" d="M155.3,61.5c-11.4,9.5-25.7,20.9-39,34.2h-1.9c-4.8,0-8.5,1-10.4,1.9c6.7-4.8,13.3-10.4,19-16.1
	c6.6-5.7,13.3-12.3,19-18.1L155.3,61.5z"/>
<path class="st4" d="M180,70v5.7c-4.8,3.8-10.4,8.6-15.2,12.3c-1,0-2.9,0-3.8,0L150.6,90c8.5-8.5,17.1-18,26.6-26.6
	c-10.4,8.6-21.8,18.1-32.3,27.6l-10.5,1.9c15.2-15.2,26.6-25.6,35.2-34.2c1.9,0,3.8,0,5.7,0C180,58.6,180,61.5,180,70z"/>
<path class="st4" d="M180,79.5v13.3c-1.9,1.9-4.8,3.8-6.6,5.7v-3.8c0-3.8,0-6.7-3.8-6.7C174.3,85.2,177.2,82.4,180,79.5z"/>
<path class="st4" d="M180,125.1L180,125.1c-0.9,0.9-0.9,0.9-1.9,1.9C179.1,126.1,180,125.1,180,125.1z"/>
<path class="st4" d="M180,146c-2.9,1.9-4.8,2.9-6.6,4.8v-14.3c1.9-1.9,3.8-3.8,6.6-5.7V146z"/>
<path class="st5" d="M181.9,124.2c0,0-0.9,0.9-1.9,0.9l0,0C181,125.1,181.9,124.2,181.9,124.2z"/>
<path class="st5" d="M181.9,124.2c0,0-0.9,0.9-1.9,0.9l0,0C181,125.1,181.9,124.2,181.9,124.2z"/>
<path class="st5" d="M181.9,124.2c0,0-0.9,0.9-1.9,0.9l0,0C181,125.1,181.9,124.2,181.9,124.2z"/>
<path class="st5" d="M181.9,124.2c0,0-0.9,0.9-1.9,0.9l0,0C181,125.1,181.9,124.2,181.9,124.2z"/>
<path class="st5" d="M181.9,124.2c0,0-0.9,0.9-1.9,0.9l0,0C181,125.1,181.9,124.2,181.9,124.2z"/>
<path class="st5" d="M181.9,124.2c0,0-0.9,0.9-1.9,0.9l0,0C181,125.1,181.9,124.2,181.9,124.2z"/>
<path class="st5" d="M181.9,124.2c0,0-0.9,0.9-1.9,0.9l0,0C181,125.1,181.9,124.2,181.9,124.2z"/>
<path class="st5" d="M181.9,124.2c0,0-0.9,0.9-1.9,0.9l0,0C181,125.1,181.9,124.2,181.9,124.2z"/>
<path class="st5" d="M181.9,124.2c0,0-0.9,0.9-1.9,0.9l0,0C181,125.1,181.9,124.2,181.9,124.2z"/>
<path class="st5" d="M181.9,124.2c0,0-0.9,0.9-1.9,0.9l0,0C181,125.1,181.9,124.2,181.9,124.2z"/>
<path class="st5" d="M95.5,105.2c2.9-1.9,4.8-3.8,7.6-6.7c-1,1.9-1,4.8-1,8.5v1.9c-1.9,2.8-3.8,4.8-6.7,7.6V105.2z"/>
<path class="st5" d="M108.8,68.1l7.6-0.9c-5.7,3.8-10.5,7.6-15.2,12.3c-1.9,0.9-3.8,2.8-5.7,4.8v-2.8C95.5,71,95.5,70,108.8,68.1z"
	/>
<path class="st5" d="M129.7,58.6c-2.8,2.8-5.7,4.8-7.6,7.6h-6.6c3.8-2.8,6.6-5.7,9.5-7.6H129.7z"/>
<path class="st5" d="M122.1,66.2l17.1-2.8c-9.5,7.6-19,15.2-28.5,23.8c-4.8,4.8-9.5,8.6-15.2,13.3V90c5.7-5.7,12.3-11.4,18.1-17.1
	C116.4,71,119.2,68.1,122.1,66.2z"/>
<path class="st5" d="M155.3,61.5c-11.4,9.5-25.7,20.9-39,34.2h-1.9c-4.8,0-8.5,1-10.4,1.9c6.7-4.8,13.3-10.4,19-16.1
	c6.6-5.7,13.3-12.3,19-18.1L155.3,61.5z"/>
<path class="st5" d="M95.5,139.4v3.8c-6.7,6.6-14.3,13.3-20.9,19.9C81.2,155.5,87.9,147,95.5,139.4z"/>
<path class="st5" d="M102.1,131.8c-2.8,2.9-4.8,4.8-6.7,7.6v-9.5c1.9-2.8,4.8-4.8,6.7-6.7V131.8z"/>
<path class="st5" d="M95.5,168.8v-25.6c1.9-1.9,4.8-3.8,6.7-5.7v25.6C100.2,165,97.4,166.9,95.5,168.8z"/>
<path class="st5" d="M102.1,176.4c-7.6,7.6-13.3,14.3-19.9,21.8c6.6-5.7,13.3-11.4,19.9-17.1v4.8c0,0,0,1.9,0,2.8c0,1,0,1.9,0,1.9
	c0,0.9,0,1.9,0,2.8c0,1,0,1.9-0.9,2.9c-1,2.9-1.9,5.7-3.8,8.6c-2.8,3.8-8.6,5.7-17.1,5.7c-7.6,0-12.3-2.9-15.2-5.7
	c-2.8-3.8-4.7-7.6-4.7-12.4c0-3.8,0.9-7.6,3.8-11.4c2.8-3.8,7.6-6.7,14.3-6.7c3.8,0,6.7,1,9.5,1.9c-2.8,2.8-5.7,5.7-8.5,8.6
	c2.8-2.9,5.7-4.8,9.5-7.6c1.9,0.9,2.9,1.9,4.8,2.9c1,0.9,1.9,0.9,2.9,1.9v-10.4c1.9-1.9,4.8-3.8,6.6-5.7v10.5H102.1z"/>
<path class="st5" d="M180,94.7v15.2c-1.9,0.9-4.8,2.8-6.6,4.8v-13.3L180,94.7z"/>
<path class="st5" d="M180,112.8v-1.9c3.8-2.8,6.6-4.8,9.5-6.7C186.7,107.1,182.9,109.9,180,112.8z"/>
<path class="st5" d="M180,70v5.7c-4.8,3.8-10.4,8.6-15.2,12.3c-1,0-2.9,0-3.8,0L150.6,90c8.5-8.5,17.1-18,26.6-26.6
	c-10.4,8.6-21.8,18.1-32.3,27.6l-10.5,1.9c15.2-15.2,26.6-25.6,35.2-34.2c1.9,0,3.8,0,5.7,0C180,58.6,180,61.5,180,70z"/>
<path class="st5" d="M180,79.5v13.3c-1.9,1.9-4.8,3.8-6.6,5.7v-3.8c0-3.8,0-6.7-3.8-6.7C174.3,85.2,177.2,82.4,180,79.5z"/>
<path class="st5" d="M180,129.9v15.2c-2.9,1.9-4.8,2.9-6.6,4.8v-13.3C176.2,134.6,178.1,132.7,180,129.9z"/>
<path class="st5" d="M180,125.1c-0.9,0.9-1.9,0.9-1.9,1.9c-1,0.9-2.9,1.9-4.8,3.8v-13.3c1.9-1.9,3.8-3.8,6.6-5.7V125.1z"/>
<path class="st5" d="M176.2,128.9c0.9-1,0.9-1.9,1.9-1.9c0.9,0,1.9-1,1.9-1.9l0,0c-1.9,1.9-4.8,4.8-6.6,6.6v-0.9
	C174.3,129.9,175.3,129.9,176.2,128.9z"/>
<path class="st5" d="M180,125.1L180,125.1c-0.9,0.9-0.9,0.9-1.9,1.9C179.1,126.1,180,125.1,180,125.1z"/>
<path class="st5" d="M180,125.1L180,125.1c1-0.9,1-0.9,1.9-1.9C181.9,124.2,181,125.1,180,125.1z"/>
<path class="st5" d="M180,161.2v11.4c0,0,0,1.9,0,2.9c0,0.9,0,1.9,0,1.9c0,5.7-1.9,10.4-4.8,13.3c-2.9,4.8-8.5,6.6-17.1,6.6
	c-3.8,0-7.6-1-9.5-1.9c-1.9-1-3.8-2.9-5.7-3.8c-2.9-3.8-4.8-7.6-4.8-12.4c0-3.8,0.9-8.5,3.8-11.4c2.9-3.8,7.6-6.6,14.3-6.6
	c5.7,0,10.5,1.9,14.3,4.8c1,0.9,1.9,0.9,2.9,1.9l0,0v-8.6c1.9-0.9,3.8-2.8,6.6-4.8c4.8-3.8,8.6-7.6,9.5-7.6c1,0-1.9,3.8-2.8,4.8
	C184.8,156.5,181.9,159.3,180,161.2z"/>
<path class="st5" d="M129.7,58.6c-2.8,2.8-5.7,4.8-7.6,7.6h-6.6c3.8-2.8,6.6-5.7,9.5-7.6H129.7z"/>
<path class="st5" d="M95.5,139.4v3.8c-6.7,6.6-14.3,13.3-20.9,19.9C81.2,155.5,87.9,147,95.5,139.4z"/>
<path class="st3" d="M101.2,193.5c0,1,0,1.9-1,2.9"/>
<path class="st5" d="M180,125.1L180,125.1c-0.9,0.9-0.9,0.9-1.9,1.9C179.1,126.1,180,125.1,180,125.1z"/>
<path class="st5" d="M180,125.1L180,125.1c1-0.9,1-0.9,1.9-1.9C181.9,124.2,181,125.1,180,125.1z"/>
<path class="st5" d="M181.9,124.2c0,0-0.9,0.9-1.9,0.9l0,0C181,125.1,181.9,124.2,181.9,124.2z"/>
<path class="st5" d="M181.9,124.2c0,0-0.9,0.9-1.9,0.9l0,0C181,125.1,181.9,124.2,181.9,124.2z"/>
<path class="st5" d="M181.9,124.2c0,0-0.9,0.9-1.9,0.9l0,0C181,125.1,181.9,124.2,181.9,124.2z"/>
<path class="st5" d="M181.9,124.2c0,0-0.9,0.9-1.9,0.9l0,0C181,125.1,181.9,124.2,181.9,124.2z"/>
<path class="st5" d="M181.9,124.2c0,0-0.9,0.9-1.9,0.9l0,0C181,125.1,181.9,124.2,181.9,124.2z"/>
<path class="st5" d="M181.9,124.2c0,0-0.9,0.9-1.9,0.9l0,0C181,125.1,181.9,124.2,181.9,124.2z"/>
<path class="st5" d="M181.9,124.2c0,0-0.9,0.9-1.9,0.9l0,0C181,125.1,181.9,124.2,181.9,124.2z"/>
<path class="st5" d="M181.9,124.2c0,0-0.9,0.9-1.9,0.9l0,0C181,125.1,181.9,124.2,181.9,124.2z"/>
<path class="st5" d="M181.9,124.2c0,0-0.9,0.9-1.9,0.9l0,0C181,125.1,181.9,124.2,181.9,124.2z"/>
</svg>
