<?xml version="1.0" encoding="utf-8"?>
<!-- Generator: Adobe Illustrator 23.0.0, SVG Export Plug-In . SVG Version: 6.00 Build 0)  -->
<svg version="1.1" id="Layer_1" xmlns="http://www.w3.org/2000/svg" xmlns:xlink="http://www.w3.org/1999/xlink" x="0px" y="0px"
	 viewBox="0 0 256 256" style="enable-background:new 0 0 256 256;" xml:space="preserve">
<style type="text/css">
	.st0{opacity:0.8;fill:#0E0E17;}
	.st1{fill:#0E0E17;}
	.st2{fill:none;stroke:#F75049;stroke-miterlimit:10;}
	.st3{fill:none;}
	.st4{fill:#F75049;}
</style>
<g>
	<g>
		<path class="st0" d="M218.1,40.1h-67.5c-6.8-6.3-13.6-12.7-20.4-19.1H37.7c-2.3,2.2-4.6,4.5-6.9,6.7v200.1l8,8h160.9
			c9-9.8,17.9-19.7,26.8-29.5V46.8C223.7,44.6,220.9,42.4,218.1,40.1z M218.3,168c-2.7,3.4-5.4,7-8.1,10.4v40.6
			c-2.6,2.6-5.3,5.1-7.9,7.7H48.9c-2.6-2.6-5.2-5.2-7.8-7.9v-40.4c-2.6-3.4-5.3-7-7.9-10.4V95.5c2.6-2.3,5.3-4.5,7.9-6.8V50.3
			c2.6-2.6,5.2-5.3,7.8-7.9h153.3c2.7,2.7,5.3,5.4,8,8.1v38.3c2.6,2.2,5.3,4.5,8,6.8V168z"/>
		<path class="st1" d="M218.1,40.1h-67.5c-6.8-6.3-13.6-12.7-20.4-19.1H37.7c-2.3,2.2-4.6,4.5-6.9,6.7v200.1l8,8h160.9
			c9-9.8,17.9-19.7,26.8-29.5V46.8C223.7,44.6,220.9,42.4,218.1,40.1z M218.3,168c-2.7,3.4-5.4,7-8.1,10.4v40.6
			c-2.6,2.6-5.3,5.1-7.9,7.7H48.9c-2.6-2.6-5.2-5.2-7.8-7.9v-40.4c-2.6-3.4-5.3-7-7.9-10.4V95.5c2.6-2.3,5.3-4.5,7.9-6.8V50.3
			c2.6-2.6,5.2-5.3,7.8-7.9h153.3c2.7,2.7,5.3,5.4,8,8.1v38.3c2.6,2.2,5.3,4.5,8,6.8V168z"/>
		<g>
			<path class="st1" d="M218.3,95.7V168c-2.7,3.4-5.4,7-8.1,10.4v40.6c-2.6,2.6-5.3,5.1-7.9,7.7H48.9c-2.6-2.6-5.2-5.2-7.8-7.9
				v-40.4c-2.6-3.4-5.3-7-7.9-10.4V95.5c2.6-2.3,5.3-4.5,7.9-6.8V50.3c2.6-2.6,5.2-5.3,7.8-7.9h153.3c2.7,2.7,5.3,5.4,8,8.1v38.3
				C212.9,91.1,215.6,93.4,218.3,95.7z"/>
		</g>
	</g>
	<path class="st2" d="M218.1,40.1h-67.5c-6.8-6.3-13.6-12.7-20.4-19.1H37.7c-2.3,2.2-4.6,4.5-6.9,6.7v200.1l8,8h160.9
		c9-9.8,17.9-19.7,26.8-29.5V46.8C223.7,44.6,220.9,42.4,218.1,40.1z M218.3,168c-2.7,3.4-5.4,7-8.1,10.4v40.6
		c-2.6,2.6-5.3,5.1-7.9,7.7H48.9c-2.6-2.6-5.2-5.2-7.8-7.9v-40.4c-2.6-3.4-5.3-7-7.9-10.4V95.5c2.6-2.3,5.3-4.5,7.9-6.8V50.3
		c2.6-2.6,5.2-5.3,7.8-7.9h153.3c2.7,2.7,5.3,5.4,8,8.1v38.3c2.6,2.2,5.3,4.5,8,6.8V168z"/>
</g>
<path class="st3" d="M64.6,160.4h-1c-1,0,0,0,0-1C63.6,159.4,64.6,159.4,64.6,160.4z"/>
<line class="st3" x1="136.5" y1="82.5" x2="136.5" y2="82.5"/>
<path class="st4" d="M156.4,53.6h-3h-1h-10l-9,8l-2,2c-4,4-8,10-9,16c0,2,0,4,0,5L156.4,53.6z"/>
<path class="st4" d="M186.4,168.4c0,0-3,12-11,24c-7,10-13,21-24,21c-11,0-14-7-26-7c-12,0-16,7-26,7c-6,0-11-4-16-9l0,0
	c-2-2-4-5-6-8c-1-1-1-2-2-3l64.9-62.9l1-1v-1c0-2-1-4-1-5l-67.9,63.9c-1-2-2-5-4-7l40.9-40.9l27-21c-1-3-4-5-6-6l-39.9,35.9l-12,10
	l-11,11l0,0l11-12l2-3l47.9-43.9c-3-2-7-3-10-4l-2,4l-49.9,46.9l-2-2l2-2l49.9-46.9h-1c-11-2-20,2-25,4c0,0-11,5-17,13c-1,3-1,5-1,5
	l0,0c-1,0-2,0-3-1c-2,0-4-1-6-1c-1,0-3,0-4,0c0-1,0-3,0-4c0,0,0,0-1,0l1-1c1-4,3-10,6-14c6-12,17-20,29-21c1,0,2,0,3,0c2,0,4,0,6,1
	c3,0,5,1,7,2c5,2,10,4,13,4c6,0,15-7,26-8c2,0,3,0,5,0c3,0,9,1,16,4l0,0c5,2,9,6,13,12c0,0-1,1-3,3c-5,4-14,14-14,30c0,1,0,1,0,1
	c0,2,0,3,0,5l-20,19l-17,14l-32.9,30l-1,2c1,0,2,0,3,0h-1l3-1c0,0,1,0,2,1c0,0,1,0,2,0l2-2l45.9-38.9l18-13l0,0l-44.9,39.9l-11,11
	c6-3,11-7,16-12c4,0,8-1,12-2l18-17l4-3l-3,6l-3,3c0,0-4,5-7,8c9-4,16-11,18-20c0-1,0-2,0-3c2-1,4-2,6-3
	C179.4,165.4,186.4,168.4,186.4,168.4z"/>
<path class="st4" d="M132.5,76.5l1-1l10-9l11-10c0-1,0-1,0-2h-1l-28,23l-3,2c0,2,0,4,0,5c5-1,9-2,14-2l0,0c4-2,7-4,10-7
	c3-3,6-8,7-12c-2,0-4,0-6,0C143.5,69.5,138.5,73.5,132.5,76.5z M63.6,159.4C63.6,160.4,63.6,160.4,63.6,159.4c0,1,1,0,1,0
	C64.6,159.4,63.6,159.4,63.6,159.4z M173.4,158.4c-2,1-4,2-6,3c0,1,0,2,0,3c-2,9-8,16-18,20c3-3,7-8,7-8l3-3l3-6l-4,3l-18,17
	c-4,1-8,2-12,2c-5,5-10,10-16,12l11-11l44.9-39.9l0,0l-18,13l-43.9,39.9l-3,2c-1,0-1,0-2,0c-1-1-2-1-2-1l-3,1h1c-1,0-2,0-3,0l1-2
	l32.9-30l17-14l20-19c0-2,0-3,0-5v-1c0-16,9-25,14-30c1-1,3-2,3-2c-4-6-8-10-13-12l0,0c-6-4-13-4-16-4c-1,0-3,0-5,0c-10,0-19,7-25,7
	c-3,0-8-2-13-4c-2-1-5-2-7-3c-2,0-4-1-6-1c-1,0-2,0-3,0c-12,2-23,10-29,22c-3,4-5,10-6,15v1c0,1,0,3,0,4c1,0,3,0,4,0s4,1,6,1
	c1,0,2,0,3,1l0,0c0,0,1-2,2-4c6-8,17-13,17-13c5-3,14-7,25-4h1l-49.9,46.9l-2,2l2,2l49.9-46.9l2-4c3,1,6,2,10,4l-47.9,43.9l-2,3
	l-11,12h1l11-11l12-10l39.9-35.9c0-1,3,1,4,4l-27,21l-40.9,40.9c1,3,2,5,4,7l67.9-63.9c1,2,1,3,1,5c0,0,0,0,0,1h-1l-64.9,63.9
	c1,1,1,2,2,3c2,3,4,5,6,8l0,0c5,5,10,9,16,9c10,0,14-7,26-7s15,7,26,7s17-11,24-21c8-12,11-23,11-24
	C186.4,168.4,179.4,165.4,173.4,158.4z"/>
<path d="M63.6,159.4C63.6,160.4,63.6,160.4,63.6,159.4c0,1,1,0,1,0C64.6,159.4,63.6,159.4,63.6,159.4z"/>
<path class="st4" d="M179.4,104.5c0-1-1-2-1-3c-2-5-5-8-9-11l0,0c-6-4-13-4-16-4c-1,0-3,0-5,0c-10,0-19,7-25,7c-3,0-8-2-13-4
	c-1,0-2,1-3,1c0,0,0,0-1-1c0,1-1,2-2,3c-2,3,0-2,0-2s0-2,0-3l-1-1c-2,0-4-1-6-1c-1,0-2,0-3,0l-34.9,36.9l-1,1c0,0,0,0,1,0
	c5,0,8,2,10,3c3-4,15-19,33.9-21c5-1,10,0,15,0l0,0c4,1,8,2,12,3l4-4v3l-2,2c3,1,6,3,8,5l27-21h2l-3,4l-22,21c1,2,2,4,3,6l1-1l3-3
	l4-4l13-9v1l-7,5l-3,5l-7,5l-4,5c0,3-1,6-3,9s-3,5-5,7c0,1-2,2-3,3c-1,1-2,1-3,1c1-1,7-7,8-15l-8,8l-55.9,53.9c2,3,4,5,6,8l0,0
	c1,0,3,1,4,1h1l40.9-39.9l14-11l16-16l5-3v-1C165.4,118.5,174.4,109.5,179.4,104.5z M100.5,96.5c0,2-2,0-2-2l1-1
	C100.5,92.5,100.5,94.5,100.5,96.5z M142.5,101.5l-3,1v-1l0,0l7-5C145.5,96.5,142.5,100.5,142.5,101.5z M92.5,192.4h-1
	C91.6,191.4,92.5,191.4,92.5,192.4C93.5,191.4,92.5,191.4,92.5,192.4z M94.5,190.4h-1C93.5,190.4,94.5,189.4,94.5,190.4
	C95.5,189.4,94.5,190.4,94.5,190.4z M96.5,188.4h-1C95.5,188.4,96.5,187.4,96.5,188.4C97.5,187.4,96.5,188.4,96.5,188.4z
	 M99.5,186.4c0,1-2,1-2-1c0,0,1-1,2-1C100.5,185.4,99.5,186.4,99.5,186.4z M103.5,183.4c0,2-2,1-2-2c0,0,1-2,2-2
	C104.5,180.4,103.5,181.4,103.5,183.4z M107.5,178.4c0,1-2,1-2-2c0,0,1-2,2-1C109.5,176.4,108.5,177.4,107.5,178.4z M114.5,170.4h-1
	C113.5,169.4,114.5,168.4,114.5,170.4C115.5,169.4,115.5,169.4,114.5,170.4z M123.5,164.4c0,1-2,0-2-1c0,0,1-1,2-1
	C124.5,163.4,123.5,163.4,123.5,164.4z M126.5,160.4c0,0-1,0-1-1C125.5,160.4,126.5,159.4,126.5,160.4
	C127.5,159.4,127.5,160.4,126.5,160.4z M128.5,158.4h-1C127.5,158.4,128.5,157.4,128.5,158.4C129.5,158.4,129.5,158.4,128.5,158.4z
	 M131.5,157.4c0,1-2,0-2-1c0,0,1-1,2-1C132.5,155.4,131.5,156.4,131.5,157.4z M135.5,153.4c0,2-2,1-2-2c0,0,1-2,2-2
	C136.5,150.4,135.5,151.4,135.5,153.4z M150.5,139.4c0,1-1,0-1-1c0,0,1-1,1,0C151.5,138.4,150.5,138.4,150.5,139.4z M157.4,136.4
	c0,1-2,0-2-1c0,0,1-1,2,0C158.4,136.4,157.4,136.4,157.4,136.4z M153.5,136.4c-2,2-2,0,2-3c0,0,3-2,2-1
	C157.4,133.4,155.5,134.4,153.5,136.4z M160.4,130.5c-2,2-2,0,2-3c0,0,3-2,2-1C164.4,128.5,162.4,128.5,160.4,130.5z"/>
<path d="M64.6,160.4h-1c-1,0,0,0,0-1C63.6,159.4,64.6,159.4,64.6,160.4z"/>
<path d="M43.6,125.5L43.6,125.5z"/>
</svg>
