<?xml version="1.0" encoding="utf-8"?>
<!-- Generator: Adobe Illustrator 23.0.0, SVG Export Plug-In . SVG Version: 6.00 Build 0)  -->
<svg version="1.1" id="Layer_1" xmlns="http://www.w3.org/2000/svg" xmlns:xlink="http://www.w3.org/1999/xlink" x="0px" y="0px"
	 viewBox="0 0 256 256" style="enable-background:new 0 0 256 256;" xml:space="preserve">
<style type="text/css">
	.st0{opacity:0.8;fill:#0E0E17;enable-background:new    ;}
	.st1{fill:#0E0E17;}
	.st2{fill:none;stroke:#F75049;stroke-miterlimit:10;}
	.st3{fill:#F75049;}
</style>
<g>
	<g>
		<path class="st0" d="M218.1,40.1h-67.5c-6.8-6.3-13.6-12.7-20.4-19.1H37.7c-2.3,2.2-4.6,4.5-6.9,6.7v200.1l8,8h160.9
			c9-9.8,17.9-19.7,26.8-29.5V46.8C223.7,44.6,220.9,42.4,218.1,40.1z M218.3,168c-2.7,3.4-5.4,7-8.1,10.4V219
			c-2.6,2.6-5.3,5.1-7.9,7.7H48.9c-2.6-2.6-5.2-5.2-7.8-7.9v-40.4c-2.6-3.4-5.3-7-7.9-10.4V95.5c2.6-2.3,5.3-4.5,7.9-6.8V50.3
			c2.6-2.6,5.2-5.3,7.8-7.9h153.3c2.7,2.7,5.3,5.4,8,8.1v38.3c2.6,2.2,5.3,4.5,8,6.8L218.3,168L218.3,168z"/>
		<path class="st1" d="M218.1,40.1h-67.5c-6.8-6.3-13.6-12.7-20.4-19.1H37.7c-2.3,2.2-4.6,4.5-6.9,6.7v200.1l8,8h160.9
			c9-9.8,17.9-19.7,26.8-29.5V46.8C223.7,44.6,220.9,42.4,218.1,40.1z M218.3,168c-2.7,3.4-5.4,7-8.1,10.4V219
			c-2.6,2.6-5.3,5.1-7.9,7.7H48.9c-2.6-2.6-5.2-5.2-7.8-7.9v-40.4c-2.6-3.4-5.3-7-7.9-10.4V95.5c2.6-2.3,5.3-4.5,7.9-6.8V50.3
			c2.6-2.6,5.2-5.3,7.8-7.9h153.3c2.7,2.7,5.3,5.4,8,8.1v38.3c2.6,2.2,5.3,4.5,8,6.8L218.3,168L218.3,168z"/>
		<g>
			<path class="st1" d="M218.3,95.7V168c-2.7,3.4-5.4,7-8.1,10.4V219c-2.6,2.6-5.3,5.1-7.9,7.7H48.9c-2.6-2.6-5.2-5.2-7.8-7.9v-40.4
				c-2.6-3.4-5.3-7-7.9-10.4V95.5c2.6-2.3,5.3-4.5,7.9-6.8V50.3c2.6-2.6,5.2-5.3,7.8-7.9h153.3c2.7,2.7,5.3,5.4,8,8.1v38.3
				C212.9,91.1,215.6,93.4,218.3,95.7z"/>
		</g>
	</g>
	<path class="st2" d="M218.1,40.1h-67.5c-6.8-6.3-13.6-12.7-20.4-19.1H37.7c-2.3,2.2-4.6,4.5-6.9,6.7v200.1l8,8h160.9
		c9-9.8,17.9-19.7,26.8-29.5V46.8C223.7,44.6,220.9,42.4,218.1,40.1z M218.3,168c-2.7,3.4-5.4,7-8.1,10.4V219
		c-2.6,2.6-5.3,5.1-7.9,7.7H48.9c-2.6-2.6-5.2-5.2-7.8-7.9v-40.4c-2.6-3.4-5.3-7-7.9-10.4V95.5c2.6-2.3,5.3-4.5,7.9-6.8V50.3
		c2.6-2.6,5.2-5.3,7.8-7.9h153.3c2.7,2.7,5.3,5.4,8,8.1v38.3c2.6,2.2,5.3,4.5,8,6.8L218.3,168L218.3,168z"/>
</g>
<g transform="translate(-552 -52)">
	<path class="st3" d="M710.3,174c-3.9,2.9-8.8,6.8-12.7,9.7h14.6c1-1,1.9-1.9,2.9-1.9V174H710.3z M710.3,174
		c-3.9,2.9-8.8,6.8-12.7,9.7h14.6c1-1,1.9-1.9,2.9-1.9V174H710.3z M710.3,174c-3.9,2.9-8.8,6.8-12.7,9.7h14.6c1-1,1.9-1.9,2.9-1.9
		V174H710.3z M710.3,174c-3.9,2.9-8.8,6.8-12.7,9.7h14.6c1-1,1.9-1.9,2.9-1.9V174H710.3z M710.3,174c-3.9,2.9-8.8,6.8-12.7,9.7h14.6
		c1-1,1.9-1.9,2.9-1.9V174H710.3z M710.3,174c-3.9,2.9-8.8,6.8-12.7,9.7h14.6c1-1,1.9-1.9,2.9-1.9V174H710.3z M710.3,174
		c-3.9,2.9-8.8,6.8-12.7,9.7h14.6c1-1,1.9-1.9,2.9-1.9V174H710.3z M710.3,174c-3.9,2.9-8.8,6.8-12.7,9.7h14.6c1-1,1.9-1.9,2.9-1.9
		V174H710.3z M710.3,174c-3.9,2.9-8.8,6.8-12.7,9.7h14.6c1-1,1.9-1.9,2.9-1.9V174H710.3z M710.3,174c-3.9,2.9-8.8,6.8-12.7,9.7h14.6
		c1-1,1.9-1.9,2.9-1.9V174H710.3z M710.3,174c-3.9,2.9-8.8,6.8-12.7,9.7h14.6c1-1,1.9-1.9,2.9-1.9V174H710.3z M710.3,174
		c-3.9,2.9-8.8,6.8-12.7,9.7h14.6c1-1,1.9-1.9,2.9-1.9V174H710.3z M710.3,174c-3.9,2.9-8.8,6.8-12.7,9.7h14.6c1-1,1.9-1.9,2.9-1.9
		V174H710.3z M710.3,174c-3.9,2.9-8.8,6.8-12.7,9.7h14.6c1-1,1.9-1.9,2.9-1.9V174H710.3z M710.3,174c-3.9,2.9-8.8,6.8-12.7,9.7h14.6
		c1-1,1.9-1.9,2.9-1.9V174H710.3z M710.3,174c-3.9,2.9-8.8,6.8-12.7,9.7h14.6c1-1,1.9-1.9,2.9-1.9V174H710.3z M710.3,174
		c-3.9,2.9-8.8,6.8-12.7,9.7h14.6c1-1,1.9-1.9,2.9-1.9V174H710.3z M710.3,174c-3.9,2.9-8.8,6.8-12.7,9.7h14.6c1-1,1.9-1.9,2.9-1.9
		V174H710.3z M710.3,174c-3.9,2.9-8.8,6.8-12.7,9.7h14.6c1-1,1.9-1.9,2.9-1.9V174H710.3z M710.3,174c-3.9,2.9-8.8,6.8-12.7,9.7h14.6
		c1-1,1.9-1.9,2.9-1.9V174H710.3z M710.3,174c-3.9,2.9-8.8,6.8-12.7,9.7h14.6c1-1,1.9-1.9,2.9-1.9V174H710.3z M664.5,193.5
		c-2.9,2.9-6.8,6.8-9.7,9.7h4.9c2.9-1.9,4.9-4.9,7.8-6.8v-2.9H664.5z M641.1,193.5c-1,1-2.9,2.9-3.9,3.9v5.8h5.8
		c3.9-2.9,7.8-6.8,10.7-9.7H641.1z M676.2,174c-1.9,1-2.9,2.9-4.9,4.9c-1.9,1.9-3.9,3.9-5.8,4.9h8.8c3.9-2.9,6.8-6.8,10.7-9.7
		L676.2,174L676.2,174z M692.8,174c-3.9,2.9-7.8,6.8-10.7,9.7h10.7c3.9-2.9,7.8-6.8,11.7-9.7H692.8z M649.9,174l-12.7,9.7h13.6
		c3.9-3.9,6.8-6.8,9.7-9.7H649.9z M637.2,174v5.8c1.9-1.9,4.9-3.9,6.8-5.8H637.2z M713.3,154.5c-3.9,2.9-6.8,6.8-10.7,9.7h12.7v-9.7
		H713.3z M674.3,154.5c-3.9,2.9-7.8,6.8-11.7,9.7h9.7c3.9-2.9,7.8-6.8,11.7-9.7H674.3z M698.7,154.5c-3.9,2.9-6.8,5.8-10.7,9.7h8.8
		l1.9-1.9c2.9-2.9,6.8-4.9,9.7-7.8H698.7z M637.2,154.5v8.8c3.9-2.9,6.8-5.8,10.7-8.8H637.2z M654.8,154.5
		c-3.9,2.9-7.8,6.8-11.7,9.7h13.6c2.9-2.9,5.8-4.9,9.7-7.8c1-1,1.9-1,2.9-1.9H654.8z M637.2,135v9.7h23.4c3.9-2.9,8.8-6.8,12.7-9.7
		H637.2z M696.7,135c-3.9,2.9-6.8,6.8-10.7,9.7h9.7c4.9-2.9,8.8-6.8,12.7-9.7H696.7z M710.3,144.8h4.9v-4.9
		C713.3,141.9,712.3,142.8,710.3,144.8z M678.2,135c-2.9,2.9-5.8,4.9-8.8,7.8c-1,1-1.9,1.9-2.9,1.9h13.6c4.9-2.9,8.8-6.8,12.7-9.7
		H678.2z M700.6,213c-1.9,1-3.9,2.9-4.9,3.9v10.7c0,0,1,0,1-1c5.8-4.9,11.7-8.8,17.5-13.6L700.6,213L700.6,213z M676.2,174
		c-1.9,1-2.9,2.9-4.9,4.9c-1.9,1.9-3.9,3.9-5.8,4.9h8.8c3.9-2.9,6.8-6.8,10.7-9.7L676.2,174L676.2,174z M692.8,174
		c-3.9,2.9-7.8,6.8-10.7,9.7h10.7c3.9-2.9,7.8-6.8,11.7-9.7H692.8z M649.9,174l-12.7,9.7h13.6c3.9-3.9,6.8-6.8,9.7-9.7H649.9z
		 M637.2,174v5.8c1.9-1.9,4.9-3.9,6.8-5.8H637.2z M637.2,135v9.7h23.4c3.9-2.9,8.8-6.8,12.7-9.7H637.2z M696.7,135
		c-3.9,2.9-6.8,6.8-10.7,9.7h9.7c4.9-2.9,8.8-6.8,12.7-9.7H696.7z M710.3,144.8h4.9v-4.9C713.3,141.9,712.3,142.8,710.3,144.8z
		 M678.2,135c-2.9,2.9-5.8,4.9-8.8,7.8c-1,1-1.9,1.9-2.9,1.9h13.6c4.9-2.9,8.8-6.8,12.7-9.7H678.2z M713.3,154.5
		c-3.9,2.9-6.8,6.8-10.7,9.7h12.7v-9.7H713.3z M674.3,154.5c-3.9,2.9-7.8,6.8-11.7,9.7h9.7c3.9-2.9,7.8-6.8,11.7-9.7H674.3z
		 M698.7,154.5c-3.9,2.9-6.8,5.8-10.7,9.7h8.8l1.9-1.9c2.9-2.9,6.8-4.9,9.7-7.8H698.7z M637.2,154.5v8.8c3.9-2.9,6.8-5.8,10.7-8.8
		H637.2z M654.8,154.5c-3.9,2.9-7.8,6.8-11.7,9.7h13.6c2.9-2.9,5.8-4.9,9.7-7.8c1-1,1.9-1,2.9-1.9H654.8z M664.5,193.5
		c-2.9,2.9-6.8,6.8-9.7,9.7h4.9c2.9-1.9,4.9-4.9,7.8-6.8v-2.9H664.5z M641.1,193.5c-1,1-2.9,2.9-3.9,3.9v5.8h5.8
		c3.9-2.9,7.8-6.8,10.7-9.7H641.1z M664.5,193.5c-2.9,2.9-6.8,6.8-9.7,9.7h4.9c2.9-1.9,4.9-4.9,7.8-6.8v-2.9H664.5z M641.1,193.5
		c-1,1-2.9,2.9-3.9,3.9v5.8h5.8c3.9-2.9,7.8-6.8,10.7-9.7H641.1z M637.2,135v9.7h23.4c3.9-2.9,8.8-6.8,12.7-9.7H637.2z M696.7,135
		c-3.9,2.9-6.8,6.8-10.7,9.7h9.7c4.9-2.9,8.8-6.8,12.7-9.7H696.7z M710.3,144.8h4.9v-4.9C713.3,141.9,712.3,142.8,710.3,144.8z
		 M678.2,135c-2.9,2.9-5.8,4.9-8.8,7.8c-1,1-1.9,1.9-2.9,1.9h13.6c4.9-2.9,8.8-6.8,12.7-9.7H678.2z M676.2,174
		c-1.9,1-2.9,2.9-4.9,4.9c-1.9,1.9-3.9,3.9-5.8,4.9h8.8c3.9-2.9,6.8-6.8,10.7-9.7L676.2,174L676.2,174z M692.8,174
		c-3.9,2.9-7.8,6.8-10.7,9.7h10.7c3.9-2.9,7.8-6.8,11.7-9.7H692.8z M649.9,174l-12.7,9.7h13.6c3.9-3.9,6.8-6.8,9.7-9.7H649.9z
		 M637.2,174v5.8c1.9-1.9,4.9-3.9,6.8-5.8H637.2z M713.3,154.5c-3.9,2.9-6.8,6.8-10.7,9.7h12.7v-9.7H713.3z M674.3,154.5
		c-3.9,2.9-7.8,6.8-11.7,9.7h9.7c3.9-2.9,7.8-6.8,11.7-9.7H674.3z M698.7,154.5c-3.9,2.9-6.8,5.8-10.7,9.7h8.8l1.9-1.9
		c2.9-2.9,6.8-4.9,9.7-7.8H698.7z M637.2,154.5v8.8c3.9-2.9,6.8-5.8,10.7-8.8H637.2z M654.8,154.5c-3.9,2.9-7.8,6.8-11.7,9.7h13.6
		c2.9-2.9,5.8-4.9,9.7-7.8c1-1,1.9-1,2.9-1.9H654.8z M700.6,213c-1.9,1-3.9,2.9-4.9,3.9v10.7c0,0,1,0,1-1
		c5.8-4.9,11.7-8.8,17.5-13.6L700.6,213L700.6,213z M676.2,174c-1.9,1-2.9,2.9-4.9,4.9c-1.9,1.9-3.9,3.9-5.8,4.9h8.8
		c3.9-2.9,6.8-6.8,10.7-9.7L676.2,174L676.2,174z M692.8,174c-3.9,2.9-7.8,6.8-10.7,9.7h10.7c3.9-2.9,7.8-6.8,11.7-9.7H692.8z
		 M649.9,174l-12.7,9.7h13.6c3.9-3.9,6.8-6.8,9.7-9.7H649.9z M637.2,174v5.8c1.9-1.9,4.9-3.9,6.8-5.8H637.2z M637.2,135v9.7h23.4
		c3.9-2.9,8.8-6.8,12.7-9.7H637.2z M696.7,135c-3.9,2.9-6.8,6.8-10.7,9.7h9.7c4.9-2.9,8.8-6.8,12.7-9.7H696.7z M710.3,144.8h4.9
		v-4.9C713.3,141.9,712.3,142.8,710.3,144.8z M678.2,135c-2.9,2.9-5.8,4.9-8.8,7.8c-1,1-1.9,1.9-2.9,1.9h13.6
		c4.9-2.9,8.8-6.8,12.7-9.7H678.2z M713.3,154.5c-3.9,2.9-6.8,6.8-10.7,9.7h12.7v-9.7H713.3z M674.3,154.5
		c-3.9,2.9-7.8,6.8-11.7,9.7h9.7c3.9-2.9,7.8-6.8,11.7-9.7H674.3z M698.7,154.5c-3.9,2.9-6.8,5.8-10.7,9.7h8.8l1.9-1.9
		c2.9-2.9,6.8-4.9,9.7-7.8H698.7z M637.2,154.5v8.8c3.9-2.9,6.8-5.8,10.7-8.8H637.2z M654.8,154.5c-3.9,2.9-7.8,6.8-11.7,9.7h13.6
		c2.9-2.9,5.8-4.9,9.7-7.8c1-1,1.9-1,2.9-1.9H654.8z M664.5,193.5c-2.9,2.9-6.8,6.8-9.7,9.7h4.9c2.9-1.9,4.9-4.9,7.8-6.8v-2.9H664.5
		z M641.1,193.5c-1,1-2.9,2.9-3.9,3.9v5.8h5.8c3.9-2.9,7.8-6.8,10.7-9.7H641.1z M664.5,193.5c-2.9,2.9-6.8,6.8-9.7,9.7h4.9
		c2.9-1.9,4.9-4.9,7.8-6.8v-2.9H664.5z M641.1,193.5c-1,1-2.9,2.9-3.9,3.9v5.8h5.8c3.9-2.9,7.8-6.8,10.7-9.7H641.1z M637.2,135v9.7
		h23.4c3.9-2.9,8.8-6.8,12.7-9.7H637.2z M696.7,135c-3.9,2.9-6.8,6.8-10.7,9.7h9.7c4.9-2.9,8.8-6.8,12.7-9.7H696.7z M710.3,144.8
		h4.9v-4.9C713.3,141.9,712.3,142.8,710.3,144.8z M678.2,135c-2.9,2.9-5.8,4.9-8.8,7.8c-1,1-1.9,1.9-2.9,1.9h13.6
		c4.9-2.9,8.8-6.8,12.7-9.7H678.2z M676.2,174c-1.9,1-2.9,2.9-4.9,4.9c-1.9,1.9-3.9,3.9-5.8,4.9h8.8c3.9-2.9,6.8-6.8,10.7-9.7
		L676.2,174L676.2,174z M692.8,174c-3.9,2.9-7.8,6.8-10.7,9.7h10.7c3.9-2.9,7.8-6.8,11.7-9.7H692.8z M649.9,174l-12.7,9.7h13.6
		c3.9-3.9,6.8-6.8,9.7-9.7H649.9z M637.2,174v5.8c1.9-1.9,4.9-3.9,6.8-5.8H637.2z M713.3,154.5c-3.9,2.9-6.8,6.8-10.7,9.7h12.7v-9.7
		H713.3z M674.3,154.5c-3.9,2.9-7.8,6.8-11.7,9.7h9.7c3.9-2.9,7.8-6.8,11.7-9.7H674.3z M698.7,154.5c-3.9,2.9-6.8,5.8-10.7,9.7h8.8
		l1.9-1.9c2.9-2.9,6.8-4.9,9.7-7.8H698.7z M637.2,154.5v8.8c3.9-2.9,6.8-5.8,10.7-8.8H637.2z M654.8,154.5
		c-3.9,2.9-7.8,6.8-11.7,9.7h13.6c2.9-2.9,5.8-4.9,9.7-7.8c1-1,1.9-1,2.9-1.9H654.8z M700.6,213c-1.9,1-3.9,2.9-4.9,3.9v10.7
		c0,0,1,0,1-1c5.8-4.9,11.7-8.8,17.5-13.6L700.6,213L700.6,213z M676.2,174c-1.9,1-2.9,2.9-4.9,4.9c-1.9,1.9-3.9,3.9-5.8,4.9h8.8
		c3.9-2.9,6.8-6.8,10.7-9.7L676.2,174L676.2,174z M692.8,174c-3.9,2.9-7.8,6.8-10.7,9.7h10.7c3.9-2.9,7.8-6.8,11.7-9.7H692.8z
		 M649.9,174l-12.7,9.7h13.6c3.9-3.9,6.8-6.8,9.7-9.7H649.9z M637.2,174v5.8c1.9-1.9,4.9-3.9,6.8-5.8H637.2z M637.2,135v9.7h23.4
		c3.9-2.9,8.8-6.8,12.7-9.7H637.2z M696.7,135c-3.9,2.9-6.8,6.8-10.7,9.7h9.7c4.9-2.9,8.8-6.8,12.7-9.7H696.7z M710.3,144.8h4.9
		v-4.9C713.3,141.9,712.3,142.8,710.3,144.8z M678.2,135c-2.9,2.9-5.8,4.9-8.8,7.8c-1,1-1.9,1.9-2.9,1.9h13.6
		c4.9-2.9,8.8-6.8,12.7-9.7H678.2z M713.3,154.5c-3.9,2.9-6.8,6.8-10.7,9.7h12.7v-9.7H713.3z M674.3,154.5
		c-3.9,2.9-7.8,6.8-11.7,9.7h9.7c3.9-2.9,7.8-6.8,11.7-9.7H674.3z M698.7,154.5c-3.9,2.9-6.8,5.8-10.7,9.7h8.8l1.9-1.9
		c2.9-2.9,6.8-4.9,9.7-7.8H698.7z M637.2,154.5v8.8c3.9-2.9,6.8-5.8,10.7-8.8H637.2z M654.8,154.5c-3.9,2.9-7.8,6.8-11.7,9.7h13.6
		c2.9-2.9,5.8-4.9,9.7-7.8c1-1,1.9-1,2.9-1.9H654.8z M664.5,193.5c-2.9,2.9-6.8,6.8-9.7,9.7h4.9c2.9-1.9,4.9-4.9,7.8-6.8v-2.9H664.5
		z M641.1,193.5c-1,1-2.9,2.9-3.9,3.9v5.8h5.8c3.9-2.9,7.8-6.8,10.7-9.7H641.1z M664.5,193.5c-2.9,2.9-6.8,6.8-9.7,9.7h4.9
		c2.9-1.9,4.9-4.9,7.8-6.8v-2.9H664.5z M641.1,193.5c-1,1-2.9,2.9-3.9,3.9v5.8h5.8c3.9-2.9,7.8-6.8,10.7-9.7H641.1z M637.2,135v9.7
		h23.4c3.9-2.9,8.8-6.8,12.7-9.7H637.2z M696.7,135c-3.9,2.9-6.8,6.8-10.7,9.7h9.7c4.9-2.9,8.8-6.8,12.7-9.7H696.7z M710.3,144.8
		h4.9v-4.9C713.3,141.9,712.3,142.8,710.3,144.8z M678.2,135c-2.9,2.9-5.8,4.9-8.8,7.8c-1,1-1.9,1.9-2.9,1.9h13.6
		c4.9-2.9,8.8-6.8,12.7-9.7H678.2z M676.2,174c-1.9,1-2.9,2.9-4.9,4.9c-1.9,1.9-3.9,3.9-5.8,4.9h8.8c3.9-2.9,6.8-6.8,10.7-9.7
		L676.2,174L676.2,174z M692.8,174c-3.9,2.9-7.8,6.8-10.7,9.7h10.7c3.9-2.9,7.8-6.8,11.7-9.7H692.8z M649.9,174l-12.7,9.7h13.6
		c3.9-3.9,6.8-6.8,9.7-9.7H649.9z M637.2,174v5.8c1.9-1.9,4.9-3.9,6.8-5.8H637.2z M713.3,154.5c-3.9,2.9-6.8,6.8-10.7,9.7h12.7v-9.7
		H713.3z M674.3,154.5c-3.9,2.9-7.8,6.8-11.7,9.7h9.7c3.9-2.9,7.8-6.8,11.7-9.7H674.3z M698.7,154.5c-3.9,2.9-6.8,5.8-10.7,9.7h8.8
		l1.9-1.9c2.9-2.9,6.8-4.9,9.7-7.8H698.7z M637.2,154.5v8.8c3.9-2.9,6.8-5.8,10.7-8.8H637.2z M654.8,154.5
		c-3.9,2.9-7.8,6.8-11.7,9.7h13.6c2.9-2.9,5.8-4.9,9.7-7.8c1-1,1.9-1,2.9-1.9H654.8z M734.7,197.4L734.7,197.4L734.7,197.4
		c1-1,1.9-1.9,2.9-1.9C736.7,196.5,735.7,196.5,734.7,197.4z M713.3,154.5c-3.9,2.9-6.8,6.8-10.7,9.7h12.7v-9.7H713.3z M674.3,154.5
		c-3.9,2.9-7.8,6.8-11.7,9.7h9.7c3.9-2.9,7.8-6.8,11.7-9.7H674.3z M698.7,154.5c-3.9,2.9-6.8,5.8-10.7,9.7h8.8l1.9-1.9
		c2.9-2.9,6.8-4.9,9.7-7.8H698.7z M637.2,154.5v8.8c3.9-2.9,6.8-5.8,10.7-8.8H637.2z M654.8,154.5c-3.9,2.9-7.8,6.8-11.7,9.7h13.6
		c2.9-2.9,5.8-4.9,9.7-7.8c1-1,1.9-1,2.9-1.9H654.8z M676.2,174c-1.9,1-2.9,2.9-4.9,4.9c-1.9,1.9-3.9,3.9-5.8,4.9h8.8
		c3.9-2.9,6.8-6.8,10.7-9.7L676.2,174L676.2,174z M692.8,174c-3.9,2.9-7.8,6.8-10.7,9.7h10.7c3.9-2.9,7.8-6.8,11.7-9.7H692.8z
		 M649.9,174l-12.7,9.7h13.6c3.9-3.9,6.8-6.8,9.7-9.7H649.9z M637.2,174v5.8c1.9-1.9,4.9-3.9,6.8-5.8H637.2z M637.2,135v9.7h23.4
		c3.9-2.9,8.8-6.8,12.7-9.7H637.2z M696.7,135c-3.9,2.9-6.8,6.8-10.7,9.7h9.7c4.9-2.9,8.8-6.8,12.7-9.7H696.7z M710.3,144.8h4.9
		v-4.9C713.3,141.9,712.3,142.8,710.3,144.8z M678.2,135c-2.9,2.9-5.8,4.9-8.8,7.8c-1,1-1.9,1.9-2.9,1.9h13.6
		c4.9-2.9,8.8-6.8,12.7-9.7H678.2z M700.6,213c-1.9,1-3.9,2.9-4.9,3.9v10.7c0,0,1,0,1-1c5.8-4.9,11.7-8.8,17.5-13.6L700.6,213
		L700.6,213z M664.5,193.5c-2.9,2.9-6.8,6.8-9.7,9.7h4.9c2.9-1.9,4.9-4.9,7.8-6.8v-2.9H664.5z M641.1,193.5c-1,1-2.9,2.9-3.9,3.9
		v5.8h5.8c3.9-2.9,7.8-6.8,10.7-9.7H641.1z M664.5,193.5c-2.9,2.9-6.8,6.8-9.7,9.7h4.9c2.9-1.9,4.9-4.9,7.8-6.8v-2.9H664.5z
		 M641.1,193.5c-1,1-2.9,2.9-3.9,3.9v5.8h5.8c3.9-2.9,7.8-6.8,10.7-9.7H641.1z M713.3,154.5c-3.9,2.9-6.8,6.8-10.7,9.7h12.7v-9.7
		H713.3z M674.3,154.5c-3.9,2.9-7.8,6.8-11.7,9.7h9.7c3.9-2.9,7.8-6.8,11.7-9.7H674.3z M698.7,154.5c-3.9,2.9-6.8,5.8-10.7,9.7h8.8
		l1.9-1.9c2.9-2.9,6.8-4.9,9.7-7.8H698.7z M637.2,154.5v8.8c3.9-2.9,6.8-5.8,10.7-8.8H637.2z M654.8,154.5
		c-3.9,2.9-7.8,6.8-11.7,9.7h13.6c2.9-2.9,5.8-4.9,9.7-7.8c1-1,1.9-1,2.9-1.9H654.8z M637.2,135v9.7h23.4c3.9-2.9,8.8-6.8,12.7-9.7
		H637.2z M696.7,135c-3.9,2.9-6.8,6.8-10.7,9.7h9.7c4.9-2.9,8.8-6.8,12.7-9.7H696.7z M710.3,144.8h4.9v-4.9
		C713.3,141.9,712.3,142.8,710.3,144.8z M678.2,135c-2.9,2.9-5.8,4.9-8.8,7.8c-1,1-1.9,1.9-2.9,1.9h13.6c4.9-2.9,8.8-6.8,12.7-9.7
		H678.2z M700.6,213c-1.9,1-3.9,2.9-4.9,3.9v10.7c0,0,1,0,1-1c5.8-4.9,11.7-8.8,17.5-13.6L700.6,213L700.6,213z M676.2,174
		c-1.9,1-2.9,2.9-4.9,4.9c-1.9,1.9-3.9,3.9-5.8,4.9h8.8c3.9-2.9,6.8-6.8,10.7-9.7L676.2,174L676.2,174z M692.8,174
		c-3.9,2.9-7.8,6.8-10.7,9.7h10.7c3.9-2.9,7.8-6.8,11.7-9.7H692.8z M649.9,174l-12.7,9.7h13.6c3.9-3.9,6.8-6.8,9.7-9.7H649.9z
		 M637.2,174v5.8c1.9-1.9,4.9-3.9,6.8-5.8H637.2z M716.2,213c-6.8,5.8-14.6,11.7-20.5,17.5v1.9c4.9-3.9,9.7-7.8,14.6-12.7
		c2.9-2.9,5.8-4.9,8.8-7.8h-2.9L716.2,213L716.2,213z M734.7,197.4L734.7,197.4L734.7,197.4c1-1,1.9-1.9,2.9-1.9
		C736.7,196.5,735.7,196.5,734.7,197.4z M716.2,213c-6.8,5.8-14.6,11.7-20.5,17.5v1.9c4.9-3.9,9.7-7.8,14.6-12.7
		c2.9-2.9,5.8-4.9,8.8-7.8h-2.9L716.2,213L716.2,213z M676.2,174c-1.9,1-2.9,2.9-4.9,4.9c-1.9,1.9-3.9,3.9-5.8,4.9h8.8
		c3.9-2.9,6.8-6.8,10.7-9.7L676.2,174L676.2,174z M692.8,174c-3.9,2.9-7.8,6.8-10.7,9.7h10.7c3.9-2.9,7.8-6.8,11.7-9.7H692.8z
		 M649.9,174l-12.7,9.7h13.6c3.9-3.9,6.8-6.8,9.7-9.7H649.9z M637.2,174v5.8c1.9-1.9,4.9-3.9,6.8-5.8H637.2z M700.6,213
		c-1.9,1-3.9,2.9-4.9,3.9v10.7c0,0,1,0,1-1c5.8-4.9,11.7-8.8,17.5-13.6L700.6,213L700.6,213z M637.2,135v9.7h23.4
		c3.9-2.9,8.8-6.8,12.7-9.7H637.2z M696.7,135c-3.9,2.9-6.8,6.8-10.7,9.7h9.7c4.9-2.9,8.8-6.8,12.7-9.7H696.7z M710.3,144.8h4.9
		v-4.9C713.3,141.9,712.3,142.8,710.3,144.8z M678.2,135c-2.9,2.9-5.8,4.9-8.8,7.8c-1,1-1.9,1.9-2.9,1.9h13.6
		c4.9-2.9,8.8-6.8,12.7-9.7H678.2z M713.3,154.5c-3.9,2.9-6.8,6.8-10.7,9.7h12.7v-9.7H713.3z M674.3,154.5
		c-3.9,2.9-7.8,6.8-11.7,9.7h9.7c3.9-2.9,7.8-6.8,11.7-9.7H674.3z M698.7,154.5c-3.9,2.9-6.8,5.8-10.7,9.7h8.8l1.9-1.9
		c2.9-2.9,6.8-4.9,9.7-7.8H698.7z M637.2,154.5v8.8c3.9-2.9,6.8-5.8,10.7-8.8H637.2z M654.8,154.5c-3.9,2.9-7.8,6.8-11.7,9.7h13.6
		c2.9-2.9,5.8-4.9,9.7-7.8c1-1,1.9-1,2.9-1.9H654.8z M664.5,193.5c-2.9,2.9-6.8,6.8-9.7,9.7h4.9c2.9-1.9,4.9-4.9,7.8-6.8v-2.9H664.5
		z M641.1,193.5c-1,1-2.9,2.9-3.9,3.9v5.8h5.8c3.9-2.9,7.8-6.8,10.7-9.7H641.1z M664.5,193.5c-2.9,2.9-6.8,6.8-9.7,9.7h4.9
		c2.9-1.9,4.9-4.9,7.8-6.8v-2.9H664.5z M641.1,193.5c-1,1-2.9,2.9-3.9,3.9v5.8h5.8c3.9-2.9,7.8-6.8,10.7-9.7H641.1z M676.2,174
		c-1.9,1-2.9,2.9-4.9,4.9c-1.9,1.9-3.9,3.9-5.8,4.9h8.8c3.9-2.9,6.8-6.8,10.7-9.7L676.2,174L676.2,174z M692.8,174
		c-3.9,2.9-7.8,6.8-10.7,9.7h10.7c3.9-2.9,7.8-6.8,11.7-9.7H692.8z M649.9,174l-12.7,9.7h13.6c3.9-3.9,6.8-6.8,9.7-9.7H649.9z
		 M637.2,174v5.8c1.9-1.9,4.9-3.9,6.8-5.8H637.2z M713.3,154.5c-3.9,2.9-6.8,6.8-10.7,9.7h12.7v-9.7H713.3z M674.3,154.5
		c-3.9,2.9-7.8,6.8-11.7,9.7h9.7c3.9-2.9,7.8-6.8,11.7-9.7H674.3z M698.7,154.5c-3.9,2.9-6.8,5.8-10.7,9.7h8.8l1.9-1.9
		c2.9-2.9,6.8-4.9,9.7-7.8H698.7z M637.2,154.5v8.8c3.9-2.9,6.8-5.8,10.7-8.8H637.2z M654.8,154.5c-3.9,2.9-7.8,6.8-11.7,9.7h13.6
		c2.9-2.9,5.8-4.9,9.7-7.8c1-1,1.9-1,2.9-1.9H654.8z M637.2,135v9.7h23.4c3.9-2.9,8.8-6.8,12.7-9.7H637.2z M696.7,135
		c-3.9,2.9-6.8,6.8-10.7,9.7h9.7c4.9-2.9,8.8-6.8,12.7-9.7H696.7z M710.3,144.8h4.9v-4.9C713.3,141.9,712.3,142.8,710.3,144.8z
		 M678.2,135c-2.9,2.9-5.8,4.9-8.8,7.8c-1,1-1.9,1.9-2.9,1.9h13.6c4.9-2.9,8.8-6.8,12.7-9.7H678.2z M700.6,213
		c-1.9,1-3.9,2.9-4.9,3.9v10.7c0,0,1,0,1-1c5.8-4.9,11.7-8.8,17.5-13.6L700.6,213L700.6,213z M716.2,213
		c-6.8,5.8-14.6,11.7-20.5,17.5v1.9c4.9-3.9,9.7-7.8,14.6-12.7c2.9-2.9,5.8-4.9,8.8-7.8h-2.9L716.2,213L716.2,213z M637.2,154.5v8.8
		c3.9-2.9,6.8-5.8,10.7-8.8H637.2z M617.7,252v-26.3c-2.9,2.9-6.8,5.8-9.7,8.8v27.3h31.2c2.9-2.9,5.8-6.8,9.7-9.7L617.7,252
		L617.7,252z M713.3,154.5c-3.9,2.9-6.8,6.8-10.7,9.7h12.7v-9.7H713.3z M698.7,154.5c-3.9,2.9-6.8,5.8-10.7,9.7h8.8l1.9-1.9
		c2.9-2.9,6.8-4.9,9.7-7.8H698.7z M637.2,135v9.7h23.4c3.9-2.9,8.8-6.8,12.7-9.7H637.2z M696.7,135c-3.9,2.9-6.8,6.8-10.7,9.7h9.7
		c4.9-2.9,8.8-6.8,12.7-9.7H696.7z M710.3,144.8h4.9v-4.9C713.3,141.9,712.3,142.8,710.3,144.8z M678.2,135
		c-2.9,2.9-5.8,4.9-8.8,7.8c-1,1-1.9,1.9-2.9,1.9h13.6c4.9-2.9,8.8-6.8,12.7-9.7H678.2z M637.2,154.5v8.8c3.9-2.9,6.8-5.8,10.7-8.8
		H637.2z M713.3,154.5c-3.9,2.9-6.8,6.8-10.7,9.7h12.7v-9.7H713.3z M698.7,154.5c-3.9,2.9-6.8,5.8-10.7,9.7h8.8l1.9-1.9
		c2.9-2.9,6.8-4.9,9.7-7.8H698.7z M637.2,135v9.7h23.4c3.9-2.9,8.8-6.8,12.7-9.7H637.2z M696.7,135c-3.9,2.9-6.8,6.8-10.7,9.7h9.7
		c4.9-2.9,8.8-6.8,12.7-9.7H696.7z M710.3,144.8h4.9v-4.9C713.3,141.9,712.3,142.8,710.3,144.8z M678.2,135
		c-2.9,2.9-5.8,4.9-8.8,7.8c-1,1-1.9,1.9-2.9,1.9h13.6c4.9-2.9,8.8-6.8,12.7-9.7H678.2z M713.3,154.5c-3.9,2.9-6.8,6.8-10.7,9.7
		h12.7v-9.7H713.3z M698.7,154.5c-3.9,2.9-6.8,5.8-10.7,9.7h8.8l1.9-1.9c2.9-2.9,6.8-4.9,9.7-7.8H698.7z M710.3,144.8h4.9v-4.9
		C713.3,141.9,712.3,142.8,710.3,144.8z M744.5,177.9c-2.9,2.9-6.8,4.9-9.7,7.8v13.6c2.9-1.9,4.9-4.9,6.8-6.8c-1,1-2.9,1.9-3.9,2.9
		c1.9-1.9,4.9-3.9,6.8-4.9L744.5,177.9L744.5,177.9z M734.7,153.6v12.7c2.9-2.9,6.8-4.9,9.7-7.8v-13.6
		C741.5,147.7,737.6,150.6,734.7,153.6z M734.7,123.3v26.3c2.9-2.9,6.8-4.9,9.7-7.8v-27.3C742.5,116.5,738.6,119.4,734.7,123.3z
		 M640.2,105.8c-3.9,2.9-6.8,6.8-10.7,9.7h11.7c3.9-3.9,8.8-6.8,12.7-9.7H640.2z M656.7,105.8c-2.9,2.9-5.8,6.8-9.7,9.7h87.7v1
		c3.9-2.9,7.8-4.9,9.7-5.8v-4.9C744.4,105.8,656.7,105.8,656.7,105.8z M612.9,105.8c-1.9,1.9-3.9,2.9-4.9,4.9v20.5
		c1.9-1.9,3.9-3.9,5.8-5.8c1-1,1.9-1.9,3.9-2.9v-6.8h7.8c3.9-2.9,7.8-6.8,11.7-9.7h-24.3V105.8z M608,152.6v37
		c2.9-2.9,6.8-5.8,9.7-8.8v-37C614.8,146.7,610.9,149.7,608,152.6z M617.7,182.8c-2.9,2.9-6.8,4.9-9.7,6.8v35.1
		c2.9-2.9,6.8-5.8,9.7-9.7v-18.5c-1,1-1.9,1.9-2.9,1.9c1-1,1.9-1.9,2.9-2.9V182.8z M608,135v12.7c2.9-3.9,5.8-6.8,9.7-10.7v-11.7
		C614.8,129.2,610.9,132.1,608,135z M734.7,169.2v13.6l9.7-5.8v-16.6C741.5,163.3,737.6,166.2,734.7,169.2z M744.5,211.1v-16.6
		c-2.9,2.9-6.8,5.8-9.7,7.8v9.7H722c-8.8,6.8-17.5,13.6-26.3,20.5V252h-24.4c-3.9,2.9-8.8,6.8-12.7,9.7h44.8l41.9-41.9l0,0
		c-4.9,3.9-12.7,10.7-14.6,8.8c-1-1-1-2.9-1-2.9C729.8,219.8,735.7,216.9,744.5,211.1z M710.3,144.8h4.9v-4.9
		C713.3,141.9,712.3,142.8,710.3,144.8z M713.3,154.5c-3.9,2.9-6.8,6.8-10.7,9.7h12.7v-9.7H713.3z M698.7,154.5
		c-3.9,2.9-6.8,5.8-10.7,9.7h8.8l1.9-1.9c2.9-2.9,6.8-4.9,9.7-7.8H698.7z M637.2,135v9.7h23.4c3.9-2.9,8.8-6.8,12.7-9.7H637.2z
		 M696.7,135c-3.9,2.9-6.8,6.8-10.7,9.7h9.7c4.9-2.9,8.8-6.8,12.7-9.7H696.7z M710.3,144.8h4.9v-4.9
		C713.3,141.9,712.3,142.8,710.3,144.8z M678.2,135c-2.9,2.9-5.8,4.9-8.8,7.8c-1,1-1.9,1.9-2.9,1.9h13.6c4.9-2.9,8.8-6.8,12.7-9.7
		H678.2z M713.3,154.5c-3.9,2.9-6.8,6.8-10.7,9.7h12.7v-9.7H713.3z M698.7,154.5c-3.9,2.9-6.8,5.8-10.7,9.7h8.8l1.9-1.9
		c2.9-2.9,6.8-4.9,9.7-7.8H698.7z M637.2,154.5v8.8c3.9-2.9,6.8-5.8,10.7-8.8H637.2z M637.2,135v9.7h23.4c3.9-2.9,8.8-6.8,12.7-9.7
		H637.2z M696.7,135c-3.9,2.9-6.8,6.8-10.7,9.7h9.7c4.9-2.9,8.8-6.8,12.7-9.7H696.7z M710.3,144.8h4.9v-4.9
		C713.3,141.9,712.3,142.8,710.3,144.8z M678.2,135c-2.9,2.9-5.8,4.9-8.8,7.8c-1,1-1.9,1.9-2.9,1.9h13.6c4.9-2.9,8.8-6.8,12.7-9.7
		H678.2z M713.3,154.5c-3.9,2.9-6.8,6.8-10.7,9.7h12.7v-9.7H713.3z M698.7,154.5c-3.9,2.9-6.8,5.8-10.7,9.7h8.8l1.9-1.9
		c2.9-2.9,6.8-4.9,9.7-7.8H698.7z M637.2,154.5v8.8c3.9-2.9,6.8-5.8,10.7-8.8H637.2z M637.2,135v9.7h23.4c3.9-2.9,8.8-6.8,12.7-9.7
		H637.2z M696.7,135c-3.9,2.9-6.8,6.8-10.7,9.7h9.7c4.9-2.9,8.8-6.8,12.7-9.7H696.7z M710.3,144.8h4.9v-4.9
		C713.3,141.9,712.3,142.8,710.3,144.8z M678.2,135c-2.9,2.9-5.8,4.9-8.8,7.8c-1,1-1.9,1.9-2.9,1.9h13.6c4.9-2.9,8.8-6.8,12.7-9.7
		H678.2z M713.3,154.5c-3.9,2.9-6.8,6.8-10.7,9.7h12.7v-9.7H713.3z M698.7,154.5c-3.9,2.9-6.8,5.8-10.7,9.7h8.8l1.9-1.9
		c2.9-2.9,6.8-4.9,9.7-7.8H698.7z M652.8,252c-3.9,2.9-7.8,6.8-11.7,9.7h14.6c3.9-2.9,6.8-6.8,10.7-9.7L652.8,252L652.8,252z
		 M637.2,154.5v8.8c3.9-2.9,6.8-5.8,10.7-8.8H637.2z M664.5,193.5c-2.9,2.9-6.8,6.8-9.7,9.7h4.9c2.9-1.9,4.9-4.9,7.8-6.8v-2.9H664.5
		z M641.1,193.5c-1,1-2.9,2.9-3.9,3.9v5.8h5.8c3.9-2.9,7.8-6.8,10.7-9.7H641.1z M713.3,154.5c-3.9,2.9-6.8,6.8-10.7,9.7h12.7v-9.7
		H713.3z M674.3,154.5c-3.9,2.9-7.8,6.8-11.7,9.7h9.7c3.9-2.9,7.8-6.8,11.7-9.7H674.3z M698.7,154.5c-3.9,2.9-6.8,5.8-10.7,9.7h8.8
		l1.9-1.9c2.9-2.9,6.8-4.9,9.7-7.8H698.7z M637.2,154.5v8.8c3.9-2.9,6.8-5.8,10.7-8.8H637.2z M654.8,154.5
		c-3.9,2.9-7.8,6.8-11.7,9.7h13.6c2.9-2.9,5.8-4.9,9.7-7.8c1-1,1.9-1,2.9-1.9H654.8z M637.2,135v9.7h23.4c3.9-2.9,8.8-6.8,12.7-9.7
		H637.2z M696.7,135c-3.9,2.9-6.8,6.8-10.7,9.7h9.7c4.9-2.9,8.8-6.8,12.7-9.7H696.7z M710.3,144.8h4.9v-4.9
		C713.3,141.9,712.3,142.8,710.3,144.8z M678.2,135c-2.9,2.9-5.8,4.9-8.8,7.8c-1,1-1.9,1.9-2.9,1.9h13.6c4.9-2.9,8.8-6.8,12.7-9.7
		H678.2z M700.6,213c-1.9,1-3.9,2.9-4.9,3.9v10.7c0,0,1,0,1-1c5.8-4.9,11.7-8.8,17.5-13.6L700.6,213L700.6,213z M676.2,174
		c-1.9,1-2.9,2.9-4.9,4.9c-1.9,1.9-3.9,3.9-5.8,4.9h8.8c3.9-2.9,6.8-6.8,10.7-9.7L676.2,174L676.2,174z M692.8,174
		c-3.9,2.9-7.8,6.8-10.7,9.7h10.7c3.9-2.9,7.8-6.8,11.7-9.7H692.8z M649.9,174l-12.7,9.7h13.6c3.9-3.9,6.8-6.8,9.7-9.7H649.9z
		 M637.2,174v5.8c1.9-1.9,4.9-3.9,6.8-5.8H637.2z M716.2,213c-6.8,5.8-14.6,11.7-20.5,17.5v1.9c4.9-3.9,9.7-7.8,14.6-12.7
		c2.9-2.9,5.8-4.9,8.8-7.8h-2.9L716.2,213L716.2,213z M734.7,197.4L734.7,197.4L734.7,197.4c1-1,1.9-1.9,2.9-1.9
		C736.7,196.5,735.7,196.5,734.7,197.4z M716.2,213c-6.8,5.8-14.6,11.7-20.5,17.5v1.9c4.9-3.9,9.7-7.8,14.6-12.7
		c2.9-2.9,5.8-4.9,8.8-7.8h-2.9L716.2,213L716.2,213z M676.2,174c-1.9,1-2.9,2.9-4.9,4.9c-1.9,1.9-3.9,3.9-5.8,4.9h8.8
		c3.9-2.9,6.8-6.8,10.7-9.7L676.2,174L676.2,174z M692.8,174c-3.9,2.9-7.8,6.8-10.7,9.7h10.7c3.9-2.9,7.8-6.8,11.7-9.7H692.8z
		 M649.9,174l-12.7,9.7h13.6c3.9-3.9,6.8-6.8,9.7-9.7H649.9z M637.2,174v5.8c1.9-1.9,4.9-3.9,6.8-5.8H637.2z M700.6,213
		c-1.9,1-3.9,2.9-4.9,3.9v10.7c0,0,1,0,1-1c5.8-4.9,11.7-8.8,17.5-13.6L700.6,213L700.6,213z M637.2,135v9.7h23.4
		c3.9-2.9,8.8-6.8,12.7-9.7H637.2z M696.7,135c-3.9,2.9-6.8,6.8-10.7,9.7h9.7c4.9-2.9,8.8-6.8,12.7-9.7H696.7z M710.3,144.8h4.9
		v-4.9C713.3,141.9,712.3,142.8,710.3,144.8z M678.2,135c-2.9,2.9-5.8,4.9-8.8,7.8c-1,1-1.9,1.9-2.9,1.9h13.6
		c4.9-2.9,8.8-6.8,12.7-9.7H678.2z M713.3,154.5c-3.9,2.9-6.8,6.8-10.7,9.7h12.7v-9.7H713.3z M674.3,154.5
		c-3.9,2.9-7.8,6.8-11.7,9.7h9.7c3.9-2.9,7.8-6.8,11.7-9.7H674.3z M698.7,154.5c-3.9,2.9-6.8,5.8-10.7,9.7h8.8l1.9-1.9
		c2.9-2.9,6.8-4.9,9.7-7.8H698.7z M637.2,154.5v8.8c3.9-2.9,6.8-5.8,10.7-8.8H637.2z M654.8,154.5c-3.9,2.9-7.8,6.8-11.7,9.7h13.6
		c2.9-2.9,5.8-4.9,9.7-7.8c1-1,1.9-1,2.9-1.9H654.8z M664.5,193.5c-2.9,2.9-6.8,6.8-9.7,9.7h4.9c2.9-1.9,4.9-4.9,7.8-6.8v-2.9H664.5
		z M641.1,193.5c-1,1-2.9,2.9-3.9,3.9v5.8h5.8c3.9-2.9,7.8-6.8,10.7-9.7H641.1z M664.5,193.5c-2.9,2.9-6.8,6.8-9.7,9.7h4.9
		c2.9-1.9,4.9-4.9,7.8-6.8v-2.9H664.5z M641.1,193.5c-1,1-2.9,2.9-3.9,3.9v5.8h5.8c3.9-2.9,7.8-6.8,10.7-9.7H641.1z M700.6,213
		c-1.9,1-3.9,2.9-4.9,3.9v10.7c0,0,1,0,1-1c5.8-4.9,11.7-8.8,17.5-13.6L700.6,213L700.6,213z M637.2,135v9.7h23.4
		c3.9-2.9,8.8-6.8,12.7-9.7H637.2z M696.7,135c-3.9,2.9-6.8,6.8-10.7,9.7h9.7c4.9-2.9,8.8-6.8,12.7-9.7H696.7z M710.3,144.8h4.9
		v-4.9C713.3,141.9,712.3,142.8,710.3,144.8z M678.2,135c-2.9,2.9-5.8,4.9-8.8,7.8c-1,1-1.9,1.9-2.9,1.9h13.6
		c4.9-2.9,8.8-6.8,12.7-9.7H678.2z M676.2,174c-1.9,1-2.9,2.9-4.9,4.9c-1.9,1.9-3.9,3.9-5.8,4.9h8.8c3.9-2.9,6.8-6.8,10.7-9.7
		L676.2,174L676.2,174z M692.8,174c-3.9,2.9-7.8,6.8-10.7,9.7h10.7c3.9-2.9,7.8-6.8,11.7-9.7H692.8z M649.9,174l-12.7,9.7h13.6
		c3.9-3.9,6.8-6.8,9.7-9.7H649.9z M637.2,174v5.8c1.9-1.9,4.9-3.9,6.8-5.8H637.2z M713.3,154.5c-3.9,2.9-6.8,6.8-10.7,9.7h12.7v-9.7
		H713.3z M674.3,154.5c-3.9,2.9-7.8,6.8-11.7,9.7h9.7c3.9-2.9,7.8-6.8,11.7-9.7H674.3z M698.7,154.5c-3.9,2.9-6.8,5.8-10.7,9.7h8.8
		l1.9-1.9c2.9-2.9,6.8-4.9,9.7-7.8H698.7z M637.2,154.5v8.8c3.9-2.9,6.8-5.8,10.7-8.8H637.2z M654.8,154.5
		c-3.9,2.9-7.8,6.8-11.7,9.7h13.6c2.9-2.9,5.8-4.9,9.7-7.8c1-1,1.9-1,2.9-1.9H654.8z M734.7,197.4L734.7,197.4L734.7,197.4
		c1-1,1.9-1.9,2.9-1.9C736.7,196.5,735.7,196.5,734.7,197.4z M713.3,154.5c-3.9,2.9-6.8,6.8-10.7,9.7h12.7v-9.7H713.3z M674.3,154.5
		c-3.9,2.9-7.8,6.8-11.7,9.7h9.7c3.9-2.9,7.8-6.8,11.7-9.7H674.3z M698.7,154.5c-3.9,2.9-6.8,5.8-10.7,9.7h8.8l1.9-1.9
		c2.9-2.9,6.8-4.9,9.7-7.8H698.7z M637.2,154.5v8.8c3.9-2.9,6.8-5.8,10.7-8.8H637.2z M654.8,154.5c-3.9,2.9-7.8,6.8-11.7,9.7h13.6
		c2.9-2.9,5.8-4.9,9.7-7.8c1-1,1.9-1,2.9-1.9H654.8z M676.2,174c-1.9,1-2.9,2.9-4.9,4.9c-1.9,1.9-3.9,3.9-5.8,4.9h8.8
		c3.9-2.9,6.8-6.8,10.7-9.7L676.2,174L676.2,174z M692.8,174c-3.9,2.9-7.8,6.8-10.7,9.7h10.7c3.9-2.9,7.8-6.8,11.7-9.7H692.8z
		 M649.9,174l-12.7,9.7h13.6c3.9-3.9,6.8-6.8,9.7-9.7H649.9z M637.2,174v5.8c1.9-1.9,4.9-3.9,6.8-5.8H637.2z M637.2,135v9.7h23.4
		c3.9-2.9,8.8-6.8,12.7-9.7H637.2z M696.7,135c-3.9,2.9-6.8,6.8-10.7,9.7h9.7c4.9-2.9,8.8-6.8,12.7-9.7H696.7z M710.3,144.8h4.9
		v-4.9C713.3,141.9,712.3,142.8,710.3,144.8z M678.2,135c-2.9,2.9-5.8,4.9-8.8,7.8c-1,1-1.9,1.9-2.9,1.9h13.6
		c4.9-2.9,8.8-6.8,12.7-9.7H678.2z M700.6,213c-1.9,1-3.9,2.9-4.9,3.9v10.7c0,0,1,0,1-1c5.8-4.9,11.7-8.8,17.5-13.6L700.6,213
		L700.6,213z M664.5,193.5c-2.9,2.9-6.8,6.8-9.7,9.7h4.9c2.9-1.9,4.9-4.9,7.8-6.8v-2.9H664.5z M641.1,193.5c-1,1-2.9,2.9-3.9,3.9
		v5.8h5.8c3.9-2.9,7.8-6.8,10.7-9.7H641.1z M664.5,193.5c-2.9,2.9-6.8,6.8-9.7,9.7h4.9c2.9-1.9,4.9-4.9,7.8-6.8v-2.9H664.5z
		 M641.1,193.5c-1,1-2.9,2.9-3.9,3.9v5.8h5.8c3.9-2.9,7.8-6.8,10.7-9.7H641.1z M713.3,154.5c-3.9,2.9-6.8,6.8-10.7,9.7h12.7v-9.7
		H713.3z M674.3,154.5c-3.9,2.9-7.8,6.8-11.7,9.7h9.7c3.9-2.9,7.8-6.8,11.7-9.7H674.3z M698.7,154.5c-3.9,2.9-6.8,5.8-10.7,9.7h8.8
		l1.9-1.9c2.9-2.9,6.8-4.9,9.7-7.8H698.7z M637.2,154.5v8.8c3.9-2.9,6.8-5.8,10.7-8.8H637.2z M654.8,154.5
		c-3.9,2.9-7.8,6.8-11.7,9.7h13.6c2.9-2.9,5.8-4.9,9.7-7.8c1-1,1.9-1,2.9-1.9H654.8z M637.2,135v9.7h23.4c3.9-2.9,8.8-6.8,12.7-9.7
		H637.2z M696.7,135c-3.9,2.9-6.8,6.8-10.7,9.7h9.7c4.9-2.9,8.8-6.8,12.7-9.7H696.7z M710.3,144.8h4.9v-4.9
		C713.3,141.9,712.3,142.8,710.3,144.8z M678.2,135c-2.9,2.9-5.8,4.9-8.8,7.8c-1,1-1.9,1.9-2.9,1.9h13.6c4.9-2.9,8.8-6.8,12.7-9.7
		H678.2z M700.6,213c-1.9,1-3.9,2.9-4.9,3.9v10.7c0,0,1,0,1-1c5.8-4.9,11.7-8.8,17.5-13.6L700.6,213L700.6,213z M676.2,174
		c-1.9,1-2.9,2.9-4.9,4.9c-1.9,1.9-3.9,3.9-5.8,4.9h8.8c3.9-2.9,6.8-6.8,10.7-9.7L676.2,174L676.2,174z M692.8,174
		c-3.9,2.9-7.8,6.8-10.7,9.7h10.7c3.9-2.9,7.8-6.8,11.7-9.7H692.8z M649.9,174l-12.7,9.7h13.6c3.9-3.9,6.8-6.8,9.7-9.7H649.9z
		 M637.2,174v5.8c1.9-1.9,4.9-3.9,6.8-5.8H637.2z M734.7,197.4L734.7,197.4L734.7,197.4c1-1,1.9-1.9,2.9-1.9
		C736.7,196.5,735.7,196.5,734.7,197.4z M713.3,154.5c-3.9,2.9-6.8,6.8-10.7,9.7h12.7v-9.7H713.3z M674.3,154.5
		c-3.9,2.9-7.8,6.8-11.7,9.7h9.7c3.9-2.9,7.8-6.8,11.7-9.7H674.3z M698.7,154.5c-3.9,2.9-6.8,5.8-10.7,9.7h8.8l1.9-1.9
		c2.9-2.9,6.8-4.9,9.7-7.8H698.7z M637.2,154.5v8.8c3.9-2.9,6.8-5.8,10.7-8.8H637.2z M654.8,154.5c-3.9,2.9-7.8,6.8-11.7,9.7h13.6
		c2.9-2.9,5.8-4.9,9.7-7.8c1-1,1.9-1,2.9-1.9H654.8z M676.2,174c-1.9,1-2.9,2.9-4.9,4.9c-1.9,1.9-3.9,3.9-5.8,4.9h8.8
		c3.9-2.9,6.8-6.8,10.7-9.7L676.2,174L676.2,174z M692.8,174c-3.9,2.9-7.8,6.8-10.7,9.7h10.7c3.9-2.9,7.8-6.8,11.7-9.7H692.8z
		 M649.9,174l-12.7,9.7h13.6c3.9-3.9,6.8-6.8,9.7-9.7H649.9z M637.2,174v5.8c1.9-1.9,4.9-3.9,6.8-5.8H637.2z M637.2,135v9.7h23.4
		c3.9-2.9,8.8-6.8,12.7-9.7H637.2z M696.7,135c-3.9,2.9-6.8,6.8-10.7,9.7h9.7c4.9-2.9,8.8-6.8,12.7-9.7H696.7z M710.3,144.8h4.9
		v-4.9C713.3,141.9,712.3,142.8,710.3,144.8z M678.2,135c-2.9,2.9-5.8,4.9-8.8,7.8c-1,1-1.9,1.9-2.9,1.9h13.6
		c4.9-2.9,8.8-6.8,12.7-9.7H678.2z M664.5,193.5c-2.9,2.9-6.8,6.8-9.7,9.7h4.9c2.9-1.9,4.9-4.9,7.8-6.8v-2.9H664.5z M641.1,193.5
		c-1,1-2.9,2.9-3.9,3.9v5.8h5.8c3.9-2.9,7.8-6.8,10.7-9.7H641.1z M664.5,193.5c-2.9,2.9-6.8,6.8-9.7,9.7h4.9
		c2.9-1.9,4.9-4.9,7.8-6.8v-2.9H664.5z M641.1,193.5c-1,1-2.9,2.9-3.9,3.9v5.8h5.8c3.9-2.9,7.8-6.8,10.7-9.7H641.1z M713.3,154.5
		c-3.9,2.9-6.8,6.8-10.7,9.7h12.7v-9.7H713.3z M674.3,154.5c-3.9,2.9-7.8,6.8-11.7,9.7h9.7c3.9-2.9,7.8-6.8,11.7-9.7H674.3z
		 M698.7,154.5c-3.9,2.9-6.8,5.8-10.7,9.7h8.8l1.9-1.9c2.9-2.9,6.8-4.9,9.7-7.8H698.7z M637.2,154.5v8.8c3.9-2.9,6.8-5.8,10.7-8.8
		H637.2z M654.8,154.5c-3.9,2.9-7.8,6.8-11.7,9.7h13.6c2.9-2.9,5.8-4.9,9.7-7.8c1-1,1.9-1,2.9-1.9H654.8z M637.2,135v9.7h23.4
		c3.9-2.9,8.8-6.8,12.7-9.7H637.2z M696.7,135c-3.9,2.9-6.8,6.8-10.7,9.7h9.7c4.9-2.9,8.8-6.8,12.7-9.7H696.7z M710.3,144.8h4.9
		v-4.9C713.3,141.9,712.3,142.8,710.3,144.8z M678.2,135c-2.9,2.9-5.8,4.9-8.8,7.8c-1,1-1.9,1.9-2.9,1.9h13.6
		c4.9-2.9,8.8-6.8,12.7-9.7H678.2z M676.2,174c-1.9,1-2.9,2.9-4.9,4.9c-1.9,1.9-3.9,3.9-5.8,4.9h8.8c3.9-2.9,6.8-6.8,10.7-9.7
		L676.2,174L676.2,174z M692.8,174c-3.9,2.9-7.8,6.8-10.7,9.7h10.7c3.9-2.9,7.8-6.8,11.7-9.7H692.8z M649.9,174l-12.7,9.7h13.6
		c3.9-3.9,6.8-6.8,9.7-9.7H649.9z M637.2,174v5.8c1.9-1.9,4.9-3.9,6.8-5.8H637.2z M700.6,213c-1.9,1-3.9,2.9-4.9,3.9v10.7
		c0,0,1,0,1-1c5.8-4.9,11.7-8.8,17.5-13.6L700.6,213L700.6,213z M713.3,154.5c-3.9,2.9-6.8,6.8-10.7,9.7h12.7v-9.7H713.3z
		 M674.3,154.5c-3.9,2.9-7.8,6.8-11.7,9.7h9.7c3.9-2.9,7.8-6.8,11.7-9.7H674.3z M698.7,154.5c-3.9,2.9-6.8,5.8-10.7,9.7h8.8l1.9-1.9
		c2.9-2.9,6.8-4.9,9.7-7.8H698.7z M637.2,154.5v8.8c3.9-2.9,6.8-5.8,10.7-8.8H637.2z M654.8,154.5c-3.9,2.9-7.8,6.8-11.7,9.7h13.6
		c2.9-2.9,5.8-4.9,9.7-7.8c1-1,1.9-1,2.9-1.9H654.8z M676.2,174c-1.9,1-2.9,2.9-4.9,4.9c-1.9,1.9-3.9,3.9-5.8,4.9h8.8
		c3.9-2.9,6.8-6.8,10.7-9.7L676.2,174L676.2,174z M692.8,174c-3.9,2.9-7.8,6.8-10.7,9.7h10.7c3.9-2.9,7.8-6.8,11.7-9.7H692.8z
		 M649.9,174l-12.7,9.7h13.6c3.9-3.9,6.8-6.8,9.7-9.7H649.9z M637.2,174v5.8c1.9-1.9,4.9-3.9,6.8-5.8H637.2z M637.2,135v9.7h23.4
		c3.9-2.9,8.8-6.8,12.7-9.7H637.2z M696.7,135c-3.9,2.9-6.8,6.8-10.7,9.7h9.7c4.9-2.9,8.8-6.8,12.7-9.7H696.7z M710.3,144.8h4.9
		v-4.9C713.3,141.9,712.3,142.8,710.3,144.8z M678.2,135c-2.9,2.9-5.8,4.9-8.8,7.8c-1,1-1.9,1.9-2.9,1.9h13.6
		c4.9-2.9,8.8-6.8,12.7-9.7H678.2z M664.5,193.5c-2.9,2.9-6.8,6.8-9.7,9.7h4.9c2.9-1.9,4.9-4.9,7.8-6.8v-2.9H664.5z M641.1,193.5
		c-1,1-2.9,2.9-3.9,3.9v5.8h5.8c3.9-2.9,7.8-6.8,10.7-9.7H641.1z M664.5,193.5c-2.9,2.9-6.8,6.8-9.7,9.7h4.9
		c2.9-1.9,4.9-4.9,7.8-6.8v-2.9H664.5z M641.1,193.5c-1,1-2.9,2.9-3.9,3.9v5.8h5.8c3.9-2.9,7.8-6.8,10.7-9.7H641.1z M713.3,154.5
		c-3.9,2.9-6.8,6.8-10.7,9.7h12.7v-9.7H713.3z M674.3,154.5c-3.9,2.9-7.8,6.8-11.7,9.7h9.7c3.9-2.9,7.8-6.8,11.7-9.7H674.3z
		 M698.7,154.5c-3.9,2.9-6.8,5.8-10.7,9.7h8.8l1.9-1.9c2.9-2.9,6.8-4.9,9.7-7.8H698.7z M637.2,154.5v8.8c3.9-2.9,6.8-5.8,10.7-8.8
		H637.2z M654.8,154.5c-3.9,2.9-7.8,6.8-11.7,9.7h13.6c2.9-2.9,5.8-4.9,9.7-7.8c1-1,1.9-1,2.9-1.9H654.8z M637.2,135v9.7h23.4
		c3.9-2.9,8.8-6.8,12.7-9.7H637.2z M696.7,135c-3.9,2.9-6.8,6.8-10.7,9.7h9.7c4.9-2.9,8.8-6.8,12.7-9.7H696.7z M710.3,144.8h4.9
		v-4.9C713.3,141.9,712.3,142.8,710.3,144.8z M678.2,135c-2.9,2.9-5.8,4.9-8.8,7.8c-1,1-1.9,1.9-2.9,1.9h13.6
		c4.9-2.9,8.8-6.8,12.7-9.7H678.2z M676.2,174c-1.9,1-2.9,2.9-4.9,4.9c-1.9,1.9-3.9,3.9-5.8,4.9h8.8c3.9-2.9,6.8-6.8,10.7-9.7
		L676.2,174L676.2,174z M692.8,174c-3.9,2.9-7.8,6.8-10.7,9.7h10.7c3.9-2.9,7.8-6.8,11.7-9.7H692.8z M649.9,174l-12.7,9.7h13.6
		c3.9-3.9,6.8-6.8,9.7-9.7H649.9z M637.2,174v5.8c1.9-1.9,4.9-3.9,6.8-5.8H637.2z M700.6,213c-1.9,1-3.9,2.9-4.9,3.9v10.7
		c0,0,1,0,1-1c5.8-4.9,11.7-8.8,17.5-13.6L700.6,213L700.6,213z M713.3,154.5c-3.9,2.9-6.8,6.8-10.7,9.7h12.7v-9.7H713.3z
		 M674.3,154.5c-3.9,2.9-7.8,6.8-11.7,9.7h9.7c3.9-2.9,7.8-6.8,11.7-9.7H674.3z M698.7,154.5c-3.9,2.9-6.8,5.8-10.7,9.7h8.8l1.9-1.9
		c2.9-2.9,6.8-4.9,9.7-7.8H698.7z M637.2,154.5v8.8c3.9-2.9,6.8-5.8,10.7-8.8H637.2z M654.8,154.5c-3.9,2.9-7.8,6.8-11.7,9.7h13.6
		c2.9-2.9,5.8-4.9,9.7-7.8c1-1,1.9-1,2.9-1.9H654.8z M676.2,174c-1.9,1-2.9,2.9-4.9,4.9c-1.9,1.9-3.9,3.9-5.8,4.9h8.8
		c3.9-2.9,6.8-6.8,10.7-9.7L676.2,174L676.2,174z M692.8,174c-3.9,2.9-7.8,6.8-10.7,9.7h10.7c3.9-2.9,7.8-6.8,11.7-9.7H692.8z
		 M649.9,174l-12.7,9.7h13.6c3.9-3.9,6.8-6.8,9.7-9.7H649.9z M637.2,174v5.8c1.9-1.9,4.9-3.9,6.8-5.8H637.2z M637.2,135v9.7h23.4
		c3.9-2.9,8.8-6.8,12.7-9.7H637.2z M696.7,135c-3.9,2.9-6.8,6.8-10.7,9.7h9.7c4.9-2.9,8.8-6.8,12.7-9.7H696.7z M710.3,144.8h4.9
		v-4.9C713.3,141.9,712.3,142.8,710.3,144.8z M678.2,135c-2.9,2.9-5.8,4.9-8.8,7.8c-1,1-1.9,1.9-2.9,1.9h13.6
		c4.9-2.9,8.8-6.8,12.7-9.7H678.2z M664.5,193.5c-2.9,2.9-6.8,6.8-9.7,9.7h4.9c2.9-1.9,4.9-4.9,7.8-6.8v-2.9H664.5z M641.1,193.5
		c-1,1-2.9,2.9-3.9,3.9v5.8h5.8c3.9-2.9,7.8-6.8,10.7-9.7H641.1z"/>
</g>
</svg>
