<?xml version="1.0" encoding="utf-8"?>
<!-- Generator: Adobe Illustrator 23.0.0, SVG Export Plug-In . SVG Version: 6.00 Build 0)  -->
<svg version="1.1" id="Layer_1" xmlns="http://www.w3.org/2000/svg" xmlns:xlink="http://www.w3.org/1999/xlink" x="0px" y="0px"
	 viewBox="0 0 256 256" style="enable-background:new 0 0 256 256;" xml:space="preserve">
<style type="text/css">
	.st0{opacity:0.8;fill:#0E0E17;}
	.st1{fill:#0E0E17;}
	.st2{fill:none;stroke:#F75049;stroke-miterlimit:10;}
	.st3{fill:#F75049;}
</style>
<g>
	<g>
		<path class="st0" d="M217.1,40.1h-67.5c-6.8-6.3-13.6-12.7-20.4-19.1H36.7c-2.3,2.2-4.6,4.5-6.9,6.7v200.1l8,8h160.9
			c9-9.8,17.9-19.7,26.8-29.5V46.8C222.7,44.6,219.9,42.4,217.1,40.1z M217.3,168c-2.7,3.4-5.4,7-8.1,10.4v40.6
			c-2.6,2.6-5.3,5.1-7.9,7.7H47.9c-2.6-2.6-5.2-5.2-7.8-7.9v-40.4c-2.6-3.4-5.3-7-7.9-10.4V95.5c2.6-2.3,5.3-4.5,7.9-6.8V50.3
			c2.6-2.6,5.2-5.3,7.8-7.9h153.3c2.7,2.7,5.3,5.4,8,8.1v38.3c2.6,2.2,5.3,4.5,8,6.8V168z"/>
		<path class="st1" d="M217.1,40.1h-67.5c-6.8-6.3-13.6-12.7-20.4-19.1H36.7c-2.3,2.2-4.6,4.5-6.9,6.7v200.1l8,8h160.9
			c9-9.8,17.9-19.7,26.8-29.5V46.8C222.7,44.6,219.9,42.4,217.1,40.1z M217.3,168c-2.7,3.4-5.4,7-8.1,10.4v40.6
			c-2.6,2.6-5.3,5.1-7.9,7.7H47.9c-2.6-2.6-5.2-5.2-7.8-7.9v-40.4c-2.6-3.4-5.3-7-7.9-10.4V95.5c2.6-2.3,5.3-4.5,7.9-6.8V50.3
			c2.6-2.6,5.2-5.3,7.8-7.9h153.3c2.7,2.7,5.3,5.4,8,8.1v38.3c2.6,2.2,5.3,4.5,8,6.8V168z"/>
		<g>
			<path class="st1" d="M217.3,95.7V168c-2.7,3.4-5.4,7-8.1,10.4v40.6c-2.6,2.6-5.3,5.1-7.9,7.7H47.9c-2.6-2.6-5.2-5.2-7.8-7.9
				v-40.4c-2.6-3.4-5.3-7-7.9-10.4V95.5c2.6-2.3,5.3-4.5,7.9-6.8V50.3c2.6-2.6,5.2-5.3,7.8-7.9h153.3c2.7,2.7,5.3,5.4,8,8.1v38.3
				C211.9,91.1,214.6,93.4,217.3,95.7z"/>
		</g>
	</g>
	<path class="st2" d="M217.1,40.1h-67.5c-6.8-6.3-13.6-12.7-20.4-19.1H36.7c-2.3,2.2-4.6,4.5-6.9,6.7v200.1l8,8h160.9
		c9-9.8,17.9-19.7,26.8-29.5V46.8C222.7,44.6,219.9,42.4,217.1,40.1z M217.3,168c-2.7,3.4-5.4,7-8.1,10.4v40.6
		c-2.6,2.6-5.3,5.1-7.9,7.7H47.9c-2.6-2.6-5.2-5.2-7.8-7.9v-40.4c-2.6-3.4-5.3-7-7.9-10.4V95.5c2.6-2.3,5.3-4.5,7.9-6.8V50.3
		c2.6-2.6,5.2-5.3,7.8-7.9h153.3c2.7,2.7,5.3,5.4,8,8.1v38.3c2.6,2.2,5.3,4.5,8,6.8V168z"/>
</g>
<g transform="translate(-332 -80)">
	<path class="st3" d="M465.9,172.5v5.9c3-3,6.9-5.9,9.9-7.9v-6.9C472.8,165.5,469.9,168.5,465.9,172.5z M465.9,172.5v5.9
		c3-3,6.9-5.9,9.9-7.9v-6.9C472.8,165.5,469.9,168.5,465.9,172.5z M465.9,172.5v5.9c3-3,6.9-5.9,9.9-7.9v-6.9
		C472.8,165.5,469.9,168.5,465.9,172.5z M484.7,204l-1,1c-5.9,4.9-11.9,10.9-17.8,15.8v2c1-1,1-1,2-2c6.9-5.9,12.8-12.8,19.8-18.8
		C486.7,203.1,485.7,204,484.7,204z M495.5,139.9h-19.8c-9.9,0-9.9,9.9-9.9,9.9v14.8c3.9-3,6.9-5.9,9.9-7.9v-6.9h8.9
		c3.9-3,6.9-4,6.9-4s-1,1-3,4h6.9v13.8c1-1,2-2,3-3c-1,1-2,2-3,3v5.9h-5.9c-3,3-6.9,6.9-10.9,9.9c-4.9,4-8.9,7.9-13.8,11.8v7.9
		c11.9-9.9,22.7-19.8,33.6-28.6c-9.9,8.9-19.8,18.8-29.6,27.7c-1,1-3,2-3.9,4v6.9c8.9-6.9,17.8-13.8,26.7-18.8
		c-8.9,7.9-17.8,15.8-26.7,22.7v6.9c6.9-4.9,12.8-10.9,18.8-15.8c6.9-5.9,13.8-11.8,20.7-16.8v-37.5
		C505.4,139.9,495.5,139.9,495.5,139.9z M465.9,172.5v5.9c3-3,6.9-5.9,9.9-7.9v-6.9C472.8,165.5,469.9,168.5,465.9,172.5z
		 M476.8,169.5c-3.9,4-7.9,7.9-10.9,10.9v6.9c2-1,3-3,4.9-4c5.9-4.9,10.9-9.9,16.8-13.8C487.6,169.5,476.8,169.5,476.8,169.5z
		 M500.5,206c-3,3-2,2-3.9,4c-8.9,7.9-15.8,9.9-16.8,14.8v2c2,2,11.9-8.9,12.8-7.9c0,0-1,3-2,3c-6.9,10.9-10.9,10.9-14.8,17.8
		c-1,2-2,4.9-4.9,6.9c-2,2-3,2-3.9,3c0,0-1,0-1,1c1,4,2,7.9,3.9,12.8c3,8.9,6.9,17.8,10.9,26.7l4.9,7.9l4.9-8.9
		c3.9-8.9,7.9-17.8,10.9-26.7c2-6.9,3.9-10.9,3.9-12.8v-1v-48.4C503.4,203.1,502.5,204,500.5,206z M491.6,259.3c-1,3-2,5.9-3.9,8.9
		h-3.9c-1-3-3-6.9-3.9-8.9c-2-6.9-3.9-10.9-3.9-10.9h19.8C495.5,248.5,493.6,252.4,491.6,259.3z M465.9,172.5v5.9
		c3-3,6.9-5.9,9.9-7.9v-6.9C472.8,165.5,469.9,168.5,465.9,172.5z M465.9,172.5v5.9c3-3,6.9-5.9,9.9-7.9v-6.9
		C472.8,165.5,469.9,168.5,465.9,172.5z"/>
	<path class="st3" d="M436.3,199.1v6.9c2-2,4.9-4.9,6.9-6.9H436.3z M443.2,184.3c-2,2-3.9,4-5.9,4.9h7.9v6.9c3-3,6.9-5.9,9.9-9.9
		v-13.8C452.1,176.4,448.1,179.4,443.2,184.3z M436.3,209h6.9c3.9-4,7.9-7.9,12.8-11.8v-5.9C449.1,197.1,443.2,203.1,436.3,209z
		 M436.3,238.6v7.9c3-3,4.9-4.9,7.9-7.9H436.3z M436.3,218.9v7.9c3-3,4.9-4.9,7.9-7.9H436.3z M436.3,199.1v6.9c2-2,4.9-4.9,6.9-6.9
		H436.3z M443.2,184.3c-2,2-3.9,4-5.9,4.9h7.9v6.9c3-3,6.9-5.9,9.9-9.9v-13.8C452.1,176.4,448.1,179.4,443.2,184.3z M436.3,209h6.9
		c3.9-4,7.9-7.9,12.8-11.8v-5.9C449.1,197.1,443.2,203.1,436.3,209z M436.3,238.6v7.9c3-3,4.9-4.9,7.9-7.9H436.3z M436.3,218.9v7.9
		c3-3,4.9-4.9,7.9-7.9H436.3z M452.1,235.6c2-1,3-2,3.9-3v-1C454.1,232.7,453.1,233.7,452.1,235.6z M436.3,238.6v7.9
		c3-3,4.9-4.9,7.9-7.9H436.3z M436.3,218.9v7.9c3-3,4.9-4.9,7.9-7.9H436.3z M436.3,199.1v6.9c2-2,4.9-4.9,6.9-6.9H436.3z M436.3,209
		h6.9c3.9-4,7.9-7.9,12.8-11.8v-5.9C449.1,197.1,443.2,203.1,436.3,209z M452.1,235.6c2-1,3-2,3.9-3v-1
		C454.1,232.7,453.1,233.7,452.1,235.6z M436.3,218.9v7.9c3-3,4.9-4.9,7.9-7.9H436.3z M444.2,209h2v7.9c3-3,6.9-5.9,9.9-8.9v-8.9
		C452.1,203.1,448.1,206,444.2,209z M436.3,199.1v6.9c2-2,4.9-4.9,6.9-6.9H436.3z M436.3,248.5L436.3,248.5h9.9v9.9h-9.9v9.9h9.9
		v9.9h-29.6v-59.3c-3,3-6.9,5.9-9.9,9.9V288H456v-56.3C449.1,237.6,443.2,243.5,436.3,248.5z M416.5,191.2c-3,3-6.9,4.9-9.9,7.9
		v23.7c3-3,6.9-6.9,9.9-9.9v-10.9c-3,2-5.9,4-7.9,6.9c3-3,4.9-4.9,7.9-7.9V191.2z M443.2,184.3c-2,2-3.9,4-5.9,4.9h7.9v6.9
		c3-3,6.9-5.9,9.9-9.9v-13.8C452.1,176.4,448.1,179.4,443.2,184.3z M416.5,151.7c-3,3-6.9,5.9-9.9,9.9v7.9c3-4,5.9-6.9,9.9-10.9
		V151.7L416.5,151.7z M406.7,139.9v1l1-1H406.7z M414.6,139.9l-7.9,4.9v13.8c0,0,1-1,2-1c6.9-5.9,12.8-11.8,18.8-17.8H414.6z
		 M438.3,139.9c-3,3-5.9,6.9-8.9,9.9h16.8v9.9h-9.9v9.9h2c5.9-4.9,11.9-9.9,17.8-14.8v-14.8H438.3z M442.2,168.5
		C442.2,169.5,442.2,169.5,442.2,168.5l3.9,1v6.9c1-1,2-1,3-2c3-2,4.9-4.9,7.9-6.9v-11.8C452.1,160.6,447.2,164.5,442.2,168.5z
		 M428.4,139.9c-3,3-6.9,6.9-9.9,9.9h7.9c3.9-4,7.9-6.9,11.9-9.9H428.4z M406.7,173.4v24.7c3-3,6.9-5.9,9.9-9.9v-24.7
		C413.6,167.5,409.6,170.5,406.7,173.4z M439.3,179.4c-1,1-2,1-3,2v4c2-2,3.9-4,6.9-5.9H439.3z M436.3,209h6.9
		c3.9-4,7.9-7.9,12.8-11.8v-5.9C449.1,197.1,443.2,203.1,436.3,209z M436.3,227.8L436.3,227.8l6.9,1c3.9-4,8.9-7.9,12.8-11.8V211
		C449.1,216.9,443.2,222.8,436.3,227.8z M446.2,229.7v6.9c3-3,6.9-5.9,9.9-8.9v-6.9C453.1,223.8,449.1,226.8,446.2,229.7z
		 M436.3,238.6v7.9c3-3,4.9-4.9,7.9-7.9H436.3z M436.3,218.9v7.9c3-3,4.9-4.9,7.9-7.9H436.3z M452.1,235.6c2-1,3-2,3.9-3v-1
		C454.1,232.7,453.1,233.7,452.1,235.6z M436.3,238.6v7.9c3-3,4.9-4.9,7.9-7.9H436.3z M436.3,199.1v6.9c2-2,4.9-4.9,6.9-6.9H436.3z
		 M443.2,184.3c-2,2-3.9,4-5.9,4.9h7.9v6.9c3-3,6.9-5.9,9.9-9.9v-13.8C452.1,176.4,448.1,179.4,443.2,184.3z M436.3,209h6.9
		c3.9-4,7.9-7.9,12.8-11.8v-5.9C449.1,197.1,443.2,203.1,436.3,209z M436.3,218.9v7.9c3-3,4.9-4.9,7.9-7.9H436.3z M436.3,238.6v7.9
		c3-3,4.9-4.9,7.9-7.9H436.3z M436.3,199.1v6.9c2-2,4.9-4.9,6.9-6.9H436.3z M443.2,184.3c-2,2-3.9,4-5.9,4.9h7.9v6.9
		c3-3,6.9-5.9,9.9-9.9v-13.8C452.1,176.4,448.1,179.4,443.2,184.3z M436.3,209h6.9c3.9-4,7.9-7.9,12.8-11.8v-5.9
		C449.1,197.1,443.2,203.1,436.3,209z"/>
</g>
<path class="st3" d="M152.7,124l-1,1c-5.9,5.9-11.8,10.9-17.8,16.8v2c1-1,1-1,2-2c6.9-5.9,12.8-12.8,19.8-18.8
	C154.7,123.1,153.7,124,152.7,124z M120.1,155.6c1-2,3-3,4-3.9v-1C122.1,152.7,121.1,153.7,120.1,155.6z M152.7,124l-1,1
	c-5.9,5.9-11.8,10.9-17.8,16.8v2c1-1,1-1,2-2c6.9-5.9,12.8-12.8,19.8-18.8C154.7,123.1,153.7,124,152.7,124z M120.1,155.6
	c1-2,3-3,4-3.9v-1C122.1,152.7,121.1,153.7,120.1,155.6z M152.7,124l-1,1c-5.9,5.9-11.8,10.9-17.8,16.8v2c1-1,1-1,2-2
	c6.9-5.9,12.8-12.8,19.8-18.8C154.7,123.1,153.7,124,152.7,124z M120.1,155.6c1-2,3-3,4-3.9v-1C122.1,152.7,121.1,153.7,120.1,155.6
	z M152.7,124l-1,1c-5.9,5.9-11.8,10.9-17.8,16.8v2c1-1,1-1,2-2c6.9-5.9,12.8-12.8,19.8-18.8C154.7,123.1,153.7,124,152.7,124z
	 M120.1,155.6c1-2,3-3,4-3.9v-1C122.1,152.7,121.1,153.7,120.1,155.6z M152.7,124l-1,1c-5.9,5.9-11.8,10.9-17.8,16.8v2c1-1,1-1,2-2
	c6.9-5.9,12.8-12.8,19.8-18.8C154.7,123.1,153.7,124,152.7,124z M120.1,155.6c1-2,3-3,4-3.9v-1C122.1,152.7,121.1,153.7,120.1,155.6
	z M152.7,124l-1,1c-5.9,5.9-11.8,10.9-17.8,16.8v2c1-1,1-1,2-2c6.9-5.9,12.8-12.8,19.8-18.8C154.7,123.1,153.7,124,152.7,124z
	 M120.1,155.6c1-2,3-3,4-3.9v-1C122.1,152.7,121.1,153.7,120.1,155.6z M152.7,124l-1,1c-5.9,5.9-11.8,10.9-17.8,16.8v2c1-1,1-1,2-2
	c6.9-5.9,12.8-12.8,19.8-18.8C154.7,123.1,153.7,124,152.7,124z M120.1,155.6c1-2,3-3,4-3.9v-1C122.1,152.7,121.1,153.7,120.1,155.6
	z M152.7,124l-1,1c-5.9,5.9-11.8,10.9-17.8,16.8v2c1-1,1-1,2-2c6.9-5.9,12.8-12.8,19.8-18.8C154.7,123.1,153.7,124,152.7,124z
	 M120.1,155.6c1-2,3-3,4-3.9v-1C122.1,152.7,121.1,153.7,120.1,155.6z M152.7,124l-1,1c-5.9,5.9-11.8,10.9-17.8,16.8v2c1-1,1-1,2-2
	c6.9-5.9,12.8-12.8,19.8-18.8C154.7,123.1,153.7,124,152.7,124z M120.1,155.6c1-2,3-3,4-3.9v-1C122.1,152.7,121.1,153.7,120.1,155.6
	z M152.7,124l-1,1c-5.9,5.9-11.8,10.9-17.8,16.8v2c1-1,1-1,2-2c6.9-5.9,12.8-12.8,19.8-18.8C154.7,123.1,153.7,124,152.7,124z
	 M120.1,155.6c1-2,3-3,4-3.9v-1C122.1,152.7,121.1,153.7,120.1,155.6z M144.8,89.5c-3,3.9-6.9,7.9-10.9,10.9v6.9c2-1,3-3,4.9-3.9
	c5.9-4.9,10.9-9.9,16.8-13.8C155.6,89.5,144.8,89.5,144.8,89.5z M152.7,124l-1,1c-5.9,5.9-11.8,10.9-17.8,16.8v2c1-1,1-1,2-2
	c6.9-5.9,12.8-12.8,19.8-18.8C154.7,123.1,153.7,124,152.7,124z M120.1,155.6c1-2,3-3,4-3.9v-1C122.1,152.7,121.1,153.7,120.1,155.6
	z M152.7,124l-1,1c-5.9,5.9-11.8,10.9-17.8,16.8v2c1-1,1-1,2-2c6.9-5.9,12.8-12.8,19.8-18.8C154.7,123.1,153.7,124,152.7,124z
	 M120.1,155.6c1-2,3-3,4-3.9v-1C122.1,152.7,121.1,153.7,120.1,155.6z M144.8,89.5c-3,3.9-6.9,7.9-10.9,10.9v6.9c2-1,3-3,4.9-3.9
	c5.9-4.9,10.9-9.9,16.8-13.8C155.6,89.5,144.8,89.5,144.8,89.5z M84.5,71.7c-3,3-6.9,5.9-9.9,9.9v7.9c3-4,5.9-6.9,9.9-10.9V71.7
	L84.5,71.7z M96.4,59.9c-3,3-6.9,6.9-9.9,9.9h7.9c4-4,7.9-6.9,11.8-9.9H96.4z M74.7,93.4v24.7c3-3,6.9-5.9,9.9-9.9V83.6
	C81.6,87.5,77.6,90.5,74.7,93.4z M106.3,59.9c-3,3-5.9,6.9-8.9,9.9h16.8v9.9h-9.9v9.9h2c5.9-4.9,11.9-9.9,17.8-14.8V59.9H106.3z
	 M104.3,168.5L104.3,168.5h9.9v9.9h-9.9v9.9h9.9v1c3-2,5.9-4.9,7.9-7.9c1,0,2-1,2-2v-27.7C117.1,157.6,111.2,163.5,104.3,168.5z
	 M152.7,124l-1,1c-5.9,5.9-11.8,10.9-17.8,16.8v2c1-1,1-1,2-2c6.9-5.9,12.8-12.8,19.8-18.8C154.7,123.1,153.7,124,152.7,124z
	 M163.5,59.9h-19.8c-9.9,0-9.9,9.9-9.9,9.9v6.9c1-1,2-1,2-2c0,1-1,2-2,3v6.9c3.9-3,6.9-5.9,9.9-7.9v-6.9h8.9c3.9-3,6.9-4,6.9-4
	s-1,1-3,4h6.9v13.8c1-1,2-2,3-3c-1,1-2,2-3,3v5.9h-5.9c-3,3-6.9,6.9-10.9,9.9c-3.9,3.9-7.9,7.9-12.8,11.8v7.9
	c11.8-9.9,22.7-19.8,33.6-28.6c-9.9,8.9-19.8,18.8-29.6,27.7c-1,1-3,3-3.9,4v6.9c8.9-6.9,17.8-13.8,26.7-18.8
	c-8.9,6.9-17.8,14.8-26.7,22.7v6.9c6.9-4.9,12.8-10.9,18.8-15.8c6.9-5.9,13.8-11.8,20.7-16.8V69.7C173.4,59.9,163.5,59.9,163.5,59.9
	z M144.8,89.5c-3,3.9-6.9,7.9-10.9,10.9v6.9c2-1,3-3,4.9-3.9c5.9-4.9,10.9-9.9,16.8-13.8C155.6,89.5,144.8,89.5,144.8,89.5z
	 M133.9,92.4v5.9c3-3.9,6.9-5.9,9.9-8.9v-6.9C140.8,85.5,137.9,88.5,133.9,92.4z M104.3,129h6.9c3.9-4,7.9-7.9,12.8-11.8v-6.9
	C117.1,117.1,111.2,123.1,104.3,129z M104.3,147.7L104.3,147.7l6.9,1c3.9-3.9,7.9-7.9,12.8-11.9V131
	C117.1,136.9,111.2,142.8,104.3,147.7z M112.2,129h2v7.9c3-3,6.9-5.9,9.9-8.9v-8.9C120.1,123.1,116.1,126,112.2,129z M84.5,111.2
	c-3,3-6.9,4.9-9.9,7.9v23.7c3-3,6.9-6.9,9.9-9.9v-11.8c-3,3-5.9,4.9-7.9,6.9c2-3,4.9-5.9,7.9-7.9V111.2z M110.2,88.5
	C110.2,89.5,110.2,89.5,110.2,88.5l4,1v3c3-3,6.9-4.9,9.9-7.9v-8.9C120.1,80.6,115.2,84.5,110.2,88.5z M114.2,149.7
	c-3,3-6.9,5.9-9.9,8.9v7.9c3-3,4.9-4.9,7.9-7.9c0,0,1-1,2-2c3-2,6.9-4.9,9.9-7.9v-6.9C121.1,143.8,117.1,146.8,114.2,149.7z
	 M114.2,111.2v4.9c3-3,6.9-5.9,9.9-9.9v-4.9C121.1,104.3,118.1,107.3,114.2,111.2z M84.5,198.1v-59.3c-3,3-6.9,6.9-9.9,9.9V208h25.7
	c0-1,1-2,1-3c1-3,0-3.9,2-6.9c0,0,0,0,0-1H84.5V198.1z M105.3,119.1l-1,1v5.9c2-2,4.9-4.9,6.9-6.9H105.3z M152.7,124l-1,1
	c-5.9,5.9-11.8,10.9-17.8,16.8v2c1-1,1-1,2-2c6.9-5.9,12.8-12.8,19.8-18.8C154.7,123.1,153.7,124,152.7,124z M120.1,155.6
	c1-2,3-3,4-3.9v-1C122.1,152.7,121.1,153.7,120.1,155.6z M104.3,138.9v7.9c3-3,4.9-4.9,7.9-7.9H104.3z M144.8,89.5
	c-3,3.9-6.9,7.9-10.9,10.9v6.9c2-1,3-3,4.9-3.9c5.9-4.9,10.9-9.9,16.8-13.8C155.6,89.5,144.8,89.5,144.8,89.5z M152.7,124l-1,1
	c-5.9,5.9-11.8,10.9-17.8,16.8v2c1-1,1-1,2-2c6.9-5.9,12.8-12.8,19.8-18.8C154.7,123.1,153.7,124,152.7,124z M120.1,155.6
	c1-2,3-3,4-3.9v-1C122.1,152.7,121.1,153.7,120.1,155.6z M152.7,124l-1,1c-5.9,5.9-11.8,10.9-17.8,16.8v2c1-1,1-1,2-2
	c6.9-5.9,12.8-12.8,19.8-18.8C154.7,123.1,153.7,124,152.7,124z M120.1,155.6c1-2,3-3,4-3.9v-1C122.1,152.7,121.1,153.7,120.1,155.6
	z M74.7,59.9v1l1-1H74.7z M152.7,124l-1,1c-5.9,5.9-11.8,10.9-17.8,16.8v2c1-1,1-1,2-2c6.9-5.9,12.8-12.8,19.8-18.8
	C154.7,123.1,153.7,124,152.7,124z M120.1,155.6c1-2,3-3,4-3.9v-1C122.1,152.7,121.1,153.7,120.1,155.6z M152.7,124l-1,1
	c-5.9,5.9-11.8,10.9-17.8,16.8v2c1-1,1-1,2-2c6.9-5.9,12.8-12.8,19.8-18.8C154.7,123.1,153.7,124,152.7,124z M120.1,155.6
	c1-2,3-3,4-3.9v-1C122.1,152.7,121.1,153.7,120.1,155.6z M152.7,124l-1,1c-5.9,5.9-11.8,10.9-17.8,16.8v2c1-1,1-1,2-2
	c6.9-5.9,12.8-12.8,19.8-18.8C154.7,123.1,153.7,124,152.7,124z M120.1,155.6c1-2,3-3,4-3.9v-1C122.1,152.7,121.1,153.7,120.1,155.6
	z M152.7,124l-1,1c-5.9,5.9-11.8,10.9-17.8,16.8v2c1-1,1-1,2-2c6.9-5.9,12.8-12.8,19.8-18.8C154.7,123.1,153.7,124,152.7,124z
	 M120.1,155.6c1-2,3-3,4-3.9v-1C122.1,152.7,121.1,153.7,120.1,155.6z M152.7,124l-1,1c-5.9,5.9-11.8,10.9-17.8,16.8v2c1-1,1-1,2-2
	c6.9-5.9,12.8-12.8,19.8-18.8C154.7,123.1,153.7,124,152.7,124z M120.1,155.6c1-2,3-3,4-3.9v-1C122.1,152.7,121.1,153.7,120.1,155.6
	z M152.7,124l-1,1c-5.9,5.9-11.8,10.9-17.8,16.8v2c1-1,1-1,2-2c6.9-5.9,12.8-12.8,19.8-18.8C154.7,123.1,153.7,124,152.7,124z
	 M120.1,155.6c1-2,3-3,4-3.9v-1C122.1,152.7,121.1,153.7,120.1,155.6z M152.7,124l-1,1c-5.9,5.9-11.8,10.9-17.8,16.8v2c1-1,1-1,2-2
	c6.9-5.9,12.8-12.8,19.8-18.8C154.7,123.1,153.7,124,152.7,124z M120.1,155.6c1-2,3-3,4-3.9v-1C122.1,152.7,121.1,153.7,120.1,155.6
	z M152.7,124l-1,1c-5.9,5.9-11.8,10.9-17.8,16.8v2c1-1,1-1,2-2c6.9-5.9,12.8-12.8,19.8-18.8C154.7,123.1,153.7,124,152.7,124z
	 M120.1,155.6c1-2,3-3,4-3.9v-1C122.1,152.7,121.1,153.7,120.1,155.6z M152.7,124l-1,1c-5.9,5.9-11.8,10.9-17.8,16.8v2c1-1,1-1,2-2
	c6.9-5.9,12.8-12.8,19.8-18.8C154.7,123.1,153.7,124,152.7,124z M120.1,155.6c1-2,3-3,4-3.9v-1C122.1,152.7,121.1,153.7,120.1,155.6
	z M152.7,124l-1,1c-5.9,5.9-11.8,10.9-17.8,16.8v2c1-1,1-1,2-2c6.9-5.9,12.8-12.8,19.8-18.8C154.7,123.1,153.7,124,152.7,124z
	 M120.1,155.6c1-2,3-3,4-3.9v-1C122.1,152.7,121.1,153.7,120.1,155.6z M82.6,59.9l-7.9,4.9v13.8c0,0,1-1,2-1
	c5.9-6.9,12.8-12.8,18.8-17.8H82.6z"/>
</svg>
