<?xml version="1.0" encoding="utf-8"?>
<!-- Generator: Adobe Illustrator 23.0.0, SVG Export Plug-In . SVG Version: 6.00 Build 0)  -->
<svg version="1.1" id="Layer_1" xmlns="http://www.w3.org/2000/svg" xmlns:xlink="http://www.w3.org/1999/xlink" x="0px" y="0px"
	 viewBox="0 0 256 256" style="enable-background:new 0 0 256 256;" xml:space="preserve">
<style type="text/css">
	.st0{fill-rule:evenodd;clip-rule:evenodd;fill:#F75049;}
	.st1{fill:#F75049;}
</style>
<g>
	<path class="st0" d="M190.2,148v-10.1h-6.3c-3.8,0-6.3,2.5-6.3,6.3c0,1.3,0,3.8,2.5,3.8l6.3,7.6c-3.8,2.5-6.3,3.8-12.6,7.6
		c-2.5,2.5-6.3,5.1-8.9,7.6v5.1h-3.8l-1.3,1.3c-3.8,5.1-7.6,11.4-7.6,17.7c0,7.6,2.5,13.9,6.3,19H170c7.6,0,12.6,0,16.4-1.3
		c-6.3-1.3-10.1-2.5-13.9-3.8c-5.1-2.5-6.3-6.3-6.3-13.9c0-2.5,1.3-6.3,5.1-10.1s7.6-7.6,11.4-11.4c3.8-2.5,6.3-5.1,8.9-6.3v-12.6
		c1.3-2.5,3.8-5.1,6.3-7.6c1.3-1.3,3.8-5.1,3.8-6.3C197.8,140.4,194,144.2,190.2,148z M233.2,177.1c-3.8-5.1-8.9-10.1-13.9-12.6
		c-6.3-5.1-8.9-6.3-12.6-7.6l6.3-7.6c2.5-2.5,2.5-6.3,0-8.9c0-1.3-2.5-2.5-3.8-2.5h-6.3v30.4c2.5,1.3,5.1,3.8,8.9,6.3
		c5.1,3.8,8.9,7.6,11.4,11.4s5.1,7.6,5.1,10.1c0,7.6-2.5,11.4-6.3,13.9c-3.8,2.5-10.1,3.8-20.2,5.1v1.3c-1.3,3.8-3.8,6.3-7.6,8.9
		c-2.5,1.3-5.1,2.5-8.9,2.5c3.8,0,7.6,0,11.4,0c12.6,0,24-1.3,31.6-6.3c7.6-5.1,12.6-13.9,12.6-25.3
		C240.8,188.5,237,182.1,233.2,177.1z"/>
	<g transform="translate(-512 -52)">
		<path class="st1" d="M639,198.7v13.9c2.5-2.5,3.8-3.8,6.3-6.3c2.5-1.3,3.8-3.8,6.3-5.1v-13.9C647.8,192.4,642.8,194.9,639,198.7z
			 M639,178.5v11.4l12.6-10.1v-12.6C647.8,170.9,642.8,174.7,639,178.5z M668.1,151.9c0,0-1.3,1.3-2.5,1.3c-1.3,1.3-1.3,1.3-2.5,2.5
			v13.9c3.8-3.8,8.9-6.3,12.6-10.1v-7.6H668.1z M664.3,177.2v13.9c3.8-3.8,8.9-7.6,12.6-10.1v-15.2
			C673.1,169.6,668.1,173.4,664.3,177.2z M664.3,193.7v3.8c3.8-3.8,8.9-7.6,12.6-11.4v-3.8C673.1,186.1,668.1,189.9,664.3,193.7z
			 M639,198.7v13.9c2.5-2.5,3.8-3.8,6.3-6.3c2.5-1.3,3.8-3.8,6.3-5.1v-13.9C647.8,192.4,642.8,194.9,639,198.7z M639,178.5v11.4
			l12.6-10.1v-12.6C647.8,170.9,642.8,174.7,639,178.5z M639,198.7v13.9c2.5-2.5,3.8-3.8,6.3-6.3c2.5-1.3,3.8-3.8,6.3-5.1v-13.9
			C647.8,192.4,642.8,194.9,639,198.7z M639,178.5v11.4l12.6-10.1v-12.6C647.8,170.9,642.8,174.7,639,178.5z M644,151.9
			c-1.3,1.3-3.8,2.5-5.1,3.8v16.4c3.8-3.8,8.9-7.6,12.6-11.4v-8.9H644z M639,220.2L639,220.2v7.6h12.6v-17.7
			C647.8,213.9,642.8,216.4,639,220.2z M639,198.7v13.9c2.5-2.5,3.8-3.8,6.3-6.3c2.5-1.3,3.8-3.8,6.3-5.1v-13.9
			C647.8,192.4,642.8,194.9,639,198.7z M639,178.5v11.4l12.6-10.1v-12.6C647.8,170.9,642.8,174.7,639,178.5z M613.7,151.9v2.5
			c1.3-1.3,1.3-1.3,2.5-2.5H613.7z M613.7,201.2v12.6c3.8-3.8,8.9-7.6,12.6-11.4v-12.6C622.5,193.7,617.5,197.4,613.7,201.2z
			 M613.7,175.9v20.2c3.8-3.8,8.9-7.6,12.6-11.4v-17.7C622.5,169.6,617.5,173.4,613.7,175.9z M613.7,221.5v6.3h8.9
			c1.3-1.3,2.5-2.5,3.8-3.8v-13.9C622.5,213.9,617.5,217.7,613.7,221.5z M623.8,151.9c-3.8,3.8-7.6,6.3-10.1,10.1v12.6
			c3.8-3.8,8.9-8.9,12.6-12.6v-10.1H623.8z M613.7,151.9v2.5c1.3-1.3,1.3-1.3,2.5-2.5H613.7z M613.7,201.2v12.6
			c3.8-3.8,8.9-7.6,12.6-11.4v-12.6C622.5,193.7,617.5,197.4,613.7,201.2z M613.7,175.9v20.2c3.8-3.8,8.9-7.6,12.6-11.4v-17.7
			C622.5,169.6,617.5,173.4,613.7,175.9z M613.7,221.5v6.3h8.9c1.3-1.3,2.5-2.5,3.8-3.8v-13.9C622.5,213.9,617.5,217.7,613.7,221.5z
			 M623.8,151.9c-3.8,3.8-7.6,6.3-10.1,10.1v12.6c3.8-3.8,8.9-8.9,12.6-12.6v-10.1H623.8z M644,151.9c-1.3,1.3-3.8,2.5-5.1,3.8v16.4
			c3.8-3.8,8.9-7.6,12.6-11.4v-8.9H644z M613.7,151.9v2.5c1.3-1.3,1.3-1.3,2.5-2.5H613.7z M613.7,201.2v12.6
			c3.8-3.8,8.9-7.6,12.6-11.4v-12.6C622.5,193.7,617.5,197.4,613.7,201.2z M613.7,175.9v20.2c3.8-3.8,8.9-7.6,12.6-11.4v-17.7
			C622.5,169.6,617.5,173.4,613.7,175.9z M613.7,221.5v6.3h8.9c1.3-1.3,2.5-2.5,3.8-3.8v-13.9C622.5,213.9,617.5,217.7,613.7,221.5z
			 M623.8,151.9c-3.8,3.8-7.6,6.3-10.1,10.1v12.6c3.8-3.8,8.9-8.9,12.6-12.6v-10.1H623.8z M644,151.9c-1.3,1.3-3.8,2.5-5.1,3.8v16.4
			c3.8-3.8,8.9-7.6,12.6-11.4v-8.9H644z M563.1,126.6v5.1c2.5-1.3,3.8-3.8,5.1-5.1H563.1z M617.5,79.8l-3.8,1.3v6.3
			c3.8-2.5,6.3-6.3,10.1-8.9C620,79.8,617.5,79.8,617.5,79.8z M655.4,76c-3.8,3.8-8.9,8.9-12.6,12.6c1.3,0,2.5,0,3.8,0
			c3.8,0,6.3,0,8.9,0c5.1-3.8,8.9-7.6,12.6-10.1C664.3,77.3,660.5,77.3,655.4,76z M664.3,96.3v5.1c-1.3,0-3.8,0-5.1,0
			c-11.4,10.1-25.3,24-40.5,39.2h11.4c6.3-6.3,12.6-11.4,19-17.7c10.1-8.9,19-16.4,29.1-25.3V84.9C673.1,87.4,669.3,91.2,664.3,96.3
			z M630.1,100.1c-1.3,1.3-3.8,3.8-5.1,5.1c-16.4,15.2-32.9,29.1-48.1,41.7v17.7c5.1-5.1,8.9-10.1,12.6-13.9v-11.4H601
			c5.1-5.1,8.9-8.9,15.2-15.2c8.9-8.9,19-16.4,27.8-25.3C637.7,100.1,633.9,100.1,630.1,100.1z M711.1,159.5
			c-2.5,2.5-5.1,5.1-8.9,7.6v21.5c3.8-2.5,7.6-5.1,12.6-8.9V157C713.6,157,712.3,158.2,711.1,159.5z M609.9,265.7
			c-11.4,0-16.4,0-19-1.3c0,0-1.3-1.3-1.3-2.5v-1.3c-2.5,1.3-3.8,3.8-6.3,5.1c2.5-1.3,3.8-3.8,6.3-6.3c0-1.3,0-3.8,0-6.3V243
			c-3.8,3.8-8.9,7.6-12.6,11.4c0,5.1,0,8.9,2.5,12.6c1.3,3.8,3.8,6.3,7.6,8.9c6.3,3.8,13.9,3.8,25.3,3.8H639
			c5.1-5.1,8.9-8.9,12.6-12.6h-41.7V265.7z M702.2,151.9v8.9c3.8-2.5,6.3-6.3,10.1-8.9H702.2z M575.7,232.9v20.2
			c3.8-5.1,8.9-8.9,12.6-13.9v-16.4C584.6,226.5,579.5,230.3,575.7,232.9z M575.7,197.4v34.1c3.8-3.8,8.9-7.6,12.6-12.6v-34.1
			C584.6,189.9,579.5,193.7,575.7,197.4z M575.7,179.7v15.2c3.8-5.1,8.9-8.9,12.6-13.9v-12.6C584.6,172.2,579.5,175.9,575.7,179.7z
			 M714.9,126.6V114c-1.3,0-2.5-1.3-3.8-1.3c-10.1,8.9-19,17.7-29.1,26.6h24c1.3-1.3,3.8-2.5,5.1-2.5c-1.3,1.3-2.5,2.5-3.8,2.5h20.2
			v-12.6H714.9z M676.9,102.6v-2.5c-11.4,11.4-21.5,22.8-32.9,32.9c-2.5,2.5-3.8,3.8-6.3,6.3h13.9c6.3-5.1,11.4-10.1,17.7-15.2
			c7.6-6.3,13.9-12.6,21.5-19C685.8,105.1,680.7,103.9,676.9,102.6z M694.6,106.4c-3.8,2.5-6.3,6.3-10.1,8.9
			c-8.9,8.9-17.7,16.4-26.6,24h17.7c11.4-8.9,21.5-19,31.6-27.8C704.7,110.2,699.7,108.9,694.6,106.4z M645.3,76
			c-5.1,0-10.1,0-13.9,1.3c-5.1,5.1-11.4,10.1-17.7,16.4v8.9c-5.1,1.3-8.9,1.3-13.9,2.5c-7.6,7.6-16.4,13.9-24,21.5
			c-3.8,3.8-8.9,7.6-12.6,10.1v2.5h12.6v2.5c10.1-8.9,20.2-19,31.6-27.8c6.3-5.1,12.6-11.4,19-16.4v-6.3c2.5,0,5.1-1.3,10.1-2.5
			c5.1-5.1,11.4-8.9,16.4-12.6C650.4,76,647.8,76,645.3,76z M575.7,114v6.3c3.8-3.8,7.6-7.6,12.6-11.4
			C583.3,111.4,579.5,112.7,575.7,114z M644,151.9c-1.3,1.3-3.8,2.5-5.1,3.8v16.4c3.8-3.8,8.9-7.6,12.6-11.4v-8.9H644z M613.7,151.9
			v2.5c1.3-1.3,1.3-1.3,2.5-2.5H613.7z M613.7,201.2v12.6c3.8-3.8,8.9-7.6,12.6-11.4v-12.6C622.5,193.7,617.5,197.4,613.7,201.2z
			 M613.7,175.9v20.2c3.8-3.8,8.9-7.6,12.6-11.4v-17.7C622.5,169.6,617.5,173.4,613.7,175.9z M613.7,221.5v6.3h8.9
			c1.3-1.3,2.5-2.5,3.8-3.8v-13.9C622.5,213.9,617.5,217.7,613.7,221.5z M623.8,151.9c-3.8,3.8-7.6,6.3-10.1,10.1v12.6
			c3.8-3.8,8.9-8.9,12.6-12.6v-10.1H623.8z M639,220.2L639,220.2v7.6h12.6v-17.7C647.8,213.9,642.8,216.4,639,220.2z M644,151.9
			c-1.3,1.3-3.8,2.5-5.1,3.8v16.4c3.8-3.8,8.9-7.6,12.6-11.4v-8.9H644z M613.7,151.9v2.5c1.3-1.3,1.3-1.3,2.5-2.5H613.7z
			 M613.7,201.2v12.6c3.8-3.8,8.9-7.6,12.6-11.4v-12.6C622.5,193.7,617.5,197.4,613.7,201.2z M613.7,175.9v20.2
			c3.8-3.8,8.9-7.6,12.6-11.4v-17.7C622.5,169.6,617.5,173.4,613.7,175.9z M613.7,221.5v6.3h8.9c1.3-1.3,2.5-2.5,3.8-3.8v-13.9
			C622.5,213.9,617.5,217.7,613.7,221.5z M623.8,151.9c-3.8,3.8-7.6,6.3-10.1,10.1v12.6c3.8-3.8,8.9-8.9,12.6-12.6v-10.1H623.8z"/>
	</g>
	<path class="st1" d="M164.9,130.3v3.8c-3.8,3.8-8.9,7.6-12.6,11.4v-3.8C156.1,137.9,161.1,134.1,164.9,130.3z"/>
	<path class="st1" d="M164.9,130.3v3.8c-3.8,3.8-8.9,7.6-12.6,11.4v-3.8C156.1,137.9,161.1,134.1,164.9,130.3z"/>
	<path class="st1" d="M164.9,130.3v3.8c-3.8,3.8-8.9,7.6-12.6,11.4v-3.8C156.1,137.9,161.1,134.1,164.9,130.3z"/>
	<path class="st1" d="M164.9,130.3v3.8c-3.8,3.8-8.9,7.6-12.6,11.4v-3.8C156.1,137.9,161.1,134.1,164.9,130.3z"/>
	<path class="st1" d="M164.9,130.3v3.8c-3.8,3.8-8.9,7.6-12.6,11.4v-3.8C156.1,137.9,161.1,134.1,164.9,130.3z"/>
	<path class="st1" d="M164.9,130.3v3.8c-3.8,3.8-8.9,7.6-12.6,11.4v-3.8C156.1,137.9,161.1,134.1,164.9,130.3z"/>
	<path class="st1" d="M164.9,130.3v3.8c-3.8,3.8-8.9,7.6-12.6,11.4v-3.8C156.1,137.9,161.1,134.1,164.9,130.3z"/>
	<path class="st1" d="M164.9,130.3v3.8c-3.8,3.8-8.9,7.6-12.6,11.4v-3.8C156.1,137.9,161.1,134.1,164.9,130.3z"/>
	<path class="st1" d="M164.9,130.3v3.8c-3.8,3.8-8.9,7.6-12.6,11.4v-3.8C156.1,137.9,161.1,134.1,164.9,130.3z"/>
	<path class="st1" d="M164.9,130.3v3.8c-3.8,3.8-8.9,7.6-12.6,11.4v-3.8C156.1,137.9,161.1,134.1,164.9,130.3z"/>
	<path class="st1" d="M129.5,48.1c-8.9,7.6-17.7,15.2-27.8,24c-5.1,6.3-8.9,10.1-13.9,15.2H76.4v11.4c-3.8,3.8-7.6,8.9-12.6,13.9
		V94.9c16.4-12.6,31.6-26.6,48.1-41.7c2.5-1.3,3.8-2.5,6.3-5.1C121.9,48.1,125.7,48.1,129.5,48.1z"/>
	<path class="st1" d="M76.4,56.9c-5.1,3.8-8.9,7.6-12.6,11.4V62C67.5,60.7,71.3,59.4,76.4,56.9z"/>
	<path class="st1" d="M56.2,74.6c-1.3,1.3-2.5,3.8-5.1,5.1v-5.1H56.2z"/>
	<path class="st1" d="M111.8,26.6c-3.8,2.5-6.3,5.1-10.1,8.9v-6.3l3.8-1.3C105.5,27.8,108,27.8,111.8,26.6z"/>
	<path class="st1" d="M140.9,24c-5.1,3.8-11.4,8.9-16.4,12.6c-5.1,1.3-7.6,2.5-10.1,2.5v6.3c-6.3,5.1-12.6,10.1-19,16.4
		c-11.4,8.9-21.5,19-31.6,27.8v-2.5H51.1v-2.5c3.8-2.5,8.9-6.3,12.6-10.1c7.6-6.3,16.4-13.9,24-21.5c5.1,0,8.9-1.3,13.9-2.5v-8.9
		c6.3-5.1,11.4-11.4,17.7-16.4c3.8-1.3,8.9-1.3,13.9-1.3C135.8,24,138.4,24,140.9,24z"/>
	<path class="st1" d="M156.1,26.6c-5.1,3.8-8.9,6.3-13.9,10.1c-2.5,0-5.1,0-8.9,0c-1.3,0-2.5,0-3.8,0c3.8-3.8,8.9-7.6,12.6-12.6
		C148.5,25.3,152.3,25.3,156.1,26.6z"/>
	<path class="st1" d="M76.4,129c-3.8,5.1-8.9,8.9-12.6,13.9v-15.2c3.8-3.8,8.9-7.6,12.6-12.6V129z"/>
	<path class="st1" d="M76.4,134.1v34.1c-3.8,3.8-8.9,7.6-12.6,12.6v-35.4C67.5,141.7,72.6,137.9,76.4,134.1z"/>
	<path class="st1" d="M63.7,180.9c3.8-3.8,8.9-7.6,12.6-11.4v16.4c-3.8,5.1-8.9,8.9-12.6,13.9V180.9z"/>
	<path class="st1" d="M135.8,213.7c-2.5,3.8-6.3,7.6-12.6,12.6H97.9c-10.1,0-19,0-25.3-3.8c-3.8-1.3-5.1-5.1-7.6-8.9
		c-1.3-2.5-1.3-6.3-1.3-11.4c3.8-3.8,8.9-7.6,12.6-11.4v10.1c0,2.5,0,5.1,0,6.3c-2.5,2.5-3.8,3.8-6.3,6.3c2.5-1.3,3.8-2.5,6.3-5.1
		v1.3c0,1.3,1.3,1.3,1.3,2.5c3.8,1.3,8.9,1.3,20.2,1.3H135.8z"/>
	<path class="st1" d="M104.2,99.9c-1.3,1.3-1.3,1.3-2.5,2.5v-2.5H104.2z"/>
	<path class="st1" d="M114.3,99.9V110c-3.8,3.8-8.9,7.6-12.6,12.6V110c3.8-3.8,7.6-6.3,10.1-10.1H114.3z"/>
	<path class="st1" d="M114.3,115.1v17.7c-3.8,3.8-8.9,7.6-12.6,11.4v-20.2C105.5,121.4,110.5,117.6,114.3,115.1z"/>
	<path class="st1" d="M101.7,149.2c3.8-3.8,8.9-7.6,12.6-11.4v11.4c-3.8,3.8-8.9,7.6-12.6,11.4V149.2z"/>
	<path class="st1" d="M114.3,158.1V172c-1.3,1.3-2.5,2.5-3.8,3.8h-8.9v-6.3C105.5,165.7,110.5,161.9,114.3,158.1z"/>
	<path class="st1" d="M139.6,99.9V110c-3.8,3.8-8.9,7.6-12.6,11.4v-17.7c1.3-1.3,3.8-2.5,5.1-3.8H139.6z"/>
	<path class="st1" d="M139.6,115.1v12.6L127,137.9v-11.4C130.8,122.7,135.8,118.9,139.6,115.1z"/>
	<path class="st1" d="M139.6,136.6v13.9c-2.5,1.3-3.8,3.8-6.3,5.1c-2.5,1.3-5.1,3.8-6.3,6.3v-15.2
		C130.8,142.9,135.8,140.4,139.6,136.6z"/>
	<path class="st1" d="M139.6,158.1v17.7H127v-7.6l0,0C130.8,164.4,135.8,161.9,139.6,158.1z"/>
	<path class="st1" d="M164.9,99.9v7.6c-3.8,3.8-8.9,6.3-12.6,10.1v-13.9c1.3,0,1.3-1.3,2.5-2.5c0,0,1.3-1.3,2.5-1.3
		C157.3,99.9,164.9,99.9,164.9,99.9z"/>
	<path class="st1" d="M164.9,113.8V129c-3.8,3.8-8.9,6.3-12.6,10.1v-13.9C156.1,121.4,161.1,117.6,164.9,113.8z"/>
	<path class="st1" d="M152.3,141.7c3.8-3.8,8.9-7.6,12.6-11.4v3.8c-3.8,3.8-8.9,7.6-12.6,11.4V141.7z"/>
	<path class="st1" d="M164.9,31.6v12.6c-8.9,7.6-19,16.4-29.1,25.3c-6.3,6.3-12.6,11.4-17.7,17.7h-11.4
		c16.4-15.2,29.1-27.8,40.5-39.2c1.3,0,3.8,0,5.1,0v-3.8C157.3,39.2,161.1,35.4,164.9,31.6z"/>
	<path class="st1" d="M156.1,72.1c-5.1,5.1-11.4,10.1-16.4,15.2h-13.9c2.5-2.5,3.8-3.8,6.3-6.3c11.4-10.1,21.5-21.5,32.9-32.9v2.5
		c3.8,1.3,8.9,1.3,12.6,2.5C171.2,59.4,163.7,65.8,156.1,72.1z"/>
	<path class="st1" d="M197.8,59.4c-11.4,8.9-21.5,19-32.9,27.8h-17.7c8.9-7.6,17.7-15.2,26.6-24c3.8-2.5,6.3-6.3,10.1-8.9
		C187.7,56.9,192.7,58.2,197.8,59.4z"/>
	<path class="st1" d="M215.5,74.6v12.6h-20.2c1.3-1.3,2.5-2.5,3.8-2.5c-1.3,1.3-2.5,2.5-5.1,2.5h-24c10.1-8.9,19-17.7,29.1-26.6
		c1.3,0,2.5,1.3,3.8,1.3v12.6H215.5z"/>
	<path class="st1" d="M200.3,99.9c-3.8,2.5-6.3,5.1-10.1,8.9v-8.9H200.3z"/>
	<path class="st1" d="M202.9,103.7v22.8c-5.1,3.8-8.9,6.3-12.6,8.9v-20.2c2.5-2.5,5.1-5.1,8.9-7.6
		C200.3,106.2,201.6,105,202.9,103.7z"/>
	<path class="st1" d="M164.9,130.3v3.8c-3.8,3.8-8.9,7.6-12.6,11.4v-3.8C156.1,137.9,161.1,134.1,164.9,130.3z"/>
	<path class="st1" d="M164.9,130.3v3.8c-3.8,3.8-8.9,7.6-12.6,11.4v-3.8C156.1,137.9,161.1,134.1,164.9,130.3z"/>
	<path class="st1" d="M164.9,130.3v3.8c-3.8,3.8-8.9,7.6-12.6,11.4v-3.8C156.1,137.9,161.1,134.1,164.9,130.3z"/>
	<path class="st1" d="M164.9,130.3v3.8c-3.8,3.8-8.9,7.6-12.6,11.4v-3.8C156.1,137.9,161.1,134.1,164.9,130.3z"/>
	<path class="st1" d="M164.9,130.3v3.8c-3.8,3.8-8.9,7.6-12.6,11.4v-3.8C156.1,137.9,161.1,134.1,164.9,130.3z"/>
	<path class="st1" d="M164.9,130.3v3.8c-3.8,3.8-8.9,7.6-12.6,11.4v-3.8C156.1,137.9,161.1,134.1,164.9,130.3z"/>
	<path class="st1" d="M164.9,130.3v3.8c-3.8,3.8-8.9,7.6-12.6,11.4v-3.8C156.1,137.9,161.1,134.1,164.9,130.3z"/>
	<path class="st1" d="M164.9,130.3v3.8c-3.8,3.8-8.9,7.6-12.6,11.4v-3.8C156.1,137.9,161.1,134.1,164.9,130.3z"/>
	<path class="st1" d="M164.9,130.3v3.8c-3.8,3.8-8.9,7.6-12.6,11.4v-3.8C156.1,137.9,161.1,134.1,164.9,130.3z"/>
	<path class="st1" d="M164.9,130.3v3.8c-3.8,3.8-8.9,7.6-12.6,11.4v-3.8C156.1,137.9,161.1,134.1,164.9,130.3z"/>
</g>
</svg>
