<?xml version="1.0" encoding="utf-8"?>
<!-- Generator: Adobe Illustrator 23.0.0, SVG Export Plug-In . SVG Version: 6.00 Build 0)  -->
<svg version="1.1" id="Layer_1" xmlns="http://www.w3.org/2000/svg" xmlns:xlink="http://www.w3.org/1999/xlink" x="0px" y="0px"
	 viewBox="0 0 256 256" style="enable-background:new 0 0 256 256;" xml:space="preserve">
<style type="text/css">
	.st0{opacity:0.8;fill:#0E0E17;}
	.st1{fill:#0E0E17;}
	.st2{fill:none;stroke:#F75049;stroke-miterlimit:10;}
	.st3{fill:#CBA6F7;}
	.st4{fill-rule:evenodd;clip-rule:evenodd;fill:#CBA6F7;}
	.st5{fill:#F75049;}
</style>
<g>
	<g>
		<path class="st0" d="M218.1,40.1h-67.5c-6.8-6.3-13.6-12.7-20.4-19.1H37.7c-2.3,2.2-4.6,4.5-6.9,6.7v200.1l8,8h160.9
			c9-9.8,17.9-19.7,26.8-29.5V46.8C223.7,44.6,220.9,42.4,218.1,40.1z M218.3,168c-2.7,3.4-5.4,7-8.1,10.4v40.6
			c-2.6,2.6-5.3,5.1-7.9,7.7H48.9c-2.6-2.6-5.2-5.2-7.8-7.9v-40.4c-2.6-3.4-5.3-7-7.9-10.4V95.5c2.6-2.3,5.3-4.5,7.9-6.8V50.3
			c2.6-2.6,5.2-5.3,7.8-7.9h153.3c2.7,2.7,5.3,5.4,8,8.1v38.3c2.6,2.2,5.3,4.5,8,6.8V168z"/>
		<path class="st1" d="M218.1,40.1h-67.5c-6.8-6.3-13.6-12.7-20.4-19.1H37.7c-2.3,2.2-4.6,4.5-6.9,6.7v200.1l8,8h160.9
			c9-9.8,17.9-19.7,26.8-29.5V46.8C223.7,44.6,220.9,42.4,218.1,40.1z M218.3,168c-2.7,3.4-5.4,7-8.1,10.4v40.6
			c-2.6,2.6-5.3,5.1-7.9,7.7H48.9c-2.6-2.6-5.2-5.2-7.8-7.9v-40.4c-2.6-3.4-5.3-7-7.9-10.4V95.5c2.6-2.3,5.3-4.5,7.9-6.8V50.3
			c2.6-2.6,5.2-5.3,7.8-7.9h153.3c2.7,2.7,5.3,5.4,8,8.1v38.3c2.6,2.2,5.3,4.5,8,6.8V168z"/>
		<g>
			<path class="st1" d="M218.3,95.7V168c-2.7,3.4-5.4,7-8.1,10.4v40.6c-2.6,2.6-5.3,5.1-7.9,7.7H48.9c-2.6-2.6-5.2-5.2-7.8-7.9
				v-40.4c-2.6-3.4-5.3-7-7.9-10.4V95.5c2.6-2.3,5.3-4.5,7.9-6.8V50.3c2.6-2.6,5.2-5.3,7.8-7.9h153.3c2.7,2.7,5.3,5.4,8,8.1v38.3
				C212.9,91.1,215.6,93.4,218.3,95.7z"/>
		</g>
	</g>
	<path class="st2" d="M218.1,40.1h-67.5c-6.8-6.3-13.6-12.7-20.4-19.1H37.7c-2.3,2.2-4.6,4.5-6.9,6.7v200.1l8,8h160.9
		c9-9.8,17.9-19.7,26.8-29.5V46.8C223.7,44.6,220.9,42.4,218.1,40.1z M218.3,168c-2.7,3.4-5.4,7-8.1,10.4v40.6
		c-2.6,2.6-5.3,5.1-7.9,7.7H48.9c-2.6-2.6-5.2-5.2-7.8-7.9v-40.4c-2.6-3.4-5.3-7-7.9-10.4V95.5c2.6-2.3,5.3-4.5,7.9-6.8V50.3
		c2.6-2.6,5.2-5.3,7.8-7.9h153.3c2.7,2.7,5.3,5.4,8,8.1v38.3c2.6,2.2,5.3,4.5,8,6.8V168z"/>
</g>
<g>
	<g transform="translate(-512 -32)">
		<path class="st3" d="M683,119.5l-1,1l-1-1H683z"/>
		<path class="st3" d="M693.3,200.8c0,0-1,0-2.1,1v3.1C691.3,202.9,693.3,200.8,693.3,200.8z M669.7,234.8L669.7,234.8l1-1
			C670.7,233.8,669.7,234.8,669.7,234.8z"/>
		<path class="st3" d="M670.7,233.8v1h-1C669.7,234.8,670.7,233.8,670.7,233.8z"/>
		<path class="st4" d="M657.3,113.3c-2.1,2.1-3.1,3.1-5.1,5.1h-1C653.2,116.4,655.3,115.4,657.3,113.3z"/>
	</g>
	<path class="st5" d="M145.3,81.3c-2.1,2.1-3.1,4.1-5.1,5.1h-1C141.2,84.4,143.3,83.4,145.3,81.3z"/>
	<path class="st5" d="M152.5,171.9c-4.1,5.1-9.3,9.3-14.4,13.4l19.6-21.6v1v1C156.6,167.8,154.6,169.9,152.5,171.9z"/>
	<path class="st5" d="M146.3,147.2c-6.2,6.2-12.4,12.4-18.5,18.5v-11.3c2.1-2.1,5.1-4.1,7.2-6.2c2.1,0,5.1,0,8.2,0
		C144.3,147.2,145.3,147.2,146.3,147.2z"/>
	<path class="st5" d="M140.2,164.7c-4.1,4.1-8.2,8.2-12.4,12.4v-7.2c7.2-7.2,14.4-14.4,21.6-21.6h1c2.1,1,3.1,2.1,4.1,3.1
		C150.5,155.4,145.3,160.6,140.2,164.7z"/>
	<path class="st5" d="M130.9,148.2c-1,1-2.1,3.1-3.1,4.1v-3.1C128.8,149.3,129.9,148.2,130.9,148.2z"/>
	<path class="st5" d="M142.2,177.1c-5.1,5.1-10.3,9.3-14.4,14.4v-9.3c6.2-6.2,13.4-12.4,19.6-18.5c3.1-3.1,6.2-6.2,9.3-9.3
		c0,1,1,2.1,1,3.1c0,2.1,1,3.1,1,5.1C153.5,167.8,148.4,171.9,142.2,177.1z"/>
	<path class="st5" d="M127.8,195.6c3.1-3.1,7.2-6.2,10.3-10.3c6.2-5.1,13.4-11.3,20.6-17.5v34l-1,1h1v8.2h-48.4
		c4.1-3.1,8.2-7.2,12.4-10.3h5.1V195.6z"/>
	<path class="st5" d="M179.3,171.9v-2.1c1-1,1-1,2.1-1C181.3,168.8,179.3,170.9,179.3,171.9z"/>
	<path class="st5" d="M189.6,87.5v20.6l0,0c-2.1,2.1-4.1,4.1-7.2,6.2c-2.1,2.1-5.1,4.1-7.2,7.2l-6.2-6.2c2.1-2.1,5.1-5.1,7.2-7.2
		s4.1-5.1,6.2-7.2c2.1-2.1,4.1-4.1,6.2-6.2c-2.1,2.1-4.1,4.1-6.2,6.2c-2.1,2.1-5.1,4.1-7.2,6.2c-3.1,2.1-5.1,4.1-8.2,7.2l-5.1-6.2
		c2.1-3.1,4.1-5.1,7.2-7.2c0-1,1-2.1,2.1-3.1c-1,1-2.1,2.1-3.1,2.1c-2.1,2.1-5.1,4.1-7.2,7.2l-4.1-4.1c2.1-3.1,5.1-5.1,7.2-7.2
		c2.1-3.1,5.1-5.1,6.2-7.2l1-1H189.6z"/>
	<path class="st5" d="M171,97.8c-1,1-2.1,2.1-2.1,2.1l0,0C169,98.8,170,98.8,171,97.8z"/>
	<path class="st5" d="M189.6,128.7v6.2l0,0c-3.1,3.1-6.2,6.2-10.3,8.2v-17.5l-3.1-3.1c1-2.1,2.1-3.1,3.1-4.1L189.6,128.7z"/>
	<path class="st5" d="M189.6,137.9V211h-10.3v-39.1c0-1,2.1-3.1,2.1-4.1c0,0-1,0-2.1,1v-20.6l1-1C183.4,144.1,186.5,141,189.6,137.9
		z"/>
	<path class="st5" d="M208.1,141l-7.2,7.2l-3.1-3.1l-8.2-8.2c2.1-2.1,5.1-5.1,7.2-7.2l8.2,8.2L208.1,141z"/>
	<path class="st5" d="M92.8,83.4c-17.5,18.5-34,37.1-49.4,54.6c10.3-14.4,23.7-30.9,39.1-47.4c11.3-11.3,21.6-21.6,32.9-30.9
		C107.2,67.9,100,75.1,92.8,83.4z"/>
	<path class="st5" d="M159.7,91.6c-2.1,2.1-5.1,4.1-8.2,7.2l-4.1-5.1c2.1-2.1,3.1-4.1,5.1-5.1c-2.1,1-4.1,3.1-6.2,4.1l-6.2-6.2
		c2.1-2.1,3.1-3.1,5.1-5.1c-2.1,2.1-4.1,3.1-5.1,5.1l-12.4-12.4l-51.5,51.5v53.5c-3.1,4.1-7.2,8.2-10.3,11.3v-54.6l-12.4,11.3
		l-6.2-6.2l34-34c4.1-5.1,8.2-10.3,13.4-15.4c7.2-10.3,15.4-17.5,22.6-23.7c-1,2.1-3.1,4.1-4.1,6.2l14.4-14.4L159.7,91.6z"/>
	<path class="st5" d="M145.3,81.3c-2.1,2.1-3.1,4.1-5.1,5.1h-1C141.2,84.4,143.3,83.4,145.3,81.3z"/>
	<path class="st5" d="M171,97.8c-1,1-2.1,2.1-2.1,2.1l0,0C169,98.8,170,98.8,171,97.8z"/>
	<path class="st5" d="M98,211c3.1-3.1,7.2-6.2,10.3-10.3h10.3c-3.1,3.1-7.2,7.2-10.3,10.3H66v-14.4c3.1-3.1,7.2-7.2,10.3-10.3v14.4
		h29.9C103.1,203.8,101,208,98,211z"/>
	<path class="st5" d="M127.8,182.2c-6.2,6.2-12.4,12.4-18.5,18.5h-3.1c6.2-7.2,13.4-15.4,21.6-23.7V182.2z"/>
</g>
</svg>
