<?xml version="1.0" encoding="utf-8"?>
<!-- Generator: Adobe Illustrator 23.0.0, SVG Export Plug-In . SVG Version: 6.00 Build 0)  -->
<svg version="1.1" id="Layer_1" xmlns="http://www.w3.org/2000/svg" xmlns:xlink="http://www.w3.org/1999/xlink" x="0px" y="0px"
	 viewBox="0 0 32 32" style="enable-background:new 0 0 32 32;" xml:space="preserve">
<style type="text/css">
	.st0{fill:#FFCF51;}
	.st1{fill:#FFB900;}
	.st2{fill:#F75049;}
</style>
<path class="st0" d="M11.2,27c-1,1.1-2,2.1-2.9,3H3c-0.5,0-1-0.5-1-1v-2c0-0.2,0-0.3,0.1-0.5C2.3,26.8,2.6,27,3,27H11.2z"/>
<path class="st0" d="M15,27v2c0,0.5-0.5,1-1,1H9.4c1-0.9,2-1.9,3.1-3H14c0.3,0,0.5-0.1,0.7-0.3c-0.3,0.3-0.5,0.6-0.8,0.9
	c0.4-0.3,0.7-0.7,1.1-1C15,26.8,15,26.9,15,27z"/>
<path class="st1" d="M15,23L15,23c-0.3,0.3-0.5,0.6-0.8,0.9c-0.7,0.7-1.4,1.5-2,2.1H3c-0.5,0-1-0.5-1-1v-2c0-0.2,0-0.3,0.1-0.5
	C2.3,22.8,2.6,23,3,23h9.5c-0.1,0.1-0.2,0.2-0.2,0.2c0.1-0.1,0.2-0.1,0.3-0.2H14c0.4,0,0.7-0.2,0.9-0.5C15,22.7,15,22.8,15,23z"/>
<path class="st1" d="M13.6,26c0.5-0.4,0.9-0.9,1.4-1.3V25c0,0.5-0.5,1-1,1H13.6z"/>
<path class="st0" d="M2.6,18.9c-0.2,0.2-0.4,0.4-0.6,0.6V19c0-0.2,0-0.3,0.1-0.5C2.3,18.7,2.4,18.8,2.6,18.9z"/>
<path class="st0" d="M14.1,19C13,20,12,21,11,22H3c-0.5,0-1-0.5-1-1v-1.3c0.3-0.3,0.5-0.5,0.8-0.7c0.1,0,0.1,0,0.2,0h3.1
	c-0.4,0.5-0.7,0.9-1.1,1.3c0.4-0.4,0.8-0.9,1.3-1.3L14.1,19C14,19,14.1,19,14.1,19z"/>
<path class="st0" d="M13.8,22c0.4-0.3,0.8-0.6,1.2-0.9c0,0.5-0.5,0.9-1,0.9H13.8z"/>
<path class="st0" d="M15,19v1.5c-0.5,0.5-1,1-1.5,1.5H11c1.3-1,2.6-2,4-3.2C15,18.9,15,19,15,19z"/>
<path class="st1" d="M6.3,15c-0.8,0.9-1.8,1.9-2.8,3H3c-0.5,0-1-0.5-1-1v-2c0-0.2,0-0.3,0.1-0.5C2.3,14.8,2.6,15,3,15H6.3z"/>
<path class="st1" d="M9.6,15c-1,1-1.9,2-2.7,3H3.9c1.3-1.2,2.3-2.2,3.2-3H9.6z"/>
<path class="st1" d="M15,15v2c0,0.5-0.5,1-1,1H7.3c1-1,1.9-2,2.9-3h1.7c-0.8,1-1.6,2-2.2,2.9c1-0.9,2-1.9,3-2.9H14
	c0.4,0,0.7-0.2,0.9-0.5C15,14.7,15,14.8,15,15z"/>
<path class="st0" d="M10,11c-0.7,0.8-1.7,1.8-2.8,3H3c-0.5,0-1-0.5-1-1v-2c0-0.2,0-0.3,0.1-0.5C2.3,10.8,2.6,11,3,11H10z"/>
<path class="st0" d="M13.7,11c-0.5,0.5-1,0.9-1.5,1.4c-0.5,0.5-1.1,1.1-1.6,1.6H8.1c1.4-1.4,2.2-2.3,2.6-2.8c0,0,0.1-0.1,0.2-0.2
	H13.7z"/>
<path class="st0" d="M15,11v0.7c-0.3,0.2-0.5,0.5-0.8,0.7c-0.5,0.5-1,1.1-1.5,1.6h-1.6c0.9-0.9,1.9-1.8,2.8-2.8
	c0.1-0.1,0.2-0.2,0.3-0.3c0.3-0.1,0.5-0.2,0.6-0.5C15,10.7,15,10.8,15,11z"/>
<path class="st0" d="M13.8,14c0.4-0.4,0.8-0.9,1.3-1.3V13c0,0.5-0.5,1-1,1H13.8z"/>
<path class="st1" d="M12.6,8.1c0,0.1-0.5,0.6-1.6,1.9H3c-0.5,0-1-0.5-1-1V7c0-0.2,0-0.3,0.1-0.5C2.3,6.8,2.6,7,3,7h9.4
	c0.1,0,0.2,0,0.2,0.1C12.9,7.3,12.6,8,12.6,8.1C12.6,8.1,12.6,8.1,12.6,8.1z"/>
<path class="st1" d="M15,7v2c0,0.5-0.5,1-1,1h-2.4c0.5-0.5,1.1-1.1,1.7-1.3c0.1,0,0.4-0.1,0.7-0.3c0.3-0.3,0.2-0.6,0.4-1.1
	c0.1-0.3,0.3-0.5,0.5-0.7C15,6.7,15,6.9,15,7z"/>
<path class="st1" d="M18.4,27c-0.5,0.5-1,0.9-1.4,1.4V27c0-0.2,0-0.3,0.1-0.5c0.2,0.3,0.5,0.5,0.9,0.5H18.4z"/>
<path class="st1" d="M20.4,27c-1,1-2,1.9-2.9,2.9C17.2,29.7,17,29.4,17,29v-0.3c0.6-0.5,1.3-1.1,1.9-1.7H20.4z"/>
<path class="st1" d="M23.2,27L23.2,27c-1.2,1-2.3,2-3.3,3H18c1.1-1,2.3-2,3.4-3H23.2z"/>
<path class="st2" d="M30,23v2c0,0.5-0.5,1-1,1h-3.9c1.1-1,2.1-2,3.1-3H29c0.4,0,0.7-0.2,0.9-0.5C30,22.7,30,22.8,30,23z"/>
<path class="st0" d="M18.1,23c-0.4,0.4-0.7,0.8-1.1,1.1V23c0-0.1,0-0.2,0.1-0.3c0-0.1,0-0.1,0.1-0.2c0,0,0,0,0,0.1
	C17.4,22.8,17.7,23,18.1,23L18.1,23z"/>
<path class="st0" d="M22.8,23c-1.1,1-2.2,2-3.3,3H18c-0.5,0-1-0.5-1-1v-0.3c0.6-0.6,1.2-1.1,1.8-1.7h1.4c-0.5,0.5-0.9,0.9-1.4,1.3
	c0.6-0.4,1.2-0.9,1.7-1.3H22.8z"/>
<path class="st0" d="M25.1,23c-0.8,0.6-1.5,1.2-2.3,1.9c-0.4,0.4-0.8,0.7-1.3,1.1h-1.4c1.1-1,2.3-2,3.4-3H25.1z"/>
<path class="st0" d="M28,23c-1.2,0.9-2.4,2-3.7,3h-1.7c0.5-0.4,1-0.9,1.5-1.3c0.6-0.6,1.3-1.1,1.9-1.7H28z"/>
<path class="st1" d="M17.6,18.9c-0.2,0.2-0.4,0.3-0.6,0.5V19c0-0.1,0-0.3,0.1-0.4c0,0,0-0.1,0-0.1c0,0,0,0,0,0
	C17.3,18.7,17.4,18.8,17.6,18.9z"/>
<path class="st2" d="M22.1,19C21,20,20,21,19,22h-1c-0.1,0-0.1,0-0.2,0h0c-0.5-0.1-0.8-0.5-0.8-1v-0.1c0.7-0.8,1.3-1.3,1.8-1.9H22.1
	z"/>
<path class="st1" d="M24.5,19c-1.1,1-2.2,2-3.3,3h-1.4c1-1,2.1-2,3.1-2.9c0,0,0,0,0.1-0.1H24.5z"/>
<path class="st1" d="M27.3,19c-1.1,1-2.2,1.9-3.3,2.9c0,0-0.1,0.1-0.1,0.1h-2.1c1.2-0.9,2.4-2,3.6-3H27.3z"/>
<path class="st1" d="M30,19v0.5c-1.2,0.8-2.4,1.6-3.6,2.5h-1.8c0.3-0.2,0.6-0.5,0.8-0.8c0.8-0.8,1.6-1.5,2.4-2.2H29
	c0.4,0,0.7-0.2,0.9-0.5C30,18.7,30,18.8,30,19z"/>
<path class="st1" d="M27.2,22c0.9-0.8,1.9-1.7,2.8-2.5V21c0,0.2,0,0.3-0.1,0.5c-0.1,0.2-0.3,0.4-0.6,0.5C29.2,22,29.1,22,29,22H27.2
	z"/>
<path class="st0" d="M28.9,18c0.4-0.3,0.7-0.7,1.1-1C30,17.5,29.5,18,28.9,18L28.9,18z"/>
<path class="st0" d="M17.7,15.8c-0.2,0.2-0.5,0.4-0.7,0.6V16c0-0.5,0.5-1,1-1h0.6C18.3,15.3,18,15.5,17.7,15.8z"/>
<path class="st0" d="M21.3,15c-0.8,0.6-1.5,1.3-2.3,1.9c-0.4,0.4-0.8,0.7-1.2,1.1c-0.4-0.1-0.7-0.4-0.8-0.8c0.8-0.7,1.6-1.4,2.4-2.1
	H21.3z"/>
<path class="st0" d="M23.2,15c-1.1,0.9-2.2,1.9-3.3,3h-1.2c0.7-0.6,1.5-1.3,2.2-2c0.4-0.3,0.7-0.7,1.1-1H23.2z"/>
<path class="st0" d="M26.7,15c-1.1,0.9-2.1,1.8-3.2,2.8c-0.1,0.1-0.2,0.1-0.3,0.2H22c1.2-1.2,2.3-2.1,3.2-3H26.7z"/>
<path class="st0" d="M29.2,15c-1.2,0.9-2.4,1.9-3.6,3H24c1-1,2-2,3-3h2C29.1,15,29.2,15,29.2,15z"/>
<path class="st0" d="M30,16v0.8c-0.5,0.4-1,0.8-1.5,1.2h-2c0.3-0.3,0.6-0.6,0.9-0.8c0.7-0.7,1.4-1.3,2.1-2C29.8,15.3,30,15.7,30,16z
	"/>
<path class="st2" d="M2.6,18.9c-0.2,0.2-0.4,0.4-0.6,0.6V19c0-0.2,0-0.3,0.1-0.5C2.3,18.7,2.4,18.8,2.6,18.9z"/>
<path class="st2" d="M6.3,15c-0.8,0.9-1.8,1.9-2.8,3H3c-0.5,0-1-0.5-1-1v-2c0-0.2,0-0.3,0.1-0.5C2.3,14.8,2.6,15,3,15H6.3z"/>
<path class="st2" d="M10,11c-0.7,0.8-1.7,1.8-2.8,3H3c-0.5,0-1-0.5-1-1v-2c0-0.2,0-0.3,0.1-0.5C2.3,10.8,2.6,11,3,11H10z"/>
<path class="st2" d="M11.2,27c-1,1.1-2,2.1-2.9,3H3c-0.5,0-1-0.5-1-1v-2c0-0.2,0-0.3,0.1-0.5C2.3,26.8,2.6,27,3,27H11.2z"/>
<path class="st2" d="M12.6,8.1C12.6,8.1,12.6,8.1,12.6,8.1c0,0.1-0.5,0.7-1.6,1.9H3c-0.5,0-1-0.5-1-1V7c0-0.2,0-0.3,0.1-0.5
	C2.3,6.8,2.6,7,3,7h9.4c0.1,0,0.2,0,0.2,0.1C12.9,7.3,12.6,8,12.6,8.1z"/>
<path class="st2" d="M15,4v1c0,0.5-0.5,1-1,1H3C2.5,6,2,5.5,2,5V4c0-0.3,0.2-0.6,0.4-0.8c0,0,0,0,0,0c0,0,0,0,0.1-0.1
	C2.6,3,2.8,3,3,3h11C14.5,3,15,3.5,15,4z"/>
<path class="st2" d="M15,7v2c0,0.5-0.5,1-1,1h-2.4c0.5-0.5,1.1-1.1,1.7-1.3c0.1,0,0.4-0.1,0.7-0.3c0.3-0.3,0.2-0.6,0.4-1.1
	c0.1-0.3,0.3-0.5,0.5-0.7C15,6.7,15,6.9,15,7z"/>
<path class="st2" d="M10.9,22.1C10.9,22.1,10.9,22,10.9,22.1L11,22C11,22,10.9,22.1,10.9,22.1z"/>
<path class="st2" d="M14.1,19C13,20,12,21,11,22H3c-0.5,0-1-0.5-1-1v-1.3c0.3-0.3,0.5-0.5,0.8-0.7c0.1,0,0.1,0,0.2,0h3.1
	c-0.4,0.5-0.7,0.9-1.1,1.3c0.4-0.4,0.8-0.9,1.3-1.3L14.1,19C14,19,14.1,19,14.1,19z"/>
<path class="st2" d="M9.6,15c-1,1-1.9,2-2.7,3H3.9c1.3-1.2,2.3-2.2,3.2-3H9.6z"/>
<path class="st2" d="M10.6,14H8.1c1.4-1.4,2.2-2.3,2.6-2.8c0,0,0.1-0.1,0.2-0.2h2.9c-0.5,0.5-1,0.9-1.5,1.4
	C11.6,12.9,11.1,13.5,10.6,14z"/>
<path class="st2" d="M15,11v0.7c-0.3,0.2-0.5,0.5-0.8,0.7c-0.5,0.5-1,1.1-1.5,1.6h-1.6c0.9-0.9,1.9-1.8,2.8-2.8
	c0.1-0.1,0.2-0.2,0.3-0.3c0.3-0.1,0.5-0.2,0.6-0.5C15,10.7,15,10.8,15,11z"/>
<path class="st2" d="M14.9,14.5C15,14.7,15,14.8,15,15v2c0,0.5-0.5,1-1,1H7.3c1-1,1.9-2,2.9-3h1.7c-0.8,1-1.6,2-2.2,2.9
	c1-0.9,2-1.9,3-2.9H14C14.4,15,14.7,14.8,14.9,14.5z"/>
<path class="st2" d="M13.8,14c0.4-0.4,0.8-0.9,1.3-1.3V13c0,0.5-0.5,1-1,1H13.8z"/>
<path class="st2" d="M13.8,22c0.4-0.3,0.8-0.6,1.2-0.9c0,0.5-0.5,0.9-1,0.9H13.8z"/>
<path class="st2" d="M15,19v1.5c-0.5,0.5-1,1-1.5,1.5H11c1.3-1,2.6-2,4-3.2C15,18.9,15,19,15,19z"/>
<path class="st2" d="M15,23L15,23c-0.3,0.3-0.5,0.6-0.8,0.9c-0.7,0.7-1.4,1.5-2,2.1H3c-0.5,0-1-0.5-1-1v-2c0-0.2,0-0.3,0.1-0.5
	C2.3,22.8,2.6,23,3,23h9.5c-0.1,0.1-0.2,0.2-0.2,0.2c0.1-0.1,0.2-0.1,0.3-0.2H14c0.4,0,0.7-0.2,0.9-0.5C15,22.7,15,22.8,15,23z"/>
<path class="st2" d="M17.6,18.9c-0.2,0.2-0.4,0.3-0.6,0.5V19c0-0.1,0-0.3,0.1-0.4c0,0,0-0.1,0-0.1c0,0,0,0,0,0
	C17.3,18.7,17.4,18.8,17.6,18.9z"/>
<path class="st2" d="M17.7,15.8c-0.2,0.2-0.5,0.4-0.7,0.6V16c0-0.5,0.5-1,1-1h0.6C18.3,15.3,18,15.5,17.7,15.8z"/>
<path class="st2" d="M21.3,15c-0.8,0.6-1.5,1.3-2.3,1.9c-0.4,0.4-0.8,0.7-1.2,1.1c-0.4-0.1-0.7-0.4-0.8-0.8c0.8-0.7,1.6-1.4,2.4-2.1
	H21.3z"/>
<path class="st2" d="M23.2,15c-1.1,0.9-2.2,1.9-3.3,3h-1.2c0.7-0.6,1.5-1.3,2.2-2c0.4-0.3,0.7-0.7,1.1-1H23.2z"/>
<path class="st2" d="M15,27v2c0,0.5-0.5,1-1,1H9.4c1-0.9,2-1.9,3.1-3H14c0.3,0,0.5-0.1,0.7-0.3c-0.3,0.3-0.5,0.6-0.8,0.9
	c0.4-0.3,0.7-0.7,1.1-1C15,26.8,15,26.9,15,27z"/>
<path class="st2" d="M15,24.7V25c0,0.5-0.5,1-1,1h-0.4C14,25.6,14.5,25.1,15,24.7z"/>
<path class="st2" d="M30,27v2c0,0.5-0.5,1-1,1h-8.5c0.6-0.5,1.3-1.1,1.9-1.6c0.6-0.5,1.2-0.9,1.8-1.4h3.2c0,0.1,0,0.3,0.1,0.3
	c0.2,0.1,0.5,0,0.8-0.3H29c0.1,0,0.3,0,0.4-0.1c0.2-0.1,0.4-0.2,0.5-0.4C30,26.7,30,26.8,30,27z"/>
<path class="st2" d="M18.4,27c-0.5,0.5-1,0.9-1.4,1.4V27c0-0.2,0-0.3,0.1-0.5c0.2,0.3,0.5,0.5,0.9,0.5H18.4z"/>
<path class="st2" d="M20.4,27c-1,1-2,1.9-2.9,2.9C17.2,29.7,17,29.4,17,29v-0.3c0.6-0.5,1.3-1.1,1.9-1.7H20.4z"/>
<path class="st2" d="M23.2,27L23.2,27c-1.2,1-2.3,2-3.3,3H18c1.1-1,2.3-2,3.4-3H23.2z"/>
<path class="st2" d="M18.1,23c-0.4,0.4-0.7,0.8-1.1,1.1V23c0-0.1,0-0.2,0.1-0.3c0,0,0.1-0.1,0.1-0.1C17.4,22.8,17.7,23,18.1,23
	L18.1,23z"/>
<path class="st2" d="M22.8,23c-1.1,1-2.2,2-3.3,3H18c-0.5,0-1-0.5-1-1v-0.3c0.6-0.6,1.2-1.1,1.8-1.7h1.4c-0.5,0.5-0.9,0.9-1.4,1.3
	c0.6-0.4,1.2-0.9,1.7-1.3H22.8z"/>
<path class="st2" d="M22.8,24.9c-0.4,0.4-0.8,0.7-1.3,1.1h-1.4c1.1-1,2.3-2,3.4-3h1.6C24.3,23.6,23.5,24.2,22.8,24.9z"/>
<path class="st2" d="M26,23h2c-1.2,0.9-2.4,2-3.7,3h-1.7c0.5-0.4,1-0.9,1.5-1.3C24.7,24.1,25.4,23.6,26,23z"/>
<path class="st2" d="M28.3,22.8C28.3,22.8,28.3,22.8,28.3,22.8c-0.1,0.1-0.2,0.2-0.3,0.2h0C28.1,22.9,28.2,22.8,28.3,22.8z"/>
<path class="st2" d="M24.5,19c-1.1,1-2.2,2-3.3,3h-1.4c1-1,2.1-2,3.1-2.9c0,0,0,0,0.1-0.1H24.5z"/>
<path class="st2" d="M25.4,19h1.9c-1.1,1-2.2,1.9-3.3,2.9c0,0-0.1,0.1-0.1,0.1h-2.1C23,21.1,24.2,20,25.4,19z"/>
<path class="st2" d="M28.9,18c0.4-0.3,0.7-0.7,1.1-1C30,17.5,29.5,18,28.9,18L28.9,18z"/>
<path class="st2" d="M26.7,15c-1.1,0.9-2.1,1.8-3.2,2.8c-0.1,0.1-0.2,0.1-0.3,0.2H22c1.2-1.2,2.3-2.1,3.2-3H26.7z"/>
<path class="st2" d="M29.2,15c-1.2,0.9-2.4,1.9-3.6,3H24c1-1,2-2,3-3h2C29.1,15,29.2,15,29.2,15z"/>
<path class="st2" d="M30,16v0.8c-0.5,0.4-1,0.8-1.5,1.2h-2c0.3-0.3,0.6-0.6,0.9-0.8c0.7-0.7,1.4-1.3,2.1-2C29.8,15.3,30,15.7,30,16z
	"/>
<path class="st2" d="M30,19v0.5c-1.2,0.8-2.4,1.6-3.6,2.5h-1.8c0.3-0.2,0.6-0.5,0.8-0.8c0.8-0.8,1.6-1.5,2.4-2.2H29
	c0.4,0,0.7-0.2,0.9-0.5C30,18.7,30,18.8,30,19z"/>
<path class="st2" d="M27.2,22c0.9-0.8,1.9-1.7,2.8-2.5V21c0,0.2,0,0.3-0.1,0.5c-0.1,0.2-0.3,0.4-0.6,0.5C29.2,22,29.1,22,29,22H27.2
	z"/>
<path class="st2" d="M11,22c0,0-0.1,0.1-0.1,0.1C10.9,22.1,10.9,22,11,22L11,22z"/>
<path class="st2" d="M17.6,18.9c-0.2,0.2-0.4,0.3-0.6,0.5V19c0-0.1,0-0.3,0.1-0.4c0,0,0,0,0.1-0.1C17.3,18.7,17.4,18.8,17.6,18.9z"
	/>
<path class="st2" d="M28.3,22.8C28.3,22.8,28.3,22.8,28.3,22.8c-0.1,0.1-0.2,0.2-0.3,0.2h0C28.1,22.9,28.2,22.8,28.3,22.8z"/>
<path class="st2" d="M29.9,21.5c-0.1,0.2-0.3,0.4-0.6,0.5C29.5,21.8,29.7,21.6,29.9,21.5z"/>
</svg>
