<?xml version="1.0" encoding="utf-8"?>
<!-- Generator: Adobe Illustrator 23.0.0, SVG Export Plug-In . SVG Version: 6.00 Build 0)  -->
<svg version="1.1" id="Layer_1" xmlns="http://www.w3.org/2000/svg" xmlns:xlink="http://www.w3.org/1999/xlink" x="0px" y="0px"
	 viewBox="0 0 32 32" style="enable-background:new 0 0 32 32;" xml:space="preserve">
<style type="text/css">
	.st0{fill:#F75049;}
	.st1{opacity:0.2;enable-background:new    ;}
	.st2{fill:#FFFFFF;}
	.st3{fill:#969696;}
	.st4{opacity:0.2;fill-rule:evenodd;clip-rule:evenodd;enable-background:new    ;}
	.st5{fill-rule:evenodd;clip-rule:evenodd;fill:#FFFFFF;}
</style>
<path class="st0" d="M29,29.3V31H3v-1.7c0-0.3,0.1-0.5,0.2-0.7c0-0.1,0.1-0.1,0.2-0.2C3.7,28.1,4,28,4.4,28h23.2
	c0.4,0,0.7,0.1,1,0.4c0.1,0.1,0.1,0.1,0.2,0.2C28.9,28.8,29,29,29,29.3z"/>
<path class="st1" d="M5,13L5,13l0-0.1C5,12.9,5,13,5,13z"/>
<path class="st1" d="M27,12.9V13h0C27,13,27,12.9,27,12.9z"/>
<path class="st2" d="M22.5,13c-0.6,0.5-1.2,1.1-1.8,1.7c-0.1,0.1-0.2,0.2-0.3,0.3h1.5c0.8-0.8,1.5-1.4,2.1-2H22.5z M22.5,13
	c-0.6,0.5-1.2,1.1-1.8,1.7c-0.1,0.1-0.2,0.2-0.3,0.3h1.5c0.8-0.8,1.5-1.4,2.1-2H22.5z M19.8,13c-1.9,1.7-3.7,3.2-5.5,4.6
	c1.5-1.5,3.1-3,4.9-4.6H15c-0.5,0.5-1.1,1-1.6,1.5c0.3-0.5,0.7-1,1.1-1.5h-1.3c-0.7,0.7-1.3,1.3-1.9,2H14v6.6
	c0.8-0.9,1.7-1.8,2.7-2.8c0.5-0.6,1-1,1.3-1.4v-1.2c-0.9,0.8-1.9,1.5-2.8,2.2c0.9-0.9,1.8-1.8,2.8-2.7V15h0.8
	c0.4-0.4,0.9-0.8,1.3-1.2c0.3-0.3,0.6-0.5,1-0.8H19.8z M22,22.6L22,22.6c0.2-0.1,0.4-0.3,0.6-0.5C22.4,22.3,22.2,22.4,22,22.6z
	 M23.8,17.4c-0.6,0.5-1.2,1-1.8,1.6v0.4c0.9-0.8,1.8-1.6,2.8-2.5c0.4-0.4,0.8-0.8,1.2-1.2v-0.3C25.3,16.1,24.5,16.8,23.8,17.4z
	 M26.8,13c-0.6,0.5-1.3,1.1-1.9,1.6c-1,0.9-2,1.8-2.9,2.6v0.4c1.4-1.1,2.8-2.3,4.3-3.7c0.3-0.2,0.5-0.5,0.8-0.7V13H26.8z M21.7,13
	c-0.1,0.1-0.1,0.1-0.2,0.2c-0.7,0.6-1.4,1.2-2,1.8h2.5c0.8-0.8,1.5-1.4,2.1-2H21.7z M22.8,19.6c-0.3,0.2-0.6,0.5-0.8,0.7V21
	c0.6-0.5,1.2-1.1,1.8-1.6c0.7-0.6,1.5-1.3,2.2-1.9v-0.4C25,17.8,23.9,18.7,22.8,19.6z M10.4,13c-0.9,1-2.1,2.2-3.4,3.6
	c1.6-1.5,2.9-2.6,3.9-3.6H10.4z M22.5,13c-0.6,0.5-1.2,1.1-1.8,1.7c-0.1,0.1-0.2,0.2-0.3,0.3h1.5c0.8-0.8,1.5-1.4,2.1-2H22.5z"/>
<path class="st3" d="M5,12c0,0,0,0.1,0,0.1L5,12L5,12z"/>
<path class="st3" d="M27,12v0.1C27,12.1,27,12,27,12L27,12z"/>
<path class="st4" d="M5,13L5,13l0-0.1C5,12.9,5,13,5,13z"/>
<path class="st4" d="M27,12.9V13h0C27,13,27,12.9,27,12.9z"/>
<path class="st4" d="M5,12c0,0,0,0.1,0,0.1L5,12L5,12z"/>
<path class="st4" d="M27,12v0.1C27,12.1,27,12,27,12L27,12z"/>
<path class="st5" d="M28.2,8.8c0.1,0.1-0.7,0.9-3.1,3.2h-1.3C26.1,10,28,8.7,28.2,8.8z"/>
<path class="st0" d="M27,26.1V27H5v-0.9c0-0.6,0.4-1,1-1.1V15c-0.6-0.1-1-0.6-1-1.1V13h5.4c-0.9,1-2.1,2.2-3.4,3.6
	c1.6-1.5,2.9-2.6,3.9-3.6h1.9c-0.6,0.7-1.2,1.3-1.8,2H10v10h4v-2.5c1.2-1.1,2.5-2.4,4-3.8v1.1c-0.5,0.6-1.1,1.2-1.6,1.8
	c0.5-0.5,1.1-1,1.6-1.5v2.7c-0.4,0.3-0.7,0.7-1.1,1c0.4-0.3,0.7-0.6,1.1-0.9v1.4c-0.3,0.3-0.5,0.6-0.7,0.8c0.2-0.2,0.5-0.4,0.7-0.6
	V25h0.9c-0.2,0.2-0.5,0.5-0.7,0.7c0.3-0.2,0.6-0.4,0.9-0.7H22v-2.4c0.2-0.2,0.4-0.4,0.6-0.5c1.1-0.8,2.2-1.8,3.4-2.8V25
	C26.6,25.1,27,25.6,27,26.1z"/>
<path class="st0" d="M5,12.9c0,0,0,0.1,0,0.1h0V12.9z"/>
<path class="st0" d="M5,12c0,0,0,0.1,0,0.1L5,12L5,12z"/>
<path class="st0" d="M21.1,13c-0.3,0.3-0.6,0.5-1,0.8c-0.5,0.4-0.9,0.8-1.3,1.2H18v0.7c-1,0.9-1.9,1.8-2.8,2.7
	c0.9-0.7,1.8-1.4,2.8-2.2v1.2c-0.4,0.4-0.8,0.9-1.3,1.4c-1,1-1.8,1.9-2.7,2.8V15h-2.7c0.6-0.7,1.3-1.3,1.9-2h1.3
	c-0.4,0.5-0.8,1-1.1,1.5c0.5-0.5,1.1-1,1.6-1.5h4.1c-1.8,1.5-3.4,3.1-4.9,4.6c1.8-1.3,3.6-2.9,5.5-4.6H21.1z"/>
<path class="st0" d="M22.5,13c-0.6,0.5-1.2,1.1-1.8,1.7c-0.1,0.1-0.2,0.2-0.3,0.3h-0.9c0.7-0.6,1.4-1.2,2-1.8
	c0.1-0.1,0.1-0.1,0.2-0.2H22.5z"/>
<path class="st0" d="M22,22.6c0.2-0.2,0.4-0.3,0.6-0.5C22.4,22.3,22.2,22.5,22,22.6L22,22.6z"/>
<path class="st0" d="M22.8,19.6c1.1-0.9,2.1-1.8,3.2-2.5v0.4c-0.7,0.6-1.5,1.3-2.2,1.9c-0.6,0.5-1.2,1-1.8,1.6v-0.7
	C22.3,20.1,22.5,19.8,22.8,19.6z"/>
<path class="st0" d="M23.8,17.4c0.8-0.7,1.5-1.3,2.3-2v0.3c-0.4,0.4-0.8,0.8-1.2,1.2c-0.9,0.8-1.8,1.7-2.8,2.5V19
	C22.6,18.5,23.2,18,23.8,17.4z"/>
<path class="st0" d="M25.3,13c-0.8,0.8-1.5,1.6-2.3,2.4c-0.3,0.3-0.7,0.6-1,0.9V15h-0.1c0.8-0.8,1.5-1.4,2.1-2H25.3z"/>
<path class="st0" d="M27,12.9v0.4c-0.3,0.2-0.5,0.5-0.8,0.7c-1.4,1.3-2.9,2.5-4.3,3.7c-0.7,0.5-1.3,1-2,1.5c0.6-0.6,1.3-1.3,2-1.9
	c0.9-0.9,1.9-1.8,2.9-2.6c0.7-0.6,1.3-1.1,1.9-1.6C26.9,13,27,12.9,27,12.9z"/>
<path class="st0" d="M27,12v0.1C27,12.1,27,12,27,12L27,12z"/>
<path class="st0" d="M27,12.9v0.4c-0.3,0.2-0.5,0.5-0.8,0.7c-1.4,1.3-2.9,2.5-4.3,3.7c-0.7,0.5-1.3,1-2,1.5c0.6-0.6,1.3-1.3,2-1.9
	c0.9-0.9,1.9-1.8,2.9-2.6c0.7-0.6,1.3-1.1,1.9-1.6C26.9,13,27,12.9,27,12.9z"/>
<path class="st0" d="M29.3,11.1c-0.1,0.1-0.2,0.2-0.3,0.3v0.5c0,0.1-0.1,0.2-0.2,0.2h-2.5c0.2-0.2,0.4-0.4,0.6-0.6
	c-0.2,0.2-0.5,0.4-0.7,0.6H25c2.4-2.3,3.2-3.1,3.1-3.2C28,8.7,26.1,10,23.7,12h-1c0.6-0.6,1.2-1.2,1.8-1.7c-0.7,0.5-1.5,1.1-2.2,1.7
	h-1.4c0.9-0.8,1.8-1.7,2.6-2.5c-1,0.8-2.1,1.6-3.2,2.5H16c0.7-0.7,1.3-1.3,2-2.1c0.6-0.7,1.3-1.4,1.9-2.1c-1,0.7-2.1,1.6-3.2,2.8
	c-0.5,0.5-0.9,1-1.3,1.4h-1.2c0.8-0.8,1.5-1.5,2.3-2.3c1-1,2-2,3-2.9c-1.4,1.1-2.8,2.3-4.3,3.8c-0.5,0.5-1,1-1.4,1.4H3.2
	C3.1,12,3,11.9,3,11.8V9.7c0.1-1.1-0.1-0.9,1.1-1.5l5.4-2.9l1.7-0.9l3.7-2c0.4-0.2,0.7-0.4,0.9-0.4C15.9,2,16,2,16,2
	c0.3,0,0.6,0.1,1.1,0.5l3.3,1.8l2,1.1l1.8,1l0.2,0.1l3.4,1.8C29,8.8,29,8.6,29,9.8v1.5C29.1,11.2,29.2,11.2,29.3,11.1z"/>
<path class="st0" d="M26,15.5v0.3c-0.4,0.4-0.8,0.8-1.2,1.2c-0.9,0.8-1.8,1.7-2.8,2.5V19c0.6-0.5,1.2-1,1.8-1.6
	C24.5,16.8,25.3,16.1,26,15.5z"/>
<path class="st0" d="M26,17.1v0.4c-0.7,0.6-1.5,1.3-2.2,1.9c-0.6,0.5-1.2,1-1.8,1.6v-0.7c0.3-0.3,0.5-0.5,0.8-0.7
	C23.9,18.7,25,17.8,26,17.1z"/>
<path class="st0" d="M22.6,22.1c-0.2,0.2-0.4,0.4-0.6,0.5v-0.1C22.2,22.4,22.4,22.3,22.6,22.1z"/>
</svg>
