<?xml version="1.0" encoding="utf-8"?>
<!-- Generator: Adobe Illustrator 23.0.0, SVG Export Plug-In . SVG Version: 6.00 Build 0)  -->
<svg version="1.1" id="Layer_1" xmlns="http://www.w3.org/2000/svg" xmlns:xlink="http://www.w3.org/1999/xlink" x="0px" y="0px"
	 viewBox="0 0 32 32" style="enable-background:new 0 0 32 32;" xml:space="preserve">
<style type="text/css">
	.st0{fill:#CBA6F7;}
	.st1{fill-rule:evenodd;clip-rule:evenodd;fill:#CBA6F7;}
	.st2{fill:#F75049;}
</style>
<g>
	<g transform="translate(-512 -32)">
		<path class="st0" d="M535.8,39.5L535.8,39.5h-0.4H535.8z"/>
		<path class="st0" d="M537.6,53.4c0,0-0.2,0-0.4,0.2v0.5C537.2,53.8,537.6,53.4,537.6,53.4z M533.5,59.3L533.5,59.3L533.5,59.3
			C533.7,59.1,533.5,59.3,533.5,59.3z"/>
		<path class="st0" d="M533.7,59.1L533.7,59.1L533.7,59.1C533.5,59.3,533.7,59.1,533.7,59.1z"/>
		<path class="st1" d="M531.4,38.4c-0.4,0.4-0.5,0.5-0.9,0.9h-0.2C530.7,38.9,531,38.7,531.4,38.4z"/>
	</g>
	<path class="st2" d="M19.4,6.4c-0.4,0.4-0.5,0.7-0.9,0.9h-0.2C18.7,6.9,19,6.7,19.4,6.4z"/>
	<path class="st2" d="M20.6,22c-0.7,0.9-1.6,1.6-2.5,2.3l3.4-3.7v0.2v0.2C21.3,21.2,21,21.6,20.6,22z"/>
	<path class="st2" d="M19.5,17.7c-1.1,1.1-2.1,2.1-3.2,3.2v-1.9c0.4-0.4,0.9-0.7,1.2-1.1c0.4,0,0.9,0,1.4,0
		C19.2,17.7,19.4,17.7,19.5,17.7z"/>
	<path class="st2" d="M18.5,20.7c-0.7,0.7-1.4,1.4-2.1,2.1v-1.2c1.2-1.2,2.5-2.5,3.7-3.7h0.2c0.4,0.2,0.5,0.4,0.7,0.5
		C20.2,19.1,19.4,20,18.5,20.7z"/>
	<path class="st2" d="M16.9,17.9c-0.2,0.2-0.4,0.5-0.5,0.7v-0.5C16.5,18.1,16.7,17.9,16.9,17.9z"/>
	<path class="st2" d="M18.8,22.8c-0.9,0.9-1.8,1.6-2.5,2.5v-1.6c1.1-1.1,2.3-2.1,3.4-3.2c0.5-0.5,1.1-1.1,1.6-1.6
		c0,0.2,0.2,0.4,0.2,0.5c0,0.4,0.2,0.5,0.2,0.9C20.8,21.2,19.9,22,18.8,22.8z"/>
	<path class="st2" d="M16.4,26c0.5-0.5,1.2-1.1,1.8-1.8c1.1-0.9,2.3-1.9,3.5-3v5.8l-0.2,0.2h0.2v1.4h-8.3c0.7-0.5,1.4-1.2,2.1-1.8
		h0.9V26z"/>
	<path class="st2" d="M25.2,22v-0.4c0.2-0.2,0.2-0.2,0.4-0.2C25.6,21.4,25.2,21.8,25.2,22z"/>
	<path class="st2" d="M27,7.5V11l0,0c-0.4,0.4-0.7,0.7-1.2,1.1c-0.4,0.4-0.9,0.7-1.2,1.2l-1.1-1.1c0.4-0.4,0.9-0.9,1.2-1.2
		c0.4-0.4,0.7-0.9,1.1-1.2c0.4-0.4,0.7-0.7,1.1-1.1c-0.4,0.4-0.7,0.7-1.1,1.1s-0.9,0.7-1.2,1.1c-0.5,0.4-0.9,0.7-1.4,1.2L22.2,11
		c0.4-0.5,0.7-0.9,1.2-1.2c0-0.2,0.2-0.4,0.4-0.5c-0.2,0.2-0.4,0.4-0.5,0.4c-0.4,0.4-0.9,0.7-1.2,1.2l-0.7-0.7
		c0.4-0.5,0.9-0.9,1.2-1.2c0.4-0.5,0.9-0.9,1.1-1.2l0.2-0.2H27z"/>
	<path class="st2" d="M23.8,9.2c-0.2,0.2-0.4,0.4-0.4,0.4l0,0C23.4,9.4,23.6,9.4,23.8,9.2z"/>
	<path class="st2" d="M27,14.5v1.1l0,0c-0.5,0.5-1.1,1.1-1.8,1.4v-3l-0.5-0.5c0.2-0.4,0.4-0.5,0.5-0.7L27,14.5z"/>
	<path class="st2" d="M27,16.1v12.6h-1.8V22c0-0.2,0.4-0.5,0.4-0.7c0,0-0.2,0-0.4,0.2v-3.5l0.2-0.2C25.9,17.2,26.4,16.6,27,16.1z"/>
	<path class="st2" d="M30.2,16.6l-1.2,1.2l-0.5-0.5L27,15.9c0.4-0.4,0.9-0.9,1.2-1.2l1.4,1.4L30.2,16.6z"/>
	<path class="st2" d="M10.3,6.7c-3,3.2-5.8,6.4-8.5,9.4c1.8-2.5,4.1-5.3,6.7-8.1c1.9-1.9,3.7-3.7,5.7-5.3
		C12.8,4.1,11.6,5.3,10.3,6.7z"/>
	<path class="st2" d="M21.8,8.2c-0.4,0.4-0.9,0.7-1.4,1.2l-0.7-0.9c0.4-0.4,0.5-0.7,0.9-0.9c-0.4,0.2-0.7,0.5-1.1,0.7l-1.1-1.1
		c0.4-0.4,0.5-0.5,0.9-0.9c-0.4,0.4-0.7,0.5-0.9,0.9l-2.1-2.1L7.5,14v9.2c-0.5,0.7-1.2,1.4-1.8,1.9v-9.4l-2.1,1.9l-1.1-1.1l5.8-5.8
		C9.1,9.9,9.8,9,10.7,8.2c1.2-1.8,2.7-3,3.9-4.1c-0.2,0.4-0.5,0.7-0.7,1.1l2.5-2.5L21.8,8.2z"/>
	<path class="st2" d="M19.4,6.4c-0.4,0.4-0.5,0.7-0.9,0.9h-0.2C18.7,6.9,19,6.7,19.4,6.4z"/>
	<path class="st2" d="M23.8,9.2c-0.2,0.2-0.4,0.4-0.4,0.4l0,0C23.4,9.4,23.6,9.4,23.8,9.2z"/>
	<path class="st2" d="M11.2,28.7c0.5-0.5,1.2-1.1,1.8-1.8h1.8c-0.5,0.5-1.2,1.2-1.8,1.8H5.7v-2.5C6.3,25.7,7,25,7.5,24.4v2.5h5.1
		C12.1,27.4,11.8,28.1,11.2,28.7z"/>
	<path class="st2" d="M16.4,23.7c-1.1,1.1-2.1,2.1-3.2,3.2h-0.5c1.1-1.2,2.3-2.7,3.7-4.1V23.7z"/>
</g>
</svg>
