<?xml version="1.0" encoding="utf-8"?>
<!-- Generator: Adobe Illustrator 23.0.0, SVG Export Plug-In . SVG Version: 6.00 Build 0)  -->
<svg version="1.1" id="Layer_1" xmlns="http://www.w3.org/2000/svg" xmlns:xlink="http://www.w3.org/1999/xlink" x="0px" y="0px"
	 viewBox="0 0 32 32" style="enable-background:new 0 0 32 32;" xml:space="preserve">
<style type="text/css">
	.st0{fill:#AD3F36;}
	.st1{fill:#F75049;}
	.st2{fill:#3B8AE0;}
	.st3{fill:#7DC564;}
</style>
<path class="st0" d="M15.1,9c0,0-0.1-0.1,0-0.2c0-0.3,0.5-0.3,0.5-0.4c0,0-0.1-0.1-0.3-0.1c-0.2-0.1-0.3-0.1-0.4-0.2v2.5
	c0.3-0.3,0.5-0.5,0.5-0.6c0,0,0,0,0,0c0-0.1,0.2-0.6,0-0.7C15.4,9.1,15.2,9.2,15.1,9z M23.1,23.5l1.3,1.3c1.1-1.3,2-2.8,2.5-4.5
	C25.6,21.4,24.4,22.5,23.1,23.5z M27.4,14.8c-0.5,0.5-1,1-1.5,1.5c-1.8,1.7-3.6,3.2-5.4,4.5l0.8,0.8c0.7-0.7,1.5-1.3,2.2-2
	c1.4-1.2,2.7-2.4,4.1-3.5C27.5,15.6,27.4,15.2,27.4,14.8z M23.5,21.5c-0.4,0.4-0.8,0.7-1.2,1.1l0.5,0.5l0,0c1.3-1.1,2.6-2.2,3.8-3.1
	c0.2-0.1,0.3-0.3,0.5-0.4c0.1-0.5,0.2-1,0.3-1.5C26.1,19.2,24.8,20.4,23.5,21.5z M26.8,12.3c-1,1-3,2.8-6.3,6
	c-0.5,0.4-0.9,0.8-1.3,1.3l0.4,0.4c1.1-1.1,2.2-2.2,3.4-3.3c1.2-1,2.3-2,3.4-2.9c-1.3,1.3-2.5,2.5-3.8,3.8c-0.9,0.9-1.9,1.8-2.8,2.6
	l0.5,0.5c0.2-0.2,0.5-0.5,0.7-0.7c0.3-0.3,0.5-0.5,0.8-0.8c0.8-0.8,1.7-1.6,2.7-2.4c1-0.8,1.9-1.6,2.8-2.3
	C27.2,13.8,27,13,26.8,12.3z M22.5,24c0,0-0.1,0.1-0.1,0.1c-1.4,1.3-2.9,2.4-4.2,3.4c1.3-1.3,2.6-2.5,4.1-3.8l-0.5-0.5
	c-1.5,1.3-3,2.6-4.5,3.9c1.1-1.3,2.5-2.8,4.1-4.3c0.1-0.1,0.2-0.2,0.2-0.2l-0.5-0.5c-0.1,0.1-0.2,0.1-0.3,0.2
	c-1.3,1.2-2.7,2.3-4,3.4c1.2-1.2,2.5-2.4,3.8-3.6l-1.3-1.3c-1,0.9-2,1.8-3,2.8c0.8-1,1.8-2,2.7-3c0.1-0.1,0.1-0.2,0.2-0.2l-0.5-0.5
	c-0.1,0.1-0.2,0.2-0.2,0.2c-3,2.9-5.6,5.3-7.3,7c0,0.4,0.1,0.6,0.2,0.7c0.3,0.2,0.6-0.2,1,0c0.1,0.1,0.3,0.3,0.4,0.6
	c0.1,0.2,0,0.4,0.1,0.5c0,0,0,0,0,0C13.7,29,14.3,29,15,29c3.5,0,6.6-1.4,8.9-3.7L22.5,24z M17.4,12.8l5.8-5.8
	c-0.4-0.4-0.8-0.7-1.3-1c-0.2,0-0.3,0.1-0.4,0.1c-1.1,0.3-1.4,1.1-2.8,1.7c0,0-0.2,0.1-0.4,0.2c-0.5,0.3-0.8,0.4-0.9,0.5
	c-0.3,0.2-0.6,0.4-0.8,0.8c-0.1,0.3-0.1,0.5-0.3,0.8c-0.2,0.2-0.4,0.2-0.5,0.2c-0.3,0.1-0.7,0.4-1,0.7v2.1l0.2-0.2
	c1.4-1.4,2.8-2.6,4.2-3.6c-1,0.9-1.9,1.9-2.9,2.8c-0.5,0.5-1,1-1.4,1.4v1.2c0.5-0.6,1-1.2,1.6-1.8c1.1-1.1,2.1-2,3.1-2.7
	c-0.6,0.7-1.2,1.4-1.8,2C17.8,12.5,17.6,12.7,17.4,12.8z M15,15.3l0.3,0.3l0.3-0.3L15.3,15C15.2,15.1,15.1,15.2,15,15.3z M6.9,7
	C7,7,7,7,7.1,6.9c0,0,0.1-0.1,0.1-0.1C7,6.8,7,6.9,6.9,7z M3.4,21.1c0.1,0.2,0.1,0.3,0.2,0.5c0.1-0.1,0.1-0.2,0.1-0.3
	C3.6,21.2,3.5,21.1,3.4,21.1z"/>
<path class="st1" d="M18.2,19.2c-0.1,0.1-0.1,0.2-0.2,0.2c-0.4,0.4-0.8,0.9-1.4,1.5c-2.5,2.7-4.6,4.9-6,6.2c-0.2,0.1-0.4,0.1-0.7,0
	c-0.3-0.1-0.3-0.3-0.5-0.3c-0.3-0.1-0.5,0.3-0.8,0.4c-0.8-0.5-1.4-1-2.1-1.5c0,0,0-0.1,0-0.2c0-0.5-0.7-0.9-1.4-1.3
	c-0.6-0.8-1.2-1.7-1.6-2.6c0.1-0.1,0.1-0.2,0.1-0.3c0-0.1-0.2-0.2-0.3-0.2c-0.6-1.4-0.9-3-0.9-4.6c0-3.8,1.7-7.2,4.4-9.5
	C7,7,7,7,7.1,6.9c0,0,0.1-0.1,0.1-0.1c0.2-0.2,0.4-0.3,0.6-0.5c1.8-1.3,4-2.1,6.5-2.3v7.4c-1.2,1.3-3.3,3.6-6.9,7.3
	c4.6-4.1,6.3-5.9,6.8-6.6c0,0,0-0.1,0.1-0.1v1.9c-1.5,1.6-2.9,3.1-4,4.5c1.3-1.4,2.6-2.8,4-4.1v1.3l0,0.1c0,0,0,0,0,0.1
	c-0.3,0.3-0.5,0.7-0.7,1c0.3-0.3,0.5-0.5,0.8-0.8c0,0,0.1-0.1,0.1-0.1l0.1,0.1H15l1.5,1.5c-0.1,0.1-0.2,0.1-0.2,0.2
	c-0.7,0.7-1.4,1.3-2,1.9c0.7-0.5,1.5-1.1,2.2-1.7c0.1-0.1,0.2-0.1,0.3-0.2l0.6,0.6c-0.1,0.1-0.2,0.2-0.2,0.2
	c-0.7,0.6-1.3,1.3-1.9,1.9c0.7-0.5,1.4-1.1,2.1-1.7c0.1-0.1,0.2-0.1,0.3-0.2L18.2,19.2z"/>
<path class="st1" d="M21.9,6.1C20,4.8,17.6,4,15,4V3c3.4,0,6.5,1.3,8.8,3.5l-0.6,0.6C22.8,6.7,22.4,6.4,21.9,6.1z"/>
<path class="st1" d="M29.9,17.3L29.9,17.3c-0.9,0.7-1.9,1.5-2.8,2.3c0.1-0.5,0.2-1,0.3-1.5c0.1-0.1,0.2-0.2,0.3-0.3
	c-0.1,0.1-0.2,0.1-0.3,0.2c0.1-0.5,0.1-1,0.1-1.5c0-0.1,0-0.2,0-0.3c0.5-0.4,0.9-0.9,1.4-1.3c-0.5,0.4-0.9,0.8-1.4,1.2
	c0-0.4,0-0.9-0.1-1.3c0.5-0.5,0.9-0.9,1.4-1.4c-0.5,0.4-0.9,0.7-1.4,1.1c-0.1-0.8-0.3-1.5-0.6-2.2c-0.1-0.2-0.1-0.3-0.2-0.5
	c-1.3,0.9-3.8,2.8-6.1,5c-0.1,0.1-0.2,0.2-0.3,0.3l-0.3,0.3c-0.5,0.4-0.8,0.8-1.4,1.4L18,18.3c0.2-0.1,0.4-0.3,0.5-0.5
	c0.3-0.2,0.6-0.5,0.9-0.8c0.6-0.5,1.2-1.1,1.8-1.6c1-0.9,2-1.9,2.9-2.8c-1.4,1-2.8,2.2-4.2,3.4c-0.4,0.3-0.8,0.7-1.1,1
	s-0.7,0.7-1.1,1l-0.6-0.6c1-0.9,2.1-1.8,3.2-2.8c1-0.9,2-1.9,2.9-2.8c-1.4,1-2.8,2.2-4.2,3.4c-0.4,0.3-0.7,0.6-1.1,1
	c-0.4,0.3-0.7,0.6-1,1l-1.5-1.5l0.3-0.3l9.2-9.2l0.7-0.7c0.6,0.6,1.1,1.2,1.5,1.8C29.3,10.2,30.2,13.8,29.9,17.3z"/>
<polygon class="st2" points="23.8,7.2 23.6,7.4 23.8,7.2 "/>
<path class="st2" d="M27.3,14.5c-0.9,0.7-1.8,1.5-2.8,2.3c-0.9,0.8-1.8,1.6-2.7,2.4c-0.3,0.3-0.5,0.5-0.8,0.8
	c-0.2,0.2-0.5,0.5-0.7,0.7l-0.5-0.5c0.9-0.9,1.9-1.8,2.8-2.6c1.3-1.3,2.5-2.5,3.8-3.8c-1.1,0.9-2.3,1.9-3.4,2.9
	c-1.2,1.1-2.3,2.2-3.4,3.3l-0.4-0.4c0.4-0.4,0.9-0.8,1.3-1.3c3.3-3.2,5.3-5,6.3-6C27,13,27.2,13.8,27.3,14.5z"/>
<path class="st2" d="M27.5,16.1c-1.3,1.1-2.7,2.3-4.1,3.5c-0.8,0.7-1.5,1.3-2.2,2l-0.8-0.8c1.8-1.4,3.5-2.9,5.4-4.5
	c0.5-0.5,1-1,1.5-1.5C27.4,15.2,27.5,15.6,27.5,16.1z"/>
<path class="st2" d="M27.4,18.1c-0.1,0.5-0.2,1-0.3,1.5c-0.2,0.1-0.3,0.3-0.5,0.4c-1.2,1-2.5,2-3.8,3.1l0,0l-0.5-0.5
	c0.4-0.4,0.8-0.7,1.2-1.1C24.8,20.4,26.1,19.2,27.4,18.1z"/>
<path class="st2" d="M27.7,17.8c-0.1,0.1-0.2,0.2-0.3,0.3c0,0,0,0,0-0.1C27.5,17.9,27.6,17.8,27.7,17.8z"/>
<path class="st2" d="M26.9,20.3c-0.5,1.7-1.4,3.2-2.5,4.5l-1.3-1.3C24.4,22.5,25.6,21.4,26.9,20.3z"/>
<path class="st3" d="M15.5,9.2c0.2,0.2,0,0.7,0,0.7c0,0,0,0,0,0c0,0.1-0.2,0.2-0.5,0.6V8.1c0.1,0.1,0.2,0.1,0.4,0.2
	c0.2,0.1,0.3,0.1,0.3,0.1c0,0.1-0.5,0.2-0.5,0.4c0,0.1,0,0.2,0,0.2C15.2,9.2,15.4,9.1,15.5,9.2z"/>
<path class="st3" d="M15.3,15l0.3,0.3l-0.3,0.3L15,15.3C15.1,15.2,15.2,15.1,15.3,15z"/>
<path class="st3" d="M21.9,6.1c0.4,0.3,0.9,0.6,1.3,1l-5.8,5.8c0.2-0.2,0.3-0.3,0.5-0.5c0.6-0.7,1.2-1.4,1.8-2c-1,0.7-2,1.6-3.1,2.7
	c-0.6,0.6-1.2,1.2-1.6,1.8v-1.2c0.5-0.5,1-1,1.4-1.4c1-1,2-1.9,2.9-2.8c-1.3,1.1-2.7,2.3-4.2,3.6L15,13.1V11c0.3-0.3,0.7-0.6,1-0.7
	c0.1,0,0.3-0.1,0.5-0.2c0.2-0.2,0.1-0.4,0.3-0.8c0.2-0.3,0.4-0.5,0.8-0.8c0.1-0.1,0.4-0.2,0.9-0.5c0.3-0.1,0.4-0.2,0.4-0.2
	c1.4-0.7,1.7-1.5,2.8-1.7C21.6,6.2,21.8,6.1,21.9,6.1z"/>
<path class="st3" d="M23.8,7.2l-0.2,0.2c0,0,0,0,0,0C23.6,7.3,23.6,7.3,23.8,7.2C23.7,7.3,23.7,7.2,23.8,7.2L23.8,7.2z"/>
<path class="st1" d="M23.8,7.2C23.7,7.2,23.7,7.3,23.8,7.2c-0.1,0.1-0.2,0.1-0.2,0.2c0,0,0,0,0,0L23.8,7.2L23.8,7.2z M21.6,6.2
	c-1.1,0.3-1.4,1.1-2.8,1.7c0,0-0.2,0.1-0.4,0.2c-0.5,0.3-0.8,0.4-0.9,0.5c-0.3,0.2-0.6,0.4-0.8,0.8c-0.1,0.3-0.1,0.5-0.3,0.8
	c-0.2,0.2-0.4,0.2-0.5,0.2c-0.3,0.1-0.7,0.4-1,0.7v2.1l0.2-0.2c1.4-1.4,2.8-2.6,4.2-3.6c-1,0.9-1.9,1.9-2.9,2.8
	c-0.5,0.5-1,1-1.4,1.4v1.2c0.5-0.6,1-1.2,1.6-1.8c1.1-1.1,2.1-2,3.1-2.7c-0.6,0.7-1.2,1.4-1.8,2c-0.2,0.2-0.3,0.3-0.5,0.5l5.8-5.8
	c-0.4-0.4-0.8-0.7-1.3-1C21.8,6.1,21.6,6.2,21.6,6.2z M15,15.3l0.3,0.3l0.3-0.3L15.3,15C15.2,15.1,15.1,15.2,15,15.3z M29.9,17.3
	L29.9,17.3c0,0.1,0,0.1,0,0.2c0.2-0.2,0.5-0.5,0.7-0.7C30.4,16.9,30.2,17.1,29.9,17.3z M27.4,18C27.4,18,27.4,18,27.4,18
	c0.1,0,0.2-0.1,0.3-0.2C27.6,17.8,27.5,17.9,27.4,18z M23.1,23.5l1.3,1.3c1.1-1.3,2-2.8,2.5-4.5C25.6,21.4,24.4,22.5,23.1,23.5z
	 M27.4,14.8c-0.5,0.5-1,1-1.5,1.5c-1.8,1.7-3.6,3.2-5.4,4.5l0.8,0.8c0.7-0.7,1.5-1.3,2.2-2c1.4-1.2,2.7-2.4,4.1-3.5
	C27.5,15.6,27.4,15.2,27.4,14.8z M23.5,21.5c-0.4,0.4-0.8,0.7-1.2,1.1l0.5,0.5l0,0c1.3-1.1,2.6-2.2,3.8-3.1c0.2-0.1,0.3-0.3,0.5-0.4
	c0.1-0.5,0.2-1,0.3-1.5C26.1,19.2,24.8,20.4,23.5,21.5z M26.8,12.3c-1,1-3,2.8-6.3,6c-0.5,0.4-0.9,0.8-1.3,1.3l0.4,0.4
	c1.1-1.1,2.2-2.2,3.4-3.3c1.2-1,2.3-2,3.4-2.9c-1.3,1.3-2.5,2.5-3.8,3.8c-0.9,0.9-1.9,1.8-2.8,2.6l0.5,0.5c0.2-0.2,0.5-0.5,0.7-0.7
	c0.3-0.3,0.5-0.5,0.8-0.8c0.8-0.8,1.7-1.6,2.7-2.4c1-0.8,1.9-1.6,2.8-2.3C27.2,13.8,27,13,26.8,12.3z M22.5,24c0,0-0.1,0.1-0.1,0.1
	c-1.4,1.3-2.9,2.4-4.2,3.4c1.3-1.3,2.6-2.5,4.1-3.8l-0.5-0.5c-1.5,1.3-3,2.6-4.5,3.9c1.1-1.3,2.5-2.8,4.1-4.3
	c0.1-0.1,0.2-0.2,0.2-0.2l-0.5-0.5c-0.1,0.1-0.2,0.1-0.3,0.2c-1.3,1.2-2.7,2.3-4,3.4c1.2-1.2,2.5-2.4,3.8-3.6l-1.3-1.3
	c-1,0.9-2,1.8-3,2.8c0.8-1,1.8-2,2.7-3c0.1-0.1,0.1-0.2,0.2-0.2l-0.5-0.5c-0.1,0.1-0.2,0.2-0.2,0.2c-3,2.9-5.6,5.3-7.3,7
	c0,0.4,0.1,0.6,0.2,0.7c0.3,0.2,0.6-0.2,1,0c0.1,0.1,0.3,0.3,0.4,0.6c0.1,0.2,0,0.4,0.1,0.5c0,0,0,0,0,0C13.7,29,14.3,29,15,29
	c3.5,0,6.6-1.4,8.9-3.7L22.5,24z M15.1,9c0,0-0.1-0.1,0-0.2c0-0.3,0.5-0.3,0.5-0.4c0,0-0.1-0.1-0.3-0.1c-0.2-0.1-0.3-0.1-0.4-0.2
	v2.5c0.3-0.3,0.5-0.5,0.5-0.6c0,0,0,0,0,0c0-0.1,0.2-0.6,0-0.7C15.4,9.1,15.2,9.2,15.1,9z M7.8,6.3c0,0-0.1,0-0.2-0.1
	c-0.1,0-0.3,0-0.4,0c-0.1,0.1,0,0.3-0.1,0.5C7.3,6.6,7.5,6.5,7.8,6.3z"/>
<path class="st1" d="M29.9,17.4c-0.1,0.7-0.2,1.5-0.4,2.2h0c-0.6,2.5-1.9,5-3.9,6.9l-1.3-1.3l-0.3-0.3c0.1-0.1,0.2-0.2,0.3-0.4
	c1.1-1.3,2-2.8,2.5-4.5v0c0.3-0.2,0.5-0.5,0.8-0.7C28.5,18.8,29.2,18.1,29.9,17.4z"/>
<path class="st1" d="M27.7,17.8c-0.1,0.1-0.2,0.2-0.3,0.3c0,0,0,0,0-0.1C27.5,17.9,27.6,17.8,27.7,17.8z"/>
<path class="st1" d="M22.5,24c0,0-0.1,0.1-0.2,0.1C22.4,24,22.4,24,22.5,24L22.5,24z"/>
<path class="st1" d="M30.6,16.8c-0.2,0.2-0.5,0.5-0.7,0.7c0,0,0-0.1,0-0.1v0C30.2,17.1,30.4,16.9,30.6,16.8z"/>
<polygon class="st1" points="14.5,16 14.2,16 14.2,15.7 14.3,15.7 "/>
<path class="st1" d="M15,14.8v0.6l-0.3-0.3C14.8,15,14.9,14.9,15,14.8z"/>
<polygon class="st1" points="14.2,15.4 14.2,15.7 14.1,15.5 "/>
<path class="st1" d="M16.5,17.5c-0.1,0.1-0.2,0.1-0.2,0.2L14.5,16H15L16.5,17.5z"/>
<path class="st1" d="M17.4,18.4c-0.1,0.1-0.2,0.2-0.2,0.2L16.5,18c0.1-0.1,0.2-0.1,0.3-0.2L17.4,18.4z"/>
<path class="st1" d="M17.6,18.6l0.6,0.6c-0.1,0.1-0.1,0.2-0.2,0.2l-0.6-0.6C17.4,18.7,17.5,18.7,17.6,18.6z"/>
<path class="st1" d="M18.9,19.8l0.5,0.5c-0.1,0.1-0.2,0.2-0.2,0.2l-0.5-0.5C18.7,20,18.8,19.9,18.9,19.8z"/>
<path class="st1" d="M20.4,20.7L20.4,20.7c-0.1,0.2-0.2,0.3-0.3,0.3l0,0C20.2,20.9,20.3,20.8,20.4,20.7z"/>
<path class="st1" d="M21.5,22.5c-0.1,0.1-0.2,0.1-0.2,0.2l-0.5-0.5c0.1-0.1,0.2-0.1,0.3-0.2L21.5,22.5z"/>
<path class="st1" d="M24.7,25l-0.3,0.3l-0.3-0.3c0.1-0.1,0.2-0.2,0.3-0.4L24.7,25z"/>
<path class="st1" d="M15.3,15l2.1-2.1c-0.6,0.6-1.1,1.2-1.7,1.8C15.6,14.7,15.5,14.9,15.3,15L15.3,15z"/>
<path class="st1" d="M23.8,7.2l-0.2,0.2c0,0,0,0,0,0C23.6,7.3,23.6,7.3,23.8,7.2C23.7,7.3,23.7,7.2,23.8,7.2L23.8,7.2z"/>
</svg>
