<?xml version="1.0" encoding="utf-8"?>
<!-- Generator: Adobe Illustrator 23.0.0, SVG Export Plug-In . SVG Version: 6.00 Build 0)  -->
<svg version="1.1" id="Layer_1" xmlns="http://www.w3.org/2000/svg" xmlns:xlink="http://www.w3.org/1999/xlink" x="0px" y="0px"
	 viewBox="0 0 32 32" style="enable-background:new 0 0 32 32;" xml:space="preserve">
<style type="text/css">
	.st0{opacity:0.2;enable-background:new    ;}
	.st1{fill:#5164D7;}
	.st2{fill:#FFCC19;}
	.st3{opacity:0.2;fill:#FFFFFF;enable-background:new    ;}
	.st4{fill:#F75049;}
</style>
<path class="st0" d="M8.2,25.1C8.2,25.1,8.2,25.1,8.2,25.1L8.2,25.1C8.2,25.1,8.2,25.1,8.2,25.1z"/>
<path class="st0" d="M23.6,24c-0.1,0-0.2,0-0.3,0c0.2,0,0.3,0,0.5,0.1C23.8,24,23.7,24,23.6,24z M18.1,7.5L18.1,7.5L18.1,7.5
	L18.1,7.5z"/>
<path class="st0" d="M25.4,26.1c0.1,0.1,0.2,0.3,0.2,0.4C25.6,26.4,25.5,26.3,25.4,26.1z"/>
<path class="st0" d="M25.7,26.7C25.7,26.7,25.7,26.7,25.7,26.7c0,0-0.1-0.1-0.1-0.1C25.7,26.6,25.7,26.6,25.7,26.7z"/>
<path class="st0" d="M26,27.5L26,27.5C26,27.5,26,27.5,26,27.5c0,0,0-0.1-0.1-0.2C25.9,27.3,25.9,27.4,26,27.5z"/>
<path class="st1" d="M23.6,24c-0.1,0-0.2,0-0.3,0c0.2,0,0.3,0,0.5,0.1C23.8,24,23.7,24,23.6,24z M18.1,7.5L18.1,7.5L18.1,7.5
	L18.1,7.5z"/>
<path class="st2" d="M8.2,25.1C8.2,25.1,8.2,25.1,8.2,25.1L8.2,25.1C8.2,25.1,8.2,25.1,8.2,25.1z"/>
<path class="st2" d="M25.4,26.1c0.1,0.1,0.2,0.3,0.2,0.4C25.6,26.4,25.5,26.3,25.4,26.1z"/>
<path class="st2" d="M25.7,26.7C25.7,26.7,25.7,26.7,25.7,26.7c0,0-0.1-0.1-0.1-0.1C25.7,26.6,25.7,26.6,25.7,26.7z"/>
<path class="st2" d="M26,27.5L26,27.5C26,27.5,26,27.5,26,27.5c0,0,0-0.1-0.1-0.2C25.9,27.3,25.9,27.4,26,27.5z"/>
<path class="st3" d="M23.8,24c-0.2,0-0.3-0.1-0.5-0.1c0.1,0,0.2,0,0.3,0C23.7,24,23.8,24,23.8,24z"/>
<path class="st3" d="M25.4,26.1c0.1,0.1,0.2,0.3,0.2,0.4C25.6,26.4,25.5,26.3,25.4,26.1z"/>
<path class="st3" d="M25.7,26.7C25.7,26.7,25.7,26.7,25.7,26.7c0,0-0.1-0.1-0.1-0.1C25.7,26.6,25.7,26.6,25.7,26.7z"/>
<path class="st3" d="M26,27.5L26,27.5C26,27.5,26,27.5,26,27.5c0,0,0-0.1-0.1-0.2C25.9,27.3,25.9,27.4,26,27.5z"/>
<polygon class="st0" points="18.2,7.5 18.1,7.6 18.1,7.5 "/>
<path class="st4" d="M18.5,8L18,8l-0.4,0l-0.4,0.7l-0.1-0.3c0.3-0.3,0.7-0.6,1-0.9l0,0l0.1,0l0,0.1L18.5,8z"/>
<path class="st4" d="M25.7,26.7C25.7,26.7,25.7,26.7,25.7,26.7c0,0-0.1-0.1-0.1-0.1C25.7,26.6,25.7,26.6,25.7,26.7z"/>
<path class="st4" d="M26,27.5L26,27.5C26,27.5,26,27.5,26,27.5c0,0,0-0.1-0.1-0.2C25.9,27.3,25.9,27.4,26,27.5z"/>
<path class="st4" d="M20,27.3c-1.2,1.3-2.3,2.5-3.3,3.7H9c-1.4,0-2.5-0.9-2.9-2.2c1-0.9,2-1.9,3.1-3c1.9,1.3,4.3,2.1,6.8,2.1h0.1
	c-0.3,0.3-0.6,0.5-0.8,0.8c0.3-0.3,0.6-0.5,1-0.8C17.5,28,18.8,27.7,20,27.3z"/>
<path class="st4" d="M14.7,18.2c-2,2.1-3.8,4-5.5,5.8C9.1,24,9,24,9,24c-0.3,0-0.5,0-0.8,0.1C5.8,22,4.2,19,4,15.6v-0.1
	c0-0.2,0-0.3,0-0.5c0-5.2,3.3-9.6,7.8-11.3c-1.6,1.9-2.9,3.6-4,5.3c2-1.8,4-3.8,6-5.8C14.5,3.1,15.3,3,16,3c2,0,4,0.5,5.6,1.4
	c-0.5,0.4-1.1,0.9-1.6,1.4c-0.7,0.6-1.3,1.2-2,1.7l-0.2-0.2l0.2-0.8l-0.8,0.3l-0.7-0.5l0,0.8l-0.7,0.5l0.6,0.2l0.2,0l0.2,0.5
	c-1.4,1.3-2.8,2.5-4,3.8L12.9,12l0-0.2l0.3-1.1L12,11.2l-1.1-0.7l0.1,1.1l0,0.3l-0.1,0l-1,0.8l1,0.3l0.3,0.1l0.3,0.7
	c-0.6,0.6-1.3,1.3-1.9,1.9c0.7-0.5,1.3-1,2-1.6l0.1,0.3l0.4-0.6l0.3-0.5l0.3,0l0.2,0l0.8,0l-0.4-0.5c3-2.4,6-4.9,9-7.7
	c0.5,0.3,1,0.7,1.5,1.1c-0.6,0.5-1.2,1-1.8,1.5c-3.8,3.3-7.3,6.6-10.5,9.7c4.2-3.1,8.5-6.7,12.9-10.7c0.3,0.3,0.6,0.6,0.8,0.9
	c0.5,0.6,0.9,1.2,1.3,1.9c0.2,0.4,0.4,0.8,0.6,1.2c-2.4,2.2-4.7,4.5-6.8,6.7l0,0l0.3-1.1l0.3-1.1l-0.4,0.2l-1.8,0.7L17.7,15
	l-0.9-0.6l0.1,1l0,0.4C16.3,16.6,15.6,17.3,14.7,18.2z"/>
<path class="st4" d="M22.5,25.1c-0.3,0.2-0.5,0.3-0.8,0.5c0.1-0.1,0.3-0.3,0.4-0.4v0C22.2,25.2,22.3,25.1,22.5,25.1z"/>
<path class="st4" d="M28,15c0,0.1,0,0.3,0,0.4v0c0,0,0,0,0,0c0,0,0,0,0,0.1c0,0.5-0.1,1-0.1,1.5c-2.9,2.5-5.6,5.1-8.2,7.6
	C18.3,24.8,17,25,16,25c-1.4,0-3.6-0.4-5.2-0.6c1.8-1.8,3.8-3.7,6-5.7l0.7,0.2l0.4,1.1c-1.3,1.4-2.5,2.8-3.7,4.2
	c1.3-1.2,2.6-2.4,3.9-3.6l0.2,0.6l1.3-2l1.5-0.1l0.8,0c2-1.5,4-3.1,6.1-4.8C28,14.4,28,14.7,28,15z"/>
<path class="st4" d="M27.9,13.2c-2.1,1.9-4.1,3.9-6,5.8l-1-1.2c2.2-2.1,4.4-4.2,6.6-6.2C27.7,12.1,27.8,12.6,27.9,13.2z"/>
<path class="st4" d="M26,27.5c0,0.2,0,0.3,0,0.5c0,1.7-1.3,3-3,3h-2.6c1.7-1.4,3.5-2.8,5.3-4.3c0,0,0,0,0,0c0,0,0,0.1,0,0.1
	c0,0.1,0.1,0.1,0.1,0.2c0,0.1,0,0.2,0.1,0.3C25.9,27.3,25.9,27.4,26,27.5C26,27.5,26,27.5,26,27.5z"/>
<path class="st4" d="M25.3,26c-1.9,1.7-3.7,3.4-5.4,5h-3.1c1.8-1.6,3.7-3.2,5.5-4.8c0.5-0.4,1.1-0.7,1.6-1.2c0.2,0,0.3,0.1,0.4,0.2
	c0,0,0.1,0,0.1,0.1c0.2,0.1,0.4,0.3,0.6,0.5C25.1,25.8,25.2,25.9,25.3,26z"/>
<path class="st4" d="M20.3,24.5c2.4-2.1,4.8-4.2,7.3-6.3c-0.3,1.1-0.8,2.2-1.4,3.1c-0.6,1-1.4,2-2.3,2.8c0,0,0,0,0,0
	c-0.1,0-0.2,0-0.3,0c-0.1,0-0.2,0-0.3,0c0,0,0,0,0,0c-0.1,0-0.2,0-0.3,0C23,24,21.8,24.3,20.3,24.5z"/>
<path class="st4" d="M22.1,25.2c-0.1,0.1-0.3,0.3-0.4,0.4c-1.3,0.7-2.7,1.1-4.1,1.3c0.4-0.4,0.9-0.8,1.4-1.2
	C20.1,25.6,21.3,25.3,22.1,25.2z"/>
<path class="st4" d="M16,27c-2.3,0-4.4-0.6-6.2-1.7c0,0,0.1-0.1,0.1-0.1c1.5,0.3,4.4,0.8,6.1,0.8c0.7,0,1.5-0.1,2.4-0.2
	c-0.4,0.4-0.8,0.8-1.2,1.1C16.8,27,16.4,27,16,27z"/>
<path class="st4" d="M23.8,24c-0.2,0-0.3-0.1-0.5-0.1c0.1,0,0.2,0,0.3,0C23.7,24,23.8,24,23.8,24z"/>
<path class="st4" d="M18.5,8L18,8l-0.4,0l-0.4,0.7l-0.1-0.3c0.3-0.3,0.7-0.6,1-0.9l0,0l0.1,0l0,0.1L18.5,8z"/>
<path class="st4" d="M23.8,24c-0.2,0-0.3-0.1-0.5-0.1c0.1,0,0.2,0,0.3,0C23.7,24,23.8,24,23.8,24z"/>
<path class="st4" d="M25.7,26.7C25.7,26.7,25.7,26.7,25.7,26.7c0,0-0.1-0.1-0.1-0.1C25.7,26.6,25.7,26.6,25.7,26.7z"/>
</svg>
