<?xml version="1.0" encoding="utf-8"?>
<!-- Generator: Adobe Illustrator 23.0.0, SVG Export Plug-In . SVG Version: 6.00 Build 0)  -->
<svg version="1.1" id="Layer_1" xmlns="http://www.w3.org/2000/svg" xmlns:xlink="http://www.w3.org/1999/xlink" x="0px" y="0px"
	 viewBox="0 0 32 32" style="enable-background:new 0 0 32 32;" xml:space="preserve">
<style type="text/css">
	.st0{fill:#F75049;}
</style>
<path class="st0" d="M26.7,21.5C26.7,21.6,26.7,21.6,26.7,21.5c0,0,0.1,0,0.1-0.1c0.2-0.1,0.3-0.3,0.5-0.4
	C27.1,21.2,26.9,21.4,26.7,21.5z M21.8,5.5C21.8,5.5,21.8,5.5,21.8,5.5c0.1,0,0.1-0.1,0.1-0.1C21.9,5.4,21.8,5.4,21.8,5.5z"/>
<path class="st0" d="M4.7,20.2c-0.5,0.5-1,1-1.5,1.5c-0.4-0.8-0.6-1.6-0.8-2.5c0.6-0.5,1.2-0.9,1.8-1.4C4.3,18.6,4.5,19.4,4.7,20.2z
	"/>
<path class="st0" d="M17.4,22.8c-0.8,0.7-1.5,1.4-2.3,2.1c-1.5-0.2-2.9-0.8-4-1.7c0.5-0.5,1-0.9,1.5-1.4c0.4,0.3,0.9,0.5,1.4,0.7
	c-0.4,0.4-0.8,0.8-1.2,1.2c0.5-0.4,0.9-0.7,1.4-1.1c0.6,0.2,1.3,0.3,1.9,0.3C16.5,23,16.9,23,17.4,22.8z"/>
<path class="st0" d="M8.3,25.2c-0.4,0.5-0.9,1-1.3,1.5c-0.5-0.4-0.9-0.8-1.3-1.3c0.5-0.4,0.9-0.9,1.4-1.4
	C7.5,24.5,7.9,24.9,8.3,25.2z"/>
<path class="st0" d="M4.1,17.2c-0.6,0.6-1.2,1.1-1.8,1.7C2.1,18,2,17.2,2,16.3c0-0.1,0-0.2,0-0.3c0-2.1,0.5-4.1,1.3-5.9
	C5,8.4,6.8,6.6,8.5,4.6c0.3-0.4,0.7-0.7,1-1.1C11.5,2.6,13.7,2,16,2c3.4,0,6.5,1.2,9,3.2c-0.5,0.4-1.1,0.8-1.6,1.3
	c-0.5-0.4-1-0.7-1.5-1c0,0,0.1-0.1,0.1-0.1c0,0-0.1,0.1-0.1,0.1c-0.8-0.4-1.7-0.8-2.6-1c0.3-0.3,0.5-0.5,0.8-0.8
	c-0.3,0.2-0.6,0.5-0.9,0.7C18,4.1,17,4,16,4C9.3,4,4,9.3,4,16C4,16.4,4,16.8,4.1,17.2z"/>
<path class="st0" d="M24.5,7.5c0.5-0.5,1-1,1.4-1.4c1,1,1.8,2.2,2.5,3.5c-0.5,0.4-1.1,0.9-1.6,1.3c-0.3-0.7-0.7-1.4-1.2-2
	c0.4-0.4,0.8-0.8,1.2-1.2c-0.4,0.3-0.9,0.7-1.3,1C25.3,8.3,24.9,7.9,24.5,7.5z"/>
<path class="st0" d="M14.2,19h-3.9c0.2,0.5,0.4,0.9,0.7,1.3c0.3,0.4,0.5,0.7,0.9,1c-0.5,0.5-0.9,1-1.4,1.4c-0.4-0.3-0.7-0.7-1-1.1
	c-0.4-0.5-0.7-1.1-1-1.7c-0.1-0.3-0.3-0.7-0.3-1H7l0.2-0.3l0,0c1-0.8,1.9-1.6,2.9-2.4c0,0.2,0,0.5,0,0.7h6.3
	C15.6,17.7,14.9,18.3,14.2,19z"/>
<path class="st0" d="M18,15h-1.4c0.8-0.7,1.5-1.4,2.1-2H19L18,15z"/>
<path class="st0" d="M27.2,11.5c0.5-0.5,1-1,1.5-1.5c0.3,0.7,0.6,1.5,0.8,2.2c-0.6,0.5-1.1,0.9-1.7,1.4C27.7,13,27.4,12.2,27.2,11.5
	z"/>
<path class="st0" d="M8.6,25.5c1.1,0.9,2.4,1.5,3.7,2c-0.5,0.5-1.1,1-1.6,1.5c-1.3-0.5-2.5-1.2-3.6-2.1C7.7,26.4,8.2,26,8.6,25.5z"
	/>
<path class="st0" d="M18.5,24.6C17.7,24.9,16.9,25,16,25h-0.1c1.1-1,2.2-2,3.3-3c0,0,0,0,0,0h2.9C21.3,23.2,20,24.1,18.5,24.6z"/>
<path class="st0" d="M18.1,29.8c3.7-2.8,7.4-6,11.3-9.5C27.7,25.3,23.3,29.1,18.1,29.8C18,29.8,18,29.8,18.1,29.8z"/>
<path class="st0" d="M30,16c0,0.1,0,0.2,0,0.3c0,1-0.1,1.9-0.3,2.8c-0.8,0.6-1.6,1.3-2.4,2c-0.2,0.2-0.4,0.3-0.6,0.5
	c0.6-1.1,1-2.4,1.2-3.7v0c0.6-0.5,1.2-1,1.7-1.5c-0.6,0.4-1.1,0.7-1.7,1.1C28,17,28,16.5,28,16c0-0.6,0-1.2-0.1-1.8
	c0.6-0.5,1.2-1.1,1.7-1.6C29.8,13.7,30,14.8,30,16z"/>
<path class="st0" d="M14.2,8.2C13.1,9.1,12,10,10.9,11c-1.6,1.4-3.1,2.7-4.5,4H6l1-2h1.6C9.6,10.5,11.7,8.8,14.2,8.2z"/>
<path class="st0" d="M20.5,27.1c-1,0.9-2,1.9-2.9,2.8c-0.4,0-0.7,0.1-1.1,0.1c0.8-0.7,1.7-1.5,2.5-2.2c0.1-0.1,0.2-0.1,0.3-0.2
	C19.8,27.4,20.2,27.3,20.5,27.1z"/>
<path class="st0" d="M18.1,8.3c-1.1,0.9-2.3,1.9-3.4,2.9c-1.2,0.3-2.3,0.9-3.2,1.8h1c-0.8,0.7-1.5,1.3-2.3,2h-0.2c0,0.1,0,0.1,0,0.2
	c-0.7,0.6-1.4,1.3-2.1,2L8,17c0-0.3,0-0.7,0.1-1H8c0-0.3,0-0.7,0.1-1H7.6c2-1.7,4-3.5,6.1-5.3c0.6-0.5,1.2-1.1,1.8-1.6
	c0.2,0,0.4,0,0.6,0C16.7,8,17.5,8.1,18.1,8.3z"/>
<path class="st0" d="M17,19h-1.5c0.7-0.7,1.4-1.3,2.1-2H18L17,19z"/>
<path class="st0" d="M20,9.1c-0.8,0.7-1.6,1.4-2.5,2.1c-0.5-0.1-1-0.2-1.6-0.2c0.9-0.8,1.8-1.7,2.7-2.5C19.2,8.7,19.6,8.9,20,9.1z"
	/>
<path class="st0" d="M13.8,13h1.8c-0.5,0.5-1,1-1.5,1.4c-0.2,0.2-0.4,0.4-0.6,0.6h-1.9C12.3,14.3,13.1,13.7,13.8,13z"/>
<path class="st0" d="M5.8,23c-0.4,0.4-0.7,0.8-1.1,1.2c-0.6-0.8-1-1.6-1.4-2.5c0.5-0.4,1.1-0.8,1.6-1.3C5.2,21.3,5.6,22,6,22.7
	C6,22.8,5.8,22.9,5.8,23z"/>
<path class="st0" d="M22.2,11h-1c0.3,0.2,0.5,0.5,0.7,0.8c-0.1,0.1-0.2,0.1-0.3,0.2h-1.9c0.6-0.6,1.2-1.2,1.8-1.7
	C21.8,10.5,22,10.8,22.2,11z"/>
<path class="st0" d="M22.2,12h-0.5c0.1-0.1,0.2-0.2,0.3-0.2C22.1,11.8,22.2,11.9,22.2,12z"/>
<g>
	<path class="st0" d="M10.3,15c-0.1,0.1-0.1,0.1-0.2,0.2c0-0.1,0-0.1,0-0.2H10.3z"/>
	<path class="st0" d="M21.9,5.3c0,0-0.1,0.1-0.1,0.1c0,0,0,0,0,0C21.8,5.4,21.9,5.4,21.9,5.3z"/>
	<path class="st0" d="M22.2,12h-0.5c0.1-0.1,0.2-0.2,0.3-0.2C22.1,11.8,22.2,11.9,22.2,12z"/>
	<path class="st0" d="M16.3,28c-0.7,0.6-1.4,1.3-2.1,1.9c-0.4,0-0.8-0.1-1.2-0.2c-0.6-0.1-1.2-0.3-1.8-0.5c0.6-0.5,1.2-1,1.8-1.5
		c0.6,0.2,1.2,0.3,1.9,0.3c0.4,0,0.8,0.1,1.2,0.1C16.1,28,16.2,28,16.3,28z"/>
	<path class="st0" d="M27.3,21c-0.2,0.1-0.3,0.3-0.5,0.4c0,0-0.1,0.1-0.2,0.1c0,0,0,0,0-0.1C26.9,21.4,27.1,21.2,27.3,21z"/>
	<path class="st0" d="M21.9,5.3c0,0-0.1,0.1-0.1,0.1c0,0,0,0,0,0C21.8,5.4,21.9,5.4,21.9,5.3z"/>
	<path class="st0" d="M22.2,12h-0.5c0.1-0.1,0.2-0.2,0.3-0.2C22.1,11.8,22.2,11.9,22.2,12z"/>
	<path class="st0" d="M27.3,21c-0.2,0.1-0.3,0.3-0.5,0.4c0,0-0.1,0.1-0.2,0.1c0,0,0,0,0-0.1C26.9,21.4,27.1,21.2,27.3,21z"/>
</g>
</svg>
