<?xml version="1.0" encoding="utf-8"?>
<!-- Generator: Adobe Illustrator 23.0.0, SVG Export Plug-In . SVG Version: 6.00 Build 0)  -->
<svg version="1.1" id="Layer_1" xmlns="http://www.w3.org/2000/svg" xmlns:xlink="http://www.w3.org/1999/xlink" x="0px" y="0px"
	 viewBox="0 0 48 48" style="enable-background:new 0 0 48 48;" xml:space="preserve">
<style type="text/css">
	.st0{clip-path:url(#SVGID_2_);fill:#F75049;}
</style>
<g>
	<defs>
		<path id="SVGID_1_" d="M65.4,14.5c-0.2-0.4-0.9-0.1-1.7-0.7c-0.6-0.5-0.5-1-0.9-1.3c-1.1-0.7-3.8,1.5-3.9,1.4c0-0.1,1.1-0.8,2.1-2
			c0.7-0.7,1.9-2.1,1.5-3c-0.2-0.6-0.8-0.5-0.9-1C61.5,7.2,63,6.7,63,5.7c0-0.5-0.5-0.9-0.9-1c-1-0.4-2.3,0.7-2.4,0.6
			c0-0.1,0.8-0.5,1.3-1.4c0.1-0.2,0.5-1,0.2-1.4c-0.2-0.3-0.8-0.3-1.1-0.2c-0.4,0.1-0.6,0.3-0.7,0.1c-0.1-0.1,0-0.3-0.1-0.5
			c-0.1-0.5-1-0.8-1.7-0.9c-1.6-0.1-2.8,1.4-3,1.2c-0.2-0.2,1.5-1.6,1.1-2.6c-0.1-0.4-0.6-0.8-1.1-0.8c-0.8,0-1.2,0.9-1.5,0.8
			c-0.4-0.2,0.3-2.1-0.3-2.6c-0.4-0.3-0.9,0.3-1.7,0c-0.5-0.2-0.5-0.4-0.8-0.5c-0.9-0.4-2.2,1.3-3.9,2.7c-0.7,0.6-1.8,1.5-3.4,2.4
			c0.8-1,1.5-1.7,1.9-2.2c1.2-1.3,1.9-1.9,1.9-2.8c0-0.4-0.1-1.1-0.5-1.3c-0.5-0.2-1.2,0.5-3.1,1.9c-0.5,0.4-1,0.6-1.2,0.8
			c0.1-0.1,0.9-1.1,0.6-2.1c0-0.1-0.2-0.5-0.6-0.8c-1.3-1-3.3-0.5-3.6-0.5c-2.6,0.6-3.2,2.4-6.4,4c0,0-0.4,0.2-1,0.5
			c-1.2,0.6-1.8,1-2,1.1c-0.8,0.5-1.4,1-1.7,1.7c-0.3,0.8-0.2,1.2-0.6,1.8c-0.4,0.4-0.9,0.5-1.1,0.6c-1.8,0.5-3.9,3.5-4.2,3.9
			c-1.2,1.6-5.1,5.7-15.5,15.1C19.9,8.5,24.2,3.8,24.4,3.4c0,0,0,0,0,0c0.1-0.2,0.5-1.3,0.1-1.7c-0.2-0.2-0.7-0.1-0.9-0.4
			c0,0-0.1-0.2-0.1-0.4c0.1-0.6,1.3-0.7,1.2-1c0-0.1-0.2-0.2-0.6-0.3c-0.8-0.3-0.8-0.6-1.3-0.7c-0.7-0.2-1.4,0.2-1.9,0.5
			c-0.6,0.3-1,0.7-1.2,0.6c-0.1-0.1,0.1-0.5-0.1-0.8c-0.2-0.3-0.7-0.3-0.9-0.2c-1,0.1-1.5,0.8-1.9,0.7c-0.2-0.1,0-0.5-0.2-0.9
			c-0.3-0.4-0.6-0.3-1.1-0.6c-0.5-0.4-0.3-0.8-0.9-1.6c-0.2-0.3-0.6-0.8-1.2-1c-0.7-0.3-0.8,0.1-1.5-0.2c-0.8-0.2-0.8-0.7-1.5-0.8
			C10-5.6,9.6-5.5,9.3-5.3C8.4-4.9,8.4-4.4,7.9-4.4c-0.6,0-0.7-0.6-1.6-0.7C6-5.2,5.7-5.2,5.5-5.1C5.1-4.7,5.6-4,5.2-3.6
			C5-3.4,4.6-3.5,4.4-3.6C4.1-3.8,4.2-4,4-4.2C3.4-4.8,0.6-4.1-0.2-2.4c-0.1,0.3-0.3,0.7-0.7,0.9c-0.5,0.3-0.9,0-1.4,0
			c-0.9,0-1.4,0.7-3.3,2.9c0,0-0.4,0.4-1.6,1.9c-2.6,3-3.1,3.3-3.1,4.2c0,1.5,0.1,2.1,0.1,2.1c0.1,0.3,0.3,0.8,0.1,1.1
			c-0.2,0.2-0.3,0.1-0.5,0.3c-0.4,0.4,0.2,1.1,0.1,2.3c0,0,0,0-0.1,0.8c-0.3,1.6-0.3,1.9-0.1,2.1c0.2,0.2,0.5,0.2,0.8,0.2
			c0.5,0,0.9-0.2,1.1-0.4c1.1-1.3,2.3-2.7,3.4-4c-0.5,1-0.9,1.7-1.3,2.2c-0.5,0.7-0.9,1.2-1.4,2.1c-0.1,0.3-0.3,0.6-0.5,1.1
			C-9,18.1-9.3,19-9,19.7c0.1,0.3,0.3,0.5,0.4,0.9c0.1,0.5-0.1,0.8,0.1,1.2C-8.3,22-8.2,22-8,22.2c0.3,0.4-0.1,0.9,0.1,1.7
			c0.1,0.5,0.3,0.4,0.4,0.8c0.2,0.8-0.2,1.1,0,2.1c0.1,0.4,0.1,0.7,0.3,0.8c0.4,0.4,1.1-0.2,1.7,0.1c0.5,0.3,0.4,0.9,0.9,1.1
			c0.4,0.1,0.5-0.2,1.2-0.1c0.1,0,0.9,0.1,1,0.4c0.1,0.3-0.3,0.8-0.8,1.1c-1.1,0.6-2.4-0.2-2.6,0.1C-6,30.6-5.5,31-5.3,31.3
			c3,2.8,3,3,4,3.6c1,0.6,0.8,0.3,2,1c1.6,0.9,3.2,1.8,3.3,3c0,0.7-0.5,0.8-0.4,1.8c0,0.7,0.3,1.6,0.9,1.9c0.6,0.2,0.9-0.4,1.8-0.3
			c0.9,0.1,1,0.7,1.8,0.8c1.1,0,1.5-1.3,2.4-1.1c0.5,0.1,0.5,0.6,1.2,0.8c0.6,0.2,1.2,0.1,1.6-0.1c3.1-3.2,7.9-8.1,13.7-14.3
			c4.9-5.1,6.2-6.6,8.9-9.2c7.9-7.5,16.1-13.3,16.5-12.9c0.3,0.3-3.5,3.8-16.4,16C27,30.8,19.7,37.8,14.8,42.5c0,1,0.3,1.4,0.5,1.5
			c0.6,0.4,1.5-0.5,2.2,0c0.3,0.2,0.8,0.6,1,1.3c0.1,0.5,0,0.9,0.3,1.2c0.2,0.2,0.3,0.1,0.6,0.3c0.5,0.5,0.3,1,0.7,1.4
			c0.5,0.4,1.1,0.1,1.3,0.5c0.1,0.2-0.1,0.4-0.1,0.8c0.1,0.4,0.5,0.4,0.6,0.7c0.1,0.5-0.8,0.8-1,1.8c-0.1,0.6,0.2,0.7,0.2,1.4
			c-0.1,1.4-1.7,1.7-1.6,2.8c0,0.7,0.7,1.3,1.3,1.4c1,0.1,1.4-1.3,2.5-1.3c1.2,0,1.7,1.8,2.8,1.6c0.8-0.1,0.9-1.1,1.8-1.1
			c0.6,0,0.9,0.3,1.3,0.1c0.4-0.2,0.4-0.7,0.8-0.8c0.2-0.1,0.4,0,0.6,0.1c0.7,0.1,1.7-1.2,2.1-2.4c0.4-1.1,0-1.5,0.5-2.3
			c0.4-0.6,0.9-1,1.1-1.1c1.6-1.2,3.6-3,5.4-4.7c2.4-2.3,2.7-3.3,4.4-4.1c0.3-0.1,0.8-0.4,1.4-0.9c0.9-0.8,1.2-1.7,1.6-2.5
			c1.2-2.3,2.5-2.4,5-6.1c0.1-0.2,0.7-1,0.5-1.1c-0.3-0.3-3.5,3.4-4.3,2.9C48,33.7,48,33.3,48,33.1c0.2-1.7,2.5-2.3,5.7-5.1
			c0.8-0.7,0.5-0.6,1.5-1.4c2.5-2.2,5.1-3.8,5.8-5.2c0.4-0.8,0.7-1.7,0.7-1.7c0.1-0.3,0.1-0.4,0.2-0.5c0.3-0.8,0.7-1.1,2-2.6
			C65.3,15.1,65.5,14.7,65.4,14.5z M14.8,12.2c-0.9,1.1-1.9,2-2.8,2.6c0.5-0.8,1.2-1.9,2.4-2.8c0.4-0.4,0.9-0.7,1.3-0.9
			C15.4,11.4,15.1,11.8,14.8,12.2z M14.1,8.6c1.4-1.6,2.8-3,4.2-4.1c-1,1.4-2.3,2.9-3.8,4.4c-0.9,1-1.9,1.8-2.8,2.6
			C12.4,10.5,13.2,9.5,14.1,8.6z M-2.5,8.4c0.3-0.5,0.7-1.2,1.3-1.9c0.2-0.3,0.5-0.5,0.7-0.6c-0.1,0.3-0.3,0.5-0.5,0.8
			C-1.5,7.5-2,8-2.5,8.4z M0,32.7c-0.3,0.4-0.6,0.5-0.8,0.6c0-0.1,0-0.5,0.3-0.9c0.3-0.4,0.8-0.5,0.9-0.5C0.4,32,0.3,32.4,0,32.7z
			 M-0.9,18.9C0,17.7,1,16.5,2,15.3c0,0.3,0.1,0.6,0.1,0.9C1.1,17.1,0.1,18-0.9,18.9z M4.3,36.8c-0.1,0.1-0.5-0.6-1.6-1.8
			c-0.3-0.3-0.5-0.6-0.5-0.8c0.1-0.3,0.4-0.4,0.7-0.5c0.4-0.2,0.8-0.6,1.3-1.4c0,0.6-0.2,1-0.3,1.3c-0.1,0.3-0.4,0.6-0.3,0.8
			c0.1,0.2,0.3,0.1,0.4,0.3c0.2,0.2,0,0.5,0,0.8C3.9,36.2,4.4,36.7,4.3,36.8z M4,3.1c0.3-0.5,0.7-1.2,1.3-1.9C5.5,1,5.7,0.8,6,0.6
			C5.8,0.9,5.7,1.1,5.5,1.4C5,2.1,4.4,2.7,4,3.1z M12.4,22.8c3.1-4,6.9-8.3,11.4-12.6C27,7,30.2,4.3,33.2,1.9
			c-2.2,2.1-4.4,4.2-6.7,6.4C21.6,13.1,16.9,18,12.4,22.8z M27,10.2c2.5-2.5,4.9-4.5,7-6.1c-1.3,1.5-2.7,3.1-4.1,4.6
			c-3.4,3.7-6.8,7.1-10.1,10.1C21.7,16.2,24,13.2,27,10.2z M32.5,15.5c3.3-2.8,6.5-5.4,9.6-7.8c-2.1,2.1-4.3,4.3-6.7,6.4
			c-4.7,4.3-9.3,8.1-13.7,11.4C25,22.3,28.6,18.9,32.5,15.5z M37.6,15.9c-4.7,4.3-9.3,8.1-13.7,11.5c3.3-3.3,6.9-6.6,10.8-10
			c3.3-2.8,6.5-5.4,9.6-7.8C42.1,11.6,39.9,13.7,37.6,15.9z M54.7,11.3c-2.1,2.1-4.3,4.3-6.7,6.4c-4.7,4.3-9.3,8.1-13.7,11.4
			c3.3-3.3,6.9-6.6,10.8-10C48.4,16.3,51.6,13.7,54.7,11.3z M26.4,34.4c4.3-5.1,9.4-10.4,15.3-15.7c2.6-2.4,5.3-4.6,7.8-6.7
			c-2.9,2.9-5.7,5.8-8.6,8.7C36.1,25.3,31.3,29.9,26.4,34.4z M27.5,39.3c4.7-4.6,9.7-9.3,15-14C46.8,21.5,51,18,55,14.7
			c-3.3,3.2-6.7,6.3-10.2,9.5C39,29.5,33.2,34.5,27.5,39.3z M28.3,42.3c3.3-3.8,7.3-8,12.3-12.3c4.1-3.5,8.2-6.4,11.8-8.8
			c-3.2,2.9-6.5,5.7-9.7,8.5C37.9,33.9,33.1,38.1,28.3,42.3z M52.4,25.3c-3.6,3.3-7.1,6.3-10.6,9c0.6-0.6,1.3-1.1,1.9-1.7
			c2.4-2.2,4.6-4.3,6.7-6.4c-0.3,0.2-0.6,0.4-0.9,0.7c-0.2,0.1-0.4,0.3-0.5,0.5c-3.8,3.3-7.3,6.6-10.5,9.7c-2.7,2.3-5.4,4.4-8,6.4
			c3.3-3.3,6.9-6.6,10.8-10c3-2.6,5.9-5,8.7-7.1c3.1-2.7,6.1-5.1,9.1-7.4C56.9,21,54.7,23.1,52.4,25.3z"/>
	</defs>
	<clipPath id="SVGID_2_">
		<use xlink:href="#SVGID_1_"  style="overflow:visible;"/>
	</clipPath>
	<circle class="st0" cx="24" cy="24" r="5"/>
	<path class="st0" d="M33,16h-2l-2-2H19l-2,2h-2c-2.4,0-3,0-3,1.9V32c0,2,1.1,2,3.4,2h17.1c2.7,0,3.4,0,3.4-2V18
		C36,16,35.3,16,33,16z M24,29c-2.8,0-5-2.2-5-5s2.2-5,5-5s5,2.2,5,5S26.8,29,24,29z"/>
</g>
</svg>
