<?xml version="1.0" encoding="utf-8"?>
<!-- Generator: Adobe Illustrator 23.0.0, SVG Export Plug-In . SVG Version: 6.00 Build 0)  -->
<svg version="1.1" id="Layer_1" xmlns="http://www.w3.org/2000/svg" xmlns:xlink="http://www.w3.org/1999/xlink" x="0px" y="0px"
	 viewBox="0 0 32 32" style="enable-background:new 0 0 32 32;" xml:space="preserve">
<style type="text/css">
	.st0{fill:#F75049;}
	.st1{opacity:0.1;fill:#FFFFFF;enable-background:new    ;}
	.st2{fill:#F1B537;}
</style>
<polygon class="st0" points="19.3,27.5 19.5,27.2 19.5,27.4 "/>
<polygon class="st0" points="22.9,26.4 23,26.6 22.5,26.7 "/>
<path class="st0" d="M20.1,25.1l0.7-0.1l-1.2,1.2v0.6c-0.3,0.3-0.5,0.5-0.8,0.8L17.1,28l-9.3,2.1c0,0-0.8,0.2-1.2,0.2
	c-0.3,0,0.1-1.2,0.1-1.2l0.4-1c-0.3,0.3-0.5,0.6-0.6,0.9c-0.4,1-0.6-2-0.7-3.1l0.1,0l1.3-1.2l0.7-0.8l-0.2-0.5L7,24l-0.1,0.8l-0.3,0
	l-0.3-0.3l-0.6,0.6l0,0L3.5,14.6c0,0,0,0,0,0v0.1l2.1-2.1v-0.4c-0.7,0.7-1.5,1.4-2.2,2.1l-0.5-2.6l2.2-2V9l-2.3,2l0,0.3L2.3,9
	L2.2,8.1l0.1,0c0,0,2.1-2.1,2.2-2.3c0.1-0.1-0.2-0.1-0.2-0.1l-1.8,2L2.2,7.9L2,6.5c0,0,0.3-2,2-2.4l0.5,0.2l0.4-0.3l1.3-0.3L5.8,4.2
	L5.6,4.5l0.1,0L6,4.2l0.4-0.4l3.8-0.8c0,0-0.3,0.4-0.4,0.5c0,0,0,0,0,0L5.5,8.6l0,0.3l6-5.5L11.8,3l0.5-0.1L12,2.6l0.1-0.2l6.5-0.8
	h0l1-0.2l1.4,6.5l-4.6,4.3l-4.9,5.2l5.3-5.1l4.3-4l0.4,1.8l-0.8,0.5l-12.4,12l-0.1,0.1l-1.7-8.3l1.5,8.4l-0.1,0.1l0.1,0.8l0.1-0.1
	l0.5,2.5l0,0l0.1,0l-0.5-2.6l0.2-0.1l7.8-7.1l5.3-5.4l0.2,1.1L12,22l-0.2,0.2h0.5l9.8-9.7l0.7,3.1l-0.1,0.1l-7.2,7L12.1,26l0.5-0.1
	l2.8-2.5l7.5-6.8l0.2,0.8l0.1,0.3l0,0.1l-7.7,7.1l-0.7,0.6l-0.2,0.2h0l-2.8,0.5l0.3,0.2L10.4,27l5.3-1l0.1,0h0l2.5-0.5L20.1,25.1z"
	/>
<path class="st0" d="M3.6,9.1c0,0-0.7,0.5-0.7,0.4c0-0.2,1.4-1.3,1.4-1.3L3.6,9.1z"/>
<polygon class="st0" points="19.4,7.7 14.8,12.2 11.3,15.1 14.5,12 "/>
<polygon class="st0" points="16,3.8 16,3.9 7.6,12.6 7.6,12.3 15.8,3.8 "/>
<polygon class="st0" points="6.2,12 6.1,12.2 5.9,11.7 6.1,11.5 14.7,2.8 "/>
<path class="st1" d="M6.5,2C5.7,2,5,2.7,5,3.5v1C5,3.7,5.7,3,6.5,3h19C26.3,3,27,3.7,27,4.5v-1C27,2.7,26.3,2,25.5,2H6.5z"/>
<path class="st2" d="M17.1,26.6c-0.3,0.3-0.5,0.6-0.8,0.8c-0.3-0.5-0.5-1-0.6-1.5c2.2-1.7,4.5-3.6,6.9-5.8c1.2-1.1,2.4-2.2,3.5-3.3
	c-1.6,1.2-3.3,2.6-5,4.1c-1.9,1.7-3.7,3.4-5.4,5c-0.1-0.5-0.2-1-0.3-1.5c2-1.5,4-3.2,6.1-5.1c1.2-1.1,2.4-2.2,3.5-3.3
	c-1.6,1.2-3.3,2.6-5,4c-1.6,1.4-3.1,2.8-4.5,4.2c0-0.1,0-0.3,0-0.4c0-4.4,3.6-8,8-8c1.5,0,2.9,0.4,4.2,1.2c-1.6,1.2-3.8,3-5.9,5
	C20.3,23.2,19.6,24,17.1,26.6z"/>
<path class="st2" d="M25.3,21.7l0.7,0.6c-0.3,0.2-0.5,0.4-0.8,0.7l-0.6-0.6C24.9,22.2,25.1,21.9,25.3,21.7z"/>
<path class="st2" d="M29.9,19c-0.8,0.7-1.7,1.4-2.5,2.1l-0.7-0.8c0.7-0.8,1.5-1.5,2.2-2.3c-0.8,0.6-1.6,1.3-2.4,2l-0.1-0.1
	C26.2,20,26.1,20,25.9,20s-0.2,0-0.3,0.1L24.7,21l0.3,0.3c-0.1,0.1-0.2,0.2-0.3,0.2c-0.2,0.2-0.3,0.3-0.5,0.4L24,21.8l-3.2,3.2
	l-1.2,1.2v0.6c-0.3,0.3-0.5,0.5-0.8,0.8c-0.5,0.5-0.9,1-1.3,1.5c-0.2-0.3-0.5-0.5-0.6-0.8c0.1-0.1,0.2-0.2,0.3-0.3
	c1-0.9,2-1.9,3-2.9c0.5-0.5,1.1-1,1.7-1.6c3.1-2.9,5.1-4.9,6.5-6.2C28.8,17.8,29.4,18.4,29.9,19z"/>
<path class="st2" d="M30.7,20.4c-1.8,1.5-3.6,3-5.5,4.7c-2.1,1.9-4.1,3.7-6,5.5c-0.6-0.4-1.2-0.9-1.7-1.4l1.8-1.7l0.3-0.2V28h1.8
	l1.2-1.2l0.3-0.3l2.9-2.8l-0.2-0.2c0.3-0.2,0.5-0.4,0.8-0.7c0.4-0.3,0.8-0.7,1.2-1.1c0.2-0.2,0.4-0.3,0.5-0.5c0.7-0.6,1.3-1.2,2-1.8
	C30.3,19.6,30.5,20,30.7,20.4z"/>
<path class="st2" d="M24.5,29.2c-0.9,0.8-1.8,1.6-2.6,2.4c-0.4-0.1-0.8-0.2-1.1-0.3c1.5-1.3,3-2.6,4.5-3.9c1.7-1.5,3.4-3,5-4.4
	c-1.9,1.2-4,2.8-6.1,4.6c-1.4,1.2-2.7,2.4-3.9,3.6c-0.3-0.1-0.6-0.3-0.9-0.5c2.3-2,4.6-4,7-6.2c1.5-1.3,2.9-2.7,4.3-4
	c0.4,0.9,0.7,2,0.7,3.1c-0.8,0.6-1.6,1.3-2.4,2C27.5,26.7,26,27.9,24.5,29.2z"/>
<path class="st2" d="M30.3,25c0.4-0.3,0.8-0.7,1.1-1c0,0.9-0.2,1.7-0.5,2.5c-1.6,1.4-2.8,1.7-2.9,2.6c0,0.1,0,0.3,0.1,0.4
	c0.3,0.2,1.4-0.9,2-1.4c-1.4,2.2-3.9,3.6-6.7,3.6c-0.3,0-0.7,0-1-0.1c0.5-0.4,1-0.9,1.5-1.3C26,28.8,28.1,27,30.3,25z"/>
<path class="st2" d="M26.3,22.7l0.2,0.2l0.9-0.9c0.1-0.1,0.1-0.2,0.1-0.3C27.1,22,26.7,22.3,26.3,22.7z"/>
<path class="st2" d="M15.7,25.9C15.7,25.9,15.7,25.9,15.7,25.9c-0.1,0.1-0.1,0.2-0.2,0.2C15.5,26,15.6,26,15.7,25.9z"/>
<path class="st2" d="M27.5,16.9c-1.6,1.2-3.8,3-5.9,5c-1.4,1.3-2.1,2.1-4.6,4.8c-0.3,0.3-0.5,0.6-0.8,0.8c-0.3-0.5-0.5-1-0.6-1.5
	c2.2-1.7,4.5-3.6,6.9-5.8c1.2-1.1,2.4-2.2,3.5-3.3c-1.6,1.2-3.3,2.6-5,4.1c-1.9,1.7-3.7,3.4-5.4,5c-0.1-0.5-0.2-1-0.3-1.5
	c2-1.5,4-3.2,6.1-5.1c1.2-1.1,2.4-2.2,3.5-3.3c-1.6,1.2-3.3,2.6-5,4c-1.6,1.4-3.1,2.8-4.5,4.2c0-0.1,0-0.3,0-0.4c0-4.4,3.6-8,8-8
	C24.9,15.8,26.3,16.2,27.5,16.9z"/>
<path class="st2" d="M25.3,21.7l0.7,0.6c-0.3,0.2-0.5,0.4-0.8,0.7l-0.6-0.6C24.9,22.2,25.1,21.9,25.3,21.7z"/>
<path class="st2" d="M29.9,19c-0.8,0.7-1.7,1.4-2.5,2.1l-0.7-0.8c0.7-0.8,1.5-1.5,2.2-2.3c-0.8,0.6-1.6,1.3-2.4,2l-0.1-0.1
	C26.2,20,26.1,20,25.9,20s-0.2,0-0.3,0.1L24.7,21l0.3,0.3c-0.1,0.1-0.2,0.2-0.3,0.2c-0.2,0.2-0.3,0.3-0.5,0.4L24,21.8l-3.2,3.2
	l-1.2,1.2v0.6c-0.3,0.3-0.5,0.5-0.8,0.8c-0.5,0.5-0.9,1-1.3,1.5c-0.2-0.3-0.5-0.5-0.6-0.8c0.1-0.1,0.2-0.2,0.3-0.3
	c1-0.9,2-1.9,3-2.9c0.5-0.5,1.1-1,1.7-1.6c3.1-2.9,5.1-4.9,6.5-6.2C28.8,17.8,29.4,18.4,29.9,19z"/>
<path class="st2" d="M30.7,20.4c-1.8,1.5-3.6,3-5.5,4.7c-2.1,1.9-4.1,3.7-6,5.5c-0.6-0.4-1.2-0.9-1.7-1.4l1.8-1.7l0.3-0.2V28h1.8
	l1.2-1.2l0.3-0.3l2.9-2.8l-0.2-0.2c0.3-0.2,0.5-0.4,0.8-0.7c0.4-0.3,0.8-0.7,1.2-1.1c0.2-0.2,0.4-0.3,0.5-0.5c0.7-0.6,1.3-1.2,2-1.8
	C30.3,19.6,30.5,20,30.7,20.4z"/>
<path class="st2" d="M24.5,29.2c-0.9,0.8-1.8,1.6-2.6,2.4c-0.4-0.1-0.8-0.2-1.1-0.3c1.5-1.3,3-2.6,4.5-3.9c1.7-1.5,3.4-3,5-4.4
	c-1.9,1.2-4,2.8-6.1,4.6c-1.4,1.2-2.7,2.4-3.9,3.6c-0.3-0.1-0.6-0.3-0.9-0.5c2.3-2,4.6-4,7-6.2c1.5-1.3,2.9-2.7,4.3-4
	c0.4,0.9,0.7,2,0.7,3.1c-0.8,0.6-1.6,1.3-2.4,2C27.5,26.7,26,27.9,24.5,29.2z"/>
<path class="st2" d="M30.3,25c0.4-0.3,0.8-0.7,1.1-1c0,0.9-0.2,1.7-0.5,2.5c-1.6,1.4-2.8,1.7-2.9,2.6c0,0.1,0,0.3,0.1,0.4
	c0.3,0.2,1.4-0.9,2-1.4c-1.4,2.2-3.9,3.6-6.7,3.6c-0.3,0-0.7,0-1-0.1c0.5-0.4,1-0.9,1.5-1.3C26,28.8,28.1,27,30.3,25z"/>
<path class="st2" d="M31.7,19.5c-0.3,0.3-0.7,0.6-1,0.9c0,0,0-0.1,0-0.1C31,20.1,31.3,19.8,31.7,19.5z"/>
<path class="st2" d="M15.7,25.9c-0.1,0.1-0.2,0.1-0.2,0.2C15.5,26,15.6,26,15.7,25.9C15.7,25.9,15.7,25.9,15.7,25.9z"/>
<path class="st2" d="M31.7,19.5c-0.3,0.3-0.7,0.6-1,0.9c0,0,0-0.1,0-0.1C31,20.1,31.3,19.8,31.7,19.5z"/>
</svg>
