<?xml version="1.0" encoding="utf-8"?>
<!-- Generator: Adobe Illustrator 23.0.0, SVG Export Plug-In . SVG Version: 6.00 Build 0)  -->
<svg version="1.1" id="Layer_1" xmlns="http://www.w3.org/2000/svg" xmlns:xlink="http://www.w3.org/1999/xlink" x="0px" y="0px"
	 viewBox="0 0 48 48" style="enable-background:new 0 0 48 48;" xml:space="preserve">
<style type="text/css">
	.st0{clip-path:url(#SVGID_2_);fill:#F75049;}
</style>
<g>
	<defs>
		<path id="SVGID_1_" d="M66.2,14.1c-0.2-0.4-1.1-0.1-1.9-0.8c-0.7-0.6-0.5-1.1-1-1.4c-1.3-0.8-4.2,1.7-4.3,1.6
			c0-0.1,1.2-0.9,2.4-2.2c0.7-0.8,2.1-2.3,1.7-3.3c-0.2-0.6-0.9-0.6-1-1.1C62,6,63.7,5.4,63.6,4.4c0-0.5-0.5-1-1-1.1
			C61.5,2.9,60,4.1,60,4c0-0.1,0.9-0.6,1.4-1.6c0.1-0.2,0.6-1.1,0.2-1.5c-0.3-0.3-0.9-0.3-1.2-0.2c-0.4,0.1-0.6,0.3-0.8,0.2
			c-0.1-0.1,0-0.3-0.1-0.5c-0.1-0.6-1.1-0.9-1.9-1c-1.7-0.2-3.1,1.5-3.3,1.3c-0.2-0.2,1.6-1.8,1.2-2.9c-0.2-0.5-0.7-0.9-1.2-0.9
			c-0.8,0-1.3,1-1.6,0.9c-0.5-0.2,0.4-2.3-0.3-2.8c-0.4-0.3-1,0.3-1.9,0c-0.5-0.2-0.5-0.5-0.9-0.6c-1-0.4-2.5,1.4-4.3,3
			c-0.8,0.7-2,1.7-3.7,2.7c0.9-1.1,1.6-1.9,2.2-2.5c1.4-1.5,2.1-2.1,2.1-3.1c0-0.4-0.1-1.2-0.6-1.4c-0.6-0.2-1.3,0.6-3.5,2.1
			c-0.6,0.4-1.1,0.7-1.3,0.9c0.1-0.1,1-1.2,0.7-2.3c0-0.1-0.2-0.5-0.7-0.9c-1.4-1.1-3.7-0.6-4-0.5c-2.8,0.7-3.6,2.7-7.1,4.4
			c0,0-0.5,0.3-1.1,0.6c-1.3,0.7-2,1.1-2.3,1.3C25-1,24.4-0.6,24,0.3c-0.4,0.8-0.2,1.4-0.7,2c-0.4,0.5-1,0.6-1.2,0.6
			c-1.9,0.5-4.4,3.9-4.7,4.4C16.1,9,11.8,13.5,0.2,24C15.9,7.5,20.6,2.2,20.8,1.8c0,0,0,0,0,0c0.1-0.2,0.5-1.4,0.1-1.8
			c-0.3-0.2-0.8-0.1-1-0.5c0,0-0.1-0.2-0.1-0.5c0.1-0.7,1.4-0.8,1.4-1.1c0-0.1-0.2-0.2-0.6-0.3c-0.9-0.4-0.9-0.6-1.4-0.8
			C18.3-3.5,17.5-3,17-2.7c-0.7,0.4-1.1,0.8-1.3,0.7c-0.2-0.1,0.1-0.6-0.1-0.9c-0.2-0.3-0.8-0.3-1-0.3c-1.1,0.1-1.7,0.9-2.1,0.7
			c-0.2-0.1,0-0.5-0.3-1c-0.3-0.4-0.7-0.3-1.2-0.7c-0.6-0.5-0.3-0.9-1-1.8C9.9-6.2,9.5-6.8,8.8-7C8-7.3,7.8-6.9,7.1-7.2
			C6.2-7.5,6.2-8,5.4-8.1C4.9-8.2,4.5-8,4.1-7.8c-1,0.5-1,1-1.6,1c-0.6,0-0.7-0.6-1.7-0.8C0.5-7.7,0.1-7.8-0.1-7.6
			C-0.5-7.2,0-6.3-0.4-6c-0.2,0.2-0.6,0.2-0.9,0c-0.3-0.2-0.3-0.5-0.4-0.7c-0.7-0.7-3.8,0.2-4.7,2.1c-0.2,0.3-0.3,0.8-0.7,1
			c-0.5,0.3-1,0-1.5,0c-0.9,0-1.5,0.8-3.6,3.2c0,0-0.4,0.5-1.8,2.1C-17,5-17.6,5.4-17.6,6.4c-0.1,1.7,0.2,2.4,0.2,2.4
			c0.1,0.3,0.3,0.9,0.1,1.2c-0.2,0.2-0.4,0.1-0.6,0.3c-0.4,0.4,0.2,1.2,0.1,2.5c0,0,0,0-0.2,0.9c-0.3,1.8-0.4,2.1-0.1,2.4
			c0.2,0.2,0.5,0.2,0.8,0.2c0.6,0,1-0.3,1.2-0.4c1.3-1.5,2.5-3,3.8-4.5c-0.5,1.1-1,1.9-1.4,2.4c-0.6,0.8-1,1.3-1.6,2.4
			c-0.2,0.3-0.3,0.7-0.5,1.2c-0.3,0.8-0.6,1.7-0.2,2.5c0.2,0.3,0.4,0.5,0.5,1c0.1,0.6-0.2,0.9,0.1,1.3c0.2,0.3,0.3,0.2,0.5,0.4
			c0.4,0.5-0.1,1,0.1,1.9c0.1,0.5,0.3,0.4,0.4,0.9c0.2,0.9-0.2,1.2-0.1,2.3c0.1,0.5,0.1,0.7,0.3,0.9c0.5,0.4,1.2-0.2,1.9,0.2
			c0.6,0.3,0.4,1,1,1.2c0.4,0.1,0.6-0.2,1.3-0.1c0.1,0,1,0.1,1.1,0.5c0.1,0.3-0.3,0.9-0.8,1.2c-1.2,0.7-2.7-0.2-2.8,0.1
			c-0.1,0.2,0.4,0.7,0.7,1c3.3,3.1,3.3,3.3,4.4,3.9c1.1,0.6,0.9,0.3,2.2,1.1c1.7,1,3.5,2,3.6,3.3c0,0.8-0.5,0.9-0.5,1.9
			c0,0.7,0.3,1.8,1,2.1c0.7,0.3,1-0.4,2-0.3c1,0.1,1.1,0.8,2,0.8c1.2,0,1.7-1.4,2.7-1.2C6,44.6,6,45.1,6.7,45.4
			c0.7,0.2,1.3,0.1,1.8-0.1c3.5-3.5,8.8-9,15.2-15.8c5.4-5.7,6.8-7.3,9.8-10.2C42.2,11,51.4,4.6,51.8,5.1c0.3,0.3-3.9,4.2-18.1,17.7
			c-9.9,9.4-18,17.1-23.4,22.4c0,1.1,0.3,1.5,0.6,1.7c0.7,0.4,1.6-0.6,2.5,0c0.3,0.2,0.9,0.7,1.1,1.4c0.1,0.5,0,0.9,0.4,1.3
			c0.2,0.2,0.4,0.1,0.6,0.4c0.6,0.6,0.3,1.1,0.8,1.6c0.5,0.5,1.3,0.1,1.4,0.6c0.1,0.3-0.2,0.4-0.1,0.9c0.1,0.5,0.5,0.5,0.6,0.8
			c0.1,0.6-0.9,0.9-1.1,1.9c-0.2,0.7,0.3,0.8,0.2,1.6c-0.1,1.5-1.9,1.9-1.8,3.1c0,0.7,0.8,1.5,1.5,1.6c1.1,0.2,1.5-1.4,2.8-1.4
			c1.4,0,1.9,2,3.1,1.8c0.8-0.1,1-1.2,2-1.2c0.6,0,1,0.4,1.4,0.1c0.4-0.2,0.4-0.7,0.8-0.9c0.3-0.1,0.4,0.1,0.6,0.1
			c0.8,0.1,1.9-1.3,2.3-2.6c0.4-1.2,0-1.6,0.6-2.6c0.4-0.7,0.9-1.1,1.2-1.3c1.8-1.3,3.9-3.3,6-5.2c2.7-2.6,3-3.6,4.8-4.6
			c0.3-0.1,0.9-0.4,1.6-1c1-0.9,1.4-1.9,1.8-2.7c1.3-2.6,2.8-2.7,5.5-6.7c0.1-0.2,0.7-1.1,0.6-1.2c-0.3-0.3-3.9,3.8-4.7,3.2
			C47,35.4,47,35,47,34.8c0.2-1.9,2.7-2.6,6.3-5.6c0.9-0.8,0.6-0.6,1.6-1.5c2.7-2.4,5.7-4.3,6.5-5.8c0.5-0.9,0.8-1.9,0.8-1.9
			c0.1-0.3,0.1-0.4,0.2-0.6c0.3-0.9,0.8-1.2,2.2-2.8C66.2,14.8,66.4,14.4,66.2,14.1z M10.2,11.6c-1,1.3-2.1,2.2-3.1,2.9
			c0.5-0.9,1.4-2.1,2.6-3.1c0.5-0.4,1-0.8,1.4-1C10.9,10.7,10.6,11.1,10.2,11.6z M9.4,7.5c1.6-1.8,3.2-3.3,4.6-4.6
			c-1.1,1.5-2.5,3.2-4.2,4.8c-1,1.1-2.1,2-3.1,2.9C7.6,9.6,8.5,8.6,9.4,7.5z M-8.9,7.4C-8.6,6.8-8.2,6-7.5,5.3C-7.2,5-7,4.8-6.7,4.6
			C-6.9,4.9-7,5.2-7.2,5.5C-7.8,6.3-8.4,6.9-8.9,7.4z M-6.2,34.3c-0.3,0.4-0.7,0.6-0.9,0.6c0-0.1,0-0.6,0.3-1c0.4-0.5,0.9-0.6,1-0.6
			C-5.7,33.5-5.8,33.9-6.2,34.3z M-7.2,19c1.1-1.3,2.2-2.6,3.2-3.9c0,0.3,0.1,0.7,0.1,1C-5,17-6.1,18-7.2,19z M-1.5,38.8
			c-0.1,0.1-0.5-0.7-1.7-2c-0.3-0.3-0.6-0.6-0.5-0.9c0.1-0.3,0.4-0.4,0.7-0.6c0.4-0.2,0.9-0.7,1.4-1.5c0,0.6-0.2,1.1-0.3,1.4
			c-0.2,0.3-0.4,0.6-0.3,0.8c0.1,0.2,0.3,0.1,0.4,0.3c0.2,0.2,0,0.5,0,0.9C-1.9,38.2-1.4,38.8-1.5,38.8z M-1.8,1.5
			c0.3-0.6,0.7-1.4,1.4-2.1c0.3-0.3,0.5-0.5,0.8-0.7C0.3-1,0.1-0.7-0.1-0.4C-0.7,0.4-1.3,1-1.8,1.5z M7.5,23.3
			c3.5-4.4,7.6-9.2,12.6-14c3.6-3.5,7.1-6.5,10.5-9.2c-2.4,2.3-4.9,4.7-7.4,7.1C17.8,12.6,12.5,18,7.5,23.3z M23.8,9.3
			c2.7-2.7,5.4-4.9,7.8-6.7c-1.4,1.7-3,3.4-4.5,5.2c-3.8,4.1-7.5,7.8-11.2,11.2C17.8,16,20.4,12.7,23.8,9.3z M29.8,15.2
			c3.6-3.1,7.2-6,10.6-8.7c-2.3,2.3-4.8,4.7-7.4,7.1c-5.2,4.8-10.3,9-15.2,12.7C21.5,22.8,25.5,19,29.8,15.2z M35.4,15.7
			c-5.2,4.8-10.3,9-15.2,12.7c3.6-3.6,7.6-7.4,12-11.1c3.6-3.1,7.2-6,10.6-8.7C40.5,10.9,38,13.3,35.4,15.7z M54.5,10.6
			c-2.3,2.3-4.8,4.7-7.4,7.1c-5.2,4.8-10.3,9-15.2,12.7c3.6-3.6,7.6-7.4,12-11.1C47.5,16.1,51,13.2,54.5,10.6z M23.1,36.2
			c4.8-5.6,10.4-11.5,16.9-17.4c2.9-2.6,5.8-5.1,8.7-7.4c-3.2,3.2-6.3,6.4-9.5,9.6C33.8,26.1,28.4,31.1,23.1,36.2z M24.3,41.6
			c5.2-5.1,10.7-10.3,16.7-15.6c4.7-4.1,9.3-8,13.8-11.7c-3.7,3.5-7.4,7-11.3,10.6C37,30.7,30.6,36.3,24.3,41.6z M25.2,44.9
			c3.6-4.2,8.1-8.9,13.6-13.6c4.6-3.9,9-7.1,13.1-9.8c-3.6,3.2-7.2,6.3-10.8,9.5C35.8,35.7,30.5,40.3,25.2,44.9z M51.8,26.1
			c-4,3.7-7.9,7-11.8,10c0.7-0.6,1.4-1.3,2.1-1.9c2.6-2.4,5.1-4.8,7.4-7.1c-0.3,0.2-0.6,0.5-1,0.8c-0.2,0.2-0.4,0.3-0.6,0.5
			c-4.2,3.7-8.1,7.3-11.6,10.8c-3,2.5-6,4.9-8.8,7.1c3.6-3.6,7.6-7.4,12-11.1c3.3-2.8,6.5-5.5,9.7-7.9c3.4-3,6.8-5.7,10-8.2
			C56.9,21.3,54.4,23.7,51.8,26.1z"/>
	</defs>
	<clipPath id="SVGID_2_">
		<use xlink:href="#SVGID_1_"  style="overflow:visible;"/>
	</clipPath>
	<rect x="16" y="10" class="st0" width="6" height="28"/>
	<rect x="26" y="10" class="st0" width="6" height="28"/>
</g>
</svg>
