<?xml version="1.0" encoding="utf-8"?>
<!-- Generator: Adobe Illustrator 23.0.0, SVG Export Plug-In . SVG Version: 6.00 Build 0)  -->
<svg version="1.1" id="Layer_1" xmlns="http://www.w3.org/2000/svg" xmlns:xlink="http://www.w3.org/1999/xlink" x="0px" y="0px"
	 viewBox="0 0 256 256" style="enable-background:new 0 0 256 256;" xml:space="preserve">
<style type="text/css">
	.st0{opacity:0.8;fill:#0E0E17;enable-background:new    ;}
	.st1{fill:#0E0E17;}
	.st2{fill:none;stroke:#F75049;stroke-miterlimit:10;}
	.st3{fill:#F75049;}
</style>
<g>
	<g>
		<path class="st0" d="M218.1,40.1h-67.5c-6.8-6.3-13.6-12.7-20.4-19.1H37.7c-2.3,2.2-4.6,4.5-6.9,6.7v200.1l8,8h160.9
			c9-9.8,17.9-19.7,26.8-29.5V46.8C223.7,44.6,220.9,42.4,218.1,40.1z M218.3,168c-2.7,3.4-5.4,7-8.1,10.4V219
			c-2.6,2.6-5.3,5.1-7.9,7.7H48.9c-2.6-2.6-5.2-5.2-7.8-7.9v-40.4c-2.6-3.4-5.3-7-7.9-10.4V95.5c2.6-2.3,5.3-4.5,7.9-6.8V50.3
			c2.6-2.6,5.2-5.3,7.8-7.9h153.3c2.7,2.7,5.3,5.4,8,8.1v38.3c2.6,2.2,5.3,4.5,8,6.8L218.3,168L218.3,168z"/>
		<path class="st1" d="M218.1,40.1h-67.5c-6.8-6.3-13.6-12.7-20.4-19.1H37.7c-2.3,2.2-4.6,4.5-6.9,6.7v200.1l8,8h160.9
			c9-9.8,17.9-19.7,26.8-29.5V46.8C223.7,44.6,220.9,42.4,218.1,40.1z M218.3,168c-2.7,3.4-5.4,7-8.1,10.4V219
			c-2.6,2.6-5.3,5.1-7.9,7.7H48.9c-2.6-2.6-5.2-5.2-7.8-7.9v-40.4c-2.6-3.4-5.3-7-7.9-10.4V95.5c2.6-2.3,5.3-4.5,7.9-6.8V50.3
			c2.6-2.6,5.2-5.3,7.8-7.9h153.3c2.7,2.7,5.3,5.4,8,8.1v38.3c2.6,2.2,5.3,4.5,8,6.8L218.3,168L218.3,168z"/>
		<g>
			<path class="st1" d="M218.3,95.7V168c-2.7,3.4-5.4,7-8.1,10.4V219c-2.6,2.6-5.3,5.1-7.9,7.7H48.9c-2.6-2.6-5.2-5.2-7.8-7.9v-40.4
				c-2.6-3.4-5.3-7-7.9-10.4V95.5c2.6-2.3,5.3-4.5,7.9-6.8V50.3c2.6-2.6,5.2-5.3,7.8-7.9h153.3c2.7,2.7,5.3,5.4,8,8.1v38.3
				C212.9,91.1,215.6,93.4,218.3,95.7z"/>
		</g>
	</g>
	<path class="st2" d="M218.1,40.1h-67.5c-6.8-6.3-13.6-12.7-20.4-19.1H37.7c-2.3,2.2-4.6,4.5-6.9,6.7v200.1l8,8h160.9
		c9-9.8,17.9-19.7,26.8-29.5V46.8C223.7,44.6,220.9,42.4,218.1,40.1z M218.3,168c-2.7,3.4-5.4,7-8.1,10.4V219
		c-2.6,2.6-5.3,5.1-7.9,7.7H48.9c-2.6-2.6-5.2-5.2-7.8-7.9v-40.4c-2.6-3.4-5.3-7-7.9-10.4V95.5c2.6-2.3,5.3-4.5,7.9-6.8V50.3
		c2.6-2.6,5.2-5.3,7.8-7.9h153.3c2.7,2.7,5.3,5.4,8,8.1v38.3c2.6,2.2,5.3,4.5,8,6.8L218.3,168L218.3,168z"/>
</g>
<path class="st3" d="M174.5,144.6l-1.1,1.1c-8.6,7.5-16.1,15-23.6,21.5c1.1-1.1,2.1-1.1,3.2-2.1c3.2-2.1,5.4-5.4,8.6-7.5
	c5.4-4.3,9.7-9.7,15-14C175.6,144.6,174.5,144.6,174.5,144.6z M174.5,144.6l-1.1,1.1c-8.6,7.5-16.1,15-23.6,21.5
	c1.1-1.1,2.1-1.1,3.2-2.1c3.2-2.1,5.4-5.4,8.6-7.5c5.4-4.3,9.7-9.7,15-14C175.6,144.6,174.5,144.6,174.5,144.6z M174.5,144.6
	l-1.1,1.1c-8.6,7.5-16.1,15-23.6,21.5c1.1-1.1,2.1-1.1,3.2-2.1c3.2-2.1,5.4-5.4,8.6-7.5c5.4-4.3,9.7-9.7,15-14
	C175.6,144.6,174.5,144.6,174.5,144.6z M174.5,144.6l-1.1,1.1c-8.6,7.5-16.1,15-23.6,21.5c1.1-1.1,2.1-1.1,3.2-2.1
	c3.2-2.1,5.4-5.4,8.6-7.5c5.4-4.3,9.7-9.7,15-14C175.6,144.6,174.5,144.6,174.5,144.6z M174.5,144.6l-1.1,1.1
	c-8.6,7.5-16.1,15-23.6,21.5c1.1-1.1,2.1-1.1,3.2-2.1c3.2-2.1,5.4-5.4,8.6-7.5c5.4-4.3,9.7-9.7,15-14
	C175.6,144.6,174.5,144.6,174.5,144.6z M174.5,144.6l-1.1,1.1c-8.6,7.5-16.1,15-23.6,21.5c1.1-1.1,2.1-1.1,3.2-2.1
	c3.2-2.1,5.4-5.4,8.6-7.5c5.4-4.3,9.7-9.7,15-14C175.6,144.6,174.5,144.6,174.5,144.6z M174.5,144.6l-1.1,1.1
	c-8.6,7.5-16.1,15-23.6,21.5c1.1-1.1,2.1-1.1,3.2-2.1c3.2-2.1,5.4-5.4,8.6-7.5c5.4-4.3,9.7-9.7,15-14
	C175.6,144.6,174.5,144.6,174.5,144.6z M174.5,144.6l-1.1,1.1c-8.6,7.5-16.1,15-23.6,21.5c1.1-1.1,2.1-1.1,3.2-2.1
	c3.2-2.1,5.4-5.4,8.6-7.5c5.4-4.3,9.7-9.7,15-14C175.6,144.6,174.5,144.6,174.5,144.6z M174.5,144.6l-1.1,1.1
	c-8.6,7.5-16.1,15-23.6,21.5c1.1-1.1,2.1-1.1,3.2-2.1c3.2-2.1,5.4-5.4,8.6-7.5c5.4-4.3,9.7-9.7,15-14
	C175.6,144.6,174.5,144.6,174.5,144.6z M174.5,144.6l-1.1,1.1c-8.6,7.5-16.1,15-23.6,21.5c1.1-1.1,2.1-1.1,3.2-2.1
	c3.2-2.1,5.4-5.4,8.6-7.5c5.4-4.3,9.7-9.7,15-14C175.6,144.6,174.5,144.6,174.5,144.6z M207.9,119.9c0-1.1-2.1,0-4.3-1.1
	c-1.1-1.1-1.1-2.1-2.1-3.2c-2.1-1.1-8.6,3.2-8.6,3.2s2.1-2.1,4.3-4.3c2.1-2.1,5.4-5.4,4.3-7.5c0-1.1-2.1-1.1-2.1-2.1
	c0-2.1,3.2-3.2,3.2-5.4c0-1.1-1.1-2.1-2.1-2.1c-2.1-1.1-5.4,2.1-5.4,1.1c0,0,2.1-1.1,3.2-3.2c0,0,1.1-2.1,0-3.2
	c0-1.1-2.1-1.1-2.1-1.1c-1.1,0-1.1,1.1-1.1,0c0,0,0,0,0-1.1s-2.1-2.1-3.2-2.1c-3.2,0-6.4,3.2-6.4,3.2s3.2-3.2,2.1-5.4
	c0-1.1-1.1-2.1-2.1-2.1c-2.1,0-2.1,2.1-3.2,2.1s1.1-4.3-1.1-5.4c-1.1,0-2.1,1.1-3.2,0c-1.1,0-1.1-1.1-2.1-1.1
	c-2.1-1.1-5.4,3.2-8.6,6.4c-1.1,1.1-4.3,3.2-7.5,5.4c2.1-2.1,3.2-3.2,4.3-5.4c2.1-2.1,3.2-3.2,3.2-5.4c0-1.1,0-2.1-1.1-3.2
	c-1.1,0-2.1,1.1-6.4,4.3c-1.1,1.1-2.1,1.1-3.2,2.1c0,0,2.1-2.1,1.1-4.3c0,0,0-1.1-1.1-2.1c-3.2-2.1-7.5-1.1-7.5-1.1
	c-1.1,0-1.1,0-2.1,1.1l-12.9,18.3c1.1-1.1,2.1-2.1,4.3-3.2c-2.1,1.1-4.3,3.2-5.4,4.3l-12.9,18.3c1.1-1.1,2.1-3.2,4.3-4.3
	c5.4-5.4,10.7-9.7,15-12.9c-2.1,3.2-5.4,6.4-8.6,9.7c-2.1,2.1-4.3,4.3-5.4,5.4l21.5-7.5l-7.5,14c6.4-5.4,11.8-9.7,17.2-14
	c-4.3,4.3-8.6,8.6-14,14c-2.1,1.1-3.2,3.2-5.4,4.3l-4.3,9.7c2.1-2.1,5.4-4.3,7.5-7.5c7.5-6.4,14-11.8,20.4-17.2
	c-4.3,4.3-9.7,9.7-14,14c-5.4,4.3-10.7,9.7-15,14l6.4-2.1v2.1c2.1-2.1,4.3-4.3,6.4-6.4c17.2-16.1,35.5-29,35.5-27.9
	s-7.5,8.6-35.5,35.5l-1.1,1.1l-4.3,6.4c5.4-5.4,10.7-10.7,17.2-16.1c5.4-5.4,11.8-9.7,17.2-14c-6.4,5.4-12.9,11.8-19.3,18.3
	c-5.4,5.4-11.8,10.7-17.2,16.1l-9.7,22.6c9.7-9.7,20.4-19.3,31.2-29c8.6-7.5,17.2-15,26.9-22.6c-7.5,6.4-15,14-22.6,20.4
	c-11.8,10.7-23.6,21.5-35.5,31.2l-2.1,3.2l0,0l-1.1,5.4l2.1-20.4c-1.1,1.1-2.1,2.1-3.2,3.2c1.1-1.1,2.1-3.2,3.2-4.3l1.1-6.4
	c-11.8,11.8-22.6,21.5-30.1,29c0,2.1,0,3.2,1.1,3.2c1.1,1.1,3.2-1.1,5.4,0c1.1,0,2.1,1.1,2.1,3.2c0,1.1,0,2.1,1.1,2.1
	c0,0,1.1,0,1.1,1.1c1.1,1.1,1.1,2.1,2.1,3.2c1.1,1.1,2.1,0,3.2,1.1c0,0,0,1.1,0,2.1c0,1.1,1.1,1.1,1.1,1.1c0,1.1-2.1,2.1-2.1,4.3
	c0,1.1,0,1.1,0,3.2c0,3.2-3.2,3.2-3.2,6.4c0,1.1,1.1,3.2,3.2,3.2c2.1,0,3.2-3.2,5.4-3.2c3.2,0,4.3,4.3,6.4,3.2
	c2.1,0,2.1-2.1,4.3-2.1c1.1,0,2.1,1.1,3.2,0c1.1,0,1.1-1.1,2.1-2.1h1.1c2.1,0,3.2-2.1,4.3-5.4c1.1-2.1,0-3.2,1.1-5.4
	c1.1-1.1,2.1-2.1,2.1-2.1c3.2-2.1,7.5-6.4,11.8-10.7c5.4-5.4,5.4-7.5,9.7-8.6c1.1,0,2.1-1.1,3.2-2.1c2.1-2.1,3.2-4.3,3.2-5.4
	c3.2-5.4,5.4-5.4,10.7-12.9l1.1-2.1c-1.1,0-7.5,7.5-9.7,6.4c0,0,0-1.1,0-2.1c0-3.2,5.4-5.4,11.8-10.7c2.1-1.1,1.1-1.1,3.2-3.2
	c5.4-4.3,10.7-8.6,12.9-11.8c-1.1-2.1-1.1-4.3-1.1-4.3c0-1.1,0-1.1,0-1.1c1.1-2.1,1.1-2.1,4.3-5.4
	C207.9,120.9,207.9,119.9,207.9,119.9z M170.2,126.3c-10.7,9.7-20.4,18.3-30.1,24.7c7.5-7.5,15-14,23.6-21.5
	c7.5-6.4,14-11.8,21.5-17.2C179.9,116.7,175.6,122,170.2,126.3z M127.2,180.1c7.5-8.6,16.1-17.2,26.9-26.9
	c8.6-7.5,18.3-14,25.8-19.3c-7.5,6.4-14,12.9-21.5,18.3C147.7,161.8,136.9,171.5,127.2,180.1z M178.8,143.5
	c-9.7,8.6-18.3,16.1-26.9,22.6c-7.5,6.4-14,11.8-21.5,17.2c7.5-7.5,15-15,23.6-21.5c6.4-5.4,11.8-10.7,18.3-15
	c-8.6,7.5-16.1,15-23.6,21.5c1.1-1.1,2.1-1.1,3.2-2.1c3.2-2.1,5.4-5.4,8.6-7.5c5.4-4.3,9.7-9.7,15-14c6.4-5.4,11.8-9.7,18.3-15
	C189.6,133.8,184.2,138.1,178.8,143.5z M116.5,150v-2.1l0,0l2.1-8.6c-2.1,1.1-4.3,2.1-6.4,4.3c2.1-2.1,5.4-5.4,7.5-7.5l3.2-11.8
	l-12.9,3.2c0,0-1.1,1.1-2.1,1.1c0,0,1.1-1.1,1.1-2.1l-6.4,2.1l2.1-4.3c-4.3,4.3-8.6,9.7-12.9,14c4.3-5.4,8.6-10.7,14-16.1l7.5-18.3
	c-1.1,1.1-2.1,2.1-2.1,2.1c-2.1,3.2-10.7,11.8-33.3,33.3c21.5-22.6,32.2-34.4,37.6-39.8l0,0c0-1.1,1.1-2.1,2.1-3.2l0,0
	c0-1.1,1.1-1.1,1.1-1.1l0,0c0,0,1.1-3.2,0-3.2l0,0c0,0-1.1,0-1.1-1.1v-1.1c-1.1-2.1,1.1-2.1,1.1-2.1s-1.1,0-1.1-1.1
	c-2.1-1.1-2.1-1.1-3.2-1.1s-3.2,0-4.3,1.1c-1.1,0-2.1,1.1-2.1,1.1s0-1.1,0-2.1s-1.1,0-2.1,0c-2.1,0-3.2,2.1-4.3,1.1c0,0,0-1.1,0-2.1
	s-1.1,0-2.1-1.1c-1.1-1.1-1.1-1.1-2.1-3.2c0-1.1-1.1-2.1-2.1-2.1s-2.1,0-3.2,0c-2.1-1.1-2.1-2.1-4.3-2.1c-1.1,0-2.1,0-3.2,1.1
	c-1.1,0-1.1,1.1-2.1,1.1c-1.1,0-1.1-1.1-3.2-1.1c-1.1,0-1.1,0-2.1,0s0,2.1-1.1,3.2c0,0-1.1,0-2.1,0s0-1.1-1.1-1.1
	c0-2.1-6.4,0-7.5,3.2c0,1.1-1.1,1.1-1.1,2.1c-1.1,1.1-2.1,0-3.2,0c-2.1,0-3.2,1.1-7.5,6.4c0,0-1.1,1.1-3.2,4.3
	c-6.4,6.4-7.5,7.5-7.5,8.6c0,3.2,0,4.3,0,4.3c0,1.1,0,2.1,0,2.1s-1.1,0-1.1,1.1c-1.1,1.1,0,2.1,0,5.4c0,0,0,0,0,2.1
	c-1.1,3.2-1.1,4.3,0,4.3c0,0,1.1,0,2.1,0s2.1,0,2.1-1.1c2.1-2.1,4.3-5.4,7.5-7.5c-1.1,2.1-2.1,3.2-3.2,4.3s-2.1,3.2-3.2,4.3
	c0,1.1-1.1,1.1-1.1,2.1s-1.1,3.2,0,5.4c0,1.1,1.1,1.1,1.1,2.1s0,2.1,0,2.1s1.1,0,1.1,1.1c1.1,1.1,0,2.1,0,3.2c0,2.1,0,1.1,1.1,2.1
	c0,2.1,0,2.1,0,4.3s0,2.1,0,2.1c1.1,1.1,2.1,0,3.2,0c1.1,1.1,1.1,2.1,2.1,2.1s1.1,0,2.1,0c0,0,2.1,0,2.1,1.1c1.1,1.1,0,2.1-1.1,3.2
	c-2.1,1.1-5.4,0-5.4,0s1.1,1.1,1.1,2.1c6.4,5.4,6.4,6.4,8.6,7.5c2.1,1.1,2.1,1.1,4.3,2.1c3.2,2.1,6.4,4.3,7.5,6.4
	c0,1.1-1.1,2.1-1.1,4.3c0,1.1,1.1,3.2,2.1,4.3c1.1,0,2.1-1.1,4.3-1.1s2.1,1.1,4.3,2.1c2.1,0,3.2-3.2,5.4-2.1c1.1,0,1.1,1.1,2.1,2.1
	c1.1,0,2.1,0,3.2,0c6.4-8.6,17.2-19.3,30.1-32.2c2.1-2.1,3.2-3.2,4.3-4.3l0,0L116.5,150z M97.1,114.5c-2.1,2.1-4.3,4.3-6.4,5.4
	C91.8,117.7,93.9,115.6,97.1,114.5c0-1.1,1.1-2.1,2.1-2.1C98.2,112.4,98.2,113.4,97.1,114.5z M96.1,107c3.2-3.2,6.4-6.4,9.7-8.6
	C102.5,100.5,100.4,103.8,96.1,107c-1.1,2.1-3.2,4.3-5.4,5.4C91.8,110.2,93.9,109.1,96.1,107z M59.5,105.9c0-1.1,1.1-2.1,3.2-4.3
	c0-1.1,1.1-1.1,2.1-1.1c0,1.1-1.1,1.1-1.1,2.1C61.7,103.8,60.6,104.8,59.5,105.9z M64.9,159.6c-1.1,0-1.1,1.1-2.1,1.1
	C62.7,160.7,62.7,159.6,64.9,159.6c0-2.1,1.1-2.1,1.1-2.1S66,158.6,64.9,159.6z M62.7,128.5c2.1-2.1,4.3-5.4,6.4-7.5
	c0,1.1,0,1.1,0,2.1C67,125.2,64.9,127.4,62.7,128.5z M70.3,163.9c0,0-1.1-1.1,0-1.1c0-1.1,0-1.1,1.1-1.1s2.1-1.1,3.2-3.2
	c0,1.1,0,2.1-1.1,3.2c0,1.1-1.1,1.1-1.1,1.1s1.1,0,1.1,1.1c0,0,0,1.1,0,2.1c0,2.1,1.1,3.2,1.1,3.2C73.5,168.2,73.5,167.2,70.3,163.9
	z M73.5,94.1c0-1.1,1.1-3.2,3.2-4.3c0,0,1.1-1.1,2.1-1.1l-1.1,1.1C75.6,93,74.6,94.1,73.5,94.1z M174.5,144.6l-1.1,1.1
	c-8.6,7.5-16.1,15-23.6,21.5c1.1-1.1,2.1-1.1,3.2-2.1c3.2-2.1,5.4-5.4,8.6-7.5c5.4-4.3,9.7-9.7,15-14
	C175.6,144.6,174.5,144.6,174.5,144.6z M174.5,144.6l-1.1,1.1c-8.6,7.5-16.1,15-23.6,21.5c1.1-1.1,2.1-1.1,3.2-2.1
	c3.2-2.1,5.4-5.4,8.6-7.5c5.4-4.3,9.7-9.7,15-14C175.6,144.6,174.5,144.6,174.5,144.6z M174.5,144.6l-1.1,1.1
	c-8.6,7.5-16.1,15-23.6,21.5c1.1-1.1,2.1-1.1,3.2-2.1c3.2-2.1,5.4-5.4,8.6-7.5c5.4-4.3,9.7-9.7,15-14
	C175.6,144.6,174.5,144.6,174.5,144.6z M174.5,144.6l-1.1,1.1c-8.6,7.5-16.1,15-23.6,21.5c1.1-1.1,2.1-1.1,3.2-2.1
	c3.2-2.1,5.4-5.4,8.6-7.5c5.4-4.3,9.7-9.7,15-14C175.6,144.6,174.5,144.6,174.5,144.6z M174.5,144.6l-1.1,1.1
	c-8.6,7.5-16.1,15-23.6,21.5c1.1-1.1,2.1-1.1,3.2-2.1c3.2-2.1,5.4-5.4,8.6-7.5c5.4-4.3,9.7-9.7,15-14
	C175.6,144.6,174.5,144.6,174.5,144.6z M174.5,144.6l-1.1,1.1c-8.6,7.5-16.1,15-23.6,21.5c1.1-1.1,2.1-1.1,3.2-2.1
	c3.2-2.1,5.4-5.4,8.6-7.5c5.4-4.3,9.7-9.7,15-14C175.6,144.6,174.5,144.6,174.5,144.6z M174.5,144.6l-1.1,1.1
	c-8.6,7.5-16.1,15-23.6,21.5c1.1-1.1,2.1-1.1,3.2-2.1c3.2-2.1,5.4-5.4,8.6-7.5c5.4-4.3,9.7-9.7,15-14
	C175.6,144.6,174.5,144.6,174.5,144.6z M174.5,144.6l-1.1,1.1c-8.6,7.5-16.1,15-23.6,21.5c1.1-1.1,2.1-1.1,3.2-2.1
	c3.2-2.1,5.4-5.4,8.6-7.5c5.4-4.3,9.7-9.7,15-14C175.6,144.6,174.5,144.6,174.5,144.6z M174.5,144.6l-1.1,1.1
	c-8.6,7.5-16.1,15-23.6,21.5c1.1-1.1,2.1-1.1,3.2-2.1c3.2-2.1,5.4-5.4,8.6-7.5c5.4-4.3,9.7-9.7,15-14
	C175.6,144.6,174.5,144.6,174.5,144.6z M174.5,144.6l-1.1,1.1c-8.6,7.5-16.1,15-23.6,21.5c1.1-1.1,2.1-1.1,3.2-2.1
	c3.2-2.1,5.4-5.4,8.6-7.5c5.4-4.3,9.7-9.7,15-14C175.6,144.6,174.5,144.6,174.5,144.6z"/>
<path class="st3" d="M125.6,96.2c0,0-1.1,1.1-3.2,4.3l3.2-7.5l0,0C125.6,93,125.6,96.2,125.6,96.2L125.6,96.2z"/>
<path class="st3" d="M125.6,96.2C124.5,96.2,124.5,96.2,125.6,96.2V93V96.2L125.6,96.2z"/>
</svg>
