<?xml version="1.0" encoding="utf-8"?>
<!-- Generator: Adobe Illustrator 23.0.0, SVG Export Plug-In . SVG Version: 6.00 Build 0)  -->
<svg version="1.1" id="Layer_1" xmlns="http://www.w3.org/2000/svg" xmlns:xlink="http://www.w3.org/1999/xlink" x="0px" y="0px"
	 viewBox="0 0 256 256" style="enable-background:new 0 0 256 256;" xml:space="preserve">
<style type="text/css">
	.st0{opacity:0.8;fill:#0E0E17;}
	.st1{fill:#0E0E17;}
	.st2{fill:none;stroke:#F75049;stroke-miterlimit:10;}
	.st3{fill:#F75049;}
</style>
<g>
	<g>
		<path class="st0" d="M218.1,40.1h-67.5c-6.8-6.3-13.6-12.7-20.4-19.1H37.7c-2.3,2.2-4.6,4.5-6.9,6.7v200.1l8,8h160.9
			c9-9.8,17.9-19.7,26.8-29.5V46.8C223.7,44.6,220.9,42.4,218.1,40.1z M218.3,168c-2.7,3.4-5.4,7-8.1,10.4v40.6
			c-2.6,2.6-5.3,5.1-7.9,7.7H48.9c-2.6-2.6-5.2-5.2-7.8-7.9v-40.4c-2.6-3.4-5.3-7-7.9-10.4V95.5c2.6-2.3,5.3-4.5,7.9-6.8V50.3
			c2.6-2.6,5.2-5.3,7.8-7.9h153.3c2.7,2.7,5.3,5.4,8,8.1v38.3c2.6,2.2,5.3,4.5,8,6.8V168z"/>
		<path class="st1" d="M218.1,40.1h-67.5c-6.8-6.3-13.6-12.7-20.4-19.1H37.7c-2.3,2.2-4.6,4.5-6.9,6.7v200.1l8,8h160.9
			c9-9.8,17.9-19.7,26.8-29.5V46.8C223.7,44.6,220.9,42.4,218.1,40.1z M218.3,168c-2.7,3.4-5.4,7-8.1,10.4v40.6
			c-2.6,2.6-5.3,5.1-7.9,7.7H48.9c-2.6-2.6-5.2-5.2-7.8-7.9v-40.4c-2.6-3.4-5.3-7-7.9-10.4V95.5c2.6-2.3,5.3-4.5,7.9-6.8V50.3
			c2.6-2.6,5.2-5.3,7.8-7.9h153.3c2.7,2.7,5.3,5.4,8,8.1v38.3c2.6,2.2,5.3,4.5,8,6.8V168z"/>
		<g>
			<path class="st1" d="M218.3,95.7V168c-2.7,3.4-5.4,7-8.1,10.4v40.6c-2.6,2.6-5.3,5.1-7.9,7.7H48.9c-2.6-2.6-5.2-5.2-7.8-7.9
				v-40.4c-2.6-3.4-5.3-7-7.9-10.4V95.5c2.6-2.3,5.3-4.5,7.9-6.8V50.3c2.6-2.6,5.2-5.3,7.8-7.9h153.3c2.7,2.7,5.3,5.4,8,8.1v38.3
				C212.9,91.1,215.6,93.4,218.3,95.7z"/>
		</g>
	</g>
	<path class="st2" d="M218.1,40.1h-67.5c-6.8-6.3-13.6-12.7-20.4-19.1H37.7c-2.3,2.2-4.6,4.5-6.9,6.7v200.1l8,8h160.9
		c9-9.8,17.9-19.7,26.8-29.5V46.8C223.7,44.6,220.9,42.4,218.1,40.1z M218.3,168c-2.7,3.4-5.4,7-8.1,10.4v40.6
		c-2.6,2.6-5.3,5.1-7.9,7.7H48.9c-2.6-2.6-5.2-5.2-7.8-7.9v-40.4c-2.6-3.4-5.3-7-7.9-10.4V95.5c2.6-2.3,5.3-4.5,7.9-6.8V50.3
		c2.6-2.6,5.2-5.3,7.8-7.9h153.3c2.7,2.7,5.3,5.4,8,8.1v38.3c2.6,2.2,5.3,4.5,8,6.8V168z"/>
</g>
<g>
	<g>
		<path class="st3" d="M69,93l-3.3,3.3l0,0c-1.1,1.1-2.2,2.2-2.2,3.3c-1.1,1.1-1.1,2.2-1.1,3.3l1.1-1.1l14.2-13.1
			C73.4,89.7,71.2,90.8,69,93z M106.2,88.6l-3.3,3.3c1.1,0,1.1,0,2.2,0s2.2,0,2.2-1.1C107.3,89.7,106.2,88.6,106.2,88.6z M88.7,86.5
			l-5.5,5.5c3.3-1.1,7.7-1.1,13.1,0l3.3-4.4C95.3,86.5,92,86.5,88.7,86.5z M70.1,128l-2.2,2.2c0,0,1.1,0,2.2,0
			C70.1,129.1,71.2,129.1,70.1,128z M178.3,176.1l-6.6,5.5c3.3-1.1,6.6-2.2,8.7-3.3C179.4,178.3,178.3,177.2,178.3,176.1z
			 M181.6,175C181.6,175,182.7,175,181.6,175C182.7,175,182.7,175,181.6,175C182.7,175,182.7,175,181.6,175z M160.9,179.4
			L160.9,179.4l-2.2,2.2c1.1,1.1,3.3,1.1,4.4,2.2c2.2,0,4.4,0,6.6,0v-1.1l4.4-4.4C169.6,178.3,165.2,179.4,160.9,179.4z
			 M155.4,179.4l1.1,1.1l1.1-1.1C156.5,179.4,155.4,179.4,155.4,179.4z M86.5,146.6l-3.3,3.3c1.1,1.1,2.2,1.1,2.2,2.2l3.3-3.3
			C87.6,147.7,87.6,147.7,86.5,146.6z M80,140c0-1.1-1.1-1.1-2.2-1.1h-1.1v1.1c0,1.1,0,1.1,0,2.2c1.1,1.1,1.1,1.1,2.2,2.2l3.3-2.2
			C81.1,142.2,81.1,141.1,80,140z M109.5,164.1c-4.4-2.2-8.7-5.5-13.1-8.7c-2.2-2.2-4.4-3.3-6.6-5.5c-1.1,1.1-2.2,1.1-3.3,2.2
			c3.3,3.3,6.6,5.5,9.8,7.7c3.3,2.2,6.6,5.5,10.9,6.6L109.5,164.1L109.5,164.1z M134.6,175c-1.1,0-2.2-1.1-3.3-1.1
			c-6.6-2.2-13.1-5.5-19.7-8.7l-4.4,2.2c2.2,1.1,4.4,2.2,6.6,3.3c1.1,1.1,2.2,1.1,4.4,2.2c3.3,1.1,6.6,3.3,9.8,4.4
			c1.1,0,2.2,1.1,3.3,1.1c2.2,1.1,3.3,1.1,5.5,1.1l3.3-3.3C137.9,176.1,135.7,175,134.6,175z M145.5,178.3l-4.4,3.3
			c3.3,1.1,7.7,1.1,10.9,2.2h1.1C151,181.5,147.7,179.4,145.5,178.3z M64.7,109.4l-3.3,3.3c0,3.3,1.1,5.5,2.2,8.7l3.3-3.3
			C65.8,114.9,64.7,111.6,64.7,109.4z"/>
		<path class="st3" d="M190.4,106.1L190.4,106.1c0-3.3-1.1-5.5-2.2-6.6c0,0,0-1.1-1.1-1.1l-3.3,3.3c1.1,2.2,2.2,4.4,2.2,7.7v1.1
			c0,3.3-1.1,7.7-2.2,10.9l5.5-5.5C191.5,112.7,191.5,109.4,190.4,106.1z M179.4,130.2c-1.1,2.2-3.3,5.5-5.5,7.7
			c-1.1,1.1-1.1,2.2,0,3.3s2.2,0,3.3,0c5.5-6.6,9.8-13.1,10.9-18.6L179.4,130.2z M143.4,88.6c-1.1,0-3.3,1.1-4.4,1.1l-4.4,4.4
			l-2.2,2.2c4.4-1.1,7.7-3.3,12-3.3c1.1,0,2.2-1.1,1.1-2.2C145.5,89.7,144.5,88.6,143.4,88.6z"/>
		<path class="st3" d="M191.5,163l-3.3,3.3c2.2,1.1,3.3,3.3,3.3,4.4c0,3.3-2.2,5.5-5.5,5.5c-1.1,0-3.3,0-3.3-1.1
			c1.1,1.1,0,2.2,0,2.2s-1.1,1.1-2.2,1.1c1.1,1.1,3.3,2.2,5.5,2.2c5.5,0,9.8-4.4,9.8-9.8C195.8,167.3,194.7,165.1,191.5,163z
			 M180.5,172.8l-1.1,2.2c1.1,0,1.1,0,2.2,0C181.6,173.9,181.6,173.9,180.5,172.8z M186,160.8c-5.5,0-9.8,4.4-9.8,9.8
			c0,1.1,0,2.2,0,3.3l3.3-3.3c0-3.3,2.2-5.5,5.5-5.5l0,0l3.3-3.3C189.3,161.9,187.1,160.8,186,160.8z M154.3,171.7
			C154.3,171.7,153.2,171.7,154.3,171.7c0,1.1,0,2.2,1.1,3.3c1.1,0,2.2,0,2.2-1.1c1.1-2.2,1.1-3.3,1.1-5.5L154.3,171.7z M149.9,79.9
			l-3.3,3.3c3.3,5.5,5.5,12,7.7,18.6c1.1-1.1,2.2-3.3,3.3-4.4C155.4,90.8,153.2,85.4,149.9,79.9z M159.8,103.9
			c-1.1,1.1-1.1,1.1-2.2,2.2c-1.1,0-1.1,0-2.2,0c0,1.1,0,2.2,1.1,3.3l3.3-3.3C159.8,105,159.8,105,159.8,103.9z M160.9,108.3
			l-3.3,3.3c0,2.2,1.1,5.5,1.1,7.7l3.3-3.3C161.9,113.8,160.9,111.6,160.9,108.3z M163,131.3v-1.1c0-2.2,0-4.4,0-7.7l-4.4,4.4
			c0,2.2,0,5.5,0,7.7l0,0c0,4.4,0,7.7-1.1,12l5.5-4.4c0-2.2,0-4.4,0-7.7C163,134.5,163,132.4,163,131.3z M157.6,152
			c0,3.3-1.1,5.5-1.1,8.7l5.5-4.4c0-3.3,1.1-5.5,1.1-8.7L157.6,152z M149.9,187c-1.1-1.1-2.2,0-3.3,1.1c-1.1,1.1-1.1,2.2-2.2,2.2
			c1.1,0,2.2-1.1,3.3-1.1v1.1l0,0l-6.6,4.4c0,0,1.1-1.1,1.1-2.2c-5.5,6.6-10.9,9.8-17.5,9.8c-2.2,0-4.4,0-5.5-1.1l0,0
			c-7.7-2.2-15.3-12-19.7-26.2c0-1.1-1.1-2.2-2.2-1.1c-1.1,0-1.1,1.1-1.1,2.2c6.6,18.6,17.5,30.6,30.6,30.6c1.1,0,3.3,0,4.4-1.1
			c7.7-2.2,14.2-7.7,19.7-16.4C151,189.2,149.9,188.1,149.9,187z M142.3,71.2h-1.1H142.3 M142.3,76.6l-1.1-2.2"/>
		<path class="st3" d="M120.4,67.9l-2.2,2.2c1.1,2.2,2.2,3.3,4.4,3.3l2.2-3.3C122.6,70.1,121.5,69,120.4,67.9z M125.9,55.9
			c-5.5,0-9.8,4.4-9.8,9.8l0,0l12-9.8C128.1,55.9,127,55.9,125.9,55.9z M135.7,62.4c0-2.2-2.2-4.4-4.4-5.5l0,0l-3.3,3.3
			c2.2,1.1,3.3,3.3,3.3,5.5l0,0L135.7,62.4z M129.2,129.1c-2.2,3.3-5.5,5.5-9.8,7.7c3.3-3.3,6.6-7.7,6.6-7.7s0,0,1.1-1.1
			c-1.1,0-2.2,0-2.2,0c-2.2,1.1-3.3,2.2-4.4,3.3c0,1.1-1.1,1.1-1.1,2.2c0,1.1,0,2.2,0,3.3c0,1.1,1.1,2.2,2.2,3.3l10.9-8.7
			C131.3,130.2,130.2,129.1,129.2,129.1z M132.4,133.5v-1.1l-10.9,7.7c1.1,2.2,3.3,2.2,5.5,2.2C131.3,141.1,133.5,137.8,132.4,133.5
			z"/>
		<path class="st3" d="M65.8,118.2l-2.2,3.3"/>
		<path class="st3" d="M70.1,128l-2.2,2.2c0,0,1.1,0,2.2,0C70.1,129.1,71.2,129.1,70.1,128z M76.7,140
			C76.7,141.1,76.7,141.1,76.7,140L76.7,140C77.8,140,77.8,140,76.7,140z M120.4,67.9l-2.2,2.2c1.1,2.2,2.2,3.3,4.4,3.3l2.2-3.3
			C122.6,70.1,121.5,69,120.4,67.9z M135.7,62.4c0-2.2-2.2-4.4-4.4-5.5l0,0l-3.3,3.3c2.2,1.1,3.3,3.3,3.3,5.5l0,0L135.7,62.4z
			 M125.9,55.9c-5.5,0-9.8,4.4-9.8,9.8l0,0l12-9.8C128.1,55.9,127,55.9,125.9,55.9z M143.4,88.6c-1.1,0-3.3,1.1-4.4,1.1l-4.4,4.4
			l-2.2,2.2c4.4-1.1,7.7-3.3,12-3.3c1.1,0,2.2-1.1,1.1-2.2C145.5,89.7,144.5,88.6,143.4,88.6z M149.9,79.9l-3.3,3.3
			c3.3,5.5,5.5,12,7.7,18.6c1.1-1.1,2.2-3.3,3.3-4.4C155.4,90.8,153.2,85.4,149.9,79.9z"/>
		<path class="st3" d="M184.9,95.2l-2.2,3.3c-1.1-1.1-3.3-2.2-5.5-3.3c-4.4-2.2-9.8-3.3-16.4-3.3h-1.1c0,0-1.1-1.1-1.1-2.2
			c0-2.2,1.1-2.2,2.2-2.2c0,0,0,0,1.1,0c7.7,0,14.2,2.2,19.7,4.4C182.7,93,183.8,94.1,184.9,95.2z"/>
		<path class="st3" d="M142.3,76.6c1.1,2.2,3.3,3.3,4.4,5.5l3.3-2.2c-2.2-3.3-4.4-6.6-7.7-8.7h-1.1h1.1c-2.2-3.3-4.4-4.4-6.6-5.5
			l0,0v-1.1h-1.1l0,0l-3.3,2.2l0,0h-1.1l-1.1,3.3l-1.1,2.2l-3.3,2.2c1.1,0,1.1,0,1.1,0c3.3,0,6.6-2.2,8.7-5.5
			c2.2,2.2,4.4,3.3,6.6,5.5L142.3,76.6z"/>
		<path class="st3" d="M107.3,102.8c0,0-1.1,1.1-2.2,1.1c0,0,0,1.1,0,2.2s-2.2,1.1-2.2-1.1c-14.2,9.8-26.2,20.8-33.9,32.8
			c0,0,1.1-1.1,2.2-1.1c1.1,0,0,1.1,0,2.2c0,1.1-2.2,0-2.2-1.1l-1.1,1.1c0,0,0,0,1.1,0c0,0,0,0,0,1.1h-1.1l-1.1,1.1c0,0,0,0,0,1.1
			l0,0c-3.3,4.4-4.4,9.8-5.5,14.2c0,2.2-1.1,4.4,0,6.6c-3.3,1.1-5.5,4.4-5.5,8.7c0,5.5,4.4,9.8,9.8,9.8s9.8-4.4,9.8-9.8
			s-4.4-10.9-9.8-10.9l0,0c0-3.3,0-6.6,2.2-9.8c3.3-10.9,14.2-23,27.3-33.9c0,1.1-2.2,0-2.2-1.1c0,0,1.1-1.1,2.2-1.1s0,1.1,0,1.1
			c3.3-3.3,8.7-6.6,14.2-8.7c4.4-2.2,8.7-4.4,12-6.6l7.7-7.7C122.6,95.2,114.9,98.5,107.3,102.8z M65.8,165.1c3.3,0,5.5,2.2,5.5,5.5
			c0,3.3-2.2,5.5-5.5,5.5c-3.3,0-5.5-2.2-5.5-5.5c0-2.2,1.1-4.4,3.3-5.5C63.6,165.1,64.7,165.1,65.8,165.1z M74.5,134.5
			c0,1.1-2.2,1.1-2.2-2.2c0,0,1.1-2.2,2.2-1.1C75.6,132.4,74.5,133.5,74.5,134.5z M85.4,122.5L85.4,122.5
			C85.4,121.4,85.4,121.4,85.4,122.5C86.5,121.4,86.5,121.4,85.4,122.5z M97.5,112.7h-1.1C96.4,112.7,96.4,112.7,97.5,112.7
			L97.5,112.7z M101.8,109.4c0,1.1-2.2,0-2.2-1.1c0,0,1.1-1.1,2.2-1.1C102.9,108.3,101.8,109.4,101.8,109.4z"/>
		<path class="st3" d="M178.3,176.1l-6.6,5.5c3.3-1.1,6.6-2.2,8.7-3.3C179.4,178.3,178.3,177.2,178.3,176.1z M180.5,172.8l-1.1,2.2
			c1.1,0,1.1,0,2.2,0C181.6,173.9,181.6,173.9,180.5,172.8z M181.6,175C181.6,175,182.7,175,181.6,175
			C182.7,175,182.7,175,181.6,175C182.7,175,182.7,175,181.6,175z M191.5,163l-3.3,3.3c2.2,1.1,3.3,3.3,3.3,4.4
			c0,3.3-2.2,5.5-5.5,5.5c-1.1,0-3.3,0-3.3-1.1c1.1,1.1,0,2.2,0,2.2s-1.1,1.1-2.2,1.1c1.1,1.1,3.3,2.2,5.5,2.2
			c5.5,0,9.8-4.4,9.8-9.8C195.8,167.3,194.7,165.1,191.5,163z M186,160.8c-5.5,0-9.8,4.4-9.8,9.8c0,1.1,0,2.2,0,3.3l3.3-3.3
			c0-3.3,2.2-5.5,5.5-5.5l0,0l3.3-3.3C189.3,161.9,187.1,160.8,186,160.8z M160.9,179.4L160.9,179.4l-2.2,2.2
			c1.1,1.1,3.3,1.1,4.4,2.2c2.2,0,4.4,0,6.6,0v-1.1l4.4-4.4C169.6,178.3,165.2,179.4,160.9,179.4z M154.3,171.7
			C154.3,171.7,153.2,171.7,154.3,171.7c0,1.1,0,2.2,1.1,3.3c1.1,0,2.2,0,2.2-1.1c1.1-2.2,1.1-3.3,1.1-5.5L154.3,171.7z
			 M155.4,179.4l1.1,1.1l1.1-1.1C156.5,179.4,155.4,179.4,155.4,179.4z M179.4,130.2c-1.1,2.2-3.3,5.5-5.5,7.7
			c-1.1,1.1-1.1,2.2,0,3.3s2.2,0,3.3,0c5.5-6.6,9.8-13.1,10.9-18.6L179.4,130.2z M157.6,152c0,3.3-1.1,5.5-1.1,8.7l5.5-4.4
			c0-3.3,1.1-5.5,1.1-8.7L157.6,152z"/>
		<path class="st3" d="M159.8,103.9c-1.1,1.1-1.1,1.1-2.2,2.2c-1.1,0-1.1,0-2.2,0c0,1.1,0,2.2,1.1,3.3l3.3-3.3
			C159.8,105,159.8,105,159.8,103.9z M129.2,129.1c-2.2,3.3-5.5,5.5-9.8,7.7c3.3-3.3,6.6-7.7,6.6-7.7s0,0,1.1-1.1
			c-1.1,0-2.2,0-2.2,0c-2.2,1.1-3.3,2.2-4.4,3.3c0,0,0,1.1,0,2.2c0,0,0,0-1.1,0c0,1.1,0,2.2,0,3.3c0,1.1,1.1,2.2,2.2,3.3l10.9-8.7
			C131.3,130.2,130.2,129.1,129.2,129.1z M132.4,133.5v-1.1l-10.9,7.7c1.1,2.2,3.3,2.2,5.5,2.2C131.3,141.1,133.5,137.8,132.4,133.5
			z M160.9,108.3l-3.3,3.3c0,2.2,1.1,5.5,1.1,7.7l3.3-3.3C161.9,113.8,160.9,111.6,160.9,108.3z M163,131.3
			C163,131.3,161.9,132.4,163,131.3c-1.1,0-1.1-1.1-1.1-1.1s0,0,1.1,0c0-2.2,0-4.4,0-7.7l-4.4,4.4c0,2.2,0,5.5,0,7.7l0,0h1.1h-1.1
			l0,0l0,0c0,4.4,0,7.7-1.1,12l5.5-4.4c0-2.2,0-4.4,0-7.7C163,134.5,163,132.4,163,131.3z M190.4,106.1L190.4,106.1
			C189.3,106.1,189.3,106.1,190.4,106.1C190.4,105,190.4,105,190.4,106.1c0-3.3-1.1-5.5-2.2-6.6c0,0,0-1.1-1.1-1.1l-3.3,3.3
			c1.1,2.2,2.2,4.4,2.2,7.7c0,0,1.1,0,1.1,1.1c0,0,0,0-1.1,0c0,3.3-1.1,7.7-2.2,10.9l5.5-5.5C191.5,112.7,191.5,109.4,190.4,106.1z
			 M188.2,108.3C187.1,108.3,188.2,107.2,188.2,108.3c0-1.1,1.1-1.1,1.1,0C189.3,107.2,188.2,108.3,188.2,108.3z M145.5,178.3
			l-4.4,3.3c3.3,1.1,7.7,1.1,10.9,2.2h1.1C151,181.5,147.7,179.4,145.5,178.3z M149.9,187c-1.1-1.1-2.2,0-3.3,1.1
			c-1.1,1.1-1.1,2.2-2.2,2.2c1.1,0,2.2-1.1,3.3-1.1v1.1l0,0l-6.6,4.4c0,0,1.1-1.1,1.1-2.2c-5.5,6.6-10.9,9.8-17.5,9.8
			c-2.2,0-4.4,0-5.5-1.1c3.3,2.2,6.6,3.3,10.9,4.4c7.7-2.2,14.2-7.7,19.7-16.4C151,189.2,149.9,188.1,149.9,187z M134.6,175
			l-2.2,2.2l-1.1,1.1c2.2,1.1,3.3,1.1,5.5,1.1l3.3-3.3C137.9,176.1,135.7,175,134.6,175z M111.7,164.1l-4.4,2.2
			c2.2,1.1,4.4,2.2,6.6,3.3c0,0,2.2,0,3.3,0c1.1,0,1.1,1.1,1.1,2.2c3.3,1.1,6.6,3.3,9.8,4.4l1.1-1.1l2.2-1.1
			C124.8,171.7,118.2,168.4,111.7,164.1z M109.5,164.1c-4.4-2.2-8.7-5.5-13.1-8.7c0,1.1-1.1,3.3-1.1,4.4c3.3,2.2,6.6,5.5,10.9,6.6
			L109.5,164.1L109.5,164.1z"/>
	</g>
</g>
</svg>
