<?xml version="1.0" encoding="utf-8"?>
<!-- Generator: Adobe Illustrator 23.0.0, SVG Export Plug-In . SVG Version: 6.00 Build 0)  -->
<svg version="1.1" id="Layer_1" xmlns="http://www.w3.org/2000/svg" xmlns:xlink="http://www.w3.org/1999/xlink" x="0px" y="0px"
	 viewBox="0 0 256 256" style="enable-background:new 0 0 256 256;" xml:space="preserve">
<style type="text/css">
	.st0{opacity:0.8;fill:#0E0E17;}
	.st1{fill:#0E0E17;}
	.st2{fill:none;stroke:#F75049;stroke-miterlimit:10;}
	.st3{fill:#F75049;}
</style>
<g>
	<g>
		<path class="st0" d="M218.1,40.1h-67.5c-6.8-6.3-13.6-12.7-20.4-19.1H37.7c-2.3,2.2-4.6,4.5-6.9,6.7v200.1l8,8h160.9
			c9-9.8,17.9-19.7,26.8-29.5V46.8C223.7,44.6,220.9,42.4,218.1,40.1z M218.3,168c-2.7,3.4-5.4,7-8.1,10.4v40.6
			c-2.6,2.6-5.3,5.1-7.9,7.7H48.9c-2.6-2.6-5.2-5.2-7.8-7.9v-40.4c-2.6-3.4-5.3-7-7.9-10.4V95.5c2.6-2.3,5.3-4.5,7.9-6.8V50.3
			c2.6-2.6,5.2-5.3,7.8-7.9h153.3c2.7,2.7,5.3,5.4,8,8.1v38.3c2.6,2.2,5.3,4.5,8,6.8V168z"/>
		<path class="st1" d="M218.1,40.1h-67.5c-6.8-6.3-13.6-12.7-20.4-19.1H37.7c-2.3,2.2-4.6,4.5-6.9,6.7v200.1l8,8h160.9
			c9-9.8,17.9-19.7,26.8-29.5V46.8C223.7,44.6,220.9,42.4,218.1,40.1z M218.3,168c-2.7,3.4-5.4,7-8.1,10.4v40.6
			c-2.6,2.6-5.3,5.1-7.9,7.7H48.9c-2.6-2.6-5.2-5.2-7.8-7.9v-40.4c-2.6-3.4-5.3-7-7.9-10.4V95.5c2.6-2.3,5.3-4.5,7.9-6.8V50.3
			c2.6-2.6,5.2-5.3,7.8-7.9h153.3c2.7,2.7,5.3,5.4,8,8.1v38.3c2.6,2.2,5.3,4.5,8,6.8V168z"/>
		<g>
			<path class="st1" d="M218.3,95.7V168c-2.7,3.4-5.4,7-8.1,10.4v40.6c-2.6,2.6-5.3,5.1-7.9,7.7H48.9c-2.6-2.6-5.2-5.2-7.8-7.9
				v-40.4c-2.6-3.4-5.3-7-7.9-10.4V95.5c2.6-2.3,5.3-4.5,7.9-6.8V50.3c2.6-2.6,5.2-5.3,7.8-7.9h153.3c2.7,2.7,5.3,5.4,8,8.1v38.3
				C212.9,91.1,215.6,93.4,218.3,95.7z"/>
		</g>
	</g>
	<path class="st2" d="M218.1,40.1h-67.5c-6.8-6.3-13.6-12.7-20.4-19.1H37.7c-2.3,2.2-4.6,4.5-6.9,6.7v200.1l8,8h160.9
		c9-9.8,17.9-19.7,26.8-29.5V46.8C223.7,44.6,220.9,42.4,218.1,40.1z M218.3,168c-2.7,3.4-5.4,7-8.1,10.4v40.6
		c-2.6,2.6-5.3,5.1-7.9,7.7H48.9c-2.6-2.6-5.2-5.2-7.8-7.9v-40.4c-2.6-3.4-5.3-7-7.9-10.4V95.5c2.6-2.3,5.3-4.5,7.9-6.8V50.3
		c2.6-2.6,5.2-5.3,7.8-7.9h153.3c2.7,2.7,5.3,5.4,8,8.1v38.3c2.6,2.2,5.3,4.5,8,6.8V168z"/>
</g>
<g transform="translate(-592 -32)">
	<path class="st3" d="M683.1,232.6c-4.2,3.2-8.4,7.4-12.7,10.5h16.9c3.2-3.2,7.4-7.4,11.6-10.5H683.1z M655.7,232.6v4.2
		c1.1-1.1,3.2-3.2,4.2-4.2H655.7z M661,232.6c-2.1,1.1-3.2,3.2-5.3,4.2v6.3h12.7c3.2-3.2,6.3-7.4,9.5-10.5H661z M705.3,232.6
		c-4.2,3.2-8.4,7.4-12.7,10.5h89.6v-10.5H705.3z M689.5,137.7h8.4v-8.4C694.7,132.5,692.6,135.6,689.5,137.7z M722.2,218.9
		c-2.1,1.1-3.2,3.2-5.3,4.2l0,0c1.1,1.1,1.1,2.1,2.1,3.2c2.1-3.2,5.3-6.3,7.4-10.5c0,0,0-1.1,1.1-1.1
		C725.3,215.8,724.3,216.8,722.2,218.9z M689.5,137.7h8.4v-8.4C694.7,132.5,692.6,135.6,689.5,137.7z M689.5,137.7h8.4v-8.4
		C694.7,132.5,692.6,135.6,689.5,137.7z M689.5,137.7h8.4v-8.4C694.7,132.5,692.6,135.6,689.5,137.7z M740.1,107.1v10.5
		c3.2-3.2,7.4-6.3,10.5-9.5V96.6C747.5,100.8,744.3,104,740.1,107.1z M732.7,85c-4.2,3.2-8.4,7.4-13.7,10.5h16.9
		c4.2-4.2,8.4-7.4,12.7-10.5H732.7z M750.6,127.2v-13.7c-3.2,3.2-7.4,7.4-10.5,10.5v13.7C743.3,133.5,746.4,131.4,750.6,127.2
		C750.6,128.2,750.6,127.2,750.6,127.2L750.6,127.2z M775.9,127.2H758c-4.2,3.2-8.4,7.4-11.6,10.5h12.7c-1.1,2.1-2.1,4.2-3.2,6.3
		C763.3,138.8,769.6,132.5,775.9,127.2z M751.7,153.5c-4.2,7.4-8.4,15.8-14.8,24.3c7.4-6.3,14.8-11.6,22.1-16.9
		c7.4-12.7,11.6-23.2,14.8-28.5L751.7,153.5z M689.5,137.7h8.4v-8.4C694.7,132.5,692.6,135.6,689.5,137.7z M689.5,137.7h8.4v-8.4
		C694.7,132.5,692.6,135.6,689.5,137.7z M689.5,137.7h8.4v-8.4C694.7,132.5,692.6,135.6,689.5,137.7z M689.5,137.7h8.4v-8.4
		C694.7,132.5,692.6,135.6,689.5,137.7z M669.4,144.1c1.1,3.2,3.2,5.3,5.3,9.5c3.2-3.2,5.3-5.3,7.4-8.4c-1.1-3.2-3.2-5.3-4.2-7.4h19
		v-17.9C688.4,128.2,678.9,136.7,669.4,144.1z M688.4,156.7c-3.2,2.1-5.3,5.3-8.4,7.4c1.1,2.1,2.1,4.2,4.2,7.4
		c2.1-3.2,5.3-5.3,7.4-8.4C690.5,160.9,689.5,158.8,688.4,156.7z M661,127.2c0,0,0,1.1,1.1,3.2s3.2,5.3,5.3,9.5
		c5.3-4.2,9.5-8.4,14.8-13.7H661V127.2z M700,176.7c-3.2,2.1-5.3,4.2-8.4,6.3c2.1,4.2,5.3,8.4,7.4,12.7c3.2-3.2,5.3-5.3,8.4-7.4
		C704.2,184.1,702.1,179.9,700,176.7z M694.7,167.3c-3.2,2.1-5.3,5.3-8.4,7.4c1.1,2.1,3.2,5.3,4.2,7.4c3.2-3.2,5.3-5.3,8.4-7.4
		C697.9,172.5,695.8,170.4,694.7,167.3z M687.4,85v17.9c7.4-6.3,14.8-12.7,21.1-17.9H687.4z M708.5,191.5c-3.2,2.1-5.3,5.3-8.4,7.4
		c1.1,2.1,3.2,5.3,4.2,7.4c3.2-2.1,5.3-5.3,8.4-7.4C711.6,195.7,710.6,193.6,708.5,191.5z M736.9,186.2c-3.2,3.2-6.3,6.3-10.5,9.5
		l0,0c-2.1,3.2-5.3,7.4-7.4,11.6c-1.1-1.1-1.1-2.1-2.1-3.2c-3.2,2.1-5.3,5.3-8.4,7.4c2.1,3.2,3.2,5.3,5.3,8.4
		c4.2-4.2,9.5-8.4,14.8-12.7c3.2-2.1,5.3-4.2,8.4-6.3l0,0c6.3-9.5,11.6-19,16.9-27.4C747.5,176.7,742.2,182,736.9,186.2z"/>
</g>
<path class="st3" d="M116.5,159.5c-3.2,2.1-5.3,5.3-8.4,7.4c1.1,2.1,3.2,5.3,4.2,7.4c4.2-3.2,6.3-5.3,9.5-8.4
	C119.6,163.7,118.6,161.6,116.5,159.5z M63.7,200.6v4.2c1.1-1.1,3.2-3.2,4.2-4.2H63.7z M96.4,124.7c-3.2,2.1-5.3,5.3-8.4,7.4
	c1.1,2.1,2.1,4.2,4.2,7.4c3.2-3.2,5.3-5.3,8.4-8.4C98.5,128.9,97.5,126.8,96.4,124.7z M148.1,75.1v10.5c3.2-3.2,7.4-6.3,10.5-9.5
	V65.7C155.5,68.8,152.3,72,148.1,75.1z M108,144.7c-3.2,2.1-5.3,4.2-8.4,6.3c2.1,4.2,5.3,8.4,7.4,12.7c3.2-3.2,5.3-5.3,8.4-7.4
	C112.2,152.1,110.1,147.9,108,144.7z M183.9,95.2H166c-4.2,3.2-8.4,7.4-11.6,10.5h12.7c-1.1,2.1-2.1,4.2-3.2,6.3
	C171.3,106.8,177.6,100.5,183.9,95.2z M116.5,159.5c-3.2,2.1-5.3,5.3-8.4,7.4c1.1,2.1,3.2,5.3,4.2,7.4c4.2-3.2,6.3-5.3,9.5-8.4
	C119.6,163.7,118.6,161.6,116.5,159.5z M144.9,154.2c-3.2,3.2-6.3,6.3-10.5,9.5l0,0c-2.1,3.2-5.3,7.4-7.4,11.6
	c-1.1-1.1-1.1-2.1-2.1-3.2c-3.2,2.1-5.3,5.3-8.4,7.4c2.1,3.2,3.2,5.3,5.3,8.4c4.2-4.2,9.5-8.4,14.8-12.7c3.2-2.1,5.3-4.2,8.4-6.3
	l0,0c6.3-9.5,11.6-19,16.9-27.4C155.5,144.7,150.2,150,144.9,154.2z M116.5,159.5c-3.2,2.1-5.3,5.3-8.4,7.4c1.1,2.1,3.2,5.3,4.2,7.4
	c4.2-3.2,6.3-5.3,9.5-8.4C119.6,163.7,118.6,161.6,116.5,159.5z M91.1,200.6c-4.2,3.2-8.4,7.4-12.7,10.5h16.9
	c3.2-3.2,7.4-7.4,11.6-10.5H91.1z M116.5,159.5c-3.2,2.1-5.3,5.3-8.4,7.4c1.1,2.1,3.2,5.3,4.2,7.4c4.2-3.2,6.3-5.3,9.5-8.4
	C119.6,163.7,118.6,161.6,116.5,159.5z M102.7,135.3c-3.2,3.2-5.3,5.3-8.4,7.4c1.1,2.1,3.2,5.3,4.2,7.4c3.2-2.1,6.3-4.2,8.4-7.4
	C105.9,140.5,103.8,138.4,102.7,135.3z M158.6,95.2V81.5c-3.2,3.2-7.4,7.4-10.5,10.5v13.7C151.3,101.5,154.4,99.4,158.6,95.2
	C158.6,96.2,158.6,95.2,158.6,95.2L158.6,95.2z M116.5,159.5c-3.2,2.1-5.3,5.3-8.4,7.4c1.1,2.1,3.2,5.3,4.2,7.4
	c4.2-3.2,6.3-5.3,9.5-8.4C119.6,163.7,118.6,161.6,116.5,159.5z M69,200.6c-2.1,1.1-3.2,3.2-5.3,4.2v6.3h12.7
	c3.2-3.2,6.3-7.4,9.5-10.5H69z M113.3,200.6c-4.2,3.2-8.4,7.4-12.7,10.5h61.2c3.2-3.2,4.2-7.4,6.3-10.5H113.3z M77.4,112.1
	c1.1,3.2,3.2,5.3,5.3,9.5c3.2-3.2,5.3-5.3,7.4-8.4c-1.1-2.1-2.1-5.3-3.2-7.4h11.6c2.1-2.1,4.2-5.3,7.4-7.4V87.8
	C96.4,96.2,86.9,104.7,77.4,112.1z M143.9,53c-3.2,3.2-7.4,7.4-10.5,10.5h11.6c4.2-4.2,8.4-7.4,12.7-10.5H143.9z M130.2,186.9
	c-2.1,1.1-3.2,3.2-5.3,4.2c1.1,1.1,1.1,2.1,2.1,3.2c2.1-3.2,5.3-6.3,7.4-10.5C132.3,184.8,131.2,185.9,130.2,186.9z M95.4,53v17.9
	c7.4-6.3,14.8-12.7,21.1-17.9H95.4z M75.3,95.2c-2.1,1.1-3.2,2.1-4.2,3.2c1.1,2.1,3.2,5.3,5.3,9.5c4.2-4.2,8.4-8.4,13.7-12.7H75.3z
	 M104.9,68.8c-3.2,3.2-6.3,5.3-9.5,8.4V91c2.1-1.1,3.2-3.2,5.3-4.2c2.1-2.1,3.2-3.2,5.3-5.3L104.9,68.8
	C105.9,67.8,104.9,68.8,104.9,68.8z M159.7,121.5c-4.2,7.4-8.4,15.8-14.8,24.3c7.4-6.3,14.8-11.6,22.1-16.9
	c7.4-12.7,12.7-23.2,15.8-28.5L159.7,121.5z"/>
</svg>
