<?xml version="1.0" encoding="utf-8"?>
<!-- Generator: Adobe Illustrator 23.0.0, SVG Export Plug-In . SVG Version: 6.00 Build 0)  -->
<svg version="1.1" id="Layer_1" xmlns="http://www.w3.org/2000/svg" xmlns:xlink="http://www.w3.org/1999/xlink" x="0px" y="0px"
	 viewBox="0 0 256 256" style="enable-background:new 0 0 256 256;" xml:space="preserve">
<style type="text/css">
	.st0{opacity:0.8;fill:#0E0E17;}
	.st1{fill:#0E0E17;}
	.st2{fill:none;stroke:#F75049;stroke-miterlimit:10;}
	.st3{fill-rule:evenodd;clip-rule:evenodd;fill:#F75049;}
</style>
<g>
	<g>
		<path class="st0" d="M218.1,40.1h-67.5c-6.8-6.3-13.6-12.7-20.4-19.1H37.7c-2.3,2.2-4.6,4.5-6.9,6.7v200.1l8,8h160.9
			c9-9.8,17.9-19.7,26.8-29.5V46.8C223.7,44.6,220.9,42.4,218.1,40.1z M218.3,168c-2.7,3.4-5.4,7-8.1,10.4v40.6
			c-2.6,2.6-5.3,5.1-7.9,7.7H48.9c-2.6-2.6-5.2-5.2-7.8-7.9v-40.4c-2.6-3.4-5.3-7-7.9-10.4V95.5c2.6-2.3,5.3-4.5,7.9-6.8V50.3
			c2.6-2.6,5.2-5.3,7.8-7.9h153.3c2.7,2.7,5.3,5.4,8,8.1v38.3c2.6,2.2,5.3,4.5,8,6.8V168z"/>
		<path class="st1" d="M218.1,40.1h-67.5c-6.8-6.3-13.6-12.7-20.4-19.1H37.7c-2.3,2.2-4.6,4.5-6.9,6.7v200.1l8,8h160.9
			c9-9.8,17.9-19.7,26.8-29.5V46.8C223.7,44.6,220.9,42.4,218.1,40.1z M218.3,168c-2.7,3.4-5.4,7-8.1,10.4v40.6
			c-2.6,2.6-5.3,5.1-7.9,7.7H48.9c-2.6-2.6-5.2-5.2-7.8-7.9v-40.4c-2.6-3.4-5.3-7-7.9-10.4V95.5c2.6-2.3,5.3-4.5,7.9-6.8V50.3
			c2.6-2.6,5.2-5.3,7.8-7.9h153.3c2.7,2.7,5.3,5.4,8,8.1v38.3c2.6,2.2,5.3,4.5,8,6.8V168z"/>
		<g>
			<path class="st1" d="M218.3,95.7V168c-2.7,3.4-5.4,7-8.1,10.4v40.6c-2.6,2.6-5.3,5.1-7.9,7.7H48.9c-2.6-2.6-5.2-5.2-7.8-7.9
				v-40.4c-2.6-3.4-5.3-7-7.9-10.4V95.5c2.6-2.3,5.3-4.5,7.9-6.8V50.3c2.6-2.6,5.2-5.3,7.8-7.9h153.3c2.7,2.7,5.3,5.4,8,8.1v38.3
				C212.9,91.1,215.6,93.4,218.3,95.7z"/>
		</g>
	</g>
	<path class="st2" d="M218.1,40.1h-67.5c-6.8-6.3-13.6-12.7-20.4-19.1H37.7c-2.3,2.2-4.6,4.5-6.9,6.7v200.1l8,8h160.9
		c9-9.8,17.9-19.7,26.8-29.5V46.8C223.7,44.6,220.9,42.4,218.1,40.1z M218.3,168c-2.7,3.4-5.4,7-8.1,10.4v40.6
		c-2.6,2.6-5.3,5.1-7.9,7.7H48.9c-2.6-2.6-5.2-5.2-7.8-7.9v-40.4c-2.6-3.4-5.3-7-7.9-10.4V95.5c2.6-2.3,5.3-4.5,7.9-6.8V50.3
		c2.6-2.6,5.2-5.3,7.8-7.9h153.3c2.7,2.7,5.3,5.4,8,8.1v38.3c2.6,2.2,5.3,4.5,8,6.8V168z"/>
</g>
<path class="st3" d="M186.6,190.5l1.8,9.9h11.7v-9.9H186.6z M183,182.4l-3.6,3.6c0,0-4.5,4.5-7.2,8.1c4.5-3.6,9-6.3,11.7-9.9
	L183,182.4z M148.7,190.5v3.6l4.5-3.6H148.7z M174.9,160.7l-2.7-6.3l-6.3,6.3l-9.9,7.2l2.7,7.2l2.7,8.1l12.6-10.8l4.5-2.7
	L174.9,160.7z M111.8,149l-10.8,9.9h4.5l5.4-4.5l6.3-6.3h-5.4V149z M100.9,103.9v0.9l0,0l-14.4,36.1l12.6-1.8l8.1-18.9v-0.9
	L100.9,103.9z M167.7,141.8l-4.5-11.7l0,0l-0.9-1.8l-4.5-12.6L156,112l-0.9-1.8v-0.9l-3.6,2.7c-1.8,0-3.6-0.9-5.4-0.9
	c-0.9,0-1.8-0.9-2.7-0.9s-1.8-0.9-3.6-0.9l8.1-19.8l0,0l-2.7-4.5l-8.1,1.8l0.9-0.9h-1.8l7.2-6.3l-0.9-2.7l0,0l0,0l-16.2,14.4l0,0
	l0.9,2.7l9-7.2l-6.3,13.5l6.3,16.2l1.8-0.9l1.8-3.6c1.8,0,2.7,0,4.5,0.9c1.8,0.9,3.6,1.8,5.4,2.7l-10.8,9l0.9,1.8l0,0l11.7-10.8
	c2.7,1.8,5.4,3.6,7.2,6.3l-15.3,12.6l0,0l2.7,8.1v0.9l15.3-14.4c0.9,0.9,0.9,2.7,1.8,3.6v0.9l-0.9,0.9l-13.5,13.5l0,0h-0.9L137,158
	h5.4l12.6-10.8l8.1-7.2c0,3.6-1.8,7.2-3.6,9.9c-0.9,0.9-0.9,1.8-1.8,2.7c-0.9,1.8-2.7,2.7-2.7,3.6c0.9,0,0.9,0,1.8-0.9
	c0,0,0.9,0,1.8-0.9c0.9-0.9,2.7-2.7,2.7-3.6c0,0,0.9-0.9,0.9-1.8c1.8-1.8,2.7-3.6,5.4-5.4l0,0L167.7,141.8z M126.2,57.9l-11.7,10.8
	l-1.8,6.3l0,0l-0.9,0.9l18.9-18C130.7,57.9,126.2,57.9,126.2,57.9z M119,57.9l-3.6,9.9l9.9-9.9C125.3,57.9,119,57.9,119,57.9z
	 M139.7,70.5l-3.6-9l-28.9,27.1l-5.4,13.5l0,0c0.9,0.9,1.8,0.9,2.7,1.8c1.8,0.9,3.6,2.7,5.4,2.7l-1.8,2.7v3.6l2.7-2.7l0.9-1.8
	l1.8-4.5l-0.9,0.9c-2.7-2.7-5.4-4.5-7.2-7.2l14.4-10.8v-0.9l0,0l1.8-5.4l1.8,3.6l0,0l10.8-8.1L139.7,70.5L139.7,70.5z M126.2,149
	l-9.9,9.9h13.5l10.8-9.9H126.2z M91.9,158.9h0.9l-0.9-1.8l9-9h-3.6l-7.2,7.2l-6.3-6.3l-15.3,40.6H55.8v9.9h39.7v-9.9H80.2
	L91.9,158.9z M156.9,156.2c-1.8-0.9-2.7,1.8-2.7,1.8c0,2.7,2.7,3.6,2.7,1.8S157.8,157.1,156.9,156.2z M153.3,161.6L153.3,161.6
	L153.3,161.6C153.3,162.5,154.2,161.6,153.3,161.6z M178.5,171.5L162.3,186l1.8,4.5h-7.2l-8.1,7.2v2.7h0.9c0-0.9,0.9-0.9,1.8-1.8
	c4.5,0,9-0.9,12.6-1.8l18.9-18L178.5,171.5z"/>
</svg>
