<?xml version="1.0" encoding="utf-8"?>
<!-- Generator: Adobe Illustrator 23.0.0, SVG Export Plug-In . SVG Version: 6.00 Build 0)  -->
<svg version="1.1" id="Layer_1" xmlns="http://www.w3.org/2000/svg" xmlns:xlink="http://www.w3.org/1999/xlink" x="0px" y="0px"
	 viewBox="0 0 256 256" style="enable-background:new 0 0 256 256;" xml:space="preserve">
<style type="text/css">
	.st0{opacity:0.8;fill:#0E0E17;}
	.st1{fill:#0E0E17;}
	.st2{fill:none;stroke:#F75049;stroke-miterlimit:10;}
	.st3{fill:#F75049;}
</style>
<g>
	<g>
		<path class="st0" d="M218.1,40.1h-67.5c-6.8-6.3-13.6-12.7-20.4-19.1H37.7c-2.3,2.2-4.6,4.5-6.9,6.7v200.1l8,8h160.9
			c9-9.8,17.9-19.7,26.8-29.5V46.8C223.7,44.6,220.9,42.4,218.1,40.1z M218.3,168c-2.7,3.4-5.4,7-8.1,10.4v40.6
			c-2.6,2.6-5.3,5.1-7.9,7.7H48.9c-2.6-2.6-5.2-5.2-7.8-7.9v-40.4c-2.6-3.4-5.3-7-7.9-10.4V95.5c2.6-2.3,5.3-4.5,7.9-6.8V50.3
			c2.6-2.6,5.2-5.3,7.8-7.9h153.3c2.7,2.7,5.3,5.4,8,8.1v38.3c2.6,2.2,5.3,4.5,8,6.8V168z"/>
		<path class="st1" d="M218.1,40.1h-67.5c-6.8-6.3-13.6-12.7-20.4-19.1H37.7c-2.3,2.2-4.6,4.5-6.9,6.7v200.1l8,8h160.9
			c9-9.8,17.9-19.7,26.8-29.5V46.8C223.7,44.6,220.9,42.4,218.1,40.1z M218.3,168c-2.7,3.4-5.4,7-8.1,10.4v40.6
			c-2.6,2.6-5.3,5.1-7.9,7.7H48.9c-2.6-2.6-5.2-5.2-7.8-7.9v-40.4c-2.6-3.4-5.3-7-7.9-10.4V95.5c2.6-2.3,5.3-4.5,7.9-6.8V50.3
			c2.6-2.6,5.2-5.3,7.8-7.9h153.3c2.7,2.7,5.3,5.4,8,8.1v38.3c2.6,2.2,5.3,4.5,8,6.8V168z"/>
		<g>
			<path class="st1" d="M218.3,95.7V168c-2.7,3.4-5.4,7-8.1,10.4v40.6c-2.6,2.6-5.3,5.1-7.9,7.7H48.9c-2.6-2.6-5.2-5.2-7.8-7.9
				v-40.4c-2.6-3.4-5.3-7-7.9-10.4V95.5c2.6-2.3,5.3-4.5,7.9-6.8V50.3c2.6-2.6,5.2-5.3,7.8-7.9h153.3c2.7,2.7,5.3,5.4,8,8.1v38.3
				C212.9,91.1,215.6,93.4,218.3,95.7z"/>
		</g>
	</g>
	<path class="st2" d="M218.1,40.1h-67.5c-6.8-6.3-13.6-12.7-20.4-19.1H37.7c-2.3,2.2-4.6,4.5-6.9,6.7v200.1l8,8h160.9
		c9-9.8,17.9-19.7,26.8-29.5V46.8C223.7,44.6,220.9,42.4,218.1,40.1z M218.3,168c-2.7,3.4-5.4,7-8.1,10.4v40.6
		c-2.6,2.6-5.3,5.1-7.9,7.7H48.9c-2.6-2.6-5.2-5.2-7.8-7.9v-40.4c-2.6-3.4-5.3-7-7.9-10.4V95.5c2.6-2.3,5.3-4.5,7.9-6.8V50.3
		c2.6-2.6,5.2-5.3,7.8-7.9h153.3c2.7,2.7,5.3,5.4,8,8.1v38.3c2.6,2.2,5.3,4.5,8,6.8V168z"/>
</g>
<g transform="translate(-592,-52)">
	<path class="st3" d="M658.3,131.9c-3.6,1.8-6.3,5.4-7.2,9c-1.8,3.6-1.8,9-1.8,14.4v3.6c2.7-2.7,6.3-5.4,9-9c0-0.9,0-2.7,0-3.6
		c0-7.2,1.8-9,7.2-9h2.7c0.9,0,2.7,0,3.6,0c3.6-2.7,7.2-6.3,10.8-9C671.8,128.3,664.6,128.3,658.3,131.9z M674.5,206.6
		c0,0.9-0.9,0.9-1.8,1.8c-3.6,3.6-7.2,7.2-10.8,9.9c0.9,0,1.8,0,2.7,0h2.7c6.3,0,7.2,1.8,7.2,9s-1.8,9-7.2,9h-2.7
		c-6.3,0-7.2-1.8-7.2-9c0-1.8,0-3.6,0.9-5.4c0-0.9,0.9-1.8,0.9-1.8c2.7-3.6,6.3-7.2,9.9-10.8h-3.6c-4.5,0-6.3-0.9-7.2-3.6
		c-3.6,2.7-6.3,6.3-9.9,9v3.6c0,6.3,0.9,10.8,1.8,14.4c1.8,3.6,4.5,7.2,7.2,9c2.7,1.8,6.3,2.7,9.9,2.7c5.4-5.4,10.8-10.8,16.2-16.2
		v-31.5C680.8,200.3,678.1,203.9,674.5,206.6z M672.7,192.2c2.7,0.9,2.7,3.6,2.7,8.1c0,0,0,0.9,0,1.8c2.7-3.6,6.3-6.3,9-9.9v-11.7
		C679.9,184.1,676.3,188.6,672.7,192.2z M670,164.3c4.5,0,5.4,2.7,5.4,9l0,0c3.6-3.6,6.3-6.3,9-9.9v-11.7
		C679.9,156.2,674.5,160.7,670,164.3z M664.6,182.3c-5.4,0-7.2-1.8-7.2-8.1c-2.7,2.7-6.3,4.5-9,7.2v20.7c2.7-2.7,4.5-5.4,7.2-8.1
		c4.5-4.5,8.1-8.1,11.7-11.7C667.3,182.3,664.6,182.3,664.6,182.3z M701.5,236.3c-3.6,2.7-7.2,6.3-10.8,9H706c3.6-2.7,6.3-6.3,9.9-9
		H701.5z M711.4,128.3c-3.6,2.7-6.3,6.3-9.9,9h9.9c3.6-2.7,6.3-6.3,9.9-9H711.4z M756.4,128.3L756.4,128.3c-3.6,2.7-6.3,6.3-9.9,9
		h9.9c1.8,0,3.6,0,5.4,0c3.6-2.7,7.2-6.3,10.8-9C768.1,128.3,762.7,128.3,756.4,128.3z M782.5,131.9c-1.8-0.9-3.6-1.8-5.4-1.8
		c-2.7,2.7-4.5,4.5-7.2,6.3c-0.9,0-0.9,0.9-1.8,0.9c4.5,0,8.1,0.9,9.9,1.8c0.9,0.9,1.8,0.9,2.7,2.7c2.7-1.8,4.5-3.6,7.2-5.4
		C787,134.6,785.2,132.8,782.5,131.9z M790.6,140.9c0-0.9-0.9-1.8-1.8-2.7c-2.7,2.7-4.5,4.5-7.2,6.3c1.8,1.8,1.8,6.3,1.8,10.8v7.2
		c2.7-1.8,6.3-4.5,9-6.3v-0.9C792.4,149,791.5,144.5,790.6,140.9z M783.4,180.5L783.4,180.5c0.9,0,0.9-0.9,1.8-1.8
		C784.3,179.6,784.3,179.6,783.4,180.5z M783.4,164.3v15.3c2.7-2.7,6.3-5.4,9-8.1v-16.2C789.7,158.9,786.1,161.6,783.4,164.3z
		 M791.5,214.7c-2.7,4.5-5.4,8.1-8.1,10.8l0,0c0,1.8-0.9,3.6-0.9,4.5c-0.9,2.7-1.8,3.6-3.6,4.5c-0.9,0.9-2.7,0.9-5.4,1.8l0,0
		c-3.6,0.9-9.9,0.9-16.2,0.9H724c-3.6,2.7-7.2,6.3-10.8,9h43.2c2.7,0,6.3,0,9,0c7.2,0,12.6-0.9,18-3.6c3.6-1.8,6.3-5.4,7.2-9
		c1.8-3.6,1.8-9,1.8-14.4v-6.3C791.5,212.9,791.5,213.8,791.5,214.7z M783.4,186.8v30.6c3.6-2.7,7.2-6.3,9-8.1v-30.6
		C789.7,181.4,786.1,184.1,783.4,186.8z M739.3,128.3c-2.7,2.7-6.3,6.3-9.9,9h10.8c3.6-2.7,7.2-6.3,9.9-9H739.3z M684.4,236.3v-4.5
		c-5.4,4.5-9.9,9-15.3,13.5c4.5,0,9,0,15.3,0h0.9c2.7-2.7,5.4-6.3,9-9H684.4z M688.9,128.3c-4.5,4.5-9.9,8.1-14.4,12.6
		c0,0.9,0.9,2.7,0.9,5.4c0,7.2-1.8,9-7.2,9h-2.7c-2.7,0-4.5,0-5.4-1.8c-3.6,2.7-7.2,6.3-10.8,9v16.2c2.7-2.7,6.3-5.4,9-9
		c0-4.5,1.8-6.3,6.3-6.3c6.3-6.3,13.5-12.6,20.7-18.9v-7.2h9.9c0.9-0.9,2.7-1.8,3.6-2.7c2.7-1.8,4.5-4.5,7.2-6.3H688.9z"/>
</g>
<path class="st3" d="M193.2,126.7c-0.9,0.9-0.9,0.9-1.8,1.8l0,0C192.3,127.6,192.3,127.6,193.2,126.7z"/>
<path class="st3" d="M193.2,126.7c-0.9,0.9-0.9,0.9-1.8,1.8l0,0C192.3,127.6,192.3,127.6,193.2,126.7z"/>
<path class="st3" d="M193.2,126.7c-0.9,0.9-0.9,0.9-1.8,1.8l0,0C192.3,127.6,192.3,127.6,193.2,126.7z"/>
<path class="st3" d="M193.2,126.7c-0.9,0.9-0.9,0.9-1.8,1.8l0,0C192.3,127.6,192.3,127.6,193.2,126.7z"/>
<path class="st3" d="M193.2,126.7c-0.9,0.9-0.9,0.9-1.8,1.8l0,0C192.3,127.6,192.3,127.6,193.2,126.7z"/>
<path class="st3" d="M193.2,126.7c-0.9,0.9-0.9,0.9-1.8,1.8l0,0C192.3,127.6,192.3,127.6,193.2,126.7z"/>
<path class="st3" d="M193.2,126.7c-0.9,0.9-0.9,0.9-1.8,1.8l0,0C192.3,127.6,192.3,127.6,193.2,126.7z"/>
<path class="st3" d="M193.2,126.7c-0.9,0.9-0.9,0.9-1.8,1.8l0,0C192.3,127.6,192.3,127.6,193.2,126.7z"/>
<path class="st3" d="M193.2,126.7c-0.9,0.9-0.9,0.9-1.8,1.8l0,0C192.3,127.6,192.3,127.6,193.2,126.7z"/>
<path class="st3" d="M193.2,126.7c-0.9,0.9-0.9,0.9-1.8,1.8l0,0C192.3,127.6,192.3,127.6,193.2,126.7z"/>
<path class="st3" d="M66.3,79.9c-3.6,1.8-6.3,5.4-7.2,9c-1.8,3.6-2.7,8.1-2.7,14.4v3.6c2.7-2.7,6.3-5.4,9-9c0-0.9,0-1.8,0-3.6
	c0-7.2,1.8-9,7.2-9h2.7c0.9,0,2.7,0,3.6,0c3.6-2.7,7.2-6.3,10.8-9C79.8,76.3,72.6,76.3,66.3,79.9z M119.4,76.3
	c-3.6,2.7-6.3,6.3-9.9,9h9.9c3.6-2.7,6.3-6.3,9.9-9H119.4z M96.9,76.3c-4.5,4.5-9,8.1-14.4,12.6c0.9,0.9,0.9,2.7,0.9,5.4
	c0,7.2-1.8,9-7.2,9h-3.6c-2.7,0-4.5,0-5.4-1.8c-3.6,3.6-7.2,6.3-10.8,9v16.2c2.7-2.7,6.3-5.4,9-9c0.9-3.6,1.8-5.4,6.3-5.4
	c7.2-6.3,13.5-12.6,20.7-18.9v-8.1h9.9c0.9-0.9,2.7-1.8,3.6-2.7c1.8-2.7,4.5-4.5,6.3-6.3H96.9z M72.6,130.3c-5.4,0-7.2-1.8-7.2-8.1
	c-2.7,2.7-6.3,4.5-9,7.2v20.7c2.7-2.7,4.5-5.4,7.2-8.1c4.5-4.5,8.1-8.1,11.7-11.7H72.6z M78,112.3c4.5,0,5.4,2.7,5.4,9l0,0
	c3.6-3.6,6.3-6.3,9-9v-11.7C87.9,104.2,82.5,108.7,78,112.3z"/>
<path class="st3" d="M92.4,128.5v11.7c-2.7,3.6-6.3,6.3-9,9.9c0-0.9,0-1.8,0-1.8c0-4.5-0.9-7.2-2.7-8.1
	C84.3,136.6,87.9,132.1,92.4,128.5z"/>
<path class="st3" d="M92.4,145.6v31.5c-5.4,5.4-10.8,10.8-16.2,16.2c-3.6,0-7.2-0.9-9.9-2.7c-3.6-1.8-6.3-5.4-7.2-9
	c-1.8-4.5-2.7-9-2.7-15.3v-3.6c2.7-2.7,6.3-6.3,9.9-9c0.9,2.7,2.7,3.6,6.3,3.6h3.6c-3.6,3.6-6.3,7.2-9.9,10.8c0,0.9-0.9,0.9-0.9,1.8
	c0,1.8,0,3.6,0,5.4c0,7.2,1.8,9,7.2,9h2.7c6.3,0,8.1-1.8,8.1-9s-1.8-9-7.2-9h-3.6c-0.9,0-1.8,0-2.7,0c3.6-3.6,7.2-7.2,10.8-9.9
	c0.9-0.9,0.9-0.9,1.8-1.8C86.1,151.9,88.8,148.3,92.4,145.6z"/>
<path class="st3" d="M102.3,184.3c-2.7,2.7-6.3,6.3-9,9h-0.9c-5.4,0-10.8,0-15.3,0c5.4-4.5,9.9-9,15.3-13.5v4.5H102.3z"/>
<path class="st3" d="M123.9,184.3c-3.6,2.7-6.3,6.3-9.9,9H99.6c3.6-2.7,7.2-6.3,10.8-9H123.9z"/>
<path class="st3" d="M149.1,85.3h-10.8c3.6-2.7,6.3-6.3,9.9-9h11.7C155.4,79,151.8,82.6,149.1,85.3z"/>
<path class="st3" d="M164.4,85.3h-9.9c2.7-2.7,6.3-6.3,9-9h0.9c6.3,0,11.7,0,16.2,0c-3.6,2.7-7.2,5.4-10.8,9
	C168,85.3,166.2,85.3,164.4,85.3z"/>
<path class="st3" d="M186.9,88c-1.8-0.9-5.4-1.8-9.9-1.8c0.9,0,0.9-0.9,1.8-0.9c2.7-2.7,4.5-4.5,7.2-6.3c1.8,0.9,3.6,0.9,5.4,1.8
	s3.6,2.7,5.4,4.5c-2.7,1.8-4.5,3.6-7.2,5.4C188.7,88.9,187.8,88,186.9,88z"/>
<path class="st3" d="M200.4,103.3v0.9c-2.7,1.8-6.3,3.6-9,6.3v-7.2c0-4.5,0-9-0.9-10.8c2.7-1.8,4.5-4.5,7.2-6.3
	c0.9,0.9,0.9,1.8,1.8,2.7C199.5,92.5,200.4,97,200.4,103.3z"/>
<path class="st3" d="M202.2,103.3c-0.9,0-1.8,0.9-1.8,0.9l0,0C200.4,104.2,201.3,103.3,202.2,103.3z"/>
<path class="st3" d="M164.4,184.3c7.2,0,12.6,0,16.2-0.9c-2.7,2.7-5.4,5.4-8.1,9.9c-2.7,0-5.4,0-9,0h-42.3c3.6-2.7,7.2-6.3,10.8-9
	H164.4z"/>
<path class="st3" d="M191.4,128.5L191.4,128.5c0.9-0.9,0.9-0.9,1.8-1.8C192.3,127.6,192.3,128.5,191.4,128.5z"/>
<path class="st3" d="M200.4,104.2v16.2c-2.7,2.7-6.3,5.4-9,8.1v-16.2C194.1,109.6,197.7,106.9,200.4,104.2z"/>
<path class="st3" d="M191.4,134.8c2.7-2.7,6.3-5.4,9-8.1v20.7c-3.6,2.7-6.3,4.5-9,6.3V134.8z"/>
<path class="st3" d="M67.2,168.1c0,0.9-0.9,0.9-0.9,1.8c-1.8,1.8-3.6,2.7-5.4,4.5C62.7,172.6,64.5,170.8,67.2,168.1z"/>
<path class="st3" d="M202.2,103.3c-0.9,0-1.8,0.9-1.8,0.9l0,0C200.4,104.2,201.3,103.3,202.2,103.3z"/>
<path class="st3" d="M191.4,128.5L191.4,128.5c0.9-0.9,0.9-0.9,1.8-1.8C192.3,127.6,192.3,128.5,191.4,128.5z"/>
<path class="st3" d="M193.2,126.7c-0.9,0.9-0.9,0.9-1.8,1.8l0,0C192.3,127.6,192.3,127.6,193.2,126.7z"/>
<path class="st3" d="M193.2,126.7c-0.9,0.9-0.9,0.9-1.8,1.8l0,0C192.3,127.6,192.3,127.6,193.2,126.7z"/>
<path class="st3" d="M193.2,126.7c-0.9,0.9-0.9,0.9-1.8,1.8l0,0C192.3,127.6,192.3,127.6,193.2,126.7z"/>
<path class="st3" d="M193.2,126.7c-0.9,0.9-0.9,0.9-1.8,1.8l0,0C192.3,127.6,192.3,127.6,193.2,126.7z"/>
<path class="st3" d="M193.2,126.7c-0.9,0.9-0.9,0.9-1.8,1.8l0,0C192.3,127.6,192.3,127.6,193.2,126.7z"/>
<path class="st3" d="M193.2,126.7c-0.9,0.9-0.9,0.9-1.8,1.8l0,0C192.3,127.6,192.3,127.6,193.2,126.7z"/>
<path class="st3" d="M193.2,126.7c-0.9,0.9-0.9,0.9-1.8,1.8l0,0C192.3,127.6,192.3,127.6,193.2,126.7z"/>
<path class="st3" d="M193.2,126.7c-0.9,0.9-0.9,0.9-1.8,1.8l0,0C192.3,127.6,192.3,127.6,193.2,126.7z"/>
<path class="st3" d="M193.2,126.7c-0.9,0.9-0.9,0.9-1.8,1.8l0,0C192.3,127.6,192.3,127.6,193.2,126.7z"/>
</svg>
