<?xml version="1.0" encoding="utf-8"?>
<!-- Generator: Adobe Illustrator 23.0.0, SVG Export Plug-In . SVG Version: 6.00 Build 0)  -->
<svg version="1.1" id="Layer_1" xmlns="http://www.w3.org/2000/svg" xmlns:xlink="http://www.w3.org/1999/xlink" x="0px" y="0px"
	 viewBox="0 0 48 48" style="enable-background:new 0 0 48 48;" xml:space="preserve">
<style type="text/css">
	.st0{clip-path:url(#SVGID_2_);fill:#F75049;}
</style>
<g>
	<defs>
		<path id="SVGID_1_" d="M60,13.5c-0.2-0.4-0.8-0.1-1.5-0.6c-0.6-0.5-0.4-0.9-0.8-1.2c-1-0.6-3.4,1.3-3.4,1.3c0-0.1,1-0.7,1.9-1.8
			c0.6-0.6,1.7-1.8,1.4-2.7c-0.2-0.5-0.7-0.5-0.8-0.9c-0.1-0.7,1.3-1.1,1.2-2c0-0.4-0.4-0.8-0.8-0.9c-0.9-0.3-2.1,0.6-2.1,0.6
			c0-0.1,0.7-0.5,1.1-1.3c0.1-0.2,0.5-0.9,0.2-1.2c-0.2-0.2-0.7-0.3-1-0.2c-0.3,0.1-0.5,0.2-0.6,0.1c-0.1-0.1,0-0.3-0.1-0.4
			c-0.1-0.5-0.9-0.7-1.5-0.8c-1.4-0.1-2.5,1.2-2.7,1.1c-0.2-0.2,1.3-1.4,1-2.3c-0.1-0.4-0.6-0.7-1-0.7c-0.7,0-1.1,0.8-1.3,0.7
			c-0.4-0.2,0.3-1.9-0.3-2.3c-0.3-0.2-0.8,0.2-1.5,0c-0.4-0.2-0.4-0.4-0.7-0.5c-0.8-0.3-2,1.1-3.5,2.4c-0.6,0.6-1.6,1.4-3,2.2
			c0.7-0.9,1.3-1.5,1.7-2c1.1-1.2,1.7-1.7,1.7-2.5c0-0.3-0.1-1-0.4-1.2c-0.5-0.2-1,0.5-2.8,1.7c-0.5,0.3-0.9,0.6-1.1,0.7
			c0.1-0.1,0.8-1,0.5-1.8c0-0.1-0.2-0.4-0.5-0.7c-1.1-0.9-3-0.5-3.2-0.4C33.6-3.6,33-2,30.2-0.6c0,0-0.4,0.2-0.9,0.5
			c-1.1,0.6-1.6,0.9-1.8,1c-0.7,0.5-1.2,0.9-1.5,1.5c-0.3,0.7-0.1,1.1-0.6,1.6c-0.3,0.4-0.8,0.5-0.9,0.5C22.9,4.9,21,7.7,20.7,8
			c-1.1,1.5-4.5,5.1-13.8,13.5C19.5,8.2,23.3,4,23.4,3.6c0,0,0,0,0,0c0.1-0.2,0.4-1.1,0.1-1.5c-0.2-0.2-0.6-0.1-0.8-0.4
			c0,0-0.1-0.2-0.1-0.4c0.1-0.5,1.1-0.6,1.1-0.9c0-0.1-0.2-0.1-0.5-0.3c-0.7-0.3-0.7-0.5-1.2-0.6c-0.6-0.2-1.3,0.2-1.7,0.4
			c-0.6,0.3-0.9,0.6-1,0.5c-0.1-0.1,0.1-0.5-0.1-0.7c-0.2-0.3-0.6-0.2-0.8-0.2c-0.9,0.1-1.4,0.8-1.7,0.6c-0.2-0.1,0-0.4-0.2-0.8
			c-0.2-0.4-0.6-0.2-1-0.5c-0.5-0.4-0.3-0.7-0.8-1.4c-0.2-0.2-0.5-0.7-1.1-0.9c-0.6-0.2-0.8,0.1-1.4-0.1c-0.7-0.2-0.7-0.7-1.3-0.7
			c-0.4-0.1-0.8,0.1-1.1,0.2C9.2-3.7,9.2-3.3,8.7-3.3c-0.5,0-0.6-0.5-1.4-0.7C7.1-4,6.8-4,6.6-3.9c-0.3,0.3,0.1,1-0.2,1.3
			c-0.2,0.2-0.5,0.1-0.7,0C5.4-2.7,5.4-3,5.3-3.1C4.7-3.7,2.2-3,1.5-1.5C1.4-1.2,1.3-0.9,0.9-0.7c-0.4,0.2-0.8,0-1.2,0
			c-0.8,0-1.2,0.6-2.9,2.6c0,0-0.3,0.4-1.5,1.7c-2.3,2.6-2.8,3-2.8,3.8c0,1.4,0.1,1.9,0.1,1.9c0.1,0.3,0.3,0.7,0.1,1
			c-0.1,0.2-0.3,0.1-0.4,0.3c-0.3,0.3,0.2,1,0.1,2c0,0,0,0-0.1,0.7C-8,14.7-8.1,15-7.9,15.1c0.2,0.2,0.4,0.2,0.7,0.2
			c0.5,0,0.8-0.2,0.9-0.3c1-1.2,2-2.4,3-3.6c-0.4,0.9-0.8,1.5-1.2,1.9c-0.4,0.6-0.8,1-1.3,1.9c-0.1,0.3-0.3,0.5-0.4,1
			c-0.2,0.6-0.5,1.4-0.2,2c0.1,0.3,0.3,0.4,0.4,0.8c0.1,0.5-0.1,0.7,0.1,1c0.1,0.2,0.3,0.1,0.4,0.3c0.3,0.4-0.1,0.8,0.1,1.5
			c0.1,0.4,0.2,0.3,0.3,0.8c0.2,0.7-0.2,1,0,1.9C-5,25-5,25.2-4.8,25.3c0.4,0.3,1-0.2,1.5,0.1c0.5,0.3,0.3,0.8,0.8,1
			c0.3,0.1,0.5-0.1,1-0.1c0.1,0,0.8,0,0.9,0.4c0.1,0.3-0.3,0.7-0.7,0.9c-1,0.5-2.1-0.2-2.3,0.1c-0.1,0.2,0.3,0.6,0.6,0.8
			c2.7,2.5,2.7,2.7,3.5,3.2c0.9,0.5,0.7,0.3,1.8,0.9c1.4,0.8,2.8,1.6,2.9,2.7c0,0.6-0.4,0.7-0.4,1.6c0,0.6,0.3,1.5,0.8,1.7
			c0.5,0.2,0.8-0.3,1.6-0.3c0.8,0.1,0.9,0.7,1.6,0.7c1,0,1.4-1.1,2.1-0.9c0.5,0.1,0.5,0.5,1,0.7c0.5,0.2,1.1,0.1,1.4-0.1
			c2.8-2.8,7-7.2,12.3-12.7c4.3-4.6,5.5-5.9,7.9-8.2c7-6.7,14.4-11.9,14.7-11.5c0.2,0.3-3.1,3.4-14.6,14.2
			c-7.9,7.5-14.4,13.8-18.8,18c0,0.9,0.2,1.2,0.4,1.3c0.6,0.3,1.3-0.5,2,0c0.2,0.2,0.7,0.6,0.9,1.2c0.1,0.4,0,0.8,0.3,1.1
			c0.2,0.2,0.3,0.1,0.5,0.3c0.5,0.4,0.3,0.9,0.7,1.3c0.4,0.4,1,0.1,1.2,0.5c0.1,0.2-0.1,0.4-0.1,0.7c0.1,0.4,0.4,0.4,0.5,0.7
			c0.1,0.5-0.7,0.8-0.9,1.6c-0.1,0.6,0.2,0.7,0.2,1.3c-0.1,1.2-1.5,1.5-1.4,2.5c0,0.6,0.6,1.2,1.2,1.3c0.9,0.1,1.2-1.1,2.2-1.1
			c1.1,0,1.5,1.6,2.5,1.4c0.7-0.1,0.8-0.9,1.6-1c0.5,0,0.8,0.3,1.1,0.1c0.3-0.2,0.3-0.6,0.7-0.7c0.2-0.1,0.3,0,0.5,0.1
			c0.7,0.1,1.5-1,1.8-2.1c0.3-1,0-1.3,0.5-2.1c0.3-0.6,0.8-0.9,1-1c1.5-1,3.2-2.7,4.8-4.2c2.2-2.1,2.4-2.9,3.9-3.7
			c0.2-0.1,0.7-0.3,1.3-0.8c0.8-0.8,1.1-1.5,1.5-2.2c1.1-2.1,2.2-2.2,4.5-5.4c0.1-0.2,0.6-0.9,0.5-1c-0.3-0.2-3.1,3-3.8,2.6
			c-0.2-0.1-0.2-0.5-0.1-0.7c0.2-1.5,2.2-2.1,5-4.5c0.7-0.6,0.5-0.5,1.3-1.2c2.2-1.9,4.6-3.4,5.2-4.6c0.4-0.7,0.6-1.5,0.6-1.5
			c0.1-0.2,0.1-0.4,0.1-0.5c0.3-0.7,0.6-1,1.8-2.3C59.9,14.1,60.1,13.8,60,13.5z M14.9,11.5c-0.8,1-1.7,1.8-2.5,2.3
			c0.4-0.7,1.1-1.7,2.1-2.5c0.4-0.3,0.8-0.6,1.2-0.8C15.4,10.8,15.2,11.1,14.9,11.5z M14.3,8.3c1.3-1.4,2.5-2.6,3.7-3.7
			c-0.9,1.2-2,2.6-3.4,3.9c-0.8,0.9-1.7,1.6-2.5,2.3C12.8,10,13.5,9.1,14.3,8.3z M-0.5,8.1C-0.3,7.7,0.1,7,0.7,6.5
			c0.2-0.2,0.4-0.4,0.6-0.6C1.2,6.1,1,6.4,0.9,6.6C0.4,7.3-0.1,7.8-0.5,8.1z M1.7,29.8c-0.3,0.3-0.6,0.5-0.7,0.5
			c0-0.1,0-0.5,0.2-0.8C1.6,29.1,2,29,2.1,29C2.1,29.2,2,29.5,1.7,29.8z M0.9,17.4c0.9-1.1,1.7-2.1,2.6-3.2c0,0.3,0.1,0.5,0.1,0.8
			C2.7,15.8,1.8,16.7,0.9,17.4z M5.5,33.5c-0.1,0.1-0.4-0.5-1.4-1.6c-0.2-0.3-0.5-0.5-0.4-0.8c0.1-0.2,0.3-0.3,0.6-0.5
			c0.3-0.2,0.8-0.5,1.1-1.2c0,0.5-0.2,0.9-0.3,1.1c-0.1,0.3-0.3,0.5-0.2,0.7c0.1,0.1,0.2,0.1,0.3,0.2c0.1,0.2,0,0.4,0,0.7
			C5.2,32.9,5.6,33.4,5.5,33.5z M5.2,3.4c0.2-0.5,0.6-1.1,1.2-1.7C6.6,1.5,6.8,1.3,7,1.2C6.9,1.4,6.8,1.6,6.6,1.9
			C6.1,2.5,5.7,3,5.2,3.4z M12.7,21c2.8-3.5,6.1-7.4,10.2-11.3c2.9-2.8,5.7-5.3,8.5-7.4c-2,1.9-3.9,3.8-5.9,5.7
			C21,12.3,16.8,16.7,12.7,21z M25.8,9.7c2.2-2.2,4.3-4,6.3-5.4c-1.2,1.4-2.4,2.8-3.7,4.1c-3,3.3-6,6.3-9,9
			C21,15.1,23.1,12.4,25.8,9.7z M30.7,14.5c2.9-2.5,5.8-4.8,8.5-7c-1.9,1.9-3.8,3.8-5.9,5.7C29.1,17,25,20.4,21,23.4
			C24,20.5,27.2,17.5,30.7,14.5z M35.2,14.8C31,18.6,26.9,22,22.9,25c2.9-2.9,6.1-5.9,9.6-9c2.9-2.5,5.8-4.8,8.5-7
			C39.3,11,37.3,12.9,35.2,14.8z M50.5,10.7c-1.9,1.9-3.8,3.8-5.9,5.7c-4.2,3.8-8.3,7.2-12.2,10.2c2.9-2.9,6.1-5.9,9.6-9
			C44.9,15.1,47.7,12.8,50.5,10.7z M25.3,31.3c3.8-4.5,8.4-9.3,13.6-14c2.4-2.1,4.7-4.1,7-5.9c-2.5,2.6-5.1,5.2-7.7,7.8
			C33.9,23.2,29.6,27.3,25.3,31.3z M26.3,35.7c4.2-4.1,8.6-8.3,13.4-12.5c3.8-3.3,7.5-6.5,11.1-9.4c-3,2.8-6,5.6-9.1,8.5
			C36.5,26.9,31.3,31.4,26.3,35.7z M26.9,38.3c2.9-3.4,6.5-7.2,10.9-10.9c3.7-3.2,7.3-5.7,10.5-7.9c-2.9,2.5-5.8,5.1-8.7,7.6
			C35.5,30.9,31.2,34.6,26.9,38.3z M48.4,23.2c-3.2,2.9-6.4,5.6-9.5,8.1c0.6-0.5,1.1-1,1.7-1.5c2.1-1.9,4.1-3.8,5.9-5.7
			c-0.3,0.2-0.5,0.4-0.8,0.6c-0.2,0.1-0.3,0.3-0.5,0.4c-3.4,2.9-6.5,5.9-9.4,8.7c-2.4,2-4.8,3.9-7.1,5.7c2.9-2.9,6.1-5.9,9.6-8.9
			c2.6-2.3,5.2-4.4,7.8-6.4c2.8-2.4,5.5-4.6,8.1-6.6C52.4,19.3,50.5,21.2,48.4,23.2z"/>
	</defs>
	<clipPath id="SVGID_2_">
		<use xlink:href="#SVGID_1_"  style="overflow:visible;"/>
	</clipPath>
	<rect x="10" y="21" class="st0" width="28" height="6"/>
</g>
</svg>
