<?xml version="1.0" encoding="utf-8"?>
<!-- Generator: Adobe Illustrator 23.0.0, SVG Export Plug-In . SVG Version: 6.00 Build 0)  -->
<svg version="1.1" id="Layer_1" xmlns="http://www.w3.org/2000/svg" xmlns:xlink="http://www.w3.org/1999/xlink" x="0px" y="0px"
	 viewBox="0 0 32 32" style="enable-background:new 0 0 32 32;" xml:space="preserve">
<style type="text/css">
	.st0{fill:#F75049;}
</style>
<polygon class="st0" points="13.8,26.5 13.3,26.4 14,26 14.6,26 "/>
<path class="st0" d="M27,26v3.5c0,0.8-0.7,1.5-1.5,1.5h-19C5.7,31,5,30.3,5,29.5V26h1.7c-0.2,1.3-0.3,2.8,0.2,2.2
	c0.2-0.3,0.5-0.6,0.9-0.8l-0.7,0.9c0,0-0.8,1.1-0.4,1.2c0.4,0.1,1.2,0.1,1.2,0.1l16.3,0v-0.7l0.6-0.8L23,28l2.2,0l0.3-0.5L11.3,27
	l1.9-0.2l-0.2-0.2l3,0.1l0.2-0.1l1-0.6H27z"/>
<polygon class="st0" points="20.9,18 14.7,22 11.8,22 18.9,18 "/>
<polygon class="st0" points="21.8,22 26.5,19.3 26.5,20.7 24.2,22 "/>
<polygon class="st0" points="26.5,18 26.5,18.4 20.6,22 15.4,22 21.9,18 "/>
<path class="st0" d="M27,3.5V6h-6.5l1.9-1.2l0-0.1l-0.1-0.1L20.1,6h-2.6l3.9-2.7L17.2,6H12l4.1-3.1c0,0,0,0,0,0
	c0.1-0.1,0.5-0.4,0.5-0.4l-4.1,0v0l-0.5,0.3l-0.4,0.2h-0.1L12,2.7l0.4-0.3l-1.4,0l-0.5,0.2L10,2.3c-1.8-0.1-2.5,2-2.5,2L7.3,5.6
	l0.3,0l2.3-1.6c0,0,0.4,0,0.2,0.2C10,4.2,7.4,5.9,7.4,5.9l-0.1,0l0,0.2H5V3.5C5,2.7,5.7,2,6.5,2h19C26.3,2,27,2.7,27,3.5z"/>
<polygon class="st0" points="26.5,10 21,13.3 19.9,14 17.2,14 19.3,13 24.1,10 "/>
<polygon class="st0" points="25.3,14 26.6,13.2 26.6,14 "/>
<polygon class="st0" points="26.6,10.4 26.6,12.3 25.7,12.7 23.6,14 20.5,14 21.3,13.5 "/>
<polygon class="st0" points="26.5,19.3 26.5,20.7 24.2,22 21.8,22 "/>
<polygon class="st0" points="26.5,18 26.5,18.4 20.6,22 15.4,22 21.9,18 "/>
<polygon class="st0" points="20.9,18 14.7,22 11.8,22 18.9,18 "/>
<polygon class="st0" points="26.6,13.2 26.6,14 25.3,14 "/>
<polygon class="st0" points="17,18 10.3,22 5,22 5,18 "/>
<polygon class="st0" points="10.3,22 10.3,22 10.1,22.1 10.1,22 "/>
<polygon class="st0" points="26.6,10.4 26.6,12.3 25.7,12.7 23.6,14 20.5,14 21.3,13.5 "/>
<polygon class="st0" points="24,10 18.9,12.7 16.8,14 5,14 5,10 10.9,10 10.5,10.2 10.3,10.4 10.3,10.9 10.5,10.8 11.7,10 14,10 
	11.9,11.4 11.8,11.7 14.4,10 "/>
<polygon class="st0" points="26.5,10 21,13.3 19.9,14 17.2,14 19.3,13 24.1,10 "/>
</svg>
