<?xml version="1.0" encoding="utf-8"?>
<!-- Generator: Adobe Illustrator 23.0.0, SVG Export Plug-In . SVG Version: 6.00 Build 0)  -->
<svg version="1.1" id="Layer_1" xmlns="http://www.w3.org/2000/svg" xmlns:xlink="http://www.w3.org/1999/xlink" x="0px" y="0px"
	 viewBox="0 0 32 32" style="enable-background:new 0 0 32 32;" xml:space="preserve">
<style type="text/css">
	.st0{fill:#6650D2;}
	.st1{fill:#F75049;}
</style>
<g>
	<path class="st0" d="M18,18.2c0,0,0-0.5,0.2-1.1c-0.7,0.5-1.3,1.1-2,1.6c0.5,0.3,0.8,0.7,1.1,1.1c0.3-0.3,0.6-0.5,0.9-0.8H18V18.2z
		 M18.9,19c-0.4,0.4-0.9,0.8-1.3,1.2c0.2,0.4,0.3,0.7,0.4,1c0.3-0.2,0.5-0.5,0.8-0.7c0.6-0.5,1.2-1,1.7-1.4H18.9z M20,12
		c0-0.2,0-0.4,0.1-0.6c-1.2,1.2-2.7,2.5-4.3,4.1c-0.8,0.8-1.6,1.5-2.3,2.2c0.4,0,0.8,0.1,1.1,0.2c0.3-0.3,0.6-0.6,0.9-0.9
		c0.3-0.3,0.6-0.6,0.9-0.9c0,0,0-0.1,0.1-0.1c0.3-0.3,0.6-0.6,0.9-0.9c0.2-0.2,0.5-0.5,0.7-0.7c0.4-0.4,0.9-0.8,1.4-1.3
		c0.2-0.2,0.5-0.4,0.7-0.6C20,12.4,20,12.2,20,12z M18,18.2c0,0,0-0.5,0.2-1.1c-0.7,0.5-1.3,1.1-2,1.6c0.5,0.3,0.8,0.7,1.1,1.1
		c0.3-0.3,0.6-0.5,0.9-0.8H18V18.2z M18.9,19c-0.4,0.4-0.9,0.8-1.3,1.2c0.2,0.4,0.3,0.7,0.4,1c0.3-0.2,0.5-0.5,0.8-0.7
		c0.6-0.5,1.2-1,1.7-1.4H18.9z M20,12c0-0.2,0-0.4,0.1-0.6c-1.2,1.2-2.7,2.5-4.3,4.1c-0.8,0.8-1.6,1.5-2.3,2.2
		c0.4,0,0.8,0.1,1.1,0.2c0.3-0.3,0.6-0.6,0.9-0.9c0.3-0.3,0.6-0.6,0.9-0.9c0,0,0-0.1,0.1-0.1c0.3-0.3,0.6-0.6,0.9-0.9
		c0.2-0.2,0.5-0.5,0.7-0.7c0.4-0.4,0.9-0.8,1.4-1.3c0.2-0.2,0.5-0.4,0.7-0.6C20,12.4,20,12.2,20,12z M18,18.2c0,0,0-0.5,0.2-1.1
		c-0.7,0.5-1.3,1.1-2,1.6c0.5,0.3,0.8,0.7,1.1,1.1c0.3-0.3,0.6-0.5,0.9-0.8H18V18.2z M18.9,19c-0.4,0.4-0.9,0.8-1.3,1.2
		c0.2,0.4,0.3,0.7,0.4,1c0.3-0.2,0.5-0.5,0.8-0.7c0.6-0.5,1.2-1,1.7-1.4H18.9z M20,12c0-0.2,0-0.4,0.1-0.6c-1.2,1.2-2.7,2.5-4.3,4.1
		c-0.8,0.8-1.6,1.5-2.3,2.2c0.4,0,0.8,0.1,1.1,0.2c0.3-0.3,0.6-0.6,0.9-0.9c0.3-0.3,0.6-0.6,0.9-0.9c0,0,0-0.1,0.1-0.1
		c0.3-0.3,0.6-0.6,0.9-0.9c0.2-0.2,0.5-0.5,0.7-0.7c0.4-0.4,0.9-0.8,1.4-1.3c0.2-0.2,0.5-0.4,0.7-0.6C20,12.4,20,12.2,20,12z
		 M18,18.2c0,0,0-0.5,0.2-1.1c-0.7,0.5-1.3,1.1-2,1.6c0.5,0.3,0.8,0.7,1.1,1.1c0.3-0.3,0.6-0.5,0.9-0.8H18V18.2z M18.9,19
		c-0.4,0.4-0.9,0.8-1.3,1.2c0.2,0.4,0.3,0.7,0.4,1c0.3-0.2,0.5-0.5,0.8-0.7c0.6-0.5,1.2-1,1.7-1.4H18.9z M20,12c0-0.2,0-0.4,0.1-0.6
		c-1.2,1.2-2.7,2.5-4.3,4.1c-0.8,0.8-1.6,1.5-2.3,2.2c0.4,0,0.8,0.1,1.1,0.2c0.3-0.3,0.6-0.6,0.9-0.9c0.3-0.3,0.6-0.6,0.9-0.9
		c0,0,0-0.1,0.1-0.1c0.3-0.3,0.6-0.6,0.9-0.9c0.2-0.2,0.5-0.5,0.7-0.7c0.4-0.4,0.9-0.8,1.4-1.3c0.2-0.2,0.5-0.4,0.7-0.6
		C20,12.4,20,12.2,20,12z M18,18.2c0,0,0-0.5,0.2-1.1c-0.7,0.5-1.3,1.1-2,1.6c0.5,0.3,0.8,0.7,1.1,1.1c0.3-0.3,0.6-0.5,0.9-0.8H18
		V18.2z M18.9,19c-0.4,0.4-0.9,0.8-1.3,1.2c0.2,0.4,0.3,0.7,0.4,1c0.3-0.2,0.5-0.5,0.8-0.7c0.6-0.5,1.2-1,1.7-1.4H18.9z M18.9,19
		c-0.4,0.4-0.9,0.8-1.3,1.2c0.2,0.4,0.3,0.7,0.4,1c0.3-0.2,0.5-0.5,0.8-0.7c0.6-0.5,1.2-1,1.7-1.4H18.9z M18.9,19
		c-0.4,0.4-0.9,0.8-1.3,1.2c0.2,0.4,0.3,0.7,0.4,1c0.3-0.2,0.5-0.5,0.8-0.7c0.6-0.5,1.2-1,1.7-1.4H18.9z M18.9,19
		c-0.4,0.4-0.9,0.8-1.3,1.2c0.2,0.4,0.3,0.7,0.4,1c0.3-0.2,0.5-0.5,0.8-0.7c0.6-0.5,1.2-1,1.7-1.4H18.9z M9.5,4
		C9.3,4.1,9.2,4.1,9.1,4.1C8,4.4,6.6,6.4,6.5,6.6C6,7.3,4.7,8.7,2,11.2v3.1c1.7-2.1,3.7-4.3,6-6.5c1.4-1.4,2.9-2.7,4.2-3.8H9.5z
		 M18.9,19c-0.4,0.4-0.9,0.8-1.3,1.2c0.2,0.4,0.3,0.7,0.4,1c0.3-0.2,0.5-0.5,0.8-0.7c0.6-0.5,1.2-1,1.7-1.4H18.9z M14.7,22.7
		c-1.4,1.2-2.9,2.5-4.3,3.7c1.2-1.2,2.5-2.4,3.8-3.7H8.3c-2,1.9-3.8,3.6-5.3,5.1C3.3,27.9,3.6,28,4,28h7.1c1.5-1.7,3.1-3.5,5.1-5.3
		H14.7z M18.9,19c-0.4,0.4-0.9,0.8-1.3,1.2c0.2,0.4,0.3,0.7,0.4,1c0.3-0.2,0.5-0.5,0.8-0.7c0.6-0.5,1.2-1,1.7-1.4H18.9z M28,4H14.5
		c-0.8,1-1.7,2-2.6,2.9c-2.2,2.4-4.3,4.5-6.4,6.4c1.1-1.7,2.6-3.6,4.5-5.5C11.7,6.3,13.2,5,14.5,4h-2L2,14.6V26
		c0,0.5,0.2,0.9,0.5,1.3c1.2-1.3,2.7-2.8,4.5-4.6H6v-1c0,0,0-2.2,2.5-3.3c0.8-0.8,1.7-1.7,2.6-2.5c-0.5-0.1-0.8-0.4-1.2-0.7
		c-1.1,0.9-2.1,1.7-3.2,2.5c0.9-0.9,1.9-1.9,2.9-2.8C9.2,14.3,9,13.7,9,13c0-1.7,1.3-3,3-3c0.8,0,1.5,0.3,2,0.8
		c1.9-1.6,3.8-3.2,5.6-4.5c-1.3,1.3-2.7,2.7-4.2,4.1c-0.3,0.3-0.7,0.6-1,0.9c0.3,0.3,0.4,0.7,0.5,1.1C17,10.6,19,8.9,21,7.4
		c-1.3,1.3-2.7,2.7-4.2,4.1c-0.6,0.6-1.2,1.1-1.8,1.6v0c0,0.7-0.3,1.3-0.7,1.8c0.4-0.4,0.9-0.9,1.4-1.3c5-4.7,10.2-8.4,10.5-8.2
		c0.1,0.1-1,1.3-4.6,4.7c0.2,0,0.3-0.1,0.5-0.1c0.3,0,0.6,0.1,0.9,0.2h0c0.1,0,0.1,0.1,0.2,0.1c0.4,0.3,0.7,0.7,0.9,1.2
		c1.3-1.1,2.5-2.1,3.8-3c-1.2,1.2-2.4,2.4-3.7,3.6c0,1-0.9,1.9-2,1.9h-0.1c-0.4,0.4-0.9,0.8-1.3,1.2C21,15.1,21.5,15,22,15
		c0.3,0,0.5,0,0.7,0h0c1.8-1.5,3.5-3,5.2-4.3c-1.5,1.5-3.1,2.9-4.7,4.4c0.7,0.1,1.2,0.4,1.6,0.7c0.5-0.3,1-0.7,1.4-1
		c-0.4,0.4-0.8,0.7-1.3,1.1c0.4,0.4,0.7,0.8,0.8,1.2c1.4-1.2,2.9-2.4,4.3-3.4V6C30,4.9,29.1,4,28,4z M11.6,16
		C11.6,16,11.6,16,11.6,16c-1,0.8-1.9,1.5-2.8,2.2c0.8-0.3,1.7-0.5,2.9-0.5c1-1,1.7-1.8,2.3-2.4c-0.5,0.4-1.2,0.7-2,0.7
		C11.9,16,11.7,16,11.6,16z M20,12c0-0.2,0-0.4,0.1-0.6c-1.2,1.2-2.7,2.5-4.3,4.1c-0.8,0.8-1.6,1.5-2.3,2.2c0.4,0,0.8,0.1,1.1,0.2
		c0.3-0.3,0.6-0.6,0.9-0.9c0.3-0.3,0.6-0.6,0.9-0.9c0,0,0-0.1,0.1-0.1c0.3-0.3,0.6-0.6,0.9-0.9c0.2-0.2,0.5-0.5,0.7-0.7
		c0.4-0.4,0.9-0.8,1.4-1.3c0.2-0.2,0.5-0.4,0.7-0.6C20,12.4,20,12.2,20,12z M20.3,13.1c-0.5,0.5-0.9,1-1.4,1.4
		c-1.3,1.2-2.5,2.4-3.8,3.6c0.4,0.1,0.7,0.3,1,0.5c1.6-1.6,3.3-3.2,5.2-4.8C20.8,13.7,20.5,13.4,20.3,13.1z M18,18.2
		c0,0,0-0.5,0.2-1.1c-0.7,0.5-1.3,1.1-2,1.6c0.5,0.3,0.8,0.7,1.1,1.1c0.3-0.3,0.6-0.5,0.9-0.8H18V18.2z M21.5,19
		c-0.5,0.4-1,0.8-1.4,1.3c-0.7,0.6-1.4,1.2-2,1.8v0.6h-0.7c-2,1.8-4.1,3.6-6.1,5.3h2c1.8-1.8,3.8-3.6,5.9-5.4
		c1.5-1.3,2.9-2.5,4.3-3.6H21.5z M18.9,19c-0.4,0.4-0.9,0.8-1.3,1.2c0.2,0.4,0.3,0.7,0.4,1c0.3-0.2,0.5-0.5,0.8-0.7
		c0.6-0.5,1.2-1,1.7-1.4H18.9z M18.9,19c-0.4,0.4-0.9,0.8-1.3,1.2c0.2,0.4,0.3,0.7,0.4,1c0.3-0.2,0.5-0.5,0.8-0.7
		c0.6-0.5,1.2-1,1.7-1.4H18.9z M4,4C2.9,4,2,4.9,2,6v0.7c0.9-1,1.7-1.8,2.5-2.5C3.9,5,3.1,6,2.2,7L2,7.1V9c0,0,0,0,0,0
		c0.3-0.2,0.6-0.4,0.8-0.6C2.7,8.6,2.5,8.9,2.3,9.1C2.2,9.2,2.1,9.4,2,9.5v1C5.5,6.8,7.3,4.8,8,4H4z M18.9,19
		c-0.4,0.4-0.9,0.8-1.3,1.2c0.2,0.4,0.3,0.7,0.4,1c0.3-0.2,0.5-0.5,0.8-0.7c0.6-0.5,1.2-1,1.7-1.4H18.9z M18.9,19
		c-0.4,0.4-0.9,0.8-1.3,1.2c0.2,0.4,0.3,0.7,0.4,1c0.3-0.2,0.5-0.5,0.8-0.7c0.6-0.5,1.2-1,1.7-1.4H18.9z M18.9,19
		c-0.4,0.4-0.9,0.8-1.3,1.2c0.2,0.4,0.3,0.7,0.4,1c0.3-0.2,0.5-0.5,0.8-0.7c0.6-0.5,1.2-1,1.7-1.4H18.9z M18,18.2c0,0,0-0.5,0.2-1.1
		c-0.7,0.5-1.3,1.1-2,1.6c0.5,0.3,0.8,0.7,1.1,1.1c0.3-0.3,0.6-0.5,0.9-0.8H18V18.2z M18.9,19c-0.4,0.4-0.9,0.8-1.3,1.2
		c0.2,0.4,0.3,0.7,0.4,1c0.3-0.2,0.5-0.5,0.8-0.7c0.6-0.5,1.2-1,1.7-1.4H18.9z M20,12c0-0.2,0-0.4,0.1-0.6c-1.2,1.2-2.7,2.5-4.3,4.1
		c-0.8,0.8-1.6,1.5-2.3,2.2c0.4,0,0.8,0.1,1.1,0.2c0.3-0.3,0.6-0.6,0.9-0.9c0.3-0.3,0.6-0.6,0.9-0.9c0,0,0-0.1,0.1-0.1
		c0.3-0.3,0.6-0.6,0.9-0.9c0.2-0.2,0.5-0.5,0.7-0.7c0.4-0.4,0.9-0.8,1.4-1.3c0.2-0.2,0.5-0.4,0.7-0.6C20,12.4,20,12.2,20,12z
		 M18,18.2c0,0,0-0.5,0.2-1.1c-0.7,0.5-1.3,1.1-2,1.6c0.5,0.3,0.8,0.7,1.1,1.1c0.3-0.3,0.6-0.5,0.9-0.8H18V18.2z M18.9,19
		c-0.4,0.4-0.9,0.8-1.3,1.2c0.2,0.4,0.3,0.7,0.4,1c0.3-0.2,0.5-0.5,0.8-0.7c0.6-0.5,1.2-1,1.7-1.4H18.9z M20,12c0-0.2,0-0.4,0.1-0.6
		c-1.2,1.2-2.7,2.5-4.3,4.1c-0.8,0.8-1.6,1.5-2.3,2.2c0.4,0,0.8,0.1,1.1,0.2c0.3-0.3,0.6-0.6,0.9-0.9c0.3-0.3,0.6-0.6,0.9-0.9
		c0,0,0-0.1,0.1-0.1c0.3-0.3,0.6-0.6,0.9-0.9c0.2-0.2,0.5-0.5,0.7-0.7c0.4-0.4,0.9-0.8,1.4-1.3c0.2-0.2,0.5-0.4,0.7-0.6
		C20,12.4,20,12.2,20,12z M18,18.2c0,0,0-0.5,0.2-1.1c-0.7,0.5-1.3,1.1-2,1.6c0.5,0.3,0.8,0.7,1.1,1.1c0.3-0.3,0.6-0.5,0.9-0.8H18
		V18.2z M18.9,19c-0.4,0.4-0.9,0.8-1.3,1.2c0.2,0.4,0.3,0.7,0.4,1c0.3-0.2,0.5-0.5,0.8-0.7c0.6-0.5,1.2-1,1.7-1.4H18.9z M20,12
		c0-0.2,0-0.4,0.1-0.6c-1.2,1.2-2.7,2.5-4.3,4.1c-0.8,0.8-1.6,1.5-2.3,2.2c0.4,0,0.8,0.1,1.1,0.2c0.3-0.3,0.6-0.6,0.9-0.9
		c0.3-0.3,0.6-0.6,0.9-0.9c0,0,0-0.1,0.1-0.1c0.3-0.3,0.6-0.6,0.9-0.9c0.2-0.2,0.5-0.5,0.7-0.7c0.4-0.4,0.9-0.8,1.4-1.3
		c0.2-0.2,0.5-0.4,0.7-0.6C20,12.4,20,12.2,20,12z M18,18.2c0,0,0-0.5,0.2-1.1c-0.7,0.5-1.3,1.1-2,1.6c0.5,0.3,0.8,0.7,1.1,1.1
		c0.3-0.3,0.6-0.5,0.9-0.8H18V18.2z M18.9,19c-0.4,0.4-0.9,0.8-1.3,1.2c0.2,0.4,0.3,0.7,0.4,1c0.3-0.2,0.5-0.5,0.8-0.7
		c0.6-0.5,1.2-1,1.7-1.4H18.9z"/>
	<path class="st1" d="M8,4c-0.7,0.8-2.5,2.8-6,6.5v-1c0.1-0.1,0.2-0.2,0.3-0.4c0.2-0.3,0.4-0.5,0.5-0.8C2.6,8.5,2.3,8.7,2,9
		c0,0,0,0,0,0V7.1L2.2,7C3.1,6,3.9,5,4.5,4.2C3.7,4.9,2.9,5.7,2,6.7V6c0-1.1,0.9-2,2-2H8z"/>
	<path class="st1" d="M9.5,4C9.3,4.1,9.2,4.1,9.1,4.1C8,4.4,6.6,6.4,6.5,6.6C6,7.3,4.7,8.7,2,11.2v3.1c1.7-2.1,3.7-4.3,6-6.5
		c1.4-1.4,2.9-2.7,4.2-3.8H9.5z M11.1,28c-0.1,0.1-0.1,0.2-0.2,0.2C11,28.2,11.1,28.1,11.1,28L11.1,28z M14.7,22.7
		c-1.4,1.2-2.9,2.5-4.3,3.7c1.2-1.2,2.5-2.4,3.8-3.7H8.3c-2,1.9-3.8,3.6-5.3,5.1C3.3,27.9,3.6,28,4,28h7.1c1.5-1.7,3.1-3.5,5.1-5.3
		H14.7z M18.9,19c-0.4,0.4-0.9,0.8-1.3,1.2c0.2,0.4,0.3,0.7,0.4,1c0.3-0.2,0.5-0.5,0.8-0.7c0.6-0.5,1.2-1,1.7-1.4H18.9z M28,4H14.5
		c-0.8,1-1.7,2-2.6,2.9c-2.2,2.4-4.3,4.5-6.4,6.4c1.1-1.7,2.6-3.6,4.5-5.5C11.7,6.3,13.2,5,14.5,4h-2L2,14.6V26
		c0,0.5,0.2,0.9,0.5,1.3c1.2-1.3,2.7-2.8,4.5-4.6H6v-1c0,0,0-2.2,2.5-3.3c0.8-0.8,1.7-1.7,2.6-2.5c-0.5-0.1-0.8-0.4-1.2-0.7
		c-1.1,0.9-2.1,1.7-3.2,2.5c0.9-0.9,1.9-1.9,2.9-2.8C9.2,14.3,9,13.7,9,13c0-1.7,1.3-3,3-3c0.8,0,1.5,0.3,2,0.8
		c1.9-1.6,3.8-3.2,5.6-4.5c-1.3,1.3-2.7,2.7-4.2,4.1c-0.3,0.3-0.7,0.6-1,0.9c0.3,0.3,0.4,0.7,0.5,1.1C17,10.6,19,8.9,21,7.4
		c-1.3,1.3-2.7,2.7-4.2,4.1c-0.6,0.6-1.2,1.1-1.8,1.6v0c0,0.7-0.3,1.3-0.7,1.8c0.4-0.4,0.9-0.9,1.4-1.3c5-4.7,10.2-8.4,10.5-8.2
		c0.1,0.1-1,1.3-4.6,4.7c0.2,0,0.3-0.1,0.5-0.1c0.3,0,0.6,0.1,0.9,0.2h0c0.1,0,0.1,0.1,0.2,0.1c0.4,0.3,0.7,0.7,0.9,1.2
		c1.3-1.1,2.5-2.1,3.8-3c-1.2,1.2-2.4,2.4-3.7,3.6c0,1-0.9,1.9-2,1.9h-0.1c-0.4,0.4-0.9,0.8-1.3,1.2C21,15.1,21.5,15,22,15
		c0.3,0,0.5,0,0.7,0h0c1.8-1.5,3.5-3,5.2-4.3c-1.5,1.5-3.1,2.9-4.7,4.4c0.7,0.1,1.2,0.4,1.6,0.7c0.5-0.3,1-0.7,1.4-1
		c-0.4,0.4-0.8,0.7-1.3,1.1c0.4,0.4,0.7,0.8,0.8,1.2c1.4-1.2,2.9-2.4,4.3-3.4V6C30,4.9,29.1,4,28,4z M11.6,16
		C11.6,16,11.6,16,11.6,16c-1,0.8-1.9,1.5-2.8,2.2c0.8-0.3,1.7-0.5,2.9-0.5c1-1,1.7-1.8,2.3-2.4c-0.5,0.4-1.2,0.7-2,0.7
		C11.9,16,11.7,16,11.6,16z M8.8,18.2c-0.1,0-0.2,0.1-0.3,0.1c-0.1,0.1-0.3,0.3-0.4,0.4C8.3,18.6,8.5,18.4,8.8,18.2z M30,13.7
		L30,13.7l0.4-0.3C30.3,13.5,30.1,13.5,30,13.7z M20,12c0-0.2,0-0.4,0.1-0.6c-1.2,1.2-2.7,2.5-4.3,4.1c-0.8,0.8-1.6,1.5-2.3,2.2
		c0.4,0,0.8,0.1,1.1,0.2c0.3-0.3,0.6-0.6,0.9-0.9c0.3-0.3,0.6-0.6,0.9-0.9c0,0,0-0.1,0.1-0.1c0.3-0.3,0.6-0.6,0.9-0.9
		c0.2-0.2,0.5-0.5,0.7-0.7c0.4-0.4,0.9-0.8,1.4-1.3c0.2-0.2,0.5-0.4,0.7-0.6C20,12.4,20,12.2,20,12z M20.3,13.1
		c-0.5,0.5-0.9,1-1.4,1.4c-1.3,1.2-2.5,2.4-3.8,3.6c0.4,0.1,0.7,0.3,1,0.5c1.6-1.6,3.3-3.2,5.2-4.8C20.8,13.7,20.5,13.4,20.3,13.1z
		 M18,18.2c0,0,0-0.5,0.2-1.1c-0.7,0.5-1.3,1.1-2,1.6c0.5,0.3,0.8,0.7,1.1,1.1c0.3-0.3,0.6-0.5,0.9-0.8H18V18.2z M16,18.6
		c-0.4,0.4-0.9,0.9-1.3,1.3c0.5-0.4,1-0.8,1.5-1.2C16.2,18.7,16.1,18.6,16,18.6z M21.5,19c-0.5,0.4-1,0.8-1.4,1.3
		c-0.7,0.6-1.4,1.2-2,1.8v0.6h-0.7c-2,1.8-4.1,3.6-6.1,5.3h2c1.8-1.8,3.8-3.6,5.9-5.4c1.5-1.3,2.9-2.5,4.3-3.6H21.5z"/>
	<path class="st1" d="M30,13.7V26c0,1.1-0.9,2-2,2H13.5c1.6-1.3,3.3-2.6,4.9-4c2-1.5,4-3.2,6-5H26v-0.8c0,0,0-0.2-0.1-0.6
		c0.1-0.1,0.2-0.2,0.2-0.2C27.5,16.2,28.8,15,30,13.7z"/>
	<path class="st1" d="M8.8,18.2c-0.2,0.2-0.5,0.4-0.7,0.5c0.1-0.1,0.3-0.3,0.4-0.4C8.6,18.3,8.7,18.2,8.8,18.2z"/>
	<path class="st1" d="M16.3,18.7c-0.5,0.4-1,0.8-1.5,1.2c0.4-0.4,0.9-0.8,1.3-1.3C16.1,18.6,16.2,18.7,16.3,18.7z"/>
	<path class="st1" d="M10.2,22.7h0.1c-0.2,0.2-0.4,0.4-0.6,0.5C9.9,23,10,22.9,10.2,22.7z"/>
	<path class="st1" d="M24.4,9c-0.4,0.4-0.9,0.9-1.3,1.3c-0.1,0-0.1-0.1-0.2-0.1C23.4,9.8,23.9,9.4,24.4,9z"/>
	<path class="st1" d="M11.2,28c-0.1,0.1-0.2,0.2-0.3,0.2C11,28.2,11,28.1,11.2,28L11.2,28z"/>
	<path class="st1" d="M30.4,13.3L30,13.7v-0.1C30.1,13.5,30.3,13.5,30.4,13.3z"/>
</g>
</svg>
