<?xml version="1.0" encoding="utf-8"?>
<!-- Generator: Adobe Illustrator 23.0.0, SVG Export Plug-In . SVG Version: 6.00 Build 0)  -->
<svg version="1.1" id="Layer_1" xmlns="http://www.w3.org/2000/svg" xmlns:xlink="http://www.w3.org/1999/xlink" x="0px" y="0px"
	 viewBox="0 0 16 16" style="enable-background:new 0 0 16 16;" xml:space="preserve">
<style type="text/css">
	.st0{clip-path:url(#SVGID_2_);fill:#F75049;}
</style>
<g>
	<defs>
		<path id="SVGID_1_" d="M24.4,5.1c-0.1-0.2-0.4,0-0.7-0.3c-0.3-0.2-0.2-0.4-0.4-0.5c-0.5-0.3-1.5,0.6-1.6,0.6c0,0,0.4-0.3,0.9-0.8
			c0.3-0.3,0.8-0.8,0.6-1.2c-0.1-0.2-0.3-0.2-0.4-0.4c-0.1-0.3,0.6-0.5,0.5-0.9c0-0.2-0.2-0.4-0.4-0.4c-0.4-0.2-0.9,0.3-1,0.2
			c0,0,0.3-0.2,0.5-0.6c0-0.1,0.2-0.4,0.1-0.6c-0.1-0.1-0.3-0.1-0.5-0.1c-0.1,0-0.2,0.1-0.3,0.1c0,0,0-0.1,0-0.2
			c0-0.2-0.4-0.3-0.7-0.4c-0.6-0.1-1.1,0.6-1.2,0.5c-0.1-0.1,0.6-0.6,0.4-1.1c-0.1-0.2-0.3-0.3-0.4-0.3c-0.3,0-0.5,0.4-0.6,0.3
			c-0.2-0.1,0.1-0.9-0.1-1C19.2-2,19-1.8,18.6-2c-0.2-0.1-0.2-0.2-0.3-0.2c-0.4-0.1-0.9,0.5-1.6,1.1c-0.3,0.3-0.7,0.6-1.4,1
			C15.7-0.5,16-0.8,16.2-1c0.5-0.5,0.7-0.7,0.8-1.1c0-0.2,0-0.4-0.2-0.5c-0.2-0.1-0.5,0.2-1.3,0.7c-0.2,0.1-0.4,0.3-0.5,0.3
			c0,0,0.4-0.4,0.2-0.8c0,0-0.1-0.2-0.2-0.3c-0.5-0.4-1.3-0.2-1.5-0.2c-1,0.3-1.3,1-2.6,1.6c0,0-0.2,0.1-0.4,0.2
			c-0.5,0.3-0.7,0.4-0.8,0.5C9.5-0.4,9.2-0.3,9.1,0C8.9,0.3,9,0.5,8.8,0.7C8.7,0.9,8.5,0.9,8.4,1C7.7,1.1,6.8,2.4,6.7,2.6
			c-0.5,0.7-2,2.3-6.2,6.1c5.7-6,7.4-7.9,7.5-8.1c0,0,0,0,0,0c0-0.1,0.2-0.5,0-0.7c-0.1-0.1-0.3,0-0.4-0.2c0,0-0.1-0.1,0-0.2
			c0-0.2,0.5-0.3,0.5-0.4c0,0-0.1-0.1-0.2-0.1C7.5-1.1,7.5-1.2,7.3-1.3C7-1.3,6.7-1.2,6.5-1.1C6.3-0.9,6.1-0.8,6.1-0.8
			C6-0.9,6.1-1,6-1.1C6-1.3,5.8-1.2,5.7-1.2C5.3-1.2,5.1-0.9,4.9-1C4.9-1,4.9-1.2,4.8-1.3C4.7-1.5,4.6-1.4,4.4-1.6
			C4.2-1.7,4.3-1.9,4-2.2C4-2.3,3.8-2.5,3.6-2.6c-0.3-0.1-0.3,0-0.6-0.1C2.6-2.8,2.6-3,2.4-3C2.2-3,2-3,1.9-2.9
			C1.5-2.7,1.5-2.5,1.3-2.5C1.1-2.5,1-2.8,0.7-2.8c-0.1,0-0.3,0-0.3,0c-0.1,0.1,0,0.4-0.1,0.6C0.1-2.2,0-2.2-0.1-2.2
			c-0.1-0.1-0.1-0.2-0.2-0.2C-0.5-2.7-1.6-2.4-2-1.7C-2-1.6-2.1-1.4-2.2-1.4c-0.2,0.1-0.3,0-0.6,0c-0.3,0-0.6,0.3-1.3,1.2
			c0,0-0.2,0.2-0.7,0.8C-5.8,1.7-6,1.9-6,2.3C-6,2.9-6,3.1-6,3.1c0,0.1,0.1,0.3,0,0.4c-0.1,0.1-0.1,0-0.2,0.1
			c-0.1,0.2,0.1,0.4,0,0.9c0,0,0,0-0.1,0.3c-0.1,0.6-0.1,0.8,0,0.9C-6.1,5.8-6,5.8-5.9,5.8c0.2,0,0.4-0.1,0.4-0.1
			C-5,5.2-4.6,4.6-4.1,4.1c-0.2,0.4-0.4,0.7-0.5,0.9C-4.8,5.2-5,5.4-5.2,5.8c-0.1,0.1-0.1,0.2-0.2,0.4c-0.1,0.3-0.2,0.6-0.1,0.9
			c0.1,0.1,0.1,0.2,0.2,0.4c0,0.2-0.1,0.3,0,0.5C-5.2,8.1-5.2,8-5.1,8.1c0.1,0.2,0,0.4,0,0.7C-5,9-4.9,9-4.9,9.2
			c0.1,0.3-0.1,0.5,0,0.9c0,0.2,0,0.3,0.1,0.3c0.2,0.2,0.4-0.1,0.7,0.1c0.2,0.1,0.1,0.4,0.4,0.5c0.1,0,0.2-0.1,0.5,0
			c0,0,0.4,0,0.4,0.2c0,0.1-0.1,0.3-0.3,0.4c-0.4,0.2-1-0.1-1,0c0,0.1,0.1,0.3,0.3,0.4c1.2,1.1,1.2,1.2,1.6,1.4
			c0.4,0.2,0.3,0.1,0.8,0.4c0.6,0.4,1.3,0.7,1.3,1.2c0,0.3-0.2,0.3-0.2,0.7c0,0.3,0.1,0.7,0.4,0.8c0.2,0.1,0.4-0.1,0.7-0.1
			c0.4,0,0.4,0.3,0.7,0.3c0.4,0,0.6-0.5,1-0.4c0.2,0,0.2,0.2,0.5,0.3c0.2,0.1,0.5,0,0.6,0c1.3-1.3,3.2-3.3,5.5-5.7
			c2-2.1,2.5-2.7,3.6-3.7c3.2-3,6.5-5.3,6.6-5.2c0.1,0.1-1.4,1.5-6.6,6.4c-3.6,3.4-6.5,6.2-8.5,8.1c0,0.4,0.1,0.5,0.2,0.6
			c0.3,0.2,0.6-0.2,0.9,0c0.1,0.1,0.3,0.3,0.4,0.5c0.1,0.2,0,0.3,0.1,0.5c0.1,0.1,0.1,0,0.2,0.1c0.2,0.2,0.1,0.4,0.3,0.6
			c0.2,0.2,0.5,0.1,0.5,0.2c0,0.1-0.1,0.2,0,0.3c0,0.2,0.2,0.2,0.2,0.3c0.1,0.2-0.3,0.3-0.4,0.7c-0.1,0.3,0.1,0.3,0.1,0.6
			c0,0.6-0.7,0.7-0.7,1.1c0,0.3,0.3,0.5,0.5,0.6c0.4,0.1,0.6-0.5,1-0.5c0.5,0,0.7,0.7,1.1,0.6c0.3,0,0.4-0.4,0.7-0.4
			c0.2,0,0.4,0.1,0.5,0c0.2-0.1,0.1-0.3,0.3-0.3c0.1,0,0.1,0,0.2,0c0.3,0,0.7-0.5,0.8-1c0.1-0.4,0-0.6,0.2-0.9
			c0.1-0.3,0.3-0.4,0.4-0.5c0.7-0.5,1.4-1.2,2.2-1.9c1-0.9,1.1-1.3,1.8-1.7c0.1,0,0.3-0.2,0.6-0.4c0.4-0.3,0.5-0.7,0.7-1
			c0.5-0.9,1-1,2-2.4c0-0.1,0.3-0.4,0.2-0.4c-0.1-0.1-1.4,1.4-1.7,1.2c-0.1-0.1-0.1-0.2-0.1-0.3c0.1-0.7,1-0.9,2.3-2
			c0.3-0.3,0.2-0.2,0.6-0.6c1-0.9,2.1-1.5,2.3-2.1c0.2-0.3,0.3-0.7,0.3-0.7C23,7.1,23,7,23,7c0.1-0.3,0.3-0.4,0.8-1
			C24.4,5.3,24.4,5.1,24.4,5.1z M4.1,4.1c-0.4,0.5-0.8,0.8-1.1,1C3.1,4.8,3.4,4.4,3.9,4c0.2-0.2,0.4-0.3,0.5-0.4
			C4.3,3.8,4.2,4,4.1,4.1z M3.8,2.7C4.4,2,4.9,1.5,5.5,1C5.1,1.6,4.6,2.2,4,2.8c-0.4,0.4-0.8,0.7-1.1,1C3.1,3.4,3.4,3.1,3.8,2.7z
			 M-2.9,2.6c0.1-0.2,0.3-0.5,0.5-0.8c0.1-0.1,0.2-0.2,0.3-0.3c-0.1,0.1-0.1,0.2-0.2,0.3C-2.5,2.2-2.7,2.4-2.9,2.6z M-1.9,12.4
			c-0.1,0.1-0.3,0.2-0.3,0.2c0-0.1,0-0.2,0.1-0.4c0.1-0.2,0.3-0.2,0.4-0.2C-1.7,12.1-1.7,12.2-1.9,12.4z M-2.2,6.8
			c0.4-0.5,0.8-1,1.2-1.4c0,0.1,0,0.2,0,0.4C-1.4,6.1-1.8,6.4-2.2,6.8z M-0.2,14c-0.1,0-0.2-0.2-0.6-0.7C-0.9,13.2-1,13.1-1,13
			c0-0.1,0.1-0.1,0.3-0.2c0.1-0.1,0.3-0.2,0.5-0.5c0,0.2-0.1,0.4-0.1,0.5C-0.4,12.8-0.5,13-0.4,13c0,0.1,0.1,0,0.2,0.1
			c0.1,0.1,0,0.2,0,0.3C-0.3,13.8-0.1,14-0.2,14z M-0.3,0.5C-0.2,0.3,0,0,0.2-0.3c0.1-0.1,0.2-0.2,0.3-0.3C0.5-0.4,0.4-0.3,0.3-0.2
			C0.1,0.1-0.1,0.3-0.3,0.5z M3.1,8.4c1.3-1.6,2.8-3.3,4.6-5.1C9,2,10.3,0.9,11.5,0c-0.9,0.8-1.8,1.7-2.7,2.6
			C6.8,4.5,4.9,6.5,3.1,8.4z M9,3.3c1-1,2-1.8,2.8-2.4c-0.5,0.6-1.1,1.2-1.6,1.9C8.8,4.2,7.4,5.6,6.1,6.8C6.8,5.8,7.8,4.5,9,3.3z
			 M11.2,5.5c1.3-1.1,2.6-2.2,3.9-3.1c-0.8,0.8-1.7,1.7-2.7,2.6c-1.9,1.7-3.7,3.3-5.5,4.6C8.2,8.2,9.6,6.8,11.2,5.5z M13.2,5.6
			c-1.9,1.7-3.7,3.3-5.5,4.6c1.3-1.3,2.8-2.7,4.3-4C13.4,5.1,14.7,4,15.9,3C15.1,3.9,14.2,4.8,13.2,5.6z M20.1,3.8
			c-0.8,0.8-1.7,1.7-2.7,2.6c-1.9,1.7-3.7,3.3-5.5,4.6c1.3-1.3,2.8-2.7,4.3-4C17.6,5.8,18.9,4.7,20.1,3.8z M8.8,13.1
			c1.7-2,3.8-4.2,6.1-6.3C16,5.8,17,4.9,18,4.1c-1.1,1.2-2.3,2.3-3.5,3.5C12.6,9.4,10.7,11.2,8.8,13.1z M9.2,15
			c1.9-1.8,3.9-3.7,6-5.6c1.7-1.5,3.4-2.9,5-4.3c-1.3,1.3-2.7,2.5-4.1,3.8C13.8,11.1,11.5,13.1,9.2,15z M9.5,16.2
			c1.3-1.5,2.9-3.2,4.9-4.9c1.7-1.4,3.3-2.6,4.8-3.5c-1.3,1.1-2.6,2.3-3.9,3.4C13.4,12.9,11.4,14.5,9.5,16.2z M19.2,9.4
			c-1.4,1.3-2.9,2.5-4.3,3.6c0.3-0.2,0.5-0.5,0.8-0.7c0.9-0.9,1.8-1.7,2.7-2.6C18.2,9.8,18.1,9.9,18,10c-0.1,0.1-0.1,0.1-0.2,0.2
			c-1.5,1.3-2.9,2.6-4.2,3.9c-1.1,0.9-2.2,1.8-3.2,2.6c1.3-1.3,2.8-2.7,4.3-4c1.2-1,2.4-2,3.5-2.9c1.2-1.1,2.5-2.1,3.6-3
			C21,7.7,20.1,8.5,19.2,9.4z"/>
	</defs>
	<clipPath id="SVGID_2_">
		<use xlink:href="#SVGID_1_"  style="overflow:visible;"/>
	</clipPath>
	<path class="st0" d="M7.9,5.9H7.5c0-0.2-0.1-0.3-0.2-0.5C7.1,5.2,7,5,6.9,4.8C6.8,4.6,6.6,4.4,6.5,4.3C6.3,4.1,6.2,4,6.1,4
		C5.9,4,5.8,4,5.6,4C5.4,4,5.2,4,5,4H4.6v7.3c0,0.1,0,0.3,0.1,0.4c0.1,0.1,0.2,0.2,0.3,0.3c0.1,0,0.2,0.1,0.5,0.1
		C5.8,12,6,12.1,6.1,12.1v0.5H1.8v-0.5c0.1,0,0.3,0,0.5-0.1c0.2,0,0.4-0.1,0.5-0.1c0.1-0.1,0.2-0.1,0.3-0.2c0.1-0.1,0.1-0.2,0.1-0.4
		V4H2.9C2.8,4,2.6,4,2.4,4C2.2,4,2,4,1.8,4C1.7,4,1.6,4.1,1.4,4.3C1.3,4.4,1.1,4.6,1,4.8C0.9,5,0.8,5.2,0.7,5.4
		C0.6,5.6,0.5,5.8,0.4,5.9H0V3.5h7.9V5.9z"/>
	<path class="st0" d="M16,5.9h-0.4c0-0.2-0.1-0.3-0.2-0.5C15.3,5.2,15.1,5,15,4.8c-0.1-0.2-0.3-0.4-0.4-0.5C14.4,4.1,14.3,4,14.2,4
		c-0.1,0-0.3,0-0.5,0c-0.2,0-0.4,0-0.6,0h-0.4v7.3c0,0.1,0,0.3,0.1,0.4c0.1,0.1,0.2,0.2,0.3,0.3c0.1,0,0.2,0.1,0.5,0.1
		c0.2,0.1,0.4,0.1,0.6,0.1v0.5H9.9v-0.5c0.1,0,0.3,0,0.5-0.1c0.2,0,0.4-0.1,0.5-0.1c0.1-0.1,0.2-0.1,0.3-0.2
		c0.1-0.1,0.1-0.2,0.1-0.4V4H11c-0.1,0-0.3,0-0.5,0c-0.2,0-0.4,0-0.6,0C9.8,4,9.7,4.1,9.5,4.3C9.4,4.4,9.2,4.6,9.1,4.8
		C9,5,8.9,5.2,8.8,5.4C8.7,5.6,8.6,5.8,8.6,5.9H8.1V3.5H16V5.9z"/>
</g>
</svg>
